P3 
50 50 
255
0 0 0
0 0 0
0 0 0
0 0 0
0 0 0
0 0 0
0 0 0
0 0 0
0 0 0
0 0 0
0 0 0
0 0 0
0 0 0
0 0 0
0 0 0
0 0 0
0 0 0
0 0 0
0 0 0
0 0 0
0 0 0
0 0 0
0 0 0
0 0 0
0 0 0
0 0 0
0 0 0
0 0 0
0 0 0
0 0 0
0 0 0
0 0 0
0 0 0
0 0 0
0 0 0
0 0 0
0 0 0
0 0 0
0 0 0
0 0 0
0 0 0
0 0 0
0 0 0
0 0 0
0 0 0
0 0 0
0 0 0
0 0 0
0 0 0
0 0 0
0 0 0
2 2 2
2 2 2
2 2 2
2 2 2
2 2 2
2 2 2
2 2 2
2 2 2
2 2 2
2 2 2
2 2 2
2 2 2
2 2 2
2 2 2
2 2 2
2 2 2
2 2 2
1 1 1
2 2 2
3 3 3
2 2 2
3 3 3
3 3 3
4 4 4
2 2 2
4 4 4
4 4 4
5 5 5
6 6 6
8 8 8
13 13 13
4 4 4
2 2 2
2 2 2
2 2 2
2 2 2
2 2 2
2 2 2
2 2 2
2 2 2
2 2 2
2 2 2
2 2 2
2 2 2
2 2 2
2 2 2
2 2 2
2 2 2
0 0 0
0 0 0
2 2 2
2 2 2
2 2 2
2 2 2
2 2 2
2 2 2
2 2 2
2 2 2
2 2 2
2 2 2
2 2 2
2 2 2
2 2 2
2 2 2
2 2 2
2 2 2
2 2 2
2 2 2
3 3 3
3 3 3
4 4 4
4 4 4
4 4 4
3 3 3
2 2 2
15 15 15
11 11 11
18 18 18
22 22 22
22 22 22
17 17 17
15 15 15
22 22 22
18 18 18
2 2 2
2 2 2
2 2 2
2 2 2
2 2 2
2 2 2
2 2 2
2 2 2
2 2 2
2 2 2
2 2 2
2 2 2
2 2 2
2 2 2
0 0 0
0 0 0
2 2 2
2 2 2
2 2 2
2 2 2
2 2 2
2 2 2
2 2 2
2 2 2
2 2 2
2 2 2
2 2 2
2 2 2
1 1 1
1 1 1
3 3 3
2 2 2
3 3 3
2 2 2
3 3 3
3 3 3
4 4 4
4 4 4
4 4 4
4 4 4
9 9 9
10 10 10
21 21 21
22 22 22
16 16 16
14 14 14
20 20 20
17 17 17
15 15 15
16 16 16
17 17 17
18 18 18
2 2 2
2 2 2
2 2 2
2 2 2
2 2 2
2 2 2
2 2 2
2 2 2
2 2 2
2 2 2
2 2 2
2 2 2
0 0 0
0 0 0
2 2 2
2 2 2
2 2 2
2 2 2
2 2 2
2 2 2
2 2 2
2 2 2
2 2 2
2 2 2
2 2 2
1 1 1
2 2 2
2 2 2
3 3 3
3 3 3
3 3 3
3 3 3
4 4 4
2 2 2
3 3 3
3 3 3
6 6 6
4 4 4
15 15 15
17 17 17
21 21 21
34 34 34
52 52 52
33 33 33
7 7 7
5 5 5
15 15 15
18 18 18
17 17 17
10 10 10
15 15 15
9 9 9
2 2 2
2 2 2
2 2 2
2 2 2
2 2 2
2 2 2
2 2 2
2 2 2
2 2 2
2 2 2
0 0 0
0 0 0
2 2 2
2 2 2
2 2 2
2 2 2
2 2 2
2 2 2
2 2 2
2 2 2
2 2 2
0 0 0
3 3 3
3 3 3
2 2 2
3 3 3
3 3 3
3 3 3
3 3 3
4 4 4
4 4 4
3 3 3
2 2 2
6 6 6
11 11 11
39 39 39
66 66 66
83 83 83
83 83 83
85 85 85
85 85 85
88 88 88
84 84 84
84 84 84
80 80 80
56 56 56
19 19 19
12 12 12
15 15 15
15 15 15
17 17 17
2 2 2
2 2 2
2 2 2
2 2 2
2 2 2
2 2 2
2 2 2
2 2 2
2 2 2
0 0 0
0 0 0
2 2 2
2 2 2
2 2 2
2 2 2
2 2 2
2 2 2
2 2 2
2 2 2
1 1 1
2 2 2
3 3 3
3 3 3
3 3 3
3 3 3
3 3 3
4 4 4
5 5 5
3 3 3
6 6 6
8 8 8
10 10 10
29 29 29
75 75 75
86 86 86
93 93 93
131 131 131
165 165 165
202 202 202
199 199 199
191 191 191
184 184 184
184 184 184
190 190 190
151 151 151
95 95 95
86 86 86
74 74 74
22 22 22
9 9 9
11 11 11
4 4 4
2 2 2
2 2 2
2 2 2
2 2 2
2 2 2
2 2 2
2 2 2
0 0 0
0 0 0
2 2 2
2 2 2
2 2 2
2 2 2
2 2 2
2 2 2
2 2 2
2 2 2
2 2 2
2 2 2
3 3 3
4 4 4
4 4 4
4 4 4
3 3 3
3 3 3
2 2 2
5 5 5
64 64 64
84 84 84
86 86 86
87 87 87
104 104 104
149 149 149
97 97 97
86 86 86
88 88 88
92 92 92
90 90 90
89 89 89
88 88 88
98 98 98
123 123 123
159 159 159
174 174 174
191 191 191
170 170 170
91 91 91
78 78 78
9 9 9
10 10 10
10 10 10
2 2 2
2 2 2
2 2 2
2 2 2
2 2 2
2 2 2
0 0 0
0 0 0
2 2 2
2 2 2
2 2 2
2 2 2
2 2 2
2 2 2
2 2 2
2 2 2
2 2 2
2 2 2
3 3 3
3 3 3
3 3 3
4 4 4
2 2 2
6 6 6
59 59 59
80 80 80
83 83 83
86 86 86
96 96 96
141 141 141
93 93 93
86 86 86
86 86 86
86 86 86
86 86 86
87 87 87
87 87 87
86 86 86
86 86 86
87 87 87
87 87 87
87 87 87
89 89 89
137 137 137
170 170 170
186 186 186
165 165 165
86 86 86
23 23 23
22 22 22
6 6 6
2 2 2
2 2 2
2 2 2
2 2 2
2 2 2
0 0 0
0 0 0
2 2 2
2 2 2
2 2 2
2 2 2
2 2 2
2 2 2
2 2 2
3 3 3
2 2 2
3 3 3
2 2 2
11 11 11
79 79 79
81 81 81
80 80 80
83 83 83
82 82 82
83 83 83
86 86 86
142 142 142
126 126 126
85 85 85
85 85 85
86 86 86
86 86 86
86 86 86
87 87 87
87 87 87
87 87 87
87 87 87
87 87 87
87 87 87
88 88 88
88 88 88
87 87 87
87 87 87
89 89 89
153 153 153
174 174 174
187 187 187
87 87 87
13 13 13
55 55 55
2 2 2
2 2 2
2 2 2
2 2 2
2 2 2
0 0 0
0 0 0
2 2 2
2 2 2
2 2 2
2 2 2
2 2 2
2 2 2
2 2 2
3 3 3
3 3 3
4 4 4
36 36 36
81 81 81
87 87 87
154 154 154
80 80 80
84 84 84
86 86 86
86 86 86
149 149 149
85 85 85
85 85 85
86 86 86
86 86 86
86 86 86
86 86 86
87 87 87
87 87 87
87 87 87
86 86 86
87 87 87
87 87 87
87 87 87
87 87 87
87 87 87
88 88 88
88 88 88
87 87 87
88 88 88
101 101 101
159 159 159
186 186 186
84 84 84
22 22 22
25 25 25
2 2 2
2 2 2
2 2 2
2 2 2
0 0 0
0 0 0
2 2 2
2 2 2
2 2 2
2 2 2
2 2 2
2 2 2
3 3 3
2 2 2
4 4 4
4 4 4
53 53 53
99 99 99
170 170 170
108 108 108
84 84 84
85 85 85
92 92 92
127 127 127
85 85 85
85 85 85
86 86 86
86 86 86
86 86 86
86 86 86
86 86 86
86 86 86
87 87 87
87 87 87
87 87 87
87 87 87
86 86 86
87 87 87
88 88 88
87 87 87
87 87 87
88 88 88
88 88 88
87 87 87
88 88 88
113 113 113
172 172 172
184 184 184
65 65 65
52 52 52
23 23 23
2 2 2
2 2 2
2 2 2
0 0 0
0 0 0
2 2 2
2 2 2
2 2 2
3 3 3
3 3 3
2 2 2
2 2 2
2 2 2
2 2 2
6 6 6
50 50 50
97 97 97
175 175 175
153 153 153
81 81 81
82 82 82
139 139 139
88 88 88
85 85 85
85 85 85
85 85 85
86 86 86
86 86 86
87 87 87
87 87 87
86 86 86
87 87 87
87 87 87
87 87 87
86 86 86
87 87 87
87 87 87
87 87 87
87 87 87
87 87 87
88 88 88
87 87 87
88 88 88
88 88 88
88 88 88
135 135 135
187 187 187
120 120 120
51 51 51
21 21 21
7 7 7
2 2 2
2 2 2
0 0 0
0 0 0
2 2 2
2 2 2
2 2 2
2 2 2
2 2 2
2 2 2
2 2 2
3 3 3
3 3 3
16 16 16
78 78 78
84 84 84
78 78 78
87 87 87
96 96 96
96 96 96
123 123 123
84 84 84
85 85 85
85 85 85
86 86 86
86 86 86
86 86 86
87 87 87
85 85 85
86 86 86
87 87 87
87 87 87
87 87 87
87 87 87
87 87 87
86 86 86
87 87 87
87 87 87
87 87 87
87 87 87
88 88 88
88 88 88
88 88 88
88 88 88
87 87 87
169 169 169
205 205 205
80 80 80
24 24 24
92 92 92
2 2 2
2 2 2
0 0 0
0 0 0
2 2 2
2 2 2
3 3 3
2 2 2
2 2 2
3 3 3
3 3 3
3 3 3
4 4 4
79 79 79
87 87 87
84 84 84
86 86 86
77 77 77
89 89 89
97 97 97
125 125 125
84 84 84
85 85 85
85 85 85
86 86 86
86 86 86
86 86 86
86 86 86
86 86 86
86 86 86
87 87 87
87 87 87
86 86 86
86 86 86
86 86 86
86 86 86
87 87 87
85 85 85
87 87 87
87 87 87
88 88 88
88 88 88
87 87 87
88 88 88
88 88 88
133 133 133
187 187 187
106 106 106
51 51 51
83 83 83
5 5 5
2 2 2
0 0 0
0 0 0
2 2 2
2 2 2
3 3 3
3 3 3
3 3 3
3 3 3
4 4 4
1 1 1
59 59 59
88 88 88
84 84 84
84 84 84
84 84 84
79 79 79
76 76 76
95 95 95
124 124 124
104 104 104
85 85 85
86 86 86
86 86 86
86 86 86
86 86 86
86 86 86
86 86 86
87 87 87
86 86 86
86 86 86
86 86 86
87 87 87
87 87 87
87 87 87
86 86 86
87 87 87
87 87 87
88 88 88
88 88 88
88 88 88
87 87 87
88 88 88
88 88 88
88 88 88
171 171 171
188 188 188
59 59 59
63 63 63
27 27 27
2 2 2
0 0 0
0 0 0
2 2 2
2 2 2
3 3 3
3 3 3
3 3 3
2 2 2
3 3 3
1 1 1
80 80 80
87 87 87
85 85 85
84 84 84
85 85 85
78 78 78
82 82 82
82 82 82
82 82 82
141 141 141
86 86 86
86 86 86
85 85 85
85 85 85
85 85 85
85 85 85
87 87 87
86 86 86
86 86 86
86 86 86
86 86 86
86 86 86
87 87 87
87 87 87
87 87 87
87 87 87
86 86 86
87 87 87
87 87 87
87 87 87
87 87 87
87 87 87
88 88 88
88 88 88
109 109 109
173 173 173
70 70 70
45 45 45
17 17 17
4 4 4
0 0 0
0 0 0
1 1 1
2 2 2
3 3 3
3 3 3
3 3 3
2 2 2
2 2 2
0 0 0
83 83 83
81 81 81
85 85 85
84 84 84
79 79 79
77 77 77
84 84 84
88 88 88
83 83 83
82 82 82
86 86 86
90 90 90
87 87 87
85 85 85
86 86 86
86 86 86
86 86 86
87 87 87
87 87 87
86 86 86
85 85 85
86 86 86
87 87 87
87 87 87
87 87 87
87 87 87
87 87 87
87 87 87
88 88 88
87 87 87
87 87 87
87 87 87
87 87 87
87 87 87
88 88 88
162 162 162
86 86 86
35 35 35
16 16 16
22 22 22
0 0 0
0 0 0
1 1 1
2 2 2
2 2 2
2 2 2
2 2 2
1 1 1
1 1 1
11 11 11
91 91 91
75 75 75
77 77 77
83 83 83
86 86 86
75 75 75
18 18 18
14 14 14
54 54 54
43 43 43
83 83 83
92 92 92
90 90 90
87 87 87
86 86 86
85 85 85
86 86 86
86 86 86
86 86 86
86 86 86
86 86 86
85 85 85
87 87 87
87 87 87
88 88 88
87 87 87
87 87 87
87 87 87
88 88 88
88 88 88
88 88 88
88 88 88
87 87 87
87 87 87
89 89 89
139 139 139
96 96 96
29 29 29
14 14 14
22 22 22
0 0 0
0 0 0
2 2 2
2 2 2
2 2 2
1 1 1
0 0 0
13 13 13
56 56 56
110 110 110
153 153 153
115 115 115
61 61 61
37 37 37
20 20 20
14 14 14
2 2 2
21 21 21
6 6 6
9 9 9
46 46 46
101 101 101
96 96 96
89 89 89
92 92 92
85 85 85
86 86 86
87 87 87
87 87 87
87 87 87
86 86 86
86 86 86
85 85 85
85 85 85
86 86 86
87 87 87
88 88 88
87 87 87
87 87 87
87 87 87
87 87 87
87 87 87
87 87 87
87 87 87
154 154 154
138 138 138
98 98 98
26 26 26
16 16 16
17 17 17
0 0 0
0 0 0
2 2 2
2 2 2
1 1 1
8 8 8
84 84 84
51 51 51
10 10 10
6 6 6
15 15 15
9 9 9
44 44 44
69 69 69
65 65 65
57 57 57
57 57 57
42 42 42
59 59 59
13 13 13
0 0 0
77 77 77
88 88 88
87 87 87
95 95 95
86 86 86
87 87 87
87 87 87
87 87 87
87 87 87
86 86 86
86 86 86
86 86 86
87 87 87
86 86 86
86 86 86
88 88 88
88 88 88
87 87 87
88 88 88
88 88 88
88 88 88
88 88 88
90 90 90
164 164 164
152 152 152
101 101 101
23 23 23
18 18 18
14 14 14
0 0 0
0 0 0
0 0 0
1 1 1
1 1 1
63 63 63
89 89 89
82 82 82
88 88 88
90 90 90
94 94 94
60 60 60
35 35 35
36 36 36
46 46 46
50 50 50
55 55 55
33 33 33
42 42 42
2 2 2
1 1 1
112 112 112
91 91 91
104 104 104
88 88 88
85 85 85
86 86 86
87 87 87
87 87 87
87 87 87
86 86 86
86 86 86
85 85 85
86 86 86
87 87 87
87 87 87
87 87 87
87 87 87
87 87 87
87 87 87
88 88 88
87 87 87
88 88 88
88 88 88
164 164 164
166 166 166
93 93 93
21 21 21
21 21 21
15 15 15
0 0 0
0 0 0
0 0 0
1 1 1
1 1 1
18 18 18
85 85 85
66 66 66
33 33 33
14 14 14
16 16 16
39 39 39
56 56 56
42 42 42
51 51 51
33 33 33
1 1 1
27 27 27
9 9 9
1 1 1
5 5 5
93 93 93
91 91 91
87 87 87
87 87 87
85 85 85
86 86 86
86 86 86
87 87 87
86 86 86
86 86 86
86 86 86
86 86 86
87 87 87
87 87 87
87 87 87
87 87 87
87 87 87
87 87 87
87 87 87
88 88 88
88 88 88
88 88 88
87 87 87
136 136 136
171 171 171
81 81 81
18 18 18
21 21 21
16 16 16
0 0 0
0 0 0
1 1 1
1 1 1
2 2 2
1 1 1
0 0 0
24 24 24
40 40 40
88 88 88
132 132 132
29 29 29
82 82 82
73 73 73
51 51 51
42 42 42
21 21 21
50 50 50
76 76 76
87 87 87
91 91 91
89 89 89
88 88 88
88 88 88
87 87 87
86 86 86
86 86 86
86 86 86
86 86 86
86 86 86
86 86 86
86 86 86
87 87 87
87 87 87
87 87 87
87 87 87
87 87 87
87 87 87
87 87 87
88 88 88
88 88 88
88 88 88
88 88 88
88 88 88
159 159 159
191 191 191
68 68 68
18 18 18
22 22 22
14 14 14
0 0 0
0 0 0
2 2 2
1 1 1
2 2 2
2 2 2
1 1 1
0 0 0
0 0 0
4 4 4
44 44 44
85 85 85
77 77 77
78 78 78
79 79 79
80 80 80
87 87 87
96 96 96
88 88 88
81 81 81
95 95 95
86 86 86
86 86 86
86 86 86
86 86 86
87 87 87
87 87 87
87 87 87
86 86 86
87 87 87
86 86 86
87 87 87
87 87 87
87 87 87
87 87 87
87 87 87
87 87 87
88 88 88
88 88 88
88 88 88
87 87 87
88 88 88
88 88 88
88 88 88
171 171 171
165 165 165
41 41 41
21 21 21
22 22 22
14 14 14
0 0 0
0 0 0
1 1 1
2 2 2
2 2 2
1 1 1
1 1 1
1 1 1
1 1 1
1 1 1
1 1 1
86 86 86
86 86 86
86 86 86
85 85 85
80 80 80
85 85 85
82 82 82
93 93 93
120 120 120
86 86 86
87 87 87
86 86 86
87 87 87
86 86 86
86 86 86
87 87 87
86 86 86
86 86 86
86 86 86
86 86 86
87 87 87
87 87 87
87 87 87
86 86 86
87 87 87
87 87 87
88 88 88
88 88 88
87 87 87
88 88 88
88 88 88
87 87 87
128 128 128
188 188 188
91 91 91
36 36 36
21 21 21
22 22 22
12 12 12
0 0 0
0 0 0
2 2 2
2 2 2
1 1 1
1 1 1
2 2 2
2 2 2
1 1 1
2 2 2
1 1 1
81 81 81
86 86 86
87 87 87
86 86 86
82 82 82
77 77 77
89 89 89
106 106 106
98 98 98
85 85 85
86 86 86
86 86 86
87 87 87
87 87 87
86 86 86
86 86 86
87 87 87
86 86 86
87 87 87
87 87 87
87 87 87
87 87 87
86 86 86
86 86 86
87 87 87
87 87 87
88 88 88
87 87 87
88 88 88
88 88 88
87 87 87
87 87 87
177 177 177
199 199 199
73 73 73
40 40 40
19 19 19
20 20 20
14 14 14
0 0 0
0 0 0
1 1 1
1 1 1
1 1 1
1 1 1
1 1 1
2 2 2
2 2 2
2 2 2
1 1 1
21 21 21
88 88 88
87 87 87
86 86 86
81 81 81
77 77 77
106 106 106
106 106 106
93 93 93
85 85 85
86 86 86
87 87 87
87 87 87
86 86 86
87 87 87
87 87 87
87 87 87
87 87 87
87 87 87
87 87 87
87 87 87
86 86 86
87 87 87
88 88 88
87 87 87
87 87 87
87 87 87
88 88 88
88 88 88
88 88 88
88 88 88
142 142 142
199 199 199
85 85 85
42 42 42
39 39 39
15 15 15
19 19 19
14 14 14
0 0 0
0 0 0
1 1 1
0 0 0
1 1 1
1 1 1
1 1 1
2 2 2
2 2 2
2 2 2
2 2 2
1 1 1
80 80 80
84 84 84
80 80 80
78 78 78
119 119 119
88 88 88
95 95 95
119 119 119
85 85 85
86 86 86
86 86 86
87 87 87
87 87 87
87 87 87
87 87 87
86 86 86
87 87 87
87 87 87
87 87 87
87 87 87
87 87 87
88 88 88
88 88 88
88 88 88
87 87 87
87 87 87
87 87 87
88 88 88
87 87 87
120 120 120
187 187 187
136 136 136
68 68 68
21 21 21
37 37 37
15 15 15
15 15 15
14 14 14
0 0 0
0 0 0
1 1 1
1 1 1
1 1 1
0 0 0
0 0 0
0 0 0
1 1 1
1 1 1
2 2 2
2 2 2
17 17 17
83 83 83
80 80 80
142 142 142
90 90 90
83 83 83
83 83 83
158 158 158
107 107 107
85 85 85
86 86 86
86 86 86
87 87 87
87 87 87
87 87 87
87 87 87
86 86 86
87 87 87
87 87 87
87 87 87
87 87 87
87 87 87
87 87 87
87 87 87
87 87 87
87 87 87
88 88 88
88 88 88
103 103 103
183 183 183
174 174 174
83 83 83
27 27 27
27 27 27
40 40 40
16 16 16
14 14 14
12 12 12
0 0 0
0 0 0
1 1 1
1 1 1
2 2 2
2 2 2
1 1 1
2 2 2
1 1 1
1 1 1
1 1 1
0 0 0
1 1 1
73 73 73
199 199 199
162 162 162
84 84 84
86 86 86
85 85 85
86 86 86
140 140 140
105 105 105
86 86 86
86 86 86
86 86 86
86 86 86
87 87 87
87 87 87
87 87 87
87 87 87
87 87 87
87 87 87
86 86 86
87 87 87
87 87 87
88 88 88
87 87 87
88 88 88
89 89 89
151 151 151
189 189 189
161 161 161
83 83 83
27 27 27
36 36 36
41 41 41
42 42 42
21 21 21
13 13 13
14 14 14
0 0 0
0 0 0
2 2 2
3 3 3
2 2 2
3 3 3
3 3 3
1 1 1
1 1 1
1 1 1
1 1 1
1 1 1
1 1 1
7 7 7
79 79 79
155 155 155
138 138 138
78 78 78
80 80 80
87 87 87
86 86 86
155 155 155
87 87 87
87 87 87
87 87 87
87 87 87
87 87 87
87 87 87
87 87 87
87 87 87
87 87 87
88 88 88
87 87 87
87 87 87
87 87 87
87 87 87
87 87 87
106 106 106
170 170 170
195 195 195
141 141 141
81 81 81
21 21 21
23 23 23
33 33 33
34 34 34
20 20 20
28 28 28
12 12 12
18 18 18
0 0 0
0 0 0
2 2 2
3 3 3
3 3 3
3 3 3
2 2 2
2 2 2
2 2 2
2 2 2
2 2 2
1 1 1
2 2 2
1 1 1
2 2 2
53 53 53
81 81 81
84 84 84
83 83 83
82 82 82
79 79 79
85 85 85
128 128 128
124 124 124
87 87 87
87 87 87
87 87 87
87 87 87
87 87 87
87 87 87
88 88 88
86 86 86
87 87 87
87 87 87
88 88 88
99 99 99
179 179 179
194 194 194
174 174 174
85 85 85
76 76 76
22 22 22
5 5 5
27 27 27
27 27 27
28 28 28
11 11 11
42 42 42
13 13 13
27 27 27
0 0 0
0 0 0
2 2 2
3 3 3
3 3 3
3 3 3
3 3 3
3 3 3
3 3 3
3 3 3
2 2 2
3 3 3
2 2 2
3 3 3
1 1 1
1 1 1
0 0 0
4 4 4
26 26 26
62 62 62
75 75 75
82 82 82
84 84 84
86 86 86
127 127 127
131 131 131
119 119 119
92 92 92
87 87 87
87 87 87
98 98 98
94 94 94
120 120 120
155 155 155
185 185 185
193 193 193
154 154 154
87 87 87
63 63 63
10 10 10
11 11 11
18 18 18
22 22 22
12 12 12
16 16 16
36 36 36
9 9 9
60 60 60
13 13 13
2 2 2
0 0 0
0 0 0
2 2 2
2 2 2
3 3 3
3 3 3
3 3 3
3 3 3
2 2 2
3 3 3
3 3 3
3 3 3
3 3 3
3 3 3
1 1 1
2 2 2
2 2 2
2 2 2
2 2 2
1 1 1
2 2 2
1 1 1
3 3 3
24 24 24
68 68 68
85 85 85
95 95 95
125 125 125
159 159 159
180 180 180
206 206 206
214 214 214
214 214 214
153 153 153
97 97 97
76 76 76
27 27 27
17 17 17
3 3 3
8 8 8
22 22 22
16 16 16
14 14 14
10 10 10
17 17 17
43 43 43
10 10 10
78 78 78
22 22 22
2 2 2
0 0 0
0 0 0
2 2 2
2 2 2
3 3 3
3 3 3
3 3 3
3 3 3
3 3 3
3 3 3
3 3 3
3 3 3
3 3 3
4 4 4
3 3 3
2 2 2
2 2 2
2 2 2
3 3 3
4 4 4
4 4 4
3 3 3
3 3 3
3 3 3
1 1 1
2 2 2
0 0 0
6 6 6
29 29 29
32 32 32
55 55 55
63 63 63
51 51 51
20 20 20
6 6 6
1 1 1
2 2 2
3 3 3
5 5 5
22 22 22
17 17 17
17 17 17
17 17 17
28 28 28
14 14 14
15 15 15
11 11 11
78 78 78
8 8 8
2 2 2
0 0 0
0 0 0
2 2 2
2 2 2
2 2 2
3 3 3
2 2 2
3 3 3
3 3 3
3 3 3
3 3 3
3 3 3
3 3 3
4 4 4
3 3 3
4 4 4
3 3 3
4 4 4
3 3 3
3 3 3
4 4 4
3 3 3
2 2 2
2 2 2
2 2 2
2 2 2
2 2 2
6 6 6
14 14 14
12 12 12
5 5 5
2 2 2
6 6 6
7 7 7
5 5 5
4 4 4
4 4 4
4 4 4
4 4 4
21 21 21
22 22 22
29 29 29
22 22 22
27 27 27
30 30 30
8 8 8
13 13 13
64 64 64
2 2 2
2 2 2
0 0 0
0 0 0
2 2 2
2 2 2
2 2 2
2 2 2
2 2 2
2 2 2
3 3 3
3 3 3
2 2 2
3 3 3
3 3 3
4 4 4
4 4 4
3 3 3
3 3 3
4 4 4
4 4 4
3 3 3
3 3 3
3 3 3
2 2 2
2 2 2
2 2 2
2 2 2
2 2 2
2 2 2
2 2 2
2 2 2
3 3 3
4 4 4
4 4 4
4 4 4
4 4 4
4 4 4
4 4 4
5 5 5
6 6 6
9 9 9
19 19 19
29 29 29
17 17 17
23 23 23
49 49 49
9 9 9
16 16 16
10 10 10
2 2 2
2 2 2
0 0 0
0 0 0
2 2 2
2 2 2
2 2 2
2 2 2
1 1 1
1 1 1
1 1 1
2 2 2
3 3 3
3 3 3
3 3 3
3 3 3
3 3 3
3 3 3
3 3 3
3 3 3
3 3 3
3 3 3
3 3 3
3 3 3
3 3 3
2 2 2
3 3 3
3 3 3
2 2 2
2 2 2
3 3 3
4 4 4
3 3 3
4 4 4
4 4 4
4 4 4
5 5 5
5 5 5
4 4 4
5 5 5
7 7 7
14 14 14
14 14 14
22 22 22
12 12 12
34 34 34
37 37 37
13 13 13
35 35 35
2 2 2
2 2 2
2 2 2
0 0 0
0 0 0
2 2 2
2 2 2
2 2 2
2 2 2
1 1 1
1 1 1
1 1 1
1 1 1
1 1 1
1 1 1
3 3 3
3 3 3
3 3 3
2 2 2
3 3 3
3 3 3
4 4 4
3 3 3
3 3 3
3 3 3
4 4 4
3 3 3
3 3 3
4 4 4
5 5 5
3 3 3
2 2 2
4 4 4
4 4 4
4 4 4
4 4 4
5 5 5
5 5 5
5 5 5
5 5 5
5 5 5
10 10 10
19 19 19
20 20 20
26 26 26
19 19 19
28 28 28
16 16 16
16 16 16
2 2 2
2 2 2
2 2 2
2 2 2
0 0 0
0 0 0
2 2 2
2 2 2
2 2 2
2 2 2
2 2 2
1 1 1
1 1 1
1 1 1
1 1 1
1 1 1
1 1 1
1 1 1
1 1 1
2 2 2
3 3 3
3 3 3
3 3 3
3 3 3
3 3 3
3 3 3
4 4 4
4 4 4
4 4 4
4 4 4
4 4 4
4 4 4
4 4 4
5 5 5
4 4 4
4 4 4
5 5 5
4 4 4
4 4 4
4 4 4
4 4 4
6 6 6
5 5 5
11 11 11
17 17 17
20 20 20
25 25 25
50 50 50
13 13 13
5 5 5
2 2 2
2 2 2
2 2 2
2 2 2
0 0 0
0 0 0
2 2 2
2 2 2
2 2 2
2 2 2
2 2 2
2 2 2
1 1 1
1 1 1
1 1 1
1 1 1
2 2 2
1 1 1
2 2 2
1 1 1
1 1 1
2 2 2
2 2 2
3 3 3
3 3 3
3 3 3
3 3 3
3 3 3
3 3 3
4 4 4
3 3 3
4 4 4
4 4 4
4 4 4
4 4 4
4 4 4
4 4 4
4 4 4
4 4 4
11 11 11
11 11 11
8 8 8
12 12 12
11 11 11
18 18 18
22 22 22
37 37 37
38 38 38
10 10 10
2 2 2
2 2 2
2 2 2
2 2 2
2 2 2
0 0 0
0 0 0
2 2 2
2 2 2
2 2 2
2 2 2
2 2 2
2 2 2
2 2 2
2 2 2
1 1 1
1 1 1
1 1 1
1 1 1
1 1 1
1 1 1
1 1 1
2 2 2
2 2 2
1 1 1
2 2 2
2 2 2
3 3 3
3 3 3
3 3 3
3 3 3
3 3 3
4 4 4
4 4 4
4 4 4
4 4 4
4 4 4
4 4 4
8 8 8
7 7 7
11 11 11
13 13 13
12 12 12
17 17 17
18 18 18
24 24 24
31 31 31
26 26 26
18 18 18
2 2 2
2 2 2
2 2 2
2 2 2
2 2 2
2 2 2
0 0 0
0 0 0
2 2 2
2 2 2
2 2 2
2 2 2
2 2 2
2 2 2
2 2 2
2 2 2
1 1 1
1 1 1
1 1 1
1 1 1
1 1 1
1 1 1
1 1 1
2 2 2
1 1 1
2 2 2
2 2 2
1 1 1
2 2 2
2 2 2
2 2 2
3 3 3
4 4 4
3 3 3
4 4 4
4 4 4
4 4 4
3 3 3
6 6 6
5 5 5
6 6 6
7 7 7
8 8 8
17 17 17
15 15 15
13 13 13
28 28 28
36 36 36
18 18 18
2 2 2
2 2 2
2 2 2
2 2 2
2 2 2
2 2 2
2 2 2
0 0 0
0 0 0
2 2 2
2 2 2
2 2 2
2 2 2
2 2 2
2 2 2
2 2 2
2 2 2
2 2 2
1 1 1
1 1 1
1 1 1
1 1 1
1 1 1
1 1 1
1 1 1
1 1 1
1 1 1
1 1 1
2 2 2
2 2 2
1 1 1
2 2 2
2 2 2
1 1 1
2 2 2
2 2 2
2 2 2
2 2 2
2 2 2
8 8 8
7 7 7
8 8 8
13 13 13
8 8 8
17 17 17
9 9 9
18 18 18
40 40 40
6 6 6
2 2 2
2 2 2
2 2 2
2 2 2
2 2 2
2 2 2
2 2 2
2 2 2
0 0 0
0 0 0
2 2 2
2 2 2
2 2 2
2 2 2
2 2 2
2 2 2
2 2 2
2 2 2
2 2 2
2 2 2
1 1 1
1 1 1
1 1 1
1 1 1
1 1 1
1 1 1
1 1 1
1 1 1
1 1 1
1 1 1
1 1 1
2 2 2
2 2 2
16 16 16
2 2 2
2 2 2
2 2 2
3 3 3
2 2 2
4 4 4
8 8 8
8 8 8
9 9 9
11 11 11
7 7 7
10 10 10
19 19 19
33 33 33
2 2 2
2 2 2
2 2 2
2 2 2
2 2 2
2 2 2
2 2 2
2 2 2
2 2 2
2 2 2
0 0 0
0 0 0
2 2 2
2 2 2
2 2 2
2 2 2
2 2 2
2 2 2
2 2 2
2 2 2
2 2 2
2 2 2
2 2 2
2 2 2
0 0 0
0 0 0
1 1 1
1 1 1
1 1 1
1 1 1
1 1 1
1 1 1
2 2 2
2 2 2
1 1 1
2 2 2
19 19 19
16 16 16
2 2 2
2 2 2
3 3 3
3 3 3
9 9 9
8 8 8
5 5 5
5 5 5
8 8 8
17 17 17
3 3 3
2 2 2
2 2 2
2 2 2
2 2 2
2 2 2
2 2 2
2 2 2
2 2 2
2 2 2
2 2 2
2 2 2
0 0 0
0 0 0
2 2 2
2 2 2
2 2 2
2 2 2
2 2 2
2 2 2
2 2 2
2 2 2
2 2 2
2 2 2
2 2 2
2 2 2
2 2 2
2 2 2
0 0 0
1 1 1
1 1 1
1 1 1
1 1 1
1 1 1
2 2 2
2 2 2
1 1 1
1 1 1
2 2 2
13 13 13
3 3 3
2 2 2
2 2 2
3 3 3
5 5 5
15 15 15
13 13 13
15 15 15
3 3 3
2 2 2
2 2 2
2 2 2
2 2 2
2 2 2
2 2 2
2 2 2
2 2 2
2 2 2
2 2 2
2 2 2
2 2 2
2 2 2
0 0 0
0 0 0
2 2 2
2 2 2
2 2 2
2 2 2
2 2 2
2 2 2
2 2 2
2 2 2
2 2 2
2 2 2
2 2 2
2 2 2
2 2 2
2 2 2
2 2 2
2 2 2
1 1 1
1 1 1
1 1 1
2 2 2
1 1 1
1 1 1
1 1 1
2 2 2
2 2 2
3 3 3
5 5 5
8 8 8
10 10 10
4 4 4
10 10 10
14 14 14
2 2 2
2 2 2
2 2 2
2 2 2
2 2 2
2 2 2
2 2 2
2 2 2
2 2 2
2 2 2
2 2 2
2 2 2
2 2 2
2 2 2
2 2 2
2 2 2
0 0 0
0 0 0
0 0 0
0 0 0
0 0 0
0 0 0
0 0 0
0 0 0
0 0 0
0 0 0
0 0 0
0 0 0
0 0 0
0 0 0
0 0 0
0 0 0
0 0 0
0 0 0
0 0 0
0 0 0
0 0 0
0 0 0
0 0 0
0 0 0
0 0 0
0 0 0
0 0 0
0 0 0
0 0 0
0 0 0
0 0 0
0 0 0
0 0 0
0 0 0
0 0 0
0 0 0
0 0 0
0 0 0
0 0 0
0 0 0
0 0 0
0 0 0
0 0 0
0 0 0
0 0 0
0 0 0
0 0 0
0 0 0
0 0 0
0 0 0
0 0 0
