P3 
50 50 
255
0 0 0
0 0 0
0 0 0
0 0 0
0 0 0
0 0 0
0 0 0
0 0 0
0 0 0
0 0 0
0 0 0
0 0 0
0 0 0
0 0 0
0 0 0
0 0 0
0 0 0
0 0 0
0 0 0
0 0 0
0 0 0
0 0 0
0 0 0
0 0 0
0 0 0
0 0 0
0 0 0
0 0 0
0 0 0
0 0 0
0 0 0
0 0 0
0 0 0
0 0 0
0 0 0
0 0 0
0 0 0
0 0 0
0 0 0
0 0 0
0 0 0
0 0 0
0 0 0
0 0 0
0 0 0
0 0 0
0 0 0
0 0 0
0 0 0
0 0 0
0 0 0
0 0 0
29 29 29
24 24 24
78 78 78
31 31 31
25 25 25
42 42 42
43 43 43
42 42 42
43 43 43
23 23 23
31 31 31
31 31 31
25 25 25
24 24 24
21 21 21
15 15 15
29 29 29
43 43 43
57 57 57
75 75 75
73 73 73
73 73 73
73 73 73
67 67 67
50 50 50
45 45 45
27 27 27
15 15 15
8 8 8
12 12 12
19 19 19
6 6 6
9 9 9
9 9 9
4 4 4
4 4 4
4 4 4
4 4 4
4 4 4
3 3 3
3 3 3
3 3 3
3 3 3
2 2 2
2 2 2
2 2 2
2 2 2
2 2 2
0 0 0
0 0 0
29 29 29
24 24 24
74 74 74
32 32 32
43 43 43
44 44 44
49 49 49
41 41 41
42 42 42
23 23 23
42 42 42
25 25 25
22 22 22
65 65 65
83 83 83
99 99 99
122 122 122
136 136 136
150 150 150
175 175 175
193 193 193
191 191 191
194 194 194
178 178 178
157 157 157
144 144 144
121 121 121
92 92 92
79 79 79
39 39 39
13 13 13
9 9 9
8 8 8
9 9 9
3 3 3
3 3 3
3 3 3
3 3 3
3 3 3
3 3 3
3 3 3
3 3 3
2 2 2
2 2 2
2 2 2
2 2 2
2 2 2
2 2 2
0 0 0
0 0 0
27 27 27
23 23 23
74 74 74
32 32 32
47 47 47
39 39 39
52 52 52
41 41 41
43 43 43
39 39 39
25 25 25
52 52 52
90 90 90
146 146 146
187 187 187
190 190 190
187 187 187
190 190 190
194 194 194
194 194 194
195 195 195
199 199 199
206 206 206
189 189 189
179 179 179
188 188 188
190 190 190
190 190 190
188 188 188
112 112 112
79 79 79
47 47 47
4 4 4
5 5 5
3 3 3
3 3 3
3 3 3
3 3 3
3 3 3
3 3 3
3 3 3
3 3 3
2 2 2
2 2 2
2 2 2
2 2 2
2 2 2
2 2 2
0 0 0
0 0 0
27 27 27
22 22 22
75 75 75
32 32 32
44 44 44
41 41 41
52 52 52
47 47 47
34 34 34
41 41 41
85 85 85
135 135 135
192 192 192
183 183 183
176 176 176
183 183 183
181 181 181
183 183 183
184 184 184
188 188 188
193 193 193
192 192 192
203 203 203
204 204 204
189 189 189
188 188 188
184 184 184
194 194 194
185 185 185
193 193 193
182 182 182
91 91 91
72 72 72
4 4 4
4 4 4
3 3 3
3 3 3
3 3 3
3 3 3
3 3 3
3 3 3
3 3 3
2 2 2
2 2 2
2 2 2
2 2 2
2 2 2
2 2 2
0 0 0
0 0 0
27 27 27
23 23 23
76 76 76
33 33 33
46 46 46
44 44 44
56 56 56
51 51 51
47 47 47
97 97 97
192 192 192
192 192 192
186 186 186
176 176 176
183 183 183
173 173 173
179 179 179
185 185 185
185 185 185
184 184 184
185 185 185
179 179 179
194 194 194
204 204 204
195 195 195
190 190 190
192 192 192
189 189 189
192 192 192
195 195 195
187 187 187
183 183 183
115 115 115
69 69 69
5 5 5
3 3 3
3 3 3
3 3 3
3 3 3
3 3 3
3 3 3
2 2 2
2 2 2
2 2 2
2 2 2
2 2 2
2 2 2
2 2 2
0 0 0
0 0 0
26 26 26
23 23 23
77 77 77
33 33 33
48 48 48
48 48 48
51 51 51
52 52 52
90 90 90
190 190 190
195 195 195
181 181 181
173 173 173
178 178 178
174 174 174
179 179 179
176 176 176
179 179 179
174 174 174
173 173 173
177 177 177
175 175 175
177 177 177
202 202 202
199 199 199
187 187 187
186 186 186
188 188 188
190 190 190
181 181 181
190 190 190
193 193 193
181 181 181
127 127 127
32 32 32
3 3 3
3 3 3
4 4 4
3 3 3
2 2 2
2 2 2
2 2 2
2 2 2
2 2 2
2 2 2
2 2 2
2 2 2
2 2 2
0 0 0
0 0 0
26 26 26
23 23 23
80 80 80
34 34 34
42 42 42
51 51 51
48 48 48
89 89 89
184 184 184
188 188 188
177 177 177
182 182 182
170 170 170
173 173 173
174 174 174
178 178 178
177 177 177
174 174 174
169 169 169
170 170 170
174 174 174
173 173 173
176 176 176
179 179 179
197 197 197
193 193 193
186 186 186
181 181 181
185 185 185
189 189 189
192 192 192
188 188 188
191 191 191
185 185 185
92 92 92
3 3 3
3 3 3
4 4 4
3 3 3
3 3 3
3 3 3
2 2 2
2 2 2
2 2 2
2 2 2
2 2 2
2 2 2
2 2 2
0 0 0
0 0 0
27 27 27
23 23 23
80 80 80
35 35 35
44 44 44
50 50 50
79 79 79
149 149 149
187 187 187
178 178 178
166 166 166
171 171 171
165 165 165
160 160 160
174 174 174
171 171 171
174 174 174
172 172 172
176 176 176
166 166 166
171 171 171
174 174 174
178 178 178
183 183 183
192 192 192
183 183 183
182 182 182
175 175 175
182 182 182
178 178 178
189 189 189
185 185 185
184 184 184
182 182 182
185 185 185
63 63 63
4 4 4
5 5 5
6 6 6
3 3 3
2 2 2
2 2 2
2 2 2
2 2 2
2 2 2
2 2 2
2 2 2
2 2 2
0 0 0
0 0 0
27 27 27
23 23 23
82 82 82
50 50 50
51 51 51
48 48 48
93 93 93
189 189 189
183 183 183
172 172 172
163 163 163
172 172 172
161 161 161
172 172 172
168 168 168
171 171 171
171 171 171
176 176 176
176 176 176
179 179 179
181 181 181
187 187 187
179 179 179
180 180 180
175 175 175
185 185 185
193 193 193
195 195 195
185 185 185
178 178 178
178 178 178
187 187 187
175 175 175
171 171 171
185 185 185
138 138 138
26 26 26
10 10 10
18 18 18
4 4 4
2 2 2
2 2 2
2 2 2
2 2 2
2 2 2
2 2 2
2 2 2
2 2 2
0 0 0
0 0 0
28 28 28
25 25 25
82 82 82
56 56 56
47 47 47
67 67 67
158 158 158
189 189 189
183 183 183
176 176 176
174 174 174
171 171 171
163 163 163
179 179 179
178 178 178
168 168 168
168 168 168
174 174 174
176 176 176
174 174 174
170 170 170
171 171 171
161 161 161
171 171 171
179 179 179
194 194 194
196 196 196
177 177 177
173 173 173
188 188 188
171 171 171
188 188 188
190 190 190
179 179 179
185 185 185
182 182 182
79 79 79
27 27 27
30 30 30
2 2 2
2 2 2
2 2 2
2 2 2
2 2 2
2 2 2
2 2 2
2 2 2
2 2 2
0 0 0
0 0 0
27 27 27
25 25 25
83 83 83
54 54 54
49 49 49
91 91 91
191 191 191
187 187 187
173 173 173
186 186 186
169 169 169
162 162 162
179 179 179
162 162 162
180 180 180
184 184 184
175 175 175
179 179 179
181 181 181
178 178 178
178 178 178
180 180 180
179 179 179
166 166 166
165 165 165
160 160 160
192 192 192
197 197 197
171 171 171
171 171 171
192 192 192
174 174 174
185 185 185
186 186 186
176 176 176
191 191 191
109 109 109
44 44 44
24 24 24
2 2 2
2 2 2
2 2 2
2 2 2
2 2 2
2 2 2
2 2 2
2 2 2
2 2 2
0 0 0
0 0 0
28 28 28
25 25 25
84 84 84
53 53 53
54 54 54
105 105 105
187 187 187
190 190 190
182 182 182
181 181 181
173 173 173
184 184 184
171 171 171
188 188 188
165 165 165
172 172 172
183 183 183
187 187 187
177 177 177
178 178 178
180 180 180
165 165 165
172 172 172
173 173 173
177 177 177
169 169 169
181 181 181
182 182 182
181 181 181
167 167 167
174 174 174
176 176 176
187 187 187
177 177 177
190 190 190
189 189 189
179 179 179
58 58 58
18 18 18
2 2 2
2 2 2
2 2 2
2 2 2
2 2 2
2 2 2
2 2 2
2 2 2
2 2 2
0 0 0
0 0 0
27 27 27
25 25 25
86 86 86
51 51 51
78 78 78
170 170 170
188 188 188
171 171 171
189 189 189
187 187 187
176 176 176
181 181 181
181 181 181
161 161 161
182 182 182
194 194 194
188 188 188
182 182 182
191 191 191
190 190 190
176 176 176
168 168 168
171 171 171
169 169 169
165 165 165
176 176 176
181 181 181
183 183 183
174 174 174
158 158 158
171 171 171
196 196 196
189 189 189
203 203 203
183 183 183
182 182 182
185 185 185
84 84 84
18 18 18
7 7 7
3 3 3
3 3 3
2 2 2
2 2 2
2 2 2
2 2 2
2 2 2
2 2 2
0 0 0
0 0 0
27 27 27
25 25 25
88 88 88
55 55 55
89 89 89
192 192 192
178 178 178
186 186 186
184 184 184
190 190 190
179 179 179
173 173 173
173 173 173
167 167 167
187 187 187
171 171 171
174 174 174
181 181 181
178 178 178
184 184 184
180 180 180
175 175 175
171 171 171
164 164 164
165 165 165
163 163 163
170 170 170
158 158 158
191 191 191
174 174 174
163 163 163
175 175 175
166 166 166
191 191 191
202 202 202
174 174 174
181 181 181
165 165 165
73 73 73
22 22 22
4 4 4
3 3 3
3 3 3
3 3 3
2 2 2
2 2 2
2 2 2
2 2 2
0 0 0
0 0 0
27 27 27
26 26 26
88 88 88
57 57 57
91 91 91
189 189 189
190 190 190
172 172 172
178 178 178
168 168 168
183 183 183
184 184 184
174 174 174
194 194 194
172 172 172
184 184 184
187 187 187
183 183 183
174 174 174
170 170 170
174 174 174
179 179 179
175 175 175
165 165 165
164 164 164
158 158 158
167 167 167
148 148 148
178 178 178
173 173 173
158 158 158
170 170 170
161 161 161
184 184 184
189 189 189
195 195 195
186 186 186
177 177 177
86 86 86
32 32 32
4 4 4
3 3 3
3 3 3
3 3 3
3 3 3
2 2 2
2 2 2
2 2 2
0 0 0
0 0 0
27 27 27
26 26 26
89 89 89
53 53 53
96 96 96
186 186 186
174 174 174
189 189 189
176 176 176
188 188 188
167 167 167
185 185 185
166 166 166
192 192 192
184 184 184
172 172 172
171 171 171
176 176 176
176 176 176
172 172 172
172 172 172
175 175 175
173 173 173
172 172 172
164 164 164
154 154 154
157 157 157
150 150 150
165 165 165
161 161 161
138 138 138
160 160 160
164 164 164
184 184 184
207 207 207
199 199 199
195 195 195
197 197 197
170 170 170
65 65 65
9 9 9
4 4 4
3 3 3
3 3 3
3 3 3
3 3 3
3 3 3
2 2 2
0 0 0
0 0 0
27 27 27
27 27 27
89 89 89
55 55 55
119 119 119
194 194 194
194 194 194
186 186 186
191 191 191
191 191 191
174 174 174
181 181 181
184 184 184
182 182 182
175 175 175
168 168 168
169 169 169
169 169 169
174 174 174
178 178 178
167 167 167
170 170 170
173 173 173
180 180 180
167 167 167
152 152 152
149 149 149
161 161 161
155 155 155
165 165 165
132 132 132
162 162 162
153 153 153
185 185 185
183 183 183
202 202 202
210 210 210
187 187 187
184 184 184
78 78 78
5 5 5
5 5 5
4 4 4
3 3 3
3 3 3
3 3 3
3 3 3
2 2 2
0 0 0
0 0 0
27 27 27
26 26 26
90 90 90
62 62 62
157 157 157
193 193 193
193 193 193
185 185 185
184 184 184
186 186 186
187 187 187
177 177 177
188 188 188
186 186 186
177 177 177
169 169 169
165 165 165
172 172 172
173 173 173
181 181 181
173 173 173
171 171 171
172 172 172
196 196 196
193 193 193
155 155 155
169 169 169
171 171 171
154 154 154
166 166 166
142 142 142
156 156 156
132 132 132
173 173 173
153 153 153
208 208 208
211 211 211
159 159 159
176 176 176
81 81 81
4 4 4
4 4 4
4 4 4
3 3 3
3 3 3
3 3 3
3 3 3
2 2 2
0 0 0
0 0 0
27 27 27
26 26 26
92 92 92
68 68 68
194 194 194
191 191 191
196 196 196
184 184 184
182 182 182
187 187 187
190 190 190
180 180 180
190 190 190
184 184 184
175 175 175
169 169 169
168 168 168
184 184 184
186 186 186
180 180 180
193 193 193
187 187 187
176 176 176
191 191 191
203 203 203
179 179 179
191 191 191
164 164 164
177 177 177
160 160 160
142 142 142
144 144 144
158 158 158
144 144 144
144 144 144
181 181 181
205 205 205
133 133 133
165 165 165
84 84 84
30 30 30
4 4 4
4 4 4
3 3 3
3 3 3
3 3 3
3 3 3
2 2 2
0 0 0
0 0 0
27 27 27
26 26 26
91 91 91
84 84 84
194 194 194
189 189 189
200 200 200
179 179 179
186 186 186
188 188 188
194 194 194
181 181 181
191 191 191
185 185 185
173 173 173
166 166 166
180 180 180
190 190 190
196 196 196
196 196 196
202 202 202
200 200 200
176 176 176
195 195 195
191 191 191
183 183 183
186 186 186
179 179 179
181 181 181
192 192 192
164 164 164
150 150 150
149 149 149
144 144 144
164 164 164
209 209 209
183 183 183
119 119 119
181 181 181
109 109 109
75 75 75
3 3 3
3 3 3
3 3 3
3 3 3
3 3 3
3 3 3
2 2 2
0 0 0
0 0 0
27 27 27
26 26 26
92 92 92
89 89 89
196 196 196
197 197 197
201 201 201
185 185 185
190 190 190
193 193 193
190 190 190
184 184 184
184 184 184
190 190 190
177 177 177
167 167 167
187 187 187
189 189 189
191 191 191
193 193 193
204 204 204
208 208 208
179 179 179
193 193 193
169 169 169
187 187 187
158 158 158
172 172 172
174 174 174
194 194 194
170 170 170
132 132 132
148 148 148
148 148 148
179 179 179
197 197 197
127 127 127
124 124 124
171 171 171
167 167 167
92 92 92
54 54 54
3 3 3
3 3 3
3 3 3
3 3 3
3 3 3
2 2 2
0 0 0
0 0 0
26 26 26
26 26 26
91 91 91
104 104 104
191 191 191
199 199 199
205 205 205
189 189 189
190 190 190
201 201 201
179 179 179
191 191 191
178 178 178
193 193 193
183 183 183
175 175 175
190 190 190
200 200 200
191 191 191
194 194 194
203 203 203
209 209 209
182 182 182
155 155 155
154 154 154
162 162 162
159 159 159
158 158 158
160 160 160
165 165 165
139 139 139
135 135 135
124 124 124
131 131 131
195 195 195
194 194 194
89 89 89
147 147 147
184 184 184
111 111 111
138 138 138
127 127 127
44 44 44
3 3 3
3 3 3
3 3 3
3 3 3
2 2 2
0 0 0
0 0 0
27 27 27
27 27 27
91 91 91
112 112 112
195 195 195
203 203 203
198 198 198
195 195 195
200 200 200
205 205 205
183 183 183
197 197 197
183 183 183
196 196 196
183 183 183
183 183 183
191 191 191
204 204 204
198 198 198
200 200 200
206 206 206
200 200 200
179 179 179
135 135 135
155 155 155
156 156 156
156 156 156
159 159 159
166 166 166
159 159 159
120 120 120
146 146 146
112 112 112
164 164 164
191 191 191
192 192 192
90 90 90
89 89 89
149 149 149
140 140 140
118 118 118
117 117 117
107 107 107
29 29 29
4 4 4
4 4 4
3 3 3
2 2 2
0 0 0
0 0 0
27 27 27
27 27 27
92 92 92
112 112 112
188 188 188
205 205 205
193 193 193
203 203 203
202 202 202
194 194 194
185 185 185
200 200 200
185 185 185
187 187 187
189 189 189
191 191 191
181 181 181
209 209 209
206 206 206
208 208 208
200 200 200
191 191 191
158 158 158
113 113 113
119 119 119
151 151 151
147 147 147
151 151 151
155 155 155
147 147 147
136 136 136
137 137 137
111 111 111
175 175 175
176 176 176
189 189 189
90 90 90
91 91 91
134 134 134
123 123 123
97 97 97
84 84 84
80 80 80
89 89 89
4 4 4
3 3 3
3 3 3
2 2 2
0 0 0
0 0 0
27 27 27
27 27 27
92 92 92
101 101 101
191 191 191
205 205 205
199 199 199
187 187 187
187 187 187
189 189 189
195 195 195
174 174 174
194 194 194
179 179 179
193 193 193
190 190 190
184 184 184
214 214 214
214 214 214
206 206 206
202 202 202
165 165 165
131 131 131
119 119 119
149 149 149
127 127 127
141 141 141
128 128 128
155 155 155
149 149 149
158 158 158
139 139 139
106 106 106
138 138 138
162 162 162
199 199 199
99 99 99
88 88 88
115 115 115
153 153 153
110 110 110
88 88 88
82 82 82
89 89 89
63 63 63
3 3 3
3 3 3
2 2 2
0 0 0
0 0 0
27 27 27
27 27 27
91 91 91
90 90 90
194 194 194
201 201 201
189 189 189
187 187 187
186 186 186
200 200 200
201 201 201
183 183 183
196 196 196
186 186 186
191 191 191
188 188 188
187 187 187
203 203 203
223 223 223
206 206 206
188 188 188
137 137 137
113 113 113
139 139 139
149 149 149
100 100 100
147 147 147
144 144 144
151 151 151
151 151 151
144 144 144
123 123 123
109 109 109
120 120 120
176 176 176
181 181 181
150 150 150
95 95 95
140 140 140
167 167 167
132 132 132
90 90 90
88 88 88
84 84 84
85 85 85
39 39 39
3 3 3
2 2 2
0 0 0
0 0 0
28 28 28
26 26 26
91 91 91
88 88 88
198 198 198
199 199 199
192 192 192
186 186 186
190 190 190
205 205 205
190 190 190
192 192 192
195 195 195
186 186 186
183 183 183
191 191 191
179 179 179
197 197 197
226 226 226
211 211 211
180 180 180
123 123 123
156 156 156
161 161 161
130 130 130
121 121 121
132 132 132
145 145 145
140 140 140
149 149 149
136 136 136
113 113 113
111 111 111
114 114 114
185 185 185
189 189 189
176 176 176
118 118 118
136 136 136
148 148 148
141 141 141
92 92 92
87 87 87
82 82 82
87 87 87
73 73 73
3 3 3
2 2 2
0 0 0
0 0 0
28 28 28
25 25 25
92 92 92
73 73 73
194 194 194
203 203 203
195 195 195
189 189 189
184 184 184
160 160 160
190 190 190
204 204 204
183 183 183
199 199 199
190 190 190
188 188 188
186 186 186
175 175 175
202 202 202
210 210 210
158 158 158
170 170 170
222 222 222
175 175 175
237 237 237
134 134 134
165 165 165
142 142 142
139 139 139
142 142 142
143 143 143
146 146 146
158 158 158
137 137 137
191 191 191
160 160 160
180 180 180
162 162 162
174 174 174
161 161 161
104 104 104
84 84 84
83 83 83
79 79 79
81 81 81
83 83 83
71 71 71
2 2 2
0 0 0
0 0 0
28 28 28
24 24 24
91 91 91
58 58 58
165 165 165
196 196 196
201 201 201
185 185 185
188 188 188
186 186 186
172 172 172
201 201 201
204 204 204
181 181 181
178 178 178
185 185 185
196 196 196
202 202 202
173 173 173
185 185 185
167 167 167
183 183 183
219 219 219
222 222 222
212 212 212
173 173 173
171 171 171
172 172 172
151 151 151
160 160 160
129 129 129
125 125 125
145 145 145
148 148 148
172 172 172
165 165 165
164 164 164
164 164 164
143 143 143
137 137 137
92 92 92
84 84 84
86 86 86
86 86 86
88 88 88
86 86 86
88 88 88
2 2 2
0 0 0
0 0 0
28 28 28
25 25 25
89 89 89
54 54 54
102 102 102
202 202 202
193 193 193
200 200 200
204 204 204
197 197 197
182 182 182
206 206 206
211 211 211
195 195 195
199 199 199
190 190 190
203 203 203
213 213 213
200 200 200
197 197 197
188 188 188
188 188 188
211 211 211
192 192 192
188 188 188
189 189 189
187 187 187
172 172 172
178 178 178
134 134 134
114 114 114
135 135 135
170 170 170
148 148 148
158 158 158
175 175 175
177 177 177
150 150 150
101 101 101
108 108 108
90 90 90
84 84 84
83 83 83
85 85 85
82 82 82
74 74 74
65 65 65
3 3 3
0 0 0
0 0 0
29 29 29
25 25 25
89 89 89
45 45 45
82 82 82
197 197 197
207 207 207
200 200 200
195 195 195
200 200 200
205 205 205
198 198 198
201 201 201
203 203 203
213 213 213
212 212 212
182 182 182
211 211 211
209 209 209
214 214 214
207 207 207
194 194 194
211 211 211
219 219 219
208 208 208
187 187 187
171 171 171
142 142 142
145 145 145
154 154 154
115 115 115
118 118 118
114 114 114
102 102 102
162 162 162
154 154 154
179 179 179
154 154 154
134 134 134
117 117 117
104 104 104
86 86 86
85 85 85
90 90 90
80 80 80
42 42 42
3 3 3
2 2 2
0 0 0
0 0 0
29 29 29
25 25 25
90 90 90
34 34 34
54 54 54
131 131 131
209 209 209
206 206 206
196 196 196
202 202 202
205 205 205
201 201 201
212 212 212
198 198 198
202 202 202
215 215 215
206 206 206
192 192 192
187 187 187
200 200 200
180 180 180
132 132 132
205 205 205
213 213 213
208 208 208
198 198 198
180 180 180
128 128 128
106 106 106
93 93 93
110 110 110
131 131 131
121 121 121
120 120 120
93 93 93
125 125 125
141 141 141
126 126 126
124 124 124
133 133 133
124 124 124
116 116 116
88 88 88
90 90 90
15 15 15
2 2 2
2 2 2
2 2 2
0 0 0
0 0 0
29 29 29
26 26 26
90 90 90
34 34 34
52 52 52
87 87 87
195 195 195
214 214 214
207 207 207
207 207 207
207 207 207
212 212 212
211 211 211
208 208 208
213 213 213
210 210 210
213 213 213
202 202 202
191 191 191
141 141 141
154 154 154
169 169 169
200 200 200
212 212 212
201 201 201
190 190 190
142 142 142
130 130 130
93 93 93
87 87 87
95 95 95
119 119 119
132 132 132
153 153 153
112 112 112
136 136 136
141 141 141
135 135 135
130 130 130
162 162 162
119 119 119
107 107 107
88 88 88
77 77 77
3 3 3
2 2 2
2 2 2
2 2 2
0 0 0
0 0 0
29 29 29
26 26 26
89 89 89
33 33 33
52 52 52
50 50 50
98 98 98
208 208 208
211 211 211
204 204 204
204 204 204
205 205 205
209 209 209
206 206 206
205 205 205
204 204 204
216 216 216
208 208 208
209 209 209
137 137 137
138 138 138
169 169 169
190 190 190
211 211 211
199 199 199
191 191 191
159 159 159
144 144 144
173 173 173
95 95 95
105 105 105
128 128 128
136 136 136
169 169 169
107 107 107
107 107 107
104 104 104
127 127 127
153 153 153
146 146 146
187 187 187
163 163 163
88 88 88
83 83 83
3 3 3
2 2 2
2 2 2
2 2 2
0 0 0
0 0 0
29 29 29
26 26 26
88 88 88
33 33 33
49 49 49
52 52 52
52 52 52
111 111 111
216 216 216
203 203 203
199 199 199
200 200 200
201 201 201
204 204 204
200 200 200
211 211 211
211 211 211
213 213 213
195 195 195
173 173 173
167 167 167
198 198 198
177 177 177
195 195 195
162 162 162
135 135 135
184 184 184
168 168 168
162 162 162
152 152 152
146 146 146
148 148 148
130 130 130
108 108 108
196 196 196
207 207 207
186 186 186
137 137 137
145 145 145
139 139 139
168 168 168
218 218 218
174 174 174
88 88 88
3 3 3
2 2 2
2 2 2
2 2 2
0 0 0
0 0 0
28 28 28
27 27 27
88 88 88
31 31 31
47 47 47
49 49 49
50 50 50
77 77 77
166 166 166
161 161 161
188 188 188
199 199 199
197 197 197
200 200 200
192 192 192
194 194 194
197 197 197
197 197 197
206 206 206
202 202 202
171 171 171
178 178 178
190 190 190
159 159 159
139 139 139
127 127 127
121 121 121
150 150 150
165 165 165
137 137 137
119 119 119
164 164 164
136 136 136
102 102 102
235 235 235
217 217 217
234 234 234
197 197 197
195 195 195
189 189 189
228 228 228
247 247 247
234 234 234
90 90 90
11 11 11
4 4 4
3 3 3
3 3 3
0 0 0
0 0 0
29 29 29
28 28 28
87 87 87
30 30 30
48 48 48
46 46 46
47 47 47
42 42 42
85 85 85
93 93 93
93 93 93
105 105 105
164 164 164
194 194 194
200 200 200
190 190 190
181 181 181
176 176 176
192 192 192
196 196 196
206 206 206
171 171 171
183 183 183
177 177 177
138 138 138
138 138 138
183 183 183
184 184 184
145 145 145
145 145 145
137 137 137
167 167 167
127 127 127
136 136 136
174 174 174
246 246 246
240 240 240
210 210 210
194 194 194
201 201 201
215 215 215
226 226 226
215 215 215
185 185 185
15 15 15
12 12 12
7 7 7
5 5 5
0 0 0
0 0 0
27 27 27
31 31 31
88 88 88
30 30 30
46 46 46
42 42 42
48 48 48
44 44 44
31 31 31
86 86 86
91 91 91
93 93 93
92 92 92
99 99 99
124 124 124
178 178 178
183 183 183
190 190 190
179 179 179
155 155 155
159 159 159
110 110 110
178 178 178
168 168 168
154 154 154
153 153 153
171 171 171
218 218 218
146 146 146
126 126 126
148 148 148
172 172 172
139 139 139
160 160 160
238 238 238
230 230 230
228 228 228
252 252 252
225 225 225
196 196 196
208 208 208
231 231 231
158 158 158
230 230 230
41 41 41
29 29 29
23 23 23
14 14 14
0 0 0
0 0 0
29 29 29
31 31 31
88 88 88
32 32 32
50 50 50
41 41 41
48 48 48
43 43 43
29 29 29
39 39 39
85 85 85
90 90 90
89 89 89
88 88 88
88 88 88
89 89 89
94 94 94
91 91 91
129 129 129
160 160 160
112 112 112
121 121 121
209 209 209
157 157 157
147 147 147
157 157 157
184 184 184
164 164 164
181 181 181
137 137 137
163 163 163
193 193 193
193 193 193
122 122 122
108 108 108
131 131 131
104 104 104
119 119 119
94 94 94
104 104 104
95 95 95
65 65 65
42 42 42
61 61 61
3 3 3
2 2 2
2 2 2
2 2 2
0 0 0
0 0 0
29 29 29
32 32 32
88 88 88
34 34 34
50 50 50
46 46 46
49 49 49
42 42 42
28 28 28
18 18 18
65 65 65
88 88 88
92 92 92
92 92 92
90 90 90
91 91 91
91 91 91
89 89 89
102 102 102
136 136 136
152 152 152
176 176 176
171 171 171
174 174 174
133 133 133
143 143 143
156 156 156
119 119 119
183 183 183
124 124 124
143 143 143
185 185 185
209 209 209
243 243 243
254 254 254
224 224 224
190 190 190
217 217 217
177 177 177
185 185 185
156 156 156
130 130 130
94 94 94
18 18 18
10 10 10
7 7 7
8 8 8
5 5 5
0 0 0
0 0 0
27 27 27
30 30 30
89 89 89
41 41 41
50 50 50
46 46 46
48 48 48
42 42 42
33 33 33
22 22 22
31 31 31
87 87 87
90 90 90
91 91 91
90 90 90
90 90 90
90 90 90
92 92 92
93 93 93
129 129 129
169 169 169
128 128 128
96 96 96
158 158 158
160 160 160
160 160 160
174 174 174
103 103 103
151 151 151
125 125 125
122 122 122
150 150 150
219 219 219
252 252 252
236 236 236
193 193 193
190 190 190
199 199 199
221 221 221
199 199 199
219 219 219
237 237 237
91 91 91
51 51 51
20 20 20
13 13 13
7 7 7
6 6 6
0 0 0
0 0 0
27 27 27
33 33 33
86 86 86
33 33 33
50 50 50
43 43 43
47 47 47
43 43 43
31 31 31
24 24 24
25 25 25
86 86 86
87 87 87
89 89 89
89 89 89
88 88 88
89 89 89
90 90 90
109 109 109
138 138 138
136 136 136
93 93 93
160 160 160
164 164 164
139 139 139
125 125 125
143 143 143
111 111 111
140 140 140
163 163 163
158 158 158
165 165 165
198 198 198
202 202 202
219 219 219
236 236 236
120 120 120
112 112 112
199 199 199
255 255 255
218 218 218
172 172 172
83 83 83
35 35 35
4 4 4
3 3 3
2 2 2
2 2 2
0 0 0
0 0 0
27 27 27
37 37 37
87 87 87
32 32 32
47 47 47
44 44 44
47 47 47
44 44 44
30 30 30
21 21 21
24 24 24
68 68 68
86 86 86
90 90 90
89 89 89
89 89 89
89 89 89
106 106 106
111 111 111
111 111 111
153 153 153
158 158 158
162 162 162
163 163 163
142 142 142
133 133 133
126 126 126
97 97 97
139 139 139
168 168 168
150 150 150
166 166 166
203 203 203
177 177 177
215 215 215
175 175 175
137 137 137
135 135 135
200 200 200
208 208 208
210 210 210
94 94 94
86 86 86
3 3 3
2 2 2
2 2 2
2 2 2
2 2 2
0 0 0
0 0 0
26 26 26
42 42 42
90 90 90
32 32 32
44 44 44
41 41 41
46 46 46
46 46 46
23 23 23
20 20 20
25 25 25
58 58 58
87 87 87
91 91 91
89 89 89
89 89 89
90 90 90
104 104 104
119 119 119
118 118 118
119 119 119
137 137 137
125 125 125
136 136 136
131 131 131
147 147 147
111 111 111
88 88 88
112 112 112
131 131 131
171 171 171
180 180 180
202 202 202
154 154 154
177 177 177
184 184 184
172 172 172
176 176 176
164 164 164
186 186 186
158 158 158
86 86 86
83 83 83
2 2 2
2 2 2
2 2 2
2 2 2
2 2 2
0 0 0
0 0 0
26 26 26
43 43 43
91 91 91
33 33 33
46 46 46
41 41 41
45 45 45
46 46 46
24 24 24
23 23 23
28 28 28
45 45 45
86 86 86
91 91 91
89 89 89
88 88 88
90 90 90
89 89 89
90 90 90
111 111 111
144 144 144
122 122 122
137 137 137
119 119 119
128 128 128
139 139 139
112 112 112
89 89 89
88 88 88
106 106 106
99 99 99
154 154 154
182 182 182
134 134 134
176 176 176
167 167 167
171 171 171
208 208 208
202 202 202
167 167 167
153 153 153
86 86 86
85 85 85
2 2 2
3 3 3
2 2 2
2 2 2
2 2 2
0 0 0
0 0 0
26 26 26
45 45 45
90 90 90
32 32 32
47 47 47
43 43 43
45 45 45
47 47 47
25 25 25
23 23 23
28 28 28
30 30 30
87 87 87
91 91 91
89 89 89
89 89 89
89 89 89
89 89 89
90 90 90
92 92 92
156 156 156
129 129 129
143 143 143
146 146 146
143 143 143
138 138 138
114 114 114
88 88 88
89 89 89
89 89 89
88 88 88
88 88 88
99 99 99
202 202 202
206 206 206
137 137 137
189 189 189
194 194 194
205 205 205
169 169 169
175 175 175
85 85 85
85 85 85
2 2 2
3 3 3
2 2 2
2 2 2
2 2 2
0 0 0
0 0 0
26 26 26
46 46 46
90 90 90
31 31 31
48 48 48
43 43 43
46 46 46
48 48 48
20 20 20
22 22 22
29 29 29
22 22 22
91 91 91
91 91 91
89 89 89
89 89 89
89 89 89
89 89 89
89 89 89
111 111 111
138 138 138
135 135 135
157 157 157
160 160 160
133 133 133
102 102 102
117 117 117
89 89 89
88 88 88
90 90 90
88 88 88
87 87 87
88 88 88
88 88 88
190 190 190
212 212 212
192 192 192
222 222 222
208 208 208
175 175 175
198 198 198
85 85 85
85 85 85
2 2 2
3 3 3
2 2 2
2 2 2
2 2 2
0 0 0
0 0 0
26 26 26
46 46 46
90 90 90
31 31 31
43 43 43
42 42 42
46 46 46
43 43 43
21 21 21
20 20 20
22 22 22
28 28 28
90 90 90
92 92 92
89 89 89
89 89 89
89 89 89
90 90 90
97 97 97
118 118 118
135 135 135
136 136 136
141 141 141
127 127 127
152 152 152
108 108 108
107 107 107
90 90 90
88 88 88
88 88 88
89 89 89
88 88 88
89 89 89
88 88 88
88 88 88
144 144 144
212 212 212
212 212 212
224 224 224
222 222 222
196 196 196
86 86 86
80 80 80
3 3 3
2 2 2
2 2 2
2 2 2
2 2 2
0 0 0
0 0 0
0 0 0
0 0 0
0 0 0
0 0 0
0 0 0
0 0 0
0 0 0
0 0 0
0 0 0
0 0 0
0 0 0
0 0 0
0 0 0
0 0 0
0 0 0
0 0 0
0 0 0
0 0 0
0 0 0
0 0 0
0 0 0
0 0 0
0 0 0
0 0 0
0 0 0
0 0 0
0 0 0
0 0 0
0 0 0
0 0 0
0 0 0
0 0 0
0 0 0
0 0 0
0 0 0
0 0 0
0 0 0
0 0 0
0 0 0
0 0 0
0 0 0
0 0 0
0 0 0
0 0 0
0 0 0
0 0 0
0 0 0
0 0 0
