P3 
50 50 
255
0 0 0
0 0 0
0 0 0
0 0 0
0 0 0
0 0 0
0 0 0
0 0 0
0 0 0
0 0 0
0 0 0
0 0 0
0 0 0
0 0 0
0 0 0
0 0 0
0 0 0
0 0 0
0 0 0
0 0 0
0 0 0
0 0 0
0 0 0
0 0 0
0 0 0
0 0 0
0 0 0
0 0 0
0 0 0
0 0 0
0 0 0
0 0 0
0 0 0
0 0 0
0 0 0
0 0 0
0 0 0
0 0 0
0 0 0
0 0 0
0 0 0
0 0 0
0 0 0
0 0 0
0 0 0
0 0 0
0 0 0
0 0 0
0 0 0
0 0 0
2 2 2
2 2 2
2 2 2
2 2 2
2 2 2
2 2 2
2 2 2
2 2 2
2 2 2
3 3 3
3 3 3
3 3 3
3 3 3
4 4 4
4 4 4
4 4 4
5 5 5
6 6 6
7 7 7
11 11 11
12 12 12
24 24 24
15 15 15
18 18 18
22 22 22
31 31 31
45 45 45
57 57 57
71 71 71
73 73 73
73 73 73
73 73 73
62 62 62
49 49 49
32 32 32
32 32 32
52 52 52
57 57 57
38 38 38
27 27 27
25 25 25
16 16 16
16 16 16
31 31 31
24 24 24
26 26 26
24 24 24
41 41 41
71 71 71
59 59 59
2 2 2
2 2 2
2 2 2
2 2 2
1 1 1
1 1 1
2 2 2
2 2 2
2 2 2
2 2 2
3 3 3
3 3 3
3 3 3
4 4 4
4 4 4
4 4 4
7 7 7
7 7 7
8 8 8
13 13 13
11 11 11
16 16 16
40 40 40
79 79 79
101 101 101
128 128 128
148 148 148
165 165 165
188 188 188
192 192 192
188 188 188
178 178 178
152 152 152
132 132 132
115 115 115
96 96 96
80 80 80
57 57 57
38 38 38
23 23 23
36 36 36
31 31 31
22 22 22
23 23 23
28 28 28
27 27 27
25 25 25
39 39 39
69 69 69
57 57 57
2 2 2
2 2 2
2 2 2
2 2 2
2 2 2
2 2 2
2 2 2
2 2 2
2 2 2
2 2 2
2 2 2
3 3 3
3 3 3
4 4 4
4 4 4
5 5 5
8 8 8
10 10 10
11 11 11
12 12 12
30 30 30
75 75 75
126 126 126
188 188 188
187 187 187
179 179 179
187 187 187
205 205 205
192 192 192
186 186 186
190 190 190
196 196 196
189 189 189
193 193 193
189 189 189
183 183 183
182 182 182
133 133 133
93 93 93
62 62 62
40 40 40
40 40 40
38 38 38
21 21 21
31 31 31
36 36 36
34 34 34
39 39 39
69 69 69
56 56 56
2 2 2
2 2 2
2 2 2
2 2 2
2 2 2
2 2 2
2 2 2
2 2 2
2 2 2
2 2 2
2 2 2
3 3 3
3 3 3
4 4 4
4 4 4
5 5 5
8 8 8
10 10 10
10 10 10
51 51 51
94 94 94
167 167 167
182 182 182
179 179 179
185 185 185
199 199 199
190 190 190
184 184 184
179 179 179
178 178 178
176 176 176
195 195 195
192 192 192
177 177 177
183 183 183
184 184 184
183 183 183
190 190 190
167 167 167
131 131 131
81 81 81
40 40 40
38 38 38
32 32 32
31 31 31
27 27 27
32 32 32
39 39 39
69 69 69
56 56 56
2 2 2
2 2 2
2 2 2
2 2 2
2 2 2
2 2 2
2 2 2
2 2 2
2 2 2
3 3 3
3 3 3
3 3 3
3 3 3
4 4 4
4 4 4
5 5 5
6 6 6
8 8 8
57 57 57
117 117 117
186 186 186
179 179 179
185 185 185
194 194 194
195 195 195
186 186 186
181 181 181
181 181 181
175 175 175
179 179 179
174 174 174
193 193 193
192 192 192
174 174 174
176 176 176
176 176 176
178 178 178
180 180 180
189 189 189
172 172 172
153 153 153
96 96 96
62 62 62
40 40 40
23 23 23
39 39 39
37 37 37
39 39 39
69 69 69
58 58 58
2 2 2
2 2 2
2 2 2
2 2 2
2 2 2
2 2 2
2 2 2
2 2 2
2 2 2
2 2 2
2 2 2
3 3 3
3 3 3
4 4 4
4 4 4
7 7 7
6 6 6
53 53 53
137 137 137
187 187 187
185 185 185
184 184 184
184 184 184
184 184 184
177 177 177
176 176 176
176 176 176
176 176 176
174 174 174
174 174 174
177 177 177
183 183 183
184 184 184
171 171 171
169 169 169
171 171 171
173 173 173
178 178 178
183 183 183
190 190 190
185 185 185
165 165 165
106 106 106
66 66 66
34 34 34
33 33 33
28 28 28
39 39 39
69 69 69
60 60 60
2 2 2
2 2 2
2 2 2
2 2 2
2 2 2
2 2 2
2 2 2
2 2 2
2 2 2
2 2 2
2 2 2
3 3 3
3 3 3
4 4 4
5 5 5
7 7 7
42 42 42
133 133 133
187 187 187
184 184 184
180 180 180
191 191 191
186 186 186
177 177 177
176 176 176
175 175 175
177 177 177
174 174 174
174 174 174
173 173 173
176 176 176
184 184 184
192 192 192
170 170 170
167 167 167
168 168 168
169 169 169
168 168 168
172 172 172
180 180 180
183 183 183
177 177 177
170 170 170
104 104 104
70 70 70
27 27 27
36 36 36
39 39 39
70 70 70
63 63 63
2 2 2
2 2 2
2 2 2
2 2 2
2 2 2
2 2 2
2 2 2
2 2 2
2 2 2
2 2 2
3 3 3
3 3 3
3 3 3
4 4 4
5 5 5
15 15 15
114 114 114
176 176 176
182 182 182
181 181 181
173 173 173
183 183 183
183 183 183
175 175 175
178 178 178
179 179 179
176 176 176
173 173 173
172 172 172
174 174 174
170 170 170
180 180 180
185 185 185
167 167 167
162 162 162
173 173 173
163 163 163
161 161 161
170 170 170
170 170 170
166 166 166
161 161 161
174 174 174
163 163 163
97 97 97
66 66 66
32 32 32
39 39 39
70 70 70
65 65 65
2 2 2
2 2 2
2 2 2
2 2 2
2 2 2
1 1 1
2 2 2
2 2 2
2 2 2
2 2 2
2 2 2
6 6 6
14 14 14
11 11 11
11 11 11
57 57 57
160 160 160
177 177 177
174 174 174
180 180 180
180 180 180
172 172 172
176 176 176
182 182 182
175 175 175
176 176 176
177 177 177
176 176 176
172 172 172
178 178 178
173 173 173
169 169 169
164 164 164
167 167 167
177 177 177
164 164 164
161 161 161
167 167 167
171 171 171
181 181 181
180 180 180
169 169 169
175 175 175
169 169 169
149 149 149
85 85 85
48 48 48
38 38 38
70 70 70
67 67 67
2 2 2
2 2 2
2 2 2
2 2 2
2 2 2
1 1 1
2 2 2
2 2 2
2 2 2
2 2 2
2 2 2
17 17 17
18 18 18
29 29 29
22 22 22
105 105 105
184 184 184
175 175 175
173 173 173
176 176 176
172 172 172
163 163 163
167 167 167
160 160 160
164 164 164
174 174 174
174 174 174
168 168 168
168 168 168
176 176 176
174 174 174
187 187 187
174 174 174
156 156 156
150 150 150
158 158 158
169 169 169
169 169 169
174 174 174
171 171 171
166 166 166
164 164 164
159 159 159
168 168 168
175 175 175
123 123 123
72 72 72
39 39 39
69 69 69
67 67 67
2 2 2
2 2 2
2 2 2
2 2 2
2 2 2
2 2 2
2 2 2
2 2 2
2 2 2
2 2 2
2 2 2
15 15 15
36 36 36
21 21 21
29 29 29
142 142 142
174 174 174
174 174 174
175 175 175
190 190 190
164 164 164
169 169 169
174 174 174
178 178 178
173 173 173
175 175 175
175 175 175
179 179 179
178 178 178
164 164 164
170 170 170
164 164 164
159 159 159
154 154 154
168 168 168
160 160 160
159 159 159
174 174 174
174 174 174
176 176 176
178 178 178
176 176 176
162 162 162
163 163 163
161 161 161
163 163 163
93 93 93
39 39 39
69 69 69
69 69 69
2 2 2
2 2 2
2 2 2
2 2 2
2 2 2
2 2 2
2 2 2
2 2 2
2 2 2
2 2 2
3 3 3
8 8 8
16 16 16
13 13 13
51 51 51
183 183 183
171 171 171
174 174 174
175 175 175
165 165 165
174 174 174
172 172 172
165 165 165
169 169 169
177 177 177
174 174 174
175 175 175
166 166 166
170 170 170
170 170 170
163 163 163
166 166 166
157 157 157
165 165 165
159 159 159
173 173 173
162 162 162
169 169 169
157 157 157
170 170 170
164 164 164
162 162 162
164 164 164
176 176 176
177 177 177
175 175 175
132 132 132
55 55 55
68 68 68
69 69 69
2 2 2
2 2 2
2 2 2
2 2 2
2 2 2
2 2 2
2 2 2
3 3 3
3 3 3
3 3 3
3 3 3
26 26 26
24 24 24
18 18 18
98 98 98
182 182 182
166 166 166
158 158 158
156 156 156
157 157 157
165 165 165
170 170 170
160 160 160
176 176 176
186 186 186
173 173 173
175 175 175
185 185 185
170 170 170
143 143 143
173 173 173
159 159 159
169 169 169
174 174 174
162 162 162
171 171 171
163 163 163
159 159 159
169 169 169
176 176 176
166 166 166
171 171 171
167 167 167
170 170 170
164 164 164
176 176 176
159 159 159
70 70 70
69 69 69
70 70 70
2 2 2
2 2 2
2 2 2
2 2 2
2 2 2
2 2 2
3 3 3
3 3 3
4 4 4
4 4 4
5 5 5
14 14 14
19 19 19
37 37 37
147 147 147
168 168 168
151 151 151
156 156 156
136 136 136
158 158 158
161 161 161
159 159 159
165 165 165
169 169 169
175 175 175
184 184 184
147 147 147
161 161 161
171 171 171
155 155 155
170 170 170
170 170 170
168 168 168
168 168 168
159 159 159
163 163 163
171 171 171
164 164 164
171 171 171
170 170 170
172 172 172
175 175 175
186 186 186
181 181 181
183 183 183
165 165 165
179 179 179
94 94 94
68 68 68
71 71 71
2 2 2
2 2 2
2 2 2
2 2 2
3 3 3
3 3 3
3 3 3
3 3 3
4 4 4
5 5 5
5 5 5
5 5 5
14 14 14
72 72 72
163 163 163
154 154 154
142 142 142
149 149 149
162 162 162
145 145 145
161 161 161
170 170 170
171 171 171
163 163 163
171 171 171
179 179 179
147 147 147
149 149 149
171 171 171
165 165 165
157 157 157
171 171 171
161 161 161
166 166 166
162 162 162
162 162 162
163 163 163
169 169 169
168 168 168
165 165 165
181 181 181
174 174 174
184 184 184
179 179 179
180 180 180
183 183 183
167 167 167
108 108 108
67 67 67
71 71 71
2 2 2
2 2 2
2 2 2
3 3 3
3 3 3
3 3 3
3 3 3
3 3 3
4 4 4
4 4 4
4 4 4
4 4 4
36 36 36
121 121 121
188 188 188
154 154 154
159 159 159
152 152 152
123 123 123
139 139 139
161 161 161
166 166 166
168 168 168
156 156 156
162 162 162
170 170 170
154 154 154
151 151 151
175 175 175
170 170 170
155 155 155
161 161 161
156 156 156
175 175 175
157 157 157
167 167 167
169 169 169
164 164 164
164 164 164
172 172 172
173 173 173
166 166 166
165 165 165
172 172 172
159 159 159
172 172 172
170 170 170
145 145 145
68 68 68
72 72 72
2 2 2
2 2 2
2 2 2
3 3 3
3 3 3
3 3 3
3 3 3
4 4 4
4 4 4
4 4 4
4 4 4
5 5 5
55 55 55
164 164 164
174 174 174
149 149 149
171 171 171
124 124 124
132 132 132
157 157 157
171 171 171
172 172 172
161 161 161
161 161 161
164 164 164
165 165 165
159 159 159
153 153 153
173 173 173
167 167 167
152 152 152
169 169 169
163 163 163
170 170 170
165 165 165
164 164 164
170 170 170
178 178 178
162 162 162
184 184 184
169 169 169
160 160 160
157 157 157
163 163 163
161 161 161
167 167 167
172 172 172
164 164 164
68 68 68
72 72 72
2 2 2
2 2 2
3 3 3
3 3 3
3 3 3
3 3 3
3 3 3
4 4 4
4 4 4
4 4 4
3 3 3
6 6 6
93 93 93
192 192 192
142 142 142
132 132 132
141 141 141
132 132 132
156 156 156
146 146 146
188 188 188
174 174 174
167 167 167
169 169 169
171 171 171
162 162 162
156 156 156
146 146 146
172 172 172
166 166 166
154 154 154
180 180 180
167 167 167
174 174 174
163 163 163
166 166 166
171 171 171
178 178 178
170 170 170
181 181 181
165 165 165
157 157 157
158 158 158
168 168 168
170 170 170
171 171 171
173 173 173
167 167 167
71 71 71
73 73 73
2 2 2
2 2 2
3 3 3
3 3 3
3 3 3
3 3 3
3 3 3
3 3 3
4 4 4
3 3 3
4 4 4
16 16 16
140 140 140
163 163 163
139 139 139
138 138 138
126 126 126
151 151 151
161 161 161
159 159 159
184 184 184
177 177 177
189 189 189
177 177 177
178 178 178
175 175 175
161 161 161
147 147 147
173 173 173
167 167 167
153 153 153
185 185 185
170 170 170
175 175 175
163 163 163
168 168 168
169 169 169
181 181 181
168 168 168
174 174 174
161 161 161
155 155 155
166 166 166
182 182 182
189 189 189
169 169 169
175 175 175
167 167 167
84 84 84
74 74 74
2 2 2
2 2 2
3 3 3
3 3 3
3 3 3
3 3 3
3 3 3
3 3 3
3 3 3
3 3 3
3 3 3
19 19 19
136 136 136
156 156 156
138 138 138
168 168 168
146 146 146
160 160 160
145 145 145
155 155 155
167 167 167
179 179 179
194 194 194
174 174 174
175 175 175
181 181 181
163 163 163
142 142 142
174 174 174
168 168 168
157 157 157
187 187 187
172 172 172
178 178 178
166 166 166
167 167 167
173 173 173
185 185 185
181 181 181
177 177 177
161 161 161
161 161 161
173 173 173
181 181 181
185 185 185
180 180 180
176 176 176
179 179 179
95 95 95
73 73 73
2 2 2
2 2 2
3 3 3
3 3 3
3 3 3
3 3 3
3 3 3
3 3 3
3 3 3
4 4 4
3 3 3
9 9 9
113 113 113
146 146 146
126 126 126
154 154 154
143 143 143
156 156 156
131 131 131
133 133 133
145 145 145
183 183 183
197 197 197
156 156 156
162 162 162
183 183 183
162 162 162
143 143 143
179 179 179
164 164 164
155 155 155
187 187 187
173 173 173
180 180 180
168 168 168
165 165 165
175 175 175
186 186 186
189 189 189
181 181 181
170 170 170
173 173 173
187 187 187
162 162 162
176 176 176
179 179 179
178 178 178
178 178 178
94 94 94
74 74 74
2 2 2
2 2 2
3 3 3
3 3 3
3 3 3
3 3 3
3 3 3
3 3 3
3 3 3
3 3 3
4 4 4
15 15 15
89 89 89
147 147 147
131 131 131
164 164 164
113 113 113
135 135 135
122 122 122
126 126 126
124 124 124
178 178 178
197 197 197
157 157 157
164 164 164
189 189 189
162 162 162
143 143 143
182 182 182
169 169 169
161 161 161
181 181 181
169 169 169
187 187 187
167 167 167
170 170 170
176 176 176
188 188 188
194 194 194
184 184 184
171 171 171
173 173 173
185 185 185
156 156 156
170 170 170
172 172 172
175 175 175
176 176 176
83 83 83
73 73 73
2 2 2
3 3 3
3 3 3
3 3 3
3 3 3
3 3 3
3 3 3
3 3 3
3 3 3
4 4 4
4 4 4
37 37 37
96 96 96
154 154 154
117 117 117
110 110 110
107 107 107
127 127 127
129 129 129
125 125 125
119 119 119
171 171 171
198 198 198
163 163 163
165 165 165
191 191 191
160 160 160
147 147 147
185 185 185
167 167 167
166 166 166
175 175 175
162 162 162
190 190 190
175 175 175
173 173 173
177 177 177
185 185 185
195 195 195
188 188 188
176 176 176
167 167 167
184 184 184
163 163 163
160 160 160
176 176 176
178 178 178
172 172 172
77 77 77
73 73 73
2 2 2
2 2 2
3 3 3
3 3 3
3 3 3
3 3 3
3 3 3
3 3 3
3 3 3
4 4 4
19 19 19
74 74 74
115 115 115
148 148 148
128 128 128
110 110 110
103 103 103
129 129 129
126 126 126
122 122 122
108 108 108
153 153 153
190 190 190
169 169 169
170 170 170
189 189 189
159 159 159
149 149 149
184 184 184
166 166 166
168 168 168
173 173 173
159 159 159
177 177 177
172 172 172
174 174 174
182 182 182
174 174 174
190 190 190
193 193 193
177 177 177
168 168 168
174 174 174
167 167 167
152 152 152
179 179 179
177 177 177
165 165 165
71 71 71
74 74 74
2 2 2
3 3 3
3 3 3
3 3 3
3 3 3
3 3 3
3 3 3
3 3 3
4 4 4
4 4 4
35 35 35
84 84 84
141 141 141
155 155 155
125 125 125
103 103 103
132 132 132
149 149 149
113 113 113
111 111 111
117 117 117
132 132 132
170 170 170
168 168 168
176 176 176
181 181 181
155 155 155
159 159 159
172 172 172
166 166 166
173 173 173
166 166 166
166 166 166
171 171 171
151 151 151
173 173 173
182 182 182
161 161 161
181 181 181
188 188 188
175 175 175
174 174 174
177 177 177
158 158 158
162 162 162
168 168 168
182 182 182
163 163 163
68 68 68
74 74 74
2 2 2
2 2 2
3 3 3
3 3 3
3 3 3
3 3 3
3 3 3
3 3 3
4 4 4
17 17 17
78 78 78
77 77 77
140 140 140
149 149 149
116 116 116
114 114 114
117 117 117
138 138 138
138 138 138
122 122 122
133 133 133
115 115 115
149 149 149
162 162 162
186 186 186
163 163 163
153 153 153
161 161 161
153 153 153
158 158 158
175 175 175
169 169 169
178 178 178
188 188 188
155 155 155
169 169 169
170 170 170
151 151 151
181 181 181
180 180 180
177 177 177
180 180 180
178 178 178
160 160 160
170 170 170
170 170 170
185 185 185
147 147 147
68 68 68
73 73 73
2 2 2
2 2 2
3 3 3
3 3 3
3 3 3
3 3 3
3 3 3
4 4 4
4 4 4
34 34 34
83 83 83
107 107 107
142 142 142
133 133 133
104 104 104
109 109 109
132 132 132
115 115 115
136 136 136
120 120 120
133 133 133
141 141 141
149 149 149
161 161 161
188 188 188
156 156 156
153 153 153
163 163 163
143 143 143
154 154 154
180 180 180
175 175 175
175 175 175
192 192 192
157 157 157
169 169 169
164 164 164
158 158 158
182 182 182
177 177 177
174 174 174
185 185 185
180 180 180
163 163 163
169 169 169
171 171 171
187 187 187
143 143 143
68 68 68
73 73 73
2 2 2
2 2 2
3 3 3
3 3 3
3 3 3
3 3 3
3 3 3
3 3 3
15 15 15
70 70 70
72 72 72
123 123 123
148 148 148
140 140 140
110 110 110
93 93 93
142 142 142
91 91 91
135 135 135
161 161 161
164 164 164
158 158 158
136 136 136
158 158 158
198 198 198
187 187 187
153 153 153
164 164 164
159 159 159
157 157 157
153 153 153
181 181 181
151 151 151
156 156 156
140 140 140
156 156 156
161 161 161
175 175 175
185 185 185
175 175 175
180 180 180
176 176 176
185 185 185
179 179 179
177 177 177
174 174 174
186 186 186
133 133 133
67 67 67
73 73 73
2 2 2
2 2 2
3 3 3
3 3 3
3 3 3
3 3 3
3 3 3
3 3 3
27 27 27
83 83 83
72 72 72
130 130 130
162 162 162
143 143 143
118 118 118
98 98 98
125 125 125
128 128 128
157 157 157
158 158 158
178 178 178
169 169 169
161 161 161
144 144 144
202 202 202
208 208 208
154 154 154
143 143 143
165 165 165
168 168 168
183 183 183
174 174 174
193 193 193
173 173 173
144 144 144
149 149 149
158 158 158
173 173 173
180 180 180
174 174 174
186 186 186
166 166 166
176 176 176
164 164 164
183 183 183
169 169 169
179 179 179
95 95 95
63 63 63
72 72 72
2 2 2
2 2 2
3 3 3
3 3 3
3 3 3
3 3 3
3 3 3
3 3 3
14 14 14
62 62 62
79 79 79
122 122 122
166 166 166
142 142 142
108 108 108
93 93 93
102 102 102
145 145 145
152 152 152
140 140 140
141 141 141
171 171 171
170 170 170
143 143 143
156 156 156
191 191 191
187 187 187
175 175 175
183 183 183
174 174 174
200 200 200
185 185 185
179 179 179
196 196 196
167 167 167
176 176 176
169 169 169
180 180 180
173 173 173
193 193 193
183 183 183
167 167 167
171 171 171
185 185 185
178 178 178
186 186 186
151 151 151
59 59 59
64 64 64
72 72 72
2 2 2
2 2 2
3 3 3
3 3 3
3 3 3
3 3 3
3 3 3
3 3 3
3 3 3
25 25 25
79 79 79
110 110 110
154 154 154
110 110 110
104 104 104
109 109 109
99 99 99
95 95 95
96 96 96
109 109 109
116 116 116
136 136 136
168 168 168
164 164 164
160 160 160
189 189 189
167 167 167
185 185 185
195 195 195
164 164 164
173 173 173
199 199 199
201 201 201
189 189 189
165 165 165
167 167 167
154 154 154
171 171 171
186 186 186
208 208 208
195 195 195
171 171 171
188 188 188
194 194 194
188 188 188
196 196 196
97 97 97
40 40 40
64 64 64
72 72 72
2 2 2
2 2 2
3 3 3
3 3 3
3 3 3
3 3 3
3 3 3
3 3 3
4 4 4
19 19 19
76 76 76
87 87 87
121 121 121
124 124 124
100 100 100
100 100 100
113 113 113
101 101 101
92 92 92
141 141 141
124 124 124
132 132 132
156 156 156
181 181 181
175 175 175
142 142 142
150 150 150
201 201 201
193 193 193
192 192 192
187 187 187
186 186 186
189 189 189
172 172 172
175 175 175
180 180 180
181 181 181
177 177 177
184 184 184
195 195 195
193 193 193
196 196 196
182 182 182
190 190 190
183 183 183
149 149 149
62 62 62
41 41 41
63 63 63
72 72 72
2 2 2
2 2 2
3 3 3
3 3 3
3 3 3
3 3 3
3 3 3
3 3 3
3 3 3
15 15 15
66 66 66
79 79 79
104 104 104
139 139 139
126 126 126
129 129 129
131 131 131
129 129 129
122 122 122
127 127 127
109 109 109
132 132 132
205 205 205
176 176 176
146 146 146
145 145 145
135 135 135
201 201 201
188 188 188
197 197 197
195 195 195
192 192 192
200 200 200
189 189 189
191 191 191
185 185 185
176 176 176
204 204 204
188 188 188
202 202 202
197 197 197
195 195 195
189 189 189
190 190 190
176 176 176
93 93 93
34 34 34
48 48 48
61 61 61
71 71 71
2 2 2
2 2 2
2 2 2
2 2 2
3 3 3
3 3 3
3 3 3
3 3 3
3 3 3
5 5 5
53 53 53
98 98 98
166 166 166
132 132 132
135 135 135
161 161 161
128 128 128
111 111 111
161 161 161
131 131 131
121 121 121
101 101 101
187 187 187
131 131 131
118 118 118
150 150 150
174 174 174
208 208 208
204 204 204
195 195 195
185 185 185
173 173 173
188 188 188
191 191 191
198 198 198
190 190 190
193 193 193
200 200 200
200 200 200
201 201 201
201 201 201
199 199 199
198 198 198
200 200 200
122 122 122
49 49 49
32 32 32
48 48 48
60 60 60
71 71 71
2 2 2
2 2 2
2 2 2
2 2 2
2 2 2
3 3 3
3 3 3
3 3 3
3 3 3
11 11 11
66 66 66
151 151 151
179 179 179
149 149 149
169 169 169
183 183 183
151 151 151
139 139 139
152 152 152
136 136 136
148 148 148
155 155 155
138 138 138
160 160 160
152 152 152
128 128 128
167 167 167
209 209 209
183 183 183
199 199 199
181 181 181
191 191 191
181 181 181
183 183 183
190 190 190
192 192 192
197 197 197
194 194 194
202 202 202
205 205 205
207 207 207
208 208 208
194 194 194
128 128 128
60 60 60
23 23 23
32 32 32
38 38 38
57 57 57
70 70 70
2 2 2
2 2 2
2 2 2
2 2 2
2 2 2
3 3 3
3 3 3
4 4 4
4 4 4
36 36 36
96 96 96
183 183 183
204 204 204
168 168 168
211 211 211
196 196 196
176 176 176
115 115 115
155 155 155
195 195 195
170 170 170
192 192 192
125 125 125
149 149 149
147 147 147
163 163 163
190 190 190
182 182 182
177 177 177
185 185 185
181 181 181
179 179 179
168 168 168
174 174 174
165 165 165
178 178 178
190 190 190
192 192 192
199 199 199
194 194 194
192 192 192
149 149 149
97 97 97
70 70 70
25 25 25
24 24 24
33 33 33
26 26 26
56 56 56
69 69 69
2 2 2
3 3 3
4 4 4
5 5 5
6 6 6
6 6 6
8 8 8
8 8 8
9 9 9
35 35 35
120 120 120
194 194 194
179 179 179
178 178 178
210 210 210
160 160 160
155 155 155
128 128 128
135 135 135
198 198 198
223 223 223
196 196 196
135 135 135
169 169 169
154 154 154
160 160 160
159 159 159
152 152 152
170 170 170
153 153 153
160 160 160
187 187 187
162 162 162
181 181 181
166 166 166
174 174 174
180 180 180
194 194 194
179 179 179
186 186 186
144 144 144
91 91 91
81 81 81
34 34 34
24 24 24
24 24 24
32 32 32
26 26 26
55 55 55
68 68 68
3 3 3
8 8 8
16 16 16
14 14 14
19 19 19
18 18 18
15 15 15
20 20 20
34 34 34
54 54 54
119 119 119
199 199 199
184 184 184
179 179 179
199 199 199
175 175 175
142 142 142
127 127 127
137 137 137
208 208 208
177 177 177
198 198 198
117 117 117
105 105 105
162 162 162
168 168 168
161 161 161
128 128 128
114 114 114
133 133 133
159 159 159
163 163 163
147 147 147
179 179 179
163 163 163
155 155 155
156 156 156
150 150 150
168 168 168
126 126 126
90 90 90
86 86 86
44 44 44
26 26 26
26 26 26
25 25 25
32 32 32
24 24 24
54 54 54
69 69 69
2 2 2
2 2 2
2 2 2
2 2 2
2 2 2
2 2 2
3 3 3
2 2 2
3 3 3
8 8 8
36 36 36
84 84 84
92 92 92
88 88 88
95 95 95
116 116 116
137 137 137
145 145 145
137 137 137
130 130 130
99 99 99
100 100 100
101 101 101
115 115 115
135 135 135
164 164 164
184 184 184
149 149 149
122 122 122
151 151 151
145 145 145
155 155 155
105 105 105
114 114 114
97 97 97
89 89 89
90 90 90
93 93 93
90 90 90
88 88 88
87 87 87
62 62 62
41 41 41
27 27 27
27 27 27
26 26 26
32 32 32
23 23 23
51 51 51
68 68 68
2 2 2
12 12 12
11 11 11
16 16 16
17 17 17
15 15 15
22 22 22
20 20 20
18 18 18
34 34 34
36 36 36
89 89 89
162 162 162
176 176 176
198 198 198
194 194 194
188 188 188
194 194 194
162 162 162
161 161 161
156 156 156
208 208 208
223 223 223
121 121 121
136 136 136
161 161 161
147 147 147
165 165 165
162 162 162
152 152 152
162 162 162
159 159 159
123 123 123
90 90 90
89 89 89
90 90 90
93 93 93
93 93 93
90 90 90
90 90 90
82 82 82
37 37 37
43 43 43
28 28 28
26 26 26
26 26 26
30 30 30
35 35 35
64 64 64
69 69 69
2 2 2
8 8 8
8 8 8
11 11 11
12 12 12
11 11 11
16 16 16
15 15 15
16 16 16
28 28 28
52 52 52
137 137 137
208 208 208
222 222 222
168 168 168
202 202 202
193 193 193
205 205 205
145 145 145
122 122 122
116 116 116
179 179 179
215 215 215
119 119 119
147 147 147
168 168 168
123 123 123
138 138 138
134 134 134
141 141 141
157 157 157
142 142 142
116 116 116
90 90 90
89 89 89
93 93 93
94 94 94
92 92 92
89 89 89
87 87 87
53 53 53
33 33 33
44 44 44
32 32 32
26 26 26
25 25 25
25 25 25
28 28 28
54 54 54
62 62 62
2 2 2
2 2 2
2 2 2
2 2 2
2 2 2
3 3 3
3 3 3
3 3 3
3 3 3
4 4 4
43 43 43
98 98 98
199 199 199
178 178 178
188 188 188
226 226 226
188 188 188
172 172 172
144 144 144
110 110 110
116 116 116
128 128 128
166 166 166
185 185 185
129 129 129
132 132 132
122 122 122
142 142 142
152 152 152
137 137 137
151 151 151
99 99 99
88 88 88
88 88 88
88 88 88
89 89 89
89 89 89
88 88 88
87 87 87
79 79 79
32 32 32
24 24 24
39 39 39
31 31 31
29 29 29
32 32 32
25 25 25
30 30 30
48 48 48
66 66 66
2 2 2
2 2 2
2 2 2
2 2 2
2 2 2
2 2 2
2 2 2
2 2 2
2 2 2
2 2 2
23 23 23
84 84 84
159 159 159
200 200 200
176 176 176
192 192 192
169 169 169
167 167 167
149 149 149
113 113 113
132 132 132
127 127 127
146 146 146
128 128 128
119 119 119
142 142 142
134 134 134
140 140 140
146 146 146
130 130 130
145 145 145
106 106 106
95 95 95
88 88 88
88 88 88
88 88 88
89 89 89
88 88 88
85 85 85
56 56 56
23 23 23
24 24 24
35 35 35
31 31 31
31 31 31
36 36 36
25 25 25
29 29 29
45 45 45
65 65 65
2 2 2
2 2 2
2 2 2
2 2 2
2 2 2
2 2 2
2 2 2
2 2 2
2 2 2
2 2 2
13 13 13
80 80 80
108 108 108
168 168 168
161 161 161
160 160 160
172 172 172
163 163 163
127 127 127
128 128 128
128 128 128
122 122 122
117 117 117
126 126 126
123 123 123
164 164 164
132 132 132
126 126 126
121 121 121
118 118 118
121 121 121
116 116 116
95 95 95
88 88 88
89 89 89
89 89 89
89 89 89
86 86 86
78 78 78
40 40 40
19 19 19
26 26 26
37 37 37
34 34 34
36 36 36
35 35 35
24 24 24
31 31 31
42 42 42
63 63 63
2 2 2
2 2 2
2 2 2
2 2 2
2 2 2
1 1 1
2 2 2
2 2 2
2 2 2
2 2 2
14 14 14
79 79 79
101 101 101
163 163 163
175 175 175
129 129 129
165 165 165
154 154 154
127 127 127
129 129 129
129 129 129
111 111 111
115 115 115
136 136 136
149 149 149
138 138 138
126 126 126
121 121 121
117 117 117
123 123 123
133 133 133
108 108 108
97 97 97
87 87 87
89 89 89
90 90 90
90 90 90
84 84 84
71 71 71
26 26 26
19 19 19
26 26 26
38 38 38
36 36 36
37 37 37
35 35 35
26 26 26
34 34 34
40 40 40
61 61 61
2 2 2
2 2 2
2 2 2
2 2 2
2 2 2
2 2 2
2 2 2
2 2 2
2 2 2
2 2 2
17 17 17
81 81 81
100 100 100
162 162 162
168 168 168
172 172 172
179 179 179
141 141 141
112 112 112
112 112 112
120 120 120
126 126 126
126 126 126
173 173 173
109 109 109
133 133 133
131 131 131
113 113 113
117 117 117
129 129 129
137 137 137
110 110 110
101 101 101
88 88 88
89 89 89
90 90 90
89 89 89
84 84 84
41 41 41
20 20 20
20 20 20
28 28 28
40 40 40
37 37 37
38 38 38
36 36 36
26 26 26
36 36 36
39 39 39
61 61 61
2 2 2
2 2 2
2 2 2
2 2 2
2 2 2
2 2 2
2 2 2
2 2 2
2 2 2
2 2 2
20 20 20
78 78 78
103 103 103
192 192 192
184 184 184
173 173 173
179 179 179
136 136 136
141 141 141
147 147 147
163 163 163
184 184 184
148 148 148
96 96 96
110 110 110
137 137 137
139 139 139
115 115 115
120 120 120
125 125 125
132 132 132
114 114 114
98 98 98
88 88 88
89 89 89
90 90 90
89 89 89
82 82 82
32 32 32
19 19 19
20 20 20
28 28 28
40 40 40
37 37 37
38 38 38
39 39 39
27 27 27
35 35 35
38 38 38
61 61 61
2 2 2
2 2 2
2 2 2
2 2 2
2 2 2
2 2 2
2 2 2
2 2 2
2 2 2
2 2 2
15 15 15
68 68 68
119 119 119
219 219 219
197 197 197
153 153 153
208 208 208
195 195 195
201 201 201
187 187 187
148 148 148
108 108 108
90 90 90
98 98 98
108 108 108
126 126 126
123 123 123
116 116 116
118 118 118
123 123 123
137 137 137
121 121 121
98 98 98
88 88 88
89 89 89
89 89 89
88 88 88
79 79 79
37 37 37
19 19 19
21 21 21
28 28 28
41 41 41
38 38 38
39 39 39
38 38 38
27 27 27
34 34 34
38 38 38
60 60 60
0 0 0
0 0 0
0 0 0
0 0 0
0 0 0
0 0 0
0 0 0
0 0 0
0 0 0
0 0 0
0 0 0
0 0 0
0 0 0
0 0 0
0 0 0
0 0 0
0 0 0
0 0 0
0 0 0
0 0 0
0 0 0
0 0 0
0 0 0
0 0 0
0 0 0
0 0 0
0 0 0
0 0 0
0 0 0
0 0 0
0 0 0
0 0 0
0 0 0
0 0 0
0 0 0
0 0 0
0 0 0
0 0 0
0 0 0
0 0 0
0 0 0
0 0 0
0 0 0
0 0 0
0 0 0
0 0 0
0 0 0
0 0 0
0 0 0
0 0 0
