P3 
50 50 
255
0 0 0
0 0 0
0 0 0
0 0 0
0 0 0
0 0 0
0 0 0
0 0 0
0 0 0
0 0 0
0 0 0
0 0 0
0 0 0
0 0 0
0 0 0
0 0 0
0 0 0
0 0 0
0 0 0
0 0 0
0 0 0
0 0 0
0 0 0
0 0 0
0 0 0
0 0 0
0 0 0
0 0 0
0 0 0
0 0 0
0 0 0
0 0 0
0 0 0
0 0 0
0 0 0
0 0 0
0 0 0
0 0 0
0 0 0
0 0 0
0 0 0
0 0 0
0 0 0
0 0 0
0 0 0
0 0 0
0 0 0
0 0 0
0 0 0
0 0 0
2 2 2
21 21 21
71 71 71
37 37 37
21 21 21
39 39 39
27 27 27
25 25 25
66 66 66
47 47 47
29 29 29
15 15 15
33 33 33
17 17 17
28 28 28
27 27 27
34 34 34
21 21 21
21 21 21
18 18 18
30 30 30
40 40 40
57 57 57
74 74 74
72 72 72
73 73 73
70 70 70
55 55 55
46 46 46
33 33 33
23 23 23
10 10 10
12 12 12
8 8 8
12 12 12
9 9 9
7 7 7
7 7 7
3 3 3
3 3 3
3 3 3
3 3 3
3 3 3
2 2 2
2 2 2
2 2 2
2 2 2
2 2 2
2 2 2
2 2 2
2 2 2
21 21 21
70 70 70
37 37 37
24 24 24
39 39 39
23 23 23
41 41 41
65 65 65
47 47 47
37 37 37
16 16 16
35 35 35
21 21 21
31 31 31
32 32 32
31 31 31
62 62 62
84 84 84
101 101 101
122 122 122
137 137 137
155 155 155
177 177 177
188 188 188
191 191 191
185 185 185
163 163 163
144 144 144
124 124 124
98 98 98
82 82 82
53 53 53
16 16 16
10 10 10
9 9 9
8 8 8
6 6 6
4 4 4
3 3 3
3 3 3
3 3 3
3 3 3
2 2 2
2 2 2
2 2 2
2 2 2
2 2 2
2 2 2
2 2 2
2 2 2
21 21 21
71 71 71
38 38 38
27 27 27
43 43 43
31 31 31
46 46 46
65 65 65
45 45 45
31 31 31
20 20 20
29 29 29
21 21 21
35 35 35
62 62 62
97 97 97
146 146 146
183 183 183
183 183 183
186 186 186
183 183 183
189 189 189
193 193 193
194 194 194
199 199 199
197 197 197
183 183 183
179 179 179
183 183 183
178 178 178
184 184 184
129 129 129
85 85 85
50 50 50
12 12 12
4 4 4
4 4 4
3 3 3
3 3 3
3 3 3
3 3 3
3 3 3
2 2 2
2 2 2
2 2 2
2 2 2
2 2 2
2 2 2
2 2 2
2 2 2
21 21 21
71 71 71
37 37 37
30 30 30
43 43 43
40 40 40
35 35 35
64 64 64
46 46 46
27 27 27
27 27 27
24 24 24
47 47 47
97 97 97
148 148 148
189 189 189
178 178 178
174 174 174
176 176 176
175 175 175
180 180 180
191 191 191
186 186 186
192 192 192
199 199 199
183 183 183
197 197 197
184 184 184
184 184 184
179 179 179
184 184 184
183 183 183
181 181 181
114 114 114
74 74 74
26 26 26
4 4 4
4 4 4
4 4 4
3 3 3
3 3 3
2 2 2
2 2 2
2 2 2
2 2 2
2 2 2
2 2 2
2 2 2
2 2 2
2 2 2
22 22 22
71 71 71
37 37 37
31 31 31
49 49 49
46 46 46
26 26 26
64 64 64
47 47 47
20 20 20
34 34 34
65 65 65
125 125 125
190 190 190
182 182 182
183 183 183
171 171 171
170 170 170
182 182 182
177 177 177
175 175 175
182 182 182
179 179 179
190 190 190
197 197 197
184 184 184
186 186 186
191 191 191
187 187 187
183 183 183
183 183 183
185 185 185
176 176 176
174 174 174
130 130 130
77 77 77
26 26 26
4 4 4
4 4 4
4 4 4
3 3 3
2 2 2
2 2 2
2 2 2
2 2 2
2 2 2
2 2 2
2 2 2
2 2 2
2 2 2
21 21 21
71 71 71
38 38 38
31 31 31
45 45 45
40 40 40
28 28 28
64 64 64
49 49 49
31 31 31
73 73 73
137 137 137
188 188 188
189 189 189
177 177 177
169 169 169
174 174 174
173 173 173
176 176 176
172 172 172
172 172 172
174 174 174
172 172 172
173 173 173
195 195 195
183 183 183
177 177 177
182 182 182
191 191 191
188 188 188
185 185 185
185 185 185
185 185 185
183 183 183
181 181 181
153 153 153
75 75 75
12 12 12
4 4 4
4 4 4
3 3 3
3 3 3
2 2 2
2 2 2
2 2 2
2 2 2
2 2 2
2 2 2
2 2 2
2 2 2
22 22 22
72 72 72
38 38 38
39 39 39
46 46 46
25 25 25
24 24 24
64 64 64
52 52 52
69 69 69
129 129 129
179 179 179
175 175 175
176 176 176
166 166 166
169 169 169
174 174 174
172 172 172
167 167 167
168 168 168
173 173 173
173 173 173
174 174 174
174 174 174
190 190 190
183 183 183
175 175 175
170 170 170
176 176 176
196 196 196
190 190 190
183 183 183
184 184 184
182 182 182
186 186 186
179 179 179
149 149 149
47 47 47
5 5 5
4 4 4
3 3 3
2 2 2
2 2 2
2 2 2
2 2 2
2 2 2
2 2 2
2 2 2
2 2 2
2 2 2
21 21 21
71 71 71
38 38 38
43 43 43
46 46 46
28 28 28
27 27 27
64 64 64
54 54 54
102 102 102
168 168 168
167 167 167
168 168 168
174 174 174
166 166 166
164 164 164
169 169 169
172 172 172
171 171 171
165 165 165
170 170 170
169 169 169
167 167 167
180 180 180
182 182 182
169 169 169
171 171 171
174 174 174
173 173 173
183 183 183
182 182 182
176 176 176
176 176 176
181 181 181
180 180 180
184 184 184
176 176 176
122 122 122
36 36 36
4 4 4
3 3 3
5 5 5
3 3 3
2 2 2
2 2 2
2 2 2
2 2 2
2 2 2
2 2 2
2 2 2
22 22 22
72 72 72
37 37 37
43 43 43
44 44 44
41 41 41
34 34 34
63 63 63
69 69 69
175 175 175
177 177 177
175 175 175
169 169 169
172 172 172
165 165 165
160 160 160
166 166 166
175 175 175
176 176 176
175 175 175
185 185 185
175 175 175
168 168 168
167 167 167
167 167 167
175 175 175
183 183 183
183 183 183
170 170 170
175 175 175
173 173 173
174 174 174
176 176 176
171 171 171
176 176 176
180 180 180
169 169 169
176 176 176
90 90 90
16 16 16
8 8 8
12 12 12
7 7 7
2 2 2
2 2 2
2 2 2
2 2 2
2 2 2
2 2 2
2 2 2
22 22 22
72 72 72
37 37 37
50 50 50
47 47 47
52 52 52
48 48 48
62 62 62
113 113 113
179 179 179
162 162 162
160 160 160
171 171 171
167 167 167
171 171 171
163 163 163
167 167 167
175 175 175
173 173 173
163 163 163
162 162 162
163 163 163
167 167 167
176 176 176
181 181 181
172 172 172
169 169 169
168 168 168
174 174 174
163 163 163
175 175 175
179 179 179
183 183 183
168 168 168
173 173 173
173 173 173
176 176 176
176 176 176
150 150 150
42 42 42
9 9 9
10 10 10
5 5 5
2 2 2
2 2 2
2 2 2
2 2 2
2 2 2
2 2 2
2 2 2
22 22 22
72 72 72
38 38 38
52 52 52
39 39 39
49 49 49
51 51 51
63 63 63
169 169 169
178 178 178
173 173 173
163 163 163
170 170 170
164 164 164
182 182 182
175 175 175
173 173 173
177 177 177
174 174 174
174 174 174
179 179 179
174 174 174
162 162 162
172 172 172
171 171 171
175 175 175
189 189 189
160 160 160
154 154 154
171 171 171
164 164 164
164 164 164
164 164 164
167 167 167
162 162 162
175 175 175
168 168 168
172 172 172
177 177 177
87 87 87
17 17 17
12 12 12
10 10 10
2 2 2
2 2 2
2 2 2
2 2 2
2 2 2
2 2 2
2 2 2
21 21 21
71 71 71
38 38 38
52 52 52
38 38 38
42 42 42
44 44 44
87 87 87
169 169 169
173 173 173
174 174 174
186 186 186
164 164 164
172 172 172
171 171 171
176 176 176
167 167 167
172 172 172
162 162 162
165 165 165
165 165 165
166 166 166
155 155 155
171 171 171
165 165 165
155 155 155
178 178 178
175 175 175
161 161 161
162 162 162
174 174 174
153 153 153
163 163 163
156 156 156
178 178 178
170 170 170
165 165 165
177 177 177
174 174 174
106 106 106
27 27 27
9 9 9
11 11 11
2 2 2
2 2 2
2 2 2
2 2 2
2 2 2
2 2 2
2 2 2
21 21 21
70 70 70
38 38 38
52 52 52
40 40 40
43 43 43
50 50 50
110 110 110
173 173 173
171 171 171
167 167 167
169 169 169
168 168 168
166 166 166
189 189 189
176 176 176
169 169 169
187 187 187
176 176 176
173 173 173
164 164 164
172 172 172
164 164 164
165 165 165
168 168 168
172 172 172
169 169 169
166 166 166
158 158 158
162 162 162
182 182 182
147 147 147
169 169 169
164 164 164
159 159 159
162 162 162
167 167 167
181 181 181
175 175 175
138 138 138
53 53 53
9 9 9
12 12 12
2 2 2
2 2 2
2 2 2
2 2 2
2 2 2
2 2 2
2 2 2
21 21 21
73 73 73
38 38 38
52 52 52
49 49 49
43 43 43
61 61 61
143 143 143
188 188 188
190 190 190
174 174 174
172 172 172
169 169 169
175 175 175
164 164 164
163 163 163
165 165 165
173 173 173
165 165 165
158 158 158
170 170 170
158 158 158
150 150 150
160 160 160
159 159 159
148 148 148
161 161 161
170 170 170
156 156 156
156 156 156
164 164 164
152 152 152
159 159 159
179 179 179
149 149 149
160 160 160
155 155 155
156 156 156
163 163 163
170 170 170
81 81 81
23 23 23
15 15 15
2 2 2
2 2 2
2 2 2
2 2 2
2 2 2
2 2 2
2 2 2
22 22 22
73 73 73
39 39 39
52 52 52
51 51 51
45 45 45
72 72 72
178 178 178
176 176 176
187 187 187
181 181 181
169 169 169
171 171 171
164 164 164
163 163 163
157 157 157
163 163 163
175 175 175
155 155 155
164 164 164
176 176 176
166 166 166
167 167 167
181 181 181
181 181 181
164 164 164
147 147 147
168 168 168
150 150 150
147 147 147
159 159 159
151 151 151
154 154 154
168 168 168
154 154 154
166 166 166
156 156 156
141 141 141
171 171 171
165 165 165
143 143 143
52 52 52
22 22 22
5 5 5
2 2 2
2 2 2
2 2 2
2 2 2
2 2 2
2 2 2
22 22 22
73 73 73
39 39 39
53 53 53
47 47 47
47 47 47
95 95 95
175 175 175
177 177 177
178 178 178
174 174 174
171 171 171
175 175 175
159 159 159
171 171 171
163 163 163
166 166 166
164 164 164
163 163 163
160 160 160
171 171 171
169 169 169
163 163 163
159 159 159
173 173 173
166 166 166
160 160 160
168 168 168
141 141 141
146 146 146
152 152 152
139 139 139
146 146 146
189 189 189
165 165 165
149 149 149
189 189 189
138 138 138
157 157 157
165 165 165
181 181 181
87 87 87
32 32 32
11 11 11
3 3 3
2 2 2
2 2 2
2 2 2
2 2 2
2 2 2
22 22 22
74 74 74
38 38 38
54 54 54
46 46 46
48 48 48
108 108 108
180 180 180
174 174 174
174 174 174
170 170 170
171 171 171
173 173 173
163 163 163
171 171 171
165 165 165
172 172 172
164 164 164
161 161 161
155 155 155
166 166 166
173 173 173
169 169 169
157 157 157
167 167 167
145 145 145
173 173 173
166 166 166
142 142 142
152 152 152
151 151 151
129 129 129
141 141 141
173 173 173
163 163 163
158 158 158
177 177 177
141 141 141
154 154 154
154 154 154
167 167 167
118 118 118
33 33 33
9 9 9
3 3 3
3 3 3
2 2 2
2 2 2
2 2 2
2 2 2
22 22 22
74 74 74
39 39 39
54 54 54
46 46 46
50 50 50
121 121 121
176 176 176
178 178 178
177 177 177
169 169 169
177 177 177
174 174 174
165 165 165
170 170 170
163 163 163
171 171 171
167 167 167
168 168 168
169 169 169
168 168 168
175 175 175
172 172 172
162 162 162
165 165 165
143 143 143
171 171 171
171 171 171
148 148 148
165 165 165
153 153 153
134 134 134
150 150 150
141 141 141
165 165 165
175 175 175
137 137 137
116 116 116
144 144 144
142 142 142
171 171 171
123 123 123
33 33 33
5 5 5
3 3 3
3 3 3
3 3 3
2 2 2
2 2 2
2 2 2
22 22 22
74 74 74
38 38 38
53 53 53
49 49 49
57 57 57
132 132 132
173 173 173
189 189 189
178 178 178
175 175 175
178 178 178
165 165 165
166 166 166
167 167 167
165 165 165
169 169 169
179 179 179
179 179 179
179 179 179
172 172 172
174 174 174
169 169 169
165 165 165
159 159 159
151 151 151
164 164 164
183 183 183
163 163 163
171 171 171
159 159 159
152 152 152
161 161 161
160 160 160
167 167 167
164 164 164
137 137 137
115 115 115
125 125 125
135 135 135
159 159 159
114 114 114
32 32 32
5 5 5
4 4 4
3 3 3
3 3 3
2 2 2
2 2 2
2 2 2
22 22 22
74 74 74
39 39 39
54 54 54
52 52 52
55 55 55
138 138 138
182 182 182
187 187 187
182 182 182
176 176 176
178 178 178
173 173 173
170 170 170
170 170 170
166 166 166
171 171 171
186 186 186
178 178 178
174 174 174
175 175 175
172 172 172
163 163 163
166 166 166
157 157 157
146 146 146
154 154 154
189 189 189
166 166 166
169 169 169
164 164 164
149 149 149
158 158 158
167 167 167
155 155 155
152 152 152
126 126 126
124 124 124
148 148 148
152 152 152
163 163 163
93 93 93
31 31 31
4 4 4
3 3 3
3 3 3
2 2 2
2 2 2
2 2 2
2 2 2
23 23 23
74 74 74
38 38 38
54 54 54
51 51 51
56 56 56
136 136 136
186 186 186
180 180 180
184 184 184
177 177 177
183 183 183
174 174 174
171 171 171
170 170 170
167 167 167
169 169 169
176 176 176
163 163 163
180 180 180
181 181 181
175 175 175
147 147 147
156 156 156
148 148 148
138 138 138
156 156 156
192 192 192
160 160 160
155 155 155
166 166 166
151 151 151
155 155 155
164 164 164
136 136 136
166 166 166
141 141 141
134 134 134
141 141 141
141 141 141
155 155 155
125 125 125
54 54 54
17 17 17
4 4 4
3 3 3
3 3 3
2 2 2
2 2 2
2 2 2
23 23 23
75 75 75
38 38 38
52 52 52
48 48 48
59 59 59
136 136 136
184 184 184
185 185 185
191 191 191
176 176 176
185 185 185
181 181 181
169 169 169
173 173 173
167 167 167
175 175 175
175 175 175
166 166 166
181 181 181
177 177 177
175 175 175
145 145 145
149 149 149
161 161 161
144 144 144
152 152 152
193 193 193
164 164 164
144 144 144
153 153 153
134 134 134
143 143 143
175 175 175
126 126 126
140 140 140
126 126 126
115 115 115
133 133 133
148 148 148
135 135 135
116 116 116
122 122 122
68 68 68
14 14 14
3 3 3
3 3 3
3 3 3
3 3 3
2 2 2
22 22 22
74 74 74
38 38 38
50 50 50
48 48 48
56 56 56
126 126 126
181 181 181
188 188 188
194 194 194
176 176 176
183 183 183
184 184 184
168 168 168
175 175 175
168 168 168
182 182 182
179 179 179
170 170 170
177 177 177
171 171 171
167 167 167
148 148 148
151 151 151
175 175 175
149 149 149
153 153 153
194 194 194
164 164 164
131 131 131
124 124 124
116 116 116
137 137 137
176 176 176
121 121 121
122 122 122
135 135 135
100 100 100
131 131 131
154 154 154
137 137 137
101 101 101
89 89 89
97 97 97
51 51 51
7 7 7
3 3 3
4 4 4
3 3 3
2 2 2
22 22 22
74 74 74
38 38 38
45 45 45
45 45 45
52 52 52
129 129 129
186 186 186
191 191 191
185 185 185
170 170 170
184 184 184
179 179 179
172 172 172
174 174 174
174 174 174
188 188 188
186 186 186
170 170 170
161 161 161
158 158 158
153 153 153
147 147 147
154 154 154
175 175 175
152 152 152
161 161 161
198 198 198
159 159 159
123 123 123
106 106 106
112 112 112
148 148 148
148 148 148
141 141 141
119 119 119
116 116 116
108 108 108
128 128 128
168 168 168
137 137 137
101 101 101
82 82 82
79 79 79
79 79 79
30 30 30
3 3 3
3 3 3
3 3 3
2 2 2
22 22 22
75 75 75
38 38 38
43 43 43
39 39 39
51 51 51
133 133 133
182 182 182
178 178 178
179 179 179
170 170 170
184 184 184
185 185 185
174 174 174
169 169 169
165 165 165
194 194 194
190 190 190
167 167 167
161 161 161
155 155 155
158 158 158
150 150 150
161 161 161
182 182 182
156 156 156
165 165 165
202 202 202
142 142 142
133 133 133
120 120 120
114 114 114
138 138 138
160 160 160
142 142 142
125 125 125
114 114 114
94 94 94
116 116 116
159 159 159
140 140 140
136 136 136
74 74 74
83 83 83
85 85 85
53 53 53
10 10 10
3 3 3
3 3 3
2 2 2
22 22 22
75 75 75
37 37 37
45 45 45
37 37 37
44 44 44
139 139 139
178 178 178
174 174 174
182 182 182
183 183 183
183 183 183
176 176 176
174 174 174
172 172 172
150 150 150
192 192 192
186 186 186
164 164 164
172 172 172
159 159 159
164 164 164
148 148 148
162 162 162
188 188 188
158 158 158
170 170 170
188 188 188
130 130 130
138 138 138
131 131 131
113 113 113
129 129 129
140 140 140
136 136 136
132 132 132
105 105 105
101 101 101
123 123 123
133 133 133
159 159 159
121 121 121
102 102 102
88 88 88
80 80 80
81 81 81
45 45 45
7 7 7
2 2 2
2 2 2
22 22 22
74 74 74
37 37 37
45 45 45
36 36 36
41 41 41
145 145 145
181 181 181
173 173 173
185 185 185
181 181 181
182 182 182
168 168 168
172 172 172
174 174 174
151 151 151
189 189 189
188 188 188
164 164 164
171 171 171
165 165 165
165 165 165
140 140 140
156 156 156
187 187 187
158 158 158
173 173 173
181 181 181
130 130 130
124 124 124
130 130 130
113 113 113
136 136 136
144 144 144
143 143 143
137 137 137
102 102 102
91 91 91
139 139 139
127 127 127
167 167 167
137 137 137
102 102 102
86 86 86
81 81 81
84 84 84
73 73 73
14 14 14
3 3 3
2 2 2
23 23 23
76 76 76
37 37 37
42 42 42
45 45 45
40 40 40
117 117 117
188 188 188
180 180 180
183 183 183
167 167 167
194 194 194
166 166 166
184 184 184
178 178 178
156 156 156
172 172 172
193 193 193
176 176 176
147 147 147
167 167 167
179 179 179
182 182 182
182 182 182
160 160 160
180 180 180
181 181 181
159 159 159
130 130 130
131 131 131
122 122 122
119 119 119
140 140 140
154 154 154
139 139 139
142 142 142
145 145 145
128 128 128
139 139 139
165 165 165
132 132 132
146 146 146
154 154 154
82 82 82
68 68 68
75 75 75
74 74 74
70 70 70
19 19 19
2 2 2
23 23 23
75 75 75
36 36 36
38 38 38
46 46 46
44 44 44
81 81 81
181 181 181
177 177 177
168 168 168
175 175 175
195 195 195
174 174 174
167 167 167
184 184 184
159 159 159
167 167 167
171 171 171
177 177 177
164 164 164
160 160 160
163 163 163
201 201 201
210 210 210
205 205 205
169 169 169
182 182 182
170 170 170
194 194 194
133 133 133
150 150 150
124 124 124
143 143 143
149 149 149
143 143 143
130 130 130
151 151 151
97 97 97
118 118 118
152 152 152
132 132 132
145 145 145
124 124 124
80 80 80
77 77 77
76 76 76
78 78 78
76 76 76
24 24 24
2 2 2
24 24 24
77 77 77
34 34 34
40 40 40
43 43 43
44 44 44
68 68 68
159 159 159
181 181 181
184 184 184
193 193 193
199 199 199
191 191 191
179 179 179
184 184 184
190 190 190
171 171 171
161 161 161
168 168 168
167 167 167
175 175 175
155 155 155
161 161 161
175 175 175
190 190 190
160 160 160
175 175 175
198 198 198
173 173 173
154 154 154
142 142 142
158 158 158
173 173 173
154 154 154
142 142 142
118 118 118
131 131 131
121 121 121
116 116 116
142 142 142
139 139 139
150 150 150
96 96 96
80 80 80
72 72 72
66 66 66
75 75 75
60 60 60
12 12 12
2 2 2
24 24 24
78 78 78
33 33 33
37 37 37
36 36 36
38 38 38
48 48 48
124 124 124
193 193 193
191 191 191
183 183 183
190 190 190
175 175 175
182 182 182
207 207 207
171 171 171
169 169 169
192 192 192
188 188 188
172 172 172
166 166 166
172 172 172
148 148 148
170 170 170
196 196 196
178 178 178
185 185 185
198 198 198
187 187 187
167 167 167
145 145 145
151 151 151
136 136 136
146 146 146
144 144 144
142 142 142
120 120 120
99 99 99
91 91 91
144 144 144
141 141 141
155 155 155
99 99 99
84 84 84
77 77 77
59 59 59
45 45 45
9 9 9
2 2 2
2 2 2
25 25 25
78 78 78
33 33 33
34 34 34
39 39 39
37 37 37
27 27 27
67 67 67
178 178 178
192 192 192
184 184 184
193 193 193
196 196 196
186 186 186
195 195 195
187 187 187
182 182 182
185 185 185
175 175 175
177 177 177
184 184 184
183 183 183
190 190 190
194 194 194
191 191 191
154 154 154
159 159 159
157 157 157
156 156 156
138 138 138
149 149 149
122 122 122
113 113 113
112 112 112
109 109 109
129 129 129
108 108 108
97 97 97
96 96 96
103 103 103
119 119 119
129 129 129
108 108 108
97 97 97
88 88 88
40 40 40
4 4 4
3 3 3
2 2 2
2 2 2
25 25 25
78 78 78
33 33 33
30 30 30
37 37 37
29 29 29
23 23 23
53 53 53
117 117 117
202 202 202
186 186 186
198 198 198
191 191 191
192 192 192
209 209 209
196 196 196
175 175 175
203 203 203
189 189 189
178 178 178
186 186 186
188 188 188
182 182 182
193 193 193
185 185 185
128 128 128
130 130 130
136 136 136
138 138 138
192 192 192
136 136 136
116 116 116
117 117 117
116 116 116
87 87 87
122 122 122
119 119 119
136 136 136
128 128 128
130 130 130
128 128 128
118 118 118
111 111 111
93 93 93
81 81 81
32 32 32
3 3 3
3 3 3
3 3 3
2 2 2
25 25 25
77 77 77
33 33 33
29 29 29
38 38 38
27 27 27
23 23 23
51 51 51
63 63 63
150 150 150
203 203 203
198 198 198
198 198 198
200 200 200
204 204 204
206 206 206
207 207 207
195 195 195
183 183 183
196 196 196
184 184 184
171 171 171
180 180 180
186 186 186
187 187 187
139 139 139
131 131 131
148 148 148
163 163 163
198 198 198
137 137 137
110 110 110
135 135 135
137 137 137
101 101 101
109 109 109
117 117 117
124 124 124
119 119 119
128 128 128
150 150 150
133 133 133
144 144 144
108 108 108
84 84 84
35 35 35
3 3 3
3 3 3
3 3 3
2 2 2
26 26 26
77 77 77
32 32 32
30 30 30
38 38 38
24 24 24
25 25 25
48 48 48
61 61 61
76 76 76
129 129 129
205 205 205
209 209 209
200 200 200
196 196 196
194 194 194
203 203 203
188 188 188
181 181 181
184 184 184
194 194 194
173 173 173
178 178 178
185 185 185
180 180 180
153 153 153
162 162 162
169 169 169
157 157 157
166 166 166
138 138 138
105 105 105
133 133 133
129 129 129
160 160 160
182 182 182
181 181 181
147 147 147
140 140 140
141 141 141
143 143 143
165 165 165
185 185 185
173 173 173
104 104 104
52 52 52
3 3 3
3 3 3
2 2 2
2 2 2
26 26 26
77 77 77
31 31 31
29 29 29
38 38 38
25 25 25
27 27 27
48 48 48
61 61 61
36 36 36
73 73 73
129 129 129
155 155 155
193 193 193
192 192 192
197 197 197
189 189 189
187 187 187
189 189 189
177 177 177
188 188 188
183 183 183
187 187 187
195 195 195
194 194 194
155 155 155
163 163 163
143 143 143
140 140 140
137 137 137
133 133 133
104 104 104
128 128 128
128 128 128
184 184 184
197 197 197
225 225 225
180 180 180
167 167 167
210 210 210
187 187 187
167 167 167
177 177 177
234 234 234
129 129 129
61 61 61
4 4 4
3 3 3
2 2 2
2 2 2
27 27 27
77 77 77
31 31 31
26 26 26
38 38 38
22 22 22
34 34 34
47 47 47
60 60 60
37 37 37
38 38 38
81 81 81
91 91 91
99 99 99
148 148 148
190 190 190
177 177 177
180 180 180
173 173 173
189 189 189
173 173 173
168 168 168
159 159 159
180 180 180
184 184 184
174 174 174
197 197 197
135 135 135
164 164 164
141 141 141
114 114 114
105 105 105
147 147 147
121 121 121
135 135 135
147 147 147
231 231 231
167 167 167
214 214 214
226 226 226
191 191 191
154 154 154
170 170 170
208 208 208
177 177 177
52 52 52
12 12 12
10 10 10
6 6 6
2 2 2
27 27 27
76 76 76
29 29 29
28 28 28
36 36 36
22 22 22
42 42 42
45 45 45
61 61 61
34 34 34
24 24 24
50 50 50
87 87 87
91 91 91
92 92 92
105 105 105
131 131 131
135 135 135
146 146 146
180 180 180
183 183 183
166 166 166
155 155 155
150 150 150
168 168 168
137 137 137
152 152 152
142 142 142
164 164 164
192 192 192
128 128 128
114 114 114
122 122 122
130 130 130
147 147 147
205 205 205
174 174 174
217 217 217
180 180 180
184 184 184
198 198 198
188 188 188
99 99 99
178 178 178
220 220 220
68 68 68
35 35 35
27 27 27
15 15 15
2 2 2
27 27 27
74 74 74
30 30 30
29 29 29
40 40 40
24 24 24
45 45 45
43 43 43
60 60 60
31 31 31
16 16 16
34 34 34
85 85 85
89 89 89
89 89 89
89 89 89
88 88 88
89 89 89
89 89 89
90 90 90
90 90 90
125 125 125
127 127 127
174 174 174
157 157 157
127 127 127
159 159 159
140 140 140
163 163 163
154 154 154
154 154 154
128 128 128
91 91 91
151 151 151
129 129 129
166 166 166
144 144 144
107 107 107
102 102 102
97 97 97
113 113 113
95 95 95
83 83 83
42 42 42
44 44 44
18 18 18
3 3 3
2 2 2
2 2 2
2 2 2
25 25 25
67 67 67
35 35 35
29 29 29
38 38 38
30 30 30
44 44 44
58 58 58
60 60 60
27 27 27
17 17 17
39 39 39
57 57 57
85 85 85
89 89 89
91 91 91
91 91 91
89 89 89
89 89 89
88 88 88
90 90 90
125 125 125
158 158 158
150 150 150
161 161 161
164 164 164
169 169 169
143 143 143
140 140 140
149 149 149
103 103 103
125 125 125
132 132 132
202 202 202
194 194 194
202 202 202
203 203 203
160 160 160
190 190 190
152 152 152
158 158 158
171 171 171
154 154 154
117 117 117
62 62 62
22 22 22
11 11 11
9 9 9
7 7 7
2 2 2
30 30 30
83 83 83
36 36 36
29 29 29
34 34 34
42 42 42
35 35 35
48 48 48
54 54 54
22 22 22
19 19 19
39 39 39
40 40 40
85 85 85
89 89 89
90 90 90
89 89 89
89 89 89
89 89 89
89 89 89
88 88 88
109 109 109
156 156 156
145 145 145
117 117 117
132 132 132
131 131 131
158 158 158
164 164 164
117 117 117
113 113 113
122 122 122
171 171 171
223 223 223
201 201 201
175 175 175
192 192 192
174 174 174
182 182 182
121 121 121
169 169 169
198 198 198
223 223 223
166 166 166
100 100 100
28 28 28
16 16 16
10 10 10
6 6 6
2 2 2
30 30 30
77 77 77
27 27 27
29 29 29
35 35 35
49 49 49
28 28 28
42 42 42
59 59 59
25 25 25
16 16 16
35 35 35
24 24 24
64 64 64
85 85 85
89 89 89
88 88 88
88 88 88
89 89 89
88 88 88
100 100 100
130 130 130
129 129 129
101 101 101
104 104 104
143 143 143
145 145 145
132 132 132
132 132 132
124 124 124
135 135 135
139 139 139
171 171 171
192 192 192
186 186 186
197 197 197
168 168 168
177 177 177
127 127 127
133 133 133
215 215 215
198 198 198
177 177 177
128 128 128
73 73 73
15 15 15
3 3 3
3 3 3
3 3 3
2 2 2
30 30 30
77 77 77
27 27 27
32 32 32
38 38 38
47 47 47
21 21 21
39 39 39
58 58 58
28 28 28
15 15 15
34 34 34
19 19 19
56 56 56
84 84 84
89 89 89
89 89 89
89 89 89
89 89 89
95 95 95
109 109 109
103 103 103
123 123 123
129 129 129
160 160 160
139 139 139
133 133 133
121 121 121
129 129 129
138 138 138
146 146 146
150 150 150
153 153 153
159 159 159
195 195 195
167 167 167
134 134 134
121 121 121
174 174 174
165 165 165
195 195 195
183 183 183
172 172 172
91 91 91
53 53 53
4 4 4
2 2 2
2 2 2
2 2 2
2 2 2
31 31 31
77 77 77
27 27 27
36 36 36
40 40 40
42 42 42
19 19 19
37 37 37
57 57 57
23 23 23
19 19 19
36 36 36
17 17 17
37 37 37
86 86 86
89 89 89
89 89 89
89 89 89
89 89 89
95 95 95
109 109 109
113 113 113
113 113 113
120 120 120
131 131 131
121 121 121
124 124 124
123 123 123
112 112 112
145 145 145
169 169 169
164 164 164
148 148 148
125 125 125
140 140 140
145 145 145
147 147 147
129 129 129
162 162 162
153 153 153
171 171 171
157 157 157
120 120 120
83 83 83
39 39 39
2 2 2
2 2 2
2 2 2
2 2 2
2 2 2
31 31 31
74 74 74
28 28 28
38 38 38
41 41 41
35 35 35
22 22 22
36 36 36
57 57 57
23 23 23
17 17 17
38 38 38
17 17 17
31 31 31
83 83 83
90 90 90
89 89 89
88 88 88
89 89 89
89 89 89
88 88 88
105 105 105
137 137 137
118 118 118
121 121 121
130 130 130
130 130 130
128 128 128
105 105 105
89 89 89
117 117 117
145 145 145
147 147 147
133 133 133
129 129 129
132 132 132
163 163 163
126 126 126
162 162 162
170 170 170
140 140 140
150 150 150
107 107 107
85 85 85
39 39 39
2 2 2
2 2 2
2 2 2
2 2 2
2 2 2
31 31 31
73 73 73
30 30 30
40 40 40
41 41 41
29 29 29
24 24 24
36 36 36
56 56 56
24 24 24
20 20 20
40 40 40
16 16 16
34 34 34
86 86 86
89 89 89
90 90 90
89 89 89
89 89 89
89 89 89
88 88 88
90 90 90
144 144 144
125 125 125
144 144 144
139 139 139
131 131 131
128 128 128
111 111 111
88 88 88
88 88 88
88 88 88
130 130 130
197 197 197
152 152 152
130 130 130
160 160 160
161 161 161
161 161 161
172 172 172
178 178 178
159 159 159
112 112 112
85 85 85
45 45 45
3 3 3
2 2 2
2 2 2
2 2 2
2 2 2
31 31 31
73 73 73
30 30 30
40 40 40
40 40 40
25 25 25
20 20 20
36 36 36
56 56 56
21 21 21
20 20 20
39 39 39
18 18 18
42 42 42
86 86 86
89 89 89
89 89 89
89 89 89
89 89 89
89 89 89
89 89 89
107 107 107
124 124 124
128 128 128
156 156 156
152 152 152
116 116 116
103 103 103
112 112 112
89 89 89
88 88 88
87 87 87
88 88 88
95 95 95
157 157 157
208 208 208
156 156 156
190 190 190
185 185 185
184 184 184
182 182 182
177 177 177
114 114 114
84 84 84
45 45 45
3 3 3
2 2 2
2 2 2
2 2 2
2 2 2
31 31 31
73 73 73
30 30 30
40 40 40
38 38 38
25 25 25
20 20 20
34 34 34
55 55 55
21 21 21
21 21 21
38 38 38
15 15 15
37 37 37
85 85 85
89 89 89
89 89 89
89 89 89
89 89 89
88 88 88
93 93 93
113 113 113
129 129 129
122 122 122
128 128 128
133 133 133
128 128 128
103 103 103
105 105 105
89 89 89
88 88 88
87 87 87
88 88 88
88 88 88
88 88 88
113 113 113
202 202 202
185 185 185
186 186 186
201 201 201
201 201 201
191 191 191
141 141 141
81 81 81
40 40 40
3 3 3
2 2 2
2 2 2
2 2 2
0 0 0
0 0 0
0 0 0
0 0 0
0 0 0
0 0 0
0 0 0
0 0 0
0 0 0
0 0 0
0 0 0
0 0 0
0 0 0
0 0 0
0 0 0
0 0 0
0 0 0
0 0 0
0 0 0
0 0 0
0 0 0
0 0 0
0 0 0
0 0 0
0 0 0
0 0 0
0 0 0
0 0 0
0 0 0
0 0 0
0 0 0
0 0 0
0 0 0
0 0 0
0 0 0
0 0 0
0 0 0
0 0 0
0 0 0
0 0 0
0 0 0
0 0 0
0 0 0
0 0 0
0 0 0
0 0 0
0 0 0
0 0 0
0 0 0
0 0 0
