P3 
50 50 
255
0 0 0
0 0 0
0 0 0
0 0 0
0 0 0
0 0 0
0 0 0
0 0 0
0 0 0
0 0 0
0 0 0
0 0 0
0 0 0
0 0 0
0 0 0
0 0 0
0 0 0
0 0 0
0 0 0
0 0 0
0 0 0
0 0 0
0 0 0
0 0 0
0 0 0
0 0 0
0 0 0
0 0 0
0 0 0
0 0 0
0 0 0
0 0 0
0 0 0
0 0 0
0 0 0
0 0 0
0 0 0
0 0 0
0 0 0
0 0 0
0 0 0
0 0 0
0 0 0
0 0 0
0 0 0
0 0 0
0 0 0
0 0 0
0 0 0
0 0 0
3 3 3
18 18 18
32 32 32
34 34 34
52 52 52
52 52 52
57 57 57
38 38 38
25 25 25
20 20 20
24 24 24
25 25 25
17 17 17
19 19 19
21 21 21
17 17 17
16 16 16
16 16 16
23 23 23
31 31 31
41 41 41
71 71 71
59 59 59
28 28 28
27 27 27
38 38 38
64 64 64
73 73 73
73 73 73
67 67 67
45 45 45
28 28 28
13 13 13
11 11 11
7 7 7
11 11 11
20 20 20
10 10 10
11 11 11
8 8 8
7 7 7
8 8 8
4 4 4
3 3 3
2 2 2
2 2 2
2 2 2
2 2 2
2 2 2
2 2 2
3 3 3
16 16 16
34 34 34
29 29 29
52 52 52
52 52 52
57 57 57
38 38 38
20 20 20
15 15 15
19 19 19
17 17 17
23 23 23
32 32 32
32 32 32
31 31 31
22 22 22
20 20 20
22 22 22
28 28 28
39 39 39
69 69 69
70 70 70
89 89 89
112 112 112
135 135 135
164 164 164
190 190 190
192 192 192
179 179 179
141 141 141
113 113 113
90 90 90
74 74 74
35 35 35
9 9 9
10 10 10
15 15 15
13 13 13
10 10 10
7 7 7
9 9 9
4 4 4
3 3 3
3 3 3
2 2 2
2 2 2
2 2 2
2 2 2
2 2 2
3 3 3
14 14 14
39 39 39
25 25 25
52 52 52
52 52 52
57 57 57
39 39 39
21 21 21
16 16 16
15 15 15
20 20 20
36 36 36
40 40 40
35 35 35
40 40 40
38 38 38
21 21 21
21 21 21
36 36 36
79 79 79
112 112 112
163 163 163
186 186 186
192 192 192
195 195 195
205 205 205
190 190 190
189 189 189
193 193 193
196 196 196
190 190 190
183 183 183
157 157 157
99 99 99
69 69 69
22 22 22
12 12 12
14 14 14
10 10 10
8 8 8
10 10 10
5 5 5
4 4 4
4 4 4
4 4 4
2 2 2
2 2 2
2 2 2
2 2 2
2 2 2
19 19 19
43 43 43
23 23 23
52 52 52
53 53 53
57 57 57
38 38 38
22 22 22
16 16 16
19 19 19
28 28 28
42 42 42
32 32 32
28 28 28
27 27 27
38 38 38
32 32 32
68 68 68
101 101 101
162 162 162
180 180 180
183 183 183
190 190 190
199 199 199
193 193 193
182 182 182
182 182 182
180 180 180
181 181 181
184 184 184
186 186 186
194 194 194
195 195 195
182 182 182
138 138 138
83 83 83
37 37 37
20 20 20
13 13 13
10 10 10
9 9 9
5 5 5
4 4 4
4 4 4
4 4 4
3 3 3
2 2 2
2 2 2
2 2 2
2 2 2
20 20 20
45 45 45
24 24 24
53 53 53
53 53 53
58 58 58
39 39 39
25 25 25
20 20 20
27 27 27
35 35 35
40 40 40
24 24 24
21 21 21
18 18 18
26 26 26
75 75 75
126 126 126
177 177 177
179 179 179
189 189 189
182 182 182
190 190 190
195 195 195
186 186 186
179 179 179
183 183 183
181 181 181
183 183 183
186 186 186
178 178 178
182 182 182
192 192 192
193 193 193
175 175 175
170 170 170
90 90 90
37 37 37
13 13 13
10 10 10
9 9 9
5 5 5
4 4 4
4 4 4
4 4 4
3 3 3
2 2 2
2 2 2
2 2 2
2 2 2
19 19 19
45 45 45
36 36 36
52 52 52
53 53 53
58 58 58
39 39 39
23 23 23
26 26 26
32 32 32
35 35 35
29 29 29
21 21 21
23 23 23
32 32 32
84 84 84
145 145 145
173 173 173
180 180 180
183 183 183
184 184 184
190 190 190
184 184 184
184 184 184
185 185 185
177 177 177
179 179 179
181 181 181
183 183 183
187 187 187
184 184 184
180 180 180
181 181 181
183 183 183
184 184 184
177 177 177
175 175 175
99 99 99
34 34 34
11 11 11
10 10 10
7 7 7
5 5 5
5 5 5
4 4 4
4 4 4
2 2 2
2 2 2
2 2 2
2 2 2
22 22 22
42 42 42
46 46 46
53 53 53
53 53 53
58 58 58
41 41 41
27 27 27
32 32 32
29 29 29
24 24 24
18 18 18
18 18 18
28 28 28
81 81 81
143 143 143
169 169 169
173 173 173
180 180 180
170 170 170
173 173 173
183 183 183
191 191 191
180 180 180
173 173 173
176 176 176
171 171 171
177 177 177
187 187 187
183 183 183
183 183 183
184 184 184
184 184 184
175 175 175
176 176 176
192 192 192
177 177 177
177 177 177
90 90 90
24 24 24
11 11 11
7 7 7
6 6 6
4 4 4
5 5 5
4 4 4
2 2 2
2 2 2
2 2 2
2 2 2
24 24 24
36 36 36
49 49 49
52 52 52
53 53 53
58 58 58
43 43 43
28 28 28
34 34 34
28 28 28
21 21 21
20 20 20
29 29 29
71 71 71
129 129 129
163 163 163
169 169 169
173 173 173
168 168 168
170 170 170
183 183 183
183 183 183
175 175 175
172 172 172
173 173 173
170 170 170
182 182 182
173 173 173
175 175 175
172 172 172
180 180 180
169 169 169
174 174 174
181 181 181
181 181 181
174 174 174
185 185 185
179 179 179
160 160 160
69 69 69
11 11 11
6 6 6
6 6 6
5 5 5
6 6 6
4 4 4
2 2 2
2 2 2
2 2 2
2 2 2
22 22 22
33 33 33
47 47 47
53 53 53
54 54 54
58 58 58
45 45 45
26 26 26
34 34 34
22 22 22
21 21 21
21 21 21
57 57 57
111 111 111
160 160 160
166 166 166
181 181 181
176 176 176
182 182 182
176 176 176
169 169 169
175 175 175
180 180 180
180 180 180
169 169 169
173 173 173
177 177 177
170 170 170
168 168 168
166 166 166
165 165 165
169 169 169
171 171 171
167 167 167
161 161 161
164 164 164
177 177 177
173 173 173
178 178 178
136 136 136
41 41 41
14 14 14
9 9 9
10 10 10
10 10 10
4 4 4
2 2 2
2 2 2
2 2 2
2 2 2
21 21 21
41 41 41
36 36 36
53 53 53
53 53 53
58 58 58
39 39 39
22 22 22
37 37 37
26 26 26
19 19 19
31 31 31
86 86 86
156 156 156
176 176 176
174 174 174
174 174 174
167 167 167
160 160 160
164 164 164
164 164 164
173 173 173
168 168 168
175 175 175
168 168 168
169 169 169
161 161 161
184 184 184
172 172 172
163 163 163
169 169 169
159 159 159
182 182 182
175 175 175
172 172 172
173 173 173
176 176 176
174 174 174
187 187 187
174 174 174
89 89 89
14 14 14
7 7 7
9 9 9
12 12 12
6 6 6
3 3 3
2 2 2
2 2 2
2 2 2
20 20 20
44 44 44
31 31 31
53 53 53
53 53 53
59 59 59
39 39 39
29 29 29
35 35 35
24 24 24
24 24 24
45 45 45
124 124 124
170 170 170
179 179 179
176 176 176
178 178 178
178 178 178
175 175 175
163 163 163
162 162 162
190 190 190
175 175 175
163 163 163
174 174 174
161 161 161
167 167 167
163 163 163
159 159 159
159 159 159
161 161 161
155 155 155
174 174 174
165 165 165
175 175 175
174 174 174
155 155 155
164 164 164
169 169 169
168 168 168
154 154 154
47 47 47
10 10 10
9 9 9
11 11 11
9 9 9
5 5 5
2 2 2
2 2 2
2 2 2
24 24 24
46 46 46
29 29 29
52 52 52
53 53 53
59 59 59
39 39 39
35 35 35
33 33 33
22 22 22
31 31 31
78 78 78
165 165 165
173 173 173
175 175 175
174 174 174
177 177 177
169 169 169
165 165 165
174 174 174
176 176 176
172 172 172
177 177 177
175 175 175
163 163 163
171 171 171
160 160 160
155 155 155
175 175 175
183 183 183
161 161 161
153 153 153
166 166 166
155 155 155
169 169 169
174 174 174
172 172 172
162 162 162
165 165 165
172 172 172
170 170 170
110 110 110
18 18 18
7 7 7
7 7 7
11 11 11
8 8 8
2 2 2
2 2 2
2 2 2
25 25 25
46 46 46
32 32 32
52 52 52
52 52 52
59 59 59
39 39 39
35 35 35
29 29 29
29 29 29
37 37 37
114 114 114
174 174 174
185 185 185
175 175 175
186 186 186
176 176 176
171 171 171
161 161 161
165 165 165
159 159 159
154 154 154
159 159 159
176 176 176
161 161 161
166 166 166
160 160 160
182 182 182
156 156 156
167 167 167
156 156 156
164 164 164
149 149 149
170 170 170
162 162 162
171 171 171
176 176 176
161 161 161
156 156 156
170 170 170
173 173 173
141 141 141
37 37 37
8 8 8
8 8 8
12 12 12
8 8 8
2 2 2
2 2 2
2 2 2
25 25 25
45 45 45
35 35 35
53 53 53
54 54 54
59 59 59
39 39 39
29 29 29
31 31 31
37 37 37
49 49 49
130 130 130
171 171 171
171 171 171
172 172 172
175 175 175
175 175 175
186 186 186
178 178 178
181 181 181
183 183 183
166 166 166
154 154 154
164 164 164
175 175 175
158 158 158
179 179 179
168 168 168
157 157 157
161 161 161
162 162 162
159 159 159
160 160 160
153 153 153
151 151 151
154 154 154
170 170 170
167 167 167
158 158 158
160 160 160
159 159 159
184 184 184
68 68 68
9 9 9
9 9 9
11 11 11
10 10 10
2 2 2
2 2 2
2 2 2
25 25 25
46 46 46
35 35 35
53 53 53
54 54 54
60 60 60
38 38 38
29 29 29
30 30 30
47 47 47
66 66 66
151 151 151
171 171 171
169 169 169
181 181 181
171 171 171
163 163 163
171 171 171
174 174 174
179 179 179
180 180 180
183 183 183
173 173 173
155 155 155
166 166 166
162 162 162
172 172 172
163 163 163
163 163 163
158 158 158
166 166 166
158 158 158
161 161 161
144 144 144
167 167 167
184 184 184
169 169 169
158 158 158
162 162 162
142 142 142
161 161 161
179 179 179
75 75 75
10 10 10
8 8 8
11 11 11
11 11 11
2 2 2
2 2 2
2 2 2
25 25 25
46 46 46
37 37 37
53 53 53
53 53 53
60 60 60
39 39 39
29 29 29
36 36 36
45 45 45
74 74 74
175 175 175
175 175 175
172 172 172
173 173 173
162 162 162
153 153 153
168 168 168
166 166 166
161 161 161
159 159 159
172 172 172
166 166 166
170 170 170
159 159 159
166 166 166
159 159 159
188 188 188
169 169 169
167 167 167
154 154 154
178 178 178
152 152 152
149 149 149
172 172 172
165 165 165
167 167 167
161 161 161
159 159 159
136 136 136
155 155 155
167 167 167
100 100 100
17 17 17
9 9 9
9 9 9
11 11 11
3 3 3
2 2 2
2 2 2
24 24 24
47 47 47
36 36 36
54 54 54
54 54 54
59 59 59
39 39 39
30 30 30
45 45 45
41 41 41
88 88 88
170 170 170
178 178 178
184 184 184
169 169 169
164 164 164
152 152 152
172 172 172
171 171 171
159 159 159
146 146 146
166 166 166
158 158 158
172 172 172
159 159 159
169 169 169
161 161 161
174 174 174
169 169 169
169 169 169
164 164 164
167 167 167
152 152 152
161 161 161
162 162 162
156 156 156
160 160 160
171 171 171
158 158 158
143 143 143
157 157 157
161 161 161
135 135 135
29 29 29
18 18 18
12 12 12
11 11 11
4 4 4
2 2 2
3 3 3
22 22 22
46 46 46
35 35 35
54 54 54
54 54 54
60 60 60
40 40 40
28 28 28
45 45 45
40 40 40
97 97 97
180 180 180
178 178 178
181 181 181
171 171 171
169 169 169
167 167 167
174 174 174
188 188 188
166 166 166
146 146 146
166 166 166
157 157 157
173 173 173
161 161 161
169 169 169
158 158 158
163 163 163
192 192 192
187 187 187
161 161 161
171 171 171
154 154 154
170 170 170
158 158 158
157 157 157
157 157 157
171 171 171
166 166 166
150 150 150
145 145 145
163 163 163
135 135 135
60 60 60
7 7 7
16 16 16
11 11 11
5 5 5
2 2 2
2 2 2
21 21 21
44 44 44
33 33 33
54 54 54
54 54 54
60 60 60
38 38 38
27 27 27
43 43 43
42 42 42
98 98 98
185 185 185
181 181 181
175 175 175
178 178 178
185 185 185
179 179 179
182 182 182
189 189 189
172 172 172
159 159 159
165 165 165
155 155 155
170 170 170
165 165 165
167 167 167
165 165 165
157 157 157
163 163 163
170 170 170
162 162 162
175 175 175
158 158 158
173 173 173
154 154 154
154 154 154
152 152 152
170 170 170
169 169 169
168 168 168
152 152 152
131 131 131
189 189 189
77 77 77
7 7 7
7 7 7
13 13 13
5 5 5
2 2 2
2 2 2
24 24 24
44 44 44
35 35 35
54 54 54
55 55 55
61 61 61
39 39 39
26 26 26
42 42 42
43 43 43
99 99 99
187 187 187
185 185 185
181 181 181
175 175 175
194 194 194
179 179 179
181 181 181
185 185 185
180 180 180
170 170 170
165 165 165
145 145 145
160 160 160
179 179 179
169 169 169
170 170 170
157 157 157
159 159 159
171 171 171
163 163 163
176 176 176
158 158 158
175 175 175
152 152 152
155 155 155
168 168 168
161 161 161
181 181 181
168 168 168
153 153 153
147 147 147
163 163 163
119 119 119
14 14 14
4 4 4
11 11 11
6 6 6
2 2 2
2 2 2
26 26 26
43 43 43
39 39 39
55 55 55
55 55 55
60 60 60
38 38 38
27 27 27
43 43 43
42 42 42
95 95 95
187 187 187
186 186 186
183 183 183
173 173 173
197 197 197
183 183 183
162 162 162
163 163 163
179 179 179
179 179 179
163 163 163
156 156 156
164 164 164
178 178 178
170 170 170
170 170 170
157 157 157
160 160 160
172 172 172
165 165 165
178 178 178
155 155 155
176 176 176
155 155 155
158 158 158
147 147 147
162 162 162
189 189 189
167 167 167
168 168 168
144 144 144
132 132 132
119 119 119
19 19 19
5 5 5
8 8 8
6 6 6
2 2 2
2 2 2
22 22 22
43 43 43
41 41 41
55 55 55
55 55 55
59 59 59
38 38 38
29 29 29
41 41 41
44 44 44
84 84 84
187 187 187
188 188 188
189 189 189
173 173 173
197 197 197
178 178 178
150 150 150
154 154 154
166 166 166
172 172 172
163 163 163
158 158 158
166 166 166
176 176 176
174 174 174
166 166 166
159 159 159
158 158 158
174 174 174
166 166 166
175 175 175
155 155 155
170 170 170
156 156 156
164 164 164
154 154 154
160 160 160
194 194 194
153 153 153
139 139 139
142 142 142
130 130 130
111 111 111
21 21 21
4 4 4
5 5 5
7 7 7
2 2 2
3 3 3
20 20 20
41 41 41
43 43 43
55 55 55
54 54 54
59 59 59
37 37 37
30 30 30
40 40 40
46 46 46
73 73 73
190 190 190
185 185 185
191 191 191
176 176 176
198 198 198
171 171 171
150 150 150
151 151 151
160 160 160
155 155 155
174 174 174
161 161 161
168 168 168
171 171 171
172 172 172
158 158 158
160 160 160
164 164 164
178 178 178
169 169 169
176 176 176
162 162 162
160 160 160
163 163 163
167 167 167
167 167 167
161 161 161
195 195 195
140 140 140
134 134 134
151 151 151
143 143 143
115 115 115
28 28 28
4 4 4
4 4 4
3 3 3
2 2 2
2 2 2
19 19 19
38 38 38
46 46 46
55 55 55
55 55 55
59 59 59
38 38 38
27 27 27
39 39 39
43 43 43
69 69 69
177 177 177
184 184 184
193 193 193
177 177 177
190 190 190
153 153 153
157 157 157
167 167 167
146 146 146
145 145 145
174 174 174
163 163 163
171 171 171
169 169 169
165 165 165
154 154 154
158 158 158
169 169 169
177 177 177
168 168 168
179 179 179
163 163 163
148 148 148
166 166 166
171 171 171
168 168 168
169 169 169
190 190 190
134 134 134
127 127 127
149 149 149
157 157 157
127 127 127
51 51 51
4 4 4
4 4 4
3 3 3
3 3 3
2 2 2
23 23 23
33 33 33
47 47 47
55 55 55
55 55 55
59 59 59
38 38 38
30 30 30
36 36 36
38 38 38
63 63 63
146 146 146
182 182 182
188 188 188
176 176 176
173 173 173
159 159 159
156 156 156
155 155 155
147 147 147
138 138 138
182 182 182
174 174 174
178 178 178
175 175 175
163 163 163
159 159 159
156 156 156
164 164 164
170 170 170
161 161 161
168 168 168
162 162 162
152 152 152
158 158 158
177 177 177
174 174 174
172 172 172
173 173 173
134 134 134
123 123 123
133 133 133
158 158 158
120 120 120
66 66 66
9 9 9
4 4 4
3 3 3
3 3 3
2 2 2
23 23 23
32 32 32
49 49 49
55 55 55
55 55 55
58 58 58
37 37 37
34 34 34
33 33 33
37 37 37
49 49 49
131 131 131
188 188 188
181 181 181
186 186 186
178 178 178
169 169 169
165 165 165
157 157 157
150 150 150
141 141 141
185 185 185
167 167 167
174 174 174
178 178 178
169 169 169
170 170 170
163 163 163
151 151 151
155 155 155
170 170 170
152 152 152
170 170 170
160 160 160
139 139 139
172 172 172
179 179 179
173 173 173
150 150 150
133 133 133
124 124 124
122 122 122
162 162 162
142 142 142
76 76 76
16 16 16
4 4 4
3 3 3
2 2 2
2 2 2
22 22 22
34 34 34
49 49 49
55 55 55
54 54 54
58 58 58
38 38 38
36 36 36
33 33 33
38 38 38
40 40 40
121 121 121
192 192 192
182 182 182
188 188 188
180 180 180
172 172 172
166 166 166
158 158 158
152 152 152
147 147 147
187 187 187
165 165 165
173 173 173
179 179 179
170 170 170
170 170 170
168 168 168
147 147 147
158 158 158
171 171 171
153 153 153
169 169 169
163 163 163
138 138 138
162 162 162
179 179 179
173 173 173
138 138 138
132 132 132
136 136 136
116 116 116
161 161 161
157 157 157
74 74 74
15 15 15
4 4 4
3 3 3
3 3 3
2 2 2
19 19 19
42 42 42
46 46 46
56 56 56
55 55 55
58 58 58
37 37 37
41 41 41
31 31 31
40 40 40
36 36 36
84 84 84
181 181 181
185 185 185
191 191 191
185 185 185
177 177 177
179 179 179
177 177 177
173 173 173
174 174 174
198 198 198
187 187 187
178 178 178
189 189 189
179 179 179
186 186 186
166 166 166
147 147 147
161 161 161
159 159 159
174 174 174
144 144 144
174 174 174
161 161 161
143 143 143
161 161 161
175 175 175
136 136 136
142 142 142
105 105 105
136 136 136
147 147 147
158 158 158
79 79 79
18 18 18
4 4 4
3 3 3
3 3 3
2 2 2
18 18 18
46 46 46
41 41 41
56 56 56
55 55 55
57 57 57
36 36 36
40 40 40
28 28 28
37 37 37
41 41 41
59 59 59
131 131 131
183 183 183
186 186 186
166 166 166
155 155 155
159 159 159
156 156 156
178 178 178
172 172 172
202 202 202
200 200 200
208 208 208
194 194 194
170 170 170
169 169 169
146 146 146
169 169 169
148 148 148
182 182 182
183 183 183
164 164 164
174 174 174
193 193 193
151 151 151
171 171 171
174 174 174
147 147 147
141 141 141
90 90 90
118 118 118
138 138 138
144 144 144
78 78 78
29 29 29
4 4 4
3 3 3
2 2 2
2 2 2
20 20 20
45 45 45
40 40 40
58 58 58
55 55 55
55 55 55
34 34 34
38 38 38
28 28 28
33 33 33
38 38 38
53 53 53
122 122 122
200 200 200
191 191 191
167 167 167
150 150 150
171 171 171
168 168 168
158 158 158
171 171 171
186 186 186
173 173 173
175 175 175
174 174 174
169 169 169
178 178 178
169 169 169
176 176 176
164 164 164
178 178 178
164 164 164
185 185 185
196 196 196
191 191 191
183 183 183
193 193 193
173 173 173
164 164 164
161 161 161
124 124 124
108 108 108
170 170 170
136 136 136
77 77 77
29 29 29
4 4 4
3 3 3
2 2 2
2 2 2
25 25 25
46 46 46
38 38 38
59 59 59
56 56 56
54 54 54
34 34 34
39 39 39
28 28 28
27 27 27
37 37 37
40 40 40
100 100 100
195 195 195
189 189 189
173 173 173
171 171 171
188 188 188
177 177 177
174 174 174
188 188 188
176 176 176
168 168 168
196 196 196
181 181 181
165 165 165
162 162 162
152 152 152
168 168 168
172 172 172
194 194 194
177 177 177
172 172 172
201 201 201
178 178 178
195 195 195
208 208 208
186 186 186
145 145 145
136 136 136
140 140 140
108 108 108
166 166 166
138 138 138
76 76 76
36 36 36
4 4 4
3 3 3
2 2 2
2 2 2
24 24 24
46 46 46
36 36 36
59 59 59
56 56 56
53 53 53
33 33 33
38 38 38
29 29 29
25 25 25
31 31 31
31 31 31
62 62 62
164 164 164
201 201 201
195 195 195
182 182 182
176 176 176
172 172 172
169 169 169
177 177 177
183 183 183
176 176 176
175 175 175
175 175 175
181 181 181
171 171 171
169 169 169
179 179 179
190 190 190
170 170 170
181 181 181
182 182 182
196 196 196
193 193 193
172 172 172
186 186 186
164 164 164
109 109 109
116 116 116
99 99 99
118 118 118
137 137 137
113 113 113
79 79 79
37 37 37
5 5 5
4 4 4
3 3 3
2 2 2
17 17 17
43 43 43
32 32 32
60 60 60
56 56 56
53 53 53
32 32 32
40 40 40
28 28 28
25 25 25
23 23 23
26 26 26
44 44 44
124 124 124
200 200 200
204 204 204
202 202 202
184 184 184
180 180 180
186 186 186
205 205 205
183 183 183
166 166 166
176 176 176
166 166 166
162 162 162
158 158 158
187 187 187
190 190 190
177 177 177
189 189 189
176 176 176
195 195 195
193 193 193
197 197 197
164 164 164
154 154 154
176 176 176
117 117 117
128 128 128
124 124 124
103 103 103
91 91 91
80 80 80
77 77 77
28 28 28
4 4 4
4 4 4
3 3 3
2 2 2
14 14 14
40 40 40
31 31 31
60 60 60
55 55 55
53 53 53
31 31 31
43 43 43
27 27 27
21 21 21
23 23 23
22 22 22
38 38 38
83 83 83
185 185 185
208 208 208
205 205 205
201 201 201
194 194 194
199 199 199
190 190 190
198 198 198
199 199 199
200 200 200
182 182 182
197 197 197
184 184 184
188 188 188
189 189 189
196 196 196
189 189 189
179 179 179
185 185 185
201 201 201
183 183 183
184 184 184
185 185 185
145 145 145
136 136 136
161 161 161
146 146 146
108 108 108
86 86 86
77 77 77
78 78 78
18 18 18
7 7 7
7 7 7
3 3 3
2 2 2
16 16 16
40 40 40
31 31 31
60 60 60
55 55 55
51 51 51
29 29 29
43 43 43
23 23 23
18 18 18
23 23 23
23 23 23
33 33 33
79 79 79
107 107 107
199 199 199
209 209 209
197 197 197
202 202 202
207 207 207
206 206 206
208 208 208
200 200 200
196 196 196
192 192 192
187 187 187
182 182 182
185 185 185
189 189 189
191 191 191
182 182 182
191 191 191
179 179 179
189 189 189
166 166 166
182 182 182
179 179 179
176 176 176
150 150 150
152 152 152
129 129 129
94 94 94
84 84 84
78 78 78
80 80 80
14 14 14
7 7 7
7 7 7
3 3 3
2 2 2
14 14 14
38 38 38
31 31 31
60 60 60
54 54 54
50 50 50
29 29 29
43 43 43
24 24 24
19 19 19
24 24 24
24 24 24
27 27 27
88 88 88
73 73 73
132 132 132
185 185 185
182 182 182
190 190 190
190 190 190
192 192 192
191 191 191
194 194 194
194 194 194
189 189 189
189 189 189
192 192 192
185 185 185
183 183 183
181 181 181
196 196 196
211 211 211
188 188 188
199 199 199
183 183 183
183 183 183
175 175 175
192 192 192
204 204 204
177 177 177
164 164 164
88 88 88
84 84 84
78 78 78
64 64 64
10 10 10
9 9 9
5 5 5
3 3 3
2 2 2
13 13 13
37 37 37
29 29 29
61 61 61
54 54 54
49 49 49
31 31 31
43 43 43
27 27 27
22 22 22
26 26 26
25 25 25
25 25 25
60 60 60
73 73 73
84 84 84
108 108 108
187 187 187
181 181 181
166 166 166
166 166 166
172 172 172
176 176 176
179 179 179
162 162 162
179 179 179
182 182 182
170 170 170
186 186 186
173 173 173
180 180 180
210 210 210
178 178 178
183 183 183
165 165 165
194 194 194
159 159 159
188 188 188
223 223 223
198 198 198
162 162 162
97 97 97
97 97 97
84 84 84
43 43 43
12 12 12
12 12 12
7 7 7
9 9 9
2 2 2
14 14 14
40 40 40
28 28 28
61 61 61
53 53 53
47 47 47
26 26 26
40 40 40
29 29 29
22 22 22
26 26 26
26 26 26
27 27 27
34 34 34
60 60 60
68 68 68
84 84 84
93 93 93
119 119 119
136 136 136
135 135 135
146 146 146
159 159 159
163 163 163
172 172 172
179 179 179
173 173 173
156 156 156
165 165 165
179 179 179
199 199 199
149 149 149
174 174 174
174 174 174
184 184 184
189 189 189
177 177 177
198 198 198
160 160 160
199 199 199
208 208 208
135 135 135
106 106 106
93 93 93
57 57 57
26 26 26
23 23 23
21 21 21
17 17 17
2 2 2
13 13 13
40 40 40
26 26 26
60 60 60
52 52 52
47 47 47
28 28 28
43 43 43
34 34 34
24 24 24
26 26 26
27 27 27
34 34 34
31 31 31
47 47 47
64 64 64
77 77 77
88 88 88
89 89 89
89 89 89
89 89 89
88 88 88
130 130 130
137 137 137
184 184 184
137 137 137
145 145 145
135 135 135
127 127 127
156 156 156
162 162 162
155 155 155
126 126 126
122 122 122
104 104 104
96 96 96
92 92 92
114 114 114
151 151 151
164 164 164
105 105 105
92 92 92
83 83 83
72 72 72
23 23 23
11 11 11
9 9 9
4 4 4
3 3 3
2 2 2
13 13 13
38 38 38
23 23 23
55 55 55
48 48 48
49 49 49
36 36 36
42 42 42
32 32 32
24 24 24
26 26 26
35 35 35
37 37 37
31 31 31
37 37 37
43 43 43
63 63 63
85 85 85
90 90 90
90 90 90
87 87 87
88 88 88
95 95 95
134 134 134
165 165 165
135 135 135
136 136 136
160 160 160
198 198 198
162 162 162
194 194 194
194 194 194
153 153 153
149 149 149
156 156 156
176 176 176
159 159 159
223 223 223
164 164 164
208 208 208
161 161 161
124 124 124
107 107 107
98 98 98
34 34 34
27 27 27
18 18 18
17 17 17
18 18 18
2 2 2
13 13 13
38 38 38
25 25 25
68 68 68
59 59 59
57 57 57
37 37 37
37 37 37
29 29 29
24 24 24
33 33 33
47 47 47
36 36 36
28 28 28
30 30 30
44 44 44
49 49 49
85 85 85
90 90 90
89 89 89
89 89 89
90 90 90
90 90 90
96 96 96
133 133 133
146 146 146
157 157 157
142 142 142
158 158 158
205 205 205
182 182 182
185 185 185
154 154 154
130 130 130
139 139 139
166 166 166
162 162 162
215 215 215
222 222 222
202 202 202
181 181 181
106 106 106
108 108 108
90 90 90
30 30 30
18 18 18
16 16 16
13 13 13
10 10 10
2 2 2
16 16 16
39 39 39
22 22 22
65 65 65
54 54 54
44 44 44
25 25 25
37 37 37
30 30 30
26 26 26
32 32 32
48 48 48
32 32 32
29 29 29
28 28 28
39 39 39
41 41 41
84 84 84
89 89 89
89 89 89
89 89 89
89 89 89
98 98 98
109 109 109
144 144 144
129 129 129
153 153 153
140 140 140
172 172 172
188 188 188
226 226 226
185 185 185
119 119 119
92 92 92
159 159 159
199 199 199
175 175 175
178 178 178
188 188 188
151 151 151
117 117 117
84 84 84
78 78 78
42 42 42
12 12 12
10 10 10
3 3 3
3 3 3
2 2 2
2 2 2
17 17 17
40 40 40
23 23 23
65 65 65
53 53 53
44 44 44
25 25 25
36 36 36
34 34 34
28 28 28
34 34 34
41 41 41
26 26 26
31 31 31
31 31 31
35 35 35
37 37 37
83 83 83
89 89 89
89 89 89
90 90 90
88 88 88
93 93 93
118 118 118
149 149 149
142 142 142
162 162 162
126 126 126
145 145 145
192 192 192
190 190 190
156 156 156
113 113 113
127 127 127
182 182 182
200 200 200
178 178 178
165 165 165
176 176 176
169 169 169
114 114 114
81 81 81
78 78 78
22 22 22
10 10 10
6 6 6
2 2 2
2 2 2
2 2 2
2 2 2
18 18 18
41 41 41
22 22 22
66 66 66
53 53 53
41 41 41
23 23 23
35 35 35
36 36 36
30 30 30
37 37 37
34 34 34
29 29 29
36 36 36
34 34 34
31 31 31
37 37 37
83 83 83
89 89 89
89 89 89
90 90 90
89 89 89
90 90 90
105 105 105
126 126 126
163 163 163
172 172 172
132 132 132
139 139 139
127 127 127
127 127 127
160 160 160
122 122 122
161 161 161
160 160 160
168 168 168
153 153 153
159 159 159
142 142 142
164 164 164
105 105 105
79 79 79
60 60 60
19 19 19
7 7 7
4 4 4
2 2 2
2 2 2
2 2 2
2 2 2
20 20 20
41 41 41
23 23 23
66 66 66
51 51 51
39 39 39
23 23 23
34 34 34
38 38 38
30 30 30
38 38 38
36 36 36
30 30 30
37 37 37
35 35 35
28 28 28
40 40 40
83 83 83
89 89 89
90 90 90
90 90 90
90 90 90
90 90 90
108 108 108
121 121 121
123 123 123
144 144 144
165 165 165
140 140 140
133 133 133
119 119 119
121 121 121
123 123 123
175 175 175
159 159 159
142 142 142
124 124 124
154 154 154
149 149 149
138 138 138
102 102 102
79 79 79
42 42 42
10 10 10
5 5 5
2 2 2
2 2 2
2 2 2
2 2 2
2 2 2
20 20 20
42 42 42
24 24 24
65 65 65
50 50 50
37 37 37
21 21 21
33 33 33
39 39 39
29 29 29
40 40 40
37 37 37
31 31 31
38 38 38
36 36 36
26 26 26
36 36 36
83 83 83
89 89 89
90 90 90
90 90 90
90 90 90
89 89 89
103 103 103
131 131 131
132 132 132
136 136 136
140 140 140
172 172 172
137 137 137
146 146 146
143 143 143
141 141 141
168 168 168
161 161 161
154 154 154
136 136 136
179 179 179
150 150 150
173 173 173
109 109 109
69 69 69
19 19 19
12 12 12
3 3 3
2 2 2
2 2 2
2 2 2
2 2 2
2 2 2
21 21 21
42 42 42
25 25 25
65 65 65
49 49 49
35 35 35
21 21 21
32 32 32
38 38 38
28 28 28
40 40 40
37 37 37
31 31 31
38 38 38
37 37 37
27 27 27
36 36 36
85 85 85
89 89 89
90 90 90
90 90 90
90 90 90
88 88 88
102 102 102
139 139 139
137 137 137
130 130 130
120 120 120
132 132 132
173 173 173
184 184 184
161 161 161
160 160 160
192 192 192
165 165 165
173 173 173
157 157 157
179 179 179
150 150 150
184 184 184
97 97 97
60 60 60
15 15 15
6 6 6
4 4 4
3 3 3
2 2 2
2 2 2
2 2 2
2 2 2
16 16 16
38 38 38
25 25 25
65 65 65
50 50 50
36 36 36
20 20 20
30 30 30
36 36 36
28 28 28
41 41 41
38 38 38
32 32 32
39 39 39
38 38 38
27 27 27
33 33 33
85 85 85
89 89 89
89 89 89
90 90 90
88 88 88
94 94 94
112 112 112
123 123 123
115 115 115
126 126 126
119 119 119
118 118 118
137 137 137
119 119 119
197 197 197
179 179 179
219 219 219
211 211 211
156 156 156
176 176 176
172 172 172
208 208 208
158 158 158
77 77 77
29 29 29
7 7 7
5 5 5
7 7 7
6 6 6
4 4 4
2 2 2
2 2 2
0 0 0
0 0 0
0 0 0
0 0 0
0 0 0
0 0 0
0 0 0
0 0 0
0 0 0
0 0 0
0 0 0
0 0 0
0 0 0
0 0 0
0 0 0
0 0 0
0 0 0
0 0 0
0 0 0
0 0 0
0 0 0
0 0 0
0 0 0
0 0 0
0 0 0
0 0 0
0 0 0
0 0 0
0 0 0
0 0 0
0 0 0
0 0 0
0 0 0
0 0 0
0 0 0
0 0 0
0 0 0
0 0 0
0 0 0
0 0 0
0 0 0
0 0 0
0 0 0
0 0 0
0 0 0
0 0 0
0 0 0
0 0 0
0 0 0
0 0 0
