P3 
50 50 
255
0 0 0
0 0 0
0 0 0
0 0 0
0 0 0
0 0 0
0 0 0
0 0 0
0 0 0
0 0 0
0 0 0
0 0 0
0 0 0
0 0 0
0 0 0
0 0 0
0 0 0
0 0 0
0 0 0
0 0 0
0 0 0
0 0 0
0 0 0
0 0 0
0 0 0
0 0 0
0 0 0
0 0 0
0 0 0
0 0 0
0 0 0
0 0 0
0 0 0
0 0 0
0 0 0
0 0 0
0 0 0
0 0 0
0 0 0
0 0 0
0 0 0
0 0 0
0 0 0
0 0 0
0 0 0
0 0 0
0 0 0
0 0 0
0 0 0
0 0 0
0 0 0
2 2 2
2 2 2
2 2 2
2 2 2
2 2 2
3 3 3
3 3 3
3 3 3
3 3 3
4 4 4
4 4 4
4 4 4
4 4 4
4 4 4
9 9 9
9 9 9
6 6 6
19 19 19
12 12 12
8 8 8
15 15 15
27 27 27
45 45 45
50 50 50
67 67 67
73 73 73
73 73 73
73 73 73
75 75 75
57 57 57
43 43 43
29 29 29
15 15 15
21 21 21
24 24 24
25 25 25
31 31 31
31 31 31
23 23 23
43 43 43
42 42 42
43 43 43
42 42 42
25 25 25
31 31 31
78 78 78
24 24 24
29 29 29
0 0 0
0 0 0
2 2 2
2 2 2
2 2 2
2 2 2
2 2 2
2 2 2
3 3 3
3 3 3
3 3 3
3 3 3
3 3 3
3 3 3
3 3 3
3 3 3
9 9 9
8 8 8
9 9 9
13 13 13
39 39 39
79 79 79
92 92 92
121 121 121
144 144 144
157 157 157
178 178 178
194 194 194
191 191 191
193 193 193
175 175 175
150 150 150
136 136 136
122 122 122
99 99 99
83 83 83
65 65 65
22 22 22
25 25 25
42 42 42
23 23 23
42 42 42
41 41 41
49 49 49
44 44 44
43 43 43
32 32 32
74 74 74
24 24 24
29 29 29
0 0 0
0 0 0
2 2 2
2 2 2
2 2 2
2 2 2
2 2 2
2 2 2
3 3 3
3 3 3
3 3 3
3 3 3
3 3 3
3 3 3
3 3 3
3 3 3
5 5 5
4 4 4
47 47 47
79 79 79
112 112 112
188 188 188
190 190 190
190 190 190
188 188 188
179 179 179
189 189 189
206 206 206
199 199 199
195 195 195
194 194 194
194 194 194
190 190 190
187 187 187
190 190 190
187 187 187
146 146 146
90 90 90
52 52 52
25 25 25
39 39 39
43 43 43
41 41 41
52 52 52
39 39 39
47 47 47
32 32 32
74 74 74
23 23 23
27 27 27
0 0 0
0 0 0
2 2 2
2 2 2
2 2 2
2 2 2
2 2 2
2 2 2
3 3 3
3 3 3
3 3 3
3 3 3
3 3 3
3 3 3
3 3 3
4 4 4
4 4 4
72 72 72
91 91 91
182 182 182
193 193 193
185 185 185
194 194 194
184 184 184
188 188 188
189 189 189
204 204 204
203 203 203
192 192 192
193 193 193
188 188 188
184 184 184
183 183 183
181 181 181
183 183 183
176 176 176
183 183 183
192 192 192
135 135 135
85 85 85
41 41 41
34 34 34
47 47 47
52 52 52
41 41 41
44 44 44
32 32 32
75 75 75
22 22 22
27 27 27
0 0 0
0 0 0
2 2 2
2 2 2
2 2 2
2 2 2
2 2 2
2 2 2
2 2 2
3 3 3
3 3 3
3 3 3
3 3 3
3 3 3
3 3 3
5 5 5
69 69 69
115 115 115
183 183 183
187 187 187
195 195 195
192 192 192
189 189 189
192 192 192
190 190 190
195 195 195
204 204 204
194 194 194
179 179 179
185 185 185
184 184 184
185 185 185
185 185 185
179 179 179
173 173 173
183 183 183
176 176 176
186 186 186
192 192 192
192 192 192
97 97 97
47 47 47
51 51 51
56 56 56
44 44 44
46 46 46
33 33 33
76 76 76
23 23 23
27 27 27
0 0 0
0 0 0
2 2 2
2 2 2
2 2 2
2 2 2
2 2 2
2 2 2
2 2 2
2 2 2
2 2 2
3 3 3
4 4 4
3 3 3
3 3 3
32 32 32
127 127 127
181 181 181
193 193 193
190 190 190
181 181 181
190 190 190
188 188 188
186 186 186
187 187 187
199 199 199
202 202 202
177 177 177
175 175 175
177 177 177
173 173 173
174 174 174
179 179 179
176 176 176
179 179 179
174 174 174
178 178 178
173 173 173
181 181 181
195 195 195
190 190 190
90 90 90
52 52 52
51 51 51
48 48 48
48 48 48
33 33 33
77 77 77
23 23 23
26 26 26
0 0 0
0 0 0
2 2 2
2 2 2
2 2 2
2 2 2
2 2 2
2 2 2
2 2 2
3 3 3
3 3 3
3 3 3
4 4 4
3 3 3
3 3 3
92 92 92
185 185 185
191 191 191
188 188 188
192 192 192
189 189 189
185 185 185
181 181 181
186 186 186
193 193 193
197 197 197
179 179 179
176 176 176
173 173 173
174 174 174
170 170 170
169 169 169
174 174 174
177 177 177
178 178 178
174 174 174
173 173 173
170 170 170
182 182 182
177 177 177
188 188 188
184 184 184
89 89 89
48 48 48
51 51 51
42 42 42
34 34 34
80 80 80
23 23 23
26 26 26
0 0 0
0 0 0
2 2 2
2 2 2
2 2 2
2 2 2
2 2 2
2 2 2
2 2 2
2 2 2
3 3 3
6 6 6
5 5 5
4 4 4
63 63 63
185 185 185
182 182 182
184 184 184
185 185 185
189 189 189
178 178 178
182 182 182
175 175 175
182 182 182
183 183 183
192 192 192
183 183 183
178 178 178
174 174 174
171 171 171
166 166 166
176 176 176
172 172 172
174 174 174
171 171 171
174 174 174
160 160 160
165 165 165
171 171 171
166 166 166
178 178 178
187 187 187
149 149 149
79 79 79
50 50 50
44 44 44
35 35 35
80 80 80
23 23 23
27 27 27
0 0 0
0 0 0
2 2 2
2 2 2
2 2 2
2 2 2
2 2 2
2 2 2
2 2 2
2 2 2
4 4 4
18 18 18
10 10 10
26 26 26
138 138 138
185 185 185
171 171 171
175 175 175
187 187 187
178 178 178
178 178 178
185 185 185
195 195 195
193 193 193
185 185 185
175 175 175
180 180 180
179 179 179
187 187 187
181 181 181
179 179 179
176 176 176
176 176 176
171 171 171
171 171 171
168 168 168
172 172 172
161 161 161
172 172 172
163 163 163
172 172 172
183 183 183
189 189 189
93 93 93
48 48 48
51 51 51
50 50 50
82 82 82
23 23 23
27 27 27
0 0 0
0 0 0
2 2 2
2 2 2
2 2 2
2 2 2
2 2 2
2 2 2
2 2 2
2 2 2
2 2 2
30 30 30
27 27 27
79 79 79
182 182 182
185 185 185
179 179 179
190 190 190
188 188 188
171 171 171
188 188 188
173 173 173
177 177 177
196 196 196
194 194 194
179 179 179
171 171 171
161 161 161
171 171 171
170 170 170
174 174 174
176 176 176
174 174 174
168 168 168
168 168 168
178 178 178
179 179 179
163 163 163
171 171 171
174 174 174
176 176 176
183 183 183
189 189 189
158 158 158
67 67 67
47 47 47
56 56 56
82 82 82
25 25 25
28 28 28
0 0 0
0 0 0
2 2 2
2 2 2
2 2 2
2 2 2
2 2 2
2 2 2
2 2 2
2 2 2
2 2 2
24 24 24
44 44 44
109 109 109
191 191 191
176 176 176
186 186 186
185 185 185
174 174 174
192 192 192
171 171 171
171 171 171
197 197 197
192 192 192
160 160 160
165 165 165
166 166 166
179 179 179
180 180 180
178 178 178
178 178 178
181 181 181
179 179 179
175 175 175
184 184 184
180 180 180
162 162 162
179 179 179
162 162 162
169 169 169
186 186 186
173 173 173
187 187 187
191 191 191
91 91 91
49 49 49
54 54 54
83 83 83
25 25 25
27 27 27
0 0 0
0 0 0
2 2 2
2 2 2
2 2 2
2 2 2
2 2 2
2 2 2
2 2 2
2 2 2
2 2 2
18 18 18
58 58 58
179 179 179
189 189 189
190 190 190
177 177 177
187 187 187
176 176 176
174 174 174
167 167 167
181 181 181
182 182 182
181 181 181
169 169 169
177 177 177
173 173 173
172 172 172
165 165 165
180 180 180
178 178 178
177 177 177
187 187 187
183 183 183
172 172 172
165 165 165
188 188 188
171 171 171
184 184 184
173 173 173
181 181 181
182 182 182
190 190 190
187 187 187
105 105 105
54 54 54
53 53 53
84 84 84
25 25 25
28 28 28
0 0 0
0 0 0
2 2 2
2 2 2
2 2 2
2 2 2
2 2 2
2 2 2
3 3 3
3 3 3
7 7 7
18 18 18
84 84 84
185 185 185
182 182 182
183 183 183
203 203 203
189 189 189
196 196 196
171 171 171
158 158 158
174 174 174
183 183 183
181 181 181
176 176 176
165 165 165
169 169 169
171 171 171
168 168 168
176 176 176
190 190 190
191 191 191
182 182 182
188 188 188
194 194 194
182 182 182
161 161 161
181 181 181
181 181 181
176 176 176
187 187 187
189 189 189
171 171 171
188 188 188
170 170 170
78 78 78
51 51 51
86 86 86
25 25 25
27 27 27
0 0 0
0 0 0
2 2 2
2 2 2
2 2 2
2 2 2
3 3 3
3 3 3
3 3 3
4 4 4
22 22 22
73 73 73
165 165 165
181 181 181
174 174 174
202 202 202
191 191 191
166 166 166
175 175 175
163 163 163
174 174 174
191 191 191
158 158 158
170 170 170
163 163 163
165 165 165
164 164 164
171 171 171
175 175 175
180 180 180
184 184 184
178 178 178
181 181 181
174 174 174
171 171 171
187 187 187
167 167 167
173 173 173
173 173 173
179 179 179
190 190 190
184 184 184
186 186 186
178 178 178
192 192 192
89 89 89
55 55 55
88 88 88
25 25 25
27 27 27
0 0 0
0 0 0
2 2 2
2 2 2
2 2 2
3 3 3
3 3 3
3 3 3
3 3 3
4 4 4
32 32 32
86 86 86
177 177 177
186 186 186
195 195 195
189 189 189
184 184 184
161 161 161
170 170 170
158 158 158
173 173 173
178 178 178
148 148 148
167 167 167
158 158 158
164 164 164
165 165 165
175 175 175
179 179 179
174 174 174
170 170 170
174 174 174
183 183 183
187 187 187
184 184 184
172 172 172
194 194 194
174 174 174
184 184 184
183 183 183
168 168 168
178 178 178
172 172 172
190 190 190
189 189 189
91 91 91
57 57 57
88 88 88
26 26 26
27 27 27
0 0 0
0 0 0
2 2 2
3 3 3
3 3 3
3 3 3
3 3 3
3 3 3
4 4 4
9 9 9
65 65 65
170 170 170
197 197 197
195 195 195
199 199 199
207 207 207
184 184 184
164 164 164
160 160 160
138 138 138
161 161 161
165 165 165
150 150 150
157 157 157
154 154 154
164 164 164
172 172 172
173 173 173
175 175 175
172 172 172
172 172 172
176 176 176
176 176 176
171 171 171
172 172 172
184 184 184
192 192 192
166 166 166
185 185 185
167 167 167
188 188 188
176 176 176
189 189 189
174 174 174
186 186 186
96 96 96
53 53 53
89 89 89
26 26 26
27 27 27
0 0 0
0 0 0
2 2 2
3 3 3
3 3 3
3 3 3
3 3 3
4 4 4
5 5 5
5 5 5
78 78 78
184 184 184
187 187 187
210 210 210
202 202 202
183 183 183
185 185 185
153 153 153
162 162 162
132 132 132
165 165 165
155 155 155
161 161 161
149 149 149
152 152 152
167 167 167
180 180 180
173 173 173
170 170 170
167 167 167
178 178 178
174 174 174
169 169 169
169 169 169
168 168 168
175 175 175
182 182 182
184 184 184
181 181 181
174 174 174
191 191 191
191 191 191
186 186 186
194 194 194
194 194 194
119 119 119
55 55 55
89 89 89
27 27 27
27 27 27
0 0 0
0 0 0
2 2 2
3 3 3
3 3 3
3 3 3
3 3 3
4 4 4
4 4 4
4 4 4
81 81 81
176 176 176
159 159 159
211 211 211
208 208 208
153 153 153
173 173 173
132 132 132
156 156 156
142 142 142
166 166 166
154 154 154
171 171 171
169 169 169
155 155 155
193 193 193
196 196 196
172 172 172
171 171 171
173 173 173
181 181 181
173 173 173
172 172 172
165 165 165
169 169 169
177 177 177
186 186 186
188 188 188
177 177 177
187 187 187
186 186 186
184 184 184
185 185 185
193 193 193
193 193 193
157 157 157
62 62 62
90 90 90
26 26 26
27 27 27
0 0 0
0 0 0
2 2 2
3 3 3
3 3 3
3 3 3
3 3 3
4 4 4
4 4 4
30 30 30
84 84 84
165 165 165
133 133 133
205 205 205
181 181 181
144 144 144
144 144 144
158 158 158
144 144 144
142 142 142
160 160 160
177 177 177
164 164 164
191 191 191
179 179 179
203 203 203
191 191 191
176 176 176
187 187 187
193 193 193
180 180 180
186 186 186
184 184 184
168 168 168
169 169 169
175 175 175
184 184 184
190 190 190
180 180 180
190 190 190
187 187 187
182 182 182
184 184 184
196 196 196
191 191 191
194 194 194
68 68 68
92 92 92
26 26 26
27 27 27
0 0 0
0 0 0
2 2 2
3 3 3
3 3 3
3 3 3
3 3 3
3 3 3
3 3 3
75 75 75
109 109 109
181 181 181
119 119 119
183 183 183
209 209 209
164 164 164
144 144 144
149 149 149
150 150 150
164 164 164
192 192 192
181 181 181
179 179 179
186 186 186
183 183 183
191 191 191
195 195 195
176 176 176
200 200 200
202 202 202
196 196 196
196 196 196
190 190 190
180 180 180
166 166 166
173 173 173
185 185 185
191 191 191
181 181 181
194 194 194
188 188 188
186 186 186
179 179 179
200 200 200
189 189 189
194 194 194
84 84 84
91 91 91
26 26 26
27 27 27
0 0 0
0 0 0
2 2 2
3 3 3
3 3 3
3 3 3
3 3 3
3 3 3
54 54 54
92 92 92
167 167 167
171 171 171
124 124 124
127 127 127
197 197 197
179 179 179
148 148 148
148 148 148
132 132 132
170 170 170
194 194 194
174 174 174
172 172 172
158 158 158
187 187 187
169 169 169
193 193 193
179 179 179
208 208 208
204 204 204
193 193 193
191 191 191
189 189 189
187 187 187
167 167 167
177 177 177
190 190 190
184 184 184
184 184 184
190 190 190
193 193 193
190 190 190
185 185 185
201 201 201
197 197 197
196 196 196
89 89 89
92 92 92
26 26 26
27 27 27
0 0 0
0 0 0
2 2 2
3 3 3
3 3 3
3 3 3
3 3 3
44 44 44
127 127 127
138 138 138
111 111 111
184 184 184
147 147 147
89 89 89
194 194 194
195 195 195
131 131 131
124 124 124
135 135 135
139 139 139
165 165 165
160 160 160
158 158 158
159 159 159
162 162 162
154 154 154
155 155 155
182 182 182
209 209 209
203 203 203
194 194 194
191 191 191
200 200 200
190 190 190
175 175 175
183 183 183
193 193 193
178 178 178
191 191 191
179 179 179
201 201 201
190 190 190
189 189 189
205 205 205
199 199 199
191 191 191
104 104 104
91 91 91
26 26 26
26 26 26
0 0 0
0 0 0
2 2 2
3 3 3
4 4 4
4 4 4
29 29 29
107 107 107
117 117 117
118 118 118
140 140 140
149 149 149
89 89 89
90 90 90
192 192 192
191 191 191
164 164 164
112 112 112
146 146 146
120 120 120
159 159 159
166 166 166
159 159 159
156 156 156
156 156 156
155 155 155
135 135 135
179 179 179
200 200 200
206 206 206
200 200 200
198 198 198
204 204 204
191 191 191
183 183 183
183 183 183
196 196 196
183 183 183
197 197 197
183 183 183
205 205 205
200 200 200
195 195 195
198 198 198
203 203 203
195 195 195
112 112 112
91 91 91
27 27 27
27 27 27
0 0 0
0 0 0
2 2 2
3 3 3
3 3 3
4 4 4
89 89 89
80 80 80
84 84 84
97 97 97
123 123 123
134 134 134
91 91 91
90 90 90
189 189 189
176 176 176
175 175 175
111 111 111
137 137 137
136 136 136
147 147 147
155 155 155
151 151 151
147 147 147
151 151 151
119 119 119
113 113 113
158 158 158
191 191 191
200 200 200
208 208 208
206 206 206
209 209 209
181 181 181
191 191 191
189 189 189
187 187 187
185 185 185
200 200 200
185 185 185
194 194 194
202 202 202
203 203 203
193 193 193
205 205 205
188 188 188
112 112 112
92 92 92
27 27 27
27 27 27
0 0 0
0 0 0
2 2 2
3 3 3
3 3 3
63 63 63
89 89 89
82 82 82
88 88 88
110 110 110
153 153 153
115 115 115
88 88 88
99 99 99
199 199 199
162 162 162
138 138 138
106 106 106
139 139 139
158 158 158
149 149 149
155 155 155
128 128 128
141 141 141
127 127 127
149 149 149
119 119 119
131 131 131
165 165 165
202 202 202
206 206 206
214 214 214
214 214 214
184 184 184
190 190 190
193 193 193
179 179 179
194 194 194
174 174 174
195 195 195
189 189 189
187 187 187
187 187 187
199 199 199
205 205 205
191 191 191
101 101 101
92 92 92
27 27 27
27 27 27
0 0 0
0 0 0
2 2 2
3 3 3
39 39 39
85 85 85
84 84 84
88 88 88
90 90 90
132 132 132
167 167 167
140 140 140
95 95 95
150 150 150
181 181 181
176 176 176
120 120 120
109 109 109
123 123 123
144 144 144
151 151 151
151 151 151
144 144 144
147 147 147
100 100 100
149 149 149
139 139 139
113 113 113
137 137 137
188 188 188
206 206 206
223 223 223
203 203 203
187 187 187
188 188 188
191 191 191
186 186 186
196 196 196
183 183 183
201 201 201
200 200 200
186 186 186
187 187 187
189 189 189
201 201 201
194 194 194
90 90 90
91 91 91
27 27 27
27 27 27
0 0 0
0 0 0
2 2 2
3 3 3
73 73 73
87 87 87
82 82 82
87 87 87
92 92 92
141 141 141
148 148 148
136 136 136
118 118 118
176 176 176
189 189 189
185 185 185
114 114 114
111 111 111
113 113 113
136 136 136
149 149 149
140 140 140
145 145 145
132 132 132
121 121 121
130 130 130
161 161 161
156 156 156
123 123 123
180 180 180
211 211 211
226 226 226
197 197 197
179 179 179
191 191 191
183 183 183
186 186 186
195 195 195
192 192 192
190 190 190
205 205 205
190 190 190
186 186 186
192 192 192
199 199 199
198 198 198
88 88 88
91 91 91
26 26 26
28 28 28
0 0 0
0 0 0
2 2 2
71 71 71
83 83 83
81 81 81
79 79 79
83 83 83
84 84 84
104 104 104
161 161 161
174 174 174
162 162 162
180 180 180
160 160 160
191 191 191
137 137 137
158 158 158
146 146 146
143 143 143
142 142 142
139 139 139
142 142 142
165 165 165
134 134 134
237 237 237
175 175 175
222 222 222
170 170 170
158 158 158
210 210 210
202 202 202
175 175 175
186 186 186
188 188 188
190 190 190
199 199 199
183 183 183
204 204 204
190 190 190
160 160 160
184 184 184
189 189 189
195 195 195
203 203 203
194 194 194
73 73 73
92 92 92
25 25 25
28 28 28
0 0 0
0 0 0
2 2 2
88 88 88
86 86 86
88 88 88
86 86 86
86 86 86
84 84 84
92 92 92
137 137 137
143 143 143
164 164 164
164 164 164
165 165 165
172 172 172
148 148 148
145 145 145
125 125 125
129 129 129
160 160 160
151 151 151
172 172 172
171 171 171
173 173 173
212 212 212
222 222 222
219 219 219
183 183 183
167 167 167
185 185 185
173 173 173
202 202 202
196 196 196
185 185 185
178 178 178
181 181 181
204 204 204
201 201 201
172 172 172
186 186 186
188 188 188
185 185 185
201 201 201
196 196 196
165 165 165
58 58 58
91 91 91
24 24 24
28 28 28
0 0 0
0 0 0
3 3 3
65 65 65
74 74 74
82 82 82
85 85 85
83 83 83
84 84 84
90 90 90
108 108 108
101 101 101
150 150 150
177 177 177
175 175 175
158 158 158
148 148 148
170 170 170
135 135 135
114 114 114
134 134 134
178 178 178
172 172 172
187 187 187
189 189 189
188 188 188
192 192 192
211 211 211
188 188 188
188 188 188
197 197 197
200 200 200
213 213 213
203 203 203
190 190 190
199 199 199
195 195 195
211 211 211
206 206 206
182 182 182
197 197 197
204 204 204
200 200 200
193 193 193
202 202 202
102 102 102
54 54 54
89 89 89
25 25 25
28 28 28
0 0 0
0 0 0
2 2 2
3 3 3
42 42 42
80 80 80
90 90 90
85 85 85
86 86 86
104 104 104
117 117 117
134 134 134
154 154 154
179 179 179
154 154 154
162 162 162
102 102 102
114 114 114
118 118 118
115 115 115
154 154 154
145 145 145
142 142 142
171 171 171
187 187 187
208 208 208
219 219 219
211 211 211
194 194 194
207 207 207
214 214 214
209 209 209
211 211 211
182 182 182
212 212 212
213 213 213
203 203 203
201 201 201
198 198 198
205 205 205
200 200 200
195 195 195
200 200 200
207 207 207
197 197 197
82 82 82
45 45 45
89 89 89
25 25 25
29 29 29
0 0 0
0 0 0
2 2 2
2 2 2
2 2 2
15 15 15
90 90 90
88 88 88
116 116 116
124 124 124
133 133 133
124 124 124
126 126 126
141 141 141
125 125 125
93 93 93
120 120 120
121 121 121
131 131 131
110 110 110
93 93 93
106 106 106
128 128 128
180 180 180
198 198 198
208 208 208
213 213 213
205 205 205
132 132 132
180 180 180
200 200 200
187 187 187
192 192 192
206 206 206
215 215 215
202 202 202
198 198 198
212 212 212
201 201 201
205 205 205
202 202 202
196 196 196
206 206 206
209 209 209
131 131 131
54 54 54
34 34 34
90 90 90
25 25 25
29 29 29
0 0 0
0 0 0
2 2 2
2 2 2
2 2 2
3 3 3
77 77 77
88 88 88
107 107 107
119 119 119
162 162 162
130 130 130
135 135 135
141 141 141
136 136 136
112 112 112
153 153 153
132 132 132
119 119 119
95 95 95
87 87 87
93 93 93
130 130 130
142 142 142
190 190 190
201 201 201
212 212 212
200 200 200
169 169 169
154 154 154
141 141 141
191 191 191
202 202 202
213 213 213
210 210 210
213 213 213
208 208 208
211 211 211
212 212 212
207 207 207
207 207 207
207 207 207
214 214 214
195 195 195
87 87 87
52 52 52
34 34 34
90 90 90
26 26 26
29 29 29
0 0 0
0 0 0
2 2 2
2 2 2
2 2 2
3 3 3
83 83 83
88 88 88
163 163 163
187 187 187
146 146 146
153 153 153
127 127 127
104 104 104
107 107 107
107 107 107
169 169 169
136 136 136
128 128 128
105 105 105
95 95 95
173 173 173
144 144 144
159 159 159
191 191 191
199 199 199
211 211 211
190 190 190
169 169 169
138 138 138
137 137 137
209 209 209
208 208 208
216 216 216
204 204 204
205 205 205
206 206 206
209 209 209
205 205 205
204 204 204
204 204 204
211 211 211
208 208 208
98 98 98
50 50 50
52 52 52
33 33 33
89 89 89
26 26 26
29 29 29
0 0 0
0 0 0
2 2 2
2 2 2
2 2 2
3 3 3
88 88 88
174 174 174
218 218 218
168 168 168
139 139 139
145 145 145
137 137 137
186 186 186
207 207 207
196 196 196
108 108 108
130 130 130
148 148 148
146 146 146
152 152 152
162 162 162
168 168 168
184 184 184
135 135 135
162 162 162
195 195 195
177 177 177
198 198 198
167 167 167
173 173 173
195 195 195
213 213 213
211 211 211
211 211 211
200 200 200
204 204 204
201 201 201
200 200 200
199 199 199
203 203 203
216 216 216
111 111 111
52 52 52
52 52 52
49 49 49
33 33 33
88 88 88
26 26 26
29 29 29
0 0 0
0 0 0
3 3 3
3 3 3
4 4 4
11 11 11
90 90 90
234 234 234
247 247 247
228 228 228
189 189 189
195 195 195
197 197 197
234 234 234
217 217 217
235 235 235
102 102 102
136 136 136
164 164 164
119 119 119
137 137 137
165 165 165
150 150 150
121 121 121
127 127 127
139 139 139
159 159 159
190 190 190
178 178 178
171 171 171
202 202 202
206 206 206
197 197 197
197 197 197
194 194 194
192 192 192
200 200 200
197 197 197
199 199 199
188 188 188
161 161 161
166 166 166
77 77 77
50 50 50
49 49 49
47 47 47
31 31 31
88 88 88
27 27 27
28 28 28
0 0 0
0 0 0
5 5 5
7 7 7
12 12 12
15 15 15
185 185 185
215 215 215
226 226 226
215 215 215
201 201 201
194 194 194
210 210 210
240 240 240
246 246 246
174 174 174
136 136 136
127 127 127
167 167 167
137 137 137
145 145 145
145 145 145
184 184 184
183 183 183
138 138 138
138 138 138
177 177 177
183 183 183
171 171 171
206 206 206
196 196 196
192 192 192
176 176 176
181 181 181
190 190 190
200 200 200
194 194 194
164 164 164
105 105 105
93 93 93
93 93 93
85 85 85
42 42 42
47 47 47
46 46 46
48 48 48
30 30 30
87 87 87
28 28 28
29 29 29
0 0 0
0 0 0
14 14 14
23 23 23
29 29 29
41 41 41
230 230 230
158 158 158
231 231 231
208 208 208
196 196 196
225 225 225
252 252 252
228 228 228
230 230 230
238 238 238
160 160 160
139 139 139
172 172 172
148 148 148
126 126 126
146 146 146
218 218 218
171 171 171
153 153 153
154 154 154
168 168 168
178 178 178
110 110 110
159 159 159
155 155 155
179 179 179
190 190 190
183 183 183
178 178 178
124 124 124
99 99 99
92 92 92
93 93 93
91 91 91
86 86 86
31 31 31
44 44 44
48 48 48
42 42 42
46 46 46
30 30 30
88 88 88
31 31 31
27 27 27
0 0 0
0 0 0
2 2 2
2 2 2
2 2 2
3 3 3
61 61 61
42 42 42
65 65 65
95 95 95
104 104 104
94 94 94
119 119 119
104 104 104
131 131 131
108 108 108
122 122 122
193 193 193
193 193 193
163 163 163
137 137 137
181 181 181
164 164 164
184 184 184
157 157 157
147 147 147
157 157 157
209 209 209
121 121 121
112 112 112
160 160 160
129 129 129
91 91 91
94 94 94
89 89 89
88 88 88
88 88 88
89 89 89
90 90 90
85 85 85
39 39 39
29 29 29
43 43 43
48 48 48
41 41 41
50 50 50
32 32 32
88 88 88
31 31 31
29 29 29
0 0 0
0 0 0
5 5 5
8 8 8
7 7 7
10 10 10
18 18 18
94 94 94
130 130 130
156 156 156
185 185 185
177 177 177
217 217 217
190 190 190
224 224 224
254 254 254
243 243 243
209 209 209
185 185 185
143 143 143
124 124 124
183 183 183
119 119 119
156 156 156
143 143 143
133 133 133
174 174 174
171 171 171
176 176 176
152 152 152
136 136 136
102 102 102
89 89 89
91 91 91
91 91 91
90 90 90
92 92 92
92 92 92
88 88 88
65 65 65
18 18 18
28 28 28
42 42 42
49 49 49
46 46 46
50 50 50
34 34 34
88 88 88
32 32 32
29 29 29
0 0 0
0 0 0
6 6 6
7 7 7
13 13 13
20 20 20
51 51 51
91 91 91
237 237 237
219 219 219
199 199 199
221 221 221
199 199 199
190 190 190
193 193 193
236 236 236
252 252 252
219 219 219
150 150 150
122 122 122
125 125 125
151 151 151
103 103 103
174 174 174
160 160 160
160 160 160
158 158 158
96 96 96
128 128 128
169 169 169
129 129 129
93 93 93
92 92 92
90 90 90
90 90 90
90 90 90
91 91 91
90 90 90
87 87 87
31 31 31
22 22 22
33 33 33
42 42 42
48 48 48
46 46 46
50 50 50
41 41 41
89 89 89
30 30 30
27 27 27
0 0 0
0 0 0
2 2 2
2 2 2
3 3 3
4 4 4
35 35 35
83 83 83
172 172 172
218 218 218
255 255 255
199 199 199
112 112 112
120 120 120
236 236 236
219 219 219
202 202 202
198 198 198
165 165 165
158 158 158
163 163 163
140 140 140
111 111 111
143 143 143
125 125 125
139 139 139
164 164 164
160 160 160
93 93 93
136 136 136
138 138 138
109 109 109
90 90 90
89 89 89
88 88 88
89 89 89
89 89 89
87 87 87
86 86 86
25 25 25
24 24 24
31 31 31
43 43 43
47 47 47
43 43 43
50 50 50
33 33 33
86 86 86
33 33 33
27 27 27
0 0 0
0 0 0
2 2 2
2 2 2
2 2 2
2 2 2
3 3 3
86 86 86
94 94 94
210 210 210
208 208 208
200 200 200
135 135 135
137 137 137
175 175 175
215 215 215
177 177 177
203 203 203
166 166 166
150 150 150
168 168 168
139 139 139
97 97 97
126 126 126
133 133 133
142 142 142
163 163 163
162 162 162
158 158 158
153 153 153
111 111 111
111 111 111
106 106 106
89 89 89
89 89 89
89 89 89
90 90 90
86 86 86
68 68 68
24 24 24
21 21 21
30 30 30
44 44 44
47 47 47
44 44 44
47 47 47
32 32 32
87 87 87
37 37 37
27 27 27
0 0 0
0 0 0
2 2 2
2 2 2
2 2 2
2 2 2
2 2 2
83 83 83
86 86 86
158 158 158
186 186 186
164 164 164
176 176 176
172 172 172
184 184 184
177 177 177
154 154 154
202 202 202
180 180 180
171 171 171
131 131 131
112 112 112
88 88 88
111 111 111
147 147 147
131 131 131
136 136 136
125 125 125
137 137 137
119 119 119
118 118 118
119 119 119
104 104 104
90 90 90
89 89 89
89 89 89
91 91 91
87 87 87
58 58 58
25 25 25
20 20 20
23 23 23
46 46 46
46 46 46
41 41 41
44 44 44
32 32 32
90 90 90
42 42 42
26 26 26
0 0 0
0 0 0
2 2 2
2 2 2
2 2 2
3 3 3
2 2 2
85 85 85
86 86 86
153 153 153
167 167 167
202 202 202
208 208 208
171 171 171
167 167 167
176 176 176
134 134 134
182 182 182
154 154 154
99 99 99
106 106 106
88 88 88
89 89 89
112 112 112
139 139 139
128 128 128
119 119 119
137 137 137
122 122 122
144 144 144
111 111 111
90 90 90
89 89 89
90 90 90
88 88 88
89 89 89
91 91 91
86 86 86
45 45 45
28 28 28
23 23 23
24 24 24
46 46 46
45 45 45
41 41 41
46 46 46
33 33 33
91 91 91
43 43 43
26 26 26
0 0 0
0 0 0
2 2 2
2 2 2
2 2 2
3 3 3
2 2 2
85 85 85
85 85 85
175 175 175
169 169 169
205 205 205
194 194 194
189 189 189
137 137 137
206 206 206
202 202 202
99 99 99
88 88 88
88 88 88
89 89 89
89 89 89
88 88 88
114 114 114
138 138 138
143 143 143
146 146 146
143 143 143
129 129 129
156 156 156
92 92 92
90 90 90
89 89 89
89 89 89
89 89 89
89 89 89
91 91 91
87 87 87
30 30 30
28 28 28
23 23 23
25 25 25
47 47 47
45 45 45
43 43 43
47 47 47
32 32 32
90 90 90
45 45 45
26 26 26
0 0 0
0 0 0
2 2 2
2 2 2
2 2 2
3 3 3
2 2 2
85 85 85
85 85 85
198 198 198
175 175 175
208 208 208
222 222 222
192 192 192
212 212 212
190 190 190
88 88 88
88 88 88
87 87 87
88 88 88
90 90 90
88 88 88
89 89 89
117 117 117
102 102 102
133 133 133
160 160 160
157 157 157
135 135 135
138 138 138
111 111 111
89 89 89
89 89 89
89 89 89
89 89 89
89 89 89
91 91 91
91 91 91
22 22 22
29 29 29
22 22 22
20 20 20
48 48 48
46 46 46
43 43 43
48 48 48
31 31 31
90 90 90
46 46 46
26 26 26
0 0 0
0 0 0
2 2 2
2 2 2
2 2 2
2 2 2
3 3 3
80 80 80
86 86 86
196 196 196
222 222 222
224 224 224
212 212 212
212 212 212
144 144 144
88 88 88
88 88 88
89 89 89
88 88 88
89 89 89
88 88 88
88 88 88
90 90 90
107 107 107
108 108 108
152 152 152
127 127 127
141 141 141
136 136 136
135 135 135
118 118 118
97 97 97
90 90 90
89 89 89
89 89 89
89 89 89
92 92 92
90 90 90
28 28 28
22 22 22
20 20 20
21 21 21
43 43 43
46 46 46
42 42 42
43 43 43
31 31 31
90 90 90
46 46 46
26 26 26
0 0 0
0 0 0
0 0 0
0 0 0
0 0 0
0 0 0
0 0 0
0 0 0
0 0 0
0 0 0
0 0 0
0 0 0
0 0 0
0 0 0
0 0 0
0 0 0
0 0 0
0 0 0
0 0 0
0 0 0
0 0 0
0 0 0
0 0 0
0 0 0
0 0 0
0 0 0
0 0 0
0 0 0
0 0 0
0 0 0
0 0 0
0 0 0
0 0 0
0 0 0
0 0 0
0 0 0
0 0 0
0 0 0
0 0 0
0 0 0
0 0 0
0 0 0
0 0 0
0 0 0
0 0 0
0 0 0
0 0 0
0 0 0
0 0 0
0 0 0
0 0 0
