P3 
50 50 
255
0 0 0
0 0 0
0 0 0
0 0 0
0 0 0
0 0 0
0 0 0
0 0 0
0 0 0
0 0 0
0 0 0
0 0 0
0 0 0
0 0 0
0 0 0
0 0 0
0 0 0
0 0 0
0 0 0
0 0 0
0 0 0
0 0 0
0 0 0
0 0 0
0 0 0
0 0 0
0 0 0
0 0 0
0 0 0
0 0 0
0 0 0
0 0 0
0 0 0
0 0 0
0 0 0
0 0 0
0 0 0
0 0 0
0 0 0
0 0 0
0 0 0
0 0 0
0 0 0
0 0 0
0 0 0
0 0 0
0 0 0
0 0 0
0 0 0
0 0 0
2 2 2
2 2 2
2 2 2
3 3 3
9 9 9
6 6 6
7 7 7
8 8 8
10 10 10
10 10 10
9 9 9
10 10 10
23 23 23
25 25 25
28 28 28
30 30 30
16 16 16
18 18 18
31 31 31
44 44 44
66 66 66
73 73 73
73 73 73
55 55 55
27 27 27
34 34 34
25 25 25
26 26 26
18 18 18
15 15 15
17 17 17
24 24 24
17 17 17
15 15 15
19 19 19
23 23 23
23 23 23
25 25 25
36 36 36
36 36 36
61 61 61
67 67 67
37 37 37
21 21 21
27 27 27
36 36 36
30 30 30
27 27 27
23 23 23
9 9 9
2 2 2
2 2 2
2 2 2
3 3 3
11 11 11
6 6 6
8 8 8
10 10 10
13 13 13
10 10 10
11 11 11
18 18 18
41 41 41
28 28 28
18 18 18
15 15 15
53 53 53
85 85 85
104 104 104
137 137 137
172 172 172
191 191 191
185 185 185
151 151 151
114 114 114
87 87 87
52 52 52
23 23 23
19 19 19
23 23 23
29 29 29
41 41 41
28 28 28
18 18 18
14 14 14
16 16 16
19 19 19
24 24 24
35 35 35
36 36 36
61 61 61
66 66 66
37 37 37
21 21 21
23 23 23
32 32 32
35 35 35
22 22 22
20 20 20
8 8 8
2 2 2
2 2 2
3 3 3
4 4 4
11 11 11
6 6 6
8 8 8
9 9 9
12 12 12
11 11 11
10 10 10
18 18 18
32 32 32
14 14 14
33 33 33
80 80 80
113 113 113
168 168 168
197 197 197
192 192 192
183 183 183
182 182 182
191 191 191
196 196 196
196 196 196
190 190 190
146 146 146
98 98 98
62 62 62
31 31 31
36 36 36
46 46 46
35 35 35
28 28 28
22 22 22
17 17 17
16 16 16
25 25 25
36 36 36
36 36 36
61 61 61
67 67 67
37 37 37
25 25 25
19 19 19
29 29 29
40 40 40
21 21 21
18 18 18
9 9 9
2 2 2
2 2 2
4 4 4
4 4 4
10 10 10
9 9 9
8 8 8
12 12 12
10 10 10
9 9 9
21 21 21
12 12 12
17 17 17
48 48 48
95 95 95
159 159 159
202 202 202
191 191 191
181 181 181
179 179 179
175 175 175
187 187 187
178 178 178
188 188 188
185 185 185
193 193 193
202 202 202
187 187 187
145 145 145
95 95 95
53 53 53
37 37 37
29 29 29
32 32 32
36 36 36
22 22 22
18 18 18
25 25 25
36 36 36
36 36 36
62 62 62
67 67 67
39 39 39
39 39 39
20 20 20
24 24 24
45 45 45
24 24 24
24 24 24
12 12 12
2 2 2
2 2 2
4 4 4
4 4 4
9 9 9
9 9 9
9 9 9
13 13 13
10 10 10
11 11 11
13 13 13
14 14 14
57 57 57
105 105 105
175 175 175
195 195 195
185 185 185
176 176 176
171 171 171
178 178 178
178 178 178
187 187 187
184 184 184
188 188 188
181 181 181
186 186 186
189 189 189
192 192 192
183 183 183
178 178 178
115 115 115
56 56 56
24 24 24
30 30 30
43 43 43
31 31 31
21 21 21
25 25 25
36 36 36
36 36 36
62 62 62
67 67 67
40 40 40
49 49 49
29 29 29
20 20 20
47 47 47
27 27 27
25 25 25
16 16 16
2 2 2
3 3 3
4 4 4
5 5 5
11 11 11
10 10 10
11 11 11
11 11 11
11 11 11
14 14 14
15 15 15
53 53 53
115 115 115
184 184 184
186 186 186
178 178 178
182 182 182
179 179 179
173 173 173
180 180 180
185 185 185
184 184 184
185 185 185
186 186 186
187 187 187
180 180 180
185 185 185
187 187 187
179 179 179
173 173 173
175 175 175
122 122 122
64 64 64
25 25 25
40 40 40
36 36 36
26 26 26
24 24 24
36 36 36
37 37 37
63 63 63
67 67 67
38 38 38
50 50 50
36 36 36
20 20 20
48 48 48
28 28 28
24 24 24
13 13 13
2 2 2
3 3 3
5 5 5
6 6 6
11 11 11
9 9 9
13 13 13
12 12 12
12 12 12
18 18 18
47 47 47
116 116 116
191 191 191
184 184 184
177 177 177
175 175 175
179 179 179
167 167 167
175 175 175
185 185 185
183 183 183
185 185 185
183 183 183
182 182 182
181 181 181
177 177 177
177 177 177
176 176 176
189 189 189
174 174 174
173 173 173
170 170 170
124 124 124
50 50 50
25 25 25
27 27 27
29 29 29
26 26 26
36 36 36
40 40 40
63 63 63
68 68 68
38 38 38
45 45 45
38 38 38
24 24 24
44 44 44
22 22 22
27 27 27
10 10 10
2 2 2
3 3 3
4 4 4
6 6 6
12 12 12
10 10 10
11 11 11
11 11 11
10 10 10
26 26 26
95 95 95
182 182 182
180 180 180
178 178 178
175 175 175
170 170 170
172 172 172
180 180 180
182 182 182
180 180 180
167 167 167
178 178 178
175 175 175
174 174 174
182 182 182
179 179 179
175 175 175
176 176 176
170 170 170
181 181 181
174 174 174
173 173 173
164 164 164
106 106 106
40 40 40
21 21 21
29 29 29
28 28 28
37 37 37
42 42 42
63 63 63
67 67 67
37 37 37
36 36 36
36 36 36
28 28 28
38 38 38
21 21 21
30 30 30
11 11 11
2 2 2
3 3 3
4 4 4
5 5 5
12 12 12
12 12 12
13 13 13
14 14 14
12 12 12
67 67 67
157 157 157
177 177 177
171 171 171
168 168 168
171 171 171
165 165 165
164 164 164
163 163 163
160 160 160
162 162 162
166 166 166
172 172 172
170 170 170
175 175 175
169 169 169
172 172 172
177 177 177
176 176 176
181 181 181
186 186 186
168 168 168
178 178 178
175 175 175
159 159 159
84 84 84
27 27 27
25 25 25
28 28 28
36 36 36
40 40 40
63 63 63
68 68 68
37 37 37
32 32 32
32 32 32
35 35 35
29 29 29
23 23 23
28 28 28
12 12 12
2 2 2
3 3 3
4 4 4
5 5 5
12 12 12
10 10 10
13 13 13
16 16 16
24 24 24
114 114 114
191 191 191
175 175 175
172 172 172
165 165 165
170 170 170
174 174 174
177 177 177
174 174 174
172 172 172
173 173 173
180 180 180
171 171 171
157 157 157
163 163 163
169 169 169
175 175 175
166 166 166
171 171 171
181 181 181
165 165 165
189 189 189
163 163 163
172 172 172
174 174 174
145 145 145
55 55 55
26 26 26
32 32 32
36 36 36
36 36 36
63 63 63
67 67 67
37 37 37
28 28 28
26 26 26
38 38 38
36 36 36
22 22 22
27 27 27
14 14 14
2 2 2
4 4 4
10 10 10
10 10 10
12 12 12
10 10 10
12 12 12
14 14 14
46 46 46
159 159 159
176 176 176
174 174 174
157 157 157
162 162 162
176 176 176
160 160 160
148 148 148
158 158 158
157 157 157
158 158 158
172 172 172
163 163 163
163 163 163
159 159 159
164 164 164
172 172 172
174 174 174
177 177 177
171 171 171
174 174 174
167 167 167
170 170 170
179 179 179
179 179 179
180 180 180
99 99 99
28 28 28
36 36 36
36 36 36
37 37 37
64 64 64
68 68 68
37 37 37
36 36 36
24 24 24
39 39 39
41 41 41
24 24 24
26 26 26
14 14 14
2 2 2
8 8 8
8 8 8
8 8 8
12 12 12
11 11 11
13 13 13
14 14 14
80 80 80
170 170 170
168 168 168
160 160 160
165 165 165
155 155 155
174 174 174
172 172 172
174 174 174
174 174 174
174 174 174
163 163 163
172 172 172
182 182 182
170 170 170
173 173 173
170 170 170
162 162 162
169 169 169
173 173 173
163 163 163
173 173 173
177 177 177
163 163 163
170 170 170
177 177 177
177 177 177
149 149 149
46 46 46
38 38 38
36 36 36
37 37 37
64 64 64
67 67 67
37 37 37
48 48 48
28 28 28
38 38 38
44 44 44
22 22 22
27 27 27
18 18 18
2 2 2
7 7 7
6 6 6
10 10 10
13 13 13
13 13 13
13 13 13
24 24 24
115 115 115
183 183 183
171 171 171
171 171 171
151 151 151
159 159 159
163 163 163
152 152 152
154 154 154
162 162 162
163 163 163
170 170 170
170 170 170
162 162 162
154 154 154
151 151 151
156 156 156
160 160 160
173 173 173
178 178 178
165 165 165
167 167 167
170 170 170
171 171 171
168 168 168
172 172 172
189 189 189
192 192 192
75 75 75
30 30 30
36 36 36
37 37 37
64 64 64
66 66 66
36 36 36
49 49 49
34 34 34
39 39 39
45 45 45
22 22 22
30 30 30
22 22 22
2 2 2
6 6 6
9 9 9
9 9 9
13 13 13
14 14 14
15 15 15
37 37 37
147 147 147
177 177 177
154 154 154
170 170 170
155 155 155
163 163 163
178 178 178
159 159 159
163 163 163
165 165 165
170 170 170
165 165 165
167 167 167
155 155 155
166 166 166
178 178 178
186 186 186
179 179 179
173 173 173
178 178 178
179 179 179
172 172 172
164 164 164
167 167 167
170 170 170
169 169 169
177 177 177
175 175 175
110 110 110
32 32 32
37 37 37
37 37 37
64 64 64
69 69 69
37 37 37
42 42 42
37 37 37
38 38 38
45 45 45
25 25 25
32 32 32
24 24 24
2 2 2
6 6 6
12 12 12
9 9 9
13 13 13
15 15 15
16 16 16
48 48 48
150 150 150
184 184 184
167 167 167
164 164 164
161 161 161
165 165 165
160 160 160
165 165 165
159 159 159
166 166 166
174 174 174
152 152 152
168 168 168
179 179 179
176 176 176
183 183 183
184 184 184
178 178 178
154 154 154
162 162 162
173 173 173
171 171 171
176 176 176
170 170 170
175 175 175
176 176 176
169 169 169
169 169 169
144 144 144
37 37 37
36 36 36
38 38 38
65 65 65
69 69 69
38 38 38
40 40 40
39 39 39
38 38 38
46 46 46
26 26 26
31 31 31
22 22 22
2 2 2
7 7 7
13 13 13
8 8 8
11 11 11
15 15 15
16 16 16
60 60 60
150 150 150
172 172 172
170 170 170
149 149 149
166 166 166
158 158 158
155 155 155
168 168 168
166 166 166
161 161 161
168 168 168
157 157 157
176 176 176
169 169 169
166 166 166
150 150 150
178 178 178
169 169 169
137 137 137
163 163 163
164 164 164
152 152 152
173 173 173
174 174 174
168 168 168
171 171 171
169 169 169
170 170 170
153 153 153
41 41 41
37 37 37
38 38 38
64 64 64
68 68 68
38 38 38
41 41 41
40 40 40
39 39 39
46 46 46
28 28 28
26 26 26
19 19 19
3 3 3
9 9 9
12 12 12
8 8 8
10 10 10
13 13 13
20 20 20
80 80 80
157 157 157
173 173 173
177 177 177
151 151 151
167 167 167
169 169 169
160 160 160
172 172 172
168 168 168
175 175 175
160 160 160
163 163 163
167 167 167
160 160 160
160 160 160
198 198 198
165 165 165
165 165 165
148 148 148
147 147 147
164 164 164
141 141 141
164 164 164
183 183 183
171 171 171
182 182 182
169 169 169
172 172 172
183 183 183
52 52 52
37 37 37
37 37 37
64 64 64
69 69 69
38 38 38
44 44 44
39 39 39
39 39 39
46 46 46
27 27 27
24 24 24
17 17 17
4 4 4
9 9 9
9 9 9
9 9 9
12 12 12
14 14 14
29 29 29
90 90 90
171 171 171
160 160 160
180 180 180
156 156 156
172 172 172
169 169 169
161 161 161
171 171 171
164 164 164
176 176 176
162 162 162
171 171 171
162 162 162
152 152 152
165 165 165
148 148 148
186 186 186
169 169 169
161 161 161
159 159 159
162 162 162
149 149 149
155 155 155
176 176 176
183 183 183
183 183 183
172 172 172
173 173 173
188 188 188
55 55 55
37 37 37
38 38 38
65 65 65
70 70 70
38 38 38
47 47 47
37 37 37
39 39 39
44 44 44
29 29 29
26 26 26
18 18 18
4 4 4
9 9 9
9 9 9
12 12 12
13 13 13
16 16 16
35 35 35
106 106 106
180 180 180
164 164 164
178 178 178
163 163 163
170 170 170
168 168 168
159 159 159
166 166 166
167 167 167
174 174 174
156 156 156
173 173 173
153 153 153
152 152 152
165 165 165
166 166 166
179 179 179
190 190 190
174 174 174
179 179 179
159 159 159
166 166 166
156 156 156
168 168 168
178 178 178
187 187 187
185 185 185
184 184 184
189 189 189
54 54 54
36 36 36
37 37 37
65 65 65
70 70 70
37 37 37
47 47 47
36 36 36
40 40 40
42 42 42
26 26 26
26 26 26
18 18 18
3 3 3
8 8 8
11 11 11
8 8 8
11 11 11
18 18 18
44 44 44
124 124 124
184 184 184
156 156 156
176 176 176
165 165 165
169 169 169
170 170 170
160 160 160
169 169 169
171 171 171
175 175 175
169 169 169
171 171 171
134 134 134
149 149 149
169 169 169
180 180 180
187 187 187
184 184 184
198 198 198
181 181 181
180 180 180
162 162 162
152 152 152
175 175 175
174 174 174
193 193 193
190 190 190
189 189 189
190 190 190
52 52 52
36 36 36
37 37 37
65 65 65
70 70 70
38 38 38
49 49 49
34 34 34
40 40 40
41 41 41
26 26 26
32 32 32
14 14 14
3 3 3
7 7 7
9 9 9
6 6 6
13 13 13
17 17 17
46 46 46
129 129 129
186 186 186
164 164 164
179 179 179
166 166 166
170 170 170
172 172 172
161 161 161
170 170 170
172 172 172
177 177 177
167 167 167
177 177 177
141 141 141
146 146 146
170 170 170
179 179 179
177 177 177
161 161 161
169 169 169
170 170 170
192 192 192
169 169 169
160 160 160
180 180 180
175 175 175
193 193 193
195 195 195
181 181 181
183 183 183
50 50 50
36 36 36
37 37 37
66 66 66
70 70 70
39 39 39
51 51 51
32 32 32
39 39 39
39 39 39
25 25 25
33 33 33
13 13 13
3 3 3
7 7 7
4 4 4
5 5 5
13 13 13
15 15 15
55 55 55
140 140 140
185 185 185
161 161 161
173 173 173
165 165 165
173 173 173
173 173 173
156 156 156
168 168 168
171 171 171
180 180 180
165 165 165
179 179 179
141 141 141
148 148 148
173 173 173
161 161 161
157 157 157
154 154 154
156 156 156
161 161 161
190 190 190
167 167 167
160 160 160
185 185 185
169 169 169
196 196 196
190 190 190
183 183 183
158 158 158
43 43 43
35 35 35
37 37 37
65 65 65
71 71 71
39 39 39
49 49 49
34 34 34
40 40 40
37 37 37
29 29 29
29 29 29
12 12 12
2 2 2
4 4 4
4 4 4
6 6 6
20 20 20
20 20 20
61 61 61
141 141 141
185 185 185
169 169 169
160 160 160
167 167 167
178 178 178
180 180 180
163 163 163
175 175 175
169 169 169
177 177 177
166 166 166
176 176 176
142 142 142
157 157 157
177 177 177
144 144 144
139 139 139
152 152 152
160 160 160
154 154 154
187 187 187
170 170 170
157 157 157
189 189 189
167 167 167
190 190 190
183 183 183
187 187 187
152 152 152
40 40 40
35 35 35
37 37 37
64 64 64
70 70 70
39 39 39
47 47 47
34 34 34
43 43 43
34 34 34
29 29 29
26 26 26
9 9 9
2 2 2
3 3 3
4 4 4
6 6 6
20 20 20
19 19 19
64 64 64
135 135 135
192 192 192
171 171 171
163 163 163
171 171 171
178 178 178
183 183 183
168 168 168
178 178 178
168 168 168
174 174 174
164 164 164
174 174 174
146 146 146
158 158 158
177 177 177
137 137 137
130 130 130
170 170 170
176 176 176
146 146 146
174 174 174
171 171 171
161 161 161
195 195 195
168 168 168
176 176 176
181 181 181
194 194 194
140 140 140
33 33 33
35 35 35
37 37 37
65 65 65
70 70 70
39 39 39
42 42 42
34 34 34
42 42 42
32 32 32
28 28 28
26 26 26
10 10 10
2 2 2
3 3 3
4 4 4
9 9 9
17 17 17
22 22 22
65 65 65
121 121 121
196 196 196
177 177 177
157 157 157
169 169 169
164 164 164
177 177 177
168 168 168
169 169 169
165 165 165
175 175 175
176 176 176
175 175 175
157 157 157
167 167 167
173 173 173
136 136 136
127 127 127
154 154 154
188 188 188
165 165 165
171 171 171
170 170 170
159 159 159
191 191 191
166 166 166
174 174 174
174 174 174
201 201 201
117 117 117
31 31 31
35 35 35
36 36 36
65 65 65
71 71 71
39 39 39
35 35 35
30 30 30
39 39 39
31 31 31
29 29 29
30 30 30
10 10 10
2 2 2
3 3 3
4 4 4
7 7 7
16 16 16
35 35 35
81 81 81
111 111 111
189 189 189
182 182 182
141 141 141
173 173 173
166 166 166
164 164 164
174 174 174
159 159 159
156 156 156
171 171 171
179 179 179
174 174 174
150 150 150
171 171 171
174 174 174
135 135 135
136 136 136
155 155 155
163 163 163
168 168 168
178 178 178
175 175 175
167 167 167
180 180 180
168 168 168
163 163 163
181 181 181
211 211 211
106 106 106
33 33 33
35 35 35
36 36 36
64 64 64
71 71 71
40 40 40
29 29 29
29 29 29
35 35 35
32 32 32
30 30 30
25 25 25
8 8 8
2 2 2
3 3 3
4 4 4
7 7 7
14 14 14
37 37 37
78 78 78
113 113 113
185 185 185
180 180 180
137 137 137
179 179 179
166 166 166
167 167 167
178 178 178
155 155 155
161 161 161
163 163 163
178 178 178
176 176 176
149 149 149
173 173 173
177 177 177
136 136 136
143 143 143
157 157 157
165 165 165
172 172 172
178 178 178
177 177 177
169 169 169
178 178 178
174 174 174
158 158 158
182 182 182
213 213 213
98 98 98
37 37 37
35 35 35
36 36 36
64 64 64
70 70 70
40 40 40
26 26 26
28 28 28
32 32 32
35 35 35
29 29 29
23 23 23
8 8 8
2 2 2
3 3 3
4 4 4
9 9 9
14 14 14
39 39 39
77 77 77
141 141 141
173 173 173
157 157 157
148 148 148
172 172 172
160 160 160
162 162 162
157 157 157
160 160 160
170 170 170
162 162 162
187 187 187
173 173 173
166 166 166
161 161 161
183 183 183
163 163 163
175 175 175
181 181 181
181 181 181
184 184 184
196 196 196
174 174 174
172 172 172
180 180 180
182 182 182
162 162 162
174 174 174
199 199 199
76 76 76
43 43 43
36 36 36
36 36 36
64 64 64
72 72 72
39 39 39
23 23 23
32 32 32
29 29 29
44 44 44
28 28 28
26 26 26
11 11 11
2 2 2
2 2 2
4 4 4
9 9 9
15 15 15
41 41 41
87 87 87
140 140 140
161 161 161
174 174 174
175 175 175
150 150 150
180 180 180
199 199 199
183 183 183
174 174 174
152 152 152
164 164 164
174 174 174
174 174 174
186 186 186
163 163 163
169 169 169
166 166 166
167 167 167
194 194 194
219 219 219
185 185 185
199 199 199
158 158 158
172 172 172
190 190 190
158 158 158
172 172 172
179 179 179
160 160 160
79 79 79
34 34 34
35 35 35
36 36 36
63 63 63
71 71 71
40 40 40
23 23 23
30 30 30
29 29 29
48 48 48
24 24 24
24 24 24
11 11 11
2 2 2
3 3 3
4 4 4
7 7 7
11 11 11
35 35 35
85 85 85
137 137 137
153 153 153
194 194 194
185 185 185
144 144 144
181 181 181
190 190 190
182 182 182
173 173 173
171 171 171
158 158 158
181 181 181
170 170 170
157 157 157
188 188 188
178 178 178
148 148 148
155 155 155
155 155 155
174 174 174
168 168 168
181 181 181
157 157 157
164 164 164
184 184 184
169 169 169
188 188 188
194 194 194
159 159 159
66 66 66
35 35 35
34 34 34
34 34 34
62 62 62
73 73 73
41 41 41
23 23 23
29 29 29
27 27 27
48 48 48
23 23 23
26 26 26
12 12 12
2 2 2
3 3 3
4 4 4
6 6 6
11 11 11
29 29 29
81 81 81
126 126 126
154 154 154
211 211 211
193 193 193
180 180 180
170 170 170
191 191 191
197 197 197
189 189 189
164 164 164
163 163 163
175 175 175
179 179 179
175 175 175
165 165 165
180 180 180
178 178 178
184 184 184
179 179 179
175 175 175
183 183 183
187 187 187
173 173 173
191 191 191
186 186 186
182 182 182
186 186 186
200 200 200
133 133 133
62 62 62
33 33 33
35 35 35
33 33 33
62 62 62
73 73 73
42 42 42
23 23 23
29 29 29
24 24 24
48 48 48
21 21 21
30 30 30
11 11 11
2 2 2
2 2 2
3 3 3
6 6 6
13 13 13
18 18 18
81 81 81
91 91 91
125 125 125
187 187 187
162 162 162
204 204 204
187 187 187
183 183 183
188 188 188
189 189 189
178 178 178
165 165 165
183 183 183
174 174 174
164 164 164
191 191 191
182 182 182
161 161 161
170 170 170
170 170 170
172 172 172
175 175 175
184 184 184
193 193 193
193 193 193
183 183 183
193 193 193
204 204 204
203 203 203
90 90 90
59 59 59
47 47 47
35 35 35
33 33 33
62 62 62
73 73 73
43 43 43
25 25 25
28 28 28
23 23 23
48 48 48
20 20 20
30 30 30
13 13 13
3 3 3
3 3 3
3 3 3
4 4 4
11 11 11
18 18 18
83 83 83
85 85 85
100 100 100
159 159 159
150 150 150
194 194 194
196 196 196
182 182 182
197 197 197
186 186 186
181 181 181
169 169 169
193 193 193
168 168 168
177 177 177
186 186 186
184 184 184
184 184 184
188 188 188
182 182 182
180 180 180
184 184 184
195 195 195
203 203 203
191 191 191
194 194 194
195 195 195
204 204 204
173 173 173
79 79 79
74 74 74
54 54 54
36 36 36
32 32 32
61 61 61
73 73 73
43 43 43
22 22 22
26 26 26
24 24 24
45 45 45
21 21 21
23 23 23
14 14 14
3 3 3
6 6 6
3 3 3
4 4 4
12 12 12
17 17 17
85 85 85
84 84 84
88 88 88
133 133 133
158 158 158
187 187 187
201 201 201
171 171 171
199 199 199
182 182 182
190 190 190
183 183 183
189 189 189
188 188 188
193 193 193
195 195 195
197 197 197
196 196 196
199 199 199
185 185 185
192 192 192
199 199 199
205 205 205
200 200 200
200 200 200
191 191 191
206 206 206
208 208 208
123 123 123
78 78 78
75 75 75
49 49 49
37 37 37
32 32 32
60 60 60
73 73 73
44 44 44
26 26 26
27 27 27
25 25 25
43 43 43
21 21 21
22 22 22
15 15 15
3 3 3
7 7 7
4 4 4
3 3 3
10 10 10
19 19 19
75 75 75
86 86 86
88 88 88
133 133 133
168 168 168
165 165 165
186 186 186
185 185 185
190 190 190
180 180 180
193 193 193
182 182 182
186 186 186
184 184 184
194 194 194
201 201 201
201 201 201
207 207 207
212 212 212
204 204 204
205 205 205
200 200 200
191 191 191
190 190 190
182 182 182
186 186 186
209 209 209
166 166 166
81 81 81
54 54 54
68 68 68
45 45 45
38 38 38
31 31 31
59 59 59
72 72 72
44 44 44
27 27 27
29 29 29
19 19 19
42 42 42
21 21 21
22 22 22
14 14 14
2 2 2
8 8 8
9 9 9
4 4 4
8 8 8
22 22 22
82 82 82
90 90 90
88 88 88
113 113 113
173 173 173
190 190 190
179 179 179
213 213 213
211 211 211
175 175 175
226 226 226
184 184 184
184 184 184
189 189 189
192 192 192
194 194 194
199 199 199
194 194 194
192 192 192
186 186 186
184 184 184
195 195 195
173 173 173
176 176 176
191 191 191
184 184 184
178 178 178
135 135 135
68 68 68
47 47 47
78 78 78
44 44 44
38 38 38
30 30 30
58 58 58
73 73 73
45 45 45
33 33 33
29 29 29
23 23 23
40 40 40
22 22 22
19 19 19
12 12 12
3 3 3
10 10 10
10 10 10
8 8 8
10 10 10
17 17 17
76 76 76
86 86 86
95 95 95
100 100 100
167 167 167
187 187 187
173 173 173
232 232 232
175 175 175
189 189 189
201 201 201
180 180 180
164 164 164
175 175 175
182 182 182
180 180 180
202 202 202
178 178 178
177 177 177
170 170 170
160 160 160
169 169 169
155 155 155
175 175 175
171 171 171
166 166 166
145 145 145
86 86 86
81 81 81
75 75 75
70 70 70
44 44 44
37 37 37
31 31 31
57 57 57
72 72 72
46 46 46
30 30 30
30 30 30
22 22 22
39 39 39
22 22 22
22 22 22
15 15 15
3 3 3
12 12 12
15 15 15
18 18 18
21 21 21
19 19 19
59 59 59
83 83 83
95 95 95
108 108 108
145 145 145
172 172 172
181 181 181
199 199 199
237 237 237
189 189 189
211 211 211
178 178 178
150 150 150
193 193 193
191 191 191
177 177 177
176 176 176
223 223 223
166 166 166
168 168 168
152 152 152
136 136 136
135 135 135
123 123 123
98 98 98
96 96 96
85 85 85
61 61 61
78 78 78
74 74 74
50 50 50
37 37 37
34 34 34
28 28 28
54 54 54
71 71 71
46 46 46
27 27 27
29 29 29
22 22 22
42 42 42
28 28 28
21 21 21
15 15 15
2 2 2
5 5 5
11 11 11
9 9 9
7 7 7
13 13 13
27 27 27
70 70 70
85 85 85
92 92 92
153 153 153
163 163 163
146 146 146
102 102 102
102 102 102
121 121 121
129 129 129
154 154 154
161 161 161
163 163 163
144 144 144
131 131 131
142 142 142
131 131 131
155 155 155
184 184 184
157 157 157
120 120 120
136 136 136
111 111 111
87 87 87
88 88 88
87 87 87
55 55 55
76 76 76
71 71 71
29 29 29
41 41 41
37 37 37
30 30 30
54 54 54
70 70 70
46 46 46
27 27 27
29 29 29
23 23 23
42 42 42
23 23 23
18 18 18
13 13 13
10 10 10
12 12 12
20 20 20
30 30 30
19 19 19
32 32 32
27 27 27
63 63 63
130 130 130
119 119 119
146 146 146
124 124 124
198 198 198
190 190 190
202 202 202
172 172 172
143 143 143
176 176 176
164 164 164
149 149 149
160 160 160
171 171 171
202 202 202
185 185 185
160 160 160
164 164 164
146 146 146
120 120 120
96 96 96
89 89 89
88 88 88
87 87 87
70 70 70
29 29 29
27 27 27
23 23 23
24 24 24
40 40 40
36 36 36
33 33 33
52 52 52
63 63 63
42 42 42
28 28 28
28 28 28
22 22 22
40 40 40
17 17 17
17 17 17
16 16 16
6 6 6
8 8 8
12 12 12
18 18 18
17 17 17
20 20 20
23 23 23
61 61 61
107 107 107
105 105 105
118 118 118
186 186 186
149 149 149
210 210 210
190 190 190
172 172 172
234 234 234
174 174 174
146 146 146
172 172 172
172 172 172
202 202 202
195 195 195
214 214 214
131 131 131
120 120 120
137 137 137
106 106 106
97 97 97
90 90 90
87 87 87
86 86 86
50 50 50
33 33 33
37 37 37
24 24 24
24 24 24
35 35 35
35 35 35
36 36 36
63 63 63
78 78 78
52 52 52
28 28 28
28 28 28
20 20 20
41 41 41
17 17 17
19 19 19
14 14 14
2 2 2
4 4 4
9 9 9
9 9 9
13 13 13
9 9 9
9 9 9
39 39 39
79 79 79
89 89 89
114 114 114
146 146 146
164 164 164
174 174 174
164 164 164
180 180 180
184 184 184
172 172 172
179 179 179
237 237 237
117 117 117
140 140 140
194 194 194
190 190 190
180 180 180
121 121 121
179 179 179
153 153 153
108 108 108
92 92 92
90 90 90
90 90 90
45 45 45
34 34 34
44 44 44
29 29 29
24 24 24
36 36 36
31 31 31
28 28 28
53 53 53
73 73 73
51 51 51
30 30 30
28 28 28
20 20 20
41 41 41
16 16 16
21 21 21
10 10 10
2 2 2
2 2 2
9 9 9
11 11 11
10 10 10
12 12 12
12 12 12
27 27 27
78 78 78
84 84 84
111 111 111
175 175 175
121 121 121
158 158 158
172 172 172
176 176 176
204 204 204
176 176 176
189 189 189
201 201 201
141 141 141
130 130 130
171 171 171
199 199 199
161 161 161
124 124 124
190 190 190
162 162 162
116 116 116
91 91 91
90 90 90
89 89 89
36 36 36
30 30 30
44 44 44
32 32 32
27 27 27
38 38 38
30 30 30
28 28 28
52 52 52
73 73 73
51 51 51
30 30 30
28 28 28
23 23 23
43 43 43
18 18 18
22 22 22
11 11 11
2 2 2
2 2 2
8 8 8
6 6 6
14 14 14
12 12 12
13 13 13
15 15 15
59 59 59
81 81 81
106 106 106
162 162 162
111 111 111
140 140 140
142 142 142
143 143 143
160 160 160
148 148 148
148 148 148
162 162 162
153 153 153
142 142 142
133 133 133
139 139 139
136 136 136
126 126 126
188 188 188
139 139 139
94 94 94
89 89 89
90 90 90
89 89 89
36 36 36
27 27 27
41 41 41
33 33 33
29 29 29
39 39 39
30 30 30
26 26 26
50 50 50
73 73 73
53 53 53
24 24 24
27 27 27
23 23 23
44 44 44
19 19 19
22 22 22
13 13 13
2 2 2
2 2 2
3 3 3
6 6 6
14 14 14
13 13 13
16 16 16
14 14 14
34 34 34
76 76 76
93 93 93
161 161 161
142 142 142
117 117 117
143 143 143
143 143 143
150 150 150
137 137 137
144 144 144
142 142 142
173 173 173
125 125 125
134 134 134
136 136 136
125 125 125
144 144 144
147 147 147
96 96 96
89 89 89
89 89 89
90 90 90
90 90 90
38 38 38
28 28 28
36 36 36
33 33 33
29 29 29
39 39 39
29 29 29
25 25 25
48 48 48
70 70 70
53 53 53
24 24 24
27 27 27
20 20 20
43 43 43
22 22 22
24 24 24
15 15 15
2 2 2
2 2 2
2 2 2
6 6 6
17 17 17
14 14 14
16 16 16
11 11 11
15 15 15
49 49 49
75 75 75
161 161 161
132 132 132
122 122 122
132 132 132
154 154 154
170 170 170
154 154 154
150 150 150
145 145 145
165 165 165
138 138 138
130 130 130
175 175 175
158 158 158
153 153 153
109 109 109
88 88 88
89 89 89
89 89 89
90 90 90
90 90 90
39 39 39
28 28 28
30 30 30
31 31 31
28 28 28
39 39 39
28 28 28
24 24 24
45 45 45
69 69 69
53 53 53
22 22 22
27 27 27
21 21 21
45 45 45
24 24 24
25 25 25
11 11 11
2 2 2
2 2 2
3 3 3
10 10 10
20 20 20
11 11 11
16 16 16
15 15 15
14 14 14
17 17 17
55 55 55
96 96 96
185 185 185
158 158 158
138 138 138
155 155 155
172 172 172
179 179 179
168 168 168
163 163 163
171 171 171
156 156 156
175 175 175
203 203 203
149 149 149
130 130 130
108 108 108
88 88 88
88 88 88
89 89 89
89 89 89
90 90 90
39 39 39
29 29 29
30 30 30
29 29 29
27 27 27
37 37 37
27 27 27
23 23 23
44 44 44
69 69 69
52 52 52
23 23 23
27 27 27
18 18 18
44 44 44
21 21 21
25 25 25
12 12 12
2 2 2
3 3 3
4 4 4
6 6 6
11 11 11
12 12 12
12 12 12
12 12 12
15 15 15
17 17 17
17 17 17
61 61 61
112 112 112
190 190 190
201 201 201
175 175 175
179 179 179
184 184 184
153 153 153
201 201 201
207 207 207
181 181 181
180 180 180
128 128 128
120 120 120
117 117 117
111 111 111
89 89 89
88 88 88
89 89 89
90 90 90
88 88 88
40 40 40
29 29 29
31 31 31
30 30 30
27 27 27
36 36 36
27 27 27
23 23 23
45 45 45
69 69 69
52 52 52
22 22 22
27 27 27
17 17 17
40 40 40
17 17 17
22 22 22
9 9 9
0 0 0
0 0 0
0 0 0
0 0 0
0 0 0
0 0 0
0 0 0
0 0 0
0 0 0
0 0 0
0 0 0
0 0 0
0 0 0
0 0 0
0 0 0
0 0 0
0 0 0
0 0 0
0 0 0
0 0 0
0 0 0
0 0 0
0 0 0
0 0 0
0 0 0
0 0 0
0 0 0
0 0 0
0 0 0
0 0 0
0 0 0
0 0 0
0 0 0
0 0 0
0 0 0
0 0 0
0 0 0
0 0 0
0 0 0
0 0 0
0 0 0
0 0 0
0 0 0
0 0 0
0 0 0
0 0 0
0 0 0
0 0 0
0 0 0
0 0 0
