P3 
50 50 
255
0 0 0
0 0 0
0 0 0
0 0 0
0 0 0
0 0 0
0 0 0
0 0 0
0 0 0
0 0 0
0 0 0
0 0 0
0 0 0
0 0 0
0 0 0
0 0 0
0 0 0
0 0 0
0 0 0
0 0 0
0 0 0
0 0 0
0 0 0
0 0 0
0 0 0
0 0 0
0 0 0
0 0 0
0 0 0
0 0 0
0 0 0
0 0 0
0 0 0
0 0 0
0 0 0
0 0 0
0 0 0
0 0 0
0 0 0
0 0 0
0 0 0
0 0 0
0 0 0
0 0 0
0 0 0
0 0 0
0 0 0
0 0 0
0 0 0
0 0 0
2 2 2
2 2 2
2 2 2
2 2 2
2 2 2
2 2 2
3 3 3
3 3 3
3 3 3
3 3 3
3 3 3
3 3 3
3 3 3
4 4 4
3 3 3
4 4 4
4 4 4
6 6 6
6 6 6
7 7 7
6 6 6
13 13 13
11 11 11
21 21 21
36 36 36
47 47 47
62 62 62
71 71 71
73 73 73
73 73 73
70 70 70
62 62 62
51 51 51
34 34 34
30 30 30
36 36 36
23 23 23
27 27 27
21 21 21
40 40 40
25 25 25
31 31 31
67 67 67
36 36 36
34 34 34
25 25 25
16 16 16
25 25 25
68 68 68
42 42 42
2 2 2
2 2 2
2 2 2
2 2 2
2 2 2
2 2 2
2 2 2
2 2 2
3 3 3
3 3 3
3 3 3
3 3 3
3 3 3
3 3 3
3 3 3
4 4 4
4 4 4
4 4 4
6 6 6
6 6 6
20 20 20
61 61 61
86 86 86
110 110 110
134 134 134
151 151 151
171 171 171
188 188 188
191 191 191
190 190 190
176 176 176
153 153 153
140 140 140
123 123 123
103 103 103
87 87 87
69 69 69
35 35 35
23 23 23
41 41 41
31 31 31
31 31 31
66 66 66
41 41 41
32 32 32
41 41 41
16 16 16
23 23 23
67 67 67
41 41 41
2 2 2
2 2 2
2 2 2
2 2 2
2 2 2
2 2 2
2 2 2
2 2 2
2 2 2
3 3 3
3 3 3
2 2 2
3 3 3
3 3 3
4 4 4
4 4 4
4 4 4
4 4 4
16 16 16
61 61 61
93 93 93
159 159 159
184 184 184
182 182 182
179 179 179
182 182 182
196 196 196
196 196 196
190 190 190
197 197 197
189 189 189
186 186 186
192 192 192
182 182 182
183 183 183
184 184 184
158 158 158
108 108 108
78 78 78
39 39 39
22 22 22
34 34 34
67 67 67
46 46 46
37 37 37
32 32 32
16 16 16
23 23 23
67 67 67
40 40 40
2 2 2
2 2 2
2 2 2
2 2 2
2 2 2
2 2 2
2 2 2
2 2 2
2 2 2
3 3 3
2 2 2
2 2 2
3 3 3
3 3 3
4 4 4
4 4 4
4 4 4
32 32 32
79 79 79
140 140 140
187 187 187
179 179 179
185 185 185
183 183 183
177 177 177
202 202 202
192 192 192
180 180 180
187 187 187
202 202 202
178 178 178
178 178 178
186 186 186
181 181 181
181 181 181
181 181 181
182 182 182
188 188 188
156 156 156
102 102 102
63 63 63
31 31 31
67 67 67
37 37 37
41 41 41
37 37 37
21 21 21
23 23 23
66 66 66
40 40 40
2 2 2
2 2 2
2 2 2
2 2 2
2 2 2
2 2 2
2 2 2
2 2 2
3 3 3
2 2 2
3 3 3
3 3 3
3 3 3
3 3 3
4 4 4
4 4 4
35 35 35
91 91 91
162 162 162
181 181 181
181 181 181
187 187 187
188 188 188
183 183 183
192 192 192
190 190 190
179 179 179
177 177 177
187 187 187
195 195 195
178 178 178
178 178 178
178 178 178
175 175 175
174 174 174
173 173 173
167 167 167
181 181 181
184 184 184
179 179 179
127 127 127
80 80 80
67 67 67
36 36 36
32 32 32
40 40 40
27 27 27
23 23 23
66 66 66
42 42 42
2 2 2
2 2 2
2 2 2
2 2 2
2 2 2
2 2 2
2 2 2
2 2 2
2 2 2
2 2 2
3 3 3
3 3 3
3 3 3
4 4 4
4 4 4
21 21 21
101 101 101
175 175 175
185 185 185
185 185 185
182 182 182
179 179 179
184 184 184
187 187 187
178 178 178
175 175 175
176 176 176
184 184 184
184 184 184
186 186 186
175 175 175
177 177 177
173 173 173
171 171 171
175 175 175
172 172 172
168 168 168
179 179 179
179 179 179
185 185 185
187 187 187
150 150 150
83 83 83
41 41 41
23 23 23
38 38 38
34 34 34
23 23 23
66 66 66
43 43 43
2 2 2
2 2 2
2 2 2
2 2 2
2 2 2
2 2 2
2 2 2
2 2 2
2 2 2
3 3 3
3 3 3
3 3 3
3 3 3
3 3 3
15 15 15
85 85 85
185 185 185
185 185 185
182 182 182
178 178 178
176 176 176
177 177 177
189 189 189
187 187 187
180 180 180
174 174 174
175 175 175
191 191 191
184 184 184
174 174 174
169 169 169
172 172 172
173 173 173
170 170 170
166 166 166
171 171 171
173 173 173
173 173 173
168 168 168
163 163 163
181 181 181
172 172 172
125 125 125
69 69 69
31 31 31
39 39 39
39 39 39
23 23 23
66 66 66
46 46 46
2 2 2
2 2 2
2 2 2
2 2 2
2 2 2
2 2 2
2 2 2
2 2 2
2 2 2
3 3 3
3 3 3
3 3 3
3 3 3
4 4 4
60 60 60
161 161 161
182 182 182
173 173 173
179 179 179
176 176 176
178 178 178
176 176 176
181 181 181
175 175 175
174 174 174
172 172 172
170 170 170
182 182 182
180 180 180
173 173 173
170 170 170
165 165 165
166 166 166
166 166 166
162 162 162
168 168 168
166 166 166
165 165 165
171 171 171
164 164 164
164 164 164
182 182 182
178 178 178
109 109 109
58 58 58
35 35 35
39 39 39
24 24 24
66 66 66
47 47 47
2 2 2
2 2 2
2 2 2
2 2 2
2 2 2
2 2 2
2 2 2
2 2 2
2 2 2
3 3 3
4 4 4
5 5 5
8 8 8
22 22 22
104 104 104
172 172 172
170 170 170
172 172 172
171 171 171
181 181 181
181 181 181
186 186 186
170 170 170
177 177 177
177 177 177
178 178 178
175 175 175
175 175 175
175 175 175
171 171 171
171 171 171
159 159 159
165 165 165
162 162 162
167 167 167
168 168 168
166 166 166
168 168 168
162 162 162
168 168 168
167 167 167
177 177 177
175 175 175
162 162 162
90 90 90
36 36 36
44 44 44
23 23 23
65 65 65
49 49 49
2 2 2
2 2 2
2 2 2
2 2 2
2 2 2
2 2 2
2 2 2
2 2 2
2 2 2
2 2 2
12 12 12
25 25 25
14 14 14
56 56 56
180 180 180
174 174 174
177 177 177
164 164 164
181 181 181
167 167 167
175 175 175
189 189 189
171 171 171
166 166 166
173 173 173
166 166 166
180 180 180
191 191 191
172 172 172
169 169 169
168 168 168
163 163 163
174 174 174
168 168 168
170 170 170
172 172 172
170 170 170
165 165 165
159 159 159
160 160 160
177 177 177
157 157 157
168 168 168
171 171 171
129 129 129
61 61 61
46 46 46
24 24 24
64 64 64
50 50 50
2 2 2
2 2 2
2 2 2
2 2 2
2 2 2
2 2 2
2 2 2
2 2 2
2 2 2
2 2 2
13 13 13
35 35 35
19 19 19
85 85 85
172 172 172
171 171 171
176 176 176
175 175 175
169 169 169
174 174 174
171 171 171
176 176 176
164 164 164
162 162 162
179 179 179
176 176 176
175 175 175
178 178 178
176 176 176
173 173 173
178 178 178
180 180 180
164 164 164
163 163 163
172 172 172
174 174 174
174 174 174
179 179 179
160 160 160
160 160 160
170 170 170
172 172 172
177 177 177
163 163 163
158 158 158
85 85 85
51 51 51
30 30 30
63 63 63
51 51 51
2 2 2
2 2 2
2 2 2
2 2 2
2 2 2
2 2 2
2 2 2
2 2 2
2 2 2
2 2 2
5 5 5
17 17 17
24 24 24
114 114 114
174 174 174
174 174 174
174 174 174
157 157 157
163 163 163
173 173 173
162 162 162
165 165 165
163 163 163
170 170 170
170 170 170
165 165 165
167 167 167
177 177 177
177 177 177
172 172 172
170 170 170
160 160 160
162 162 162
164 164 164
169 169 169
161 161 161
165 165 165
160 160 160
168 168 168
161 161 161
165 165 165
177 177 177
164 164 164
173 173 173
182 182 182
137 137 137
67 67 67
30 30 30
62 62 62
51 51 51
2 2 2
2 2 2
2 2 2
2 2 2
2 2 2
2 2 2
3 3 3
2 2 2
3 3 3
3 3 3
15 15 15
27 27 27
63 63 63
166 166 166
156 156 156
173 173 173
178 178 178
147 147 147
167 167 167
152 152 152
148 148 148
183 183 183
164 164 164
159 159 159
168 168 168
168 168 168
172 172 172
189 189 189
177 177 177
171 171 171
192 192 192
173 173 173
147 147 147
172 172 172
171 171 171
171 171 171
165 165 165
167 167 167
172 172 172
171 171 171
159 159 159
171 171 171
165 165 165
166 166 166
170 170 170
170 170 170
74 74 74
35 35 35
63 63 63
52 52 52
2 2 2
2 2 2
2 2 2
2 2 2
2 2 2
3 3 3
3 3 3
3 3 3
3 3 3
5 5 5
14 14 14
42 42 42
91 91 91
167 167 167
167 167 167
163 163 163
159 159 159
170 170 170
164 164 164
141 141 141
170 170 170
159 159 159
145 145 145
157 157 157
169 169 169
168 168 168
156 156 156
177 177 177
159 159 159
150 150 150
170 170 170
175 175 175
164 164 164
168 168 168
177 177 177
157 157 157
166 166 166
159 159 159
167 167 167
170 170 170
165 165 165
167 167 167
172 172 172
179 179 179
186 186 186
170 170 170
83 83 83
37 37 37
62 62 62
54 54 54
2 2 2
2 2 2
2 2 2
3 3 3
2 2 2
3 3 3
3 3 3
3 3 3
4 4 4
5 5 5
9 9 9
66 66 66
151 151 151
183 183 183
160 160 160
161 161 161
144 144 144
164 164 164
157 157 157
158 158 158
165 165 165
154 154 154
141 141 141
160 160 160
176 176 176
169 169 169
150 150 150
169 169 169
149 149 149
153 153 153
160 160 160
164 164 164
164 164 164
159 159 159
169 169 169
159 159 159
171 171 171
184 184 184
167 167 167
165 165 165
175 175 175
161 161 161
176 176 176
173 173 173
184 184 184
179 179 179
109 109 109
43 43 43
61 61 61
54 54 54
2 2 2
2 2 2
3 3 3
3 3 3
3 3 3
3 3 3
4 4 4
3 3 3
4 4 4
4 4 4
30 30 30
94 94 94
156 156 156
178 178 178
152 152 152
163 163 163
140 140 140
157 157 157
155 155 155
136 136 136
147 147 147
150 150 150
149 149 149
166 166 166
171 171 171
162 162 162
152 152 152
169 169 169
148 148 148
159 159 159
165 165 165
145 145 145
159 159 159
164 164 164
172 172 172
165 165 165
170 170 170
170 170 170
165 165 165
170 170 170
168 168 168
164 164 164
174 174 174
168 168 168
169 169 169
176 176 176
139 139 139
47 47 47
62 62 62
54 54 54
2 2 2
3 3 3
3 3 3
3 3 3
3 3 3
3 3 3
3 3 3
4 4 4
4 4 4
4 4 4
38 38 38
114 114 114
198 198 198
165 165 165
147 147 147
151 151 151
156 156 156
145 145 145
173 173 173
132 132 132
135 135 135
148 148 148
168 168 168
169 169 169
167 167 167
156 156 156
161 161 161
169 169 169
160 160 160
161 161 161
165 165 165
157 157 157
153 153 153
183 183 183
165 165 165
168 168 168
172 172 172
162 162 162
169 169 169
168 168 168
182 182 182
165 165 165
183 183 183
169 169 169
172 172 172
175 175 175
157 157 157
53 53 53
63 63 63
55 55 55
2 2 2
3 3 3
3 3 3
3 3 3
3 3 3
3 3 3
3 3 3
3 3 3
4 4 4
3 3 3
25 25 25
115 115 115
186 186 186
157 157 157
142 142 142
149 149 149
157 157 157
149 149 149
150 150 150
152 152 152
148 148 148
149 149 149
183 183 183
166 166 166
169 169 169
167 167 167
171 171 171
170 170 170
165 165 165
157 157 157
164 164 164
171 171 171
150 150 150
188 188 188
168 168 168
171 171 171
173 173 173
161 161 161
172 172 172
166 166 166
183 183 183
171 171 171
176 176 176
169 169 169
171 171 171
176 176 176
171 171 171
60 60 60
63 63 63
55 55 55
2 2 2
3 3 3
3 3 3
3 3 3
3 3 3
3 3 3
3 3 3
3 3 3
3 3 3
3 3 3
27 27 27
101 101 101
184 184 184
136 136 136
124 124 124
151 151 151
129 129 129
164 164 164
166 166 166
156 156 156
165 165 165
161 161 161
178 178 178
167 167 167
179 179 179
185 185 185
173 173 173
184 184 184
173 173 173
162 162 162
165 165 165
179 179 179
155 155 155
189 189 189
180 180 180
177 177 177
176 176 176
160 160 160
172 172 172
161 161 161
187 187 187
169 169 169
170 170 170
168 168 168
179 179 179
190 190 190
173 173 173
68 68 68
65 65 65
56 56 56
2 2 2
3 3 3
3 3 3
3 3 3
3 3 3
3 3 3
3 3 3
3 3 3
3 3 3
4 4 4
66 66 66
104 104 104
198 198 198
148 148 148
125 125 125
135 135 135
142 142 142
152 152 152
172 172 172
142 142 142
162 162 162
162 162 162
153 153 153
163 163 163
190 190 190
186 186 186
164 164 164
189 189 189
165 165 165
163 163 163
163 163 163
184 184 184
159 159 159
190 190 190
182 182 182
178 178 178
177 177 177
167 167 167
175 175 175
164 164 164
193 193 193
174 174 174
175 175 175
170 170 170
181 181 181
187 187 187
171 171 171
73 73 73
68 68 68
56 56 56
2 2 2
3 3 3
3 3 3
3 3 3
3 3 3
3 3 3
3 3 3
3 3 3
3 3 3
33 33 33
84 84 84
156 156 156
169 169 169
149 149 149
125 125 125
130 130 130
136 136 136
146 146 146
186 186 186
129 129 129
138 138 138
153 153 153
132 132 132
164 164 164
195 195 195
178 178 178
163 163 163
181 181 181
167 167 167
161 161 161
159 159 159
176 176 176
155 155 155
183 183 183
183 183 183
178 178 178
181 181 181
166 166 166
177 177 177
166 166 166
193 193 193
175 175 175
180 180 180
172 172 172
192 192 192
179 179 179
177 177 177
72 72 72
70 70 70
56 56 56
2 2 2
3 3 3
3 3 3
3 3 3
3 3 3
3 3 3
3 3 3
3 3 3
28 28 28
88 88 88
130 130 130
101 101 101
141 141 141
156 156 156
116 116 116
108 108 108
118 118 118
126 126 126
185 185 185
128 128 128
122 122 122
143 143 143
122 122 122
146 146 146
190 190 190
157 157 157
167 167 167
182 182 182
167 167 167
160 160 160
158 158 158
146 146 146
156 156 156
171 171 171
183 183 183
177 177 177
183 183 183
172 172 172
179 179 179
168 168 168
196 196 196
169 169 169
185 185 185
173 173 173
190 190 190
180 180 180
179 179 179
76 76 76
71 71 71
56 56 56
2 2 2
3 3 3
3 3 3
3 3 3
3 3 3
3 3 3
3 3 3
22 22 22
83 83 83
92 92 92
120 120 120
110 110 110
138 138 138
160 160 160
113 113 113
104 104 104
112 112 112
115 115 115
184 184 184
130 130 130
109 109 109
138 138 138
126 126 126
144 144 144
182 182 182
153 153 153
172 172 172
187 187 187
167 167 167
157 157 157
162 162 162
148 148 148
157 157 157
173 173 173
185 185 185
173 173 173
185 185 185
174 174 174
183 183 183
171 171 171
190 190 190
167 167 167
189 189 189
180 180 180
187 187 187
177 177 177
177 177 177
79 79 79
72 72 72
56 56 56
2 2 2
3 3 3
3 3 3
3 3 3
3 3 3
3 3 3
6 6 6
70 70 70
80 80 80
80 80 80
100 100 100
100 100 100
176 176 176
146 146 146
116 116 116
107 107 107
108 108 108
118 118 118
176 176 176
134 134 134
107 107 107
132 132 132
113 113 113
126 126 126
162 162 162
148 148 148
179 179 179
194 194 194
167 167 167
157 157 157
165 165 165
153 153 153
159 159 159
176 176 176
192 192 192
165 165 165
176 176 176
175 175 175
181 181 181
176 176 176
171 171 171
170 170 170
195 195 195
183 183 183
178 178 178
174 174 174
177 177 177
79 79 79
71 71 71
56 56 56
2 2 2
3 3 3
3 3 3
3 3 3
3 3 3
3 3 3
40 40 40
83 83 83
78 78 78
67 67 67
111 111 111
110 110 110
188 188 188
156 156 156
106 106 106
103 103 103
103 103 103
131 131 131
165 165 165
121 121 121
113 113 113
124 124 124
112 112 112
106 106 106
145 145 145
136 136 136
176 176 176
201 201 201
174 174 174
153 153 153
177 177 177
159 159 159
160 160 160
186 186 186
196 196 196
168 168 168
164 164 164
177 177 177
164 164 164
174 174 174
169 169 169
168 168 168
191 191 191
177 177 177
171 171 171
176 176 176
175 175 175
81 81 81
70 70 70
56 56 56
2 2 2
3 3 3
3 3 3
3 3 3
3 3 3
18 18 18
73 73 73
82 82 82
78 78 78
93 93 93
149 149 149
124 124 124
157 157 157
133 133 133
101 101 101
100 100 100
107 107 107
150 150 150
173 173 173
127 127 127
128 128 128
120 120 120
122 122 122
117 117 117
139 139 139
124 124 124
151 151 151
211 211 211
171 171 171
153 153 153
181 181 181
161 161 161
154 154 154
189 189 189
189 189 189
173 173 173
181 181 181
182 182 182
153 153 153
163 163 163
173 173 173
173 173 173
180 180 180
175 175 175
178 178 178
179 179 179
174 174 174
82 82 82
69 69 69
56 56 56
2 2 2
3 3 3
3 3 3
3 3 3
3 3 3
37 37 37
80 80 80
82 82 82
80 80 80
103 103 103
137 137 137
148 148 148
148 148 148
135 135 135
114 114 114
90 90 90
108 108 108
171 171 171
179 179 179
134 134 134
120 120 120
118 118 118
119 119 119
135 135 135
134 134 134
144 144 144
147 147 147
213 213 213
169 169 169
152 152 152
184 184 184
160 160 160
152 152 152
188 188 188
185 185 185
176 176 176
182 182 182
180 180 180
154 154 154
158 158 158
179 179 179
174 174 174
178 178 178
178 178 178
178 178 178
178 178 178
177 177 177
83 83 83
68 68 68
56 56 56
2 2 2
2 2 2
3 3 3
3 3 3
44 44 44
74 74 74
76 76 76
76 76 76
79 79 79
89 89 89
136 136 136
140 140 140
145 145 145
137 137 137
138 138 138
141 141 141
135 135 135
158 158 158
153 153 153
141 141 141
138 138 138
137 137 137
142 142 142
136 136 136
181 181 181
196 196 196
164 164 164
199 199 199
154 154 154
159 159 159
185 185 185
146 146 146
157 157 157
150 150 150
174 174 174
173 173 173
161 161 161
148 148 148
161 161 161
159 159 159
182 182 182
180 180 180
172 172 172
174 174 174
191 191 191
187 187 187
183 183 183
71 71 71
64 64 64
56 56 56
2 2 2
2 2 2
3 3 3
3 3 3
55 55 55
66 66 66
72 72 72
79 79 79
78 78 78
80 80 80
108 108 108
136 136 136
161 161 161
120 120 120
135 135 135
125 125 125
135 135 135
150 150 150
126 126 126
149 149 149
153 153 153
166 166 166
178 178 178
168 168 168
163 163 163
219 219 219
185 185 185
158 158 158
181 181 181
199 199 199
148 148 148
150 150 150
156 156 156
179 179 179
177 177 177
174 174 174
146 146 146
175 175 175
156 156 156
158 158 158
180 180 180
190 190 190
172 172 172
175 175 175
164 164 164
186 186 186
131 131 131
49 49 49
58 58 58
56 56 56
2 2 2
2 2 2
3 3 3
2 2 2
40 40 40
68 68 68
68 68 68
81 81 81
60 60 60
80 80 80
102 102 102
124 124 124
165 165 165
116 116 116
129 129 129
114 114 114
143 143 143
153 153 153
145 145 145
150 150 150
137 137 137
138 138 138
164 164 164
145 145 145
158 158 158
174 174 174
156 156 156
178 178 178
176 176 176
178 178 178
190 190 190
174 174 174
177 177 177
194 194 194
194 194 194
167 167 167
181 181 181
188 188 188
157 157 157
169 169 169
183 183 183
184 184 184
162 162 162
181 181 181
181 181 181
188 188 188
89 89 89
43 43 43
57 57 57
54 54 54
2 2 2
3 3 3
3 3 3
3 3 3
3 3 3
21 21 21
48 48 48
85 85 85
76 76 76
84 84 84
105 105 105
150 150 150
153 153 153
119 119 119
90 90 90
111 111 111
150 150 150
154 154 154
137 137 137
126 126 126
112 112 112
122 122 122
135 135 135
187 187 187
182 182 182
173 173 173
160 160 160
162 162 162
189 189 189
197 197 197
190 190 190
200 200 200
180 180 180
175 175 175
211 211 211
183 183 183
193 193 193
180 180 180
161 161 161
170 170 170
191 191 191
191 191 191
174 174 174
187 187 187
184 184 184
180 180 180
58 58 58
46 46 46
57 57 57
54 54 54
2 2 2
2 2 2
3 3 3
3 3 3
3 3 3
3 3 3
8 8 8
75 75 75
88 88 88
105 105 105
125 125 125
115 115 115
124 124 124
102 102 102
88 88 88
108 108 108
125 125 125
125 125 125
121 121 121
110 110 110
122 122 122
137 137 137
126 126 126
172 172 172
193 193 193
157 157 157
164 164 164
183 183 183
145 145 145
165 165 165
203 203 203
181 181 181
181 181 181
190 190 190
204 204 204
163 163 163
187 187 187
204 204 204
187 187 187
183 183 183
193 193 193
189 189 189
184 184 184
183 183 183
191 191 191
110 110 110
42 42 42
45 45 45
56 56 56
55 55 55
2 2 2
2 2 2
2 2 2
3 3 3
3 3 3
3 3 3
7 7 7
66 66 66
87 87 87
101 101 101
149 149 149
126 126 126
128 128 128
132 132 132
129 129 129
117 117 117
98 98 98
110 110 110
105 105 105
112 112 112
124 124 124
120 120 120
122 122 122
167 167 167
203 203 203
164 164 164
132 132 132
180 180 180
166 166 166
164 164 164
204 204 204
200 200 200
189 189 189
196 196 196
192 192 192
195 195 195
194 194 194
196 196 196
182 182 182
191 191 191
197 197 197
195 195 195
193 193 193
188 188 188
160 160 160
62 62 62
35 35 35
39 39 39
54 54 54
55 55 55
2 2 2
2 2 2
2 2 2
2 2 2
3 3 3
3 3 3
10 10 10
83 83 83
101 101 101
151 151 151
139 139 139
157 157 157
124 124 124
102 102 102
93 93 93
114 114 114
118 118 118
115 115 115
117 117 117
141 141 141
130 130 130
124 124 124
102 102 102
140 140 140
141 141 141
135 135 135
153 153 153
171 171 171
171 171 171
200 200 200
208 208 208
195 195 195
174 174 174
178 178 178
199 199 199
183 183 183
191 191 191
201 201 201
200 200 200
200 200 200
205 205 205
199 199 199
199 199 199
182 182 182
78 78 78
31 31 31
36 36 36
36 36 36
53 53 53
54 54 54
2 2 2
2 2 2
2 2 2
2 2 2
2 2 2
2 2 2
28 28 28
97 97 97
165 165 165
173 173 173
155 155 155
159 159 159
158 158 158
173 173 173
175 175 175
124 124 124
122 122 122
167 167 167
125 125 125
134 134 134
131 131 131
138 138 138
115 115 115
117 117 117
144 144 144
148 148 148
139 139 139
161 161 161
153 153 153
209 209 209
207 207 207
196 196 196
187 187 187
185 185 185
186 186 186
186 186 186
184 184 184
190 190 190
192 192 192
200 200 200
205 205 205
212 212 212
176 176 176
96 96 96
31 31 31
19 19 19
35 35 35
35 35 35
51 51 51
54 54 54
2 2 2
2 2 2
3 3 3
2 2 2
3 3 3
4 4 4
33 33 33
111 111 111
226 226 226
177 177 177
185 185 185
213 213 213
192 192 192
194 194 194
199 199 199
194 194 194
161 161 161
211 211 211
133 133 133
138 138 138
118 118 118
129 129 129
112 112 112
121 121 121
133 133 133
144 144 144
139 139 139
176 176 176
191 191 191
184 184 184
181 181 181
179 179 179
176 176 176
174 174 174
190 190 190
181 181 181
192 192 192
195 195 195
193 193 193
194 194 194
152 152 152
144 144 144
85 85 85
37 37 37
19 19 19
19 19 19
36 36 36
34 34 34
50 50 50
54 54 54
2 2 2
3 3 3
5 5 5
9 9 9
9 9 9
9 9 9
46 46 46
187 187 187
201 201 201
180 180 180
182 182 182
201 201 201
202 202 202
148 148 148
157 157 157
212 212 212
232 232 232
183 183 183
135 135 135
126 126 126
114 114 114
148 148 148
129 129 129
167 167 167
166 166 166
160 160 160
145 145 145
130 130 130
165 165 165
157 157 157
166 166 166
171 171 171
168 168 168
190 190 190
186 186 186
177 177 177
178 178 178
180 180 180
164 164 164
106 106 106
91 91 91
85 85 85
72 72 72
34 34 34
25 25 25
20 20 20
40 40 40
32 32 32
49 49 49
53 53 53
4 4 4
14 14 14
21 21 21
14 14 14
16 16 16
23 23 23
47 47 47
211 211 211
193 193 193
179 179 179
199 199 199
168 168 168
223 223 223
220 220 220
181 181 181
172 172 172
131 131 131
237 237 237
127 127 127
134 134 134
122 122 122
145 145 145
145 145 145
188 188 188
148 148 148
168 168 168
160 160 160
133 133 133
137 137 137
128 128 128
155 155 155
165 165 165
177 177 177
176 176 176
153 153 153
159 159 159
178 178 178
116 116 116
93 93 93
91 91 91
86 86 86
46 46 46
71 71 71
40 40 40
33 33 33
20 20 20
40 40 40
30 30 30
50 50 50
54 54 54
2 2 2
2 2 2
2 2 2
2 2 2
2 2 2
3 3 3
6 6 6
48 48 48
56 56 56
92 92 92
87 87 87
89 89 89
93 93 93
110 110 110
109 109 109
111 111 111
157 157 157
142 142 142
111 111 111
136 136 136
163 163 163
146 146 146
138 138 138
140 140 140
163 163 163
157 157 157
184 184 184
123 123 123
154 154 154
148 148 148
142 142 142
106 106 106
122 122 122
91 91 91
91 91 91
93 93 93
90 90 90
89 89 89
88 88 88
86 86 86
63 63 63
41 41 41
70 70 70
44 44 44
41 41 41
20 20 20
38 38 38
29 29 29
48 48 48
53 53 53
2 2 2
4 4 4
7 7 7
12 12 12
12 12 12
19 19 19
16 16 16
32 32 32
91 91 91
74 74 74
114 114 114
185 185 185
174 174 174
194 194 194
193 193 193
197 197 197
202 202 202
198 198 198
202 202 202
124 124 124
119 119 119
158 158 158
119 119 119
133 133 133
146 146 146
161 161 161
141 141 141
151 151 151
165 165 165
164 164 164
145 145 145
109 109 109
90 90 90
93 93 93
91 91 91
90 90 90
91 91 91
90 90 90
90 90 90
82 82 82
32 32 32
40 40 40
63 63 63
44 44 44
44 44 44
23 23 23
35 35 35
31 31 31
59 59 59
53 53 53
2 2 2
4 4 4
6 6 6
8 8 8
9 9 9
12 12 12
12 12 12
55 55 55
138 138 138
234 234 234
172 172 172
210 210 210
194 194 194
163 163 163
140 140 140
202 202 202
214 214 214
172 172 172
191 191 191
119 119 119
106 106 106
120 120 120
108 108 108
157 157 157
147 147 147
133 133 133
155 155 155
139 139 139
115 115 115
157 157 157
135 135 135
95 95 95
93 93 93
94 94 94
92 92 92
89 89 89
90 90 90
89 89 89
87 87 87
49 49 49
27 27 27
43 43 43
78 78 78
36 36 36
47 47 47
29 29 29
31 31 31
31 31 31
49 49 49
48 48 48
2 2 2
2 2 2
2 2 2
2 2 2
2 2 2
2 2 2
3 3 3
44 44 44
108 108 108
179 179 179
237 237 237
161 161 161
164 164 164
189 189 189
194 194 194
190 190 190
180 180 180
126 126 126
174 174 174
166 166 166
125 125 125
122 122 122
141 141 141
143 143 143
146 146 146
119 119 119
132 132 132
144 144 144
135 135 135
129 129 129
113 113 113
97 97 97
88 88 88
89 89 89
88 88 88
88 88 88
88 88 88
88 88 88
82 82 82
32 32 32
23 23 23
40 40 40
73 73 73
31 31 31
44 44 44
24 24 24
32 32 32
29 29 29
44 44 44
52 52 52
2 2 2
2 2 2
2 2 2
2 2 2
2 2 2
2 2 2
2 2 2
34 34 34
86 86 86
135 135 135
204 204 204
176 176 176
171 171 171
172 172 172
199 199 199
190 190 190
161 161 161
125 125 125
175 175 175
129 129 129
131 131 131
113 113 113
141 141 141
140 140 140
143 143 143
153 153 153
142 142 142
131 131 131
125 125 125
141 141 141
108 108 108
106 106 106
95 95 95
89 89 89
88 88 88
88 88 88
88 88 88
86 86 86
76 76 76
33 33 33
22 22 22
41 41 41
73 73 73
28 28 28
40 40 40
26 26 26
32 32 32
31 31 31
43 43 43
52 52 52
2 2 2
2 2 2
2 2 2
2 2 2
2 2 2
2 2 2
2 2 2
32 32 32
83 83 83
98 98 98
162 162 162
160 160 160
153 153 153
142 142 142
136 136 136
188 188 188
175 175 175
139 139 139
162 162 162
106 106 106
161 161 161
145 145 145
132 132 132
119 119 119
132 132 132
124 124 124
123 123 123
121 121 121
117 117 117
122 122 122
111 111 111
115 115 115
94 94 94
89 89 89
89 89 89
89 89 89
89 89 89
84 84 84
61 61 61
31 31 31
22 22 22
42 42 42
73 73 73
27 27 27
37 37 37
27 27 27
36 36 36
35 35 35
40 40 40
51 51 51
2 2 2
2 2 2
2 2 2
2 2 2
2 2 2
2 2 2
2 2 2
32 32 32
85 85 85
97 97 97
150 150 150
148 148 148
173 173 173
143 143 143
134 134 134
147 147 147
140 140 140
117 117 117
161 161 161
121 121 121
147 147 147
147 147 147
100 100 100
106 106 106
134 134 134
125 125 125
116 116 116
115 115 115
125 125 125
136 136 136
106 106 106
89 89 89
88 88 88
89 89 89
89 89 89
90 90 90
89 89 89
83 83 83
48 48 48
29 29 29
22 22 22
42 42 42
70 70 70
27 27 27
36 36 36
29 29 29
38 38 38
37 37 37
39 39 39
50 50 50
2 2 2
2 2 2
2 2 2
2 2 2
2 2 2
2 2 2
3 3 3
33 33 33
85 85 85
103 103 103
170 170 170
150 150 150
175 175 175
143 143 143
158 158 158
144 144 144
123 123 123
122 122 122
161 161 161
132 132 132
92 92 92
88 88 88
88 88 88
109 109 109
126 126 126
140 140 140
129 129 129
112 112 112
141 141 141
141 141 141
104 104 104
89 89 89
89 89 89
88 88 88
88 88 88
89 89 89
89 89 89
83 83 83
33 33 33
30 30 30
22 22 22
42 42 42
69 69 69
26 26 26
37 37 37
30 30 30
39 39 39
37 37 37
38 38 38
50 50 50
2 2 2
2 2 2
2 2 2
2 2 2
2 2 2
2 2 2
2 2 2
31 31 31
84 84 84
108 108 108
179 179 179
171 171 171
172 172 172
203 203 203
143 143 143
158 158 158
157 157 157
185 185 185
138 138 138
90 90 90
87 87 87
87 87 87
89 89 89
110 110 110
118 118 118
149 149 149
138 138 138
115 115 115
131 131 131
127 127 127
104 104 104
89 89 89
88 88 88
88 88 88
88 88 88
90 90 90
88 88 88
74 74 74
22 22 22
26 26 26
21 21 21
42 42 42
69 69 69
25 25 25
35 35 35
31 31 31
39 39 39
38 38 38
38 38 38
50 50 50
2 2 2
2 2 2
2 2 2
2 2 2
2 2 2
2 2 2
2 2 2
20 20 20
73 73 73
118 118 118
201 201 201
207 207 207
181 181 181
201 201 201
196 196 196
190 190 190
138 138 138
98 98 98
88 88 88
88 88 88
87 87 87
88 88 88
90 90 90
100 100 100
115 115 115
125 125 125
120 120 120
110 110 110
134 134 134
128 128 128
108 108 108
89 89 89
88 88 88
88 88 88
88 88 88
90 90 90
84 84 84
55 55 55
19 19 19
26 26 26
21 21 21
42 42 42
69 69 69
26 26 26
32 32 32
34 34 34
40 40 40
38 38 38
38 38 38
49 49 49
0 0 0
0 0 0
0 0 0
0 0 0
0 0 0
0 0 0
0 0 0
0 0 0
0 0 0
0 0 0
0 0 0
0 0 0
0 0 0
0 0 0
0 0 0
0 0 0
0 0 0
0 0 0
0 0 0
0 0 0
0 0 0
0 0 0
0 0 0
0 0 0
0 0 0
0 0 0
0 0 0
0 0 0
0 0 0
0 0 0
0 0 0
0 0 0
0 0 0
0 0 0
0 0 0
0 0 0
0 0 0
0 0 0
0 0 0
0 0 0
0 0 0
0 0 0
0 0 0
0 0 0
0 0 0
0 0 0
0 0 0
0 0 0
0 0 0
0 0 0
