P3 
50 50 
255
0 0 0
0 0 0
0 0 0
0 0 0
0 0 0
0 0 0
0 0 0
0 0 0
0 0 0
0 0 0
0 0 0
0 0 0
0 0 0
0 0 0
0 0 0
0 0 0
0 0 0
0 0 0
0 0 0
0 0 0
0 0 0
0 0 0
0 0 0
0 0 0
0 0 0
0 0 0
0 0 0
0 0 0
0 0 0
0 0 0
0 0 0
0 0 0
0 0 0
0 0 0
0 0 0
0 0 0
0 0 0
0 0 0
0 0 0
0 0 0
0 0 0
0 0 0
0 0 0
0 0 0
0 0 0
0 0 0
0 0 0
0 0 0
0 0 0
0 0 0
4 4 4
42 42 42
68 68 68
25 25 25
16 16 16
25 25 25
34 34 34
36 36 36
67 67 67
31 31 31
25 25 25
40 40 40
21 21 21
27 27 27
23 23 23
36 36 36
30 30 30
34 34 34
51 51 51
62 62 62
70 70 70
73 73 73
73 73 73
71 71 71
62 62 62
47 47 47
36 36 36
21 21 21
11 11 11
13 13 13
6 6 6
7 7 7
6 6 6
6 6 6
4 4 4
4 4 4
3 3 3
4 4 4
3 3 3
3 3 3
3 3 3
3 3 3
3 3 3
3 3 3
3 3 3
2 2 2
2 2 2
2 2 2
2 2 2
2 2 2
4 4 4
41 41 41
67 67 67
23 23 23
16 16 16
41 41 41
32 32 32
41 41 41
66 66 66
31 31 31
31 31 31
41 41 41
23 23 23
35 35 35
69 69 69
87 87 87
103 103 103
123 123 123
140 140 140
153 153 153
176 176 176
190 190 190
191 191 191
188 188 188
171 171 171
151 151 151
134 134 134
110 110 110
86 86 86
61 61 61
20 20 20
6 6 6
6 6 6
4 4 4
4 4 4
4 4 4
3 3 3
3 3 3
3 3 3
3 3 3
3 3 3
3 3 3
3 3 3
2 2 2
2 2 2
2 2 2
2 2 2
2 2 2
2 2 2
2 2 2
3 3 3
40 40 40
67 67 67
23 23 23
16 16 16
32 32 32
37 37 37
46 46 46
67 67 67
34 34 34
22 22 22
39 39 39
78 78 78
108 108 108
158 158 158
184 184 184
183 183 183
182 182 182
192 192 192
186 186 186
189 189 189
197 197 197
190 190 190
196 196 196
196 196 196
182 182 182
179 179 179
182 182 182
184 184 184
159 159 159
93 93 93
61 61 61
16 16 16
4 4 4
4 4 4
4 4 4
4 4 4
3 3 3
3 3 3
2 2 2
3 3 3
3 3 3
2 2 2
2 2 2
2 2 2
2 2 2
2 2 2
2 2 2
2 2 2
2 2 2
3 3 3
40 40 40
66 66 66
23 23 23
21 21 21
37 37 37
41 41 41
37 37 37
67 67 67
31 31 31
63 63 63
102 102 102
156 156 156
188 188 188
182 182 182
181 181 181
181 181 181
181 181 181
186 186 186
178 178 178
178 178 178
202 202 202
187 187 187
180 180 180
192 192 192
202 202 202
177 177 177
183 183 183
185 185 185
179 179 179
187 187 187
140 140 140
79 79 79
32 32 32
4 4 4
4 4 4
4 4 4
3 3 3
3 3 3
2 2 2
2 2 2
3 3 3
2 2 2
2 2 2
2 2 2
2 2 2
2 2 2
2 2 2
2 2 2
2 2 2
4 4 4
42 42 42
66 66 66
23 23 23
27 27 27
40 40 40
32 32 32
36 36 36
67 67 67
80 80 80
127 127 127
179 179 179
184 184 184
181 181 181
167 167 167
173 173 173
174 174 174
175 175 175
178 178 178
178 178 178
178 178 178
195 195 195
187 187 187
177 177 177
179 179 179
190 190 190
192 192 192
183 183 183
188 188 188
187 187 187
181 181 181
181 181 181
162 162 162
91 91 91
35 35 35
4 4 4
4 4 4
3 3 3
3 3 3
3 3 3
3 3 3
2 2 2
3 3 3
2 2 2
2 2 2
2 2 2
2 2 2
2 2 2
2 2 2
2 2 2
4 4 4
43 43 43
66 66 66
23 23 23
34 34 34
38 38 38
23 23 23
41 41 41
83 83 83
150 150 150
187 187 187
185 185 185
179 179 179
179 179 179
168 168 168
172 172 172
175 175 175
171 171 171
173 173 173
177 177 177
175 175 175
186 186 186
184 184 184
184 184 184
176 176 176
175 175 175
178 178 178
187 187 187
184 184 184
179 179 179
182 182 182
185 185 185
185 185 185
175 175 175
101 101 101
21 21 21
4 4 4
4 4 4
3 3 3
3 3 3
3 3 3
2 2 2
2 2 2
2 2 2
2 2 2
2 2 2
2 2 2
2 2 2
2 2 2
2 2 2
4 4 4
46 46 46
66 66 66
23 23 23
39 39 39
39 39 39
31 31 31
69 69 69
125 125 125
172 172 172
181 181 181
163 163 163
168 168 168
173 173 173
173 173 173
171 171 171
166 166 166
170 170 170
173 173 173
172 172 172
169 169 169
174 174 174
184 184 184
191 191 191
175 175 175
174 174 174
180 180 180
187 187 187
189 189 189
177 177 177
176 176 176
178 178 178
182 182 182
185 185 185
185 185 185
85 85 85
15 15 15
3 3 3
3 3 3
3 3 3
3 3 3
3 3 3
2 2 2
2 2 2
2 2 2
2 2 2
2 2 2
2 2 2
2 2 2
2 2 2
4 4 4
47 47 47
66 66 66
24 24 24
39 39 39
35 35 35
58 58 58
109 109 109
178 178 178
182 182 182
164 164 164
164 164 164
171 171 171
165 165 165
166 166 166
168 168 168
162 162 162
166 166 166
166 166 166
165 165 165
170 170 170
173 173 173
180 180 180
182 182 182
170 170 170
172 172 172
174 174 174
175 175 175
181 181 181
176 176 176
178 178 178
176 176 176
179 179 179
173 173 173
182 182 182
161 161 161
60 60 60
4 4 4
3 3 3
3 3 3
3 3 3
3 3 3
2 2 2
2 2 2
2 2 2
2 2 2
2 2 2
2 2 2
2 2 2
2 2 2
4 4 4
49 49 49
65 65 65
23 23 23
44 44 44
36 36 36
90 90 90
162 162 162
175 175 175
177 177 177
167 167 167
168 168 168
162 162 162
168 168 168
166 166 166
168 168 168
167 167 167
162 162 162
165 165 165
159 159 159
171 171 171
171 171 171
175 175 175
175 175 175
175 175 175
178 178 178
177 177 177
177 177 177
170 170 170
186 186 186
181 181 181
181 181 181
171 171 171
172 172 172
170 170 170
172 172 172
104 104 104
22 22 22
8 8 8
5 5 5
4 4 4
3 3 3
2 2 2
2 2 2
2 2 2
2 2 2
2 2 2
2 2 2
2 2 2
2 2 2
4 4 4
50 50 50
64 64 64
24 24 24
46 46 46
61 61 61
129 129 129
171 171 171
168 168 168
157 157 157
177 177 177
160 160 160
159 159 159
165 165 165
170 170 170
172 172 172
170 170 170
168 168 168
174 174 174
163 163 163
168 168 168
169 169 169
172 172 172
191 191 191
180 180 180
166 166 166
173 173 173
166 166 166
171 171 171
189 189 189
175 175 175
167 167 167
181 181 181
164 164 164
177 177 177
174 174 174
180 180 180
56 56 56
14 14 14
25 25 25
12 12 12
2 2 2
2 2 2
2 2 2
2 2 2
2 2 2
2 2 2
2 2 2
2 2 2
2 2 2
4 4 4
51 51 51
63 63 63
30 30 30
51 51 51
85 85 85
158 158 158
163 163 163
177 177 177
172 172 172
170 170 170
160 160 160
160 160 160
179 179 179
174 174 174
174 174 174
172 172 172
163 163 163
164 164 164
180 180 180
178 178 178
173 173 173
176 176 176
178 178 178
175 175 175
176 176 176
179 179 179
162 162 162
164 164 164
176 176 176
171 171 171
174 174 174
169 169 169
175 175 175
176 176 176
171 171 171
172 172 172
85 85 85
19 19 19
35 35 35
13 13 13
2 2 2
2 2 2
2 2 2
2 2 2
2 2 2
2 2 2
2 2 2
2 2 2
2 2 2
4 4 4
51 51 51
62 62 62
30 30 30
67 67 67
137 137 137
182 182 182
173 173 173
164 164 164
177 177 177
165 165 165
161 161 161
168 168 168
160 160 160
165 165 165
161 161 161
169 169 169
164 164 164
162 162 162
160 160 160
170 170 170
172 172 172
177 177 177
177 177 177
167 167 167
165 165 165
170 170 170
170 170 170
163 163 163
165 165 165
162 162 162
173 173 173
163 163 163
157 157 157
174 174 174
174 174 174
174 174 174
114 114 114
24 24 24
17 17 17
5 5 5
2 2 2
2 2 2
2 2 2
2 2 2
2 2 2
2 2 2
2 2 2
2 2 2
2 2 2
4 4 4
52 52 52
63 63 63
35 35 35
74 74 74
170 170 170
170 170 170
166 166 166
165 165 165
171 171 171
159 159 159
171 171 171
172 172 172
167 167 167
165 165 165
171 171 171
171 171 171
172 172 172
147 147 147
173 173 173
192 192 192
171 171 171
177 177 177
189 189 189
172 172 172
168 168 168
168 168 168
159 159 159
164 164 164
183 183 183
148 148 148
152 152 152
167 167 167
147 147 147
178 178 178
173 173 173
156 156 156
166 166 166
63 63 63
27 27 27
15 15 15
3 3 3
3 3 3
2 2 2
3 3 3
2 2 2
2 2 2
2 2 2
2 2 2
2 2 2
4 4 4
54 54 54
62 62 62
37 37 37
83 83 83
170 170 170
186 186 186
179 179 179
172 172 172
167 167 167
165 165 165
170 170 170
167 167 167
159 159 159
166 166 166
157 157 157
177 177 177
168 168 168
164 164 164
175 175 175
170 170 170
150 150 150
159 159 159
177 177 177
156 156 156
168 168 168
169 169 169
157 157 157
145 145 145
159 159 159
170 170 170
141 141 141
164 164 164
170 170 170
159 159 159
163 163 163
167 167 167
167 167 167
91 91 91
42 42 42
14 14 14
5 5 5
3 3 3
3 3 3
3 3 3
3 3 3
2 2 2
2 2 2
2 2 2
2 2 2
4 4 4
54 54 54
61 61 61
43 43 43
109 109 109
179 179 179
184 184 184
173 173 173
176 176 176
161 161 161
175 175 175
165 165 165
167 167 167
184 184 184
171 171 171
159 159 159
169 169 169
159 159 159
164 164 164
164 164 164
160 160 160
153 153 153
149 149 149
169 169 169
150 150 150
169 169 169
176 176 176
160 160 160
141 141 141
154 154 154
165 165 165
158 158 158
157 157 157
164 164 164
144 144 144
161 161 161
160 160 160
183 183 183
151 151 151
66 66 66
9 9 9
5 5 5
4 4 4
3 3 3
3 3 3
3 3 3
2 2 2
3 3 3
2 2 2
2 2 2
4 4 4
54 54 54
62 62 62
47 47 47
139 139 139
176 176 176
169 169 169
168 168 168
174 174 174
164 164 164
168 168 168
170 170 170
165 165 165
170 170 170
170 170 170
165 165 165
172 172 172
164 164 164
159 159 159
145 145 145
165 165 165
159 159 159
148 148 148
169 169 169
152 152 152
162 162 162
171 171 171
166 166 166
149 149 149
150 150 150
147 147 147
136 136 136
155 155 155
157 157 157
140 140 140
163 163 163
152 152 152
178 178 178
156 156 156
94 94 94
30 30 30
4 4 4
4 4 4
3 3 3
4 4 4
3 3 3
3 3 3
3 3 3
3 3 3
2 2 2
4 4 4
55 55 55
63 63 63
53 53 53
157 157 157
175 175 175
172 172 172
169 169 169
183 183 183
165 165 165
182 182 182
168 168 168
169 169 169
162 162 162
172 172 172
168 168 168
165 165 165
183 183 183
153 153 153
157 157 157
165 165 165
161 161 161
160 160 160
169 169 169
161 161 161
156 156 156
167 167 167
169 169 169
168 168 168
148 148 148
135 135 135
132 132 132
173 173 173
145 145 145
156 156 156
151 151 151
147 147 147
165 165 165
198 198 198
114 114 114
38 38 38
4 4 4
4 4 4
4 4 4
3 3 3
3 3 3
3 3 3
3 3 3
3 3 3
3 3 3
4 4 4
55 55 55
63 63 63
60 60 60
171 171 171
176 176 176
171 171 171
169 169 169
176 176 176
171 171 171
183 183 183
166 166 166
172 172 172
161 161 161
173 173 173
171 171 171
168 168 168
188 188 188
150 150 150
171 171 171
164 164 164
157 157 157
165 165 165
170 170 170
171 171 171
167 167 167
169 169 169
166 166 166
183 183 183
149 149 149
148 148 148
152 152 152
150 150 150
149 149 149
157 157 157
149 149 149
142 142 142
157 157 157
186 186 186
115 115 115
25 25 25
3 3 3
4 4 4
3 3 3
3 3 3
3 3 3
3 3 3
3 3 3
3 3 3
3 3 3
5 5 5
56 56 56
65 65 65
68 68 68
173 173 173
190 190 190
179 179 179
168 168 168
170 170 170
169 169 169
187 187 187
161 161 161
172 172 172
160 160 160
176 176 176
177 177 177
180 180 180
189 189 189
155 155 155
179 179 179
165 165 165
162 162 162
173 173 173
184 184 184
173 173 173
185 185 185
179 179 179
167 167 167
178 178 178
161 161 161
165 165 165
156 156 156
166 166 166
164 164 164
129 129 129
151 151 151
124 124 124
136 136 136
184 184 184
101 101 101
27 27 27
3 3 3
3 3 3
3 3 3
3 3 3
3 3 3
3 3 3
3 3 3
3 3 3
3 3 3
5 5 5
56 56 56
68 68 68
73 73 73
171 171 171
187 187 187
181 181 181
170 170 170
175 175 175
174 174 174
193 193 193
164 164 164
175 175 175
167 167 167
177 177 177
178 178 178
182 182 182
190 190 190
159 159 159
184 184 184
163 163 163
163 163 163
165 165 165
189 189 189
164 164 164
186 186 186
190 190 190
163 163 163
153 153 153
162 162 162
162 162 162
142 142 142
172 172 172
152 152 152
142 142 142
135 135 135
125 125 125
148 148 148
198 198 198
104 104 104
66 66 66
4 4 4
3 3 3
3 3 3
3 3 3
3 3 3
3 3 3
3 3 3
3 3 3
3 3 3
5 5 5
56 56 56
70 70 70
72 72 72
177 177 177
179 179 179
192 192 192
172 172 172
180 180 180
175 175 175
193 193 193
166 166 166
177 177 177
166 166 166
181 181 181
178 178 178
183 183 183
183 183 183
155 155 155
176 176 176
159 159 159
161 161 161
167 167 167
181 181 181
163 163 163
178 178 178
195 195 195
164 164 164
132 132 132
153 153 153
138 138 138
129 129 129
186 186 186
146 146 146
136 136 136
130 130 130
125 125 125
149 149 149
169 169 169
156 156 156
84 84 84
33 33 33
3 3 3
3 3 3
3 3 3
3 3 3
3 3 3
3 3 3
3 3 3
3 3 3
5 5 5
56 56 56
71 71 71
76 76 76
179 179 179
180 180 180
190 190 190
173 173 173
185 185 185
169 169 169
196 196 196
168 168 168
179 179 179
172 172 172
183 183 183
177 177 177
183 183 183
171 171 171
156 156 156
146 146 146
158 158 158
160 160 160
167 167 167
182 182 182
167 167 167
157 157 157
190 190 190
146 146 146
122 122 122
143 143 143
122 122 122
128 128 128
185 185 185
126 126 126
118 118 118
108 108 108
116 116 116
156 156 156
141 141 141
101 101 101
130 130 130
88 88 88
28 28 28
3 3 3
3 3 3
3 3 3
3 3 3
3 3 3
3 3 3
3 3 3
5 5 5
56 56 56
72 72 72
79 79 79
177 177 177
177 177 177
187 187 187
180 180 180
189 189 189
167 167 167
190 190 190
171 171 171
183 183 183
174 174 174
185 185 185
173 173 173
185 185 185
173 173 173
157 157 157
148 148 148
162 162 162
157 157 157
167 167 167
187 187 187
172 172 172
153 153 153
182 182 182
144 144 144
126 126 126
138 138 138
109 109 109
130 130 130
184 184 184
115 115 115
112 112 112
104 104 104
113 113 113
160 160 160
138 138 138
110 110 110
120 120 120
92 92 92
83 83 83
22 22 22
3 3 3
3 3 3
3 3 3
3 3 3
3 3 3
3 3 3
5 5 5
56 56 56
71 71 71
79 79 79
177 177 177
174 174 174
178 178 178
183 183 183
195 195 195
170 170 170
171 171 171
176 176 176
181 181 181
175 175 175
176 176 176
165 165 165
192 192 192
176 176 176
159 159 159
153 153 153
165 165 165
157 157 157
167 167 167
194 194 194
179 179 179
148 148 148
162 162 162
126 126 126
113 113 113
132 132 132
107 107 107
134 134 134
176 176 176
118 118 118
108 108 108
107 107 107
116 116 116
146 146 146
176 176 176
100 100 100
100 100 100
80 80 80
80 80 80
70 70 70
6 6 6
3 3 3
3 3 3
3 3 3
3 3 3
3 3 3
5 5 5
56 56 56
70 70 70
81 81 81
175 175 175
176 176 176
171 171 171
177 177 177
191 191 191
168 168 168
169 169 169
174 174 174
164 164 164
177 177 177
164 164 164
168 168 168
196 196 196
186 186 186
160 160 160
159 159 159
177 177 177
153 153 153
174 174 174
201 201 201
176 176 176
136 136 136
145 145 145
106 106 106
112 112 112
124 124 124
113 113 113
121 121 121
165 165 165
131 131 131
103 103 103
103 103 103
106 106 106
156 156 156
188 188 188
110 110 110
111 111 111
67 67 67
78 78 78
83 83 83
40 40 40
3 3 3
3 3 3
3 3 3
3 3 3
3 3 3
5 5 5
56 56 56
69 69 69
82 82 82
174 174 174
179 179 179
178 178 178
175 175 175
180 180 180
173 173 173
173 173 173
163 163 163
153 153 153
182 182 182
181 181 181
173 173 173
189 189 189
189 189 189
154 154 154
161 161 161
181 181 181
153 153 153
171 171 171
211 211 211
151 151 151
124 124 124
139 139 139
117 117 117
122 122 122
120 120 120
128 128 128
127 127 127
173 173 173
150 150 150
107 107 107
100 100 100
101 101 101
133 133 133
157 157 157
124 124 124
149 149 149
93 93 93
78 78 78
82 82 82
73 73 73
18 18 18
3 3 3
3 3 3
3 3 3
3 3 3
5 5 5
56 56 56
68 68 68
83 83 83
177 177 177
178 178 178
178 178 178
178 178 178
178 178 178
174 174 174
179 179 179
158 158 158
154 154 154
180 180 180
182 182 182
176 176 176
185 185 185
188 188 188
152 152 152
160 160 160
184 184 184
152 152 152
169 169 169
213 213 213
147 147 147
144 144 144
134 134 134
135 135 135
119 119 119
118 118 118
120 120 120
134 134 134
179 179 179
171 171 171
108 108 108
90 90 90
114 114 114
135 135 135
148 148 148
148 148 148
137 137 137
103 103 103
80 80 80
82 82 82
80 80 80
37 37 37
3 3 3
3 3 3
3 3 3
3 3 3
5 5 5
56 56 56
64 64 64
71 71 71
183 183 183
187 187 187
191 191 191
174 174 174
172 172 172
180 180 180
182 182 182
159 159 159
161 161 161
148 148 148
161 161 161
173 173 173
174 174 174
150 150 150
157 157 157
146 146 146
185 185 185
159 159 159
154 154 154
199 199 199
164 164 164
196 196 196
181 181 181
136 136 136
142 142 142
137 137 137
138 138 138
141 141 141
153 153 153
158 158 158
135 135 135
141 141 141
138 138 138
137 137 137
145 145 145
140 140 140
136 136 136
89 89 89
79 79 79
76 76 76
76 76 76
74 74 74
44 44 44
3 3 3
3 3 3
2 2 2
4 4 4
56 56 56
58 58 58
49 49 49
131 131 131
186 186 186
164 164 164
175 175 175
172 172 172
190 190 190
180 180 180
158 158 158
156 156 156
175 175 175
146 146 146
174 174 174
177 177 177
179 179 179
156 156 156
150 150 150
148 148 148
199 199 199
181 181 181
158 158 158
185 185 185
219 219 219
163 163 163
168 168 168
178 178 178
166 166 166
153 153 153
149 149 149
126 126 126
150 150 150
135 135 135
125 125 125
135 135 135
120 120 120
161 161 161
136 136 136
108 108 108
80 80 80
78 78 78
79 79 79
72 72 72
66 66 66
55 55 55
3 3 3
3 3 3
2 2 2
4 4 4
54 54 54
57 57 57
43 43 43
89 89 89
188 188 188
181 181 181
181 181 181
162 162 162
184 184 184
183 183 183
169 169 169
157 157 157
188 188 188
181 181 181
167 167 167
194 194 194
194 194 194
177 177 177
174 174 174
190 190 190
178 178 178
176 176 176
178 178 178
156 156 156
174 174 174
158 158 158
145 145 145
164 164 164
138 138 138
137 137 137
150 150 150
145 145 145
153 153 153
143 143 143
114 114 114
129 129 129
116 116 116
165 165 165
124 124 124
102 102 102
80 80 80
60 60 60
81 81 81
68 68 68
68 68 68
40 40 40
2 2 2
3 3 3
2 2 2
4 4 4
54 54 54
57 57 57
46 46 46
58 58 58
180 180 180
184 184 184
187 187 187
174 174 174
191 191 191
191 191 191
170 170 170
161 161 161
180 180 180
193 193 193
183 183 183
211 211 211
175 175 175
180 180 180
200 200 200
190 190 190
197 197 197
189 189 189
162 162 162
160 160 160
173 173 173
182 182 182
187 187 187
135 135 135
122 122 122
112 112 112
126 126 126
137 137 137
154 154 154
150 150 150
111 111 111
90 90 90
119 119 119
153 153 153
150 150 150
105 105 105
84 84 84
76 76 76
85 85 85
48 48 48
21 21 21
3 3 3
3 3 3
3 3 3
3 3 3
4 4 4
55 55 55
56 56 56
45 45 45
42 42 42
110 110 110
191 191 191
183 183 183
184 184 184
189 189 189
193 193 193
183 183 183
187 187 187
204 204 204
187 187 187
163 163 163
204 204 204
190 190 190
181 181 181
181 181 181
203 203 203
165 165 165
145 145 145
183 183 183
164 164 164
157 157 157
193 193 193
172 172 172
126 126 126
137 137 137
122 122 122
110 110 110
121 121 121
125 125 125
125 125 125
108 108 108
88 88 88
102 102 102
124 124 124
115 115 115
125 125 125
105 105 105
88 88 88
75 75 75
8 8 8
3 3 3
3 3 3
3 3 3
3 3 3
2 2 2
4 4 4
55 55 55
54 54 54
39 39 39
35 35 35
62 62 62
160 160 160
188 188 188
193 193 193
195 195 195
197 197 197
191 191 191
182 182 182
196 196 196
194 194 194
195 195 195
192 192 192
196 196 196
189 189 189
200 200 200
204 204 204
164 164 164
166 166 166
180 180 180
132 132 132
164 164 164
203 203 203
167 167 167
122 122 122
120 120 120
124 124 124
112 112 112
105 105 105
110 110 110
98 98 98
117 117 117
129 129 129
132 132 132
128 128 128
126 126 126
149 149 149
101 101 101
87 87 87
66 66 66
7 7 7
3 3 3
3 3 3
3 3 3
2 2 2
2 2 2
4 4 4
54 54 54
53 53 53
36 36 36
36 36 36
31 31 31
78 78 78
182 182 182
199 199 199
199 199 199
205 205 205
200 200 200
200 200 200
201 201 201
191 191 191
183 183 183
199 199 199
178 178 178
174 174 174
195 195 195
208 208 208
200 200 200
171 171 171
171 171 171
153 153 153
135 135 135
141 141 141
140 140 140
102 102 102
124 124 124
130 130 130
141 141 141
117 117 117
115 115 115
118 118 118
114 114 114
93 93 93
102 102 102
124 124 124
157 157 157
139 139 139
151 151 151
101 101 101
83 83 83
10 10 10
3 3 3
3 3 3
2 2 2
2 2 2
2 2 2
4 4 4
54 54 54
51 51 51
35 35 35
35 35 35
19 19 19
31 31 31
96 96 96
176 176 176
212 212 212
205 205 205
200 200 200
192 192 192
190 190 190
184 184 184
186 186 186
186 186 186
185 185 185
187 187 187
196 196 196
207 207 207
209 209 209
153 153 153
161 161 161
139 139 139
148 148 148
144 144 144
117 117 117
115 115 115
138 138 138
131 131 131
134 134 134
125 125 125
167 167 167
122 122 122
124 124 124
175 175 175
173 173 173
158 158 158
159 159 159
155 155 155
173 173 173
165 165 165
97 97 97
28 28 28
2 2 2
2 2 2
2 2 2
2 2 2
2 2 2
4 4 4
54 54 54
50 50 50
34 34 34
36 36 36
19 19 19
19 19 19
37 37 37
85 85 85
144 144 144
152 152 152
194 194 194
193 193 193
195 195 195
192 192 192
181 181 181
190 190 190
174 174 174
176 176 176
179 179 179
181 181 181
184 184 184
191 191 191
176 176 176
139 139 139
144 144 144
133 133 133
121 121 121
112 112 112
129 129 129
118 118 118
138 138 138
133 133 133
211 211 211
161 161 161
194 194 194
199 199 199
194 194 194
192 192 192
213 213 213
185 185 185
177 177 177
226 226 226
111 111 111
33 33 33
4 4 4
3 3 3
2 2 2
3 3 3
2 2 2
3 3 3
53 53 53
49 49 49
32 32 32
40 40 40
20 20 20
25 25 25
34 34 34
72 72 72
85 85 85
91 91 91
106 106 106
164 164 164
180 180 180
178 178 178
177 177 177
186 186 186
190 190 190
168 168 168
171 171 171
166 166 166
157 157 157
165 165 165
130 130 130
145 145 145
160 160 160
166 166 166
167 167 167
129 129 129
148 148 148
114 114 114
126 126 126
135 135 135
183 183 183
232 232 232
212 212 212
157 157 157
148 148 148
202 202 202
201 201 201
182 182 182
180 180 180
201 201 201
187 187 187
46 46 46
9 9 9
9 9 9
9 9 9
5 5 5
3 3 3
4 4 4
54 54 54
50 50 50
30 30 30
40 40 40
20 20 20
33 33 33
40 40 40
71 71 71
46 46 46
86 86 86
91 91 91
93 93 93
116 116 116
178 178 178
159 159 159
153 153 153
176 176 176
177 177 177
165 165 165
155 155 155
128 128 128
137 137 137
133 133 133
160 160 160
168 168 168
148 148 148
188 188 188
145 145 145
145 145 145
122 122 122
134 134 134
127 127 127
237 237 237
131 131 131
172 172 172
181 181 181
220 220 220
223 223 223
168 168 168
199 199 199
179 179 179
193 193 193
211 211 211
47 47 47
23 23 23
16 16 16
14 14 14
21 21 21
14 14 14
4 4 4
53 53 53
48 48 48
29 29 29
38 38 38
20 20 20
41 41 41
44 44 44
70 70 70
41 41 41
63 63 63
86 86 86
88 88 88
89 89 89
90 90 90
93 93 93
91 91 91
91 91 91
122 122 122
106 106 106
142 142 142
148 148 148
154 154 154
123 123 123
184 184 184
157 157 157
163 163 163
140 140 140
138 138 138
146 146 146
163 163 163
136 136 136
111 111 111
142 142 142
157 157 157
111 111 111
109 109 109
110 110 110
93 93 93
89 89 89
87 87 87
92 92 92
56 56 56
48 48 48
6 6 6
3 3 3
2 2 2
2 2 2
2 2 2
2 2 2
4 4 4
53 53 53
59 59 59
31 31 31
35 35 35
23 23 23
44 44 44
44 44 44
63 63 63
40 40 40
32 32 32
82 82 82
90 90 90
90 90 90
91 91 91
90 90 90
91 91 91
93 93 93
90 90 90
109 109 109
145 145 145
164 164 164
165 165 165
151 151 151
141 141 141
161 161 161
146 146 146
133 133 133
119 119 119
158 158 158
119 119 119
124 124 124
202 202 202
198 198 198
202 202 202
197 197 197
193 193 193
194 194 194
174 174 174
185 185 185
114 114 114
74 74 74
91 91 91
32 32 32
16 16 16
19 19 19
12 12 12
12 12 12
7 7 7
4 4 4
4 4 4
48 48 48
49 49 49
31 31 31
31 31 31
29 29 29
47 47 47
36 36 36
78 78 78
43 43 43
27 27 27
49 49 49
87 87 87
89 89 89
90 90 90
89 89 89
92 92 92
94 94 94
93 93 93
95 95 95
135 135 135
157 157 157
115 115 115
139 139 139
155 155 155
133 133 133
147 147 147
157 157 157
108 108 108
120 120 120
106 106 106
119 119 119
191 191 191
172 172 172
214 214 214
202 202 202
140 140 140
163 163 163
194 194 194
210 210 210
172 172 172
234 234 234
138 138 138
55 55 55
12 12 12
12 12 12
9 9 9
8 8 8
6 6 6
4 4 4
4 4 4
52 52 52
44 44 44
29 29 29
32 32 32
24 24 24
44 44 44
31 31 31
73 73 73
40 40 40
23 23 23
32 32 32
82 82 82
88 88 88
88 88 88
88 88 88
88 88 88
89 89 89
88 88 88
97 97 97
113 113 113
129 129 129
135 135 135
144 144 144
132 132 132
119 119 119
146 146 146
143 143 143
141 141 141
122 122 122
125 125 125
166 166 166
174 174 174
126 126 126
180 180 180
190 190 190
194 194 194
189 189 189
164 164 164
161 161 161
237 237 237
179 179 179
108 108 108
44 44 44
3 3 3
2 2 2
2 2 2
2 2 2
2 2 2
2 2 2
4 4 4
52 52 52
43 43 43
31 31 31
32 32 32
26 26 26
40 40 40
28 28 28
73 73 73
41 41 41
22 22 22
33 33 33
76 76 76
86 86 86
88 88 88
88 88 88
88 88 88
89 89 89
95 95 95
106 106 106
108 108 108
141 141 141
125 125 125
131 131 131
142 142 142
153 153 153
143 143 143
140 140 140
141 141 141
113 113 113
131 131 131
129 129 129
175 175 175
125 125 125
161 161 161
190 190 190
199 199 199
172 172 172
171 171 171
176 176 176
204 204 204
135 135 135
86 86 86
34 34 34
2 2 2
2 2 2
2 2 2
2 2 2
2 2 2
2 2 2
4 4 4
51 51 51
40 40 40
35 35 35
36 36 36
27 27 27
37 37 37
27 27 27
73 73 73
42 42 42
22 22 22
31 31 31
61 61 61
84 84 84
89 89 89
89 89 89
89 89 89
89 89 89
94 94 94
115 115 115
111 111 111
122 122 122
117 117 117
121 121 121
123 123 123
124 124 124
132 132 132
119 119 119
132 132 132
145 145 145
161 161 161
106 106 106
162 162 162
139 139 139
175 175 175
188 188 188
136 136 136
142 142 142
153 153 153
160 160 160
162 162 162
98 98 98
83 83 83
32 32 32
2 2 2
2 2 2
2 2 2
2 2 2
2 2 2
2 2 2
4 4 4
50 50 50
39 39 39
37 37 37
38 38 38
29 29 29
36 36 36
27 27 27
70 70 70
42 42 42
22 22 22
29 29 29
48 48 48
83 83 83
89 89 89
90 90 90
89 89 89
89 89 89
88 88 88
89 89 89
106 106 106
136 136 136
125 125 125
115 115 115
116 116 116
125 125 125
134 134 134
106 106 106
100 100 100
147 147 147
147 147 147
121 121 121
161 161 161
117 117 117
140 140 140
147 147 147
134 134 134
143 143 143
173 173 173
148 148 148
150 150 150
97 97 97
85 85 85
32 32 32
2 2 2
2 2 2
2 2 2
2 2 2
2 2 2
2 2 2
4 4 4
50 50 50
38 38 38
37 37 37
39 39 39
30 30 30
37 37 37
26 26 26
69 69 69
42 42 42
22 22 22
30 30 30
33 33 33
83 83 83
89 89 89
89 89 89
88 88 88
88 88 88
89 89 89
89 89 89
104 104 104
141 141 141
141 141 141
112 112 112
129 129 129
140 140 140
126 126 126
109 109 109
88 88 88
88 88 88
92 92 92
132 132 132
161 161 161
122 122 122
123 123 123
144 144 144
158 158 158
143 143 143
175 175 175
150 150 150
170 170 170
103 103 103
85 85 85
33 33 33
3 3 3
2 2 2
2 2 2
2 2 2
2 2 2
2 2 2
4 4 4
50 50 50
38 38 38
38 38 38
39 39 39
31 31 31
35 35 35
25 25 25
69 69 69
42 42 42
21 21 21
26 26 26
22 22 22
74 74 74
88 88 88
90 90 90
88 88 88
88 88 88
88 88 88
89 89 89
104 104 104
127 127 127
131 131 131
115 115 115
138 138 138
149 149 149
118 118 118
110 110 110
89 89 89
87 87 87
87 87 87
90 90 90
138 138 138
185 185 185
157 157 157
158 158 158
143 143 143
203 203 203
172 172 172
171 171 171
179 179 179
108 108 108
84 84 84
31 31 31
2 2 2
2 2 2
2 2 2
2 2 2
2 2 2
2 2 2
4 4 4
49 49 49
38 38 38
38 38 38
40 40 40
34 34 34
32 32 32
26 26 26
69 69 69
42 42 42
21 21 21
26 26 26
19 19 19
55 55 55
84 84 84
90 90 90
88 88 88
88 88 88
88 88 88
89 89 89
108 108 108
128 128 128
134 134 134
110 110 110
120 120 120
125 125 125
115 115 115
100 100 100
90 90 90
88 88 88
87 87 87
88 88 88
88 88 88
98 98 98
138 138 138
190 190 190
196 196 196
201 201 201
181 181 181
207 207 207
201 201 201
118 118 118
73 73 73
20 20 20
2 2 2
2 2 2
2 2 2
2 2 2
2 2 2
2 2 2
0 0 0
0 0 0
0 0 0
0 0 0
0 0 0
0 0 0
0 0 0
0 0 0
0 0 0
0 0 0
0 0 0
0 0 0
0 0 0
0 0 0
0 0 0
0 0 0
0 0 0
0 0 0
0 0 0
0 0 0
0 0 0
0 0 0
0 0 0
0 0 0
0 0 0
0 0 0
0 0 0
0 0 0
0 0 0
0 0 0
0 0 0
0 0 0
0 0 0
0 0 0
0 0 0
0 0 0
0 0 0
0 0 0
0 0 0
0 0 0
0 0 0
0 0 0
0 0 0
0 0 0
0 0 0
0 0 0
0 0 0
0 0 0
0 0 0
0 0 0
