P3 
50 50 
255
0 0 0
0 0 0
0 0 0
0 0 0
0 0 0
0 0 0
0 0 0
0 0 0
0 0 0
0 0 0
0 0 0
0 0 0
0 0 0
0 0 0
0 0 0
0 0 0
0 0 0
0 0 0
0 0 0
0 0 0
0 0 0
0 0 0
0 0 0
0 0 0
0 0 0
0 0 0
0 0 0
0 0 0
0 0 0
0 0 0
0 0 0
0 0 0
0 0 0
0 0 0
0 0 0
0 0 0
0 0 0
0 0 0
0 0 0
0 0 0
0 0 0
0 0 0
0 0 0
0 0 0
0 0 0
0 0 0
0 0 0
0 0 0
0 0 0
0 0 0
2 2 2
2 2 2
2 2 2
2 2 2
2 2 2
2 2 2
2 2 2
2 2 2
3 3 3
3 3 3
3 3 3
3 3 3
3 3 3
7 7 7
7 7 7
9 9 9
12 12 12
8 8 8
12 12 12
10 10 10
23 23 23
33 33 33
46 46 46
55 55 55
70 70 70
73 73 73
72 72 72
74 74 74
57 57 57
40 40 40
30 30 30
18 18 18
21 21 21
21 21 21
34 34 34
27 27 27
28 28 28
17 17 17
33 33 33
15 15 15
29 29 29
47 47 47
66 66 66
25 25 25
27 27 27
39 39 39
21 21 21
37 37 37
71 71 71
21 21 21
2 2 2
2 2 2
2 2 2
2 2 2
2 2 2
2 2 2
2 2 2
2 2 2
3 3 3
3 3 3
3 3 3
3 3 3
4 4 4
6 6 6
8 8 8
9 9 9
10 10 10
16 16 16
53 53 53
82 82 82
98 98 98
124 124 124
144 144 144
163 163 163
185 185 185
191 191 191
188 188 188
177 177 177
155 155 155
137 137 137
122 122 122
101 101 101
84 84 84
62 62 62
31 31 31
32 32 32
31 31 31
21 21 21
35 35 35
16 16 16
37 37 37
47 47 47
65 65 65
41 41 41
23 23 23
39 39 39
24 24 24
37 37 37
70 70 70
21 21 21
2 2 2
2 2 2
2 2 2
2 2 2
2 2 2
2 2 2
2 2 2
2 2 2
3 3 3
3 3 3
3 3 3
3 3 3
3 3 3
4 4 4
4 4 4
12 12 12
50 50 50
85 85 85
129 129 129
184 184 184
178 178 178
183 183 183
179 179 179
183 183 183
197 197 197
199 199 199
194 194 194
193 193 193
189 189 189
183 183 183
186 186 186
183 183 183
183 183 183
146 146 146
97 97 97
62 62 62
35 35 35
21 21 21
29 29 29
20 20 20
31 31 31
45 45 45
65 65 65
46 46 46
31 31 31
43 43 43
27 27 27
38 38 38
71 71 71
21 21 21
2 2 2
2 2 2
2 2 2
2 2 2
2 2 2
2 2 2
2 2 2
2 2 2
2 2 2
3 3 3
3 3 3
4 4 4
4 4 4
4 4 4
26 26 26
74 74 74
114 114 114
181 181 181
183 183 183
184 184 184
179 179 179
184 184 184
184 184 184
197 197 197
183 183 183
199 199 199
192 192 192
186 186 186
191 191 191
180 180 180
175 175 175
176 176 176
174 174 174
178 178 178
189 189 189
148 148 148
97 97 97
47 47 47
24 24 24
27 27 27
27 27 27
46 46 46
64 64 64
35 35 35
40 40 40
43 43 43
30 30 30
37 37 37
71 71 71
21 21 21
2 2 2
2 2 2
2 2 2
2 2 2
2 2 2
2 2 2
2 2 2
2 2 2
2 2 2
3 3 3
4 4 4
4 4 4
4 4 4
26 26 26
77 77 77
130 130 130
174 174 174
176 176 176
185 185 185
183 183 183
183 183 183
187 187 187
191 191 191
186 186 186
184 184 184
197 197 197
190 190 190
179 179 179
182 182 182
175 175 175
177 177 177
182 182 182
170 170 170
171 171 171
183 183 183
182 182 182
190 190 190
125 125 125
65 65 65
34 34 34
20 20 20
47 47 47
64 64 64
26 26 26
46 46 46
49 49 49
31 31 31
37 37 37
71 71 71
22 22 22
2 2 2
2 2 2
2 2 2
2 2 2
2 2 2
2 2 2
2 2 2
2 2 2
3 3 3
3 3 3
4 4 4
4 4 4
12 12 12
75 75 75
153 153 153
181 181 181
183 183 183
185 185 185
185 185 185
185 185 185
188 188 188
191 191 191
182 182 182
177 177 177
183 183 183
195 195 195
173 173 173
172 172 172
174 174 174
172 172 172
172 172 172
176 176 176
173 173 173
174 174 174
169 169 169
177 177 177
189 189 189
188 188 188
137 137 137
73 73 73
31 31 31
49 49 49
64 64 64
28 28 28
40 40 40
45 45 45
31 31 31
38 38 38
71 71 71
21 21 21
2 2 2
2 2 2
2 2 2
2 2 2
2 2 2
2 2 2
2 2 2
2 2 2
2 2 2
3 3 3
4 4 4
5 5 5
47 47 47
149 149 149
179 179 179
186 186 186
182 182 182
184 184 184
183 183 183
190 190 190
196 196 196
176 176 176
170 170 170
175 175 175
183 183 183
190 190 190
174 174 174
174 174 174
173 173 173
173 173 173
168 168 168
167 167 167
172 172 172
174 174 174
169 169 169
166 166 166
176 176 176
175 175 175
179 179 179
129 129 129
69 69 69
52 52 52
64 64 64
24 24 24
25 25 25
46 46 46
39 39 39
38 38 38
72 72 72
22 22 22
2 2 2
2 2 2
2 2 2
2 2 2
2 2 2
2 2 2
2 2 2
3 3 3
5 5 5
3 3 3
4 4 4
36 36 36
122 122 122
176 176 176
184 184 184
180 180 180
181 181 181
176 176 176
176 176 176
182 182 182
183 183 183
173 173 173
174 174 174
171 171 171
169 169 169
182 182 182
180 180 180
167 167 167
169 169 169
170 170 170
165 165 165
171 171 171
172 172 172
169 169 169
164 164 164
166 166 166
174 174 174
168 168 168
167 167 167
168 168 168
102 102 102
54 54 54
64 64 64
27 27 27
28 28 28
46 46 46
43 43 43
38 38 38
71 71 71
21 21 21
2 2 2
2 2 2
2 2 2
2 2 2
2 2 2
2 2 2
2 2 2
7 7 7
12 12 12
8 8 8
16 16 16
90 90 90
176 176 176
169 169 169
180 180 180
176 176 176
171 171 171
176 176 176
174 174 174
173 173 173
175 175 175
170 170 170
183 183 183
183 183 183
175 175 175
167 167 167
167 167 167
168 168 168
175 175 175
185 185 185
175 175 175
176 176 176
175 175 175
166 166 166
160 160 160
165 165 165
172 172 172
169 169 169
175 175 175
177 177 177
175 175 175
69 69 69
63 63 63
34 34 34
41 41 41
44 44 44
43 43 43
37 37 37
72 72 72
22 22 22
2 2 2
2 2 2
2 2 2
2 2 2
2 2 2
2 2 2
2 2 2
5 5 5
10 10 10
9 9 9
42 42 42
150 150 150
176 176 176
176 176 176
173 173 173
173 173 173
168 168 168
183 183 183
179 179 179
175 175 175
163 163 163
174 174 174
168 168 168
169 169 169
172 172 172
181 181 181
176 176 176
167 167 167
163 163 163
162 162 162
163 163 163
173 173 173
175 175 175
167 167 167
163 163 163
171 171 171
167 167 167
171 171 171
160 160 160
162 162 162
179 179 179
113 113 113
62 62 62
48 48 48
52 52 52
47 47 47
50 50 50
37 37 37
72 72 72
22 22 22
2 2 2
2 2 2
2 2 2
2 2 2
2 2 2
2 2 2
2 2 2
10 10 10
12 12 12
17 17 17
87 87 87
177 177 177
172 172 172
168 168 168
175 175 175
162 162 162
167 167 167
164 164 164
164 164 164
164 164 164
171 171 171
154 154 154
160 160 160
189 189 189
175 175 175
171 171 171
172 172 172
162 162 162
174 174 174
179 179 179
174 174 174
174 174 174
177 177 177
173 173 173
175 175 175
182 182 182
164 164 164
170 170 170
163 163 163
173 173 173
178 178 178
169 169 169
63 63 63
51 51 51
49 49 49
39 39 39
52 52 52
38 38 38
72 72 72
22 22 22
2 2 2
2 2 2
2 2 2
2 2 2
2 2 2
2 2 2
2 2 2
11 11 11
9 9 9
27 27 27
106 106 106
174 174 174
177 177 177
165 165 165
170 170 170
178 178 178
156 156 156
163 163 163
153 153 153
174 174 174
162 162 162
161 161 161
175 175 175
178 178 178
155 155 155
165 165 165
171 171 171
155 155 155
166 166 166
165 165 165
165 165 165
162 162 162
172 172 172
167 167 167
176 176 176
171 171 171
172 172 172
164 164 164
186 186 186
174 174 174
173 173 173
169 169 169
87 87 87
44 44 44
42 42 42
38 38 38
52 52 52
38 38 38
71 71 71
21 21 21
2 2 2
2 2 2
2 2 2
2 2 2
2 2 2
2 2 2
2 2 2
12 12 12
9 9 9
53 53 53
138 138 138
175 175 175
181 181 181
167 167 167
162 162 162
159 159 159
164 164 164
169 169 169
147 147 147
182 182 182
162 162 162
158 158 158
166 166 166
169 169 169
172 172 172
168 168 168
165 165 165
164 164 164
172 172 172
164 164 164
173 173 173
176 176 176
187 187 187
169 169 169
176 176 176
189 189 189
166 166 166
168 168 168
169 169 169
167 167 167
171 171 171
173 173 173
110 110 110
50 50 50
43 43 43
40 40 40
52 52 52
38 38 38
70 70 70
21 21 21
2 2 2
2 2 2
2 2 2
2 2 2
2 2 2
2 2 2
2 2 2
15 15 15
23 23 23
81 81 81
170 170 170
163 163 163
156 156 156
155 155 155
160 160 160
149 149 149
179 179 179
159 159 159
152 152 152
164 164 164
156 156 156
156 156 156
170 170 170
161 161 161
148 148 148
159 159 159
160 160 160
150 150 150
158 158 158
170 170 170
158 158 158
165 165 165
173 173 173
165 165 165
163 163 163
164 164 164
175 175 175
169 169 169
172 172 172
174 174 174
190 190 190
188 188 188
143 143 143
61 61 61
43 43 43
49 49 49
52 52 52
38 38 38
73 73 73
21 21 21
2 2 2
2 2 2
2 2 2
2 2 2
2 2 2
2 2 2
5 5 5
22 22 22
52 52 52
143 143 143
165 165 165
171 171 171
141 141 141
156 156 156
166 166 166
154 154 154
168 168 168
154 154 154
151 151 151
159 159 159
147 147 147
150 150 150
168 168 168
147 147 147
164 164 164
181 181 181
181 181 181
167 167 167
166 166 166
176 176 176
164 164 164
155 155 155
175 175 175
163 163 163
157 157 157
163 163 163
164 164 164
171 171 171
169 169 169
181 181 181
187 187 187
176 176 176
178 178 178
72 72 72
45 45 45
51 51 51
52 52 52
39 39 39
73 73 73
22 22 22
2 2 2
2 2 2
2 2 2
2 2 2
2 2 2
3 3 3
11 11 11
32 32 32
87 87 87
181 181 181
165 165 165
157 157 157
138 138 138
189 189 189
149 149 149
165 165 165
189 189 189
146 146 146
139 139 139
152 152 152
146 146 146
141 141 141
168 168 168
160 160 160
166 166 166
173 173 173
159 159 159
163 163 163
169 169 169
171 171 171
160 160 160
163 163 163
164 164 164
166 166 166
163 163 163
171 171 171
159 159 159
175 175 175
171 171 171
174 174 174
178 178 178
177 177 177
175 175 175
95 95 95
47 47 47
47 47 47
53 53 53
39 39 39
73 73 73
22 22 22
2 2 2
2 2 2
2 2 2
2 2 2
3 3 3
3 3 3
9 9 9
33 33 33
118 118 118
167 167 167
154 154 154
154 154 154
141 141 141
177 177 177
158 158 158
163 163 163
173 173 173
141 141 141
129 129 129
151 151 151
152 152 152
142 142 142
166 166 166
173 173 173
145 145 145
167 167 167
157 157 157
169 169 169
173 173 173
166 166 166
155 155 155
161 161 161
164 164 164
172 172 172
165 165 165
171 171 171
163 163 163
173 173 173
171 171 171
170 170 170
174 174 174
174 174 174
180 180 180
108 108 108
48 48 48
46 46 46
54 54 54
38 38 38
74 74 74
22 22 22
2 2 2
2 2 2
2 2 2
3 3 3
3 3 3
3 3 3
5 5 5
33 33 33
123 123 123
171 171 171
142 142 142
144 144 144
116 116 116
137 137 137
175 175 175
165 165 165
141 141 141
150 150 150
134 134 134
153 153 153
165 165 165
148 148 148
171 171 171
171 171 171
143 143 143
165 165 165
162 162 162
172 172 172
175 175 175
168 168 168
169 169 169
168 168 168
167 167 167
171 171 171
163 163 163
170 170 170
165 165 165
174 174 174
177 177 177
169 169 169
177 177 177
178 178 178
176 176 176
121 121 121
50 50 50
46 46 46
54 54 54
39 39 39
74 74 74
22 22 22
2 2 2
2 2 2
2 2 2
3 3 3
3 3 3
4 4 4
5 5 5
32 32 32
114 114 114
159 159 159
135 135 135
125 125 125
115 115 115
137 137 137
164 164 164
167 167 167
160 160 160
161 161 161
152 152 152
159 159 159
171 171 171
163 163 163
183 183 183
164 164 164
151 151 151
159 159 159
165 165 165
169 169 169
174 174 174
172 172 172
179 179 179
179 179 179
179 179 179
169 169 169
165 165 165
167 167 167
166 166 166
165 165 165
178 178 178
175 175 175
178 178 178
189 189 189
173 173 173
132 132 132
57 57 57
49 49 49
53 53 53
38 38 38
74 74 74
22 22 22
2 2 2
2 2 2
2 2 2
2 2 2
3 3 3
3 3 3
4 4 4
31 31 31
93 93 93
163 163 163
152 152 152
148 148 148
124 124 124
126 126 126
152 152 152
155 155 155
167 167 167
158 158 158
149 149 149
164 164 164
169 169 169
166 166 166
189 189 189
154 154 154
146 146 146
157 157 157
166 166 166
163 163 163
172 172 172
175 175 175
174 174 174
178 178 178
186 186 186
171 171 171
166 166 166
170 170 170
170 170 170
173 173 173
178 178 178
176 176 176
182 182 182
187 187 187
182 182 182
138 138 138
55 55 55
52 52 52
54 54 54
39 39 39
74 74 74
22 22 22
2 2 2
2 2 2
2 2 2
3 3 3
3 3 3
4 4 4
17 17 17
54 54 54
125 125 125
155 155 155
141 141 141
141 141 141
134 134 134
141 141 141
166 166 166
136 136 136
164 164 164
155 155 155
151 151 151
166 166 166
155 155 155
160 160 160
192 192 192
156 156 156
138 138 138
148 148 148
156 156 156
147 147 147
175 175 175
181 181 181
180 180 180
163 163 163
176 176 176
169 169 169
167 167 167
170 170 170
171 171 171
174 174 174
183 183 183
177 177 177
184 184 184
180 180 180
186 186 186
136 136 136
56 56 56
51 51 51
54 54 54
38 38 38
74 74 74
23 23 23
2 2 2
3 3 3
3 3 3
3 3 3
3 3 3
14 14 14
68 68 68
122 122 122
116 116 116
135 135 135
148 148 148
133 133 133
115 115 115
126 126 126
140 140 140
126 126 126
175 175 175
143 143 143
134 134 134
153 153 153
144 144 144
164 164 164
193 193 193
152 152 152
144 144 144
161 161 161
149 149 149
145 145 145
175 175 175
177 177 177
181 181 181
166 166 166
175 175 175
175 175 175
167 167 167
173 173 173
169 169 169
181 181 181
185 185 185
176 176 176
191 191 191
185 185 185
184 184 184
136 136 136
59 59 59
48 48 48
52 52 52
38 38 38
75 75 75
23 23 23
2 2 2
3 3 3
4 4 4
3 3 3
7 7 7
51 51 51
97 97 97
89 89 89
101 101 101
137 137 137
154 154 154
131 131 131
100 100 100
135 135 135
122 122 122
121 121 121
176 176 176
137 137 137
116 116 116
124 124 124
131 131 131
164 164 164
194 194 194
153 153 153
149 149 149
175 175 175
151 151 151
148 148 148
167 167 167
171 171 171
177 177 177
170 170 170
179 179 179
182 182 182
168 168 168
175 175 175
168 168 168
184 184 184
183 183 183
176 176 176
194 194 194
188 188 188
181 181 181
126 126 126
56 56 56
48 48 48
50 50 50
38 38 38
74 74 74
22 22 22
2 2 2
3 3 3
3 3 3
3 3 3
30 30 30
79 79 79
79 79 79
82 82 82
101 101 101
137 137 137
168 168 168
128 128 128
108 108 108
116 116 116
119 119 119
141 141 141
148 148 148
148 148 148
112 112 112
106 106 106
123 123 123
159 159 159
198 198 198
161 161 161
152 152 152
175 175 175
154 154 154
147 147 147
153 153 153
158 158 158
161 161 161
170 170 170
186 186 186
188 188 188
174 174 174
174 174 174
172 172 172
179 179 179
184 184 184
170 170 170
185 185 185
191 191 191
186 186 186
129 129 129
52 52 52
45 45 45
45 45 45
38 38 38
74 74 74
22 22 22
2 2 2
3 3 3
3 3 3
10 10 10
53 53 53
85 85 85
83 83 83
74 74 74
136 136 136
140 140 140
159 159 159
116 116 116
94 94 94
114 114 114
125 125 125
142 142 142
160 160 160
138 138 138
114 114 114
120 120 120
133 133 133
142 142 142
202 202 202
165 165 165
156 156 156
182 182 182
161 161 161
150 150 150
158 158 158
155 155 155
161 161 161
167 167 167
190 190 190
194 194 194
165 165 165
169 169 169
174 174 174
185 185 185
184 184 184
170 170 170
179 179 179
178 178 178
182 182 182
133 133 133
51 51 51
39 39 39
43 43 43
38 38 38
75 75 75
22 22 22
2 2 2
2 2 2
7 7 7
45 45 45
81 81 81
80 80 80
88 88 88
102 102 102
121 121 121
159 159 159
133 133 133
123 123 123
101 101 101
105 105 105
132 132 132
136 136 136
140 140 140
129 129 129
113 113 113
131 131 131
138 138 138
130 130 130
188 188 188
170 170 170
158 158 158
188 188 188
162 162 162
148 148 148
164 164 164
159 159 159
172 172 172
164 164 164
186 186 186
192 192 192
150 150 150
172 172 172
174 174 174
176 176 176
183 183 183
183 183 183
182 182 182
174 174 174
178 178 178
139 139 139
44 44 44
37 37 37
45 45 45
37 37 37
75 75 75
22 22 22
2 2 2
3 3 3
14 14 14
73 73 73
84 84 84
81 81 81
86 86 86
102 102 102
137 137 137
167 167 167
127 127 127
139 139 139
91 91 91
102 102 102
137 137 137
143 143 143
144 144 144
136 136 136
113 113 113
130 130 130
124 124 124
130 130 130
181 181 181
173 173 173
158 158 158
187 187 187
156 156 156
140 140 140
165 165 165
165 165 165
171 171 171
164 164 164
188 188 188
189 189 189
151 151 151
174 174 174
172 172 172
168 168 168
182 182 182
181 181 181
185 185 185
173 173 173
181 181 181
145 145 145
41 41 41
36 36 36
45 45 45
37 37 37
74 74 74
22 22 22
2 2 2
19 19 19
70 70 70
74 74 74
75 75 75
68 68 68
82 82 82
154 154 154
146 146 146
132 132 132
165 165 165
139 139 139
128 128 128
145 145 145
142 142 142
139 139 139
154 154 154
140 140 140
119 119 119
122 122 122
131 131 131
130 130 130
159 159 159
181 181 181
180 180 180
160 160 160
182 182 182
182 182 182
179 179 179
167 167 167
147 147 147
176 176 176
193 193 193
172 172 172
156 156 156
178 178 178
184 184 184
166 166 166
194 194 194
167 167 167
183 183 183
180 180 180
188 188 188
117 117 117
40 40 40
45 45 45
42 42 42
37 37 37
76 76 76
23 23 23
2 2 2
24 24 24
76 76 76
78 78 78
76 76 76
77 77 77
80 80 80
124 124 124
145 145 145
132 132 132
152 152 152
118 118 118
97 97 97
151 151 151
130 130 130
143 143 143
149 149 149
143 143 143
124 124 124
150 150 150
133 133 133
194 194 194
170 170 170
182 182 182
169 169 169
205 205 205
210 210 210
201 201 201
163 163 163
160 160 160
164 164 164
177 177 177
171 171 171
167 167 167
159 159 159
184 184 184
167 167 167
174 174 174
195 195 195
175 175 175
168 168 168
177 177 177
181 181 181
81 81 81
44 44 44
46 46 46
38 38 38
36 36 36
75 75 75
23 23 23
2 2 2
12 12 12
60 60 60
75 75 75
66 66 66
72 72 72
80 80 80
96 96 96
150 150 150
139 139 139
142 142 142
116 116 116
121 121 121
131 131 131
118 118 118
142 142 142
154 154 154
173 173 173
158 158 158
142 142 142
154 154 154
173 173 173
198 198 198
175 175 175
160 160 160
190 190 190
175 175 175
161 161 161
155 155 155
175 175 175
167 167 167
168 168 168
161 161 161
171 171 171
190 190 190
184 184 184
179 179 179
191 191 191
199 199 199
193 193 193
184 184 184
181 181 181
159 159 159
68 68 68
44 44 44
43 43 43
40 40 40
34 34 34
77 77 77
24 24 24
2 2 2
2 2 2
9 9 9
45 45 45
59 59 59
77 77 77
84 84 84
99 99 99
155 155 155
141 141 141
144 144 144
91 91 91
99 99 99
120 120 120
142 142 142
144 144 144
146 146 146
136 136 136
151 151 151
145 145 145
167 167 167
187 187 187
198 198 198
185 185 185
178 178 178
196 196 196
170 170 170
148 148 148
172 172 172
166 166 166
172 172 172
188 188 188
192 192 192
169 169 169
171 171 171
207 207 207
182 182 182
175 175 175
190 190 190
183 183 183
191 191 191
193 193 193
124 124 124
48 48 48
38 38 38
36 36 36
37 37 37
33 33 33
78 78 78
24 24 24
2 2 2
2 2 2
3 3 3
4 4 4
40 40 40
88 88 88
97 97 97
108 108 108
129 129 129
119 119 119
103 103 103
96 96 96
97 97 97
108 108 108
129 129 129
109 109 109
112 112 112
113 113 113
122 122 122
149 149 149
138 138 138
156 156 156
157 157 157
159 159 159
154 154 154
191 191 191
194 194 194
190 190 190
183 183 183
184 184 184
177 177 177
175 175 175
185 185 185
182 182 182
187 187 187
195 195 195
186 186 186
196 196 196
193 193 193
184 184 184
192 192 192
178 178 178
67 67 67
27 27 27
37 37 37
39 39 39
34 34 34
33 33 33
78 78 78
25 25 25
2 2 2
3 3 3
3 3 3
3 3 3
32 32 32
81 81 81
93 93 93
111 111 111
118 118 118
128 128 128
130 130 130
128 128 128
136 136 136
119 119 119
122 122 122
87 87 87
116 116 116
117 117 117
116 116 116
136 136 136
192 192 192
138 138 138
136 136 136
130 130 130
128 128 128
185 185 185
193 193 193
182 182 182
188 188 188
186 186 186
178 178 178
189 189 189
203 203 203
175 175 175
196 196 196
209 209 209
192 192 192
191 191 191
198 198 198
186 186 186
202 202 202
117 117 117
53 53 53
23 23 23
29 29 29
37 37 37
30 30 30
33 33 33
78 78 78
25 25 25
2 2 2
3 3 3
3 3 3
3 3 3
35 35 35
84 84 84
108 108 108
144 144 144
133 133 133
150 150 150
128 128 128
119 119 119
124 124 124
117 117 117
109 109 109
101 101 101
137 137 137
135 135 135
110 110 110
137 137 137
198 198 198
163 163 163
148 148 148
131 131 131
139 139 139
187 187 187
186 186 186
180 180 180
171 171 171
184 184 184
196 196 196
183 183 183
195 195 195
207 207 207
206 206 206
204 204 204
200 200 200
198 198 198
198 198 198
203 203 203
150 150 150
63 63 63
51 51 51
23 23 23
27 27 27
38 38 38
29 29 29
33 33 33
77 77 77
25 25 25
2 2 2
2 2 2
3 3 3
3 3 3
52 52 52
104 104 104
173 173 173
185 185 185
165 165 165
143 143 143
141 141 141
140 140 140
147 147 147
181 181 181
182 182 182
160 160 160
129 129 129
133 133 133
105 105 105
138 138 138
166 166 166
157 157 157
169 169 169
162 162 162
153 153 153
180 180 180
185 185 185
178 178 178
173 173 173
194 194 194
184 184 184
181 181 181
188 188 188
203 203 203
194 194 194
196 196 196
200 200 200
209 209 209
205 205 205
129 129 129
76 76 76
61 61 61
48 48 48
25 25 25
24 24 24
38 38 38
30 30 30
32 32 32
77 77 77
26 26 26
2 2 2
2 2 2
3 3 3
4 4 4
61 61 61
129 129 129
234 234 234
177 177 177
167 167 167
187 187 187
210 210 210
167 167 167
180 180 180
225 225 225
197 197 197
184 184 184
128 128 128
128 128 128
104 104 104
133 133 133
137 137 137
140 140 140
143 143 143
163 163 163
155 155 155
194 194 194
195 195 195
187 187 187
183 183 183
188 188 188
177 177 177
189 189 189
187 187 187
189 189 189
197 197 197
192 192 192
193 193 193
155 155 155
129 129 129
73 73 73
36 36 36
61 61 61
48 48 48
27 27 27
25 25 25
38 38 38
29 29 29
31 31 31
77 77 77
26 26 26
4 4 4
6 6 6
10 10 10
12 12 12
52 52 52
177 177 177
208 208 208
170 170 170
154 154 154
191 191 191
226 226 226
214 214 214
167 167 167
231 231 231
147 147 147
135 135 135
121 121 121
147 147 147
105 105 105
114 114 114
141 141 141
164 164 164
135 135 135
197 197 197
174 174 174
184 184 184
180 180 180
159 159 159
168 168 168
173 173 173
189 189 189
173 173 173
180 180 180
177 177 177
190 190 190
148 148 148
99 99 99
91 91 91
81 81 81
38 38 38
37 37 37
60 60 60
47 47 47
34 34 34
22 22 22
38 38 38
26 26 26
31 31 31
77 77 77
27 27 27
8 8 8
15 15 15
27 27 27
35 35 35
68 68 68
220 220 220
178 178 178
99 99 99
188 188 188
198 198 198
184 184 184
180 180 180
217 217 217
174 174 174
205 205 205
147 147 147
130 130 130
122 122 122
114 114 114
128 128 128
192 192 192
164 164 164
142 142 142
152 152 152
137 137 137
168 168 168
150 150 150
155 155 155
166 166 166
183 183 183
180 180 180
146 146 146
135 135 135
131 131 131
105 105 105
92 92 92
91 91 91
87 87 87
50 50 50
24 24 24
34 34 34
61 61 61
45 45 45
42 42 42
22 22 22
36 36 36
28 28 28
29 29 29
76 76 76
27 27 27
2 2 2
2 2 2
2 2 2
3 3 3
18 18 18
44 44 44
42 42 42
83 83 83
95 95 95
113 113 113
97 97 97
102 102 102
107 107 107
144 144 144
166 166 166
129 129 129
151 151 151
91 91 91
128 128 128
154 154 154
154 154 154
163 163 163
140 140 140
159 159 159
127 127 127
157 157 157
174 174 174
127 127 127
125 125 125
90 90 90
90 90 90
89 89 89
89 89 89
88 88 88
89 89 89
89 89 89
89 89 89
85 85 85
34 34 34
16 16 16
31 31 31
60 60 60
43 43 43
45 45 45
24 24 24
40 40 40
29 29 29
30 30 30
74 74 74
27 27 27
3 3 3
7 7 7
9 9 9
11 11 11
22 22 22
62 62 62
117 117 117
154 154 154
171 171 171
158 158 158
152 152 152
190 190 190
160 160 160
203 203 203
202 202 202
194 194 194
202 202 202
132 132 132
125 125 125
103 103 103
149 149 149
140 140 140
143 143 143
169 169 169
164 164 164
161 161 161
150 150 150
158 158 158
125 125 125
90 90 90
88 88 88
89 89 89
89 89 89
91 91 91
91 91 91
89 89 89
85 85 85
57 57 57
39 39 39
17 17 17
27 27 27
60 60 60
58 58 58
44 44 44
30 30 30
38 38 38
29 29 29
35 35 35
67 67 67
25 25 25
3 3 3
6 6 6
10 10 10
16 16 16
28 28 28
100 100 100
166 166 166
223 223 223
198 198 198
169 169 169
121 121 121
182 182 182
174 174 174
192 192 192
175 175 175
201 201 201
223 223 223
171 171 171
122 122 122
113 113 113
117 117 117
164 164 164
158 158 158
131 131 131
132 132 132
117 117 117
145 145 145
156 156 156
109 109 109
88 88 88
89 89 89
89 89 89
89 89 89
89 89 89
90 90 90
89 89 89
85 85 85
40 40 40
39 39 39
19 19 19
22 22 22
54 54 54
48 48 48
35 35 35
42 42 42
34 34 34
29 29 29
36 36 36
83 83 83
30 30 30
2 2 2
3 3 3
3 3 3
3 3 3
15 15 15
73 73 73
128 128 128
177 177 177
198 198 198
215 215 215
133 133 133
127 127 127
177 177 177
168 168 168
197 197 197
186 186 186
192 192 192
171 171 171
139 139 139
135 135 135
124 124 124
132 132 132
132 132 132
145 145 145
143 143 143
104 104 104
101 101 101
129 129 129
130 130 130
100 100 100
88 88 88
89 89 89
88 88 88
88 88 88
89 89 89
85 85 85
64 64 64
24 24 24
35 35 35
16 16 16
25 25 25
59 59 59
42 42 42
28 28 28
49 49 49
35 35 35
29 29 29
27 27 27
77 77 77
30 30 30
2 2 2
2 2 2
2 2 2
2 2 2
4 4 4
53 53 53
91 91 91
172 172 172
183 183 183
195 195 195
165 165 165
174 174 174
121 121 121
134 134 134
167 167 167
195 195 195
159 159 159
153 153 153
150 150 150
146 146 146
138 138 138
129 129 129
121 121 121
133 133 133
139 139 139
160 160 160
129 129 129
123 123 123
103 103 103
109 109 109
95 95 95
89 89 89
89 89 89
89 89 89
89 89 89
84 84 84
56 56 56
19 19 19
34 34 34
15 15 15
28 28 28
58 58 58
39 39 39
21 21 21
47 47 47
38 38 38
32 32 32
27 27 27
77 77 77
30 30 30
2 2 2
2 2 2
2 2 2
2 2 2
2 2 2
39 39 39
83 83 83
120 120 120
157 157 157
171 171 171
153 153 153
162 162 162
129 129 129
147 147 147
145 145 145
140 140 140
125 125 125
148 148 148
164 164 164
169 169 169
145 145 145
112 112 112
123 123 123
124 124 124
121 121 121
131 131 131
120 120 120
113 113 113
113 113 113
109 109 109
95 95 95
89 89 89
89 89 89
89 89 89
89 89 89
86 86 86
37 37 37
17 17 17
36 36 36
19 19 19
23 23 23
57 57 57
37 37 37
19 19 19
42 42 42
40 40 40
36 36 36
27 27 27
77 77 77
31 31 31
2 2 2
2 2 2
2 2 2
2 2 2
2 2 2
39 39 39
85 85 85
107 107 107
150 150 150
140 140 140
170 170 170
162 162 162
126 126 126
163 163 163
132 132 132
129 129 129
133 133 133
147 147 147
145 145 145
117 117 117
89 89 89
105 105 105
128 128 128
130 130 130
130 130 130
121 121 121
118 118 118
137 137 137
105 105 105
88 88 88
89 89 89
89 89 89
88 88 88
89 89 89
90 90 90
83 83 83
31 31 31
17 17 17
38 38 38
17 17 17
23 23 23
57 57 57
36 36 36
22 22 22
35 35 35
41 41 41
38 38 38
28 28 28
74 74 74
31 31 31
2 2 2
2 2 2
2 2 2
2 2 2
3 3 3
45 45 45
85 85 85
112 112 112
159 159 159
178 178 178
172 172 172
161 161 161
161 161 161
160 160 160
130 130 130
152 152 152
197 197 197
130 130 130
88 88 88
88 88 88
88 88 88
111 111 111
128 128 128
131 131 131
139 139 139
144 144 144
125 125 125
144 144 144
90 90 90
88 88 88
89 89 89
89 89 89
89 89 89
90 90 90
89 89 89
86 86 86
34 34 34
16 16 16
40 40 40
20 20 20
24 24 24
56 56 56
36 36 36
24 24 24
29 29 29
41 41 41
40 40 40
30 30 30
73 73 73
31 31 31
2 2 2
2 2 2
2 2 2
2 2 2
3 3 3
45 45 45
84 84 84
114 114 114
177 177 177
182 182 182
184 184 184
185 185 185
190 190 190
156 156 156
208 208 208
157 157 157
95 95 95
88 88 88
87 87 87
88 88 88
89 89 89
112 112 112
103 103 103
116 116 116
152 152 152
156 156 156
128 128 128
124 124 124
107 107 107
89 89 89
89 89 89
89 89 89
89 89 89
89 89 89
89 89 89
86 86 86
42 42 42
18 18 18
39 39 39
20 20 20
21 21 21
56 56 56
36 36 36
20 20 20
25 25 25
40 40 40
40 40 40
30 30 30
73 73 73
31 31 31
2 2 2
2 2 2
2 2 2
2 2 2
3 3 3
40 40 40
81 81 81
141 141 141
191 191 191
201 201 201
201 201 201
186 186 186
185 185 185
202 202 202
113 113 113
88 88 88
88 88 88
88 88 88
87 87 87
88 88 88
89 89 89
105 105 105
103 103 103
128 128 128
133 133 133
128 128 128
122 122 122
129 129 129
113 113 113
93 93 93
88 88 88
89 89 89
89 89 89
89 89 89
89 89 89
85 85 85
37 37 37
15 15 15
38 38 38
21 21 21
21 21 21
55 55 55
34 34 34
20 20 20
25 25 25
38 38 38
40 40 40
30 30 30
73 73 73
31 31 31
0 0 0
0 0 0
0 0 0
0 0 0
0 0 0
0 0 0
0 0 0
0 0 0
0 0 0
0 0 0
0 0 0
0 0 0
0 0 0
0 0 0
0 0 0
0 0 0
0 0 0
0 0 0
0 0 0
0 0 0
0 0 0
0 0 0
0 0 0
0 0 0
0 0 0
0 0 0
0 0 0
0 0 0
0 0 0
0 0 0
0 0 0
0 0 0
0 0 0
0 0 0
0 0 0
0 0 0
0 0 0
0 0 0
0 0 0
0 0 0
0 0 0
0 0 0
0 0 0
0 0 0
0 0 0
0 0 0
0 0 0
0 0 0
0 0 0
0 0 0
