P3 
50 50 
255
0 0 0
0 0 0
0 0 0
0 0 0
0 0 0
0 0 0
0 0 0
0 0 0
0 0 0
0 0 0
0 0 0
0 0 0
0 0 0
0 0 0
0 0 0
0 0 0
0 0 0
0 0 0
0 0 0
0 0 0
0 0 0
0 0 0
0 0 0
0 0 0
0 0 0
0 0 0
0 0 0
0 0 0
0 0 0
0 0 0
0 0 0
0 0 0
0 0 0
0 0 0
0 0 0
0 0 0
0 0 0
0 0 0
0 0 0
0 0 0
0 0 0
0 0 0
0 0 0
0 0 0
0 0 0
0 0 0
0 0 0
0 0 0
0 0 0
0 0 0
6 6 6
59 59 59
71 71 71
41 41 41
24 24 24
26 26 26
24 24 24
31 31 31
16 16 16
16 16 16
25 25 25
27 27 27
38 38 38
57 57 57
52 52 52
32 32 32
32 32 32
49 49 49
62 62 62
73 73 73
73 73 73
73 73 73
71 71 71
57 57 57
45 45 45
31 31 31
22 22 22
18 18 18
15 15 15
24 24 24
12 12 12
11 11 11
7 7 7
6 6 6
5 5 5
4 4 4
4 4 4
4 4 4
3 3 3
3 3 3
3 3 3
3 3 3
2 2 2
2 2 2
2 2 2
2 2 2
2 2 2
2 2 2
2 2 2
2 2 2
6 6 6
57 57 57
69 69 69
39 39 39
25 25 25
27 27 27
28 28 28
23 23 23
22 22 22
31 31 31
36 36 36
23 23 23
38 38 38
57 57 57
80 80 80
96 96 96
115 115 115
132 132 132
152 152 152
178 178 178
188 188 188
192 192 192
188 188 188
165 165 165
148 148 148
128 128 128
101 101 101
79 79 79
40 40 40
16 16 16
11 11 11
13 13 13
8 8 8
7 7 7
7 7 7
4 4 4
4 4 4
4 4 4
3 3 3
3 3 3
3 3 3
2 2 2
2 2 2
2 2 2
2 2 2
1 1 1
1 1 1
2 2 2
2 2 2
2 2 2
6 6 6
56 56 56
69 69 69
39 39 39
34 34 34
36 36 36
31 31 31
21 21 21
38 38 38
40 40 40
40 40 40
62 62 62
93 93 93
133 133 133
182 182 182
183 183 183
189 189 189
193 193 193
189 189 189
196 196 196
190 190 190
186 186 186
192 192 192
205 205 205
187 187 187
179 179 179
187 187 187
188 188 188
126 126 126
75 75 75
30 30 30
12 12 12
11 11 11
10 10 10
8 8 8
5 5 5
4 4 4
4 4 4
3 3 3
3 3 3
2 2 2
2 2 2
2 2 2
2 2 2
2 2 2
2 2 2
2 2 2
2 2 2
2 2 2
2 2 2
6 6 6
56 56 56
69 69 69
39 39 39
32 32 32
27 27 27
31 31 31
32 32 32
38 38 38
40 40 40
81 81 81
131 131 131
167 167 167
190 190 190
183 183 183
184 184 184
183 183 183
177 177 177
192 192 192
195 195 195
176 176 176
178 178 178
179 179 179
184 184 184
190 190 190
199 199 199
185 185 185
179 179 179
182 182 182
167 167 167
94 94 94
51 51 51
10 10 10
10 10 10
8 8 8
5 5 5
4 4 4
4 4 4
3 3 3
3 3 3
2 2 2
2 2 2
2 2 2
2 2 2
2 2 2
2 2 2
2 2 2
2 2 2
2 2 2
2 2 2
6 6 6
58 58 58
69 69 69
39 39 39
37 37 37
39 39 39
23 23 23
40 40 40
62 62 62
96 96 96
153 153 153
172 172 172
189 189 189
180 180 180
178 178 178
176 176 176
176 176 176
174 174 174
192 192 192
193 193 193
174 174 174
179 179 179
175 175 175
181 181 181
181 181 181
186 186 186
195 195 195
194 194 194
185 185 185
179 179 179
186 186 186
117 117 117
57 57 57
8 8 8
6 6 6
5 5 5
4 4 4
4 4 4
3 3 3
3 3 3
3 3 3
3 3 3
2 2 2
2 2 2
2 2 2
2 2 2
2 2 2
2 2 2
2 2 2
2 2 2
6 6 6
60 60 60
69 69 69
39 39 39
28 28 28
33 33 33
34 34 34
66 66 66
106 106 106
165 165 165
185 185 185
190 190 190
183 183 183
178 178 178
173 173 173
171 171 171
169 169 169
171 171 171
184 184 184
183 183 183
177 177 177
174 174 174
174 174 174
176 176 176
176 176 176
176 176 176
177 177 177
184 184 184
184 184 184
184 184 184
185 185 185
187 187 187
137 137 137
53 53 53
6 6 6
7 7 7
4 4 4
4 4 4
3 3 3
3 3 3
2 2 2
2 2 2
2 2 2
2 2 2
2 2 2
2 2 2
2 2 2
2 2 2
2 2 2
2 2 2
6 6 6
63 63 63
70 70 70
39 39 39
36 36 36
27 27 27
70 70 70
104 104 104
170 170 170
177 177 177
183 183 183
180 180 180
172 172 172
168 168 168
169 169 169
168 168 168
167 167 167
170 170 170
192 192 192
184 184 184
176 176 176
173 173 173
174 174 174
174 174 174
177 177 177
175 175 175
176 176 176
177 177 177
186 186 186
191 191 191
180 180 180
184 184 184
187 187 187
133 133 133
42 42 42
7 7 7
5 5 5
4 4 4
3 3 3
3 3 3
2 2 2
2 2 2
2 2 2
2 2 2
2 2 2
2 2 2
2 2 2
2 2 2
2 2 2
2 2 2
6 6 6
65 65 65
70 70 70
39 39 39
32 32 32
66 66 66
97 97 97
163 163 163
174 174 174
161 161 161
166 166 166
170 170 170
170 170 170
161 161 161
163 163 163
173 173 173
162 162 162
167 167 167
185 185 185
180 180 180
170 170 170
174 174 174
172 172 172
173 173 173
176 176 176
179 179 179
178 178 178
175 175 175
183 183 183
183 183 183
173 173 173
181 181 181
182 182 182
176 176 176
114 114 114
15 15 15
5 5 5
4 4 4
3 3 3
3 3 3
3 3 3
2 2 2
2 2 2
2 2 2
2 2 2
2 2 2
2 2 2
2 2 2
2 2 2
2 2 2
6 6 6
67 67 67
70 70 70
38 38 38
48 48 48
85 85 85
149 149 149
169 169 169
175 175 175
169 169 169
180 180 180
181 181 181
171 171 171
167 167 167
161 161 161
164 164 164
177 177 177
167 167 167
164 164 164
169 169 169
173 173 173
178 178 178
172 172 172
176 176 176
177 177 177
176 176 176
175 175 175
182 182 182
176 176 176
172 172 172
180 180 180
180 180 180
174 174 174
177 177 177
160 160 160
57 57 57
11 11 11
11 11 11
14 14 14
6 6 6
2 2 2
2 2 2
2 2 2
2 2 2
2 2 2
1 1 1
2 2 2
2 2 2
2 2 2
2 2 2
6 6 6
67 67 67
69 69 69
39 39 39
72 72 72
123 123 123
175 175 175
168 168 168
159 159 159
164 164 164
166 166 166
171 171 171
174 174 174
169 169 169
169 169 169
158 158 158
150 150 150
156 156 156
174 174 174
187 187 187
174 174 174
176 176 176
168 168 168
168 168 168
174 174 174
174 174 174
164 164 164
160 160 160
167 167 167
163 163 163
172 172 172
176 176 176
173 173 173
175 175 175
184 184 184
105 105 105
22 22 22
29 29 29
18 18 18
17 17 17
2 2 2
2 2 2
2 2 2
2 2 2
2 2 2
1 1 1
2 2 2
2 2 2
2 2 2
2 2 2
6 6 6
69 69 69
69 69 69
39 39 39
93 93 93
163 163 163
161 161 161
163 163 163
162 162 162
176 176 176
178 178 178
176 176 176
174 174 174
174 174 174
159 159 159
160 160 160
168 168 168
154 154 154
159 159 159
164 164 164
170 170 170
164 164 164
178 178 178
179 179 179
175 175 175
175 175 175
173 173 173
178 178 178
174 174 174
169 169 169
164 164 164
190 190 190
175 175 175
174 174 174
174 174 174
142 142 142
29 29 29
21 21 21
36 36 36
15 15 15
2 2 2
2 2 2
2 2 2
2 2 2
2 2 2
2 2 2
2 2 2
2 2 2
2 2 2
2 2 2
6 6 6
69 69 69
68 68 68
55 55 55
132 132 132
175 175 175
177 177 177
176 176 176
164 164 164
162 162 162
164 164 164
170 170 170
157 157 157
169 169 169
162 162 162
173 173 173
159 159 159
165 165 165
157 157 157
166 166 166
163 163 163
170 170 170
170 170 170
166 166 166
175 175 175
174 174 174
177 177 177
169 169 169
165 165 165
172 172 172
174 174 174
165 165 165
175 175 175
174 174 174
171 171 171
183 183 183
51 51 51
13 13 13
16 16 16
8 8 8
3 3 3
2 2 2
2 2 2
2 2 2
2 2 2
2 2 2
2 2 2
2 2 2
2 2 2
2 2 2
6 6 6
70 70 70
69 69 69
70 70 70
159 159 159
176 176 176
164 164 164
170 170 170
167 167 167
171 171 171
166 166 166
176 176 176
169 169 169
159 159 159
163 163 163
171 171 171
162 162 162
174 174 174
169 169 169
159 159 159
173 173 173
143 143 143
170 170 170
185 185 185
175 175 175
173 173 173
186 186 186
176 176 176
160 160 160
170 170 170
165 165 165
157 157 157
156 156 156
158 158 158
166 166 166
182 182 182
98 98 98
18 18 18
24 24 24
26 26 26
3 3 3
3 3 3
3 3 3
3 3 3
2 2 2
2 2 2
2 2 2
2 2 2
2 2 2
2 2 2
6 6 6
71 71 71
68 68 68
94 94 94
179 179 179
165 165 165
183 183 183
181 181 181
186 186 186
175 175 175
172 172 172
170 170 170
171 171 171
164 164 164
171 171 171
163 163 163
159 159 159
168 168 168
168 168 168
170 170 170
170 170 170
155 155 155
171 171 171
161 161 161
147 147 147
184 184 184
175 175 175
169 169 169
165 165 165
159 159 159
161 161 161
158 158 158
136 136 136
156 156 156
151 151 151
168 168 168
147 147 147
37 37 37
19 19 19
14 14 14
5 5 5
4 4 4
4 4 4
3 3 3
3 3 3
2 2 2
2 2 2
2 2 2
2 2 2
2 2 2
6 6 6
71 71 71
67 67 67
108 108 108
167 167 167
183 183 183
180 180 180
179 179 179
184 184 184
174 174 174
181 181 181
165 165 165
168 168 168
169 169 169
163 163 163
162 162 162
162 162 162
166 166 166
161 161 161
171 171 171
157 157 157
165 165 165
171 171 171
149 149 149
147 147 147
179 179 179
171 171 171
163 163 163
171 171 171
170 170 170
161 161 161
145 145 145
162 162 162
149 149 149
142 142 142
154 154 154
163 163 163
72 72 72
14 14 14
5 5 5
5 5 5
5 5 5
4 4 4
3 3 3
3 3 3
3 3 3
3 3 3
2 2 2
2 2 2
2 2 2
6 6 6
72 72 72
68 68 68
145 145 145
170 170 170
172 172 172
159 159 159
172 172 172
165 165 165
166 166 166
173 173 173
172 172 172
164 164 164
164 164 164
169 169 169
167 167 167
157 157 157
175 175 175
156 156 156
161 161 161
155 155 155
170 170 170
175 175 175
151 151 151
154 154 154
170 170 170
162 162 162
156 156 156
168 168 168
166 166 166
161 161 161
139 139 139
123 123 123
152 152 152
159 159 159
154 154 154
188 188 188
121 121 121
36 36 36
4 4 4
4 4 4
4 4 4
4 4 4
3 3 3
3 3 3
3 3 3
3 3 3
3 3 3
2 2 2
2 2 2
7 7 7
72 72 72
68 68 68
164 164 164
172 172 172
167 167 167
161 161 161
163 163 163
157 157 157
160 160 160
169 169 169
184 184 184
162 162 162
178 178 178
170 170 170
164 164 164
165 165 165
170 170 170
163 163 163
169 169 169
152 152 152
167 167 167
173 173 173
153 153 153
159 159 159
165 165 165
164 164 164
161 161 161
161 161 161
172 172 172
171 171 171
157 157 157
132 132 132
124 124 124
171 171 171
149 149 149
174 174 174
164 164 164
55 55 55
5 5 5
4 4 4
4 4 4
4 4 4
4 4 4
3 3 3
3 3 3
3 3 3
3 3 3
2 2 2
2 2 2
7 7 7
73 73 73
71 71 71
167 167 167
173 173 173
171 171 171
170 170 170
168 168 168
158 158 158
157 157 157
165 165 165
181 181 181
170 170 170
178 178 178
171 171 171
166 166 166
163 163 163
174 174 174
167 167 167
180 180 180
154 154 154
166 166 166
172 172 172
146 146 146
156 156 156
162 162 162
171 171 171
169 169 169
167 167 167
174 174 174
188 188 188
146 146 146
156 156 156
132 132 132
141 141 141
132 132 132
142 142 142
192 192 192
93 93 93
6 6 6
3 3 3
4 4 4
4 4 4
4 4 4
3 3 3
3 3 3
3 3 3
3 3 3
3 3 3
2 2 2
7 7 7
74 74 74
84 84 84
167 167 167
175 175 175
169 169 169
189 189 189
182 182 182
166 166 166
155 155 155
161 161 161
174 174 174
168 168 168
181 181 181
169 169 169
168 168 168
163 163 163
175 175 175
170 170 170
185 185 185
153 153 153
167 167 167
173 173 173
147 147 147
161 161 161
175 175 175
178 178 178
177 177 177
189 189 189
177 177 177
184 184 184
159 159 159
161 161 161
151 151 151
126 126 126
138 138 138
139 139 139
163 163 163
140 140 140
16 16 16
4 4 4
3 3 3
4 4 4
3 3 3
3 3 3
3 3 3
3 3 3
3 3 3
3 3 3
2 2 2
7 7 7
73 73 73
95 95 95
179 179 179
176 176 176
180 180 180
185 185 185
181 181 181
173 173 173
161 161 161
161 161 161
177 177 177
181 181 181
185 185 185
173 173 173
167 167 167
166 166 166
178 178 178
172 172 172
187 187 187
157 157 157
168 168 168
174 174 174
142 142 142
163 163 163
181 181 181
175 175 175
174 174 174
194 194 194
179 179 179
167 167 167
155 155 155
145 145 145
160 160 160
146 146 146
168 168 168
138 138 138
156 156 156
136 136 136
19 19 19
3 3 3
3 3 3
3 3 3
3 3 3
3 3 3
3 3 3
3 3 3
3 3 3
3 3 3
2 2 2
7 7 7
74 74 74
94 94 94
178 178 178
178 178 178
179 179 179
176 176 176
162 162 162
187 187 187
173 173 173
170 170 170
181 181 181
189 189 189
186 186 186
175 175 175
165 165 165
168 168 168
180 180 180
173 173 173
187 187 187
155 155 155
164 164 164
179 179 179
143 143 143
162 162 162
183 183 183
162 162 162
156 156 156
197 197 197
183 183 183
145 145 145
133 133 133
131 131 131
156 156 156
143 143 143
154 154 154
126 126 126
146 146 146
113 113 113
9 9 9
3 3 3
4 4 4
3 3 3
3 3 3
3 3 3
3 3 3
3 3 3
3 3 3
3 3 3
2 2 2
7 7 7
73 73 73
83 83 83
176 176 176
175 175 175
172 172 172
170 170 170
156 156 156
185 185 185
173 173 173
171 171 171
184 184 184
194 194 194
188 188 188
176 176 176
170 170 170
167 167 167
187 187 187
169 169 169
181 181 181
161 161 161
169 169 169
182 182 182
143 143 143
162 162 162
189 189 189
164 164 164
157 157 157
197 197 197
178 178 178
124 124 124
126 126 126
122 122 122
135 135 135
113 113 113
164 164 164
131 131 131
147 147 147
89 89 89
15 15 15
4 4 4
3 3 3
3 3 3
3 3 3
3 3 3
3 3 3
3 3 3
3 3 3
3 3 3
2 2 2
7 7 7
73 73 73
77 77 77
172 172 172
178 178 178
176 176 176
160 160 160
163 163 163
184 184 184
167 167 167
176 176 176
188 188 188
195 195 195
185 185 185
177 177 177
173 173 173
175 175 175
190 190 190
162 162 162
175 175 175
166 166 166
167 167 167
185 185 185
147 147 147
160 160 160
191 191 191
165 165 165
163 163 163
198 198 198
171 171 171
119 119 119
125 125 125
129 129 129
127 127 127
107 107 107
110 110 110
117 117 117
154 154 154
96 96 96
37 37 37
4 4 4
4 4 4
3 3 3
3 3 3
3 3 3
3 3 3
3 3 3
3 3 3
3 3 3
3 3 3
7 7 7
74 74 74
71 71 71
165 165 165
177 177 177
179 179 179
152 152 152
167 167 167
174 174 174
168 168 168
177 177 177
193 193 193
190 190 190
174 174 174
182 182 182
174 174 174
172 172 172
177 177 177
159 159 159
173 173 173
168 168 168
166 166 166
184 184 184
149 149 149
159 159 159
189 189 189
170 170 170
169 169 169
190 190 190
153 153 153
108 108 108
122 122 122
126 126 126
129 129 129
103 103 103
110 110 110
128 128 128
148 148 148
115 115 115
74 74 74
19 19 19
4 4 4
3 3 3
3 3 3
3 3 3
3 3 3
3 3 3
3 3 3
3 3 3
2 2 2
7 7 7
74 74 74
68 68 68
163 163 163
182 182 182
168 168 168
162 162 162
158 158 158
177 177 177
174 174 174
175 175 175
188 188 188
181 181 181
161 161 161
182 182 182
173 173 173
151 151 151
171 171 171
166 166 166
166 166 166
173 173 173
166 166 166
172 172 172
159 159 159
155 155 155
181 181 181
176 176 176
168 168 168
170 170 170
132 132 132
117 117 117
111 111 111
113 113 113
149 149 149
132 132 132
103 103 103
125 125 125
155 155 155
141 141 141
84 84 84
35 35 35
4 4 4
4 4 4
3 3 3
3 3 3
3 3 3
3 3 3
3 3 3
3 3 3
3 3 3
6 6 6
73 73 73
68 68 68
147 147 147
185 185 185
170 170 170
170 170 170
160 160 160
178 178 178
180 180 180
177 177 177
180 180 180
181 181 181
151 151 151
170 170 170
169 169 169
155 155 155
188 188 188
178 178 178
169 169 169
175 175 175
158 158 158
153 153 153
161 161 161
153 153 153
163 163 163
186 186 186
162 162 162
149 149 149
115 115 115
133 133 133
122 122 122
138 138 138
138 138 138
117 117 117
114 114 114
116 116 116
149 149 149
140 140 140
77 77 77
78 78 78
17 17 17
4 4 4
3 3 3
3 3 3
3 3 3
3 3 3
3 3 3
3 3 3
2 2 2
6 6 6
73 73 73
68 68 68
143 143 143
187 187 187
171 171 171
169 169 169
163 163 163
180 180 180
185 185 185
174 174 174
177 177 177
182 182 182
158 158 158
164 164 164
169 169 169
157 157 157
192 192 192
175 175 175
175 175 175
180 180 180
154 154 154
143 143 143
163 163 163
153 153 153
156 156 156
188 188 188
161 161 161
149 149 149
141 141 141
133 133 133
120 120 120
136 136 136
115 115 115
132 132 132
109 109 109
104 104 104
133 133 133
142 142 142
107 107 107
83 83 83
34 34 34
4 4 4
4 4 4
3 3 3
3 3 3
3 3 3
3 3 3
3 3 3
2 2 2
6 6 6
73 73 73
67 67 67
133 133 133
186 186 186
174 174 174
177 177 177
179 179 179
185 185 185
176 176 176
180 180 180
175 175 175
185 185 185
175 175 175
161 161 161
156 156 156
140 140 140
156 156 156
151 151 151
181 181 181
153 153 153
157 157 157
159 159 159
164 164 164
153 153 153
187 187 187
198 198 198
158 158 158
136 136 136
158 158 158
164 164 164
161 161 161
135 135 135
91 91 91
142 142 142
93 93 93
110 110 110
140 140 140
148 148 148
123 123 123
72 72 72
70 70 70
15 15 15
3 3 3
3 3 3
3 3 3
3 3 3
3 3 3
3 3 3
2 2 2
6 6 6
72 72 72
63 63 63
95 95 95
179 179 179
169 169 169
183 183 183
164 164 164
176 176 176
166 166 166
186 186 186
174 174 174
180 180 180
173 173 173
158 158 158
149 149 149
144 144 144
173 173 173
193 193 193
174 174 174
183 183 183
168 168 168
165 165 165
143 143 143
154 154 154
208 208 208
202 202 202
144 144 144
161 161 161
169 169 169
178 178 178
158 158 158
157 157 157
128 128 128
125 125 125
98 98 98
118 118 118
143 143 143
162 162 162
130 130 130
72 72 72
83 83 83
27 27 27
3 3 3
3 3 3
3 3 3
3 3 3
3 3 3
3 3 3
2 2 2
6 6 6
72 72 72
64 64 64
59 59 59
151 151 151
186 186 186
178 178 178
185 185 185
171 171 171
167 167 167
183 183 183
193 193 193
173 173 173
180 180 180
169 169 169
176 176 176
167 167 167
196 196 196
179 179 179
185 185 185
200 200 200
174 174 174
183 183 183
175 175 175
187 187 187
191 191 191
156 156 156
143 143 143
170 170 170
171 171 171
141 141 141
140 140 140
152 152 152
145 145 145
102 102 102
93 93 93
108 108 108
142 142 142
166 166 166
122 122 122
79 79 79
62 62 62
14 14 14
3 3 3
3 3 3
3 3 3
3 3 3
3 3 3
3 3 3
2 2 2
6 6 6
72 72 72
64 64 64
40 40 40
97 97 97
196 196 196
188 188 188
194 194 194
188 188 188
171 171 171
195 195 195
208 208 208
186 186 186
171 171 171
154 154 154
167 167 167
165 165 165
189 189 189
201 201 201
199 199 199
173 173 173
164 164 164
195 195 195
185 185 185
167 167 167
189 189 189
160 160 160
164 164 164
168 168 168
136 136 136
116 116 116
109 109 109
96 96 96
95 95 95
99 99 99
109 109 109
104 104 104
110 110 110
154 154 154
110 110 110
79 79 79
25 25 25
3 3 3
3 3 3
3 3 3
3 3 3
3 3 3
3 3 3
3 3 3
2 2 2
6 6 6
72 72 72
63 63 63
41 41 41
62 62 62
149 149 149
183 183 183
190 190 190
182 182 182
196 196 196
193 193 193
195 195 195
184 184 184
177 177 177
181 181 181
180 180 180
175 175 175
172 172 172
189 189 189
186 186 186
187 187 187
192 192 192
193 193 193
201 201 201
150 150 150
142 142 142
175 175 175
181 181 181
156 156 156
132 132 132
124 124 124
141 141 141
92 92 92
101 101 101
113 113 113
100 100 100
100 100 100
124 124 124
121 121 121
87 87 87
76 76 76
19 19 19
4 4 4
3 3 3
3 3 3
3 3 3
3 3 3
3 3 3
3 3 3
2 2 2
6 6 6
71 71 71
61 61 61
48 48 48
34 34 34
93 93 93
176 176 176
190 190 190
189 189 189
195 195 195
197 197 197
202 202 202
188 188 188
204 204 204
176 176 176
185 185 185
191 191 191
189 189 189
200 200 200
192 192 192
195 195 195
197 197 197
188 188 188
201 201 201
135 135 135
145 145 145
146 146 146
176 176 176
205 205 205
132 132 132
109 109 109
127 127 127
122 122 122
129 129 129
131 131 131
129 129 129
126 126 126
139 139 139
104 104 104
79 79 79
66 66 66
15 15 15
3 3 3
3 3 3
3 3 3
3 3 3
3 3 3
3 3 3
3 3 3
2 2 2
6 6 6
71 71 71
60 60 60
48 48 48
32 32 32
49 49 49
122 122 122
200 200 200
198 198 198
199 199 199
201 201 201
201 201 201
200 200 200
200 200 200
193 193 193
190 190 190
198 198 198
191 191 191
188 188 188
173 173 173
185 185 185
195 195 195
204 204 204
208 208 208
174 174 174
150 150 150
118 118 118
131 131 131
187 187 187
101 101 101
121 121 121
131 131 131
161 161 161
111 111 111
128 128 128
161 161 161
135 135 135
132 132 132
166 166 166
98 98 98
53 53 53
5 5 5
3 3 3
3 3 3
3 3 3
3 3 3
3 3 3
2 2 2
2 2 2
2 2 2
6 6 6
70 70 70
57 57 57
38 38 38
32 32 32
23 23 23
60 60 60
128 128 128
194 194 194
208 208 208
207 207 207
205 205 205
202 202 202
194 194 194
197 197 197
192 192 192
190 190 190
183 183 183
181 181 181
191 191 191
181 181 181
199 199 199
183 183 183
209 209 209
167 167 167
128 128 128
152 152 152
160 160 160
138 138 138
155 155 155
148 148 148
136 136 136
152 152 152
139 139 139
151 151 151
183 183 183
169 169 169
149 149 149
179 179 179
151 151 151
66 66 66
11 11 11
3 3 3
3 3 3
3 3 3
3 3 3
2 2 2
2 2 2
2 2 2
2 2 2
6 6 6
69 69 69
56 56 56
26 26 26
33 33 33
24 24 24
25 25 25
70 70 70
97 97 97
149 149 149
192 192 192
194 194 194
199 199 199
192 192 192
190 190 190
178 178 178
165 165 165
174 174 174
168 168 168
179 179 179
181 181 181
185 185 185
177 177 177
182 182 182
190 190 190
163 163 163
147 147 147
149 149 149
125 125 125
192 192 192
170 170 170
195 195 195
155 155 155
115 115 115
176 176 176
196 196 196
211 211 211
168 168 168
204 204 204
183 183 183
96 96 96
36 36 36
4 4 4
4 4 4
3 3 3
3 3 3
2 2 2
2 2 2
2 2 2
2 2 2
6 6 6
68 68 68
55 55 55
26 26 26
32 32 32
24 24 24
24 24 24
34 34 34
81 81 81
91 91 91
144 144 144
186 186 186
179 179 179
194 194 194
180 180 180
174 174 174
166 166 166
181 181 181
162 162 162
187 187 187
160 160 160
153 153 153
170 170 170
152 152 152
159 159 159
160 160 160
154 154 154
169 169 169
135 135 135
196 196 196
223 223 223
198 198 198
135 135 135
128 128 128
155 155 155
160 160 160
210 210 210
178 178 178
179 179 179
194 194 194
120 120 120
35 35 35
9 9 9
8 8 8
8 8 8
6 6 6
6 6 6
5 5 5
4 4 4
3 3 3
6 6 6
69 69 69
54 54 54
24 24 24
32 32 32
25 25 25
26 26 26
26 26 26
44 44 44
86 86 86
90 90 90
126 126 126
168 168 168
150 150 150
156 156 156
155 155 155
163 163 163
179 179 179
147 147 147
163 163 163
159 159 159
133 133 133
114 114 114
128 128 128
161 161 161
168 168 168
162 162 162
105 105 105
117 117 117
198 198 198
177 177 177
208 208 208
137 137 137
127 127 127
142 142 142
175 175 175
199 199 199
179 179 179
184 184 184
199 199 199
119 119 119
54 54 54
34 34 34
20 20 20
15 15 15
18 18 18
19 19 19
14 14 14
16 16 16
8 8 8
6 6 6
68 68 68
51 51 51
23 23 23
32 32 32
26 26 26
27 27 27
27 27 27
41 41 41
62 62 62
87 87 87
88 88 88
90 90 90
93 93 93
90 90 90
89 89 89
97 97 97
114 114 114
105 105 105
155 155 155
145 145 145
151 151 151
122 122 122
149 149 149
184 184 184
164 164 164
135 135 135
115 115 115
101 101 101
100 100 100
99 99 99
130 130 130
137 137 137
145 145 145
137 137 137
116 116 116
95 95 95
88 88 88
92 92 92
84 84 84
36 36 36
8 8 8
3 3 3
2 2 2
3 3 3
2 2 2
2 2 2
2 2 2
2 2 2
2 2 2
6 6 6
69 69 69
64 64 64
35 35 35
30 30 30
26 26 26
26 26 26
28 28 28
43 43 43
37 37 37
82 82 82
90 90 90
90 90 90
93 93 93
93 93 93
90 90 90
89 89 89
90 90 90
123 123 123
159 159 159
162 162 162
152 152 152
162 162 162
165 165 165
147 147 147
161 161 161
136 136 136
121 121 121
223 223 223
208 208 208
156 156 156
161 161 161
162 162 162
194 194 194
188 188 188
194 194 194
198 198 198
176 176 176
162 162 162
89 89 89
36 36 36
34 34 34
18 18 18
20 20 20
22 22 22
15 15 15
17 17 17
16 16 16
11 11 11
12 12 12
6 6 6
62 62 62
54 54 54
28 28 28
25 25 25
25 25 25
26 26 26
32 32 32
44 44 44
33 33 33
53 53 53
87 87 87
89 89 89
92 92 92
94 94 94
93 93 93
89 89 89
90 90 90
116 116 116
142 142 142
157 157 157
141 141 141
134 134 134
138 138 138
123 123 123
168 168 168
147 147 147
119 119 119
215 215 215
179 179 179
116 116 116
122 122 122
145 145 145
205 205 205
193 193 193
202 202 202
168 168 168
222 222 222
208 208 208
137 137 137
52 52 52
28 28 28
16 16 16
15 15 15
16 16 16
11 11 11
12 12 12
11 11 11
8 8 8
8 8 8
6 6 6
66 66 66
48 48 48
30 30 30
25 25 25
32 32 32
29 29 29
31 31 31
39 39 39
24 24 24
32 32 32
79 79 79
87 87 87
88 88 88
89 89 89
89 89 89
88 88 88
88 88 88
88 88 88
99 99 99
151 151 151
137 137 137
152 152 152
142 142 142
122 122 122
132 132 132
129 129 129
185 185 185
166 166 166
128 128 128
116 116 116
110 110 110
144 144 144
172 172 172
188 188 188
226 226 226
188 188 188
178 178 178
199 199 199
98 98 98
43 43 43
4 4 4
3 3 3
3 3 3
3 3 3
3 3 3
2 2 2
2 2 2
2 2 2
2 2 2
6 6 6
65 65 65
45 45 45
29 29 29
25 25 25
36 36 36
31 31 31
31 31 31
35 35 35
24 24 24
23 23 23
56 56 56
85 85 85
88 88 88
89 89 89
88 88 88
88 88 88
88 88 88
95 95 95
106 106 106
145 145 145
130 130 130
146 146 146
140 140 140
134 134 134
142 142 142
119 119 119
128 128 128
146 146 146
127 127 127
132 132 132
113 113 113
149 149 149
167 167 167
169 169 169
192 192 192
176 176 176
200 200 200
159 159 159
84 84 84
23 23 23
2 2 2
2 2 2
2 2 2
2 2 2
2 2 2
2 2 2
2 2 2
2 2 2
2 2 2
6 6 6
63 63 63
42 42 42
31 31 31
24 24 24
35 35 35
36 36 36
34 34 34
37 37 37
26 26 26
19 19 19
40 40 40
78 78 78
86 86 86
89 89 89
89 89 89
89 89 89
88 88 88
95 95 95
116 116 116
121 121 121
118 118 118
121 121 121
126 126 126
132 132 132
164 164 164
123 123 123
126 126 126
117 117 117
122 122 122
128 128 128
128 128 128
127 127 127
163 163 163
172 172 172
160 160 160
161 161 161
168 168 168
108 108 108
80 80 80
13 13 13
2 2 2
2 2 2
2 2 2
2 2 2
2 2 2
2 2 2
2 2 2
2 2 2
2 2 2
6 6 6
61 61 61
40 40 40
34 34 34
26 26 26
35 35 35
37 37 37
36 36 36
38 38 38
26 26 26
19 19 19
26 26 26
71 71 71
84 84 84
90 90 90
90 90 90
89 89 89
87 87 87
97 97 97
108 108 108
133 133 133
123 123 123
117 117 117
121 121 121
126 126 126
138 138 138
149 149 149
136 136 136
115 115 115
111 111 111
129 129 129
129 129 129
127 127 127
154 154 154
165 165 165
129 129 129
175 175 175
163 163 163
101 101 101
79 79 79
14 14 14
2 2 2
2 2 2
2 2 2
2 2 2
1 1 1
2 2 2
2 2 2
2 2 2
2 2 2
6 6 6
61 61 61
39 39 39
36 36 36
26 26 26
36 36 36
38 38 38
37 37 37
40 40 40
28 28 28
20 20 20
20 20 20
41 41 41
84 84 84
89 89 89
90 90 90
89 89 89
88 88 88
101 101 101
110 110 110
137 137 137
129 129 129
117 117 117
113 113 113
131 131 131
133 133 133
109 109 109
173 173 173
126 126 126
126 126 126
120 120 120
112 112 112
112 112 112
141 141 141
179 179 179
172 172 172
168 168 168
162 162 162
100 100 100
81 81 81
17 17 17
2 2 2
2 2 2
2 2 2
2 2 2
2 2 2
2 2 2
2 2 2
2 2 2
2 2 2
6 6 6
61 61 61
38 38 38
35 35 35
27 27 27
39 39 39
38 38 38
37 37 37
40 40 40
28 28 28
20 20 20
19 19 19
32 32 32
82 82 82
89 89 89
90 90 90
89 89 89
88 88 88
98 98 98
114 114 114
132 132 132
125 125 125
120 120 120
115 115 115
139 139 139
137 137 137
110 110 110
96 96 96
148 148 148
184 184 184
163 163 163
147 147 147
141 141 141
136 136 136
179 179 179
173 173 173
184 184 184
192 192 192
103 103 103
78 78 78
20 20 20
2 2 2
2 2 2
2 2 2
2 2 2
2 2 2
2 2 2
2 2 2
2 2 2
2 2 2
6 6 6
60 60 60
38 38 38
34 34 34
27 27 27
38 38 38
39 39 39
38 38 38
41 41 41
28 28 28
21 21 21
19 19 19
37 37 37
79 79 79
88 88 88
89 89 89
89 89 89
88 88 88
98 98 98
121 121 121
137 137 137
123 123 123
118 118 118
116 116 116
123 123 123
126 126 126
108 108 108
98 98 98
90 90 90
108 108 108
148 148 148
187 187 187
201 201 201
195 195 195
208 208 208
153 153 153
197 197 197
219 219 219
119 119 119
68 68 68
15 15 15
2 2 2
2 2 2
2 2 2
2 2 2
2 2 2
2 2 2
2 2 2
2 2 2
2 2 2
0 0 0
0 0 0
0 0 0
0 0 0
0 0 0
0 0 0
0 0 0
0 0 0
0 0 0
0 0 0
0 0 0
0 0 0
0 0 0
0 0 0
0 0 0
0 0 0
0 0 0
0 0 0
0 0 0
0 0 0
0 0 0
0 0 0
0 0 0
0 0 0
0 0 0
0 0 0
0 0 0
0 0 0
0 0 0
0 0 0
0 0 0
0 0 0
0 0 0
0 0 0
0 0 0
0 0 0
0 0 0
0 0 0
0 0 0
0 0 0
0 0 0
0 0 0
0 0 0
0 0 0
0 0 0
0 0 0
0 0 0
0 0 0
0 0 0
0 0 0
