P3 
50 50 
255
0 0 0
0 0 0
0 0 0
0 0 0
0 0 0
0 0 0
0 0 0
0 0 0
0 0 0
0 0 0
0 0 0
0 0 0
0 0 0
0 0 0
0 0 0
0 0 0
0 0 0
0 0 0
0 0 0
0 0 0
0 0 0
0 0 0
0 0 0
0 0 0
0 0 0
0 0 0
0 0 0
0 0 0
0 0 0
0 0 0
0 0 0
0 0 0
0 0 0
0 0 0
0 0 0
0 0 0
0 0 0
0 0 0
0 0 0
0 0 0
0 0 0
0 0 0
0 0 0
0 0 0
0 0 0
0 0 0
0 0 0
0 0 0
0 0 0
0 0 0
2 2 2
22 22 22
68 68 68
56 56 56
36 36 36
34 34 34
21 21 21
28 28 28
25 25 25
18 18 18
21 21 21
18 18 18
25 25 25
39 39 39
60 60 60
67 67 67
23 23 23
37 37 37
23 23 23
30 30 30
27 27 27
20 20 20
27 27 27
38 38 38
61 61 61
73 73 73
72 72 72
71 71 71
65 65 65
46 46 46
33 33 33
16 16 16
8 8 8
15 15 15
14 14 14
9 9 9
16 16 16
7 7 7
7 7 7
3 3 3
3 3 3
3 3 3
3 3 3
2 2 2
2 2 2
2 2 2
2 2 2
2 2 2
2 2 2
2 2 2
2 2 2
23 23 23
68 68 68
56 56 56
41 41 41
33 33 33
21 21 21
19 19 19
20 20 20
30 30 30
33 33 33
27 27 27
23 23 23
37 37 37
58 58 58
66 66 66
22 22 22
31 31 31
23 23 23
59 59 59
80 80 80
96 96 96
120 120 120
137 137 137
158 158 158
183 183 183
190 190 190
189 189 189
176 176 176
146 146 146
122 122 122
97 97 97
80 80 80
51 51 51
15 15 15
20 20 20
11 11 11
8 8 8
7 7 7
4 4 4
3 3 3
3 3 3
3 3 3
2 2 2
2 2 2
2 2 2
2 2 2
2 2 2
2 2 2
2 2 2
2 2 2
23 23 23
68 68 68
56 56 56
45 45 45
33 33 33
23 23 23
20 20 20
29 29 29
40 40 40
40 40 40
39 39 39
23 23 23
37 37 37
58 58 58
64 64 64
19 19 19
52 52 52
88 88 88
134 134 134
181 181 181
184 184 184
185 185 185
190 190 190
191 191 191
201 201 201
198 198 198
188 188 188
194 194 194
194 194 194
180 180 180
184 184 184
179 179 179
124 124 124
81 81 81
43 43 43
10 10 10
9 9 9
6 6 6
4 4 4
4 4 4
4 4 4
4 4 4
2 2 2
2 2 2
2 2 2
1 1 1
2 2 2
2 2 2
2 2 2
2 2 2
23 23 23
68 68 68
57 57 57
50 50 50
33 33 33
24 24 24
23 23 23
40 40 40
34 34 34
28 28 28
36 36 36
33 33 33
37 37 37
58 58 58
65 65 65
78 78 78
129 129 129
186 186 186
186 186 186
179 179 179
178 178 178
192 192 192
183 183 183
195 195 195
193 193 193
185 185 185
183 183 183
187 187 187
188 188 188
194 194 194
190 190 190
177 177 177
181 181 181
163 163 163
98 98 98
67 67 67
18 18 18
6 6 6
4 4 4
4 4 4
4 4 4
4 4 4
3 3 3
2 2 2
2 2 2
2 2 2
1 1 1
2 2 2
2 2 2
2 2 2
24 24 24
69 69 69
57 57 57
50 50 50
36 36 36
26 26 26
32 32 32
42 42 42
28 28 28
21 21 21
23 23 23
32 32 32
37 37 37
58 58 58
94 94 94
161 161 161
190 190 190
180 180 180
187 187 187
176 176 176
179 179 179
180 180 180
183 183 183
194 194 194
186 186 186
187 187 187
180 180 180
188 188 188
184 184 184
185 185 185
197 197 197
180 180 180
179 179 179
176 176 176
173 173 173
116 116 116
73 73 73
26 26 26
4 4 4
4 4 4
4 4 4
4 4 4
4 4 4
2 2 2
2 2 2
2 2 2
2 2 2
2 2 2
2 2 2
2 2 2
24 24 24
68 68 68
57 57 57
46 46 46
39 39 39
23 23 23
37 37 37
34 34 34
22 22 22
25 25 25
27 27 27
23 23 23
55 55 55
107 107 107
174 174 174
186 186 186
182 182 182
189 189 189
176 176 176
173 173 173
175 175 175
173 173 173
175 175 175
197 197 197
183 183 183
180 180 180
175 175 175
178 178 178
180 180 180
181 181 181
185 185 185
186 186 186
189 189 189
181 181 181
182 182 182
181 181 181
143 143 143
79 79 79
16 16 16
5 5 5
5 5 5
4 4 4
4 4 4
2 2 2
2 2 2
2 2 2
2 2 2
2 2 2
2 2 2
2 2 2
24 24 24
69 69 69
58 58 58
38 38 38
42 42 42
27 27 27
33 33 33
21 21 21
17 17 17
21 21 21
29 29 29
52 52 52
109 109 109
173 173 173
175 175 175
169 169 169
180 180 180
177 177 177
167 167 167
170 170 170
173 173 173
174 174 174
175 175 175
190 190 190
180 180 180
172 172 172
172 172 172
177 177 177
174 174 174
180 180 180
184 184 184
185 185 185
186 186 186
186 186 186
180 180 180
178 178 178
181 181 181
151 151 151
71 71 71
6 6 6
4 4 4
5 5 5
3 3 3
2 2 2
2 2 2
2 2 2
2 2 2
2 2 2
2 2 2
2 2 2
25 25 25
68 68 68
57 57 57
36 36 36
44 44 44
30 30 30
30 30 30
18 18 18
23 23 23
26 26 26
41 41 41
98 98 98
167 167 167
171 171 171
166 166 166
175 175 175
171 171 171
173 173 173
168 168 168
170 170 170
171 171 171
182 182 182
176 176 176
175 175 175
169 169 169
170 170 170
175 175 175
173 173 173
182 182 182
173 173 173
175 175 175
174 174 174
178 178 178
181 181 181
182 182 182
182 182 182
179 179 179
180 180 180
155 155 155
46 46 46
6 6 6
5 5 5
5 5 5
3 3 3
2 2 2
2 2 2
2 2 2
2 2 2
2 2 2
2 2 2
25 25 25
69 69 69
58 58 58
35 35 35
47 47 47
30 30 30
23 23 23
26 26 26
46 46 46
40 40 40
67 67 67
149 149 149
174 174 174
179 179 179
174 174 174
169 169 169
180 180 180
176 176 176
180 180 180
171 171 171
172 172 172
169 169 169
167 167 167
177 177 177
190 190 190
179 179 179
172 172 172
175 175 175
168 168 168
177 177 177
166 166 166
167 167 167
166 166 166
179 179 179
176 176 176
174 174 174
175 175 175
174 174 174
175 175 175
106 106 106
18 18 18
4 4 4
13 13 13
10 10 10
2 2 2
2 2 2
2 2 2
2 2 2
2 2 2
2 2 2
25 25 25
69 69 69
57 57 57
42 42 42
42 42 42
33 33 33
25 25 25
38 38 38
56 56 56
50 50 50
104 104 104
172 172 172
160 160 160
174 174 174
171 171 171
166 166 166
174 174 174
171 171 171
164 164 164
161 161 161
148 148 148
166 166 166
188 188 188
173 173 173
164 164 164
165 165 165
175 175 175
166 166 166
169 169 169
172 172 172
169 169 169
168 168 168
173 173 173
157 157 157
176 176 176
185 185 185
171 171 171
177 177 177
173 173 173
143 143 143
41 41 41
5 5 5
9 9 9
14 14 14
3 3 3
2 2 2
2 2 2
2 2 2
2 2 2
2 2 2
25 25 25
69 69 69
58 58 58
41 41 41
33 33 33
36 36 36
26 26 26
42 42 42
49 49 49
66 66 66
142 142 142
188 188 188
175 175 175
178 178 178
177 177 177
176 176 176
175 175 175
173 173 173
178 178 178
179 179 179
164 164 164
148 148 148
158 158 158
161 161 161
182 182 182
165 165 165
156 156 156
175 175 175
170 170 170
175 175 175
175 175 175
165 165 165
165 165 165
151 151 151
164 164 164
158 158 158
160 160 160
168 168 168
174 174 174
173 173 173
85 85 85
12 12 12
13 13 13
12 12 12
4 4 4
2 2 2
2 2 2
2 2 2
2 2 2
2 2 2
26 26 26
68 68 68
58 58 58
36 36 36
30 30 30
37 37 37
30 30 30
44 44 44
42 42 42
96 96 96
180 180 180
176 176 176
175 175 175
157 157 157
175 175 175
178 178 178
182 182 182
166 166 166
168 168 168
171 171 171
174 174 174
161 161 161
159 159 159
160 160 160
171 171 171
165 165 165
153 153 153
167 167 167
169 169 169
161 161 161
164 164 164
166 166 166
166 166 166
160 160 160
163 163 163
154 154 154
172 172 172
176 176 176
169 169 169
168 168 168
125 125 125
22 22 22
9 9 9
12 12 12
6 6 6
3 3 3
2 2 2
2 2 2
2 2 2
2 2 2
26 26 26
67 67 67
58 58 58
36 36 36
37 37 37
30 30 30
37 37 37
46 46 46
54 54 54
135 135 135
178 178 178
173 173 173
167 167 167
181 181 181
175 175 175
179 179 179
188 188 188
179 179 179
161 161 161
170 170 170
164 164 164
152 152 152
160 160 160
160 160 160
157 157 157
164 164 164
153 153 153
171 171 171
167 167 167
161 161 161
179 179 179
175 175 175
156 156 156
158 158 158
151 151 151
150 150 150
177 177 177
156 156 156
157 157 157
162 162 162
160 160 160
45 45 45
10 10 10
15 15 15
8 8 8
2 2 2
2 2 2
2 2 2
2 2 2
2 2 2
27 27 27
69 69 69
58 58 58
36 36 36
35 35 35
31 31 31
47 47 47
42 42 42
66 66 66
147 147 147
171 171 171
177 177 177
188 188 188
183 183 183
182 182 182
170 170 170
180 180 180
167 167 167
167 167 167
168 168 168
156 156 156
163 163 163
182 182 182
156 156 156
169 169 169
162 162 162
158 158 158
154 154 154
157 157 157
153 153 153
170 170 170
183 183 183
162 162 162
163 163 163
149 149 149
167 167 167
147 147 147
157 157 157
156 156 156
157 157 157
177 177 177
100 100 100
16 16 16
15 15 15
9 9 9
2 2 2
2 2 2
2 2 2
2 2 2
2 2 2
27 27 27
70 70 70
59 59 59
35 35 35
33 33 33
35 35 35
50 50 50
40 40 40
86 86 86
161 161 161
179 179 179
168 168 168
172 172 172
177 177 177
179 179 179
182 182 182
171 171 171
160 160 160
173 173 173
166 166 166
165 165 165
158 158 158
165 165 165
159 159 159
166 166 166
156 156 156
154 154 154
146 146 146
166 166 166
174 174 174
183 183 183
172 172 172
148 148 148
157 157 157
156 156 156
160 160 160
158 158 158
145 145 145
136 136 136
140 140 140
174 174 174
134 134 134
43 43 43
15 15 15
10 10 10
2 2 2
2 2 2
2 2 2
2 2 2
2 2 2
27 27 27
70 70 70
58 58 58
38 38 38
36 36 36
45 45 45
46 46 46
44 44 44
100 100 100
180 180 180
173 173 173
169 169 169
161 161 161
163 163 163
162 162 162
169 169 169
175 175 175
158 158 158
170 170 170
168 168 168
169 169 169
161 161 161
157 157 157
156 156 156
157 157 157
168 168 168
147 147 147
154 154 154
167 167 167
159 159 159
170 170 170
170 170 170
172 172 172
152 152 152
159 159 159
151 151 151
132 132 132
144 144 144
140 140 140
162 162 162
146 146 146
163 163 163
84 84 84
21 21 21
12 12 12
2 2 2
2 2 2
2 2 2
2 2 2
2 2 2
27 27 27
71 71 71
58 58 58
38 38 38
31 31 31
49 49 49
46 46 46
46 46 46
110 110 110
188 188 188
171 171 171
174 174 174
164 164 164
165 165 165
161 161 161
163 163 163
169 169 169
168 168 168
161 161 161
173 173 173
172 172 172
164 164 164
154 154 154
161 161 161
157 157 157
162 162 162
151 151 151
173 173 173
153 153 153
150 150 150
161 161 161
162 162 162
162 162 162
176 176 176
161 161 161
150 150 150
132 132 132
126 126 126
132 132 132
160 160 160
146 146 146
164 164 164
115 115 115
35 35 35
15 15 15
5 5 5
2 2 2
2 2 2
2 2 2
2 2 2
26 26 26
71 71 71
59 59 59
36 36 36
32 32 32
48 48 48
46 46 46
51 51 51
118 118 118
184 184 184
173 173 173
175 175 175
163 163 163
163 163 163
162 162 162
171 171 171
170 170 170
174 174 174
165 165 165
177 177 177
192 192 192
158 158 158
152 152 152
164 164 164
164 164 164
156 156 156
157 157 157
179 179 179
148 148 148
154 154 154
158 158 158
174 174 174
169 169 169
175 175 175
167 167 167
151 151 151
149 149 149
131 131 131
129 129 129
142 142 142
141 141 141
151 151 151
147 147 147
62 62 62
10 10 10
10 10 10
3 3 3
2 2 2
2 2 2
2 2 2
26 26 26
70 70 70
59 59 59
35 35 35
30 30 30
48 48 48
45 45 45
53 53 53
133 133 133
179 179 179
178 178 178
174 174 174
178 178 178
180 180 180
166 166 166
175 175 175
182 182 182
187 187 187
169 169 169
173 173 173
199 199 199
160 160 160
165 165 165
162 162 162
173 173 173
162 162 162
165 165 165
179 179 179
144 144 144
154 154 154
153 153 153
162 162 162
166 166 166
171 171 171
173 173 173
163 163 163
164 164 164
149 149 149
133 133 133
128 128 128
126 126 126
132 132 132
194 194 194
74 74 74
14 14 14
7 7 7
2 2 2
2 2 2
2 2 2
2 2 2
26 26 26
71 71 71
59 59 59
36 36 36
31 31 31
48 48 48
45 45 45
54 54 54
140 140 140
182 182 182
180 180 180
179 179 179
175 175 175
191 191 191
174 174 174
167 167 167
188 188 188
199 199 199
169 169 169
173 173 173
188 188 188
154 154 154
161 161 161
160 160 160
175 175 175
156 156 156
168 168 168
178 178 178
143 143 143
155 155 155
152 152 152
170 170 170
151 151 151
182 182 182
180 180 180
167 167 167
162 162 162
155 155 155
158 158 158
159 159 159
137 137 137
150 150 150
176 176 176
81 81 81
8 8 8
6 6 6
2 2 2
2 2 2
2 2 2
2 2 2
26 26 26
72 72 72
59 59 59
35 35 35
32 32 32
48 48 48
45 45 45
54 54 54
139 139 139
188 188 188
191 191 191
176 176 176
166 166 166
183 183 183
179 179 179
157 157 157
180 180 180
205 205 205
169 169 169
178 178 178
165 165 165
155 155 155
153 153 153
160 160 160
177 177 177
154 154 154
165 165 165
180 180 180
145 145 145
157 157 157
146 146 146
146 146 146
151 151 151
188 188 188
167 167 167
169 169 169
159 159 159
141 141 141
161 161 161
156 156 156
130 130 130
136 136 136
167 167 167
79 79 79
6 6 6
3 3 3
2 2 2
3 3 3
2 2 2
2 2 2
26 26 26
72 72 72
59 59 59
35 35 35
32 32 32
47 47 47
47 47 47
54 54 54
128 128 128
192 192 192
189 189 189
172 172 172
169 169 169
181 181 181
179 179 179
159 159 159
171 171 171
205 205 205
174 174 174
180 180 180
164 164 164
155 155 155
153 153 153
163 163 163
174 174 174
156 156 156
161 161 161
171 171 171
149 149 149
163 163 163
157 157 157
148 148 148
150 150 150
190 190 190
164 164 164
145 145 145
144 144 144
134 134 134
138 138 138
123 123 123
125 125 125
135 135 135
157 157 157
54 54 54
5 5 5
3 3 3
3 3 3
3 3 3
3 3 3
2 2 2
26 26 26
71 71 71
58 58 58
34 34 34
32 32 32
47 47 47
47 47 47
51 51 51
123 123 123
196 196 196
191 191 191
171 171 171
172 172 172
180 180 180
185 185 185
168 168 168
174 174 174
197 197 197
172 172 172
178 178 178
165 165 165
158 158 158
154 154 154
167 167 167
168 168 168
164 164 164
164 164 164
155 155 155
152 152 152
169 169 169
167 167 167
151 151 151
156 156 156
191 191 191
159 159 159
126 126 126
125 125 125
122 122 122
122 122 122
120 120 120
124 124 124
155 155 155
159 159 159
62 62 62
9 9 9
4 4 4
3 3 3
3 3 3
3 3 3
2 2 2
25 25 25
72 72 72
59 59 59
35 35 35
31 31 31
44 44 44
44 44 44
45 45 45
110 110 110
200 200 200
183 183 183
173 173 173
176 176 176
171 171 171
191 191 191
171 171 171
175 175 175
180 180 180
165 165 165
176 176 176
165 165 165
159 159 159
154 154 154
168 168 168
173 173 173
169 169 169
164 164 164
155 155 155
159 159 159
174 174 174
168 168 168
154 154 154
165 165 165
191 191 191
150 150 150
114 114 114
117 117 117
122 122 122
125 125 125
116 116 116
123 123 123
166 166 166
160 160 160
82 82 82
16 16 16
4 4 4
3 3 3
3 3 3
3 3 3
2 2 2
25 25 25
72 72 72
59 59 59
35 35 35
31 31 31
40 40 40
38 38 38
42 42 42
94 94 94
195 195 195
185 185 185
178 178 178
177 177 177
171 171 171
196 196 196
177 177 177
172 172 172
182 182 182
168 168 168
175 175 175
165 165 165
155 155 155
160 160 160
167 167 167
175 175 175
169 169 169
170 170 170
159 159 159
156 156 156
175 175 175
175 175 175
160 160 160
168 168 168
187 187 187
132 132 132
128 128 128
115 115 115
123 123 123
126 126 126
95 95 95
118 118 118
155 155 155
156 156 156
91 91 91
44 44 44
8 8 8
3 3 3
3 3 3
3 3 3
2 2 2
25 25 25
72 72 72
58 58 58
35 35 35
37 37 37
37 37 37
38 38 38
37 37 37
82 82 82
181 181 181
192 192 192
178 178 178
173 173 173
174 174 174
189 189 189
177 177 177
167 167 167
184 184 184
163 163 163
171 171 171
162 162 162
156 156 156
165 165 165
174 174 174
179 179 179
161 161 161
173 173 173
167 167 167
145 145 145
157 157 157
180 180 180
165 165 165
173 173 173
170 170 170
108 108 108
124 124 124
116 116 116
127 127 127
147 147 147
105 105 105
116 116 116
128 128 128
171 171 171
121 121 121
71 71 71
13 13 13
3 3 3
3 3 3
2 2 2
2 2 2
25 25 25
71 71 71
58 58 58
35 35 35
40 40 40
34 34 34
38 38 38
37 37 37
75 75 75
176 176 176
196 196 196
181 181 181
173 173 173
177 177 177
184 184 184
177 177 177
165 165 165
184 184 184
164 164 164
162 162 162
158 158 158
160 160 160
172 172 172
174 174 174
180 180 180
154 154 154
167 167 167
171 171 171
136 136 136
147 147 147
179 179 179
167 167 167
176 176 176
160 160 160
109 109 109
120 120 120
130 130 130
114 114 114
129 129 129
103 103 103
131 131 131
126 126 126
178 178 178
134 134 134
79 79 79
23 23 23
4 4 4
3 3 3
2 2 2
2 2 2
25 25 25
73 73 73
58 58 58
35 35 35
43 43 43
34 34 34
43 43 43
41 41 41
58 58 58
158 158 158
190 190 190
195 195 195
186 186 186
180 180 180
181 181 181
189 189 189
164 164 164
178 178 178
172 172 172
166 166 166
162 162 162
161 161 161
189 189 189
164 164 164
178 178 178
162 162 162
155 155 155
180 180 180
146 146 146
149 149 149
144 144 144
172 172 172
175 175 175
139 139 139
149 149 149
141 141 141
139 139 139
134 134 134
101 101 101
85 85 85
101 101 101
135 135 135
150 150 150
162 162 162
96 96 96
70 70 70
23 23 23
3 3 3
2 2 2
2 2 2
25 25 25
73 73 73
57 57 57
33 33 33
42 42 42
32 32 32
45 45 45
44 44 44
51 51 51
121 121 121
184 184 184
174 174 174
174 174 174
166 166 166
168 168 168
162 162 162
178 178 178
169 169 169
174 174 174
168 168 168
175 175 175
186 186 186
204 204 204
196 196 196
194 194 194
188 188 188
155 155 155
154 154 154
158 158 158
150 150 150
170 170 170
203 203 203
171 171 171
138 138 138
155 155 155
155 155 155
151 151 151
132 132 132
95 95 95
86 86 86
95 95 95
120 120 120
136 136 136
135 135 135
87 87 87
80 80 80
28 28 28
3 3 3
2 2 2
2 2 2
25 25 25
75 75 75
56 56 56
31 31 31
41 41 41
31 31 31
42 42 42
44 44 44
45 45 45
101 101 101
193 193 193
169 169 169
188 188 188
174 174 174
189 189 189
179 179 179
157 157 157
181 181 181
176 176 176
168 168 168
184 184 184
166 166 166
179 179 179
160 160 160
167 167 167
156 156 156
152 152 152
156 156 156
146 146 146
162 162 162
209 209 209
191 191 191
171 171 171
160 160 160
152 152 152
163 163 163
181 181 181
143 143 143
113 113 113
103 103 103
136 136 136
125 125 125
156 156 156
130 130 130
80 80 80
59 59 59
13 13 13
3 3 3
2 2 2
2 2 2
25 25 25
76 76 76
56 56 56
31 31 31
42 42 42
31 31 31
36 36 36
38 38 38
37 37 37
74 74 74
170 170 170
181 181 181
190 190 190
194 194 194
187 187 187
178 178 178
179 179 179
178 178 178
192 192 192
197 197 197
150 150 150
153 153 153
155 155 155
204 204 204
190 190 190
191 191 191
167 167 167
173 173 173
173 173 173
179 179 179
194 194 194
203 203 203
165 165 165
168 168 168
155 155 155
147 147 147
120 120 120
143 143 143
148 148 148
118 118 118
91 91 91
104 104 104
150 150 150
134 134 134
79 79 79
65 65 65
11 11 11
3 3 3
2 2 2
2 2 2
25 25 25
76 76 76
55 55 55
30 30 30
43 43 43
31 31 31
27 27 27
34 34 34
25 25 25
49 49 49
114 114 114
205 205 205
189 189 189
188 188 188
195 195 195
172 172 172
193 193 193
175 175 175
177 177 177
164 164 164
169 169 169
174 174 174
187 187 187
204 204 204
167 167 167
171 171 171
169 169 169
186 186 186
203 203 203
183 183 183
168 168 168
180 180 180
171 171 171
173 173 173
116 116 116
115 115 115
111 111 111
108 108 108
104 104 104
93 93 93
116 116 116
111 111 111
129 129 129
115 115 115
82 82 82
66 66 66
11 11 11
3 3 3
3 3 3
2 2 2
25 25 25
76 76 76
55 55 55
30 30 30
43 43 43
31 31 31
25 25 25
25 25 25
24 24 24
29 29 29
69 69 69
155 155 155
204 204 204
202 202 202
205 205 205
194 194 194
179 179 179
178 178 178
169 169 169
169 169 169
180 180 180
195 195 195
186 186 186
189 189 189
188 188 188
183 183 183
198 198 198
180 180 180
191 191 191
193 193 193
166 166 166
124 124 124
157 157 157
173 173 173
103 103 103
121 121 121
125 125 125
129 129 129
127 127 127
127 127 127
123 123 123
125 125 125
95 95 95
81 81 81
76 76 76
55 55 55
9 9 9
3 3 3
3 3 3
2 2 2
26 26 26
76 76 76
54 54 54
35 35 35
44 44 44
32 32 32
22 22 22
25 25 25
23 23 23
20 20 20
41 41 41
92 92 92
192 192 192
205 205 205
201 201 201
207 207 207
204 204 204
197 197 197
194 194 194
195 195 195
185 185 185
187 187 187
183 183 183
184 184 184
177 177 177
186 186 186
165 165 165
180 180 180
199 199 199
192 192 192
172 172 172
134 134 134
183 183 183
193 193 193
114 114 114
127 127 127
135 135 135
129 129 129
158 158 158
148 148 148
139 139 139
159 159 159
116 116 116
77 77 77
77 77 77
41 41 41
4 4 4
3 3 3
3 3 3
2 2 2
26 26 26
76 76 76
53 53 53
40 40 40
43 43 43
30 30 30
23 23 23
25 25 25
26 26 26
23 23 23
28 28 28
59 59 59
95 95 95
158 158 158
199 199 199
214 214 214
208 208 208
201 201 201
197 197 197
193 193 193
190 190 190
184 184 184
184 184 184
187 187 187
194 194 194
185 185 185
194 194 194
165 165 165
191 191 191
189 189 189
157 157 157
166 166 166
183 183 183
172 172 172
161 161 161
134 134 134
146 146 146
140 140 140
151 151 151
166 166 166
186 186 186
152 152 152
151 151 151
89 89 89
78 78 78
20 20 20
3 3 3
2 2 2
3 3 3
2 2 2
26 26 26
77 77 77
52 52 52
41 41 41
41 41 41
31 31 31
24 24 24
27 27 27
23 23 23
21 21 21
23 23 23
36 36 36
74 74 74
90 90 90
148 148 148
192 192 192
186 186 186
191 191 191
195 195 195
184 184 184
187 187 187
186 186 186
185 185 185
181 181 181
185 185 185
177 177 177
187 187 187
190 190 190
182 182 182
175 175 175
159 159 159
160 160 160
176 176 176
194 194 194
188 188 188
166 166 166
179 179 179
157 157 157
178 178 178
196 196 196
177 177 177
205 205 205
194 194 194
104 104 104
71 71 71
13 13 13
3 3 3
3 3 3
3 3 3
2 2 2
27 27 27
77 77 77
51 51 51
37 37 37
39 39 39
34 34 34
24 24 24
28 28 28
23 23 23
29 29 29
30 30 30
30 30 30
53 53 53
86 86 86
90 90 90
133 133 133
183 183 183
165 165 165
176 176 176
177 177 177
171 171 171
182 182 182
181 181 181
161 161 161
187 187 187
180 180 180
163 163 163
164 164 164
170 170 170
186 186 186
168 168 168
171 171 171
130 130 130
155 155 155
179 179 179
164 164 164
176 176 176
166 166 166
184 184 184
238 238 238
204 204 204
200 200 200
195 195 195
148 148 148
60 60 60
14 14 14
11 11 11
9 9 9
5 5 5
2 2 2
27 27 27
77 77 77
49 49 49
34 34 34
36 36 36
35 35 35
26 26 26
30 30 30
25 25 25
37 37 37
36 36 36
23 23 23
36 36 36
61 61 61
86 86 86
89 89 89
105 105 105
136 136 136
134 134 134
141 141 141
155 155 155
160 160 160
182 182 182
174 174 174
168 168 168
170 170 170
139 139 139
147 147 147
159 159 159
178 178 178
168 168 168
142 142 142
164 164 164
228 228 228
129 129 129
160 160 160
185 185 185
190 190 190
196 196 196
197 197 197
140 140 140
202 202 202
205 205 205
180 180 180
86 86 86
36 36 36
27 27 27
26 26 26
17 17 17
2 2 2
27 27 27
75 75 75
49 49 49
33 33 33
39 39 39
39 39 39
27 27 27
31 31 31
32 32 32
40 40 40
42 42 42
28 28 28
31 31 31
48 48 48
85 85 85
89 89 89
89 89 89
89 89 89
90 90 90
88 88 88
88 88 88
92 92 92
99 99 99
149 149 149
171 171 171
140 140 140
145 145 145
128 128 128
176 176 176
154 154 154
174 174 174
121 121 121
108 108 108
121 121 121
97 97 97
95 95 95
138 138 138
147 147 147
146 146 146
109 109 109
104 104 104
107 107 107
90 90 90
66 66 66
23 23 23
4 4 4
4 4 4
4 4 4
3 3 3
2 2 2
24 24 24
68 68 68
48 48 48
34 34 34
36 36 36
37 37 37
28 28 28
32 32 32
36 36 36
35 35 35
44 44 44
30 30 30
33 33 33
56 56 56
85 85 85
87 87 87
89 89 89
90 90 90
90 90 90
90 90 90
90 90 90
89 89 89
118 118 118
176 176 176
161 161 161
142 142 142
149 149 149
149 149 149
171 171 171
166 166 166
139 139 139
236 236 236
198 198 198
198 198 198
201 201 201
148 148 148
167 167 167
209 209 209
169 169 169
184 184 184
162 162 162
175 175 175
150 150 150
91 91 91
33 33 33
18 18 18
18 18 18
18 18 18
8 8 8
2 2 2
30 30 30
85 85 85
57 57 57
34 34 34
33 33 33
33 33 33
33 33 33
43 43 43
38 38 38
29 29 29
41 41 41
34 34 34
27 27 27
49 49 49
76 76 76
86 86 86
89 89 89
90 90 90
89 89 89
88 88 88
88 88 88
91 91 91
98 98 98
144 144 144
162 162 162
138 138 138
131 131 131
145 145 145
162 162 162
152 152 152
140 140 140
206 206 206
193 193 193
213 213 213
188 188 188
120 120 120
126 126 126
172 172 172
200 200 200
155 155 155
190 190 190
213 213 213
189 189 189
126 126 126
40 40 40
18 18 18
12 12 12
10 10 10
7 7 7
2 2 2
29 29 29
80 80 80
47 47 47
33 33 33
31 31 31
34 34 34
30 30 30
48 48 48
36 36 36
24 24 24
35 35 35
34 34 34
23 23 23
45 45 45
82 82 82
83 83 83
88 88 88
89 89 89
89 89 89
90 90 90
88 88 88
92 92 92
118 118 118
119 119 119
131 131 131
124 124 124
137 137 137
131 131 131
153 153 153
141 141 141
171 171 171
180 180 180
205 205 205
214 214 214
159 159 159
94 94 94
135 135 135
152 152 152
209 209 209
185 185 185
183 183 183
178 178 178
123 123 123
76 76 76
19 19 19
6 6 6
3 3 3
3 3 3
2 2 2
2 2 2
29 29 29
80 80 80
47 47 47
34 34 34
29 29 29
37 37 37
33 33 33
43 43 43
28 28 28
26 26 26
29 29 29
33 33 33
22 22 22
42 42 42
82 82 82
80 80 80
86 86 86
89 89 89
90 90 90
90 90 90
88 88 88
105 105 105
103 103 103
123 123 123
150 150 150
133 133 133
154 154 154
143 143 143
155 155 155
151 151 151
149 149 149
156 156 156
196 196 196
169 169 169
138 138 138
113 113 113
132 132 132
153 153 153
206 206 206
177 177 177
200 200 200
177 177 177
110 110 110
56 56 56
6 6 6
3 3 3
2 2 2
2 2 2
2 2 2
2 2 2
30 30 30
81 81 81
44 44 44
31 31 31
29 29 29
38 38 38
34 34 34
41 41 41
32 32 32
27 27 27
25 25 25
32 32 32
24 24 24
40 40 40
80 80 80
69 69 69
87 87 87
89 89 89
90 90 90
89 89 89
88 88 88
103 103 103
117 117 117
131 131 131
125 125 125
115 115 115
123 123 123
146 146 146
168 168 168
159 159 159
134 134 134
158 158 158
128 128 128
134 134 134
153 153 153
126 126 126
150 150 150
147 147 147
180 180 180
154 154 154
154 154 154
127 127 127
88 88 88
49 49 49
3 3 3
2 2 2
2 2 2
2 2 2
2 2 2
2 2 2
31 31 31
79 79 79
43 43 43
29 29 29
28 28 28
38 38 38
36 36 36
43 43 43
34 34 34
29 29 29
22 22 22
35 35 35
28 28 28
38 38 38
79 79 79
60 60 60
87 87 87
89 89 89
89 89 89
90 90 90
88 88 88
90 90 90
96 96 96
128 128 128
127 127 127
109 109 109
127 127 127
134 134 134
131 131 131
156 156 156
139 139 139
154 154 154
117 117 117
123 123 123
120 120 120
125 125 125
157 157 157
159 159 159
160 160 160
142 142 142
147 147 147
118 118 118
85 85 85
45 45 45
3 3 3
2 2 2
2 2 2
2 2 2
2 2 2
2 2 2
30 30 30
78 78 78
40 40 40
29 29 29
28 28 28
38 38 38
37 37 37
44 44 44
34 34 34
29 29 29
22 22 22
35 35 35
26 26 26
38 38 38
78 78 78
62 62 62
86 86 86
89 89 89
90 90 90
89 89 89
89 89 89
90 90 90
88 88 88
124 124 124
138 138 138
126 126 126
142 142 142
138 138 138
120 120 120
111 111 111
152 152 152
183 183 183
128 128 128
158 158 158
136 136 136
159 159 159
156 156 156
161 161 161
144 144 144
178 178 178
169 169 169
109 109 109
84 84 84
47 47 47
3 3 3
2 2 2
2 2 2
2 2 2
2 2 2
2 2 2
30 30 30
78 78 78
39 39 39
25 25 25
28 28 28
37 37 37
37 37 37
45 45 45
35 35 35
30 30 30
23 23 23
33 33 33
29 29 29
37 37 37
78 78 78
73 73 73
85 85 85
89 89 89
90 90 90
89 89 89
89 89 89
90 90 90
99 99 99
122 122 122
148 148 148
132 132 132
130 130 130
128 128 128
111 111 111
104 104 104
91 91 91
110 110 110
172 172 172
208 208 208
156 156 156
184 184 184
180 180 180
163 163 163
165 165 165
186 186 186
174 174 174
113 113 113
83 83 83
46 46 46
3 3 3
2 2 2
2 2 2
2 2 2
2 2 2
2 2 2
30 30 30
78 78 78
40 40 40
25 25 25
29 29 29
35 35 35
38 38 38
45 45 45
35 35 35
31 31 31
24 24 24
30 30 30
31 31 31
38 38 38
77 77 77
67 67 67
86 86 86
89 89 89
90 90 90
89 89 89
89 89 89
89 89 89
104 104 104
128 128 128
127 127 127
119 119 119
150 150 150
131 131 131
106 106 106
102 102 102
89 89 89
89 89 89
88 88 88
115 115 115
166 166 166
179 179 179
191 191 191
198 198 198
163 163 163
174 174 174
205 205 205
146 146 146
78 78 78
39 39 39
3 3 3
2 2 2
2 2 2
2 2 2
2 2 2
0 0 0
0 0 0
0 0 0
0 0 0
0 0 0
0 0 0
0 0 0
0 0 0
0 0 0
0 0 0
0 0 0
0 0 0
0 0 0
0 0 0
0 0 0
0 0 0
0 0 0
0 0 0
0 0 0
0 0 0
0 0 0
0 0 0
0 0 0
0 0 0
0 0 0
0 0 0
0 0 0
0 0 0
0 0 0
0 0 0
0 0 0
0 0 0
0 0 0
0 0 0
0 0 0
0 0 0
0 0 0
0 0 0
0 0 0
0 0 0
0 0 0
0 0 0
0 0 0
0 0 0
0 0 0
0 0 0
0 0 0
0 0 0
0 0 0
0 0 0
