P3 
50 50 
255
0 0 0
0 0 0
0 0 0
0 0 0
0 0 0
0 0 0
0 0 0
0 0 0
0 0 0
0 0 0
0 0 0
0 0 0
0 0 0
0 0 0
0 0 0
0 0 0
0 0 0
0 0 0
0 0 0
0 0 0
0 0 0
0 0 0
0 0 0
0 0 0
0 0 0
0 0 0
0 0 0
0 0 0
0 0 0
0 0 0
0 0 0
0 0 0
0 0 0
0 0 0
0 0 0
0 0 0
0 0 0
0 0 0
0 0 0
0 0 0
0 0 0
0 0 0
0 0 0
0 0 0
0 0 0
0 0 0
0 0 0
0 0 0
0 0 0
0 0 0
2 2 2
2 2 2
2 2 2
2 2 2
2 2 2
2 2 2
2 2 2
3 3 3
4 4 4
8 8 8
7 7 7
8 8 8
11 11 11
10 10 10
20 20 20
11 11 11
7 7 7
11 11 11
13 13 13
28 28 28
45 45 45
67 67 67
73 73 73
73 73 73
64 64 64
38 38 38
27 27 27
28 28 28
59 59 59
71 71 71
41 41 41
31 31 31
23 23 23
16 16 16
16 16 16
17 17 17
21 21 21
19 19 19
17 17 17
25 25 25
24 24 24
20 20 20
25 25 25
38 38 38
57 57 57
52 52 52
52 52 52
34 34 34
32 32 32
18 18 18
2 2 2
2 2 2
2 2 2
2 2 2
2 2 2
2 2 2
3 3 3
3 3 3
4 4 4
9 9 9
7 7 7
10 10 10
13 13 13
15 15 15
10 10 10
9 9 9
35 35 35
74 74 74
90 90 90
113 113 113
141 141 141
179 179 179
192 192 192
190 190 190
164 164 164
135 135 135
112 112 112
89 89 89
70 70 70
69 69 69
39 39 39
28 28 28
22 22 22
20 20 20
22 22 22
31 31 31
32 32 32
32 32 32
23 23 23
17 17 17
19 19 19
15 15 15
20 20 20
38 38 38
57 57 57
52 52 52
52 52 52
29 29 29
34 34 34
16 16 16
2 2 2
2 2 2
2 2 2
2 2 2
2 2 2
4 4 4
4 4 4
4 4 4
5 5 5
10 10 10
8 8 8
10 10 10
14 14 14
12 12 12
22 22 22
69 69 69
99 99 99
157 157 157
183 183 183
190 190 190
196 196 196
193 193 193
189 189 189
190 190 190
205 205 205
195 195 195
192 192 192
186 186 186
163 163 163
112 112 112
79 79 79
36 36 36
21 21 21
21 21 21
38 38 38
40 40 40
35 35 35
40 40 40
36 36 36
20 20 20
15 15 15
16 16 16
21 21 21
39 39 39
57 57 57
52 52 52
52 52 52
25 25 25
39 39 39
14 14 14
2 2 2
2 2 2
2 2 2
2 2 2
3 3 3
4 4 4
4 4 4
4 4 4
5 5 5
9 9 9
10 10 10
13 13 13
20 20 20
37 37 37
83 83 83
138 138 138
182 182 182
195 195 195
194 194 194
186 186 186
184 184 184
181 181 181
180 180 180
182 182 182
182 182 182
193 193 193
199 199 199
190 190 190
183 183 183
180 180 180
162 162 162
101 101 101
68 68 68
32 32 32
38 38 38
27 27 27
28 28 28
32 32 32
42 42 42
28 28 28
19 19 19
16 16 16
22 22 22
38 38 38
57 57 57
53 53 53
52 52 52
23 23 23
43 43 43
19 19 19
2 2 2
2 2 2
2 2 2
2 2 2
3 3 3
4 4 4
4 4 4
4 4 4
5 5 5
9 9 9
10 10 10
13 13 13
37 37 37
90 90 90
170 170 170
175 175 175
193 193 193
192 192 192
182 182 182
178 178 178
186 186 186
183 183 183
181 181 181
183 183 183
179 179 179
186 186 186
195 195 195
190 190 190
182 182 182
189 189 189
179 179 179
177 177 177
126 126 126
75 75 75
26 26 26
18 18 18
21 21 21
24 24 24
40 40 40
35 35 35
27 27 27
20 20 20
25 25 25
39 39 39
58 58 58
53 53 53
53 53 53
24 24 24
45 45 45
20 20 20
2 2 2
2 2 2
2 2 2
2 2 2
4 4 4
4 4 4
5 5 5
5 5 5
7 7 7
10 10 10
11 11 11
34 34 34
99 99 99
175 175 175
177 177 177
184 184 184
183 183 183
181 181 181
180 180 180
184 184 184
187 187 187
183 183 183
181 181 181
179 179 179
177 177 177
185 185 185
184 184 184
184 184 184
190 190 190
184 184 184
183 183 183
180 180 180
173 173 173
145 145 145
84 84 84
32 32 32
23 23 23
21 21 21
29 29 29
35 35 35
32 32 32
26 26 26
23 23 23
39 39 39
58 58 58
53 53 53
52 52 52
36 36 36
45 45 45
19 19 19
2 2 2
2 2 2
2 2 2
2 2 2
4 4 4
5 5 5
4 4 4
6 6 6
7 7 7
11 11 11
24 24 24
90 90 90
177 177 177
177 177 177
192 192 192
176 176 176
175 175 175
184 184 184
184 184 184
183 183 183
183 183 183
187 187 187
177 177 177
171 171 171
176 176 176
173 173 173
180 180 180
191 191 191
183 183 183
173 173 173
170 170 170
180 180 180
173 173 173
169 169 169
143 143 143
81 81 81
28 28 28
18 18 18
18 18 18
24 24 24
29 29 29
32 32 32
27 27 27
41 41 41
58 58 58
53 53 53
53 53 53
46 46 46
42 42 42
22 22 22
2 2 2
2 2 2
2 2 2
2 2 2
4 4 4
6 6 6
5 5 5
6 6 6
6 6 6
11 11 11
69 69 69
160 160 160
179 179 179
185 185 185
174 174 174
181 181 181
181 181 181
174 174 174
169 169 169
180 180 180
172 172 172
175 175 175
173 173 173
182 182 182
170 170 170
173 173 173
172 172 172
175 175 175
183 183 183
183 183 183
170 170 170
168 168 168
173 173 173
169 169 169
163 163 163
129 129 129
71 71 71
29 29 29
20 20 20
21 21 21
28 28 28
34 34 34
28 28 28
43 43 43
58 58 58
53 53 53
52 52 52
49 49 49
36 36 36
24 24 24
2 2 2
2 2 2
2 2 2
2 2 2
4 4 4
10 10 10
10 10 10
9 9 9
14 14 14
41 41 41
136 136 136
178 178 178
173 173 173
177 177 177
164 164 164
161 161 161
167 167 167
171 171 171
169 169 169
165 165 165
166 166 166
168 168 168
170 170 170
177 177 177
173 173 173
169 169 169
180 180 180
180 180 180
175 175 175
169 169 169
176 176 176
182 182 182
176 176 176
181 181 181
166 166 166
160 160 160
111 111 111
57 57 57
21 21 21
21 21 21
22 22 22
34 34 34
26 26 26
45 45 45
58 58 58
54 54 54
53 53 53
47 47 47
33 33 33
22 22 22
2 2 2
2 2 2
2 2 2
3 3 3
6 6 6
12 12 12
9 9 9
7 7 7
14 14 14
89 89 89
174 174 174
187 187 187
174 174 174
176 176 176
173 173 173
172 172 172
175 175 175
182 182 182
159 159 159
169 169 169
163 163 163
172 172 172
184 184 184
161 161 161
169 169 169
168 168 168
175 175 175
168 168 168
173 173 173
164 164 164
164 164 164
160 160 160
167 167 167
174 174 174
174 174 174
176 176 176
156 156 156
86 86 86
31 31 31
19 19 19
26 26 26
37 37 37
22 22 22
39 39 39
58 58 58
53 53 53
53 53 53
36 36 36
41 41 41
21 21 21
2 2 2
2 2 2
2 2 2
5 5 5
9 9 9
11 11 11
9 9 9
10 10 10
47 47 47
154 154 154
168 168 168
169 169 169
164 164 164
155 155 155
174 174 174
175 175 175
165 165 165
174 174 174
155 155 155
161 161 161
159 159 159
159 159 159
163 163 163
167 167 167
161 161 161
174 174 174
163 163 163
175 175 175
190 190 190
162 162 162
163 163 163
175 175 175
178 178 178
178 178 178
176 176 176
179 179 179
170 170 170
124 124 124
45 45 45
24 24 24
24 24 24
35 35 35
29 29 29
39 39 39
59 59 59
53 53 53
53 53 53
31 31 31
44 44 44
20 20 20
2 2 2
2 2 2
2 2 2
8 8 8
11 11 11
7 7 7
7 7 7
18 18 18
110 110 110
170 170 170
172 172 172
165 165 165
162 162 162
172 172 172
174 174 174
169 169 169
155 155 155
166 166 166
153 153 153
161 161 161
183 183 183
175 175 175
155 155 155
160 160 160
171 171 171
163 163 163
175 175 175
177 177 177
172 172 172
176 176 176
174 174 174
165 165 165
169 169 169
177 177 177
174 174 174
175 175 175
173 173 173
165 165 165
78 78 78
31 31 31
22 22 22
33 33 33
35 35 35
39 39 39
59 59 59
53 53 53
52 52 52
29 29 29
46 46 46
24 24 24
2 2 2
2 2 2
2 2 2
8 8 8
12 12 12
8 8 8
8 8 8
37 37 37
141 141 141
173 173 173
170 170 170
156 156 156
161 161 161
176 176 176
171 171 171
162 162 162
170 170 170
149 149 149
164 164 164
156 156 156
167 167 167
156 156 156
182 182 182
160 160 160
166 166 166
161 161 161
176 176 176
159 159 159
154 154 154
159 159 159
165 165 165
161 161 161
171 171 171
176 176 176
186 186 186
175 175 175
185 185 185
174 174 174
114 114 114
37 37 37
29 29 29
29 29 29
35 35 35
39 39 39
59 59 59
52 52 52
52 52 52
32 32 32
46 46 46
25 25 25
2 2 2
2 2 2
2 2 2
10 10 10
11 11 11
9 9 9
9 9 9
68 68 68
184 184 184
159 159 159
160 160 160
158 158 158
167 167 167
170 170 170
154 154 154
151 151 151
153 153 153
160 160 160
159 159 159
162 162 162
161 161 161
157 157 157
168 168 168
179 179 179
158 158 158
175 175 175
164 164 164
154 154 154
166 166 166
183 183 183
181 181 181
178 178 178
186 186 186
175 175 175
175 175 175
172 172 172
171 171 171
171 171 171
130 130 130
49 49 49
37 37 37
31 31 31
29 29 29
39 39 39
59 59 59
54 54 54
53 53 53
35 35 35
45 45 45
25 25 25
2 2 2
2 2 2
2 2 2
11 11 11
11 11 11
8 8 8
10 10 10
75 75 75
179 179 179
161 161 161
142 142 142
162 162 162
158 158 158
169 169 169
184 184 184
167 167 167
144 144 144
161 161 161
158 158 158
166 166 166
158 158 158
163 163 163
163 163 163
172 172 172
162 162 162
166 166 166
155 155 155
173 173 173
183 183 183
180 180 180
179 179 179
174 174 174
171 171 171
163 163 163
171 171 171
181 181 181
169 169 169
171 171 171
151 151 151
66 66 66
47 47 47
30 30 30
29 29 29
38 38 38
60 60 60
54 54 54
53 53 53
35 35 35
46 46 46
25 25 25
2 2 2
2 2 2
3 3 3
11 11 11
9 9 9
9 9 9
17 17 17
100 100 100
167 167 167
155 155 155
136 136 136
159 159 159
161 161 161
167 167 167
165 165 165
172 172 172
149 149 149
152 152 152
178 178 178
154 154 154
167 167 167
169 169 169
188 188 188
159 159 159
166 166 166
159 159 159
170 170 170
166 166 166
172 172 172
159 159 159
161 161 161
166 166 166
168 168 168
153 153 153
162 162 162
173 173 173
172 172 172
175 175 175
175 175 175
74 74 74
45 45 45
36 36 36
29 29 29
39 39 39
60 60 60
53 53 53
53 53 53
37 37 37
46 46 46
25 25 25
2 2 2
2 2 2
4 4 4
11 11 11
12 12 12
18 18 18
29 29 29
135 135 135
161 161 161
157 157 157
143 143 143
158 158 158
171 171 171
160 160 160
156 156 156
162 162 162
161 161 161
152 152 152
167 167 167
164 164 164
169 169 169
169 169 169
174 174 174
161 161 161
169 169 169
159 159 159
172 172 172
158 158 158
166 166 166
146 146 146
159 159 159
171 171 171
172 172 172
152 152 152
164 164 164
169 169 169
184 184 184
178 178 178
170 170 170
88 88 88
41 41 41
45 45 45
30 30 30
39 39 39
59 59 59
54 54 54
54 54 54
36 36 36
47 47 47
24 24 24
2 2 2
2 2 2
5 5 5
11 11 11
16 16 16
7 7 7
60 60 60
135 135 135
163 163 163
145 145 145
150 150 150
166 166 166
171 171 171
157 157 157
157 157 157
158 158 158
170 170 170
154 154 154
171 171 171
161 161 161
187 187 187
192 192 192
163 163 163
158 158 158
169 169 169
161 161 161
173 173 173
157 157 157
166 166 166
146 146 146
166 166 166
188 188 188
174 174 174
167 167 167
169 169 169
171 171 171
181 181 181
178 178 178
180 180 180
97 97 97
40 40 40
45 45 45
28 28 28
40 40 40
60 60 60
54 54 54
54 54 54
35 35 35
46 46 46
22 22 22
2 2 2
2 2 2
5 5 5
13 13 13
7 7 7
7 7 7
77 77 77
189 189 189
131 131 131
152 152 152
168 168 168
169 169 169
170 170 170
152 152 152
154 154 154
154 154 154
173 173 173
158 158 158
175 175 175
162 162 162
170 170 170
163 163 163
157 157 157
165 165 165
167 167 167
165 165 165
170 170 170
155 155 155
165 165 165
159 159 159
172 172 172
189 189 189
182 182 182
179 179 179
185 185 185
178 178 178
175 175 175
181 181 181
185 185 185
98 98 98
42 42 42
43 43 43
27 27 27
38 38 38
60 60 60
54 54 54
54 54 54
33 33 33
44 44 44
21 21 21
2 2 2
2 2 2
6 6 6
11 11 11
4 4 4
14 14 14
119 119 119
163 163 163
147 147 147
153 153 153
168 168 168
181 181 181
161 161 161
168 168 168
155 155 155
152 152 152
175 175 175
158 158 158
176 176 176
163 163 163
171 171 171
159 159 159
157 157 157
170 170 170
169 169 169
179 179 179
160 160 160
145 145 145
165 165 165
170 170 170
180 180 180
185 185 185
181 181 181
179 179 179
194 194 194
175 175 175
181 181 181
185 185 185
187 187 187
99 99 99
43 43 43
42 42 42
26 26 26
39 39 39
61 61 61
55 55 55
54 54 54
35 35 35
44 44 44
24 24 24
2 2 2
2 2 2
6 6 6
8 8 8
5 5 5
19 19 19
119 119 119
132 132 132
144 144 144
168 168 168
167 167 167
189 189 189
162 162 162
147 147 147
158 158 158
155 155 155
176 176 176
155 155 155
178 178 178
165 165 165
172 172 172
160 160 160
157 157 157
170 170 170
170 170 170
178 178 178
164 164 164
156 156 156
163 163 163
179 179 179
179 179 179
163 163 163
162 162 162
183 183 183
197 197 197
173 173 173
183 183 183
186 186 186
187 187 187
95 95 95
42 42 42
43 43 43
27 27 27
38 38 38
60 60 60
55 55 55
55 55 55
39 39 39
43 43 43
26 26 26
2 2 2
2 2 2
7 7 7
5 5 5
4 4 4
21 21 21
111 111 111
130 130 130
142 142 142
139 139 139
153 153 153
194 194 194
160 160 160
154 154 154
164 164 164
156 156 156
170 170 170
155 155 155
175 175 175
166 166 166
174 174 174
158 158 158
159 159 159
166 166 166
174 174 174
176 176 176
166 166 166
158 158 158
163 163 163
172 172 172
166 166 166
154 154 154
150 150 150
178 178 178
197 197 197
173 173 173
189 189 189
188 188 188
187 187 187
84 84 84
44 44 44
41 41 41
29 29 29
38 38 38
59 59 59
55 55 55
55 55 55
41 41 41
43 43 43
22 22 22
2 2 2
2 2 2
3 3 3
4 4 4
4 4 4
28 28 28
115 115 115
143 143 143
151 151 151
134 134 134
140 140 140
195 195 195
161 161 161
167 167 167
167 167 167
163 163 163
160 160 160
162 162 162
176 176 176
169 169 169
178 178 178
164 164 164
160 160 160
158 158 158
172 172 172
171 171 171
168 168 168
161 161 161
174 174 174
155 155 155
160 160 160
151 151 151
150 150 150
171 171 171
198 198 198
176 176 176
191 191 191
185 185 185
190 190 190
73 73 73
46 46 46
40 40 40
30 30 30
37 37 37
59 59 59
54 54 54
55 55 55
43 43 43
41 41 41
20 20 20
2 2 2
3 3 3
3 3 3
4 4 4
4 4 4
51 51 51
127 127 127
157 157 157
149 149 149
127 127 127
134 134 134
190 190 190
169 169 169
168 168 168
171 171 171
166 166 166
148 148 148
163 163 163
179 179 179
168 168 168
177 177 177
169 169 169
158 158 158
154 154 154
165 165 165
169 169 169
171 171 171
163 163 163
174 174 174
145 145 145
146 146 146
167 167 167
157 157 157
153 153 153
190 190 190
177 177 177
193 193 193
184 184 184
177 177 177
69 69 69
43 43 43
39 39 39
27 27 27
38 38 38
59 59 59
55 55 55
55 55 55
46 46 46
38 38 38
19 19 19
2 2 2
3 3 3
3 3 3
4 4 4
9 9 9
66 66 66
120 120 120
158 158 158
133 133 133
123 123 123
134 134 134
173 173 173
172 172 172
174 174 174
177 177 177
158 158 158
152 152 152
162 162 162
168 168 168
161 161 161
170 170 170
164 164 164
156 156 156
159 159 159
163 163 163
175 175 175
178 178 178
174 174 174
182 182 182
138 138 138
147 147 147
155 155 155
156 156 156
159 159 159
173 173 173
176 176 176
188 188 188
182 182 182
146 146 146
63 63 63
38 38 38
36 36 36
30 30 30
38 38 38
59 59 59
55 55 55
55 55 55
47 47 47
33 33 33
23 23 23
2 2 2
2 2 2
3 3 3
4 4 4
16 16 16
76 76 76
142 142 142
162 162 162
122 122 122
124 124 124
133 133 133
150 150 150
173 173 173
179 179 179
172 172 172
139 139 139
160 160 160
170 170 170
152 152 152
170 170 170
155 155 155
151 151 151
163 163 163
170 170 170
169 169 169
178 178 178
174 174 174
167 167 167
185 185 185
141 141 141
150 150 150
157 157 157
165 165 165
169 169 169
178 178 178
186 186 186
181 181 181
188 188 188
131 131 131
49 49 49
37 37 37
33 33 33
34 34 34
37 37 37
58 58 58
55 55 55
55 55 55
49 49 49
32 32 32
23 23 23
2 2 2
3 3 3
3 3 3
4 4 4
15 15 15
74 74 74
157 157 157
161 161 161
116 116 116
136 136 136
132 132 132
138 138 138
173 173 173
179 179 179
162 162 162
138 138 138
163 163 163
169 169 169
153 153 153
171 171 171
158 158 158
147 147 147
168 168 168
170 170 170
170 170 170
179 179 179
173 173 173
165 165 165
187 187 187
147 147 147
152 152 152
158 158 158
166 166 166
172 172 172
180 180 180
188 188 188
182 182 182
192 192 192
121 121 121
40 40 40
38 38 38
33 33 33
36 36 36
38 38 38
58 58 58
54 54 54
55 55 55
49 49 49
34 34 34
22 22 22
2 2 2
3 3 3
3 3 3
4 4 4
18 18 18
79 79 79
158 158 158
147 147 147
136 136 136
105 105 105
142 142 142
136 136 136
175 175 175
161 161 161
143 143 143
161 161 161
174 174 174
144 144 144
174 174 174
159 159 159
161 161 161
147 147 147
166 166 166
186 186 186
179 179 179
189 189 189
178 178 178
187 187 187
198 198 198
174 174 174
173 173 173
177 177 177
179 179 179
177 177 177
185 185 185
191 191 191
185 185 185
181 181 181
84 84 84
36 36 36
40 40 40
31 31 31
41 41 41
37 37 37
58 58 58
55 55 55
56 56 56
46 46 46
42 42 42
19 19 19
2 2 2
2 2 2
3 3 3
4 4 4
29 29 29
78 78 78
144 144 144
138 138 138
118 118 118
90 90 90
141 141 141
147 147 147
174 174 174
171 171 171
151 151 151
193 193 193
174 174 174
164 164 164
183 183 183
182 182 182
148 148 148
169 169 169
146 146 146
169 169 169
170 170 170
194 194 194
208 208 208
200 200 200
202 202 202
172 172 172
178 178 178
156 156 156
159 159 159
155 155 155
166 166 166
186 186 186
183 183 183
131 131 131
59 59 59
41 41 41
37 37 37
28 28 28
40 40 40
36 36 36
57 57 57
55 55 55
56 56 56
41 41 41
46 46 46
18 18 18
2 2 2
2 2 2
3 3 3
4 4 4
29 29 29
77 77 77
136 136 136
170 170 170
108 108 108
124 124 124
161 161 161
164 164 164
173 173 173
193 193 193
183 183 183
191 191 191
196 196 196
185 185 185
164 164 164
178 178 178
164 164 164
176 176 176
169 169 169
178 178 178
169 169 169
174 174 174
175 175 175
173 173 173
186 186 186
171 171 171
158 158 158
168 168 168
171 171 171
150 150 150
167 167 167
191 191 191
200 200 200
122 122 122
53 53 53
38 38 38
33 33 33
28 28 28
38 38 38
34 34 34
55 55 55
55 55 55
58 58 58
40 40 40
45 45 45
20 20 20
2 2 2
2 2 2
3 3 3
4 4 4
36 36 36
76 76 76
138 138 138
166 166 166
108 108 108
140 140 140
136 136 136
145 145 145
186 186 186
208 208 208
195 195 195
178 178 178
201 201 201
172 172 172
177 177 177
194 194 194
172 172 172
168 168 168
152 152 152
162 162 162
165 165 165
181 181 181
196 196 196
168 168 168
176 176 176
188 188 188
174 174 174
177 177 177
188 188 188
171 171 171
173 173 173
189 189 189
195 195 195
100 100 100
40 40 40
37 37 37
27 27 27
28 28 28
39 39 39
34 34 34
54 54 54
56 56 56
59 59 59
38 38 38
46 46 46
25 25 25
2 2 2
3 3 3
4 4 4
5 5 5
37 37 37
79 79 79
113 113 113
137 137 137
118 118 118
99 99 99
116 116 116
109 109 109
164 164 164
186 186 186
172 172 172
193 193 193
196 196 196
182 182 182
181 181 181
170 170 170
190 190 190
179 179 179
169 169 169
171 171 171
181 181 181
175 175 175
175 175 175
176 176 176
183 183 183
177 177 177
169 169 169
172 172 172
176 176 176
182 182 182
195 195 195
201 201 201
164 164 164
62 62 62
31 31 31
31 31 31
25 25 25
29 29 29
38 38 38
33 33 33
53 53 53
56 56 56
59 59 59
36 36 36
46 46 46
24 24 24
2 2 2
3 3 3
4 4 4
4 4 4
28 28 28
77 77 77
80 80 80
91 91 91
103 103 103
124 124 124
128 128 128
117 117 117
176 176 176
154 154 154
164 164 164
197 197 197
193 193 193
195 195 195
176 176 176
189 189 189
177 177 177
190 190 190
187 187 187
158 158 158
162 162 162
166 166 166
176 176 176
166 166 166
183 183 183
205 205 205
186 186 186
180 180 180
184 184 184
202 202 202
204 204 204
200 200 200
124 124 124
44 44 44
26 26 26
23 23 23
25 25 25
28 28 28
40 40 40
32 32 32
53 53 53
56 56 56
60 60 60
32 32 32
43 43 43
17 17 17
2 2 2
3 3 3
7 7 7
7 7 7
18 18 18
78 78 78
77 77 77
86 86 86
108 108 108
146 146 146
161 161 161
136 136 136
145 145 145
185 185 185
184 184 184
183 183 183
201 201 201
185 185 185
179 179 179
189 189 189
196 196 196
189 189 189
188 188 188
184 184 184
197 197 197
182 182 182
200 200 200
199 199 199
198 198 198
190 190 190
199 199 199
194 194 194
201 201 201
205 205 205
208 208 208
185 185 185
83 83 83
38 38 38
22 22 22
23 23 23
21 21 21
27 27 27
43 43 43
31 31 31
53 53 53
55 55 55
60 60 60
31 31 31
40 40 40
14 14 14
2 2 2
3 3 3
7 7 7
7 7 7
14 14 14
80 80 80
78 78 78
84 84 84
94 94 94
129 129 129
152 152 152
150 150 150
176 176 176
179 179 179
182 182 182
166 166 166
189 189 189
179 179 179
191 191 191
182 182 182
191 191 191
189 189 189
185 185 185
182 182 182
187 187 187
192 192 192
196 196 196
200 200 200
208 208 208
206 206 206
207 207 207
202 202 202
197 197 197
209 209 209
199 199 199
107 107 107
79 79 79
33 33 33
23 23 23
23 23 23
18 18 18
23 23 23
43 43 43
29 29 29
51 51 51
55 55 55
60 60 60
31 31 31
40 40 40
16 16 16
2 2 2
3 3 3
5 5 5
9 9 9
10 10 10
64 64 64
78 78 78
84 84 84
88 88 88
164 164 164
177 177 177
204 204 204
192 192 192
175 175 175
183 183 183
183 183 183
199 199 199
188 188 188
211 211 211
196 196 196
181 181 181
183 183 183
185 185 185
192 192 192
189 189 189
189 189 189
194 194 194
194 194 194
191 191 191
192 192 192
190 190 190
190 190 190
182 182 182
185 185 185
132 132 132
73 73 73
88 88 88
27 27 27
24 24 24
24 24 24
19 19 19
24 24 24
43 43 43
29 29 29
50 50 50
54 54 54
60 60 60
31 31 31
38 38 38
14 14 14
5 5 5
9 9 9
7 7 7
12 12 12
12 12 12
43 43 43
84 84 84
97 97 97
97 97 97
162 162 162
198 198 198
223 223 223
188 188 188
159 159 159
194 194 194
165 165 165
183 183 183
178 178 178
210 210 210
180 180 180
173 173 173
186 186 186
170 170 170
182 182 182
179 179 179
162 162 162
179 179 179
176 176 176
172 172 172
166 166 166
166 166 166
181 181 181
187 187 187
108 108 108
84 84 84
73 73 73
60 60 60
25 25 25
25 25 25
26 26 26
22 22 22
27 27 27
43 43 43
31 31 31
49 49 49
54 54 54
61 61 61
29 29 29
37 37 37
13 13 13
12 12 12
17 17 17
21 21 21
23 23 23
26 26 26
57 57 57
93 93 93
106 106 106
135 135 135
208 208 208
199 199 199
160 160 160
198 198 198
177 177 177
189 189 189
184 184 184
174 174 174
174 174 174
149 149 149
199 199 199
179 179 179
165 165 165
156 156 156
173 173 173
179 179 179
172 172 172
163 163 163
159 159 159
146 146 146
135 135 135
136 136 136
119 119 119
93 93 93
84 84 84
68 68 68
60 60 60
34 34 34
27 27 27
26 26 26
26 26 26
22 22 22
29 29 29
40 40 40
26 26 26
47 47 47
53 53 53
61 61 61
28 28 28
40 40 40
14 14 14
3 3 3
3 3 3
4 4 4
9 9 9
11 11 11
23 23 23
72 72 72
83 83 83
92 92 92
105 105 105
164 164 164
151 151 151
114 114 114
92 92 92
96 96 96
104 104 104
122 122 122
126 126 126
155 155 155
162 162 162
156 156 156
127 127 127
135 135 135
145 145 145
137 137 137
184 184 184
137 137 137
130 130 130
88 88 88
89 89 89
89 89 89
89 89 89
88 88 88
77 77 77
64 64 64
47 47 47
31 31 31
34 34 34
27 27 27
26 26 26
24 24 24
34 34 34
43 43 43
28 28 28
47 47 47
52 52 52
60 60 60
26 26 26
40 40 40
13 13 13
9 9 9
18 18 18
17 17 17
18 18 18
27 27 27
34 34 34
98 98 98
107 107 107
124 124 124
161 161 161
208 208 208
164 164 164
223 223 223
159 159 159
176 176 176
156 156 156
149 149 149
153 153 153
194 194 194
194 194 194
162 162 162
198 198 198
160 160 160
136 136 136
135 135 135
165 165 165
134 134 134
95 95 95
88 88 88
87 87 87
90 90 90
90 90 90
85 85 85
63 63 63
43 43 43
37 37 37
31 31 31
37 37 37
35 35 35
26 26 26
24 24 24
32 32 32
42 42 42
36 36 36
49 49 49
48 48 48
55 55 55
23 23 23
38 38 38
13 13 13
5 5 5
10 10 10
13 13 13
16 16 16
18 18 18
30 30 30
90 90 90
108 108 108
106 106 106
181 181 181
202 202 202
222 222 222
215 215 215
162 162 162
166 166 166
139 139 139
130 130 130
154 154 154
185 185 185
182 182 182
205 205 205
158 158 158
142 142 142
157 157 157
146 146 146
133 133 133
96 96 96
90 90 90
90 90 90
89 89 89
89 89 89
90 90 90
85 85 85
49 49 49
44 44 44
30 30 30
28 28 28
36 36 36
47 47 47
33 33 33
24 24 24
29 29 29
37 37 37
37 37 37
57 57 57
59 59 59
68 68 68
25 25 25
38 38 38
13 13 13
2 2 2
2 2 2
3 3 3
3 3 3
10 10 10
12 12 12
42 42 42
78 78 78
84 84 84
117 117 117
151 151 151
188 188 188
178 178 178
175 175 175
199 199 199
159 159 159
92 92 92
119 119 119
185 185 185
226 226 226
188 188 188
172 172 172
140 140 140
153 153 153
129 129 129
144 144 144
109 109 109
98 98 98
89 89 89
89 89 89
89 89 89
89 89 89
84 84 84
41 41 41
39 39 39
28 28 28
29 29 29
32 32 32
48 48 48
32 32 32
26 26 26
30 30 30
37 37 37
25 25 25
44 44 44
54 54 54
65 65 65
22 22 22
39 39 39
16 16 16
2 2 2
2 2 2
2 2 2
2 2 2
6 6 6
10 10 10
22 22 22
78 78 78
81 81 81
114 114 114
169 169 169
176 176 176
165 165 165
178 178 178
200 200 200
182 182 182
127 127 127
113 113 113
156 156 156
190 190 190
192 192 192
145 145 145
126 126 126
162 162 162
142 142 142
149 149 149
118 118 118
93 93 93
88 88 88
90 90 90
89 89 89
89 89 89
83 83 83
37 37 37
35 35 35
31 31 31
31 31 31
26 26 26
41 41 41
34 34 34
28 28 28
34 34 34
36 36 36
25 25 25
44 44 44
53 53 53
65 65 65
23 23 23
40 40 40
17 17 17
2 2 2
2 2 2
2 2 2
2 2 2
4 4 4
7 7 7
19 19 19
60 60 60
79 79 79
105 105 105
164 164 164
142 142 142
159 159 159
153 153 153
168 168 168
160 160 160
161 161 161
122 122 122
160 160 160
127 127 127
127 127 127
139 139 139
132 132 132
172 172 172
163 163 163
126 126 126
105 105 105
90 90 90
89 89 89
90 90 90
89 89 89
89 89 89
83 83 83
37 37 37
31 31 31
34 34 34
36 36 36
29 29 29
34 34 34
37 37 37
30 30 30
36 36 36
35 35 35
23 23 23
41 41 41
53 53 53
66 66 66
22 22 22
41 41 41
18 18 18
2 2 2
2 2 2
2 2 2
2 2 2
2 2 2
5 5 5
10 10 10
42 42 42
79 79 79
102 102 102
138 138 138
149 149 149
154 154 154
124 124 124
142 142 142
159 159 159
175 175 175
123 123 123
121 121 121
119 119 119
133 133 133
140 140 140
165 165 165
144 144 144
123 123 123
121 121 121
108 108 108
90 90 90
90 90 90
90 90 90
90 90 90
89 89 89
83 83 83
40 40 40
28 28 28
35 35 35
37 37 37
30 30 30
36 36 36
38 38 38
30 30 30
38 38 38
34 34 34
23 23 23
39 39 39
51 51 51
66 66 66
23 23 23
41 41 41
20 20 20
2 2 2
2 2 2
2 2 2
2 2 2
2 2 2
3 3 3
12 12 12
19 19 19
69 69 69
109 109 109
173 173 173
150 150 150
179 179 179
136 136 136
154 154 154
161 161 161
168 168 168
141 141 141
143 143 143
146 146 146
137 137 137
172 172 172
140 140 140
136 136 136
132 132 132
131 131 131
103 103 103
89 89 89
90 90 90
90 90 90
90 90 90
89 89 89
83 83 83
36 36 36
26 26 26
36 36 36
38 38 38
31 31 31
37 37 37
40 40 40
29 29 29
39 39 39
33 33 33
21 21 21
37 37 37
50 50 50
65 65 65
24 24 24
42 42 42
20 20 20
2 2 2
2 2 2
2 2 2
2 2 2
3 3 3
4 4 4
6 6 6
15 15 15
60 60 60
97 97 97
184 184 184
150 150 150
179 179 179
157 157 157
173 173 173
165 165 165
192 192 192
160 160 160
161 161 161
184 184 184
173 173 173
132 132 132
120 120 120
130 130 130
137 137 137
139 139 139
102 102 102
88 88 88
90 90 90
90 90 90
90 90 90
89 89 89
85 85 85
36 36 36
27 27 27
37 37 37
38 38 38
31 31 31
37 37 37
40 40 40
28 28 28
38 38 38
32 32 32
21 21 21
35 35 35
49 49 49
65 65 65
25 25 25
42 42 42
21 21 21
2 2 2
2 2 2
2 2 2
4 4 4
6 6 6
7 7 7
5 5 5
7 7 7
29 29 29
77 77 77
158 158 158
208 208 208
172 172 172
176 176 176
156 156 156
211 211 211
219 219 219
179 179 179
197 197 197
119 119 119
137 137 137
118 118 118
119 119 119
126 126 126
115 115 115
123 123 123
112 112 112
94 94 94
88 88 88
90 90 90
89 89 89
89 89 89
85 85 85
33 33 33
27 27 27
38 38 38
39 39 39
32 32 32
38 38 38
41 41 41
28 28 28
36 36 36
30 30 30
20 20 20
36 36 36
50 50 50
65 65 65
25 25 25
38 38 38
16 16 16
0 0 0
0 0 0
0 0 0
0 0 0
0 0 0
0 0 0
0 0 0
0 0 0
0 0 0
0 0 0
0 0 0
0 0 0
0 0 0
0 0 0
0 0 0
0 0 0
0 0 0
0 0 0
0 0 0
0 0 0
0 0 0
0 0 0
0 0 0
0 0 0
0 0 0
0 0 0
0 0 0
0 0 0
0 0 0
0 0 0
0 0 0
0 0 0
0 0 0
0 0 0
0 0 0
0 0 0
0 0 0
0 0 0
0 0 0
0 0 0
0 0 0
0 0 0
0 0 0
0 0 0
0 0 0
0 0 0
0 0 0
0 0 0
0 0 0
0 0 0
