P3 
50 50 
255
0 0 0
0 0 0
0 0 0
0 0 0
0 0 0
0 0 0
0 0 0
0 0 0
0 0 0
0 0 0
0 0 0
0 0 0
0 0 0
0 0 0
0 0 0
0 0 0
0 0 0
0 0 0
0 0 0
0 0 0
0 0 0
0 0 0
0 0 0
0 0 0
0 0 0
0 0 0
0 0 0
0 0 0
0 0 0
0 0 0
0 0 0
0 0 0
0 0 0
0 0 0
0 0 0
0 0 0
0 0 0
0 0 0
0 0 0
0 0 0
0 0 0
0 0 0
0 0 0
0 0 0
0 0 0
0 0 0
0 0 0
0 0 0
0 0 0
0 0 0
5 5 5
9 9 9
11 11 11
21 21 21
34 34 34
30 30 30
18 18 18
47 47 47
48 48 48
66 66 66
45 45 45
25 25 25
24 24 24
29 29 29
27 27 27
26 26 26
23 23 23
51 51 51
65 65 65
74 74 74
73 73 73
69 69 69
50 50 50
29 29 29
25 25 25
37 37 37
37 37 37
61 61 61
71 71 71
45 45 45
18 18 18
35 35 35
25 25 25
15 15 15
26 26 26
39 39 39
29 29 29
30 30 30
24 24 24
19 19 19
17 17 17
15 15 15
22 22 22
11 11 11
6 6 6
6 6 6
3 3 3
2 2 2
2 2 2
2 2 2
6 6 6
8 8 8
21 21 21
31 31 31
29 29 29
18 18 18
15 15 15
47 47 47
45 45 45
65 65 65
44 44 44
23 23 23
22 22 22
37 37 37
39 39 39
77 77 77
97 97 97
124 124 124
155 155 155
182 182 182
191 191 191
188 188 188
162 162 162
127 127 127
99 99 99
65 65 65
37 37 37
60 60 60
70 70 70
45 45 45
21 21 21
39 39 39
28 28 28
16 16 16
20 20 20
35 35 35
28 28 28
23 23 23
19 19 19
25 25 25
14 14 14
16 16 16
13 13 13
11 11 11
8 8 8
7 7 7
3 3 3
2 2 2
2 2 2
2 2 2
6 6 6
9 9 9
21 21 21
18 18 18
13 13 13
17 17 17
26 26 26
45 45 45
45 45 45
65 65 65
44 44 44
23 23 23
41 41 41
83 83 83
110 110 110
172 172 172
193 193 193
197 197 197
190 190 190
182 182 182
183 183 183
186 186 186
199 199 199
194 194 194
190 190 190
175 175 175
102 102 102
61 61 61
71 71 71
44 44 44
25 25 25
43 43 43
33 33 33
19 19 19
18 18 18
29 29 29
30 30 30
24 24 24
19 19 19
25 25 25
14 14 14
15 15 15
17 17 17
14 14 14
10 10 10
10 10 10
4 4 4
2 2 2
2 2 2
2 2 2
6 6 6
9 9 9
13 13 13
17 17 17
33 33 33
30 30 30
22 22 22
46 46 46
45 45 45
64 64 64
43 43 43
79 79 79
99 99 99
161 161 161
183 183 183
188 188 188
197 197 197
189 189 189
183 183 183
183 183 183
179 179 179
179 179 179
176 176 176
181 181 181
186 186 186
193 193 193
199 199 199
152 152 152
77 77 77
45 45 45
24 24 24
42 42 42
43 43 43
25 25 25
15 15 15
23 23 23
31 31 31
23 23 23
26 26 26
23 23 23
19 19 19
14 14 14
19 19 19
18 18 18
10 10 10
11 11 11
3 3 3
2 2 2
2 2 2
2 2 2
6 6 6
9 9 9
9 9 9
27 27 27
41 41 41
20 20 20
16 16 16
47 47 47
46 46 46
64 64 64
86 86 86
114 114 114
158 158 158
174 174 174
180 180 180
191 191 191
182 182 182
190 190 190
181 181 181
175 175 175
174 174 174
178 178 178
174 174 174
184 184 184
183 183 183
186 186 186
188 188 188
197 197 197
174 174 174
88 88 88
26 26 26
39 39 39
49 49 49
29 29 29
20 20 20
19 19 19
31 31 31
19 19 19
26 26 26
26 26 26
20 20 20
17 17 17
17 17 17
20 20 20
9 9 9
8 8 8
3 3 3
3 3 3
2 2 2
2 2 2
6 6 6
11 11 11
9 9 9
32 32 32
22 22 22
16 16 16
28 28 28
49 49 49
60 60 60
89 89 89
135 135 135
165 165 165
173 173 173
170 170 170
191 191 191
189 189 189
185 185 185
188 188 188
184 184 184
177 177 177
182 182 182
181 181 181
181 181 181
169 169 169
183 183 183
182 182 182
181 181 181
185 185 185
195 195 195
182 182 182
78 78 78
36 36 36
45 45 45
33 33 33
30 30 30
16 16 16
31 31 31
18 18 18
25 25 25
28 28 28
21 21 21
17 17 17
17 17 17
18 18 18
11 11 11
7 7 7
3 3 3
2 2 2
2 2 2
2 2 2
7 7 7
12 12 12
12 12 12
27 27 27
20 20 20
24 24 24
31 31 31
54 54 54
90 90 90
142 142 142
164 164 164
172 172 172
170 170 170
196 196 196
178 178 178
177 177 177
175 175 175
181 181 181
178 178 178
179 179 179
174 174 174
176 176 176
179 179 179
175 175 175
186 186 186
184 184 184
184 184 184
184 184 184
183 183 183
190 190 190
163 163 163
49 49 49
39 39 39
33 33 33
39 39 39
19 19 19
30 30 30
21 21 21
20 20 20
23 23 23
21 21 21
15 15 15
18 18 18
19 19 19
12 12 12
8 8 8
3 3 3
2 2 2
2 2 2
2 2 2
7 7 7
12 12 12
11 11 11
21 21 21
29 29 29
28 28 28
34 34 34
87 87 87
137 137 137
161 161 161
168 168 168
171 171 171
183 183 183
182 182 182
171 171 171
172 172 172
180 180 180
184 184 184
179 179 179
176 176 176
175 175 175
171 171 171
171 171 171
176 176 176
175 175 175
181 181 181
177 177 177
181 181 181
175 175 175
178 178 178
182 182 182
114 114 114
31 31 31
32 32 32
43 43 43
26 26 26
27 27 27
20 20 20
22 22 22
20 20 20
24 24 24
13 13 13
16 16 16
19 19 19
13 13 13
9 9 9
3 3 3
2 2 2
2 2 2
2 2 2
7 7 7
12 12 12
13 13 13
18 18 18
36 36 36
26 26 26
80 80 80
127 127 127
161 161 161
167 167 167
172 172 172
175 175 175
171 171 171
176 176 176
171 171 171
176 176 176
180 180 180
177 177 177
169 169 169
175 175 175
176 176 176
167 167 167
164 164 164
156 156 156
161 161 161
160 160 160
165 165 165
167 167 167
172 172 172
176 176 176
185 185 185
183 183 183
59 59 59
28 28 28
43 43 43
39 39 39
25 25 25
20 20 20
19 19 19
24 24 24
24 24 24
14 14 14
19 19 19
20 20 20
15 15 15
12 12 12
8 8 8
2 2 2
2 2 2
2 2 2
7 7 7
12 12 12
13 13 13
18 18 18
37 37 37
68 68 68
109 109 109
163 163 163
171 171 171
173 173 173
170 170 170
171 171 171
183 183 183
172 172 172
172 172 172
173 173 173
162 162 162
170 170 170
157 157 157
166 166 166
179 179 179
164 164 164
170 170 170
176 176 176
172 172 172
173 173 173
175 175 175
176 176 176
170 170 170
175 175 175
173 173 173
181 181 181
125 125 125
26 26 26
34 34 34
50 50 50
26 26 26
24 24 24
18 18 18
26 26 26
24 24 24
15 15 15
21 21 21
21 21 21
14 14 14
11 11 11
3 3 3
3 3 3
2 2 2
2 2 2
7 7 7
12 12 12
16 16 16
19 19 19
37 37 37
96 96 96
156 156 156
172 172 172
175 175 175
164 164 164
160 160 160
159 159 159
164 164 164
167 167 167
175 175 175
173 173 173
178 178 178
174 174 174
170 170 170
169 169 169
177 177 177
174 174 174
158 158 158
164 164 164
162 162 162
155 155 155
159 159 159
170 170 170
172 172 172
182 182 182
177 177 177
179 179 179
189 189 189
44 44 44
31 31 31
52 52 52
31 31 31
26 26 26
24 24 24
23 23 23
22 22 22
16 16 16
17 17 17
22 22 22
15 15 15
12 12 12
4 4 4
2 2 2
2 2 2
2 2 2
7 7 7
12 12 12
15 15 15
21 21 21
64 64 64
130 130 130
167 167 167
171 171 171
172 172 172
162 162 162
186 186 186
179 179 179
173 173 173
174 174 174
165 165 165
165 165 165
163 163 163
153 153 153
158 158 158
169 169 169
169 169 169
173 173 173
167 167 167
173 173 173
177 177 177
164 164 164
172 172 172
177 177 177
164 164 164
166 166 166
178 178 178
172 172 172
178 178 178
74 74 74
25 25 25
52 52 52
35 35 35
28 28 28
27 27 27
24 24 24
27 27 27
17 17 17
17 17 17
26 26 26
15 15 15
11 11 11
4 4 4
2 2 2
2 2 2
2 2 2
8 8 8
13 13 13
14 14 14
22 22 22
85 85 85
172 172 172
164 164 164
172 172 172
166 166 166
168 168 168
169 169 169
164 164 164
154 154 154
162 162 162
167 167 167
163 163 163
171 171 171
175 175 175
153 153 153
161 161 161
173 173 173
163 163 163
165 165 165
163 163 163
170 170 170
167 167 167
165 165 165
181 181 181
161 161 161
165 165 165
189 189 189
187 187 187
182 182 182
100 100 100
25 25 25
52 52 52
35 35 35
29 29 29
28 28 28
27 27 27
33 33 33
21 21 21
21 21 21
31 31 31
18 18 18
15 15 15
4 4 4
2 2 2
2 2 2
2 2 2
9 9 9
14 14 14
15 15 15
31 31 31
105 105 105
164 164 164
165 165 165
175 175 175
169 169 169
167 167 167
162 162 162
169 169 169
174 174 174
190 190 190
182 182 182
175 175 175
188 188 188
177 177 177
173 173 173
167 167 167
168 168 168
170 170 170
163 163 163
175 175 175
165 165 165
157 157 157
169 169 169
164 164 164
172 172 172
168 168 168
166 166 166
179 179 179
170 170 170
120 120 120
26 26 26
52 52 52
36 36 36
29 29 29
30 30 30
28 28 28
29 29 29
19 19 19
26 26 26
35 35 35
19 19 19
11 11 11
4 4 4
2 2 2
2 2 2
2 2 2
11 11 11
13 13 13
13 13 13
54 54 54
143 143 143
181 181 181
170 170 170
168 168 168
167 167 167
163 163 163
181 181 181
178 178 178
171 171 171
187 187 187
179 179 179
163 163 163
176 176 176
166 166 166
168 168 168
178 178 178
153 153 153
168 168 168
167 167 167
163 163 163
157 157 157
162 162 162
167 167 167
160 160 160
166 166 166
171 171 171
166 166 166
164 164 164
176 176 176
127 127 127
33 33 33
52 52 52
38 38 38
32 32 32
31 31 31
29 29 29
26 26 26
22 22 22
26 26 26
32 32 32
18 18 18
15 15 15
5 5 5
2 2 2
2 2 2
2 2 2
12 12 12
15 15 15
18 18 18
60 60 60
169 169 169
173 173 173
167 167 167
171 171 171
163 163 163
171 171 171
174 174 174
158 158 158
147 147 147
170 170 170
154 154 154
157 157 157
168 168 168
165 165 165
162 162 162
175 175 175
173 173 173
181 181 181
165 165 165
164 164 164
177 177 177
157 157 157
178 178 178
161 161 161
163 163 163
175 175 175
189 189 189
166 166 166
189 189 189
130 130 130
38 38 38
53 53 53
37 37 37
33 33 33
30 30 30
26 26 26
20 20 20
13 13 13
20 20 20
24 24 24
19 19 19
20 20 20
11 11 11
3 3 3
2 2 2
2 2 2
11 11 11
17 17 17
19 19 19
74 74 74
173 173 173
172 172 172
173 173 173
173 173 173
169 169 169
168 168 168
170 170 170
142 142 142
145 145 145
160 160 160
144 144 144
154 154 154
168 168 168
150 150 150
165 165 165
171 171 171
180 180 180
161 161 161
173 173 173
164 164 164
174 174 174
166 166 166
174 174 174
168 168 168
162 162 162
171 171 171
161 161 161
177 177 177
173 173 173
144 144 144
47 47 47
54 54 54
36 36 36
33 33 33
31 31 31
25 25 25
19 19 19
15 15 15
18 18 18
22 22 22
15 15 15
16 16 16
4 4 4
3 3 3
2 2 2
2 2 2
10 10 10
19 19 19
21 21 21
82 82 82
175 175 175
171 171 171
171 171 171
174 174 174
177 177 177
163 163 163
164 164 164
142 142 142
155 155 155
161 161 161
161 161 161
163 163 163
168 168 168
156 156 156
171 171 171
164 164 164
176 176 176
170 170 170
173 173 173
162 162 162
178 178 178
164 164 164
177 177 177
169 169 169
165 165 165
176 176 176
160 160 160
162 162 162
175 175 175
165 165 165
56 56 56
54 54 54
34 34 34
35 35 35
31 31 31
24 24 24
22 22 22
19 19 19
13 13 13
21 21 21
17 17 17
18 18 18
8 8 8
3 3 3
2 2 2
2 2 2
10 10 10
20 20 20
27 27 27
90 90 90
174 174 174
169 169 169
183 183 183
168 168 168
178 178 178
159 159 159
165 165 165
160 160 160
168 168 168
189 189 189
182 182 182
173 173 173
164 164 164
159 159 159
153 153 153
158 158 158
168 168 168
172 172 172
173 173 173
167 167 167
178 178 178
166 166 166
178 178 178
175 175 175
168 168 168
177 177 177
161 161 161
165 165 165
179 179 179
169 169 169
68 68 68
53 53 53
32 32 32
32 32 32
28 28 28
22 22 22
24 24 24
18 18 18
13 13 13
26 26 26
18 18 18
18 18 18
15 15 15
2 2 2
2 2 2
2 2 2
10 10 10
19 19 19
35 35 35
96 96 96
172 172 172
167 167 167
189 189 189
173 173 173
178 178 178
162 162 162
162 162 162
167 167 167
178 178 178
187 187 187
176 176 176
168 168 168
182 182 182
166 166 166
160 160 160
163 163 163
171 171 171
176 176 176
178 178 178
173 173 173
177 177 177
169 169 169
182 182 182
176 176 176
170 170 170
178 178 178
162 162 162
166 166 166
186 186 186
175 175 175
97 97 97
54 54 54
31 31 31
28 28 28
31 31 31
25 25 25
28 28 28
17 17 17
15 15 15
19 19 19
13 13 13
11 11 11
16 16 16
3 3 3
2 2 2
2 2 2
10 10 10
17 17 17
32 32 32
92 92 92
175 175 175
167 167 167
192 192 192
174 174 174
183 183 183
154 154 154
159 159 159
178 178 178
174 174 174
167 167 167
160 160 160
154 154 154
186 186 186
174 174 174
169 169 169
169 169 169
173 173 173
177 177 177
180 180 180
175 175 175
180 180 180
172 172 172
184 184 184
177 177 177
169 169 169
172 172 172
164 164 164
167 167 167
176 176 176
181 181 181
92 92 92
54 54 54
29 29 29
30 30 30
32 32 32
23 23 23
27 27 27
16 16 16
14 14 14
17 17 17
10 10 10
11 11 11
15 15 15
2 2 2
2 2 2
2 2 2
10 10 10
17 17 17
25 25 25
78 78 78
175 175 175
169 169 169
193 193 193
181 181 181
185 185 185
151 151 151
168 168 168
176 176 176
155 155 155
158 158 158
143 143 143
155 155 155
184 184 184
172 172 172
167 167 167
173 173 173
176 176 176
174 174 174
180 180 180
172 172 172
185 185 185
171 171 171
191 191 191
176 176 176
176 176 176
173 173 173
166 166 166
167 167 167
175 175 175
181 181 181
98 98 98
52 52 52
28 28 28
30 30 30
34 34 34
25 25 25
26 26 26
14 14 14
12 12 12
16 16 16
9 9 9
7 7 7
11 11 11
2 2 2
2 2 2
2 2 2
11 11 11
18 18 18
27 27 27
66 66 66
170 170 170
175 175 175
194 194 194
184 184 184
183 183 183
153 153 153
178 178 178
162 162 162
147 147 147
151 151 151
151 151 151
154 154 154
181 181 181
175 175 175
169 169 169
177 177 177
179 179 179
173 173 173
180 180 180
166 166 166
188 188 188
176 176 176
194 194 194
176 176 176
182 182 182
172 172 172
168 168 168
166 166 166
182 182 182
177 177 177
135 135 135
50 50 50
27 27 27
30 30 30
32 32 32
25 25 25
25 25 25
12 12 12
9 9 9
13 13 13
10 10 10
11 11 11
10 10 10
2 2 2
2 2 2
2 2 2
12 12 12
19 19 19
24 24 24
59 59 59
165 165 165
176 176 176
198 198 198
179 179 179
182 182 182
155 155 155
176 176 176
150 150 150
138 138 138
143 143 143
156 156 156
146 146 146
168 168 168
170 170 170
169 169 169
181 181 181
186 186 186
173 173 173
173 173 173
171 171 171
191 191 191
173 173 173
185 185 185
170 170 170
184 184 184
169 169 169
172 172 172
163 163 163
188 188 188
161 161 161
148 148 148
45 45 45
29 29 29
31 31 31
28 28 28
25 25 25
23 23 23
11 11 11
12 12 12
13 13 13
12 12 12
10 10 10
12 12 12
2 2 2
2 2 2
2 2 2
11 11 11
18 18 18
21 21 21
54 54 54
144 144 144
182 182 182
202 202 202
185 185 185
184 184 184
167 167 167
179 179 179
142 142 142
135 135 135
137 137 137
150 150 150
162 162 162
169 169 169
172 172 172
169 169 169
179 179 179
182 182 182
171 171 171
164 164 164
176 176 176
178 178 178
161 161 161
163 163 163
170 170 170
178 178 178
161 161 161
174 174 174
157 157 157
194 194 194
160 160 160
139 139 139
59 59 59
29 29 29
30 30 30
31 31 31
30 30 30
24 24 24
13 13 13
10 10 10
12 12 12
12 12 12
16 16 16
8 8 8
2 2 2
2 2 2
2 2 2
10 10 10
15 15 15
19 19 19
49 49 49
132 132 132
188 188 188
188 188 188
176 176 176
183 183 183
162 162 162
182 182 182
147 147 147
139 139 139
143 143 143
151 151 151
168 168 168
173 173 173
178 178 178
176 176 176
178 178 178
177 177 177
166 166 166
159 159 159
174 174 174
154 154 154
162 162 162
183 183 183
173 173 173
163 163 163
146 146 146
172 172 172
150 150 150
192 192 192
136 136 136
140 140 140
77 77 77
31 31 31
29 29 29
34 34 34
31 31 31
22 22 22
15 15 15
10 10 10
11 11 11
13 13 13
9 9 9
8 8 8
2 2 2
2 2 2
2 2 2
10 10 10
15 15 15
18 18 18
58 58 58
120 120 120
187 187 187
181 181 181
172 172 172
182 182 182
160 160 160
185 185 185
153 153 153
142 142 142
149 149 149
154 154 154
170 170 170
175 175 175
181 181 181
176 176 176
178 178 178
177 177 177
164 164 164
167 167 167
173 173 173
147 147 147
164 164 164
181 181 181
176 176 176
161 161 161
140 140 140
174 174 174
147 147 147
189 189 189
143 143 143
144 144 144
89 89 89
31 31 31
29 29 29
34 34 34
29 29 29
22 22 22
15 15 15
13 13 13
12 12 12
13 13 13
10 10 10
10 10 10
3 3 3
2 2 2
2 2 2
9 9 9
18 18 18
15 15 15
27 27 27
87 87 87
179 179 179
181 181 181
184 184 184
176 176 176
167 167 167
183 183 183
178 178 178
159 159 159
178 178 178
174 174 174
173 173 173
188 188 188
184 184 184
168 168 168
187 187 187
171 171 171
161 161 161
179 179 179
180 180 180
154 154 154
147 147 147
182 182 182
194 194 194
160 160 160
163 163 163
176 176 176
172 172 172
193 193 193
145 145 145
154 154 154
119 119 119
53 53 53
31 31 31
33 33 33
26 26 26
27 27 27
17 17 17
13 13 13
10 10 10
16 16 16
14 14 14
19 19 19
5 5 5
2 2 2
2 2 2
9 9 9
18 18 18
14 14 14
20 20 20
69 69 69
163 163 163
182 182 182
184 184 184
174 174 174
182 182 182
175 175 175
160 160 160
168 168 168
194 194 194
182 182 182
182 182 182
169 169 169
149 149 149
159 159 159
181 181 181
165 165 165
177 177 177
171 171 171
163 163 163
144 144 144
194 194 194
210 210 210
201 201 201
158 158 158
160 160 160
159 159 159
173 173 173
176 176 176
151 151 151
149 149 149
123 123 123
62 62 62
29 29 29
29 29 29
22 22 22
25 25 25
18 18 18
13 13 13
13 13 13
19 19 19
15 15 15
19 19 19
5 5 5
2 2 2
2 2 2
8 8 8
13 13 13
11 11 11
16 16 16
76 76 76
116 116 116
190 190 190
183 183 183
179 179 179
171 171 171
193 193 193
173 173 173
157 157 157
198 198 198
181 181 181
171 171 171
179 179 179
157 157 157
159 159 159
161 161 161
171 171 171
181 181 181
174 174 174
184 184 184
149 149 149
158 158 158
199 199 199
191 191 191
178 178 178
184 184 184
190 190 190
175 175 175
164 164 164
153 153 153
145 145 145
122 122 122
75 75 75
27 27 27
28 28 28
21 21 21
23 23 23
15 15 15
12 12 12
16 16 16
15 15 15
16 16 16
23 23 23
6 6 6
2 2 2
2 2 2
8 8 8
12 12 12
11 11 11
20 20 20
78 78 78
90 90 90
187 187 187
198 198 198
173 173 173
175 175 175
188 188 188
183 183 183
176 176 176
196 196 196
198 198 198
187 187 187
193 193 193
176 176 176
175 175 175
188 188 188
184 184 184
159 159 159
176 176 176
161 161 161
163 163 163
190 190 190
172 172 172
171 171 171
196 196 196
207 207 207
171 171 171
170 170 170
135 135 135
120 120 120
146 146 146
100 100 100
73 73 73
23 23 23
27 27 27
20 20 20
24 24 24
15 15 15
14 14 14
18 18 18
11 11 11
14 14 14
22 22 22
10 10 10
2 2 2
2 2 2
8 8 8
14 14 14
14 14 14
22 22 22
62 62 62
75 75 75
174 174 174
194 194 194
185 185 185
173 173 173
182 182 182
179 179 179
170 170 170
177 177 177
169 169 169
170 170 170
176 176 176
172 172 172
160 160 160
180 180 180
192 192 192
181 181 181
172 172 172
184 184 184
172 172 172
193 193 193
196 196 196
186 186 186
195 195 195
192 192 192
159 159 159
170 170 170
129 129 129
129 129 129
97 97 97
81 81 81
62 62 62
21 21 21
26 26 26
19 19 19
23 23 23
15 15 15
16 16 16
15 15 15
13 13 13
17 17 17
19 19 19
9 9 9
2 2 2
2 2 2
6 6 6
13 13 13
13 13 13
21 21 21
63 63 63
74 74 74
118 118 118
193 193 193
203 203 203
170 170 170
192 192 192
182 182 182
192 192 192
185 185 185
186 186 186
177 177 177
186 186 186
183 183 183
188 188 188
202 202 202
185 185 185
173 173 173
178 178 178
191 191 191
198 198 198
191 191 191
187 187 187
185 185 185
209 209 209
196 196 196
177 177 177
161 161 161
111 111 111
90 90 90
86 86 86
79 79 79
53 53 53
18 18 18
26 26 26
21 21 21
22 22 22
17 17 17
21 21 21
16 16 16
11 11 11
14 14 14
16 16 16
8 8 8
2 2 2
2 2 2
7 7 7
13 13 13
15 15 15
22 22 22
56 56 56
70 70 70
84 84 84
187 187 187
196 196 196
195 195 195
192 192 192
200 200 200
198 198 198
195 195 195
197 197 197
188 188 188
190 190 190
199 199 199
202 202 202
203 203 203
197 197 197
195 195 195
198 198 198
195 195 195
194 194 194
185 185 185
190 190 190
204 204 204
207 207 207
195 195 195
179 179 179
161 161 161
108 108 108
88 88 88
85 85 85
79 79 79
38 38 38
18 18 18
18 18 18
23 23 23
19 19 19
19 19 19
28 28 28
13 13 13
12 12 12
18 18 18
15 15 15
12 12 12
2 2 2
2 2 2
5 5 5
13 13 13
12 12 12
26 26 26
54 54 54
73 73 73
81 81 81
117 117 117
194 194 194
185 185 185
187 187 187
194 194 194
196 196 196
200 200 200
209 209 209
206 206 206
202 202 202
205 205 205
197 197 197
194 194 194
198 198 198
193 193 193
180 180 180
176 176 176
184 184 184
180 180 180
190 190 190
195 195 195
203 203 203
182 182 182
181 181 181
187 187 187
106 106 106
89 89 89
83 83 83
77 77 77
29 29 29
19 19 19
20 20 20
20 20 20
22 22 22
21 21 21
23 23 23
17 17 17
14 14 14
13 13 13
11 11 11
9 9 9
2 2 2
2 2 2
5 5 5
14 14 14
14 14 14
25 25 25
39 39 39
88 88 88
85 85 85
94 94 94
156 156 156
195 195 195
177 177 177
189 189 189
189 189 189
184 184 184
197 197 197
187 187 187
192 192 192
192 192 192
185 185 185
178 178 178
193 193 193
210 210 210
160 160 160
173 173 173
183 183 183
205 205 205
179 179 179
196 196 196
234 234 234
197 197 197
225 225 225
170 170 170
107 107 107
89 89 89
82 82 82
65 65 65
27 27 27
23 23 23
22 22 22
22 22 22
23 23 23
21 21 21
18 18 18
19 19 19
13 13 13
13 13 13
12 12 12
6 6 6
2 2 2
2 2 2
6 6 6
12 12 12
14 14 14
20 20 20
31 31 31
84 84 84
87 87 87
86 86 86
112 112 112
197 197 197
184 184 184
189 189 189
173 173 173
167 167 167
180 180 180
165 165 165
177 177 177
177 177 177
177 177 177
168 168 168
214 214 214
226 226 226
158 158 158
169 169 169
190 190 190
203 203 203
171 171 171
159 159 159
208 208 208
160 160 160
231 231 231
151 151 151
122 122 122
108 108 108
92 92 92
52 52 52
26 26 26
25 25 25
21 21 21
25 25 25
22 22 22
22 22 22
19 19 19
21 21 21
12 12 12
11 11 11
13 13 13
6 6 6
5 5 5
4 4 4
5 5 5
11 11 11
10 10 10
20 20 20
30 30 30
60 60 60
75 75 75
79 79 79
75 75 75
103 103 103
141 141 141
151 151 151
172 172 172
148 148 148
153 153 153
154 154 154
157 157 157
166 166 166
183 183 183
146 146 146
174 174 174
217 217 217
192 192 192
159 159 159
178 178 178
168 168 168
123 123 123
156 156 156
220 220 220
183 183 183
196 196 196
205 205 205
152 152 152
117 117 117
100 100 100
53 53 53
29 29 29
20 20 20
19 19 19
26 26 26
26 26 26
29 29 29
16 16 16
19 19 19
14 14 14
20 20 20
10 10 10
9 9 9
6 6 6
4 4 4
7 7 7
11 11 11
13 13 13
20 20 20
31 31 31
29 29 29
56 56 56
66 66 66
72 72 72
83 83 83
89 89 89
89 89 89
93 93 93
151 151 151
129 129 129
130 130 130
159 159 159
166 166 166
120 120 120
136 136 136
163 163 163
149 149 149
154 154 154
120 120 120
174 174 174
157 157 157
111 111 111
109 109 109
102 102 102
114 114 114
144 144 144
154 154 154
107 107 107
90 90 90
83 83 83
38 38 38
30 30 30
17 17 17
21 21 21
21 21 21
23 23 23
24 24 24
16 16 16
16 16 16
10 10 10
14 14 14
9 9 9
2 2 2
2 2 2
2 2 2
6 6 6
10 10 10
11 11 11
21 21 21
33 33 33
28 28 28
39 39 39
60 60 60
46 46 46
64 64 64
91 91 91
92 92 92
90 90 90
151 151 151
131 131 131
117 117 117
145 145 145
183 183 183
147 147 147
190 190 190
203 203 203
165 165 165
152 152 152
171 171 171
150 150 150
161 161 161
151 151 151
158 158 158
202 202 202
202 202 202
164 164 164
196 196 196
172 172 172
136 136 136
92 92 92
44 44 44
31 31 31
20 20 20
26 26 26
19 19 19
22 22 22
16 16 16
17 17 17
20 20 20
14 14 14
15 15 15
11 11 11
9 9 9
9 9 9
7 7 7
5 5 5
10 10 10
12 12 12
21 21 21
33 33 33
26 26 26
39 39 39
54 54 54
41 41 41
48 48 48
89 89 89
93 93 93
94 94 94
126 126 126
113 113 113
112 112 112
117 117 117
136 136 136
182 182 182
145 145 145
174 174 174
156 156 156
164 164 164
198 198 198
204 204 204
175 175 175
167 167 167
195 195 195
223 223 223
223 223 223
149 149 149
192 192 192
137 137 137
112 112 112
73 73 73
30 30 30
38 38 38
22 22 22
22 22 22
24 24 24
19 19 19
16 16 16
19 19 19
15 15 15
10 10 10
14 14 14
8 8 8
6 6 6
7 7 7
5 5 5
6 6 6
14 14 14
14 14 14
20 20 20
32 32 32
25 25 25
35 35 35
59 59 59
40 40 40
40 40 40
89 89 89
88 88 88
89 89 89
103 103 103
136 136 136
142 142 142
114 114 114
133 133 133
148 148 148
177 177 177
131 131 131
130 130 130
130 130 130
162 162 162
171 171 171
172 172 172
177 177 177
171 171 171
198 198 198
215 215 215
192 192 192
136 136 136
139 139 139
81 81 81
49 49 49
22 22 22
27 27 27
18 18 18
19 19 19
16 16 16
18 18 18
14 14 14
16 16 16
11 11 11
11 11 11
11 11 11
9 9 9
7 7 7
2 2 2
2 2 2
6 6 6
16 16 16
15 15 15
20 20 20
32 32 32
24 24 24
34 34 34
58 58 58
38 38 38
37 37 37
81 81 81
88 88 88
88 88 88
87 87 87
129 129 129
139 139 139
121 121 121
120 120 120
174 174 174
136 136 136
123 123 123
142 142 142
138 138 138
177 177 177
166 166 166
172 172 172
162 162 162
183 183 183
195 195 195
184 184 184
195 195 195
152 152 152
153 153 153
78 78 78
44 44 44
22 22 22
29 29 29
18 18 18
18 18 18
19 19 19
20 20 20
15 15 15
20 20 20
10 10 10
12 12 12
11 11 11
8 8 8
3 3 3
2 2 2
2 2 2
6 6 6
15 15 15
14 14 14
20 20 20
31 31 31
22 22 22
33 33 33
57 57 57
36 36 36
35 35 35
45 45 45
89 89 89
89 89 89
88 88 88
106 106 106
124 124 124
147 147 147
130 130 130
162 162 162
121 121 121
119 119 119
148 148 148
132 132 132
127 127 127
146 146 146
146 146 146
157 157 157
152 152 152
171 171 171
153 153 153
129 129 129
169 169 169
148 148 148
77 77 77
43 43 43
21 21 21
29 29 29
16 16 16
18 18 18
19 19 19
23 23 23
16 16 16
17 17 17
15 15 15
11 11 11
13 13 13
9 9 9
5 5 5
2 2 2
2 2 2
6 6 6
12 12 12
15 15 15
20 20 20
31 31 31
21 21 21
32 32 32
57 57 57
35 35 35
33 33 33
37 37 37
87 87 87
89 89 89
88 88 88
90 90 90
97 97 97
132 132 132
163 163 163
162 162 162
112 112 112
118 118 118
153 153 153
126 126 126
133 133 133
150 150 150
140 140 140
135 135 135
144 144 144
170 170 170
149 149 149
135 135 135
147 147 147
126 126 126
63 63 63
24 24 24
18 18 18
29 29 29
17 17 17
20 20 20
22 22 22
23 23 23
15 15 15
19 19 19
15 15 15
11 11 11
15 15 15
9 9 9
8 8 8
2 2 2
2 2 2
7 7 7
11 11 11
15 15 15
20 20 20
32 32 32
21 21 21
31 31 31
56 56 56
35 35 35
32 32 32
21 21 21
84 84 84
89 89 89
88 88 88
88 88 88
88 88 88
94 94 94
119 119 119
161 161 161
139 139 139
120 120 120
144 144 144
122 122 122
131 131 131
150 150 150
178 178 178
129 129 129
159 159 159
172 172 172
147 147 147
161 161 161
197 197 197
101 101 101
42 42 42
21 21 21
19 19 19
29 29 29
17 17 17
19 19 19
24 24 24
21 21 21
19 19 19
19 19 19
13 13 13
12 12 12
12 12 12
9 9 9
7 7 7
2 2 2
2 2 2
12 12 12
17 17 17
14 14 14
20 20 20
32 32 32
21 21 21
30 30 30
56 56 56
35 35 35
32 32 32
18 18 18
75 75 75
90 90 90
88 88 88
88 88 88
89 89 89
92 92 92
111 111 111
112 112 112
185 185 185
163 163 163
165 165 165
140 140 140
140 140 140
156 156 156
182 182 182
139 139 139
177 177 177
184 184 184
156 156 156
208 208 208
155 155 155
54 54 54
24 24 24
21 21 21
17 17 17
30 30 30
17 17 17
19 19 19
19 19 19
19 19 19
17 17 17
15 15 15
18 18 18
11 11 11
13 13 13
8 8 8
5 5 5
2 2 2
2 2 2
8 8 8
14 14 14
12 12 12
20 20 20
33 33 33
20 20 20
28 28 28
55 55 55
34 34 34
32 32 32
19 19 19
55 55 55
89 89 89
89 89 89
89 89 89
88 88 88
91 91 91
117 117 117
133 133 133
122 122 122
129 129 129
190 190 190
185 185 185
201 201 201
193 193 193
151 151 151
164 164 164
184 184 184
173 173 173
201 201 201
202 202 202
85 85 85
46 46 46
24 24 24
21 21 21
16 16 16
27 27 27
16 16 16
19 19 19
16 16 16
20 20 20
18 18 18
15 15 15
11 11 11
7 7 7
7 7 7
8 8 8
2 2 2
2 2 2
2 2 2
0 0 0
0 0 0
0 0 0
0 0 0
0 0 0
0 0 0
0 0 0
0 0 0
0 0 0
0 0 0
0 0 0
0 0 0
0 0 0
0 0 0
0 0 0
0 0 0
0 0 0
0 0 0
0 0 0
0 0 0
0 0 0
0 0 0
0 0 0
0 0 0
0 0 0
0 0 0
0 0 0
0 0 0
0 0 0
0 0 0
0 0 0
0 0 0
0 0 0
0 0 0
0 0 0
0 0 0
0 0 0
0 0 0
0 0 0
0 0 0
0 0 0
0 0 0
0 0 0
0 0 0
0 0 0
0 0 0
0 0 0
0 0 0
0 0 0
0 0 0
