P3 
50 50 
255
0 0 0
0 0 0
0 0 0
0 0 0
0 0 0
0 0 0
0 0 0
0 0 0
0 0 0
0 0 0
0 0 0
0 0 0
0 0 0
0 0 0
0 0 0
0 0 0
0 0 0
0 0 0
0 0 0
0 0 0
0 0 0
0 0 0
0 0 0
0 0 0
0 0 0
0 0 0
0 0 0
0 0 0
0 0 0
0 0 0
0 0 0
0 0 0
0 0 0
0 0 0
0 0 0
0 0 0
0 0 0
0 0 0
0 0 0
0 0 0
0 0 0
0 0 0
0 0 0
0 0 0
0 0 0
0 0 0
0 0 0
0 0 0
0 0 0
0 0 0
2 2 2
2 2 2
2 2 2
2 2 2
2 2 2
2 2 2
2 2 2
2 2 2
3 3 3
3 3 3
3 3 3
3 3 3
7 7 7
7 7 7
16 16 16
9 9 9
14 14 14
15 15 15
8 8 8
16 16 16
33 33 33
46 46 46
65 65 65
71 71 71
72 72 72
73 73 73
61 61 61
38 38 38
27 27 27
20 20 20
27 27 27
30 30 30
23 23 23
37 37 37
23 23 23
67 67 67
60 60 60
39 39 39
25 25 25
18 18 18
21 21 21
18 18 18
25 25 25
28 28 28
21 21 21
34 34 34
36 36 36
56 56 56
68 68 68
22 22 22
2 2 2
2 2 2
2 2 2
2 2 2
2 2 2
2 2 2
2 2 2
2 2 2
3 3 3
3 3 3
3 3 3
4 4 4
7 7 7
8 8 8
11 11 11
20 20 20
15 15 15
51 51 51
80 80 80
97 97 97
122 122 122
146 146 146
176 176 176
189 189 189
190 190 190
183 183 183
158 158 158
137 137 137
120 120 120
96 96 96
80 80 80
59 59 59
23 23 23
31 31 31
22 22 22
66 66 66
58 58 58
37 37 37
23 23 23
27 27 27
33 33 33
30 30 30
20 20 20
19 19 19
21 21 21
33 33 33
41 41 41
56 56 56
68 68 68
23 23 23
2 2 2
2 2 2
2 2 2
2 2 2
1 1 1
2 2 2
2 2 2
2 2 2
4 4 4
4 4 4
4 4 4
4 4 4
6 6 6
9 9 9
10 10 10
43 43 43
81 81 81
124 124 124
179 179 179
184 184 184
180 180 180
194 194 194
194 194 194
188 188 188
198 198 198
201 201 201
191 191 191
190 190 190
185 185 185
184 184 184
181 181 181
134 134 134
88 88 88
52 52 52
19 19 19
64 64 64
58 58 58
37 37 37
23 23 23
39 39 39
40 40 40
40 40 40
29 29 29
20 20 20
23 23 23
33 33 33
45 45 45
56 56 56
68 68 68
23 23 23
2 2 2
2 2 2
2 2 2
1 1 1
2 2 2
2 2 2
2 2 2
3 3 3
4 4 4
4 4 4
4 4 4
4 4 4
6 6 6
18 18 18
67 67 67
98 98 98
163 163 163
181 181 181
177 177 177
190 190 190
194 194 194
188 188 188
187 187 187
183 183 183
185 185 185
193 193 193
195 195 195
183 183 183
192 192 192
178 178 178
179 179 179
186 186 186
186 186 186
129 129 129
78 78 78
65 65 65
58 58 58
37 37 37
33 33 33
36 36 36
28 28 28
34 34 34
40 40 40
23 23 23
24 24 24
33 33 33
50 50 50
57 57 57
68 68 68
23 23 23
2 2 2
2 2 2
2 2 2
2 2 2
2 2 2
2 2 2
2 2 2
4 4 4
4 4 4
4 4 4
4 4 4
4 4 4
26 26 26
73 73 73
116 116 116
173 173 173
176 176 176
179 179 179
180 180 180
197 197 197
185 185 185
184 184 184
188 188 188
180 180 180
187 187 187
186 186 186
194 194 194
183 183 183
180 180 180
179 179 179
176 176 176
187 187 187
180 180 180
190 190 190
161 161 161
94 94 94
58 58 58
37 37 37
32 32 32
23 23 23
21 21 21
28 28 28
42 42 42
32 32 32
26 26 26
36 36 36
50 50 50
57 57 57
69 69 69
24 24 24
2 2 2
2 2 2
2 2 2
2 2 2
2 2 2
2 2 2
2 2 2
4 4 4
4 4 4
5 5 5
5 5 5
16 16 16
79 79 79
143 143 143
181 181 181
182 182 182
181 181 181
189 189 189
186 186 186
185 185 185
181 181 181
180 180 180
178 178 178
175 175 175
180 180 180
183 183 183
197 197 197
175 175 175
173 173 173
175 175 175
173 173 173
176 176 176
189 189 189
182 182 182
186 186 186
174 174 174
107 107 107
55 55 55
23 23 23
27 27 27
25 25 25
22 22 22
34 34 34
37 37 37
23 23 23
39 39 39
46 46 46
57 57 57
68 68 68
24 24 24
2 2 2
2 2 2
2 2 2
2 2 2
2 2 2
2 2 2
2 2 2
3 3 3
5 5 5
4 4 4
6 6 6
71 71 71
151 151 151
181 181 181
178 178 178
180 180 180
186 186 186
186 186 186
185 185 185
184 184 184
180 180 180
174 174 174
177 177 177
172 172 172
172 172 172
180 180 180
190 190 190
175 175 175
174 174 174
173 173 173
170 170 170
167 167 167
177 177 177
180 180 180
169 169 169
175 175 175
173 173 173
109 109 109
52 52 52
29 29 29
21 21 21
17 17 17
21 21 21
33 33 33
27 27 27
42 42 42
38 38 38
57 57 57
69 69 69
24 24 24
2 2 2
2 2 2
2 2 2
2 2 2
2 2 2
2 2 2
3 3 3
5 5 5
5 5 5
6 6 6
46 46 46
155 155 155
180 180 180
179 179 179
182 182 182
182 182 182
181 181 181
178 178 178
174 174 174
175 175 175
173 173 173
182 182 182
173 173 173
175 175 175
170 170 170
169 169 169
175 175 175
176 176 176
182 182 182
171 171 171
170 170 170
168 168 168
173 173 173
171 171 171
175 175 175
166 166 166
171 171 171
167 167 167
98 98 98
41 41 41
26 26 26
23 23 23
18 18 18
30 30 30
30 30 30
44 44 44
36 36 36
57 57 57
68 68 68
25 25 25
2 2 2
2 2 2
2 2 2
2 2 2
2 2 2
2 2 2
10 10 10
13 13 13
4 4 4
18 18 18
106 106 106
175 175 175
174 174 174
175 175 175
174 174 174
176 176 176
179 179 179
166 166 166
167 167 167
166 166 166
177 177 177
168 168 168
175 175 175
172 172 172
179 179 179
190 190 190
177 177 177
167 167 167
169 169 169
172 172 172
171 171 171
180 180 180
176 176 176
180 180 180
169 169 169
174 174 174
179 179 179
174 174 174
149 149 149
67 67 67
40 40 40
46 46 46
26 26 26
23 23 23
30 30 30
47 47 47
35 35 35
58 58 58
69 69 69
25 25 25
2 2 2
2 2 2
2 2 2
2 2 2
2 2 2
3 3 3
14 14 14
9 9 9
5 5 5
41 41 41
143 143 143
173 173 173
177 177 177
171 171 171
185 185 185
176 176 176
157 157 157
173 173 173
168 168 168
169 169 169
172 172 172
169 169 169
166 166 166
175 175 175
165 165 165
164 164 164
173 173 173
188 188 188
166 166 166
148 148 148
161 161 161
164 164 164
171 171 171
174 174 174
166 166 166
171 171 171
174 174 174
160 160 160
172 172 172
104 104 104
50 50 50
56 56 56
38 38 38
25 25 25
33 33 33
42 42 42
42 42 42
57 57 57
69 69 69
25 25 25
2 2 2
2 2 2
2 2 2
2 2 2
2 2 2
4 4 4
12 12 12
13 13 13
12 12 12
85 85 85
173 173 173
174 174 174
168 168 168
160 160 160
158 158 158
164 164 164
151 151 151
165 165 165
165 165 165
175 175 175
175 175 175
170 170 170
175 175 175
156 156 156
165 165 165
182 182 182
161 161 161
158 158 158
148 148 148
164 164 164
179 179 179
178 178 178
173 173 173
175 175 175
176 176 176
177 177 177
178 178 178
175 175 175
188 188 188
142 142 142
66 66 66
49 49 49
42 42 42
26 26 26
36 36 36
33 33 33
41 41 41
58 58 58
69 69 69
25 25 25
2 2 2
2 2 2
2 2 2
2 2 2
3 3 3
6 6 6
12 12 12
9 9 9
22 22 22
125 125 125
168 168 168
169 169 169
176 176 176
172 172 172
154 154 154
163 163 163
160 160 160
166 166 166
166 166 166
164 164 164
161 161 161
169 169 169
167 167 167
153 153 153
165 165 165
171 171 171
160 160 160
159 159 159
161 161 161
174 174 174
171 171 171
168 168 168
166 166 166
182 182 182
178 178 178
175 175 175
157 157 157
175 175 175
176 176 176
180 180 180
96 96 96
42 42 42
44 44 44
30 30 30
37 37 37
30 30 30
36 36 36
58 58 58
68 68 68
26 26 26
2 2 2
2 2 2
2 2 2
2 2 2
2 2 2
8 8 8
15 15 15
10 10 10
45 45 45
160 160 160
162 162 162
157 157 157
156 156 156
177 177 177
150 150 150
151 151 151
158 158 158
156 156 156
175 175 175
179 179 179
161 161 161
167 167 167
171 171 171
153 153 153
164 164 164
157 157 157
160 160 160
160 160 160
152 152 152
164 164 164
170 170 170
161 161 161
179 179 179
188 188 188
179 179 179
175 175 175
181 181 181
167 167 167
173 173 173
178 178 178
135 135 135
54 54 54
46 46 46
37 37 37
30 30 30
37 37 37
36 36 36
58 58 58
67 67 67
26 26 26
2 2 2
2 2 2
2 2 2
2 2 2
2 2 2
9 9 9
15 15 15
16 16 16
100 100 100
177 177 177
157 157 157
156 156 156
157 157 157
147 147 147
167 167 167
149 149 149
163 163 163
162 162 162
183 183 183
170 170 170
153 153 153
157 157 157
154 154 154
158 158 158
162 162 162
169 169 169
156 156 156
182 182 182
163 163 163
156 156 156
168 168 168
167 167 167
167 167 167
180 180 180
170 170 170
182 182 182
183 183 183
188 188 188
177 177 177
171 171 171
147 147 147
66 66 66
42 42 42
47 47 47
31 31 31
35 35 35
36 36 36
58 58 58
69 69 69
27 27 27
2 2 2
2 2 2
2 2 2
2 2 2
2 2 2
10 10 10
15 15 15
43 43 43
134 134 134
174 174 174
140 140 140
136 136 136
145 145 145
158 158 158
160 160 160
156 156 156
157 157 157
148 148 148
172 172 172
183 183 183
174 174 174
166 166 166
146 146 146
154 154 154
156 156 156
166 166 166
159 159 159
165 165 165
158 158 158
165 165 165
166 166 166
173 173 173
160 160 160
171 171 171
182 182 182
179 179 179
177 177 177
172 172 172
168 168 168
179 179 179
161 161 161
86 86 86
40 40 40
50 50 50
35 35 35
33 33 33
35 35 35
59 59 59
70 70 70
27 27 27
2 2 2
2 2 2
2 2 2
2 2 2
2 2 2
12 12 12
21 21 21
84 84 84
163 163 163
146 146 146
162 162 162
140 140 140
144 144 144
132 132 132
151 151 151
159 159 159
152 152 152
172 172 172
170 170 170
170 170 170
159 159 159
167 167 167
154 154 154
147 147 147
168 168 168
157 157 157
156 156 156
157 157 157
161 161 161
169 169 169
168 168 168
170 170 170
158 158 158
175 175 175
169 169 169
162 162 162
163 163 163
161 161 161
169 169 169
173 173 173
180 180 180
100 100 100
44 44 44
46 46 46
45 45 45
36 36 36
38 38 38
58 58 58
70 70 70
27 27 27
2 2 2
2 2 2
2 2 2
2 2 2
5 5 5
15 15 15
35 35 35
115 115 115
164 164 164
146 146 146
160 160 160
132 132 132
126 126 126
132 132 132
150 150 150
161 161 161
176 176 176
162 162 162
162 162 162
161 161 161
150 150 150
153 153 153
173 173 173
151 151 151
162 162 162
157 157 157
161 161 161
154 154 154
164 164 164
172 172 172
173 173 173
161 161 161
168 168 168
169 169 169
163 163 163
161 161 161
165 165 165
164 164 164
174 174 174
171 171 171
188 188 188
110 110 110
46 46 46
46 46 46
49 49 49
31 31 31
38 38 38
58 58 58
71 71 71
27 27 27
2 2 2
2 2 2
2 2 2
3 3 3
10 10 10
10 10 10
62 62 62
147 147 147
151 151 151
141 141 141
142 142 142
129 129 129
131 131 131
149 149 149
151 151 151
167 167 167
175 175 175
169 169 169
174 174 174
158 158 158
154 154 154
148 148 148
179 179 179
157 157 157
156 156 156
164 164 164
164 164 164
152 152 152
158 158 158
192 192 192
177 177 177
165 165 165
174 174 174
170 170 170
171 171 171
162 162 162
163 163 163
163 163 163
175 175 175
173 173 173
184 184 184
118 118 118
51 51 51
46 46 46
48 48 48
32 32 32
36 36 36
59 59 59
71 71 71
26 26 26
2 2 2
2 2 2
2 2 2
2 2 2
7 7 7
14 14 14
74 74 74
194 194 194
132 132 132
126 126 126
128 128 128
133 133 133
149 149 149
164 164 164
163 163 163
173 173 173
171 171 171
166 166 166
162 162 162
153 153 153
154 154 154
144 144 144
179 179 179
165 165 165
162 162 162
173 173 173
162 162 162
165 165 165
160 160 160
199 199 199
173 173 173
169 169 169
187 187 187
182 182 182
175 175 175
166 166 166
180 180 180
178 178 178
174 174 174
178 178 178
179 179 179
133 133 133
53 53 53
45 45 45
48 48 48
30 30 30
35 35 35
59 59 59
70 70 70
26 26 26
2 2 2
2 2 2
2 2 2
2 2 2
6 6 6
8 8 8
81 81 81
176 176 176
150 150 150
137 137 137
159 159 159
158 158 158
155 155 155
162 162 162
167 167 167
180 180 180
182 182 182
151 151 151
170 170 170
152 152 152
155 155 155
143 143 143
178 178 178
168 168 168
156 156 156
175 175 175
160 160 160
161 161 161
154 154 154
188 188 188
173 173 173
169 169 169
199 199 199
188 188 188
167 167 167
174 174 174
191 191 191
175 175 175
179 179 179
180 180 180
182 182 182
140 140 140
54 54 54
45 45 45
48 48 48
31 31 31
36 36 36
59 59 59
71 71 71
26 26 26
2 2 2
2 2 2
3 3 3
2 2 2
3 3 3
6 6 6
79 79 79
167 167 167
136 136 136
130 130 130
156 156 156
161 161 161
141 141 141
159 159 159
169 169 169
167 167 167
188 188 188
151 151 151
146 146 146
146 146 146
157 157 157
145 145 145
180 180 180
165 165 165
154 154 154
177 177 177
160 160 160
153 153 153
155 155 155
165 165 165
178 178 178
169 169 169
205 205 205
180 180 180
157 157 157
179 179 179
183 183 183
166 166 166
176 176 176
191 191 191
188 188 188
139 139 139
54 54 54
45 45 45
48 48 48
32 32 32
35 35 35
59 59 59
72 72 72
26 26 26
2 2 2
3 3 3
3 3 3
3 3 3
3 3 3
5 5 5
54 54 54
157 157 157
135 135 135
125 125 125
123 123 123
138 138 138
134 134 134
144 144 144
145 145 145
164 164 164
190 190 190
150 150 150
148 148 148
157 157 157
163 163 163
149 149 149
171 171 171
161 161 161
156 156 156
174 174 174
163 163 163
153 153 153
155 155 155
164 164 164
180 180 180
174 174 174
205 205 205
171 171 171
159 159 159
179 179 179
181 181 181
169 169 169
172 172 172
189 189 189
192 192 192
128 128 128
54 54 54
47 47 47
47 47 47
32 32 32
35 35 35
59 59 59
72 72 72
26 26 26
2 2 2
3 3 3
3 3 3
3 3 3
4 4 4
9 9 9
62 62 62
159 159 159
155 155 155
124 124 124
120 120 120
122 122 122
122 122 122
125 125 125
126 126 126
159 159 159
191 191 191
156 156 156
151 151 151
167 167 167
169 169 169
152 152 152
155 155 155
164 164 164
164 164 164
168 168 168
167 167 167
154 154 154
158 158 158
165 165 165
178 178 178
172 172 172
197 197 197
174 174 174
168 168 168
185 185 185
180 180 180
172 172 172
171 171 171
191 191 191
196 196 196
123 123 123
51 51 51
47 47 47
47 47 47
32 32 32
34 34 34
58 58 58
71 71 71
26 26 26
2 2 2
3 3 3
3 3 3
3 3 3
4 4 4
16 16 16
82 82 82
160 160 160
166 166 166
123 123 123
116 116 116
125 125 125
122 122 122
117 117 117
114 114 114
150 150 150
191 191 191
165 165 165
154 154 154
168 168 168
174 174 174
159 159 159
155 155 155
164 164 164
169 169 169
173 173 173
168 168 168
154 154 154
159 159 159
165 165 165
176 176 176
165 165 165
180 180 180
175 175 175
171 171 171
191 191 191
171 171 171
176 176 176
173 173 173
183 183 183
200 200 200
110 110 110
45 45 45
44 44 44
44 44 44
31 31 31
35 35 35
59 59 59
72 72 72
25 25 25
2 2 2
3 3 3
3 3 3
3 3 3
8 8 8
44 44 44
91 91 91
156 156 156
155 155 155
118 118 118
95 95 95
126 126 126
123 123 123
115 115 115
128 128 128
132 132 132
187 187 187
168 168 168
160 160 160
175 175 175
175 175 175
156 156 156
159 159 159
170 170 170
169 169 169
175 175 175
167 167 167
160 160 160
155 155 155
165 165 165
175 175 175
168 168 168
182 182 182
172 172 172
177 177 177
196 196 196
171 171 171
177 177 177
178 178 178
185 185 185
195 195 195
94 94 94
42 42 42
38 38 38
40 40 40
31 31 31
35 35 35
59 59 59
72 72 72
25 25 25
2 2 2
2 2 2
3 3 3
3 3 3
13 13 13
71 71 71
121 121 121
171 171 171
128 128 128
116 116 116
105 105 105
147 147 147
127 127 127
116 116 116
124 124 124
108 108 108
170 170 170
173 173 173
165 165 165
180 180 180
157 157 157
145 145 145
167 167 167
173 173 173
161 161 161
179 179 179
174 174 174
165 165 165
156 156 156
162 162 162
171 171 171
163 163 163
184 184 184
167 167 167
177 177 177
189 189 189
174 174 174
173 173 173
178 178 178
192 192 192
181 181 181
82 82 82
37 37 37
38 38 38
37 37 37
37 37 37
35 35 35
58 58 58
72 72 72
25 25 25
2 2 2
2 2 2
3 3 3
4 4 4
23 23 23
79 79 79
134 134 134
178 178 178
126 126 126
131 131 131
103 103 103
129 129 129
114 114 114
130 130 130
120 120 120
109 109 109
160 160 160
176 176 176
167 167 167
179 179 179
147 147 147
136 136 136
171 171 171
167 167 167
154 154 154
180 180 180
174 174 174
172 172 172
160 160 160
158 158 158
162 162 162
164 164 164
184 184 184
165 165 165
177 177 177
184 184 184
177 177 177
173 173 173
181 181 181
196 196 196
176 176 176
75 75 75
37 37 37
38 38 38
34 34 34
40 40 40
35 35 35
58 58 58
71 71 71
25 25 25
2 2 2
2 2 2
3 3 3
23 23 23
70 70 70
96 96 96
162 162 162
150 150 150
135 135 135
101 101 101
85 85 85
101 101 101
134 134 134
139 139 139
141 141 141
149 149 149
139 139 139
175 175 175
172 172 172
144 144 144
149 149 149
146 146 146
180 180 180
155 155 155
162 162 162
178 178 178
164 164 164
189 189 189
161 161 161
162 162 162
166 166 166
172 172 172
178 178 178
164 164 164
189 189 189
181 181 181
180 180 180
186 186 186
195 195 195
190 190 190
158 158 158
58 58 58
41 41 41
43 43 43
34 34 34
43 43 43
35 35 35
58 58 58
73 73 73
25 25 25
2 2 2
2 2 2
3 3 3
28 28 28
80 80 80
87 87 87
135 135 135
136 136 136
120 120 120
95 95 95
86 86 86
95 95 95
132 132 132
151 151 151
155 155 155
155 155 155
138 138 138
171 171 171
203 203 203
170 170 170
150 150 150
158 158 158
154 154 154
155 155 155
188 188 188
194 194 194
196 196 196
204 204 204
186 186 186
175 175 175
168 168 168
174 174 174
169 169 169
178 178 178
162 162 162
168 168 168
166 166 166
174 174 174
174 174 174
184 184 184
121 121 121
51 51 51
44 44 44
45 45 45
32 32 32
42 42 42
33 33 33
57 57 57
73 73 73
25 25 25
2 2 2
2 2 2
3 3 3
13 13 13
59 59 59
80 80 80
130 130 130
156 156 156
125 125 125
136 136 136
103 103 103
113 113 113
143 143 143
181 181 181
163 163 163
152 152 152
160 160 160
171 171 171
191 191 191
209 209 209
162 162 162
146 146 146
156 156 156
152 152 152
156 156 156
167 167 167
160 160 160
179 179 179
166 166 166
184 184 184
168 168 168
176 176 176
181 181 181
157 157 157
179 179 179
189 189 189
174 174 174
188 188 188
169 169 169
193 193 193
101 101 101
45 45 45
44 44 44
42 42 42
31 31 31
41 41 41
31 31 31
56 56 56
75 75 75
25 25 25
2 2 2
2 2 2
3 3 3
11 11 11
65 65 65
79 79 79
134 134 134
150 150 150
104 104 104
91 91 91
118 118 118
148 148 148
143 143 143
120 120 120
147 147 147
155 155 155
168 168 168
165 165 165
203 203 203
194 194 194
179 179 179
173 173 173
173 173 173
167 167 167
191 191 191
190 190 190
204 204 204
155 155 155
153 153 153
150 150 150
197 197 197
192 192 192
178 178 178
179 179 179
178 178 178
187 187 187
194 194 194
190 190 190
181 181 181
170 170 170
74 74 74
37 37 37
38 38 38
36 36 36
31 31 31
42 42 42
31 31 31
56 56 56
76 76 76
25 25 25
2 2 2
3 3 3
3 3 3
11 11 11
66 66 66
82 82 82
115 115 115
129 129 129
111 111 111
116 116 116
93 93 93
104 104 104
108 108 108
111 111 111
115 115 115
116 116 116
173 173 173
171 171 171
180 180 180
168 168 168
183 183 183
203 203 203
186 186 186
169 169 169
171 171 171
167 167 167
204 204 204
187 187 187
174 174 174
169 169 169
164 164 164
177 177 177
175 175 175
193 193 193
172 172 172
195 195 195
188 188 188
189 189 189
205 205 205
114 114 114
49 49 49
25 25 25
34 34 34
27 27 27
31 31 31
43 43 43
30 30 30
55 55 55
76 76 76
25 25 25
2 2 2
3 3 3
3 3 3
9 9 9
55 55 55
76 76 76
81 81 81
95 95 95
125 125 125
123 123 123
127 127 127
127 127 127
129 129 129
125 125 125
121 121 121
103 103 103
173 173 173
157 157 157
124 124 124
166 166 166
193 193 193
191 191 191
180 180 180
198 198 198
183 183 183
188 188 188
189 189 189
186 186 186
195 195 195
180 180 180
169 169 169
169 169 169
178 178 178
179 179 179
194 194 194
205 205 205
202 202 202
204 204 204
155 155 155
69 69 69
29 29 29
24 24 24
25 25 25
25 25 25
31 31 31
43 43 43
30 30 30
55 55 55
76 76 76
25 25 25
3 3 3
3 3 3
3 3 3
4 4 4
41 41 41
77 77 77
77 77 77
116 116 116
159 159 159
139 139 139
148 148 148
158 158 158
129 129 129
135 135 135
127 127 127
114 114 114
193 193 193
183 183 183
134 134 134
172 172 172
192 192 192
199 199 199
180 180 180
165 165 165
186 186 186
177 177 177
184 184 184
183 183 183
187 187 187
185 185 185
195 195 195
194 194 194
197 197 197
204 204 204
207 207 207
201 201 201
205 205 205
192 192 192
92 92 92
41 41 41
20 20 20
23 23 23
25 25 25
22 22 22
32 32 32
44 44 44
35 35 35
54 54 54
76 76 76
26 26 26
2 2 2
3 3 3
2 2 2
3 3 3
20 20 20
78 78 78
89 89 89
151 151 151
152 152 152
186 186 186
166 166 166
151 151 151
140 140 140
146 146 146
134 134 134
161 161 161
172 172 172
183 183 183
166 166 166
157 157 157
189 189 189
191 191 191
165 165 165
194 194 194
185 185 185
194 194 194
187 187 187
184 184 184
184 184 184
190 190 190
193 193 193
197 197 197
201 201 201
208 208 208
214 214 214
199 199 199
158 158 158
95 95 95
59 59 59
28 28 28
23 23 23
26 26 26
25 25 25
23 23 23
30 30 30
43 43 43
40 40 40
53 53 53
76 76 76
26 26 26
2 2 2
3 3 3
3 3 3
3 3 3
13 13 13
71 71 71
104 104 104
194 194 194
205 205 205
177 177 177
196 196 196
178 178 178
157 157 157
179 179 179
166 166 166
188 188 188
194 194 194
176 176 176
160 160 160
159 159 159
175 175 175
182 182 182
190 190 190
187 187 187
177 177 177
185 185 185
181 181 181
185 185 185
186 186 186
187 187 187
184 184 184
195 195 195
191 191 191
186 186 186
192 192 192
148 148 148
90 90 90
74 74 74
36 36 36
23 23 23
21 21 21
23 23 23
27 27 27
24 24 24
31 31 31
41 41 41
41 41 41
52 52 52
77 77 77
26 26 26
2 2 2
5 5 5
9 9 9
11 11 11
14 14 14
60 60 60
148 148 148
195 195 195
200 200 200
204 204 204
238 238 238
184 184 184
166 166 166
176 176 176
164 164 164
179 179 179
155 155 155
130 130 130
171 171 171
168 168 168
186 186 186
170 170 170
164 164 164
163 163 163
180 180 180
187 187 187
161 161 161
181 181 181
182 182 182
171 171 171
177 177 177
176 176 176
165 165 165
183 183 183
133 133 133
90 90 90
86 86 86
53 53 53
30 30 30
30 30 30
29 29 29
23 23 23
28 28 28
24 24 24
34 34 34
39 39 39
37 37 37
51 51 51
77 77 77
27 27 27
9 9 9
17 17 17
26 26 26
27 27 27
36 36 36
86 86 86
180 180 180
205 205 205
202 202 202
140 140 140
197 197 197
196 196 196
190 190 190
185 185 185
160 160 160
129 129 129
228 228 228
164 164 164
142 142 142
168 168 168
178 178 178
159 159 159
147 147 147
139 139 139
170 170 170
168 168 168
174 174 174
182 182 182
160 160 160
155 155 155
141 141 141
134 134 134
136 136 136
105 105 105
89 89 89
86 86 86
61 61 61
36 36 36
23 23 23
36 36 36
37 37 37
25 25 25
30 30 30
26 26 26
35 35 35
36 36 36
34 34 34
49 49 49
77 77 77
27 27 27
2 2 2
3 3 3
4 4 4
4 4 4
4 4 4
23 23 23
66 66 66
90 90 90
107 107 107
104 104 104
109 109 109
146 146 146
147 147 147
138 138 138
95 95 95
97 97 97
121 121 121
108 108 108
121 121 121
174 174 174
154 154 154
176 176 176
128 128 128
145 145 145
140 140 140
171 171 171
149 149 149
99 99 99
92 92 92
88 88 88
88 88 88
90 90 90
89 89 89
89 89 89
89 89 89
85 85 85
48 48 48
31 31 31
28 28 28
42 42 42
40 40 40
32 32 32
31 31 31
27 27 27
39 39 39
39 39 39
33 33 33
49 49 49
75 75 75
27 27 27
3 3 3
8 8 8
18 18 18
18 18 18
18 18 18
33 33 33
91 91 91
150 150 150
175 175 175
162 162 162
184 184 184
169 169 169
209 209 209
167 167 167
148 148 148
201 201 201
198 198 198
198 198 198
236 236 236
139 139 139
166 166 166
171 171 171
149 149 149
149 149 149
142 142 142
161 161 161
176 176 176
118 118 118
89 89 89
90 90 90
90 90 90
90 90 90
90 90 90
89 89 89
87 87 87
85 85 85
56 56 56
33 33 33
30 30 30
44 44 44
35 35 35
36 36 36
32 32 32
28 28 28
37 37 37
36 36 36
34 34 34
48 48 48
68 68 68
24 24 24
6 6 6
7 7 7
10 10 10
12 12 12
18 18 18
40 40 40
126 126 126
189 189 189
213 213 213
190 190 190
155 155 155
200 200 200
172 172 172
126 126 126
120 120 120
188 188 188
213 213 213
193 193 193
206 206 206
140 140 140
152 152 152
162 162 162
145 145 145
131 131 131
138 138 138
162 162 162
144 144 144
98 98 98
91 91 91
88 88 88
88 88 88
89 89 89
90 90 90
89 89 89
86 86 86
76 76 76
49 49 49
27 27 27
34 34 34
41 41 41
29 29 29
38 38 38
43 43 43
33 33 33
33 33 33
33 33 33
34 34 34
57 57 57
85 85 85
30 30 30
2 2 2
2 2 2
3 3 3
3 3 3
6 6 6
19 19 19
76 76 76
123 123 123
178 178 178
183 183 183
185 185 185
209 209 209
152 152 152
135 135 135
94 94 94
159 159 159
214 214 214
205 205 205
180 180 180
171 171 171
141 141 141
153 153 153
131 131 131
137 137 137
124 124 124
131 131 131
119 119 119
118 118 118
92 92 92
88 88 88
90 90 90
89 89 89
89 89 89
88 88 88
83 83 83
82 82 82
45 45 45
23 23 23
34 34 34
35 35 35
24 24 24
36 36 36
48 48 48
30 30 30
34 34 34
31 31 31
33 33 33
47 47 47
80 80 80
29 29 29
2 2 2
2 2 2
2 2 2
2 2 2
3 3 3
6 6 6
56 56 56
110 110 110
177 177 177
200 200 200
177 177 177
206 206 206
153 153 153
132 132 132
113 113 113
138 138 138
169 169 169
196 196 196
156 156 156
149 149 149
151 151 151
155 155 155
143 143 143
154 154 154
133 133 133
150 150 150
123 123 123
103 103 103
105 105 105
88 88 88
90 90 90
90 90 90
89 89 89
86 86 86
80 80 80
82 82 82
42 42 42
22 22 22
33 33 33
29 29 29
26 26 26
28 28 28
43 43 43
33 33 33
37 37 37
29 29 29
34 34 34
47 47 47
80 80 80
29 29 29
2 2 2
2 2 2
2 2 2
2 2 2
2 2 2
3 3 3
49 49 49
88 88 88
127 127 127
154 154 154
154 154 154
180 180 180
147 147 147
150 150 150
126 126 126
153 153 153
134 134 134
128 128 128
158 158 158
134 134 134
159 159 159
168 168 168
146 146 146
123 123 123
115 115 115
125 125 125
131 131 131
117 117 117
103 103 103
88 88 88
89 89 89
90 90 90
89 89 89
87 87 87
69 69 69
80 80 80
40 40 40
24 24 24
32 32 32
25 25 25
27 27 27
32 32 32
41 41 41
34 34 34
38 38 38
29 29 29
31 31 31
44 44 44
81 81 81
30 30 30
2 2 2
2 2 2
2 2 2
2 2 2
2 2 2
3 3 3
45 45 45
85 85 85
118 118 118
147 147 147
142 142 142
160 160 160
159 159 159
157 157 157
125 125 125
120 120 120
123 123 123
117 117 117
154 154 154
139 139 139
156 156 156
131 131 131
134 134 134
127 127 127
109 109 109
127 127 127
128 128 128
96 96 96
90 90 90
88 88 88
90 90 90
89 89 89
89 89 89
87 87 87
60 60 60
79 79 79
38 38 38
28 28 28
35 35 35
22 22 22
29 29 29
34 34 34
43 43 43
36 36 36
38 38 38
28 28 28
29 29 29
43 43 43
79 79 79
31 31 31
2 2 2
2 2 2
2 2 2
2 2 2
2 2 2
3 3 3
47 47 47
84 84 84
109 109 109
169 169 169
178 178 178
144 144 144
161 161 161
156 156 156
159 159 159
136 136 136
158 158 158
128 128 128
183 183 183
152 152 152
111 111 111
120 120 120
138 138 138
142 142 142
126 126 126
138 138 138
124 124 124
88 88 88
90 90 90
89 89 89
89 89 89
90 90 90
89 89 89
86 86 86
62 62 62
78 78 78
38 38 38
26 26 26
35 35 35
22 22 22
29 29 29
34 34 34
44 44 44
37 37 37
38 38 38
28 28 28
29 29 29
40 40 40
78 78 78
30 30 30
2 2 2
2 2 2
2 2 2
2 2 2
2 2 2
3 3 3
46 46 46
83 83 83
113 113 113
174 174 174
186 186 186
165 165 165
163 163 163
180 180 180
184 184 184
156 156 156
208 208 208
172 172 172
110 110 110
91 91 91
104 104 104
111 111 111
128 128 128
130 130 130
132 132 132
148 148 148
122 122 122
99 99 99
90 90 90
89 89 89
89 89 89
90 90 90
89 89 89
85 85 85
73 73 73
78 78 78
37 37 37
29 29 29
33 33 33
23 23 23
30 30 30
35 35 35
45 45 45
37 37 37
37 37 37
28 28 28
25 25 25
39 39 39
78 78 78
30 30 30
2 2 2
2 2 2
2 2 2
2 2 2
2 2 2
3 3 3
39 39 39
78 78 78
146 146 146
205 205 205
174 174 174
163 163 163
198 198 198
191 191 191
179 179 179
166 166 166
115 115 115
88 88 88
89 89 89
89 89 89
102 102 102
106 106 106
131 131 131
150 150 150
119 119 119
127 127 127
128 128 128
104 104 104
89 89 89
89 89 89
89 89 89
90 90 90
89 89 89
86 86 86
67 67 67
77 77 77
38 38 38
31 31 31
30 30 30
24 24 24
31 31 31
35 35 35
45 45 45
38 38 38
35 35 35
29 29 29
25 25 25
40 40 40
78 78 78
30 30 30
0 0 0
0 0 0
0 0 0
0 0 0
0 0 0
0 0 0
0 0 0
0 0 0
0 0 0
0 0 0
0 0 0
0 0 0
0 0 0
0 0 0
0 0 0
0 0 0
0 0 0
0 0 0
0 0 0
0 0 0
0 0 0
0 0 0
0 0 0
0 0 0
0 0 0
0 0 0
0 0 0
0 0 0
0 0 0
0 0 0
0 0 0
0 0 0
0 0 0
0 0 0
0 0 0
0 0 0
0 0 0
0 0 0
0 0 0
0 0 0
0 0 0
0 0 0
0 0 0
0 0 0
0 0 0
0 0 0
0 0 0
0 0 0
0 0 0
0 0 0
