P3 
50 50 
255
0 0 0
0 0 0
0 0 0
0 0 0
0 0 0
0 0 0
0 0 0
0 0 0
0 0 0
0 0 0
0 0 0
0 0 0
0 0 0
0 0 0
0 0 0
0 0 0
0 0 0
0 0 0
0 0 0
0 0 0
0 0 0
0 0 0
0 0 0
0 0 0
0 0 0
0 0 0
0 0 0
0 0 0
0 0 0
0 0 0
0 0 0
0 0 0
0 0 0
0 0 0
0 0 0
0 0 0
0 0 0
0 0 0
0 0 0
0 0 0
0 0 0
0 0 0
0 0 0
0 0 0
0 0 0
0 0 0
0 0 0
0 0 0
0 0 0
0 0 0
2 2 2
9 9 9
23 23 23
27 27 27
30 30 30
36 36 36
27 27 27
21 21 21
37 37 37
67 67 67
61 61 61
36 36 36
36 36 36
25 25 25
23 23 23
23 23 23
19 19 19
15 15 15
17 17 17
24 24 24
17 17 17
15 15 15
18 18 18
26 26 26
25 25 25
34 34 34
27 27 27
55 55 55
73 73 73
73 73 73
66 66 66
44 44 44
31 31 31
18 18 18
16 16 16
30 30 30
28 28 28
25 25 25
23 23 23
10 10 10
9 9 9
10 10 10
10 10 10
8 8 8
7 7 7
6 6 6
9 9 9
3 3 3
2 2 2
2 2 2
2 2 2
8 8 8
20 20 20
22 22 22
35 35 35
32 32 32
23 23 23
21 21 21
37 37 37
66 66 66
61 61 61
36 36 36
35 35 35
24 24 24
19 19 19
16 16 16
14 14 14
18 18 18
28 28 28
41 41 41
29 29 29
23 23 23
19 19 19
23 23 23
52 52 52
87 87 87
114 114 114
151 151 151
185 185 185
191 191 191
172 172 172
137 137 137
104 104 104
85 85 85
53 53 53
15 15 15
18 18 18
28 28 28
41 41 41
18 18 18
11 11 11
10 10 10
13 13 13
10 10 10
8 8 8
6 6 6
11 11 11
3 3 3
2 2 2
2 2 2
2 2 2
9 9 9
18 18 18
21 21 21
40 40 40
29 29 29
19 19 19
25 25 25
37 37 37
67 67 67
61 61 61
36 36 36
36 36 36
25 25 25
16 16 16
17 17 17
22 22 22
28 28 28
35 35 35
46 46 46
36 36 36
31 31 31
62 62 62
98 98 98
146 146 146
190 190 190
196 196 196
196 196 196
191 191 191
182 182 182
183 183 183
192 192 192
197 197 197
168 168 168
113 113 113
80 80 80
33 33 33
14 14 14
32 32 32
18 18 18
10 10 10
11 11 11
12 12 12
9 9 9
8 8 8
6 6 6
11 11 11
4 4 4
3 3 3
2 2 2
2 2 2
12 12 12
24 24 24
24 24 24
45 45 45
24 24 24
20 20 20
39 39 39
39 39 39
67 67 67
62 62 62
36 36 36
36 36 36
25 25 25
18 18 18
22 22 22
36 36 36
32 32 32
29 29 29
37 37 37
53 53 53
95 95 95
145 145 145
187 187 187
202 202 202
193 193 193
185 185 185
188 188 188
178 178 178
187 187 187
175 175 175
179 179 179
181 181 181
191 191 191
202 202 202
159 159 159
95 95 95
48 48 48
17 17 17
12 12 12
21 21 21
9 9 9
10 10 10
12 12 12
8 8 8
9 9 9
10 10 10
4 4 4
4 4 4
2 2 2
2 2 2
16 16 16
25 25 25
27 27 27
47 47 47
20 20 20
29 29 29
49 49 49
40 40 40
67 67 67
62 62 62
36 36 36
36 36 36
25 25 25
21 21 21
31 31 31
43 43 43
30 30 30
24 24 24
56 56 56
115 115 115
178 178 178
183 183 183
192 192 192
189 189 189
186 186 186
181 181 181
188 188 188
184 184 184
187 187 187
178 178 178
178 178 178
171 171 171
176 176 176
185 185 185
195 195 195
175 175 175
105 105 105
57 57 57
14 14 14
13 13 13
11 11 11
10 10 10
13 13 13
9 9 9
9 9 9
9 9 9
4 4 4
4 4 4
2 2 2
2 2 2
13 13 13
24 24 24
28 28 28
48 48 48
20 20 20
36 36 36
50 50 50
38 38 38
67 67 67
63 63 63
37 37 37
36 36 36
24 24 24
26 26 26
36 36 36
40 40 40
25 25 25
64 64 64
122 122 122
175 175 175
173 173 173
179 179 179
187 187 187
185 185 185
180 180 180
187 187 187
186 186 186
185 185 185
184 184 184
185 185 185
180 180 180
173 173 173
179 179 179
182 182 182
178 178 178
186 186 186
184 184 184
115 115 115
53 53 53
15 15 15
14 14 14
11 11 11
11 11 11
11 11 11
10 10 10
11 11 11
5 5 5
4 4 4
3 3 3
2 2 2
10 10 10
27 27 27
22 22 22
44 44 44
24 24 24
38 38 38
45 45 45
38 38 38
68 68 68
63 63 63
40 40 40
36 36 36
26 26 26
29 29 29
27 27 27
25 25 25
50 50 50
124 124 124
170 170 170
173 173 173
174 174 174
189 189 189
176 176 176
177 177 177
177 177 177
181 181 181
182 182 182
183 183 183
185 185 185
183 183 183
185 185 185
175 175 175
167 167 167
179 179 179
175 175 175
177 177 177
184 184 184
191 191 191
116 116 116
47 47 47
18 18 18
12 12 12
12 12 12
13 13 13
9 9 9
11 11 11
6 6 6
5 5 5
3 3 3
2 2 2
11 11 11
30 30 30
21 21 21
38 38 38
28 28 28
36 36 36
36 36 36
37 37 37
67 67 67
63 63 63
42 42 42
37 37 37
28 28 28
29 29 29
21 21 21
40 40 40
106 106 106
164 164 164
173 173 173
174 174 174
181 181 181
170 170 170
176 176 176
175 175 175
179 179 179
182 182 182
174 174 174
175 175 175
178 178 178
167 167 167
180 180 180
182 182 182
180 180 180
172 172 172
170 170 170
175 175 175
178 178 178
180 180 180
182 182 182
95 95 95
26 26 26
10 10 10
11 11 11
11 11 11
10 10 10
12 12 12
6 6 6
4 4 4
3 3 3
2 2 2
12 12 12
28 28 28
23 23 23
29 29 29
35 35 35
32 32 32
32 32 32
37 37 37
68 68 68
63 63 63
40 40 40
36 36 36
28 28 28
25 25 25
27 27 27
84 84 84
159 159 159
175 175 175
178 178 178
168 168 168
186 186 186
181 181 181
176 176 176
177 177 177
172 172 172
169 169 169
175 175 175
170 170 170
172 172 172
166 166 166
162 162 162
160 160 160
163 163 163
164 164 164
165 165 165
171 171 171
168 168 168
171 171 171
177 177 177
157 157 157
67 67 67
12 12 12
14 14 14
13 13 13
12 12 12
12 12 12
5 5 5
4 4 4
3 3 3
2 2 2
14 14 14
27 27 27
22 22 22
36 36 36
38 38 38
26 26 26
28 28 28
37 37 37
67 67 67
63 63 63
36 36 36
36 36 36
32 32 32
26 26 26
55 55 55
145 145 145
174 174 174
172 172 172
163 163 163
189 189 189
165 165 165
181 181 181
171 171 171
166 166 166
175 175 175
169 169 169
163 163 163
157 157 157
171 171 171
180 180 180
173 173 173
172 172 172
174 174 174
177 177 177
174 174 174
170 170 170
165 165 165
172 172 172
175 175 175
191 191 191
114 114 114
24 24 24
16 16 16
13 13 13
10 10 10
12 12 12
5 5 5
4 4 4
3 3 3
2 2 2
14 14 14
26 26 26
24 24 24
41 41 41
39 39 39
24 24 24
36 36 36
37 37 37
68 68 68
64 64 64
37 37 37
36 36 36
36 36 36
28 28 28
99 99 99
180 180 180
179 179 179
179 179 179
170 170 170
167 167 167
174 174 174
171 171 171
177 177 177
174 174 174
172 172 172
164 164 164
159 159 159
163 163 163
163 163 163
172 172 172
158 158 158
157 157 157
158 158 158
148 148 148
160 160 160
176 176 176
162 162 162
157 157 157
174 174 174
176 176 176
159 159 159
46 46 46
14 14 14
12 12 12
10 10 10
12 12 12
10 10 10
10 10 10
4 4 4
2 2 2
18 18 18
27 27 27
22 22 22
44 44 44
38 38 38
28 28 28
48 48 48
37 37 37
67 67 67
64 64 64
37 37 37
36 36 36
38 38 38
46 46 46
149 149 149
177 177 177
177 177 177
170 170 170
163 163 163
177 177 177
173 173 173
163 163 163
173 173 173
169 169 169
162 162 162
170 170 170
173 173 173
170 170 170
182 182 182
172 172 172
163 163 163
174 174 174
174 174 174
174 174 174
172 172 172
174 174 174
155 155 155
165 165 165
160 160 160
168 168 168
170 170 170
80 80 80
14 14 14
13 13 13
11 11 11
12 12 12
8 8 8
8 8 8
8 8 8
2 2 2
22 22 22
30 30 30
22 22 22
45 45 45
39 39 39
34 34 34
49 49 49
36 36 36
66 66 66
64 64 64
37 37 37
36 36 36
30 30 30
75 75 75
192 192 192
189 189 189
172 172 172
168 168 168
171 171 171
170 170 170
167 167 167
165 165 165
178 178 178
173 173 173
160 160 160
156 156 156
151 151 151
154 154 154
162 162 162
170 170 170
170 170 170
163 163 163
162 162 162
154 154 154
152 152 152
163 163 163
159 159 159
151 151 151
171 171 171
171 171 171
183 183 183
115 115 115
24 24 24
13 13 13
13 13 13
13 13 13
10 10 10
6 6 6
7 7 7
2 2 2
24 24 24
32 32 32
25 25 25
45 45 45
38 38 38
37 37 37
42 42 42
37 37 37
69 69 69
64 64 64
37 37 37
37 37 37
32 32 32
110 110 110
175 175 175
177 177 177
169 169 169
170 170 170
167 167 167
164 164 164
172 172 172
179 179 179
178 178 178
173 173 173
179 179 179
186 186 186
178 178 178
166 166 166
155 155 155
167 167 167
165 165 165
170 170 170
165 165 165
163 163 163
159 159 159
178 178 178
163 163 163
155 155 155
170 170 170
154 154 154
177 177 177
147 147 147
37 37 37
15 15 15
14 14 14
13 13 13
9 9 9
9 9 9
6 6 6
2 2 2
22 22 22
31 31 31
26 26 26
46 46 46
38 38 38
39 39 39
40 40 40
38 38 38
69 69 69
65 65 65
38 38 38
36 36 36
37 37 37
144 144 144
169 169 169
169 169 169
176 176 176
175 175 175
170 170 170
176 176 176
171 171 171
173 173 173
162 162 162
154 154 154
178 178 178
184 184 184
183 183 183
176 176 176
179 179 179
168 168 168
152 152 152
174 174 174
166 166 166
159 159 159
165 165 165
160 160 160
165 165 165
161 161 161
164 164 164
167 167 167
184 184 184
150 150 150
48 48 48
16 16 16
15 15 15
13 13 13
9 9 9
12 12 12
6 6 6
2 2 2
19 19 19
26 26 26
28 28 28
46 46 46
39 39 39
40 40 40
41 41 41
38 38 38
68 68 68
64 64 64
38 38 38
37 37 37
41 41 41
153 153 153
170 170 170
169 169 169
171 171 171
168 168 168
174 174 174
173 173 173
152 152 152
164 164 164
163 163 163
137 137 137
169 169 169
178 178 178
150 150 150
166 166 166
169 169 169
176 176 176
157 157 157
168 168 168
161 161 161
166 166 166
168 168 168
155 155 155
158 158 158
166 166 166
149 149 149
170 170 170
172 172 172
150 150 150
60 60 60
16 16 16
15 15 15
11 11 11
8 8 8
13 13 13
7 7 7
2 2 2
17 17 17
24 24 24
27 27 27
46 46 46
39 39 39
39 39 39
44 44 44
38 38 38
69 69 69
64 64 64
37 37 37
37 37 37
52 52 52
183 183 183
172 172 172
169 169 169
182 182 182
171 171 171
183 183 183
164 164 164
141 141 141
164 164 164
147 147 147
148 148 148
165 165 165
165 165 165
198 198 198
160 160 160
160 160 160
167 167 167
163 163 163
160 160 160
175 175 175
168 168 168
172 172 172
160 160 160
169 169 169
167 167 167
151 151 151
177 177 177
173 173 173
157 157 157
80 80 80
20 20 20
13 13 13
10 10 10
8 8 8
12 12 12
9 9 9
2 2 2
18 18 18
26 26 26
29 29 29
44 44 44
39 39 39
37 37 37
47 47 47
38 38 38
70 70 70
65 65 65
38 38 38
37 37 37
55 55 55
188 188 188
173 173 173
172 172 172
183 183 183
183 183 183
176 176 176
155 155 155
149 149 149
162 162 162
159 159 159
161 161 161
169 169 169
186 186 186
148 148 148
165 165 165
152 152 152
162 162 162
171 171 171
162 162 162
176 176 176
164 164 164
171 171 171
161 161 161
169 169 169
172 172 172
156 156 156
180 180 180
160 160 160
171 171 171
90 90 90
29 29 29
14 14 14
12 12 12
9 9 9
9 9 9
9 9 9
2 2 2
18 18 18
26 26 26
26 26 26
42 42 42
40 40 40
36 36 36
47 47 47
37 37 37
70 70 70
65 65 65
37 37 37
36 36 36
54 54 54
189 189 189
184 184 184
185 185 185
187 187 187
178 178 178
168 168 168
156 156 156
166 166 166
159 159 159
179 179 179
174 174 174
190 190 190
179 179 179
166 166 166
165 165 165
152 152 152
153 153 153
173 173 173
156 156 156
174 174 174
167 167 167
166 166 166
159 159 159
168 168 168
170 170 170
163 163 163
178 178 178
164 164 164
180 180 180
106 106 106
35 35 35
16 16 16
13 13 13
12 12 12
9 9 9
9 9 9
2 2 2
14 14 14
32 32 32
26 26 26
41 41 41
40 40 40
34 34 34
49 49 49
38 38 38
70 70 70
65 65 65
37 37 37
36 36 36
52 52 52
190 190 190
189 189 189
190 190 190
193 193 193
174 174 174
175 175 175
152 152 152
162 162 162
180 180 180
181 181 181
198 198 198
184 184 184
187 187 187
180 180 180
169 169 169
149 149 149
134 134 134
171 171 171
169 169 169
175 175 175
171 171 171
169 169 169
160 160 160
170 170 170
169 169 169
165 165 165
176 176 176
156 156 156
184 184 184
124 124 124
44 44 44
18 18 18
11 11 11
8 8 8
11 11 11
8 8 8
2 2 2
13 13 13
33 33 33
25 25 25
39 39 39
39 39 39
32 32 32
51 51 51
39 39 39
70 70 70
66 66 66
37 37 37
36 36 36
50 50 50
183 183 183
181 181 181
195 195 195
193 193 193
175 175 175
180 180 180
160 160 160
169 169 169
192 192 192
170 170 170
169 169 169
161 161 161
177 177 177
179 179 179
170 170 170
146 146 146
141 141 141
177 177 177
167 167 167
177 177 177
172 172 172
170 170 170
161 161 161
172 172 172
170 170 170
166 166 166
179 179 179
164 164 164
186 186 186
129 129 129
46 46 46
17 17 17
13 13 13
6 6 6
9 9 9
7 7 7
2 2 2
12 12 12
29 29 29
29 29 29
37 37 37
40 40 40
34 34 34
49 49 49
39 39 39
71 71 71
65 65 65
37 37 37
35 35 35
43 43 43
158 158 158
183 183 183
190 190 190
196 196 196
169 169 169
185 185 185
160 160 160
167 167 167
190 190 190
161 161 161
156 156 156
154 154 154
157 157 157
161 161 161
173 173 173
148 148 148
141 141 141
179 179 179
165 165 165
180 180 180
171 171 171
168 168 168
156 156 156
173 173 173
173 173 173
165 165 165
173 173 173
161 161 161
185 185 185
140 140 140
55 55 55
15 15 15
13 13 13
5 5 5
4 4 4
7 7 7
2 2 2
9 9 9
26 26 26
29 29 29
34 34 34
43 43 43
34 34 34
47 47 47
39 39 39
70 70 70
64 64 64
37 37 37
35 35 35
40 40 40
152 152 152
187 187 187
183 183 183
190 190 190
167 167 167
189 189 189
157 157 157
170 170 170
187 187 187
154 154 154
160 160 160
152 152 152
139 139 139
144 144 144
177 177 177
157 157 157
142 142 142
176 176 176
166 166 166
177 177 177
169 169 169
175 175 175
163 163 163
180 180 180
178 178 178
167 167 167
160 160 160
169 169 169
185 185 185
141 141 141
61 61 61
20 20 20
20 20 20
6 6 6
4 4 4
4 4 4
2 2 2
10 10 10
26 26 26
28 28 28
32 32 32
42 42 42
34 34 34
42 42 42
39 39 39
70 70 70
65 65 65
37 37 37
35 35 35
33 33 33
140 140 140
194 194 194
181 181 181
176 176 176
168 168 168
195 195 195
161 161 161
171 171 171
174 174 174
146 146 146
176 176 176
170 170 170
130 130 130
137 137 137
177 177 177
158 158 158
146 146 146
174 174 174
164 164 164
174 174 174
168 168 168
178 178 178
168 168 168
183 183 183
178 178 178
171 171 171
163 163 163
171 171 171
192 192 192
135 135 135
64 64 64
19 19 19
20 20 20
6 6 6
4 4 4
3 3 3
2 2 2
10 10 10
30 30 30
29 29 29
31 31 31
39 39 39
30 30 30
35 35 35
39 39 39
71 71 71
65 65 65
36 36 36
35 35 35
31 31 31
117 117 117
201 201 201
174 174 174
174 174 174
166 166 166
191 191 191
159 159 159
170 170 170
171 171 171
165 165 165
188 188 188
154 154 154
127 127 127
136 136 136
173 173 173
167 167 167
157 157 157
175 175 175
176 176 176
175 175 175
165 165 165
169 169 169
168 168 168
177 177 177
164 164 164
169 169 169
157 157 157
177 177 177
196 196 196
121 121 121
65 65 65
22 22 22
17 17 17
9 9 9
4 4 4
3 3 3
2 2 2
8 8 8
25 25 25
30 30 30
32 32 32
35 35 35
29 29 29
29 29 29
40 40 40
71 71 71
64 64 64
36 36 36
35 35 35
33 33 33
106 106 106
211 211 211
181 181 181
163 163 163
168 168 168
180 180 180
167 167 167
175 175 175
178 178 178
168 168 168
163 163 163
155 155 155
136 136 136
135 135 135
174 174 174
171 171 171
150 150 150
174 174 174
179 179 179
171 171 171
156 156 156
159 159 159
174 174 174
164 164 164
166 166 166
173 173 173
141 141 141
182 182 182
189 189 189
111 111 111
81 81 81
35 35 35
16 16 16
7 7 7
4 4 4
3 3 3
2 2 2
8 8 8
23 23 23
29 29 29
35 35 35
32 32 32
28 28 28
26 26 26
40 40 40
70 70 70
64 64 64
36 36 36
35 35 35
37 37 37
98 98 98
213 213 213
182 182 182
158 158 158
174 174 174
178 178 178
169 169 169
177 177 177
178 178 178
172 172 172
165 165 165
157 157 157
143 143 143
136 136 136
177 177 177
173 173 173
149 149 149
176 176 176
178 178 178
163 163 163
161 161 161
155 155 155
178 178 178
167 167 167
166 166 166
179 179 179
137 137 137
180 180 180
185 185 185
113 113 113
78 78 78
37 37 37
14 14 14
7 7 7
4 4 4
3 3 3
2 2 2
11 11 11
26 26 26
28 28 28
44 44 44
29 29 29
32 32 32
23 23 23
39 39 39
72 72 72
64 64 64
36 36 36
36 36 36
43 43 43
76 76 76
199 199 199
174 174 174
162 162 162
182 182 182
180 180 180
172 172 172
174 174 174
196 196 196
184 184 184
181 181 181
181 181 181
175 175 175
163 163 163
183 183 183
161 161 161
166 166 166
173 173 173
187 187 187
162 162 162
170 170 170
160 160 160
157 157 157
162 162 162
160 160 160
172 172 172
148 148 148
157 157 157
173 173 173
141 141 141
77 77 77
39 39 39
14 14 14
9 9 9
4 4 4
3 3 3
2 2 2
11 11 11
24 24 24
24 24 24
48 48 48
29 29 29
30 30 30
23 23 23
40 40 40
71 71 71
63 63 63
36 36 36
35 35 35
34 34 34
79 79 79
160 160 160
179 179 179
172 172 172
158 158 158
190 190 190
172 172 172
158 158 158
199 199 199
185 185 185
219 219 219
194 194 194
167 167 167
166 166 166
169 169 169
163 163 163
186 186 186
174 174 174
174 174 174
164 164 164
152 152 152
174 174 174
183 183 183
199 199 199
180 180 180
150 150 150
175 175 175
174 174 174
161 161 161
140 140 140
87 87 87
41 41 41
15 15 15
9 9 9
4 4 4
2 2 2
2 2 2
12 12 12
26 26 26
23 23 23
48 48 48
27 27 27
29 29 29
23 23 23
41 41 41
73 73 73
62 62 62
34 34 34
34 34 34
35 35 35
66 66 66
159 159 159
194 194 194
188 188 188
169 169 169
184 184 184
164 164 164
157 157 157
181 181 181
168 168 168
174 174 174
155 155 155
155 155 155
148 148 148
178 178 178
188 188 188
157 157 157
170 170 170
181 181 181
158 158 158
171 171 171
173 173 173
182 182 182
190 190 190
181 181 181
144 144 144
185 185 185
194 194 194
153 153 153
137 137 137
85 85 85
35 35 35
11 11 11
7 7 7
4 4 4
3 3 3
2 2 2
11 11 11
30 30 30
21 21 21
48 48 48
24 24 24
29 29 29
23 23 23
42 42 42
73 73 73
62 62 62
33 33 33
35 35 35
33 33 33
62 62 62
133 133 133
200 200 200
186 186 186
182 182 182
186 186 186
191 191 191
173 173 173
187 187 187
183 183 183
175 175 175
179 179 179
184 184 184
178 178 178
180 180 180
165 165 165
175 175 175
179 179 179
175 175 175
163 163 163
164 164 164
189 189 189
197 197 197
191 191 191
170 170 170
180 180 180
193 193 193
211 211 211
154 154 154
126 126 126
81 81 81
29 29 29
11 11 11
6 6 6
4 4 4
3 3 3
2 2 2
13 13 13
30 30 30
20 20 20
48 48 48
23 23 23
28 28 28
25 25 25
43 43 43
73 73 73
62 62 62
33 33 33
35 35 35
47 47 47
59 59 59
90 90 90
203 203 203
204 204 204
193 193 193
183 183 183
193 193 193
193 193 193
184 184 184
175 175 175
172 172 172
170 170 170
170 170 170
161 161 161
182 182 182
191 191 191
164 164 164
174 174 174
183 183 183
165 165 165
178 178 178
189 189 189
188 188 188
183 183 183
187 187 187
204 204 204
162 162 162
187 187 187
125 125 125
91 91 91
81 81 81
18 18 18
13 13 13
6 6 6
3 3 3
2 2 2
2 2 2
14 14 14
23 23 23
21 21 21
45 45 45
24 24 24
26 26 26
22 22 22
43 43 43
73 73 73
61 61 61
32 32 32
36 36 36
54 54 54
74 74 74
79 79 79
173 173 173
204 204 204
195 195 195
194 194 194
191 191 191
203 203 203
195 195 195
184 184 184
180 180 180
182 182 182
188 188 188
184 184 184
184 184 184
186 186 186
177 177 177
168 168 168
193 193 193
169 169 169
181 181 181
186 186 186
197 197 197
182 182 182
196 196 196
194 194 194
150 150 150
159 159 159
100 100 100
85 85 85
83 83 83
18 18 18
11 11 11
4 4 4
3 3 3
3 3 3
2 2 2
15 15 15
22 22 22
21 21 21
43 43 43
25 25 25
27 27 27
26 26 26
44 44 44
73 73 73
60 60 60
32 32 32
37 37 37
49 49 49
75 75 75
78 78 78
123 123 123
208 208 208
206 206 206
191 191 191
200 200 200
200 200 200
205 205 205
199 199 199
192 192 192
185 185 185
199 199 199
196 196 196
197 197 197
195 195 195
193 193 193
188 188 188
189 189 189
183 183 183
190 190 190
182 182 182
199 199 199
171 171 171
201 201 201
187 187 187
158 158 158
133 133 133
88 88 88
84 84 84
85 85 85
17 17 17
12 12 12
4 4 4
3 3 3
6 6 6
2 2 2
14 14 14
22 22 22
21 21 21
42 42 42
19 19 19
29 29 29
27 27 27
44 44 44
72 72 72
59 59 59
31 31 31
38 38 38
45 45 45
68 68 68
54 54 54
81 81 81
166 166 166
209 209 209
186 186 186
182 182 182
190 190 190
191 191 191
200 200 200
205 205 205
204 204 204
212 212 212
207 207 207
201 201 201
201 201 201
194 194 194
184 184 184
186 186 186
182 182 182
193 193 193
180 180 180
190 190 190
185 185 185
186 186 186
165 165 165
168 168 168
133 133 133
88 88 88
86 86 86
75 75 75
19 19 19
10 10 10
3 3 3
4 4 4
7 7 7
2 2 2
12 12 12
19 19 19
22 22 22
40 40 40
23 23 23
29 29 29
33 33 33
45 45 45
73 73 73
58 58 58
30 30 30
38 38 38
44 44 44
78 78 78
47 47 47
68 68 68
135 135 135
178 178 178
184 184 184
191 191 191
176 176 176
173 173 173
195 195 195
184 184 184
186 186 186
192 192 192
194 194 194
199 199 199
194 194 194
192 192 192
189 189 189
184 184 184
184 184 184
226 226 226
175 175 175
211 211 211
213 213 213
179 179 179
190 190 190
173 173 173
113 113 113
88 88 88
90 90 90
82 82 82
22 22 22
8 8 8
4 4 4
9 9 9
8 8 8
2 2 2
15 15 15
22 22 22
22 22 22
39 39 39
22 22 22
30 30 30
30 30 30
46 46 46
72 72 72
57 57 57
31 31 31
37 37 37
44 44 44
70 70 70
75 75 75
81 81 81
86 86 86
145 145 145
166 166 166
171 171 171
175 175 175
155 155 155
169 169 169
160 160 160
170 170 170
177 177 177
178 178 178
202 202 202
180 180 180
182 182 182
175 175 175
164 164 164
180 180 180
201 201 201
189 189 189
175 175 175
232 232 232
173 173 173
187 187 187
167 167 167
100 100 100
95 95 95
86 86 86
76 76 76
17 17 17
10 10 10
8 8 8
10 10 10
10 10 10
2 2 2
15 15 15
21 21 21
28 28 28
42 42 42
22 22 22
29 29 29
27 27 27
46 46 46
71 71 71
54 54 54
28 28 28
34 34 34
37 37 37
50 50 50
74 74 74
78 78 78
61 61 61
85 85 85
96 96 96
98 98 98
123 123 123
135 135 135
136 136 136
152 152 152
168 168 168
166 166 166
223 223 223
176 176 176
177 177 177
191 191 191
193 193 193
150 150 150
178 178 178
211 211 211
189 189 189
237 237 237
199 199 199
181 181 181
172 172 172
145 145 145
108 108 108
95 95 95
83 83 83
59 59 59
19 19 19
21 21 21
18 18 18
15 15 15
12 12 12
2 2 2
13 13 13
18 18 18
23 23 23
42 42 42
23 23 23
29 29 29
27 27 27
46 46 46
70 70 70
54 54 54
30 30 30
37 37 37
41 41 41
29 29 29
71 71 71
76 76 76
55 55 55
87 87 87
88 88 88
87 87 87
111 111 111
136 136 136
120 120 120
157 157 157
184 184 184
155 155 155
131 131 131
142 142 142
131 131 131
144 144 144
163 163 163
161 161 161
154 154 154
129 129 129
121 121 121
102 102 102
102 102 102
146 146 146
163 163 163
153 153 153
92 92 92
85 85 85
70 70 70
27 27 27
13 13 13
7 7 7
9 9 9
11 11 11
5 5 5
2 2 2
16 16 16
17 17 17
17 17 17
40 40 40
22 22 22
28 28 28
28 28 28
42 42 42
63 63 63
52 52 52
33 33 33
36 36 36
40 40 40
24 24 24
23 23 23
27 27 27
29 29 29
70 70 70
87 87 87
88 88 88
89 89 89
96 96 96
120 120 120
146 146 146
164 164 164
160 160 160
185 185 185
202 202 202
171 171 171
160 160 160
149 149 149
164 164 164
176 176 176
143 143 143
172 172 172
202 202 202
190 190 190
198 198 198
124 124 124
146 146 146
119 119 119
130 130 130
63 63 63
27 27 27
32 32 32
19 19 19
30 30 30
20 20 20
12 12 12
2 2 2
14 14 14
19 19 19
17 17 17
41 41 41
20 20 20
28 28 28
28 28 28
52 52 52
78 78 78
63 63 63
36 36 36
35 35 35
35 35 35
24 24 24
24 24 24
37 37 37
33 33 33
50 50 50
86 86 86
87 87 87
90 90 90
97 97 97
106 106 106
137 137 137
120 120 120
131 131 131
214 214 214
195 195 195
202 202 202
172 172 172
172 172 172
146 146 146
174 174 174
234 234 234
172 172 172
190 190 190
210 210 210
149 149 149
186 186 186
118 118 118
105 105 105
107 107 107
61 61 61
23 23 23
20 20 20
17 17 17
18 18 18
12 12 12
8 8 8
2 2 2
10 10 10
21 21 21
16 16 16
41 41 41
20 20 20
28 28 28
30 30 30
51 51 51
73 73 73
53 53 53
28 28 28
31 31 31
36 36 36
24 24 24
29 29 29
44 44 44
34 34 34
45 45 45
90 90 90
90 90 90
92 92 92
108 108 108
153 153 153
179 179 179
121 121 121
180 180 180
190 190 190
194 194 194
140 140 140
117 117 117
237 237 237
179 179 179
172 172 172
184 184 184
180 180 180
164 164 164
174 174 174
164 164 164
146 146 146
114 114 114
89 89 89
79 79 79
39 39 39
9 9 9
9 9 9
13 13 13
9 9 9
9 9 9
4 4 4
2 2 2
11 11 11
22 22 22
18 18 18
43 43 43
23 23 23
28 28 28
30 30 30
51 51 51
73 73 73
52 52 52
28 28 28
30 30 30
38 38 38
27 27 27
32 32 32
44 44 44
30 30 30
36 36 36
89 89 89
90 90 90
91 91 91
116 116 116
162 162 162
190 190 190
124 124 124
161 161 161
199 199 199
171 171 171
130 130 130
141 141 141
201 201 201
189 189 189
176 176 176
204 204 204
176 176 176
172 172 172
158 158 158
121 121 121
175 175 175
111 111 111
84 84 84
78 78 78
27 27 27
12 12 12
12 12 12
10 10 10
11 11 11
9 9 9
2 2 2
2 2 2
13 13 13
22 22 22
19 19 19
44 44 44
23 23 23
27 27 27
24 24 24
53 53 53
73 73 73
50 50 50
26 26 26
30 30 30
39 39 39
29 29 29
33 33 33
41 41 41
27 27 27
36 36 36
89 89 89
90 90 90
89 89 89
94 94 94
139 139 139
188 188 188
126 126 126
136 136 136
139 139 139
133 133 133
142 142 142
153 153 153
162 162 162
148 148 148
148 148 148
160 160 160
143 143 143
142 142 142
140 140 140
111 111 111
162 162 162
106 106 106
81 81 81
59 59 59
15 15 15
13 13 13
12 12 12
14 14 14
6 6 6
8 8 8
2 2 2
2 2 2
15 15 15
24 24 24
22 22 22
43 43 43
20 20 20
27 27 27
24 24 24
53 53 53
70 70 70
48 48 48
25 25 25
29 29 29
39 39 39
29 29 29
33 33 33
36 36 36
28 28 28
38 38 38
90 90 90
90 90 90
89 89 89
89 89 89
96 96 96
147 147 147
144 144 144
125 125 125
136 136 136
134 134 134
125 125 125
173 173 173
142 142 142
144 144 144
137 137 137
150 150 150
143 143 143
143 143 143
117 117 117
142 142 142
161 161 161
93 93 93
76 76 76
34 34 34
14 14 14
16 16 16
13 13 13
14 14 14
6 6 6
3 3 3
2 2 2
2 2 2
11 11 11
25 25 25
24 24 24
45 45 45
21 21 21
27 27 27
22 22 22
53 53 53
69 69 69
45 45 45
24 24 24
28 28 28
39 39 39
28 28 28
31 31 31
30 30 30
28 28 28
39 39 39
90 90 90
90 90 90
89 89 89
89 89 89
88 88 88
109 109 109
153 153 153
158 158 158
175 175 175
130 130 130
138 138 138
165 165 165
145 145 145
150 150 150
154 154 154
170 170 170
154 154 154
132 132 132
122 122 122
132 132 132
161 161 161
75 75 75
49 49 49
15 15 15
11 11 11
16 16 16
14 14 14
17 17 17
6 6 6
2 2 2
2 2 2
2 2 2
12 12 12
25 25 25
21 21 21
44 44 44
18 18 18
27 27 27
23 23 23
52 52 52
69 69 69
44 44 44
23 23 23
27 27 27
37 37 37
27 27 27
29 29 29
30 30 30
29 29 29
39 39 39
90 90 90
89 89 89
89 89 89
88 88 88
88 88 88
108 108 108
130 130 130
149 149 149
203 203 203
175 175 175
156 156 156
171 171 171
163 163 163
168 168 168
179 179 179
172 172 172
155 155 155
138 138 138
158 158 158
185 185 185
96 96 96
55 55 55
17 17 17
14 14 14
15 15 15
16 16 16
11 11 11
20 20 20
10 10 10
3 3 3
2 2 2
2 2 2
9 9 9
22 22 22
17 17 17
40 40 40
17 17 17
27 27 27
22 22 22
52 52 52
69 69 69
45 45 45
23 23 23
27 27 27
36 36 36
27 27 27
30 30 30
31 31 31
29 29 29
40 40 40
88 88 88
90 90 90
89 89 89
88 88 88
89 89 89
111 111 111
117 117 117
120 120 120
128 128 128
180 180 180
181 181 181
207 207 207
201 201 201
153 153 153
184 184 184
179 179 179
175 175 175
201 201 201
190 190 190
112 112 112
61 61 61
17 17 17
17 17 17
15 15 15
12 12 12
12 12 12
12 12 12
11 11 11
6 6 6
4 4 4
3 3 3
0 0 0
0 0 0
0 0 0
0 0 0
0 0 0
0 0 0
0 0 0
0 0 0
0 0 0
0 0 0
0 0 0
0 0 0
0 0 0
0 0 0
0 0 0
0 0 0
0 0 0
0 0 0
0 0 0
0 0 0
0 0 0
0 0 0
0 0 0
0 0 0
0 0 0
0 0 0
0 0 0
0 0 0
0 0 0
0 0 0
0 0 0
0 0 0
0 0 0
0 0 0
0 0 0
0 0 0
0 0 0
0 0 0
0 0 0
0 0 0
0 0 0
0 0 0
0 0 0
0 0 0
0 0 0
0 0 0
0 0 0
0 0 0
0 0 0
0 0 0
