P3 
50 50 
255
0 0 0
0 0 0
0 0 0
0 0 0
0 0 0
0 0 0
0 0 0
0 0 0
0 0 0
0 0 0
0 0 0
0 0 0
0 0 0
0 0 0
0 0 0
0 0 0
0 0 0
0 0 0
0 0 0
0 0 0
0 0 0
0 0 0
0 0 0
0 0 0
0 0 0
0 0 0
0 0 0
0 0 0
0 0 0
0 0 0
0 0 0
0 0 0
0 0 0
0 0 0
0 0 0
0 0 0
0 0 0
0 0 0
0 0 0
0 0 0
0 0 0
0 0 0
0 0 0
0 0 0
0 0 0
0 0 0
0 0 0
0 0 0
0 0 0
0 0 0
0 0 0
9 9 9
9 9 9
11 11 11
11 11 11
11 11 11
20 20 20
28 28 28
36 36 36
38 38 38
26 26 26
19 19 19
40 40 40
68 68 68
78 78 78
72 72 72
54 54 54
38 38 38
53 53 53
66 66 66
75 75 75
73 73 73
56 56 56
33 33 33
22 22 22
25 25 25
22 22 22
16 16 16
17 17 17
22 22 22
38 38 38
28 28 28
42 42 42
59 59 59
74 74 74
74 74 74
61 61 61
43 43 43
31 31 31
20 20 20
36 36 36
42 42 42
28 28 28
43 43 43
19 19 19
26 26 26
25 25 25
11 11 11
10 10 10
0 0 0
0 0 0
11 11 11
8 8 8
11 11 11
9 9 9
11 11 11
41 41 41
42 42 42
27 27 27
19 19 19
17 17 17
29 29 29
40 40 40
67 67 67
74 74 74
71 71 71
84 84 84
98 98 98
136 136 136
170 170 170
194 194 194
193 193 193
169 169 169
129 129 129
96 96 96
60 60 60
38 38 38
26 26 26
24 24 24
16 16 16
23 23 23
29 29 29
42 42 42
59 59 59
74 74 74
73 73 73
61 61 61
49 49 49
32 32 32
18 18 18
26 26 26
41 41 41
34 34 34
33 33 33
21 21 21
22 22 22
22 22 22
13 13 13
10 10 10
0 0 0
0 0 0
11 11 11
9 9 9
10 10 10
10 10 10
10 10 10
43 43 43
18 18 18
13 13 13
18 18 18
34 34 34
41 41 41
20 20 20
64 64 64
81 81 81
103 103 103
173 173 173
199 199 199
192 192 192
187 187 187
186 186 186
188 188 188
199 199 199
206 206 206
202 202 202
158 158 158
97 97 97
51 51 51
25 25 25
19 19 19
20 20 20
29 29 29
43 43 43
59 59 59
74 74 74
74 74 74
60 60 60
52 52 52
33 33 33
22 22 22
21 21 21
37 37 37
41 41 41
31 31 31
17 17 17
19 19 19
20 20 20
14 14 14
12 12 12
0 0 0
0 0 0
10 10 10
11 11 11
10 10 10
15 15 15
11 11 11
24 24 24
19 19 19
32 32 32
41 41 41
35 35 35
21 21 21
39 39 39
87 87 87
123 123 123
203 203 203
199 199 199
185 185 185
179 179 179
192 192 192
192 192 192
186 186 186
186 186 186
193 193 193
189 189 189
194 194 194
204 204 204
135 135 135
79 79 79
29 29 29
24 24 24
30 30 30
42 42 42
59 59 59
75 75 75
75 75 75
61 61 61
52 52 52
47 47 47
28 28 28
16 16 16
30 30 30
47 47 47
25 25 25
28 28 28
27 27 27
21 21 21
21 21 21
14 14 14
0 0 0
0 0 0
11 11 11
9 9 9
10 10 10
14 14 14
14 14 14
14 14 14
34 34 34
42 42 42
28 28 28
17 17 17
55 55 55
90 90 90
152 152 152
204 204 204
189 189 189
181 181 181
176 176 176
186 186 186
192 192 192
188 188 188
192 192 192
186 186 186
189 189 189
188 188 188
195 195 195
195 195 195
204 204 204
165 165 165
83 83 83
30 30 30
30 30 30
42 42 42
60 60 60
75 75 75
75 75 75
62 62 62
48 48 48
56 56 56
43 43 43
22 22 22
24 24 24
51 51 51
26 26 26
31 31 31
28 28 28
21 21 21
27 27 27
11 11 11
0 0 0
0 0 0
11 11 11
12 12 12
13 13 13
12 12 12
12 12 12
13 13 13
46 46 46
23 23 23
18 18 18
63 63 63
89 89 89
173 173 173
202 202 202
190 190 190
178 178 178
182 182 182
176 176 176
184 184 184
195 195 195
189 189 189
190 190 190
188 188 188
184 184 184
185 185 185
193 193 193
190 190 190
179 179 179
199 199 199
166 166 166
62 62 62
29 29 29
43 43 43
60 60 60
76 76 76
75 75 75
61 61 61
43 43 43
51 51 51
51 51 51
34 34 34
20 20 20
52 52 52
25 25 25
31 31 31
26 26 26
21 21 21
21 21 21
11 11 11
0 0 0
0 0 0
12 12 12
12 12 12
14 14 14
13 13 13
10 10 10
16 16 16
41 41 41
16 16 16
48 48 48
89 89 89
165 165 165
197 197 197
185 185 185
188 188 188
188 188 188
185 185 185
182 182 182
184 184 184
188 188 188
171 171 171
191 191 191
187 187 187
185 185 185
186 186 186
183 183 183
188 188 188
192 192 192
189 189 189
192 192 192
126 126 126
39 39 39
42 42 42
60 60 60
76 76 76
75 75 75
62 62 62
34 34 34
44 44 44
48 48 48
46 46 46
19 19 19
48 48 48
21 21 21
27 27 27
31 31 31
23 23 23
23 23 23
12 12 12
0 0 0
0 0 0
13 13 13
15 15 15
15 15 15
12 12 12
14 14 14
16 16 16
30 30 30
49 49 49
87 87 87
162 162 162
188 188 188
182 182 182
188 188 188
185 185 185
180 180 180
182 182 182
177 177 177
173 173 173
187 187 187
184 184 184
185 185 185
181 181 181
177 177 177
184 184 184
177 177 177
178 178 178
178 178 178
189 189 189
180 180 180
192 192 192
111 111 111
44 44 44
60 60 60
76 76 76
75 75 75
61 61 61
27 27 27
35 35 35
41 41 41
51 51 51
28 28 28
41 41 41
22 22 22
21 21 21
34 34 34
21 21 21
24 24 24
16 16 16
0 0 0
0 0 0
13 13 13
14 14 14
14 14 14
18 18 18
16 16 16
12 12 12
28 28 28
87 87 87
130 130 130
180 180 180
185 185 185
178 178 178
183 183 183
183 183 183
172 172 172
179 179 179
186 186 186
180 180 180
169 169 169
171 171 171
187 187 187
178 178 178
182 182 182
189 189 189
185 185 185
183 183 183
167 167 167
187 187 187
178 178 178
195 195 195
187 187 187
88 88 88
60 60 60
77 77 77
76 76 76
62 62 62
30 30 30
35 35 35
33 33 33
50 50 50
41 41 41
30 30 30
20 20 20
27 27 27
31 31 31
21 21 21
21 21 21
14 14 14
0 0 0
0 0 0
12 12 12
12 12 12
13 13 13
17 17 17
19 19 19
20 20 20
85 85 85
104 104 104
173 173 173
196 196 196
178 178 178
180 180 180
181 181 181
170 170 170
179 179 179
169 169 169
169 169 169
180 180 180
181 181 181
177 177 177
175 175 175
175 175 175
179 179 179
182 182 182
189 189 189
185 185 185
183 183 183
190 190 190
188 188 188
188 188 188
194 194 194
175 175 175
60 60 60
77 77 77
75 75 75
62 62 62
35 35 35
35 35 35
28 28 28
38 38 38
54 54 54
29 29 29
27 27 27
32 32 32
30 30 30
23 23 23
23 23 23
15 15 15
0 0 0
0 0 0
13 13 13
11 11 11
15 15 15
17 17 17
17 17 17
47 47 47
89 89 89
181 181 181
172 172 172
173 173 173
180 180 180
185 185 185
183 183 183
174 174 174
170 170 170
191 191 191
181 181 181
170 170 170
178 178 178
181 181 181
183 183 183
179 179 179
182 182 182
191 191 191
169 169 169
187 187 187
165 165 165
186 186 186
186 186 186
192 192 192
197 197 197
184 184 184
101 101 101
77 77 77
75 75 75
62 62 62
50 50 50
38 38 38
31 31 31
32 32 32
54 54 54
32 32 32
25 25 25
28 28 28
28 28 28
21 21 21
25 25 25
18 18 18
0 0 0
0 0 0
12 12 12
12 12 12
16 16 16
16 16 16
13 13 13
86 86 86
169 169 169
172 172 172
181 181 181
181 181 181
180 180 180
186 186 186
166 166 166
181 181 181
187 187 187
183 183 183
180 180 180
175 175 175
173 173 173
179 179 179
173 173 173
173 173 173
165 165 165
170 170 170
189 189 189
170 170 170
190 190 190
182 182 182
187 187 187
175 175 175
184 184 184
188 188 188
187 187 187
78 78 78
74 74 74
61 61 61
50 50 50
52 52 52
33 33 33
24 24 24
54 54 54
38 38 38
28 28 28
31 31 31
31 31 31
21 21 21
30 30 30
15 15 15
0 0 0
0 0 0
13 13 13
14 14 14
17 17 17
16 16 16
26 26 26
90 90 90
182 182 182
181 181 181
183 183 183
171 171 171
189 189 189
171 171 171
188 188 188
181 181 181
182 182 182
157 157 157
166 166 166
166 166 166
162 162 162
164 164 164
172 172 172
170 170 170
185 185 185
167 167 167
175 175 175
180 180 180
176 176 176
180 180 180
203 203 203
196 196 196
176 176 176
181 181 181
194 194 194
77 77 77
74 74 74
60 60 60
40 40 40
53 53 53
41 41 41
26 26 26
55 55 55
39 39 39
31 31 31
35 35 35
35 35 35
24 24 24
38 38 38
17 17 17
0 0 0
0 0 0
14 14 14
16 16 16
17 17 17
16 16 16
66 66 66
157 157 157
180 180 180
172 172 172
191 191 191
184 184 184
191 191 191
171 171 171
178 178 178
174 174 174
162 162 162
181 181 181
189 189 189
192 192 192
185 185 185
192 192 192
190 190 190
185 185 185
183 183 183
171 171 171
172 172 172
175 175 175
175 175 175
202 202 202
181 181 181
174 174 174
179 179 179
173 173 173
187 187 187
91 91 91
76 76 76
60 60 60
32 32 32
43 43 43
45 45 45
30 30 30
55 55 55
40 40 40
35 35 35
31 31 31
28 28 28
29 29 29
42 42 42
18 18 18
0 0 0
0 0 0
13 13 13
21 21 21
16 16 16
17 17 17
84 84 84
187 187 187
174 174 174
183 183 183
178 178 178
170 170 170
184 184 184
189 189 189
172 172 172
174 174 174
186 186 186
186 186 186
187 187 187
189 189 189
185 185 185
176 176 176
175 175 175
177 177 177
177 177 177
185 185 185
178 178 178
172 172 172
195 195 195
175 175 175
173 173 173
167 167 167
174 174 174
184 184 184
194 194 194
105 105 105
77 77 77
62 62 62
33 33 33
41 41 41
48 48 48
33 33 33
56 56 56
40 40 40
38 38 38
32 32 32
29 29 29
29 29 29
37 37 37
21 21 21
0 0 0
0 0 0
11 11 11
22 22 22
19 19 19
21 21 21
86 86 86
184 184 184
185 185 185
172 172 172
174 174 174
185 185 185
184 184 184
171 171 171
177 177 177
186 186 186
176 176 176
197 197 197
168 168 168
169 169 169
177 177 177
170 170 170
167 167 167
169 169 169
167 167 167
171 171 171
182 182 182
195 195 195
174 174 174
199 199 199
207 207 207
176 176 176
188 188 188
172 172 172
192 192 192
129 129 129
76 76 76
62 62 62
35 35 35
42 42 42
49 49 49
39 39 39
57 57 57
40 40 40
40 40 40
36 36 36
30 30 30
23 23 23
26 26 26
24 24 24
0 0 0
0 0 0
13 13 13
19 19 19
17 17 17
24 24 24
85 85 85
182 182 182
181 181 181
191 191 191
191 191 191
186 186 186
194 194 194
202 202 202
186 186 186
186 186 186
182 182 182
184 184 184
163 163 163
160 160 160
184 184 184
183 183 183
168 168 168
167 167 167
175 175 175
167 167 167
187 187 187
194 194 194
210 210 210
188 188 188
185 185 185
187 187 187
182 182 182
170 170 170
184 184 184
156 156 156
77 77 77
63 63 63
36 36 36
45 45 45
47 47 47
34 34 34
58 58 58
37 37 37
39 39 39
34 34 34
26 26 26
20 20 20
29 29 29
22 22 22
0 0 0
0 0 0
15 15 15
20 20 20
20 20 20
29 29 29
85 85 85
186 186 186
181 181 181
183 183 183
183 183 183
179 179 179
193 193 193
173 173 173
205 205 205
171 171 171
168 168 168
172 172 172
166 166 166
161 161 161
170 170 170
164 164 164
170 170 170
164 164 164
176 176 176
165 165 165
166 166 166
193 193 193
174 174 174
211 211 211
208 208 208
184 184 184
186 186 186
187 187 187
196 196 196
172 172 172
78 78 78
63 63 63
36 36 36
49 49 49
46 46 46
34 34 34
59 59 59
38 38 38
43 43 43
28 28 28
28 28 28
21 21 21
30 30 30
27 27 27
0 0 0
0 0 0
15 15 15
20 20 20
20 20 20
33 33 33
87 87 87
184 184 184
191 191 191
180 180 180
177 177 177
176 176 176
196 196 196
205 205 205
191 191 191
167 167 167
169 169 169
170 170 170
171 171 171
187 187 187
194 194 194
190 190 190
186 186 186
158 158 158
162 162 162
165 165 165
154 154 154
188 188 188
170 170 170
196 196 196
193 193 193
182 182 182
187 187 187
191 191 191
203 203 203
193 193 193
77 77 77
62 62 62
36 36 36
50 50 50
44 44 44
33 33 33
57 57 57
36 36 36
39 39 39
27 27 27
27 27 27
20 20 20
31 31 31
21 21 21
0 0 0
0 0 0
14 14 14
21 21 21
19 19 19
28 28 28
86 86 86
189 189 189
195 195 195
183 183 183
179 179 179
178 178 178
190 190 190
183 183 183
184 184 184
149 149 149
166 166 166
172 172 172
194 194 194
194 194 194
185 185 185
191 191 191
193 193 193
181 181 181
172 172 172
159 159 159
167 167 167
189 189 189
180 180 180
200 200 200
179 179 179
209 209 209
188 188 188
194 194 194
191 191 191
202 202 202
77 77 77
64 64 64
40 40 40
52 52 52
42 42 42
37 37 37
58 58 58
34 34 34
31 31 31
31 31 31
33 33 33
26 26 26
23 23 23
19 19 19
0 0 0
0 0 0
14 14 14
21 21 21
22 22 22
24 24 24
86 86 86
192 192 192
193 193 193
187 187 187
180 180 180
179 179 179
197 197 197
181 181 181
193 193 193
166 166 166
162 162 162
178 178 178
196 196 196
182 182 182
158 158 158
176 176 176
183 183 183
193 193 193
192 192 192
171 171 171
169 169 169
197 197 197
175 175 175
201 201 201
185 185 185
194 194 194
193 193 193
190 190 190
190 190 190
208 208 208
78 78 78
65 65 65
37 37 37
55 55 55
39 39 39
41 41 41
58 58 58
33 33 33
35 35 35
27 27 27
36 36 36
23 23 23
22 22 22
16 16 16
0 0 0
0 0 0
13 13 13
20 20 20
20 20 20
24 24 24
85 85 85
199 199 199
178 178 178
183 183 183
170 170 170
182 182 182
199 199 199
176 176 176
197 197 197
169 169 169
164 164 164
190 190 190
178 178 178
173 173 173
151 151 151
170 170 170
182 182 182
190 190 190
191 191 191
169 169 169
177 177 177
199 199 199
173 173 173
205 205 205
189 189 189
195 195 195
201 201 201
191 191 191
193 193 193
209 209 209
79 79 79
65 65 65
39 39 39
53 53 53
35 35 35
42 42 42
56 56 56
29 29 29
36 36 36
29 29 29
31 31 31
19 19 19
20 20 20
11 11 11
0 0 0
0 0 0
11 11 11
21 21 21
21 21 21
27 27 27
87 87 87
200 200 200
190 190 190
192 192 192
188 188 188
187 187 187
198 198 198
179 179 179
198 198 198
170 170 170
176 176 176
186 186 186
175 175 175
155 155 155
155 155 155
161 161 161
180 180 180
187 187 187
195 195 195
175 175 175
182 182 182
203 203 203
182 182 182
197 197 197
195 195 195
200 200 200
205 205 205
197 197 197
196 196 196
206 206 206
78 78 78
64 64 64
44 44 44
52 52 52
35 35 35
44 44 44
52 52 52
29 29 29
39 39 39
30 30 30
28 28 28
16 16 16
15 15 15
12 12 12
0 0 0
0 0 0
11 11 11
22 22 22
23 23 23
23 23 23
88 88 88
198 198 198
193 193 193
194 194 194
202 202 202
190 190 190
192 192 192
176 176 176
201 201 201
170 170 170
174 174 174
186 186 186
157 157 157
147 147 147
173 173 173
160 160 160
160 160 160
175 175 175
188 188 188
172 172 172
192 192 192
205 205 205
193 193 193
178 178 178
203 203 203
197 197 197
187 187 187
200 200 200
189 189 189
209 209 209
78 78 78
64 64 64
47 47 47
46 46 46
36 36 36
48 48 48
46 46 46
31 31 31
39 39 39
29 29 29
27 27 27
14 14 14
16 16 16
13 13 13
0 0 0
0 0 0
13 13 13
22 22 22
22 22 22
52 52 52
88 88 88
202 202 202
191 191 191
186 186 186
187 187 187
186 186 186
184 184 184
187 187 187
205 205 205
187 187 187
188 188 188
173 173 173
162 162 162
139 139 139
154 154 154
164 164 164
166 166 166
171 171 171
191 191 191
171 171 171
188 188 188
199 199 199
199 199 199
187 187 187
183 183 183
199 199 199
195 195 195
194 194 194
193 193 193
214 214 214
78 78 78
64 64 64
49 49 49
37 37 37
28 28 28
50 50 50
38 38 38
31 31 31
36 36 36
40 40 40
33 33 33
19 19 19
15 15 15
14 14 14
0 0 0
0 0 0
13 13 13
22 22 22
32 32 32
83 83 83
82 82 82
206 206 206
196 196 196
194 194 194
177 177 177
173 173 173
181 181 181
186 186 186
201 201 201
175 175 175
194 194 194
171 171 171
162 162 162
150 150 150
155 155 155
169 169 169
180 180 180
179 179 179
191 191 191
178 178 178
181 181 181
183 183 183
189 189 189
187 187 187
186 186 186
200 200 200
201 201 201
196 196 196
191 191 191
223 223 223
78 78 78
64 64 64
51 51 51
35 35 35
24 24 24
54 54 54
31 31 31
33 33 33
33 33 33
42 42 42
27 27 27
17 17 17
16 16 16
9 9 9
0 0 0
0 0 0
11 11 11
20 20 20
28 28 28
88 88 88
84 84 84
211 211 211
185 185 185
190 190 190
183 183 183
184 184 184
189 189 189
183 183 183
199 199 199
171 171 171
196 196 196
176 176 176
164 164 164
158 158 158
156 156 156
168 168 168
182 182 182
179 179 179
198 198 198
185 185 185
186 186 186
181 181 181
192 192 192
186 186 186
190 190 190
205 205 205
192 192 192
195 195 195
191 191 191
226 226 226
78 78 78
64 64 64
50 50 50
36 36 36
22 22 22
54 54 54
28 28 28
36 36 36
33 33 33
40 40 40
24 24 24
17 17 17
16 16 16
13 13 13
0 0 0
0 0 0
9 9 9
22 22 22
21 21 21
67 67 67
88 88 88
210 210 210
190 190 190
195 195 195
183 183 183
188 188 188
189 189 189
195 195 195
194 194 194
183 183 183
180 180 180
194 194 194
190 190 190
180 180 180
178 178 178
183 183 183
184 184 184
191 191 191
190 190 190
172 172 172
203 203 203
237 237 237
190 190 190
204 204 204
163 163 163
190 190 190
204 204 204
199 199 199
188 188 188
204 204 204
80 80 80
77 77 77
49 49 49
35 35 35
25 25 25
50 50 50
33 33 33
49 49 49
33 33 33
36 36 36
34 34 34
17 17 17
27 27 27
24 24 24
0 0 0
0 0 0
11 11 11
20 20 20
16 16 16
56 56 56
90 90 90
185 185 185
185 185 185
196 196 196
186 186 186
182 182 182
188 188 188
196 196 196
217 217 217
212 212 212
179 179 179
171 171 171
167 167 167
173 173 173
152 152 152
163 163 163
165 165 165
176 176 176
180 180 180
192 192 192
194 194 194
222 222 222
204 204 204
211 211 211
186 186 186
201 201 201
204 204 204
181 181 181
202 202 202
166 166 166
81 81 81
66 66 66
47 47 47
35 35 35
32 32 32
43 43 43
34 34 34
52 52 52
29 29 29
25 25 25
28 28 28
18 18 18
31 31 31
23 23 23
0 0 0
0 0 0
10 10 10
15 15 15
16 16 16
36 36 36
91 91 91
102 102 102
200 200 200
194 194 194
191 191 191
182 182 182
186 186 186
193 193 193
211 211 211
211 211 211
195 195 195
187 187 187
180 180 180
177 177 177
153 153 153
178 178 178
177 177 177
182 182 182
192 192 192
202 202 202
187 187 187
193 193 193
200 200 200
204 204 204
197 197 197
206 206 206
211 211 211
199 199 199
213 213 213
121 121 121
81 81 81
69 69 69
49 49 49
35 35 35
31 31 31
42 42 42
32 32 32
51 51 51
30 30 30
21 21 21
28 28 28
17 17 17
24 24 24
27 27 27
0 0 0
0 0 0
11 11 11
13 13 13
20 20 20
29 29 29
83 83 83
86 86 86
214 214 214
191 191 191
200 200 200
198 198 198
200 200 200
195 195 195
204 204 204
219 219 219
185 185 185
193 193 193
197 197 197
194 194 194
187 187 187
186 186 186
193 193 193
192 192 192
192 192 192
188 188 188
207 207 207
200 200 200
195 195 195
208 208 208
205 205 205
201 201 201
203 203 203
213 213 213
211 211 211
90 90 90
88 88 88
70 70 70
46 46 46
35 35 35
34 34 34
40 40 40
27 27 27
52 52 52
30 30 30
21 21 21
35 35 35
16 16 16
19 19 19
25 25 25
0 0 0
0 0 0
10 10 10
13 13 13
16 16 16
31 31 31
87 87 87
86 86 86
195 195 195
206 206 206
198 198 198
200 200 200
205 205 205
187 187 187
198 198 198
195 195 195
199 199 199
195 195 195
189 189 189
177 177 177
173 173 173
173 173 173
178 178 178
185 185 185
195 195 195
209 209 209
206 206 206
196 196 196
187 187 187
208 208 208
213 213 213
212 212 212
202 202 202
215 215 215
200 200 200
91 91 91
82 82 82
72 72 72
42 42 42
34 34 34
33 33 33
37 37 37
25 25 25
52 52 52
29 29 29
21 21 21
34 34 34
23 23 23
21 21 21
19 19 19
0 0 0
0 0 0
12 12 12
13 13 13
24 24 24
30 30 30
90 90 90
88 88 88
121 121 121
202 202 202
205 205 205
211 211 211
205 205 205
189 189 189
198 198 198
204 204 204
204 204 204
189 189 189
187 187 187
188 188 188
195 195 195
195 195 195
191 191 191
186 186 186
200 200 200
214 214 214
207 207 207
192 192 192
207 207 207
207 207 207
212 212 212
208 208 208
213 213 213
213 213 213
131 131 131
89 89 89
85 85 85
73 73 73
37 37 37
34 34 34
31 31 31
33 33 33
25 25 25
48 48 48
30 30 30
22 22 22
24 24 24
23 23 23
19 19 19
18 18 18
0 0 0
0 0 0
13 13 13
13 13 13
23 23 23
56 56 56
79 79 79
92 92 92
91 91 91
209 209 209
212 212 212
206 206 206
211 211 211
205 205 205
203 203 203
204 204 204
211 211 211
199 199 199
208 208 208
200 200 200
202 202 202
203 203 203
200 200 200
200 200 200
209 209 209
210 210 210
202 202 202
201 201 201
204 204 204
204 204 204
209 209 209
205 205 205
216 216 216
185 185 185
93 93 93
91 91 91
86 86 86
74 74 74
32 32 32
33 33 33
34 34 34
31 31 31
33 33 33
45 45 45
19 19 19
26 26 26
19 19 19
24 24 24
15 15 15
19 19 19
0 0 0
0 0 0
11 11 11
11 11 11
20 20 20
57 57 57
89 89 89
91 91 91
87 87 87
187 187 187
195 195 195
200 200 200
196 196 196
201 201 201
192 192 192
196 196 196
194 194 194
203 203 203
203 203 203
210 210 210
213 213 213
216 216 216
213 213 213
203 203 203
218 218 218
199 199 199
207 207 207
200 200 200
197 197 197
193 193 193
204 204 204
213 213 213
211 211 211
198 198 198
91 91 91
92 92 92
85 85 85
75 75 75
28 28 28
33 33 33
38 38 38
30 30 30
26 26 26
45 45 45
24 24 24
29 29 29
24 24 24
24 24 24
17 17 17
21 21 21
0 0 0
0 0 0
8 8 8
13 13 13
24 24 24
36 36 36
91 91 91
87 87 87
88 88 88
145 145 145
202 202 202
203 203 203
194 194 194
190 190 190
200 200 200
194 194 194
194 194 194
196 196 196
228 228 228
228 228 228
222 222 222
192 192 192
223 223 223
234 234 234
199 199 199
247 247 247
217 217 217
235 235 235
198 198 198
192 192 192
206 206 206
183 183 183
178 178 178
178 178 178
87 87 87
84 84 84
84 84 84
92 92 92
24 24 24
31 31 31
41 41 41
29 29 29
29 29 29
43 43 43
24 24 24
28 28 28
24 24 24
18 18 18
20 20 20
13 13 13
0 0 0
0 0 0
17 17 17
11 11 11
21 21 21
27 27 27
91 91 91
86 86 86
87 87 87
92 92 92
206 206 206
177 177 177
196 196 196
190 190 190
200 200 200
176 176 176
194 194 194
246 246 246
219 219 219
215 215 215
226 226 226
186 186 186
215 215 215
208 208 208
187 187 187
190 190 190
210 210 210
240 240 240
198 198 198
181 181 181
162 162 162
184 184 184
180 180 180
100 100 100
83 83 83
84 84 84
86 86 86
81 81 81
19 19 19
30 30 30
43 43 43
27 27 27
28 28 28
42 42 42
26 26 26
25 25 25
29 29 29
24 24 24
25 25 25
12 12 12
0 0 0
0 0 0
19 19 19
14 14 14
18 18 18
18 18 18
80 80 80
85 85 85
81 81 81
95 95 95
112 112 112
178 178 178
145 145 145
172 172 172
175 175 175
178 178 178
222 222 222
252 252 252
238 238 238
231 231 231
179 179 179
190 190 190
230 230 230
227 227 227
155 155 155
202 202 202
208 208 208
225 225 225
230 230 230
188 188 188
171 171 171
188 188 188
113 113 113
106 106 106
63 63 63
80 80 80
84 84 84
78 78 78
24 24 24
30 30 30
44 44 44
26 26 26
26 26 26
44 44 44
27 27 27
30 30 30
35 35 35
23 23 23
22 22 22
22 22 22
0 0 0
0 0 0
7 7 7
15 15 15
16 16 16
17 17 17
44 44 44
85 85 85
83 83 83
89 89 89
89 89 89
92 92 92
181 181 181
161 161 161
193 193 193
167 167 167
128 128 128
179 179 179
171 171 171
146 146 146
184 184 184
157 157 157
160 160 160
122 122 122
155 155 155
209 209 209
175 175 175
131 131 131
124 124 124
153 153 153
193 193 193
164 164 164
92 92 92
87 87 87
72 72 72
82 82 82
84 84 84
78 78 78
28 28 28
32 32 32
42 42 42
24 24 24
28 28 28
43 43 43
23 23 23
28 28 28
27 27 27
20 20 20
21 21 21
15 15 15
0 0 0
0 0 0
17 17 17
13 13 13
20 20 20
36 36 36
19 19 19
28 28 28
39 39 39
74 74 74
83 83 83
134 134 134
183 183 183
119 119 119
149 149 149
185 185 185
224 224 224
243 243 243
195 195 195
194 194 194
177 177 177
157 157 157
190 190 190
185 185 185
172 172 172
176 176 176
214 214 214
215 215 215
217 217 217
254 254 254
195 195 195
132 132 132
108 108 108
96 96 96
51 51 51
63 63 63
70 70 70
71 71 71
28 28 28
34 34 34
44 44 44
20 20 20
27 27 27
42 42 42
23 23 23
22 22 22
17 17 17
21 21 21
14 14 14
24 24 24
0 0 0
0 0 0
15 15 15
15 15 15
17 17 17
20 20 20
25 25 25
19 19 19
23 23 23
48 48 48
83 83 83
109 109 109
151 151 151
125 125 125
170 170 170
207 207 207
193 193 193
252 252 252
188 188 188
221 221 221
202 202 202
208 208 208
237 237 237
231 231 231
228 228 228
208 208 208
236 236 236
229 229 229
199 199 199
154 154 154
151 151 151
110 110 110
87 87 87
80 80 80
59 59 59
76 76 76
87 87 87
89 89 89
22 22 22
41 41 41
45 45 45
18 18 18
27 27 27
42 42 42
21 21 21
21 21 21
24 24 24
20 20 20
16 16 16
20 20 20
0 0 0
0 0 0
7 7 7
12 12 12
22 22 22
14 14 14
16 16 16
16 16 16
16 16 16
47 47 47
88 88 88
91 91 91
114 114 114
163 163 163
149 149 149
134 134 134
202 202 202
193 193 193
164 164 164
199 199 199
188 188 188
193 193 193
185 185 185
180 180 180
218 218 218
254 254 254
194 194 194
236 236 236
187 187 187
136 136 136
198 198 198
111 111 111
92 92 92
77 77 77
42 42 42
63 63 63
82 82 82
86 86 86
19 19 19
33 33 33
42 42 42
19 19 19
27 27 27
43 43 43
21 21 21
20 20 20
23 23 23
13 13 13
18 18 18
14 14 14
0 0 0
0 0 0
6 6 6
14 14 14
22 22 22
15 15 15
20 20 20
15 15 15
16 16 16
47 47 47
74 74 74
88 88 88
90 90 90
154 154 154
150 150 150
192 192 192
147 147 147
169 169 169
149 149 149
200 200 200
183 183 183
185 185 185
210 210 210
198 198 198
207 207 207
208 208 208
168 168 168
215 215 215
190 190 190
174 174 174
203 203 203
119 119 119
91 91 91
61 61 61
42 42 42
62 62 62
82 82 82
87 87 87
19 19 19
32 32 32
43 43 43
20 20 20
28 28 28
44 44 44
20 20 20
24 24 24
24 24 24
22 22 22
15 15 15
17 17 17
0 0 0
0 0 0
6 6 6
17 17 17
18 18 18
14 14 14
17 17 17
15 15 15
16 16 16
46 46 46
20 20 20
87 87 87
90 90 90
139 139 139
183 183 183
177 177 177
123 123 123
127 127 127
160 160 160
172 172 172
154 154 154
155 155 155
162 162 162
154 154 154
186 186 186
176 176 176
184 184 184
142 142 142
146 146 146
177 177 177
202 202 202
96 96 96
91 91 91
43 43 43
39 39 39
59 59 59
82 82 82
90 90 90
21 21 21
32 32 32
40 40 40
20 20 20
27 27 27
46 46 46
19 19 19
32 32 32
25 25 25
18 18 18
16 16 16
18 18 18
0 0 0
0 0 0
6 6 6
15 15 15
17 17 17
15 15 15
16 16 16
19 19 19
18 18 18
45 45 45
18 18 18
86 86 86
89 89 89
106 106 106
154 154 154
176 176 176
130 130 130
130 130 130
167 167 167
171 171 171
174 174 174
151 151 151
153 153 153
146 146 146
202 202 202
208 208 208
179 179 179
137 137 137
142 142 142
182 182 182
154 154 154
90 90 90
91 91 91
42 42 42
36 36 36
57 57 57
79 79 79
91 91 91
24 24 24
33 33 33
39 39 39
21 21 21
23 23 23
46 46 46
21 21 21
27 27 27
28 28 28
24 24 24
12 12 12
20 20 20
0 0 0
0 0 0
13 13 13
17 17 17
16 16 16
12 12 12
18 18 18
21 21 21
19 19 19
45 45 45
24 24 24
72 72 72
85 85 85
90 90 90
88 88 88
176 176 176
134 134 134
136 136 136
124 124 124
142 142 142
169 169 169
202 202 202
175 175 175
175 175 175
205 205 205
194 194 194
177 177 177
188 188 188
189 189 189
206 206 206
90 90 90
90 90 90
92 92 92
40 40 40
35 35 35
53 53 53
78 78 78
90 90 90
25 25 25
32 32 32
38 38 38
22 22 22
25 25 25
47 47 47
20 20 20
28 28 28
28 28 28
22 22 22
15 15 15
13 13 13
0 0 0
0 0 0
20 20 20
16 16 16
19 19 19
14 14 14
15 15 15
17 17 17
16 16 16
46 46 46
17 17 17
21 21 21
83 83 83
90 90 90
89 89 89
88 88 88
190 190 190
179 179 179
158 158 158
143 143 143
175 175 175
204 204 204
173 173 173
198 198 198
208 208 208
161 161 161
208 208 208
222 222 222
202 202 202
105 105 105
89 89 89
90 90 90
91 91 91
38 38 38
32 32 32
52 52 52
77 77 77
90 90 90
27 27 27
31 31 31
39 39 39
23 23 23
22 22 22
48 48 48
18 18 18
22 22 22
29 29 29
25 25 25
21 21 21
14 14 14
0 0 0
0 0 0
11 11 11
18 18 18
15 15 15
13 13 13
18 18 18
17 17 17
19 19 19
46 46 46
18 18 18
21 21 21
82 82 82
89 89 89
89 89 89
87 87 87
90 90 90
170 170 170
209 209 209
212 212 212
214 214 214
183 183 183
182 182 182
196 196 196
168 168 168
222 222 222
224 224 224
212 212 212
101 101 101
89 89 89
90 90 90
90 90 90
91 91 91
36 36 36
33 33 33
53 53 53
77 77 77
90 90 90
29 29 29
31 31 31
39 39 39
23 23 23
19 19 19
43 43 43
20 20 20
18 18 18
22 22 22
26 26 26
12 12 12
8 8 8
0 0 0
0 0 0
0 0 0
0 0 0
0 0 0
0 0 0
0 0 0
0 0 0
0 0 0
0 0 0
0 0 0
0 0 0
0 0 0
0 0 0
0 0 0
0 0 0
0 0 0
0 0 0
0 0 0
0 0 0
0 0 0
0 0 0
0 0 0
0 0 0
0 0 0
0 0 0
0 0 0
0 0 0
0 0 0
0 0 0
0 0 0
0 0 0
0 0 0
0 0 0
0 0 0
0 0 0
0 0 0
0 0 0
0 0 0
0 0 0
0 0 0
0 0 0
0 0 0
0 0 0
0 0 0
0 0 0
0 0 0
0 0 0
0 0 0
0 0 0
0 0 0
