P3 
50 50 
255
0 0 0
0 0 0
0 0 0
0 0 0
0 0 0
0 0 0
0 0 0
0 0 0
0 0 0
0 0 0
0 0 0
0 0 0
0 0 0
0 0 0
0 0 0
0 0 0
0 0 0
0 0 0
0 0 0
0 0 0
0 0 0
0 0 0
0 0 0
0 0 0
0 0 0
0 0 0
0 0 0
0 0 0
0 0 0
0 0 0
0 0 0
0 0 0
0 0 0
0 0 0
0 0 0
0 0 0
0 0 0
0 0 0
0 0 0
0 0 0
0 0 0
0 0 0
0 0 0
0 0 0
0 0 0
0 0 0
0 0 0
0 0 0
0 0 0
0 0 0
2 2 2
2 2 2
2 2 2
2 2 2
3 3 3
6 6 6
6 6 6
11 11 11
22 22 22
15 15 15
17 17 17
19 19 19
24 24 24
30 30 30
29 29 29
39 39 39
26 26 26
15 15 15
25 25 25
35 35 35
18 18 18
45 45 45
71 71 71
61 61 61
37 37 37
37 37 37
25 25 25
29 29 29
50 50 50
69 69 69
73 73 73
74 74 74
65 65 65
51 51 51
23 23 23
26 26 26
27 27 27
29 29 29
24 24 24
25 25 25
45 45 45
66 66 66
48 48 48
47 47 47
18 18 18
30 30 30
34 34 34
21 21 21
11 11 11
9 9 9
2 2 2
2 2 2
2 2 2
2 2 2
3 3 3
7 7 7
8 8 8
11 11 11
13 13 13
16 16 16
14 14 14
25 25 25
19 19 19
23 23 23
28 28 28
35 35 35
20 20 20
16 16 16
28 28 28
39 39 39
21 21 21
45 45 45
70 70 70
60 60 60
37 37 37
65 65 65
99 99 99
127 127 127
162 162 162
188 188 188
191 191 191
182 182 182
155 155 155
124 124 124
97 97 97
77 77 77
39 39 39
37 37 37
22 22 22
23 23 23
44 44 44
65 65 65
45 45 45
47 47 47
15 15 15
18 18 18
29 29 29
31 31 31
21 21 21
8 8 8
2 2 2
2 2 2
2 2 2
2 2 2
4 4 4
10 10 10
10 10 10
14 14 14
17 17 17
15 15 15
14 14 14
25 25 25
19 19 19
24 24 24
30 30 30
29 29 29
18 18 18
19 19 19
33 33 33
43 43 43
25 25 25
44 44 44
71 71 71
61 61 61
102 102 102
175 175 175
190 190 190
194 194 194
199 199 199
186 186 186
183 183 183
182 182 182
190 190 190
197 197 197
193 193 193
172 172 172
110 110 110
83 83 83
41 41 41
23 23 23
44 44 44
65 65 65
45 45 45
45 45 45
26 26 26
17 17 17
13 13 13
18 18 18
21 21 21
9 9 9
2 2 2
2 2 2
2 2 2
2 2 2
3 3 3
11 11 11
10 10 10
18 18 18
19 19 19
14 14 14
19 19 19
23 23 23
26 26 26
23 23 23
31 31 31
23 23 23
15 15 15
25 25 25
43 43 43
42 42 42
24 24 24
45 45 45
77 77 77
152 152 152
199 199 199
193 193 193
186 186 186
181 181 181
176 176 176
179 179 179
179 179 179
183 183 183
183 183 183
189 189 189
197 197 197
188 188 188
183 183 183
161 161 161
99 99 99
79 79 79
43 43 43
64 64 64
45 45 45
46 46 46
22 22 22
30 30 30
33 33 33
17 17 17
13 13 13
9 9 9
2 2 2
2 2 2
2 2 2
3 3 3
3 3 3
8 8 8
9 9 9
20 20 20
17 17 17
17 17 17
20 20 20
26 26 26
26 26 26
19 19 19
31 31 31
19 19 19
20 20 20
29 29 29
49 49 49
39 39 39
26 26 26
88 88 88
174 174 174
197 197 197
188 188 188
186 186 186
183 183 183
184 184 184
174 174 174
178 178 178
174 174 174
175 175 175
181 181 181
190 190 190
182 182 182
191 191 191
180 180 180
174 174 174
158 158 158
114 114 114
86 86 86
64 64 64
46 46 46
47 47 47
16 16 16
20 20 20
41 41 41
27 27 27
9 9 9
9 9 9
2 2 2
2 2 2
2 2 2
2 2 2
3 3 3
7 7 7
11 11 11
18 18 18
17 17 17
17 17 17
21 21 21
28 28 28
25 25 25
18 18 18
31 31 31
16 16 16
30 30 30
33 33 33
45 45 45
36 36 36
78 78 78
182 182 182
195 195 195
185 185 185
181 181 181
182 182 182
183 183 183
169 169 169
181 181 181
181 181 181
182 182 182
177 177 177
184 184 184
188 188 188
185 185 185
189 189 189
191 191 191
170 170 170
173 173 173
165 165 165
135 135 135
89 89 89
60 60 60
49 49 49
28 28 28
16 16 16
22 22 22
32 32 32
9 9 9
11 11 11
2 2 2
2 2 2
2 2 2
2 2 2
3 3 3
8 8 8
12 12 12
19 19 19
18 18 18
15 15 15
21 21 21
23 23 23
20 20 20
21 21 21
30 30 30
19 19 19
39 39 39
33 33 33
39 39 39
49 49 49
163 163 163
190 190 190
183 183 183
184 184 184
184 184 184
184 184 184
186 186 186
175 175 175
179 179 179
176 176 176
174 174 174
179 179 179
178 178 178
181 181 181
175 175 175
177 177 177
178 178 178
196 196 196
170 170 170
172 172 172
164 164 164
142 142 142
90 90 90
54 54 54
31 31 31
24 24 24
20 20 20
27 27 27
12 12 12
12 12 12
2 2 2
2 2 2
2 2 2
2 2 2
3 3 3
9 9 9
13 13 13
19 19 19
16 16 16
13 13 13
24 24 24
20 20 20
22 22 22
20 20 20
27 27 27
26 26 26
43 43 43
32 32 32
31 31 31
114 114 114
182 182 182
178 178 178
175 175 175
181 181 181
177 177 177
181 181 181
175 175 175
176 176 176
171 171 171
171 171 171
175 175 175
176 176 176
179 179 179
184 184 184
180 180 180
172 172 172
171 171 171
182 182 182
183 183 183
171 171 171
168 168 168
161 161 161
137 137 137
87 87 87
34 34 34
28 28 28
29 29 29
21 21 21
11 11 11
12 12 12
2 2 2
2 2 2
2 2 2
2 2 2
8 8 8
12 12 12
15 15 15
20 20 20
19 19 19
14 14 14
24 24 24
24 24 24
19 19 19
20 20 20
25 25 25
39 39 39
43 43 43
28 28 28
59 59 59
183 183 183
185 185 185
176 176 176
172 172 172
167 167 167
165 165 165
160 160 160
161 161 161
156 156 156
164 164 164
167 167 167
176 176 176
175 175 175
169 169 169
177 177 177
180 180 180
176 176 176
171 171 171
176 176 176
171 171 171
175 175 175
172 172 172
167 167 167
161 161 161
127 127 127
80 80 80
26 26 26
36 36 36
18 18 18
13 13 13
12 12 12
2 2 2
2 2 2
2 2 2
3 3 3
3 3 3
11 11 11
14 14 14
21 21 21
21 21 21
15 15 15
24 24 24
26 26 26
18 18 18
24 24 24
26 26 26
50 50 50
34 34 34
26 26 26
125 125 125
181 181 181
173 173 173
175 175 175
170 170 170
176 176 176
175 175 175
173 173 173
172 172 172
176 176 176
170 170 170
164 164 164
179 179 179
166 166 166
157 157 157
170 170 170
162 162 162
173 173 173
172 172 172
172 172 172
183 183 183
171 171 171
170 170 170
173 173 173
171 171 171
163 163 163
109 109 109
68 68 68
37 37 37
18 18 18
13 13 13
12 12 12
2 2 2
2 2 2
2 2 2
2 2 2
4 4 4
12 12 12
15 15 15
22 22 22
17 17 17
16 16 16
22 22 22
23 23 23
24 24 24
26 26 26
31 31 31
52 52 52
31 31 31
44 44 44
189 189 189
179 179 179
177 177 177
182 182 182
172 172 172
170 170 170
159 159 159
155 155 155
162 162 162
164 164 164
158 158 158
174 174 174
177 177 177
169 169 169
170 170 170
174 174 174
178 178 178
173 173 173
175 175 175
167 167 167
164 164 164
159 159 159
160 160 160
164 164 164
175 175 175
172 172 172
156 156 156
96 96 96
37 37 37
19 19 19
16 16 16
12 12 12
2 2 2
2 2 2
2 2 2
2 2 2
4 4 4
11 11 11
15 15 15
26 26 26
17 17 17
17 17 17
27 27 27
24 24 24
27 27 27
28 28 28
35 35 35
52 52 52
25 25 25
74 74 74
178 178 178
172 172 172
178 178 178
166 166 166
164 164 164
177 177 177
172 172 172
164 164 164
177 177 177
173 173 173
167 167 167
173 173 173
169 169 169
169 169 169
158 158 158
153 153 153
163 163 163
165 165 165
165 165 165
174 174 174
173 173 173
179 179 179
186 186 186
162 162 162
172 172 172
171 171 171
167 167 167
130 130 130
64 64 64
21 21 21
15 15 15
12 12 12
2 2 2
2 2 2
2 2 2
2 2 2
4 4 4
15 15 15
18 18 18
31 31 31
21 21 21
21 21 21
33 33 33
27 27 27
28 28 28
29 29 29
35 35 35
52 52 52
25 25 25
100 100 100
182 182 182
187 187 187
189 189 189
165 165 165
161 161 161
181 181 181
165 165 165
167 167 167
170 170 170
163 163 163
165 165 165
163 163 163
173 173 173
161 161 161
153 153 153
175 175 175
171 171 171
163 163 163
167 167 167
162 162 162
154 154 154
164 164 164
169 169 169
168 168 168
166 166 166
172 172 172
164 164 164
172 172 172
85 85 85
22 22 22
14 14 14
13 13 13
2 2 2
2 2 2
2 2 2
2 2 2
4 4 4
11 11 11
19 19 19
35 35 35
26 26 26
19 19 19
29 29 29
28 28 28
30 30 30
29 29 29
36 36 36
52 52 52
26 26 26
120 120 120
170 170 170
179 179 179
166 166 166
168 168 168
172 172 172
164 164 164
169 169 169
157 157 157
165 165 165
175 175 175
163 163 163
170 170 170
168 168 168
167 167 167
173 173 173
177 177 177
188 188 188
175 175 175
182 182 182
190 190 190
174 174 174
169 169 169
162 162 162
167 167 167
169 169 169
175 175 175
165 165 165
164 164 164
105 105 105
31 31 31
15 15 15
14 14 14
2 2 2
2 2 2
2 2 2
2 2 2
5 5 5
15 15 15
18 18 18
32 32 32
26 26 26
22 22 22
26 26 26
29 29 29
31 31 31
32 32 32
38 38 38
52 52 52
33 33 33
127 127 127
176 176 176
164 164 164
166 166 166
171 171 171
166 166 166
160 160 160
167 167 167
162 162 162
157 157 157
163 163 163
167 167 167
168 168 168
153 153 153
178 178 178
168 168 168
166 166 166
176 176 176
163 163 163
179 179 179
187 187 187
171 171 171
178 178 178
181 181 181
163 163 163
167 167 167
168 168 168
170 170 170
181 181 181
143 143 143
54 54 54
13 13 13
13 13 13
2 2 2
2 2 2
2 2 2
3 3 3
11 11 11
20 20 20
19 19 19
24 24 24
20 20 20
13 13 13
20 20 20
26 26 26
30 30 30
33 33 33
37 37 37
53 53 53
38 38 38
130 130 130
189 189 189
166 166 166
189 189 189
175 175 175
163 163 163
161 161 161
178 178 178
157 157 157
177 177 177
164 164 164
165 165 165
181 181 181
173 173 173
175 175 175
162 162 162
165 165 165
168 168 168
157 157 157
154 154 154
170 170 170
147 147 147
158 158 158
174 174 174
171 171 171
163 163 163
171 171 171
167 167 167
173 173 173
169 169 169
60 60 60
18 18 18
15 15 15
2 2 2
2 2 2
2 2 2
3 3 3
4 4 4
16 16 16
15 15 15
22 22 22
18 18 18
15 15 15
19 19 19
25 25 25
31 31 31
33 33 33
36 36 36
54 54 54
47 47 47
144 144 144
173 173 173
177 177 177
161 161 161
171 171 171
162 162 162
168 168 168
174 174 174
166 166 166
174 174 174
164 164 164
173 173 173
161 161 161
180 180 180
171 171 171
165 165 165
150 150 150
168 168 168
154 154 154
144 144 144
160 160 160
145 145 145
142 142 142
170 170 170
168 168 168
169 169 169
173 173 173
173 173 173
172 172 172
173 173 173
74 74 74
19 19 19
17 17 17
2 2 2
2 2 2
2 2 2
3 3 3
8 8 8
18 18 18
17 17 17
21 21 21
13 13 13
19 19 19
22 22 22
24 24 24
31 31 31
35 35 35
34 34 34
54 54 54
56 56 56
165 165 165
175 175 175
162 162 162
160 160 160
176 176 176
165 165 165
169 169 169
177 177 177
164 164 164
178 178 178
162 162 162
173 173 173
170 170 170
176 176 176
164 164 164
171 171 171
156 156 156
168 168 168
163 163 163
161 161 161
161 161 161
155 155 155
142 142 142
164 164 164
163 163 163
177 177 177
174 174 174
171 171 171
171 171 171
175 175 175
82 82 82
21 21 21
19 19 19
2 2 2
2 2 2
2 2 2
2 2 2
15 15 15
18 18 18
18 18 18
26 26 26
13 13 13
18 18 18
24 24 24
22 22 22
28 28 28
32 32 32
32 32 32
53 53 53
68 68 68
169 169 169
179 179 179
165 165 165
161 161 161
177 177 177
168 168 168
175 175 175
178 178 178
166 166 166
178 178 178
167 167 167
173 173 173
172 172 172
168 168 168
158 158 158
153 153 153
159 159 159
164 164 164
173 173 173
182 182 182
189 189 189
168 168 168
160 160 160
165 165 165
159 159 159
178 178 178
168 168 168
183 183 183
169 169 169
174 174 174
90 90 90
27 27 27
20 20 20
2 2 2
2 2 2
2 2 2
3 3 3
16 16 16
11 11 11
13 13 13
19 19 19
15 15 15
17 17 17
28 28 28
25 25 25
31 31 31
28 28 28
31 31 31
54 54 54
97 97 97
175 175 175
186 186 186
166 166 166
162 162 162
178 178 178
170 170 170
176 176 176
182 182 182
169 169 169
177 177 177
173 173 173
178 178 178
176 176 176
171 171 171
163 163 163
160 160 160
166 166 166
182 182 182
168 168 168
176 176 176
187 187 187
178 178 178
167 167 167
162 162 162
162 162 162
178 178 178
173 173 173
189 189 189
167 167 167
172 172 172
96 96 96
35 35 35
19 19 19
2 2 2
2 2 2
2 2 2
2 2 2
15 15 15
11 11 11
10 10 10
17 17 17
14 14 14
16 16 16
27 27 27
23 23 23
32 32 32
30 30 30
29 29 29
54 54 54
92 92 92
181 181 181
176 176 176
167 167 167
164 164 164
172 172 172
169 169 169
177 177 177
184 184 184
172 172 172
180 180 180
175 175 175
180 180 180
177 177 177
173 173 173
169 169 169
169 169 169
174 174 174
186 186 186
154 154 154
160 160 160
167 167 167
174 174 174
178 178 178
159 159 159
154 154 154
183 183 183
174 174 174
192 192 192
167 167 167
175 175 175
92 92 92
32 32 32
17 17 17
2 2 2
2 2 2
2 2 2
2 2 2
11 11 11
7 7 7
9 9 9
16 16 16
12 12 12
14 14 14
26 26 26
25 25 25
34 34 34
30 30 30
28 28 28
52 52 52
98 98 98
181 181 181
175 175 175
167 167 167
166 166 166
173 173 173
176 176 176
176 176 176
191 191 191
171 171 171
185 185 185
172 172 172
180 180 180
174 174 174
176 176 176
173 173 173
167 167 167
172 172 172
184 184 184
155 155 155
143 143 143
158 158 158
155 155 155
176 176 176
168 168 168
151 151 151
185 185 185
181 181 181
193 193 193
169 169 169
175 175 175
78 78 78
25 25 25
17 17 17
2 2 2
2 2 2
2 2 2
2 2 2
10 10 10
11 11 11
10 10 10
13 13 13
9 9 9
12 12 12
25 25 25
25 25 25
32 32 32
30 30 30
27 27 27
50 50 50
135 135 135
177 177 177
182 182 182
166 166 166
168 168 168
172 172 172
182 182 182
176 176 176
194 194 194
176 176 176
188 188 188
166 166 166
180 180 180
173 173 173
179 179 179
177 177 177
169 169 169
175 175 175
181 181 181
154 154 154
151 151 151
151 151 151
147 147 147
162 162 162
178 178 178
153 153 153
183 183 183
184 184 184
194 194 194
175 175 175
170 170 170
66 66 66
27 27 27
18 18 18
2 2 2
2 2 2
2 2 2
2 2 2
12 12 12
10 10 10
12 12 12
13 13 13
12 12 12
11 11 11
23 23 23
25 25 25
28 28 28
31 31 31
29 29 29
45 45 45
148 148 148
161 161 161
188 188 188
163 163 163
172 172 172
169 169 169
184 184 184
170 170 170
185 185 185
173 173 173
191 191 191
171 171 171
173 173 173
173 173 173
186 186 186
181 181 181
169 169 169
170 170 170
168 168 168
146 146 146
156 156 156
143 143 143
138 138 138
150 150 150
176 176 176
155 155 155
182 182 182
179 179 179
198 198 198
176 176 176
165 165 165
59 59 59
24 24 24
19 19 19
2 2 2
2 2 2
2 2 2
2 2 2
8 8 8
16 16 16
12 12 12
12 12 12
10 10 10
13 13 13
24 24 24
30 30 30
31 31 31
30 30 30
29 29 29
59 59 59
139 139 139
160 160 160
194 194 194
157 157 157
174 174 174
161 161 161
178 178 178
170 170 170
163 163 163
161 161 161
178 178 178
176 176 176
164 164 164
171 171 171
182 182 182
179 179 179
169 169 169
172 172 172
169 169 169
162 162 162
150 150 150
137 137 137
135 135 135
142 142 142
179 179 179
167 167 167
184 184 184
185 185 185
202 202 202
182 182 182
144 144 144
54 54 54
21 21 21
18 18 18
2 2 2
2 2 2
2 2 2
2 2 2
8 8 8
9 9 9
13 13 13
11 11 11
10 10 10
15 15 15
22 22 22
31 31 31
34 34 34
29 29 29
31 31 31
77 77 77
140 140 140
136 136 136
192 192 192
150 150 150
172 172 172
146 146 146
163 163 163
173 173 173
183 183 183
162 162 162
154 154 154
174 174 174
159 159 159
166 166 166
177 177 177
178 178 178
176 176 176
178 178 178
173 173 173
168 168 168
151 151 151
143 143 143
139 139 139
147 147 147
182 182 182
162 162 162
183 183 183
176 176 176
188 188 188
188 188 188
132 132 132
49 49 49
19 19 19
15 15 15
2 2 2
2 2 2
2 2 2
3 3 3
10 10 10
10 10 10
13 13 13
12 12 12
13 13 13
15 15 15
22 22 22
29 29 29
34 34 34
29 29 29
31 31 31
89 89 89
144 144 144
143 143 143
189 189 189
147 147 147
174 174 174
140 140 140
161 161 161
176 176 176
181 181 181
164 164 164
147 147 147
173 173 173
167 167 167
164 164 164
177 177 177
178 178 178
176 176 176
181 181 181
175 175 175
170 170 170
154 154 154
149 149 149
142 142 142
153 153 153
185 185 185
160 160 160
182 182 182
172 172 172
181 181 181
187 187 187
120 120 120
58 58 58
18 18 18
15 15 15
2 2 2
2 2 2
2 2 2
5 5 5
19 19 19
14 14 14
16 16 16
10 10 10
13 13 13
17 17 17
27 27 27
26 26 26
33 33 33
31 31 31
53 53 53
119 119 119
154 154 154
145 145 145
193 193 193
172 172 172
176 176 176
163 163 163
160 160 160
194 194 194
182 182 182
147 147 147
154 154 154
180 180 180
179 179 179
161 161 161
171 171 171
187 187 187
168 168 168
184 184 184
188 188 188
173 173 173
174 174 174
178 178 178
159 159 159
178 178 178
183 183 183
167 167 167
176 176 176
184 184 184
181 181 181
179 179 179
87 87 87
27 27 27
15 15 15
18 18 18
2 2 2
2 2 2
2 2 2
5 5 5
19 19 19
15 15 15
19 19 19
13 13 13
13 13 13
18 18 18
25 25 25
22 22 22
29 29 29
29 29 29
62 62 62
123 123 123
149 149 149
151 151 151
176 176 176
173 173 173
159 159 159
160 160 160
158 158 158
201 201 201
210 210 210
194 194 194
144 144 144
163 163 163
171 171 171
177 177 177
165 165 165
181 181 181
159 159 159
149 149 149
169 169 169
182 182 182
182 182 182
194 194 194
168 168 168
160 160 160
175 175 175
182 182 182
174 174 174
184 184 184
182 182 182
163 163 163
69 69 69
20 20 20
14 14 14
18 18 18
2 2 2
2 2 2
2 2 2
6 6 6
23 23 23
16 16 16
15 15 15
16 16 16
12 12 12
15 15 15
23 23 23
21 21 21
28 28 28
27 27 27
75 75 75
122 122 122
145 145 145
153 153 153
164 164 164
175 175 175
190 190 190
184 184 184
178 178 178
191 191 191
199 199 199
158 158 158
149 149 149
184 184 184
174 174 174
181 181 181
171 171 171
161 161 161
159 159 159
157 157 157
179 179 179
171 171 171
181 181 181
198 198 198
157 157 157
173 173 173
193 193 193
171 171 171
179 179 179
183 183 183
190 190 190
116 116 116
76 76 76
16 16 16
11 11 11
13 13 13
2 2 2
2 2 2
2 2 2
10 10 10
22 22 22
14 14 14
11 11 11
18 18 18
14 14 14
15 15 15
24 24 24
20 20 20
27 27 27
23 23 23
73 73 73
100 100 100
146 146 146
120 120 120
135 135 135
170 170 170
171 171 171
207 207 207
196 196 196
171 171 171
172 172 172
190 190 190
163 163 163
161 161 161
176 176 176
159 159 159
184 184 184
188 188 188
175 175 175
176 176 176
193 193 193
187 187 187
198 198 198
196 196 196
176 176 176
183 183 183
188 188 188
175 175 175
173 173 173
198 198 198
187 187 187
90 90 90
78 78 78
20 20 20
11 11 11
12 12 12
2 2 2
2 2 2
2 2 2
9 9 9
19 19 19
17 17 17
13 13 13
15 15 15
16 16 16
15 15 15
23 23 23
19 19 19
26 26 26
21 21 21
62 62 62
81 81 81
97 97 97
129 129 129
129 129 129
170 170 170
159 159 159
192 192 192
195 195 195
186 186 186
196 196 196
193 193 193
172 172 172
184 184 184
172 172 172
181 181 181
192 192 192
180 180 180
160 160 160
172 172 172
176 176 176
170 170 170
169 169 169
177 177 177
170 170 170
179 179 179
182 182 182
173 173 173
185 185 185
194 194 194
174 174 174
75 75 75
62 62 62
22 22 22
14 14 14
14 14 14
2 2 2
2 2 2
2 2 2
8 8 8
16 16 16
14 14 14
11 11 11
16 16 16
21 21 21
17 17 17
22 22 22
21 21 21
26 26 26
18 18 18
53 53 53
79 79 79
86 86 86
90 90 90
111 111 111
161 161 161
177 177 177
196 196 196
209 209 209
185 185 185
187 187 187
191 191 191
198 198 198
191 191 191
178 178 178
173 173 173
185 185 185
202 202 202
188 188 188
183 183 183
186 186 186
177 177 177
186 186 186
185 185 185
192 192 192
182 182 182
192 192 192
170 170 170
203 203 203
193 193 193
118 118 118
74 74 74
63 63 63
21 21 21
13 13 13
13 13 13
2 2 2
2 2 2
2 2 2
12 12 12
15 15 15
18 18 18
12 12 12
13 13 13
28 28 28
19 19 19
19 19 19
23 23 23
18 18 18
18 18 18
38 38 38
79 79 79
85 85 85
88 88 88
108 108 108
161 161 161
179 179 179
195 195 195
207 207 207
204 204 204
190 190 190
185 185 185
194 194 194
195 195 195
198 198 198
195 195 195
197 197 197
203 203 203
202 202 202
199 199 199
190 190 190
188 188 188
197 197 197
195 195 195
198 198 198
200 200 200
192 192 192
195 195 195
196 196 196
187 187 187
84 84 84
70 70 70
56 56 56
22 22 22
15 15 15
13 13 13
2 2 2
2 2 2
2 2 2
9 9 9
11 11 11
13 13 13
14 14 14
17 17 17
23 23 23
21 21 21
22 22 22
20 20 20
20 20 20
19 19 19
29 29 29
77 77 77
83 83 83
89 89 89
106 106 106
187 187 187
181 181 181
182 182 182
203 203 203
195 195 195
190 190 190
180 180 180
184 184 184
176 176 176
180 180 180
193 193 193
198 198 198
194 194 194
197 197 197
205 205 205
202 202 202
206 206 206
209 209 209
200 200 200
196 196 196
194 194 194
187 187 187
185 185 185
194 194 194
117 117 117
81 81 81
73 73 73
54 54 54
26 26 26
12 12 12
13 13 13
2 2 2
2 2 2
2 2 2
6 6 6
12 12 12
13 13 13
13 13 13
19 19 19
18 18 18
21 21 21
23 23 23
22 22 22
22 22 22
23 23 23
27 27 27
65 65 65
82 82 82
89 89 89
107 107 107
170 170 170
225 225 225
197 197 197
234 234 234
196 196 196
179 179 179
205 205 205
183 183 183
173 173 173
160 160 160
210 210 210
193 193 193
178 178 178
185 185 185
192 192 192
192 192 192
187 187 187
197 197 197
184 184 184
189 189 189
189 189 189
177 177 177
195 195 195
156 156 156
94 94 94
85 85 85
88 88 88
39 39 39
25 25 25
14 14 14
14 14 14
2 2 2
4 4 4
5 5 5
6 6 6
13 13 13
11 11 11
12 12 12
21 21 21
19 19 19
22 22 22
22 22 22
25 25 25
21 21 21
25 25 25
26 26 26
52 52 52
92 92 92
108 108 108
122 122 122
151 151 151
231 231 231
160 160 160
208 208 208
159 159 159
171 171 171
203 203 203
190 190 190
169 169 169
158 158 158
226 226 226
214 214 214
168 168 168
177 177 177
177 177 177
177 177 177
165 165 165
180 180 180
167 167 167
173 173 173
189 189 189
184 184 184
197 197 197
112 112 112
86 86 86
87 87 87
84 84 84
31 31 31
20 20 20
14 14 14
12 12 12
2 2 2
4 4 4
6 6 6
9 9 9
10 10 10
20 20 20
14 14 14
19 19 19
16 16 16
29 29 29
26 26 26
26 26 26
19 19 19
20 20 20
29 29 29
53 53 53
100 100 100
117 117 117
152 152 152
205 205 205
196 196 196
183 183 183
220 220 220
156 156 156
123 123 123
168 168 168
178 178 178
159 159 159
192 192 192
217 217 217
174 174 174
146 146 146
183 183 183
166 166 166
157 157 157
154 154 154
153 153 153
148 148 148
172 172 172
151 151 151
141 141 141
103 103 103
75 75 75
79 79 79
75 75 75
60 60 60
30 30 30
20 20 20
10 10 10
11 11 11
2 2 2
2 2 2
2 2 2
2 2 2
9 9 9
14 14 14
10 10 10
16 16 16
16 16 16
24 24 24
23 23 23
21 21 21
21 21 21
17 17 17
30 30 30
38 38 38
83 83 83
90 90 90
107 107 107
154 154 154
144 144 144
114 114 114
102 102 102
109 109 109
111 111 111
157 157 157
174 174 174
120 120 120
154 154 154
149 149 149
163 163 163
136 136 136
120 120 120
166 166 166
159 159 159
130 130 130
129 129 129
151 151 151
93 93 93
89 89 89
89 89 89
83 83 83
72 72 72
66 66 66
56 56 56
29 29 29
31 31 31
20 20 20
13 13 13
11 11 11
2 2 2
7 7 7
9 9 9
9 9 9
11 11 11
15 15 15
14 14 14
20 20 20
17 17 17
16 16 16
22 22 22
19 19 19
26 26 26
20 20 20
31 31 31
44 44 44
92 92 92
136 136 136
172 172 172
196 196 196
164 164 164
202 202 202
202 202 202
158 158 158
151 151 151
161 161 161
150 150 150
171 171 171
152 152 152
165 165 165
203 203 203
190 190 190
147 147 147
183 183 183
145 145 145
117 117 117
131 131 131
151 151 151
90 90 90
92 92 92
91 91 91
64 64 64
46 46 46
60 60 60
39 39 39
28 28 28
33 33 33
21 21 21
11 11 11
10 10 10
2 2 2
5 5 5
7 7 7
6 6 6
8 8 8
14 14 14
10 10 10
15 15 15
19 19 19
16 16 16
19 19 19
24 24 24
22 22 22
22 22 22
38 38 38
30 30 30
73 73 73
112 112 112
137 137 137
192 192 192
149 149 149
223 223 223
223 223 223
195 195 195
167 167 167
175 175 175
204 204 204
198 198 198
164 164 164
156 156 156
174 174 174
145 145 145
182 182 182
136 136 136
117 117 117
112 112 112
113 113 113
126 126 126
94 94 94
93 93 93
89 89 89
48 48 48
41 41 41
54 54 54
39 39 39
26 26 26
33 33 33
21 21 21
12 12 12
10 10 10
2 2 2
2 2 2
2 2 2
7 7 7
9 9 9
11 11 11
11 11 11
11 11 11
16 16 16
14 14 14
18 18 18
16 16 16
19 19 19
18 18 18
27 27 27
22 22 22
49 49 49
81 81 81
139 139 139
136 136 136
192 192 192
215 215 215
198 198 198
171 171 171
177 177 177
172 172 172
171 171 171
162 162 162
130 130 130
130 130 130
131 131 131
177 177 177
148 148 148
133 133 133
114 114 114
142 142 142
136 136 136
103 103 103
89 89 89
88 88 88
89 89 89
40 40 40
40 40 40
59 59 59
35 35 35
25 25 25
32 32 32
20 20 20
14 14 14
14 14 14
2 2 2
2 2 2
2 2 2
3 3 3
8 8 8
11 11 11
12 12 12
10 10 10
20 20 20
15 15 15
20 20 20
19 19 19
18 18 18
18 18 18
29 29 29
22 22 22
44 44 44
78 78 78
153 153 153
152 152 152
195 195 195
184 184 184
195 195 195
183 183 183
162 162 162
172 172 172
166 166 166
177 177 177
138 138 138
142 142 142
123 123 123
136 136 136
174 174 174
120 120 120
121 121 121
139 139 139
129 129 129
87 87 87
88 88 88
88 88 88
81 81 81
37 37 37
38 38 38
58 58 58
34 34 34
24 24 24
32 32 32
20 20 20
15 15 15
16 16 16
2 2 2
2 2 2
2 2 2
5 5 5
9 9 9
13 13 13
11 11 11
15 15 15
17 17 17
16 16 16
23 23 23
19 19 19
18 18 18
16 16 16
29 29 29
21 21 21
43 43 43
77 77 77
148 148 148
169 169 169
129 129 129
153 153 153
171 171 171
152 152 152
157 157 157
146 146 146
146 146 146
127 127 127
132 132 132
148 148 148
119 119 119
121 121 121
162 162 162
130 130 130
147 147 147
124 124 124
106 106 106
88 88 88
89 89 89
89 89 89
45 45 45
35 35 35
36 36 36
57 57 57
33 33 33
22 22 22
31 31 31
20 20 20
14 14 14
15 15 15
2 2 2
2 2 2
2 2 2
8 8 8
9 9 9
15 15 15
11 11 11
15 15 15
19 19 19
15 15 15
23 23 23
22 22 22
20 20 20
17 17 17
29 29 29
18 18 18
24 24 24
63 63 63
126 126 126
147 147 147
135 135 135
149 149 149
170 170 170
144 144 144
135 135 135
140 140 140
150 150 150
133 133 133
126 126 126
153 153 153
118 118 118
112 112 112
162 162 162
163 163 163
132 132 132
97 97 97
90 90 90
88 88 88
89 89 89
87 87 87
37 37 37
33 33 33
35 35 35
57 57 57
32 32 32
21 21 21
31 31 31
20 20 20
15 15 15
12 12 12
2 2 2
2 2 2
2 2 2
7 7 7
9 9 9
12 12 12
12 12 12
13 13 13
19 19 19
19 19 19
21 21 21
24 24 24
19 19 19
17 17 17
29 29 29
19 19 19
21 21 21
42 42 42
101 101 101
197 197 197
161 161 161
147 147 147
172 172 172
159 159 159
129 129 129
178 178 178
150 150 150
131 131 131
122 122 122
144 144 144
120 120 120
139 139 139
161 161 161
119 119 119
94 94 94
88 88 88
88 88 88
88 88 88
89 89 89
84 84 84
21 21 21
32 32 32
35 35 35
56 56 56
31 31 31
21 21 21
32 32 32
20 20 20
15 15 15
11 11 11
2 2 2
2 2 2
2 2 2
5 5 5
8 8 8
13 13 13
11 11 11
18 18 18
15 15 15
17 17 17
19 19 19
19 19 19
19 19 19
17 17 17
30 30 30
17 17 17
21 21 21
24 24 24
54 54 54
155 155 155
208 208 208
156 156 156
184 184 184
177 177 177
139 139 139
182 182 182
156 156 156
140 140 140
140 140 140
165 165 165
163 163 163
185 185 185
112 112 112
111 111 111
92 92 92
89 89 89
88 88 88
88 88 88
90 90 90
75 75 75
18 18 18
32 32 32
35 35 35
56 56 56
30 30 30
21 21 21
32 32 32
20 20 20
14 14 14
17 17 17
2 2 2
2 2 2
2 2 2
2 2 2
8 8 8
7 7 7
7 7 7
11 11 11
15 15 15
18 18 18
20 20 20
16 16 16
19 19 19
16 16 16
27 27 27
16 16 16
21 21 21
24 24 24
46 46 46
85 85 85
202 202 202
201 201 201
173 173 173
184 184 184
164 164 164
151 151 151
193 193 193
201 201 201
185 185 185
190 190 190
129 129 129
122 122 122
133 133 133
117 117 117
91 91 91
88 88 88
89 89 89
89 89 89
89 89 89
55 55 55
19 19 19
32 32 32
34 34 34
55 55 55
28 28 28
20 20 20
33 33 33
20 20 20
12 12 12
14 14 14
0 0 0
0 0 0
0 0 0
0 0 0
0 0 0
0 0 0
0 0 0
0 0 0
0 0 0
0 0 0
0 0 0
0 0 0
0 0 0
0 0 0
0 0 0
0 0 0
0 0 0
0 0 0
0 0 0
0 0 0
0 0 0
0 0 0
0 0 0
0 0 0
0 0 0
0 0 0
0 0 0
0 0 0
0 0 0
0 0 0
0 0 0
0 0 0
0 0 0
0 0 0
0 0 0
0 0 0
0 0 0
0 0 0
0 0 0
0 0 0
0 0 0
0 0 0
0 0 0
0 0 0
0 0 0
0 0 0
0 0 0
0 0 0
0 0 0
0 0 0
