P3 
50 50 
255
0 0 0
0 0 0
0 0 0
0 0 0
0 0 0
0 0 0
0 0 0
0 0 0
0 0 0
0 0 0
0 0 0
0 0 0
0 0 0
0 0 0
0 0 0
0 0 0
0 0 0
0 0 0
0 0 0
0 0 0
0 0 0
0 0 0
0 0 0
0 0 0
0 0 0
0 0 0
0 0 0
0 0 0
0 0 0
0 0 0
0 0 0
0 0 0
0 0 0
0 0 0
0 0 0
0 0 0
0 0 0
0 0 0
0 0 0
0 0 0
0 0 0
0 0 0
0 0 0
0 0 0
0 0 0
0 0 0
0 0 0
0 0 0
0 0 0
0 0 0
2 2 2
2 2 2
2 2 2
2 2 2
2 2 2
2 2 2
2 2 2
2 2 2
2 2 2
4 4 4
5 5 5
7 7 7
8 8 8
12 12 12
19 19 19
15 15 15
17 17 17
18 18 18
25 25 25
28 28 28
26 26 26
31 31 31
37 37 37
16 16 16
18 18 18
36 36 36
27 27 27
43 43 43
60 60 60
71 71 71
73 73 73
73 73 73
67 67 67
54 54 54
34 34 34
21 21 21
21 21 21
21 21 21
30 30 30
22 22 22
26 26 26
25 25 25
18 18 18
37 37 37
39 39 39
47 47 47
60 60 60
67 67 67
30 30 30
20 20 20
2 2 2
2 2 2
2 2 2
2 2 2
2 2 2
2 2 2
2 2 2
3 3 3
3 3 3
5 5 5
6 6 6
8 8 8
11 11 11
11 11 11
15 15 15
17 17 17
20 20 20
19 19 19
20 20 20
22 22 22
22 22 22
31 31 31
30 30 30
25 25 25
65 65 65
94 94 94
123 123 123
145 145 145
170 170 170
189 189 189
190 190 190
181 181 181
161 161 161
133 133 133
113 113 113
93 93 93
77 77 77
44 44 44
27 27 27
38 38 38
22 22 22
26 26 26
21 21 21
31 31 31
37 37 37
46 46 46
58 58 58
66 66 66
30 30 30
39 39 39
2 2 2
2 2 2
2 2 2
2 2 2
2 2 2
2 2 2
3 3 3
3 3 3
3 3 3
5 5 5
9 9 9
11 11 11
11 11 11
16 16 16
15 15 15
16 16 16
20 20 20
17 17 17
17 17 17
24 24 24
25 25 25
34 34 34
66 66 66
106 106 106
175 175 175
184 184 184
189 189 189
201 201 201
198 198 198
185 185 185
185 185 185
186 186 186
194 194 194
190 190 190
192 192 192
186 186 186
172 172 172
118 118 118
82 82 82
36 36 36
28 28 28
23 23 23
36 36 36
22 22 22
37 37 37
45 45 45
58 58 58
64 64 64
20 20 20
36 36 36
2 2 2
2 2 2
2 2 2
2 2 2
2 2 2
2 2 2
3 3 3
3 3 3
3 3 3
4 4 4
9 9 9
11 11 11
13 13 13
19 19 19
15 15 15
15 15 15
18 18 18
23 23 23
25 25 25
24 24 24
26 26 26
75 75 75
143 143 143
187 187 187
192 192 192
195 195 195
192 192 192
181 181 181
178 178 178
181 181 181
176 176 176
177 177 177
183 183 183
194 194 194
186 186 186
186 186 186
182 182 182
180 180 180
156 156 156
102 102 102
73 73 73
27 27 27
36 36 36
27 27 27
37 37 37
45 45 45
58 58 58
65 65 65
32 32 32
20 20 20
2 2 2
2 2 2
2 2 2
2 2 2
2 2 2
2 2 2
2 2 2
3 3 3
3 3 3
4 4 4
6 6 6
9 9 9
16 16 16
16 16 16
13 13 13
16 16 16
18 18 18
25 25 25
28 28 28
21 21 21
81 81 81
165 165 165
187 187 187
192 192 192
194 194 194
186 186 186
179 179 179
183 183 183
177 177 177
175 175 175
173 173 173
176 176 176
180 180 180
180 180 180
197 197 197
182 182 182
190 190 190
187 187 187
170 170 170
160 160 160
124 124 124
84 84 84
52 52 52
37 37 37
37 37 37
45 45 45
58 58 58
67 67 67
38 38 38
22 22 22
2 2 2
2 2 2
2 2 2
2 2 2
2 2 2
2 2 2
2 2 2
3 3 3
3 3 3
4 4 4
6 6 6
11 11 11
15 15 15
16 16 16
15 15 15
16 16 16
17 17 17
28 28 28
26 26 26
76 76 76
181 181 181
185 185 185
197 197 197
184 184 184
173 173 173
181 181 181
182 182 182
177 177 177
178 178 178
176 176 176
175 175 175
178 178 178
173 173 173
174 174 174
189 189 189
182 182 182
186 186 186
182 182 182
189 189 189
180 180 180
159 159 159
132 132 132
89 89 89
69 69 69
37 37 37
46 46 46
59 59 59
69 69 69
21 21 21
29 29 29
2 2 2
2 2 2
2 2 2
2 2 2
2 2 2
2 2 2
2 2 2
3 3 3
3 3 3
4 4 4
7 7 7
10 10 10
19 19 19
19 19 19
17 17 17
16 16 16
18 18 18
27 27 27
63 63 63
177 177 177
184 184 184
190 190 190
186 186 186
178 178 178
173 173 173
178 178 178
175 175 175
178 178 178
181 181 181
174 174 174
178 178 178
173 173 173
175 175 175
175 175 175
185 185 185
186 186 186
175 175 175
169 169 169
180 180 180
177 177 177
165 165 165
162 162 162
140 140 140
91 91 91
72 72 72
45 45 45
60 60 60
74 74 74
22 22 22
26 26 26
2 2 2
2 2 2
2 2 2
2 2 2
2 2 2
2 2 2
2 2 2
3 3 3
3 3 3
5 5 5
8 8 8
13 13 13
19 19 19
18 18 18
14 14 14
15 15 15
20 20 20
39 39 39
156 156 156
182 182 182
178 178 178
182 182 182
182 182 182
179 179 179
173 173 173
173 173 173
175 175 175
175 175 175
177 177 177
180 180 180
175 175 175
176 176 176
172 172 172
172 172 172
174 174 174
182 182 182
168 168 168
168 168 168
175 175 175
168 168 168
170 170 170
173 173 173
170 170 170
149 149 149
94 94 94
76 76 76
60 60 60
76 76 76
30 30 30
20 20 20
2 2 2
2 2 2
2 2 2
2 2 2
2 2 2
2 2 2
2 2 2
3 3 3
4 4 4
13 13 13
15 15 15
13 13 13
18 18 18
19 19 19
17 17 17
15 15 15
20 20 20
99 99 99
177 177 177
190 190 190
177 177 177
172 172 172
180 180 180
176 176 176
173 173 173
168 168 168
175 175 175
167 167 167
166 166 166
167 167 167
174 174 174
175 175 175
172 172 172
174 174 174
174 174 174
176 176 176
167 167 167
179 179 179
174 174 174
168 168 168
171 171 171
180 180 180
167 167 167
159 159 159
140 140 140
86 86 86
60 60 60
79 79 79
35 35 35
19 19 19
2 2 2
2 2 2
2 2 2
2 2 2
2 2 2
2 2 2
3 3 3
3 3 3
3 3 3
7 7 7
12 12 12
14 14 14
22 22 22
20 20 20
20 20 20
16 16 16
43 43 43
167 167 167
175 175 175
188 188 188
176 176 176
172 172 172
171 171 171
177 177 177
173 173 173
166 166 166
174 174 174
160 160 160
162 162 162
173 173 173
164 164 164
170 170 170
172 172 172
166 166 166
169 169 169
185 185 185
170 170 170
158 158 158
154 154 154
166 166 166
172 172 172
172 172 172
170 170 170
161 161 161
164 164 164
124 124 124
87 87 87
80 80 80
32 32 32
25 25 25
2 2 2
2 2 2
2 2 2
2 2 2
2 2 2
2 2 2
2 2 2
3 3 3
3 3 3
9 9 9
11 11 11
15 15 15
20 20 20
23 23 23
25 25 25
21 21 21
97 97 97
175 175 175
182 182 182
164 164 164
179 179 179
177 177 177
173 173 173
176 176 176
177 177 177
178 178 178
158 158 158
169 169 169
161 161 161
173 173 173
168 168 168
167 167 167
174 174 174
163 163 163
168 168 168
159 159 159
188 188 188
175 175 175
175 175 175
171 171 171
161 161 161
175 175 175
175 175 175
170 170 170
178 178 178
157 157 157
95 95 95
81 81 81
25 25 25
29 29 29
2 2 2
2 2 2
2 2 2
2 2 2
2 2 2
2 2 2
2 2 2
3 3 3
3 3 3
8 8 8
12 12 12
14 14 14
21 21 21
21 21 21
16 16 16
23 23 23
124 124 124
169 169 169
171 171 171
161 161 161
172 172 172
174 174 174
178 178 178
175 175 175
168 168 168
175 175 175
166 166 166
176 176 176
160 160 160
160 160 160
164 164 164
166 166 166
163 163 163
180 180 180
159 159 159
169 169 169
170 170 170
157 157 157
144 144 144
160 160 160
170 170 170
175 175 175
175 175 175
182 182 182
163 163 163
174 174 174
130 130 130
82 82 82
31 31 31
31 31 31
2 2 2
2 2 2
2 2 2
2 2 2
2 2 2
2 2 2
3 3 3
3 3 3
3 3 3
9 9 9
15 15 15
18 18 18
23 23 23
27 27 27
26 26 26
45 45 45
179 179 179
164 164 164
160 160 160
156 156 156
170 170 170
188 188 188
179 179 179
181 181 181
173 173 173
162 162 162
173 173 173
167 167 167
167 167 167
178 178 178
165 165 165
166 166 166
163 163 163
165 165 165
171 171 171
163 163 163
177 177 177
152 152 152
167 167 167
167 167 167
156 156 156
171 171 171
175 175 175
167 167 167
179 179 179
171 171 171
151 151 151
84 84 84
36 36 36
32 32 32
2 2 2
2 2 2
2 2 2
2 2 2
2 2 2
2 2 2
2 2 2
3 3 3
3 3 3
8 8 8
15 15 15
20 20 20
26 26 26
32 32 32
20 20 20
62 62 62
183 183 183
163 163 163
167 167 167
153 153 153
168 168 168
180 180 180
164 164 164
164 164 164
181 181 181
164 164 164
171 171 171
167 167 167
171 171 171
169 169 169
177 177 177
165 165 165
171 171 171
162 162 162
170 170 170
157 157 157
167 167 167
177 177 177
168 168 168
188 188 188
183 183 183
182 182 182
180 180 180
165 165 165
167 167 167
167 167 167
182 182 182
93 93 93
34 34 34
28 28 28
2 2 2
2 2 2
2 2 2
2 2 2
2 2 2
2 2 2
2 2 2
3 3 3
4 4 4
13 13 13
18 18 18
19 19 19
23 23 23
30 30 30
19 19 19
97 97 97
172 172 172
157 157 157
158 158 158
162 162 162
173 173 173
167 167 167
155 155 155
161 161 161
154 154 154
155 155 155
157 157 157
156 156 156
167 167 167
166 166 166
174 174 174
160 160 160
164 164 164
167 167 167
164 164 164
162 162 162
179 179 179
168 168 168
163 163 163
172 172 172
177 177 177
178 178 178
179 179 179
182 182 182
183 183 183
173 173 173
166 166 166
111 111 111
42 42 42
24 24 24
2 2 2
2 2 2
2 2 2
2 2 2
2 2 2
2 2 2
3 3 3
3 3 3
4 4 4
17 17 17
16 16 16
21 21 21
22 22 22
22 22 22
17 17 17
138 138 138
172 172 172
154 154 154
144 144 144
168 168 168
170 170 170
166 166 166
159 159 159
163 163 163
158 158 158
169 169 169
156 156 156
157 157 157
168 168 168
164 164 164
168 168 168
180 180 180
161 161 161
167 167 167
158 158 158
173 173 173
172 172 172
147 147 147
156 156 156
161 161 161
159 159 159
153 153 153
162 162 162
170 170 170
175 175 175
167 167 167
169 169 169
141 141 141
45 45 45
23 23 23
2 2 2
2 2 2
2 2 2
2 2 2
2 2 2
2 2 2
3 3 3
3 3 3
3 3 3
6 6 6
13 13 13
18 18 18
19 19 19
21 21 21
58 58 58
162 162 162
176 176 176
154 154 154
167 167 167
173 173 173
161 161 161
169 169 169
161 161 161
165 165 165
164 164 164
174 174 174
156 156 156
167 167 167
167 167 167
153 153 153
176 176 176
177 177 177
170 170 170
173 173 173
159 159 159
188 188 188
163 163 163
139 139 139
156 156 156
163 163 163
161 161 161
153 153 153
162 162 162
160 160 160
163 163 163
168 168 168
173 173 173
161 161 161
49 49 49
21 21 21
2 2 2
2 2 2
2 2 2
2 2 2
2 2 2
3 3 3
3 3 3
3 3 3
7 7 7
9 9 9
15 15 15
19 19 19
17 17 17
17 17 17
95 95 95
175 175 175
148 148 148
164 164 164
192 192 192
177 177 177
170 170 170
171 171 171
159 159 159
163 163 163
161 161 161
175 175 175
159 159 159
173 173 173
160 160 160
154 154 154
176 176 176
179 179 179
172 172 172
173 173 173
168 168 168
184 184 184
156 156 156
149 149 149
157 157 157
165 165 165
167 167 167
161 161 161
166 166 166
160 160 160
158 158 158
174 174 174
179 179 179
164 164 164
55 55 55
23 23 23
2 2 2
2 2 2
2 2 2
2 2 2
2 2 2
3 3 3
3 3 3
3 3 3
13 13 13
9 9 9
14 14 14
20 20 20
21 21 21
33 33 33
166 166 166
162 162 162
136 136 136
162 162 162
199 199 199
187 187 187
182 182 182
175 175 175
164 164 164
165 165 165
162 162 162
174 174 174
158 158 158
178 178 178
194 194 194
155 155 155
176 176 176
179 179 179
171 171 171
174 174 174
171 171 171
177 177 177
161 161 161
164 164 164
163 163 163
172 172 172
178 178 178
178 178 178
180 180 180
158 158 158
153 153 153
176 176 176
179 179 179
173 173 173
58 58 58
26 26 26
2 2 2
2 2 2
2 2 2
2 2 2
2 2 2
3 3 3
3 3 3
5 5 5
15 15 15
8 8 8
9 9 9
14 14 14
15 15 15
46 46 46
170 170 170
134 134 134
136 136 136
159 159 159
188 188 188
199 199 199
188 188 188
172 172 172
174 174 174
159 159 159
163 163 163
176 176 176
162 162 162
180 180 180
176 176 176
169 169 169
179 179 179
176 176 176
178 178 178
177 177 177
176 176 176
182 182 182
162 162 162
162 162 162
174 174 174
179 179 179
180 180 180
174 174 174
191 191 191
164 164 164
152 152 152
175 175 175
182 182 182
175 175 175
61 61 61
27 27 27
2 2 2
2 2 2
2 2 2
2 2 2
2 2 2
3 3 3
3 3 3
3 3 3
13 13 13
12 12 12
8 8 8
12 12 12
13 13 13
35 35 35
144 144 144
133 133 133
133 133 133
159 159 159
165 165 165
205 205 205
180 180 180
171 171 171
179 179 179
158 158 158
166 166 166
176 176 176
160 160 160
180 180 180
169 169 169
167 167 167
182 182 182
180 180 180
180 180 180
180 180 180
177 177 177
188 188 188
156 156 156
169 169 169
191 191 191
173 173 173
167 167 167
152 152 152
188 188 188
179 179 179
148 148 148
180 180 180
182 182 182
177 177 177
63 63 63
28 28 28
2 2 2
2 2 2
2 2 2
2 2 2
3 3 3
3 3 3
3 3 3
4 4 4
9 9 9
8 8 8
7 7 7
10 10 10
12 12 12
23 23 23
142 142 142
137 137 137
119 119 119
148 148 148
139 139 139
205 205 205
171 171 171
179 179 179
181 181 181
159 159 159
169 169 169
172 172 172
166 166 166
178 178 178
170 170 170
162 162 162
183 183 183
185 185 185
181 181 181
180 180 180
172 172 172
192 192 192
156 156 156
168 168 168
189 189 189
167 167 167
148 148 148
164 164 164
190 190 190
178 178 178
159 159 159
182 182 182
180 180 180
174 174 174
62 62 62
28 28 28
2 2 2
2 2 2
2 2 2
2 2 2
3 3 3
3 3 3
3 3 3
4 4 4
13 13 13
8 8 8
8 8 8
9 9 9
12 12 12
24 24 24
142 142 142
142 142 142
115 115 115
148 148 148
137 137 137
197 197 197
174 174 174
185 185 185
180 180 180
161 161 161
172 172 172
163 163 163
171 171 171
173 173 173
174 174 174
165 165 165
189 189 189
189 189 189
178 178 178
182 182 182
171 171 171
196 196 196
161 161 161
169 169 169
191 191 191
162 162 162
147 147 147
159 159 159
191 191 191
166 166 166
168 168 168
180 180 180
178 178 178
167 167 167
60 60 60
28 28 28
2 2 2
2 2 2
2 2 2
2 2 2
3 3 3
3 3 3
3 3 3
3 3 3
10 10 10
7 7 7
8 8 8
12 12 12
13 13 13
39 39 39
151 151 151
131 131 131
114 114 114
141 141 141
127 127 127
177 177 177
175 175 175
191 191 191
171 171 171
163 163 163
176 176 176
153 153 153
173 173 173
163 163 163
177 177 177
169 169 169
187 187 187
193 193 193
175 175 175
180 180 180
169 169 169
200 200 200
163 163 163
169 169 169
183 183 183
152 152 152
158 158 158
150 150 150
191 191 191
165 165 165
171 171 171
180 180 180
176 176 176
168 168 168
57 57 57
27 27 27
2 2 2
2 2 2
2 2 2
2 2 2
3 3 3
3 3 3
3 3 3
4 4 4
14 14 14
9 9 9
8 8 8
13 13 13
11 11 11
72 72 72
160 160 160
136 136 136
102 102 102
125 125 125
131 131 131
160 160 160
168 168 168
196 196 196
150 150 150
171 171 171
177 177 177
156 156 156
178 178 178
151 151 151
183 183 183
176 176 176
162 162 162
177 177 177
171 171 171
174 174 174
167 167 167
195 195 195
161 161 161
170 170 170
185 185 185
165 165 165
156 156 156
135 135 135
187 187 187
168 168 168
177 177 177
182 182 182
175 175 175
152 152 152
55 55 55
27 27 27
2 2 2
2 2 2
2 2 2
3 3 3
3 3 3
3 3 3
3 3 3
4 4 4
14 14 14
10 10 10
6 6 6
12 12 12
27 27 27
102 102 102
147 147 147
120 120 120
97 97 97
147 147 147
147 147 147
128 128 128
154 154 154
189 189 189
150 150 150
174 174 174
173 173 173
161 161 161
178 178 178
164 164 164
189 189 189
192 192 192
147 147 147
146 146 146
159 159 159
162 162 162
161 161 161
181 181 181
163 163 163
176 176 176
187 187 187
171 171 171
158 158 158
134 134 134
170 170 170
173 173 173
180 180 180
184 184 184
179 179 179
119 119 119
48 48 48
26 26 26
2 2 2
2 2 2
2 2 2
3 3 3
3 3 3
3 3 3
3 3 3
5 5 5
15 15 15
9 9 9
7 7 7
12 12 12
39 39 39
122 122 122
148 148 148
124 124 124
130 130 130
129 129 129
137 137 137
137 137 137
154 154 154
184 184 184
150 150 150
177 177 177
167 167 167
164 164 164
181 181 181
181 181 181
179 179 179
196 196 196
152 152 152
141 141 141
153 153 153
161 161 161
160 160 160
176 176 176
162 162 162
177 177 177
191 191 191
173 173 173
161 161 161
138 138 138
160 160 160
176 176 176
179 179 179
184 184 184
180 180 180
107 107 107
43 43 43
25 25 25
2 2 2
2 2 2
2 2 2
2 2 2
3 3 3
3 3 3
3 3 3
9 9 9
20 20 20
9 9 9
12 12 12
12 12 12
71 71 71
126 126 126
149 149 149
141 141 141
98 98 98
93 93 93
140 140 140
140 140 140
156 156 156
189 189 189
160 160 160
178 178 178
189 189 189
186 186 186
162 162 162
195 195 195
173 173 173
150 150 150
152 152 152
161 161 161
159 159 159
168 168 168
164 164 164
180 180 180
169 169 169
169 169 169
190 190 190
182 182 182
176 176 176
166 166 166
180 180 180
181 181 181
173 173 173
180 180 180
166 166 166
89 89 89
31 31 31
22 22 22
2 2 2
2 2 2
2 2 2
2 2 2
3 3 3
3 3 3
3 3 3
9 9 9
23 23 23
11 11 11
12 12 12
15 15 15
76 76 76
149 149 149
137 137 137
105 105 105
111 111 111
142 142 142
158 158 158
176 176 176
170 170 170
161 161 161
162 162 162
161 161 161
204 204 204
194 194 194
172 172 172
160 160 160
174 174 174
140 140 140
150 150 150
153 153 153
159 159 159
179 179 179
184 184 184
203 203 203
175 175 175
155 155 155
170 170 170
161 161 161
155 155 155
159 159 159
171 171 171
170 170 170
178 178 178
188 188 188
131 131 131
88 88 88
29 29 29
21 21 21
2 2 2
2 2 2
2 2 2
2 2 2
3 3 3
3 3 3
3 3 3
10 10 10
20 20 20
18 18 18
17 17 17
26 26 26
77 77 77
155 155 155
128 128 128
121 121 121
119 119 119
159 159 159
142 142 142
135 135 135
164 164 164
138 138 138
163 163 163
189 189 189
172 172 172
174 174 174
183 183 183
188 188 188
164 164 164
152 152 152
156 156 156
161 161 161
164 164 164
193 193 193
187 187 187
209 209 209
191 191 191
163 163 163
169 169 169
174 174 174
153 153 153
171 171 171
187 187 187
188 188 188
181 181 181
184 184 184
100 100 100
87 87 87
31 31 31
21 21 21
2 2 2
2 2 2
2 2 2
3 3 3
3 3 3
3 3 3
3 3 3
15 15 15
20 20 20
16 16 16
14 14 14
22 22 22
77 77 77
140 140 140
134 134 134
99 99 99
98 98 98
97 97 97
104 104 104
123 123 123
197 197 197
179 179 179
204 204 204
170 170 170
179 179 179
194 194 194
172 172 172
177 177 177
171 171 171
167 167 167
165 165 165
172 172 172
157 157 157
175 175 175
193 193 193
194 194 194
181 181 181
180 180 180
174 174 174
190 190 190
179 179 179
175 175 175
203 203 203
187 187 187
192 192 192
154 154 154
60 60 60
87 87 87
34 34 34
24 24 24
2 2 2
2 2 2
2 2 2
3 3 3
3 3 3
3 3 3
4 4 4
14 14 14
19 19 19
20 20 20
13 13 13
13 13 13
72 72 72
92 92 92
129 129 129
109 109 109
104 104 104
99 99 99
121 121 121
139 139 139
164 164 164
190 190 190
204 204 204
160 160 160
195 195 195
184 184 184
188 188 188
179 179 179
178 178 178
189 189 189
169 169 169
193 193 193
182 182 182
185 185 185
188 188 188
179 179 179
205 205 205
176 176 176
173 173 173
173 173 173
172 172 172
170 170 170
183 183 183
203 203 203
197 197 197
108 108 108
57 57 57
87 87 87
36 36 36
27 27 27
2 2 2
2 2 2
2 2 2
3 3 3
3 3 3
3 3 3
5 5 5
14 14 14
15 15 15
15 15 15
13 13 13
12 12 12
55 55 55
79 79 79
86 86 86
93 93 93
117 117 117
121 121 121
122 122 122
127 127 127
135 135 135
195 195 195
183 183 183
143 143 143
194 194 194
205 205 205
179 179 179
202 202 202
182 182 182
204 204 204
202 202 202
192 192 192
180 180 180
167 167 167
202 202 202
201 201 201
195 195 195
182 182 182
182 182 182
181 181 181
191 191 191
185 185 185
193 193 193
198 198 198
154 154 154
64 64 64
55 55 55
87 87 87
36 36 36
31 31 31
2 2 2
2 2 2
2 2 2
2 2 2
3 3 3
3 3 3
6 6 6
11 11 11
13 13 13
28 28 28
15 15 15
13 13 13
32 32 32
76 76 76
84 84 84
93 93 93
158 158 158
139 139 139
163 163 163
148 148 148
159 159 159
182 182 182
143 143 143
164 164 164
207 207 207
206 206 206
201 201 201
194 194 194
200 200 200
192 192 192
190 190 190
190 190 190
197 197 197
193 193 193
201 201 201
205 205 205
202 202 202
200 200 200
195 195 195
191 191 191
194 194 194
204 204 204
199 199 199
186 186 186
95 95 95
49 49 49
54 54 54
86 86 86
36 36 36
33 33 33
2 2 2
2 2 2
2 2 2
2 2 2
3 3 3
3 3 3
5 5 5
11 11 11
15 15 15
16 16 16
12 12 12
15 15 15
16 16 16
70 70 70
82 82 82
143 143 143
186 186 186
164 164 164
172 172 172
151 151 151
141 141 141
149 149 149
155 155 155
151 151 151
201 201 201
194 194 194
191 191 191
185 185 185
186 186 186
176 176 176
189 189 189
183 183 183
193 193 193
194 194 194
191 191 191
199 199 199
198 198 198
206 206 206
214 214 214
208 208 208
201 201 201
193 193 193
194 194 194
119 119 119
79 79 79
42 42 42
52 52 52
86 86 86
36 36 36
34 34 34
2 2 2
2 2 2
2 2 2
2 2 2
2 2 2
2 2 2
4 4 4
9 9 9
13 13 13
10 10 10
13 13 13
13 13 13
18 18 18
51 51 51
86 86 86
194 194 194
205 205 205
188 188 188
194 194 194
194 194 194
177 177 177
175 175 175
140 140 140
142 142 142
196 196 196
191 191 191
176 176 176
179 179 179
182 182 182
171 171 171
173 173 173
178 178 178
173 173 173
192 192 192
186 186 186
184 184 184
191 191 191
195 195 195
185 185 185
187 187 187
186 186 186
190 190 190
144 144 144
85 85 85
52 52 52
34 34 34
52 52 52
85 85 85
35 35 35
32 32 32
2 2 2
4 4 4
5 5 5
6 6 6
6 6 6
6 6 6
5 5 5
9 9 9
15 15 15
17 17 17
21 21 21
13 13 13
16 16 16
48 48 48
90 90 90
173 173 173
200 200 200
195 195 195
156 156 156
183 183 183
176 176 176
167 167 167
168 168 168
131 131 131
216 216 216
238 238 238
162 162 162
163 163 163
168 168 168
178 178 178
161 161 161
183 183 183
155 155 155
167 167 167
176 176 176
177 177 177
173 173 173
170 170 170
182 182 182
186 186 186
187 187 187
131 131 131
84 84 84
78 78 78
40 40 40
33 33 33
50 50 50
84 84 84
34 34 34
30 30 30
2 2 2
5 5 5
8 8 8
13 13 13
17 17 17
12 12 12
15 15 15
18 18 18
16 16 16
14 14 14
19 19 19
21 21 21
31 31 31
76 76 76
127 127 127
197 197 197
228 228 228
187 187 187
160 160 160
150 150 150
180 180 180
136 136 136
141 141 141
119 119 119
202 202 202
178 178 178
178 178 178
157 157 157
142 142 142
155 155 155
159 159 159
155 155 155
151 151 151
182 182 182
166 166 166
157 157 157
153 153 153
146 146 146
157 157 157
170 170 170
114 114 114
86 86 86
64 64 64
50 50 50
31 31 31
31 31 31
50 50 50
85 85 85
31 31 31
31 31 31
2 2 2
2 2 2
2 2 2
2 2 2
2 2 2
2 2 2
2 2 2
5 5 5
11 11 11
10 10 10
14 14 14
21 21 21
15 15 15
26 26 26
75 75 75
91 91 91
95 95 95
176 176 176
145 145 145
120 120 120
97 97 97
96 96 96
102 102 102
111 111 111
123 123 123
157 157 157
171 171 171
154 154 154
174 174 174
147 147 147
130 130 130
146 146 146
168 168 168
139 139 139
113 113 113
91 91 91
89 89 89
91 91 91
93 93 93
90 90 90
87 87 87
64 64 64
44 44 44
29 29 29
29 29 29
30 30 30
48 48 48
85 85 85
31 31 31
31 31 31
2 2 2
8 8 8
12 12 12
10 10 10
17 17 17
16 16 16
14 14 14
20 20 20
18 18 18
17 17 17
21 21 21
28 28 28
38 38 38
50 50 50
125 125 125
201 201 201
236 236 236
183 183 183
198 198 198
198 198 198
165 165 165
170 170 170
150 150 150
148 148 148
175 175 175
167 167 167
209 209 209
176 176 176
159 159 159
162 162 162
146 146 146
135 135 135
171 171 171
144 144 144
109 109 109
92 92 92
90 90 90
90 90 90
92 92 92
93 93 93
83 83 83
42 42 42
22 22 22
29 29 29
33 33 33
41 41 41
56 56 56
85 85 85
29 29 29
32 32 32
2 2 2
5 5 5
8 8 8
8 8 8
11 11 11
11 11 11
11 11 11
14 14 14
14 14 14
20 20 20
22 22 22
26 26 26
33 33 33
46 46 46
122 122 122
188 188 188
190 190 190
168 168 168
213 213 213
213 213 213
182 182 182
189 189 189
188 188 188
118 118 118
131 131 131
139 139 139
200 200 200
152 152 152
125 125 125
151 151 151
162 162 162
144 144 144
130 130 130
126 126 126
94 94 94
90 90 90
88 88 88
94 94 94
93 93 93
92 92 92
61 61 61
21 21 21
20 20 20
25 25 25
26 26 26
34 34 34
49 49 49
76 76 76
27 27 27
31 31 31
2 2 2
2 2 2
2 2 2
2 2 2
2 2 2
2 2 2
5 5 5
9 9 9
5 5 5
6 6 6
11 11 11
13 13 13
14 14 14
17 17 17
72 72 72
92 92 92
209 209 209
214 214 214
205 205 205
178 178 178
171 171 171
154 154 154
172 172 172
112 112 112
122 122 122
124 124 124
145 145 145
195 195 195
152 152 152
142 142 142
139 139 139
152 152 152
138 138 138
126 126 126
89 89 89
88 88 88
88 88 88
89 89 89
89 89 89
84 84 84
32 32 32
24 24 24
27 27 27
27 27 27
21 21 21
28 28 28
45 45 45
82 82 82
26 26 26
30 30 30
2 2 2
2 2 2
2 2 2
2 2 2
2 2 2
2 2 2
3 3 3
7 7 7
7 7 7
8 8 8
12 12 12
11 11 11
12 12 12
16 16 16
69 69 69
88 88 88
170 170 170
206 206 206
200 200 200
167 167 167
177 177 177
169 169 169
172 172 172
133 133 133
118 118 118
131 131 131
150 150 150
142 142 142
129 129 129
141 141 141
131 131 131
154 154 154
133 133 133
113 113 113
88 88 88
88 88 88
88 88 88
88 88 88
89 89 89
79 79 79
28 28 28
26 26 26
30 30 30
30 30 30
21 21 21
26 26 26
42 42 42
82 82 82
24 24 24
30 30 30
2 2 2
2 2 2
2 2 2
2 2 2
2 2 2
2 2 2
4 4 4
8 8 8
7 7 7
10 10 10
11 11 11
13 13 13
14 14 14
17 17 17
64 64 64
88 88 88
158 158 158
180 180 180
154 154 154
154 154 154
143 143 143
144 144 144
126 126 126
140 140 140
117 117 117
131 131 131
131 131 131
131 131 131
118 118 118
142 142 142
141 141 141
134 134 134
122 122 122
95 95 95
89 89 89
89 89 89
89 89 89
89 89 89
88 88 88
71 71 71
32 32 32
28 28 28
30 30 30
26 26 26
19 19 19
24 24 24
40 40 40
80 80 80
23 23 23
30 30 30
2 2 2
2 2 2
2 2 2
2 2 2
2 2 2
2 2 2
5 5 5
7 7 7
8 8 8
7 7 7
12 12 12
15 15 15
16 16 16
15 15 15
61 61 61
93 93 93
157 157 157
156 156 156
159 159 159
125 125 125
135 135 135
136 136 136
142 142 142
140 140 140
120 120 120
119 119 119
134 134 134
127 127 127
127 127 127
160 160 160
132 132 132
124 124 124
120 120 120
98 98 98
89 89 89
90 90 90
88 88 88
89 89 89
88 88 88
48 48 48
34 34 34
29 29 29
29 29 29
25 25 25
20 20 20
23 23 23
40 40 40
79 79 79
21 21 21
29 29 29
2 2 2
2 2 2
2 2 2
2 2 2
2 2 2
2 2 2
4 4 4
9 9 9
8 8 8
9 9 9
9 9 9
13 13 13
14 14 14
12 12 12
38 38 38
94 94 94
183 183 183
152 152 152
169 169 169
129 129 129
178 178 178
142 142 142
126 126 126
117 117 117
111 111 111
124 124 124
142 142 142
135 135 135
151 151 151
124 124 124
133 133 133
138 138 138
119 119 119
106 106 106
90 90 90
88 88 88
89 89 89
88 88 88
83 83 83
44 44 44
34 34 34
30 30 30
31 31 31
26 26 26
20 20 20
25 25 25
42 42 42
78 78 78
21 21 21
29 29 29
2 2 2
2 2 2
2 2 2
2 2 2
2 2 2
2 2 2
3 3 3
8 8 8
6 6 6
7 7 7
10 10 10
10 10 10
15 15 15
13 13 13
29 29 29
89 89 89
184 184 184
208 208 208
174 174 174
154 154 154
186 186 186
138 138 138
142 142 142
144 144 144
148 148 148
167 167 167
172 172 172
139 139 139
122 122 122
120 120 120
127 127 127
130 130 130
111 111 111
107 107 107
89 89 89
88 88 88
88 88 88
88 88 88
72 72 72
45 45 45
35 35 35
30 30 30
36 36 36
26 26 26
20 20 20
26 26 26
42 42 42
78 78 78
20 20 20
30 30 30
2 2 2
2 2 2
2 2 2
2 2 2
1 1 1
2 2 2
2 2 2
2 2 2
7 7 7
7 7 7
7 7 7
7 7 7
9 9 9
11 11 11
17 17 17
75 75 75
191 191 191
198 198 198
180 180 180
158 158 158
154 154 154
202 202 202
205 205 205
200 200 200
174 174 174
139 139 139
150 150 150
113 113 113
119 119 119
128 128 128
123 123 123
131 131 131
118 118 118
113 113 113
89 89 89
88 88 88
89 89 89
89 89 89
63 63 63
45 45 45
35 35 35
31 31 31
38 38 38
25 25 25
20 20 20
27 27 27
41 41 41
77 77 77
21 21 21
30 30 30
0 0 0
0 0 0
0 0 0
0 0 0
0 0 0
0 0 0
0 0 0
0 0 0
0 0 0
0 0 0
0 0 0
0 0 0
0 0 0
0 0 0
0 0 0
0 0 0
0 0 0
0 0 0
0 0 0
0 0 0
0 0 0
0 0 0
0 0 0
0 0 0
0 0 0
0 0 0
0 0 0
0 0 0
0 0 0
0 0 0
0 0 0
0 0 0
0 0 0
0 0 0
0 0 0
0 0 0
0 0 0
0 0 0
0 0 0
0 0 0
0 0 0
0 0 0
0 0 0
0 0 0
0 0 0
0 0 0
0 0 0
0 0 0
0 0 0
0 0 0
