P3 
50 50 
255
0 0 0
0 0 0
0 0 0
0 0 0
0 0 0
0 0 0
0 0 0
0 0 0
0 0 0
0 0 0
0 0 0
0 0 0
0 0 0
0 0 0
0 0 0
0 0 0
0 0 0
0 0 0
0 0 0
0 0 0
0 0 0
0 0 0
0 0 0
0 0 0
0 0 0
0 0 0
0 0 0
0 0 0
0 0 0
0 0 0
0 0 0
0 0 0
0 0 0
0 0 0
0 0 0
0 0 0
0 0 0
0 0 0
0 0 0
0 0 0
0 0 0
0 0 0
0 0 0
0 0 0
0 0 0
0 0 0
0 0 0
0 0 0
0 0 0
0 0 0
5 5 5
20 20 20
30 30 30
67 67 67
60 60 60
47 47 47
39 39 39
37 37 37
18 18 18
25 25 25
26 26 26
22 22 22
30 30 30
21 21 21
21 21 21
21 21 21
34 34 34
54 54 54
67 67 67
73 73 73
73 73 73
71 71 71
60 60 60
43 43 43
27 27 27
36 36 36
18 18 18
16 16 16
37 37 37
31 31 31
26 26 26
28 28 28
25 25 25
18 18 18
17 17 17
15 15 15
19 19 19
12 12 12
8 8 8
7 7 7
5 5 5
4 4 4
2 2 2
2 2 2
2 2 2
2 2 2
2 2 2
2 2 2
2 2 2
2 2 2
9 9 9
39 39 39
30 30 30
66 66 66
58 58 58
46 46 46
37 37 37
31 31 31
21 21 21
26 26 26
22 22 22
38 38 38
27 27 27
44 44 44
77 77 77
93 93 93
113 113 113
133 133 133
161 161 161
181 181 181
190 190 190
189 189 189
170 170 170
145 145 145
123 123 123
94 94 94
65 65 65
25 25 25
30 30 30
31 31 31
22 22 22
22 22 22
20 20 20
19 19 19
20 20 20
17 17 17
15 15 15
11 11 11
11 11 11
8 8 8
6 6 6
5 5 5
3 3 3
3 3 3
2 2 2
2 2 2
2 2 2
2 2 2
2 2 2
2 2 2
10 10 10
36 36 36
20 20 20
64 64 64
58 58 58
45 45 45
37 37 37
22 22 22
36 36 36
23 23 23
28 28 28
36 36 36
82 82 82
118 118 118
172 172 172
186 186 186
192 192 192
190 190 190
194 194 194
186 186 186
185 185 185
185 185 185
198 198 198
201 201 201
189 189 189
184 184 184
175 175 175
106 106 106
66 66 66
34 34 34
25 25 25
24 24 24
17 17 17
17 17 17
20 20 20
16 16 16
15 15 15
16 16 16
11 11 11
11 11 11
9 9 9
5 5 5
3 3 3
3 3 3
3 3 3
2 2 2
2 2 2
2 2 2
2 2 2
2 2 2
6 6 6
20 20 20
32 32 32
65 65 65
58 58 58
45 45 45
37 37 37
27 27 27
36 36 36
27 27 27
73 73 73
102 102 102
156 156 156
180 180 180
182 182 182
186 186 186
186 186 186
194 194 194
183 183 183
177 177 177
176 176 176
181 181 181
178 178 178
181 181 181
192 192 192
195 195 195
192 192 192
187 187 187
143 143 143
75 75 75
26 26 26
24 24 24
25 25 25
23 23 23
18 18 18
15 15 15
15 15 15
19 19 19
13 13 13
11 11 11
9 9 9
4 4 4
3 3 3
3 3 3
3 3 3
2 2 2
2 2 2
2 2 2
2 2 2
2 2 2
5 5 5
22 22 22
38 38 38
67 67 67
58 58 58
45 45 45
37 37 37
37 37 37
52 52 52
84 84 84
124 124 124
160 160 160
170 170 170
187 187 187
190 190 190
182 182 182
197 197 197
180 180 180
180 180 180
176 176 176
173 173 173
175 175 175
177 177 177
183 183 183
179 179 179
186 186 186
194 194 194
192 192 192
187 187 187
165 165 165
81 81 81
21 21 21
28 28 28
25 25 25
18 18 18
16 16 16
13 13 13
16 16 16
16 16 16
9 9 9
6 6 6
4 4 4
3 3 3
3 3 3
2 2 2
2 2 2
2 2 2
2 2 2
2 2 2
2 2 2
5 5 5
29 29 29
21 21 21
69 69 69
59 59 59
46 46 46
37 37 37
69 69 69
89 89 89
132 132 132
159 159 159
180 180 180
189 189 189
182 182 182
186 186 186
182 182 182
189 189 189
174 174 174
173 173 173
178 178 178
175 175 175
176 176 176
178 178 178
177 177 177
182 182 182
181 181 181
173 173 173
184 184 184
197 197 197
185 185 185
181 181 181
76 76 76
26 26 26
28 28 28
17 17 17
16 16 16
15 15 15
16 16 16
15 15 15
11 11 11
6 6 6
4 4 4
3 3 3
3 3 3
2 2 2
2 2 2
2 2 2
2 2 2
2 2 2
2 2 2
5 5 5
26 26 26
22 22 22
74 74 74
60 60 60
45 45 45
72 72 72
91 91 91
140 140 140
162 162 162
165 165 165
177 177 177
180 180 180
169 169 169
175 175 175
186 186 186
185 185 185
175 175 175
175 175 175
173 173 173
178 178 178
174 174 174
181 181 181
178 178 178
175 175 175
178 178 178
173 173 173
178 178 178
186 186 186
190 190 190
184 184 184
177 177 177
63 63 63
27 27 27
18 18 18
16 16 16
17 17 17
19 19 19
19 19 19
10 10 10
7 7 7
4 4 4
3 3 3
3 3 3
2 2 2
2 2 2
2 2 2
2 2 2
2 2 2
2 2 2
5 5 5
20 20 20
30 30 30
76 76 76
60 60 60
76 76 76
94 94 94
149 149 149
170 170 170
173 173 173
170 170 170
168 168 168
175 175 175
168 168 168
168 168 168
182 182 182
174 174 174
172 172 172
172 172 172
176 176 176
175 175 175
180 180 180
177 177 177
175 175 175
175 175 175
173 173 173
173 173 173
179 179 179
182 182 182
182 182 182
178 178 178
182 182 182
156 156 156
39 39 39
20 20 20
15 15 15
14 14 14
18 18 18
19 19 19
13 13 13
8 8 8
5 5 5
3 3 3
3 3 3
2 2 2
2 2 2
2 2 2
2 2 2
2 2 2
2 2 2
5 5 5
19 19 19
35 35 35
79 79 79
60 60 60
86 86 86
140 140 140
159 159 159
167 167 167
180 180 180
171 171 171
168 168 168
174 174 174
179 179 179
167 167 167
176 176 176
174 174 174
174 174 174
172 172 172
175 175 175
174 174 174
167 167 167
166 166 166
167 167 167
175 175 175
168 168 168
173 173 173
176 176 176
180 180 180
172 172 172
177 177 177
190 190 190
177 177 177
99 99 99
20 20 20
15 15 15
17 17 17
19 19 19
18 18 18
13 13 13
15 15 15
13 13 13
4 4 4
3 3 3
2 2 2
2 2 2
2 2 2
2 2 2
2 2 2
2 2 2
5 5 5
25 25 25
32 32 32
80 80 80
87 87 87
124 124 124
164 164 164
161 161 161
170 170 170
172 172 172
172 172 172
166 166 166
154 154 154
158 158 158
170 170 170
185 185 185
169 169 169
166 166 166
172 172 172
170 170 170
164 164 164
173 173 173
162 162 162
160 160 160
174 174 174
166 166 166
173 173 173
177 177 177
171 171 171
172 172 172
176 176 176
188 188 188
175 175 175
167 167 167
43 43 43
16 16 16
20 20 20
20 20 20
22 22 22
14 14 14
12 12 12
7 7 7
3 3 3
3 3 3
3 3 3
2 2 2
2 2 2
2 2 2
2 2 2
2 2 2
6 6 6
29 29 29
25 25 25
81 81 81
95 95 95
157 157 157
178 178 178
170 170 170
175 175 175
175 175 175
161 161 161
171 171 171
175 175 175
175 175 175
188 188 188
159 159 159
168 168 168
163 163 163
174 174 174
167 167 167
168 168 168
173 173 173
161 161 161
169 169 169
158 158 158
178 178 178
177 177 177
176 176 176
173 173 173
177 177 177
179 179 179
164 164 164
182 182 182
175 175 175
97 97 97
21 21 21
25 25 25
23 23 23
20 20 20
15 15 15
11 11 11
9 9 9
3 3 3
3 3 3
2 2 2
2 2 2
2 2 2
2 2 2
2 2 2
2 2 2
6 6 6
31 31 31
31 31 31
82 82 82
130 130 130
174 174 174
163 163 163
182 182 182
175 175 175
175 175 175
170 170 170
160 160 160
144 144 144
157 157 157
170 170 170
169 169 169
159 159 159
180 180 180
163 163 163
166 166 166
164 164 164
160 160 160
160 160 160
176 176 176
166 166 166
175 175 175
168 168 168
175 175 175
178 178 178
174 174 174
172 172 172
161 161 161
171 171 171
169 169 169
124 124 124
23 23 23
16 16 16
21 21 21
21 21 21
14 14 14
12 12 12
8 8 8
3 3 3
3 3 3
2 2 2
2 2 2
2 2 2
2 2 2
2 2 2
2 2 2
6 6 6
32 32 32
36 36 36
84 84 84
151 151 151
171 171 171
179 179 179
167 167 167
175 175 175
171 171 171
156 156 156
167 167 167
167 167 167
152 152 152
177 177 177
163 163 163
171 171 171
165 165 165
163 163 163
166 166 166
165 165 165
178 178 178
167 167 167
167 167 167
173 173 173
162 162 162
173 173 173
181 181 181
179 179 179
188 188 188
170 170 170
156 156 156
160 160 160
164 164 164
179 179 179
45 45 45
26 26 26
27 27 27
23 23 23
18 18 18
15 15 15
9 9 9
3 3 3
3 3 3
3 3 3
2 2 2
2 2 2
2 2 2
2 2 2
2 2 2
6 6 6
28 28 28
34 34 34
93 93 93
182 182 182
167 167 167
167 167 167
165 165 165
180 180 180
182 182 182
183 183 183
188 188 188
168 168 168
177 177 177
167 167 167
157 157 157
170 170 170
162 162 162
171 171 171
165 165 165
177 177 177
169 169 169
171 171 171
167 167 167
171 171 171
164 164 164
181 181 181
164 164 164
164 164 164
180 180 180
168 168 168
153 153 153
167 167 167
163 163 163
183 183 183
62 62 62
20 20 20
32 32 32
26 26 26
20 20 20
15 15 15
8 8 8
3 3 3
3 3 3
2 2 2
2 2 2
2 2 2
2 2 2
2 2 2
2 2 2
7 7 7
24 24 24
42 42 42
111 111 111
166 166 166
173 173 173
183 183 183
182 182 182
179 179 179
178 178 178
177 177 177
172 172 172
163 163 163
168 168 168
179 179 179
162 162 162
164 164 164
167 167 167
164 164 164
160 160 160
174 174 174
166 166 166
167 167 167
156 156 156
157 157 157
155 155 155
154 154 154
161 161 161
155 155 155
167 167 167
173 173 173
162 162 162
158 158 158
157 157 157
172 172 172
97 97 97
19 19 19
30 30 30
23 23 23
19 19 19
18 18 18
13 13 13
4 4 4
3 3 3
2 2 2
2 2 2
2 2 2
2 2 2
2 2 2
2 2 2
7 7 7
23 23 23
45 45 45
141 141 141
169 169 169
167 167 167
175 175 175
170 170 170
162 162 162
153 153 153
159 159 159
161 161 161
156 156 156
147 147 147
172 172 172
173 173 173
158 158 158
167 167 167
161 161 161
180 180 180
168 168 168
164 164 164
168 168 168
157 157 157
156 156 156
169 169 169
158 158 158
163 163 163
159 159 159
166 166 166
170 170 170
168 168 168
144 144 144
154 154 154
172 172 172
138 138 138
17 17 17
22 22 22
22 22 22
21 21 21
16 16 16
17 17 17
4 4 4
3 3 3
3 3 3
2 2 2
2 2 2
2 2 2
2 2 2
2 2 2
6 6 6
21 21 21
49 49 49
161 161 161
173 173 173
168 168 168
163 163 163
160 160 160
162 162 162
153 153 153
161 161 161
163 163 163
156 156 156
139 139 139
163 163 163
188 188 188
159 159 159
173 173 173
170 170 170
177 177 177
176 176 176
153 153 153
167 167 167
167 167 167
156 156 156
174 174 174
164 164 164
165 165 165
161 161 161
169 169 169
161 161 161
173 173 173
167 167 167
154 154 154
176 176 176
162 162 162
58 58 58
21 21 21
19 19 19
18 18 18
13 13 13
6 6 6
3 3 3
3 3 3
3 3 3
2 2 2
2 2 2
2 2 2
2 2 2
2 2 2
6 6 6
23 23 23
55 55 55
164 164 164
179 179 179
174 174 174
158 158 158
160 160 160
166 166 166
161 161 161
167 167 167
165 165 165
157 157 157
149 149 149
156 156 156
184 184 184
168 168 168
173 173 173
172 172 172
179 179 179
176 176 176
154 154 154
160 160 160
173 173 173
159 159 159
175 175 175
161 161 161
163 163 163
159 159 159
171 171 171
170 170 170
177 177 177
192 192 192
164 164 164
148 148 148
175 175 175
95 95 95
17 17 17
17 17 17
19 19 19
15 15 15
9 9 9
7 7 7
3 3 3
3 3 3
3 3 3
2 2 2
2 2 2
2 2 2
2 2 2
5 5 5
26 26 26
58 58 58
173 173 173
179 179 179
176 176 176
153 153 153
158 158 158
180 180 180
178 178 178
178 178 178
172 172 172
163 163 163
164 164 164
161 161 161
177 177 177
171 171 171
174 174 174
171 171 171
179 179 179
176 176 176
155 155 155
194 194 194
178 178 178
158 158 158
174 174 174
162 162 162
165 165 165
164 164 164
175 175 175
182 182 182
187 187 187
199 199 199
162 162 162
136 136 136
162 162 162
166 166 166
33 33 33
21 21 21
20 20 20
14 14 14
9 9 9
13 13 13
3 3 3
3 3 3
3 3 3
2 2 2
2 2 2
2 2 2
2 2 2
6 6 6
27 27 27
61 61 61
175 175 175
182 182 182
175 175 175
152 152 152
164 164 164
191 191 191
174 174 174
180 180 180
179 179 179
174 174 174
162 162 162
162 162 162
182 182 182
176 176 176
177 177 177
178 178 178
176 176 176
179 179 179
169 169 169
176 176 176
180 180 180
162 162 162
176 176 176
163 163 163
159 159 159
174 174 174
172 172 172
188 188 188
199 199 199
188 188 188
159 159 159
136 136 136
134 134 134
170 170 170
46 46 46
15 15 15
14 14 14
9 9 9
8 8 8
15 15 15
5 5 5
3 3 3
3 3 3
2 2 2
2 2 2
2 2 2
2 2 2
6 6 6
28 28 28
63 63 63
177 177 177
182 182 182
180 180 180
148 148 148
179 179 179
188 188 188
152 152 152
167 167 167
173 173 173
191 191 191
169 169 169
156 156 156
188 188 188
177 177 177
180 180 180
180 180 180
180 180 180
182 182 182
167 167 167
169 169 169
180 180 180
160 160 160
176 176 176
166 166 166
158 158 158
179 179 179
171 171 171
180 180 180
205 205 205
165 165 165
159 159 159
133 133 133
133 133 133
144 144 144
35 35 35
13 13 13
12 12 12
8 8 8
12 12 12
13 13 13
3 3 3
3 3 3
3 3 3
2 2 2
2 2 2
2 2 2
2 2 2
6 6 6
28 28 28
62 62 62
174 174 174
180 180 180
182 182 182
159 159 159
178 178 178
190 190 190
164 164 164
148 148 148
167 167 167
189 189 189
168 168 168
156 156 156
192 192 192
172 172 172
180 180 180
181 181 181
185 185 185
183 183 183
162 162 162
170 170 170
178 178 178
166 166 166
172 172 172
169 169 169
159 159 159
181 181 181
179 179 179
171 171 171
205 205 205
139 139 139
148 148 148
119 119 119
137 137 137
142 142 142
23 23 23
12 12 12
10 10 10
7 7 7
8 8 8
9 9 9
4 4 4
3 3 3
3 3 3
3 3 3
2 2 2
2 2 2
2 2 2
6 6 6
28 28 28
60 60 60
167 167 167
178 178 178
180 180 180
168 168 168
166 166 166
191 191 191
159 159 159
147 147 147
162 162 162
191 191 191
169 169 169
161 161 161
196 196 196
171 171 171
182 182 182
178 178 178
189 189 189
189 189 189
165 165 165
174 174 174
173 173 173
171 171 171
163 163 163
172 172 172
161 161 161
180 180 180
185 185 185
174 174 174
197 197 197
137 137 137
148 148 148
115 115 115
142 142 142
142 142 142
24 24 24
12 12 12
9 9 9
8 8 8
8 8 8
13 13 13
4 4 4
3 3 3
3 3 3
3 3 3
2 2 2
2 2 2
2 2 2
7 7 7
27 27 27
57 57 57
168 168 168
176 176 176
180 180 180
171 171 171
165 165 165
191 191 191
150 150 150
158 158 158
152 152 152
183 183 183
169 169 169
163 163 163
200 200 200
169 169 169
180 180 180
175 175 175
193 193 193
187 187 187
169 169 169
177 177 177
163 163 163
173 173 173
153 153 153
176 176 176
163 163 163
171 171 171
191 191 191
175 175 175
177 177 177
127 127 127
141 141 141
114 114 114
131 131 131
151 151 151
39 39 39
13 13 13
12 12 12
8 8 8
7 7 7
10 10 10
3 3 3
3 3 3
3 3 3
3 3 3
2 2 2
2 2 2
2 2 2
6 6 6
27 27 27
55 55 55
152 152 152
175 175 175
182 182 182
177 177 177
168 168 168
187 187 187
135 135 135
156 156 156
165 165 165
185 185 185
170 170 170
161 161 161
195 195 195
167 167 167
174 174 174
171 171 171
177 177 177
162 162 162
176 176 176
183 183 183
151 151 151
178 178 178
156 156 156
177 177 177
171 171 171
150 150 150
196 196 196
168 168 168
160 160 160
131 131 131
125 125 125
102 102 102
136 136 136
160 160 160
72 72 72
11 11 11
13 13 13
8 8 8
9 9 9
14 14 14
4 4 4
3 3 3
3 3 3
3 3 3
2 2 2
2 2 2
2 2 2
6 6 6
26 26 26
48 48 48
119 119 119
179 179 179
184 184 184
180 180 180
173 173 173
170 170 170
134 134 134
158 158 158
171 171 171
187 187 187
176 176 176
163 163 163
181 181 181
161 161 161
162 162 162
159 159 159
146 146 146
147 147 147
192 192 192
189 189 189
164 164 164
178 178 178
161 161 161
173 173 173
174 174 174
150 150 150
189 189 189
154 154 154
128 128 128
147 147 147
147 147 147
97 97 97
120 120 120
147 147 147
102 102 102
27 27 27
12 12 12
6 6 6
10 10 10
14 14 14
4 4 4
3 3 3
3 3 3
3 3 3
3 3 3
2 2 2
2 2 2
6 6 6
25 25 25
43 43 43
107 107 107
180 180 180
184 184 184
179 179 179
176 176 176
160 160 160
138 138 138
161 161 161
173 173 173
191 191 191
177 177 177
162 162 162
176 176 176
160 160 160
161 161 161
153 153 153
141 141 141
152 152 152
196 196 196
179 179 179
181 181 181
181 181 181
164 164 164
167 167 167
177 177 177
150 150 150
184 184 184
154 154 154
137 137 137
137 137 137
129 129 129
130 130 130
124 124 124
148 148 148
122 122 122
39 39 39
12 12 12
7 7 7
9 9 9
15 15 15
5 5 5
3 3 3
3 3 3
3 3 3
3 3 3
2 2 2
2 2 2
6 6 6
22 22 22
31 31 31
89 89 89
166 166 166
180 180 180
173 173 173
181 181 181
180 180 180
166 166 166
176 176 176
182 182 182
190 190 190
169 169 169
169 169 169
180 180 180
164 164 164
168 168 168
159 159 159
161 161 161
152 152 152
150 150 150
173 173 173
195 195 195
162 162 162
186 186 186
189 189 189
178 178 178
160 160 160
189 189 189
156 156 156
140 140 140
140 140 140
93 93 93
98 98 98
141 141 141
149 149 149
126 126 126
71 71 71
12 12 12
12 12 12
9 9 9
20 20 20
9 9 9
3 3 3
3 3 3
3 3 3
2 2 2
2 2 2
2 2 2
6 6 6
21 21 21
29 29 29
88 88 88
131 131 131
188 188 188
178 178 178
170 170 170
171 171 171
159 159 159
155 155 155
161 161 161
170 170 170
155 155 155
175 175 175
203 203 203
184 184 184
179 179 179
159 159 159
153 153 153
150 150 150
140 140 140
174 174 174
160 160 160
172 172 172
194 194 194
204 204 204
161 161 161
162 162 162
161 161 161
170 170 170
176 176 176
158 158 158
142 142 142
111 111 111
105 105 105
137 137 137
149 149 149
76 76 76
15 15 15
12 12 12
11 11 11
23 23 23
9 9 9
3 3 3
3 3 3
3 3 3
2 2 2
2 2 2
2 2 2
6 6 6
21 21 21
31 31 31
87 87 87
100 100 100
184 184 184
181 181 181
188 188 188
187 187 187
171 171 171
153 153 153
174 174 174
169 169 169
163 163 163
191 191 191
209 209 209
187 187 187
193 193 193
164 164 164
161 161 161
156 156 156
152 152 152
164 164 164
188 188 188
183 183 183
174 174 174
172 172 172
189 189 189
163 163 163
138 138 138
164 164 164
135 135 135
142 142 142
159 159 159
119 119 119
121 121 121
128 128 128
155 155 155
77 77 77
26 26 26
17 17 17
18 18 18
20 20 20
10 10 10
3 3 3
3 3 3
3 3 3
2 2 2
2 2 2
2 2 2
6 6 6
24 24 24
34 34 34
87 87 87
60 60 60
154 154 154
192 192 192
187 187 187
203 203 203
175 175 175
179 179 179
190 190 190
174 174 174
180 180 180
181 181 181
194 194 194
193 193 193
175 175 175
157 157 157
172 172 172
165 165 165
167 167 167
171 171 171
177 177 177
172 172 172
194 194 194
179 179 179
170 170 170
204 204 204
179 179 179
197 197 197
123 123 123
104 104 104
97 97 97
98 98 98
99 99 99
134 134 134
140 140 140
77 77 77
22 22 22
14 14 14
16 16 16
20 20 20
15 15 15
3 3 3
3 3 3
3 3 3
3 3 3
2 2 2
2 2 2
6 6 6
27 27 27
36 36 36
87 87 87
57 57 57
108 108 108
197 197 197
203 203 203
183 183 183
170 170 170
172 172 172
173 173 173
173 173 173
176 176 176
205 205 205
179 179 179
188 188 188
185 185 185
182 182 182
193 193 193
169 169 169
189 189 189
178 178 178
179 179 179
188 188 188
184 184 184
195 195 195
160 160 160
204 204 204
190 190 190
164 164 164
139 139 139
121 121 121
99 99 99
104 104 104
109 109 109
129 129 129
92 92 92
72 72 72
13 13 13
13 13 13
20 20 20
19 19 19
14 14 14
4 4 4
3 3 3
3 3 3
3 3 3
2 2 2
2 2 2
6 6 6
31 31 31
36 36 36
87 87 87
55 55 55
64 64 64
154 154 154
198 198 198
193 193 193
185 185 185
191 191 191
181 181 181
182 182 182
182 182 182
195 195 195
201 201 201
202 202 202
167 167 167
180 180 180
192 192 192
202 202 202
204 204 204
182 182 182
202 202 202
179 179 179
205 205 205
194 194 194
143 143 143
183 183 183
195 195 195
135 135 135
127 127 127
122 122 122
121 121 121
117 117 117
93 93 93
86 86 86
79 79 79
55 55 55
12 12 12
13 13 13
15 15 15
15 15 15
14 14 14
5 5 5
3 3 3
3 3 3
3 3 3
2 2 2
2 2 2
5 5 5
33 33 33
36 36 36
86 86 86
54 54 54
49 49 49
95 95 95
186 186 186
199 199 199
204 204 204
194 194 194
191 191 191
195 195 195
200 200 200
202 202 202
205 205 205
201 201 201
193 193 193
197 197 197
190 190 190
190 190 190
192 192 192
200 200 200
194 194 194
201 201 201
206 206 206
207 207 207
164 164 164
143 143 143
182 182 182
159 159 159
148 148 148
163 163 163
139 139 139
158 158 158
93 93 93
84 84 84
76 76 76
32 32 32
13 13 13
15 15 15
28 28 28
13 13 13
11 11 11
6 6 6
3 3 3
3 3 3
2 2 2
2 2 2
2 2 2
5 5 5
34 34 34
36 36 36
86 86 86
52 52 52
42 42 42
79 79 79
119 119 119
194 194 194
193 193 193
201 201 201
208 208 208
214 214 214
206 206 206
198 198 198
199 199 199
191 191 191
194 194 194
193 193 193
183 183 183
189 189 189
176 176 176
186 186 186
185 185 185
191 191 191
194 194 194
201 201 201
151 151 151
155 155 155
149 149 149
141 141 141
151 151 151
172 172 172
164 164 164
186 186 186
143 143 143
82 82 82
70 70 70
16 16 16
15 15 15
12 12 12
16 16 16
15 15 15
11 11 11
5 5 5
3 3 3
3 3 3
2 2 2
2 2 2
2 2 2
5 5 5
32 32 32
35 35 35
85 85 85
52 52 52
34 34 34
52 52 52
85 85 85
144 144 144
190 190 190
186 186 186
187 187 187
185 185 185
195 195 195
191 191 191
184 184 184
186 186 186
192 192 192
173 173 173
178 178 178
173 173 173
171 171 171
182 182 182
179 179 179
176 176 176
191 191 191
196 196 196
142 142 142
140 140 140
175 175 175
177 177 177
194 194 194
194 194 194
188 188 188
205 205 205
194 194 194
86 86 86
51 51 51
18 18 18
13 13 13
13 13 13
10 10 10
13 13 13
9 9 9
4 4 4
2 2 2
2 2 2
2 2 2
2 2 2
2 2 2
5 5 5
30 30 30
34 34 34
84 84 84
50 50 50
33 33 33
40 40 40
78 78 78
84 84 84
131 131 131
187 187 187
186 186 186
182 182 182
170 170 170
173 173 173
177 177 177
176 176 176
167 167 167
155 155 155
183 183 183
161 161 161
178 178 178
168 168 168
163 163 163
162 162 162
238 238 238
216 216 216
131 131 131
168 168 168
167 167 167
176 176 176
183 183 183
156 156 156
195 195 195
200 200 200
173 173 173
90 90 90
48 48 48
16 16 16
13 13 13
21 21 21
17 17 17
15 15 15
9 9 9
5 5 5
6 6 6
6 6 6
6 6 6
5 5 5
4 4 4
5 5 5
31 31 31
31 31 31
85 85 85
50 50 50
31 31 31
31 31 31
50 50 50
64 64 64
86 86 86
114 114 114
170 170 170
157 157 157
146 146 146
153 153 153
157 157 157
166 166 166
182 182 182
151 151 151
155 155 155
159 159 159
155 155 155
142 142 142
157 157 157
178 178 178
178 178 178
202 202 202
119 119 119
141 141 141
136 136 136
180 180 180
150 150 150
160 160 160
187 187 187
228 228 228
197 197 197
127 127 127
76 76 76
31 31 31
21 21 21
19 19 19
14 14 14
16 16 16
18 18 18
15 15 15
12 12 12
17 17 17
13 13 13
8 8 8
5 5 5
5 5 5
31 31 31
31 31 31
85 85 85
48 48 48
30 30 30
29 29 29
29 29 29
44 44 44
64 64 64
87 87 87
90 90 90
93 93 93
91 91 91
89 89 89
91 91 91
113 113 113
139 139 139
168 168 168
146 146 146
130 130 130
147 147 147
174 174 174
154 154 154
171 171 171
157 157 157
123 123 123
111 111 111
102 102 102
96 96 96
97 97 97
120 120 120
145 145 145
176 176 176
95 95 95
91 91 91
75 75 75
26 26 26
15 15 15
21 21 21
14 14 14
10 10 10
11 11 11
5 5 5
2 2 2
2 2 2
2 2 2
2 2 2
2 2 2
2 2 2
5 5 5
32 32 32
29 29 29
85 85 85
56 56 56
41 41 41
33 33 33
29 29 29
22 22 22
42 42 42
83 83 83
93 93 93
92 92 92
90 90 90
90 90 90
92 92 92
109 109 109
144 144 144
171 171 171
135 135 135
146 146 146
162 162 162
159 159 159
176 176 176
209 209 209
167 167 167
175 175 175
148 148 148
150 150 150
170 170 170
165 165 165
198 198 198
198 198 198
183 183 183
236 236 236
201 201 201
125 125 125
50 50 50
38 38 38
28 28 28
21 21 21
17 17 17
18 18 18
20 20 20
14 14 14
16 16 16
17 17 17
10 10 10
12 12 12
8 8 8
5 5 5
31 31 31
27 27 27
76 76 76
49 49 49
34 34 34
26 26 26
25 25 25
20 20 20
21 21 21
61 61 61
92 92 92
93 93 93
94 94 94
88 88 88
90 90 90
94 94 94
126 126 126
130 130 130
144 144 144
162 162 162
151 151 151
125 125 125
152 152 152
200 200 200
139 139 139
131 131 131
118 118 118
188 188 188
189 189 189
182 182 182
213 213 213
213 213 213
168 168 168
190 190 190
188 188 188
122 122 122
46 46 46
33 33 33
26 26 26
22 22 22
20 20 20
14 14 14
14 14 14
11 11 11
11 11 11
11 11 11
8 8 8
8 8 8
5 5 5
6 6 6
30 30 30
26 26 26
82 82 82
45 45 45
28 28 28
21 21 21
27 27 27
27 27 27
24 24 24
32 32 32
84 84 84
89 89 89
89 89 89
88 88 88
88 88 88
89 89 89
126 126 126
138 138 138
152 152 152
139 139 139
142 142 142
152 152 152
195 195 195
145 145 145
124 124 124
122 122 122
112 112 112
172 172 172
154 154 154
171 171 171
178 178 178
205 205 205
214 214 214
209 209 209
92 92 92
72 72 72
17 17 17
14 14 14
13 13 13
11 11 11
6 6 6
5 5 5
9 9 9
5 5 5
2 2 2
2 2 2
2 2 2
2 2 2
2 2 2
6 6 6
30 30 30
24 24 24
82 82 82
42 42 42
26 26 26
21 21 21
30 30 30
30 30 30
26 26 26
28 28 28
79 79 79
89 89 89
88 88 88
88 88 88
88 88 88
88 88 88
113 113 113
133 133 133
154 154 154
131 131 131
141 141 141
129 129 129
142 142 142
150 150 150
131 131 131
118 118 118
133 133 133
172 172 172
169 169 169
177 177 177
167 167 167
200 200 200
206 206 206
170 170 170
88 88 88
69 69 69
16 16 16
12 12 12
11 11 11
12 12 12
8 8 8
7 7 7
7 7 7
3 3 3
2 2 2
2 2 2
2 2 2
2 2 2
2 2 2
5 5 5
30 30 30
23 23 23
80 80 80
40 40 40
24 24 24
19 19 19
26 26 26
30 30 30
28 28 28
32 32 32
71 71 71
88 88 88
89 89 89
89 89 89
89 89 89
89 89 89
95 95 95
122 122 122
134 134 134
141 141 141
142 142 142
118 118 118
131 131 131
131 131 131
131 131 131
117 117 117
140 140 140
126 126 126
144 144 144
143 143 143
154 154 154
154 154 154
180 180 180
158 158 158
88 88 88
64 64 64
17 17 17
14 14 14
13 13 13
11 11 11
10 10 10
7 7 7
8 8 8
4 4 4
2 2 2
2 2 2
2 2 2
2 2 2
2 2 2
4 4 4
29 29 29
21 21 21
79 79 79
40 40 40
23 23 23
20 20 20
25 25 25
29 29 29
29 29 29
34 34 34
48 48 48
88 88 88
89 89 89
88 88 88
90 90 90
89 89 89
98 98 98
120 120 120
124 124 124
132 132 132
160 160 160
127 127 127
127 127 127
134 134 134
119 119 119
120 120 120
140 140 140
142 142 142
136 136 136
135 135 135
125 125 125
159 159 159
156 156 156
157 157 157
93 93 93
61 61 61
15 15 15
16 16 16
15 15 15
12 12 12
7 7 7
8 8 8
7 7 7
5 5 5
2 2 2
2 2 2
2 2 2
2 2 2
2 2 2
5 5 5
29 29 29
21 21 21
78 78 78
42 42 42
25 25 25
20 20 20
26 26 26
31 31 31
30 30 30
34 34 34
44 44 44
83 83 83
88 88 88
89 89 89
88 88 88
90 90 90
106 106 106
119 119 119
138 138 138
133 133 133
124 124 124
151 151 151
135 135 135
142 142 142
124 124 124
111 111 111
117 117 117
126 126 126
142 142 142
178 178 178
129 129 129
169 169 169
152 152 152
183 183 183
94 94 94
38 38 38
12 12 12
14 14 14
13 13 13
9 9 9
9 9 9
8 8 8
9 9 9
4 4 4
2 2 2
2 2 2
2 2 2
2 2 2
2 2 2
5 5 5
30 30 30
20 20 20
78 78 78
42 42 42
26 26 26
20 20 20
26 26 26
36 36 36
30 30 30
35 35 35
45 45 45
72 72 72
88 88 88
88 88 88
88 88 88
89 89 89
107 107 107
111 111 111
130 130 130
127 127 127
120 120 120
122 122 122
139 139 139
172 172 172
167 167 167
148 148 148
144 144 144
142 142 142
138 138 138
186 186 186
154 154 154
174 174 174
208 208 208
184 184 184
89 89 89
29 29 29
13 13 13
15 15 15
10 10 10
10 10 10
7 7 7
6 6 6
8 8 8
3 3 3
2 2 2
2 2 2
2 2 2
2 2 2
2 2 2
5 5 5
30 30 30
21 21 21
77 77 77
41 41 41
27 27 27
20 20 20
25 25 25
38 38 38
31 31 31
35 35 35
45 45 45
63 63 63
89 89 89
89 89 89
88 88 88
89 89 89
113 113 113
118 118 118
131 131 131
123 123 123
128 128 128
119 119 119
113 113 113
150 150 150
139 139 139
174 174 174
200 200 200
205 205 205
202 202 202
154 154 154
158 158 158
180 180 180
198 198 198
191 191 191
75 75 75
17 17 17
11 11 11
9 9 9
7 7 7
7 7 7
7 7 7
7 7 7
2 2 2
2 2 2
2 2 2
1 1 1
2 2 2
2 2 2
2 2 2
0 0 0
0 0 0
0 0 0
0 0 0
0 0 0
0 0 0
0 0 0
0 0 0
0 0 0
0 0 0
0 0 0
0 0 0
0 0 0
0 0 0
0 0 0
0 0 0
0 0 0
0 0 0
0 0 0
0 0 0
0 0 0
0 0 0
0 0 0
0 0 0
0 0 0
0 0 0
0 0 0
0 0 0
0 0 0
0 0 0
0 0 0
0 0 0
0 0 0
0 0 0
0 0 0
0 0 0
0 0 0
0 0 0
0 0 0
0 0 0
0 0 0
0 0 0
0 0 0
0 0 0
0 0 0
0 0 0
0 0 0
0 0 0
0 0 0
0 0 0
