P3 
50 50 
255
0 0 0
0 0 0
0 0 0
0 0 0
0 0 0
0 0 0
0 0 0
0 0 0
0 0 0
0 0 0
0 0 0
0 0 0
0 0 0
0 0 0
0 0 0
0 0 0
0 0 0
0 0 0
0 0 0
0 0 0
0 0 0
0 0 0
0 0 0
0 0 0
0 0 0
0 0 0
0 0 0
0 0 0
0 0 0
0 0 0
0 0 0
0 0 0
0 0 0
0 0 0
0 0 0
0 0 0
0 0 0
0 0 0
0 0 0
0 0 0
0 0 0
0 0 0
0 0 0
0 0 0
0 0 0
0 0 0
0 0 0
0 0 0
0 0 0
0 0 0
0 0 0
0 0 0
10 10 10
11 11 11
25 25 25
26 26 26
19 19 19
43 43 43
28 28 28
42 42 42
36 36 36
20 20 20
31 31 31
43 43 43
61 61 61
74 74 74
74 74 74
59 59 59
42 42 42
28 28 28
38 38 38
22 22 22
17 17 17
16 16 16
22 22 22
25 25 25
22 22 22
33 33 33
56 56 56
73 73 73
75 75 75
66 66 66
53 53 53
38 38 38
54 54 54
72 72 72
78 78 78
68 68 68
40 40 40
19 19 19
26 26 26
38 38 38
36 36 36
28 28 28
20 20 20
11 11 11
11 11 11
11 11 11
9 9 9
9 9 9
0 0 0
0 0 0
10 10 10
13 13 13
22 22 22
22 22 22
21 21 21
33 33 33
34 34 34
41 41 41
26 26 26
18 18 18
32 32 32
49 49 49
61 61 61
73 73 73
74 74 74
59 59 59
42 42 42
29 29 29
23 23 23
16 16 16
24 24 24
26 26 26
38 38 38
60 60 60
96 96 96
129 129 129
169 169 169
193 193 193
194 194 194
170 170 170
136 136 136
98 98 98
84 84 84
71 71 71
74 74 74
67 67 67
40 40 40
29 29 29
17 17 17
19 19 19
27 27 27
42 42 42
41 41 41
11 11 11
9 9 9
11 11 11
8 8 8
11 11 11
0 0 0
0 0 0
12 12 12
14 14 14
20 20 20
19 19 19
17 17 17
31 31 31
41 41 41
37 37 37
21 21 21
22 22 22
33 33 33
52 52 52
60 60 60
74 74 74
74 74 74
59 59 59
43 43 43
29 29 29
20 20 20
19 19 19
25 25 25
51 51 51
97 97 97
158 158 158
202 202 202
206 206 206
199 199 199
188 188 188
186 186 186
187 187 187
192 192 192
199 199 199
173 173 173
103 103 103
81 81 81
64 64 64
20 20 20
41 41 41
34 34 34
18 18 18
13 13 13
18 18 18
43 43 43
10 10 10
10 10 10
10 10 10
9 9 9
11 11 11
0 0 0
0 0 0
14 14 14
21 21 21
21 21 21
27 27 27
28 28 28
25 25 25
47 47 47
30 30 30
16 16 16
28 28 28
47 47 47
52 52 52
61 61 61
75 75 75
75 75 75
59 59 59
42 42 42
30 30 30
24 24 24
29 29 29
79 79 79
135 135 135
204 204 204
194 194 194
189 189 189
193 193 193
186 186 186
186 186 186
192 192 192
192 192 192
179 179 179
185 185 185
199 199 199
203 203 203
123 123 123
87 87 87
39 39 39
21 21 21
35 35 35
41 41 41
32 32 32
19 19 19
24 24 24
11 11 11
15 15 15
10 10 10
11 11 11
10 10 10
0 0 0
0 0 0
11 11 11
27 27 27
21 21 21
28 28 28
31 31 31
26 26 26
51 51 51
24 24 24
22 22 22
43 43 43
56 56 56
48 48 48
62 62 62
75 75 75
75 75 75
60 60 60
42 42 42
30 30 30
30 30 30
83 83 83
165 165 165
204 204 204
195 195 195
195 195 195
188 188 188
189 189 189
186 186 186
192 192 192
188 188 188
192 192 192
186 186 186
176 176 176
181 181 181
189 189 189
204 204 204
152 152 152
90 90 90
55 55 55
17 17 17
28 28 28
42 42 42
34 34 34
14 14 14
14 14 14
14 14 14
10 10 10
9 9 9
11 11 11
0 0 0
0 0 0
11 11 11
21 21 21
21 21 21
26 26 26
31 31 31
25 25 25
52 52 52
20 20 20
34 34 34
51 51 51
51 51 51
43 43 43
61 61 61
75 75 75
76 76 76
60 60 60
43 43 43
29 29 29
62 62 62
166 166 166
199 199 199
179 179 179
190 190 190
193 193 193
185 185 185
184 184 184
188 188 188
190 190 190
189 189 189
195 195 195
184 184 184
176 176 176
182 182 182
178 178 178
190 190 190
202 202 202
173 173 173
89 89 89
63 63 63
18 18 18
23 23 23
46 46 46
13 13 13
12 12 12
12 12 12
13 13 13
12 12 12
11 11 11
0 0 0
0 0 0
12 12 12
23 23 23
23 23 23
31 31 31
27 27 27
21 21 21
48 48 48
19 19 19
46 46 46
48 48 48
44 44 44
34 34 34
62 62 62
75 75 75
76 76 76
60 60 60
42 42 42
39 39 39
126 126 126
192 192 192
189 189 189
192 192 192
188 188 188
183 183 183
186 186 186
185 185 185
187 187 187
191 191 191
171 171 171
188 188 188
184 184 184
182 182 182
185 185 185
188 188 188
188 188 188
185 185 185
197 197 197
165 165 165
89 89 89
48 48 48
16 16 16
41 41 41
16 16 16
10 10 10
13 13 13
14 14 14
12 12 12
12 12 12
0 0 0
0 0 0
16 16 16
24 24 24
21 21 21
34 34 34
21 21 21
22 22 22
41 41 41
28 28 28
51 51 51
41 41 41
35 35 35
27 27 27
61 61 61
75 75 75
76 76 76
60 60 60
44 44 44
111 111 111
192 192 192
180 180 180
189 189 189
178 178 178
178 178 178
177 177 177
184 184 184
177 177 177
181 181 181
185 185 185
184 184 184
187 187 187
173 173 173
177 177 177
182 182 182
180 180 180
185 185 185
188 188 188
182 182 182
188 188 188
162 162 162
87 87 87
49 49 49
30 30 30
16 16 16
14 14 14
12 12 12
15 15 15
15 15 15
13 13 13
0 0 0
0 0 0
14 14 14
21 21 21
21 21 21
31 31 31
27 27 27
20 20 20
30 30 30
41 41 41
50 50 50
33 33 33
35 35 35
30 30 30
62 62 62
76 76 76
77 77 77
60 60 60
88 88 88
187 187 187
195 195 195
178 178 178
187 187 187
167 167 167
183 183 183
185 185 185
189 189 189
182 182 182
178 178 178
187 187 187
171 171 171
169 169 169
180 180 180
186 186 186
179 179 179
172 172 172
183 183 183
183 183 183
178 178 178
185 185 185
180 180 180
130 130 130
87 87 87
28 28 28
12 12 12
16 16 16
18 18 18
14 14 14
14 14 14
13 13 13
0 0 0
0 0 0
15 15 15
23 23 23
23 23 23
30 30 30
32 32 32
27 27 27
29 29 29
54 54 54
38 38 38
28 28 28
35 35 35
35 35 35
62 62 62
75 75 75
77 77 77
60 60 60
175 175 175
194 194 194
188 188 188
188 188 188
190 190 190
183 183 183
185 185 185
189 189 189
182 182 182
179 179 179
175 175 175
175 175 175
177 177 177
181 181 181
180 180 180
169 169 169
169 169 169
179 179 179
170 170 170
181 181 181
180 180 180
178 178 178
196 196 196
173 173 173
104 104 104
85 85 85
20 20 20
19 19 19
17 17 17
13 13 13
12 12 12
12 12 12
0 0 0
0 0 0
18 18 18
25 25 25
21 21 21
28 28 28
28 28 28
25 25 25
32 32 32
54 54 54
32 32 32
31 31 31
38 38 38
50 50 50
62 62 62
75 75 75
77 77 77
101 101 101
184 184 184
197 197 197
192 192 192
186 186 186
186 186 186
165 165 165
187 187 187
169 169 169
191 191 191
182 182 182
179 179 179
183 183 183
181 181 181
178 178 178
170 170 170
181 181 181
191 191 191
170 170 170
174 174 174
183 183 183
185 185 185
180 180 180
173 173 173
172 172 172
181 181 181
89 89 89
47 47 47
17 17 17
17 17 17
15 15 15
11 11 11
13 13 13
0 0 0
0 0 0
15 15 15
30 30 30
21 21 21
31 31 31
31 31 31
28 28 28
38 38 38
54 54 54
24 24 24
33 33 33
52 52 52
50 50 50
61 61 61
74 74 74
78 78 78
187 187 187
188 188 188
184 184 184
175 175 175
187 187 187
182 182 182
190 190 190
170 170 170
189 189 189
170 170 170
165 165 165
173 173 173
173 173 173
179 179 179
173 173 173
175 175 175
180 180 180
183 183 183
187 187 187
181 181 181
166 166 166
186 186 186
180 180 180
181 181 181
181 181 181
172 172 172
169 169 169
86 86 86
13 13 13
16 16 16
16 16 16
12 12 12
12 12 12
0 0 0
0 0 0
17 17 17
38 38 38
24 24 24
35 35 35
35 35 35
31 31 31
39 39 39
55 55 55
26 26 26
41 41 41
53 53 53
40 40 40
60 60 60
74 74 74
77 77 77
194 194 194
181 181 181
176 176 176
196 196 196
203 203 203
180 180 180
176 176 176
180 180 180
175 175 175
167 167 167
185 185 185
170 170 170
172 172 172
164 164 164
162 162 162
166 166 166
166 166 166
157 157 157
182 182 182
181 181 181
188 188 188
171 171 171
189 189 189
171 171 171
183 183 183
181 181 181
182 182 182
90 90 90
26 26 26
16 16 16
17 17 17
14 14 14
13 13 13
0 0 0
0 0 0
18 18 18
42 42 42
29 29 29
28 28 28
31 31 31
35 35 35
40 40 40
55 55 55
30 30 30
45 45 45
43 43 43
32 32 32
60 60 60
76 76 76
91 91 91
187 187 187
173 173 173
179 179 179
174 174 174
181 181 181
202 202 202
175 175 175
175 175 175
172 172 172
171 171 171
183 183 183
185 185 185
190 190 190
192 192 192
185 185 185
192 192 192
189 189 189
181 181 181
162 162 162
174 174 174
178 178 178
171 171 171
191 191 191
184 184 184
191 191 191
172 172 172
180 180 180
157 157 157
66 66 66
16 16 16
17 17 17
16 16 16
14 14 14
0 0 0
0 0 0
21 21 21
37 37 37
29 29 29
29 29 29
32 32 32
38 38 38
40 40 40
56 56 56
33 33 33
48 48 48
41 41 41
33 33 33
62 62 62
77 77 77
105 105 105
194 194 194
184 184 184
174 174 174
167 167 167
173 173 173
175 175 175
195 195 195
172 172 172
178 178 178
185 185 185
177 177 177
177 177 177
175 175 175
176 176 176
185 185 185
189 189 189
187 187 187
186 186 186
186 186 186
174 174 174
172 172 172
189 189 189
184 184 184
170 170 170
178 178 178
183 183 183
174 174 174
187 187 187
84 84 84
17 17 17
16 16 16
21 21 21
13 13 13
0 0 0
0 0 0
24 24 24
26 26 26
23 23 23
30 30 30
36 36 36
40 40 40
40 40 40
57 57 57
39 39 39
49 49 49
42 42 42
35 35 35
62 62 62
76 76 76
129 129 129
192 192 192
172 172 172
188 188 188
176 176 176
207 207 207
199 199 199
174 174 174
195 195 195
182 182 182
171 171 171
167 167 167
169 169 169
167 167 167
170 170 170
177 177 177
169 169 169
168 168 168
197 197 197
176 176 176
186 186 186
177 177 177
171 171 171
184 184 184
185 185 185
174 174 174
172 172 172
185 185 185
184 184 184
86 86 86
21 21 21
19 19 19
22 22 22
11 11 11
0 0 0
0 0 0
22 22 22
29 29 29
20 20 20
26 26 26
34 34 34
39 39 39
37 37 37
58 58 58
34 34 34
47 47 47
45 45 45
36 36 36
63 63 63
77 77 77
156 156 156
184 184 184
170 170 170
182 182 182
187 187 187
185 185 185
188 188 188
210 210 210
194 194 194
187 187 187
167 167 167
175 175 175
167 167 167
168 168 168
183 183 183
184 184 184
160 160 160
163 163 163
184 184 184
182 182 182
186 186 186
186 186 186
202 202 202
194 194 194
186 186 186
191 191 191
191 191 191
181 181 181
182 182 182
85 85 85
24 24 24
17 17 17
19 19 19
13 13 13
0 0 0
0 0 0
27 27 27
30 30 30
21 21 21
28 28 28
28 28 28
43 43 43
38 38 38
59 59 59
34 34 34
46 46 46
49 49 49
36 36 36
63 63 63
78 78 78
172 172 172
196 196 196
187 187 187
186 186 186
184 184 184
208 208 208
211 211 211
174 174 174
193 193 193
166 166 166
165 165 165
176 176 176
164 164 164
170 170 170
164 164 164
170 170 170
161 161 161
166 166 166
172 172 172
168 168 168
171 171 171
205 205 205
173 173 173
193 193 193
179 179 179
183 183 183
183 183 183
181 181 181
186 186 186
85 85 85
29 29 29
20 20 20
20 20 20
15 15 15
0 0 0
0 0 0
21 21 21
31 31 31
20 20 20
27 27 27
27 27 27
39 39 39
36 36 36
57 57 57
33 33 33
44 44 44
50 50 50
36 36 36
62 62 62
77 77 77
193 193 193
203 203 203
191 191 191
187 187 187
182 182 182
193 193 193
196 196 196
170 170 170
188 188 188
154 154 154
165 165 165
162 162 162
158 158 158
186 186 186
190 190 190
194 194 194
187 187 187
171 171 171
170 170 170
169 169 169
167 167 167
191 191 191
205 205 205
196 196 196
176 176 176
177 177 177
180 180 180
191 191 191
184 184 184
87 87 87
33 33 33
20 20 20
20 20 20
15 15 15
0 0 0
0 0 0
19 19 19
23 23 23
26 26 26
33 33 33
31 31 31
31 31 31
34 34 34
58 58 58
37 37 37
42 42 42
52 52 52
40 40 40
64 64 64
77 77 77
202 202 202
191 191 191
194 194 194
188 188 188
209 209 209
179 179 179
200 200 200
180 180 180
189 189 189
167 167 167
159 159 159
172 172 172
181 181 181
193 193 193
191 191 191
185 185 185
194 194 194
194 194 194
172 172 172
166 166 166
149 149 149
184 184 184
183 183 183
190 190 190
178 178 178
179 179 179
183 183 183
195 195 195
189 189 189
86 86 86
28 28 28
19 19 19
21 21 21
14 14 14
0 0 0
0 0 0
16 16 16
22 22 22
23 23 23
36 36 36
27 27 27
35 35 35
33 33 33
58 58 58
41 41 41
39 39 39
55 55 55
37 37 37
65 65 65
78 78 78
208 208 208
190 190 190
190 190 190
193 193 193
194 194 194
185 185 185
201 201 201
175 175 175
197 197 197
169 169 169
171 171 171
192 192 192
193 193 193
183 183 183
176 176 176
158 158 158
182 182 182
196 196 196
178 178 178
162 162 162
166 166 166
193 193 193
181 181 181
197 197 197
179 179 179
180 180 180
187 187 187
193 193 193
192 192 192
86 86 86
24 24 24
22 22 22
21 21 21
14 14 14
0 0 0
0 0 0
11 11 11
20 20 20
19 19 19
31 31 31
29 29 29
36 36 36
29 29 29
56 56 56
42 42 42
35 35 35
53 53 53
39 39 39
65 65 65
79 79 79
209 209 209
193 193 193
191 191 191
201 201 201
195 195 195
189 189 189
205 205 205
173 173 173
199 199 199
177 177 177
169 169 169
191 191 191
190 190 190
182 182 182
170 170 170
151 151 151
173 173 173
178 178 178
190 190 190
164 164 164
169 169 169
197 197 197
176 176 176
199 199 199
182 182 182
170 170 170
183 183 183
178 178 178
199 199 199
85 85 85
24 24 24
20 20 20
20 20 20
13 13 13
0 0 0
0 0 0
12 12 12
15 15 15
16 16 16
28 28 28
30 30 30
39 39 39
29 29 29
52 52 52
44 44 44
35 35 35
52 52 52
44 44 44
64 64 64
78 78 78
206 206 206
196 196 196
197 197 197
205 205 205
200 200 200
195 195 195
197 197 197
182 182 182
203 203 203
182 182 182
175 175 175
195 195 195
187 187 187
180 180 180
161 161 161
155 155 155
155 155 155
175 175 175
186 186 186
176 176 176
170 170 170
198 198 198
179 179 179
198 198 198
187 187 187
188 188 188
192 192 192
190 190 190
200 200 200
87 87 87
27 27 27
21 21 21
21 21 21
11 11 11
0 0 0
0 0 0
13 13 13
16 16 16
14 14 14
27 27 27
29 29 29
39 39 39
31 31 31
46 46 46
48 48 48
36 36 36
46 46 46
47 47 47
64 64 64
78 78 78
209 209 209
189 189 189
200 200 200
187 187 187
197 197 197
203 203 203
178 178 178
193 193 193
205 205 205
192 192 192
172 172 172
188 188 188
175 175 175
160 160 160
160 160 160
173 173 173
147 147 147
157 157 157
186 186 186
174 174 174
170 170 170
201 201 201
176 176 176
192 192 192
190 190 190
202 202 202
194 194 194
193 193 193
198 198 198
88 88 88
23 23 23
23 23 23
22 22 22
11 11 11
0 0 0
0 0 0
14 14 14
15 15 15
19 19 19
33 33 33
40 40 40
36 36 36
31 31 31
38 38 38
50 50 50
28 28 28
37 37 37
49 49 49
64 64 64
78 78 78
214 214 214
193 193 193
194 194 194
195 195 195
199 199 199
183 183 183
187 187 187
199 199 199
199 199 199
188 188 188
171 171 171
191 191 191
171 171 171
166 166 166
164 164 164
154 154 154
139 139 139
162 162 162
173 173 173
188 188 188
187 187 187
205 205 205
187 187 187
184 184 184
186 186 186
187 187 187
186 186 186
191 191 191
202 202 202
88 88 88
52 52 52
22 22 22
22 22 22
13 13 13
0 0 0
0 0 0
9 9 9
16 16 16
17 17 17
27 27 27
42 42 42
33 33 33
33 33 33
31 31 31
54 54 54
24 24 24
35 35 35
51 51 51
64 64 64
78 78 78
223 223 223
191 191 191
196 196 196
201 201 201
200 200 200
186 186 186
187 187 187
189 189 189
183 183 183
181 181 181
178 178 178
191 191 191
179 179 179
180 180 180
169 169 169
155 155 155
150 150 150
162 162 162
171 171 171
194 194 194
175 175 175
201 201 201
186 186 186
181 181 181
173 173 173
177 177 177
194 194 194
196 196 196
206 206 206
82 82 82
83 83 83
32 32 32
22 22 22
13 13 13
0 0 0
0 0 0
13 13 13
16 16 16
17 17 17
24 24 24
40 40 40
33 33 33
36 36 36
28 28 28
54 54 54
22 22 22
36 36 36
50 50 50
64 64 64
78 78 78
226 226 226
191 191 191
195 195 195
192 192 192
205 205 205
190 190 190
186 186 186
192 192 192
181 181 181
186 186 186
185 185 185
198 198 198
179 179 179
182 182 182
168 168 168
156 156 156
158 158 158
164 164 164
176 176 176
196 196 196
171 171 171
199 199 199
183 183 183
189 189 189
184 184 184
183 183 183
190 190 190
185 185 185
211 211 211
84 84 84
88 88 88
28 28 28
20 20 20
11 11 11
0 0 0
0 0 0
24 24 24
27 27 27
17 17 17
34 34 34
36 36 36
33 33 33
49 49 49
33 33 33
50 50 50
25 25 25
35 35 35
49 49 49
77 77 77
80 80 80
204 204 204
188 188 188
199 199 199
204 204 204
190 190 190
163 163 163
204 204 204
190 190 190
237 237 237
203 203 203
172 172 172
190 190 190
191 191 191
184 184 184
183 183 183
178 178 178
180 180 180
190 190 190
194 194 194
180 180 180
183 183 183
194 194 194
195 195 195
189 189 189
188 188 188
183 183 183
195 195 195
190 190 190
210 210 210
88 88 88
67 67 67
21 21 21
22 22 22
9 9 9
0 0 0
0 0 0
23 23 23
31 31 31
18 18 18
28 28 28
25 25 25
29 29 29
52 52 52
34 34 34
43 43 43
32 32 32
35 35 35
47 47 47
66 66 66
81 81 81
166 166 166
202 202 202
181 181 181
204 204 204
201 201 201
186 186 186
211 211 211
204 204 204
222 222 222
194 194 194
192 192 192
180 180 180
176 176 176
165 165 165
163 163 163
152 152 152
173 173 173
167 167 167
171 171 171
179 179 179
212 212 212
217 217 217
196 196 196
188 188 188
182 182 182
186 186 186
196 196 196
185 185 185
185 185 185
90 90 90
56 56 56
16 16 16
20 20 20
11 11 11
0 0 0
0 0 0
27 27 27
24 24 24
17 17 17
28 28 28
21 21 21
30 30 30
51 51 51
32 32 32
42 42 42
31 31 31
35 35 35
49 49 49
69 69 69
81 81 81
121 121 121
213 213 213
199 199 199
211 211 211
206 206 206
197 197 197
204 204 204
200 200 200
193 193 193
187 187 187
202 202 202
192 192 192
182 182 182
177 177 177
178 178 178
153 153 153
177 177 177
180 180 180
187 187 187
195 195 195
211 211 211
211 211 211
193 193 193
186 186 186
182 182 182
191 191 191
194 194 194
200 200 200
102 102 102
91 91 91
36 36 36
16 16 16
15 15 15
10 10 10
0 0 0
0 0 0
25 25 25
19 19 19
16 16 16
35 35 35
21 21 21
30 30 30
52 52 52
27 27 27
40 40 40
34 34 34
35 35 35
46 46 46
70 70 70
88 88 88
90 90 90
211 211 211
213 213 213
203 203 203
201 201 201
205 205 205
208 208 208
195 195 195
200 200 200
207 207 207
188 188 188
192 192 192
192 192 192
193 193 193
186 186 186
187 187 187
194 194 194
197 197 197
193 193 193
185 185 185
219 219 219
204 204 204
195 195 195
200 200 200
198 198 198
200 200 200
191 191 191
214 214 214
86 86 86
83 83 83
29 29 29
20 20 20
13 13 13
11 11 11
0 0 0
0 0 0
19 19 19
21 21 21
23 23 23
34 34 34
21 21 21
29 29 29
52 52 52
25 25 25
37 37 37
33 33 33
34 34 34
42 42 42
72 72 72
82 82 82
91 91 91
200 200 200
215 215 215
202 202 202
212 212 212
213 213 213
208 208 208
187 187 187
196 196 196
206 206 206
209 209 209
195 195 195
185 185 185
178 178 178
173 173 173
173 173 173
177 177 177
189 189 189
195 195 195
199 199 199
195 195 195
198 198 198
187 187 187
205 205 205
200 200 200
198 198 198
206 206 206
195 195 195
86 86 86
87 87 87
31 31 31
16 16 16
13 13 13
10 10 10
0 0 0
0 0 0
18 18 18
19 19 19
23 23 23
24 24 24
22 22 22
30 30 30
48 48 48
25 25 25
33 33 33
31 31 31
34 34 34
37 37 37
73 73 73
85 85 85
89 89 89
131 131 131
213 213 213
213 213 213
208 208 208
212 212 212
207 207 207
207 207 207
192 192 192
207 207 207
214 214 214
200 200 200
186 186 186
191 191 191
195 195 195
195 195 195
188 188 188
187 187 187
189 189 189
204 204 204
204 204 204
198 198 198
189 189 189
205 205 205
211 211 211
205 205 205
202 202 202
121 121 121
88 88 88
90 90 90
30 30 30
24 24 24
13 13 13
12 12 12
0 0 0
0 0 0
19 19 19
15 15 15
24 24 24
19 19 19
26 26 26
19 19 19
45 45 45
33 33 33
31 31 31
34 34 34
33 33 33
32 32 32
74 74 74
86 86 86
91 91 91
93 93 93
185 185 185
216 216 216
205 205 205
209 209 209
204 204 204
204 204 204
201 201 201
202 202 202
210 210 210
209 209 209
200 200 200
200 200 200
203 203 203
202 202 202
200 200 200
208 208 208
199 199 199
211 211 211
204 204 204
203 203 203
205 205 205
211 211 211
206 206 206
212 212 212
209 209 209
91 91 91
92 92 92
79 79 79
56 56 56
23 23 23
13 13 13
13 13 13
0 0 0
0 0 0
21 21 21
17 17 17
24 24 24
24 24 24
29 29 29
24 24 24
45 45 45
26 26 26
30 30 30
38 38 38
33 33 33
28 28 28
75 75 75
85 85 85
92 92 92
91 91 91
198 198 198
211 211 211
213 213 213
204 204 204
193 193 193
197 197 197
200 200 200
207 207 207
199 199 199
218 218 218
203 203 203
213 213 213
216 216 216
213 213 213
210 210 210
203 203 203
203 203 203
194 194 194
196 196 196
192 192 192
201 201 201
196 196 196
200 200 200
195 195 195
187 187 187
87 87 87
91 91 91
89 89 89
57 57 57
20 20 20
11 11 11
11 11 11
0 0 0
0 0 0
13 13 13
20 20 20
18 18 18
24 24 24
28 28 28
24 24 24
43 43 43
29 29 29
29 29 29
41 41 41
31 31 31
24 24 24
92 92 92
84 84 84
84 84 84
87 87 87
178 178 178
178 178 178
183 183 183
206 206 206
192 192 192
198 198 198
235 235 235
217 217 217
247 247 247
199 199 199
234 234 234
223 223 223
192 192 192
222 222 222
228 228 228
228 228 228
196 196 196
194 194 194
194 194 194
200 200 200
190 190 190
194 194 194
203 203 203
202 202 202
145 145 145
88 88 88
87 87 87
91 91 91
36 36 36
24 24 24
13 13 13
8 8 8
0 0 0
0 0 0
12 12 12
25 25 25
24 24 24
29 29 29
25 25 25
26 26 26
42 42 42
28 28 28
27 27 27
43 43 43
30 30 30
19 19 19
81 81 81
86 86 86
84 84 84
83 83 83
100 100 100
180 180 180
184 184 184
162 162 162
181 181 181
198 198 198
240 240 240
210 210 210
190 190 190
187 187 187
208 208 208
215 215 215
186 186 186
226 226 226
215 215 215
219 219 219
246 246 246
194 194 194
176 176 176
200 200 200
190 190 190
196 196 196
177 177 177
206 206 206
92 92 92
87 87 87
86 86 86
91 91 91
27 27 27
21 21 21
11 11 11
17 17 17
0 0 0
0 0 0
22 22 22
22 22 22
23 23 23
35 35 35
30 30 30
27 27 27
44 44 44
26 26 26
26 26 26
44 44 44
30 30 30
24 24 24
78 78 78
84 84 84
80 80 80
63 63 63
106 106 106
113 113 113
188 188 188
171 171 171
188 188 188
230 230 230
225 225 225
208 208 208
202 202 202
155 155 155
227 227 227
230 230 230
190 190 190
179 179 179
231 231 231
238 238 238
252 252 252
222 222 222
178 178 178
175 175 175
172 172 172
145 145 145
178 178 178
112 112 112
95 95 95
81 81 81
85 85 85
80 80 80
18 18 18
18 18 18
14 14 14
19 19 19
0 0 0
0 0 0
15 15 15
21 21 21
20 20 20
27 27 27
28 28 28
23 23 23
43 43 43
28 28 28
24 24 24
42 42 42
32 32 32
28 28 28
78 78 78
84 84 84
82 82 82
72 72 72
87 87 87
92 92 92
164 164 164
193 193 193
153 153 153
124 124 124
131 131 131
175 175 175
209 209 209
155 155 155
122 122 122
160 160 160
157 157 157
184 184 184
146 146 146
171 171 171
179 179 179
128 128 128
167 167 167
193 193 193
161 161 161
181 181 181
92 92 92
89 89 89
89 89 89
83 83 83
85 85 85
44 44 44
17 17 17
16 16 16
15 15 15
7 7 7
0 0 0
0 0 0
24 24 24
14 14 14
21 21 21
17 17 17
22 22 22
23 23 23
42 42 42
27 27 27
20 20 20
44 44 44
34 34 34
28 28 28
71 71 71
70 70 70
63 63 63
51 51 51
96 96 96
108 108 108
132 132 132
195 195 195
254 254 254
217 217 217
215 215 215
214 214 214
176 176 176
172 172 172
185 185 185
190 190 190
157 157 157
177 177 177
194 194 194
195 195 195
243 243 243
224 224 224
185 185 185
149 149 149
119 119 119
183 183 183
134 134 134
83 83 83
74 74 74
39 39 39
28 28 28
19 19 19
36 36 36
20 20 20
13 13 13
17 17 17
0 0 0
0 0 0
20 20 20
16 16 16
20 20 20
24 24 24
21 21 21
21 21 21
42 42 42
27 27 27
18 18 18
45 45 45
41 41 41
22 22 22
89 89 89
87 87 87
76 76 76
59 59 59
80 80 80
87 87 87
110 110 110
151 151 151
154 154 154
199 199 199
229 229 229
236 236 236
208 208 208
228 228 228
231 231 231
237 237 237
208 208 208
202 202 202
221 221 221
188 188 188
252 252 252
193 193 193
207 207 207
170 170 170
125 125 125
151 151 151
109 109 109
83 83 83
48 48 48
23 23 23
19 19 19
25 25 25
20 20 20
17 17 17
15 15 15
15 15 15
0 0 0
0 0 0
14 14 14
18 18 18
13 13 13
23 23 23
20 20 20
21 21 21
43 43 43
27 27 27
19 19 19
42 42 42
33 33 33
19 19 19
86 86 86
82 82 82
63 63 63
42 42 42
77 77 77
92 92 92
111 111 111
198 198 198
136 136 136
187 187 187
236 236 236
194 194 194
254 254 254
218 218 218
180 180 180
185 185 185
193 193 193
188 188 188
199 199 199
164 164 164
193 193 193
202 202 202
134 134 134
149 149 149
163 163 163
114 114 114
91 91 91
88 88 88
47 47 47
16 16 16
16 16 16
16 16 16
14 14 14
22 22 22
12 12 12
7 7 7
0 0 0
0 0 0
17 17 17
15 15 15
22 22 22
24 24 24
24 24 24
20 20 20
44 44 44
28 28 28
20 20 20
43 43 43
32 32 32
19 19 19
87 87 87
82 82 82
62 62 62
42 42 42
61 61 61
91 91 91
119 119 119
203 203 203
174 174 174
190 190 190
215 215 215
168 168 168
208 208 208
207 207 207
198 198 198
210 210 210
185 185 185
183 183 183
200 200 200
149 149 149
169 169 169
147 147 147
192 192 192
150 150 150
154 154 154
90 90 90
88 88 88
74 74 74
47 47 47
16 16 16
15 15 15
20 20 20
15 15 15
22 22 22
14 14 14
6 6 6
0 0 0
0 0 0
18 18 18
16 16 16
18 18 18
25 25 25
32 32 32
19 19 19
46 46 46
27 27 27
20 20 20
40 40 40
32 32 32
21 21 21
90 90 90
82 82 82
59 59 59
39 39 39
43 43 43
91 91 91
96 96 96
202 202 202
177 177 177
146 146 146
142 142 142
184 184 184
176 176 176
186 186 186
154 154 154
162 162 162
155 155 155
154 154 154
172 172 172
160 160 160
127 127 127
123 123 123
177 177 177
183 183 183
139 139 139
90 90 90
87 87 87
20 20 20
46 46 46
16 16 16
15 15 15
17 17 17
14 14 14
18 18 18
17 17 17
6 6 6
0 0 0
0 0 0
20 20 20
12 12 12
24 24 24
28 28 28
27 27 27
21 21 21
46 46 46
23 23 23
21 21 21
39 39 39
33 33 33
24 24 24
91 91 91
79 79 79
57 57 57
36 36 36
42 42 42
91 91 91
90 90 90
154 154 154
182 182 182
142 142 142
137 137 137
179 179 179
208 208 208
202 202 202
146 146 146
153 153 153
151 151 151
174 174 174
171 171 171
167 167 167
130 130 130
130 130 130
176 176 176
154 154 154
106 106 106
89 89 89
86 86 86
18 18 18
45 45 45
18 18 18
19 19 19
16 16 16
15 15 15
17 17 17
15 15 15
6 6 6
0 0 0
0 0 0
13 13 13
15 15 15
22 22 22
28 28 28
28 28 28
20 20 20
47 47 47
25 25 25
22 22 22
38 38 38
32 32 32
25 25 25
90 90 90
78 78 78
53 53 53
35 35 35
40 40 40
92 92 92
90 90 90
90 90 90
206 206 206
189 189 189
188 188 188
177 177 177
194 194 194
205 205 205
175 175 175
175 175 175
202 202 202
169 169 169
142 142 142
124 124 124
136 136 136
134 134 134
176 176 176
88 88 88
90 90 90
85 85 85
72 72 72
24 24 24
45 45 45
19 19 19
21 21 21
18 18 18
12 12 12
16 16 16
17 17 17
13 13 13
0 0 0
0 0 0
14 14 14
21 21 21
25 25 25
29 29 29
22 22 22
18 18 18
48 48 48
22 22 22
23 23 23
39 39 39
31 31 31
27 27 27
90 90 90
77 77 77
52 52 52
32 32 32
38 38 38
91 91 91
90 90 90
89 89 89
105 105 105
202 202 202
222 222 222
208 208 208
161 161 161
208 208 208
198 198 198
173 173 173
204 204 204
175 175 175
143 143 143
158 158 158
179 179 179
190 190 190
88 88 88
89 89 89
90 90 90
83 83 83
21 21 21
17 17 17
46 46 46
16 16 16
17 17 17
15 15 15
14 14 14
19 19 19
16 16 16
20 20 20
0 0 0
0 0 0
8 8 8
12 12 12
26 26 26
22 22 22
18 18 18
20 20 20
43 43 43
19 19 19
23 23 23
39 39 39
31 31 31
29 29 29
90 90 90
77 77 77
53 53 53
33 33 33
36 36 36
91 91 91
90 90 90
90 90 90
89 89 89
101 101 101
212 212 212
224 224 224
222 222 222
168 168 168
196 196 196
182 182 182
183 183 183
214 214 214
212 212 212
209 209 209
170 170 170
90 90 90
87 87 87
89 89 89
89 89 89
82 82 82
21 21 21
18 18 18
46 46 46
19 19 19
17 17 17
18 18 18
13 13 13
15 15 15
18 18 18
11 11 11
0 0 0
0 0 0
0 0 0
0 0 0
0 0 0
0 0 0
0 0 0
0 0 0
0 0 0
0 0 0
0 0 0
0 0 0
0 0 0
0 0 0
0 0 0
0 0 0
0 0 0
0 0 0
0 0 0
0 0 0
0 0 0
0 0 0
0 0 0
0 0 0
0 0 0
0 0 0
0 0 0
0 0 0
0 0 0
0 0 0
0 0 0
0 0 0
0 0 0
0 0 0
0 0 0
0 0 0
0 0 0
0 0 0
0 0 0
0 0 0
0 0 0
0 0 0
0 0 0
0 0 0
0 0 0
0 0 0
0 0 0
0 0 0
0 0 0
0 0 0
