P3 
50 50 
255
0 0 0
0 0 0
0 0 0
0 0 0
0 0 0
0 0 0
0 0 0
0 0 0
0 0 0
0 0 0
0 0 0
0 0 0
0 0 0
0 0 0
0 0 0
0 0 0
0 0 0
0 0 0
0 0 0
0 0 0
0 0 0
0 0 0
0 0 0
0 0 0
0 0 0
0 0 0
0 0 0
0 0 0
0 0 0
0 0 0
0 0 0
0 0 0
0 0 0
0 0 0
0 0 0
0 0 0
0 0 0
0 0 0
0 0 0
0 0 0
0 0 0
0 0 0
0 0 0
0 0 0
0 0 0
0 0 0
0 0 0
0 0 0
0 0 0
0 0 0
0 0 0
0 0 0
0 0 0
1 0 1
1 0 1
2 0 2
1 0 1
3 0 3
4 0 4
4 1 4
4 0 4
3 0 3
3 0 3
4 0 4
4 0 4
3 0 3
4 0 4
10 0 10
16 1 16
22 4 22
24 6 24
21 4 21
12 0 12
6 0 6
4 0 4
3 0 3
3 0 3
4 0 4
5 1 5
4 0 4
2 0 2
2 0 2
1 0 1
1 0 1
2 0 2
2 0 2
2 0 2
2 0 2
2 0 2
1 0 1
1 0 1
0 0 0
0 0 0
0 0 0
0 0 0
0 0 0
0 0 0
0 0 0
0 0 0
0 0 0
0 0 0
0 0 0
1 0 1
1 0 1
1 0 1
1 0 1
1 0 1
3 0 3
4 0 4
5 0 5
4 0 4
3 0 3
3 0 3
4 0 4
9 0 9
31 10 31
52 29 52
73 51 73
96 77 96
113 97 113
120 106 120
113 97 113
97 78 97
73 51 73
45 23 45
20 2 20
5 0 5
4 0 4
5 1 5
4 0 4
2 0 2
3 0 3
1 0 1
1 0 1
1 0 1
2 0 2
2 0 2
2 0 2
2 0 2
1 0 1
1 0 1
0 0 0
0 0 0
0 0 0
0 0 0
0 0 0
0 0 0
0 0 0
0 0 0
0 0 0
0 0 0
0 0 0
1 0 1
1 0 1
1 0 1
1 0 1
2 0 2
3 0 3
4 0 4
5 0 5
4 0 4
3 0 3
8 0 8
28 7 28
62 38 62
113 99 113
146 140 146
153 147 153
153 146 153
155 148 155
157 150 157
159 154 159
155 148 155
152 144 152
133 121 133
105 88 105
50 27 50
17 1 17
6 1 6
4 0 4
2 0 2
4 0 4
2 0 2
1 0 1
1 0 1
2 0 2
3 0 3
2 0 2
2 0 2
2 0 2
1 0 1
0 0 0
0 0 0
0 0 0
0 0 0
0 0 0
0 0 0
0 0 0
0 0 0
0 0 0
0 0 0
0 0 0
0 0 0
1 0 1
2 0 2
2 0 2
2 0 2
3 0 3
4 0 4
5 0 5
5 0 5
21 5 21
46 22 46
95 76 95
134 124 134
146 138 146
143 132 143
140 127 140
136 122 136
132 116 132
131 115 131
135 121 135
145 133 145
153 145 153
155 148 155
152 143 152
134 123 134
87 66 87
30 9 30
5 0 5
2 0 2
3 0 3
3 0 3
1 0 1
1 0 1
1 0 1
3 0 3
2 0 2
2 0 2
2 0 2
1 0 1
1 0 1
0 0 0
0 0 0
0 0 0
0 0 0
0 0 0
0 0 0
0 0 0
0 0 0
0 0 0
0 0 0
0 0 0
1 0 1
2 0 2
2 0 2
1 0 1
4 0 4
5 0 5
13 1 13
32 11 32
59 35 59
109 92 109
135 124 135
132 118 132
129 112 129
131 115 131
139 126 139
131 114 131
119 97 119
115 92 115
123 103 123
129 112 129
139 126 139
149 139 149
161 154 161
153 144 153
139 127 139
108 91 108
33 12 33
3 0 3
3 0 3
4 0 4
2 0 2
1 0 1
1 0 1
2 0 2
2 0 2
2 0 2
2 0 2
1 0 1
1 0 1
0 0 0
0 0 0
0 0 0
0 0 0
0 0 0
0 0 0
0 0 0
0 0 0
0 0 0
0 0 0
0 0 0
2 0 2
1 0 1
2 0 2
2 0 2
5 0 5
16 1 16
39 16 39
72 49 72
118 102 118
139 128 139
133 118 133
128 111 128
127 109 127
131 114 131
128 109 128
122 100 122
118 94 118
118 95 118
117 95 117
121 101 121
129 112 129
139 126 139
150 139 150
155 145 155
150 139 150
144 133 144
110 94 110
24 7 24
3 0 3
3 0 3
2 0 2
2 0 2
1 0 1
2 0 2
2 0 2
2 0 2
2 0 2
1 0 1
1 0 1
1 0 1
0 0 0
0 0 0
0 0 0
0 0 0
0 0 0
0 0 0
0 0 0
0 0 0
1 0 1
1 0 1
2 0 2
1 0 1
2 0 2
2 0 2
12 0 12
40 17 40
77 55 77
118 102 118
139 127 139
129 112 129
123 103 123
117 95 117
122 101 122
124 103 124
121 99 121
119 95 119
117 92 117
114 90 114
113 89 113
114 91 114
114 92 114
119 99 119
133 117 133
145 133 145
148 136 148
147 134 147
140 128 140
90 72 90
9 0 9
2 0 2
2 0 2
2 0 2
1 0 1
2 0 2
1 0 1
1 0 1
1 0 1
1 0 1
1 0 1
1 0 1
0 0 0
0 0 0
0 0 0
0 0 0
0 0 0
0 0 0
0 0 0
0 0 0
1 0 1
1 0 1
1 0 1
2 0 2
2 0 2
6 0 6
39 15 39
77 55 77
118 102 118
133 119 133
130 115 130
120 99 120
111 87 111
112 86 112
113 87 113
116 92 116
114 89 114
113 88 113
112 87 112
111 85 111
110 84 110
113 89 113
110 85 110
110 86 110
114 91 114
125 105 125
135 119 135
141 126 141
142 129 142
140 129 140
53 29 53
3 0 3
2 0 2
2 0 2
1 0 1
2 0 2
1 0 1
1 0 1
1 0 1
2 0 2
1 0 1
1 0 1
0 0 0
0 0 0
0 0 0
0 0 0
0 0 0
0 0 0
0 0 0
0 0 0
1 0 1
1 0 1
1 0 1
2 0 2
3 0 3
29 8 29
68 45 68
112 94 112
128 114 128
130 115 130
119 99 119
112 88 112
115 92 115
111 86 111
111 85 111
113 87 113
109 82 109
107 80 107
110 84 110
106 79 106
107 81 107
105 78 105
106 79 106
105 78 105
108 82 108
112 88 112
120 99 120
127 108 127
136 121 136
149 139 149
120 104 120
15 1 15
2 0 2
2 0 2
2 0 2
2 0 2
2 0 2
1 0 1
2 0 2
2 0 2
1 0 1
1 0 1
1 0 1
1 0 1
0 0 0
0 0 0
0 0 0
0 0 0
0 0 0
0 0 0
1 0 1
1 0 1
2 0 2
3 0 3
17 2 17
58 34 58
106 88 106
125 109 125
131 115 131
118 99 118
108 84 108
110 84 110
108 81 108
106 78 106
104 75 104
105 76 105
103 73 103
104 76 104
105 76 105
105 77 105
105 77 105
109 83 109
107 80 107
106 79 106
108 81 108
110 85 110
113 89 113
124 105 124
126 108 126
140 127 140
138 124 138
59 35 59
4 0 4
3 0 3
3 0 3
2 0 2
2 0 2
1 0 1
2 0 2
2 0 2
1 0 1
1 0 1
1 0 1
0 0 0
0 0 0
0 0 0
0 0 0
0 0 0
0 0 0
0 0 0
1 0 1
1 0 1
1 0 1
5 0 5
37 15 37
92 73 92
125 110 125
130 114 130
117 97 117
110 87 110
106 81 106
107 80 107
107 80 107
106 77 106
108 80 108
107 80 107
105 76 105
105 76 105
105 77 105
102 73 102
105 78 105
104 75 104
105 79 105
103 77 103
103 75 103
105 78 105
105 79 105
111 87 111
126 109 126
131 116 131
141 127 141
108 88 108
10 0 10
3 0 3
4 0 4
3 0 3
2 0 2
1 0 1
2 0 2
2 0 2
1 0 1
1 0 1
1 0 1
0 0 0
0 0 0
0 0 0
0 0 0
0 0 0
0 0 0
0 0 0
1 0 1
1 0 1
2 0 2
16 1 16
67 45 67
122 108 122
131 117 131
125 107 125
118 97 118
114 93 114
107 82 107
106 80 106
109 82 109
105 76 105
102 72 102
101 70 101
98 66 98
100 69 100
103 74 103
102 74 102
100 70 100
105 78 105
105 78 105
104 77 104
102 74 102
104 76 104
103 76 103
103 77 103
109 85 109
126 110 126
139 126 139
125 108 125
25 5 25
2 0 2
4 0 4
3 0 3
2 0 2
2 0 2
2 0 2
2 0 2
1 0 1
1 0 1
1 0 1
0 0 0
0 0 0
0 0 0
0 0 0
0 0 0
0 0 0
0 0 0
1 0 1
1 0 1
2 0 2
25 7 25
96 80 96
131 118 131
131 116 131
119 99 119
112 90 112
106 81 106
104 77 104
101 72 101
105 77 105
104 74 104
104 74 104
105 76 105
101 71 101
98 66 98
100 70 100
102 72 102
102 72 102
103 74 103
104 76 104
105 78 105
101 73 101
102 75 102
101 74 101
98 69 98
104 78 104
125 108 125
134 120 134
131 114 131
48 22 48
3 0 3
4 0 4
4 0 4
2 0 2
2 0 2
2 0 2
3 0 3
2 0 2
1 0 1
2 0 2
1 0 1
0 0 0
0 0 0
0 0 0
0 0 0
0 0 0
0 0 0
1 0 1
1 0 1
5 0 5
48 26 48
116 103 116
132 120 132
125 108 125
111 89 111
108 84 108
102 76 102
104 77 104
105 78 105
112 86 112
109 82 109
109 81 109
106 78 106
103 74 103
104 74 104
101 70 101
102 72 102
102 73 102
102 73 102
102 74 102
100 71 100
97 66 97
100 70 100
100 72 100
99 70 99
102 75 102
112 90 112
125 107 125
131 114 131
65 39 65
4 0 4
4 0 4
4 0 4
3 0 3
4 0 4
3 0 3
3 0 3
2 0 2
1 0 1
2 0 2
1 0 1
0 0 0
0 0 0
0 0 0
0 0 0
0 0 0
0 0 0
1 0 1
1 0 1
9 0 9
76 57 76
129 117 129
127 112 127
117 98 117
108 85 108
108 84 108
105 79 105
104 77 104
105 77 105
110 84 110
106 78 106
104 74 104
102 72 102
100 69 100
103 73 103
106 77 106
99 68 99
101 70 101
103 74 103
99 69 99
100 71 100
99 68 99
99 70 99
97 68 97
98 68 98
98 69 98
105 79 105
121 102 121
131 114 131
76 48 76
6 0 6
4 0 4
4 0 4
3 0 3
3 0 3
3 0 3
3 0 3
2 0 2
2 0 2
2 0 2
1 0 1
0 0 0
0 0 0
0 0 0
0 0 0
0 0 0
0 0 0
1 0 1
2 0 2
15 1 15
92 76 92
132 120 132
128 113 128
115 95 115
106 82 106
108 83 108
100 72 100
98 68 98
99 68 99
102 72 102
98 67 98
97 65 97
98 66 98
97 64 97
99 67 99
104 74 104
102 72 102
102 72 102
100 70 100
99 69 99
101 72 101
102 72 102
102 74 102
98 69 98
97 67 97
99 71 99
109 84 109
121 101 121
133 115 133
85 57 85
9 0 9
5 0 5
4 0 4
4 0 4
3 0 3
2 0 2
1 0 1
0 0 0
1 0 1
1 0 1
1 0 1
1 0 1
0 0 0
0 0 0
0 0 0
0 0 0
0 0 0
1 0 1
2 0 2
21 5 21
101 86 101
131 119 131
122 106 122
116 96 116
106 81 106
105 78 105
97 68 97
94 63 94
95 63 95
98 66 98
97 65 97
98 65 98
99 66 99
97 63 97
98 65 98
101 69 101
105 75 105
100 70 100
100 71 100
99 70 99
99 69 99
99 70 99
97 68 97
99 70 99
99 71 99
98 70 98
109 84 109
123 103 123
137 121 137
99 74 99
12 0 12
4 0 4
4 0 4
3 0 3
3 0 3
2 0 2
1 0 1
1 0 1
1 0 1
1 0 1
0 0 0
0 0 0
0 0 0
0 0 0
0 0 0
0 0 0
0 0 0
2 0 2
2 0 2
25 8 25
108 95 108
130 117 130
120 102 120
116 96 116
110 85 110
105 77 105
98 68 98
97 66 97
97 66 97
101 72 101
100 70 100
101 70 101
101 69 101
99 65 99
99 66 99
99 67 99
103 74 103
100 69 100
102 74 102
98 68 98
99 69 99
97 67 97
95 65 95
97 69 97
101 74 101
99 70 99
102 76 102
117 95 117
147 134 147
118 97 118
17 0 17
4 0 4
4 0 4
3 0 3
3 0 3
2 0 2
1 0 1
1 0 1
0 0 0
1 0 1
0 0 0
0 0 0
0 0 0
0 0 0
0 0 0
0 0 0
0 0 0
2 0 2
2 0 2
26 10 26
111 98 111
129 115 129
121 103 121
114 93 114
110 86 110
104 76 104
100 70 100
103 73 103
104 76 104
108 82 108
104 76 104
105 75 105
105 74 105
100 67 100
98 64 98
96 63 96
99 69 99
101 71 101
102 74 102
98 68 98
99 69 99
97 67 97
96 66 96
100 72 100
102 75 102
99 71 99
102 76 102
114 91 114
149 137 149
133 117 133
25 2 25
4 0 4
3 0 3
2 0 2
2 0 2
1 0 1
1 0 1
1 0 1
0 0 0
1 0 1
0 0 0
0 0 0
0 0 0
0 0 0
0 0 0
0 0 0
0 0 0
1 0 1
3 0 3
28 11 28
111 97 111
130 116 130
123 105 123
114 93 114
110 85 110
101 71 101
99 70 99
106 78 106
108 82 108
109 83 109
105 76 105
106 77 106
109 80 109
101 70 101
99 67 99
97 64 97
99 69 99
102 73 102
103 74 103
98 69 98
99 69 99
100 71 100
100 71 100
102 73 102
102 76 102
101 74 101
104 78 104
112 88 112
142 128 142
132 117 132
37 9 37
3 0 3
2 0 2
2 0 2
1 0 1
1 0 1
1 0 1
0 0 0
0 0 0
0 0 0
0 0 0
0 0 0
0 0 0
0 0 0
0 0 0
0 0 0
0 0 0
2 0 2
3 0 3
26 10 26
110 97 110
130 115 130
124 106 124
112 90 112
110 85 110
101 72 101
101 72 101
107 80 107
106 79 106
105 76 105
101 70 101
105 74 105
108 79 108
102 72 102
101 70 101
97 65 97
99 69 99
102 72 102
102 73 102
98 70 98
99 70 99
101 72 101
102 72 102
102 74 102
101 74 101
99 71 99
102 76 102
107 82 107
129 112 129
128 112 128
43 14 43
3 0 3
2 0 2
2 0 2
2 0 2
1 0 1
1 0 1
0 0 0
0 0 0
0 0 0
0 0 0
0 0 0
0 0 0
0 0 0
0 0 0
0 0 0
0 0 0
2 0 2
3 0 3
24 7 24
109 95 109
129 115 129
124 106 124
112 90 112
108 83 108
98 69 98
102 74 102
104 76 104
101 71 101
100 68 100
99 67 99
101 69 101
105 75 105
101 71 101
100 70 100
97 65 97
99 69 99
100 70 100
101 72 101
98 69 98
97 68 97
97 68 97
101 72 101
104 75 104
100 73 100
96 68 96
101 75 101
102 76 102
118 96 118
122 104 122
49 18 49
4 0 4
2 0 2
2 0 2
2 0 2
1 0 1
1 0 1
0 0 0
0 0 0
0 0 0
0 0 0
0 0 0
0 0 0
0 0 0
0 0 0
0 0 0
0 0 0
2 0 2
4 0 4
21 4 21
105 90 105
136 123 136
124 105 124
107 84 107
104 78 104
98 68 98
103 76 103
100 70 100
95 63 95
97 65 97
103 72 103
102 70 102
104 74 104
102 72 102
100 70 100
98 67 98
100 70 100
100 69 100
100 71 100
97 68 97
95 66 95
95 66 95
99 70 99
105 76 105
102 74 102
94 65 94
102 75 102
101 73 101
118 97 118
120 100 120
60 29 60
5 0 5
2 0 2
2 0 2
2 0 2
1 0 1
1 0 1
0 0 0
0 0 0
0 0 0
0 0 0
0 0 0
0 0 0
0 0 0
0 0 0
0 0 0
0 0 0
2 0 2
3 0 3
17 1 17
97 81 97
142 132 142
125 106 125
103 79 103
102 76 102
99 69 99
104 77 104
96 65 96
93 60 93
96 63 96
105 75 105
103 72 103
104 73 104
101 71 101
101 71 101
99 68 99
102 73 102
98 67 98
97 68 97
92 64 92
94 66 94
93 65 93
97 68 97
103 73 103
103 74 103
95 64 95
103 76 103
99 71 99
120 100 120
112 90 112
65 36 65
8 0 8
2 0 2
2 0 2
2 0 2
1 0 1
1 0 1
0 0 0
0 0 0
0 0 0
0 0 0
0 0 0
0 0 0
0 0 0
0 0 0
0 0 0
0 0 0
2 0 2
3 0 3
13 0 13
88 67 88
144 134 144
125 107 125
104 80 104
105 79 105
102 74 102
104 77 104
95 63 95
92 59 92
95 61 95
102 70 102
105 75 105
107 78 107
103 73 103
103 73 103
99 68 99
101 71 101
96 65 96
95 66 95
92 63 92
94 65 94
90 60 90
94 64 94
98 67 98
102 72 102
94 63 94
104 79 104
98 69 98
121 101 121
106 80 106
69 39 69
15 0 15
1 0 1
2 0 2
2 0 2
1 0 1
1 0 1
0 0 0
0 0 0
0 0 0
0 0 0
0 0 0
0 0 0
0 0 0
0 0 0
0 0 0
0 0 0
1 0 1
2 0 2
12 0 12
76 50 76
141 129 141
123 104 123
104 80 104
106 81 106
101 73 101
104 77 104
96 65 96
93 60 93
96 62 96
101 69 101
106 76 106
111 82 111
106 77 106
106 77 106
101 70 101
101 71 101
93 63 93
93 63 93
91 60 91
90 59 90
88 56 88
96 65 96
99 70 99
103 72 103
97 64 97
105 78 105
99 70 99
121 101 121
95 66 95
72 41 72
29 8 29
2 0 2
2 0 2
2 0 2
1 0 1
1 0 1
0 0 0
0 0 0
0 0 0
0 0 0
0 0 0
0 0 0
0 0 0
0 0 0
0 0 0
0 0 0
1 0 1
2 0 2
10 0 10
63 36 63
138 125 138
123 104 123
104 80 104
106 82 106
101 73 101
104 77 104
98 67 98
94 61 94
97 64 97
102 70 102
107 77 107
111 84 111
109 80 109
106 77 106
101 70 101
99 70 99
91 62 91
93 64 93
91 61 91
89 58 89
90 58 90
96 65 96
102 74 102
104 73 104
96 63 96
105 79 105
100 72 100
125 106 125
97 67 97
76 44 76
35 13 35
4 0 4
2 0 2
2 0 2
1 0 1
1 0 1
0 0 0
0 0 0
0 0 0
0 0 0
0 0 0
0 0 0
0 0 0
0 0 0
0 0 0
0 0 0
1 0 1
1 0 1
4 0 4
32 9 32
122 107 122
132 117 132
113 92 113
107 82 107
104 77 104
105 79 105
104 75 104
103 74 103
106 77 106
108 78 108
111 83 111
113 86 113
111 83 111
107 76 107
102 72 102
97 69 97
93 64 93
93 64 93
95 67 95
92 61 92
96 66 96
110 86 110
114 90 114
101 71 101
97 67 97
104 78 104
112 88 112
130 112 130
94 61 94
84 53 84
56 31 56
11 0 11
2 0 2
2 0 2
1 0 1
1 0 1
1 0 1
0 0 0
0 0 0
0 0 0
0 0 0
0 0 0
0 0 0
0 0 0
0 0 0
0 0 0
1 0 1
1 0 1
2 0 2
22 2 22
101 80 101
138 124 138
118 97 118
105 80 105
110 85 110
102 73 102
102 72 102
108 79 108
115 88 115
112 83 112
114 87 114
109 79 109
105 73 105
101 69 101
97 68 97
95 65 95
96 66 96
91 62 91
92 62 92
92 61 92
102 74 102
119 98 119
111 87 111
109 82 109
114 89 114
114 92 114
119 97 119
125 105 125
97 65 97
91 62 91
60 35 60
13 1 13
2 0 2
2 0 2
1 0 1
1 0 1
1 0 1
1 0 1
0 0 0
1 0 1
1 0 1
0 0 0
0 0 0
0 0 0
0 0 0
0 0 0
1 0 1
1 0 1
2 0 2
17 2 17
64 38 64
133 120 133
134 118 134
112 88 112
111 85 111
112 88 112
108 79 108
109 80 109
115 87 115
116 88 116
116 89 116
115 88 115
105 73 105
103 72 103
97 67 97
95 65 95
98 69 98
98 70 98
95 66 95
94 64 94
101 74 101
110 86 110
108 83 108
113 90 113
116 92 116
113 90 113
119 96 119
112 86 112
94 62 94
84 51 84
60 34 60
17 2 17
2 0 2
2 0 2
1 0 1
1 0 1
1 0 1
0 0 0
1 0 1
1 0 1
1 0 1
1 0 1
0 0 0
0 0 0
0 0 0
0 0 0
1 0 1
1 0 1
2 0 2
15 2 15
41 16 41
122 106 122
150 139 150
113 89 113
115 93 115
111 87 111
113 87 113
115 89 115
120 95 120
121 96 121
122 98 122
121 97 121
109 79 109
106 76 106
101 72 101
101 73 101
96 66 96
95 66 95
93 63 93
90 62 90
100 76 100
108 82 108
109 83 109
120 100 120
123 104 123
96 66 96
113 90 113
97 66 97
84 49 84
83 49 83
49 22 49
15 2 15
1 0 1
1 0 1
1 0 1
1 0 1
1 0 1
1 0 1
1 0 1
1 0 1
1 0 1
1 0 1
0 0 0
0 0 0
0 0 0
0 0 0
1 0 1
1 0 1
3 0 3
12 1 12
24 5 24
97 78 97
148 138 148
132 115 132
112 89 112
113 91 113
105 78 105
112 85 112
111 84 111
114 88 114
118 93 118
119 94 119
110 81 110
107 77 107
108 81 108
104 77 104
100 72 100
96 69 96
97 69 97
97 72 97
102 76 102
104 75 104
108 83 108
125 107 125
123 104 123
97 68 97
107 82 107
97 66 97
74 37 74
68 32 68
41 16 41
12 1 12
1 0 1
1 0 1
1 0 1
1 0 1
1 0 1
1 0 1
1 0 1
0 0 0
1 0 1
0 0 0
0 0 0
0 0 0
0 0 0
0 0 0
1 0 1
1 0 1
2 0 2
10 1 10
14 2 14
55 31 55
133 120 133
142 129 142
120 100 120
112 91 112
112 88 112
121 97 121
123 101 123
123 100 123
126 104 126
128 107 128
119 96 119
117 92 117
117 93 117
110 85 110
97 69 97
95 69 95
105 82 105
110 86 110
115 91 115
110 84 110
114 90 114
138 123 138
124 103 124
98 68 98
103 73 103
83 48 83
69 33 69
64 28 64
38 13 38
8 0 8
1 0 1
1 0 1
1 0 1
1 0 1
1 0 1
1 0 1
1 0 1
1 0 1
1 0 1
0 0 0
0 0 0
0 0 0
0 0 0
0 0 0
1 0 1
1 0 1
2 0 2
11 0 11
10 1 10
32 10 32
106 87 106
141 128 141
133 118 133
127 111 127
128 110 128
135 117 135
130 112 130
129 110 129
127 106 127
129 108 129
134 116 134
129 110 129
125 105 125
122 100 122
111 88 111
109 86 109
111 88 111
114 90 114
110 84 110
107 79 107
121 99 121
135 117 135
123 99 123
110 81 110
108 78 108
82 46 82
69 33 69
60 27 60
33 10 33
5 0 5
1 0 1
1 0 1
1 0 1
1 0 1
1 0 1
2 0 2
1 0 1
1 0 1
0 0 0
0 0 0
0 0 0
0 0 0
0 0 0
0 0 0
0 0 0
1 0 1
2 0 2
9 0 9
17 4 17
27 6 27
61 34 61
134 120 134
134 119 134
127 110 127
131 114 131
140 125 140
141 127 141
136 120 136
136 119 136
137 121 137
142 127 142
128 108 128
121 98 121
121 97 121
114 88 114
106 78 106
105 77 105
110 85 110
106 80 106
113 89 113
125 105 125
131 110 131
123 94 123
116 85 116
129 106 129
84 49 84
69 33 69
55 23 55
25 6 25
3 0 3
1 0 1
1 0 1
1 0 1
1 0 1
2 0 2
2 0 2
1 0 1
1 0 1
0 0 0
0 0 0
0 0 0
0 0 0
0 0 0
0 0 0
1 0 1
1 0 1
2 0 2
5 0 5
18 6 18
28 10 28
46 18 46
99 76 99
140 126 140
126 107 126
116 93 116
125 104 125
122 99 122
123 100 123
126 105 126
134 115 134
126 105 126
123 101 123
110 83 110
115 88 115
114 85 114
103 72 103
110 82 110
111 83 111
112 86 112
116 91 116
127 106 127
128 99 128
128 102 128
128 100 128
126 100 126
83 48 83
68 32 68
52 20 52
19 1 19
2 0 2
1 0 1
1 0 1
1 0 1
2 0 2
2 0 2
1 0 1
1 0 1
0 0 0
0 0 0
0 0 0
0 0 0
0 0 0
0 0 0
0 0 0
1 0 1
1 0 1
2 0 2
3 0 3
17 5 17
23 10 23
28 8 28
58 30 58
106 82 106
130 112 130
131 112 131
119 95 119
114 87 114
111 83 111
116 89 116
122 97 122
125 103 125
127 105 127
121 97 121
119 94 119
124 98 124
114 86 114
119 93 119
119 94 119
116 89 116
113 86 113
108 77 108
104 72 104
110 77 110
145 107 145
119 88 119
83 48 83
70 34 70
53 22 53
14 0 14
3 0 3
2 0 2
1 0 1
2 0 2
3 0 3
2 0 2
2 0 2
2 0 2
0 0 0
0 0 0
0 0 0
0 0 0
0 0 0
0 0 0
0 0 0
0 0 0
1 0 1
2 0 2
3 0 3
10 0 10
13 2 13
15 4 15
28 4 28
59 29 59
82 51 82
106 79 106
114 89 114
107 78 107
108 79 108
111 82 111
117 89 117
119 93 119
114 87 114
104 72 104
113 83 113
126 101 126
123 97 123
115 88 115
118 89 118
109 77 109
92 55 92
95 57 95
100 64 100
104 70 104
122 92 122
127 97 127
102 69 102
76 42 76
51 21 51
12 0 12
5 0 5
3 0 3
3 0 3
4 0 4
4 0 4
3 0 3
2 0 2
2 0 2
1 0 1
1 0 1
0 0 0
0 0 0
0 0 0
0 0 0
0 0 0
0 0 0
1 0 1
2 0 2
2 0 2
3 0 3
7 0 7
12 2 12
12 1 12
39 13 39
66 34 66
73 40 73
79 44 79
89 54 89
90 54 90
92 56 92
102 68 102
103 70 103
93 57 93
96 60 96
101 68 101
100 66 100
95 60 95
93 58 93
101 69 101
98 65 98
86 49 86
85 47 85
83 46 83
77 40 77
95 61 95
102 70 102
78 44 78
56 23 56
37 13 37
4 0 4
2 0 2
1 0 1
1 0 1
2 0 2
2 0 2
1 0 1
1 0 1
1 0 1
0 0 0
0 0 0
0 0 0
0 0 0
0 0 0
0 0 0
0 0 0
0 0 0
0 0 0
1 0 1
2 0 2
3 0 3
3 0 3
6 0 6
5 0 5
20 1 20
58 27 58
71 38 71
76 41 76
89 55 89
93 58 93
95 59 95
103 69 103
115 85 115
104 71 104
109 76 109
110 78 110
105 73 105
101 68 101
114 83 114
110 79 110
106 74 106
97 62 97
95 60 95
106 74 106
104 72 104
83 48 83
99 69 99
97 66 97
70 41 70
41 20 41
9 0 9
5 0 5
3 0 3
3 0 3
3 0 3
2 0 2
2 0 2
2 0 2
2 0 2
1 0 1
1 0 1
0 0 0
0 0 0
0 0 0
0 0 0
0 0 0
0 0 0
0 0 0
1 0 1
2 0 2
2 0 2
3 0 3
5 0 5
4 0 4
8 0 8
41 15 41
66 34 66
72 39 72
82 47 82
88 52 88
90 53 90
91 54 91
102 69 102
104 71 104
104 71 104
108 78 108
98 65 98
100 66 100
114 82 114
110 77 110
106 72 106
101 66 101
108 74 108
114 84 114
117 87 117
88 51 88
101 70 101
88 56 88
57 26 57
25 5 25
4 0 4
4 0 4
3 0 3
3 0 3
2 0 2
2 0 2
1 0 1
1 0 1
1 0 1
0 0 0
0 0 0
0 0 0
0 0 0
0 0 0
0 0 0
0 0 0
0 0 0
1 0 1
1 0 1
2 0 2
2 0 2
2 0 2
5 0 5
4 0 4
4 0 4
32 10 32
60 30 60
66 33 66
77 41 77
88 53 88
91 55 91
90 52 90
97 62 97
104 71 104
103 70 103
95 60 95
96 61 96
93 56 93
101 66 101
100 65 100
101 65 101
98 62 98
95 58 95
101 65 101
128 101 128
116 86 116
102 72 102
82 52 82
44 17 44
11 0 11
1 0 1
2 0 2
1 0 1
1 0 1
1 0 1
1 0 1
1 0 1
0 0 0
0 0 0
0 0 0
0 0 0
0 0 0
0 0 0
0 0 0
0 0 0
0 0 0
0 0 0
1 0 1
2 0 2
2 0 2
1 0 1
2 0 2
5 0 5
4 0 4
3 0 3
24 5 24
53 26 53
62 32 62
71 36 71
86 51 86
89 53 89
90 53 90
90 53 90
99 65 99
104 71 104
99 65 99
98 63 98
100 65 100
104 70 104
110 78 110
101 66 101
96 59 96
92 55 92
102 67 102
117 85 117
115 84 115
112 84 112
84 55 84
38 14 38
7 0 7
1 0 1
2 0 2
1 0 1
1 0 1
1 0 1
1 0 1
1 0 1
1 0 1
0 0 0
0 0 0
0 0 0
0 0 0
0 0 0
0 0 0
0 0 0
0 0 0
1 0 1
1 0 1
1 0 1
2 0 2
1 0 1
2 0 2
5 0 5
4 0 4
3 0 3
10 0 10
47 21 47
61 31 61
69 35 69
78 42 78
85 49 85
91 55 91
93 57 93
95 60 95
95 60 95
96 62 96
100 65 100
99 64 99
100 65 100
99 65 99
96 59 96
95 59 95
93 55 93
100 63 100
106 71 106
105 71 105
115 88 115
82 54 82
35 12 35
5 0 5
2 0 2
2 0 2
0 0 0
1 0 1
1 0 1
1 0 1
1 0 1
1 0 1
0 0 0
0 0 0
0 0 0
0 0 0
0 0 0
0 0 0
0 0 0
0 0 0
1 0 1
1 0 1
1 0 1
1 0 1
1 0 1
2 0 2
5 0 5
4 0 4
3 0 3
5 0 5
39 15 39
56 28 56
63 32 63
71 36 71
79 43 79
88 52 88
93 58 93
96 61 96
92 55 92
94 59 94
98 64 98
97 61 97
98 64 98
99 65 99
95 58 95
94 56 94
93 54 93
100 63 100
99 62 99
99 65 99
105 74 105
70 40 70
21 3 21
2 0 2
1 0 1
1 0 1
1 0 1
1 0 1
1 0 1
1 0 1
1 0 1
1 0 1
0 0 0
0 0 0
0 0 0
0 0 0
0 0 0
0 0 0
0 0 0
0 0 0
1 0 1
1 0 1
1 0 1
1 0 1
1 0 1
2 0 2
5 0 5
4 0 4
4 0 4
3 0 3
27 7 27
51 25 51
61 31 61
67 36 67
73 37 73
80 43 80
89 53 89
97 62 97
99 65 99
95 60 95
95 61 95
93 57 93
97 61 97
103 70 103
97 61 97
96 58 96
97 59 97
100 63 100
99 62 99
102 67 102
110 81 110
52 22 52
7 0 7
1 0 1
1 0 1
1 0 1
1 0 1
1 0 1
1 0 1
1 0 1
1 0 1
1 0 1
0 0 0
0 0 0
0 0 0
0 0 0
0 0 0
0 0 0
0 0 0
0 0 0
1 0 1
1 0 1
1 0 1
1 0 1
1 0 1
2 0 2
5 0 5
4 0 4
4 0 4
3 0 3
17 2 17
44 20 44
59 29 59
64 33 64
68 35 68
75 40 75
85 50 85
88 52 88
103 70 103
99 64 99
97 62 97
97 62 97
96 60 96
103 69 103
101 64 101
100 63 100
102 65 102
100 64 100
103 68 103
118 88 118
91 58 91
24 0 24
3 0 3
1 0 1
1 0 1
1 0 1
0 0 0
0 0 0
1 0 1
1 0 1
0 0 0
0 0 0
0 0 0
0 0 0
0 0 0
0 0 0
0 0 0
0 0 0
0 0 0
0 0 0
1 0 1
1 0 1
1 0 1
2 0 2
1 0 1
2 0 2
5 0 5
4 0 4
4 0 4
3 0 3
11 0 11
39 17 39
51 24 51
62 32 62
66 34 66
71 38 71
83 50 83
87 52 87
89 54 89
93 58 93
99 66 99
101 67 101
103 69 103
106 72 106
99 62 99
101 65 101
99 62 99
101 65 101
111 78 111
111 79 111
59 22 59
7 0 7
1 0 1
1 0 1
1 0 1
1 0 1
0 0 0
0 0 0
0 0 0
1 0 1
1 0 1
0 0 0
0 0 0
0 0 0
0 0 0
0 0 0
0 0 0
0 0 0
0 0 0
0 0 0
0 0 0
0 0 0
0 0 0
0 0 0
0 0 0
0 0 0
0 0 0
0 0 0
0 0 0
0 0 0
0 0 0
0 0 0
0 0 0
0 0 0
0 0 0
0 0 0
0 0 0
0 0 0
0 0 0
0 0 0
0 0 0
0 0 0
0 0 0
0 0 0
0 0 0
0 0 0
0 0 0
0 0 0
0 0 0
0 0 0
0 0 0
0 0 0
0 0 0
0 0 0
0 0 0
0 0 0
0 0 0
0 0 0
0 0 0
0 0 0
0 0 0
0 0 0
0 0 0
0 0 0
0 0 0
0 0 0
0 0 0
0 0 0
0 0 0
