P3 
50 50 
255
0 0 0
0 0 0
0 0 0
0 0 0
0 0 0
0 0 0
0 0 0
0 0 0
0 0 0
0 0 0
0 0 0
0 0 0
0 0 0
0 0 0
0 0 0
0 0 0
0 0 0
0 0 0
0 0 0
0 0 0
0 0 0
0 0 0
0 0 0
0 0 0
0 0 0
0 0 0
0 0 0
0 0 0
0 0 0
0 0 0
0 0 0
0 0 0
0 0 0
0 0 0
0 0 0
0 0 0
0 0 0
0 0 0
0 0 0
0 0 0
0 0 0
0 0 0
0 0 0
0 0 0
0 0 0
0 0 0
0 0 0
0 0 0
0 0 0
0 0 0
0 0 0
0 0 0
2 0 2
2 0 2
4 0 4
5 0 5
3 0 3
3 0 3
6 0 6
9 1 9
9 1 9
6 0 6
5 0 5
4 0 4
3 0 3
3 0 3
2 0 2
2 0 2
3 0 3
3 0 3
3 0 3
3 0 3
3 0 3
4 0 4
5 0 5
7 0 7
9 0 9
19 0 19
33 7 33
37 9 37
29 4 29
14 0 14
6 0 6
3 0 3
2 0 2
3 0 3
3 0 3
2 0 2
2 0 2
1 0 1
1 0 1
1 0 1
0 0 0
0 0 0
0 0 0
0 0 0
0 0 0
0 0 0
0 0 0
0 0 0
0 0 0
0 0 0
1 0 1
2 0 2
4 0 4
5 0 5
3 0 3
3 0 3
6 0 6
9 1 9
10 1 10
6 0 6
4 0 4
3 0 3
3 0 3
3 0 3
2 0 2
3 0 3
4 0 4
6 0 6
5 0 5
4 0 4
4 0 4
5 0 5
20 0 20
54 24 54
86 57 86
122 100 122
153 137 153
160 146 160
141 123 141
104 79 104
71 43 71
47 21 47
18 0 18
3 0 3
2 0 2
3 0 3
3 0 3
2 0 2
1 0 1
1 0 1
1 0 1
0 0 0
0 0 0
0 0 0
0 0 0
0 0 0
0 0 0
0 0 0
0 0 0
0 0 0
2 0 2
2 0 2
4 0 4
4 0 4
3 0 3
4 0 4
7 0 7
9 1 9
10 1 10
6 0 6
4 0 4
3 0 3
3 0 3
3 0 3
3 0 3
4 0 4
5 0 5
6 0 6
5 0 5
6 0 6
23 2 23
61 31 61
118 94 118
178 170 178
193 189 193
196 193 196
196 193 196
196 192 196
195 191 195
192 188 192
182 175 182
145 129 145
81 53 81
41 16 41
7 0 7
2 0 2
3 0 3
2 0 2
1 0 1
1 0 1
1 0 1
1 0 1
0 0 0
0 0 0
0 0 0
0 0 0
0 0 0
0 0 0
0 0 0
0 0 0
2 0 2
3 0 3
5 0 5
4 0 4
4 0 4
5 0 5
7 0 7
9 1 9
10 1 10
7 0 7
4 0 4
3 0 3
3 0 3
4 0 4
4 0 4
5 0 5
5 0 5
5 0 5
14 0 14
49 21 49
109 83 109
172 161 172
195 191 195
199 196 199
193 187 193
178 168 178
161 144 161
154 135 154
151 131 151
164 148 164
192 187 192
186 178 186
174 164 174
123 101 123
59 30 59
15 0 15
2 0 2
1 0 1
2 0 2
1 0 1
1 0 1
1 0 1
0 0 0
0 0 0
0 0 0
0 0 0
0 0 0
0 0 0
0 0 0
0 0 0
2 0 2
3 0 3
5 0 5
3 0 3
4 0 4
5 0 5
7 0 7
10 1 10
10 1 10
7 0 7
4 0 4
4 0 4
4 0 4
4 0 4
5 0 5
4 0 4
4 0 4
19 0 19
67 38 67
142 124 142
184 176 184
195 190 195
198 194 198
177 166 177
171 159 171
165 151 165
155 137 155
149 129 149
144 121 144
140 117 140
149 127 149
186 178 186
188 181 188
180 171 180
146 128 146
68 38 68
21 1 21
2 0 2
1 0 1
1 0 1
1 0 1
1 0 1
1 0 1
0 0 0
0 0 0
0 0 0
0 0 0
0 0 0
0 0 0
0 0 0
2 0 2
3 0 3
5 0 5
3 0 3
5 0 5
6 0 6
7 0 7
10 1 10
9 1 9
7 0 7
4 0 4
4 0 4
4 0 4
4 0 4
5 0 5
3 0 3
17 1 17
72 43 72
149 133 149
186 178 186
194 188 194
192 186 192
169 155 169
164 149 164
166 151 166
162 147 162
155 137 155
154 135 154
149 129 149
142 119 142
135 107 135
163 147 163
188 181 188
196 192 196
188 182 188
157 143 157
74 45 74
17 0 17
2 0 2
2 0 2
1 0 1
1 0 1
1 0 1
0 0 0
0 0 0
0 0 0
0 0 0
0 0 0
0 0 0
0 0 0
2 0 2
3 0 3
5 0 5
3 0 3
5 0 5
5 0 5
6 0 6
9 2 9
9 1 9
7 0 7
5 0 5
4 0 4
4 0 4
3 0 3
3 0 3
11 0 11
67 40 67
140 121 140
175 163 175
187 179 187
181 171 181
160 143 160
157 139 157
155 136 155
155 136 155
152 133 152
147 126 147
150 131 150
146 123 146
134 106 134
132 103 132
139 112 139
163 145 163
183 175 183
195 192 195
188 183 188
156 143 156
68 39 68
12 0 12
2 0 2
1 0 1
1 0 1
1 0 1
0 0 0
0 0 0
0 0 0
0 0 0
0 0 0
0 0 0
0 0 0
2 0 2
3 0 3
4 0 4
3 0 3
5 0 5
5 0 5
6 0 6
9 1 9
9 1 9
8 0 8
5 0 5
4 0 4
4 0 4
3 0 3
7 0 7
56 29 56
138 118 138
173 160 173
185 176 185
167 152 167
149 127 149
152 132 152
147 126 147
145 123 145
144 122 144
140 117 140
131 103 131
132 104 132
132 103 132
132 105 132
135 107 135
137 110 137
139 113 139
154 134 154
173 161 173
190 184 190
184 178 184
145 129 145
48 20 48
4 0 4
2 0 2
1 0 1
1 0 1
0 0 0
0 0 0
0 0 0
0 0 0
0 0 0
0 0 0
0 0 0
3 0 3
3 0 3
4 0 4
5 0 5
5 0 5
5 0 5
6 0 6
10 2 10
10 1 10
8 0 8
5 0 5
4 0 4
4 0 4
5 0 5
39 14 39
126 106 126
171 159 171
185 176 185
155 136 155
147 125 147
148 128 148
140 116 140
137 112 137
136 110 136
134 108 134
130 101 130
126 95 126
125 94 125
127 96 127
125 95 125
125 94 125
125 94 125
129 99 129
132 102 132
148 125 148
162 145 162
177 166 177
175 167 175
115 91 115
21 1 21
2 0 2
1 0 1
1 0 1
0 0 0
0 0 0
0 0 0
0 0 0
0 0 0
0 0 0
0 0 0
3 0 3
3 0 3
5 0 5
5 0 5
4 0 4
5 0 5
7 0 7
10 1 10
11 1 11
7 0 7
5 0 5
5 0 5
4 0 4
16 0 16
96 73 96
171 160 171
174 161 174
160 142 160
151 131 151
135 108 135
140 115 140
131 102 131
128 101 128
128 100 128
123 93 123
122 92 122
117 83 117
118 84 118
129 101 129
128 99 128
127 98 127
127 97 127
130 100 130
131 102 131
134 107 134
138 112 138
154 134 154
175 165 175
164 152 164
68 37 68
4 0 4
2 0 2
1 0 1
0 0 0
0 0 0
0 0 0
0 0 0
0 0 0
0 0 0
0 0 0
3 0 3
4 0 4
7 0 7
6 0 6
5 0 5
6 0 6
8 0 8
10 1 10
11 1 11
7 0 7
6 0 6
5 0 5
6 0 6
50 25 50
148 134 148
178 168 178
169 155 169
145 122 145
136 110 136
137 111 137
130 101 130
128 99 128
125 96 125
122 92 122
118 86 118
118 85 118
114 78 114
117 83 117
120 87 120
118 84 118
118 85 118
117 83 117
116 80 116
120 87 120
126 95 126
129 99 129
133 105 133
156 138 156
173 162 173
121 98 121
17 0 17
2 0 2
1 0 1
0 0 0
0 0 0
0 0 0
0 0 0
0 0 0
0 0 0
0 0 0
3 0 3
4 0 4
9 0 9
7 0 7
5 0 5
7 0 7
7 0 7
10 1 10
10 1 10
8 0 8
7 0 7
6 0 6
11 0 11
109 90 109
172 162 172
159 141 159
152 132 152
145 122 145
130 101 130
130 101 130
126 96 126
124 93 124
121 90 121
117 83 117
116 82 116
118 83 118
116 81 116
118 83 118
117 82 117
118 84 118
122 90 122
125 94 125
125 93 125
122 90 122
122 89 122
118 84 118
128 98 128
135 108 135
164 149 164
162 149 162
48 14 48
2 0 2
1 0 1
1 0 1
0 0 0
0 0 0
0 0 0
0 0 0
0 0 0
1 0 1
4 0 4
5 0 5
9 0 9
8 0 8
6 0 6
6 0 6
6 0 6
10 1 10
10 1 10
9 0 9
8 0 8
6 0 6
30 7 30
145 132 145
178 169 178
157 138 157
137 112 137
137 111 137
122 90 122
124 93 124
121 90 121
121 90 121
121 91 121
115 81 115
111 75 111
113 77 113
113 77 113
111 74 111
116 80 116
118 83 118
114 79 114
113 76 113
119 86 119
117 83 117
121 88 121
118 83 118
116 82 116
130 100 130
150 128 150
170 159 170
85 53 85
5 0 5
2 0 2
1 0 1
1 0 1
0 0 0
0 0 0
0 0 0
0 0 0
1 0 1
4 0 4
5 0 5
10 0 10
10 0 10
8 0 8
6 0 6
7 0 7
11 2 11
11 1 11
11 0 11
8 0 8
8 0 8
54 29 54
150 135 150
159 142 159
148 127 148
137 110 137
131 102 131
118 84 118
122 89 122
120 87 120
120 88 120
119 87 119
119 86 119
115 81 115
114 78 114
112 75 112
112 76 112
112 75 112
112 75 112
113 77 113
110 73 110
116 81 116
109 71 109
114 79 114
116 81 116
116 82 116
125 95 125
129 100 129
165 151 165
116 88 116
11 0 11
1 0 1
1 0 1
0 0 0
0 0 0
0 0 0
0 0 0
0 0 0
1 0 1
4 0 4
5 0 5
9 0 9
11 0 11
9 0 9
8 0 8
9 0 9
12 2 12
14 1 14
11 0 11
8 0 8
10 0 10
74 50 74
152 134 152
152 132 152
147 124 147
139 113 139
131 102 131
115 78 115
119 85 119
116 81 116
118 85 118
115 80 115
117 84 117
115 80 115
119 86 119
115 80 115
112 76 112
111 74 111
112 75 112
110 73 110
108 70 108
111 74 111
108 69 108
113 78 113
116 82 116
114 79 114
117 86 117
131 103 131
159 141 159
132 108 132
21 0 21
2 0 2
1 0 1
0 0 0
0 0 0
0 0 0
0 0 0
0 0 0
1 0 1
4 0 4
5 0 5
7 0 7
8 0 8
11 0 11
9 0 9
9 0 9
12 1 12
14 1 14
9 0 9
7 0 7
11 0 11
94 72 94
160 144 160
151 129 151
145 122 145
140 114 140
131 101 131
113 76 113
114 77 114
110 73 110
115 81 115
110 74 110
115 82 115
119 88 119
115 81 115
116 82 116
112 76 112
113 78 113
104 63 104
106 66 106
115 80 115
114 78 114
106 68 106
106 66 106
111 75 111
113 78 113
115 82 115
129 100 129
145 122 145
138 114 138
33 2 33
2 0 2
1 0 1
0 0 0
0 0 0
0 0 0
0 0 0
0 0 0
1 0 1
3 0 3
4 0 4
8 0 8
8 0 8
9 0 9
8 0 8
8 0 8
12 2 12
13 1 13
9 0 9
7 0 7
14 0 14
111 91 111
166 152 166
150 127 150
147 123 147
144 120 144
129 99 129
115 78 115
112 75 112
108 70 108
112 76 112
108 72 108
115 83 115
115 83 115
123 94 123
111 75 111
107 69 107
107 68 107
107 68 107
104 64 104
106 67 106
110 72 110
107 69 107
109 73 109
109 72 109
113 78 113
121 91 121
124 94 124
145 121 145
140 116 140
46 12 46
3 0 3
1 0 1
0 0 0
0 0 0
0 0 0
0 0 0
0 0 0
1 0 1
2 0 2
4 0 4
8 0 8
8 0 8
8 0 8
8 0 8
8 0 8
11 2 11
12 1 12
9 0 9
7 0 7
17 0 17
119 100 119
169 155 169
158 138 158
147 123 147
146 122 146
132 102 132
120 86 120
116 81 116
108 70 108
108 71 108
108 72 108
122 92 122
118 87 118
108 71 108
105 67 105
104 65 104
105 65 105
108 69 108
105 64 105
105 64 105
105 64 105
106 67 106
107 69 107
113 78 113
112 76 112
119 87 119
128 100 128
146 123 146
142 118 142
59 24 59
6 0 6
2 0 2
0 0 0
0 0 0
0 0 0
0 0 0
0 0 0
1 0 1
3 0 3
3 0 3
6 0 6
6 0 6
6 0 6
6 0 6
8 0 8
12 2 12
12 1 12
9 0 9
6 0 6
17 0 17
126 107 126
176 164 176
168 152 168
146 122 146
138 111 138
134 106 134
119 85 119
121 89 121
113 77 113
107 69 107
121 91 121
126 98 126
108 70 108
105 66 105
105 65 105
104 64 104
104 63 104
106 65 106
105 64 105
107 68 107
102 62 102
102 61 102
109 73 109
106 67 106
106 68 106
105 67 105
111 76 111
151 130 151
149 128 149
68 34 68
9 0 9
2 0 2
1 0 1
0 0 0
0 0 0
0 0 0
0 0 0
0 0 0
3 0 3
3 0 3
6 0 6
5 0 5
6 0 6
7 0 7
9 0 9
12 2 12
11 1 11
9 0 9
6 0 6
17 0 17
128 110 128
179 168 179
167 152 167
143 117 143
132 102 132
130 99 130
115 79 115
120 86 120
117 83 117
109 72 109
134 110 134
117 84 117
110 73 110
107 68 107
105 65 105
102 60 102
105 64 105
107 67 107
106 66 106
114 78 114
109 72 109
104 65 104
106 67 106
108 69 108
107 68 107
108 71 108
114 79 114
152 132 152
156 139 156
75 39 75
13 0 13
2 0 2
1 0 1
0 0 0
0 0 0
0 0 0
0 0 0
0 0 0
3 0 3
3 0 3
6 0 6
6 0 6
5 0 5
7 0 7
8 0 8
11 2 11
11 1 11
10 0 10
6 0 6
17 0 17
126 106 126
179 169 179
163 145 163
134 105 134
126 94 126
118 82 118
112 74 112
115 79 115
117 83 117
109 72 109
124 96 124
112 76 112
109 71 109
107 68 107
105 66 105
102 61 102
103 62 103
103 61 103
108 69 108
113 76 113
113 79 113
105 67 105
105 66 105
108 69 108
111 73 111
113 78 113
121 89 121
140 115 140
153 135 153
80 45 80
15 0 15
2 0 2
1 0 1
0 0 0
0 0 0
0 0 0
0 0 0
0 0 0
2 0 2
4 0 4
6 0 6
6 0 6
5 0 5
7 0 7
7 0 7
11 2 11
12 1 12
9 0 9
7 0 7
15 0 15
119 96 119
184 175 184
157 137 157
122 88 122
121 87 121
113 75 113
110 72 110
111 73 111
111 74 111
108 71 108
119 87 119
108 70 108
105 65 105
104 63 104
106 65 106
103 62 103
103 61 103
104 62 104
108 69 108
102 61 102
103 64 103
103 65 103
101 62 101
107 67 107
109 70 109
110 74 110
112 77 112
129 101 129
144 123 144
87 53 87
18 0 18
2 0 2
1 0 1
0 0 0
0 0 0
0 0 0
0 0 0
0 0 0
2 0 2
4 0 4
5 0 5
6 0 6
5 0 5
6 0 6
7 0 7
10 2 10
12 1 12
8 0 8
6 0 6
13 0 13
109 85 109
188 180 188
154 133 154
119 84 119
120 85 120
112 75 112
109 71 109
110 73 110
113 77 113
110 73 110
119 86 119
108 71 108
104 65 104
103 63 103
105 65 105
105 64 105
101 58 101
101 59 101
103 61 103
100 60 100
97 57 97
96 55 96
98 58 98
107 68 107
107 68 107
109 72 109
109 73 109
127 98 127
137 114 137
93 60 93
23 1 23
3 0 3
1 0 1
0 0 0
0 0 0
0 0 0
0 0 0
0 0 0
2 0 2
4 0 4
5 0 5
7 0 7
5 0 5
6 0 6
7 0 7
11 2 11
11 1 11
7 0 7
5 0 5
10 0 10
97 70 97
189 182 189
148 125 148
116 80 116
118 83 118
112 74 112
109 70 109
108 70 108
112 76 112
110 74 110
123 92 123
110 73 110
104 64 104
103 63 103
103 62 103
103 62 103
100 58 100
102 60 102
95 52 95
97 55 97
93 51 93
93 51 93
97 56 97
107 68 107
104 65 104
108 71 108
107 71 107
128 101 128
136 112 136
96 64 96
27 2 27
3 0 3
2 0 2
0 0 0
0 0 0
0 0 0
0 0 0
0 0 0
2 0 2
3 0 3
5 0 5
6 0 6
5 0 5
6 0 6
8 0 8
11 2 11
11 1 11
7 0 7
6 0 6
8 0 8
81 52 81
188 182 188
140 114 140
114 78 114
116 80 116
110 73 110
107 69 107
107 69 107
109 71 109
115 81 115
124 95 124
107 68 107
101 61 101
103 63 103
102 61 102
102 61 102
102 60 102
100 58 100
96 53 96
92 50 92
91 50 91
90 48 90
100 62 100
105 66 105
105 65 105
107 70 107
104 67 104
125 97 125
130 104 130
92 58 92
32 4 32
3 0 3
1 0 1
0 0 0
0 0 0
0 0 0
0 0 0
0 0 0
2 0 2
3 0 3
5 0 5
6 0 6
5 0 5
4 0 4
8 0 8
11 2 11
10 1 10
8 0 8
6 0 6
8 0 8
62 32 62
181 173 181
134 107 134
115 81 115
114 79 114
110 73 110
107 68 107
109 71 109
110 74 110
114 81 114
115 83 115
107 70 107
103 64 103
102 62 102
103 62 103
100 58 100
102 61 102
102 64 102
101 61 101
92 48 92
89 47 89
90 49 90
98 60 98
100 63 100
103 64 103
107 70 107
104 67 104
119 89 119
130 105 130
89 53 89
42 10 42
5 0 5
1 0 1
0 0 0
0 0 0
0 0 0
0 0 0
0 0 0
2 0 2
3 0 3
5 0 5
5 0 5
5 0 5
4 0 4
8 0 8
10 2 10
10 1 10
8 0 8
7 0 7
10 0 10
53 24 53
177 169 177
137 112 137
119 87 119
114 78 114
111 74 111
107 69 107
110 73 110
113 79 113
115 82 115
116 84 116
112 77 112
104 65 104
102 62 102
106 66 106
101 59 101
100 59 100
101 61 101
99 60 99
92 48 92
89 46 89
92 51 92
97 60 97
98 61 98
102 63 102
106 69 106
105 69 105
117 86 117
133 109 133
88 52 88
39 8 39
6 0 6
1 0 1
0 0 0
0 0 0
0 0 0
0 0 0
0 0 0
2 0 2
4 0 4
7 0 7
5 0 5
6 0 6
4 0 4
7 0 7
11 2 11
10 1 10
9 0 9
8 0 8
10 0 10
37 8 37
156 142 156
146 124 146
130 102 130
115 80 115
117 82 117
115 81 115
119 86 119
123 93 123
127 99 127
126 97 126
121 91 121
109 72 109
111 76 111
117 82 117
108 69 108
96 53 96
98 57 98
97 56 97
92 50 92
92 53 92
90 49 90
93 55 93
97 60 97
103 67 103
107 71 107
119 89 119
123 96 123
128 103 128
89 56 89
44 13 44
7 0 7
1 0 1
0 0 0
0 0 0
0 0 0
0 0 0
0 0 0
2 0 2
4 0 4
7 0 7
6 0 6
6 0 6
4 0 4
7 0 7
10 2 10
9 1 9
8 0 8
7 0 7
7 0 7
29 4 29
119 96 119
147 125 147
138 111 138
117 83 117
140 116 140
138 113 138
129 100 129
125 96 125
131 105 131
131 105 131
119 87 119
109 73 109
114 78 114
108 69 108
106 66 106
96 54 96
96 55 96
99 58 99
94 54 94
93 54 93
103 69 103
112 81 112
109 77 109
104 68 104
105 70 105
116 83 116
126 98 126
119 90 119
97 66 97
48 16 48
7 0 7
1 0 1
0 0 0
0 0 0
0 0 0
0 0 0
0 0 0
2 0 2
4 0 4
7 0 7
5 0 5
5 0 5
4 0 4
7 0 7
10 2 10
9 1 9
7 0 7
7 0 7
7 0 7
23 3 23
104 77 104
160 144 160
140 115 140
121 88 121
120 87 120
125 96 125
131 105 131
114 82 114
120 90 120
122 91 122
113 79 113
105 68 105
108 71 108
105 66 105
106 68 106
102 63 102
102 63 102
97 57 97
96 57 96
97 60 97
109 77 109
114 84 114
118 89 118
107 73 107
114 81 114
120 89 120
137 112 137
115 87 115
98 68 98
38 9 38
4 0 4
0 0 0
0 0 0
0 0 0
0 0 0
0 0 0
0 0 0
2 0 2
4 0 4
6 0 6
4 0 4
5 0 5
4 0 4
7 0 7
10 2 10
8 1 8
7 0 7
7 0 7
8 0 8
16 1 16
75 46 75
159 144 159
142 117 142
127 98 127
110 74 110
111 75 111
119 86 119
117 84 117
122 92 122
123 94 123
112 77 112
104 66 104
107 69 107
107 69 107
98 56 98
103 64 103
99 61 99
97 58 97
97 59 97
103 67 103
109 75 109
118 88 118
121 91 121
106 72 106
111 77 111
120 89 120
133 107 133
113 85 113
81 47 81
34 8 34
3 0 3
0 0 0
0 0 0
0 0 0
0 0 0
0 0 0
0 0 0
3 0 3
4 0 4
6 0 6
4 0 4
4 0 4
4 0 4
7 0 7
10 2 10
9 1 9
7 0 7
7 0 7
8 0 8
13 1 13
41 15 41
152 138 152
147 126 147
135 108 135
111 76 111
110 73 110
128 98 128
113 79 113
107 71 107
105 67 105
106 68 106
107 70 107
102 64 102
106 68 106
103 62 103
103 64 103
104 68 104
105 69 105
98 61 98
105 70 105
108 74 108
111 78 111
122 92 122
113 79 113
107 72 107
108 75 108
112 81 112
93 59 93
70 34 70
31 8 31
2 0 2
0 0 0
0 0 0
0 0 0
0 0 0
0 0 0
0 0 0
2 0 2
3 0 3
5 0 5
4 0 4
5 0 5
4 0 4
7 0 7
10 2 10
8 1 8
7 0 7
7 0 7
9 0 9
14 3 14
23 5 23
102 77 102
150 132 150
149 129 149
122 89 122
115 81 115
132 104 132
117 84 117
110 74 110
106 69 106
108 70 108
107 70 107
108 72 108
107 68 107
97 57 97
105 68 105
112 80 112
112 80 112
113 83 113
107 74 107
106 73 106
110 78 110
119 88 119
113 79 113
114 82 114
102 67 102
97 64 97
77 40 77
63 27 63
28 7 28
2 0 2
0 0 0
0 0 0
0 0 0
0 0 0
0 0 0
0 0 0
2 0 2
3 0 3
5 0 5
3 0 3
5 0 5
4 0 4
7 0 7
11 2 11
8 1 8
7 0 7
7 0 7
8 0 8
14 3 14
15 2 15
67 41 67
147 130 147
156 138 156
116 83 116
119 85 119
125 94 125
123 92 123
115 80 115
116 83 116
111 75 111
112 76 112
108 72 108
111 76 111
107 70 107
110 75 110
115 84 115
110 77 110
113 82 113
108 75 108
109 76 109
111 80 111
110 78 110
115 83 115
108 75 108
110 78 110
94 61 94
73 36 73
55 22 55
25 6 25
2 0 2
0 0 0
0 0 0
0 0 0
0 0 0
0 0 0
0 0 0
2 0 2
3 0 3
5 0 5
3 0 3
6 0 6
5 0 5
7 0 7
11 2 11
8 0 8
6 0 6
6 0 6
8 0 8
12 2 12
8 0 8
38 14 38
118 96 118
154 138 154
124 95 124
113 78 113
120 89 120
120 88 120
120 88 120
118 85 118
115 81 115
113 78 113
117 84 117
131 107 131
119 89 119
109 75 109
115 86 115
118 90 118
120 94 120
119 93 119
109 77 109
122 97 122
120 93 120
113 81 113
98 63 98
115 86 115
91 56 91
71 34 71
58 24 58
33 8 33
2 0 2
0 0 0
0 0 0
0 0 0
0 0 0
0 0 0
0 0 0
2 0 2
3 0 3
5 0 5
4 0 4
6 0 6
5 0 5
7 0 7
11 2 11
9 0 9
7 0 7
6 0 6
8 0 8
13 2 13
9 0 9
20 2 20
79 50 79
121 95 121
138 115 138
131 104 131
114 81 114
114 81 114
113 80 113
111 77 111
116 82 116
113 79 113
125 96 125
139 119 139
124 98 124
119 92 119
112 83 112
113 85 113
113 84 113
123 98 123
113 85 113
134 115 134
145 130 145
106 75 106
101 68 101
113 84 113
85 51 85
74 40 74
66 31 66
28 6 28
2 0 2
0 0 0
0 0 0
0 0 0
0 0 0
0 0 0
0 0 0
2 0 2
3 0 3
5 0 5
4 0 4
5 0 5
5 0 5
7 0 7
10 2 10
8 0 8
6 0 6
6 0 6
7 0 7
13 2 13
17 4 17
18 6 18
39 13 39
81 50 81
106 78 106
119 90 119
111 80 111
108 75 108
109 77 109
111 79 111
120 90 120
119 88 119
119 89 119
134 112 134
136 117 136
126 104 126
116 89 116
113 83 113
110 80 110
124 102 124
115 88 115
135 118 135
154 122 154
114 87 114
103 73 103
108 80 108
78 45 78
74 40 74
63 27 63
20 4 20
2 0 2
0 0 0
0 0 0
0 0 0
0 0 0
0 0 0
0 0 0
2 0 2
4 0 4
6 0 6
4 0 4
6 0 6
4 0 4
7 0 7
10 2 10
7 0 7
5 0 5
5 0 5
5 0 5
8 0 8
16 3 16
10 2 10
18 1 18
51 20 51
68 33 68
79 42 79
92 58 92
102 70 102
102 70 102
108 77 108
111 82 111
116 90 116
134 116 134
119 93 119
119 96 119
136 121 136
131 112 131
112 81 112
115 86 115
123 99 123
120 97 120
113 61 113
102 76 102
95 67 95
110 87 110
102 76 102
72 41 72
64 35 64
44 11 44
11 0 11
2 0 2
1 0 1
1 0 1
1 0 1
0 0 0
0 0 0
0 0 0
1 0 1
3 0 3
5 0 5
4 0 4
4 0 4
4 0 4
7 0 7
9 2 9
8 0 8
6 0 6
5 0 5
5 0 5
5 0 5
13 3 13
10 2 10
10 0 10
41 12 41
69 35 69
78 40 78
88 51 88
95 60 95
97 63 97
107 76 107
107 75 107
101 66 101
97 61 97
99 64 99
94 57 94
98 63 98
96 61 96
101 68 101
99 66 99
92 57 92
86 49 86
86 51 86
87 53 87
93 62 93
96 67 96
92 64 92
64 34 64
60 29 60
26 3 26
3 0 3
1 0 1
0 0 0
0 0 0
0 0 0
0 0 0
0 0 0
0 0 0
1 0 1
2 0 2
4 0 4
3 0 3
3 0 3
3 0 3
5 0 5
8 1 8
7 0 7
5 0 5
6 0 6
5 0 5
4 0 4
4 0 4
4 0 4
6 0 6
20 2 20
56 24 56
65 29 65
74 37 74
80 43 80
86 51 86
99 69 99
111 85 111
104 74 104
129 109 129
149 136 149
123 99 123
111 81 111
110 81 110
111 82 111
113 85 113
104 74 104
100 68 100
111 84 111
121 100 121
128 110 128
88 60 88
85 56 85
65 38 65
56 30 56
13 1 13
3 0 3
2 0 2
2 0 2
2 0 2
1 0 1
0 0 0
0 0 0
0 0 0
2 0 2
2 0 2
4 0 4
3 0 3
3 0 3
3 0 3
7 0 7
11 3 11
9 1 9
6 0 6
6 0 6
4 0 4
4 0 4
4 0 4
5 0 5
6 0 6
12 0 12
51 20 51
67 31 67
75 38 75
79 41 79
85 50 85
92 60 92
88 53 88
99 68 99
140 126 140
130 111 130
119 94 119
108 80 108
119 96 119
106 76 106
110 84 110
117 53 117
111 86 111
125 107 125
135 122 135
96 67 96
89 63 89
74 47 74
61 34 61
44 23 44
9 0 9
2 0 2
1 0 1
1 0 1
1 0 1
1 0 1
0 0 0
0 0 0
0 0 0
1 0 1
2 0 2
4 0 4
2 0 2
3 0 3
3 0 3
7 0 7
10 2 10
7 0 7
4 0 4
5 0 5
5 0 5
4 0 4
4 0 4
5 0 5
4 0 4
9 0 9
49 20 49
69 35 69
80 44 80
85 49 85
99 66 99
107 78 107
95 60 95
116 89 116
127 105 127
123 99 123
101 69 101
92 57 92
123 63 123
108 80 108
107 80 107
107 81 107
104 78 104
113 90 113
109 84 109
96 67 96
95 67 95
74 47 74
56 28 56
29 10 29
4 0 4
1 0 1
0 0 0
0 0 0
0 0 0
0 0 0
0 0 0
0 0 0
0 0 0
2 0 2
2 0 2
5 0 5
2 0 2
3 0 3
3 0 3
7 0 7
10 2 10
7 0 7
5 0 5
5 0 5
5 0 5
4 0 4
4 0 4
5 0 5
4 0 4
6 0 6
44 16 44
69 37 69
78 42 78
86 50 86
100 68 100
113 87 113
99 66 99
118 91 118
122 99 122
116 89 116
101 69 101
100 68 100
115 91 115
107 80 107
99 70 99
104 77 104
107 81 107
119 98 119
109 85 109
92 62 92
104 80 104
71 44 71
49 22 49
23 8 23
2 0 2
1 0 1
1 0 1
0 0 0
0 0 0
0 0 0
0 0 0
0 0 0
0 0 0
2 0 2
3 0 3
5 0 5
3 0 3
3 0 3
3 0 3
7 0 7
10 2 10
6 0 6
4 0 4
4 0 4
5 0 5
4 0 4
5 0 5
5 0 5
4 0 4
6 0 6
42 15 42
68 36 68
75 40 75
81 45 81
94 62 94
116 91 116
102 70 102
106 76 106
104 73 104
106 75 106
104 74 104
105 75 105
103 75 103
97 67 97
96 66 96
99 70 99
101 73 101
102 74 102
95 67 95
88 58 88
102 79 102
66 38 66
41 17 41
13 1 13
2 0 2
2 0 2
1 0 1
0 0 0
0 0 0
0 0 0
0 0 0
0 0 0
0 0 0
2 0 2
3 0 3
5 0 5
3 0 3
3 0 3
3 0 3
7 0 7
9 2 9
5 0 5
3 0 3
4 0 4
5 0 5
4 0 4
5 0 5
5 0 5
4 0 4
5 0 5
41 14 41
67 36 67
73 39 73
77 40 77
83 46 83
101 70 101
104 74 104
101 69 101
101 69 101
101 68 101
99 68 99
105 76 105
101 71 101
95 63 95
91 59 91
97 67 97
98 69 98
97 68 97
92 61 92
89 59 89
93 69 93
55 27 55
27 7 27
4 0 4
1 0 1
2 0 2
1 0 1
0 0 0
0 0 0
0 0 0
0 0 0
0 0 0
0 0 0
2 0 2
3 0 3
5 0 5
2 0 2
3 0 3
3 0 3
7 0 7
9 2 9
5 0 5
3 0 3
3 0 3
4 0 4
4 0 4
4 0 4
4 0 4
3 0 3
5 0 5
39 13 39
66 35 66
74 40 74
78 42 78
80 43 80
83 47 83
103 72 103
108 79 108
110 81 110
102 71 102
103 73 103
105 76 105
103 74 103
97 66 97
94 64 94
101 73 101
98 70 98
90 59 90
88 57 88
89 60 89
80 54 80
39 11 39
8 0 8
2 0 2
1 0 1
1 0 1
1 0 1
1 0 1
0 0 0
0 0 0
0 0 0
0 0 0
0 0 0
2 0 2
2 0 2
4 0 4
2 0 2
3 0 3
3 0 3
7 0 7
8 2 8
4 0 4
3 0 3
3 0 3
4 0 4
3 0 3
3 0 3
3 0 3
3 0 3
5 0 5
37 12 37
66 35 66
74 40 74
78 42 78
79 42 79
83 46 83
88 52 88
106 76 106
119 95 119
112 85 112
108 81 108
103 75 103
103 75 103
102 73 102
104 78 104
104 78 104
96 67 96
96 68 96
101 76 101
98 73 98
56 26 56
14 0 14
3 0 3
2 0 2
1 0 1
2 0 2
1 0 1
1 0 1
0 0 0
0 0 0
0 0 0
0 0 0
0 0 0
2 0 2
2 0 2
3 0 3
1 0 1
2 0 2
2 0 2
7 0 7
8 2 8
5 0 5
3 0 3
3 0 3
4 0 4
3 0 3
3 0 3
3 0 3
3 0 3
4 0 4
36 12 36
67 35 67
73 40 73
77 42 77
80 43 80
85 49 85
89 53 89
92 57 92
93 58 93
108 81 108
110 84 110
110 84 110
114 90 114
101 73 101
102 75 102
103 78 103
107 83 107
117 98 117
108 86 108
67 35 67
29 2 29
3 0 3
2 0 2
2 0 2
1 0 1
1 0 1
0 0 0
0 0 0
0 0 0
0 0 0
0 0 0
0 0 0
0 0 0
0 0 0
0 0 0
0 0 0
0 0 0
0 0 0
0 0 0
0 0 0
0 0 0
0 0 0
0 0 0
0 0 0
0 0 0
0 0 0
0 0 0
0 0 0
0 0 0
0 0 0
0 0 0
0 0 0
0 0 0
0 0 0
0 0 0
0 0 0
0 0 0
0 0 0
0 0 0
0 0 0
0 0 0
0 0 0
0 0 0
0 0 0
0 0 0
0 0 0
0 0 0
0 0 0
0 0 0
0 0 0
0 0 0
0 0 0
0 0 0
0 0 0
0 0 0
0 0 0
0 0 0
0 0 0
0 0 0
0 0 0
0 0 0
