P3 
50 50 
255
0 0 0
0 0 0
0 0 0
0 0 0
0 0 0
0 0 0
0 0 0
0 0 0
0 0 0
0 0 0
0 0 0
0 0 0
0 0 0
0 0 0
0 0 0
0 0 0
0 0 0
0 0 0
0 0 0
0 0 0
0 0 0
0 0 0
0 0 0
0 0 0
0 0 0
0 0 0
0 0 0
0 0 0
0 0 0
0 0 0
0 0 0
0 0 0
0 0 0
0 0 0
0 0 0
0 0 0
0 0 0
0 0 0
0 0 0
0 0 0
0 0 0
0 0 0
0 0 0
0 0 0
0 0 0
0 0 0
0 0 0
0 0 0
0 0 0
0 0 0
0 0 0
1 0 1
12 2 12
6 0 6
3 0 3
9 0 9
7 0 7
7 0 7
14 1 14
9 0 9
5 0 5
3 0 3
5 0 5
4 0 4
6 0 6
6 0 6
8 0 8
4 0 4
4 0 4
3 0 3
5 0 5
8 0 8
14 1 14
22 5 22
22 5 22
21 5 21
19 4 19
12 0 12
8 0 8
4 0 4
2 0 2
1 0 1
0 0 0
0 0 0
0 0 0
0 0 0
0 0 0
0 0 0
0 0 0
0 0 0
0 0 0
0 0 0
0 0 0
0 0 0
0 0 0
0 0 0
0 0 0
0 0 0
0 0 0
0 0 0
0 0 0
1 0 1
12 2 12
5 0 5
3 0 3
9 0 9
6 0 6
9 0 9
14 1 14
8 0 8
6 0 6
4 0 4
6 0 6
5 0 5
6 0 6
5 0 5
7 0 7
20 2 20
35 14 35
50 28 50
67 45 67
81 59 81
96 78 96
116 102 116
129 117 129
134 122 134
123 110 123
104 87 104
87 68 87
67 46 67
45 25 45
30 11 30
10 0 10
1 0 1
0 0 0
0 0 0
0 0 0
0 0 0
0 0 0
0 0 0
0 0 0
0 0 0
0 0 0
0 0 0
0 0 0
0 0 0
0 0 0
0 0 0
0 0 0
0 0 0
0 0 0
1 0 1
12 2 12
6 0 6
3 0 3
9 0 9
7 0 7
11 0 11
15 1 15
8 0 8
7 0 7
4 0 4
6 0 6
5 0 5
8 0 8
19 2 19
48 23 48
96 75 96
140 128 140
159 152 159
164 157 164
169 161 169
174 168 174
176 171 176
182 178 182
188 187 188
178 173 178
171 165 171
167 162 167
160 154 160
148 140 148
128 117 128
69 48 69
33 14 33
10 0 10
1 0 1
0 0 0
0 0 0
0 0 0
0 0 0
0 0 0
0 0 0
0 0 0
0 0 0
0 0 0
0 0 0
0 0 0
0 0 0
0 0 0
0 0 0
0 0 0
1 0 1
12 2 12
6 0 6
4 0 4
9 0 9
9 0 9
10 0 10
16 1 16
9 0 9
6 0 6
5 0 5
6 0 6
14 0 14
42 18 42
96 73 96
151 140 151
167 158 167
165 155 165
158 145 158
156 141 156
161 147 161
163 151 163
161 149 161
169 160 169
171 163 171
165 154 165
167 158 167
163 153 163
161 150 161
163 155 163
167 161 167
154 146 154
123 110 123
54 33 54
25 8 25
2 0 2
0 0 0
0 0 0
0 0 0
0 0 0
0 0 0
0 0 0
0 0 0
0 0 0
0 0 0
0 0 0
0 0 0
0 0 0
0 0 0
0 0 0
1 0 1
12 2 12
6 0 6
4 0 4
10 0 10
9 0 9
9 0 9
16 1 16
10 0 10
5 0 5
9 0 9
20 2 20
63 37 63
138 122 138
164 153 164
166 154 166
154 138 154
147 129 147
147 129 147
147 128 147
153 135 153
154 138 154
154 137 154
160 146 160
162 149 162
156 142 156
163 151 163
166 155 166
166 155 166
165 154 165
167 159 167
173 167 173
167 161 167
140 128 140
75 54 75
29 10 29
2 0 2
0 0 0
0 0 0
0 0 0
0 0 0
0 0 0
0 0 0
0 0 0
0 0 0
0 0 0
0 0 0
0 0 0
0 0 0
0 0 0
1 0 1
12 2 12
6 0 6
5 0 5
11 0 11
9 0 9
8 0 8
15 1 15
11 0 11
8 0 8
26 4 26
73 49 73
149 136 149
168 157 168
163 150 163
149 132 149
145 126 145
144 123 144
145 125 145
145 123 145
150 130 150
151 132 151
148 128 148
149 131 149
152 135 152
154 137 154
155 139 155
159 145 159
163 149 163
169 159 169
175 167 175
179 173 179
180 175 180
177 173 177
154 145 154
92 74 92
20 5 20
0 0 0
0 0 0
0 0 0
0 0 0
0 0 0
0 0 0
0 0 0
0 0 0
0 0 0
0 0 0
0 0 0
0 0 0
0 0 0
1 0 1
13 2 13
6 0 6
6 0 6
11 0 11
7 0 7
7 0 7
14 1 14
14 0 14
20 2 20
69 44 69
138 122 138
163 152 163
160 145 160
146 127 146
140 118 140
140 117 140
138 115 138
138 113 138
137 111 137
142 118 142
141 116 141
138 113 138
137 113 137
142 121 142
144 123 144
151 133 151
147 127 147
147 128 147
159 144 159
168 157 168
175 166 175
175 166 175
171 162 171
183 180 183
151 141 151
83 64 83
8 0 8
0 0 0
0 0 0
0 0 0
0 0 0
0 0 0
0 0 0
0 0 0
0 0 0
0 0 0
0 0 0
0 0 0
0 0 0
1 0 1
12 2 12
6 0 6
6 0 6
10 0 10
9 0 9
9 0 9
15 1 15
19 0 19
52 26 52
116 96 116
150 135 150
162 148 162
142 121 142
136 112 136
134 109 134
137 112 137
139 116 139
136 110 136
132 104 132
137 111 137
133 105 133
132 103 132
134 107 134
136 110 136
134 109 134
137 113 137
137 113 137
138 115 138
146 126 146
153 135 153
150 131 150
154 137 154
162 149 162
167 156 167
181 177 181
149 139 149
60 40 60
3 0 3
0 0 0
0 0 0
0 0 0
0 0 0
0 0 0
0 0 0
0 0 0
0 0 0
0 0 0
0 0 0
0 0 0
1 0 1
13 2 13
6 0 6
7 0 7
11 0 11
11 0 11
11 0 11
16 1 16
30 4 30
96 74 96
142 127 142
157 141 157
145 124 145
133 108 133
131 106 131
131 104 131
134 107 134
136 111 136
135 108 135
133 105 133
134 107 134
126 96 126
127 97 127
130 101 130
126 96 126
129 100 129
133 107 133
132 107 132
125 97 125
133 109 133
137 114 137
135 113 135
136 114 136
143 124 143
149 132 149
161 148 161
156 146 156
120 104 120
28 11 28
0 0 0
0 0 0
0 0 0
0 0 0
0 0 0
0 0 0
0 0 0
0 0 0
0 0 0
0 0 0
0 0 0
1 0 1
13 2 13
6 0 6
8 0 8
12 0 12
13 0 13
14 0 14
21 0 21
61 33 61
126 108 126
146 130 146
148 130 148
142 120 142
135 110 135
131 105 131
129 100 129
133 106 133
137 112 137
132 105 132
131 102 131
129 100 129
123 90 123
120 87 120
125 94 125
127 97 127
126 96 126
127 97 127
122 92 122
124 96 124
121 92 121
124 97 124
127 100 127
131 107 131
128 103 128
133 111 133
146 130 146
168 161 168
149 138 149
79 60 79
8 0 8
0 0 0
0 0 0
0 0 0
0 0 0
0 0 0
0 0 0
0 0 0
0 0 0
0 0 0
0 0 0
1 0 1
13 2 13
6 0 6
10 0 10
12 0 12
13 0 13
17 0 17
30 3 30
95 72 95
149 135 149
158 144 158
145 125 145
135 110 135
134 108 134
133 107 133
130 100 130
131 102 131
133 104 133
129 99 129
129 98 129
131 101 131
126 95 126
122 89 122
122 89 122
119 84 119
125 94 125
131 103 131
121 90 121
114 82 114
123 95 123
116 85 116
116 87 116
119 91 119
121 95 121
118 91 118
124 100 124
140 122 140
140 123 140
115 100 115
23 8 23
1 0 1
1 0 1
0 0 0
0 0 0
0 0 0
0 0 0
0 0 0
0 0 0
0 0 0
0 0 0
1 0 1
13 2 13
6 0 6
11 0 11
12 0 12
13 0 13
19 0 19
43 12 43
113 92 113
146 130 146
148 130 148
150 131 150
134 109 134
130 101 130
127 97 127
130 100 130
131 102 131
132 103 132
126 93 126
127 95 127
126 94 126
124 91 124
123 90 123
126 94 126
120 85 120
118 83 118
124 93 124
122 91 122
115 81 115
116 83 116
118 88 118
112 80 112
116 85 116
112 81 112
119 92 119
115 88 115
130 109 130
151 137 151
146 134 146
46 25 46
2 0 2
0 0 0
0 0 0
0 0 0
0 0 0
0 0 0
0 0 0
0 0 0
0 0 0
0 0 0
1 0 1
12 2 12
7 0 7
11 0 11
13 0 13
14 0 14
22 0 22
64 32 64
137 121 137
151 136 151
140 120 140
137 114 137
129 100 129
129 100 129
131 103 131
128 97 128
130 99 130
130 99 130
127 95 127
127 95 127
125 93 125
122 87 122
119 84 119
117 81 117
116 80 116
117 82 117
118 84 118
118 85 118
115 82 115
113 79 113
116 84 116
109 75 109
116 88 116
111 80 111
109 79 109
111 83 111
111 83 111
140 122 140
133 115 133
80 58 80
9 0 9
0 0 0
0 0 0
0 0 0
0 0 0
0 0 0
0 0 0
0 0 0
0 0 0
0 0 0
1 0 1
13 3 13
7 0 7
12 0 12
14 0 14
16 0 16
26 1 26
88 59 88
145 130 145
150 134 150
139 118 139
129 104 129
126 97 126
129 100 129
123 91 123
121 86 121
124 91 124
125 91 125
123 90 123
125 92 125
125 93 125
120 86 120
116 80 116
116 80 116
113 76 113
112 75 112
112 76 112
113 78 113
115 81 115
111 77 111
111 77 111
108 74 108
110 78 110
114 84 114
108 76 108
110 81 110
106 77 106
117 92 117
123 100 123
122 103 122
32 9 32
2 0 2
1 0 1
0 0 0
0 0 0
0 0 0
0 0 0
0 0 0
0 0 0
0 0 0
1 0 1
13 3 13
7 0 7
13 0 13
16 0 16
18 0 18
33 5 33
102 76 102
141 124 141
144 126 144
138 116 138
126 98 126
125 95 125
120 86 120
119 85 119
118 83 118
121 86 121
120 86 120
118 82 118
123 89 123
125 93 125
121 87 121
118 82 118
119 83 119
115 79 115
113 75 113
110 72 110
110 73 110
115 80 115
113 78 113
109 74 109
108 73 108
107 73 107
114 85 114
109 77 109
112 82 112
108 79 108
110 82 110
126 103 126
114 91 114
75 53 75
11 0 11
1 0 1
0 0 0
0 0 0
0 0 0
0 0 0
0 0 0
0 0 0
0 0 0
1 0 1
13 3 13
7 0 7
14 0 14
17 0 17
20 0 20
41 13 41
111 88 111
142 125 142
135 114 135
133 109 133
127 99 127
128 99 128
121 87 121
120 87 120
120 85 120
124 90 124
121 87 121
119 83 119
121 86 121
125 92 125
124 91 124
122 87 122
118 82 118
114 77 114
113 75 113
112 74 112
108 69 108
108 71 108
112 76 112
108 72 108
105 70 105
103 68 103
114 83 114
120 92 120
110 79 110
116 90 116
103 72 103
114 89 114
100 77 100
114 96 114
31 10 31
2 0 2
0 0 0
0 0 0
0 0 0
0 0 0
0 0 0
0 0 0
0 0 0
1 0 1
13 3 13
7 0 7
15 0 15
17 0 17
21 0 21
48 20 48
120 100 120
143 127 143
130 107 130
129 103 129
128 101 128
127 96 127
123 90 123
123 90 123
122 88 122
127 94 127
124 91 124
122 87 122
121 86 121
124 91 124
125 92 125
123 90 123
118 83 118
113 75 113
112 74 112
114 77 114
109 70 109
108 70 108
110 74 110
110 73 110
102 64 102
104 68 104
109 77 109
122 96 122
105 73 105
114 87 114
95 65 95
105 78 105
96 77 96
125 107 125
50 26 50
3 0 3
0 0 0
0 0 0
0 0 0
0 0 0
0 0 0
0 0 0
0 0 0
1 0 1
13 3 13
7 0 7
15 0 15
18 0 18
23 0 23
56 28 56
128 109 128
150 134 150
135 112 135
129 103 129
130 104 130
126 95 126
123 90 123
122 89 122
120 86 120
126 94 126
127 95 127
125 92 125
124 91 124
124 90 124
125 92 125
126 94 126
122 88 122
114 76 114
116 80 116
120 85 120
114 77 114
111 73 111
112 75 112
110 73 110
102 63 102
107 72 107
108 74 108
116 88 116
111 81 111
103 71 103
94 62 94
97 70 97
81 57 81
118 98 118
63 38 63
3 0 3
0 0 0
0 0 0
0 0 0
0 0 0
0 0 0
0 0 0
0 0 0
1 0 1
13 3 13
7 0 7
15 0 15
20 0 20
23 0 23
66 39 66
139 122 139
155 141 155
137 114 137
133 108 133
134 109 134
127 95 127
125 92 125
122 89 122
122 89 122
128 97 128
128 96 128
127 94 127
129 99 129
126 93 126
121 85 121
123 89 123
122 89 122
116 79 116
117 81 117
120 86 120
120 85 120
118 83 118
113 77 113
110 74 110
110 73 110
113 79 113
115 83 115
115 84 115
109 78 109
94 57 94
87 53 87
73 42 73
72 43 72
99 75 99
57 30 57
3 0 3
0 0 0
0 0 0
0 0 0
0 0 0
0 0 0
0 0 0
0 0 0
1 0 1
13 3 13
7 0 7
16 0 16
20 0 20
23 0 23
75 49 75
148 134 148
156 141 156
141 120 141
136 111 136
138 112 138
130 98 130
126 93 126
122 88 122
122 89 122
125 93 125
126 93 126
126 93 126
129 99 129
127 94 127
118 82 118
117 81 117
117 81 117
116 79 116
114 77 114
114 77 114
118 83 118
121 87 121
117 81 117
115 80 115
117 84 117
120 89 120
115 83 115
110 76 110
102 67 102
101 66 101
93 61 93
74 43 74
89 62 89
112 91 112
53 27 53
3 0 3
0 0 0
0 0 0
0 0 0
0 0 0
0 0 0
0 0 0
0 0 0
1 0 1
13 3 13
7 0 7
15 0 15
19 0 19
24 0 24
76 50 76
152 138 152
150 134 150
140 118 140
137 111 137
137 111 137
131 99 131
127 94 127
123 89 123
122 89 122
123 90 123
121 86 121
122 88 122
127 96 127
125 92 125
116 78 116
113 75 113
113 75 113
109 69 109
111 72 111
110 71 110
115 79 115
116 80 116
115 80 115
111 74 111
116 81 116
119 87 119
112 79 112
106 70 106
109 75 109
103 69 103
87 53 87
76 43 76
96 70 96
107 84 107
55 31 55
6 0 6
0 0 0
0 0 0
0 0 0
0 0 0
0 0 0
0 0 0
0 0 0
1 0 1
13 3 13
6 0 6
15 0 15
19 0 19
24 0 24
73 47 73
154 141 154
149 131 149
140 119 140
135 109 135
136 109 136
133 102 133
126 94 126
123 90 123
123 90 123
124 91 124
121 86 121
120 84 120
122 88 122
121 85 121
112 73 112
109 69 109
111 72 111
107 66 107
108 67 108
109 70 109
112 75 112
111 73 111
109 71 109
104 65 104
111 75 111
109 73 109
112 80 112
104 68 104
102 65 102
93 57 93
78 42 78
77 42 77
85 57 85
80 51 80
47 24 47
27 17 27
8 2 8
0 0 0
0 0 0
0 0 0
0 0 0
0 0 0
0 0 0
1 0 1
13 3 13
6 0 6
14 0 14
18 0 18
22 0 22
70 43 70
156 144 156
152 135 152
143 122 143
133 107 133
132 104 132
132 102 132
125 92 125
123 90 123
123 90 123
125 92 125
121 86 121
120 84 120
120 85 120
118 82 118
112 72 112
109 68 109
110 71 110
108 67 108
107 67 107
109 70 109
116 80 116
110 72 110
104 65 104
103 64 103
107 71 107
111 77 111
112 81 112
98 61 98
92 54 92
87 51 87
75 39 75
72 37 72
89 58 89
84 57 84
43 16 43
22 10 22
20 12 20
4 0 4
0 0 0
0 0 0
0 0 0
0 0 0
0 0 0
1 0 1
13 3 13
6 0 6
13 0 13
17 0 17
19 0 19
67 40 67
153 141 153
154 138 154
140 119 140
132 105 132
129 101 129
129 98 129
125 92 125
121 87 121
123 90 123
126 93 126
121 87 121
120 84 120
117 81 117
114 76 114
110 69 110
109 68 109
110 70 110
107 67 107
107 67 107
109 70 109
113 77 113
108 69 108
105 66 105
103 64 103
101 64 101
106 73 106
104 72 104
97 63 97
89 52 89
84 48 84
75 39 75
72 38 72
92 61 92
82 52 82
52 24 52
17 4 17
14 6 14
12 4 12
1 0 1
0 0 0
0 0 0
0 0 0
0 0 0
1 0 1
13 3 13
6 0 6
12 0 12
15 0 15
17 0 17
66 39 66
148 134 148
149 132 149
134 110 134
131 105 131
128 100 128
127 96 127
126 94 126
121 88 121
122 88 122
128 96 128
122 88 122
116 80 116
114 77 114
110 70 110
108 67 108
110 70 110
110 70 110
107 67 107
108 68 108
108 68 108
113 75 113
107 67 107
106 67 106
105 67 105
99 61 99
100 65 100
107 77 107
97 65 97
90 54 90
79 42 79
71 34 71
71 35 71
83 51 83
86 57 86
67 36 67
31 7 31
14 4 14
16 7 16
6 0 6
0 0 0
0 0 0
0 0 0
0 0 0
1 0 1
13 3 13
6 0 6
11 0 11
14 0 14
16 0 16
64 37 64
142 126 142
146 127 146
132 107 132
136 111 136
127 98 127
123 91 123
125 93 125
121 87 121
119 84 119
126 95 126
121 88 121
112 74 112
111 72 111
108 67 108
109 68 109
112 72 112
109 68 109
108 67 108
110 70 110
110 70 110
115 78 115
109 70 109
105 66 105
104 67 104
97 59 97
96 61 96
96 62 96
96 62 96
95 59 95
81 44 81
72 36 72
78 43 78
86 56 86
97 70 97
75 43 75
58 26 58
23 8 23
17 6 17
14 5 14
3 0 3
0 0 0
0 0 0
0 0 0
1 0 1
13 3 13
6 0 6
11 0 11
14 0 14
15 0 15
63 37 63
141 125 141
148 130 148
134 110 134
134 109 134
128 100 128
125 93 125
123 91 123
121 87 121
117 82 117
125 93 125
121 87 121
111 75 111
109 70 109
108 69 108
111 72 111
115 78 115
110 70 110
112 73 112
112 73 112
114 77 114
113 76 113
108 69 108
104 65 104
100 63 100
96 59 96
96 61 96
95 61 95
100 68 100
99 67 99
75 39 75
69 32 69
80 46 80
86 54 86
96 68 96
81 50 81
62 30 62
30 9 30
19 7 19
16 7 16
9 2 9
0 0 0
0 0 0
0 0 0
1 0 1
14 3 14
6 0 6
10 0 10
16 0 16
14 0 14
48 22 48
138 123 138
158 144 158
138 114 138
124 95 124
133 107 133
123 93 123
120 88 120
121 90 121
112 76 112
121 89 121
126 96 126
113 77 113
106 66 106
117 83 117
118 83 118
125 93 125
135 107 135
129 98 129
132 102 132
119 84 119
116 80 116
118 82 118
109 73 109
105 67 105
100 64 100
98 61 98
100 67 100
106 76 106
88 58 88
79 49 79
74 44 74
71 42 71
80 49 80
85 56 85
87 59 87
82 54 82
43 14 43
14 2 14
12 2 12
14 4 14
8 2 8
0 0 0
0 0 0
1 0 1
13 3 13
6 0 6
9 0 9
15 0 15
15 0 15
31 7 31
110 87 110
148 131 148
137 114 137
123 94 123
130 103 130
129 101 129
123 93 123
117 85 117
115 81 115
114 80 114
112 75 112
116 80 116
115 79 115
122 90 122
120 86 120
149 127 149
156 138 156
153 133 153
137 110 137
139 112 139
139 111 139
135 105 135
116 81 116
108 70 108
108 71 108
105 68 105
100 68 100
98 67 98
73 43 73
71 40 71
62 31 62
63 31 63
68 39 68
77 50 77
73 46 73
74 44 74
48 19 48
22 5 22
14 3 14
11 4 11
9 2 9
1 0 1
0 0 0
1 0 1
14 3 14
5 0 5
9 0 9
13 0 13
14 0 14
24 2 24
86 60 86
144 129 144
148 129 148
130 103 130
130 105 130
136 111 136
128 101 128
123 94 123
125 95 125
121 90 121
109 72 109
113 77 113
112 75 112
118 85 118
120 87 120
124 92 124
132 102 132
130 99 130
127 96 127
148 124 148
148 124 148
125 91 125
113 77 113
119 84 119
125 92 125
113 78 113
105 74 105
98 68 98
69 37 69
69 39 69
73 42 73
66 33 66
64 33 64
78 53 78
71 43 71
60 30 60
46 18 46
22 4 22
10 1 10
10 3 10
5 0 5
0 0 0
0 0 0
2 0 2
14 3 14
5 0 5
8 0 8
12 0 12
12 0 12
15 0 15
61 32 61
145 132 145
159 144 159
144 122 144
133 109 133
132 106 132
137 114 137
132 107 132
123 94 123
116 83 116
112 77 112
117 82 117
116 80 116
114 78 114
123 91 123
116 81 116
128 96 128
141 116 141
127 95 127
126 94 126
135 104 135
126 91 126
115 79 115
112 76 112
109 73 109
99 62 99
99 67 99
99 68 99
81 49 81
69 36 69
68 35 68
61 29 61
67 37 67
81 56 81
75 46 75
62 29 62
49 19 49
24 6 24
7 0 7
3 0 3
0 0 0
0 0 0
0 0 0
1 0 1
14 3 14
5 0 5
8 0 8
11 0 11
10 0 10
10 0 10
28 2 28
101 79 101
161 151 161
164 151 164
150 131 150
141 119 141
135 111 135
142 121 142
130 104 130
122 92 122
117 83 117
114 78 114
113 77 113
110 71 110
121 87 121
117 83 117
128 98 128
130 100 130
120 86 120
116 79 116
117 81 117
124 89 124
103 64 103
102 66 102
100 63 100
91 53 91
87 50 87
81 43 81
87 54 87
67 33 67
68 34 68
62 28 62
61 31 61
78 50 78
85 54 85
73 42 73
57 27 57
26 10 26
2 0 2
0 0 0
0 0 0
0 0 0
0 0 0
1 0 1
13 3 13
5 0 5
7 0 7
10 0 10
8 0 8
8 0 8
16 0 16
55 29 55
149 137 149
183 177 183
176 166 176
166 153 166
152 133 152
140 118 140
140 118 140
123 94 123
114 80 114
114 77 114
112 73 112
119 84 119
115 79 115
123 90 123
136 110 136
127 96 127
113 76 113
115 78 115
112 75 112
116 79 116
117 82 117
92 57 92
92 56 92
92 55 92
84 46 84
74 37 74
75 40 75
72 37 72
83 49 83
89 56 89
92 62 92
94 66 94
94 66 94
77 48 77
55 25 55
23 8 23
1 0 1
0 0 0
0 0 0
0 0 0
0 0 0
2 0 2
13 3 13
5 0 5
7 0 7
10 0 10
7 0 7
7 0 7
13 0 13
23 2 23
77 53 77
168 160 168
200 200 200
194 190 194
174 161 174
158 141 158
145 124 145
141 119 141
130 102 130
108 69 108
112 74 112
119 84 119
109 71 109
122 91 122
129 98 129
120 87 120
111 73 111
116 79 116
121 87 121
111 73 111
113 77 113
93 58 93
89 53 89
94 57 94
93 58 93
83 43 83
87 49 87
90 53 90
86 50 86
81 46 81
79 46 79
100 74 100
98 72 98
97 73 97
59 31 59
28 12 28
2 0 2
0 0 0
0 0 0
0 0 0
0 0 0
2 0 2
13 3 13
5 0 5
7 0 7
10 0 10
6 0 6
7 0 7
13 0 13
13 0 13
26 4 26
70 44 70
151 138 151
195 193 195
197 194 197
176 164 176
154 134 154
144 122 144
136 111 136
118 84 118
116 81 116
129 100 129
117 83 117
119 86 119
117 82 117
115 80 115
117 81 117
124 90 124
118 82 118
113 76 113
109 72 109
96 59 96
88 49 88
93 55 93
94 55 94
104 69 104
108 78 108
104 77 104
98 68 98
91 61 91
87 60 87
82 53 82
108 86 108
125 110 125
99 81 99
39 22 39
5 0 5
0 0 0
0 0 0
0 0 0
0 0 0
2 0 2
13 3 13
5 0 5
7 0 7
10 0 10
6 0 6
8 0 8
13 0 13
12 0 12
10 0 10
31 6 31
74 45 74
104 77 104
164 151 164
184 177 184
160 143 160
138 114 138
138 115 138
136 112 136
129 101 129
131 106 131
120 88 120
114 79 114
114 78 114
115 79 115
121 87 121
126 93 126
118 83 118
111 73 111
103 64 103
99 61 99
92 52 92
95 55 95
96 57 96
119 90 119
113 84 113
123 98 123
119 92 119
106 77 106
115 94 115
93 72 93
94 73 94
123 106 123
142 91 142
51 35 51
8 0 8
0 0 0
0 0 0
0 0 0
0 0 0
2 0 2
13 3 13
5 0 5
7 0 7
10 0 10
6 0 6
8 0 8
12 0 12
11 0 11
7 0 7
10 0 10
41 13 41
63 33 63
77 44 77
119 95 119
161 146 161
143 122 143
139 115 139
131 104 131
135 108 135
141 118 141
127 98 127
112 77 112
114 80 114
121 88 121
123 90 123
129 99 129
115 81 115
124 92 124
113 78 113
100 61 100
94 54 94
93 55 93
95 59 95
104 71 104
101 68 101
133 73 133
119 93 119
137 119 137
126 107 126
106 85 106
75 52 75
89 68 89
126 120 126
89 79 89
9 0 9
0 0 0
0 0 0
0 0 0
0 0 0
1 0 1
12 2 12
4 0 4
6 0 6
10 0 10
6 0 6
9 0 9
12 0 12
12 0 12
7 0 7
6 0 6
18 0 18
49 22 49
65 34 65
74 42 74
86 53 86
102 70 102
106 76 106
117 86 117
133 106 133
138 113 138
120 88 120
111 76 111
116 84 116
113 80 113
103 67 103
114 84 114
114 83 114
120 89 120
116 84 116
103 67 103
90 52 90
85 50 85
89 55 89
116 89 116
145 128 145
128 105 128
111 86 111
120 99 120
117 96 117
127 111 127
103 83 103
57 25 57
55 36 55
102 98 102
14 2 14
4 0 4
2 0 2
1 0 1
0 0 0
2 0 2
13 2 13
5 0 5
7 0 7
10 0 10
6 0 6
10 0 10
12 0 12
11 0 11
6 0 6
4 0 4
9 0 9
28 8 28
53 25 53
67 35 67
73 39 73
78 43 78
82 46 82
83 45 83
86 48 86
87 48 87
93 55 93
101 65 101
113 82 113
108 74 108
103 67 103
120 90 120
118 88 118
117 85 117
113 79 113
108 73 108
96 59 96
82 43 82
97 59 97
100 64 100
107 74 107
98 63 98
87 52 87
80 45 80
76 43 76
75 42 75
64 33 64
34 11 34
6 0 6
5 0 5
0 0 0
0 0 0
0 0 0
0 0 0
0 0 0
2 0 2
11 1 11
6 0 6
7 0 7
9 0 9
6 0 6
10 0 10
14 0 14
11 0 11
5 0 5
3 0 3
7 0 7
16 0 16
39 15 39
56 27 56
72 39 72
77 42 77
82 46 82
82 45 82
83 45 83
85 48 85
95 59 95
116 86 116
116 86 116
111 79 111
104 70 104
112 80 112
111 80 111
104 70 104
99 64 99
86 46 86
89 55 89
95 61 95
138 118 138
145 126 145
151 136 151
128 111 128
118 94 118
113 90 113
77 48 77
81 54 81
99 74 99
66 42 66
40 21 40
10 1 10
1 0 1
0 0 0
0 0 0
0 0 0
0 0 0
2 0 2
16 5 16
6 0 6
8 0 8
10 0 10
8 0 8
8 0 8
13 0 13
10 0 10
5 0 5
4 0 4
7 0 7
7 0 7
30 10 30
54 28 54
66 37 66
74 41 74
77 43 77
80 43 80
84 46 84
87 50 87
92 55 92
109 76 109
105 71 105
97 60 97
99 63 99
109 76 109
118 88 118
115 84 115
93 57 93
86 49 86
89 55 89
102 71 102
135 113 135
130 105 130
131 108 131
110 87 110
108 82 108
106 79 106
75 43 75
93 69 93
109 89 109
157 158 157
85 72 85
24 8 24
3 0 3
1 0 1
0 0 0
0 0 0
0 0 0
2 0 2
13 3 13
5 0 5
7 0 7
10 0 10
9 0 9
7 0 7
11 0 11
11 0 11
5 0 5
4 0 4
7 0 7
4 0 4
20 2 20
49 24 49
60 32 60
70 38 70
73 40 73
75 40 75
79 43 79
89 53 89
91 55 91
94 58 94
92 55 92
91 53 91
104 69 104
118 87 118
113 81 113
111 79 111
95 60 95
91 56 91
99 68 99
110 82 110
119 92 119
115 86 115
130 108 130
111 82 111
104 74 104
89 56 89
88 57 88
110 90 110
134 123 134
115 105 115
55 37 55
15 3 15
0 0 0
0 0 0
0 0 0
0 0 0
0 0 0
2 0 2
13 3 13
5 0 5
7 0 7
10 0 10
8 0 8
6 0 6
11 0 11
11 0 11
6 0 6
4 0 4
6 0 6
4 0 4
12 0 12
40 16 40
57 29 57
69 38 69
72 40 72
72 38 72
79 45 79
89 53 89
88 52 88
98 64 98
103 68 103
105 72 105
104 70 104
111 78 111
109 77 109
109 76 109
97 62 97
92 59 92
97 65 97
100 69 100
106 75 106
127 105 127
116 89 116
104 74 104
98 65 98
109 81 109
103 77 103
130 115 130
140 130 140
89 73 89
38 20 38
7 0 7
0 0 0
0 0 0
0 0 0
0 0 0
0 0 0
2 0 2
13 3 13
5 0 5
8 0 8
11 0 11
8 0 8
5 0 5
9 0 9
11 0 11
5 0 5
4 0 4
7 0 7
3 0 3
8 0 8
35 12 35
55 28 55
68 38 68
70 39 70
69 37 69
78 43 78
88 53 88
91 56 91
95 59 95
99 64 99
100 65 100
101 65 101
106 72 106
105 72 105
98 62 98
97 62 97
94 63 94
98 68 98
96 63 96
96 63 96
104 73 104
108 77 108
104 74 104
102 73 102
114 90 114
106 80 106
116 98 116
105 87 105
60 39 60
34 15 34
3 0 3
0 0 0
0 0 0
0 0 0
0 0 0
0 0 0
2 0 2
13 3 13
5 0 5
8 0 8
11 0 11
7 0 7
5 0 5
10 0 10
11 0 11
4 0 4
4 0 4
8 0 8
3 0 3
6 0 6
31 10 31
54 27 54
66 37 66
68 38 68
70 37 70
75 40 75
81 44 81
86 50 86
98 65 98
101 67 101
101 67 101
97 61 97
104 70 104
100 65 100
90 53 90
85 47 85
82 47 82
92 59 92
98 67 98
95 62 95
93 60 93
92 59 92
104 75 104
99 70 99
116 93 116
113 90 113
99 76 99
91 71 91
53 32 53
32 15 32
3 0 3
0 0 0
0 0 0
0 0 0
0 0 0
0 0 0
2 0 2
12 2 12
5 0 5
8 0 8
11 0 11
7 0 7
4 0 4
10 0 10
11 0 11
4 0 4
4 0 4
7 0 7
3 0 3
6 0 6
30 12 30
53 26 53
63 34 63
67 38 67
71 38 71
75 40 75
79 43 79
82 46 82
94 59 94
103 70 103
102 68 102
106 72 106
105 70 105
97 63 97
91 55 91
81 42 81
76 40 76
78 41 78
88 55 88
104 77 104
94 63 94
89 59 89
97 69 97
108 83 108
110 87 110
115 95 115
103 82 103
93 74 93
55 33 55
33 15 33
3 0 3
0 0 0
0 0 0
0 0 0
0 0 0
0 0 0
2 0 2
12 2 12
5 0 5
9 0 9
11 0 11
6 0 6
4 0 4
9 0 9
11 0 11
5 0 5
4 0 4
7 0 7
3 0 3
7 0 7
32 13 32
51 26 51
61 32 61
68 39 68
70 38 70
74 40 74
80 44 80
84 49 84
91 57 91
103 71 103
103 71 103
106 73 106
100 65 100
92 56 92
91 55 91
76 38 76
72 38 72
73 36 73
80 44 80
80 45 80
92 63 92
110 89 110
97 73 97
104 82 104
116 96 116
135 122 135
119 102 119
102 86 102
55 33 55
33 15 33
3 0 3
0 0 0
0 0 0
0 0 0
0 0 0
0 0 0
2 0 2
12 2 12
5 0 5
8 0 8
10 0 10
6 0 6
4 0 4
8 0 8
11 0 11
4 0 4
4 0 4
6 0 6
2 0 2
8 0 8
30 12 30
46 24 46
59 31 59
70 39 70
72 39 72
74 40 74
80 45 80
83 49 83
92 59 92
102 70 102
97 63 97
105 72 105
102 69 102
92 56 92
86 49 86
73 37 73
71 35 71
69 34 69
78 43 78
74 40 74
70 38 70
76 46 76
97 75 97
97 76 97
105 87 105
134 122 134
140 132 140
122 114 122
60 42 60
28 11 28
3 0 3
0 0 0
0 0 0
0 0 0
0 0 0
0 0 0
0 0 0
0 0 0
0 0 0
0 0 0
0 0 0
0 0 0
0 0 0
0 0 0
0 0 0
0 0 0
0 0 0
0 0 0
0 0 0
0 0 0
0 0 0
0 0 0
0 0 0
0 0 0
0 0 0
0 0 0
0 0 0
0 0 0
0 0 0
0 0 0
0 0 0
0 0 0
0 0 0
0 0 0
0 0 0
0 0 0
0 0 0
0 0 0
0 0 0
0 0 0
0 0 0
0 0 0
0 0 0
0 0 0
0 0 0
0 0 0
0 0 0
0 0 0
0 0 0
0 0 0
0 0 0
0 0 0
0 0 0
0 0 0
0 0 0
