P3 
50 50 
255
0 0 0
0 0 0
0 0 0
0 0 0
0 0 0
0 0 0
0 0 0
0 0 0
0 0 0
0 0 0
0 0 0
0 0 0
0 0 0
0 0 0
0 0 0
0 0 0
0 0 0
0 0 0
0 0 0
0 0 0
0 0 0
0 0 0
0 0 0
0 0 0
0 0 0
0 0 0
0 0 0
0 0 0
0 0 0
0 0 0
0 0 0
0 0 0
0 0 0
0 0 0
0 0 0
0 0 0
0 0 0
0 0 0
0 0 0
0 0 0
0 0 0
0 0 0
0 0 0
0 0 0
0 0 0
0 0 0
0 0 0
0 0 0
0 0 0
0 0 0
0 0 0
0 0 0
0 0 0
0 0 0
0 0 0
0 0 0
0 0 0
0 0 0
0 0 0
0 0 0
0 0 0
0 0 0
0 0 0
0 0 0
0 0 0
0 0 0
0 0 0
0 0 0
0 0 0
1 0 1
1 0 1
3 0 3
6 0 6
10 0 10
15 3 15
17 4 17
17 4 17
17 4 17
11 0 11
6 0 6
4 0 4
3 0 3
3 0 3
3 0 3
5 0 5
5 0 5
5 0 5
3 0 3
4 0 4
3 0 3
5 0 5
8 0 8
11 1 11
7 0 7
7 0 7
10 0 10
3 0 3
6 0 6
13 2 13
1 0 1
0 0 0
0 0 0
0 0 0
0 0 0
0 0 0
0 0 0
0 0 0
0 0 0
0 0 0
0 0 0
0 0 0
0 0 0
0 0 0
0 0 0
0 0 0
0 0 0
0 0 0
1 0 1
8 0 8
25 9 25
38 21 38
55 38 55
69 53 69
83 69 83
98 86 98
106 96 106
104 93 104
93 81 93
76 61 76
62 46 62
52 35 52
39 22 39
27 11 27
15 2 15
5 0 5
4 0 4
5 0 5
4 0 4
5 0 5
4 0 4
6 0 6
7 0 7
12 0 12
8 0 8
6 0 6
10 0 10
3 0 3
6 0 6
13 2 13
1 0 1
0 0 0
0 0 0
0 0 0
0 0 0
0 0 0
0 0 0
0 0 0
0 0 0
0 0 0
0 0 0
0 0 0
0 0 0
0 0 0
0 0 0
0 0 0
0 0 0
8 0 8
28 12 28
58 40 58
105 94 105
123 115 123
130 123 130
133 126 133
139 134 139
146 143 146
152 149 152
147 143 147
142 138 142
137 132 137
133 127 133
131 125 131
126 120 126
112 103 112
75 59 75
37 18 37
15 1 15
6 0 6
4 0 4
5 0 5
4 0 4
7 0 7
7 0 7
12 0 12
10 0 10
8 0 8
10 0 10
4 0 4
6 0 6
13 2 13
1 0 1
0 0 0
0 0 0
0 0 0
0 0 0
0 0 0
0 0 0
0 0 0
0 0 0
0 0 0
0 0 0
0 0 0
0 0 0
0 0 0
0 0 0
1 0 1
21 6 21
46 27 46
103 91 103
129 122 129
137 130 137
135 126 135
130 120 130
132 122 132
138 130 138
133 123 133
133 122 133
132 122 132
126 114 126
124 111 124
124 111 124
120 107 120
120 107 120
129 120 129
133 126 133
121 113 121
73 55 73
32 14 32
11 0 11
5 0 5
5 0 5
6 0 6
8 0 8
13 0 13
9 0 9
9 0 9
10 0 10
4 0 4
6 0 6
14 2 14
1 0 1
0 0 0
0 0 0
0 0 0
0 0 0
0 0 0
0 0 0
0 0 0
0 0 0
0 0 0
0 0 0
0 0 0
0 0 0
0 0 0
2 0 2
25 8 25
63 45 63
118 107 118
141 135 141
142 135 142
136 127 136
135 125 135
133 122 133
134 123 134
131 119 131
121 106 121
124 109 124
123 108 123
118 101 118
116 99 116
112 94 112
108 89 108
107 87 107
108 90 108
115 100 115
131 122 131
125 116 125
107 94 107
48 28 48
17 1 17
8 0 8
5 0 5
8 0 8
14 0 14
9 0 9
10 0 10
11 0 11
5 0 5
6 0 6
14 3 14
1 0 1
0 0 0
0 0 0
0 0 0
0 0 0
0 0 0
0 0 0
0 0 0
0 0 0
0 0 0
0 0 0
0 0 0
0 0 0
0 0 0
17 4 17
77 62 77
133 126 133
146 140 146
150 145 150
147 140 147
142 133 142
138 128 138
132 120 132
126 111 126
121 104 121
118 101 118
116 98 116
115 98 115
114 96 114
115 97 115
111 91 111
106 85 106
107 86 107
106 86 106
106 87 106
110 93 110
126 115 126
135 129 135
112 100 112
59 39 59
21 3 21
7 0 7
8 0 8
12 0 12
8 0 8
9 0 9
12 0 12
6 0 6
6 0 6
14 3 14
1 0 1
0 0 0
0 0 0
0 0 0
0 0 0
0 0 0
0 0 0
0 0 0
0 0 0
0 0 0
0 0 0
0 0 0
0 0 0
7 0 7
71 56 71
132 125 132
153 148 153
144 135 144
145 137 145
144 135 144
138 127 138
131 117 131
119 100 119
114 95 114
115 96 115
110 91 110
109 89 109
107 86 107
109 89 109
111 92 111
110 90 110
104 82 104
104 82 104
103 82 103
104 82 104
102 81 102
110 92 110
125 113 125
122 111 122
108 95 108
56 35 56
17 2 17
10 0 10
11 0 11
7 0 7
8 0 8
12 0 12
6 0 6
6 0 6
14 3 14
1 0 1
0 0 0
0 0 0
0 0 0
0 0 0
0 0 0
0 0 0
0 0 0
0 0 0
0 0 0
0 0 0
0 0 0
2 0 2
52 35 52
131 123 131
155 152 155
143 134 143
137 126 137
131 117 131
129 115 129
129 115 129
119 101 119
108 86 108
107 85 107
107 85 107
104 81 104
104 81 104
105 83 105
104 83 104
105 83 105
105 84 105
99 76 99
103 81 103
105 84 105
104 82 104
102 80 102
105 84 105
110 92 110
126 114 126
115 100 115
94 76 94
42 21 42
15 0 15
11 0 11
8 0 8
9 0 9
11 0 11
7 0 7
6 0 6
14 3 14
1 0 1
0 0 0
0 0 0
0 0 0
0 0 0
0 0 0
0 0 0
0 0 0
0 0 0
0 0 0
0 0 0
0 0 0
24 10 24
105 93 105
140 133 140
140 130 140
126 111 126
126 110 126
119 102 119
114 94 114
114 95 114
108 85 108
100 75 100
101 77 101
101 77 101
100 76 100
100 77 100
102 79 102
101 77 101
99 75 99
101 78 101
101 77 101
103 79 103
103 80 103
104 81 104
104 82 104
103 81 103
105 84 105
117 101 117
127 115 127
118 105 118
78 58 78
24 3 24
12 0 12
10 0 10
11 0 11
12 0 12
8 0 8
6 0 6
14 3 14
1 0 1
0 0 0
0 0 0
0 0 0
0 0 0
0 0 0
0 0 0
0 0 0
0 0 0
0 0 0
0 0 0
7 0 7
70 53 70
132 124 132
145 137 145
126 111 126
116 97 116
113 93 113
115 96 115
110 88 110
103 78 103
97 70 97
99 72 99
99 74 99
99 75 99
99 74 99
101 77 101
100 76 100
97 71 97
98 72 98
99 74 99
100 76 100
99 74 99
105 82 105
103 80 103
103 81 103
102 80 102
103 81 103
118 102 118
115 98 115
117 102 117
101 83 101
49 25 49
17 0 17
13 0 13
13 0 13
13 0 13
9 0 9
6 0 6
14 3 14
1 0 1
0 0 0
0 0 0
0 0 0
0 0 0
0 0 0
0 0 0
0 0 0
0 0 0
0 0 0
1 0 1
20 7 20
101 89 101
125 112 125
125 110 125
109 88 109
105 82 105
106 84 106
102 77 102
97 70 97
97 70 97
95 67 95
92 63 92
96 69 96
99 75 99
100 76 100
99 75 99
97 72 97
96 70 96
99 74 99
99 74 99
97 72 97
101 78 101
100 76 100
101 77 101
102 78 102
103 81 103
105 83 105
107 87 107
116 99 116
128 115 128
120 106 120
78 57 78
25 2 25
16 0 16
13 0 13
12 0 12
11 0 11
6 0 6
14 3 14
1 0 1
0 0 0
0 0 0
0 0 0
0 0 0
0 0 0
0 0 0
0 0 0
0 0 0
0 0 0
2 0 2
40 22 40
123 112 123
125 112 125
112 94 112
102 80 102
101 77 101
97 71 97
98 72 98
93 65 93
95 67 95
93 66 93
96 69 96
99 73 99
98 72 98
97 72 97
101 78 101
100 76 100
98 72 98
96 69 96
96 70 96
99 74 99
97 72 97
103 81 103
101 77 101
102 78 102
103 81 103
105 84 105
108 87 108
127 114 127
122 106 122
119 102 119
93 73 93
37 10 37
18 0 18
13 0 13
12 0 12
12 0 12
7 0 7
14 3 14
1 0 1
0 0 0
0 0 0
0 0 0
0 0 0
0 0 0
0 0 0
0 0 0
0 0 0
0 0 0
8 0 8
69 51 69
118 104 118
117 100 117
102 80 102
98 74 98
95 68 95
98 72 98
97 70 97
91 61 91
93 64 93
95 68 95
94 67 94
96 70 96
98 73 98
97 71 97
97 71 97
94 68 94
96 70 96
100 76 100
97 72 97
95 69 95
100 76 100
100 76 100
101 77 101
101 77 101
104 82 104
103 82 103
108 87 108
114 96 114
113 94 113
128 114 128
115 98 115
54 26 54
20 0 20
14 0 14
13 0 13
13 0 13
7 0 7
14 2 14
1 0 1
0 0 0
0 0 0
0 0 0
0 0 0
0 0 0
0 0 0
0 0 0
1 0 1
2 0 2
28 8 28
107 92 107
115 99 115
99 77 99
95 71 95
94 67 94
94 66 94
96 68 96
91 62 91
90 59 90
93 64 93
92 63 92
95 67 95
98 72 98
92 64 92
91 63 91
94 67 94
94 68 94
92 64 92
94 67 94
97 71 97
96 71 96
98 73 98
99 75 99
100 75 100
99 75 99
101 78 101
103 81 103
107 86 107
106 85 106
122 105 122
136 126 136
127 114 127
75 49 75
25 1 25
16 0 16
14 0 14
13 0 13
7 0 7
14 3 14
1 0 1
0 0 0
0 0 0
0 0 0
0 0 0
0 0 0
0 0 0
0 0 0
1 0 1
9 0 9
64 45 64
107 90 107
114 97 114
96 72 96
94 67 94
93 66 93
93 64 93
94 66 94
87 56 87
89 58 89
92 63 92
92 64 92
94 67 94
92 64 92
89 60 89
94 67 94
100 76 100
98 73 98
96 70 96
95 68 95
93 66 93
96 70 96
96 70 96
98 74 98
97 71 97
97 72 97
100 77 100
99 75 99
103 80 103
107 85 107
126 111 126
129 116 129
124 108 124
90 65 90
31 5 31
18 0 18
16 0 16
14 0 14
8 0 8
15 3 15
1 0 1
0 0 0
0 0 0
0 0 0
0 0 0
0 0 0
0 0 0
0 0 0
2 0 2
27 9 27
97 81 97
93 76 93
105 86 105
90 64 90
96 70 96
92 63 92
97 68 97
91 62 91
85 54 85
88 57 88
90 61 90
93 65 93
89 59 89
90 62 90
94 67 94
95 68 95
95 69 95
92 65 92
95 68 95
98 73 98
93 65 93
94 67 94
98 73 98
94 68 94
97 71 97
98 73 98
102 80 102
100 77 100
104 82 104
107 85 107
115 97 115
115 96 115
121 102 121
97 74 97
39 12 39
19 0 19
17 0 17
15 0 15
8 0 8
15 3 15
1 0 1
0 0 0
0 0 0
0 0 0
0 0 0
0 0 0
0 0 0
0 0 0
2 0 2
43 23 43
110 96 110
87 71 87
96 76 96
82 55 82
94 67 94
89 58 89
98 69 98
89 58 89
88 57 88
87 56 87
93 64 93
92 65 92
88 59 88
92 64 92
96 70 96
92 63 92
91 62 91
88 59 88
91 62 91
99 74 99
94 67 94
93 65 93
97 72 97
95 69 95
99 74 99
99 74 99
101 78 101
100 77 100
104 81 104
106 84 106
107 86 107
109 88 109
118 99 118
102 81 102
45 19 45
21 0 21
17 0 17
16 0 16
8 0 8
15 3 15
1 0 1
0 0 0
0 0 0
0 0 0
0 0 0
0 0 0
0 0 0
0 0 0
3 0 3
55 34 55
106 91 106
72 53 72
88 67 88
82 55 82
89 60 89
92 61 92
95 65 95
90 60 90
93 64 93
88 59 88
95 68 95
95 68 95
91 63 91
98 72 98
97 71 97
91 62 91
89 60 89
89 60 89
92 63 92
98 72 98
96 70 96
93 65 93
99 73 99
98 73 98
98 73 98
96 70 96
98 74 98
100 77 100
103 80 103
109 88 109
105 84 105
109 89 109
124 107 124
108 88 108
52 26 52
22 0 22
18 0 18
16 0 16
8 0 8
15 3 15
1 0 1
0 0 0
0 0 0
0 0 0
0 0 0
0 0 0
0 0 0
0 0 0
2 0 2
50 28 50
86 67 86
63 39 63
65 40 65
78 49 78
85 55 85
93 63 93
96 67 96
97 68 97
99 72 99
95 68 95
97 71 97
96 69 96
98 72 98
102 78 102
95 68 95
90 61 90
89 60 89
90 60 90
92 62 92
95 69 95
97 72 97
94 67 94
99 73 99
99 74 99
98 72 98
95 69 95
98 72 98
101 78 101
101 78 101
109 89 109
106 84 106
113 93 113
132 119 132
116 98 116
59 35 59
22 0 22
19 0 19
16 0 16
7 0 7
15 3 15
1 0 1
0 0 0
0 0 0
0 0 0
0 0 0
0 0 0
0 0 0
0 0 0
2 0 2
46 23 46
95 77 95
77 54 77
66 41 66
83 56 83
90 63 90
95 67 95
95 65 95
99 71 99
102 76 102
99 72 99
99 73 99
97 70 97
99 73 99
98 72 98
91 62 91
90 60 90
89 60 89
89 59 89
90 61 90
94 67 94
98 72 98
95 68 95
98 72 98
98 72 98
96 70 96
96 70 96
98 72 98
102 79 102
103 80 103
109 88 109
105 83 105
117 99 117
130 116 130
124 109 124
67 44 67
23 0 23
19 0 19
17 0 17
7 0 7
15 3 15
1 0 1
0 0 0
0 0 0
0 0 0
0 0 0
0 0 0
0 0 0
0 0 0
6 0 6
46 24 46
88 67 88
81 57 81
68 40 68
79 51 79
94 68 94
106 83 106
94 64 94
95 66 95
100 73 100
98 70 98
96 69 96
94 67 94
94 67 94
96 69 96
90 61 90
89 58 89
86 56 86
88 58 88
89 59 89
93 66 93
97 71 97
93 65 93
97 71 97
97 72 97
96 70 96
97 70 97
97 72 97
102 79 102
103 80 103
109 88 109
106 84 106
118 101 118
122 105 122
126 112 126
69 46 69
23 0 23
19 0 19
17 0 17
7 0 7
15 3 15
1 0 1
0 0 0
0 0 0
0 0 0
0 0 0
0 0 0
0 0 0
8 2 8
27 17 27
41 20 41
70 47 70
72 48 72
69 40 69
70 39 70
85 57 85
94 67 94
93 63 93
93 62 93
92 62 92
93 63 93
89 59 89
91 62 91
93 65 93
95 68 95
89 60 89
88 58 88
87 58 87
88 58 88
88 59 88
92 65 92
94 67 94
91 62 91
97 71 97
97 71 97
96 70 96
96 69 96
97 72 97
101 78 101
104 82 104
108 87 108
105 83 105
114 96 114
117 98 117
126 112 126
67 43 67
23 0 23
19 0 19
16 0 16
7 0 7
15 3 15
1 0 1
0 0 0
0 0 0
0 0 0
0 0 0
0 0 0
5 0 5
22 13 22
22 10 22
37 14 37
71 49 71
80 57 80
64 36 64
66 35 66
80 51 80
82 53 82
87 56 87
92 61 92
92 61 92
89 57 89
85 53 85
86 55 86
91 63 91
96 69 96
89 59 89
88 58 88
89 61 89
88 58 88
89 60 89
92 64 92
92 64 92
92 63 92
98 73 98
95 69 95
98 72 98
97 71 97
97 72 97
98 73 98
103 81 103
105 83 105
104 81 104
113 94 113
117 98 117
126 112 126
63 39 63
21 0 21
18 0 18
15 0 15
7 0 7
15 3 15
1 0 1
0 0 0
0 0 0
0 0 0
0 0 0
1 0 1
13 4 13
15 6 15
16 3 16
44 20 44
72 48 72
86 66 86
65 37 65
66 35 66
75 46 75
79 49 79
85 54 85
86 56 86
87 57 87
83 51 83
84 52 84
85 54 85
90 60 90
96 70 96
90 61 90
88 59 88
89 61 89
88 59 88
90 61 90
91 63 91
90 61 90
92 63 92
99 73 99
95 67 95
99 74 99
98 73 98
97 71 97
98 73 98
101 78 101
103 81 103
103 80 103
111 92 111
118 99 118
122 107 122
61 37 61
19 0 19
17 0 17
14 0 14
6 0 6
15 3 15
1 0 1
0 0 0
0 0 0
0 0 0
0 0 0
6 0 6
17 7 17
14 5 14
28 7 28
57 31 57
75 52 75
77 55 77
64 34 64
63 31 63
70 40 70
81 52 81
85 55 85
88 59 88
84 53 84
83 51 83
85 53 85
85 53 85
87 57 87
95 68 95
89 61 89
89 60 89
91 63 91
89 61 89
90 61 90
89 61 89
88 59 88
93 66 93
95 68 95
96 70 96
98 73 98
97 70 97
96 70 96
98 74 98
102 80 102
103 81 103
103 81 103
108 88 108
118 100 118
119 103 119
60 36 60
17 0 17
16 0 16
13 0 13
6 0 6
15 3 15
1 0 1
0 0 0
0 0 0
0 0 0
3 0 3
15 6 15
18 6 18
22 7 22
51 23 51
67 40 67
85 62 85
77 52 77
70 40 70
65 32 65
73 41 73
86 57 86
85 54 85
84 54 84
81 51 81
81 49 81
86 54 86
83 50 83
86 54 86
94 66 94
90 62 90
89 60 89
91 64 91
89 60 89
89 60 89
89 60 89
88 59 88
93 66 93
91 63 91
98 72 98
95 68 95
93 65 93
96 70 96
99 75 99
100 76 100
101 78 101
104 82 104
109 91 109
119 102 119
115 99 115
58 35 58
16 0 16
15 0 15
12 0 12
6 0 6
15 3 15
1 0 1
0 0 0
0 0 0
0 0 0
9 3 9
17 7 17
20 8 20
28 8 28
55 27 55
73 48 73
86 64 86
77 52 77
72 41 72
62 29 62
69 36 69
88 58 88
86 57 86
83 53 83
81 51 81
81 50 81
83 52 83
82 49 82
85 53 85
93 64 93
93 65 93
90 61 90
93 65 93
89 59 89
90 60 90
90 61 90
89 60 89
92 65 92
92 64 92
98 73 98
95 67 95
92 64 92
96 71 96
97 72 97
99 75 99
101 78 101
103 82 103
111 94 111
120 104 120
115 99 115
58 35 58
15 0 15
14 0 14
12 0 12
6 0 6
14 3 14
1 0 1
0 0 0
0 0 0
8 2 8
15 4 15
13 2 13
14 2 14
39 13 39
77 54 77
81 60 81
75 52 75
74 50 74
63 35 63
66 37 66
70 40 70
75 48 75
92 66 92
87 59 87
86 54 86
85 53 85
86 55 86
89 58 89
94 65 94
96 69 96
99 73 99
101 75 101
98 71 98
97 70 97
95 66 95
96 69 96
95 67 95
90 61 90
98 72 98
96 69 96
93 65 93
92 64 92
99 74 99
98 74 98
98 74 98
104 83 104
102 81 102
120 106 120
129 116 129
115 100 115
44 21 44
14 0 14
16 0 16
11 0 11
6 0 6
15 3 15
2 0 2
0 0 0
1 0 1
10 2 10
12 4 12
15 3 15
21 5 21
44 17 44
67 43 67
66 45 66
67 46 67
62 39 62
58 31 58
56 29 56
62 34 62
61 36 61
86 59 86
89 61 89
96 67 96
94 63 94
91 61 91
96 67 96
118 98 118
117 98 117
109 86 109
104 78 104
107 82 107
106 81 106
105 79 105
96 68 96
95 66 95
96 69 96
98 72 98
92 65 92
90 60 90
93 64 93
98 73 98
98 75 98
101 78 101
102 80 102
103 82 103
114 99 114
119 104 119
91 71 91
29 6 29
15 0 15
15 0 15
10 0 10
6 0 6
15 3 15
2 0 2
0 0 0
0 0 0
5 0 5
11 3 11
11 1 11
21 3 21
41 16 41
54 28 54
65 43 65
70 49 70
59 33 59
62 33 62
68 41 68
62 35 62
60 33 60
85 59 85
95 72 95
107 84 107
117 95 117
106 81 106
100 74 100
112 90 112
125 107 125
118 98 118
102 75 102
105 81 105
101 75 101
96 68 96
94 66 94
98 71 98
95 68 95
97 71 97
92 64 92
95 67 95
99 73 99
102 78 102
100 77 100
103 81 103
103 82 103
106 87 106
119 105 119
113 97 113
72 48 72
22 2 22
14 0 14
13 0 13
10 0 10
6 0 6
15 3 15
2 0 2
0 0 0
0 0 0
0 0 0
3 0 3
7 1 7
22 5 22
45 18 45
57 28 57
70 47 70
73 52 73
61 36 61
56 27 56
63 32 63
62 33 62
72 44 72
88 61 88
86 59 86
89 60 89
101 74 101
102 76 102
106 82 106
116 96 116
126 111 126
108 85 108
107 84 107
114 93 114
104 80 104
94 67 94
100 73 100
97 71 97
97 72 97
101 75 101
97 72 97
97 70 97
98 73 98
101 77 101
103 80 103
101 79 101
109 90 109
118 103 118
131 122 131
118 105 118
51 26 51
14 0 14
12 0 12
12 0 12
9 0 9
5 0 5
15 3 15
2 0 2
0 0 0
0 0 0
0 0 0
0 0 0
3 0 3
25 8 25
50 23 50
65 37 65
77 52 77
71 46 71
55 28 55
57 27 57
62 31 62
60 30 60
76 45 76
72 39 72
77 46 77
80 48 80
88 58 88
90 61 90
91 62 91
112 90 112
102 77 102
97 71 97
98 71 98
106 82 106
107 85 107
102 79 102
105 82 105
98 72 98
96 71 96
100 76 100
106 83 106
103 78 103
103 79 103
105 82 105
104 83 104
109 90 109
122 109 122
128 117 128
125 115 125
82 64 82
24 2 24
9 0 9
11 0 11
11 0 11
9 0 9
5 0 5
15 3 15
2 0 2
0 0 0
0 0 0
0 0 0
0 0 0
2 0 2
22 7 22
49 21 49
68 40 68
83 55 83
84 56 84
81 51 81
82 52 82
77 46 77
65 34 65
67 36 67
65 33 65
75 43 75
81 49 81
81 50 81
83 54 83
111 90 111
104 79 104
94 65 94
92 64 92
90 61 90
107 84 107
112 91 112
103 79 103
101 78 101
103 80 103
99 75 99
103 81 103
107 86 107
104 80 104
106 84 106
106 85 106
116 99 116
130 118 130
139 131 139
143 138 143
118 108 118
47 24 47
14 0 14
8 0 8
9 0 9
10 0 10
8 0 8
5 0 5
15 3 15
2 0 2
0 0 0
0 0 0
0 0 0
0 0 0
2 0 2
27 12 27
53 26 53
85 59 85
86 59 86
87 59 87
70 38 70
73 41 73
79 47 79
84 51 84
79 46 79
75 40 75
83 52 83
81 50 81
78 47 78
85 56 85
110 88 110
99 72 99
98 71 98
93 63 93
90 61 90
111 89 111
114 93 114
105 82 105
96 71 96
101 76 101
103 81 103
102 81 102
113 92 113
116 96 116
118 100 118
130 118 130
140 132 140
153 150 153
160 160 160
130 122 130
62 43 62
19 2 19
11 0 11
7 0 7
7 0 7
10 0 10
8 0 8
5 0 5
15 3 15
2 0 2
0 0 0
0 0 0
0 0 0
0 0 0
5 0 5
40 23 40
87 67 87
107 85 107
94 68 94
74 44 74
77 52 77
78 49 78
85 58 85
89 62 89
92 63 92
90 58 90
83 51 83
81 49 81
74 39 74
81 49 81
96 69 96
99 72 99
97 69 97
103 78 103
96 68 96
107 84 107
108 86 108
103 79 103
99 74 99
108 87 108
102 78 102
107 85 107
118 100 118
123 107 123
134 123 134
145 139 145
158 157 158
163 164 163
124 116 124
57 36 57
22 4 22
11 0 11
11 0 11
7 0 7
6 0 6
10 0 10
8 0 8
5 0 5
15 3 15
2 0 2
0 0 0
0 0 0
0 0 0
0 0 0
8 0 8
53 37 53
130 96 130
109 87 109
82 58 82
80 59 80
101 80 101
92 64 92
103 76 103
98 70 98
94 65 94
97 67 97
87 55 87
83 50 83
77 42 77
82 49 82
88 56 88
94 65 94
96 69 96
109 87 109
111 89 111
111 90 111
105 82 105
106 82 106
107 84 107
111 89 111
107 84 107
118 100 118
121 103 121
124 109 124
136 125 136
144 137 144
128 117 128
84 64 84
60 37 60
26 5 26
9 0 9
11 0 11
11 0 11
8 0 8
6 0 6
11 0 11
7 0 7
5 0 5
14 3 14
2 0 2
0 0 0
0 0 0
0 0 0
0 0 0
9 0 9
92 82 92
123 115 123
81 58 81
67 44 67
94 71 94
113 93 113
125 106 125
104 79 104
107 65 107
89 60 89
92 62 92
85 53 85
83 50 83
79 43 79
82 49 82
96 67 96
104 78 104
96 68 96
118 101 118
119 102 119
115 97 115
105 82 105
101 76 101
112 89 112
126 108 126
121 104 121
119 101 119
127 112 127
120 104 120
122 107 122
92 70 92
59 33 59
51 27 51
33 10 33
9 0 9
7 0 7
10 0 10
11 0 11
8 0 8
6 0 6
10 0 10
7 0 7
5 0 5
14 3 14
2 0 2
0 0 0
1 0 1
1 0 1
4 0 4
13 2 13
103 97 103
56 37 56
55 25 55
99 77 99
117 99 117
102 76 102
112 86 112
105 81 105
107 83 107
112 88 112
101 71 101
82 51 82
75 41 75
76 40 76
83 48 83
96 67 96
104 78 104
97 69 97
97 69 97
89 60 89
100 74 100
108 86 108
107 84 107
119 101 119
134 122 134
119 101 119
102 78 102
90 63 90
82 55 82
70 43 70
59 33 59
52 27 52
41 18 41
15 0 15
6 0 6
7 0 7
10 0 10
10 0 10
9 0 9
5 0 5
10 0 10
7 0 7
4 0 4
14 3 14
2 0 2
0 0 0
0 0 0
0 0 0
0 0 0
0 0 0
5 0 5
6 0 6
32 10 32
59 31 59
69 39 69
70 39 70
73 42 73
80 48 80
92 64 92
96 68 96
92 62 92
89 59 89
73 39 73
81 46 81
84 51 84
94 64 94
97 69 97
100 72 100
102 75 102
85 54 85
87 57 87
92 63 92
86 56 86
81 50 81
76 43 76
72 41 72
70 38 70
67 37 67
65 36 65
59 32 59
54 29 54
43 21 43
24 6 24
8 0 8
4 0 4
6 0 6
9 0 9
10 0 10
10 0 10
6 0 6
10 0 10
7 0 7
5 0 5
14 3 14
2 0 2
0 0 0
0 0 0
0 0 0
0 0 0
1 0 1
10 0 10
37 20 37
61 39 61
88 65 88
76 52 76
76 49 76
103 84 103
106 83 106
121 100 121
126 107 126
119 94 119
117 91 117
86 53 86
81 47 81
79 45 79
93 64 93
95 67 95
102 76 102
102 76 102
93 65 93
94 67 94
98 72 98
95 69 95
78 48 78
70 39 70
68 37 68
66 36 66
65 36 65
61 34 61
57 31 57
43 21 43
31 12 31
13 0 13
6 0 6
3 0 3
5 0 5
8 0 8
11 0 11
9 0 9
6 0 6
10 0 10
8 0 8
6 0 6
13 1 13
2 0 2
0 0 0
0 0 0
0 0 0
1 0 1
3 0 3
24 9 24
84 72 84
147 146 147
96 74 96
84 59 84
74 44 74
102 81 102
100 76 100
103 77 103
110 85 110
107 79 107
109 83 109
89 57 89
80 47 80
79 45 79
88 56 88
105 79 105
105 79 105
96 68 96
85 54 85
83 52 83
90 62 90
90 63 90
75 44 75
69 39 69
67 37 67
64 34 64
61 34 61
58 32 58
52 28 52
43 22 43
24 8 24
6 0 6
6 0 6
4 0 4
5 0 5
8 0 8
10 0 10
8 0 8
7 0 7
10 0 10
8 0 8
6 0 6
18 5 18
2 0 2
0 0 0
0 0 0
0 0 0
0 0 0
0 0 0
15 3 15
55 38 55
111 99 111
117 100 117
93 68 93
78 48 78
83 55 83
101 77 101
104 79 104
109 85 109
99 72 99
100 71 100
90 59 90
83 51 83
78 46 78
84 52 84
98 69 98
98 70 98
99 73 99
87 58 87
77 44 77
76 45 76
78 48 78
74 44 74
72 42 72
65 35 65
60 32 60
59 32 59
57 31 57
48 25 48
39 19 39
16 2 16
3 0 3
5 0 5
4 0 4
4 0 4
9 0 9
9 0 9
7 0 7
8 0 8
10 0 10
7 0 7
5 0 5
15 3 15
2 0 2
0 0 0
0 0 0
0 0 0
0 0 0
0 0 0
7 0 7
39 20 39
89 73 89
127 114 127
109 88 109
90 64 90
101 77 101
90 62 90
95 68 95
101 75 101
106 80 106
92 63 92
84 51 84
80 48 80
78 46 78
82 50 82
92 63 92
91 62 91
92 63 92
87 58 87
87 58 87
86 57 86
81 52 81
72 42 72
71 42 71
65 36 65
59 31 59
58 32 58
57 32 57
46 23 46
33 13 33
10 0 10
3 0 3
5 0 5
4 0 4
5 0 5
9 0 9
9 0 9
5 0 5
8 0 8
10 0 10
7 0 7
5 0 5
15 3 15
2 0 2
0 0 0
0 0 0
0 0 0
0 0 0
0 0 0
3 0 3
34 16 34
60 38 60
98 80 98
102 79 102
94 68 94
103 80 103
92 64 92
95 67 95
95 68 95
90 61 90
85 53 85
82 49 82
81 50 81
80 49 80
81 49 81
83 52 83
89 60 89
88 59 88
83 53 83
82 52 82
82 53 82
78 48 78
75 46 75
71 42 71
64 35 64
57 30 57
57 31 57
56 31 56
45 23 45
29 10 29
6 0 6
2 0 2
5 0 5
4 0 4
4 0 4
8 0 8
8 0 8
5 0 5
7 0 7
10 0 10
8 0 8
5 0 5
15 3 15
2 0 2
0 0 0
0 0 0
0 0 0
0 0 0
0 0 0
3 0 3
33 15 33
53 31 53
88 67 88
92 68 92
100 76 100
106 83 106
91 63 91
97 71 97
83 53 83
81 49 81
82 50 82
83 51 83
77 45 77
72 40 72
73 40 73
77 45 77
84 55 84
86 58 86
81 51 81
82 54 82
83 55 83
82 53 82
70 40 70
65 35 65
61 33 61
57 30 57
56 30 56
55 31 55
45 23 45
25 8 25
5 0 5
2 0 2
6 0 6
4 0 4
4 0 4
8 0 8
8 0 8
5 0 5
7 0 7
10 0 10
8 0 8
5 0 5
14 3 14
2 0 2
0 0 0
0 0 0
0 0 0
0 0 0
0 0 0
3 0 3
34 15 34
55 32 55
89 69 89
98 77 98
105 83 105
103 80 103
99 74 99
85 56 85
78 47 78
80 49 80
85 55 85
77 45 77
67 35 67
65 34 65
68 36 68
76 46 76
82 52 82
87 58 87
88 61 88
84 56 84
85 57 85
77 49 77
67 37 67
66 36 66
62 33 62
58 31 58
56 31 56
54 29 54
44 22 44
25 9 25
5 0 5
2 0 2
5 0 5
3 0 3
4 0 4
9 0 9
8 0 8
4 0 4
7 0 7
10 0 10
8 0 8
5 0 5
14 3 14
2 0 2
0 0 0
0 0 0
0 0 0
0 0 0
0 0 0
3 0 3
34 15 34
55 33 55
100 82 100
116 99 116
129 115 129
113 94 113
92 66 92
84 56 84
89 63 89
77 48 77
70 38 70
72 40 72
64 32 64
63 33 63
65 34 65
76 46 76
76 46 76
82 53 82
88 60 88
86 57 86
84 56 84
77 48 77
70 40 70
66 37 66
61 32 61
58 31 58
57 32 57
51 27 51
42 22 42
26 10 26
5 0 5
2 0 2
5 0 5
3 0 3
4 0 4
8 0 8
7 0 7
4 0 4
6 0 6
10 0 10
9 0 9
5 0 5
13 3 13
2 0 2
0 0 0
0 0 0
0 0 0
0 0 0
0 0 0
3 0 3
28 12 28
61 43 61
123 112 123
144 137 144
131 119 131
95 72 95
84 59 84
82 56 82
68 39 68
64 34 64
66 35 66
69 38 69
59 30 59
61 30 61
62 32 62
71 40 71
76 46 76
83 54 83
88 61 88
80 51 80
84 57 84
79 51 79
70 41 70
66 37 66
60 33 60
59 32 59
56 31 56
49 25 49
38 20 38
25 9 25
5 0 5
2 0 2
4 0 4
3 0 3
3 0 3
8 0 8
7 0 7
4 0 4
5 0 5
9 0 9
8 0 8
5 0 5
13 3 13
2 0 2
0 0 0
0 0 0
0 0 0
0 0 0
0 0 0
0 0 0
0 0 0
0 0 0
0 0 0
0 0 0
0 0 0
0 0 0
0 0 0
0 0 0
0 0 0
0 0 0
0 0 0
0 0 0
0 0 0
0 0 0
0 0 0
0 0 0
0 0 0
0 0 0
0 0 0
0 0 0
0 0 0
0 0 0
0 0 0
0 0 0
0 0 0
0 0 0
0 0 0
0 0 0
0 0 0
0 0 0
0 0 0
0 0 0
0 0 0
0 0 0
0 0 0
0 0 0
0 0 0
0 0 0
0 0 0
0 0 0
0 0 0
0 0 0
0 0 0
0 0 0
