P3 
50 50 
255
0 0 0
0 0 0
0 0 0
0 0 0
0 0 0
0 0 0
0 0 0
0 0 0
0 0 0
0 0 0
0 0 0
0 0 0
0 0 0
0 0 0
0 0 0
0 0 0
0 0 0
0 0 0
0 0 0
0 0 0
0 0 0
0 0 0
0 0 0
0 0 0
0 0 0
0 0 0
0 0 0
0 0 0
0 0 0
0 0 0
0 0 0
0 0 0
0 0 0
0 0 0
0 0 0
0 0 0
0 0 0
0 0 0
0 0 0
0 0 0
0 0 0
0 0 0
0 0 0
0 0 0
0 0 0
0 0 0
0 0 0
0 0 0
0 0 0
0 0 0
0 0 0
0 0 0
0 0 0
0 0 0
0 0 0
0 0 0
0 0 0
0 0 0
0 0 0
0 0 0
0 0 0
0 0 0
1 0 1
1 0 1
2 0 2
2 0 2
1 0 1
2 0 2
4 0 4
11 0 11
22 3 22
27 6 27
24 5 24
14 0 14
6 0 6
4 0 4
3 0 3
3 0 3
2 0 2
2 0 2
2 0 2
2 0 2
2 0 2
1 0 1
1 0 1
2 0 2
2 0 2
2 0 2
3 0 3
4 0 4
6 0 6
5 1 5
4 0 4
2 0 2
2 0 2
3 0 3
3 0 3
2 0 2
1 0 1
0 0 0
0 0 0
0 0 0
0 0 0
0 0 0
0 0 0
0 0 0
0 0 0
0 0 0
0 0 0
0 0 0
1 0 1
1 0 1
2 0 2
2 0 2
2 0 2
2 0 2
15 0 15
40 18 40
58 34 58
84 62 84
106 89 106
118 104 118
116 101 116
95 75 95
66 43 66
41 18 41
15 0 15
3 0 3
3 0 3
3 0 3
3 0 3
3 0 3
2 0 2
2 0 2
1 0 1
2 0 2
2 0 2
2 0 2
2 0 2
4 0 4
6 0 6
5 1 5
4 0 4
2 0 2
2 0 2
3 0 3
3 0 3
2 0 2
1 0 1
0 0 0
0 0 0
0 0 0
0 0 0
0 0 0
0 0 0
0 0 0
0 0 0
0 0 0
1 0 1
0 0 0
1 0 1
1 0 1
2 0 2
1 0 1
6 0 6
35 13 35
68 44 68
119 103 119
146 138 146
155 149 155
149 142 149
149 141 149
148 141 148
149 143 149
152 148 152
141 134 141
92 74 92
48 25 48
17 1 17
4 0 4
3 0 3
4 0 4
3 0 3
2 0 2
2 0 2
2 0 2
2 0 2
2 0 2
2 0 2
4 0 4
6 0 6
6 1 6
5 0 5
3 0 3
3 0 3
3 0 3
3 0 3
1 0 1
1 0 1
0 0 0
0 0 0
0 0 0
0 0 0
0 0 0
0 0 0
0 0 0
0 0 0
0 0 0
0 0 0
1 0 1
1 0 1
1 0 1
1 0 1
13 0 13
49 24 49
100 79 100
138 126 138
152 144 152
156 151 156
132 118 132
114 95 114
114 94 114
119 100 119
134 121 134
147 139 147
152 147 152
147 141 147
132 123 132
85 65 85
37 16 37
10 0 10
3 0 3
3 0 3
3 0 3
2 0 2
2 0 2
2 0 2
2 0 2
2 0 2
4 0 4
6 0 6
6 1 6
5 0 5
3 0 3
3 0 3
3 0 3
4 0 4
2 0 2
2 0 2
0 0 0
0 0 0
0 0 0
0 0 0
0 0 0
0 0 0
0 0 0
0 0 0
1 0 1
1 0 1
1 0 1
1 0 1
1 0 1
18 1 18
57 31 57
114 95 114
143 131 143
151 142 151
148 138 148
119 99 119
109 86 109
104 79 104
104 79 104
110 88 110
123 106 123
130 117 130
132 119 132
142 133 142
147 141 147
139 131 139
110 96 110
50 29 50
14 0 14
2 0 2
3 0 3
3 0 3
3 0 3
2 0 2
2 0 2
3 0 3
4 0 4
6 0 6
7 1 7
5 0 5
3 0 3
3 0 3
3 0 3
4 0 4
2 0 2
1 0 1
0 0 0
0 0 0
0 0 0
0 0 0
0 0 0
0 0 0
0 0 0
0 0 0
1 0 1
0 0 0
1 0 1
1 0 1
14 0 14
63 36 63
123 105 123
148 137 148
152 142 152
143 130 143
124 105 124
107 84 107
109 85 109
104 79 104
106 80 106
113 91 113
121 103 121
124 107 124
118 100 118
121 103 121
139 128 139
149 143 149
138 129 138
114 101 114
53 32 53
12 1 12
2 0 2
3 0 3
3 0 3
2 0 2
2 0 2
3 0 3
4 0 4
5 0 5
6 1 6
5 0 5
4 0 4
3 0 3
2 0 2
4 0 4
3 0 3
1 0 1
0 0 0
0 0 0
0 0 0
0 0 0
0 0 0
0 0 0
0 0 0
0 0 0
1 0 1
1 0 1
2 0 2
10 0 10
58 32 58
126 110 126
147 136 147
150 141 150
139 125 139
125 107 125
111 88 111
106 82 106
104 78 104
102 76 102
104 77 104
106 81 106
111 88 111
113 92 113
111 89 111
114 93 114
120 102 120
131 118 131
140 131 140
134 124 134
105 91 105
50 30 50
8 0 8
2 0 2
2 0 2
3 0 3
2 0 2
3 0 3
4 0 4
5 0 5
5 1 5
4 0 4
3 0 3
3 0 3
2 0 2
4 0 4
2 0 2
2 0 2
0 0 0
0 0 0
0 0 0
0 0 0
0 0 0
0 0 0
0 0 0
0 0 0
1 0 1
1 0 1
3 0 3
41 16 41
117 97 117
147 135 147
148 137 148
136 121 136
122 102 122
109 85 109
109 86 109
108 84 108
102 76 102
100 73 100
102 75 102
97 69 97
100 73 100
106 81 106
106 81 106
107 83 107
113 92 113
113 93 113
124 108 124
133 122 133
128 117 128
101 86 101
40 21 40
5 0 5
2 0 2
3 0 3
2 0 2
3 0 3
5 0 5
5 0 5
5 1 5
4 0 4
4 0 4
4 0 4
2 0 2
3 0 3
2 0 2
2 0 2
0 0 0
0 0 0
0 0 0
0 0 0
0 0 0
0 0 0
0 0 0
1 0 1
1 0 1
2 0 2
17 1 17
95 71 95
139 124 139
141 127 141
132 115 132
123 104 123
106 81 106
107 82 107
105 81 105
102 76 102
103 77 103
100 73 100
98 71 98
100 73 100
101 74 101
103 78 103
104 79 104
106 81 106
107 83 107
110 89 110
111 91 111
116 98 116
130 117 130
123 111 123
94 78 94
29 10 29
4 0 4
3 0 3
2 0 2
3 0 3
5 0 5
6 0 6
6 1 6
4 0 4
4 0 4
3 0 3
3 0 3
3 0 3
2 0 2
3 0 3
0 0 0
0 0 0
0 0 0
0 0 0
0 0 0
0 0 0
0 0 0
1 0 1
1 0 1
3 0 3
56 28 56
129 112 129
140 125 140
131 115 131
120 100 120
107 82 107
107 82 107
107 83 107
103 77 103
104 78 104
105 79 105
102 74 102
97 69 97
96 67 96
95 66 95
97 68 97
100 72 100
99 71 99
101 76 101
106 83 106
104 80 104
113 94 113
118 101 118
127 114 127
121 110 121
72 54 72
12 0 12
3 0 3
3 0 3
3 0 3
4 0 4
7 0 7
7 1 7
5 0 5
4 0 4
3 0 3
4 0 4
4 0 4
2 0 2
3 0 3
0 0 0
0 0 0
0 0 0
0 0 0
0 0 0
0 0 0
0 0 0
1 0 1
1 0 1
14 0 14
95 71 95
141 127 141
135 120 135
117 96 117
109 85 109
104 79 104
105 80 105
101 75 101
100 74 100
102 75 102
103 77 103
97 69 97
96 67 96
96 68 96
96 68 96
99 71 99
101 75 101
102 76 102
101 76 101
104 79 104
106 83 106
105 83 105
113 95 113
120 104 120
129 119 129
110 98 110
37 18 37
4 0 4
3 0 3
3 0 3
4 0 4
6 0 6
6 1 6
5 0 5
4 0 4
3 0 3
5 0 5
5 0 5
3 0 3
2 0 2
0 0 0
0 0 0
0 0 0
0 0 0
0 0 0
0 0 0
0 0 0
1 0 1
2 0 2
40 11 40
127 109 127
142 130 142
118 98 118
117 97 117
103 77 103
105 80 105
107 82 107
104 77 104
103 77 103
105 81 105
101 75 101
99 72 99
99 72 99
99 72 99
99 72 99
97 70 97
97 69 97
95 66 95
95 66 95
99 72 99
101 76 101
104 81 104
110 89 110
114 96 114
116 100 116
121 111 121
78 62 78
8 0 8
4 0 4
4 0 4
5 0 5
6 0 6
6 1 6
5 0 5
5 0 5
3 0 3
5 0 5
7 0 7
3 0 3
2 0 2
0 0 0
0 0 0
0 0 0
0 0 0
0 0 0
0 0 0
1 0 1
1 0 1
4 0 4
69 40 69
140 126 140
134 119 134
120 101 120
106 82 106
106 80 106
104 78 104
103 77 103
103 77 103
102 76 102
101 74 101
104 78 104
97 69 97
94 65 94
95 65 95
95 66 95
95 66 95
96 67 96
99 71 99
99 72 99
99 72 99
99 73 99
99 74 99
108 87 108
105 84 105
116 99 116
125 114 125
104 93 104
22 5 22
4 0 4
5 0 5
6 0 6
6 0 6
6 1 6
4 0 4
4 0 4
4 0 4
6 0 6
7 0 7
4 0 4
3 0 3
1 0 1
0 0 0
0 0 0
0 0 0
0 0 0
0 0 0
1 0 1
1 0 1
9 0 9
93 65 93
144 132 144
115 93 115
113 90 113
106 80 106
105 80 105
104 78 104
102 75 102
103 76 103
101 74 101
103 77 103
100 73 100
94 64 94
94 65 94
98 70 98
99 72 99
102 76 102
103 77 103
101 75 101
100 74 100
101 76 101
99 74 99
99 75 99
104 81 104
107 87 107
111 92 111
113 98 113
109 96 109
39 21 39
5 0 5
5 0 5
7 0 7
7 0 7
7 1 7
4 0 4
4 0 4
6 0 6
7 0 7
8 0 8
4 0 4
4 0 4
1 0 1
0 0 0
0 0 0
0 0 0
0 0 0
0 0 0
1 0 1
1 0 1
17 0 17
109 85 109
147 136 147
120 100 120
104 78 104
105 79 105
104 78 104
100 72 100
101 74 101
101 73 101
100 72 100
101 74 101
97 69 97
96 67 96
99 71 99
101 74 101
100 73 100
101 75 101
101 75 101
96 67 96
96 67 96
98 71 98
98 71 98
97 71 97
103 81 103
107 87 107
106 86 106
110 94 110
110 95 110
53 35 53
6 0 6
5 0 5
7 0 7
9 0 9
8 1 8
6 0 6
6 0 6
7 0 7
8 0 8
7 0 7
4 0 4
3 0 3
1 0 1
0 0 0
0 0 0
0 0 0
0 0 0
0 0 0
1 0 1
2 0 2
28 2 28
118 97 118
136 122 136
118 97 118
104 77 104
105 78 105
102 76 102
99 72 99
102 75 102
103 75 103
102 75 102
98 71 98
98 70 98
97 69 97
96 66 96
96 67 96
96 66 96
97 68 97
96 67 96
91 60 91
92 62 92
92 62 92
93 64 93
95 68 95
105 82 105
106 84 106
107 87 107
113 97 113
116 104 116
66 49 66
7 0 7
5 0 5
6 0 6
9 0 9
8 1 8
6 0 6
6 0 6
8 0 8
6 0 6
6 0 6
4 0 4
3 0 3
1 0 1
0 0 0
0 0 0
0 0 0
0 0 0
0 0 0
1 0 1
3 0 3
39 10 39
124 105 124
130 113 130
112 88 112
107 80 107
104 77 104
102 75 102
100 74 100
100 73 100
102 75 102
101 74 101
96 67 96
99 72 99
94 64 94
91 60 91
92 61 92
95 63 95
94 63 94
96 66 96
92 62 92
92 63 92
90 60 90
90 60 90
94 67 94
103 80 103
108 87 108
109 90 109
112 94 112
120 107 120
78 63 78
9 0 9
4 0 4
5 0 5
8 0 8
7 1 7
5 0 5
6 0 6
7 0 7
6 0 6
6 0 6
3 0 3
2 0 2
1 0 1
0 0 0
0 0 0
0 0 0
0 0 0
0 0 0
1 0 1
4 0 4
50 22 50
132 114 132
131 114 131
114 91 114
107 81 107
106 79 106
103 76 103
100 73 100
97 68 97
99 71 99
99 72 99
97 69 97
100 73 100
93 63 93
90 57 90
91 60 91
92 61 92
97 67 97
102 74 102
96 67 96
95 66 95
91 62 91
91 61 91
95 67 95
103 79 103
109 89 109
108 89 108
114 97 114
122 109 122
84 69 84
12 0 12
4 0 4
5 0 5
8 0 8
7 1 7
5 0 5
5 0 5
5 0 5
6 0 6
6 0 6
3 0 3
2 0 2
1 0 1
0 0 0
0 0 0
0 0 0
0 0 0
1 0 1
1 0 1
7 0 7
61 32 61
140 126 140
131 113 131
107 83 107
103 77 103
104 78 104
101 74 101
101 73 101
94 65 94
98 70 98
99 72 99
96 68 96
100 73 100
92 61 92
89 57 89
91 60 91
95 65 95
99 72 99
108 82 108
103 77 103
98 71 98
96 67 96
93 65 93
94 67 94
102 77 102
106 85 106
109 89 109
119 102 119
125 113 125
88 73 88
11 0 11
3 0 3
6 0 6
7 0 7
7 1 7
5 0 5
4 0 4
4 0 4
4 0 4
5 0 5
3 0 3
3 0 3
1 0 1
0 0 0
0 0 0
0 0 0
0 0 0
0 0 0
1 0 1
11 0 11
69 40 69
142 128 142
128 108 128
108 84 108
104 78 104
104 78 104
101 74 101
99 70 99
97 67 97
101 74 101
102 75 102
99 72 99
100 73 100
89 57 89
89 57 89
94 64 94
99 71 99
101 75 101
104 78 104
106 80 106
99 72 99
100 73 100
96 69 96
94 67 94
101 76 101
105 83 105
109 90 109
119 103 119
127 115 127
90 75 90
12 0 12
3 0 3
6 0 6
7 1 7
7 1 7
6 0 6
4 0 4
4 0 4
4 0 4
4 0 4
2 0 2
2 0 2
0 0 0
0 0 0
0 0 0
0 0 0
0 0 0
0 0 0
1 0 1
12 0 12
75 46 75
137 122 137
121 100 121
111 87 111
106 80 106
106 80 106
101 74 101
98 69 98
98 68 98
102 75 102
102 75 102
99 72 99
100 73 100
90 58 90
90 59 90
97 68 97
100 72 100
99 71 99
96 67 96
100 71 100
97 68 97
101 74 101
97 71 97
95 68 95
98 73 98
102 80 102
107 87 107
118 102 118
127 116 127
90 74 90
12 0 12
4 0 4
6 0 6
7 1 7
7 1 7
5 0 5
5 0 5
3 0 3
4 0 4
5 0 5
3 0 3
2 0 2
0 0 0
0 0 0
0 0 0
0 0 0
0 0 0
0 0 0
1 0 1
15 0 15
81 54 81
129 111 129
115 93 115
105 79 105
104 77 104
105 79 105
101 74 101
97 68 97
98 68 98
98 70 98
99 72 99
99 72 99
100 73 100
90 58 90
92 61 92
100 72 100
95 66 95
93 63 93
94 64 94
96 66 96
95 65 95
99 72 99
97 70 97
94 68 94
97 72 97
100 76 100
103 82 103
116 99 116
130 120 130
85 67 85
10 0 10
4 0 4
6 0 6
7 0 7
7 1 7
4 0 4
5 0 5
3 0 3
4 0 4
4 0 4
3 0 3
2 0 2
0 0 0
0 0 0
0 0 0
0 0 0
0 0 0
1 0 1
2 0 2
20 0 20
86 59 86
120 100 120
114 92 114
102 75 102
105 78 105
103 77 103
103 76 103
98 69 98
97 67 97
96 67 96
98 69 98
95 67 95
98 71 98
89 58 89
94 64 94
98 69 98
91 60 91
91 59 91
96 68 96
96 67 96
94 64 94
100 73 100
99 72 99
94 67 94
98 74 98
99 76 99
101 80 101
116 100 116
133 124 133
78 58 78
9 0 9
4 0 4
5 0 5
7 0 7
6 1 6
4 0 4
4 0 4
3 0 3
4 0 4
4 0 4
3 0 3
1 0 1
0 0 0
0 0 0
0 0 0
0 0 0
0 0 0
1 0 1
2 0 2
25 2 25
87 59 87
120 100 120
116 94 116
100 72 100
106 81 106
101 73 101
104 79 104
100 72 100
96 66 96
94 65 94
95 66 95
89 60 89
95 69 95
89 58 89
94 64 94
94 65 94
89 57 89
90 57 90
98 70 98
99 71 99
94 63 94
99 71 99
98 71 98
95 69 95
100 77 100
99 76 99
98 76 98
116 100 116
133 123 133
70 48 70
7 0 7
3 0 3
4 0 4
7 0 7
7 1 7
5 0 5
4 0 4
3 0 3
5 0 5
4 0 4
3 0 3
2 0 2
0 0 0
0 0 0
0 0 0
0 0 0
0 0 0
1 0 1
2 0 2
29 3 29
85 55 85
121 101 121
118 96 118
98 69 98
107 81 107
101 72 101
104 78 104
105 76 105
94 64 94
93 64 93
91 63 91
92 63 92
95 70 95
90 61 90
95 65 95
93 62 93
89 57 89
88 56 88
95 66 95
100 72 100
100 71 100
98 71 98
99 72 99
96 69 96
100 76 100
98 74 98
95 72 95
111 95 111
130 120 130
58 35 58
5 0 5
3 0 3
4 0 4
6 0 6
7 1 7
5 0 5
4 0 4
3 0 3
4 0 4
4 0 4
3 0 3
2 0 2
0 0 0
0 0 0
0 0 0
0 0 0
0 0 0
1 0 1
4 0 4
38 9 38
82 49 82
123 103 123
118 96 118
97 67 97
107 82 107
99 70 99
103 75 103
104 75 104
93 62 93
92 62 92
92 63 92
95 66 95
98 72 98
89 60 89
93 64 93
94 64 94
90 58 90
91 59 91
96 67 96
100 71 100
102 74 102
103 76 103
101 74 101
99 73 99
100 76 100
97 73 97
94 70 94
108 91 108
123 111 123
44 21 44
5 0 5
4 0 4
5 0 5
6 0 6
6 1 6
5 0 5
3 0 3
3 0 3
4 0 4
4 0 4
3 0 3
2 0 2
0 0 0
0 0 0
0 0 0
0 0 0
0 0 0
1 0 1
4 0 4
36 8 36
80 46 80
125 105 125
116 94 116
96 66 96
107 82 107
98 69 98
102 73 102
103 74 103
94 63 94
92 61 92
91 62 91
94 65 94
97 71 97
87 58 87
93 64 93
96 67 96
92 60 92
93 61 93
99 70 99
101 72 101
103 76 103
105 80 105
102 76 102
101 75 101
100 76 100
97 74 97
95 72 95
110 94 110
121 109 121
38 16 38
7 0 7
4 0 4
5 0 5
6 0 6
6 1 6
5 0 5
2 0 2
3 0 3
4 0 4
4 0 4
3 0 3
2 0 2
0 0 0
0 0 0
0 0 0
0 0 0
0 0 0
0 0 0
6 0 6
42 12 42
82 48 82
127 107 127
118 94 118
110 84 110
106 79 106
100 74 100
101 72 101
98 69 98
93 63 93
94 65 94
92 63 92
95 67 95
95 68 95
87 59 87
92 64 92
102 76 102
99 71 99
100 73 100
109 84 109
111 87 111
112 88 112
115 92 115
106 80 106
106 81 106
106 83 106
100 78 100
101 81 101
114 97 114
111 96 111
28 6 28
7 0 7
5 0 5
5 0 5
6 0 6
6 1 6
5 0 5
3 0 3
4 0 4
4 0 4
5 0 5
3 0 3
2 0 2
0 0 0
0 0 0
0 0 0
0 0 0
0 0 0
0 0 0
6 0 6
45 14 45
89 57 89
121 98 121
129 109 129
118 95 118
98 69 98
105 80 105
115 92 115
108 84 108
99 73 99
92 63 92
92 64 92
97 69 97
92 65 92
93 65 93
90 60 90
93 64 93
98 70 98
100 73 100
107 81 107
113 89 113
111 85 111
112 87 112
108 81 108
114 91 114
117 96 117
98 74 98
106 86 106
112 95 112
87 67 87
22 3 22
5 0 5
4 0 4
5 0 5
5 0 5
6 1 6
5 0 5
3 0 3
4 0 4
4 0 4
6 0 6
3 0 3
2 0 2
0 0 0
0 0 0
0 0 0
0 0 0
0 0 0
0 0 0
3 0 3
36 8 36
91 59 91
109 80 109
144 129 144
131 114 131
108 83 108
107 84 107
120 99 120
114 92 114
110 87 110
96 69 96
94 65 94
96 68 96
99 72 99
90 62 90
95 68 95
93 63 93
93 63 93
96 67 96
104 76 104
109 84 109
105 77 105
104 76 104
112 86 112
108 83 108
109 87 109
104 81 104
115 98 115
123 109 123
78 57 78
18 2 18
5 0 5
4 0 4
4 0 4
5 0 5
6 1 6
4 0 4
3 0 3
4 0 4
4 0 4
5 0 5
3 0 3
2 0 2
0 0 0
0 0 0
0 0 0
0 0 0
0 0 0
0 0 0
2 0 2
33 7 33
76 42 76
104 73 104
144 130 144
134 117 134
116 95 116
107 83 107
121 102 121
122 103 122
115 92 115
104 78 104
90 61 90
94 67 94
95 67 95
91 64 91
91 62 91
99 73 99
100 73 100
103 76 103
108 83 108
113 89 113
110 84 110
110 86 110
110 85 110
106 82 106
101 77 101
107 87 107
121 106 121
118 105 118
57 34 57
12 1 12
5 0 5
4 0 4
4 0 4
5 0 5
6 1 6
4 0 4
2 0 2
3 0 3
3 0 3
5 0 5
3 0 3
2 0 2
0 0 0
0 0 0
0 0 0
0 0 0
0 0 0
0 0 0
2 0 2
31 8 31
66 31 66
87 52 87
121 99 121
111 85 111
124 106 124
122 104 122
121 101 121
116 94 116
116 93 116
108 83 108
97 69 97
94 69 94
95 69 95
90 62 90
96 69 96
97 70 97
98 71 98
106 81 106
107 82 107
104 78 104
104 77 104
109 84 109
119 98 119
107 84 107
104 83 104
117 103 117
125 113 125
114 100 114
32 12 32
10 1 10
6 0 6
4 0 4
4 0 4
5 0 5
6 1 6
4 0 4
3 0 3
3 0 3
3 0 3
5 0 5
3 0 3
2 0 2
0 0 0
0 0 0
0 0 0
0 0 0
0 0 0
0 0 0
1 0 1
28 7 28
61 25 61
74 37 74
101 73 101
104 75 104
129 111 129
128 110 128
122 102 122
119 97 119
114 90 114
112 87 112
107 82 107
106 80 106
100 74 100
92 64 92
92 64 92
104 80 104
112 90 112
119 99 119
117 96 117
111 88 111
115 93 115
120 100 120
125 106 125
114 93 114
118 102 118
126 115 126
126 115 126
82 62 82
17 3 17
11 2 11
7 0 7
4 0 4
4 0 4
5 0 5
6 1 6
4 0 4
2 0 2
4 0 4
3 0 3
4 0 4
3 0 3
2 0 2
0 0 0
0 0 0
0 0 0
0 0 0
0 0 0
0 0 0
1 0 1
23 6 23
55 22 55
70 32 70
95 64 95
115 90 115
121 99 121
137 122 137
119 97 119
116 92 116
118 93 118
114 90 114
114 91 114
113 91 113
109 86 109
104 79 104
108 85 108
119 99 119
121 103 121
126 109 126
121 102 121
122 103 122
125 108 125
132 118 132
128 112 128
123 106 123
113 95 113
134 125 134
123 112 123
54 33 54
11 2 11
11 3 11
6 0 6
4 0 4
5 0 5
5 0 5
6 1 6
4 0 4
3 0 3
4 0 4
3 0 3
4 0 4
3 0 3
2 0 2
0 0 0
0 0 0
0 0 0
0 0 0
0 0 0
0 0 0
1 0 1
29 6 29
56 23 56
68 31 68
92 61 92
121 99 121
107 79 107
132 113 132
132 112 132
120 95 120
113 86 113
117 93 117
117 96 117
114 94 114
113 91 113
111 89 111
121 101 121
128 111 128
130 115 130
131 116 131
130 116 130
128 112 128
128 111 128
122 103 122
117 96 117
110 87 110
115 96 115
132 122 132
98 79 98
30 11 30
6 0 6
10 2 10
6 0 6
4 0 4
4 0 4
5 0 5
6 1 6
4 0 4
4 0 4
4 0 4
3 0 3
4 0 4
3 0 3
2 0 2
0 0 0
0 0 0
0 0 0
0 0 0
0 0 0
0 0 0
1 0 1
24 5 24
63 31 63
73 39 73
85 53 85
119 96 119
115 91 115
118 93 118
151 137 151
131 110 131
114 87 114
113 87 113
113 87 113
113 88 113
111 86 111
109 83 109
112 87 112
119 96 119
130 114 130
124 106 124
124 106 124
109 85 109
109 84 109
107 82 107
107 83 107
122 104 122
128 113 128
100 79 100
66 41 66
17 1 17
7 0 7
11 2 11
6 0 6
4 0 4
4 0 4
5 0 5
7 1 7
5 0 5
4 0 4
4 0 4
3 0 3
4 0 4
3 0 3
2 0 2
0 0 0
0 0 0
0 0 0
0 0 0
0 0 0
0 0 0
1 0 1
17 3 17
60 28 60
73 39 73
77 43 77
112 87 112
118 94 118
122 97 122
150 126 150
131 110 131
118 93 118
116 90 116
112 86 112
116 91 116
114 87 114
114 87 114
119 94 119
122 99 122
122 101 122
126 107 126
120 98 120
107 80 107
104 76 104
102 75 102
108 84 108
114 94 114
89 63 89
67 39 67
33 11 33
17 6 17
16 4 16
12 2 12
6 0 6
4 0 4
4 0 4
5 0 5
7 1 7
5 0 5
4 0 4
4 0 4
3 0 3
4 0 4
3 0 3
2 0 2
0 0 0
0 0 0
0 0 0
1 0 1
1 0 1
2 0 2
2 0 2
10 0 10
44 11 44
68 36 68
76 42 76
106 77 106
115 87 115
98 62 98
95 60 95
114 68 114
119 91 119
122 98 122
124 101 124
119 96 119
125 102 125
123 98 123
115 89 115
111 83 111
112 86 112
110 84 110
110 84 110
104 76 104
97 67 97
95 65 95
87 55 87
72 38 72
60 28 60
45 17 45
16 1 16
10 2 10
15 3 15
7 0 7
3 0 3
3 0 3
3 0 3
5 0 5
6 1 6
4 0 4
3 0 3
5 0 5
3 0 3
5 0 5
3 0 3
2 0 2
0 0 0
0 0 0
0 0 0
0 0 0
0 0 0
0 0 0
1 0 1
2 0 2
26 3 26
60 28 60
67 36 67
94 65 94
95 63 95
91 57 91
88 52 88
87 51 87
89 52 89
94 59 94
101 69 101
99 67 99
95 61 95
95 60 95
90 55 90
93 58 93
92 58 92
95 62 95
99 69 99
92 59 92
86 53 86
82 48 82
77 43 77
67 35 67
57 28 57
33 10 33
9 0 9
9 2 9
12 3 12
3 0 3
3 0 3
3 0 3
3 0 3
5 0 5
6 1 6
4 0 4
3 0 3
3 0 3
3 0 3
4 0 4
2 0 2
1 0 1
0 0 0
0 0 0
0 0 0
1 0 1
2 0 2
2 0 2
3 0 3
3 0 3
14 1 14
58 30 58
69 39 69
89 59 89
90 58 90
122 93 122
114 83 114
106 74 106
99 64 99
102 69 102
110 81 110
108 79 108
104 73 104
97 66 97
103 72 103
115 86 115
109 79 109
102 72 102
102 72 102
89 54 89
82 47 82
78 42 78
72 37 72
62 29 62
50 20 50
17 1 17
5 0 5
3 0 3
3 0 3
3 0 3
3 0 3
3 0 3
3 0 3
4 0 4
5 0 5
3 0 3
2 0 2
2 0 2
2 0 2
3 0 3
1 0 1
1 0 1
0 0 0
0 0 0
0 0 0
1 0 1
1 0 1
1 0 1
2 0 2
2 0 2
10 0 10
47 23 47
65 35 65
79 48 79
90 59 90
98 63 98
121 92 121
112 80 112
104 68 104
105 61 105
103 70 103
101 68 101
108 77 108
100 69 100
107 76 107
112 82 112
115 87 115
97 65 97
87 52 87
86 52 86
81 47 81
76 40 76
71 36 71
62 30 62
44 17 44
10 0 10
4 0 4
3 0 3
2 0 2
3 0 3
3 0 3
3 0 3
3 0 3
5 0 5
7 2 7
4 0 4
2 0 2
2 0 2
2 0 2
3 0 3
2 0 2
1 0 1
0 0 0
0 0 0
0 0 0
0 0 0
0 0 0
0 0 0
0 0 0
0 0 0
4 0 4
31 10 31
59 29 59
78 49 78
98 69 98
100 67 100
111 78 111
105 70 105
98 61 98
100 65 100
102 68 102
101 68 101
107 66 107
91 55 91
93 58 93
101 68 101
105 75 105
100 69 100
88 53 88
91 58 91
86 52 86
77 42 77
70 38 70
62 32 62
42 16 42
7 0 7
2 0 2
2 0 2
2 0 2
3 0 3
3 0 3
3 0 3
3 0 3
4 0 4
6 1 6
4 0 4
2 0 2
2 0 2
2 0 2
3 0 3
2 0 2
1 0 1
0 0 0
0 0 0
0 0 0
0 0 0
0 0 0
0 0 0
0 0 0
1 0 1
2 0 2
25 8 25
50 21 50
75 46 75
105 77 105
95 61 95
107 73 107
108 74 108
101 65 101
96 60 96
96 60 96
99 65 99
106 74 106
96 62 96
95 61 95
99 67 99
100 69 100
105 75 105
90 56 90
93 60 93
85 53 85
76 43 76
69 37 69
60 32 60
37 13 37
5 0 5
2 0 2
3 0 3
2 0 2
2 0 2
3 0 3
3 0 3
3 0 3
4 0 4
6 1 6
4 0 4
2 0 2
2 0 2
2 0 2
4 0 4
2 0 2
2 0 2
0 0 0
0 0 0
0 0 0
0 0 0
0 0 0
0 0 0
1 0 1
1 0 1
1 0 1
14 1 14
42 18 42
69 39 69
104 77 104
91 57 91
97 62 97
99 63 99
98 62 98
96 59 96
94 58 94
96 61 96
99 66 99
97 62 97
95 60 95
96 62 96
94 61 94
98 66 98
92 59 92
94 62 94
82 49 82
74 40 74
67 36 67
59 31 59
35 12 35
4 0 4
2 0 2
2 0 2
3 0 3
2 0 2
3 0 3
2 0 2
2 0 2
3 0 3
6 1 6
4 0 4
2 0 2
2 0 2
2 0 2
4 0 4
2 0 2
1 0 1
0 0 0
0 0 0
0 0 0
0 0 0
0 0 0
0 0 0
1 0 1
1 0 1
1 0 1
4 0 4
29 7 29
57 27 57
96 68 96
92 58 92
95 59 95
96 60 96
96 60 96
95 58 95
91 55 91
94 59 94
97 62 97
96 62 96
93 58 93
94 60 94
93 60 93
92 58 92
92 59 92
86 53 86
75 41 75
70 37 70
65 35 65
58 31 58
34 11 34
3 0 3
2 0 2
2 0 2
2 0 2
2 0 2
3 0 3
2 0 2
2 0 2
3 0 3
5 1 5
4 0 4
2 0 2
2 0 2
2 0 2
4 0 4
2 0 2
2 0 2
0 0 0
0 0 0
0 0 0
0 0 0
0 0 0
0 0 0
1 0 1
1 0 1
1 0 1
2 0 2
9 0 9
40 11 40
83 53 83
93 59 93
93 57 93
92 55 92
97 61 97
97 61 97
93 57 93
96 62 96
100 67 100
97 64 97
95 61 95
93 60 93
97 65 97
96 64 96
89 56 89
76 42 76
73 39 73
69 37 69
63 34 63
56 29 56
32 10 32
3 0 3
2 0 2
2 0 2
2 0 2
2 0 2
2 0 2
2 0 2
2 0 2
3 0 3
5 1 5
4 0 4
2 0 2
2 0 2
2 0 2
4 0 4
2 0 2
2 0 2
0 0 0
0 0 0
0 0 0
0 0 0
0 0 0
0 0 0
0 0 0
1 0 1
1 0 1
1 0 1
2 0 2
15 0 15
60 27 60
99 67 99
103 70 103
96 60 96
96 59 96
99 63 99
99 63 99
99 64 99
98 64 98
96 63 96
98 64 98
97 63 97
98 66 98
97 67 97
81 48 81
75 42 75
70 38 70
68 36 68
62 33 62
56 28 56
31 10 31
3 0 3
2 0 2
2 0 2
2 0 2
2 0 2
2 0 2
2 0 2
2 0 2
2 0 2
5 1 5
4 0 4
2 0 2
2 0 2
1 0 1
3 0 3
2 0 2
2 0 2
0 0 0
0 0 0
0 0 0
0 0 0
0 0 0
0 0 0
0 0 0
1 0 1
1 0 1
1 0 1
1 0 1
3 0 3
31 3 31
72 35 72
106 73 106
108 75 108
101 66 101
98 62 98
97 61 97
97 63 97
102 68 102
96 63 96
98 65 98
94 61 94
89 56 89
87 55 87
80 47 80
74 42 74
69 37 69
65 35 65
61 33 61
55 28 55
30 9 30
3 0 3
1 0 1
1 0 1
2 0 2
2 0 2
2 0 2
2 0 2
2 0 2
3 0 3
5 1 5
4 0 4
2 0 2
1 0 1
1 0 1
2 0 2
2 0 2
1 0 1
0 0 0
0 0 0
0 0 0
0 0 0
0 0 0
0 0 0
0 0 0
0 0 0
0 0 0
0 0 0
0 0 0
0 0 0
0 0 0
0 0 0
0 0 0
0 0 0
0 0 0
0 0 0
0 0 0
0 0 0
0 0 0
0 0 0
0 0 0
0 0 0
0 0 0
0 0 0
0 0 0
0 0 0
0 0 0
0 0 0
0 0 0
0 0 0
0 0 0
0 0 0
0 0 0
0 0 0
0 0 0
0 0 0
0 0 0
0 0 0
0 0 0
0 0 0
0 0 0
0 0 0
0 0 0
0 0 0
0 0 0
0 0 0
0 0 0
0 0 0
0 0 0
