P3 
50 50 
255
0 0 0
0 0 0
0 0 0
0 0 0
0 0 0
0 0 0
0 0 0
0 0 0
0 0 0
0 0 0
0 0 0
0 0 0
0 0 0
0 0 0
0 0 0
0 0 0
0 0 0
0 0 0
0 0 0
0 0 0
0 0 0
0 0 0
0 0 0
0 0 0
0 0 0
0 0 0
0 0 0
0 0 0
0 0 0
0 0 0
0 0 0
0 0 0
0 0 0
0 0 0
0 0 0
0 0 0
0 0 0
0 0 0
0 0 0
0 0 0
0 0 0
0 0 0
0 0 0
0 0 0
0 0 0
0 0 0
0 0 0
0 0 0
0 0 0
0 0 0
0 0 0
0 0 0
0 0 0
0 0 0
0 0 0
0 0 0
0 0 0
0 0 0
0 0 0
0 0 0
0 0 0
0 0 0
0 0 0
0 0 0
0 0 0
0 0 0
0 0 0
0 0 0
0 0 0
0 0 0
0 0 0
0 0 0
1 0 1
2 0 2
4 0 4
7 0 7
12 1 12
16 3 16
18 4 18
19 4 19
17 3 17
16 1 16
11 0 11
7 0 7
6 0 6
6 0 6
6 0 6
7 0 7
6 0 6
7 0 7
6 0 6
6 0 6
14 2 14
8 0 8
8 0 8
4 0 4
3 0 3
4 0 4
11 1 11
4 0 4
0 0 0
0 0 0
0 0 0
0 0 0
0 0 0
0 0 0
0 0 0
0 0 0
0 0 0
0 0 0
0 0 0
0 0 0
0 0 0
0 0 0
0 0 0
0 0 0
0 0 0
0 0 0
0 0 0
0 0 0
1 0 1
12 1 12
29 13 29
45 27 45
62 45 62
76 60 76
90 76 90
102 90 102
105 94 105
104 93 104
94 80 94
82 65 82
70 51 70
58 37 58
45 25 45
34 14 34
20 3 20
9 0 9
6 0 6
7 0 7
6 0 6
5 0 5
14 2 14
10 0 10
7 0 7
6 0 6
3 0 3
3 0 3
10 1 10
4 0 4
0 0 0
0 0 0
0 0 0
0 0 0
0 0 0
0 0 0
0 0 0
0 0 0
0 0 0
0 0 0
0 0 0
0 0 0
0 0 0
0 0 0
0 0 0
0 0 0
0 0 0
0 0 0
1 0 1
13 1 13
36 18 36
78 63 78
118 111 118
129 122 129
135 128 135
140 134 140
145 140 145
149 145 149
149 145 149
151 147 151
147 143 147
144 138 144
142 136 142
137 130 137
132 124 132
120 110 120
86 69 86
47 25 47
22 5 22
9 0 9
5 0 5
7 0 7
15 2 15
12 0 12
7 0 7
7 0 7
2 0 2
3 0 3
10 1 10
3 0 3
0 0 0
0 0 0
0 0 0
0 0 0
0 0 0
0 0 0
0 0 0
0 0 0
0 0 0
0 0 0
0 0 0
0 0 0
0 0 0
0 0 0
0 0 0
0 0 0
0 0 0
3 0 3
26 9 26
63 46 63
120 112 120
135 128 135
141 134 141
139 131 139
136 127 136
139 129 139
139 129 139
137 127 137
137 127 137
137 128 137
130 118 130
128 113 128
128 114 128
129 116 129
134 123 134
139 128 139
131 120 131
122 109 122
87 69 87
43 21 43
15 1 15
9 0 9
18 2 18
10 0 10
7 0 7
8 0 8
3 0 3
3 0 3
10 1 10
3 0 3
0 0 0
0 0 0
0 0 0
0 0 0
0 0 0
0 0 0
0 0 0
0 0 0
0 0 0
0 0 0
0 0 0
0 0 0
0 0 0
0 0 0
0 0 0
0 0 0
3 0 3
31 15 31
85 70 85
131 123 131
144 138 144
147 141 147
141 132 141
139 130 139
138 126 138
134 121 134
130 116 130
131 117 131
132 118 132
131 117 131
124 108 124
125 108 125
125 108 125
123 106 123
121 103 121
114 95 114
116 97 116
127 110 127
127 113 127
116 102 116
60 38 60
24 5 24
22 2 22
10 0 10
6 0 6
9 0 9
4 0 4
3 0 3
10 1 10
4 0 4
0 0 0
0 0 0
0 0 0
0 0 0
0 0 0
0 0 0
0 0 0
0 0 0
0 0 0
0 0 0
0 0 0
0 0 0
0 0 0
0 0 0
0 0 0
1 0 1
28 13 28
100 89 100
140 134 140
153 149 153
155 151 155
149 141 149
140 130 140
138 127 138
136 123 136
129 114 129
128 113 128
128 113 128
124 107 124
121 103 121
120 101 120
122 103 122
123 104 123
122 103 122
120 100 120
117 98 117
115 96 115
114 92 114
127 111 127
136 123 136
125 111 125
75 52 75
37 9 37
13 0 13
5 0 5
9 0 9
5 0 5
3 0 3
10 1 10
4 0 4
0 0 0
0 0 0
0 0 0
0 0 0
0 0 0
0 0 0
0 0 0
0 0 0
0 0 0
0 0 0
0 0 0
0 0 0
0 0 0
0 0 0
0 0 0
19 6 19
98 87 98
141 136 141
154 150 154
148 140 148
141 131 141
135 123 135
134 122 134
132 119 132
128 114 128
123 106 123
124 108 124
124 108 124
118 99 118
111 89 111
113 91 113
117 96 117
117 96 117
115 94 115
115 94 115
116 96 116
118 98 118
116 95 116
118 98 118
127 110 127
135 121 135
121 105 121
72 45 72
27 4 27
6 0 6
8 0 8
6 0 6
4 0 4
11 1 11
4 0 4
0 0 0
0 0 0
0 0 0
0 0 0
0 0 0
0 0 0
0 0 0
0 0 0
0 0 0
0 0 0
0 0 0
0 0 0
0 0 0
0 0 0
9 0 9
77 64 77
140 136 140
144 137 144
140 130 140
133 121 133
129 115 129
126 111 126
125 109 125
120 101 120
120 103 120
117 98 117
117 97 117
119 100 119
115 94 115
110 86 110
109 84 109
111 88 111
111 87 111
108 84 108
109 86 109
113 90 113
115 93 115
113 91 113
113 92 113
120 100 120
128 111 128
134 121 134
115 96 115
56 28 56
17 0 17
8 0 8
8 0 8
4 0 4
11 1 11
4 0 4
0 0 0
0 0 0
0 0 0
0 0 0
0 0 0
0 0 0
0 0 0
0 0 0
0 0 0
0 0 0
0 0 0
0 0 0
0 0 0
1 0 1
37 21 37
114 104 114
131 121 131
131 120 131
125 110 125
122 105 122
114 95 114
115 96 115
112 91 112
112 91 112
112 91 112
113 92 113
111 87 111
112 90 112
109 84 109
108 82 108
107 81 107
105 79 105
105 79 105
107 82 107
108 83 108
108 82 108
110 85 110
109 84 109
108 84 108
114 91 114
121 101 121
137 122 137
138 125 138
98 77 98
38 13 38
11 0 11
10 0 10
4 0 4
11 1 11
5 0 5
0 0 0
0 0 0
0 0 0
0 0 0
0 0 0
0 0 0
0 0 0
0 0 0
0 0 0
0 0 0
0 0 0
2 0 2
1 0 1
10 0 10
85 71 85
132 124 132
141 134 141
119 104 119
116 98 116
108 86 108
108 86 108
107 85 107
103 79 103
105 82 105
106 83 106
107 83 107
110 87 110
114 91 114
107 81 107
100 71 100
99 70 99
104 77 104
107 80 107
107 80 107
108 82 108
108 82 108
108 82 108
109 84 109
107 82 107
112 88 112
119 97 119
125 107 125
139 125 139
120 104 120
63 37 63
22 1 22
10 0 10
5 0 5
11 1 11
5 0 5
0 0 0
0 0 0
0 0 0
0 0 0
0 0 0
0 0 0
0 0 0
0 0 0
0 0 0
0 0 0
0 0 0
4 0 4
2 0 2
21 7 21
99 85 99
122 108 122
117 102 117
107 87 107
104 83 104
104 81 104
106 83 106
101 76 101
99 74 99
100 74 100
105 80 105
104 78 104
101 73 101
102 74 102
100 71 100
98 68 98
100 70 100
101 72 101
99 70 99
104 76 104
110 85 110
109 82 109
108 81 108
109 84 109
108 83 108
111 87 111
116 95 116
122 101 122
140 125 140
136 122 136
101 80 101
37 12 37
12 0 12
6 0 6
11 1 11
5 0 5
0 0 0
0 0 0
0 0 0
0 0 0
0 0 0
0 0 0
0 0 0
0 0 0
0 0 0
0 0 0
0 0 0
1 0 1
2 0 2
48 30 48
128 119 128
121 108 121
110 92 110
93 69 93
96 71 96
97 71 97
99 74 99
101 77 101
97 69 97
100 73 100
101 75 101
98 68 98
100 71 100
102 73 102
99 69 99
97 66 97
99 68 99
102 74 102
103 75 103
103 75 103
105 77 105
107 80 107
111 85 111
111 86 111
108 82 108
107 81 107
113 90 113
122 102 122
132 114 132
145 133 145
122 107 122
60 35 60
18 2 18
7 0 7
11 1 11
5 0 5
0 0 0
0 0 0
0 0 0
0 0 0
0 0 0
0 0 0
0 0 0
0 0 0
0 0 0
0 0 0
0 0 0
3 0 3
11 1 11
80 64 80
107 90 107
115 99 115
99 77 99
91 66 91
97 73 97
93 66 93
93 65 93
99 73 99
96 69 96
96 68 96
96 67 96
98 70 98
98 68 98
100 71 100
98 67 98
96 65 96
102 74 102
103 75 103
97 66 97
101 72 101
107 80 107
108 81 108
107 79 107
106 80 106
107 81 107
112 88 112
112 89 112
117 94 117
127 108 127
144 131 144
133 120 133
85 64 85
23 3 23
8 0 8
11 1 11
5 0 5
0 0 0
0 0 0
0 0 0
0 0 0
0 0 0
0 0 0
0 0 0
0 0 0
0 0 0
0 0 0
0 0 0
5 0 5
34 16 34
109 96 109
98 77 98
101 80 101
88 63 88
94 70 94
96 70 96
91 64 91
95 69 95
92 63 92
94 66 94
92 63 92
96 67 96
97 67 97
94 63 94
95 64 95
94 62 94
93 61 93
97 66 97
100 71 100
101 71 101
100 71 100
105 76 105
101 71 101
102 72 102
105 77 105
104 76 104
106 79 106
111 87 111
116 93 116
123 101 123
145 133 145
147 137 147
111 95 111
34 10 34
9 0 9
11 1 11
5 0 5
0 0 0
0 0 0
0 0 0
0 0 0
0 0 0
0 0 0
0 0 0
0 0 0
0 0 0
0 0 0
0 0 0
13 2 13
68 50 68
95 76 95
111 94 111
87 62 87
90 65 90
98 75 98
92 66 92
91 64 91
93 66 93
91 62 91
91 62 91
92 62 92
94 65 94
95 65 95
93 61 93
91 58 91
92 60 92
94 62 94
96 65 96
100 70 100
99 69 99
97 66 97
101 70 101
100 70 100
106 78 106
110 85 110
107 81 107
108 81 108
108 81 108
113 89 113
123 101 123
139 124 139
143 132 143
122 108 122
50 26 50
11 0 11
11 1 11
5 0 5
0 0 0
0 0 0
0 0 0
0 0 0
0 0 0
0 0 0
0 0 0
0 0 0
0 0 0
0 0 0
1 0 1
35 16 35
95 81 95
83 64 83
106 87 106
81 54 81
87 61 87
97 74 97
92 66 92
86 56 86
90 61 90
91 62 91
91 61 91
91 59 91
93 62 93
95 64 95
90 57 90
90 57 90
92 60 92
94 62 94
97 66 97
95 64 95
98 66 98
98 67 98
102 72 102
103 74 103
105 77 105
104 76 104
103 75 103
107 81 107
108 82 108
110 85 110
118 95 118
125 106 125
138 126 138
128 116 128
66 45 66
14 0 14
11 1 11
5 0 5
0 0 0
0 0 0
0 0 0
0 0 0
0 0 0
0 0 0
0 0 0
0 0 0
0 0 0
0 0 0
3 0 3
53 34 53
98 83 98
78 61 78
87 64 87
81 57 81
92 68 92
97 73 97
95 71 95
84 54 84
88 59 88
90 60 90
93 63 93
90 58 90
93 62 93
94 63 94
91 58 91
92 60 92
94 62 94
95 63 95
98 67 98
97 67 97
97 65 97
100 69 100
102 73 102
104 74 104
100 69 100
98 67 98
99 68 99
104 76 104
109 83 109
107 81 107
116 91 116
122 101 122
135 121 135
130 117 130
76 56 76
17 0 17
12 1 12
5 0 5
0 0 0
0 0 0
0 0 0
0 0 0
0 0 0
0 0 0
0 0 0
0 0 0
0 0 0
0 0 0
2 0 2
53 32 53
88 70 88
70 51 70
77 53 77
89 66 89
90 65 90
94 69 94
100 76 100
86 56 86
90 60 90
88 58 88
94 64 94
91 59 91
93 61 93
95 64 95
93 61 93
96 66 96
97 67 97
96 65 96
100 70 100
101 73 101
97 66 97
102 72 102
105 77 105
103 73 103
98 66 98
97 67 97
98 67 98
102 73 102
110 85 110
109 82 109
116 91 116
121 100 121
134 118 134
138 127 138
87 69 87
21 1 21
12 1 12
6 0 6
0 0 0
0 0 0
0 0 0
0 0 0
0 0 0
0 0 0
0 0 0
0 0 0
0 0 0
0 0 0
1 0 1
41 17 41
79 58 79
62 38 62
65 40 65
86 59 86
85 56 85
94 69 94
94 67 94
90 61 90
89 59 89
87 56 87
92 61 92
92 61 92
94 63 94
97 67 97
95 65 95
100 72 100
101 73 101
98 67 98
101 72 101
103 75 103
98 68 98
104 77 104
105 77 105
101 71 101
97 65 97
97 66 97
97 66 97
100 71 100
111 86 111
110 84 110
113 87 113
122 100 122
135 120 135
146 137 146
98 81 98
25 3 25
13 2 13
6 0 6
0 0 0
0 0 0
0 0 0
0 0 0
0 0 0
0 0 0
0 0 0
0 0 0
0 0 0
0 0 0
4 1 4
37 15 37
97 80 97
68 42 68
66 38 66
74 45 74
89 60 89
100 76 100
104 81 104
96 69 96
90 60 90
90 59 90
91 60 91
95 66 95
95 65 95
98 69 98
97 67 97
99 70 99
99 71 99
97 67 97
101 73 101
101 73 101
98 68 98
102 74 102
101 72 101
100 69 100
97 66 97
98 67 98
98 67 98
101 71 101
112 87 112
110 85 110
112 86 112
121 100 121
136 121 136
149 140 149
108 92 108
28 6 28
14 2 14
6 0 6
0 0 0
0 0 0
0 0 0
0 0 0
0 0 0
0 0 0
0 0 0
0 0 0
0 0 0
1 0 1
8 3 8
49 31 49
89 71 89
77 51 77
66 37 66
68 39 68
80 51 80
90 61 90
102 78 102
90 61 90
97 71 97
95 67 95
92 61 92
98 70 98
96 67 96
94 62 94
94 63 94
96 66 96
98 68 98
97 67 97
98 69 98
99 69 99
96 65 96
101 71 101
102 73 102
100 70 100
97 65 97
97 66 97
98 67 98
101 71 101
113 88 113
109 83 109
112 86 112
120 99 120
133 117 133
147 137 147
115 101 115
29 7 29
14 2 14
6 0 6
0 0 0
0 0 0
0 0 0
0 0 0
0 0 0
0 0 0
0 0 0
0 0 0
1 0 1
12 6 12
30 21 30
43 24 43
65 42 65
71 45 71
64 35 64
61 31 61
70 39 70
82 52 82
100 75 100
89 60 89
89 60 89
93 64 93
87 55 87
90 59 90
94 63 94
91 60 91
90 57 90
92 59 92
95 64 95
94 62 94
94 63 94
94 62 94
98 67 98
101 71 101
102 73 102
99 69 99
98 67 98
98 68 98
99 68 99
101 71 101
111 86 111
106 78 106
113 87 113
118 96 118
128 110 128
144 134 144
117 104 117
30 8 30
14 2 14
6 0 6
0 0 0
0 0 0
0 0 0
0 0 0
0 0 0
0 0 0
0 0 0
0 0 0
12 5 12
18 10 18
21 13 21
31 12 31
58 34 58
70 43 70
67 37 67
61 31 61
67 36 67
76 45 76
98 74 98
93 65 93
88 57 88
94 65 94
87 55 87
86 53 86
90 58 90
91 58 91
88 54 88
91 58 91
91 58 91
91 57 91
91 58 91
90 56 90
96 64 96
99 69 99
102 73 102
99 68 99
99 68 99
99 70 99
100 70 100
103 74 103
107 81 107
104 76 104
115 90 115
117 94 117
129 112 129
139 127 139
115 102 115
30 8 30
14 2 14
6 0 6
0 0 0
0 0 0
0 0 0
0 0 0
0 0 0
0 0 0
0 0 0
7 2 7
12 4 12
11 3 11
18 9 18
40 18 40
63 39 63
69 41 69
67 38 67
61 31 61
65 34 65
77 47 77
97 74 97
90 64 90
79 48 79
89 59 89
86 54 86
86 53 86
89 57 89
90 57 90
89 55 89
91 58 91
90 57 90
89 55 89
88 54 88
89 54 89
94 62 94
97 67 97
102 74 102
98 68 98
99 68 99
99 70 99
102 73 102
105 77 105
104 77 104
104 77 104
117 93 117
116 92 116
130 114 130
135 123 135
111 97 111
29 7 29
14 2 14
6 0 6
0 0 0
0 0 0
0 0 0
0 0 0
0 0 0
0 0 0
2 0 2
12 5 12
12 4 12
9 1 9
22 11 22
45 22 45
71 46 71
73 46 73
64 33 64
61 29 61
64 32 64
78 49 78
93 69 93
83 55 83
77 46 77
88 59 88
86 53 86
85 52 85
89 57 89
88 55 88
90 57 90
92 59 92
91 57 91
89 55 89
90 57 90
88 54 88
91 58 91
95 64 95
101 73 101
98 68 98
98 67 98
100 71 100
102 73 102
103 75 103
101 72 101
107 82 107
115 90 115
118 96 118
128 111 128
135 123 135
110 97 110
28 7 28
14 2 14
6 0 6
0 0 0
0 0 0
0 0 0
0 0 0
0 0 0
0 0 0
8 2 8
15 7 15
16 5 16
17 5 17
44 26 44
69 45 69
72 45 72
70 40 70
65 34 65
61 30 61
64 32 64
83 56 83
97 73 97
83 54 83
79 49 79
84 55 84
82 50 82
85 52 85
89 57 89
86 52 86
90 57 90
93 60 93
90 57 90
88 53 88
90 57 90
88 54 88
88 53 88
92 60 92
98 69 98
99 69 99
98 67 98
99 69 99
99 69 99
98 69 98
101 73 101
111 86 111
111 85 111
121 99 121
127 109 127
132 119 132
106 92 106
28 7 28
13 2 13
6 0 6
0 0 0
0 0 0
0 0 0
0 0 0
0 0 0
2 0 2
11 4 11
17 8 17
18 7 18
22 8 22
53 31 53
74 50 74
76 49 76
70 40 70
66 34 66
60 29 60
63 34 63
83 57 83
97 74 97
82 52 82
79 49 79
83 54 83
84 54 84
85 53 85
90 59 90
91 58 91
91 58 91
93 61 93
90 57 90
88 53 88
90 57 90
89 56 89
87 53 87
92 59 92
97 68 97
99 70 99
97 67 97
98 69 98
96 66 96
96 66 96
103 75 103
110 85 110
110 84 110
123 102 123
127 110 127
130 117 130
105 91 105
27 7 27
13 2 13
6 0 6
0 0 0
0 0 0
0 0 0
0 0 0
2 0 2
11 3 11
9 2 9
10 2 10
19 6 19
34 10 34
70 47 70
72 47 72
74 50 74
61 36 61
70 46 70
64 41 64
68 44 68
73 50 73
80 53 80
92 64 92
88 57 88
81 51 81
89 60 89
100 72 100
104 75 104
106 77 106
104 74 104
100 70 100
92 59 92
91 57 91
91 58 91
92 59 92
91 59 91
91 58 91
99 70 99
103 75 103
98 69 98
94 64 94
94 63 94
98 69 98
108 82 108
109 83 109
111 85 111
119 96 119
136 121 136
142 134 142
99 86 99
22 3 22
12 1 12
6 0 6
0 0 0
0 0 0
0 0 0
0 0 0
4 0 4
9 1 9
8 1 8
17 7 17
18 6 18
37 12 37
55 31 55
61 35 61
67 45 67
54 29 54
64 39 64
58 34 58
64 41 64
69 45 69
76 49 76
90 61 90
98 69 98
100 71 100
99 71 99
104 76 104
108 83 108
118 94 118
110 82 110
109 83 109
108 81 108
114 91 114
99 70 99
93 61 93
94 62 94
95 63 95
104 78 104
104 77 104
97 67 97
97 67 97
94 64 94
98 69 98
107 82 107
112 88 112
107 80 107
119 97 119
127 111 127
137 128 137
67 48 67
16 0 16
10 0 10
5 0 5
0 0 0
0 0 0
0 0 0
0 0 0
1 0 1
8 2 8
9 1 9
12 5 12
13 1 13
40 16 40
54 28 54
61 34 61
64 39 64
56 29 56
54 27 54
55 29 55
64 41 64
70 47 70
78 52 78
85 56 85
90 59 90
99 70 99
104 76 104
103 73 103
111 87 111
123 102 123
116 93 116
122 102 122
114 90 114
114 90 114
114 91 114
97 66 97
97 67 97
104 77 104
105 78 105
102 74 102
102 75 102
102 74 102
97 67 97
98 70 98
113 91 113
111 87 111
109 82 109
132 115 132
131 117 131
114 101 114
33 12 33
11 0 11
10 0 10
5 0 5
0 0 0
0 0 0
0 0 0
0 0 0
0 0 0
0 0 0
3 0 3
13 4 13
20 5 20
44 17 44
55 30 55
66 41 66
63 39 63
55 27 55
51 23 51
57 31 57
66 41 66
73 47 73
69 41 69
75 44 75
80 48 80
82 50 82
88 54 88
102 73 102
114 91 114
121 99 121
112 87 112
108 82 108
117 96 117
114 90 114
117 95 117
102 73 102
97 68 97
103 76 103
108 84 108
109 84 109
108 84 108
105 80 105
98 69 98
107 82 107
120 100 120
112 89 112
121 100 121
140 126 140
142 133 142
91 74 91
19 1 19
9 0 9
10 0 10
5 0 5
0 0 0
0 0 0
0 0 0
0 0 0
0 0 0
0 0 0
0 0 0
11 4 11
28 12 28
53 30 53
64 38 64
61 33 61
59 32 59
54 28 54
48 21 48
57 30 57
67 38 67
72 44 72
69 39 69
75 43 75
80 48 80
80 49 80
75 42 75
90 58 90
105 77 105
101 72 101
104 76 104
107 82 107
94 63 94
105 78 105
104 76 104
105 78 105
94 62 94
96 65 96
104 78 104
108 83 108
109 86 109
112 89 112
112 90 112
119 99 119
121 102 121
128 110 128
136 121 136
141 130 141
119 107 119
41 22 41
10 0 10
8 0 8
9 0 9
5 0 5
0 0 0
0 0 0
0 0 0
0 0 0
0 0 0
0 0 0
0 0 0
8 1 8
28 12 28
54 31 54
73 50 73
81 57 81
85 59 85
76 48 76
62 32 62
62 34 62
60 30 60
64 34 64
63 33 63
73 43 73
79 49 79
77 45 77
73 41 73
89 56 89
99 69 99
100 69 100
104 76 104
105 79 105
104 78 104
105 78 105
101 72 101
103 75 103
97 66 97
95 65 95
98 69 98
107 80 107
110 86 110
115 94 115
116 95 116
127 109 127
145 133 145
142 129 142
148 137 148
143 135 143
77 59 77
16 1 16
7 0 7
8 0 8
9 0 9
5 0 5
0 0 0
0 0 0
0 0 0
0 0 0
0 0 0
0 0 0
0 0 0
14 4 14
36 20 36
74 56 74
74 53 74
93 74 93
79 53 79
65 34 65
60 28 60
69 36 69
76 44 76
71 39 71
73 43 73
79 50 79
80 51 80
75 43 75
72 40 72
84 51 84
94 62 94
102 74 102
100 71 100
99 72 99
105 78 105
116 93 116
104 77 104
98 68 98
95 65 95
94 63 94
98 69 98
113 89 113
116 95 116
120 100 120
134 119 134
150 140 150
158 151 158
161 155 161
159 154 159
99 83 99
23 6 23
5 0 5
7 0 7
7 0 7
9 0 9
5 0 5
0 0 0
0 0 0
0 0 0
0 0 0
0 0 0
0 0 0
1 0 1
22 10 22
75 63 75
94 80 94
95 78 95
82 62 82
72 50 72
77 53 77
81 56 81
77 49 77
76 46 76
90 62 90
79 48 79
77 46 77
78 47 78
78 48 78
78 45 78
84 51 84
92 61 92
100 71 100
100 70 100
99 70 99
104 76 104
115 91 115
96 66 96
96 66 96
98 69 98
95 65 95
105 79 105
111 87 111
114 92 114
129 111 129
143 131 143
163 159 163
170 168 170
158 153 158
101 82 101
32 12 32
6 0 6
4 0 4
6 0 6
6 0 6
8 0 8
5 0 5
0 0 0
0 0 0
0 0 0
0 0 0
0 0 0
0 0 0
2 0 2
34 21 34
111 108 111
102 91 102
86 71 86
95 84 95
86 68 86
79 54 79
96 72 96
96 71 96
86 57 86
96 72 96
81 50 81
81 48 81
78 45 78
80 48 80
79 46 79
85 53 85
90 59 90
98 68 98
99 69 99
101 72 101
108 80 108
103 76 103
106 81 106
99 71 99
97 68 97
107 82 107
116 95 116
117 96 117
119 100 119
137 124 137
156 150 156
153 146 153
107 88 107
74 49 74
43 16 43
12 0 12
4 0 4
4 0 4
7 0 7
6 0 6
8 0 8
5 0 5
0 0 0
0 0 0
0 0 0
0 0 0
0 0 0
0 0 0
4 0 4
65 58 65
96 89 96
88 76 88
89 79 89
89 77 89
95 74 95
75 48 75
105 82 105
112 94 112
105 51 105
93 68 93
71 39 71
76 42 76
81 49 81
84 55 84
87 56 87
99 70 99
107 81 107
101 72 101
96 66 96
90 59 90
97 67 97
102 74 102
109 85 109
116 95 116
115 92 115
126 108 126
119 99 119
117 96 117
128 112 128
142 132 142
109 90 109
70 42 70
56 30 56
41 15 41
19 2 19
8 0 8
4 0 4
4 0 4
7 0 7
5 0 5
7 0 7
4 0 4
0 0 0
0 0 0
1 0 1
1 0 1
1 0 1
2 0 2
6 0 6
71 65 71
60 46 60
78 62 78
97 88 97
75 53 75
99 79 99
105 85 105
111 92 111
97 77 97
84 58 84
111 67 111
79 50 79
70 37 70
81 50 81
84 53 84
91 61 91
100 74 100
101 74 101
99 71 99
92 62 92
84 53 84
83 52 83
87 55 87
99 71 99
109 85 109
119 98 119
119 100 119
109 87 109
104 81 104
104 83 104
80 52 80
66 37 66
59 32 59
41 17 41
16 0 16
15 2 15
8 0 8
5 0 5
4 0 4
7 0 7
5 0 5
8 0 8
5 0 5
0 0 0
0 0 0
0 0 0
0 0 0
0 0 0
0 0 0
0 0 0
4 0 4
9 0 9
21 9 21
30 12 30
44 20 44
58 31 58
67 39 67
77 49 77
79 50 79
80 51 80
81 51 81
79 47 79
76 44 76
84 56 84
86 57 86
88 58 88
97 67 97
107 83 107
103 77 103
97 69 97
87 57 87
91 62 91
85 55 85
85 53 85
77 44 77
75 43 75
72 40 72
72 40 72
71 39 71
69 38 69
66 36 66
58 31 58
45 20 45
18 1 18
10 0 10
15 2 15
9 0 9
6 0 6
4 0 4
7 0 7
5 0 5
7 0 7
5 0 5
0 0 0
0 0 0
0 0 0
0 0 0
0 0 0
1 0 1
1 0 1
3 0 3
21 9 21
22 2 22
43 21 43
78 61 78
92 72 92
104 83 104
123 108 123
112 93 112
102 82 102
102 82 102
111 94 111
85 57 85
77 48 77
89 62 89
84 54 84
86 57 86
100 75 100
98 73 98
89 60 89
95 67 95
101 76 101
103 78 103
94 67 94
78 46 78
71 38 71
71 40 71
72 40 72
68 37 68
67 37 67
62 33 62
51 25 51
28 9 28
6 0 6
8 0 8
14 1 14
10 0 10
8 0 8
5 0 5
8 0 8
6 0 6
10 0 10
5 0 5
0 0 0
0 0 0
0 0 0
0 0 0
0 0 0
1 0 1
1 0 1
8 0 8
43 29 43
105 62 105
94 79 94
108 98 108
96 79 96
92 71 92
84 62 84
107 88 107
108 87 108
101 78 101
106 87 106
81 53 81
73 42 73
77 48 77
79 49 79
92 65 92
96 71 96
92 64 92
91 62 91
87 58 87
81 50 81
92 64 92
90 62 90
75 44 75
72 40 72
72 41 72
71 39 71
68 37 68
65 36 65
59 30 59
41 18 41
12 0 12
5 0 5
8 0 8
20 4 20
10 0 10
8 0 8
6 0 6
7 0 7
5 0 5
8 0 8
4 0 4
0 0 0
0 0 0
0 0 0
0 0 0
0 0 0
0 0 0
0 0 0
4 0 4
31 17 31
91 82 91
115 83 115
71 51 71
81 60 81
95 74 95
95 72 95
97 73 97
95 69 95
84 55 84
98 74 98
95 70 95
80 50 80
73 44 73
85 56 85
94 66 94
95 69 95
89 60 89
88 58 88
90 62 90
85 55 85
81 50 81
76 45 76
75 43 75
71 39 71
69 38 69
68 37 68
65 35 65
60 31 60
50 24 50
31 11 31
8 0 8
5 0 5
8 0 8
18 2 18
7 0 7
6 0 6
6 0 6
8 0 8
5 0 5
7 0 7
4 0 4
0 0 0
0 0 0
0 0 0
0 0 0
0 0 0
0 0 0
0 0 0
1 0 1
22 9 22
53 38 53
117 112 117
98 84 98
90 71 90
101 83 101
106 85 106
94 70 94
92 66 92
84 56 84
97 73 97
84 56 84
79 49 79
73 43 73
82 52 82
89 60 89
92 65 92
96 68 96
87 58 87
86 56 86
84 53 84
88 59 88
78 47 78
75 43 75
71 40 71
68 37 68
67 36 67
64 35 64
55 28 55
40 17 40
21 4 21
7 0 7
5 0 5
9 0 9
18 2 18
6 0 6
6 0 6
6 0 6
8 0 8
5 0 5
6 0 6
4 0 4
0 0 0
0 0 0
0 0 0
0 0 0
0 0 0
0 0 0
0 0 0
1 0 1
19 7 19
34 18 34
86 72 86
98 82 98
88 67 88
94 73 94
93 69 93
91 67 91
89 63 89
85 57 85
86 59 86
78 47 78
82 54 82
77 48 77
77 47 77
83 53 83
89 60 89
87 57 87
82 52 82
84 54 84
83 54 83
83 53 83
79 48 79
75 44 75
70 39 70
68 38 68
65 36 65
63 34 63
50 23 50
32 12 32
15 0 15
6 0 6
4 0 4
9 0 9
17 2 17
5 0 5
5 0 5
6 0 6
9 0 9
6 0 6
6 0 6
4 0 4
0 0 0
0 0 0
0 0 0
0 0 0
0 0 0
0 0 0
0 0 0
1 0 1
19 7 19
34 17 34
73 56 73
89 71 89
97 80 97
82 59 82
87 63 87
90 66 90
84 59 84
74 45 74
83 56 83
76 47 76
85 58 85
76 48 76
68 37 68
77 45 77
84 54 84
86 56 86
80 49 80
78 47 78
84 55 84
87 57 87
78 47 78
71 39 71
68 37 68
68 37 68
65 36 65
60 31 60
49 22 49
29 9 29
10 0 10
6 0 6
4 0 4
9 0 9
16 2 16
5 0 5
5 0 5
7 0 7
9 0 9
6 0 6
6 0 6
4 0 4
0 0 0
0 0 0
0 0 0
0 0 0
0 0 0
0 0 0
0 0 0
1 0 1
21 8 21
36 18 36
79 64 79
89 71 89
110 96 110
86 64 86
86 63 86
80 54 80
75 48 75
75 48 75
83 58 83
80 52 80
72 41 72
66 35 66
64 33 64
74 42 74
86 56 86
89 59 89
83 53 83
76 45 76
83 53 83
87 59 87
76 46 76
71 39 71
68 37 68
66 36 66
64 35 64
59 31 59
48 23 48
25 7 25
7 0 7
5 0 5
5 0 5
9 0 9
15 2 15
5 0 5
5 0 5
7 0 7
10 0 10
6 0 6
6 0 6
4 0 4
0 0 0
0 0 0
0 0 0
0 0 0
0 0 0
0 0 0
0 0 0
1 0 1
21 8 21
36 20 36
87 75 87
102 89 102
112 100 112
101 85 101
87 66 87
79 57 79
82 60 82
84 62 84
74 46 74
68 37 68
67 35 67
64 34 64
63 33 63
74 42 74
82 52 82
85 56 85
82 52 82
78 48 78
82 54 82
88 59 88
78 47 78
71 39 71
67 36 67
65 36 65
62 33 62
59 32 59
46 21 46
20 3 20
5 0 5
5 0 5
4 0 4
9 0 9
15 1 15
4 0 4
5 0 5
8 0 8
10 0 10
6 0 6
6 0 6
4 0 4
0 0 0
0 0 0
0 0 0
0 0 0
0 0 0
0 0 0
0 0 0
0 0 0
16 4 16
40 24 40
105 99 105
114 105 114
108 97 108
95 80 95
91 76 91
82 63 82
70 45 70
64 36 64
63 34 63
66 36 66
62 32 62
63 33 63
64 33 64
72 40 72
82 51 82
84 54 84
82 52 82
78 47 78
82 52 82
86 58 86
79 49 79
69 38 69
66 35 66
66 36 66
62 33 62
57 30 57
43 20 43
15 0 15
4 0 4
5 0 5
4 0 4
8 0 8
15 1 15
4 0 4
4 0 4
8 0 8
10 0 10
6 0 6
6 0 6
4 0 4
0 0 0
0 0 0
0 0 0
0 0 0
0 0 0
0 0 0
0 0 0
0 0 0
0 0 0
0 0 0
0 0 0
0 0 0
0 0 0
0 0 0
0 0 0
0 0 0
0 0 0
0 0 0
0 0 0
0 0 0
0 0 0
0 0 0
0 0 0
0 0 0
0 0 0
0 0 0
0 0 0
0 0 0
0 0 0
0 0 0
0 0 0
0 0 0
0 0 0
0 0 0
0 0 0
0 0 0
0 0 0
0 0 0
0 0 0
0 0 0
0 0 0
0 0 0
0 0 0
0 0 0
0 0 0
0 0 0
0 0 0
0 0 0
0 0 0
0 0 0
