P3 
50 50 
255
0 0 0
0 0 0
0 0 0
0 0 0
0 0 0
0 0 0
0 0 0
0 0 0
0 0 0
0 0 0
0 0 0
0 0 0
0 0 0
0 0 0
0 0 0
0 0 0
0 0 0
0 0 0
0 0 0
0 0 0
0 0 0
0 0 0
0 0 0
0 0 0
0 0 0
0 0 0
0 0 0
0 0 0
0 0 0
0 0 0
0 0 0
0 0 0
0 0 0
0 0 0
0 0 0
0 0 0
0 0 0
0 0 0
0 0 0
0 0 0
0 0 0
0 0 0
0 0 0
0 0 0
0 0 0
0 0 0
0 0 0
0 0 0
0 0 0
0 0 0
0 0 0
0 0 0
0 0 0
0 0 0
0 0 0
0 0 0
1 0 1
1 0 1
2 0 2
2 0 2
1 0 1
1 0 1
2 0 2
5 1 5
6 2 6
7 1 7
5 0 5
5 0 5
13 0 13
21 3 21
27 7 27
25 6 25
15 0 15
6 0 6
3 0 3
3 0 3
2 0 2
2 0 2
2 0 2
2 0 2
2 0 2
2 0 2
3 0 3
4 0 4
6 1 6
6 1 6
4 0 4
2 0 2
2 0 2
1 0 1
2 0 2
3 0 3
3 0 3
3 0 3
1 0 1
1 0 1
1 0 1
0 0 0
0 0 0
0 0 0
0 0 0
0 0 0
0 0 0
0 0 0
0 0 0
0 0 0
2 0 2
2 0 2
1 0 1
1 0 1
1 0 1
2 0 2
3 0 3
5 1 5
6 1 6
13 1 13
36 13 36
56 30 56
81 57 81
109 92 109
132 121 132
129 116 129
104 85 104
74 49 74
46 22 46
14 0 14
5 0 5
2 0 2
3 0 3
2 0 2
2 0 2
2 0 2
3 0 3
4 0 4
5 1 5
6 1 6
4 0 4
3 0 3
2 0 2
1 0 1
2 0 2
3 0 3
3 0 3
2 0 2
1 0 1
1 0 1
1 0 1
0 0 0
0 0 0
0 0 0
0 0 0
0 0 0
0 0 0
0 0 0
0 0 0
0 0 0
2 0 2
1 0 1
1 0 1
1 0 1
2 0 2
3 0 3
1 0 1
5 0 5
28 8 28
61 35 61
109 90 109
148 140 148
155 149 155
162 158 162
164 160 164
160 155 160
163 158 163
157 152 157
145 136 145
92 70 92
48 22 48
11 0 11
2 0 2
2 0 2
2 0 2
3 0 3
4 0 4
4 0 4
5 1 5
6 1 6
5 0 5
3 0 3
2 0 2
2 0 2
2 0 2
3 0 3
4 0 4
2 0 2
1 0 1
1 0 1
1 0 1
0 0 0
0 0 0
0 0 0
0 0 0
0 0 0
0 0 0
0 0 0
1 0 1
1 0 1
1 0 1
1 0 1
2 0 2
2 0 2
3 0 3
2 0 2
8 0 8
49 23 49
78 52 78
146 137 146
148 139 148
145 134 145
134 119 134
130 114 130
132 117 132
126 109 126
140 128 140
159 153 159
157 151 157
155 149 155
144 135 144
78 54 78
29 7 29
2 0 2
3 0 3
3 0 3
4 0 4
4 0 4
6 1 6
6 1 6
5 0 5
3 0 3
3 0 3
2 0 2
2 0 2
3 0 3
4 0 4
2 0 2
1 0 1
1 0 1
1 0 1
0 0 0
0 0 0
0 0 0
0 0 0
0 0 0
0 0 0
0 0 0
1 0 1
1 0 1
1 0 1
2 0 2
2 0 2
2 0 2
2 0 2
16 0 16
56 30 56
103 81 103
146 137 146
143 131 143
133 115 133
122 102 122
119 98 119
118 98 118
124 107 124
124 106 124
123 104 123
127 109 127
154 146 154
158 153 158
154 147 154
155 149 155
99 79 99
35 12 35
2 0 2
3 0 3
4 0 4
4 0 4
7 1 7
6 1 6
5 0 5
3 0 3
4 0 4
2 0 2
2 0 2
2 0 2
4 0 4
2 0 2
2 0 2
2 0 2
1 0 1
1 0 1
0 0 0
0 0 0
0 0 0
0 0 0
0 0 0
1 0 1
0 0 0
1 0 1
1 0 1
2 0 2
1 0 1
3 0 3
21 2 21
57 29 57
122 107 122
145 134 145
147 137 147
129 111 129
122 101 122
118 97 118
122 103 122
122 103 122
116 96 116
117 96 117
120 99 120
121 100 121
130 113 130
146 136 146
158 152 158
156 150 156
153 146 153
102 82 102
17 1 17
3 0 3
3 0 3
5 0 5
7 1 7
5 1 5
4 0 4
3 0 3
4 0 4
3 0 3
2 0 2
2 0 2
4 0 4
2 0 2
2 0 2
2 0 2
1 0 1
1 0 1
0 0 0
0 0 0
0 0 0
0 0 0
0 0 0
1 0 1
1 0 1
1 0 1
1 0 1
2 0 2
2 0 2
12 0 12
55 28 55
117 99 117
148 138 148
149 138 149
131 114 131
123 102 123
115 91 115
113 89 113
111 86 111
110 86 110
110 86 110
110 86 110
116 94 116
118 97 118
118 96 118
129 111 129
133 117 133
153 146 153
155 148 155
149 141 149
69 45 69
8 0 8
3 0 3
5 0 5
7 1 7
5 1 5
4 0 4
2 0 2
3 0 3
3 0 3
2 0 2
2 0 2
3 0 3
2 0 2
2 0 2
2 0 2
1 0 1
0 0 0
0 0 0
0 0 0
0 0 0
0 0 0
0 0 0
1 0 1
1 0 1
1 0 1
1 0 1
2 0 2
9 0 9
48 24 48
108 88 108
144 133 144
151 142 151
128 109 128
123 102 123
118 96 118
113 88 113
103 75 103
102 74 102
106 80 106
106 81 106
107 81 107
109 85 109
111 87 111
111 87 111
117 96 117
122 102 122
127 109 127
143 132 143
151 143 151
140 130 140
57 34 57
4 0 4
5 0 5
8 1 8
6 1 6
4 0 4
2 0 2
3 0 3
2 0 2
3 0 3
2 0 2
3 0 3
2 0 2
2 0 2
1 0 1
1 0 1
1 0 1
0 0 0
0 0 0
0 0 0
0 0 0
0 0 0
1 0 1
1 0 1
1 0 1
1 0 1
3 0 3
43 21 43
79 54 79
140 128 140
151 142 151
127 108 127
119 97 119
118 95 118
109 84 109
107 80 107
107 82 107
106 80 106
105 78 105
104 77 104
108 83 108
105 79 105
107 81 107
110 86 110
107 81 107
114 92 114
114 92 114
122 102 122
142 130 142
149 141 149
136 126 136
33 12 33
5 0 5
8 1 8
7 1 7
5 0 5
2 0 2
3 0 3
2 0 2
3 0 3
3 0 3
3 0 3
2 0 2
2 0 2
2 0 2
2 0 2
1 0 1
0 0 0
0 0 0
0 0 0
0 0 0
0 0 0
1 0 1
1 0 1
2 0 2
1 0 1
33 15 33
62 38 62
132 119 132
151 141 151
127 109 127
118 96 118
116 92 116
112 88 112
106 79 106
103 75 103
103 75 103
101 72 101
102 74 102
101 73 101
102 74 102
104 76 104
108 82 108
104 77 104
106 81 106
108 83 108
114 92 114
115 92 115
123 104 123
149 140 149
147 139 147
100 85 100
9 0 9
9 1 9
8 1 8
6 0 6
3 0 3
4 0 4
2 0 2
2 0 2
4 0 4
3 0 3
2 0 2
2 0 2
2 0 2
2 0 2
1 0 1
0 0 0
0 0 0
0 0 0
0 0 0
0 0 0
1 0 1
1 0 1
2 0 2
7 0 7
46 25 46
123 110 123
140 128 140
130 113 130
118 96 118
116 94 116
113 90 113
106 79 106
104 77 104
104 76 104
102 75 102
100 72 100
101 73 101
104 78 104
104 77 104
104 77 104
104 76 104
108 83 108
102 75 102
109 85 109
106 81 106
113 91 113
118 97 118
125 108 125
152 146 152
137 129 137
39 19 39
7 1 7
7 1 7
6 0 6
3 0 3
4 0 4
2 0 2
2 0 2
4 0 4
3 0 3
3 0 3
3 0 3
2 0 2
2 0 2
1 0 1
0 0 0
0 0 0
0 0 0
0 0 0
0 0 0
1 0 1
1 0 1
1 0 1
31 15 31
90 73 90
133 120 133
146 136 146
122 102 122
118 97 118
118 97 118
107 81 107
109 84 109
106 79 106
105 78 105
104 77 104
104 77 104
101 73 101
101 72 101
98 68 98
99 69 99
100 72 100
102 74 102
107 82 107
101 73 101
109 86 109
108 84 108
110 87 110
119 99 119
134 120 134
142 134 142
98 85 98
9 2 9
7 1 7
6 0 6
4 0 4
5 0 5
3 0 3
2 0 2
4 0 4
4 0 4
3 0 3
3 0 3
2 0 2
1 0 1
1 0 1
0 0 0
0 0 0
0 0 0
0 0 0
1 0 1
1 0 1
1 0 1
2 0 2
41 22 41
124 114 124
143 133 143
132 117 132
117 95 117
117 95 117
111 87 111
111 87 111
105 79 105
101 73 101
99 69 99
100 71 100
101 73 101
98 68 98
102 73 102
101 73 101
101 73 101
100 70 100
101 72 101
102 75 102
107 82 107
102 75 102
106 81 106
115 94 115
118 98 118
119 101 119
142 133 142
126 117 126
21 5 21
7 1 7
5 0 5
4 0 4
4 0 4
3 0 3
2 0 2
4 0 4
4 0 4
4 0 4
4 0 4
2 0 2
2 0 2
2 0 2
0 0 0
0 0 0
0 0 0
0 0 0
1 0 1
1 0 1
1 0 1
13 2 13
73 57 73
130 120 130
135 122 135
123 106 123
117 96 117
118 96 118
111 86 111
106 80 106
105 78 105
99 70 99
103 75 103
104 78 104
106 79 106
105 78 105
108 82 108
102 75 102
104 76 104
104 77 104
102 74 102
104 77 104
103 76 103
105 80 105
108 83 108
106 81 106
109 85 109
111 90 111
134 122 134
131 121 131
33 14 33
8 1 8
6 0 6
4 0 4
5 0 5
4 0 4
3 0 3
5 0 5
5 0 5
6 0 6
4 0 4
2 0 2
3 0 3
3 0 3
0 0 0
0 0 0
0 0 0
0 0 0
1 0 1
1 0 1
2 0 2
25 11 25
112 104 112
137 129 137
124 108 124
114 91 114
113 89 113
110 86 110
114 91 114
105 78 105
105 78 105
106 79 106
104 76 104
104 77 104
105 78 105
105 78 105
102 74 102
97 67 97
99 69 99
102 73 102
105 78 105
104 76 104
102 74 102
110 87 110
101 73 101
107 81 107
108 84 108
110 90 110
126 111 126
132 122 132
45 24 45
8 1 8
6 0 6
3 0 3
6 0 6
4 0 4
4 0 4
6 0 6
6 0 6
7 0 7
4 0 4
2 0 2
3 0 3
2 0 2
1 0 1
0 0 0
0 0 0
0 0 0
1 0 1
1 0 1
2 0 2
30 14 30
121 113 121
140 131 140
120 103 120
116 95 116
114 92 114
110 86 110
109 83 109
110 85 110
109 82 109
100 71 100
101 72 101
97 67 97
97 67 97
98 69 98
97 65 97
97 66 97
96 64 96
95 63 95
101 72 101
105 78 105
108 81 108
104 77 104
107 81 107
109 84 109
108 85 108
110 90 110
123 107 123
138 130 138
61 40 61
8 1 8
6 0 6
3 0 3
6 0 6
5 0 5
4 0 4
7 0 7
6 0 6
4 0 4
2 0 2
1 0 1
2 0 2
2 0 2
1 0 1
0 0 0
0 0 0
0 0 0
1 0 1
2 0 2
2 0 2
35 16 35
127 120 127
132 121 132
121 104 121
116 95 116
112 89 112
114 91 114
109 83 109
109 83 109
107 79 107
99 68 99
98 66 98
93 61 93
94 63 94
97 67 97
99 68 99
95 64 95
93 61 93
96 64 96
94 63 94
104 77 104
108 82 108
107 80 107
110 85 110
107 80 107
105 80 105
108 87 108
126 111 126
143 136 143
81 62 81
8 1 8
6 0 6
3 0 3
5 0 5
4 0 4
3 0 3
6 0 6
6 0 6
3 0 3
2 0 2
1 0 1
1 0 1
1 0 1
0 0 0
0 0 0
0 0 0
0 0 0
1 0 1
2 0 2
3 0 3
39 20 39
135 129 135
136 125 136
123 106 123
116 94 116
108 84 108
111 86 111
112 87 112
111 85 111
105 77 105
97 64 97
96 64 96
96 65 96
98 69 98
101 73 101
101 72 101
97 68 97
93 62 93
96 64 96
95 63 95
100 71 100
105 78 105
104 78 104
110 84 110
109 83 109
103 76 103
110 89 110
125 110 125
143 136 143
100 84 100
9 2 9
6 0 6
3 0 3
5 0 5
4 0 4
3 0 3
6 0 6
5 0 5
3 0 3
2 0 2
2 0 2
1 0 1
1 0 1
1 0 1
0 0 0
0 0 0
0 0 0
1 0 1
2 0 2
3 0 3
42 21 42
141 135 141
138 127 138
125 108 125
117 95 117
110 85 110
109 84 109
114 89 114
107 81 107
99 69 99
94 62 94
95 63 95
101 72 101
104 77 104
106 80 106
105 78 105
103 76 103
96 66 96
95 64 95
96 65 96
97 66 97
102 75 102
106 80 106
105 79 105
112 87 112
107 80 107
113 93 113
121 105 121
146 139 146
118 107 118
10 2 10
5 0 5
4 0 4
5 0 5
3 0 3
3 0 3
5 0 5
4 0 4
2 0 2
1 0 1
2 0 2
1 0 1
2 0 2
1 0 1
0 0 0
0 0 0
0 0 0
1 0 1
2 0 2
3 0 3
45 23 45
143 137 143
134 123 134
124 107 124
115 92 115
114 91 114
113 87 113
118 95 118
106 79 106
95 63 95
95 63 95
99 69 99
105 79 105
105 79 105
102 75 102
106 79 106
107 79 107
100 71 100
101 72 101
97 66 97
97 67 97
104 77 104
108 83 108
109 84 109
109 83 109
113 89 113
112 91 112
117 100 117
139 129 139
127 119 127
10 2 10
5 0 5
4 0 4
5 0 5
3 0 3
3 0 3
4 0 4
3 0 3
2 0 2
1 0 1
2 0 2
1 0 1
1 0 1
1 0 1
0 0 0
0 0 0
0 0 0
1 0 1
2 0 2
2 0 2
46 23 46
144 139 144
130 117 130
122 104 122
112 89 112
114 90 114
115 90 115
115 92 115
109 83 109
98 67 98
96 65 96
103 75 103
105 79 105
102 74 102
95 65 95
102 73 102
105 76 105
100 72 100
103 75 103
100 71 100
97 66 97
105 78 105
106 81 106
108 83 108
107 81 107
114 90 114
110 88 110
111 93 111
130 118 130
128 119 128
12 2 12
6 0 6
3 0 3
5 0 5
3 0 3
2 0 2
4 0 4
3 0 3
2 0 2
1 0 1
2 0 2
1 0 1
1 0 1
1 0 1
0 0 0
0 0 0
0 0 0
1 0 1
2 0 2
2 0 2
46 23 46
147 142 147
125 111 125
117 98 117
106 80 106
111 87 111
113 88 113
112 87 112
109 83 109
97 66 97
99 69 99
104 77 104
99 71 99
96 66 96
94 64 94
98 67 98
100 69 100
102 73 102
102 74 102
100 72 100
96 65 96
105 78 105
103 76 103
108 83 108
105 79 105
112 88 112
112 91 112
110 91 110
117 101 117
132 124 132
15 2 15
6 0 6
3 0 3
4 0 4
3 0 3
2 0 2
4 0 4
3 0 3
2 0 2
2 0 2
1 0 1
1 0 1
1 0 1
0 0 0
0 0 0
0 0 0
0 0 0
2 0 2
2 0 2
3 0 3
46 24 46
147 141 147
122 107 122
116 96 116
108 83 108
110 84 110
113 88 113
108 81 108
108 82 108
97 66 97
102 73 102
102 73 102
95 64 95
93 62 93
95 66 95
98 68 98
95 64 95
101 73 101
104 78 104
99 70 99
97 67 97
106 81 106
101 73 101
107 82 107
105 79 105
114 91 114
116 96 116
109 89 109
113 96 113
133 126 133
17 3 17
6 0 6
3 0 3
4 0 4
2 0 2
3 0 3
4 0 4
2 0 2
3 0 3
2 0 2
1 0 1
1 0 1
1 0 1
0 0 0
0 0 0
0 0 0
0 0 0
2 0 2
3 0 3
2 0 2
46 24 46
146 140 146
121 105 121
117 98 117
112 88 112
112 86 112
111 85 111
106 79 106
108 83 108
98 67 98
103 74 103
99 69 99
92 59 92
92 59 92
95 68 95
95 67 95
92 61 92
97 67 97
103 76 103
99 70 99
100 71 100
108 83 108
102 74 102
104 77 104
108 84 108
114 91 114
114 93 114
110 89 110
112 96 112
133 126 133
17 4 17
6 0 6
3 0 3
4 0 4
2 0 2
3 0 3
4 0 4
2 0 2
3 0 3
2 0 2
1 0 1
1 0 1
1 0 1
0 0 0
0 0 0
0 0 0
0 0 0
2 0 2
3 0 3
6 0 6
44 22 44
143 136 143
121 105 121
114 95 114
115 91 115
110 84 110
110 83 110
109 82 109
109 83 109
102 73 102
105 77 105
97 65 97
92 60 92
88 55 88
96 67 96
95 66 95
100 71 100
92 64 92
103 76 103
101 73 101
100 71 100
107 81 107
102 74 102
102 74 102
106 81 106
111 86 111
110 87 110
109 87 109
113 95 113
124 117 124
15 3 15
6 0 6
3 0 3
4 0 4
2 0 2
3 0 3
3 0 3
3 0 3
2 0 2
2 0 2
2 0 2
1 0 1
0 0 0
0 0 0
0 0 0
0 0 0
0 0 0
2 0 2
3 0 3
23 10 23
40 18 40
135 128 135
120 103 120
112 92 112
110 84 110
107 79 107
112 85 112
110 83 110
110 84 110
101 71 101
106 78 106
99 68 99
93 61 93
90 59 90
94 64 94
95 65 95
101 73 101
98 70 98
108 82 108
106 80 106
101 73 101
106 80 106
102 75 102
99 70 99
104 76 104
110 85 110
112 89 112
105 81 105
116 98 116
109 98 109
10 2 10
6 0 6
4 0 4
3 0 3
2 0 2
3 0 3
3 0 3
3 0 3
3 0 3
2 0 2
2 0 2
0 0 0
0 0 0
0 0 0
0 0 0
0 0 0
0 0 0
2 0 2
2 0 2
18 6 18
37 16 37
131 122 131
119 103 119
112 91 112
110 83 110
106 78 106
112 85 112
111 83 111
110 85 110
101 71 101
106 78 106
99 69 99
94 63 94
94 64 94
94 63 94
95 66 95
102 75 102
99 71 99
111 86 111
105 79 105
104 78 104
105 79 105
105 78 105
102 74 102
105 76 105
112 87 112
116 94 116
105 81 105
120 101 120
104 93 104
9 2 9
10 1 10
4 0 4
3 0 3
2 0 2
3 0 3
2 0 2
3 0 3
3 0 3
2 0 2
2 0 2
1 0 1
0 0 0
0 0 0
0 0 0
0 0 0
0 0 0
1 0 1
2 0 2
9 1 9
33 15 33
107 93 107
132 118 132
117 95 117
113 89 113
110 84 110
114 89 114
114 88 114
114 88 114
109 81 109
104 77 104
103 77 103
98 72 98
102 76 102
100 72 100
99 73 99
102 74 102
102 76 102
113 87 113
99 71 99
111 89 111
119 86 119
119 97 119
115 92 115
108 81 108
114 90 114
119 98 119
115 93 115
123 105 123
88 75 88
18 4 18
13 3 13
4 0 4
2 0 2
2 0 2
3 0 3
3 0 3
4 0 4
3 0 3
2 0 2
2 0 2
1 0 1
1 0 1
1 0 1
0 0 0
0 0 0
0 0 0
1 0 1
2 0 2
5 0 5
33 15 33
89 70 89
144 134 144
121 100 121
120 97 120
111 84 111
114 88 114
119 95 119
120 96 120
120 97 120
101 72 101
98 70 98
96 70 96
100 73 100
97 66 97
96 70 96
96 66 96
100 70 100
102 72 102
101 73 101
111 88 111
122 102 122
116 93 116
116 93 116
113 87 113
124 103 124
130 112 130
130 112 130
117 97 117
63 45 63
20 7 20
8 1 8
3 0 3
2 0 2
2 0 2
3 0 3
3 0 3
5 0 5
3 0 3
2 0 2
2 0 2
1 0 1
1 0 1
1 0 1
0 0 0
0 0 0
0 0 0
1 0 1
1 0 1
3 0 3
31 14 31
53 29 53
144 136 144
134 118 134
135 116 135
126 105 126
117 92 117
126 105 126
125 103 125
118 94 118
110 86 110
99 71 99
93 65 93
98 67 98
95 64 95
99 73 99
105 76 105
93 64 93
101 71 101
105 79 105
104 77 104
118 96 118
114 90 114
111 87 111
118 95 118
126 107 126
133 117 133
134 118 134
122 104 122
51 28 51
24 7 24
6 1 6
3 0 3
2 0 2
2 0 2
3 0 3
2 0 2
4 0 4
4 0 4
2 0 2
2 0 2
1 0 1
1 0 1
1 0 1
0 0 0
0 0 0
0 0 0
1 0 1
1 0 1
3 0 3
24 9 24
45 21 45
143 136 143
143 131 143
133 114 133
137 120 137
120 97 120
119 93 119
125 104 125
126 106 126
107 81 107
108 83 108
105 81 105
106 79 106
103 76 103
101 77 101
111 87 111
96 69 96
104 78 104
104 77 104
108 84 108
113 90 113
111 86 111
112 88 112
125 106 125
123 103 123
126 107 126
124 108 124
124 107 124
37 16 37
25 10 25
7 1 7
2 0 2
2 0 2
2 0 2
3 0 3
2 0 2
4 0 4
3 0 3
2 0 2
2 0 2
1 0 1
1 0 1
1 0 1
0 0 0
0 0 0
0 0 0
1 0 1
1 0 1
3 0 3
16 6 16
41 18 41
108 93 108
144 134 144
140 126 140
130 112 130
130 112 130
120 96 120
115 89 115
120 96 120
110 85 110
102 75 102
104 78 104
105 78 105
108 84 108
103 80 103
110 86 110
100 74 100
104 76 104
114 92 114
106 82 106
106 80 106
107 82 107
121 100 121
131 114 131
131 114 131
126 110 126
115 97 115
111 90 111
33 15 33
18 5 18
10 2 10
2 0 2
2 0 2
3 0 3
3 0 3
2 0 2
4 0 4
2 0 2
2 0 2
2 0 2
1 0 1
2 0 2
1 0 1
0 0 0
0 0 0
0 0 0
0 0 0
1 0 1
3 0 3
16 8 16
31 12 31
64 40 64
134 120 134
143 132 143
135 118 135
135 118 135
128 108 128
113 87 113
113 87 113
107 80 107
106 81 106
112 90 112
117 95 117
120 101 120
125 107 125
123 102 123
119 97 119
117 95 117
123 102 123
113 90 113
107 82 107
117 95 117
123 103 123
132 116 132
150 142 150
131 117 131
100 77 100
75 45 75
34 15 34
19 8 19
12 3 12
2 0 2
2 0 2
2 0 2
3 0 3
2 0 2
3 0 3
2 0 2
2 0 2
2 0 2
2 0 2
1 0 1
1 0 1
0 0 0
0 0 0
0 0 0
0 0 0
1 0 1
5 0 5
14 5 14
25 11 25
51 26 51
125 109 125
131 118 131
142 128 142
135 118 135
134 116 134
126 106 126
115 91 115
112 88 112
121 100 121
124 106 124
128 110 128
129 112 129
128 110 128
129 111 129
128 111 128
127 110 127
138 121 138
127 108 127
125 105 125
117 94 117
118 95 118
126 107 126
153 147 153
127 112 127
105 83 105
61 29 61
30 13 30
19 7 19
10 2 10
2 0 2
2 0 2
2 0 2
3 0 3
4 0 4
3 0 3
1 0 1
2 0 2
2 0 2
2 0 2
1 0 1
1 0 1
0 0 0
0 0 0
0 0 0
0 0 0
1 0 1
6 0 6
33 16 33
23 10 23
46 22 46
107 84 107
123 106 123
143 131 143
132 112 132
129 108 129
121 100 121
119 96 119
121 99 121
135 118 135
137 122 137
135 118 135
134 118 134
140 129 140
133 119 133
133 117 133
125 106 125
128 107 128
127 105 127
124 100 124
108 80 108
116 92 116
130 112 130
146 136 146
112 92 112
113 93 113
55 24 55
26 10 26
17 6 17
10 1 10
1 0 1
2 0 2
3 0 3
3 0 3
3 0 3
3 0 3
2 0 2
3 0 3
3 0 3
2 0 2
1 0 1
1 0 1
0 0 0
0 0 0
0 0 0
0 0 0
2 0 2
3 0 3
35 19 35
30 14 30
50 26 50
80 53 80
131 116 131
133 118 133
144 131 144
125 103 125
111 85 111
112 86 112
112 86 112
125 103 125
129 107 129
125 101 125
132 113 132
139 125 139
124 103 124
115 82 115
113 86 113
123 93 123
128 104 128
126 86 126
109 81 109
115 91 115
147 136 147
127 109 127
95 68 95
96 71 96
49 20 49
21 8 21
24 9 24
14 6 14
2 0 2
2 0 2
4 0 4
3 0 3
2 0 2
3 0 3
2 0 2
2 0 2
2 0 2
2 0 2
1 0 1
0 0 0
0 0 0
0 0 0
0 0 0
0 0 0
2 0 2
2 0 2
32 18 32
25 12 25
36 15 36
62 33 62
120 101 120
111 87 111
141 125 141
136 118 136
117 92 117
106 78 106
109 82 109
129 90 129
128 106 128
122 96 122
131 110 131
129 108 129
134 115 134
124 101 124
119 94 119
128 105 128
128 103 128
121 87 121
114 88 114
118 96 118
103 75 103
102 75 102
105 82 105
67 36 67
30 7 30
25 10 25
28 13 28
16 6 16
2 0 2
3 0 3
5 0 5
2 0 2
3 0 3
3 0 3
3 0 3
2 0 2
2 0 2
2 0 2
1 0 1
0 0 0
0 0 0
0 0 0
0 0 0
0 0 0
2 0 2
2 0 2
19 7 19
15 5 15
17 4 17
50 24 50
76 45 76
98 69 98
93 58 93
107 78 107
121 97 121
109 80 109
116 90 116
125 93 125
124 92 124
125 94 125
122 96 122
122 98 122
120 87 120
116 88 116
114 87 114
129 104 129
125 99 125
112 83 112
106 63 106
91 55 91
89 54 89
95 65 95
78 45 78
63 32 63
17 1 17
15 4 15
30 13 30
8 2 8
2 0 2
4 0 4
4 0 4
2 0 2
3 0 3
4 0 4
4 0 4
3 0 3
3 0 3
2 0 2
1 0 1
1 0 1
0 0 0
0 0 0
0 0 0
1 0 1
1 0 1
2 0 2
4 0 4
12 4 12
11 4 11
34 16 34
60 31 60
75 41 75
92 59 92
92 58 92
98 64 98
93 57 93
92 56 92
102 68 102
101 68 101
99 65 99
101 68 101
99 66 99
102 69 102
90 54 90
95 60 95
102 70 102
101 67 101
88 52 88
90 54 90
88 53 88
89 56 89
86 56 86
69 38 69
50 20 50
10 1 10
12 4 12
21 9 21
6 2 6
2 0 2
2 0 2
2 0 2
1 0 1
2 0 2
3 0 3
2 0 2
1 0 1
2 0 2
1 0 1
1 0 1
0 0 0
0 0 0
0 0 0
1 0 1
1 0 1
1 0 1
2 0 2
2 0 2
3 0 3
4 0 4
22 5 22
46 20 46
74 41 74
96 64 96
90 55 90
96 62 96
98 64 98
108 74 108
120 79 120
116 89 116
124 95 124
113 83 113
105 72 105
105 72 105
106 73 106
114 84 114
113 83 113
118 90 118
100 67 100
94 61 94
96 43 96
90 58 90
79 47 79
63 30 63
44 16 44
6 0 6
7 0 7
8 1 8
8 1 8
3 0 3
3 0 3
3 0 3
2 0 2
2 0 2
3 0 3
2 0 2
1 0 1
1 0 1
1 0 1
1 0 1
1 0 1
0 0 0
0 0 0
0 0 0
0 0 0
1 0 1
1 0 1
2 0 2
2 0 2
3 0 3
6 0 6
35 14 35
70 37 70
87 54 87
90 57 90
92 58 92
92 59 92
97 61 97
112 65 112
108 76 108
121 92 121
114 83 114
114 83 114
116 78 116
115 78 115
111 80 111
113 83 113
109 69 109
106 75 106
100 66 100
82 47 82
93 60 93
70 37 70
59 27 59
38 13 38
6 0 6
7 1 7
9 3 9
9 3 9
2 0 2
3 0 3
3 0 3
1 0 1
1 0 1
3 0 3
2 0 2
2 0 2
1 0 1
1 0 1
0 0 0
0 0 0
0 0 0
0 0 0
0 0 0
0 0 0
1 0 1
0 0 0
1 0 1
2 0 2
1 0 1
2 0 2
27 12 27
67 36 67
77 43 77
95 64 95
93 59 93
86 49 86
104 71 104
101 67 101
101 67 101
107 74 107
106 71 106
102 67 102
104 69 104
106 73 106
103 68 103
107 61 107
101 67 101
112 72 112
101 67 101
84 48 84
107 78 107
73 41 73
61 32 61
23 6 23
3 0 3
5 0 5
7 2 7
8 3 8
1 0 1
2 0 2
2 0 2
1 0 1
1 0 1
3 0 3
1 0 1
2 0 2
1 0 1
0 0 0
0 0 0
0 0 0
0 0 0
0 0 0
0 0 0
1 0 1
1 0 1
1 0 1
1 0 1
2 0 2
1 0 1
2 0 2
14 4 14
62 32 62
73 39 73
93 62 93
95 62 95
91 57 91
91 56 91
95 60 95
99 64 99
106 73 106
110 78 110
105 71 105
103 69 103
101 66 101
109 76 109
114 83 114
99 64 99
105 72 105
98 64 98
91 56 91
111 83 111
73 42 73
58 30 58
10 0 10
3 0 3
5 0 5
6 2 6
7 3 7
1 0 1
1 0 1
2 0 2
1 0 1
1 0 1
2 0 2
1 0 1
2 0 2
2 0 2
1 0 1
0 0 0
0 0 0
0 0 0
0 0 0
0 0 0
1 0 1
1 0 1
1 0 1
1 0 1
2 0 2
1 0 1
3 0 3
2 0 2
49 21 49
69 38 69
84 51 84
96 64 96
92 57 92
88 52 88
92 55 92
101 67 101
100 65 100
103 69 103
96 60 96
100 65 100
101 66 101
105 71 105
107 73 107
104 70 104
95 59 95
90 54 90
94 60 94
110 81 110
69 37 69
57 28 57
5 0 5
3 0 3
4 0 4
5 2 5
7 3 7
1 0 1
1 0 1
2 0 2
1 0 1
1 0 1
2 0 2
1 0 1
2 0 2
1 0 1
1 0 1
0 0 0
1 0 1
0 0 0
0 0 0
0 0 0
1 0 1
1 0 1
0 0 0
1 0 1
1 0 1
2 0 2
3 0 3
3 0 3
27 10 27
64 33 64
75 42 75
85 51 85
96 62 96
87 52 87
93 57 93
97 62 97
98 63 98
101 66 101
95 58 95
98 62 98
102 68 102
104 69 104
105 71 105
98 62 98
95 60 95
89 54 89
97 64 97
88 55 88
64 33 64
46 22 46
4 0 4
2 0 2
3 0 3
5 2 5
7 3 7
1 0 1
1 0 1
2 0 2
1 0 1
1 0 1
2 0 2
2 0 2
2 0 2
1 0 1
1 0 1
0 0 0
1 0 1
0 0 0
0 0 0
0 0 0
1 0 1
1 0 1
0 0 0
1 0 1
2 0 2
1 0 1
3 0 3
2 0 2
11 2 11
48 23 48
68 36 68
73 38 73
92 59 92
90 55 90
91 54 91
94 59 94
95 60 95
106 73 106
102 68 102
99 63 99
106 72 106
103 68 103
107 73 107
99 63 99
95 60 95
95 60 95
100 69 100
73 39 73
59 30 59
40 21 40
3 0 3
2 0 2
3 0 3
5 2 5
7 3 7
1 0 1
1 0 1
2 0 2
1 0 1
1 0 1
2 0 2
2 0 2
2 0 2
2 0 2
1 0 1
0 0 0
0 0 0
0 0 0
0 0 0
1 0 1
1 0 1
1 0 1
1 0 1
1 0 1
2 0 2
1 0 1
3 0 3
2 0 2
3 0 3
37 15 37
55 28 55
69 36 69
74 38 74
99 66 99
97 62 97
99 65 99
96 60 96
105 72 105
101 67 101
100 65 100
105 71 105
106 72 106
108 75 108
104 70 104
105 72 105
101 68 101
79 45 79
69 37 69
54 26 54
37 18 37
3 0 3
2 0 2
3 0 3
5 1 5
7 3 7
1 0 1
1 0 1
2 0 2
1 0 1
1 0 1
2 0 2
1 0 1
1 0 1
1 0 1
1 0 1
1 0 1
0 0 0
0 0 0
0 0 0
0 0 0
1 0 1
1 0 1
1 0 1
1 0 1
1 0 1
1 0 1
3 0 3
2 0 2
3 0 3
21 5 21
49 25 49
61 32 61
67 33 67
78 42 78
92 57 92
106 72 106
106 73 106
107 74 107
103 68 103
100 65 100
102 69 102
107 73 107
108 74 108
106 73 106
101 68 101
81 45 81
74 41 74
65 35 65
48 24 48
34 17 34
3 0 3
2 0 2
3 0 3
4 2 4
7 3 7
1 0 1
1 0 1
2 0 2
1 0 1
1 0 1
2 0 2
1 0 1
1 0 1
1 0 1
1 0 1
0 0 0
0 0 0
0 0 0
0 0 0
0 0 0
0 0 0
0 0 0
0 0 0
0 0 0
0 0 0
0 0 0
0 0 0
0 0 0
0 0 0
0 0 0
0 0 0
0 0 0
0 0 0
0 0 0
0 0 0
0 0 0
0 0 0
0 0 0
0 0 0
0 0 0
0 0 0
0 0 0
0 0 0
0 0 0
0 0 0
0 0 0
0 0 0
0 0 0
0 0 0
0 0 0
0 0 0
0 0 0
0 0 0
0 0 0
0 0 0
0 0 0
0 0 0
0 0 0
0 0 0
0 0 0
0 0 0
0 0 0
0 0 0
0 0 0
0 0 0
0 0 0
0 0 0
0 0 0
