P3 
50 50 
255
0 0 0
0 0 0
0 0 0
0 0 0
0 0 0
0 0 0
0 0 0
0 0 0
0 0 0
0 0 0
0 0 0
0 0 0
0 0 0
0 0 0
0 0 0
0 0 0
0 0 0
0 0 0
0 0 0
0 0 0
0 0 0
0 0 0
0 0 0
0 0 0
0 0 0
0 0 0
0 0 0
0 0 0
0 0 0
0 0 0
0 0 0
0 0 0
0 0 0
0 0 0
0 0 0
0 0 0
0 0 0
0 0 0
0 0 0
0 0 0
0 0 0
0 0 0
0 0 0
0 0 0
0 0 0
0 0 0
0 0 0
0 0 0
0 0 0
0 0 0
0 0 0
6 0 6
9 1 9
5 0 5
3 0 3
3 0 3
3 0 3
3 0 3
2 0 2
2 0 2
4 0 4
6 0 6
5 0 5
8 0 8
7 0 7
5 0 5
6 0 6
10 0 10
14 1 14
17 3 17
19 4 19
20 4 20
18 3 18
13 0 13
9 0 9
5 0 5
2 0 2
1 0 1
1 0 1
1 0 1
1 0 1
0 0 0
0 0 0
0 0 0
0 0 0
0 0 0
0 0 0
0 0 0
0 0 0
0 0 0
0 0 0
0 0 0
0 0 0
0 0 0
0 0 0
0 0 0
0 0 0
0 0 0
0 0 0
0 0 0
0 0 0
6 0 6
10 1 10
4 0 4
3 0 3
3 0 3
3 0 3
3 0 3
3 0 3
4 0 4
6 0 6
5 0 5
6 0 6
15 0 15
28 8 28
38 18 38
55 33 55
72 51 72
84 65 84
96 80 96
107 94 107
109 97 109
106 94 106
97 81 97
82 63 82
63 43 63
43 23 43
24 8 24
6 0 6
1 0 1
1 0 1
1 0 1
0 0 0
0 0 0
0 0 0
0 0 0
0 0 0
0 0 0
0 0 0
0 0 0
0 0 0
0 0 0
0 0 0
0 0 0
0 0 0
0 0 0
0 0 0
0 0 0
0 0 0
0 0 0
0 0 0
5 0 5
9 1 9
4 0 4
3 0 3
3 0 3
3 0 3
3 0 3
4 0 4
6 0 6
6 0 6
14 1 14
34 14 34
63 42 63
103 88 103
124 114 124
138 131 138
149 143 149
144 136 144
147 140 147
153 146 153
150 144 150
152 146 152
161 157 161
151 144 151
144 136 144
139 131 139
118 106 118
60 40 60
26 8 26
4 0 4
1 0 1
0 0 0
0 0 0
0 0 0
0 0 0
0 0 0
0 0 0
0 0 0
0 0 0
0 0 0
0 0 0
0 0 0
0 0 0
0 0 0
0 0 0
0 0 0
0 0 0
0 0 0
0 0 0
0 0 0
5 0 5
9 1 9
5 0 5
3 0 3
3 0 3
3 0 3
4 0 4
6 0 6
8 0 8
28 8 28
62 39 62
100 83 100
123 109 123
136 125 136
140 130 140
132 119 132
130 116 130
130 115 130
134 120 134
135 121 135
137 124 137
141 128 141
148 137 148
154 145 154
155 147 155
156 149 156
161 155 161
147 140 147
106 90 106
42 21 42
9 0 9
1 0 1
0 0 0
0 0 0
0 0 0
0 0 0
0 0 0
0 0 0
0 0 0
0 0 0
0 0 0
0 0 0
0 0 0
0 0 0
0 0 0
0 0 0
0 0 0
0 0 0
0 0 0
0 0 0
6 0 6
10 1 10
4 0 4
4 0 4
4 0 4
4 0 4
7 0 7
16 1 16
44 21 44
85 66 85
116 101 116
125 111 125
126 111 126
125 108 125
117 97 117
116 96 116
125 107 125
128 110 128
128 110 128
131 115 131
131 115 131
134 118 134
142 127 142
146 131 146
150 139 150
159 152 159
171 166 171
169 164 169
155 148 155
132 122 132
56 35 56
10 0 10
0 0 0
0 0 0
0 0 0
0 0 0
0 0 0
0 0 0
0 0 0
0 0 0
0 0 0
0 0 0
0 0 0
0 0 0
0 0 0
0 0 0
0 0 0
0 0 0
0 0 0
0 0 0
6 0 6
9 1 9
5 0 5
4 0 4
4 0 4
6 0 6
22 2 22
53 30 53
102 85 102
126 112 126
132 118 132
131 117 131
119 99 119
113 91 113
116 95 116
116 94 116
122 101 122
125 106 125
123 103 123
130 113 130
131 114 131
131 113 131
138 121 138
140 123 140
142 126 142
148 135 148
162 154 162
177 173 177
174 170 174
166 161 166
142 135 142
67 49 67
9 0 9
0 0 0
0 0 0
0 0 0
0 0 0
0 0 0
0 0 0
0 0 0
0 0 0
0 0 0
0 0 0
0 0 0
0 0 0
0 0 0
0 0 0
0 0 0
0 0 0
0 0 0
7 1 7
10 1 10
5 0 5
4 0 4
5 0 5
24 4 24
52 28 52
105 87 105
126 110 126
129 113 129
131 116 131
117 97 117
112 88 112
113 89 113
115 92 115
114 91 114
115 91 115
118 95 118
120 97 120
124 103 124
128 108 128
128 107 128
130 108 130
131 110 131
133 112 133
134 114 134
143 127 143
154 142 154
168 160 168
171 166 171
163 159 163
143 137 143
65 49 65
5 0 5
0 0 0
0 0 0
0 0 0
0 0 0
0 0 0
0 0 0
0 0 0
0 0 0
0 0 0
0 0 0
0 0 0
0 0 0
0 0 0
0 0 0
0 0 0
0 0 0
7 1 7
10 1 10
5 0 5
5 0 5
21 3 21
47 23 47
103 85 103
127 111 127
124 105 124
122 102 122
121 101 121
118 97 118
108 82 108
109 83 109
113 89 113
108 83 108
113 88 113
113 87 113
113 87 113
110 84 110
120 98 120
124 102 124
128 106 128
128 105 128
125 101 125
124 100 124
128 106 128
140 122 140
144 129 144
154 142 154
162 155 162
163 158 163
130 121 130
41 24 41
1 0 1
0 0 0
0 0 0
0 0 0
0 0 0
0 0 0
0 0 0
0 0 0
0 0 0
0 0 0
0 0 0
0 0 0
0 0 0
0 0 0
0 0 0
0 0 0
8 1 8
11 1 11
6 0 6
10 0 10
38 14 38
89 69 89
129 115 129
135 120 135
122 102 122
120 100 120
121 101 121
111 86 111
109 82 109
105 77 105
109 83 109
106 79 106
106 77 106
109 82 109
105 78 105
106 79 106
114 88 114
116 91 116
123 99 123
126 103 126
124 99 124
120 95 120
123 99 123
124 100 124
133 112 133
135 117 135
146 133 146
156 147 156
150 143 150
99 85 99
11 0 11
1 0 1
0 0 0
1 0 1
0 0 0
0 0 0
0 0 0
0 0 0
0 0 0
0 0 0
0 0 0
0 0 0
0 0 0
0 0 0
0 0 0
0 0 0
8 1 8
11 1 11
6 0 6
24 4 24
67 43 67
120 103 120
129 110 129
126 104 126
117 92 117
116 92 116
113 88 113
114 90 114
103 73 103
108 81 108
106 79 106
103 75 103
104 77 104
105 77 105
108 80 108
104 76 104
108 82 108
113 86 113
116 90 116
122 98 122
125 101 125
122 98 122
115 88 115
114 86 114
118 92 118
130 109 130
140 124 140
143 128 143
147 136 147
141 132 141
40 21 40
2 0 2
2 0 2
3 0 3
1 0 1
0 0 0
0 0 0
0 0 0
0 0 0
0 0 0
0 0 0
0 0 0
0 0 0
0 0 0
0 0 0
0 0 0
9 1 9
11 1 11
10 0 10
41 17 41
104 86 104
133 117 133
136 118 136
125 103 125
122 100 122
118 95 118
115 91 115
107 79 107
107 79 107
102 73 102
105 78 105
106 79 106
101 72 101
101 71 101
104 75 104
103 75 103
102 72 102
114 88 114
115 90 115
116 89 116
117 91 117
119 94 119
118 92 118
114 86 114
115 88 115
117 91 117
122 99 122
128 109 128
131 115 131
140 130 140
83 67 83
4 0 4
1 0 1
4 0 4
1 0 1
0 0 0
0 0 0
0 0 0
0 0 0
0 0 0
0 0 0
0 0 0
0 0 0
0 0 0
0 0 0
0 0 0
9 1 9
11 1 11
17 0 17
69 46 69
133 119 133
143 127 143
136 116 136
120 96 120
115 88 115
110 82 110
115 90 115
104 76 104
108 81 108
102 71 102
108 81 108
102 74 102
102 73 102
99 69 99
104 76 104
98 68 98
100 71 100
104 74 104
108 79 108
115 88 115
120 94 120
118 93 118
117 90 117
110 81 110
111 82 111
114 87 114
116 91 116
125 104 125
126 106 126
141 127 141
114 102 114
12 0 12
1 0 1
1 0 1
0 0 0
0 0 0
0 0 0
0 0 0
0 0 0
0 0 0
0 0 0
0 0 0
0 0 0
0 0 0
0 0 0
0 0 0
9 1 9
12 1 12
26 6 26
99 82 99
134 118 134
143 126 143
126 104 126
122 98 122
114 88 114
106 77 106
109 80 109
110 83 110
102 72 102
104 75 104
106 79 106
102 73 102
105 77 105
102 72 102
99 68 99
100 71 100
93 60 93
104 75 104
112 85 112
114 86 114
113 85 113
115 88 115
114 87 114
110 82 110
107 78 107
104 74 104
111 83 111
117 92 117
109 85 109
121 102 121
138 127 138
38 17 38
1 0 1
2 0 2
2 0 2
0 0 0
0 0 0
0 0 0
0 0 0
0 0 0
0 0 0
0 0 0
0 0 0
0 0 0
0 0 0
0 0 0
10 1 10
13 1 13
37 15 37
121 106 121
146 132 146
144 128 144
130 110 130
126 103 126
117 91 117
111 85 111
102 72 102
110 83 110
102 72 102
105 76 105
101 71 101
98 68 98
100 70 100
99 68 99
101 72 101
97 67 97
93 61 93
103 74 103
102 71 102
104 72 104
109 80 109
110 80 110
111 81 111
112 83 112
110 81 110
103 72 103
102 70 102
101 72 101
109 84 109
117 94 117
139 125 139
78 58 78
6 0 6
2 0 2
1 0 1
0 0 0
0 0 0
0 0 0
0 0 0
0 0 0
0 0 0
0 0 0
0 0 0
0 0 0
0 0 0
0 0 0
10 1 10
16 1 16
53 30 53
130 114 130
154 142 154
135 116 135
126 104 126
120 96 120
114 86 114
115 90 115
103 73 103
104 75 104
103 73 103
104 75 104
99 69 99
99 68 99
100 70 100
95 64 95
100 70 100
94 61 94
94 62 94
97 65 97
95 62 95
101 69 101
105 75 105
106 74 106
109 79 109
114 86 114
113 85 113
106 74 106
97 64 97
105 73 105
110 83 110
104 77 104
125 107 125
119 105 119
22 4 22
1 0 1
0 0 0
0 0 0
0 0 0
0 0 0
0 0 0
0 0 0
0 0 0
0 0 0
0 0 0
0 0 0
0 0 0
0 0 0
10 2 10
19 2 19
82 60 82
140 126 140
145 130 145
121 96 121
114 87 114
108 78 108
105 75 105
109 81 109
110 83 110
101 70 101
104 75 104
102 73 102
101 72 101
99 69 99
103 74 103
96 65 96
98 67 98
94 62 94
96 66 96
95 63 95
95 61 95
101 69 101
105 75 105
106 74 106
109 79 109
116 87 116
117 89 117
106 76 106
99 66 99
98 64 98
101 71 101
105 79 105
115 95 115
143 132 143
59 40 59
5 0 5
0 0 0
0 0 0
0 0 0
0 0 0
0 0 0
0 0 0
0 0 0
0 0 0
0 0 0
0 0 0
0 0 0
0 0 0
11 2 11
21 3 21
96 76 96
145 132 145
135 116 135
113 85 113
110 81 110
104 74 104
102 71 102
105 75 105
111 84 111
100 69 100
105 77 105
102 72 102
101 72 101
99 68 99
101 72 101
98 67 98
99 70 99
95 62 95
99 70 99
95 63 95
97 63 97
101 70 101
107 77 107
108 79 108
114 84 114
116 87 116
122 95 122
114 85 114
101 69 101
95 63 95
96 65 96
102 76 102
93 71 93
129 113 129
95 79 95
14 0 14
0 0 0
0 0 0
0 0 0
0 0 0
0 0 0
0 0 0
0 0 0
0 0 0
0 0 0
0 0 0
0 0 0
0 0 0
11 2 11
24 5 24
106 87 106
147 133 147
132 112 132
118 93 118
114 87 114
106 77 106
103 72 103
102 71 102
111 83 111
104 74 104
105 76 105
102 71 102
102 72 102
99 68 99
102 72 102
99 68 99
103 74 103
95 63 95
99 70 99
97 65 97
97 64 97
100 69 100
108 77 108
109 80 109
117 88 117
123 97 123
122 95 122
122 95 122
108 77 108
108 79 108
100 70 100
93 67 93
79 53 79
97 73 97
110 99 110
25 10 25
0 0 0
0 0 0
0 0 0
0 0 0
0 0 0
0 0 0
0 0 0
0 0 0
0 0 0
0 0 0
0 0 0
0 0 0
12 2 12
29 9 29
112 95 112
145 130 145
136 118 136
128 107 128
120 96 120
110 82 110
104 74 104
101 70 101
109 80 109
107 77 107
106 78 106
102 71 102
103 73 103
100 70 100
103 74 103
101 71 101
106 78 106
97 65 97
100 70 100
99 67 99
98 65 98
102 71 102
110 81 110
112 83 112
119 90 119
125 99 125
120 92 120
117 89 117
109 79 109
117 91 117
109 83 109
97 71 97
88 59 88
77 48 77
70 52 70
41 29 41
0 0 0
0 0 0
0 0 0
0 0 0
0 0 0
0 0 0
0 0 0
0 0 0
0 0 0
0 0 0
0 0 0
0 0 0
12 2 12
34 12 34
118 101 118
146 131 146
139 121 139
129 108 129
119 94 119
114 88 114
108 79 108
102 72 102
108 78 108
107 78 107
106 78 106
102 72 102
102 72 102
101 70 101
104 75 104
102 71 102
107 79 107
98 66 98
100 71 100
100 69 100
99 66 99
104 74 104
107 76 107
114 84 114
121 93 121
123 97 123
116 87 116
111 81 111
112 83 112
118 92 118
119 96 119
104 77 104
101 73 101
79 49 79
63 44 63
33 22 33
0 0 0
0 0 0
0 0 0
0 0 0
0 0 0
0 0 0
0 0 0
0 0 0
0 0 0
0 0 0
0 0 0
0 0 0
13 2 13
34 12 34
119 103 119
152 139 152
137 119 137
124 101 124
112 85 112
114 87 114
108 80 108
104 74 104
108 79 108
107 78 107
105 75 105
102 72 102
101 70 101
101 71 101
103 74 103
101 71 101
105 77 105
95 63 95
102 72 102
103 72 103
100 67 100
106 76 106
111 81 111
110 78 110
112 82 112
116 88 116
111 81 111
103 70 103
107 75 107
105 74 105
115 90 115
102 73 102
105 76 105
78 47 78
69 48 69
26 11 26
0 0 0
0 0 0
0 0 0
0 0 0
0 0 0
0 0 0
0 0 0
0 0 0
0 0 0
0 0 0
0 0 0
0 0 0
13 2 13
32 10 32
118 101 118
155 144 155
133 114 133
117 91 117
110 81 110
111 83 111
108 80 108
104 73 104
107 78 107
106 76 106
105 75 105
100 69 100
100 70 100
101 70 101
104 75 104
99 68 99
103 75 103
96 64 96
101 71 101
102 70 102
99 66 99
106 75 106
110 80 110
110 78 110
106 73 106
112 81 112
106 74 106
101 67 101
98 64 98
95 61 95
101 72 101
80 47 80
90 58 90
84 52 84
86 62 86
31 10 31
0 0 0
0 0 0
0 0 0
0 0 0
0 0 0
0 0 0
0 0 0
0 0 0
0 0 0
0 0 0
0 0 0
0 0 0
12 2 12
28 7 28
113 95 113
156 145 156
128 108 128
112 84 112
115 88 115
111 84 111
109 81 109
105 75 105
107 78 107
105 75 105
104 74 104
98 67 98
100 69 100
102 72 102
104 76 104
99 68 99
103 74 103
98 66 98
98 66 98
101 70 101
99 66 99
105 73 105
111 80 111
111 80 111
110 77 110
111 81 111
102 70 102
92 56 92
93 59 93
98 66 98
97 67 97
74 41 74
76 44 76
84 52 84
92 68 92
39 17 39
3 0 3
0 0 0
0 0 0
0 0 0
0 0 0
0 0 0
0 0 0
0 0 0
0 0 0
0 0 0
0 0 0
0 0 0
12 2 12
25 4 25
109 90 109
155 144 155
125 103 125
108 79 108
118 93 118
113 86 113
110 83 110
106 77 106
109 81 109
104 74 104
101 70 101
100 69 100
100 70 100
103 73 103
103 74 103
98 67 98
101 71 101
98 66 98
97 64 97
100 69 100
98 65 98
105 72 105
111 80 111
113 81 113
108 77 108
101 71 101
91 57 91
86 51 86
90 55 90
95 63 95
96 64 96
75 40 75
74 41 74
83 53 83
94 68 94
48 22 48
14 5 14
0 0 0
0 0 0
0 0 0
0 0 0
0 0 0
0 0 0
0 0 0
0 0 0
0 0 0
0 0 0
0 0 0
12 2 12
23 3 23
105 86 105
157 147 157
124 102 124
105 76 105
116 91 116
120 96 120
113 87 113
107 77 107
109 80 109
103 73 103
97 65 97
98 67 98
99 68 99
99 68 99
99 69 99
98 66 98
99 68 99
96 65 96
97 65 97
98 66 98
100 67 100
103 70 103
112 80 112
111 80 111
108 77 108
96 64 96
87 52 87
86 51 86
90 55 90
94 60 94
99 68 99
78 43 78
76 40 76
75 43 75
97 71 97
63 35 63
20 8 20
4 0 4
0 0 0
0 0 0
0 0 0
0 0 0
0 0 0
0 0 0
0 0 0
0 0 0
0 0 0
0 0 0
11 2 11
21 3 21
93 71 93
154 145 154
126 105 126
106 79 106
115 89 115
125 103 125
118 93 118
108 78 108
108 80 108
102 71 102
95 61 95
95 62 95
97 65 97
95 62 95
99 68 99
99 68 99
99 67 99
95 63 95
98 65 98
97 63 97
100 67 100
102 68 102
107 74 107
111 82 111
109 78 109
95 60 95
88 51 88
89 53 89
98 63 98
101 70 101
89 59 89
85 48 85
81 43 81
81 47 81
96 67 96
85 55 85
40 14 40
15 4 15
0 0 0
0 0 0
0 0 0
0 0 0
0 0 0
0 0 0
0 0 0
0 0 0
0 0 0
0 0 0
11 2 11
20 2 20
84 62 84
153 144 153
128 108 128
109 82 109
116 90 116
125 103 125
119 95 119
107 77 107
109 80 109
102 72 102
95 62 95
94 60 94
96 63 96
95 62 95
99 69 99
99 68 99
100 69 100
97 65 97
98 66 98
97 63 97
101 68 101
101 67 101
108 77 108
117 91 117
110 80 110
96 61 96
90 54 90
89 54 89
102 67 102
104 76 104
80 49 80
80 43 80
79 41 79
79 44 79
98 68 98
98 69 98
58 28 58
21 7 21
2 0 2
0 0 0
0 0 0
0 0 0
0 0 0
0 0 0
0 0 0
0 0 0
0 0 0
0 0 0
10 2 10
15 1 15
59 37 59
151 143 151
140 126 140
125 104 125
123 101 123
123 102 123
115 89 115
109 80 109
108 79 108
105 76 105
100 68 100
97 65 97
96 63 96
94 61 94
93 60 93
98 66 98
103 73 103
97 64 97
101 69 101
100 67 100
104 71 104
106 74 106
129 107 129
135 117 135
110 81 110
107 76 107
106 75 106
113 85 113
109 82 109
87 57 87
64 31 64
75 42 75
58 27 58
68 38 68
91 63 91
121 95 121
76 45 76
31 7 31
17 5 17
0 0 0
0 0 0
0 0 0
0 0 0
0 0 0
0 0 0
0 0 0
0 0 0
0 0 0
10 2 10
12 1 12
38 16 38
126 113 126
143 130 143
124 104 124
115 89 115
115 90 115
108 80 108
109 80 109
107 77 107
105 75 105
100 68 100
95 62 95
94 60 94
98 66 98
100 68 100
109 80 109
110 80 110
105 74 105
105 74 105
105 72 105
105 72 105
112 82 112
143 128 143
127 104 127
108 77 108
131 109 131
128 108 128
122 100 122
106 81 106
97 72 97
74 42 74
71 39 71
58 30 58
59 33 59
76 49 76
106 79 106
75 42 75
33 6 33
20 6 20
1 0 1
0 0 0
0 0 0
0 0 0
0 0 0
0 0 0
0 0 0
0 0 0
0 0 0
9 2 9
11 1 11
13 0 13
83 63 83
148 138 148
122 101 122
115 89 115
118 93 118
114 88 114
110 82 110
107 78 107
105 75 105
103 73 103
97 64 97
99 68 99
102 72 102
109 80 109
113 85 113
118 90 118
117 90 117
114 87 114
111 82 111
112 82 112
117 90 117
136 116 136
116 87 116
109 77 109
119 93 119
121 99 121
94 66 94
89 60 89
92 63 92
85 54 85
70 36 70
61 31 61
61 32 61
77 49 77
94 67 94
71 39 71
42 11 42
14 1 14
0 0 0
0 0 0
0 0 0
0 0 0
0 0 0
0 0 0
0 0 0
0 0 0
0 0 0
10 2 10
11 1 11
7 0 7
40 17 40
137 128 137
142 129 142
134 116 134
128 106 128
125 103 125
116 90 116
114 88 114
105 75 105
100 68 100
100 68 100
99 68 99
102 72 102
112 85 112
114 86 114
118 91 118
120 93 120
118 90 118
117 91 117
108 78 108
113 83 113
133 111 133
116 87 116
118 90 118
117 93 117
92 60 92
83 50 83
80 46 80
76 38 76
72 36 72
68 35 68
63 34 63
59 30 59
67 36 67
104 76 104
74 39 74
34 8 34
2 0 2
0 0 0
0 0 0
0 0 0
0 0 0
0 0 0
0 0 0
0 0 0
0 0 0
0 0 0
10 2 10
11 1 11
6 0 6
17 1 17
87 68 87
150 142 150
137 121 137
134 115 134
134 115 134
130 110 130
119 95 119
106 79 106
100 70 100
102 71 102
101 71 101
102 72 102
108 81 108
112 85 112
114 86 114
115 89 115
116 90 116
113 86 113
116 89 116
114 85 114
114 84 114
103 72 103
115 87 115
107 78 107
87 54 87
81 49 81
90 57 90
77 39 77
70 34 70
67 35 67
63 34 63
60 29 60
88 53 88
89 55 89
65 30 65
26 6 26
0 0 0
0 0 0
0 0 0
0 0 0
0 0 0
0 0 0
0 0 0
0 0 0
0 0 0
0 0 0
10 1 10
10 0 10
6 0 6
7 0 7
37 15 37
123 111 123
159 151 159
151 138 151
146 131 146
145 132 145
138 122 138
118 96 118
107 80 107
100 69 100
104 77 104
108 82 108
109 83 109
120 96 120
120 95 120
116 89 116
116 91 116
116 90 116
128 106 128
114 83 114
107 74 107
93 58 93
106 76 106
112 86 112
78 45 78
77 45 77
86 52 86
83 47 83
85 48 85
95 61 95
98 64 98
95 62 95
98 64 98
78 41 78
60 25 60
20 3 20
0 0 0
0 0 0
0 0 0
0 0 0
0 0 0
0 0 0
0 0 0
0 0 0
0 0 0
0 0 0
10 1 10
9 0 9
6 0 6
4 0 4
11 0 11
62 41 62
152 147 152
171 167 171
162 153 162
152 140 152
151 140 151
142 129 142
128 110 128
114 90 114
109 84 109
112 88 112
116 91 116
119 94 119
114 86 114
114 87 114
113 85 113
117 92 117
130 110 130
125 101 125
115 86 115
89 54 89
94 60 94
106 77 106
79 41 79
83 46 83
97 61 97
98 64 98
87 50 87
88 52 88
104 68 104
101 65 101
104 71 104
96 64 96
66 32 66
16 0 16
0 0 0
0 0 0
0 0 0
0 0 0
0 0 0
0 0 0
0 0 0
0 0 0
0 0 0
0 0 0
9 1 9
9 0 9
5 0 5
4 0 4
3 0 3
18 1 18
72 50 72
149 142 149
180 179 180
171 166 171
159 149 159
143 128 143
132 114 132
121 98 121
112 87 112
106 79 106
111 84 111
118 92 118
118 93 118
111 83 111
113 86 113
113 85 113
132 112 132
128 103 128
112 82 112
94 61 94
93 59 93
98 66 98
94 57 94
100 63 100
97 60 97
95 63 95
86 54 86
99 70 99
115 87 115
112 80 112
113 81 113
122 94 122
89 61 89
24 3 24
0 0 0
0 0 0
0 0 0
0 0 0
0 0 0
0 0 0
0 0 0
0 0 0
0 0 0
0 0 0
9 1 9
8 0 8
4 0 4
4 0 4
3 0 3
5 0 5
24 5 24
56 30 56
109 87 109
160 151 160
155 143 155
143 127 143
127 105 127
121 97 121
116 91 116
109 81 109
108 79 108
110 82 110
112 84 112
113 84 113
110 80 110
116 89 116
128 106 128
139 120 139
115 86 115
103 72 103
94 61 94
94 58 94
104 68 104
98 60 98
101 66 101
98 63 98
92 56 92
111 81 111
131 108 131
122 98 122
114 85 114
134 110 134
128 110 128
31 12 31
2 0 2
0 0 0
0 0 0
0 0 0
0 0 0
0 0 0
0 0 0
0 0 0
0 0 0
0 0 0
9 1 9
8 0 8
3 0 3
4 0 4
2 0 2
2 0 2
6 0 6
30 10 30
54 26 54
88 60 88
129 109 129
127 104 127
126 102 126
121 97 121
127 106 127
130 109 130
126 104 126
113 86 113
118 93 118
114 85 114
116 88 116
124 99 124
120 92 120
121 91 121
115 83 115
117 88 117
107 78 107
93 56 93
95 56 95
101 65 101
109 76 109
102 69 102
92 56 92
116 87 116
116 86 116
127 104 127
109 84 109
121 101 121
136 120 136
49 30 49
4 0 4
0 0 0
0 0 0
0 0 0
0 0 0
0 0 0
0 0 0
0 0 0
0 0 0
0 0 0
9 1 9
8 0 8
3 0 3
3 0 3
3 0 3
2 0 2
3 0 3
11 0 11
35 12 35
57 28 57
78 47 78
100 73 100
103 73 103
103 72 103
112 84 112
117 91 117
120 95 120
113 86 113
120 94 120
119 92 119
110 79 110
95 58 95
103 67 103
118 87 118
124 96 124
111 79 111
91 54 91
89 49 89
105 69 105
99 62 99
103 68 103
93 58 93
86 53 86
109 82 109
123 96 123
140 120 140
126 103 126
112 92 112
131 114 131
47 28 47
9 0 9
3 0 3
2 0 2
1 0 1
1 0 1
1 0 1
0 0 0
1 0 1
0 0 0
0 0 0
8 1 8
8 0 8
3 0 3
3 0 3
3 0 3
3 0 3
3 0 3
5 0 5
16 1 16
42 18 42
59 29 59
67 36 67
73 39 73
76 40 76
77 41 77
80 44 80
81 45 81
84 48 84
101 68 101
98 64 98
99 64 99
96 59 96
111 77 111
123 95 123
122 91 122
108 74 108
96 59 96
84 46 84
83 42 83
87 47 87
97 62 97
104 70 104
100 66 100
101 69 101
89 55 89
69 35 69
47 19 47
46 19 46
36 10 36
3 0 3
0 0 0
0 0 0
0 0 0
0 0 0
0 0 0
0 0 0
0 0 0
0 0 0
0 0 0
0 0 0
9 1 9
10 1 10
4 0 4
3 0 3
3 0 3
3 0 3
3 0 3
4 0 4
7 0 7
29 10 29
48 23 48
61 31 61
68 35 68
71 36 71
74 40 74
77 40 77
76 40 76
93 58 93
110 80 110
110 79 110
105 72 105
110 78 110
117 85 117
118 85 118
122 91 122
109 73 109
106 69 106
119 86 119
114 80 114
107 71 107
117 83 117
121 90 121
138 113 138
136 112 136
131 105 131
120 96 120
81 58 81
75 47 75
37 12 37
5 0 5
3 0 3
1 0 1
1 0 1
1 0 1
0 0 0
0 0 0
0 0 0
0 0 0
0 0 0
0 0 0
8 0 8
8 0 8
4 0 4
3 0 3
3 0 3
3 0 3
4 0 4
5 0 5
5 0 5
11 0 11
36 13 36
54 27 54
66 35 66
71 38 71
73 39 73
74 39 74
77 42 77
84 48 84
95 63 95
102 70 102
107 76 107
103 69 103
107 71 107
103 66 103
118 87 118
108 74 108
102 65 102
113 79 113
107 71 107
99 62 99
106 71 106
114 83 114
153 132 153
136 110 136
120 87 120
115 84 115
119 96 119
132 112 132
59 34 59
8 0 8
2 0 2
1 0 1
1 0 1
1 0 1
0 0 0
0 0 0
0 0 0
0 0 0
0 0 0
0 0 0
8 1 8
7 0 7
4 0 4
3 0 3
4 0 4
3 0 3
4 0 4
5 0 5
3 0 3
5 0 5
23 5 23
46 20 46
63 32 63
69 36 69
71 37 71
73 38 73
77 42 77
79 43 79
81 46 81
101 70 101
103 70 103
102 67 102
102 66 102
102 66 102
108 74 108
104 70 104
104 71 104
105 70 105
93 54 93
93 55 93
95 59 95
102 68 102
125 97 125
142 119 142
149 129 149
114 84 114
122 95 122
120 98 120
38 18 38
4 0 4
0 0 0
0 0 0
0 0 0
0 0 0
0 0 0
0 0 0
0 0 0
0 0 0
0 0 0
0 0 0
8 1 8
6 0 6
4 0 4
3 0 3
5 0 5
4 0 4
5 0 5
5 0 5
4 0 4
4 0 4
12 0 12
37 13 37
57 27 57
68 35 68
71 38 71
72 38 72
75 39 75
79 43 79
86 52 86
100 69 100
99 65 99
101 67 101
108 74 108
111 78 111
109 76 109
96 60 96
97 62 97
97 61 97
95 58 95
96 58 96
95 58 95
109 77 109
118 88 118
136 112 136
155 137 155
131 106 131
133 110 133
87 59 87
29 11 29
1 0 1
0 0 0
0 0 0
0 0 0
0 0 0
0 0 0
0 0 0
0 0 0
0 0 0
0 0 0
0 0 0
7 1 7
6 0 6
3 0 3
3 0 3
4 0 4
4 0 4
5 0 5
5 0 5
4 0 4
4 0 4
6 0 6
26 5 26
53 23 53
66 34 66
69 38 69
73 39 73
71 36 71
78 43 78
92 59 92
95 62 95
95 61 95
95 59 95
102 66 102
108 74 108
107 74 107
95 59 95
92 55 92
91 53 91
95 57 95
95 58 95
95 59 95
100 65 100
116 87 116
122 95 122
130 106 130
134 110 134
120 96 120
65 34 65
24 7 24
0 0 0
0 0 0
0 0 0
0 0 0
0 0 0
0 0 0
0 0 0
0 0 0
0 0 0
0 0 0
0 0 0
7 0 7
6 0 6
4 0 4
3 0 3
4 0 4
4 0 4
6 0 6
6 0 6
5 0 5
3 0 3
4 0 4
19 2 19
48 20 48
63 33 63
70 38 70
72 39 72
72 37 72
78 43 78
86 52 86
96 64 96
89 55 89
89 54 89
94 59 94
104 70 104
104 71 104
95 59 95
93 56 93
91 54 91
90 53 90
95 58 95
95 59 95
93 55 93
98 63 98
123 97 123
113 85 113
131 107 131
114 89 114
64 33 64
25 7 25
0 0 0
0 0 0
0 0 0
0 0 0
0 0 0
0 0 0
0 0 0
0 0 0
0 0 0
0 0 0
0 0 0
7 0 7
6 0 6
4 0 4
3 0 3
5 0 5
5 0 5
5 0 5
5 0 5
4 0 4
4 0 4
4 0 4
11 0 11
45 18 45
61 31 61
69 38 69
72 40 72
72 38 72
78 43 78
83 50 83
95 63 95
90 56 90
87 52 87
90 55 90
100 67 100
100 67 100
89 53 89
94 59 94
90 53 90
91 54 91
93 56 93
93 56 93
89 51 89
92 56 92
108 76 108
127 103 127
141 121 141
129 109 129
62 33 62
28 9 28
1 0 1
0 0 0
0 0 0
0 0 0
0 0 0
0 0 0
0 0 0
0 0 0
0 0 0
0 0 0
0 0 0
7 0 7
5 0 5
4 0 4
4 0 4
5 0 5
5 0 5
5 0 5
5 0 5
4 0 4
4 0 4
4 0 4
8 0 8
37 13 37
58 28 58
70 39 70
73 40 73
72 38 72
77 43 77
83 50 83
93 62 93
90 58 90
86 52 86
86 51 86
97 65 97
95 62 95
84 50 84
83 47 83
89 53 89
98 62 98
99 63 99
98 62 98
96 59 96
93 57 93
102 69 102
136 114 136
158 145 158
150 138 150
61 35 61
28 9 28
1 0 1
0 0 0
0 0 0
0 0 0
0 0 0
0 0 0
0 0 0
0 0 0
0 0 0
0 0 0
0 0 0
7 0 7
5 0 5
4 0 4
3 0 3
5 0 5
5 0 5
5 0 5
5 0 5
5 0 5
4 0 4
3 0 3
7 0 7
28 7 28
57 27 57
68 37 68
72 40 72
71 38 71
76 43 76
84 51 84
93 62 93
89 56 89
86 53 86
87 54 87
93 61 93
95 62 95
82 47 82
81 44 81
77 42 77
85 47 85
94 57 94
102 67 102
106 73 106
102 70 102
108 78 108
97 68 97
167 157 167
173 169 173
66 43 66
20 4 20
0 0 0
0 0 0
0 0 0
0 0 0
0 0 0
0 0 0
0 0 0
0 0 0
0 0 0
0 0 0
0 0 0
0 0 0
0 0 0
0 0 0
0 0 0
0 0 0
0 0 0
0 0 0
0 0 0
0 0 0
0 0 0
0 0 0
0 0 0
0 0 0
0 0 0
0 0 0
0 0 0
0 0 0
0 0 0
0 0 0
0 0 0
0 0 0
0 0 0
0 0 0
0 0 0
0 0 0
0 0 0
0 0 0
0 0 0
0 0 0
0 0 0
0 0 0
0 0 0
0 0 0
0 0 0
0 0 0
0 0 0
0 0 0
0 0 0
0 0 0
0 0 0
0 0 0
0 0 0
0 0 0
0 0 0
0 0 0
0 0 0
0 0 0
0 0 0
0 0 0
