P3 
50 50 
255
0 0 0
0 0 0
0 0 0
0 0 0
0 0 0
0 0 0
0 0 0
0 0 0
0 0 0
0 0 0
0 0 0
0 0 0
0 0 0
0 0 0
0 0 0
0 0 0
0 0 0
0 0 0
0 0 0
0 0 0
0 0 0
0 0 0
0 0 0
0 0 0
0 0 0
0 0 0
0 0 0
0 0 0
0 0 0
0 0 0
0 0 0
0 0 0
0 0 0
0 0 0
0 0 0
0 0 0
0 0 0
0 0 0
0 0 0
0 0 0
0 0 0
0 0 0
0 0 0
0 0 0
0 0 0
0 0 0
0 0 0
0 0 0
0 0 0
0 0 0
0 0 0
0 0 0
4 0 4
4 0 4
33 10 33
3 0 3
3 0 3
10 0 10
7 0 7
9 0 9
10 0 10
4 0 4
6 0 6
7 0 7
6 0 6
5 0 5
3 0 3
3 0 3
5 0 5
8 0 8
13 0 13
20 5 20
20 5 20
20 5 20
19 5 19
15 3 15
10 0 10
7 0 7
3 0 3
1 0 1
0 0 0
0 0 0
0 0 0
0 0 0
0 0 0
0 0 0
0 0 0
0 0 0
0 0 0
0 0 0
0 0 0
0 0 0
0 0 0
0 0 0
0 0 0
0 0 0
0 0 0
0 0 0
0 0 0
0 0 0
0 0 0
0 0 0
4 0 4
4 0 4
32 9 32
3 0 3
8 0 8
8 0 8
8 0 8
10 0 10
9 0 9
6 0 6
8 0 8
4 0 4
5 0 5
16 2 16
33 13 33
45 24 45
59 39 59
72 52 72
84 67 84
104 89 104
121 109 121
127 115 127
127 117 127
112 98 112
93 77 93
81 63 81
61 41 61
41 21 41
26 10 26
5 0 5
1 0 1
0 0 0
0 0 0
0 0 0
0 0 0
0 0 0
0 0 0
0 0 0
0 0 0
0 0 0
0 0 0
0 0 0
0 0 0
0 0 0
0 0 0
0 0 0
0 0 0
0 0 0
0 0 0
0 0 0
3 0 3
4 0 4
32 9 32
3 0 3
13 0 13
8 0 8
10 0 10
11 0 11
7 0 7
8 0 8
4 0 4
16 0 16
42 20 42
77 57 77
126 115 126
144 136 144
151 144 151
155 149 155
160 154 160
167 163 167
174 171 174
176 173 176
186 187 186
170 165 170
161 155 161
162 156 162
158 153 158
146 139 146
125 115 125
55 34 55
30 12 30
5 0 5
0 0 0
0 0 0
0 0 0
0 0 0
0 0 0
0 0 0
0 0 0
0 0 0
0 0 0
0 0 0
0 0 0
0 0 0
0 0 0
0 0 0
0 0 0
0 0 0
0 0 0
0 0 0
3 0 3
4 0 4
32 9 32
3 0 3
13 0 13
8 0 8
12 0 12
12 0 12
9 0 9
10 0 10
38 16 38
78 58 78
138 130 138
148 139 148
146 134 146
153 141 153
144 131 144
146 132 146
149 136 149
152 140 152
158 147 158
162 152 162
175 169 175
174 168 174
163 153 163
161 151 161
163 155 163
170 165 170
167 162 167
152 144 152
116 103 116
46 24 46
18 5 18
0 0 0
0 0 0
0 0 0
0 0 0
0 0 0
0 0 0
0 0 0
0 0 0
0 0 0
0 0 0
0 0 0
0 0 0
0 0 0
0 0 0
0 0 0
0 0 0
0 0 0
3 0 3
4 0 4
33 10 33
3 0 3
13 0 13
9 0 9
13 0 13
14 0 14
14 0 14
52 27 52
124 110 124
154 146 154
148 135 148
132 114 132
132 115 132
135 118 135
141 124 141
144 127 144
145 128 145
148 133 148
151 136 151
150 135 150
160 148 160
171 163 171
165 154 165
163 152 163
165 156 165
172 166 172
177 171 177
178 174 178
166 161 166
142 133 142
61 39 61
20 5 20
0 0 0
0 0 0
0 0 0
0 0 0
0 0 0
0 0 0
0 0 0
0 0 0
0 0 0
0 0 0
0 0 0
0 0 0
0 0 0
0 0 0
0 0 0
0 0 0
3 0 3
4 0 4
33 10 33
3 0 3
12 0 12
11 0 11
15 0 15
21 0 21
53 27 53
145 135 145
160 152 160
145 130 145
133 113 133
129 109 129
132 112 132
139 122 139
140 122 140
140 121 140
140 121 140
141 122 141
147 130 147
145 127 145
146 127 146
153 138 153
163 152 163
165 153 165
166 156 166
171 161 171
179 173 179
183 178 183
191 191 191
185 184 185
161 155 161
72 50 72
3 0 3
0 0 0
0 0 0
0 0 0
0 0 0
0 0 0
0 0 0
0 0 0
0 0 0
0 0 0
0 0 0
0 0 0
0 0 0
0 0 0
0 0 0
0 0 0
4 0 4
4 0 4
34 11 34
4 0 4
11 0 11
11 0 11
20 0 20
52 24 52
124 109 124
163 154 163
147 132 147
132 112 132
135 115 135
129 107 129
130 109 130
135 115 135
137 116 137
133 110 133
130 107 130
132 109 132
135 112 135
135 113 135
133 111 133
135 112 135
151 134 151
157 142 157
163 150 163
162 149 162
167 155 167
174 165 174
184 180 184
181 176 181
193 193 193
169 164 169
41 20 41
0 0 0
0 0 0
0 0 0
0 0 0
0 0 0
0 0 0
0 0 0
0 0 0
0 0 0
0 0 0
0 0 0
0 0 0
0 0 0
0 0 0
0 0 0
4 0 4
5 0 5
34 11 34
6 0 6
12 0 12
14 0 14
39 9 39
86 60 86
157 146 157
155 141 155
132 112 132
131 110 131
133 111 133
121 96 121
123 98 123
127 103 127
133 110 133
134 111 134
131 107 131
125 99 125
130 105 130
129 103 129
127 101 127
127 101 127
140 119 140
146 128 146
149 129 149
148 129 148
152 134 152
162 149 162
162 149 162
160 148 160
187 183 187
187 184 187
155 148 155
21 3 21
0 0 0
0 0 0
0 0 0
0 0 0
0 0 0
0 0 0
0 0 0
0 0 0
0 0 0
0 0 0
0 0 0
0 0 0
0 0 0
0 0 0
4 0 4
5 0 5
34 12 34
11 0 11
14 0 14
19 0 19
58 27 58
156 147 156
158 146 158
137 117 137
126 102 126
126 102 126
123 97 123
124 98 124
120 93 120
124 97 124
128 102 128
130 105 130
129 105 129
128 103 128
126 101 126
124 97 124
122 94 122
125 99 125
125 99 125
133 109 133
135 112 135
142 121 142
146 127 146
140 119 140
146 129 146
146 128 146
153 138 153
181 175 181
172 167 172
90 69 90
2 0 2
0 0 0
0 0 0
0 0 0
0 0 0
0 0 0
0 0 0
0 0 0
0 0 0
0 0 0
0 0 0
0 0 0
0 0 0
0 0 0
4 0 4
5 0 5
34 12 34
17 0 17
14 0 14
36 5 36
92 66 92
159 148 159
148 132 148
130 109 130
126 101 126
129 105 129
121 94 121
127 102 127
122 96 122
120 92 120
124 97 124
128 103 128
130 106 130
130 106 130
126 100 126
124 96 124
117 87 117
114 83 114
118 88 118
129 104 129
134 111 134
130 105 130
129 104 129
140 120 140
128 102 128
138 118 138
142 123 142
155 140 155
185 182 185
165 159 165
36 14 36
1 0 1
3 0 3
0 0 0
0 0 0
0 0 0
0 0 0
0 0 0
0 0 0
0 0 0
0 0 0
0 0 0
0 0 0
0 0 0
4 0 4
5 0 5
35 12 35
19 0 19
17 0 17
57 23 57
145 131 145
160 149 160
135 116 135
125 103 125
128 104 128
125 99 125
126 99 126
121 92 121
125 99 125
125 98 125
121 93 121
126 99 126
125 98 125
125 97 125
124 97 124
123 94 123
121 93 121
119 89 119
116 84 116
113 81 113
125 98 125
129 104 129
128 101 128
123 95 123
133 110 133
123 96 123
138 118 138
138 118 138
154 139 154
168 162 168
63 38 63
3 0 3
3 0 3
0 0 0
0 0 0
0 0 0
0 0 0
0 0 0
0 0 0
0 0 0
0 0 0
0 0 0
0 0 0
0 0 0
4 0 4
5 0 5
35 12 35
19 0 19
24 0 24
71 37 71
155 142 155
156 143 156
130 108 130
120 95 120
124 99 124
129 103 129
123 96 123
122 94 122
114 82 114
119 90 119
126 100 126
127 100 127
126 99 126
124 96 124
123 95 123
122 93 122
123 93 123
118 86 118
117 87 117
115 84 115
116 84 116
122 94 122
122 95 122
119 88 119
122 94 122
129 104 129
127 101 127
128 105 128
130 111 130
183 179 183
130 118 130
15 1 15
1 0 1
0 0 0
0 0 0
0 0 0
0 0 0
0 0 0
0 0 0
0 0 0
0 0 0
0 0 0
0 0 0
0 0 0
4 0 4
5 0 5
35 12 35
20 0 20
37 6 37
111 86 111
155 142 155
143 126 143
130 109 130
123 99 123
123 98 123
123 96 123
120 92 120
113 81 113
119 90 119
123 95 123
120 91 120
122 93 122
124 95 124
126 98 126
125 97 125
120 90 120
121 90 121
117 84 117
109 75 109
113 81 113
116 85 116
113 81 113
120 90 120
117 88 117
115 84 115
127 101 127
119 90 119
135 114 135
123 99 123
152 138 152
143 132 143
44 20 44
2 0 2
0 0 0
0 0 0
0 0 0
0 0 0
0 0 0
0 0 0
0 0 0
0 0 0
0 0 0
0 0 0
0 0 0
4 0 4
5 0 5
36 12 36
22 0 22
51 18 51
151 137 151
157 143 157
135 116 135
124 99 124
117 90 117
116 89 116
120 93 120
119 89 119
115 84 115
117 88 117
112 80 112
112 80 112
116 85 116
117 85 117
118 88 118
120 89 120
123 93 123
123 94 123
115 83 115
110 76 110
108 73 108
110 77 110
109 75 109
112 80 112
116 86 116
111 79 111
117 87 117
114 84 114
130 105 130
129 106 129
129 108 129
144 131 144
98 80 98
21 4 21
2 0 2
0 0 0
0 0 0
0 0 0
0 0 0
0 0 0
0 0 0
0 0 0
0 0 0
0 0 0
0 0 0
4 0 4
6 0 6
37 12 37
25 0 25
60 26 60
159 146 159
151 136 151
131 111 131
121 96 121
115 87 115
108 79 108
119 91 119
111 79 111
119 91 119
107 73 107
111 78 111
115 82 115
117 85 117
116 83 116
112 79 112
116 85 116
121 91 121
124 95 124
116 85 116
111 77 111
107 72 107
106 71 106
105 70 105
109 74 109
115 83 115
111 79 111
111 79 111
116 87 116
122 94 122
132 110 132
137 116 137
137 118 137
125 108 125
46 22 46
3 0 3
0 0 0
0 0 0
0 0 0
0 0 0
0 0 0
0 0 0
0 0 0
0 0 0
0 0 0
0 0 0
4 0 4
6 0 6
39 12 39
28 0 28
66 33 66
158 145 158
141 123 141
134 114 134
122 98 122
115 87 115
107 77 107
116 87 116
115 85 115
121 92 121
111 77 111
112 79 112
113 81 113
118 87 118
119 87 119
115 82 115
114 82 114
120 90 120
121 90 121
122 92 122
114 81 114
109 74 109
106 70 106
104 68 104
105 68 105
109 75 109
108 74 108
108 74 108
111 80 111
113 82 113
142 125 142
151 132 151
136 121 136
113 98 113
116 99 116
11 2 11
0 0 0
0 0 0
0 0 0
0 0 0
0 0 0
0 0 0
0 0 0
0 0 0
0 0 0
0 0 0
4 0 4
6 0 6
40 12 40
28 0 28
78 45 78
162 150 162
136 117 136
129 108 129
120 94 120
113 84 113
114 87 114
115 85 115
118 90 118
120 90 120
112 79 112
113 80 113
113 81 113
117 86 117
121 91 121
123 92 123
118 85 118
118 87 118
121 90 121
125 95 125
120 90 120
111 76 111
108 72 108
107 72 107
103 66 103
110 76 110
103 68 103
109 75 109
102 67 102
112 81 112
136 114 136
149 131 149
127 113 127
114 100 114
128 112 128
24 9 24
0 0 0
0 0 0
0 0 0
0 0 0
0 0 0
0 0 0
0 0 0
0 0 0
0 0 0
0 0 0
4 0 4
6 0 6
42 12 42
31 1 31
103 75 103
162 150 162
134 113 134
126 104 126
115 88 115
113 85 113
117 91 117
118 89 118
120 91 120
120 90 120
112 79 112
114 81 114
113 81 113
117 86 117
124 94 124
126 96 126
125 96 125
122 92 122
121 90 121
130 102 130
127 99 127
113 79 113
116 83 116
116 83 116
107 72 107
110 76 110
103 67 103
105 70 105
95 58 95
113 82 113
126 98 126
139 118 139
130 114 130
108 88 108
111 94 111
26 12 26
0 0 0
0 0 0
0 0 0
0 0 0
0 0 0
0 0 0
0 0 0
0 0 0
0 0 0
0 0 0
4 0 4
6 0 6
43 12 43
36 4 36
133 114 133
164 152 164
132 111 132
125 102 125
115 88 115
115 88 115
120 95 120
122 94 122
123 94 123
120 89 120
113 79 113
115 82 115
116 85 116
121 91 121
125 96 125
126 97 126
131 105 131
129 102 129
121 91 121
124 94 124
129 101 129
119 87 119
123 91 123
120 89 120
116 84 116
116 83 116
104 69 104
104 68 104
105 72 105
124 96 124
107 75 107
123 97 123
115 91 115
78 50 78
88 66 88
23 11 23
1 0 1
0 0 0
0 0 0
0 0 0
0 0 0
0 0 0
0 0 0
0 0 0
0 0 0
0 0 0
4 0 4
6 0 6
43 13 43
43 10 43
149 134 149
160 146 160
133 112 133
125 102 125
117 90 117
117 89 117
121 95 121
121 93 121
126 97 126
122 91 122
115 81 115
116 83 116
120 90 120
119 88 119
122 92 122
125 96 125
129 102 129
129 101 129
122 92 122
121 88 121
121 89 121
120 88 120
120 88 120
116 82 116
117 85 117
122 93 122
115 82 115
117 85 117
123 94 123
113 81 113
116 86 116
126 103 126
98 66 98
73 42 73
116 103 116
26 17 26
7 2 7
0 0 0
0 0 0
0 0 0
0 0 0
0 0 0
0 0 0
0 0 0
0 0 0
0 0 0
4 0 4
6 0 6
42 13 42
47 14 47
151 137 151
156 141 156
133 113 133
125 102 125
117 90 117
118 91 118
120 94 120
120 92 120
121 93 121
124 95 124
115 82 115
118 85 118
122 92 122
119 88 119
117 85 117
119 87 119
125 97 125
127 99 127
120 88 120
115 81 115
115 80 115
112 77 112
112 77 112
111 76 111
112 77 112
120 89 120
122 90 122
123 93 123
122 91 122
107 74 107
111 82 111
114 86 114
82 47 82
86 55 86
96 77 96
52 48 52
13 7 13
3 0 3
0 0 0
0 0 0
0 0 0
0 0 0
0 0 0
0 0 0
0 0 0
0 0 0
4 0 4
6 0 6
41 12 41
54 21 54
150 135 150
149 132 149
131 110 131
124 101 124
117 91 117
121 96 121
117 89 117
124 97 124
119 89 119
125 96 125
115 82 115
118 85 118
123 93 123
121 90 121
118 85 118
117 84 117
121 90 121
124 94 124
118 85 118
109 71 109
108 70 108
110 74 110
103 64 103
109 73 109
109 72 109
112 78 112
112 77 112
121 88 121
105 69 105
100 65 100
112 84 112
103 72 103
75 39 75
82 54 82
76 53 76
27 17 27
39 34 39
25 18 25
2 0 2
0 0 0
0 0 0
0 0 0
0 0 0
0 0 0
0 0 0
0 0 0
4 0 4
6 0 6
39 12 39
58 25 58
147 131 147
147 130 147
131 109 131
125 102 125
122 98 122
124 100 124
114 85 114
128 103 128
116 85 116
125 96 125
116 83 116
118 85 118
123 93 123
122 91 122
120 88 120
119 87 119
121 90 121
120 89 120
115 81 115
104 66 104
105 67 105
107 70 107
101 62 101
107 71 107
114 80 114
111 77 111
112 77 112
115 81 115
93 55 93
102 70 102
121 94 121
105 74 105
77 40 77
66 35 66
61 39 61
27 20 27
25 16 25
28 19 28
24 15 24
1 0 1
0 0 0
0 0 0
0 0 0
0 0 0
0 0 0
0 0 0
4 0 4
6 0 6
38 13 38
59 28 59
141 123 141
152 137 152
129 107 129
130 108 130
122 98 122
122 96 122
114 85 114
128 103 128
115 84 115
123 94 123
118 86 118
116 83 116
119 89 119
121 91 121
120 89 120
122 90 122
120 87 120
115 81 115
110 74 110
102 63 102
102 63 102
106 69 106
101 62 101
108 71 108
115 81 115
103 66 103
104 70 104
106 72 106
88 52 88
103 71 103
120 92 120
116 89 116
79 42 79
65 34 65
61 36 61
40 24 40
18 11 18
15 7 15
17 8 17
15 6 15
0 0 0
0 0 0
0 0 0
0 0 0
0 0 0
0 0 0
4 0 4
6 0 6
37 13 37
55 24 55
143 127 143
154 140 154
128 106 128
124 101 124
115 88 115
113 84 113
118 91 118
122 94 122
118 88 118
120 90 120
117 85 117
118 85 118
115 83 115
123 94 123
124 94 124
123 91 123
117 83 117
111 74 111
104 65 104
103 63 103
105 67 105
103 64 103
104 66 104
105 67 105
112 77 112
102 66 102
109 78 109
100 65 100
85 49 85
91 57 91
117 89 117
118 89 118
80 43 80
69 34 69
59 33 59
67 50 67
28 18 28
14 5 14
15 5 15
22 13 22
5 1 5
0 0 0
0 0 0
0 0 0
0 0 0
0 0 0
4 0 4
6 0 6
36 13 36
50 21 50
147 132 147
155 142 155
124 102 124
118 92 118
110 80 110
110 80 110
124 99 124
115 85 115
120 90 120
117 85 117
115 84 115
116 83 116
113 80 113
122 92 122
128 99 128
119 86 119
114 78 114
105 66 105
103 64 103
106 68 106
107 70 107
100 60 100
109 73 109
103 65 103
109 75 109
107 74 107
114 84 114
100 64 100
88 52 88
77 42 77
107 77 107
110 79 110
101 67 101
77 40 77
84 53 84
80 59 80
49 35 49
23 13 23
22 8 22
20 10 20
18 8 18
2 0 2
0 0 0
0 0 0
0 0 0
0 0 0
4 0 4
6 0 6
36 13 36
48 18 48
152 139 152
156 143 156
124 102 124
115 89 115
111 81 111
112 84 112
121 95 121
116 86 116
124 96 124
116 84 116
114 82 114
115 82 115
112 79 112
121 91 121
127 99 127
121 88 121
111 74 111
103 63 103
113 78 113
114 79 114
106 68 106
104 66 104
108 71 108
106 71 106
105 71 105
110 78 110
111 80 111
99 63 99
87 51 87
71 38 71
106 78 106
109 78 109
114 84 114
83 47 83
91 60 91
82 57 82
52 38 52
26 14 26
27 13 27
20 10 20
21 12 21
7 2 7
0 0 0
0 0 0
0 0 0
0 0 0
4 0 4
7 0 7
35 13 35
38 8 38
159 149 159
163 153 163
129 109 129
119 96 119
113 87 113
102 70 102
104 74 104
126 101 126
116 85 116
121 92 121
112 80 112
113 82 113
112 79 112
113 79 113
128 101 128
125 96 125
110 73 110
121 89 121
144 123 144
124 93 124
146 94 146
118 84 118
115 83 115
114 81 114
118 89 118
116 85 116
102 64 102
100 63 100
92 60 92
76 46 76
99 76 99
101 79 101
110 87 110
102 75 102
122 100 122
81 50 81
47 23 47
31 13 31
25 10 25
15 6 15
16 6 16
17 7 17
10 3 10
0 0 0
0 0 0
0 0 0
4 0 4
6 0 6
34 13 34
32 2 32
112 89 112
161 150 161
131 111 131
119 95 119
109 80 109
104 74 104
101 69 101
119 91 119
124 96 124
120 92 120
114 82 114
114 82 114
114 83 114
117 85 117
110 74 110
120 89 120
125 96 125
132 107 132
151 132 151
167 153 167
158 140 158
142 119 142
134 107 134
140 117 140
137 113 137
112 77 112
97 60 97
98 62 98
92 58 92
82 54 82
90 65 90
96 75 96
92 70 92
87 64 87
88 58 88
79 45 79
54 27 54
24 9 24
25 11 25
23 10 23
19 9 19
10 4 10
17 9 17
0 0 0
0 0 0
0 0 0
4 0 4
6 0 6
34 13 34
27 0 27
64 33 64
159 150 159
143 128 143
124 102 124
117 94 117
113 87 113
103 73 103
120 92 120
132 109 132
123 95 123
123 96 123
119 89 119
126 99 126
127 99 127
107 71 107
114 81 114
120 87 120
126 97 126
147 127 147
141 116 141
149 127 149
142 117 142
135 107 135
146 123 146
141 115 141
106 70 106
95 58 95
97 62 97
94 64 94
80 51 80
85 56 85
88 65 88
95 75 95
92 68 92
73 39 73
75 41 75
63 32 63
23 9 23
23 8 23
19 8 19
10 3 10
14 5 14
6 1 6
0 0 0
0 0 0
0 0 0
4 0 4
6 0 6
34 13 34
17 0 17
46 16 46
159 150 159
158 147 158
131 112 131
119 95 119
113 87 113
111 84 111
120 93 120
129 104 129
131 106 131
132 108 132
129 103 129
122 94 122
126 98 126
115 82 115
121 90 121
125 94 125
121 91 121
149 130 149
156 135 156
145 124 145
137 109 137
129 99 129
115 79 115
101 64 101
101 64 101
93 56 93
94 58 94
82 47 82
80 45 80
84 55 84
95 70 95
111 95 111
87 61 87
71 37 71
77 46 77
68 37 68
33 15 33
27 10 27
14 5 14
8 3 8
2 0 2
0 0 0
0 0 0
0 0 0
0 0 0
3 0 3
6 0 6
34 13 34
9 0 9
22 0 22
87 61 87
164 158 164
154 142 154
133 115 133
124 103 124
120 96 120
126 102 126
134 112 134
133 110 133
132 107 132
142 121 142
130 105 130
122 92 122
118 87 118
116 83 116
120 91 120
110 76 110
134 108 134
153 133 153
128 102 128
125 93 125
131 102 131
98 59 98
88 50 88
88 50 88
91 54 91
96 61 96
95 58 95
84 48 84
70 35 70
71 40 71
96 73 96
84 56 84
77 44 77
84 51 84
77 46 77
44 26 44
31 16 31
21 11 21
0 0 0
0 0 0
0 0 0
0 0 0
0 0 0
0 0 0
3 0 3
6 0 6
33 13 33
5 0 5
16 0 16
45 18 45
151 143 151
165 158 165
167 160 167
140 123 140
132 114 132
141 124 141
143 125 143
136 114 136
136 114 136
135 112 135
148 130 148
122 92 122
110 76 110
104 65 104
105 68 105
119 86 119
128 102 128
166 152 166
137 113 137
121 87 121
114 78 114
101 65 101
88 51 88
82 45 82
87 50 87
93 58 93
97 62 97
80 46 80
70 39 70
74 41 74
89 58 89
101 69 101
103 70 103
108 78 108
82 53 82
48 29 48
33 18 33
16 7 16
0 0 0
0 0 0
0 0 0
0 0 0
0 0 0
0 0 0
3 0 3
7 0 7
33 12 33
4 0 4
15 0 15
15 0 15
57 30 57
164 159 164
180 178 180
177 173 177
169 162 169
158 145 158
145 128 145
141 121 141
128 103 128
139 117 139
143 123 143
142 121 142
123 92 123
97 56 97
104 66 104
118 87 118
134 110 134
146 124 146
124 94 124
117 83 117
109 72 109
101 63 101
102 69 102
83 46 83
87 50 87
96 62 96
103 69 103
105 70 105
82 45 82
83 45 83
74 37 74
82 49 82
104 73 104
109 81 109
107 88 107
78 59 78
41 22 41
21 11 21
0 0 0
0 0 0
0 0 0
0 0 0
0 0 0
0 0 0
3 0 3
7 0 7
32 12 32
4 0 4
12 0 12
12 0 12
15 0 15
64 37 64
161 155 161
175 171 175
174 168 174
179 174 179
151 136 151
148 131 148
135 113 135
128 102 128
133 110 133
140 120 140
123 94 123
111 74 111
123 92 123
132 105 132
136 110 136
127 97 127
117 82 117
109 72 109
110 74 110
104 67 104
100 65 100
96 60 96
96 61 96
99 63 99
102 64 102
92 54 92
114 88 114
108 84 108
106 81 106
81 51 81
91 63 91
93 63 93
122 105 122
139 134 139
77 63 77
31 16 31
0 0 0
0 0 0
0 0 0
0 0 0
0 0 0
0 0 0
3 0 3
7 0 7
31 12 31
3 0 3
12 0 12
13 0 13
9 0 9
27 5 27
72 48 72
90 64 90
129 111 129
174 167 174
165 154 165
152 136 152
140 121 140
129 105 129
125 98 125
130 104 130
145 125 145
133 107 133
138 113 138
138 113 138
127 97 127
116 83 116
109 70 109
109 72 109
98 59 98
107 70 107
102 67 102
98 62 98
98 59 98
106 70 106
94 56 94
87 48 87
145 87 145
125 99 125
142 76 142
107 80 107
95 70 95
92 73 92
127 116 127
164 99 164
138 87 138
36 19 36
0 0 0
0 0 0
0 0 0
0 0 0
0 0 0
0 0 0
3 0 3
8 0 8
31 11 31
3 0 3
14 0 14
11 0 11
8 0 8
7 0 7
28 8 28
57 28 57
70 39 70
82 50 82
128 107 128
177 169 177
158 142 158
135 112 135
131 106 131
137 114 137
134 108 134
143 119 143
139 114 139
125 95 125
130 102 130
113 76 113
110 73 110
113 78 113
127 98 127
115 82 115
96 60 96
103 67 103
97 60 97
100 67 100
92 56 92
114 83 114
114 88 114
151 109 151
159 85 159
130 109 130
102 79 102
98 83 98
122 119 122
100 91 100
153 154 153
71 60 71
0 0 0
0 0 0
0 0 0
0 0 0
0 0 0
0 0 0
3 0 3
8 0 8
30 11 30
3 0 3
16 0 16
9 0 9
8 0 8
6 0 6
8 0 8
37 15 37
61 32 61
72 40 72
74 41 74
81 48 81
104 74 104
129 104 129
144 123 144
149 129 149
143 120 143
114 81 114
101 64 101
93 54 93
116 85 116
111 76 111
112 78 112
112 78 112
119 89 119
126 100 126
99 64 99
94 57 94
90 54 90
106 76 106
106 76 106
115 88 115
139 100 139
141 82 141
159 147 159
136 85 136
146 135 146
123 107 123
76 63 76
109 70 109
64 42 64
113 70 113
5 0 5
3 0 3
1 0 1
0 0 0
0 0 0
0 0 0
3 0 3
9 0 9
30 11 30
3 0 3
20 0 20
9 0 9
7 0 7
6 0 6
5 0 5
9 0 9
47 21 47
64 35 64
71 39 71
72 40 72
74 39 74
79 44 79
84 49 84
87 51 87
92 56 92
104 71 104
93 54 93
94 55 94
124 96 124
115 80 115
119 86 119
120 87 120
128 100 128
107 73 107
108 73 108
96 58 96
103 70 103
124 96 124
100 64 100
97 60 97
95 58 95
98 64 98
87 51 87
85 49 85
73 41 73
67 40 67
37 17 37
11 2 11
5 0 5
6 1 6
0 0 0
0 0 0
0 0 0
0 0 0
0 0 0
0 0 0
3 0 3
9 0 9
33 10 33
4 0 4
19 0 19
9 0 9
7 0 7
6 0 6
5 0 5
4 0 4
20 3 20
56 28 56
70 38 70
74 42 74
75 42 75
76 41 76
79 44 79
84 47 84
86 49 86
101 66 101
127 100 127
124 96 124
116 84 116
125 94 125
115 80 115
123 90 123
118 85 118
97 59 97
102 65 102
79 41 79
88 52 88
103 72 103
141 120 141
170 143 170
170 120 170
143 127 143
158 144 158
131 114 131
84 58 84
79 57 79
58 40 58
45 29 45
25 8 25
1 0 1
0 0 0
0 0 0
0 0 0
0 0 0
0 0 0
0 0 0
3 0 3
8 0 8
35 13 35
4 0 4
20 0 20
10 0 10
7 0 7
6 0 6
5 0 5
5 0 5
8 0 8
46 23 46
63 35 63
70 40 70
73 40 73
73 40 73
78 44 78
82 47 82
86 49 86
97 62 97
128 100 128
99 62 99
93 55 93
107 73 107
122 90 122
124 93 124
122 91 122
95 56 95
103 66 103
80 45 80
97 60 97
110 81 110
132 111 132
167 133 167
137 89 137
125 100 125
146 128 146
115 95 115
91 69 91
106 92 106
124 118 124
175 104 175
35 16 35
9 0 9
1 0 1
0 0 0
0 0 0
0 0 0
0 0 0
0 0 0
3 0 3
10 0 10
29 11 29
3 0 3
19 0 19
9 0 9
8 0 8
5 0 5
5 0 5
5 0 5
5 0 5
33 12 33
56 30 56
67 38 67
68 37 68
73 40 73
74 40 74
78 44 78
86 51 86
92 57 92
100 65 100
91 54 91
98 63 98
108 76 108
122 91 122
110 76 110
112 79 112
96 59 96
98 63 98
95 65 95
103 67 103
111 80 111
143 123 143
145 124 145
126 101 126
138 71 138
93 60 93
81 48 81
85 61 85
134 60 134
161 162 161
106 93 106
36 17 36
2 0 2
0 0 0
0 0 0
0 0 0
0 0 0
0 0 0
0 0 0
3 0 3
12 0 12
28 11 28
3 0 3
18 0 18
9 0 9
8 0 8
6 0 6
5 0 5
4 0 4
5 0 5
18 2 18
52 26 52
63 35 63
66 36 66
71 40 71
74 40 74
81 48 81
85 52 85
89 55 89
103 70 103
105 71 105
105 71 105
108 76 108
117 84 117
107 72 107
106 72 106
92 55 92
94 62 94
99 69 99
105 71 105
110 79 110
126 101 126
123 95 123
149 132 149
125 99 125
100 68 100
92 62 92
115 95 115
151 144 151
154 152 154
49 29 49
31 15 31
0 0 0
0 0 0
0 0 0
0 0 0
0 0 0
0 0 0
0 0 0
3 0 3
14 0 14
28 11 28
3 0 3
17 0 17
9 0 9
7 0 7
6 0 6
4 0 4
4 0 4
4 0 4
12 0 12
47 23 47
58 32 58
62 34 62
70 39 70
76 42 76
79 46 79
86 53 86
92 58 92
93 59 93
100 67 100
100 65 100
104 70 104
110 77 110
107 74 107
99 63 99
90 51 90
84 50 84
94 60 94
109 77 109
118 90 118
117 89 117
104 72 104
123 96 123
117 91 117
106 76 106
110 86 110
114 94 114
135 124 135
88 70 88
43 24 43
24 12 24
0 0 0
0 0 0
0 0 0
0 0 0
0 0 0
0 0 0
0 0 0
4 0 4
15 0 15
26 10 26
3 0 3
17 0 17
9 0 9
7 0 7
5 0 5
5 0 5
4 0 4
4 0 4
9 0 9
43 21 43
56 32 56
61 32 61
69 37 69
74 41 74
75 42 75
79 45 79
87 52 87
102 70 102
99 66 99
102 69 102
100 65 100
103 69 103
107 73 107
95 59 95
88 50 88
75 41 75
87 49 87
88 51 88
99 66 99
119 93 119
104 73 104
113 85 113
102 72 102
107 80 107
122 102 122
126 110 126
105 86 105
78 58 78
41 22 41
25 13 25
0 0 0
0 0 0
0 0 0
0 0 0
0 0 0
0 0 0
0 0 0
3 0 3
15 0 15
26 10 26
3 0 3
16 0 16
10 0 10
7 0 7
6 0 6
5 0 5
4 0 4
4 0 4
6 0 6
42 22 42
53 30 53
62 34 62
68 37 68
74 42 74
75 42 75
80 45 80
80 44 80
105 74 105
99 65 99
106 74 106
101 68 101
111 79 111
99 64 99
96 60 96
85 48 85
72 40 72
85 48 85
84 48 84
82 46 82
83 47 83
116 92 116
124 101 124
101 71 101
117 95 117
125 106 125
144 132 144
94 74 94
89 72 89
42 22 42
27 14 27
0 0 0
0 0 0
0 0 0
0 0 0
0 0 0
0 0 0
0 0 0
3 0 3
16 0 16
25 9 25
3 0 3
16 0 16
9 0 9
7 0 7
5 0 5
4 0 4
4 0 4
4 0 4
5 0 5
38 19 38
54 29 54
62 35 62
69 39 69
73 41 73
74 41 74
80 45 80
84 49 84
104 72 104
101 67 101
104 73 104
104 71 104
104 71 104
95 59 95
95 59 95
81 44 81
71 39 71
79 44 79
80 44 80
78 43 78
77 43 77
75 40 75
112 89 112
144 131 144
130 113 130
129 114 129
166 161 166
110 93 110
97 82 97
43 22 43
26 13 26
0 0 0
0 0 0
0 0 0
0 0 0
0 0 0
0 0 0
0 0 0
3 0 3
16 0 16
25 9 25
3 0 3
15 0 15
9 0 9
6 0 6
6 0 6
4 0 4
4 0 4
3 0 3
4 0 4
31 14 31
54 28 54
63 36 63
68 39 68
71 40 71
76 43 76
81 48 81
84 49 84
104 73 104
97 62 97
103 70 103
102 69 102
106 74 106
94 59 94
88 52 88
79 44 79
71 37 71
72 39 72
77 44 77
75 41 75
73 40 73
71 38 71
70 38 70
85 56 85
132 118 132
146 137 146
172 172 172
143 137 143
121 113 121
41 21 41
19 7 19
0 0 0
0 0 0
0 0 0
0 0 0
0 0 0
0 0 0
0 0 0
0 0 0
0 0 0
0 0 0
0 0 0
0 0 0
0 0 0
0 0 0
0 0 0
0 0 0
0 0 0
0 0 0
0 0 0
0 0 0
0 0 0
0 0 0
0 0 0
0 0 0
0 0 0
0 0 0
0 0 0
0 0 0
0 0 0
0 0 0
0 0 0
0 0 0
0 0 0
0 0 0
0 0 0
0 0 0
0 0 0
0 0 0
0 0 0
0 0 0
0 0 0
0 0 0
0 0 0
0 0 0
0 0 0
0 0 0
0 0 0
0 0 0
0 0 0
0 0 0
0 0 0
0 0 0
0 0 0
0 0 0
0 0 0
