P3 
50 50 
255
0 0 0
0 0 0
0 0 0
0 0 0
0 0 0
0 0 0
0 0 0
0 0 0
0 0 0
0 0 0
0 0 0
0 0 0
0 0 0
0 0 0
0 0 0
0 0 0
0 0 0
0 0 0
0 0 0
0 0 0
0 0 0
0 0 0
0 0 0
0 0 0
0 0 0
0 0 0
0 0 0
0 0 0
0 0 0
0 0 0
0 0 0
0 0 0
0 0 0
0 0 0
0 0 0
0 0 0
0 0 0
0 0 0
0 0 0
0 0 0
0 0 0
0 0 0
0 0 0
0 0 0
0 0 0
0 0 0
0 0 0
0 0 0
0 0 0
0 0 0
0 0 0
0 0 0
0 0 0
0 0 0
0 0 0
0 0 0
0 0 0
0 0 0
0 0 0
0 0 0
0 0 0
0 0 0
0 0 0
0 0 0
1 0 1
1 0 1
2 0 2
3 0 3
3 0 3
4 0 4
4 0 4
4 0 4
4 0 4
2 0 2
2 0 2
5 0 5
6 0 6
10 0 10
18 1 18
26 6 26
27 6 27
24 5 24
19 2 19
15 0 15
9 0 9
5 0 5
4 0 4
4 0 4
5 0 5
4 0 4
3 0 3
3 0 3
3 0 3
4 0 4
4 0 4
6 0 6
8 0 8
8 1 8
2 0 2
1 0 1
0 0 0
0 0 0
0 0 0
0 0 0
0 0 0
0 0 0
0 0 0
0 0 0
0 0 0
0 0 0
0 0 0
0 0 0
0 0 0
1 0 1
1 0 1
2 0 2
2 0 2
3 0 3
3 0 3
4 0 4
3 0 3
4 0 4
4 0 4
4 0 4
17 2 17
42 19 42
65 43 65
87 68 87
107 90 107
120 106 120
123 108 123
119 103 119
106 86 106
86 63 86
66 41 66
46 21 46
26 7 26
10 0 10
5 0 5
5 0 5
5 0 5
4 0 4
3 0 3
3 0 3
4 0 4
6 0 6
7 0 7
7 1 7
3 0 3
2 0 2
0 0 0
0 0 0
0 0 0
0 0 0
0 0 0
0 0 0
0 0 0
0 0 0
0 0 0
0 0 0
0 0 0
0 0 0
1 0 1
1 0 1
1 0 1
2 0 2
3 0 3
3 0 3
2 0 2
4 0 4
4 0 4
4 0 4
15 1 15
47 26 47
102 87 102
139 130 139
153 147 153
159 154 159
166 160 166
167 162 167
165 158 165
167 161 167
169 163 169
165 159 165
159 152 159
141 129 141
107 89 107
59 36 59
33 13 33
10 0 10
5 0 5
4 0 4
4 0 4
3 0 3
5 0 5
6 0 6
8 0 8
7 1 7
2 0 2
2 0 2
0 0 0
0 0 0
0 0 0
0 0 0
0 0 0
0 0 0
0 0 0
0 0 0
0 0 0
0 0 0
0 0 0
0 0 0
1 0 1
1 0 1
2 0 2
2 0 2
2 0 2
3 0 3
4 0 4
4 0 4
4 0 4
27 7 27
80 60 80
141 133 141
157 151 157
167 162 167
158 149 158
151 139 151
149 136 149
150 137 150
148 134 148
144 129 144
146 132 146
155 145 155
154 142 154
155 144 155
151 139 151
133 118 133
103 85 103
55 31 55
25 4 25
6 0 6
5 0 5
3 0 3
4 0 4
6 0 6
7 0 7
7 1 7
3 0 3
1 0 1
0 0 0
0 0 0
0 0 0
0 0 0
0 0 0
0 0 0
0 0 0
0 0 0
0 0 0
0 0 0
0 0 0
0 0 0
1 0 1
1 0 1
2 0 2
2 0 2
2 0 2
3 0 3
4 0 4
4 0 4
30 10 30
105 89 105
149 142 149
164 160 164
174 171 174
157 147 157
141 124 141
139 122 139
142 125 142
144 127 144
144 128 144
141 124 141
135 116 135
140 123 140
143 128 143
146 131 146
147 132 147
141 126 141
134 119 134
120 102 120
74 49 74
40 15 40
13 0 13
5 0 5
5 0 5
6 0 6
7 0 7
7 1 7
3 0 3
1 0 1
0 0 0
0 0 0
0 0 0
0 0 0
0 0 0
0 0 0
0 0 0
0 0 0
0 0 0
0 0 0
0 0 0
0 0 0
1 0 1
1 0 1
2 0 2
2 0 2
2 0 2
3 0 3
4 0 4
28 9 28
120 110 120
155 151 155
169 167 169
177 176 177
162 154 162
141 125 141
140 123 140
141 124 141
144 127 144
146 129 146
140 122 140
140 122 140
134 114 134
135 116 135
135 116 135
136 117 136
141 123 141
146 131 146
144 129 144
145 131 145
132 116 132
88 64 88
46 21 46
20 2 20
6 0 6
6 0 6
8 0 8
8 1 8
2 0 2
2 0 2
0 0 0
0 0 0
0 0 0
0 0 0
0 0 0
0 0 0
0 0 0
0 0 0
0 0 0
0 0 0
0 0 0
0 0 0
1 0 1
2 0 2
2 0 2
2 0 2
2 0 2
2 0 2
18 2 18
110 99 110
155 152 155
170 168 170
171 168 171
150 138 150
126 105 126
129 109 129
132 112 132
137 118 137
141 124 141
137 118 137
138 120 138
136 116 136
136 117 136
132 112 132
134 114 134
130 109 130
130 108 130
136 116 136
138 120 138
140 124 140
146 132 146
135 120 135
93 70 93
46 22 46
22 4 22
8 0 8
8 0 8
10 2 10
3 0 3
2 0 2
0 0 0
0 0 0
0 0 0
0 0 0
0 0 0
0 0 0
0 0 0
0 0 0
0 0 0
0 0 0
0 0 0
0 0 0
1 0 1
2 0 2
2 0 2
2 0 2
2 0 2
6 0 6
81 66 81
143 136 143
161 157 161
158 150 158
138 122 138
128 109 128
123 101 123
127 104 127
126 103 126
130 109 130
130 108 130
130 109 130
130 107 130
132 111 132
133 112 133
128 106 128
129 106 129
131 110 131
126 102 126
128 105 128
129 107 129
128 107 128
135 117 135
150 136 150
134 118 134
95 72 95
43 19 43
20 4 20
9 0 9
9 3 9
3 0 3
1 0 1
0 0 0
0 0 0
0 0 0
0 0 0
0 0 0
0 0 0
0 0 0
0 0 0
0 0 0
1 0 1
1 0 1
2 0 2
2 0 2
2 0 2
2 0 2
1 0 1
2 0 2
35 18 35
127 118 127
152 146 152
146 134 146
127 108 127
121 99 121
115 89 115
120 96 120
120 95 120
122 98 122
118 92 118
118 92 118
118 92 118
121 95 121
123 98 123
122 97 122
125 101 125
124 100 124
119 93 119
121 95 121
125 101 125
125 101 125
124 101 124
129 108 129
140 122 140
146 131 146
127 108 127
84 60 84
38 14 38
15 0 15
9 3 9
4 0 4
2 0 2
0 0 0
0 0 0
0 0 0
0 0 0
0 0 0
0 0 0
0 0 0
0 0 0
0 0 0
0 0 0
1 0 1
3 0 3
3 0 3
3 0 3
3 0 3
2 0 2
6 0 6
82 66 82
137 129 137
143 132 143
127 109 127
123 102 123
127 106 127
124 100 124
121 97 121
117 91 117
115 88 115
112 83 112
112 83 112
114 86 114
112 82 112
119 92 119
118 92 118
119 93 119
119 93 119
125 100 125
117 89 117
110 80 110
116 88 116
124 100 124
126 103 126
131 110 131
145 129 145
139 122 139
118 98 118
67 41 67
29 7 29
11 3 11
4 0 4
2 0 2
0 0 0
0 0 0
0 0 0
0 0 0
0 0 0
0 0 0
0 0 0
0 0 0
0 0 0
0 0 0
1 0 1
2 0 2
3 0 3
4 0 4
3 0 3
2 0 2
24 9 24
114 103 114
135 124 135
118 99 118
112 88 112
115 91 115
114 87 114
109 79 109
113 85 113
115 88 115
107 76 107
108 78 108
109 79 109
114 85 114
112 82 112
112 82 112
116 88 116
113 83 113
118 90 118
111 81 111
111 80 111
110 78 110
113 83 113
114 86 114
118 91 118
129 108 129
140 122 140
150 136 150
137 121 137
104 82 104
45 19 45
16 3 16
4 0 4
2 0 2
0 0 0
0 0 0
0 0 0
0 0 0
0 0 0
0 0 0
0 0 0
0 0 0
0 0 0
0 0 0
1 0 1
2 0 2
3 0 3
2 0 2
2 0 2
3 0 3
51 34 51
124 114 124
121 105 121
110 88 110
115 92 115
121 97 121
121 97 121
112 84 112
107 77 107
106 76 106
104 72 104
102 69 102
104 71 104
108 76 108
110 80 110
112 83 112
109 78 109
115 87 115
109 78 109
110 78 110
112 81 112
108 76 108
108 77 108
117 91 117
121 95 121
122 97 122
129 108 129
150 136 150
149 134 149
137 121 137
68 41 68
23 5 23
4 0 4
2 0 2
0 0 0
0 0 0
0 0 0
0 0 0
0 0 0
0 0 0
0 0 0
0 0 0
0 0 0
0 0 0
1 0 1
2 0 2
4 0 4
4 0 4
3 0 3
8 0 8
85 71 85
121 108 121
114 94 114
103 78 103
107 80 107
108 79 108
113 86 113
112 83 112
108 78 108
101 68 101
102 70 102
101 66 101
105 74 105
105 72 105
106 73 106
109 79 109
110 81 110
109 78 109
106 74 106
108 75 108
111 81 111
105 72 105
111 80 111
116 87 116
112 83 112
120 94 120
127 105 127
133 113 133
152 138 152
147 134 147
104 83 104
29 8 29
5 0 5
2 0 2
0 0 0
0 0 0
0 0 0
0 0 0
0 0 0
0 0 0
0 0 0
0 0 0
0 0 0
0 0 0
2 0 2
4 0 4
4 0 4
4 0 4
3 0 3
14 1 14
100 87 100
117 100 117
106 84 106
101 74 101
106 78 106
106 76 106
101 68 101
101 68 101
104 71 104
102 69 102
101 68 101
105 73 105
103 70 103
104 71 104
107 75 107
106 74 106
106 74 106
106 74 106
104 70 104
107 74 107
106 74 106
104 70 104
111 80 111
114 84 114
116 88 116
119 92 119
120 95 120
124 100 124
142 125 142
149 135 149
131 115 131
41 16 41
6 0 6
2 0 2
0 0 0
0 0 0
0 0 0
0 0 0
0 0 0
0 0 0
0 0 0
0 0 0
0 0 0
1 0 1
3 0 3
1 0 1
3 0 3
3 0 3
3 0 3
28 11 28
108 94 108
118 100 118
101 75 101
96 65 96
102 72 102
105 74 105
101 69 101
102 71 102
95 60 95
101 68 101
102 70 102
103 70 103
103 71 103
105 73 105
106 74 106
104 71 104
103 69 103
106 72 106
102 67 102
106 73 106
104 69 104
102 68 102
108 77 108
111 81 111
113 83 113
114 86 114
116 88 116
125 102 125
142 125 142
157 145 157
138 122 138
62 36 62
8 0 8
2 0 2
0 0 0
0 0 0
0 0 0
0 0 0
0 0 0
0 0 0
0 0 0
0 0 0
0 0 0
1 0 1
1 0 1
1 0 1
2 0 2
2 0 2
3 0 3
49 32 49
113 99 113
113 94 113
93 64 93
100 71 100
107 78 107
104 74 104
96 61 96
96 62 96
97 64 97
97 63 97
103 72 103
102 70 102
107 76 107
103 69 103
101 67 101
103 69 103
103 70 103
103 68 103
101 65 101
107 73 107
101 65 101
100 65 100
106 73 106
106 73 106
108 77 108
110 81 110
113 85 113
120 95 120
130 108 130
150 135 150
149 136 149
91 67 91
11 0 11
2 0 2
0 0 0
0 0 0
0 0 0
0 0 0
0 0 0
0 0 0
0 0 0
0 0 0
0 0 0
0 0 0
1 0 1
1 0 1
1 0 1
2 0 2
7 0 7
64 49 64
115 102 115
101 78 101
96 69 96
99 68 99
104 76 104
103 73 103
97 63 97
92 56 92
99 65 99
104 73 104
105 74 105
105 75 105
105 75 105
101 68 101
98 63 98
100 64 100
104 70 104
101 65 101
100 64 100
106 73 106
100 64 100
101 67 101
105 73 105
107 75 107
109 78 109
108 78 108
111 83 111
112 85 112
116 90 116
140 122 140
155 143 155
106 85 106
14 0 14
3 0 3
0 0 0
0 0 0
0 0 0
0 0 0
0 0 0
0 0 0
0 0 0
0 0 0
0 0 0
0 0 0
1 0 1
1 0 1
1 0 1
2 0 2
21 9 21
83 73 83
88 67 88
99 74 99
101 72 101
103 73 103
103 73 103
101 69 101
98 65 98
96 62 96
96 60 96
101 69 101
103 71 103
110 81 110
106 76 106
99 64 99
97 62 97
98 62 98
102 67 102
101 66 101
100 64 100
106 72 106
102 68 102
106 73 106
107 74 107
113 83 113
113 84 113
113 83 113
115 88 115
110 82 110
111 84 111
134 113 134
158 147 158
116 97 116
16 0 16
2 0 2
0 0 0
0 0 0
0 0 0
0 0 0
0 0 0
0 0 0
0 0 0
0 0 0
0 0 0
0 0 0
1 0 1
1 0 1
2 0 2
3 0 3
47 40 47
59 43 59
71 47 71
107 83 107
108 82 108
102 71 102
102 73 102
101 69 101
97 63 97
93 57 93
92 55 92
95 59 95
95 59 95
100 67 100
111 82 111
101 67 101
96 60 96
97 60 97
99 63 99
103 69 103
101 65 101
107 75 107
107 75 107
110 79 110
110 79 110
115 86 115
117 88 117
118 91 118
120 95 120
111 82 111
108 80 108
129 107 129
158 147 158
125 108 125
20 1 20
2 0 2
0 0 0
0 0 0
0 0 0
0 0 0
0 0 0
0 0 0
0 0 0
0 0 0
0 0 0
0 0 0
0 0 0
0 0 0
1 0 1
4 0 4
47 38 47
49 31 49
68 43 68
110 87 110
111 85 111
112 87 112
106 78 106
98 65 98
96 61 96
93 57 93
95 58 95
95 58 95
95 59 95
97 61 97
108 79 108
114 87 114
98 62 98
99 63 99
102 67 102
106 73 106
104 69 104
107 74 107
108 76 108
109 78 109
112 81 112
114 84 114
116 88 116
115 86 115
122 96 122
113 84 113
106 78 106
128 106 128
160 149 160
129 114 129
23 2 23
3 0 3
0 0 0
0 0 0
0 0 0
0 0 0
0 0 0
0 0 0
0 0 0
0 0 0
0 0 0
0 0 0
0 0 0
0 0 0
1 0 1
3 0 3
42 32 42
47 28 47
67 41 67
104 80 104
99 69 99
113 88 113
105 76 105
99 66 99
97 63 97
90 54 90
92 55 92
94 57 94
94 57 94
96 59 96
98 63 98
117 91 117
104 72 104
101 67 101
105 71 105
107 74 107
103 68 103
105 71 105
105 72 105
108 76 108
111 80 111
109 77 109
110 80 110
108 77 108
122 97 122
114 85 114
108 79 108
129 107 129
160 150 160
127 111 127
24 2 24
3 0 3
0 0 0
0 0 0
0 0 0
0 0 0
0 0 0
0 0 0
0 0 0
0 0 0
0 0 0
0 0 0
0 0 0
0 0 0
1 0 1
2 0 2
41 28 41
53 31 53
66 39 66
90 62 90
94 64 94
102 73 102
87 51 87
90 55 90
96 61 96
91 54 91
91 54 91
94 57 94
94 57 94
96 59 96
97 61 97
113 85 113
101 68 101
98 62 98
100 64 100
103 68 103
101 66 101
103 68 103
99 62 99
105 71 105
104 70 104
104 70 104
103 70 103
109 78 109
120 94 120
114 86 114
113 85 113
130 109 130
159 147 159
120 103 120
22 2 22
3 0 3
0 0 0
0 0 0
0 0 0
0 0 0
0 0 0
0 0 0
0 0 0
0 0 0
0 0 0
0 0 0
0 0 0
0 0 0
0 0 0
2 0 2
51 38 51
55 35 55
62 34 62
89 60 89
94 64 94
89 55 89
86 51 86
89 53 89
89 52 89
89 52 89
91 55 91
92 55 92
95 58 95
95 58 95
99 64 99
113 86 113
101 67 101
100 65 100
99 64 99
99 62 99
98 61 98
102 67 102
97 59 97
102 67 102
99 63 99
101 66 101
99 63 99
107 76 107
116 89 116
114 86 114
117 92 117
132 111 132
155 143 155
114 95 114
20 1 20
2 0 2
0 0 0
0 0 0
0 0 0
0 0 0
0 0 0
0 0 0
0 0 0
0 0 0
0 0 0
0 0 0
0 0 0
0 0 0
0 0 0
4 0 4
63 50 63
58 36 58
64 35 64
83 51 83
89 57 89
86 52 86
86 50 86
88 52 88
84 47 84
87 51 87
88 52 88
88 51 88
91 53 91
93 56 93
102 69 102
114 88 114
101 67 101
101 68 101
97 61 97
98 61 98
97 60 97
102 67 102
96 59 96
101 66 101
98 62 98
99 63 99
99 63 99
105 72 105
115 87 115
114 86 114
119 94 119
136 117 136
152 139 152
109 89 109
17 0 17
2 0 2
0 0 0
0 0 0
0 0 0
0 0 0
0 0 0
0 0 0
0 0 0
0 0 0
1 0 1
0 0 0
0 0 0
0 0 0
1 0 1
15 4 15
69 56 69
58 35 58
62 32 62
82 51 82
84 51 84
82 47 82
87 53 87
93 60 93
83 45 83
85 49 85
87 51 87
89 53 89
90 53 90
90 52 90
100 68 100
109 81 109
98 64 98
99 64 99
95 59 95
97 59 97
97 61 97
102 66 102
97 60 97
101 65 101
100 63 100
104 69 104
99 63 99
100 66 100
112 84 112
113 86 113
121 96 121
139 120 139
152 139 152
97 75 97
15 0 15
3 0 3
0 0 0
0 0 0
0 0 0
0 0 0
0 0 0
0 0 0
0 0 0
0 0 0
0 0 0
0 0 0
0 0 0
0 0 0
2 0 2
33 19 33
65 47 65
55 30 55
65 33 65
86 57 86
92 61 92
82 48 82
86 52 86
93 60 93
82 44 82
87 51 87
84 47 84
85 48 85
88 51 88
89 53 89
106 77 106
108 80 108
95 60 95
95 60 95
95 59 95
96 59 96
97 61 97
100 65 100
98 62 98
101 66 101
100 64 100
105 70 105
100 64 100
96 61 96
108 78 108
115 87 115
122 97 122
139 119 139
147 133 147
73 48 73
11 0 11
2 0 2
0 0 0
0 0 0
0 0 0
0 0 0
0 0 0
0 0 0
0 0 0
0 0 0
1 0 1
0 0 0
0 0 0
0 0 0
4 0 4
46 30 46
72 55 72
56 29 56
71 41 71
80 49 80
91 59 91
84 51 84
86 53 86
93 60 93
82 43 82
90 55 90
87 51 87
89 52 89
90 54 90
89 53 89
108 80 108
110 82 110
95 60 95
96 60 96
95 59 95
96 59 96
96 60 96
99 63 99
99 63 99
101 66 101
101 66 101
104 69 104
101 67 101
96 60 96
107 76 107
116 89 116
121 96 121
140 120 140
144 129 144
61 34 61
9 0 9
2 0 2
0 0 0
0 0 0
0 0 0
0 0 0
0 0 0
0 0 0
0 0 0
0 0 0
2 0 2
0 0 0
0 0 0
1 0 1
18 4 18
62 44 62
91 74 91
65 38 65
63 31 63
58 25 58
85 55 85
98 68 98
94 62 94
98 68 98
89 54 89
102 71 102
111 83 111
108 80 108
103 74 103
97 67 97
96 63 96
104 73 104
100 68 100
103 73 103
99 64 99
97 62 97
97 61 97
100 64 100
101 66 101
99 62 99
106 72 106
103 68 103
109 77 109
105 72 105
111 81 111
124 100 124
122 97 122
152 138 152
125 107 125
34 8 34
5 0 5
2 0 2
0 0 0
0 0 0
0 0 0
0 0 0
0 0 0
0 0 0
0 0 0
0 0 0
2 0 2
1 0 1
1 0 1
1 0 1
21 6 21
66 48 66
76 56 76
58 29 58
62 33 62
65 35 65
89 62 89
99 72 99
106 77 106
110 83 110
102 73 102
99 69 99
122 99 122
116 89 116
99 67 99
91 57 91
96 64 96
96 63 96
101 69 101
101 69 101
103 71 103
110 80 110
112 83 112
116 88 116
110 80 110
102 67 102
106 74 106
102 68 102
107 75 107
107 75 107
119 93 119
124 101 124
128 105 128
153 140 153
94 68 94
22 4 22
4 0 4
2 0 2
0 0 0
0 0 0
0 0 0
0 0 0
0 0 0
0 0 0
0 0 0
0 0 0
2 0 2
1 0 1
1 0 1
2 0 2
24 8 24
66 48 66
65 43 65
59 29 59
63 33 63
73 44 73
78 48 78
88 56 88
98 67 98
92 60 92
96 67 96
107 79 107
111 84 111
109 80 109
101 67 101
96 63 96
100 69 100
98 64 98
100 67 100
103 72 103
109 79 109
120 96 120
122 98 122
128 106 128
129 107 129
108 76 108
107 74 107
109 78 109
108 77 108
113 84 113
122 97 122
127 104 127
144 127 144
140 123 140
47 19 47
14 4 14
4 0 4
2 0 2
0 0 0
0 0 0
0 0 0
0 0 0
0 0 0
0 0 0
0 0 0
0 0 0
2 0 2
1 0 1
1 0 1
2 0 2
23 7 23
62 44 62
70 49 70
55 27 55
64 32 64
60 29 60
66 35 66
76 43 76
87 54 87
90 58 90
103 75 103
109 81 109
104 75 104
98 66 98
97 64 97
102 72 102
101 70 101
100 68 100
97 62 97
101 69 101
105 74 105
117 91 117
124 101 124
122 97 122
122 96 122
107 75 107
112 81 112
116 87 116
106 74 106
120 93 120
140 124 140
147 131 147
160 148 160
99 72 99
24 1 24
13 4 13
4 0 4
2 0 2
0 0 0
0 0 0
0 0 0
0 0 0
0 0 0
0 0 0
0 0 0
0 0 0
2 0 2
2 0 2
1 0 1
1 0 1
21 5 21
43 21 43
59 36 59
60 32 60
68 38 68
71 39 71
69 40 69
71 38 71
86 53 86
96 65 96
97 70 97
94 62 94
96 64 96
100 69 100
101 72 101
97 66 97
99 67 99
97 64 97
96 61 96
97 62 97
105 73 105
104 72 104
108 77 108
109 78 109
116 88 116
99 63 99
108 75 108
114 84 114
100 66 100
114 86 114
147 133 147
169 160 169
151 137 151
59 27 59
13 0 13
12 4 12
4 0 4
2 0 2
0 0 0
0 0 0
0 0 0
0 0 0
0 0 0
0 0 0
0 0 0
0 0 0
1 0 1
1 0 1
1 0 1
1 0 1
13 0 13
38 16 38
49 24 49
57 28 57
77 47 77
78 50 78
82 55 82
88 59 88
98 70 98
105 79 105
91 61 91
83 51 83
102 73 102
106 78 106
98 67 98
93 59 93
92 57 92
96 62 96
99 65 99
97 63 97
100 67 100
101 68 101
107 76 107
116 87 116
121 94 121
113 82 113
110 78 110
113 83 113
114 85 114
118 91 118
161 150 161
172 166 172
103 78 103
27 3 27
10 0 10
11 4 11
4 0 4
2 0 2
0 0 0
0 0 0
0 0 0
0 0 0
0 0 0
0 0 0
0 0 0
0 0 0
1 0 1
2 0 2
1 0 1
1 0 1
4 0 4
34 13 34
48 22 48
61 32 61
90 64 90
92 67 92
86 58 86
93 64 93
99 70 99
91 59 91
86 53 86
87 56 87
100 71 100
105 76 105
99 68 99
93 59 93
92 57 92
95 61 95
101 69 101
100 66 100
100 67 100
102 69 102
112 82 112
122 95 122
133 110 133
117 88 117
111 80 111
112 83 112
124 99 124
146 129 146
181 177 181
145 132 145
53 22 53
13 0 13
9 0 9
11 4 11
4 0 4
2 0 2
0 0 0
0 0 0
0 0 0
0 0 0
0 0 0
0 0 0
0 0 0
0 0 0
1 0 1
1 0 1
1 0 1
1 0 1
2 0 2
25 4 25
48 20 48
76 50 76
114 99 114
110 91 110
108 89 108
93 65 93
96 68 96
93 64 93
82 50 82
83 48 83
102 73 102
109 83 109
100 70 100
94 61 94
91 56 91
94 59 94
97 63 97
100 68 100
102 70 102
110 80 110
110 80 110
124 99 124
123 96 123
113 83 113
120 93 120
120 94 120
137 119 137
165 156 165
149 134 149
74 43 74
25 4 25
7 0 7
7 0 7
11 4 11
4 0 4
3 0 3
0 0 0
0 0 0
0 0 0
0 0 0
0 0 0
0 0 0
0 0 0
0 0 0
1 0 1
1 0 1
1 0 1
1 0 1
2 0 2
14 0 14
49 20 49
97 79 97
129 120 129
126 112 126
113 95 113
94 67 94
94 66 94
95 68 95
87 54 87
91 57 91
114 91 114
120 99 120
104 75 104
95 62 95
90 55 90
93 58 93
97 64 97
98 65 98
102 71 102
108 78 108
114 85 114
113 85 113
115 86 115
113 84 113
121 96 121
126 103 126
144 129 144
143 128 143
88 60 88
33 8 33
9 0 9
6 0 6
7 0 7
11 4 11
4 0 4
2 0 2
0 0 0
0 0 0
0 0 0
0 0 0
0 0 0
0 0 0
0 0 0
0 0 0
1 0 1
2 0 2
2 0 2
2 0 2
2 0 2
9 0 9
53 25 53
109 94 109
129 119 129
109 90 109
96 70 96
100 76 100
95 70 95
102 77 102
89 56 89
85 52 85
123 105 123
130 76 130
107 79 107
102 72 102
100 68 100
97 64 97
104 74 104
108 79 108
106 76 106
117 91 117
117 90 117
108 78 108
108 79 108
117 93 117
120 97 120
135 117 135
137 121 137
84 54 84
45 16 45
15 3 15
6 0 6
4 0 4
6 0 6
11 4 11
4 0 4
2 0 2
0 0 0
0 0 0
0 0 0
0 0 0
0 0 0
0 0 0
0 0 0
1 0 1
1 0 1
1 0 1
3 0 3
4 0 4
6 0 6
15 2 15
63 39 63
117 105 117
132 124 132
106 86 106
90 64 90
81 55 81
93 69 93
83 53 83
83 51 83
83 50 83
116 97 116
118 100 118
105 80 105
98 70 98
98 68 98
99 67 99
99 68 99
106 79 106
102 73 102
115 89 115
105 76 105
101 71 101
101 71 101
110 84 110
115 91 115
101 74 101
73 42 73
51 21 51
18 1 18
8 0 8
4 0 4
4 0 4
6 0 6
11 4 11
3 0 3
2 0 2
0 0 0
0 0 0
0 0 0
0 0 0
0 0 0
0 0 0
0 0 0
0 0 0
0 0 0
0 0 0
1 0 1
1 0 1
1 0 1
3 0 3
36 12 36
55 28 55
55 26 55
72 47 72
86 56 86
79 47 79
74 42 74
78 46 78
79 46 79
81 47 81
88 57 88
93 62 93
99 70 99
94 63 94
94 63 94
100 70 100
96 64 96
101 72 101
102 73 102
101 72 101
87 53 87
79 43 79
79 44 79
78 44 78
76 43 76
69 37 69
58 28 58
29 4 29
6 0 6
4 0 4
3 0 3
4 0 4
6 0 6
11 4 11
3 0 3
2 0 2
0 0 0
0 0 0
0 0 0
0 0 0
1 0 1
1 0 1
1 0 1
1 0 1
1 0 1
1 0 1
2 0 2
4 0 4
5 0 5
9 0 9
53 35 53
85 65 85
90 43 90
76 55 76
82 59 82
94 70 94
98 75 98
106 86 106
104 82 104
94 68 94
105 82 105
109 86 109
128 112 128
104 79 104
93 63 93
104 78 104
94 63 94
97 69 97
109 84 109
103 75 103
84 50 84
77 42 77
75 40 75
73 40 73
70 38 70
63 34 63
43 18 43
8 0 8
3 0 3
4 0 4
4 0 4
5 0 5
7 0 7
11 4 11
3 0 3
2 0 2
0 0 0
0 0 0
0 0 0
0 0 0
0 0 0
0 0 0
0 0 0
0 0 0
1 0 1
1 0 1
2 0 2
3 0 3
4 0 4
7 0 7
39 21 39
77 56 77
108 94 108
89 69 89
94 73 94
118 104 118
112 96 112
109 91 109
110 91 110
86 56 86
92 64 92
97 69 97
119 100 119
94 66 94
92 61 92
100 71 100
95 63 95
99 70 99
94 64 94
87 56 87
79 45 79
74 39 74
73 39 73
72 40 72
66 35 66
56 28 56
22 1 22
3 0 3
3 0 3
4 0 4
3 0 3
4 0 4
7 0 7
10 2 10
3 0 3
2 0 2
0 0 0
0 0 0
0 0 0
0 0 0
0 0 0
0 0 0
0 0 0
0 0 0
0 0 0
0 0 0
0 0 0
0 0 0
1 0 1
2 0 2
19 3 19
52 27 52
104 89 104
119 106 119
127 114 127
103 82 103
87 62 87
87 59 87
91 64 91
81 50 81
84 54 84
87 57 87
97 70 97
105 81 105
94 64 94
97 66 97
98 67 98
100 71 100
95 66 95
85 52 85
79 44 79
75 40 75
74 40 74
71 40 71
62 33 62
45 17 45
7 0 7
4 0 4
4 0 4
3 0 3
2 0 2
3 0 3
6 0 6
11 3 11
3 0 3
2 0 2
0 0 0
0 0 0
0 0 0
0 0 0
0 0 0
0 0 0
0 0 0
0 0 0
0 0 0
0 0 0
1 0 1
0 0 0
1 0 1
2 0 2
16 2 16
48 22 48
100 82 100
128 117 128
121 106 121
94 70 94
93 70 93
94 70 94
93 67 93
89 61 89
85 55 85
93 65 93
97 70 97
98 69 98
95 64 95
98 68 98
97 67 97
101 73 101
91 60 91
81 47 81
77 42 77
74 40 74
71 38 71
70 38 70
58 30 58
30 7 30
5 0 5
4 0 4
4 0 4
4 0 4
3 0 3
3 0 3
6 0 6
11 3 11
3 0 3
2 0 2
0 0 0
0 0 0
0 0 0
0 0 0
0 0 0
0 0 0
0 0 0
0 0 0
0 0 0
0 0 0
1 0 1
1 0 1
1 0 1
2 0 2
14 1 14
46 21 46
95 76 95
112 96 112
108 90 108
86 61 86
81 52 81
88 60 88
85 56 85
89 62 89
85 55 85
89 60 89
91 60 91
93 62 93
89 56 89
97 67 97
95 64 95
98 68 98
90 58 90
79 45 79
75 41 75
73 39 73
70 38 70
66 36 66
47 21 47
20 2 20
5 0 5
4 0 4
4 0 4
4 0 4
3 0 3
3 0 3
6 0 6
10 3 10
3 0 3
2 0 2
0 0 0
0 0 0
0 0 0
0 0 0
0 0 0
0 0 0
0 0 0
0 0 0
0 0 0
0 0 0
0 0 0
0 0 0
1 0 1
1 0 1
11 0 11
44 20 44
89 70 89
96 75 96
100 80 100
78 50 78
83 55 83
87 59 87
84 55 84
87 58 87
85 55 85
87 57 87
92 61 92
93 64 93
91 60 91
94 63 94
91 59 91
89 55 89
87 54 87
77 43 77
74 39 74
72 40 72
70 37 70
63 32 63
42 19 42
14 0 14
6 0 6
5 0 5
5 0 5
4 0 4
3 0 3
4 0 4
6 0 6
10 3 10
3 0 3
2 0 2
0 0 0
0 0 0
0 0 0
0 0 0
0 0 0
0 0 0
0 0 0
0 0 0
0 0 0
0 0 0
0 0 0
0 0 0
1 0 1
1 0 1
7 0 7
39 18 39
97 81 97
97 78 97
97 78 97
79 52 79
90 64 90
86 59 86
81 51 81
82 51 82
82 50 82
88 58 88
98 70 98
91 61 91
92 62 92
86 52 86
88 54 88
88 56 88
83 49 83
78 43 78
74 40 74
72 39 72
68 36 68
56 28 56
37 14 37
8 0 8
6 0 6
6 0 6
5 0 5
4 0 4
3 0 3
4 0 4
6 0 6
9 3 9
2 0 2
2 0 2
0 0 0
0 0 0
0 0 0
0 0 0
0 0 0
0 0 0
0 0 0
0 0 0
0 0 0
0 0 0
0 0 0
0 0 0
1 0 1
0 0 0
3 0 3
30 11 30
97 85 97
110 97 110
100 82 100
86 61 86
93 68 93
86 58 86
86 58 86
86 57 86
90 62 90
96 70 96
103 79 103
86 55 86
82 48 82
85 50 85
89 56 89
90 57 90
82 49 82
78 43 78
74 41 74
71 39 71
65 34 65
53 26 53
27 5 27
7 0 7
6 0 6
6 0 6
5 0 5
3 0 3
3 0 3
4 0 4
6 0 6
9 3 9
3 0 3
2 0 2
0 0 0
0 0 0
0 0 0
0 0 0
0 0 0
0 0 0
0 0 0
0 0 0
0 0 0
0 0 0
0 0 0
0 0 0
0 0 0
0 0 0
2 0 2
19 5 19
84 73 84
111 102 111
92 73 92
89 65 89
90 64 90
98 74 98
98 75 98
95 71 95
93 69 93
88 58 88
86 54 86
80 46 80
84 50 84
88 54 88
87 52 87
89 57 89
84 51 84
77 44 77
72 39 72
68 36 68
62 33 62
51 24 51
18 1 18
7 0 7
7 0 7
6 0 6
5 0 5
4 0 4
3 0 3
4 0 4
6 0 6
9 3 9
3 0 3
2 0 2
0 0 0
0 0 0
0 0 0
0 0 0
0 0 0
0 0 0
0 0 0
0 0 0
0 0 0
0 0 0
0 0 0
0 0 0
0 0 0
0 0 0
0 0 0
0 0 0
0 0 0
0 0 0
0 0 0
0 0 0
0 0 0
0 0 0
0 0 0
0 0 0
0 0 0
0 0 0
0 0 0
0 0 0
0 0 0
0 0 0
0 0 0
0 0 0
0 0 0
0 0 0
0 0 0
0 0 0
0 0 0
0 0 0
0 0 0
0 0 0
0 0 0
0 0 0
0 0 0
0 0 0
0 0 0
0 0 0
0 0 0
0 0 0
0 0 0
0 0 0
