P3 
50 50 
255
0 0 0
0 0 0
0 0 0
0 0 0
0 0 0
0 0 0
0 0 0
0 0 0
0 0 0
0 0 0
0 0 0
0 0 0
0 0 0
0 0 0
0 0 0
0 0 0
0 0 0
0 0 0
0 0 0
0 0 0
0 0 0
0 0 0
0 0 0
0 0 0
0 0 0
0 0 0
0 0 0
0 0 0
0 0 0
0 0 0
0 0 0
0 0 0
0 0 0
0 0 0
0 0 0
0 0 0
0 0 0
0 0 0
0 0 0
0 0 0
0 0 0
0 0 0
0 0 0
0 0 0
0 0 0
0 0 0
0 0 0
0 0 0
0 0 0
0 0 0
0 0 0
0 0 0
0 0 0
0 0 0
0 0 0
0 0 0
0 0 0
0 0 0
0 0 0
0 0 0
0 0 0
0 0 0
0 0 0
0 0 0
0 0 0
0 0 0
0 0 0
0 0 0
0 0 0
0 0 0
0 0 0
1 0 1
2 0 2
6 0 6
8 0 8
13 2 13
16 4 16
17 4 17
17 4 17
16 4 16
10 0 10
7 0 7
5 0 5
3 0 3
3 0 3
6 0 6
6 0 6
8 0 8
6 0 6
5 0 5
10 0 10
10 0 10
8 0 8
11 0 11
3 0 3
3 0 3
33 10 33
4 0 4
4 0 4
0 0 0
0 0 0
0 0 0
0 0 0
0 0 0
0 0 0
0 0 0
0 0 0
0 0 0
0 0 0
0 0 0
0 0 0
0 0 0
0 0 0
0 0 0
0 0 0
0 0 0
0 0 0
0 0 0
0 0 0
4 0 4
22 8 22
35 18 35
51 34 51
67 51 67
77 62 77
94 81 94
107 97 107
104 94 104
99 88 99
86 73 86
71 56 71
61 44 61
51 34 51
40 21 40
30 12 30
15 2 15
5 0 5
4 0 4
8 0 8
7 0 7
8 0 8
11 0 11
9 0 9
8 0 8
8 0 8
3 0 3
32 9 32
4 0 4
4 0 4
0 0 0
0 0 0
0 0 0
0 0 0
0 0 0
0 0 0
0 0 0
0 0 0
0 0 0
0 0 0
0 0 0
0 0 0
0 0 0
0 0 0
0 0 0
0 0 0
0 0 0
0 0 0
4 0 4
25 10 25
46 28 46
105 95 105
122 115 122
132 126 132
134 129 134
136 130 136
143 138 143
155 154 155
147 144 147
146 142 146
141 136 141
137 132 137
133 128 133
132 126 132
126 119 126
117 108 117
72 54 72
39 19 39
15 0 15
5 0 5
9 0 9
7 0 7
12 0 12
11 0 11
8 0 8
13 0 13
3 0 3
31 9 31
4 0 4
3 0 3
0 0 0
0 0 0
0 0 0
0 0 0
0 0 0
0 0 0
0 0 0
0 0 0
0 0 0
0 0 0
0 0 0
0 0 0
0 0 0
0 0 0
0 0 0
0 0 0
0 0 0
15 4 15
38 20 38
96 85 96
126 119 126
141 136 141
142 136 142
135 126 135
131 120 131
135 125 135
142 135 142
146 140 146
131 120 131
129 118 129
128 117 128
124 112 124
123 111 123
126 115 126
130 120 130
128 116 128
131 122 131
127 120 127
71 52 71
35 15 35
10 0 10
10 0 10
12 0 12
13 0 13
8 0 8
13 0 13
3 0 3
32 9 32
4 0 4
3 0 3
0 0 0
0 0 0
0 0 0
0 0 0
0 0 0
0 0 0
0 0 0
0 0 0
0 0 0
0 0 0
0 0 0
0 0 0
0 0 0
0 0 0
0 0 0
0 0 0
17 4 17
51 32 51
117 108 117
137 132 137
148 143 148
146 140 146
141 133 141
134 123 134
133 122 133
135 124 135
140 131 140
132 120 132
121 105 121
123 108 123
122 107 122
117 101 117
117 101 117
118 102 118
112 94 112
110 91 110
111 93 111
128 115 128
138 131 138
113 101 113
49 26 49
14 0 14
14 0 14
15 0 15
8 0 8
13 0 13
4 0 4
32 10 32
4 0 4
3 0 3
0 0 0
0 0 0
0 0 0
0 0 0
0 0 0
0 0 0
0 0 0
0 0 0
0 0 0
0 0 0
0 0 0
0 0 0
0 0 0
0 0 0
0 0 0
2 0 2
60 41 60
134 127 134
153 151 153
156 154 156
149 143 149
149 142 149
139 129 139
137 127 137
134 123 134
131 118 131
128 115 128
117 100 117
117 100 117
119 103 119
117 99 117
116 99 116
116 98 116
118 100 118
114 96 114
110 90 110
110 91 110
110 91 110
126 111 126
143 135 143
133 125 133
48 25 48
20 0 20
17 0 17
11 0 11
12 0 12
4 0 4
33 10 33
4 0 4
3 0 3
0 0 0
0 0 0
0 0 0
0 0 0
0 0 0
0 0 0
0 0 0
0 0 0
0 0 0
0 0 0
0 0 0
0 0 0
0 0 0
0 0 0
0 0 0
35 16 35
139 134 139
161 160 161
149 143 149
150 145 150
142 133 142
138 128 138
133 120 133
135 124 135
131 118 131
123 108 123
111 92 111
109 88 109
112 93 112
112 93 112
110 90 110
108 88 108
111 92 111
115 97 115
115 96 115
111 90 111
111 90 111
111 92 111
112 92 112
127 113 127
143 135 143
110 95 110
48 22 48
20 0 20
11 0 11
11 0 11
4 0 4
34 11 34
4 0 4
3 0 3
0 0 0
0 0 0
0 0 0
0 0 0
0 0 0
0 0 0
0 0 0
0 0 0
0 0 0
0 0 0
0 0 0
0 0 0
0 0 0
0 0 0
18 2 18
127 120 127
157 155 157
155 151 155
135 125 135
136 125 136
131 118 131
127 113 127
124 108 124
126 112 126
123 107 123
116 98 116
105 82 105
104 81 104
107 85 107
108 86 108
104 81 104
106 84 106
110 89 110
111 91 111
110 88 110
106 84 106
104 82 104
111 91 111
113 94 113
117 98 117
135 123 135
143 134 143
78 54 78
37 9 37
13 0 13
11 0 11
6 0 6
34 11 34
4 0 4
4 0 4
0 0 0
0 0 0
0 0 0
0 0 0
0 0 0
0 0 0
0 0 0
0 0 0
0 0 0
0 0 0
0 0 0
0 0 0
0 0 0
2 0 2
74 56 74
143 137 143
152 146 152
130 117 130
123 108 123
121 105 121
120 103 120
121 104 121
119 100 119
113 94 113
111 90 111
106 83 106
104 81 104
100 75 100
102 77 102
105 81 105
105 82 105
105 82 105
106 84 106
107 84 107
104 81 104
103 79 103
106 83 106
106 84 106
112 91 112
113 93 113
122 105 122
143 132 143
140 132 140
55 26 55
18 0 18
13 0 13
11 0 11
34 12 34
5 0 5
4 0 4
0 0 0
0 0 0
0 0 0
0 0 0
0 0 0
0 0 0
0 0 0
0 0 0
0 0 0
0 0 0
0 0 0
3 0 3
1 0 1
30 11 30
138 133 138
154 150 154
131 119 131
119 103 119
113 95 113
110 90 110
116 97 116
110 90 110
113 93 113
114 94 114
108 86 108
97 71 97
93 65 93
99 72 99
105 81 105
104 80 104
106 82 106
107 84 107
105 82 105
104 80 104
102 77 102
102 78 102
108 85 108
103 79 103
111 90 111
114 93 114
118 100 118
137 124 137
143 134 143
85 60 85
34 4 34
13 0 13
17 0 17
34 12 34
5 0 5
4 0 4
0 0 0
0 0 0
0 0 0
0 0 0
0 0 0
0 0 0
0 0 0
0 0 0
0 0 0
0 0 0
0 0 0
3 0 3
3 0 3
53 32 53
145 140 145
132 120 132
115 97 115
116 100 116
105 84 105
107 85 107
104 82 104
106 84 106
104 80 104
102 77 102
95 68 95
95 68 95
95 68 95
96 69 96
98 71 98
102 77 102
105 82 105
105 82 105
105 81 105
102 77 102
104 80 104
105 82 105
102 77 102
107 84 107
110 89 110
112 90 112
115 95 115
126 109 126
147 138 147
134 121 134
54 23 54
16 0 16
18 0 18
34 12 34
5 0 5
4 0 4
0 0 0
0 0 0
0 0 0
0 0 0
0 0 0
0 0 0
0 0 0
0 0 0
0 0 0
0 0 0
0 0 0
1 0 1
13 0 13
107 96 107
156 154 156
104 84 104
107 87 107
106 84 106
105 84 105
105 83 105
101 77 101
98 72 98
101 76 101
98 72 98
95 67 95
94 67 94
95 67 95
101 76 101
102 77 102
102 76 102
100 74 100
105 81 105
106 84 106
106 82 106
102 77 102
98 71 98
102 77 102
109 86 109
109 86 109
115 95 115
115 94 115
123 106 123
148 139 148
151 144 151
67 37 67
22 0 22
18 0 18
34 12 34
5 0 5
4 0 4
0 0 0
0 0 0
0 0 0
0 0 0
0 0 0
0 0 0
0 0 0
0 0 0
0 0 0
0 0 0
0 0 0
1 0 1
37 17 37
120 111 120
130 118 130
103 84 103
106 85 106
100 77 100
105 83 105
99 74 99
95 68 95
100 75 100
96 70 96
97 70 97
93 64 93
91 62 91
99 72 99
100 73 100
95 68 95
102 76 102
106 82 106
103 79 103
101 76 101
101 75 101
104 79 104
106 83 106
102 77 102
102 77 102
112 91 112
113 91 113
115 94 115
122 104 122
136 123 136
151 143 151
104 82 104
34 6 34
19 0 19
35 12 35
5 0 5
4 0 4
0 0 0
0 0 0
0 0 0
0 0 0
0 0 0
0 0 0
0 0 0
0 0 0
0 0 0
0 0 0
1 0 1
18 4 18
82 66 82
121 109 121
107 89 107
106 86 106
109 89 109
94 68 94
100 76 100
92 65 92
95 69 95
97 72 97
91 62 91
91 62 91
90 61 90
93 64 93
95 67 95
98 71 98
102 76 102
100 74 100
98 71 98
96 69 96
97 70 97
100 73 100
97 70 97
99 73 99
102 76 102
106 82 106
107 84 107
111 88 111
118 98 118
120 100 120
128 113 128
154 147 154
146 137 146
47 18 47
21 0 21
35 12 35
5 0 5
4 0 4
0 0 0
0 0 0
0 0 0
0 0 0
0 0 0
0 0 0
0 0 0
0 0 0
0 0 0
0 0 0
3 0 3
38 18 38
103 89 103
112 96 112
114 98 114
107 87 107
104 83 104
94 69 94
92 65 92
90 62 90
93 65 93
93 65 93
88 59 88
87 56 87
90 60 90
94 65 94
96 68 96
101 74 101
99 72 99
95 67 95
95 66 95
100 74 100
103 78 103
104 80 104
101 76 101
99 73 99
100 73 100
102 77 102
107 83 107
111 88 111
113 90 113
117 96 117
121 103 121
150 141 150
154 148 154
57 27 57
24 0 24
36 12 36
5 0 5
4 0 4
0 0 0
0 0 0
0 0 0
0 0 0
0 0 0
0 0 0
0 0 0
0 0 0
0 0 0
0 0 0
9 1 9
96 81 96
94 81 94
112 98 112
124 109 124
108 87 108
95 71 95
92 66 92
89 62 89
86 57 86
90 61 90
89 61 89
85 54 85
86 55 86
90 60 90
93 64 93
98 71 98
97 69 97
96 68 96
95 67 95
99 73 99
102 76 102
99 73 99
97 69 97
98 71 98
101 76 101
100 73 100
101 76 101
109 86 109
104 78 104
112 89 112
120 100 120
126 110 126
137 125 137
154 147 154
62 32 62
26 0 26
38 12 38
5 0 5
4 0 4
0 0 0
0 0 0
0 0 0
0 0 0
0 0 0
0 0 0
0 0 0
0 0 0
0 0 0
0 0 0
20 7 20
105 92 105
93 82 93
105 92 105
127 114 127
105 83 105
94 69 94
86 58 86
90 62 90
82 52 82
89 60 89
87 58 87
86 55 86
88 57 88
92 62 92
95 67 95
101 75 101
96 68 96
96 68 96
96 69 96
103 78 103
98 71 98
95 67 95
93 64 93
92 63 92
100 74 100
103 77 103
101 74 101
105 80 105
107 83 107
112 90 112
120 100 120
122 105 122
132 118 132
153 146 153
73 44 73
27 0 27
40 12 40
5 0 5
4 0 4
0 0 0
0 0 0
0 0 0
0 0 0
0 0 0
0 0 0
0 0 0
0 0 0
0 0 0
0 0 0
22 10 22
91 76 91
88 73 88
105 91 105
112 93 112
106 85 106
93 67 93
80 51 80
87 59 87
83 52 83
88 58 88
88 59 88
91 61 91
95 67 95
94 66 94
98 69 98
107 83 107
98 70 98
97 70 97
102 77 102
102 77 102
96 68 96
94 65 94
92 63 92
93 64 93
98 72 98
104 80 104
100 74 100
105 81 105
111 89 111
109 85 109
115 93 115
120 101 120
130 115 130
157 151 157
98 74 98
29 1 29
41 12 41
6 0 6
4 0 4
0 0 0
0 0 0
0 0 0
0 0 0
0 0 0
0 0 0
0 0 0
0 0 0
0 0 0
1 0 1
19 9 19
71 53 71
64 41 64
97 79 97
96 72 96
88 60 88
101 76 101
83 53 83
86 57 86
86 56 86
91 62 91
94 67 94
95 67 95
100 75 100
99 73 99
100 72 100
106 82 106
99 72 99
102 77 102
106 82 106
100 74 100
95 67 95
94 65 94
92 63 92
94 65 94
97 70 97
105 81 105
101 75 101
105 80 105
112 90 112
108 84 108
111 88 111
119 100 119
129 114 129
157 151 157
127 112 127
34 4 34
42 13 42
6 0 6
4 0 4
0 0 0
0 0 0
0 0 0
0 0 0
0 0 0
0 0 0
0 0 0
0 0 0
0 0 0
6 2 6
22 15 22
92 79 92
59 33 59
89 66 89
104 83 104
95 69 95
97 71 97
98 71 98
91 63 91
96 68 96
94 66 94
95 67 95
96 68 96
99 72 99
99 72 99
98 70 98
105 81 105
97 69 97
103 78 103
101 75 101
97 70 97
95 67 95
93 64 93
93 64 93
94 65 94
97 69 97
105 81 105
101 75 101
105 80 105
111 88 111
108 85 108
111 88 111
120 101 120
130 115 130
155 147 155
140 129 140
40 10 40
43 13 43
6 0 6
4 0 4
0 0 0
0 0 0
0 0 0
0 0 0
0 0 0
0 0 0
0 0 0
0 0 0
3 0 3
11 5 11
44 41 44
78 61 78
71 45 71
70 42 70
97 74 97
92 66 92
89 60 89
103 78 103
101 76 101
104 80 104
96 69 96
89 60 89
93 64 93
95 68 95
96 68 96
97 69 97
99 73 99
95 67 95
100 74 100
100 74 100
97 69 97
94 66 94
92 62 92
94 65 94
94 65 94
97 69 97
106 82 106
99 72 99
105 80 105
111 88 111
109 85 109
111 89 111
119 100 119
130 114 130
152 144 152
142 132 142
44 14 44
42 13 42
6 0 6
4 0 4
0 0 0
0 0 0
0 0 0
0 0 0
0 0 0
0 0 0
0 0 0
2 0 2
21 15 21
34 29 34
22 14 22
63 44 63
69 45 69
61 32 61
90 66 90
90 64 90
82 51 82
88 60 88
103 78 103
93 64 93
92 63 92
88 58 88
88 57 88
88 58 88
91 61 91
91 62 91
89 59 89
95 67 95
100 74 100
99 73 99
96 68 96
95 67 95
93 64 93
95 67 95
94 66 94
97 70 97
104 80 104
96 68 96
107 83 107
108 84 108
110 88 110
110 87 110
118 98 118
129 114 129
146 136 146
141 130 141
51 21 51
40 13 40
6 0 6
4 0 4
0 0 0
0 0 0
0 0 0
0 0 0
0 0 0
0 0 0
1 0 1
20 12 20
24 16 24
21 13 21
22 16 22
50 32 50
56 30 56
62 32 62
91 69 91
98 75 98
80 50 80
78 47 78
99 73 99
93 64 93
90 60 90
91 62 91
85 52 85
87 56 87
85 52 85
88 58 88
83 50 83
92 62 92
99 73 99
99 72 99
96 68 96
97 69 97
96 68 96
95 67 95
96 68 96
98 71 98
101 74 101
97 70 97
110 87 110
104 79 104
112 90 112
114 92 114
115 95 115
129 113 129
142 130 142
139 127 139
55 26 55
38 13 38
6 0 6
4 0 4
0 0 0
0 0 0
0 0 0
0 0 0
0 0 0
0 0 0
13 5 13
15 6 15
12 6 12
16 9 16
32 19 32
51 30 51
54 28 54
64 35 64
98 76 98
102 80 102
81 50 81
74 43 74
90 63 90
86 58 86
84 54 84
93 64 93
86 54 86
86 56 86
84 52 84
84 51 84
82 49 82
89 59 89
96 69 96
98 72 98
99 72 99
97 69 97
96 68 96
96 68 96
98 71 98
98 72 98
98 71 98
98 71 98
111 89 111
101 76 101
112 90 112
116 95 116
116 97 116
127 111 127
143 133 143
132 118 132
55 28 55
37 13 37
6 0 6
4 0 4
0 0 0
0 0 0
0 0 0
0 0 0
0 0 0
4 1 4
19 11 19
12 4 12
12 4 12
24 16 24
53 38 53
49 27 49
55 26 55
67 37 67
97 74 97
96 71 96
74 43 74
72 41 72
87 59 87
91 64 91
84 55 84
91 61 91
87 55 87
87 56 87
84 51 84
88 56 88
82 49 82
85 53 85
90 61 90
97 71 97
98 70 98
97 70 97
97 70 97
97 70 97
98 72 98
96 69 96
96 69 96
102 78 102
104 80 104
105 82 105
106 82 106
111 88 111
115 96 115
127 112 127
145 135 145
132 120 132
51 24 51
36 13 36
6 0 6
4 0 4
0 0 0
0 0 0
0 0 0
0 0 0
1 0 1
15 7 15
17 8 17
19 7 19
20 11 20
42 30 42
62 44 62
66 40 66
64 33 64
86 60 86
95 72 95
87 60 87
65 35 65
76 45 76
86 58 86
95 70 95
88 60 88
86 56 86
87 56 87
89 59 89
82 49 82
87 56 87
85 53 85
82 49 82
85 53 85
93 65 93
98 72 98
99 73 99
96 69 96
97 70 97
96 68 96
95 67 95
96 69 96
105 82 105
98 72 98
111 89 111
101 74 101
104 80 104
113 92 113
123 106 123
144 134 144
136 125 136
46 19 46
36 13 36
6 0 6
4 0 4
0 0 0
0 0 0
0 0 0
0 0 0
6 2 6
18 10 18
17 8 17
23 11 23
22 12 22
43 32 43
64 43 64
73 46 73
69 39 69
97 74 97
94 70 94
86 61 86
60 31 60
74 44 74
85 55 85
95 69 95
90 63 90
84 54 84
87 57 87
88 57 88
86 53 86
86 54 86
90 59 90
86 54 86
84 52 84
92 62 92
100 74 100
100 73 100
96 69 96
95 67 95
93 64 93
94 66 94
97 71 97
105 81 105
98 72 98
109 87 109
102 77 102
104 80 104
109 87 109
121 103 121
144 134 144
140 131 140
44 17 44
35 13 35
6 0 6
4 0 4
0 0 0
0 0 0
0 0 0
9 3 9
14 6 14
14 5 14
13 5 13
21 9 21
26 11 26
37 18 37
67 42 67
104 87 104
86 63 86
96 77 96
83 65 83
83 63 83
64 36 64
75 45 75
85 54 85
87 57 87
100 75 100
95 67 95
92 63 92
93 64 93
94 64 94
109 71 109
97 68 97
105 79 105
94 63 94
93 64 93
103 79 103
104 78 104
95 66 95
90 61 90
94 65 94
97 70 97
101 75 101
99 73 99
111 89 111
98 71 98
98 71 98
109 87 109
114 95 114
122 107 122
152 146 152
149 143 149
35 8 35
35 13 35
6 0 6
4 0 4
0 0 0
0 0 0
0 0 0
14 8 14
9 3 9
16 8 16
20 8 20
21 10 21
20 7 20
43 21 43
64 37 64
77 54 77
74 54 74
79 62 79
80 61 80
76 55 76
69 44 69
77 48 77
81 49 81
80 48 80
99 72 99
112 90 112
107 81 107
105 79 105
106 79 106
123 104 123
128 112 128
120 99 120
101 73 101
101 76 101
106 82 106
98 72 98
96 67 96
94 66 94
96 69 96
96 68 96
99 72 99
109 87 109
105 81 105
95 68 95
97 71 97
103 79 103
114 95 114
125 111 125
149 143 149
106 88 106
30 2 30
34 13 34
6 0 6
4 0 4
0 0 0
0 0 0
0 0 0
5 1 5
12 4 12
9 3 9
16 6 16
19 7 19
19 8 19
51 26 51
62 33 62
64 35 64
80 59 80
80 65 80
74 53 74
71 48 71
66 41 66
81 57 81
83 54 83
81 50 81
93 65 93
119 98 119
125 107 125
118 98 118
121 102 121
122 103 122
116 97 116
133 119 133
104 79 104
104 81 104
101 74 101
99 72 99
106 81 106
101 74 101
95 67 95
97 69 97
106 82 106
110 88 110
104 81 104
96 69 96
105 83 105
112 92 112
118 101 118
134 123 134
148 142 148
59 31 59
25 0 25
34 13 34
6 0 6
4 0 4
0 0 0
0 0 0
0 0 0
0 0 0
2 0 2
7 3 7
12 4 12
23 9 23
28 13 28
55 30 55
63 37 63
60 31 60
76 54 76
94 81 94
79 56 79
71 46 71
68 38 68
69 38 69
79 48 79
79 48 79
92 66 92
90 62 90
103 77 103
111 87 111
121 101 121
117 96 117
135 123 135
131 117 131
102 77 102
107 83 107
105 81 105
107 84 107
108 86 108
103 78 103
100 74 100
107 83 107
109 86 109
114 95 114
104 81 104
105 82 105
104 82 104
113 94 113
123 107 123
148 142 148
149 145 149
42 15 42
16 0 16
34 13 34
6 0 6
4 0 4
0 0 0
0 0 0
0 0 0
0 0 0
0 0 0
0 0 0
18 10 18
26 13 26
38 23 38
63 37 63
69 41 69
64 36 64
72 50 72
81 63 81
60 34 60
59 29 59
71 42 71
80 48 80
80 50 80
77 46 77
75 43 75
75 44 75
86 55 86
110 85 110
110 87 110
102 75 102
122 105 122
121 103 121
89 58 89
97 72 97
98 72 98
104 80 104
106 83 106
111 89 111
115 95 115
114 94 114
113 93 113
111 90 111
117 99 117
111 90 111
111 91 111
125 110 125
145 136 145
154 150 154
81 59 81
21 0 21
9 0 9
34 13 34
6 0 6
3 0 3
0 0 0
0 0 0
0 0 0
0 0 0
0 0 0
0 0 0
14 6 14
28 15 28
42 25 42
68 43 68
87 61 87
85 57 85
86 60 86
75 48 75
63 35 63
60 33 60
69 41 69
82 52 82
78 48 78
73 42 73
69 38 69
74 42 74
87 57 87
96 67 96
106 81 106
130 114 130
124 107 124
109 85 109
96 67 96
91 62 91
89 58 89
98 73 98
107 85 107
118 99 118
112 91 112
115 96 115
115 96 115
124 108 124
121 105 121
117 99 117
129 115 129
151 144 151
157 155 157
139 133 139
42 17 42
15 0 15
6 0 6
33 13 33
6 0 6
3 0 3
0 0 0
0 0 0
0 0 0
0 0 0
0 0 0
0 0 0
18 9 18
35 18 35
66 50 66
91 75 91
88 64 88
84 57 84
67 39 67
62 31 62
71 39 71
70 38 70
93 66 93
87 59 87
81 51 81
73 41 73
71 40 71
85 55 85
86 55 86
91 60 91
101 74 101
123 106 123
126 109 126
106 82 106
97 70 97
87 56 87
83 50 83
111 90 111
118 99 118
116 96 116
113 93 113
110 89 110
123 107 123
128 113 128
134 122 134
152 146 152
159 156 159
168 169 168
162 162 162
53 28 53
15 0 15
14 0 14
4 0 4
33 12 33
7 0 7
3 0 3
0 0 0
0 0 0
0 0 0
0 0 0
0 0 0
0 0 0
27 14 27
66 53 66
116 109 116
107 94 107
76 50 76
73 48 73
66 40 66
89 68 89
90 67 90
97 73 97
79 47 79
88 56 88
83 52 83
80 50 80
82 53 82
82 51 82
91 62 91
87 53 87
92 61 92
101 76 101
113 91 113
113 91 113
106 81 106
96 69 96
94 65 94
110 87 110
117 97 117
113 93 113
107 84 107
117 98 117
129 116 129
136 124 136
157 153 157
163 161 163
165 166 165
155 155 155
62 38 62
14 0 14
12 0 12
12 0 12
4 0 4
32 12 32
7 0 7
3 0 3
0 0 0
0 0 0
0 0 0
0 0 0
0 0 0
0 0 0
31 17 31
119 81 119
134 104 134
110 102 110
76 59 76
75 53 75
83 58 83
119 84 119
102 78 102
120 84 120
73 39 73
81 50 81
88 57 88
84 51 84
83 54 83
83 53 83
91 62 91
81 47 81
91 60 91
91 60 91
103 77 103
112 90 112
107 82 107
115 94 115
110 87 110
125 109 125
111 89 111
110 90 110
114 95 114
123 108 123
135 123 135
151 145 151
158 155 158
121 107 121
86 63 86
68 47 68
26 5 26
9 0 9
13 0 13
12 0 12
4 0 4
31 12 31
7 0 7
3 0 3
0 0 0
0 0 0
0 0 0
0 0 0
0 0 0
0 0 0
62 51 62
135 136 135
88 81 88
106 102 106
84 70 84
80 57 80
107 88 107
138 73 138
129 74 129
101 77 101
89 61 89
79 49 79
90 62 90
87 56 87
89 59 89
79 49 79
94 66 94
107 81 107
94 65 94
90 58 90
100 73 100
110 86 110
106 81 106
130 116 130
127 111 127
116 96 116
117 98 117
112 91 112
120 103 120
138 127 138
157 153 157
116 99 116
73 45 73
64 36 64
53 27 53
27 8 27
8 0 8
8 0 8
11 0 11
13 0 13
3 0 3
31 11 31
8 0 8
3 0 3
0 0 0
0 0 0
0 0 0
1 0 1
2 0 2
4 0 4
98 52 98
60 42 60
103 51 103
62 49 62
100 84 100
106 91 106
120 75 120
120 101 120
117 81 117
128 73 128
100 76 100
90 64 90
94 68 94
79 49 79
82 50 82
82 53 82
100 75 100
102 76 102
95 66 95
95 66 95
96 67 96
103 78 103
81 49 81
89 60 89
106 83 106
124 107 124
130 115 130
133 119 133
118 101 118
92 67 92
72 44 72
68 39 68
64 36 64
56 30 56
35 14 35
9 0 9
7 0 7
8 0 8
9 0 9
16 0 16
3 0 3
30 11 30
8 0 8
3 0 3
0 0 0
0 0 0
0 0 0
0 0 0
0 0 0
0 0 0
5 0 5
5 0 5
10 2 10
32 14 32
56 34 56
61 35 61
70 42 70
71 41 71
81 51 81
80 48 80
82 51 82
91 64 91
104 79 104
89 62 89
83 53 83
91 63 91
85 54 85
107 83 107
101 75 101
96 67 96
94 65 94
106 81 106
78 45 78
79 47 79
87 59 87
78 48 78
75 44 75
73 42 73
69 39 69
65 35 65
65 37 65
63 35 63
57 31 57
44 20 44
9 0 9
6 0 6
8 0 8
8 0 8
9 0 9
19 0 19
4 0 4
30 11 30
8 0 8
3 0 3
0 0 0
0 0 0
0 0 0
0 0 0
0 0 0
0 0 0
1 0 1
22 7 22
40 25 40
54 40 54
74 57 74
76 56 76
95 80 95
119 102 119
132 118 132
142 111 142
157 115 157
113 93 113
93 67 93
79 49 79
71 42 71
91 63 91
80 48 80
98 71 98
101 75 101
94 65 94
103 79 103
97 71 97
103 79 103
106 83 106
83 54 83
72 41 72
70 40 70
68 37 68
66 36 66
63 35 63
64 37 64
61 35 61
50 25 50
19 3 19
4 0 4
6 0 6
7 0 7
7 0 7
8 0 8
19 0 19
4 0 4
32 10 32
8 0 8
3 0 3
0 0 0
0 0 0
0 0 0
0 0 0
0 0 0
0 0 0
7 0 7
31 14 31
152 93 152
116 112 116
104 96 104
85 67 85
86 67 86
104 84 104
101 83 101
137 106 137
142 92 142
104 80 104
91 64 91
83 54 83
68 39 68
88 59 88
77 45 77
99 73 99
103 77 103
101 74 101
91 63 91
76 45 76
82 52 82
108 86 108
81 52 81
71 41 71
70 40 70
68 39 68
62 34 62
63 35 63
62 35 62
56 31 56
42 20 42
7 0 7
5 0 5
6 0 6
7 0 7
7 0 7
9 0 9
19 0 19
5 0 5
35 12 35
8 0 8
3 0 3
0 0 0
0 0 0
0 0 0
0 0 0
0 0 0
0 0 0
2 0 2
31 14 31
89 77 89
132 130 132
110 65 110
76 57 76
70 42 70
76 47 76
104 61 104
101 77 101
124 107 124
112 90 112
92 63 92
93 66 93
81 55 81
82 54 82
77 45 77
92 63 92
91 62 91
101 75 101
94 68 94
84 54 84
76 45 76
84 55 84
76 46 76
72 43 72
68 39 68
63 34 63
62 34 62
60 33 60
60 34 60
49 26 49
30 11 30
6 0 6
6 0 6
6 0 6
6 0 6
8 0 8
9 0 9
19 0 19
4 0 4
30 11 30
10 0 10
3 0 3
0 0 0
0 0 0
0 0 0
0 0 0
0 0 0
0 0 0
0 0 0
27 13 27
42 25 42
130 128 130
125 118 125
102 87 102
78 52 78
85 58 85
100 76 100
116 97 116
102 77 102
101 75 101
89 60 89
92 66 92
83 57 83
78 51 78
76 44 76
86 56 86
89 60 89
95 67 95
90 62 90
87 58 87
87 59 87
87 59 87
75 45 75
72 43 72
70 41 70
63 34 63
61 34 61
58 32 58
56 31 56
45 22 45
16 2 16
5 0 5
4 0 4
6 0 6
7 0 7
8 0 8
9 0 9
18 0 18
3 0 3
29 11 29
11 0 11
3 0 3
0 0 0
0 0 0
0 0 0
0 0 0
0 0 0
0 0 0
0 0 0
21 10 21
37 20 37
75 60 75
111 100 111
97 80 97
91 69 91
90 65 90
96 72 96
102 78 102
87 58 87
98 72 98
94 67 94
91 63 91
78 49 78
70 42 70
74 42 74
81 50 81
88 59 88
92 64 92
87 58 87
83 54 83
84 55 84
79 50 79
78 49 78
73 45 73
68 39 68
65 36 65
60 33 60
56 30 56
52 29 52
41 20 41
10 0 10
5 0 5
4 0 4
5 0 5
7 0 7
7 0 7
8 0 8
17 0 17
3 0 3
28 11 28
13 0 13
3 0 3
0 0 0
0 0 0
0 0 0
0 0 0
0 0 0
0 0 0
0 0 0
22 11 22
36 19 36
67 50 67
90 74 90
104 88 104
102 83 102
91 68 91
87 61 87
95 72 95
86 58 86
101 77 101
85 56 85
75 44 75
74 43 74
61 33 61
73 42 73
78 47 78
87 58 87
87 57 87
82 52 82
86 58 86
84 55 84
86 58 86
74 44 74
67 38 67
65 36 65
64 35 64
59 31 59
55 29 55
49 27 49
38 18 38
8 0 8
5 0 5
5 0 5
5 0 5
7 0 7
7 0 7
8 0 8
16 0 16
3 0 3
27 11 27
14 0 14
3 0 3
0 0 0
0 0 0
0 0 0
0 0 0
0 0 0
0 0 0
0 0 0
23 12 23
37 19 37
77 62 77
82 64 82
120 108 120
100 81 100
95 73 95
86 60 86
101 79 101
96 73 96
71 41 71
70 39 70
71 40 71
71 39 71
59 32 59
72 40 72
79 49 79
81 51 81
90 62 90
83 54 83
92 65 92
83 55 83
86 60 86
67 37 67
67 38 67
65 36 65
63 36 63
60 33 60
54 29 54
48 27 48
38 19 38
5 0 5
5 0 5
4 0 4
5 0 5
7 0 7
7 0 7
9 0 9
16 0 16
3 0 3
26 10 26
15 0 15
3 0 3
0 0 0
0 0 0
0 0 0
0 0 0
0 0 0
0 0 0
0 0 0
23 12 23
37 19 37
84 70 84
94 78 94
136 128 136
104 88 104
108 92 108
119 106 119
95 73 95
64 34 64
66 37 66
67 37 67
69 39 69
66 36 66
57 31 57
67 36 67
79 48 79
79 49 79
87 58 87
86 58 86
88 60 88
85 57 85
85 58 85
70 41 70
65 36 65
62 34 62
62 34 62
61 35 61
54 29 54
48 26 48
36 17 36
4 0 4
5 0 5
4 0 4
4 0 4
7 0 7
7 0 7
8 0 8
15 0 15
3 0 3
26 10 26
15 0 15
3 0 3
0 0 0
0 0 0
0 0 0
0 0 0
0 0 0
0 0 0
0 0 0
16 6 16
36 18 36
104 96 104
121 114 121
142 140 142
126 118 126
113 101 113
74 50 74
59 32 59
60 33 60
62 34 62
65 35 65
66 38 66
59 32 59
59 31 59
66 37 66
74 42 74
79 48 79
89 60 89
85 56 85
85 58 85
82 53 82
87 61 87
70 41 70
67 39 67
63 36 63
61 34 61
59 33 59
55 30 55
46 23 46
28 13 28
4 0 4
4 0 4
4 0 4
4 0 4
7 0 7
6 0 6
8 0 8
14 0 14
3 0 3
26 10 26
16 0 16
3 0 3
0 0 0
0 0 0
0 0 0
0 0 0
0 0 0
0 0 0
0 0 0
0 0 0
0 0 0
0 0 0
0 0 0
0 0 0
0 0 0
0 0 0
0 0 0
0 0 0
0 0 0
0 0 0
0 0 0
0 0 0
0 0 0
0 0 0
0 0 0
0 0 0
0 0 0
0 0 0
0 0 0
0 0 0
0 0 0
0 0 0
0 0 0
0 0 0
0 0 0
0 0 0
0 0 0
0 0 0
0 0 0
0 0 0
0 0 0
0 0 0
0 0 0
0 0 0
0 0 0
0 0 0
0 0 0
0 0 0
0 0 0
0 0 0
0 0 0
0 0 0
0 0 0
