P3 
50 50 
255
0 0 0
0 0 0
0 0 0
0 0 0
0 0 0
0 0 0
0 0 0
0 0 0
0 0 0
0 0 0
0 0 0
0 0 0
0 0 0
0 0 0
0 0 0
0 0 0
0 0 0
0 0 0
0 0 0
0 0 0
0 0 0
0 0 0
0 0 0
0 0 0
0 0 0
0 0 0
0 0 0
0 0 0
0 0 0
0 0 0
0 0 0
0 0 0
0 0 0
0 0 0
0 0 0
0 0 0
0 0 0
0 0 0
0 0 0
0 0 0
0 0 0
0 0 0
0 0 0
0 0 0
0 0 0
0 0 0
0 0 0
0 0 0
0 0 0
0 0 0
0 0 0
5 0 5
12 1 12
4 0 4
3 0 3
4 0 4
9 0 9
6 0 6
10 1 10
4 0 4
5 0 5
6 0 6
6 0 6
6 0 6
5 0 5
4 0 4
5 0 5
6 0 6
10 0 10
14 1 14
17 3 17
19 5 19
19 4 19
17 3 17
12 1 12
8 0 8
5 0 5
2 0 2
1 0 1
1 0 1
0 0 0
0 0 0
0 0 0
0 0 0
0 0 0
0 0 0
0 0 0
0 0 0
0 0 0
0 0 0
0 0 0
0 0 0
0 0 0
0 0 0
0 0 0
0 0 0
0 0 0
0 0 0
0 0 0
0 0 0
0 0 0
4 0 4
11 1 11
4 0 4
2 0 2
7 0 7
7 0 7
7 0 7
10 1 10
4 0 4
6 0 6
6 0 6
5 0 5
8 0 8
20 3 20
33 13 33
45 24 45
57 37 57
70 51 70
84 66 84
100 86 100
111 99 111
116 105 116
112 100 112
99 84 99
85 68 85
70 51 70
51 31 51
34 16 34
14 1 14
2 0 2
0 0 0
0 0 0
0 0 0
0 0 0
0 0 0
0 0 0
0 0 0
0 0 0
0 0 0
0 0 0
0 0 0
0 0 0
0 0 0
0 0 0
0 0 0
0 0 0
0 0 0
0 0 0
0 0 0
0 0 0
4 0 4
11 1 11
3 0 3
2 0 2
7 0 7
7 0 7
9 0 9
11 1 11
6 0 6
5 0 5
8 0 8
22 4 22
47 25 47
86 69 86
119 107 119
133 124 133
137 128 137
142 135 142
148 141 148
157 151 157
160 155 160
161 157 161
163 159 163
161 157 161
156 149 156
149 141 149
146 138 146
137 129 137
91 74 91
42 21 42
15 2 15
1 0 1
0 0 0
0 0 0
0 0 0
0 0 0
0 0 0
0 0 0
0 0 0
0 0 0
0 0 0
0 0 0
0 0 0
0 0 0
0 0 0
0 0 0
0 0 0
0 0 0
0 0 0
0 0 0
4 0 4
11 1 11
3 0 3
3 0 3
9 0 9
6 0 6
8 0 8
13 1 13
8 0 8
15 1 15
42 20 42
89 69 89
125 112 125
134 124 134
139 129 139
138 126 138
130 115 130
129 114 129
133 118 133
140 126 140
146 134 146
152 141 152
150 139 150
158 149 158
161 153 161
155 145 155
158 150 158
166 160 166
159 152 159
139 130 139
74 54 74
31 11 31
3 0 3
0 0 0
0 0 0
0 0 0
0 0 0
0 0 0
0 0 0
0 0 0
0 0 0
0 0 0
0 0 0
0 0 0
0 0 0
0 0 0
0 0 0
0 0 0
0 0 0
0 0 0
4 0 4
11 1 11
3 0 3
4 0 4
10 0 10
5 0 5
8 0 8
18 1 18
23 5 23
61 38 61
120 105 120
136 124 136
128 112 128
119 100 119
116 95 116
125 108 125
126 108 126
129 112 129
134 117 134
137 120 137
139 124 139
143 128 143
144 130 144
143 128 143
156 146 156
163 154 163
161 151 161
167 159 167
175 170 175
170 164 170
156 148 156
101 85 101
38 18 38
4 0 4
0 0 0
0 0 0
0 0 0
0 0 0
0 0 0
0 0 0
0 0 0
0 0 0
0 0 0
0 0 0
0 0 0
0 0 0
0 0 0
0 0 0
0 0 0
0 0 0
4 0 4
12 1 12
4 0 4
5 0 5
9 0 9
5 0 5
12 0 12
33 8 33
75 51 75
131 118 131
145 134 145
135 121 135
112 89 112
119 98 119
120 99 120
124 104 124
127 107 127
130 111 130
132 114 132
132 113 132
130 111 130
134 116 134
140 123 140
139 122 139
143 127 143
155 142 155
161 151 161
166 156 166
176 169 176
181 176 181
183 179 183
171 166 171
118 105 118
33 16 33
1 0 1
0 0 0
0 0 0
0 0 0
0 0 0
0 0 0
0 0 0
0 0 0
0 0 0
0 0 0
0 0 0
0 0 0
0 0 0
0 0 0
0 0 0
0 0 0
5 0 5
12 1 12
4 0 4
7 0 7
8 0 8
7 0 7
27 4 27
68 40 68
120 102 120
143 131 143
129 111 129
125 106 125
117 94 117
120 99 120
118 95 118
119 97 119
121 99 121
124 103 124
128 107 128
127 105 127
123 99 123
125 102 125
131 109 131
131 109 131
132 111 132
139 120 139
151 136 151
156 143 156
160 147 160
165 155 165
177 171 177
186 183 186
170 165 170
117 106 117
23 8 23
0 0 0
0 0 0
0 0 0
0 0 0
0 0 0
0 0 0
0 0 0
0 0 0
0 0 0
0 0 0
0 0 0
0 0 0
0 0 0
0 0 0
0 0 0
5 0 5
12 1 12
4 0 4
9 0 9
8 0 8
18 0 18
55 26 55
106 82 106
136 120 136
134 118 134
122 101 122
120 97 120
115 90 115
116 92 116
113 88 113
114 89 114
114 88 114
117 91 117
120 96 120
123 99 123
123 99 123
122 98 122
125 101 125
124 99 124
124 100 124
129 106 129
134 112 134
141 122 141
148 131 148
151 134 151
158 144 158
171 163 171
175 168 175
167 162 167
93 77 93
11 0 11
0 0 0
0 0 0
0 0 0
0 0 0
0 0 0
0 0 0
0 0 0
0 0 0
0 0 0
0 0 0
0 0 0
0 0 0
0 0 0
0 0 0
5 0 5
12 1 12
5 0 5
11 0 11
11 0 11
40 13 40
97 73 97
130 112 130
144 131 144
127 107 127
117 93 117
113 88 113
111 84 111
110 82 110
107 80 107
110 82 110
115 88 115
113 86 113
114 87 114
118 93 118
119 94 119
121 97 121
124 100 124
121 95 121
120 94 120
122 97 122
121 96 121
124 100 124
133 112 133
136 115 136
144 126 144
147 131 147
157 144 157
161 152 161
138 128 138
44 25 44
1 0 1
0 0 0
0 0 0
0 0 0
0 0 0
0 0 0
0 0 0
0 0 0
0 0 0
0 0 0
0 0 0
0 0 0
0 0 0
0 0 0
6 0 6
12 1 12
5 0 5
11 0 11
23 1 23
65 34 65
115 92 115
134 114 134
128 107 128
129 109 129
113 86 113
113 87 113
113 87 113
108 81 108
106 78 106
108 80 108
114 86 114
115 87 115
112 84 112
114 87 114
115 88 115
120 94 120
125 101 125
119 93 119
114 86 114
114 86 114
114 85 114
116 88 116
129 106 129
128 103 128
128 103 128
139 120 139
139 119 139
166 156 166
160 151 160
101 85 101
11 0 11
1 0 1
3 0 3
0 0 0
0 0 0
0 0 0
0 0 0
0 0 0
0 0 0
0 0 0
0 0 0
0 0 0
0 0 0
0 0 0
6 0 6
12 1 12
7 0 7
13 0 13
39 11 39
103 78 103
132 113 132
140 123 140
126 104 126
122 99 122
113 86 113
113 86 113
114 89 114
107 79 107
106 77 106
108 80 108
111 82 111
109 80 109
112 85 112
115 88 115
112 83 112
114 86 114
116 89 116
115 87 115
114 86 114
118 91 118
113 84 113
111 80 111
118 89 118
125 98 125
124 98 124
126 101 126
130 108 130
138 117 138
155 144 155
119 103 119
25 9 25
2 0 2
4 0 4
0 0 0
0 0 0
0 0 0
0 0 0
0 0 0
0 0 0
0 0 0
0 0 0
0 0 0
0 0 0
0 0 0
6 0 6
12 1 12
8 0 8
20 2 20
62 34 62
124 103 124
136 117 136
127 105 127
125 103 125
118 93 118
112 85 112
111 83 111
112 84 112
106 77 106
105 76 105
106 78 106
109 80 109
109 79 109
107 76 107
112 83 112
111 83 111
112 83 112
116 89 116
114 85 114
111 82 111
115 87 115
113 82 113
111 80 111
118 88 118
117 87 117
118 90 118
117 90 117
114 86 114
131 108 131
146 130 146
152 141 152
57 35 57
3 0 3
1 0 1
0 0 0
0 0 0
0 0 0
0 0 0
0 0 0
0 0 0
0 0 0
0 0 0
0 0 0
0 0 0
0 0 0
6 0 6
12 1 12
9 0 9
25 3 25
86 61 86
134 114 134
138 118 138
121 95 121
120 96 120
115 89 115
115 89 115
111 83 111
111 83 111
106 77 106
105 75 105
103 73 103
107 77 107
102 69 102
109 79 109
116 89 116
109 79 109
109 79 109
112 85 112
111 82 111
109 79 109
112 83 112
110 78 110
106 72 106
114 83 114
112 80 112
112 80 112
118 90 118
110 80 110
121 96 121
137 118 137
136 120 136
94 75 94
13 1 13
3 0 3
0 0 0
0 0 0
0 0 0
0 0 0
0 0 0
0 0 0
0 0 0
0 0 0
0 0 0
0 0 0
0 0 0
6 0 6
12 1 12
10 0 10
37 10 37
113 93 113
151 136 151
142 123 142
120 95 120
117 91 117
114 88 114
112 85 112
108 78 108
108 79 108
102 72 102
100 70 100
102 72 102
101 70 101
105 74 105
107 77 107
105 73 105
102 70 102
104 72 104
106 76 106
106 76 106
107 77 107
113 84 113
109 78 109
106 72 106
107 73 107
111 77 111
108 74 108
115 85 115
111 81 111
109 80 109
122 99 122
124 103 124
129 114 129
42 19 42
6 0 6
0 0 0
0 0 0
0 0 0
0 0 0
0 0 0
0 0 0
0 0 0
0 0 0
0 0 0
0 0 0
0 0 0
6 0 6
12 1 12
13 0 13
54 27 54
125 105 125
147 130 147
134 112 134
121 95 121
115 88 115
113 86 113
112 84 112
107 77 107
110 81 110
104 74 104
98 66 98
98 66 98
96 64 96
105 75 105
99 66 99
102 69 102
102 69 102
101 68 101
101 69 101
105 73 105
109 78 109
113 84 113
110 79 110
106 72 106
105 71 105
107 72 107
103 68 103
110 79 110
114 83 114
109 78 109
114 87 114
136 115 136
126 108 126
85 64 85
16 2 16
0 0 0
0 0 0
0 0 0
0 0 0
0 0 0
0 0 0
0 0 0
0 0 0
0 0 0
0 0 0
0 0 0
6 0 6
13 1 13
16 0 16
69 44 69
127 105 127
138 117 138
119 92 119
116 89 116
115 89 115
114 87 114
113 86 113
107 77 107
106 76 106
105 76 105
99 68 99
97 65 97
101 70 101
104 73 104
98 64 98
103 71 103
103 70 103
105 72 105
104 73 104
104 71 104
108 76 108
112 82 112
111 79 111
107 74 107
106 72 106
106 70 106
101 65 101
109 75 109
115 82 115
108 75 108
108 78 108
135 114 135
114 95 114
118 101 118
43 20 43
2 0 2
0 0 0
0 0 0
0 0 0
0 0 0
0 0 0
0 0 0
0 0 0
0 0 0
0 0 0
0 0 0
6 0 6
13 1 13
19 0 19
78 53 78
127 105 127
133 111 133
116 88 116
113 85 113
114 86 114
115 89 115
112 84 112
105 75 105
101 70 101
102 71 102
102 72 102
98 66 98
107 78 107
102 71 102
100 66 100
105 73 105
105 73 105
107 75 107
109 80 109
108 76 108
108 76 108
111 81 111
113 83 113
113 81 113
108 75 108
106 70 106
103 67 103
110 76 110
115 81 115
112 78 112
104 74 104
113 88 113
100 82 100
126 111 126
65 41 65
4 0 4
0 0 0
0 0 0
0 0 0
0 0 0
0 0 0
0 0 0
0 0 0
0 0 0
0 0 0
0 0 0
6 0 6
14 2 14
24 1 24
88 64 88
136 116 136
135 113 135
115 87 115
112 83 112
115 88 115
114 87 114
111 82 111
103 72 103
102 70 102
99 68 99
104 74 104
101 69 101
109 81 109
103 71 103
102 68 102
107 76 107
105 73 105
110 78 110
113 85 113
111 80 111
111 81 111
113 84 113
115 85 115
117 88 117
109 76 109
111 78 111
109 76 109
116 83 116
114 80 114
109 74 109
110 79 110
98 70 98
89 66 89
115 98 115
65 39 65
2 0 2
0 0 0
0 0 0
0 0 0
0 0 0
0 0 0
0 0 0
0 0 0
0 0 0
0 0 0
0 0 0
7 0 7
15 2 15
28 4 28
99 76 99
148 132 148
141 122 141
116 89 116
110 80 110
116 89 116
114 88 114
110 82 110
102 71 102
101 70 101
101 71 101
106 77 106
103 72 103
112 84 112
105 73 105
104 71 104
110 79 110
109 77 109
113 82 113
117 89 117
114 84 114
115 86 115
117 88 117
114 83 114
116 85 116
110 79 110
113 81 113
117 85 117
118 86 118
115 81 115
108 74 108
116 86 116
82 52 82
77 51 77
104 83 104
50 22 50
1 0 1
0 0 0
0 0 0
0 0 0
0 0 0
0 0 0
0 0 0
0 0 0
0 0 0
0 0 0
0 0 0
7 0 7
16 2 16
31 6 31
109 87 109
151 135 151
145 128 145
117 89 117
111 82 111
116 89 116
116 89 116
109 81 109
103 71 103
102 71 102
103 73 103
106 77 106
102 71 102
112 84 112
105 73 105
104 71 104
111 79 111
111 80 111
111 78 111
116 86 116
117 87 117
116 87 116
118 88 118
114 83 114
110 77 110
112 81 112
111 79 111
118 85 118
128 99 128
127 98 127
118 87 118
97 64 97
83 51 83
87 58 87
116 97 116
44 16 44
6 1 6
0 0 0
0 0 0
0 0 0
0 0 0
0 0 0
0 0 0
0 0 0
0 0 0
0 0 0
0 0 0
7 0 7
16 3 16
33 8 33
118 98 118
146 129 146
142 124 142
116 88 116
112 83 112
114 87 114
116 90 116
110 81 110
103 71 103
101 70 101
103 72 103
105 76 105
103 71 103
111 82 111
105 74 105
102 69 102
109 78 109
111 80 111
110 77 110
110 77 110
111 80 111
112 82 112
117 87 117
114 82 114
106 71 106
110 76 110
111 77 111
110 75 110
125 95 125
119 88 119
103 70 103
88 54 88
84 51 84
97 68 97
104 81 104
56 33 56
12 4 12
2 0 2
0 0 0
0 0 0
0 0 0
0 0 0
0 0 0
0 0 0
0 0 0
0 0 0
0 0 0
7 0 7
17 3 17
34 9 34
122 104 122
143 126 143
135 114 135
113 84 113
112 83 112
111 83 111
114 88 114
110 81 110
104 73 104
102 71 102
103 73 103
105 75 105
104 73 104
109 79 109
107 75 107
102 68 102
108 76 108
110 78 110
109 76 109
108 75 108
108 74 108
107 74 107
112 80 112
108 73 108
101 64 101
108 72 108
105 67 105
109 74 109
119 86 119
108 73 108
89 53 89
76 40 76
81 46 81
93 64 93
79 52 79
52 27 52
39 26 39
17 9 17
1 0 1
0 0 0
0 0 0
0 0 0
0 0 0
0 0 0
0 0 0
0 0 0
0 0 0
7 0 7
16 3 16
34 9 34
121 104 121
138 120 138
136 116 136
112 83 112
113 84 113
110 82 110
113 85 113
111 83 111
106 76 106
104 74 104
106 77 106
104 74 104
105 75 105
105 74 105
107 76 107
101 67 101
106 74 106
109 77 109
106 74 106
108 76 108
108 74 108
107 73 107
108 75 108
104 69 104
101 63 101
109 74 109
105 67 105
113 78 113
116 83 116
97 61 97
84 48 84
75 39 75
84 51 84
93 65 93
72 44 72
37 14 37
29 19 29
27 14 27
18 8 18
1 0 1
0 0 0
0 0 0
0 0 0
0 0 0
0 0 0
0 0 0
0 0 0
7 0 7
16 3 16
33 8 33
118 100 118
134 115 134
138 119 138
113 85 113
115 87 115
110 81 110
110 81 110
114 87 114
108 79 108
104 74 104
106 76 106
101 70 101
106 77 106
105 73 105
105 74 105
100 67 100
105 72 105
106 74 106
106 73 106
109 77 109
107 74 107
104 70 104
105 70 105
103 66 103
101 62 101
105 69 105
95 57 95
107 73 107
114 82 114
98 61 98
80 44 80
75 40 75
86 52 86
90 61 90
83 57 83
48 22 48
23 11 23
16 5 16
18 7 18
11 3 11
0 0 0
0 0 0
0 0 0
0 0 0
0 0 0
0 0 0
0 0 0
7 0 7
16 2 16
32 8 32
117 99 117
134 115 134
139 120 139
117 92 117
113 86 113
109 81 109
105 75 105
111 82 111
106 75 106
102 71 102
104 73 104
101 69 101
104 73 104
105 74 105
103 71 103
102 68 102
105 73 105
103 70 103
107 75 107
111 80 111
109 76 109
101 65 101
102 66 102
101 63 101
102 64 102
103 67 103
93 56 93
99 64 99
111 80 111
100 64 100
81 43 81
76 38 76
81 45 81
97 69 97
92 66 92
54 25 54
29 14 29
13 1 13
18 6 18
18 8 18
2 0 2
0 0 0
0 0 0
0 0 0
0 0 0
0 0 0
0 0 0
6 0 6
15 2 15
32 8 32
113 95 113
133 115 133
140 123 140
122 99 122
110 82 110
110 82 110
103 72 103
104 73 104
101 68 101
103 71 103
105 74 105
103 71 103
102 69 102
106 74 106
100 65 100
102 68 102
105 72 105
101 67 101
107 74 107
114 84 114
105 71 105
98 61 98
100 63 100
101 63 101
99 62 99
99 64 99
98 64 98
102 67 102
119 90 119
102 66 102
81 41 81
78 38 78
81 44 81
91 58 91
92 62 92
83 53 83
53 29 53
24 7 24
22 8 22
22 10 22
12 2 12
0 0 0
0 0 0
0 0 0
0 0 0
0 0 0
0 0 0
6 0 6
15 2 15
31 8 31
111 94 111
133 115 133
141 126 141
124 102 124
109 81 109
110 83 110
103 73 103
101 70 101
100 67 100
103 72 103
103 73 103
103 71 103
104 72 104
106 75 106
99 64 99
102 68 102
105 73 105
101 67 101
106 73 106
114 85 114
106 72 106
105 71 105
102 66 102
102 65 102
100 64 100
99 65 99
99 65 99
102 67 102
118 89 118
98 62 98
79 41 79
75 36 75
82 43 82
91 56 91
96 67 96
92 64 92
63 36 63
30 11 30
26 10 26
24 11 24
17 6 17
3 0 3
0 0 0
0 0 0
0 0 0
0 0 0
0 0 0
6 0 6
13 1 13
25 3 25
106 89 106
147 135 147
148 135 148
119 96 119
109 81 109
111 84 111
110 83 110
104 74 104
99 67 99
97 63 97
99 66 99
104 74 104
103 71 103
103 70 103
103 70 103
101 66 101
105 73 105
104 70 104
105 73 105
119 91 119
128 103 128
130 106 130
126 99 126
111 79 111
106 74 106
104 71 104
115 83 115
115 84 115
96 62 96
86 55 86
81 49 81
79 49 79
89 58 89
78 51 78
95 68 95
91 65 91
84 58 84
42 12 42
27 9 27
16 4 16
14 3 14
16 5 16
3 0 3
0 0 0
0 0 0
0 0 0
0 0 0
6 0 6
12 1 12
18 0 18
72 50 72
139 126 139
129 109 129
118 94 118
105 75 105
110 83 110
109 81 109
103 72 103
98 65 98
100 68 100
97 63 97
105 73 105
107 76 107
106 74 106
106 73 106
103 69 103
109 78 109
119 90 119
114 82 114
118 88 118
135 113 135
149 131 149
130 105 130
125 98 125
128 105 128
132 108 132
132 106 132
115 86 115
91 59 91
81 50 81
76 47 76
71 42 71
82 51 82
68 39 68
87 62 87
76 48 76
64 37 64
45 15 45
25 8 25
24 10 24
12 2 12
13 2 13
6 0 6
0 0 0
0 0 0
0 0 0
0 0 0
6 0 6
11 1 11
12 0 12
36 13 36
113 95 113
127 106 127
130 112 130
105 77 105
111 85 111
112 86 112
103 73 103
102 71 102
107 78 107
102 71 102
104 72 104
113 85 113
112 83 112
110 80 110
110 79 110
124 97 124
126 99 126
118 88 118
123 94 123
123 93 123
136 112 136
125 97 125
122 93 122
127 101 127
121 91 121
114 82 114
107 77 107
94 66 94
81 51 81
75 46 75
67 37 67
71 38 71
73 41 73
84 56 84
75 45 75
64 34 64
49 19 49
17 1 17
18 7 18
13 1 13
12 3 12
2 0 2
0 0 0
0 0 0
0 0 0
0 0 0
6 0 6
11 0 11
10 0 10
20 1 20
92 73 92
143 130 143
139 125 139
116 92 116
111 85 111
116 92 116
108 80 108
102 71 102
109 79 109
111 81 111
110 80 110
114 85 114
114 87 114
112 82 112
118 91 118
127 100 127
122 94 122
119 91 119
118 88 118
123 94 123
128 101 128
138 116 138
128 102 128
105 70 105
101 65 101
96 58 96
87 50 87
82 47 82
84 50 84
78 46 78
69 38 69
66 31 66
72 38 72
82 55 82
82 56 82
65 35 65
55 22 55
26 6 26
18 5 18
5 0 5
1 0 1
0 0 0
0 0 0
0 0 0
0 0 0
0 0 0
6 0 6
11 0 11
10 0 10
10 0 10
43 22 43
119 104 119
135 119 135
133 116 133
125 104 125
121 99 121
119 94 119
111 84 111
115 88 115
116 90 116
113 84 113
116 90 116
109 81 109
114 86 114
119 93 119
128 103 128
117 88 117
106 73 106
117 87 117
114 83 114
110 77 110
132 109 132
113 82 113
90 53 90
97 62 97
96 61 96
88 50 88
83 46 83
86 50 86
80 44 80
70 37 70
62 27 62
69 36 69
75 42 75
76 44 76
76 44 76
65 35 65
35 15 35
16 5 16
0 0 0
0 0 0
0 0 0
0 0 0
0 0 0
0 0 0
0 0 0
6 0 6
10 0 10
9 0 9
8 0 8
17 1 17
80 60 80
141 130 141
143 130 143
144 131 144
146 133 146
128 107 128
117 91 117
121 97 121
119 94 119
119 93 119
116 91 116
114 87 114
113 85 113
121 96 121
129 107 129
121 93 121
107 71 107
109 76 109
110 77 110
114 84 114
125 98 125
114 84 114
91 54 91
91 53 91
95 60 95
86 49 86
76 40 76
78 42 78
74 38 74
77 43 77
79 41 79
96 60 96
105 72 105
96 64 96
87 57 87
67 36 67
36 15 36
12 2 12
0 0 0
0 0 0
0 0 0
0 0 0
0 0 0
0 0 0
0 0 0
6 0 6
10 0 10
8 0 8
8 0 8
5 0 5
25 6 25
98 80 98
148 137 148
162 155 162
161 153 161
155 145 155
146 133 146
132 114 132
128 106 128
122 97 122
114 88 114
114 86 114
110 81 110
119 93 119
130 109 130
134 112 134
116 86 116
105 70 105
109 75 109
115 86 115
112 80 112
106 71 106
87 49 87
88 50 88
94 59 94
93 59 93
89 53 89
89 51 89
96 58 96
86 48 86
76 37 76
81 43 81
95 61 95
109 79 109
91 62 91
94 70 94
48 25 48
20 5 20
0 0 0
0 0 0
0 0 0
0 0 0
0 0 0
0 0 0
0 0 0
6 0 6
9 0 9
7 0 7
7 0 7
4 0 4
6 0 6
32 12 32
96 74 96
156 149 156
172 168 172
162 154 162
150 138 150
137 121 137
128 106 128
123 98 123
120 93 120
115 87 115
115 87 115
114 85 114
121 95 121
139 118 139
118 89 118
115 86 115
110 76 110
113 84 113
108 75 108
101 63 101
93 54 93
93 57 93
93 57 93
91 56 91
97 60 97
108 73 108
95 59 95
94 60 94
100 70 100
95 66 95
86 58 86
98 69 98
116 92 116
120 100 120
100 83 100
31 14 31
1 0 1
0 0 0
0 0 0
0 0 0
0 0 0
0 0 0
0 0 0
6 0 6
9 0 9
6 0 6
7 0 7
3 0 3
4 0 4
11 0 11
40 15 40
74 49 74
108 87 108
145 132 145
154 142 154
140 125 140
126 104 126
123 99 123
132 109 132
123 95 123
115 86 115
115 85 115
123 95 123
128 102 128
142 124 142
124 100 124
111 80 111
109 77 109
103 69 103
98 60 98
90 49 90
89 52 89
94 54 94
98 62 98
100 64 100
110 76 110
104 68 104
112 78 112
127 101 127
100 70 100
104 82 104
112 94 112
108 87 108
135 119 135
147 142 147
47 30 47
3 0 3
0 0 0
0 0 0
0 0 0
0 0 0
0 0 0
0 0 0
5 0 5
9 0 9
6 0 6
8 0 8
3 0 3
4 0 4
7 0 7
16 1 16
40 14 40
56 29 56
68 39 68
107 82 107
133 115 133
133 115 133
133 113 133
133 110 133
145 125 145
136 111 136
131 105 131
126 99 126
126 100 126
120 91 120
105 71 105
111 80 111
114 84 114
120 91 120
110 76 110
95 55 95
92 53 92
96 58 96
92 54 92
91 55 91
109 74 109
119 68 119
121 92 121
125 99 125
89 57 89
122 101 122
108 89 108
109 95 109
113 98 113
127 115 127
87 75 87
5 0 5
0 0 0
0 0 0
0 0 0
0 0 0
0 0 0
0 0 0
5 0 5
9 0 9
6 0 6
8 0 8
3 0 3
4 0 4
7 0 7
11 1 11
14 0 14
42 18 42
58 30 58
68 38 68
79 48 79
99 70 99
105 76 105
119 92 119
142 120 142
150 130 150
133 109 133
115 85 115
98 63 98
94 57 94
95 57 95
104 70 104
111 79 111
111 80 111
111 79 111
97 59 97
90 50 90
91 54 91
82 46 82
96 60 96
130 80 130
111 77 111
114 84 114
134 108 134
139 119 139
133 115 133
90 65 90
115 102 115
106 86 106
85 68 85
91 80 91
8 0 8
2 0 2
1 0 1
1 0 1
1 0 1
0 0 0
0 0 0
5 0 5
8 0 8
6 0 6
8 0 8
4 0 4
5 0 5
8 0 8
11 1 11
7 0 7
18 1 18
45 20 45
60 32 60
66 35 66
69 37 69
74 40 74
77 42 77
82 46 82
88 50 88
89 52 89
98 63 98
94 58 94
100 64 100
101 66 101
116 86 116
117 87 117
118 88 118
107 71 107
97 59 97
97 59 97
98 62 98
97 61 97
101 64 101
104 68 104
105 71 105
97 61 97
94 58 94
82 47 82
72 38 72
57 26 57
38 16 38
27 11 27
12 0 12
5 0 5
0 0 0
0 0 0
0 0 0
0 0 0
0 0 0
0 0 0
0 0 0
5 0 5
11 0 11
7 0 7
8 0 8
4 0 4
7 0 7
8 0 8
10 0 10
6 0 6
6 0 6
28 9 28
53 25 53
61 31 61
67 36 67
71 38 71
76 42 76
78 42 78
80 43 80
88 51 88
107 76 107
118 88 118
117 87 117
114 82 114
110 75 110
121 91 121
119 88 119
107 73 107
101 62 101
101 62 101
92 52 92
103 65 103
135 104 135
131 99 131
136 112 136
137 116 137
136 116 136
127 106 127
101 77 101
92 71 92
55 27 55
29 3 29
28 12 28
3 0 3
1 0 1
1 0 1
0 0 0
0 0 0
0 0 0
0 0 0
0 0 0
5 0 5
9 0 9
6 0 6
8 0 8
5 0 5
7 0 7
8 0 8
15 3 15
6 0 6
4 0 4
12 0 12
42 18 42
57 29 57
64 34 64
69 37 69
75 41 75
77 43 77
80 44 80
85 49 85
102 70 102
109 78 109
94 59 94
101 66 101
106 71 106
111 78 111
121 90 121
117 84 117
97 58 97
92 54 92
91 50 91
104 66 104
127 93 127
124 92 124
144 121 144
141 121 141
102 71 102
110 84 110
104 79 104
126 108 126
115 93 115
134 84 134
56 40 56
11 0 11
1 0 1
0 0 0
0 0 0
0 0 0
0 0 0
0 0 0
0 0 0
5 0 5
8 0 8
6 0 6
8 0 8
5 0 5
6 0 6
6 0 6
14 1 14
6 0 6
4 0 4
7 0 7
31 10 31
48 22 48
59 30 59
67 36 67
72 39 72
75 41 75
79 44 79
83 48 83
86 51 86
94 59 94
97 62 97
105 71 105
101 66 101
104 70 104
111 79 111
110 76 110
98 61 98
88 51 88
96 58 96
114 79 114
117 85 117
105 70 105
125 98 125
133 111 133
123 98 123
119 93 119
96 66 96
88 58 88
153 89 153
127 116 127
42 23 42
5 0 5
0 0 0
0 0 0
0 0 0
0 0 0
0 0 0
0 0 0
0 0 0
5 0 5
7 0 7
6 0 6
9 0 9
5 0 5
5 0 5
5 0 5
13 1 13
7 0 7
4 0 4
6 0 6
21 3 21
38 16 38
55 27 55
66 36 66
71 38 71
75 41 75
80 45 80
83 49 83
89 55 89
101 69 101
96 62 96
100 66 100
102 68 102
112 81 112
107 74 107
102 67 102
94 57 94
86 49 86
94 56 94
106 70 106
119 87 119
105 70 105
118 89 118
126 101 126
138 117 138
122 97 122
107 79 107
121 97 121
154 146 154
74 54 74
30 12 30
2 0 2
0 0 0
0 0 0
0 0 0
0 0 0
0 0 0
0 0 0
0 0 0
5 0 5
7 0 7
6 0 6
9 0 9
5 0 5
4 0 4
4 0 4
13 1 13
7 0 7
4 0 4
5 0 5
15 0 15
31 11 31
51 24 51
65 35 65
70 38 70
75 41 75
79 44 79
84 50 84
91 57 91
94 60 94
95 61 95
96 62 96
95 60 95
103 69 103
105 72 105
97 61 97
89 52 89
90 54 90
97 59 97
96 58 96
106 71 106
110 77 110
114 85 114
118 91 118
117 89 117
116 89 116
108 81 108
125 103 125
112 94 112
46 24 46
26 10 26
1 0 1
0 0 0
0 0 0
0 0 0
0 0 0
0 0 0
0 0 0
0 0 0
5 0 5
7 0 7
6 0 6
10 0 10
6 0 6
5 0 5
4 0 4
12 1 12
6 0 6
4 0 4
5 0 5
10 0 10
28 9 28
50 24 50
63 33 63
70 39 70
73 39 73
75 40 75
78 43 78
89 54 89
97 64 97
96 62 96
90 55 90
92 58 92
101 68 101
99 65 99
91 54 91
81 44 81
90 54 90
99 62 99
93 55 93
98 61 98
92 55 92
106 75 106
115 86 115
108 78 108
103 73 103
124 102 124
115 92 115
95 73 95
45 22 45
26 10 26
1 0 1
0 0 0
0 0 0
0 0 0
0 0 0
0 0 0
0 0 0
0 0 0
5 0 5
7 0 7
6 0 6
10 0 10
7 0 7
5 0 5
4 0 4
11 1 11
6 0 6
4 0 4
5 0 5
7 0 7
25 7 25
49 24 49
62 33 62
69 39 69
71 39 71
75 40 75
78 42 78
85 51 85
98 66 98
94 60 94
88 53 88
96 63 96
103 72 103
100 67 100
87 50 87
75 40 75
80 43 80
88 49 88
94 57 94
98 62 98
92 55 92
91 55 91
102 70 102
114 88 114
112 86 112
143 126 143
117 96 117
102 81 102
47 24 47
28 11 28
2 0 2
0 0 0
0 0 0
0 0 0
0 0 0
0 0 0
0 0 0
0 0 0
5 0 5
7 0 7
6 0 6
10 0 10
7 0 7
4 0 4
3 0 3
10 1 10
7 0 7
4 0 4
5 0 5
5 0 5
20 3 20
48 23 48
61 33 61
66 36 66
70 38 70
73 40 73
77 42 77
87 53 87
97 66 97
95 62 95
90 55 90
97 64 97
101 69 101
96 62 96
86 50 86
73 39 73
76 41 76
80 42 80
83 46 83
90 54 90
97 63 97
96 62 96
95 62 95
111 84 111
140 124 140
149 135 149
140 126 140
115 98 115
49 26 49
29 11 29
1 0 1
0 0 0
0 0 0
0 0 0
0 0 0
0 0 0
0 0 0
0 0 0
5 0 5
7 0 7
7 0 7
10 0 10
7 0 7
4 0 4
3 0 3
11 1 11
6 0 6
4 0 4
4 0 4
4 0 4
14 0 14
44 20 44
58 30 58
66 36 66
72 39 72
73 40 73
77 43 77
88 55 88
97 65 97
93 59 93
89 54 89
96 63 96
99 67 99
97 63 97
83 47 83
72 39 72
73 39 73
73 37 73
80 44 80
79 44 79
79 43 79
84 50 84
97 67 97
107 81 107
118 96 118
145 132 145
160 153 160
143 136 143
54 33 54
22 5 22
0 0 0
0 0 0
0 0 0
0 0 0
0 0 0
0 0 0
0 0 0
0 0 0
0 0 0
0 0 0
0 0 0
0 0 0
0 0 0
0 0 0
0 0 0
0 0 0
0 0 0
0 0 0
0 0 0
0 0 0
0 0 0
0 0 0
0 0 0
0 0 0
0 0 0
0 0 0
0 0 0
0 0 0
0 0 0
0 0 0
0 0 0
0 0 0
0 0 0
0 0 0
0 0 0
0 0 0
0 0 0
0 0 0
0 0 0
0 0 0
0 0 0
0 0 0
0 0 0
0 0 0
0 0 0
0 0 0
0 0 0
0 0 0
0 0 0
0 0 0
0 0 0
0 0 0
0 0 0
0 0 0
0 0 0
0 0 0
0 0 0
