P3 
50 50 
255
0 0 0
0 0 0
0 0 0
0 0 0
0 0 0
0 0 0
0 0 0
0 0 0
0 0 0
0 0 0
0 0 0
0 0 0
0 0 0
0 0 0
0 0 0
0 0 0
0 0 0
0 0 0
0 0 0
0 0 0
0 0 0
0 0 0
0 0 0
0 0 0
0 0 0
0 0 0
0 0 0
0 0 0
0 0 0
0 0 0
0 0 0
0 0 0
0 0 0
0 0 0
0 0 0
0 0 0
0 0 0
0 0 0
0 0 0
0 0 0
0 0 0
0 0 0
0 0 0
0 0 0
0 0 0
0 0 0
0 0 0
0 0 0
0 0 0
0 0 0
0 0 0
0 0 0
0 0 0
0 0 0
0 0 0
0 0 0
0 0 0
0 0 0
1 0 1
1 0 1
1 0 1
2 0 2
4 0 4
4 0 4
4 0 4
4 0 4
3 0 3
2 0 2
3 0 3
5 0 5
3 0 3
7 0 7
10 2 10
8 1 8
6 0 6
5 0 5
6 0 6
8 0 8
14 0 14
23 4 23
28 7 28
26 5 26
18 1 18
12 0 12
5 0 5
4 0 4
5 0 5
5 0 5
4 0 4
4 0 4
6 0 6
8 1 8
7 0 7
5 0 5
2 0 2
2 0 2
2 0 2
1 0 1
0 0 0
0 0 0
0 0 0
0 0 0
0 0 0
0 0 0
0 0 0
0 0 0
0 0 0
0 0 0
1 0 1
1 0 1
1 0 1
3 0 3
3 0 3
4 0 4
4 0 4
4 0 4
2 0 2
2 0 2
3 0 3
6 0 6
3 0 3
7 0 7
10 2 10
9 1 9
7 0 7
23 3 23
50 26 50
81 58 81
109 90 109
131 116 131
139 125 139
129 112 129
109 88 109
83 58 83
60 33 60
36 12 36
12 0 12
6 0 6
5 0 5
5 0 5
6 0 6
8 1 8
6 0 6
5 0 5
1 0 1
2 0 2
2 0 2
2 0 2
1 0 1
0 0 0
0 0 0
0 0 0
0 0 0
0 0 0
0 0 0
0 0 0
0 0 0
0 0 0
1 0 1
1 0 1
1 0 1
3 0 3
3 0 3
4 0 4
5 0 5
4 0 4
2 0 2
2 0 2
3 0 3
7 0 7
4 0 4
8 0 8
11 2 11
21 1 21
58 32 58
119 103 119
155 147 155
172 168 172
178 174 178
181 176 181
179 174 179
177 171 177
175 168 175
172 165 172
164 154 164
127 110 127
72 45 72
34 9 34
10 0 10
4 0 4
5 0 5
8 1 8
6 0 6
5 0 5
2 0 2
2 0 2
1 0 1
1 0 1
1 0 1
0 0 0
0 0 0
0 0 0
0 0 0
0 0 0
0 0 0
0 0 0
0 0 0
1 0 1
1 0 1
1 0 1
2 0 2
3 0 3
4 0 4
4 0 4
5 0 5
3 0 3
2 0 2
3 0 3
5 0 5
7 0 7
4 0 4
8 0 8
36 11 36
100 78 100
158 149 158
174 169 174
179 175 179
173 166 173
159 145 159
150 133 150
147 130 147
154 140 154
155 141 155
161 149 161
170 161 170
170 162 170
152 138 152
111 87 111
55 26 55
26 6 26
7 0 7
8 1 8
6 0 6
4 0 4
2 0 2
3 0 3
2 0 2
1 0 1
1 0 1
0 0 0
0 0 0
0 0 0
0 0 0
0 0 0
0 0 0
0 0 0
0 0 0
1 0 1
1 0 1
1 0 1
2 0 2
3 0 3
3 0 3
3 0 3
5 0 5
2 0 2
2 0 2
4 0 4
7 0 7
6 0 6
5 0 5
39 14 39
125 109 125
165 158 165
179 174 179
187 185 187
173 164 173
153 138 153
138 116 138
138 116 138
136 116 136
140 121 140
151 135 151
159 145 159
150 134 150
159 146 159
160 147 160
156 142 156
129 109 129
72 43 72
39 13 39
17 1 17
7 0 7
6 0 6
2 0 2
2 0 2
3 0 3
2 0 2
1 0 1
0 0 0
0 0 0
0 0 0
0 0 0
0 0 0
0 0 0
0 0 0
0 0 0
1 0 1
1 0 1
1 0 1
3 0 3
3 0 3
3 0 3
3 0 3
4 0 4
2 0 2
3 0 3
5 0 5
5 0 5
6 0 6
26 7 26
126 111 126
168 161 168
182 179 182
188 186 188
175 168 175
162 150 162
141 120 141
135 111 135
139 118 139
142 123 142
143 124 143
147 131 147
148 131 148
154 139 154
147 129 147
156 143 156
157 143 157
164 153 164
142 125 142
87 59 87
48 19 48
21 1 21
7 0 7
3 0 3
2 0 2
2 0 2
2 0 2
1 0 1
1 0 1
0 0 0
0 0 0
0 0 0
0 0 0
0 0 0
0 0 0
0 0 0
1 0 1
1 0 1
1 0 1
3 0 3
2 0 2
2 0 2
3 0 3
4 0 4
2 0 2
4 0 4
4 0 4
4 0 4
11 0 11
100 82 100
163 156 163
176 172 176
184 181 184
168 159 168
154 139 154
139 117 139
123 95 123
127 101 127
132 109 132
136 115 136
143 124 143
145 128 145
146 128 146
146 129 146
146 129 146
143 124 143
152 137 152
155 139 155
164 152 164
139 120 139
96 70 96
49 21 49
16 0 16
3 0 3
3 0 3
2 0 2
2 0 2
1 0 1
1 0 1
0 0 0
0 0 0
0 0 0
0 0 0
0 0 0
0 0 0
0 0 0
1 0 1
1 0 1
1 0 1
3 0 3
2 0 2
2 0 2
3 0 3
3 0 3
3 0 3
5 0 5
4 0 4
4 0 4
57 33 57
156 148 156
174 168 174
166 157 166
156 141 156
139 118 139
132 107 132
132 108 132
122 94 122
126 100 126
124 97 124
129 104 129
133 111 133
136 115 136
140 120 140
141 121 141
138 117 138
138 117 138
138 119 138
148 131 148
155 139 155
160 145 160
143 124 143
96 70 96
47 19 47
8 0 8
3 0 3
2 0 2
2 0 2
1 0 1
1 0 1
0 0 0
0 0 0
0 0 0
0 0 0
0 0 0
0 0 0
1 0 1
2 0 2
2 0 2
1 0 1
3 0 3
3 0 3
2 0 2
3 0 3
3 0 3
4 0 4
5 0 5
4 0 4
17 1 17
133 119 133
174 169 174
161 149 161
144 125 144
132 108 132
124 97 124
121 93 121
119 91 119
114 83 114
118 89 118
120 91 120
122 97 122
121 93 121
124 98 124
126 100 126
131 107 131
132 109 132
132 108 132
136 116 136
129 104 129
146 127 146
155 139 155
154 138 154
134 113 134
84 55 84
34 10 34
4 0 4
3 0 3
2 0 2
1 0 1
1 0 1
0 0 0
0 0 0
0 0 0
0 0 0
0 0 0
0 0 0
1 0 1
2 0 2
2 0 2
2 0 2
3 0 3
3 0 3
2 0 2
3 0 3
3 0 3
6 0 6
5 0 5
5 0 5
63 39 63
158 149 158
159 148 159
144 126 144
128 104 128
126 101 126
123 98 123
123 95 123
123 95 123
119 91 119
120 91 120
119 91 119
115 86 115
117 87 117
116 85 116
117 88 117
120 92 120
122 96 122
127 103 127
126 101 126
132 109 132
126 100 126
138 115 138
162 147 162
153 136 153
128 106 128
69 40 69
21 2 21
3 0 3
2 0 2
1 0 1
1 0 1
0 0 0
0 0 0
0 0 0
0 0 0
0 0 0
0 0 0
1 0 1
2 0 2
2 0 2
2 0 2
3 0 3
3 0 3
3 0 3
3 0 3
5 0 5
7 0 7
5 0 5
12 0 12
119 102 119
163 153 163
145 127 145
130 106 130
117 88 117
116 86 116
113 82 113
113 82 113
112 81 112
108 75 108
111 78 111
116 85 116
113 83 113
109 76 109
116 86 116
116 87 116
115 84 115
120 92 120
122 95 122
122 95 122
122 94 122
116 86 116
128 101 128
137 113 137
160 146 160
153 138 153
110 88 110
44 18 44
6 0 6
2 0 2
1 0 1
1 0 1
0 0 0
0 0 0
0 0 0
0 0 0
0 0 0
0 0 0
1 0 1
3 0 3
2 0 2
2 0 2
4 0 4
4 0 4
3 0 3
3 0 3
5 0 5
7 0 7
4 0 4
27 5 27
145 133 145
156 142 156
138 117 138
117 88 117
112 81 112
115 84 115
116 86 116
115 84 115
120 91 120
113 83 113
110 78 110
110 77 110
108 75 108
107 73 107
108 74 108
108 75 108
111 79 111
115 85 115
119 91 119
120 92 120
116 87 116
118 88 118
127 100 127
137 113 137
152 134 152
155 139 155
146 132 146
81 55 81
18 1 18
2 0 2
1 0 1
1 0 1
0 0 0
0 0 0
0 0 0
0 0 0
0 0 0
1 0 1
1 0 1
3 0 3
2 0 2
3 0 3
6 0 6
4 0 4
3 0 3
4 0 4
6 0 6
7 0 7
5 0 5
51 24 51
155 145 155
146 128 146
127 101 127
110 79 110
110 78 110
114 83 114
109 76 109
103 67 103
115 84 115
110 77 110
110 77 110
109 75 109
105 70 105
104 70 104
105 70 105
111 78 111
108 74 108
112 80 112
117 88 117
116 86 116
110 77 110
120 92 120
117 87 117
127 100 127
138 115 138
160 145 160
154 140 154
115 96 115
30 9 30
2 0 2
1 0 1
1 0 1
0 0 0
0 0 0
0 0 0
0 0 0
0 0 0
0 0 0
1 0 1
4 0 4
3 0 3
3 0 3
5 0 5
5 0 5
6 0 6
5 0 5
6 0 6
8 0 8
6 0 6
72 44 72
151 138 151
139 119 139
115 86 115
111 80 111
108 74 108
108 75 108
106 72 106
102 67 102
107 74 107
101 65 101
105 70 105
109 75 109
105 70 105
105 70 105
109 76 109
107 73 107
109 76 109
114 83 114
113 81 113
116 86 116
109 75 109
117 87 117
110 77 110
124 96 124
128 101 128
148 129 148
152 136 152
138 124 138
56 31 56
5 0 5
1 0 1
1 0 1
0 0 0
0 0 0
0 0 0
0 0 0
0 0 0
1 0 1
2 0 2
4 0 4
3 0 3
2 0 2
4 0 4
6 0 6
6 0 6
6 0 6
7 0 7
9 0 9
8 0 8
85 57 85
149 134 149
133 110 133
118 90 118
109 77 109
109 75 109
103 68 103
102 66 102
101 65 101
104 70 104
103 68 103
106 72 106
100 64 100
104 70 104
108 74 108
107 74 107
107 73 107
110 79 110
111 79 111
108 74 108
114 83 114
108 74 108
113 81 113
109 75 109
124 95 124
121 92 121
137 115 137
148 130 148
159 149 159
90 68 90
11 0 11
1 0 1
1 0 1
0 0 0
0 0 0
0 0 0
0 0 0
0 0 0
1 0 1
1 0 1
2 0 2
2 0 2
1 0 1
2 0 2
4 0 4
6 0 6
7 0 7
8 0 8
10 0 10
12 0 12
93 64 93
149 134 149
130 106 130
122 97 122
111 80 111
100 64 100
102 67 102
102 67 102
106 72 106
106 73 106
98 60 98
99 62 99
110 78 110
102 66 102
105 71 105
106 73 106
107 75 107
105 71 105
105 71 105
104 70 104
107 73 107
105 70 105
108 74 108
107 72 107
120 91 120
118 87 118
135 111 135
146 127 146
157 145 157
107 89 107
17 1 17
2 0 2
1 0 1
0 0 0
0 0 0
0 0 0
0 0 0
0 0 0
0 0 0
1 0 1
2 0 2
1 0 1
1 0 1
2 0 2
3 0 3
6 0 6
6 0 6
8 0 8
8 0 8
14 0 14
102 74 102
148 133 148
135 113 135
119 91 119
104 69 104
102 66 102
105 70 105
96 58 96
103 67 103
108 75 108
98 60 98
98 59 98
106 73 106
108 75 108
105 71 105
110 79 110
106 73 106
104 71 104
102 67 102
102 66 102
103 68 103
102 67 102
106 72 106
107 73 107
117 87 117
119 88 119
133 109 133
139 117 139
151 137 151
116 98 116
24 6 24
3 0 3
2 0 2
0 0 0
0 0 0
0 0 0
0 0 0
0 0 0
1 0 1
1 0 1
1 0 1
1 0 1
1 0 1
2 0 2
3 0 3
5 0 5
6 0 6
7 0 7
8 0 8
19 0 19
119 96 119
157 144 157
122 95 122
104 69 104
102 66 102
104 69 104
103 66 103
97 59 97
99 62 99
105 71 105
99 61 99
102 65 102
100 62 100
105 71 105
105 72 105
111 81 111
109 78 109
103 68 103
101 66 101
100 64 100
104 70 104
102 67 102
110 77 110
111 79 111
119 89 119
125 97 125
132 108 132
138 116 138
147 131 147
123 107 123
28 9 28
2 0 2
2 0 2
0 0 0
0 0 0
0 0 0
0 0 0
0 0 0
0 0 0
1 0 1
1 0 1
1 0 1
1 0 1
2 0 2
2 0 2
3 0 3
4 0 4
5 0 5
7 0 7
27 3 27
138 121 138
150 134 150
118 88 118
105 71 105
101 64 101
104 68 104
100 63 100
96 58 96
99 62 99
105 70 105
98 59 98
99 60 99
99 62 99
98 60 98
97 59 97
102 66 102
107 75 107
107 74 107
101 64 101
101 63 101
109 76 109
106 71 106
117 87 117
115 84 115
120 91 120
127 99 127
130 105 130
140 119 140
144 126 144
125 109 125
30 11 30
3 0 3
2 0 2
0 0 0
0 0 0
0 0 0
0 0 0
0 0 0
0 0 0
0 0 0
1 0 1
1 0 1
1 0 1
2 0 2
2 0 2
3 0 3
4 0 4
5 0 5
7 0 7
39 10 39
133 114 133
142 123 142
120 92 120
109 77 109
104 69 104
105 69 105
103 69 103
104 71 104
102 67 102
105 71 105
98 60 98
100 62 100
99 61 99
98 61 98
99 61 99
100 63 100
104 71 104
118 90 118
103 68 103
104 69 104
112 80 112
109 75 109
118 89 118
113 82 113
118 88 118
126 98 126
125 97 125
142 123 142
146 127 146
125 108 125
32 13 32
3 0 3
2 0 2
0 0 0
0 0 0
0 0 0
0 0 0
0 0 0
0 0 0
0 0 0
1 0 1
1 0 1
1 0 1
2 0 2
2 0 2
3 0 3
4 0 4
5 0 5
6 0 6
45 16 45
129 108 129
129 105 129
112 81 112
106 72 106
102 66 102
103 66 103
102 68 102
108 77 108
105 72 105
105 69 105
97 58 97
98 60 98
99 61 99
97 59 97
97 59 97
100 63 100
105 71 105
116 87 116
109 77 109
105 70 105
111 79 111
107 71 107
115 84 115
112 80 112
116 85 116
124 95 124
120 90 120
144 124 144
144 125 144
125 109 125
31 12 31
3 0 3
2 0 2
0 0 0
0 0 0
0 0 0
0 0 0
0 0 0
0 0 0
0 0 0
1 0 1
1 0 1
1 0 1
2 0 2
2 0 2
4 0 4
4 0 4
5 0 5
7 0 7
52 21 52
124 102 124
114 85 114
105 71 105
103 68 103
101 64 101
99 62 99
101 67 101
100 65 100
94 55 94
99 60 99
98 59 98
97 58 97
97 60 97
97 59 97
97 58 97
99 62 99
104 69 104
111 80 111
105 71 105
101 64 101
104 68 104
103 67 103
107 73 107
110 76 110
108 73 108
118 87 118
120 90 120
144 125 144
145 127 145
125 109 125
28 8 28
3 0 3
2 0 2
0 0 0
0 0 0
0 0 0
0 0 0
0 0 0
0 0 0
0 0 0
0 0 0
0 0 0
1 0 1
2 0 2
2 0 2
3 0 3
4 0 4
4 0 4
8 0 8
64 35 64
123 101 123
114 86 114
104 71 104
102 67 102
98 61 98
95 57 95
101 68 101
92 53 92
92 52 92
93 51 93
98 59 98
96 57 96
97 60 97
97 59 97
97 59 97
99 62 99
102 67 102
111 80 111
106 72 106
105 70 105
98 61 98
99 62 99
103 66 103
108 73 108
104 67 104
111 77 111
115 84 115
144 124 144
153 136 153
120 103 120
24 4 24
4 0 4
2 0 2
0 0 0
0 0 0
0 0 0
0 0 0
0 0 0
0 0 0
0 0 0
0 0 0
1 0 1
1 0 1
2 0 2
2 0 2
3 0 3
4 0 4
4 0 4
10 0 10
73 45 73
116 91 116
114 86 114
103 70 103
102 67 102
96 59 96
91 53 91
94 59 94
87 47 87
92 52 92
94 54 94
93 54 93
93 55 93
93 54 93
97 59 97
96 59 96
100 63 100
102 67 102
113 83 113
106 73 106
106 73 106
97 59 97
98 60 98
102 64 102
107 71 107
103 66 103
107 71 107
112 79 112
144 125 144
158 143 158
111 92 111
20 1 20
3 0 3
2 0 2
0 0 0
0 0 0
0 0 0
0 0 0
0 0 0
0 0 0
0 0 0
0 0 0
0 0 0
1 0 1
2 0 2
3 0 3
3 0 3
4 0 4
3 0 3
16 0 16
75 49 75
111 86 111
112 83 112
102 69 102
102 68 102
89 52 89
91 54 91
89 50 89
86 46 86
87 47 87
96 58 96
93 53 93
94 57 94
92 53 92
95 56 95
96 58 96
100 63 100
101 65 101
110 80 110
103 70 103
102 67 102
95 57 95
98 60 98
102 65 102
106 70 106
105 68 105
111 77 111
111 78 111
145 125 145
161 147 161
98 73 98
15 0 15
3 0 3
2 0 2
0 0 0
0 0 0
0 0 0
0 0 0
0 0 0
0 0 0
0 0 0
0 0 0
1 0 1
1 0 1
2 0 2
3 0 3
4 0 4
4 0 4
4 0 4
27 7 27
76 50 76
96 67 96
112 84 112
103 70 103
100 66 100
90 54 90
95 62 95
92 55 92
87 48 87
85 44 85
91 52 91
90 50 90
91 52 91
91 51 91
95 56 95
97 60 97
100 64 100
103 69 103
109 79 109
103 69 103
101 65 101
95 58 95
97 59 97
103 66 103
106 70 106
104 67 104
113 80 113
110 76 110
141 120 141
158 144 158
83 54 83
13 0 13
2 0 2
1 0 1
0 0 0
0 0 0
0 0 0
0 0 0
0 0 0
0 0 0
1 0 1
0 0 0
1 0 1
1 0 1
2 0 2
2 0 2
4 0 4
4 0 4
6 0 6
31 12 31
82 57 82
97 68 97
115 86 115
103 70 103
100 67 100
88 52 88
94 60 94
94 58 94
87 49 87
86 46 86
90 52 90
91 52 91
93 56 93
91 53 91
93 55 93
95 57 95
98 62 98
106 74 106
110 80 110
105 71 105
101 66 101
96 58 96
96 58 96
103 67 103
105 69 105
104 67 104
113 80 113
109 76 109
140 119 140
155 140 155
69 37 69
11 0 11
2 0 2
1 0 1
0 0 0
0 0 0
0 0 0
0 0 0
1 0 1
1 0 1
1 0 1
0 0 0
1 0 1
1 0 1
2 0 2
3 0 3
4 0 4
4 0 4
12 0 12
50 28 50
91 66 91
99 71 99
118 91 118
113 85 113
101 69 101
90 56 90
92 58 92
107 76 107
107 76 107
94 59 94
92 54 92
94 57 94
91 51 91
94 55 94
99 62 99
101 67 101
108 78 108
109 79 109
107 76 107
108 75 108
109 77 109
99 63 99
99 62 99
104 68 104
104 68 104
108 72 108
115 82 115
121 91 121
151 133 151
134 114 134
36 10 36
4 0 4
2 0 2
1 0 1
0 0 0
0 0 0
0 0 0
0 0 0
1 0 1
1 0 1
1 0 1
1 0 1
1 0 1
1 0 1
2 0 2
3 0 3
4 0 4
5 0 5
14 0 14
54 31 54
90 67 90
100 72 100
116 89 116
115 86 115
110 82 110
102 71 102
99 67 99
109 80 109
113 85 113
102 70 102
95 60 95
94 56 94
92 54 92
97 58 97
97 59 97
97 60 97
98 62 98
105 73 105
105 73 105
115 86 115
119 92 119
117 89 117
106 72 106
106 71 106
104 69 104
113 80 113
113 81 113
132 107 132
158 143 158
111 85 111
24 2 24
3 0 3
1 0 1
1 0 1
0 0 0
0 0 0
0 0 0
0 0 0
1 0 1
1 0 1
1 0 1
1 0 1
1 0 1
1 0 1
2 0 2
2 0 2
3 0 3
4 0 4
16 2 16
55 32 55
87 60 87
94 65 94
104 74 104
111 82 111
99 68 99
99 68 99
102 71 102
103 72 103
104 72 104
100 68 100
91 56 91
99 64 99
99 63 99
99 62 99
99 62 99
95 57 95
96 60 96
107 76 107
112 83 112
116 87 116
126 102 126
121 95 121
117 89 117
122 95 122
115 84 115
118 88 118
121 91 121
152 134 152
150 135 150
71 42 71
19 3 19
2 0 2
1 0 1
1 0 1
0 0 0
0 0 0
0 0 0
0 0 0
1 0 1
1 0 1
1 0 1
1 0 1
1 0 1
1 0 1
2 0 2
2 0 2
3 0 3
3 0 3
15 2 15
44 21 44
87 60 87
85 55 85
88 54 88
100 69 100
88 53 88
108 78 108
111 83 111
102 70 102
101 68 101
97 62 97
90 54 90
94 57 94
94 56 94
96 58 96
103 67 103
95 58 95
98 63 98
107 77 107
112 83 112
119 91 119
123 98 123
118 90 118
115 86 115
117 87 117
117 85 117
121 91 121
123 93 123
172 162 172
140 124 140
46 19 46
16 3 16
3 0 3
1 0 1
1 0 1
0 0 0
0 0 0
0 0 0
0 0 0
1 0 1
1 0 1
1 0 1
2 0 2
2 0 2
2 0 2
2 0 2
2 0 2
2 0 2
2 0 2
12 1 12
38 14 38
67 34 67
75 42 75
88 57 88
96 64 96
89 56 89
109 79 109
113 86 113
101 69 101
93 57 93
91 53 91
100 67 100
99 64 99
99 63 99
101 66 101
101 65 101
94 57 94
99 64 99
101 67 101
107 75 107
108 77 108
109 76 109
104 71 104
108 75 108
102 67 102
113 80 113
118 87 118
139 114 139
165 153 165
110 90 110
27 6 27
12 1 12
3 0 3
1 0 1
1 0 1
0 0 0
0 0 0
0 0 0
0 0 0
0 0 0
1 0 1
1 0 1
1 0 1
2 0 2
2 0 2
2 0 2
2 0 2
2 0 2
2 0 2
9 0 9
35 12 35
61 28 61
68 34 68
76 43 76
96 64 96
89 57 89
110 82 110
114 87 114
104 74 104
102 73 102
108 80 108
104 72 104
107 75 107
96 61 96
95 59 95
99 64 99
97 61 97
98 63 98
99 63 99
105 71 105
107 75 107
111 79 111
110 78 110
117 88 117
107 73 107
114 82 114
124 96 124
151 133 151
145 130 145
61 36 61
15 2 15
11 1 11
3 0 3
1 0 1
1 0 1
0 0 0
0 0 0
0 0 0
0 0 0
0 0 0
1 0 1
1 0 1
1 0 1
3 0 3
2 0 2
2 0 2
2 0 2
2 0 2
2 0 2
6 0 6
31 9 31
57 26 57
68 34 68
77 43 77
96 65 96
96 65 96
108 81 108
113 86 113
106 77 106
100 70 100
103 72 103
107 77 107
102 70 102
102 69 102
99 65 99
101 66 101
100 65 100
101 66 101
104 69 104
106 73 106
107 74 107
111 79 111
114 84 114
127 101 127
117 88 117
123 94 123
133 109 133
152 136 152
121 102 121
35 12 35
11 1 11
11 0 11
2 0 2
1 0 1
1 0 1
0 0 0
0 0 0
0 0 0
0 0 0
0 0 0
1 0 1
1 0 1
2 0 2
3 0 3
3 0 3
2 0 2
2 0 2
2 0 2
2 0 2
4 0 4
24 6 24
53 22 53
68 34 68
78 44 78
107 79 107
111 88 111
123 104 123
122 101 122
113 88 113
105 76 105
103 73 103
106 79 106
99 66 99
98 65 98
105 75 105
108 77 108
101 66 101
102 67 102
109 76 109
107 75 107
114 84 114
114 84 114
122 94 122
125 98 125
115 84 115
124 97 124
135 113 135
145 130 145
67 38 67
28 7 28
17 4 17
10 0 10
2 0 2
1 0 1
1 0 1
0 0 0
0 0 0
0 0 0
0 0 0
0 0 0
0 0 0
1 0 1
2 0 2
2 0 2
3 0 3
3 0 3
2 0 2
2 0 2
3 0 3
4 0 4
20 1 20
53 21 53
67 33 67
75 43 75
103 76 103
139 129 139
132 117 132
126 68 126
115 91 115
103 73 103
109 82 109
108 81 108
104 75 104
99 67 99
119 96 119
113 86 113
98 63 98
104 70 104
105 72 105
108 76 108
111 81 111
111 81 111
113 83 113
117 89 117
108 77 108
129 105 129
143 125 143
106 83 106
48 21 48
27 10 27
18 6 18
5 0 5
2 0 2
1 0 1
1 0 1
0 0 0
0 0 0
0 0 0
0 0 0
0 0 0
0 0 0
1 0 1
2 0 2
2 0 2
3 0 3
4 0 4
3 0 3
2 0 2
3 0 3
4 0 4
15 0 15
54 23 54
69 36 69
71 41 71
103 79 103
139 111 139
110 87 110
116 95 116
107 81 107
103 74 103
115 91 115
112 87 112
108 81 108
109 81 109
141 128 141
123 101 123
108 76 108
109 78 109
108 77 108
110 80 110
109 79 109
104 73 104
109 81 109
111 82 111
124 101 124
131 111 131
113 90 113
61 32 61
29 9 29
22 9 22
17 5 17
4 0 4
2 0 2
1 0 1
1 0 1
0 0 0
0 0 0
0 0 0
0 0 0
0 0 0
1 0 1
1 0 1
2 0 2
2 0 2
4 0 4
5 0 5
5 0 5
4 0 4
4 0 4
6 0 6
11 0 11
48 20 48
68 39 68
85 60 85
115 96 115
126 114 126
106 83 106
108 86 108
93 64 93
87 55 87
101 73 101
115 94 115
102 74 102
116 91 116
131 115 131
116 92 116
100 70 100
101 72 101
106 78 106
107 78 107
104 74 104
100 69 100
101 71 101
103 74 103
102 74 102
85 55 85
61 31 61
29 4 29
16 4 16
12 2 12
10 0 10
3 0 3
2 0 2
1 0 1
0 0 0
0 0 0
0 0 0
0 0 0
0 0 0
0 0 0
0 0 0
0 0 0
1 0 1
1 0 1
3 0 3
3 0 3
3 0 3
2 0 2
2 0 2
4 0 4
4 0 4
36 13 36
53 23 53
67 37 67
87 59 87
88 58 88
71 35 71
77 42 77
80 45 80
85 50 85
95 62 95
97 66 97
91 57 91
93 60 93
99 68 99
100 69 100
95 61 95
92 58 92
104 75 104
102 72 102
93 61 93
87 54 87
91 59 91
78 43 78
75 41 75
68 36 68
40 14 40
13 1 13
14 2 14
7 0 7
4 0 4
2 0 2
2 0 2
1 0 1
0 0 0
0 0 0
0 0 0
0 0 0
0 0 0
0 0 0
1 0 1
1 0 1
2 0 2
2 0 2
2 0 2
3 0 3
3 0 3
3 0 3
3 0 3
5 0 5
8 0 8
33 16 33
60 37 60
87 66 87
94 74 94
77 48 77
105 83 105
107 84 107
98 70 98
97 69 97
103 75 103
111 87 111
117 97 117
98 69 98
112 88 112
124 105 124
119 97 119
101 70 101
115 90 115
98 68 98
89 57 89
87 56 87
87 56 87
72 37 72
69 37 69
57 26 57
20 1 20
7 0 7
8 0 8
4 0 4
3 0 3
3 0 3
1 0 1
1 0 1
0 0 0
0 0 0
0 0 0
0 0 0
0 0 0
0 0 0
1 0 1
0 0 0
1 0 1
2 0 2
2 0 2
3 0 3
3 0 3
3 0 3
3 0 3
5 0 5
4 0 4
19 3 19
47 22 47
77 53 77
95 75 95
79 49 79
120 104 120
119 101 119
113 92 113
103 79 103
108 84 108
118 99 118
124 108 124
97 67 97
99 69 99
116 93 116
105 77 105
106 78 106
101 72 101
88 55 88
85 52 85
83 50 83
78 46 78
69 36 69
63 32 63
41 15 41
9 0 9
6 0 6
7 0 7
4 0 4
3 0 3
3 0 3
2 0 2
1 0 1
0 0 0
0 0 0
0 0 0
0 0 0
0 0 0
0 0 0
0 0 0
0 0 0
0 0 0
1 0 1
1 0 1
2 0 2
2 0 2
2 0 2
2 0 2
3 0 3
2 0 2
10 0 10
38 14 38
71 46 71
88 62 88
107 85 107
137 126 137
104 81 104
98 71 98
99 73 99
100 72 100
98 71 98
102 75 102
91 58 91
93 60 93
97 67 97
110 84 110
105 77 105
97 66 97
89 56 89
90 59 90
87 54 87
76 42 76
66 34 66
59 30 59
32 11 32
5 0 5
6 0 6
8 0 8
3 0 3
2 0 2
2 0 2
2 0 2
1 0 1
0 0 0
0 0 0
0 0 0
0 0 0
0 0 0
0 0 0
0 0 0
0 0 0
0 0 0
2 0 2
1 0 1
2 0 2
2 0 2
2 0 2
1 0 1
3 0 3
2 0 2
6 0 6
32 12 32
74 50 74
97 74 97
106 84 106
121 104 121
106 83 106
95 67 95
96 68 96
104 78 104
108 83 108
107 82 107
100 71 100
98 68 98
98 68 98
103 75 103
103 74 103
90 57 90
91 58 91
89 57 89
85 53 85
70 36 70
63 32 63
54 27 54
24 5 24
4 0 4
6 0 6
8 0 8
3 0 3
2 0 2
2 0 2
2 0 2
1 0 1
1 0 1
0 0 0
0 0 0
0 0 0
0 0 0
0 0 0
0 0 0
0 0 0
1 0 1
1 0 1
1 0 1
2 0 2
2 0 2
2 0 2
1 0 1
3 0 3
2 0 2
5 0 5
29 10 29
71 48 71
100 79 100
95 70 95
104 80 104
99 73 99
92 63 92
94 65 94
93 63 93
98 70 98
97 68 97
98 70 98
98 69 98
93 61 93
92 60 92
98 68 98
93 62 93
95 64 95
85 52 85
78 45 78
66 34 66
60 30 60
47 21 47
10 0 10
4 0 4
5 0 5
8 0 8
3 0 3
2 0 2
2 0 2
2 0 2
1 0 1
1 0 1
0 0 0
0 0 0
0 0 0
0 0 0
0 0 0
0 0 0
0 0 0
1 0 1
2 0 2
1 0 1
3 0 3
2 0 2
2 0 2
1 0 1
3 0 3
2 0 2
3 0 3
18 2 18
59 35 59
92 69 92
89 62 89
94 66 94
97 71 97
90 60 90
89 58 89
92 61 92
99 71 99
96 66 96
95 65 95
97 67 97
91 59 91
89 56 89
99 71 99
95 64 95
90 57 90
79 44 79
71 37 71
63 31 63
56 28 56
39 15 39
6 0 6
4 0 4
6 0 6
8 0 8
3 0 3
2 0 2
2 0 2
2 0 2
1 0 1
1 0 1
0 0 0
0 0 0
0 0 0
0 0 0
0 0 0
0 0 0
0 0 0
1 0 1
1 0 1
1 0 1
3 0 3
2 0 2
1 0 1
1 0 1
3 0 3
2 0 2
2 0 2
7 0 7
43 19 43
100 79 100
92 67 92
93 66 93
97 71 97
95 68 95
90 59 90
97 68 97
100 73 100
92 61 92
91 59 91
92 60 92
93 63 93
97 66 97
101 73 101
86 53 86
78 42 78
73 37 73
67 35 67
63 32 63
52 26 52
28 7 28
4 0 4
5 0 5
6 0 6
8 0 8
2 0 2
2 0 2
2 0 2
1 0 1
1 0 1
1 0 1
0 0 0
0 0 0
0 0 0
0 0 0
0 0 0
0 0 0
0 0 0
1 0 1
1 0 1
1 0 1
1 0 1
1 0 1
1 0 1
1 0 1
3 0 3
1 0 1
2 0 2
4 0 4
20 0 20
83 58 83
112 94 112
100 75 100
99 75 99
103 79 103
95 66 95
98 70 98
99 72 99
94 64 94
97 67 97
98 69 98
101 73 101
108 82 108
85 50 85
83 48 83
75 40 75
70 36 70
67 35 67
61 31 61
45 20 45
18 2 18
4 0 4
5 0 5
6 0 6
8 0 8
2 0 2
2 0 2
2 0 2
1 0 1
1 0 1
1 0 1
0 0 0
0 0 0
0 0 0
0 0 0
0 0 0
0 0 0
0 0 0
0 0 0
1 0 1
1 0 1
1 0 1
1 0 1
1 0 1
1 0 1
3 0 3
1 0 1
2 0 2
2 0 2
7 0 7
50 17 50
105 85 105
114 97 114
102 78 102
99 73 99
98 71 98
96 68 96
109 86 109
105 81 105
106 81 106
102 74 102
93 61 93
86 51 86
85 50 85
82 48 82
74 39 74
70 37 70
66 34 66
54 26 54
40 17 40
13 0 13
4 0 4
5 0 5
6 0 6
7 0 7
3 0 3
2 0 2
2 0 2
1 0 1
1 0 1
1 0 1
0 0 0
0 0 0
0 0 0
0 0 0
0 0 0
0 0 0
0 0 0
0 0 0
0 0 0
0 0 0
0 0 0
0 0 0
0 0 0
0 0 0
0 0 0
0 0 0
0 0 0
0 0 0
0 0 0
0 0 0
0 0 0
0 0 0
0 0 0
0 0 0
0 0 0
0 0 0
0 0 0
0 0 0
0 0 0
0 0 0
0 0 0
0 0 0
0 0 0
0 0 0
0 0 0
0 0 0
0 0 0
0 0 0
0 0 0
0 0 0
0 0 0
0 0 0
0 0 0
0 0 0
0 0 0
0 0 0
0 0 0
0 0 0
0 0 0
0 0 0
