P3 
50 50 
255
0 0 0
0 0 0
0 0 0
0 0 0
0 0 0
0 0 0
0 0 0
0 0 0
0 0 0
0 0 0
0 0 0
0 0 0
0 0 0
0 0 0
0 0 0
0 0 0
0 0 0
0 0 0
0 0 0
0 0 0
0 0 0
0 0 0
0 0 0
0 0 0
0 0 0
0 0 0
0 0 0
0 0 0
0 0 0
0 0 0
0 0 0
0 0 0
0 0 0
0 0 0
0 0 0
0 0 0
0 0 0
0 0 0
0 0 0
0 0 0
0 0 0
0 0 0
0 0 0
0 0 0
0 0 0
0 0 0
0 0 0
0 0 0
0 0 0
0 0 0
0 0 0
0 0 0
0 0 0
0 0 0
0 0 0
0 0 0
0 0 0
0 0 0
0 0 0
0 0 0
0 0 0
0 0 0
0 0 0
0 0 0
0 0 0
0 0 0
0 0 0
0 0 0
0 0 0
1 0 1
1 0 1
2 0 2
2 0 2
2 0 2
3 0 3
6 0 6
10 0 10
14 0 14
19 3 19
22 5 22
20 5 20
19 3 19
16 1 16
11 0 11
8 0 8
7 0 7
11 0 11
12 0 12
7 0 7
7 0 7
5 0 5
3 0 3
2 0 2
4 0 4
3 0 3
3 0 3
4 0 4
6 0 6
10 1 10
6 0 6
0 0 0
0 0 0
0 0 0
0 0 0
0 0 0
0 0 0
0 0 0
0 0 0
0 0 0
0 0 0
0 0 0
0 0 0
0 0 0
0 0 0
0 0 0
0 0 0
0 0 0
0 0 0
1 0 1
1 0 1
1 0 1
2 0 2
7 0 7
23 7 23
41 22 41
61 42 61
79 61 79
94 78 94
109 96 109
112 100 112
109 96 109
101 86 101
89 69 89
75 53 75
59 36 59
42 20 42
32 10 32
18 0 18
8 0 8
6 0 6
7 0 7
5 0 5
3 0 3
3 0 3
3 0 3
3 0 3
3 0 3
5 0 5
10 1 10
6 0 6
0 0 0
0 0 0
0 0 0
0 0 0
0 0 0
0 0 0
0 0 0
0 0 0
0 0 0
0 0 0
0 0 0
0 0 0
0 0 0
0 0 0
0 0 0
0 0 0
0 0 0
0 0 0
1 0 1
1 0 1
4 0 4
25 8 25
58 38 58
111 100 111
134 127 134
140 133 140
147 141 147
155 151 155
154 148 154
155 150 155
158 154 158
158 152 158
155 148 155
153 147 153
145 137 145
133 123 133
114 99 114
70 48 70
38 16 38
16 1 16
8 0 8
7 0 7
5 0 5
3 0 3
4 0 4
4 0 4
4 0 4
5 0 5
9 1 9
5 0 5
0 0 0
0 0 0
0 0 0
0 0 0
0 0 0
0 0 0
0 0 0
0 0 0
0 0 0
0 0 0
0 0 0
0 0 0
0 0 0
0 0 0
0 0 0
0 0 0
0 0 0
1 0 1
1 0 1
9 0 9
39 19 39
97 82 97
139 133 139
149 143 149
149 142 149
144 134 144
144 134 144
143 132 143
142 130 142
140 127 140
141 128 141
146 135 146
139 125 139
133 119 133
139 126 139
146 136 146
146 136 146
134 121 134
111 94 111
68 44 68
30 8 30
9 0 9
6 0 6
5 0 5
4 0 4
4 0 4
4 0 4
5 0 5
9 1 9
6 0 6
0 0 0
0 0 0
0 0 0
0 0 0
0 0 0
0 0 0
0 0 0
0 0 0
0 0 0
0 0 0
0 0 0
0 0 0
0 0 0
0 0 0
0 0 0
0 0 0
0 0 0
1 0 1
9 0 9
53 33 53
122 112 122
143 136 143
157 152 157
152 145 152
145 134 145
140 127 140
138 125 138
137 124 137
134 119 134
135 120 135
137 122 137
138 123 138
135 119 135
129 110 129
126 108 126
125 107 125
135 119 135
137 121 137
132 116 132
124 108 124
89 68 89
44 21 44
17 1 17
7 0 7
4 0 4
4 0 4
4 0 4
5 0 5
10 1 10
6 0 6
0 0 0
0 0 0
0 0 0
0 0 0
0 0 0
0 0 0
0 0 0
0 0 0
0 0 0
0 0 0
0 0 0
0 0 0
0 0 0
0 0 0
0 0 0
0 0 0
0 0 0
8 0 8
62 46 62
135 129 135
154 150 154
161 158 161
158 152 158
147 137 147
141 129 141
138 125 138
134 119 134
135 120 135
134 117 134
133 116 133
135 117 135
132 114 132
129 110 129
124 103 124
125 105 125
125 105 125
127 107 127
131 112 131
139 123 139
138 123 138
130 115 130
102 83 102
53 30 53
23 2 23
6 0 6
4 0 4
4 0 4
5 0 5
10 1 10
6 0 6
0 0 0
0 0 0
0 0 0
0 0 0
0 0 0
0 0 0
0 0 0
0 0 0
0 0 0
0 0 0
0 0 0
0 0 0
0 0 0
0 0 0
0 0 0
0 0 0
4 0 4
59 45 59
133 128 133
154 151 154
155 150 155
149 141 149
136 122 136
132 117 132
131 115 131
132 116 132
132 116 132
130 113 130
131 114 131
130 112 130
130 111 130
129 110 129
123 102 123
116 92 116
120 97 120
123 101 123
124 102 124
127 106 127
130 111 130
136 120 136
133 117 133
128 113 128
104 87 104
52 28 52
24 4 24
6 0 6
5 0 5
5 0 5
10 1 10
7 1 7
0 0 0
0 0 0
0 0 0
0 0 0
0 0 0
0 0 0
0 0 0
0 0 0
0 0 0
0 0 0
0 0 0
0 0 0
0 0 0
0 0 0
0 0 0
1 0 1
37 21 37
117 109 117
149 145 149
148 142 148
139 127 139
128 111 128
126 109 126
123 105 123
123 105 123
123 104 123
124 105 124
125 105 125
126 106 126
126 106 126
121 99 121
123 102 123
119 96 119
115 90 115
116 90 116
120 96 120
120 95 120
118 93 118
127 105 127
127 108 127
128 108 128
129 112 129
128 114 128
103 85 103
47 24 47
21 3 21
5 0 5
6 0 6
11 1 11
7 1 7
0 0 0
0 0 0
0 0 0
0 0 0
0 0 0
0 0 0
0 0 0
0 0 0
0 0 0
0 0 0
0 0 0
0 0 0
1 0 1
1 0 1
1 0 1
10 0 10
87 75 87
132 125 132
138 128 138
128 113 128
117 97 117
120 101 120
115 94 115
115 94 115
114 92 114
115 92 115
117 94 117
121 99 121
117 94 117
120 97 120
118 93 118
114 88 114
111 85 111
112 85 112
114 87 114
113 86 113
113 86 113
117 91 117
118 94 118
123 101 123
121 99 121
126 107 126
138 123 138
127 113 127
88 68 88
38 15 38
10 0 10
6 0 6
11 1 11
8 1 8
0 0 0
0 0 0
0 0 0
0 0 0
0 0 0
0 0 0
0 0 0
0 0 0
0 0 0
0 0 0
0 0 0
1 0 1
3 0 3
2 0 2
2 0 2
35 18 35
124 117 124
131 121 131
130 117 130
128 113 128
117 99 117
108 86 108
108 85 108
106 80 106
111 87 111
111 86 111
112 87 112
112 86 112
114 88 114
113 86 113
115 89 115
116 91 116
111 84 111
106 76 106
104 73 104
109 80 109
116 90 116
116 89 116
119 95 119
117 93 117
119 95 119
121 98 121
131 113 131
128 111 128
117 101 117
66 43 66
24 4 24
7 0 7
11 1 11
8 1 8
0 0 0
0 0 0
0 0 0
0 0 0
0 0 0
0 0 0
0 0 0
0 0 0
0 0 0
0 0 0
0 0 0
1 0 1
4 0 4
1 0 1
4 0 4
72 57 72
122 112 122
114 98 114
113 94 113
105 82 105
106 84 106
105 81 105
102 75 102
106 79 106
110 85 110
108 82 108
106 78 106
111 85 111
109 81 109
109 81 109
109 81 109
105 75 105
104 72 104
103 72 103
105 74 105
105 74 105
107 76 107
113 85 113
116 90 116
120 96 120
120 97 120
123 100 123
128 109 128
136 121 136
131 116 131
101 83 101
41 17 41
10 0 10
11 1 11
9 1 9
0 0 0
0 0 0
0 0 0
0 0 0
0 0 0
0 0 0
0 0 0
0 0 0
0 0 0
0 0 0
0 0 0
0 0 0
1 0 1
1 0 1
10 0 10
99 87 99
121 109 121
114 98 114
113 95 113
105 83 105
101 75 101
101 75 101
96 66 96
102 73 102
105 76 105
107 79 107
107 80 107
103 74 103
107 79 107
105 75 105
102 71 102
105 74 105
104 73 104
104 73 104
103 70 103
107 78 107
112 84 112
115 86 115
110 81 110
117 91 117
119 95 119
121 98 121
120 98 120
135 118 135
140 126 140
129 116 129
67 45 67
17 0 17
11 1 11
9 1 9
0 0 0
0 0 0
0 0 0
0 0 0
0 0 0
0 0 0
0 0 0
0 0 0
0 0 0
0 0 0
0 0 0
2 0 2
2 0 2
1 0 1
32 14 32
116 106 116
104 87 104
94 70 94
105 82 105
103 80 103
95 67 95
99 71 99
96 65 96
104 76 104
102 72 102
101 72 101
104 76 104
106 78 106
104 74 104
98 65 98
102 71 102
102 70 102
104 73 104
103 71 103
102 69 102
110 81 110
108 78 108
107 75 107
114 86 114
117 91 117
114 88 114
115 89 115
122 99 122
127 108 127
143 130 143
133 120 133
96 80 96
26 5 26
12 1 12
9 1 9
0 0 0
0 0 0
0 0 0
0 0 0
0 0 0
0 0 0
0 0 0
0 0 0
0 0 0
0 0 0
0 0 0
1 0 1
3 0 3
6 0 6
63 45 63
113 100 113
98 78 98
94 70 94
89 61 89
95 67 95
95 67 95
97 68 97
100 71 100
101 72 101
101 71 101
105 76 105
98 66 98
101 71 101
100 68 100
99 65 99
101 69 101
100 67 100
100 67 100
99 65 99
101 68 101
104 72 104
109 79 109
110 79 110
112 83 112
109 79 109
112 84 112
114 88 114
121 98 121
122 101 122
138 123 138
142 130 142
119 106 119
36 15 36
13 1 13
10 1 10
0 0 0
0 0 0
0 0 0
0 0 0
0 0 0
0 0 0
0 0 0
0 0 0
0 0 0
0 0 0
0 0 0
0 0 0
0 0 0
19 3 19
101 88 101
103 85 103
84 59 84
93 68 93
94 69 94
86 56 86
93 63 93
101 73 101
102 75 102
99 68 99
101 72 101
103 74 103
97 65 97
97 64 97
98 65 98
97 63 97
99 65 99
99 65 99
96 61 96
98 64 98
101 68 101
104 72 104
109 78 109
107 75 107
107 76 107
107 76 107
115 88 115
118 94 118
122 99 122
123 102 123
129 110 129
149 139 149
125 111 125
52 30 52
16 1 16
10 1 10
0 0 0
0 0 0
0 0 0
0 0 0
0 0 0
0 0 0
0 0 0
0 0 0
0 0 0
0 0 0
0 0 0
0 0 0
4 0 4
47 31 47
113 102 113
94 76 94
89 67 89
87 61 87
82 52 82
88 59 88
88 57 88
103 77 103
101 72 101
101 72 101
96 64 96
100 69 100
96 63 96
97 63 97
96 61 96
96 61 96
99 66 99
97 62 97
95 60 95
99 65 99
100 67 100
105 73 105
104 71 104
106 74 106
106 75 106
112 84 112
112 84 112
110 83 110
111 84 111
115 91 115
121 100 121
140 126 140
134 122 134
80 60 80
18 2 18
10 2 10
0 0 0
0 0 0
0 0 0
0 0 0
0 0 0
0 0 0
0 0 0
0 0 0
0 0 0
0 0 0
0 0 0
0 0 0
11 0 11
74 60 74
100 85 100
76 56 76
88 67 88
82 54 82
78 48 78
90 61 90
94 64 94
106 82 106
100 73 100
104 77 104
94 62 94
99 67 99
94 60 94
96 63 96
94 58 94
97 62 97
98 65 98
97 63 97
97 62 97
99 66 99
100 67 100
104 73 104
105 73 105
107 75 107
106 75 106
113 85 113
107 77 107
104 74 104
104 75 104
110 84 110
113 91 113
131 115 131
140 129 140
94 75 94
21 3 21
11 2 11
0 0 0
0 0 0
0 0 0
0 0 0
0 0 0
0 0 0
0 0 0
0 0 0
0 0 0
0 0 0
0 0 0
0 0 0
21 8 21
84 73 84
77 57 77
63 40 63
80 57 80
85 58 85
88 59 88
91 61 91
101 73 101
102 74 102
107 81 107
103 76 103
94 61 94
97 65 97
92 58 92
95 61 95
94 59 94
96 61 96
99 65 99
99 66 99
100 67 100
103 71 103
100 67 100
107 77 107
108 78 108
107 75 107
110 81 110
113 84 113
104 73 104
104 73 104
106 76 106
110 84 110
116 94 116
129 112 129
143 134 143
102 85 102
24 5 24
11 2 11
0 0 0
0 0 0
0 0 0
0 0 0
0 0 0
0 0 0
0 0 0
0 0 0
0 0 0
0 0 0
0 0 0
0 0 0
34 24 34
55 39 55
61 37 61
69 43 69
82 59 82
90 66 90
93 65 93
87 55 87
92 59 92
95 64 95
105 79 105
102 74 102
95 63 95
95 62 95
91 56 91
93 58 93
96 62 96
97 62 97
99 66 99
103 71 103
104 72 104
106 76 106
101 69 101
107 78 107
110 79 110
109 78 109
114 86 114
110 81 110
103 71 103
103 73 103
107 77 107
112 86 112
122 101 122
131 115 131
142 131 142
109 93 109
30 9 30
12 2 12
0 0 0
0 0 0
0 0 0
0 0 0
0 0 0
0 0 0
0 0 0
0 0 0
0 0 0
0 0 0
0 0 0
0 0 0
28 18 28
51 34 51
62 37 62
86 65 86
87 63 87
95 69 95
95 67 95
89 59 89
90 58 90
90 58 90
100 71 100
106 79 106
104 76 104
93 59 93
94 61 94
94 61 94
99 67 99
99 65 99
99 67 99
104 73 104
103 71 103
106 75 106
102 70 102
108 78 108
108 77 108
108 78 108
112 83 112
107 77 107
103 71 103
104 74 104
109 80 109
113 86 113
123 103 123
131 115 131
143 132 143
114 99 114
34 12 34
13 2 13
0 0 0
0 0 0
0 0 0
0 0 0
0 0 0
0 0 0
0 0 0
0 0 0
0 0 0
0 0 0
0 0 0
0 0 0
22 8 22
54 35 54
63 38 63
91 72 91
86 62 86
93 67 93
86 56 86
87 56 87
84 51 84
89 55 89
91 57 91
97 67 97
105 79 105
102 72 102
98 66 98
97 65 97
102 72 102
100 68 100
96 62 96
102 70 102
101 68 101
104 73 104
102 70 102
104 73 104
106 74 106
105 72 105
112 83 112
108 78 108
104 72 104
104 72 104
109 79 109
108 81 108
121 100 121
129 111 129
148 138 148
115 100 115
34 12 34
13 2 13
0 0 0
0 0 0
0 0 0
0 0 0
0 0 0
0 0 0
0 0 0
0 0 0
0 0 0
0 0 0
0 0 0
0 0 0
24 7 24
64 44 64
68 44 68
76 51 76
66 36 66
81 53 81
77 45 77
81 49 81
85 52 85
87 54 87
90 57 90
93 61 93
103 76 103
98 67 98
95 62 95
93 59 93
96 62 96
98 65 98
96 61 96
99 65 99
97 62 97
102 69 102
98 64 98
102 69 102
101 67 101
106 73 106
112 84 112
108 77 108
104 73 104
105 75 105
107 78 107
106 79 106
115 93 115
125 106 125
151 142 151
113 98 113
32 10 32
13 2 13
0 0 0
0 0 0
0 0 0
0 0 0
0 0 0
0 0 0
0 0 0
0 0 0
0 0 0
0 0 0
0 0 0
2 0 2
29 12 29
68 46 68
66 40 66
62 36 62
62 32 62
78 48 78
79 48 79
77 44 77
78 44 78
86 52 86
90 57 90
96 65 96
104 78 104
98 67 98
94 60 94
94 60 94
92 58 92
94 60 94
96 60 96
96 61 96
97 62 97
98 64 98
95 60 95
99 65 99
97 61 97
104 71 104
111 82 111
108 77 108
105 75 105
106 77 106
107 79 107
111 85 111
110 86 110
122 103 122
151 142 151
110 93 110
28 7 28
12 2 12
0 0 0
0 0 0
0 0 0
0 0 0
0 0 0
0 0 0
0 0 0
0 0 0
0 0 0
0 0 0
0 0 0
8 3 8
36 15 36
69 44 69
66 40 66
60 32 60
61 32 61
75 44 75
77 45 77
75 43 75
75 42 75
78 44 78
84 51 84
96 66 96
104 77 104
99 69 99
94 61 94
92 57 92
92 57 92
93 59 93
95 60 95
95 59 95
95 60 95
97 62 97
95 59 95
96 61 96
97 60 97
102 68 102
110 80 110
109 79 109
106 76 106
107 78 107
109 81 109
115 90 115
106 80 106
122 104 122
148 139 148
106 89 106
25 4 25
12 2 12
0 0 0
0 0 0
0 0 0
0 0 0
0 0 0
0 0 0
0 0 0
0 0 0
0 0 0
0 0 0
2 0 2
13 5 13
47 24 47
72 48 72
59 32 59
61 31 61
65 37 65
77 47 77
76 44 76
75 42 75
73 40 73
75 41 75
80 47 80
96 67 96
98 68 98
99 69 99
93 60 93
91 56 91
91 55 91
94 59 94
94 58 94
95 60 95
95 59 95
96 60 96
94 58 94
98 64 98
96 59 96
98 63 98
106 75 106
108 79 108
105 75 105
107 78 107
113 87 113
113 88 113
104 79 104
124 106 124
148 138 148
102 85 102
23 3 23
12 2 12
0 0 0
0 0 0
0 0 0
0 0 0
0 0 0
0 0 0
0 0 0
0 0 0
0 0 0
0 0 0
8 2 8
29 10 29
62 37 62
76 51 76
64 36 64
64 35 64
69 40 69
71 43 71
80 49 80
79 47 79
73 39 73
73 39 73
81 48 81
101 76 101
94 64 94
95 63 95
91 57 91
91 57 91
90 55 90
93 59 93
92 56 92
95 61 95
95 60 95
96 60 96
92 56 92
97 63 97
95 59 95
94 58 94
101 68 101
106 76 106
105 75 105
110 82 110
114 87 114
110 83 110
108 84 108
125 108 125
145 135 145
90 69 90
21 2 21
11 2 11
0 0 0
0 0 0
0 0 0
0 0 0
0 0 0
0 0 0
0 0 0
0 0 0
0 0 0
1 0 1
12 4 12
42 20 42
71 46 71
77 52 77
62 34 62
63 33 63
66 36 66
66 38 66
84 56 84
80 47 80
73 39 73
76 42 76
87 55 87
102 78 102
99 71 99
97 65 97
90 56 90
92 59 92
90 55 90
93 58 93
92 56 92
95 61 95
95 60 95
96 61 96
92 56 92
95 61 95
96 60 96
94 58 94
100 66 100
106 75 106
105 75 105
111 83 111
112 85 112
108 81 108
110 87 110
127 109 127
145 135 145
81 59 81
20 2 20
11 2 11
0 0 0
0 0 0
0 0 0
0 0 0
0 0 0
0 0 0
0 0 0
0 0 0
0 0 0
9 2 9
21 5 21
54 30 54
88 64 88
70 43 70
55 28 55
48 21 48
62 37 62
53 24 53
69 40 69
87 60 87
102 77 102
94 65 94
96 68 96
99 72 99
114 89 114
111 86 111
94 62 94
98 67 98
96 63 96
94 61 94
94 60 94
96 63 96
96 62 96
94 58 94
94 59 94
94 59 94
100 65 100
99 65 99
100 66 100
107 77 107
111 84 111
107 78 107
111 84 111
116 92 116
122 102 122
135 120 135
144 136 144
59 37 59
16 1 16
10 2 10
0 0 0
0 0 0
0 0 0
0 0 0
0 0 0
0 0 0
0 0 0
0 0 0
1 0 1
11 3 11
24 5 24
54 28 54
77 51 77
60 35 60
49 25 49
49 24 49
59 33 59
59 31 59
75 48 75
87 60 87
108 85 108
111 87 111
113 88 113
94 63 94
110 83 110
121 97 121
96 64 96
99 68 99
101 71 101
99 67 99
102 71 102
109 81 109
116 91 116
109 80 109
100 67 100
94 59 94
99 64 99
100 67 100
104 72 104
112 86 112
111 84 111
104 74 104
110 83 110
115 92 115
124 105 124
139 126 139
123 110 123
38 16 38
13 1 13
10 2 10
0 0 0
0 0 0
0 0 0
0 0 0
0 0 0
0 0 0
0 0 0
0 0 0
0 0 0
8 0 8
30 8 30
53 27 53
71 47 71
59 33 59
50 25 50
52 26 52
58 29 58
66 37 66
72 44 72
76 48 76
87 59 87
107 83 107
107 82 107
98 68 98
103 73 103
111 84 111
96 63 96
102 72 102
107 79 107
112 87 112
118 95 118
122 100 122
122 101 122
121 98 121
101 70 101
100 68 100
101 68 101
106 76 106
108 79 108
111 84 111
112 86 112
111 83 111
112 86 112
119 98 119
124 106 124
146 137 146
82 62 82
14 0 14
12 1 12
10 2 10
0 0 0
0 0 0
0 0 0
0 0 0
0 0 0
0 0 0
0 0 0
0 0 0
0 0 0
1 0 1
25 6 25
54 26 54
78 52 78
52 26 52
48 24 48
53 29 53
56 28 56
59 28 59
61 28 61
68 36 68
74 43 74
82 55 82
105 82 105
101 73 101
99 69 99
109 81 109
94 61 94
92 57 92
101 69 101
116 92 116
119 96 119
118 94 118
120 97 120
119 95 119
102 71 102
103 73 103
106 75 106
102 69 102
112 85 112
122 99 122
122 99 122
119 95 119
120 96 120
135 119 135
139 125 139
135 124 135
40 17 40
7 0 7
12 1 12
10 2 10
0 0 0
0 0 0
0 0 0
0 0 0
0 0 0
0 0 0
0 0 0
0 0 0
0 0 0
0 0 0
20 4 20
49 22 49
71 44 71
71 44 71
49 23 49
53 28 53
56 29 56
59 28 59
63 30 63
76 44 76
70 41 70
77 48 77
95 67 95
98 69 98
88 56 88
96 65 96
96 63 96
94 60 94
97 64 97
104 75 104
108 80 108
107 78 107
108 79 108
108 79 108
95 61 95
99 66 99
106 75 106
97 62 97
106 76 106
124 103 124
128 108 128
129 109 129
133 116 133
136 121 136
147 138 147
86 67 86
17 1 17
6 0 6
11 1 11
10 2 10
0 0 0
0 0 0
0 0 0
0 0 0
0 0 0
0 0 0
0 0 0
0 0 0
0 0 0
0 0 0
15 2 15
46 19 46
63 35 63
80 55 80
79 55 79
81 58 81
79 55 79
72 42 72
70 38 70
72 40 72
64 36 64
68 37 68
95 65 95
92 60 92
84 50 84
93 62 93
97 65 97
98 66 98
95 62 95
99 68 99
106 77 106
113 86 113
113 87 113
105 75 105
100 68 100
98 64 98
108 78 108
103 70 103
108 78 108
130 109 130
135 117 135
139 123 139
144 131 144
154 147 154
119 105 119
37 15 37
7 0 7
6 0 6
10 0 10
10 1 10
0 0 0
0 0 0
0 0 0
0 0 0
0 0 0
0 0 0
0 0 0
0 0 0
0 0 0
0 0 0
12 0 12
51 26 51
80 58 80
85 62 85
83 58 83
89 66 89
73 44 73
73 41 73
79 47 79
78 47 78
66 34 66
68 35 68
93 62 93
85 52 85
81 49 81
99 69 99
102 73 102
99 68 99
96 63 96
95 62 95
104 75 104
106 78 106
109 82 109
115 90 115
102 71 102
99 67 99
111 81 111
116 88 116
125 101 125
142 126 142
141 125 141
149 136 149
163 158 163
147 139 147
60 39 60
11 0 11
4 0 4
6 0 6
10 0 10
10 1 10
0 0 0
0 0 0
0 0 0
0 0 0
0 0 0
0 0 0
0 0 0
0 0 0
0 0 0
0 0 0
17 2 17
69 51 69
102 87 102
95 75 95
92 71 92
97 78 97
85 62 85
75 48 75
80 50 80
79 48 79
84 53 84
83 52 83
86 54 86
84 51 84
83 50 83
95 63 95
104 74 104
103 73 103
96 64 96
97 65 97
101 71 101
108 80 108
107 80 107
108 80 108
95 61 95
104 74 104
113 85 113
119 93 119
131 111 131
138 121 138
149 136 149
165 159 165
141 130 141
70 48 70
18 1 18
4 0 4
4 0 4
5 0 5
9 0 9
9 1 9
0 0 0
0 0 0
0 0 0
0 0 0
0 0 0
0 0 0
0 0 0
0 0 0
0 0 0
1 0 1
21 8 21
96 87 96
113 102 113
93 74 93
105 90 105
111 98 111
93 70 93
77 47 77
83 51 83
96 69 96
91 63 91
96 70 96
84 50 84
83 49 83
87 54 87
95 64 95
107 78 107
104 74 104
99 68 99
96 64 96
101 72 101
101 72 101
99 69 99
104 75 104
103 73 103
110 82 110
116 89 116
122 99 122
137 120 137
138 122 138
153 144 153
108 89 108
57 31 57
25 5 25
5 0 5
3 0 3
4 0 4
4 0 4
8 0 8
9 1 9
0 0 0
0 0 0
0 0 0
0 0 0
0 0 0
0 0 0
0 0 0
0 0 0
0 0 0
3 0 3
35 22 35
106 100 106
98 87 98
90 74 90
105 90 105
96 76 96
97 75 97
79 50 79
88 59 88
113 93 113
106 84 106
94 66 94
83 50 83
84 51 84
95 65 95
100 73 100
109 85 109
100 71 100
105 77 105
99 70 99
100 71 100
101 71 101
101 71 101
115 90 115
126 105 126
124 103 124
122 99 122
130 112 130
122 102 122
124 106 124
86 61 86
55 27 55
30 10 30
7 0 7
3 0 3
3 0 3
4 0 4
4 0 4
8 0 8
9 1 9
0 0 0
0 0 0
0 0 0
0 0 0
1 0 1
1 0 1
1 0 1
1 0 1
2 0 2
7 0 7
34 21 34
100 92 100
82 68 82
97 80 97
108 93 108
98 78 98
93 70 93
74 47 74
77 49 77
102 80 102
99 75 99
106 85 106
80 48 80
76 44 76
94 66 94
105 80 105
107 83 107
93 63 93
87 54 87
98 69 98
101 72 101
103 74 103
101 72 101
112 86 112
116 93 116
113 89 113
106 79 106
103 76 103
98 73 98
73 44 73
55 27 55
36 12 36
12 0 12
4 0 4
3 0 3
3 0 3
4 0 4
3 0 3
8 0 8
9 1 9
0 0 0
0 0 0
0 0 0
0 0 0
0 0 0
0 0 0
0 0 0
0 0 0
0 0 0
0 0 0
2 0 2
25 7 25
36 15 36
38 15 38
54 27 54
71 43 71
78 51 78
79 50 79
81 52 81
83 53 83
80 46 80
77 42 77
74 41 74
80 47 80
89 59 89
107 82 107
110 86 110
99 72 99
90 59 90
97 69 97
94 63 94
97 67 97
81 47 81
81 47 81
79 45 79
75 40 75
78 42 78
74 40 74
66 35 66
57 29 57
43 18 43
17 1 17
6 0 6
4 0 4
3 0 3
3 0 3
4 0 4
3 0 3
8 0 8
9 1 9
0 0 0
0 0 0
0 0 0
0 0 0
0 0 0
0 0 0
1 0 1
1 0 1
1 0 1
3 0 3
5 0 5
29 9 29
58 35 58
66 47 66
85 63 85
96 76 96
107 91 107
114 98 114
99 77 99
102 80 102
92 68 92
105 85 105
107 88 107
85 56 85
86 56 86
99 74 99
100 73 100
100 73 100
96 68 96
97 69 97
101 75 101
103 78 103
86 55 86
74 40 74
74 40 74
75 41 75
75 40 75
72 40 72
63 33 63
48 23 48
31 10 31
8 0 8
6 0 6
4 0 4
3 0 3
4 0 4
3 0 3
4 0 4
10 1 10
9 1 9
0 0 0
0 0 0
0 0 0
0 0 0
0 0 0
0 0 0
1 0 1
1 0 1
1 0 1
2 0 2
6 0 6
42 25 42
104 93 104
96 82 96
90 70 90
99 83 99
110 95 110
124 112 124
94 70 94
89 62 89
83 55 83
96 74 96
99 77 99
85 57 85
87 58 87
95 68 95
86 56 86
91 62 91
93 64 93
98 71 98
92 63 92
90 59 90
79 46 79
75 42 75
73 38 73
74 41 74
76 42 76
70 39 70
57 29 57
38 14 38
13 0 13
7 0 7
6 0 6
5 0 5
3 0 3
4 0 4
3 0 3
4 0 4
9 0 9
8 0 8
0 0 0
0 0 0
0 0 0
0 0 0
0 0 0
0 0 0
0 0 0
0 0 0
0 0 0
0 0 0
2 0 2
26 12 26
92 80 92
99 85 99
92 74 92
111 95 111
108 89 108
99 77 99
81 52 81
78 48 78
78 48 78
78 47 78
93 68 93
93 68 93
91 63 91
92 63 92
87 57 87
92 64 92
96 68 96
97 69 97
96 66 96
79 46 79
77 42 77
76 42 76
71 37 71
71 39 71
74 40 74
65 34 65
48 21 48
25 5 25
6 0 6
4 0 4
6 0 6
5 0 5
4 0 4
4 0 4
3 0 3
4 0 4
7 0 7
8 1 8
0 0 0
0 0 0
0 0 0
0 0 0
0 0 0
0 0 0
0 0 0
0 0 0
0 0 0
0 0 0
1 0 1
20 8 20
65 46 65
106 94 106
105 89 105
118 105 118
107 89 107
97 75 97
87 61 87
80 51 80
84 56 84
83 53 83
86 58 86
85 57 85
84 55 84
92 64 92
92 63 92
95 68 95
95 66 95
92 61 92
94 65 94
83 51 83
77 43 77
74 40 74
71 37 71
70 39 70
71 38 71
60 29 60
39 13 39
13 0 13
5 0 5
4 0 4
6 0 6
5 0 5
4 0 4
5 0 5
3 0 3
4 0 4
7 0 7
8 1 8
0 0 0
0 0 0
0 0 0
0 0 0
0 0 0
0 0 0
0 0 0
0 0 0
0 0 0
0 0 0
0 0 0
17 5 17
48 26 48
95 80 95
107 91 107
99 79 99
93 70 93
92 68 92
81 54 81
80 52 80
83 55 83
82 52 82
79 47 79
79 50 79
82 52 82
95 68 95
91 62 91
89 59 89
86 55 86
88 56 88
89 58 89
86 55 86
76 42 76
71 37 71
71 39 71
70 39 70
69 37 69
56 25 56
28 5 28
7 0 7
4 0 4
5 0 5
6 0 6
6 0 6
5 0 5
5 0 5
3 0 3
4 0 4
6 0 6
8 1 8
0 0 0
0 0 0
0 0 0
0 0 0
0 0 0
0 0 0
0 0 0
0 0 0
0 0 0
0 0 0
0 0 0
17 5 17
46 24 46
85 68 85
102 85 102
86 63 86
93 72 93
80 55 80
77 49 77
81 53 81
82 54 82
78 48 78
80 50 80
82 53 82
84 56 84
90 62 90
89 60 89
83 51 83
82 49 82
83 50 83
90 60 90
81 49 81
74 41 74
71 38 71
70 37 70
71 40 71
68 37 68
51 22 51
21 2 21
5 0 5
4 0 4
5 0 5
7 0 7
7 0 7
5 0 5
5 0 5
4 0 4
4 0 4
6 0 6
7 0 7
0 0 0
0 0 0
0 0 0
0 0 0
0 0 0
0 0 0
0 0 0
0 0 0
0 0 0
0 0 0
1 0 1
19 6 19
44 24 44
93 79 93
103 88 103
93 74 93
86 66 86
74 48 74
73 45 73
77 49 77
80 51 80
81 52 81
80 49 80
87 60 87
78 46 78
85 55 85
85 55 85
81 49 81
82 49 82
84 53 84
91 61 91
80 48 80
73 41 73
70 37 70
70 39 70
71 40 71
65 34 65
48 20 48
13 0 13
5 0 5
5 0 5
5 0 5
6 0 6
7 0 7
5 0 5
5 0 5
4 0 4
4 0 4
6 0 6
7 0 7
0 0 0
0 0 0
0 0 0
0 0 0
0 0 0
0 0 0
0 0 0
0 0 0
0 0 0
0 0 0
1 0 1
18 6 18
42 24 42
104 95 104
111 99 111
98 82 98
82 62 82
74 50 74
79 54 79
85 59 85
87 62 87
91 66 91
80 52 80
71 39 71
73 42 73
82 51 82
85 55 85
80 47 80
82 50 82
86 54 86
90 59 90
80 48 80
73 41 73
71 38 71
71 39 71
70 39 70
63 31 63
40 14 40
9 0 9
5 0 5
5 0 5
5 0 5
6 0 6
7 0 7
6 0 6
6 0 6
4 0 4
4 0 4
6 0 6
7 0 7
0 0 0
0 0 0
0 0 0
0 0 0
0 0 0
0 0 0
0 0 0
0 0 0
0 0 0
0 0 0
0 0 0
13 2 13
44 28 44
116 112 116
116 108 116
72 53 72
88 71 88
84 65 84
91 72 91
90 67 90
82 55 82
73 42 73
67 35 67
70 37 70
72 39 72
82 51 82
84 53 84
82 51 82
83 51 83
83 52 83
90 60 90
81 50 81
74 42 74
69 37 69
70 39 70
68 37 68
60 29 60
30 8 30
8 0 8
4 0 4
5 0 5
5 0 5
6 0 6
6 0 6
6 0 6
6 0 6
4 0 4
4 0 4
6 0 6
7 0 7
0 0 0
0 0 0
0 0 0
0 0 0
0 0 0
0 0 0
0 0 0
0 0 0
0 0 0
0 0 0
0 0 0
0 0 0
0 0 0
0 0 0
0 0 0
0 0 0
0 0 0
0 0 0
0 0 0
0 0 0
0 0 0
0 0 0
0 0 0
0 0 0
0 0 0
0 0 0
0 0 0
0 0 0
0 0 0
0 0 0
0 0 0
0 0 0
0 0 0
0 0 0
0 0 0
0 0 0
0 0 0
0 0 0
0 0 0
0 0 0
0 0 0
0 0 0
0 0 0
0 0 0
0 0 0
0 0 0
0 0 0
0 0 0
0 0 0
0 0 0
