P3 
50 50 
255
0 0 0
0 0 0
0 0 0
0 0 0
0 0 0
0 0 0
0 0 0
0 0 0
0 0 0
0 0 0
0 0 0
0 0 0
0 0 0
0 0 0
0 0 0
0 0 0
0 0 0
0 0 0
0 0 0
0 0 0
0 0 0
0 0 0
0 0 0
0 0 0
0 0 0
0 0 0
0 0 0
0 0 0
0 0 0
0 0 0
0 0 0
0 0 0
0 0 0
0 0 0
0 0 0
0 0 0
0 0 0
0 0 0
0 0 0
0 0 0
0 0 0
0 0 0
0 0 0
0 0 0
0 0 0
0 0 0
0 0 0
0 0 0
0 0 0
0 0 0
0 0 0
1 0 1
5 0 5
5 0 5
8 0 8
9 0 9
8 0 8
6 0 6
4 0 4
3 0 3
4 0 4
3 0 3
3 0 3
3 0 3
3 0 3
3 0 3
3 0 3
3 0 3
4 0 4
6 0 6
9 0 9
12 2 12
10 0 10
7 0 7
6 0 6
11 0 11
22 2 22
28 7 28
28 7 28
23 3 23
13 0 13
6 0 6
2 0 2
1 0 1
1 0 1
1 0 1
2 0 2
1 0 1
1 0 1
0 0 0
0 0 0
0 0 0
0 0 0
0 0 0
0 0 0
0 0 0
0 0 0
0 0 0
0 0 0
0 0 0
0 0 0
1 0 1
4 0 4
4 0 4
7 0 7
10 0 10
9 0 9
6 0 6
4 0 4
3 0 3
3 0 3
3 0 3
3 0 3
4 0 4
5 0 5
4 0 4
4 0 4
4 0 4
4 0 4
5 0 5
9 0 9
14 2 14
26 5 26
46 19 46
73 44 73
100 75 100
129 109 129
150 137 150
149 137 149
134 119 134
104 82 104
75 49 75
51 25 51
26 6 26
5 0 5
1 0 1
1 0 1
2 0 2
1 0 1
1 0 1
0 0 0
0 0 0
0 0 0
0 0 0
0 0 0
0 0 0
0 0 0
0 0 0
0 0 0
0 0 0
0 0 0
1 0 1
4 0 4
5 0 5
7 0 7
10 0 10
9 0 9
7 0 7
4 0 4
3 0 3
3 0 3
4 0 4
5 0 5
5 0 5
6 0 6
6 0 6
5 0 5
4 0 4
3 0 3
7 0 7
34 9 34
67 39 67
117 94 117
159 146 159
183 175 183
194 190 194
194 190 194
197 193 197
193 189 193
194 191 194
188 184 188
178 172 178
159 150 159
105 85 105
54 29 54
22 4 22
2 0 2
1 0 1
2 0 2
1 0 1
0 0 0
0 0 0
0 0 0
0 0 0
0 0 0
0 0 0
0 0 0
0 0 0
0 0 0
0 0 0
0 0 0
1 0 1
5 0 5
4 0 4
8 0 8
11 0 11
9 0 9
6 0 6
5 0 5
3 0 3
3 0 3
4 0 4
5 0 5
4 0 4
5 0 5
5 0 5
6 0 6
5 0 5
20 2 20
58 31 58
123 102 123
165 151 165
181 171 181
191 184 191
187 180 187
183 174 183
172 161 172
171 158 171
164 149 164
162 145 162
169 155 169
173 162 173
181 174 181
174 167 174
150 138 150
85 61 85
37 15 37
5 0 5
2 0 2
2 0 2
1 0 1
0 0 0
0 0 0
0 0 0
0 0 0
0 0 0
0 0 0
0 0 0
0 0 0
0 0 0
0 0 0
1 0 1
5 0 5
5 0 5
9 0 9
10 0 10
9 0 9
7 0 7
5 0 5
4 0 4
4 0 4
5 0 5
4 0 4
3 0 3
4 0 4
4 0 4
7 0 7
33 8 33
86 59 86
154 140 154
175 164 175
182 171 182
184 174 184
183 174 183
174 162 174
163 148 163
155 137 155
158 142 158
155 137 155
159 142 159
161 145 161
161 144 161
171 158 171
180 172 180
178 170 178
160 150 160
112 92 112
46 21 46
8 0 8
2 0 2
1 0 1
1 0 1
0 0 0
0 0 0
0 0 0
0 0 0
0 0 0
0 0 0
0 0 0
0 0 0
0 0 0
1 0 1
5 0 5
6 0 6
9 0 9
10 0 10
9 0 9
8 0 8
4 0 4
4 0 4
4 0 4
4 0 4
3 0 3
4 0 4
4 0 4
8 0 8
39 15 39
104 82 104
163 151 163
179 168 179
176 164 176
176 165 176
176 164 176
169 153 169
158 141 158
158 141 158
154 134 154
157 139 157
157 139 157
157 139 157
161 144 161
162 146 162
160 143 160
165 150 165
189 184 189
188 184 188
172 165 172
134 120 134
50 27 50
6 0 6
1 0 1
1 0 1
0 0 0
0 0 0
0 0 0
0 0 0
0 0 0
0 0 0
0 0 0
0 0 0
0 0 0
1 0 1
5 0 5
6 0 6
9 0 9
9 0 9
8 0 8
7 0 7
4 0 4
4 0 4
4 0 4
3 0 3
3 0 3
3 0 3
6 0 6
35 11 35
104 81 104
160 147 160
176 165 176
169 153 169
161 143 161
157 138 157
157 136 157
154 134 154
150 130 150
146 123 146
151 130 151
147 124 147
153 132 153
153 132 153
154 135 154
157 140 157
153 134 153
147 125 147
158 140 158
184 176 184
189 185 189
175 169 175
136 123 136
44 21 44
3 0 3
1 0 1
0 0 0
0 0 0
0 0 0
0 0 0
0 0 0
0 0 0
0 0 0
0 0 0
0 0 0
1 0 1
5 0 5
7 0 7
8 0 8
9 0 9
9 0 9
7 0 7
5 0 5
4 0 4
4 0 4
3 0 3
4 0 4
5 0 5
26 4 26
89 64 89
154 139 154
175 163 175
170 156 170
156 136 156
150 128 150
148 125 148
141 115 141
139 112 139
140 113 140
144 120 144
141 116 141
147 124 147
142 116 142
143 118 143
138 112 138
140 116 140
138 112 138
142 118 142
144 122 144
153 134 153
180 170 180
184 178 184
172 166 172
122 108 122
23 4 23
1 0 1
0 0 0
0 0 0
0 0 0
0 0 0
0 0 0
0 0 0
0 0 0
0 0 0
0 0 0
1 0 1
6 0 6
7 0 7
8 0 8
10 0 10
10 0 10
8 0 8
5 0 5
4 0 4
3 0 3
3 0 3
4 0 4
17 0 17
68 39 68
141 123 141
168 155 168
169 155 169
157 139 157
154 135 154
144 120 144
135 106 135
132 101 132
141 116 141
140 115 140
135 107 135
137 109 137
137 110 137
136 108 136
135 107 135
128 98 128
129 99 129
131 103 131
134 106 134
135 108 135
129 101 129
138 115 138
161 146 161
174 165 174
161 153 161
84 64 84
7 0 7
0 0 0
0 0 0
0 0 0
0 0 0
0 0 0
0 0 0
0 0 0
0 0 0
0 0 0
1 0 1
7 0 7
6 0 6
8 0 8
11 0 11
10 0 10
8 0 8
5 0 5
5 0 5
4 0 4
4 0 4
7 0 7
42 15 42
121 100 121
161 148 161
171 157 171
162 145 162
148 126 148
136 110 136
130 100 130
130 99 130
135 106 135
128 97 128
133 105 133
130 99 130
130 100 130
128 97 128
132 102 132
127 96 127
122 90 122
119 87 119
122 89 122
138 113 138
137 112 137
132 105 132
136 111 136
141 118 141
155 138 155
163 153 163
135 123 135
33 14 33
1 0 1
0 0 0
0 0 0
0 0 0
0 0 0
0 0 0
0 0 0
0 0 0
0 0 0
1 0 1
7 0 7
8 0 8
10 0 10
12 0 12
10 0 10
6 0 6
6 0 6
5 0 5
5 0 5
5 0 5
12 0 12
80 53 80
160 146 160
176 164 176
161 143 161
149 127 149
144 120 144
141 116 141
130 99 130
123 89 123
134 103 134
132 102 132
124 91 124
129 99 129
123 90 123
124 92 124
124 92 124
121 88 121
121 88 121
116 80 116
121 87 121
125 93 125
125 94 125
125 94 125
124 93 124
121 91 121
126 99 126
147 131 147
150 139 150
91 73 91
6 0 6
0 0 0
0 0 0
0 0 0
0 0 0
0 0 0
0 0 0
0 0 0
0 0 0
2 0 2
7 0 7
9 0 9
12 0 12
11 0 11
9 0 9
7 0 7
7 0 7
6 0 6
5 0 5
6 0 6
32 6 32
121 100 121
173 161 173
172 158 172
148 126 148
136 109 136
129 100 129
133 105 133
134 105 134
126 92 126
126 92 126
131 100 131
125 92 125
123 89 123
126 93 126
122 88 122
120 86 120
119 83 119
122 89 122
117 81 117
120 86 120
120 86 120
122 89 122
129 99 129
137 110 137
134 107 134
124 95 124
119 92 119
144 129 144
123 109 123
34 19 34
1 0 1
0 0 0
0 0 0
0 0 0
0 0 0
0 0 0
0 0 0
0 0 0
2 0 2
7 0 7
10 0 10
13 0 13
11 0 11
9 0 9
9 0 9
7 0 7
6 0 6
6 0 6
9 0 9
56 28 56
157 143 157
176 164 176
155 136 155
146 124 146
138 112 138
132 102 132
124 92 124
126 93 126
122 87 122
119 83 119
122 87 122
125 92 125
120 84 120
122 88 122
120 85 120
120 86 120
115 79 115
116 81 116
113 77 113
117 81 117
113 77 113
121 87 121
122 89 122
119 84 119
127 97 127
124 95 124
119 92 119
126 104 126
132 118 132
63 46 63
4 0 4
0 0 0
0 0 0
0 0 0
0 0 0
0 0 0
0 0 0
0 0 0
2 0 2
8 0 8
11 0 11
13 0 13
12 0 12
11 0 11
10 0 10
7 0 7
7 0 7
8 0 8
17 0 17
80 54 80
169 158 169
161 144 161
142 118 142
136 110 136
135 107 135
134 106 134
128 96 128
126 93 126
122 87 122
116 78 116
116 79 116
119 84 119
120 84 120
120 85 120
119 83 119
118 84 118
120 86 120
113 77 113
113 77 113
114 78 114
113 77 113
113 77 113
115 79 115
115 79 115
121 88 121
120 87 120
113 83 113
118 93 118
127 109 127
95 81 95
13 2 13
0 0 0
0 0 0
0 0 0
0 0 0
0 0 0
0 0 0
0 0 0
2 0 2
8 0 8
10 0 10
13 0 13
14 0 14
14 0 14
11 0 11
8 0 8
8 0 8
9 0 9
24 1 24
109 85 109
168 156 168
147 125 147
138 112 138
128 99 128
129 99 129
136 109 136
130 97 130
126 92 126
123 88 123
117 78 117
117 78 117
119 82 119
118 81 118
118 82 118
117 81 117
120 86 120
116 81 116
116 81 116
116 80 116
115 80 115
111 73 111
113 77 113
119 85 119
116 79 116
118 82 118
114 79 114
116 85 116
110 82 110
125 105 125
113 98 113
20 5 20
0 0 0
0 0 0
0 0 0
0 0 0
0 0 0
0 0 0
0 0 0
2 0 2
8 0 8
9 0 9
12 0 12
15 0 15
14 0 14
10 0 10
8 0 8
8 0 8
9 0 9
29 5 29
136 117 136
174 163 174
149 126 149
138 112 138
125 95 125
123 91 123
132 103 132
130 98 130
122 87 122
119 82 119
114 75 114
113 74 113
117 79 117
114 76 114
118 81 118
114 75 114
122 88 122
118 83 118
122 91 122
115 80 115
120 88 120
111 75 111
110 72 110
110 72 110
116 80 116
119 85 119
117 84 117
108 74 108
105 74 105
118 97 118
116 99 116
36 16 36
1 0 1
0 0 0
0 0 0
0 0 0
0 0 0
0 0 0
0 0 0
2 0 2
8 0 8
9 0 9
12 0 12
14 0 14
12 0 12
9 0 9
7 0 7
8 0 8
9 0 9
36 10 36
149 134 149
174 162 174
151 129 151
137 111 137
127 97 127
123 91 123
133 104 133
134 105 134
121 86 121
117 80 117
115 76 115
112 72 112
116 78 116
113 74 113
116 79 116
110 70 110
119 84 119
119 85 119
121 88 121
121 88 121
111 74 111
110 73 110
107 67 107
108 68 108
107 68 107
108 69 108
119 87 119
116 85 116
106 75 106
118 96 118
121 105 121
50 30 50
2 0 2
1 0 1
0 0 0
0 0 0
0 0 0
0 0 0
0 0 0
2 0 2
9 0 9
9 0 9
12 0 12
12 0 12
12 0 12
9 0 9
8 0 8
8 0 8
9 0 9
44 15 44
156 142 156
175 162 175
150 129 150
137 111 137
135 108 135
130 99 130
132 102 132
140 113 140
125 92 125
120 84 120
120 84 120
115 77 115
115 77 115
113 75 113
113 73 113
109 68 109
115 79 115
123 92 123
120 88 120
110 73 110
110 71 110
104 63 104
108 69 108
110 71 110
105 65 105
105 65 105
116 82 116
119 85 119
119 90 119
110 83 110
124 108 124
59 39 59
9 1 9
0 0 0
0 0 0
0 0 0
0 0 0
0 0 0
0 0 0
2 0 2
8 0 8
8 0 8
10 0 10
11 0 11
12 0 12
8 0 8
7 0 7
8 0 8
10 0 10
47 19 47
161 149 161
177 164 177
152 132 152
140 115 140
142 117 142
139 112 139
132 101 132
136 107 136
128 95 128
124 90 124
120 83 120
119 84 119
119 82 119
115 76 115
111 71 111
114 76 114
120 87 120
120 89 120
109 70 109
107 67 107
108 68 108
105 65 105
105 64 105
106 67 106
105 66 105
100 60 100
114 78 114
125 93 125
115 82 115
102 71 102
94 68 94
77 61 77
15 5 15
0 0 0
0 0 0
1 0 1
0 0 0
0 0 0
0 0 0
2 0 2
8 0 8
8 0 8
11 0 11
12 0 12
11 0 11
8 0 8
6 0 6
8 0 8
10 0 10
48 19 48
165 153 165
181 169 181
153 133 153
138 112 138
143 119 143
140 113 140
129 97 129
129 96 129
125 89 125
124 89 124
116 77 116
117 80 117
118 81 118
119 82 119
114 75 114
117 82 117
130 103 130
110 73 110
107 67 107
104 64 104
106 66 106
106 66 106
107 67 107
106 66 106
108 69 108
113 79 113
116 82 116
118 85 118
124 93 124
113 85 113
90 63 90
76 59 76
27 15 27
0 0 0
0 0 0
0 0 0
0 0 0
0 0 0
0 0 0
2 0 2
8 0 8
8 0 8
11 0 11
12 0 12
11 0 11
9 0 9
7 0 7
9 0 9
11 0 11
46 17 46
164 153 164
181 170 181
152 132 152
137 110 137
140 113 140
136 108 136
121 86 121
120 84 120
118 80 118
119 81 119
114 74 114
114 75 114
115 77 115
119 83 119
111 71 111
115 79 115
125 94 125
109 71 109
106 65 106
104 63 104
106 66 106
103 62 103
103 62 103
106 66 106
111 73 111
111 76 111
122 92 122
114 80 114
131 102 131
119 92 119
82 53 82
60 38 60
28 18 28
0 0 0
0 0 0
0 0 0
0 0 0
0 0 0
0 0 0
2 0 2
8 0 8
8 0 8
12 0 12
11 0 11
10 0 10
8 0 8
7 0 7
9 0 9
11 0 11
40 11 40
157 143 157
184 174 184
155 135 155
137 110 137
137 110 137
128 96 128
113 74 113
113 74 113
114 74 114
113 73 113
115 74 115
112 72 112
111 71 111
115 76 115
109 69 109
114 78 114
117 83 117
107 68 107
106 65 106
104 64 104
106 65 106
103 62 103
102 60 102
103 61 103
113 77 113
99 59 99
104 67 104
113 80 113
115 83 115
109 78 109
80 49 80
59 38 59
28 14 28
1 0 1
0 0 0
0 0 0
0 0 0
0 0 0
0 0 0
1 0 1
7 0 7
8 0 8
11 0 11
10 0 10
10 0 10
8 0 8
7 0 7
9 0 9
10 0 10
32 6 32
149 134 149
184 175 184
157 138 157
137 111 137
138 110 138
125 92 125
111 72 111
113 73 113
113 73 113
110 69 110
114 74 114
112 73 112
113 75 113
110 70 110
112 74 112
114 77 114
117 83 117
109 70 109
105 65 105
104 64 104
104 62 104
102 61 102
102 60 102
100 58 100
106 66 106
100 60 100
99 60 99
101 64 101
103 68 103
103 71 103
83 53 83
69 48 69
36 22 36
2 0 2
0 0 0
0 0 0
0 0 0
0 0 0
0 0 0
1 0 1
7 0 7
9 0 9
11 0 11
11 0 11
10 0 10
8 0 8
5 0 5
8 0 8
9 0 9
25 3 25
135 117 135
180 170 180
159 140 159
140 114 140
135 106 135
120 84 120
111 71 111
114 74 114
111 71 111
109 67 109
112 72 112
111 71 111
113 74 113
108 67 108
114 78 114
110 72 110
120 87 120
109 70 109
106 65 106
102 60 102
103 62 103
101 61 101
98 56 98
96 53 96
99 58 99
99 59 99
98 58 98
98 60 98
98 61 98
97 63 97
84 54 84
75 55 75
42 29 42
6 0 6
0 0 0
0 0 0
0 0 0
0 0 0
0 0 0
2 0 2
6 0 6
8 0 8
10 0 10
11 0 11
10 0 10
8 0 8
5 0 5
8 0 8
8 0 8
20 2 20
109 86 109
178 166 178
159 141 159
142 117 142
131 100 131
117 80 117
113 73 113
114 75 114
109 67 109
109 68 109
110 69 110
110 70 110
110 70 110
108 68 108
114 78 114
113 77 113
120 89 120
107 68 107
105 64 105
104 63 104
101 60 101
99 58 99
95 53 95
92 48 92
100 61 100
95 54 95
97 58 97
101 64 101
99 63 99
91 55 91
82 50 82
74 50 74
43 28 43
13 2 13
0 0 0
0 0 0
0 0 0
0 0 0
0 0 0
2 0 2
6 0 6
8 0 8
9 0 9
11 0 11
9 0 9
8 0 8
6 0 6
8 0 8
9 0 9
15 0 15
78 51 78
173 161 173
156 137 156
146 123 146
128 96 128
114 75 114
115 77 115
116 78 116
108 66 108
111 71 111
111 70 111
110 71 110
111 73 111
109 70 109
112 75 112
110 73 110
115 81 115
109 73 109
102 59 102
97 56 97
99 59 99
98 57 98
99 59 99
97 56 97
103 65 103
99 60 99
96 57 96
97 57 97
103 68 103
90 51 90
75 42 75
80 56 80
56 39 56
20 6 20
1 0 1
0 0 0
0 0 0
0 0 0
0 0 0
1 0 1
6 0 6
8 0 8
9 0 9
11 0 11
9 0 9
7 0 7
6 0 6
8 0 8
9 0 9
12 0 12
66 37 66
169 157 169
156 137 156
146 123 146
129 97 129
115 77 115
120 84 120
116 78 116
109 68 109
112 72 112
118 80 118
112 74 112
111 72 111
110 71 110
112 75 112
110 73 110
114 80 114
116 83 116
100 58 100
98 57 98
100 59 100
96 56 96
100 59 100
96 55 96
102 64 102
99 60 99
95 57 95
94 54 94
103 68 103
91 53 91
71 38 71
85 62 85
66 48 66
22 8 22
1 0 1
0 0 0
0 0 0
0 0 0
0 0 0
2 0 2
7 0 7
8 0 8
9 0 9
11 0 11
9 0 9
8 0 8
7 0 7
7 0 7
8 0 8
10 0 10
39 10 39
143 123 143
170 155 170
152 130 152
129 97 129
120 84 120
125 90 125
118 80 118
127 94 127
119 82 119
135 105 135
126 94 126
125 94 125
127 97 127
115 80 115
114 80 114
110 74 110
115 81 115
105 67 105
107 69 107
108 72 108
104 68 104
97 58 97
94 53 94
93 52 93
98 62 98
103 68 103
102 68 102
98 64 98
81 42 81
82 49 82
90 67 90
88 70 88
30 10 30
1 0 1
0 0 0
0 0 0
0 0 0
0 0 0
1 0 1
7 0 7
8 0 8
10 0 10
11 0 11
9 0 9
8 0 8
6 0 6
5 0 5
7 0 7
11 0 11
28 1 28
104 75 104
173 159 173
151 129 151
117 82 117
124 91 124
122 87 122
123 88 123
144 119 144
146 122 146
151 129 151
130 100 130
136 110 136
133 107 133
114 78 114
117 84 117
113 79 113
109 73 109
108 71 108
106 68 106
105 66 105
105 68 105
111 76 111
118 85 118
100 64 100
105 71 105
105 72 105
110 78 110
97 64 97
73 35 73
73 39 73
88 63 88
89 69 89
34 13 34
2 0 2
0 0 0
0 0 0
0 0 0
0 0 0
1 0 1
6 0 6
7 0 7
10 0 10
11 0 11
8 0 8
7 0 7
6 0 6
5 0 5
6 0 6
9 0 9
21 0 21
83 51 83
185 174 185
165 149 165
121 88 121
115 79 115
121 87 121
125 91 125
119 83 119
128 97 128
135 107 135
128 97 128
124 93 124
126 96 126
117 83 117
116 83 116
107 70 107
103 64 103
108 71 108
108 70 108
112 78 112
115 81 115
117 85 117
121 88 121
111 78 111
116 85 116
113 81 113
112 82 112
100 68 100
79 42 79
72 36 72
94 71 94
79 58 79
32 10 32
2 0 2
0 0 0
0 0 0
0 0 0
0 0 0
1 0 1
5 0 5
6 0 6
9 0 9
10 0 10
8 0 8
7 0 7
6 0 6
5 0 5
6 0 6
8 0 8
13 0 13
56 24 56
167 154 167
183 172 183
134 105 134
119 84 119
118 83 118
126 92 126
115 75 115
124 89 124
127 94 127
127 96 127
119 85 119
111 75 111
113 77 113
111 75 111
108 72 108
107 71 107
105 68 105
109 74 109
107 71 107
110 74 110
128 99 128
124 93 124
118 86 118
107 71 107
116 83 116
102 69 102
86 51 86
83 47 83
72 37 72
86 63 86
76 55 76
32 10 32
2 0 2
0 0 0
0 0 0
0 0 0
0 0 0
1 0 1
6 0 6
6 0 6
10 0 10
11 0 11
9 0 9
7 0 7
6 0 6
5 0 5
5 0 5
6 0 6
8 0 8
30 4 30
125 102 125
198 192 198
165 148 165
121 88 121
108 71 108
118 82 118
111 71 111
127 93 127
133 103 133
122 88 122
105 65 105
105 65 105
106 67 106
102 63 102
102 62 102
107 69 107
111 76 111
109 73 109
109 73 109
110 75 110
118 85 118
120 88 120
113 80 113
97 59 97
108 75 108
87 49 87
86 52 86
75 38 75
77 44 77
75 50 75
60 36 60
30 9 30
3 0 3
0 0 0
0 0 0
0 0 0
0 0 0
1 0 1
6 0 6
5 0 5
9 0 9
10 0 10
8 0 8
7 0 7
6 0 6
5 0 5
5 0 5
5 0 5
5 0 5
14 0 14
78 46 78
189 183 189
182 171 182
138 111 138
129 97 129
122 88 122
115 76 115
146 119 146
138 109 138
120 86 120
106 67 106
109 72 109
105 66 105
104 66 104
103 63 103
104 65 104
104 67 104
110 76 110
111 77 111
105 70 105
107 72 107
125 96 125
121 93 121
112 81 112
108 75 108
92 59 92
87 54 87
82 46 82
75 41 75
59 31 59
46 21 46
23 8 23
2 0 2
0 0 0
0 0 0
0 0 0
0 0 0
1 0 1
5 0 5
6 0 6
9 0 9
11 0 11
8 0 8
7 0 7
7 0 7
5 0 5
4 0 4
5 0 5
4 0 4
7 0 7
39 10 39
138 119 138
197 192 197
170 155 170
140 115 140
124 90 124
124 88 124
135 105 135
130 97 130
128 96 128
124 92 124
114 77 114
109 72 109
108 71 108
107 69 107
105 66 105
108 72 108
110 75 110
106 70 106
105 70 105
112 79 112
108 74 108
120 91 120
117 88 117
111 80 111
93 60 93
100 70 100
88 54 88
73 37 73
54 26 54
38 15 38
15 4 15
0 0 0
0 0 0
0 0 0
0 0 0
0 0 0
1 0 1
4 0 4
6 0 6
10 0 10
11 0 11
9 0 9
6 0 6
6 0 6
4 0 4
3 0 3
4 0 4
3 0 3
6 0 6
19 3 19
66 35 66
160 146 160
178 167 178
152 132 152
135 107 135
134 104 134
130 98 130
128 93 128
132 101 132
127 96 127
121 87 121
116 81 116
109 71 109
108 70 108
104 65 104
105 69 105
123 95 123
128 103 128
109 76 109
110 77 110
106 73 106
119 91 119
120 94 120
121 95 121
117 90 117
121 96 121
96 63 96
74 37 74
53 26 53
32 10 32
10 3 10
0 0 0
0 0 0
0 0 0
0 0 0
0 0 0
1 0 1
4 0 4
6 0 6
10 0 10
11 0 11
10 0 10
6 0 6
7 0 7
4 0 4
3 0 3
4 0 4
4 0 4
5 0 5
18 5 18
32 5 32
80 50 80
144 126 144
152 133 152
140 116 140
142 117 142
127 94 127
122 87 122
124 91 124
131 101 131
119 85 119
113 78 113
109 72 109
104 66 104
102 63 102
113 80 113
131 107 131
136 114 136
120 91 120
120 91 120
115 85 115
114 85 114
109 79 109
120 96 120
139 120 139
141 124 141
110 82 110
74 37 74
51 23 51
24 7 24
6 1 6
0 0 0
0 0 0
0 0 0
0 0 0
0 0 0
0 0 0
4 0 4
5 0 5
10 0 10
10 0 10
10 0 10
6 0 6
6 0 6
4 0 4
3 0 3
4 0 4
4 0 4
4 0 4
12 1 12
20 2 20
52 20 52
78 45 78
121 95 121
143 122 143
127 99 127
111 76 111
110 75 110
122 91 122
135 108 135
125 96 125
119 88 119
115 82 115
107 73 107
108 74 108
113 80 113
125 99 125
135 114 135
134 113 134
124 98 124
117 89 117
107 77 107
100 69 100
114 89 114
149 136 149
150 137 150
116 91 116
73 38 73
47 21 47
22 7 22
3 0 3
0 0 0
1 0 1
0 0 0
0 0 0
0 0 0
0 0 0
4 0 4
6 0 6
10 0 10
10 0 10
9 0 9
6 0 6
5 0 5
4 0 4
4 0 4
3 0 3
3 0 3
4 0 4
6 0 6
13 0 13
28 2 28
59 27 59
72 37 72
83 48 83
96 62 96
100 65 100
104 68 104
112 80 112
114 83 114
118 88 118
116 86 116
114 84 114
112 80 112
120 92 120
131 109 131
142 125 142
114 84 114
118 95 118
120 97 120
121 99 121
109 84 109
103 75 103
91 61 91
109 81 109
127 105 127
122 100 122
85 57 85
50 25 50
22 7 22
6 0 6
3 0 3
2 0 2
1 0 1
0 0 0
0 0 0
0 0 0
4 0 4
5 0 5
10 0 10
9 0 9
8 0 8
6 0 6
5 0 5
4 0 4
4 0 4
4 0 4
4 0 4
5 0 5
5 0 5
11 0 11
18 1 18
47 15 47
70 35 70
76 40 76
81 44 81
86 47 86
88 48 88
98 61 98
106 73 106
114 83 114
112 80 112
112 80 112
101 65 101
100 63 100
96 59 96
110 79 110
105 72 105
94 58 94
91 55 91
89 52 89
85 47 85
83 47 83
82 48 82
99 68 99
101 69 101
74 42 74
61 31 61
35 13 35
17 4 17
1 0 1
0 0 0
0 0 0
0 0 0
0 0 0
0 0 0
0 0 0
4 0 4
4 0 4
8 0 8
7 0 7
7 0 7
5 0 5
6 0 6
4 0 4
4 0 4
4 0 4
4 0 4
5 0 5
5 0 5
6 0 6
10 0 10
24 2 24
60 28 60
73 40 73
77 41 77
76 38 76
78 39 78
80 43 80
91 55 91
108 77 108
100 67 100
102 70 102
110 81 110
113 85 113
114 86 114
151 140 151
140 123 140
111 83 111
109 80 109
105 75 105
104 74 104
106 79 106
105 77 105
107 79 107
124 104 124
111 89 111
64 35 64
37 15 37
20 8 20
4 0 4
3 0 3
2 0 2
1 0 1
0 0 0
0 0 0
0 0 0
4 0 4
4 0 4
10 1 10
9 0 9
8 0 8
5 0 5
5 0 5
4 0 4
4 0 4
6 0 6
6 0 6
4 0 4
5 0 5
5 0 5
8 0 8
15 0 15
52 21 52
72 40 72
77 42 77
78 40 78
79 41 79
82 44 82
86 48 86
95 60 95
101 67 101
103 71 103
103 71 103
108 79 108
121 98 121
134 118 134
123 102 123
103 74 103
92 59 92
97 65 97
100 72 100
101 73 101
124 105 124
131 115 131
133 119 133
114 94 114
60 33 60
34 16 34
17 6 17
3 0 3
2 0 2
1 0 1
0 0 0
0 0 0
0 0 0
1 0 1
4 0 4
4 0 4
10 1 10
8 0 8
6 0 6
4 0 4
5 0 5
5 0 5
4 0 4
5 0 5
6 0 6
4 0 4
4 0 4
4 0 4
6 0 6
10 0 10
44 16 44
70 39 70
79 43 79
81 44 81
82 44 82
85 47 85
90 54 90
104 70 104
105 72 105
112 82 112
105 73 105
115 87 115
121 95 121
128 107 128
111 83 111
92 57 92
83 46 83
100 69 100
106 79 106
104 78 104
119 98 119
142 128 142
115 93 115
75 45 75
47 19 47
27 11 27
4 0 4
0 0 0
0 0 0
0 0 0
0 0 0
0 0 0
0 0 0
1 0 1
4 0 4
5 0 5
10 1 10
8 0 8
6 0 6
4 0 4
5 0 5
5 0 5
5 0 5
5 0 5
5 0 5
4 0 4
3 0 3
4 0 4
5 0 5
10 0 10
41 15 41
68 37 68
76 40 76
79 42 79
83 45 83
85 48 85
95 60 95
110 79 110
109 78 109
116 89 116
103 70 103
112 82 112
122 97 122
116 91 116
102 72 102
89 54 89
89 55 89
102 73 102
110 85 110
98 70 98
118 96 118
133 116 133
127 109 127
74 45 74
45 19 45
24 8 24
1 0 1
1 0 1
0 0 0
0 0 0
0 0 0
0 0 0
0 0 0
1 0 1
4 0 4
5 0 5
10 1 10
8 0 8
5 0 5
4 0 4
4 0 4
5 0 5
5 0 5
6 0 6
5 0 5
4 0 4
4 0 4
3 0 3
4 0 4
9 0 9
38 13 38
67 36 67
75 41 75
79 43 79
81 44 81
83 46 83
92 57 92
104 71 104
108 78 108
113 87 113
102 70 102
106 74 106
102 70 102
101 69 101
102 73 102
90 57 90
102 73 102
98 67 98
96 66 96
95 65 95
112 89 112
112 89 112
107 82 107
72 44 72
42 16 42
12 0 12
1 0 1
0 0 0
0 0 0
0 0 0
0 0 0
0 0 0
0 0 0
1 0 1
4 0 4
5 0 5
10 1 10
8 0 8
5 0 5
3 0 3
4 0 4
5 0 5
5 0 5
6 0 6
5 0 5
4 0 4
4 0 4
4 0 4
4 0 4
10 0 10
35 13 35
65 34 65
75 42 75
79 44 79
82 44 82
81 44 81
88 52 88
96 61 96
96 61 96
101 70 101
108 79 108
107 76 107
98 63 98
96 63 96
92 60 92
89 55 89
105 77 105
97 67 97
90 58 90
88 56 88
110 86 110
107 83 107
94 68 94
65 38 65
35 12 35
5 0 5
0 0 0
0 0 0
0 0 0
0 0 0
0 0 0
0 0 0
0 0 0
1 0 1
5 0 5
5 0 5
9 1 9
7 0 7
5 0 5
3 0 3
4 0 4
4 0 4
5 0 5
5 0 5
4 0 4
4 0 4
5 0 5
4 0 4
4 0 4
8 0 8
35 12 35
63 32 63
76 42 76
79 44 79
81 44 81
81 44 81
85 48 85
94 59 94
96 62 96
93 58 93
99 67 99
115 88 115
102 71 102
103 73 103
92 60 92
93 61 93
102 74 102
97 66 97
93 62 93
90 60 90
110 87 110
96 71 96
90 66 90
60 35 60
24 4 24
2 0 2
0 0 0
0 0 0
0 0 0
0 0 0
0 0 0
0 0 0
0 0 0
1 0 1
5 0 5
4 0 4
9 1 9
7 0 7
4 0 4
3 0 3
3 0 3
4 0 4
4 0 4
5 0 5
4 0 4
4 0 4
4 0 4
4 0 4
4 0 4
7 0 7
38 14 38
62 31 62
77 43 77
79 44 79
81 43 81
79 42 79
86 50 86
99 65 99
98 64 98
91 56 91
91 56 91
97 63 97
108 80 108
109 85 109
100 72 100
99 71 99
103 75 103
100 71 100
100 72 100
100 74 100
107 85 107
106 85 106
97 79 97
48 24 48
13 0 13
1 0 1
0 0 0
0 0 0
0 0 0
0 0 0
0 0 0
0 0 0
0 0 0
1 0 1
4 0 4
4 0 4
9 1 9
7 0 7
4 0 4
3 0 3
3 0 3
4 0 4
4 0 4
4 0 4
3 0 3
3 0 3
4 0 4
4 0 4
4 0 4
7 0 7
37 13 37
62 30 62
77 43 77
79 44 79
79 43 79
79 43 79
86 51 86
100 68 100
95 60 95
92 57 92
93 58 93
91 56 91
90 56 90
85 51 85
103 76 103
104 77 104
110 86 110
111 88 111
95 66 95
102 76 102
105 83 105
134 126 134
84 65 84
29 9 29
3 0 3
0 0 0
0 0 0
0 0 0
0 0 0
0 0 0
0 0 0
0 0 0
0 0 0
0 0 0
0 0 0
0 0 0
0 0 0
0 0 0
0 0 0
0 0 0
0 0 0
0 0 0
0 0 0
0 0 0
0 0 0
0 0 0
0 0 0
0 0 0
0 0 0
0 0 0
0 0 0
0 0 0
0 0 0
0 0 0
0 0 0
0 0 0
0 0 0
0 0 0
0 0 0
0 0 0
0 0 0
0 0 0
0 0 0
0 0 0
0 0 0
0 0 0
0 0 0
0 0 0
0 0 0
0 0 0
0 0 0
0 0 0
0 0 0
0 0 0
0 0 0
0 0 0
0 0 0
0 0 0
0 0 0
0 0 0
0 0 0
0 0 0
