P3 
50 50 
255
0 0 0
0 0 0
0 0 0
0 0 0
0 0 0
0 0 0
0 0 0
0 0 0
0 0 0
0 0 0
0 0 0
0 0 0
0 0 0
0 0 0
0 0 0
0 0 0
0 0 0
0 0 0
0 0 0
0 0 0
0 0 0
0 0 0
0 0 0
0 0 0
0 0 0
0 0 0
0 0 0
0 0 0
0 0 0
0 0 0
0 0 0
0 0 0
0 0 0
0 0 0
0 0 0
0 0 0
0 0 0
0 0 0
0 0 0
0 0 0
0 0 0
0 0 0
0 0 0
0 0 0
0 0 0
0 0 0
0 0 0
0 0 0
0 0 0
0 0 0
0 0 0
2 0 2
10 1 10
10 0 10
7 0 7
6 0 6
5 0 5
4 0 4
4 0 4
4 0 4
4 0 4
4 0 4
4 0 4
7 0 7
11 1 11
10 2 10
4 0 4
6 0 6
6 0 6
6 0 6
5 0 5
4 0 4
7 0 7
10 0 10
17 1 17
25 6 25
24 6 24
22 5 22
17 2 17
10 0 10
4 0 4
2 0 2
1 0 1
1 0 1
1 0 1
1 0 1
1 0 1
0 0 0
0 0 0
0 0 0
0 0 0
0 0 0
0 0 0
0 0 0
0 0 0
0 0 0
0 0 0
0 0 0
0 0 0
0 0 0
0 0 0
2 0 2
10 1 10
9 0 9
8 0 8
6 0 6
4 0 4
4 0 4
4 0 4
5 0 5
6 0 6
5 0 5
4 0 4
6 0 6
11 0 11
11 1 11
5 0 5
5 0 5
6 0 6
15 0 15
33 11 33
49 25 49
70 45 70
90 66 90
110 89 110
131 117 131
142 131 142
137 125 137
121 105 121
97 76 97
72 49 72
49 26 49
30 11 30
11 0 11
2 0 2
1 0 1
1 0 1
0 0 0
0 0 0
0 0 0
0 0 0
0 0 0
0 0 0
0 0 0
0 0 0
0 0 0
0 0 0
0 0 0
0 0 0
0 0 0
0 0 0
2 0 2
10 1 10
9 0 9
8 0 8
6 0 6
5 0 5
5 0 5
5 0 5
6 0 6
7 0 7
7 0 7
5 0 5
6 0 6
10 0 10
11 1 11
4 0 4
14 0 14
43 18 43
82 58 82
137 122 137
161 151 161
172 164 172
180 173 180
186 180 186
190 187 190
186 183 186
185 181 185
186 183 186
179 175 179
167 161 167
154 146 154
124 110 124
66 44 66
34 13 34
8 0 8
1 0 1
0 0 0
0 0 0
0 0 0
0 0 0
0 0 0
0 0 0
0 0 0
0 0 0
0 0 0
0 0 0
0 0 0
0 0 0
0 0 0
0 0 0
2 0 2
11 1 11
10 0 10
9 0 9
7 0 7
5 0 5
5 0 5
6 0 6
5 0 5
5 0 5
7 0 7
6 0 6
7 0 7
10 0 10
14 1 14
34 10 34
82 57 82
147 132 147
171 161 171
176 167 176
174 163 174
169 156 169
167 155 167
174 164 174
177 168 177
170 159 170
165 153 165
164 152 164
166 155 166
171 162 171
172 164 172
166 157 166
160 153 160
115 98 115
52 28 52
19 3 19
2 0 2
0 0 0
0 0 0
0 0 0
0 0 0
0 0 0
0 0 0
0 0 0
0 0 0
0 0 0
0 0 0
0 0 0
0 0 0
0 0 0
2 0 2
11 1 11
11 0 11
9 0 9
7 0 7
5 0 5
7 0 7
7 0 7
5 0 5
4 0 4
5 0 5
7 0 7
9 0 9
20 0 20
54 25 54
120 100 120
169 159 169
173 161 173
178 166 178
165 151 165
156 140 156
158 141 158
159 143 159
162 148 162
160 145 160
161 145 161
160 144 160
162 147 162
161 147 161
168 156 168
169 159 169
170 159 170
172 164 172
162 154 162
139 127 139
67 44 67
23 6 23
2 0 2
0 0 0
0 0 0
0 0 0
0 0 0
0 0 0
0 0 0
0 0 0
0 0 0
0 0 0
0 0 0
0 0 0
0 0 0
2 0 2
11 1 11
11 0 11
8 0 8
7 0 7
6 0 6
6 0 6
5 0 5
4 0 4
4 0 4
6 0 6
7 0 7
22 0 22
65 36 65
142 125 142
173 164 173
173 161 173
173 160 173
164 147 164
155 136 155
154 136 154
154 136 154
150 130 150
155 136 155
152 133 152
159 141 159
157 139 157
157 140 157
159 143 159
164 150 164
169 156 169
176 167 176
179 171 179
178 171 178
173 167 173
150 142 150
85 68 85
23 7 23
1 0 1
0 0 0
0 0 0
0 0 0
0 0 0
0 0 0
0 0 0
0 0 0
0 0 0
0 0 0
0 0 0
0 0 0
2 0 2
11 1 11
11 0 11
7 0 7
6 0 6
6 0 6
6 0 6
4 0 4
4 0 4
5 0 5
6 0 6
17 0 17
62 35 62
138 120 138
168 155 168
171 158 171
161 143 161
155 135 155
144 120 144
144 120 144
144 120 144
141 117 141
140 114 140
146 123 146
150 128 150
153 133 153
150 128 150
152 133 152
151 131 151
153 134 153
156 139 156
165 151 165
168 156 168
172 163 172
171 162 171
173 167 173
154 146 154
86 69 86
14 2 14
0 0 0
0 0 0
0 0 0
0 0 0
0 0 0
0 0 0
0 0 0
0 0 0
0 0 0
0 0 0
0 0 0
2 0 2
11 1 11
11 0 11
7 0 7
7 0 7
6 0 6
5 0 5
5 0 5
5 0 5
7 0 7
11 0 11
47 22 47
122 102 122
160 144 160
170 156 170
156 137 156
150 128 150
147 124 147
142 117 142
141 115 141
138 110 138
138 111 138
137 110 137
139 112 139
136 108 136
139 113 139
144 120 144
144 121 144
146 124 146
142 119 142
144 122 144
139 116 139
147 127 147
151 132 151
165 153 165
174 166 174
174 169 174
144 135 144
69 53 69
6 0 6
0 0 0
0 0 0
0 0 0
0 0 0
0 0 0
0 0 0
0 0 0
0 0 0
0 0 0
0 0 0
2 0 2
12 1 12
11 0 11
8 0 8
8 0 8
6 0 6
4 0 4
5 0 5
8 0 8
10 0 10
27 4 27
94 70 94
149 134 149
164 147 164
158 139 158
148 126 148
147 124 147
143 119 143
143 119 143
137 110 137
134 104 134
132 101 132
128 96 128
131 100 131
136 109 136
139 114 139
132 103 132
135 108 135
135 108 135
137 111 137
132 105 132
130 103 130
125 97 125
139 117 139
142 122 142
143 123 143
159 147 159
159 150 159
122 110 122
40 23 40
1 0 1
0 0 0
0 0 0
0 0 0
0 0 0
0 0 0
0 0 0
0 0 0
0 0 0
0 0 0
2 0 2
12 1 12
11 0 11
9 0 9
8 0 8
7 0 7
5 0 5
7 0 7
10 0 10
17 0 17
58 31 58
140 124 140
158 143 158
160 144 160
140 115 140
140 115 140
145 121 145
144 120 144
136 107 136
134 105 134
126 93 126
127 94 127
134 104 134
130 99 130
126 94 126
128 97 128
131 102 131
126 95 126
133 106 133
130 100 130
128 100 128
125 96 125
120 90 120
119 90 119
137 116 137
143 125 143
145 128 145
154 141 154
151 142 151
84 67 84
7 0 7
0 0 0
0 0 0
0 0 0
0 0 0
0 0 0
0 0 0
0 0 0
0 0 0
0 0 0
2 0 2
13 1 13
12 0 12
10 0 10
8 0 8
7 0 7
7 0 7
8 0 8
11 0 11
26 3 26
102 79 102
159 146 159
170 157 170
156 136 156
145 119 145
142 116 142
139 112 139
134 105 134
139 111 139
137 108 137
130 98 130
123 88 123
123 88 123
127 95 127
130 99 130
123 91 123
124 92 124
126 95 126
123 90 123
125 93 125
126 95 126
120 88 120
116 84 116
109 77 109
119 92 119
123 97 123
118 93 118
125 103 125
144 131 144
134 124 134
31 12 31
0 0 0
0 0 0
0 0 0
0 0 0
0 0 0
0 0 0
0 0 0
0 0 0
0 0 0
3 0 3
13 1 13
13 0 13
9 0 9
8 0 8
8 0 8
9 0 9
10 0 10
13 0 13
47 20 47
130 112 130
168 156 168
162 146 162
135 109 135
142 116 142
141 114 141
143 115 143
132 102 132
131 99 131
133 103 133
130 98 130
126 91 126
123 88 123
122 86 122
125 92 125
126 94 126
119 83 119
122 88 122
124 92 124
123 90 123
122 90 122
119 85 119
120 88 120
114 81 114
113 82 113
114 85 114
127 104 127
130 111 130
136 119 136
134 120 134
69 49 69
2 0 2
0 0 0
0 0 0
0 0 0
0 0 0
0 0 0
0 0 0
0 0 0
0 0 0
3 0 3
14 1 14
13 0 13
9 0 9
9 0 9
10 0 10
11 0 11
11 0 11
18 0 18
73 47 73
158 146 158
174 163 174
150 128 150
140 115 140
136 108 136
136 108 136
138 109 138
137 108 137
128 95 128
128 94 128
124 89 124
119 83 119
121 85 121
120 84 120
118 82 118
124 90 124
118 83 118
119 84 119
122 89 122
118 83 118
124 93 124
116 83 116
115 81 115
114 81 114
108 75 108
113 83 113
118 92 118
113 85 113
119 97 119
131 115 131
103 85 103
11 0 11
0 0 0
1 0 1
0 0 0
0 0 0
0 0 0
0 0 0
0 0 0
0 0 0
3 0 3
14 1 14
13 0 13
10 0 10
11 0 11
11 0 11
12 0 12
13 0 13
28 4 28
93 69 93
169 158 169
168 154 168
147 124 147
138 110 138
136 106 136
130 98 130
129 98 129
130 99 130
129 97 129
128 95 128
121 85 121
118 81 118
119 82 119
116 79 116
115 77 115
117 81 117
118 82 118
116 80 116
118 83 118
117 81 117
121 87 121
122 90 122
112 77 112
116 84 116
108 74 108
111 80 111
105 74 105
104 73 104
108 81 108
118 96 118
128 113 128
40 19 40
1 0 1
1 0 1
0 0 0
0 0 0
0 0 0
0 0 0
0 0 0
0 0 0
3 0 3
15 1 15
12 0 12
11 0 11
13 0 13
13 0 13
14 0 14
15 0 15
38 11 38
119 100 119
168 158 168
152 133 152
132 103 132
130 99 130
134 103 134
130 97 130
127 93 127
125 91 125
131 100 131
130 97 130
123 88 123
119 81 119
118 81 118
116 78 116
113 74 113
116 79 116
119 82 119
113 74 113
117 81 117
118 82 118
121 86 121
121 88 121
114 79 114
116 83 116
112 79 112
102 68 102
111 82 111
101 69 101
99 68 99
105 78 105
135 120 135
74 52 74
8 0 8
1 0 1
0 0 0
0 0 0
0 0 0
0 0 0
0 0 0
0 0 0
3 0 3
15 1 15
13 0 13
11 0 11
12 0 12
15 0 15
14 0 14
15 0 15
48 20 48
147 133 147
165 153 165
147 127 147
127 97 127
126 94 126
130 98 130
129 96 129
127 93 127
125 90 125
131 99 131
132 100 132
128 94 128
119 82 119
117 79 117
116 78 116
111 70 111
115 77 115
113 75 113
113 74 113
116 79 116
113 75 113
117 81 117
123 91 123
125 95 125
111 76 111
119 88 119
103 68 103
100 66 100
96 63 96
101 71 101
103 78 103
113 91 113
104 88 104
28 10 28
2 0 2
0 0 0
0 0 0
0 0 0
0 0 0
0 0 0
0 0 0
3 0 3
15 1 15
13 0 13
11 0 11
11 0 11
13 0 13
14 0 14
16 0 16
57 29 57
157 146 157
163 149 163
141 119 141
130 100 130
127 95 127
130 98 130
129 96 129
128 95 128
127 93 127
129 95 129
133 101 133
133 102 133
121 84 121
117 79 117
119 82 119
111 70 111
114 76 114
111 72 111
114 75 114
112 74 112
107 67 107
114 77 114
121 88 121
126 95 126
117 85 117
111 77 111
108 75 108
93 57 93
94 61 94
89 56 89
100 75 100
110 87 110
116 101 116
46 29 46
4 0 4
1 0 1
0 0 0
0 0 0
0 0 0
0 0 0
0 0 0
3 0 3
15 1 15
14 0 14
11 0 11
10 0 10
12 0 12
13 0 13
19 0 19
66 38 66
162 152 162
161 146 161
142 120 142
132 103 132
131 100 131
132 100 132
129 98 129
132 101 132
134 102 134
127 93 127
133 101 133
136 107 136
122 86 122
118 81 118
123 88 123
117 79 117
115 78 115
111 72 111
114 75 114
109 69 109
107 66 107
113 76 113
120 88 120
120 88 120
121 89 121
108 72 108
106 69 106
99 63 99
97 64 97
83 49 83
93 65 93
109 85 109
98 79 98
68 53 68
10 1 10
0 0 0
0 0 0
0 0 0
0 0 0
0 0 0
0 0 0
2 0 2
15 1 15
14 0 14
9 0 9
9 0 9
12 0 12
13 0 13
21 0 21
77 51 77
166 156 166
165 150 165
147 125 147
138 110 138
139 110 139
136 107 136
131 100 131
134 103 134
141 113 141
128 95 128
128 93 128
133 102 133
123 88 123
121 85 121
122 87 122
121 84 121
119 83 119
116 78 116
113 74 113
109 69 109
111 73 111
114 78 114
122 92 122
121 89 121
110 72 110
110 73 110
105 67 105
104 69 104
97 64 97
90 58 90
85 52 85
88 59 88
66 42 66
76 62 76
14 4 14
1 0 1
0 0 0
0 0 0
0 0 0
0 0 0
0 0 0
2 0 2
14 1 14
14 0 14
10 0 10
9 0 9
11 0 11
13 0 13
22 0 22
82 57 82
171 162 171
168 155 168
150 128 150
138 109 138
141 112 141
138 108 138
128 96 128
130 99 130
142 115 142
129 96 129
125 89 125
126 92 126
121 84 121
120 84 120
118 80 118
119 81 119
117 80 117
120 85 120
115 77 115
114 77 114
115 79 115
124 94 124
118 85 118
104 65 104
107 69 107
111 73 111
106 69 106
108 74 108
105 72 105
105 76 105
107 80 107
85 54 85
67 44 67
77 62 77
16 6 16
0 0 0
0 0 0
0 0 0
0 0 0
0 0 0
0 0 0
2 0 2
14 1 14
14 0 14
10 0 10
9 0 9
11 0 11
13 0 13
21 0 21
81 56 81
173 165 173
169 156 169
148 125 148
134 105 134
138 109 138
138 108 138
125 90 125
126 93 126
141 112 141
127 93 127
122 84 122
120 84 120
116 77 116
114 74 114
115 77 115
116 76 116
113 75 113
118 82 118
115 76 115
109 69 109
113 77 113
126 96 126
111 74 111
102 62 102
104 65 104
106 67 106
105 67 105
104 69 104
106 73 106
120 94 120
116 92 116
87 56 87
62 35 62
61 42 61
11 3 11
0 0 0
0 0 0
0 0 0
0 0 0
0 0 0
0 0 0
2 0 2
14 2 14
15 0 15
10 0 10
9 0 9
11 0 11
14 0 14
20 0 20
73 47 73
174 167 174
170 157 170
148 126 148
132 103 132
136 106 136
138 107 138
127 92 127
124 89 124
135 103 135
123 87 123
117 76 117
114 75 114
114 75 114
110 68 110
115 77 115
114 74 114
111 71 111
112 74 112
110 70 110
106 65 106
111 73 111
122 91 122
106 68 106
103 62 103
104 64 104
103 64 103
101 62 101
95 57 95
98 65 98
103 72 103
87 53 87
85 55 85
76 48 76
56 34 56
7 0 7
0 0 0
0 0 0
0 0 0
0 0 0
0 0 0
0 0 0
2 0 2
14 1 14
15 0 15
9 0 9
8 0 8
11 0 11
13 0 13
17 0 17
63 38 63
175 168 175
172 159 172
149 126 149
132 103 132
137 107 137
136 105 136
127 92 127
124 90 124
131 98 131
121 84 121
114 73 114
112 72 112
114 75 114
110 68 110
116 78 116
113 73 113
115 77 115
111 72 111
106 65 106
106 65 106
115 80 115
123 92 123
107 70 107
101 60 101
102 62 102
100 60 100
94 54 94
87 48 87
88 51 88
96 63 96
85 52 85
78 46 78
78 48 78
69 45 69
9 1 9
0 0 0
0 0 0
0 0 0
0 0 0
0 0 0
0 0 0
2 0 2
13 1 13
15 0 15
9 0 9
8 0 8
10 0 10
11 0 11
13 0 13
55 29 55
175 168 175
174 162 174
145 122 145
134 106 134
135 104 135
135 104 135
126 93 126
125 90 125
126 90 126
117 78 117
112 71 112
111 71 111
114 74 114
110 67 110
115 76 115
110 69 110
114 74 114
110 70 110
107 66 107
107 67 107
116 82 116
120 88 120
109 73 109
100 60 100
99 60 99
93 54 93
89 48 89
87 48 87
85 48 85
92 57 92
79 44 79
76 43 76
80 50 80
74 48 74
20 6 20
0 0 0
0 0 0
0 0 0
0 0 0
0 0 0
0 0 0
2 0 2
13 1 13
14 0 14
9 0 9
8 0 8
9 0 9
10 0 10
12 0 12
47 21 47
162 151 162
172 159 172
142 119 142
138 110 138
130 99 130
137 107 137
128 95 128
124 88 124
123 86 123
115 74 115
113 72 113
114 74 114
111 71 111
110 69 110
113 73 113
109 68 109
110 70 110
109 69 109
109 69 109
107 68 107
113 77 113
121 89 121
110 74 110
99 59 99
96 56 96
89 49 89
90 50 90
87 49 87
87 49 87
90 55 90
73 37 73
74 41 74
84 55 84
77 49 77
36 14 36
4 0 4
0 0 0
0 0 0
0 0 0
0 0 0
0 0 0
2 0 2
13 1 13
13 0 13
8 0 8
8 0 8
9 0 9
10 0 10
10 0 10
37 12 37
139 121 139
176 165 176
146 124 146
138 111 138
128 97 128
134 104 134
128 96 128
121 84 121
117 79 117
113 72 113
115 75 115
116 78 116
109 68 109
111 71 111
110 70 110
111 71 111
112 74 112
110 71 110
109 70 109
106 67 106
114 80 114
110 74 110
109 74 109
98 59 98
92 50 92
88 47 88
93 52 93
94 56 94
94 59 94
93 60 93
78 42 78
74 40 74
80 49 80
83 53 83
57 30 57
20 4 20
0 0 0
0 0 0
0 0 0
0 0 0
0 0 0
2 0 2
12 1 12
13 0 13
9 0 9
8 0 8
8 0 8
10 0 10
10 0 10
32 8 32
132 113 132
178 167 178
150 130 150
139 113 139
129 97 129
132 102 132
128 95 128
122 86 122
116 77 116
114 73 114
117 78 117
114 74 114
112 72 112
115 76 115
112 73 112
115 78 115
112 74 112
110 72 110
109 71 109
104 65 104
113 79 113
107 72 107
110 76 110
104 68 104
93 52 93
88 47 88
94 52 94
97 59 97
91 57 91
85 52 85
78 42 78
75 40 75
81 50 81
89 60 89
65 37 65
27 7 27
1 0 1
0 0 0
0 0 0
0 0 0
0 0 0
2 0 2
13 2 13
13 0 13
9 0 9
8 0 8
8 0 8
10 0 10
11 0 11
20 1 20
111 90 111
167 153 167
152 133 152
143 118 143
134 104 134
134 102 134
136 109 136
120 83 120
113 73 113
121 84 121
118 80 118
117 80 117
127 93 127
132 102 132
130 100 130
132 102 132
120 85 120
112 76 112
115 79 115
110 74 110
112 77 112
111 77 111
109 74 109
106 71 106
99 62 99
98 62 98
101 65 101
100 67 100
95 64 95
70 38 70
61 27 61
61 28 61
80 49 80
95 65 95
86 61 86
37 15 37
11 2 11
1 0 1
0 0 0
0 0 0
0 0 0
2 0 2
12 2 12
12 0 12
9 0 9
8 0 8
8 0 8
10 0 10
11 0 11
17 0 17
72 45 72
155 139 155
144 123 144
145 122 145
136 106 136
133 102 133
120 86 120
115 77 115
118 82 118
126 92 126
120 83 120
129 97 129
155 134 155
151 130 151
143 119 143
143 119 143
129 99 129
119 85 119
113 78 113
114 79 114
111 75 111
121 90 121
128 98 128
116 81 116
104 68 104
97 62 97
97 61 97
100 66 100
84 50 84
65 33 65
57 26 57
55 26 55
70 41 70
89 58 89
81 54 81
39 14 39
16 3 16
1 0 1
0 0 0
0 0 0
0 0 0
2 0 2
12 2 12
12 0 12
8 0 8
8 0 8
7 0 7
9 0 9
11 0 11
14 0 14
50 22 50
156 143 156
151 131 151
151 131 151
145 120 145
140 113 140
126 94 126
112 74 112
114 76 114
122 87 122
124 90 124
121 86 121
127 96 127
126 94 126
130 101 130
135 107 135
132 104 132
119 86 119
110 73 110
107 69 107
114 78 114
131 102 131
126 93 126
119 87 119
117 86 117
116 85 116
108 76 108
101 68 101
89 55 89
69 36 69
64 32 64
62 33 62
65 37 65
87 58 87
71 42 71
37 13 37
14 1 14
0 0 0
0 0 0
0 0 0
0 0 0
2 0 2
12 2 12
11 0 11
6 0 6
7 0 7
7 0 7
8 0 8
10 0 10
10 0 10
30 6 30
120 100 120
169 156 169
156 138 156
161 143 161
149 124 149
125 91 125
123 89 123
116 81 116
116 80 116
131 100 131
108 68 108
118 82 118
128 97 128
140 115 140
118 82 118
125 92 125
108 70 108
105 66 105
106 68 106
116 81 116
134 106 134
128 99 128
112 78 112
119 89 119
110 78 110
100 65 100
85 47 85
82 48 82
81 48 81
65 34 65
57 27 57
61 30 61
90 60 90
71 42 71
33 12 33
11 1 11
0 0 0
0 0 0
0 0 0
0 0 0
2 0 2
12 2 12
10 0 10
7 0 7
8 0 8
8 0 8
7 0 7
9 0 9
7 0 7
14 0 14
62 36 62
174 167 174
172 158 172
164 149 164
155 133 155
142 114 142
133 102 133
112 76 112
109 70 109
117 82 117
107 68 107
119 84 119
131 102 131
134 106 134
113 75 113
110 71 110
106 67 106
108 70 108
112 74 112
113 76 113
118 85 118
111 75 111
110 76 110
116 85 116
90 53 90
88 50 88
82 44 82
78 42 78
75 41 75
63 33 63
68 38 68
79 49 79
85 55 85
61 32 61
33 14 33
11 1 11
0 0 0
0 0 0
0 0 0
0 0 0
2 0 2
12 2 12
10 0 10
7 0 7
8 0 8
7 0 7
6 0 6
7 0 7
6 0 6
7 0 7
28 6 28
114 93 114
202 201 202
184 174 184
167 150 167
150 124 150
142 113 142
119 82 119
116 79 116
109 71 109
108 68 108
135 106 135
132 102 132
127 96 127
121 86 121
110 71 110
107 68 107
106 68 106
111 74 111
113 76 113
107 71 107
101 63 101
111 77 111
119 89 119
77 39 77
82 46 82
93 58 93
98 66 98
93 62 93
91 63 91
88 59 88
88 58 88
74 41 74
46 17 46
29 11 29
7 0 7
0 0 0
0 0 0
0 0 0
0 0 0
2 0 2
12 2 12
9 0 9
7 0 7
9 0 9
7 0 7
6 0 6
6 0 6
5 0 5
5 0 5
10 0 10
52 26 52
161 149 161
204 203 204
181 168 181
171 155 171
164 144 164
133 101 133
128 94 128
115 80 115
108 69 108
130 99 130
120 85 120
127 95 127
122 89 122
117 82 117
105 67 105
107 69 107
117 82 117
114 79 114
105 68 105
101 63 101
111 76 111
112 79 112
86 47 86
87 50 87
95 60 95
96 61 96
98 67 98
98 71 98
97 70 97
98 70 98
73 43 73
47 18 47
21 7 21
3 0 3
0 0 0
0 0 0
0 0 0
0 0 0
2 0 2
12 2 12
9 0 9
7 0 7
10 0 10
7 0 7
5 0 5
5 0 5
5 0 5
5 0 5
6 0 6
20 1 20
63 35 63
134 113 134
191 183 191
178 165 178
172 157 172
146 118 146
149 123 149
135 106 135
120 84 120
118 83 118
116 79 116
121 88 121
122 90 122
114 78 114
108 71 108
110 73 110
120 86 120
113 77 113
105 67 105
100 62 100
119 87 119
118 86 118
104 70 104
91 55 91
104 71 104
100 68 100
104 75 104
108 83 108
122 101 122
111 89 111
96 73 96
53 26 53
19 5 19
1 0 1
0 0 0
0 0 0
0 0 0
0 0 0
2 0 2
12 2 12
8 0 8
7 0 7
10 0 10
8 0 8
6 0 6
5 0 5
5 0 5
5 0 5
5 0 5
8 0 8
32 8 32
66 34 66
117 87 117
167 153 167
159 141 159
152 132 152
148 125 148
140 113 140
133 103 133
118 85 118
115 78 115
115 80 115
115 80 115
114 80 114
109 73 109
113 77 113
124 92 124
114 78 114
110 73 110
103 66 103
118 87 118
122 91 122
118 87 118
108 74 108
112 80 112
108 77 108
117 93 117
128 111 128
108 84 108
124 107 124
128 116 128
58 31 58
15 2 15
0 0 0
0 0 0
0 0 0
0 0 0
0 0 0
2 0 2
12 2 12
8 0 8
7 0 7
10 0 10
8 0 8
5 0 5
5 0 5
5 0 5
6 0 6
5 0 5
6 0 6
13 0 13
42 15 42
69 34 69
98 67 98
137 115 137
126 99 126
133 108 133
134 107 134
142 116 142
134 105 134
128 97 128
116 82 116
118 85 118
114 81 114
112 79 112
113 79 113
127 98 127
125 94 125
124 93 124
104 66 104
100 63 100
113 82 113
117 89 117
113 83 113
116 88 116
111 84 111
130 108 130
137 94 137
103 81 103
104 83 104
136 127 136
68 43 68
12 0 12
0 0 0
0 0 0
0 0 0
0 0 0
0 0 0
2 0 2
11 2 11
7 0 7
5 0 5
8 0 8
8 0 8
6 0 6
6 0 6
5 0 5
6 0 6
5 0 5
5 0 5
7 0 7
23 2 23
55 24 55
67 34 67
80 46 80
95 61 95
100 67 100
105 71 105
112 79 112
117 86 117
116 84 116
117 86 117
130 103 130
123 94 123
113 80 113
113 81 113
120 92 120
120 91 120
112 82 112
95 61 95
113 85 113
138 123 138
96 63 96
104 71 104
124 103 124
134 117 134
119 99 119
110 85 110
84 56 84
93 69 93
109 91 109
85 65 85
17 6 17
4 0 4
4 0 4
3 0 3
1 0 1
0 0 0
2 0 2
11 2 11
8 0 8
6 0 6
7 0 7
8 0 8
6 0 6
6 0 6
6 0 6
6 0 6
6 0 6
5 0 5
6 0 6
13 0 13
44 17 44
56 27 56
70 36 70
78 42 78
81 43 81
82 43 82
87 47 87
89 50 89
91 53 91
114 82 114
120 90 120
108 75 108
105 70 105
106 70 106
126 98 126
117 87 117
104 69 104
94 56 94
89 51 89
92 57 92
92 53 92
91 53 91
94 58 94
100 66 100
95 62 95
80 46 80
73 41 73
61 33 61
50 23 50
20 2 20
1 0 1
0 0 0
0 0 0
0 0 0
0 0 0
0 0 0
2 0 2
10 1 10
8 0 8
6 0 6
6 0 6
8 0 8
5 0 5
5 0 5
6 0 6
5 0 5
6 0 6
5 0 5
6 0 6
13 0 13
31 8 31
49 22 49
62 32 62
71 38 71
77 42 77
81 44 81
82 43 82
83 44 83
91 55 91
115 85 115
112 82 112
98 64 98
98 64 98
104 70 104
110 79 110
108 77 108
100 69 100
133 77 133
116 91 116
130 112 130
141 127 141
102 72 102
110 84 110
128 107 128
103 74 103
102 75 102
102 77 102
99 75 99
79 53 79
35 13 35
4 0 4
2 0 2
1 0 1
1 0 1
0 0 0
0 0 0
3 0 3
14 3 14
9 0 9
6 0 6
6 0 6
7 0 7
7 0 7
7 0 7
6 0 6
5 0 5
6 0 6
5 0 5
5 0 5
9 0 9
21 3 21
41 19 41
58 31 58
71 39 71
79 44 79
80 44 80
81 43 81
85 46 85
87 50 87
98 63 98
102 68 102
101 67 101
98 64 98
103 68 103
114 84 114
109 76 109
104 72 104
118 94 118
107 81 107
126 107 126
122 101 122
88 55 88
90 60 90
103 75 103
113 90 113
106 82 106
121 104 121
145 137 145
107 89 107
41 21 41
6 0 6
1 0 1
1 0 1
0 0 0
0 0 0
0 0 0
2 0 2
12 3 12
8 0 8
5 0 5
5 0 5
6 0 6
7 0 7
8 0 8
6 0 6
4 0 4
6 0 6
5 0 5
5 0 5
7 0 7
17 4 17
33 13 33
54 27 54
68 36 68
76 41 76
80 44 80
82 44 82
85 48 85
90 54 90
92 56 92
94 59 94
97 63 97
105 73 105
108 75 108
115 85 115
115 85 115
112 83 112
109 81 109
107 79 107
117 94 117
101 70 101
87 51 87
91 56 91
110 82 110
127 107 127
121 101 121
126 110 126
118 102 118
69 43 69
19 5 19
1 0 1
0 0 0
0 0 0
0 0 0
0 0 0
0 0 0
2 0 2
12 3 12
8 0 8
6 0 6
5 0 5
6 0 6
7 0 7
8 0 8
6 0 6
4 0 4
5 0 5
5 0 5
5 0 5
7 0 7
16 4 16
28 10 28
49 23 49
65 35 65
74 40 74
79 44 79
81 44 81
87 51 87
88 51 88
98 64 98
106 74 106
103 70 103
108 77 108
112 81 112
110 79 110
114 84 114
102 70 102
100 70 100
115 90 115
105 76 105
97 65 97
88 53 88
95 63 95
111 85 111
125 106 125
121 100 121
138 125 138
111 93 111
58 31 58
10 0 10
0 0 0
0 0 0
0 0 0
0 0 0
0 0 0
0 0 0
2 0 2
12 3 12
7 0 7
5 0 5
5 0 5
6 0 6
7 0 7
8 0 8
6 0 6
4 0 4
4 0 4
5 0 5
5 0 5
8 0 8
14 4 14
22 5 22
49 24 49
65 35 65
73 39 73
79 44 79
79 42 79
83 48 83
90 55 90
98 65 98
99 65 99
97 63 97
99 64 99
108 76 108
113 84 113
113 84 113
92 57 92
95 63 95
93 59 93
97 65 97
98 67 98
90 58 90
103 75 103
102 74 102
116 94 116
116 94 116
112 91 112
85 60 85
46 20 46
5 0 5
0 0 0
0 0 0
0 0 0
0 0 0
0 0 0
0 0 0
2 0 2
12 3 12
7 0 7
5 0 5
5 0 5
6 0 6
7 0 7
7 0 7
6 0 6
4 0 4
4 0 4
5 0 5
5 0 5
7 0 7
13 3 13
17 1 17
50 25 50
64 34 64
71 39 71
78 44 78
78 42 78
80 44 80
84 49 84
100 67 100
100 67 100
91 54 91
96 61 96
101 66 101
103 70 103
104 72 104
93 60 93
95 64 95
88 54 88
92 57 92
92 59 92
88 55 88
102 77 102
97 70 97
109 84 109
112 89 112
102 79 102
75 49 75
42 18 42
4 0 4
0 0 0
0 0 0
0 0 0
0 0 0
0 0 0
0 0 0
2 0 2
12 2 12
7 0 7
5 0 5
5 0 5
6 0 6
6 0 6
6 0 6
5 0 5
4 0 4
5 0 5
5 0 5
5 0 5
6 0 6
13 3 13
17 2 17
49 24 49
64 34 64
71 38 71
76 42 76
78 43 78
78 43 78
81 44 81
94 59 94
101 69 101
96 62 96
100 66 100
104 70 104
97 62 97
87 50 87
91 58 91
103 75 103
89 56 89
99 69 99
93 60 93
96 66 96
99 73 99
91 64 91
99 75 99
113 92 113
106 86 106
70 44 70
40 18 40
4 0 4
0 0 0
0 0 0
0 0 0
0 0 0
0 0 0
0 0 0
2 0 2
12 2 12
7 0 7
5 0 5
5 0 5
6 0 6
6 0 6
6 0 6
5 0 5
4 0 4
4 0 4
5 0 5
5 0 5
7 0 7
12 3 12
20 5 20
49 23 49
63 34 63
70 38 70
74 40 74
79 44 79
79 43 79
82 47 82
95 61 95
101 68 101
100 67 100
99 65 99
99 65 99
93 57 93
83 46 83
77 40 77
80 46 80
97 67 97
117 95 117
100 72 100
103 78 103
99 74 99
92 68 92
100 79 100
129 115 129
118 103 118
67 44 67
37 17 37
4 0 4
0 0 0
0 0 0
0 0 0
0 0 0
0 0 0
0 0 0
2 0 2
12 2 12
7 0 7
4 0 4
5 0 5
6 0 6
6 0 6
5 0 5
4 0 4
4 0 4
4 0 4
5 0 5
5 0 5
7 0 7
12 3 12
19 4 19
48 23 48
62 33 62
67 36 67
74 40 74
78 42 78
80 44 80
84 49 84
97 64 97
97 65 97
96 62 96
99 66 99
102 69 102
91 55 91
81 43 81
73 37 73
73 37 73
77 41 77
85 51 85
98 71 98
103 78 103
103 81 103
99 79 99
88 66 88
125 112 125
142 138 142
69 51 69
28 11 28
3 0 3
0 0 0
0 0 0
0 0 0
0 0 0
0 0 0
0 0 0
0 0 0
0 0 0
0 0 0
0 0 0
0 0 0
0 0 0
0 0 0
0 0 0
0 0 0
0 0 0
0 0 0
0 0 0
0 0 0
0 0 0
0 0 0
0 0 0
0 0 0
0 0 0
0 0 0
0 0 0
0 0 0
0 0 0
0 0 0
0 0 0
0 0 0
0 0 0
0 0 0
0 0 0
0 0 0
0 0 0
0 0 0
0 0 0
0 0 0
0 0 0
0 0 0
0 0 0
0 0 0
0 0 0
0 0 0
0 0 0
0 0 0
0 0 0
0 0 0
0 0 0
0 0 0
0 0 0
0 0 0
0 0 0
0 0 0
