P3 
50 50 
255
0 0 0
0 0 0
0 0 0
0 0 0
0 0 0
0 0 0
0 0 0
0 0 0
0 0 0
0 0 0
0 0 0
0 0 0
0 0 0
0 0 0
0 0 0
0 0 0
0 0 0
0 0 0
0 0 0
0 0 0
0 0 0
0 0 0
0 0 0
0 0 0
0 0 0
0 0 0
0 0 0
0 0 0
0 0 0
0 0 0
0 0 0
0 0 0
0 0 0
0 0 0
0 0 0
0 0 0
0 0 0
0 0 0
0 0 0
0 0 0
0 0 0
0 0 0
0 0 0
0 0 0
0 0 0
0 0 0
0 0 0
0 0 0
0 0 0
0 0 0
0 0 0
0 0 0
0 0 0
0 0 0
0 0 0
0 0 0
0 0 0
0 0 0
0 0 0
0 0 0
0 0 0
0 0 0
0 0 0
1 0 1
1 0 1
1 0 1
0 0 0
1 0 1
1 0 1
4 0 4
10 0 10
18 2 18
23 5 23
22 5 22
16 2 16
8 0 8
4 0 4
4 0 4
6 0 6
6 1 6
5 0 5
3 0 3
2 0 2
2 0 2
2 0 2
2 0 2
2 0 2
2 0 2
2 0 2
2 0 2
3 0 3
2 0 2
3 0 3
4 0 4
6 0 6
7 0 7
6 0 6
5 0 5
4 0 4
1 0 1
0 0 0
0 0 0
0 0 0
0 0 0
0 0 0
0 0 0
0 0 0
0 0 0
0 0 0
0 0 0
0 0 0
0 0 0
1 0 1
1 0 1
1 0 1
1 0 1
4 0 4
22 5 22
42 20 42
61 38 61
83 64 83
107 93 107
119 107 119
114 102 114
95 79 95
75 56 75
54 32 54
33 14 33
18 3 18
8 1 8
5 0 5
3 0 3
2 0 2
3 0 3
2 0 2
2 0 2
3 0 3
3 0 3
2 0 2
2 0 2
2 0 2
2 0 2
3 0 3
5 0 5
7 0 7
8 0 8
6 0 6
4 0 4
4 0 4
1 0 1
0 0 0
0 0 0
0 0 0
0 0 0
0 0 0
0 0 0
0 0 0
0 0 0
0 0 0
0 0 0
0 0 0
1 0 1
1 0 1
1 0 1
2 0 2
19 4 19
47 24 47
88 69 88
127 116 127
145 138 145
152 148 152
152 147 152
152 146 152
152 147 152
148 143 148
146 142 146
135 128 135
121 112 121
86 70 86
47 27 47
23 6 23
5 0 5
2 0 2
3 0 3
3 0 3
4 0 4
3 0 3
3 0 3
3 0 3
3 0 3
2 0 2
3 0 3
3 0 3
5 0 5
7 0 7
8 0 8
6 0 6
4 0 4
4 0 4
1 0 1
0 0 0
0 0 0
0 0 0
0 0 0
0 0 0
0 0 0
0 0 0
0 0 0
0 0 0
0 0 0
0 0 0
1 0 1
1 0 1
4 0 4
32 13 32
73 51 73
126 114 126
144 136 144
147 139 147
142 132 142
134 122 134
128 114 128
126 111 126
126 111 126
126 110 126
128 115 128
133 123 133
140 133 140
131 123 131
119 109 119
87 72 87
42 22 42
14 1 14
3 0 3
3 0 3
3 0 3
3 0 3
2 0 2
3 0 3
3 0 3
2 0 2
2 0 2
4 0 4
5 0 5
7 0 7
9 0 9
7 0 7
4 0 4
5 0 5
1 0 1
0 0 0
0 0 0
0 0 0
0 0 0
0 0 0
0 0 0
0 0 0
0 0 0
0 0 0
0 0 0
0 0 0
1 0 1
6 0 6
39 18 39
94 75 94
133 121 133
150 141 150
151 142 151
139 127 139
128 112 128
122 105 122
118 99 118
113 92 113
114 93 114
110 89 110
110 90 110
118 100 118
131 119 131
129 117 129
130 121 130
127 119 127
110 100 110
60 40 60
23 6 23
4 0 4
2 0 2
3 0 3
2 0 2
3 0 3
3 0 3
3 0 3
3 0 3
3 0 3
6 0 6
7 0 7
8 0 8
7 0 7
4 0 4
5 0 5
1 0 1
0 0 0
0 0 0
0 0 0
0 0 0
0 0 0
0 0 0
0 0 0
0 0 0
0 0 0
0 0 0
1 0 1
5 0 5
43 22 43
108 93 108
137 126 137
152 144 152
156 149 156
137 123 137
127 110 127
126 109 126
119 100 119
114 93 114
112 90 112
111 89 111
106 83 106
107 84 107
110 88 110
120 104 120
123 109 123
122 108 122
125 113 125
131 123 131
115 105 115
73 56 73
27 10 27
5 0 5
2 0 2
2 0 2
2 0 2
3 0 3
3 0 3
3 0 3
3 0 3
6 0 6
7 0 7
8 0 8
7 0 7
5 0 5
5 0 5
1 0 1
0 0 0
0 0 0
0 0 0
0 0 0
0 0 0
0 0 0
0 0 0
0 0 0
0 0 0
0 0 0
2 0 2
38 18 38
110 96 110
140 130 140
152 145 152
152 143 152
132 117 132
121 103 121
123 105 123
122 103 122
114 93 114
112 89 112
110 87 110
104 80 104
106 82 106
105 82 105
102 78 102
106 84 106
110 91 110
109 90 109
110 92 110
122 110 122
127 119 127
114 103 114
73 56 73
25 7 25
4 0 4
2 0 2
2 0 2
2 0 2
3 0 3
3 0 3
3 0 3
6 0 6
6 0 6
7 0 7
7 0 7
6 0 6
5 0 5
1 0 1
0 0 0
0 0 0
0 0 0
0 0 0
0 0 0
0 0 0
0 0 0
0 0 0
0 0 0
1 0 1
20 3 20
104 89 104
142 134 142
148 139 148
143 131 143
124 105 124
119 99 119
118 98 118
116 95 116
114 92 114
107 83 107
106 81 106
106 82 106
106 82 106
104 80 104
102 77 102
102 79 102
99 75 99
97 72 97
101 79 101
101 80 101
109 90 109
122 110 122
125 116 125
111 99 111
63 44 63
18 3 18
4 0 4
2 0 2
2 0 2
3 0 3
3 0 3
4 0 4
6 0 6
7 0 7
7 0 7
6 0 6
6 0 6
5 0 5
1 0 1
0 0 0
0 0 0
0 0 0
0 0 0
0 0 0
0 0 0
0 0 0
0 0 0
0 0 0
6 0 6
74 55 74
135 125 135
142 131 142
133 119 133
112 90 112
110 87 110
114 92 114
111 89 111
110 87 110
107 83 107
101 75 101
104 79 104
102 76 102
104 80 104
101 75 101
102 78 102
100 74 100
102 79 102
99 75 99
98 74 98
100 78 100
108 89 108
112 96 112
124 112 124
122 111 122
100 86 100
48 27 48
12 0 12
3 0 3
2 0 2
2 0 2
3 0 3
4 0 4
6 0 6
8 0 8
8 0 8
6 0 6
6 0 6
5 0 5
1 0 1
0 0 0
0 0 0
0 0 0
0 0 0
0 0 0
0 0 0
0 0 0
0 0 0
1 0 1
29 12 29
121 109 121
140 129 140
127 110 127
112 90 112
112 90 112
111 88 111
114 92 114
112 88 112
104 79 104
99 72 99
102 77 102
100 73 100
102 76 102
101 75 101
101 76 101
98 71 98
103 80 103
99 74 99
95 68 95
92 65 92
93 68 93
97 74 97
105 85 105
114 98 114
124 111 124
117 104 117
86 68 86
30 10 30
5 0 5
3 0 3
3 0 3
3 0 3
4 0 4
6 0 6
8 0 8
9 0 9
7 0 7
6 0 6
6 0 6
1 0 1
0 0 0
0 0 0
0 0 0
0 0 0
0 0 0
0 0 0
0 0 0
0 0 0
6 0 6
84 68 84
131 119 131
123 107 123
103 80 103
102 77 102
109 88 109
110 88 110
109 85 109
104 78 104
100 74 100
103 78 103
100 73 100
99 74 99
99 73 99
101 75 101
97 71 97
101 77 101
98 73 98
97 71 97
96 70 96
94 68 94
96 72 96
103 81 103
104 84 104
107 88 107
119 104 119
125 114 125
112 99 112
56 35 56
9 0 9
3 0 3
3 0 3
4 0 4
4 0 4
5 0 5
8 0 8
10 0 10
9 0 9
7 0 7
7 0 7
1 0 1
0 0 0
0 0 0
0 0 0
0 0 0
0 0 0
0 0 0
0 0 0
1 0 1
32 17 32
112 99 112
124 110 124
103 80 103
104 80 104
111 89 111
116 96 116
109 86 109
105 80 105
103 78 103
101 75 101
100 74 100
101 75 101
101 76 101
99 72 99
98 72 98
101 76 101
99 74 99
101 76 101
101 77 101
98 73 98
98 73 98
96 71 96
95 70 95
94 69 94
98 75 98
106 88 106
123 111 123
124 113 124
84 66 84
23 4 23
4 0 4
3 0 3
5 0 5
5 0 5
5 0 5
7 0 7
9 0 9
10 0 10
9 0 9
7 0 7
1 0 1
0 0 0
0 0 0
0 0 0
0 0 0
0 0 0
0 0 0
0 0 0
3 0 3
60 44 60
116 102 116
111 91 111
101 76 101
107 84 107
113 92 113
107 83 107
108 84 108
107 83 107
98 70 98
103 78 103
97 69 97
101 75 101
97 70 97
100 74 100
101 75 101
99 73 99
100 75 100
101 77 101
94 68 94
92 64 92
93 67 93
92 66 92
94 68 94
98 76 98
99 76 99
104 84 104
113 97 113
127 115 127
113 101 113
39 18 39
6 0 6
4 0 4
5 0 5
6 0 6
7 0 7
7 0 7
9 0 9
12 0 12
10 0 10
7 0 7
2 0 2
0 0 0
0 0 0
0 0 0
0 0 0
0 0 0
0 0 0
0 0 0
12 2 12
89 75 89
115 98 115
101 77 101
98 72 98
108 85 108
107 83 107
104 79 104
100 72 100
100 73 100
101 74 101
98 71 98
100 74 100
99 73 99
98 70 98
100 74 100
101 75 101
98 72 98
101 76 101
95 68 95
92 64 92
94 68 94
98 74 98
100 77 100
101 78 101
100 78 100
100 79 100
103 84 103
109 92 109
120 107 120
120 108 120
57 36 57
12 0 12
5 0 5
5 0 5
5 0 5
7 0 7
8 0 8
11 0 11
12 0 12
10 0 10
8 0 8
2 0 2
0 0 0
0 0 0
0 0 0
0 0 0
0 0 0
0 0 0
0 0 0
20 5 20
107 92 107
112 92 112
96 69 96
101 75 101
104 79 104
109 86 109
110 88 110
106 80 106
95 65 95
99 71 99
98 70 98
101 75 101
97 69 97
97 69 97
99 73 99
100 74 100
97 70 97
97 71 97
93 66 93
97 72 97
97 73 97
98 74 98
99 75 99
98 74 98
96 72 96
95 72 95
98 76 98
107 89 107
111 95 111
120 108 120
77 59 77
17 1 17
6 0 6
6 0 6
7 0 7
8 0 8
12 0 12
13 0 13
12 0 12
9 0 9
8 0 8
2 0 2
0 0 0
0 0 0
0 0 0
0 0 0
0 0 0
0 0 0
1 0 1
37 16 37
110 92 110
105 82 105
92 64 92
99 73 99
105 80 105
109 86 109
103 77 103
102 76 102
96 67 96
97 68 97
102 75 102
99 71 99
100 72 100
99 73 99
100 73 100
97 71 97
99 73 99
95 67 95
96 70 96
95 69 95
92 64 92
92 64 92
91 64 91
93 67 93
92 66 92
89 63 89
93 69 93
103 84 103
111 95 111
123 111 123
95 80 95
20 3 20
6 0 6
6 0 6
6 0 6
8 0 8
11 0 11
13 0 13
11 0 11
9 0 9
8 0 8
2 0 2
0 0 0
0 0 0
0 0 0
0 0 0
0 0 0
1 0 1
3 0 3
50 29 50
111 92 111
102 78 102
95 68 95
103 78 103
107 84 107
101 75 101
94 65 94
96 68 96
97 69 97
95 66 95
99 72 99
100 72 100
101 74 101
99 72 99
100 73 100
96 68 96
100 74 100
93 65 93
97 71 97
91 62 91
89 60 89
88 59 88
89 60 89
95 68 95
94 69 94
90 64 90
91 66 91
100 79 100
111 95 111
124 113 124
102 88 102
25 6 25
6 0 6
5 0 5
5 0 5
7 0 7
10 0 10
11 0 11
11 0 11
8 0 8
8 0 8
2 0 2
0 0 0
0 0 0
0 0 0
0 0 0
0 0 0
0 0 0
9 1 9
57 36 57
109 88 109
97 71 97
107 82 107
110 88 110
107 85 107
97 71 97
92 63 92
96 68 96
100 73 100
94 64 94
102 75 102
98 69 98
100 73 100
98 69 98
98 70 98
95 67 95
98 73 98
95 68 95
97 72 97
90 62 90
90 61 90
89 60 89
92 65 92
100 76 100
97 73 97
95 70 95
95 70 95
99 78 99
110 93 110
126 114 126
107 93 107
30 9 30
6 0 6
5 0 5
6 0 6
7 0 7
9 0 9
10 0 10
10 0 10
8 0 8
9 0 9
2 0 2
0 0 0
0 0 0
0 0 0
1 0 1
0 0 0
0 0 0
15 5 15
72 53 72
85 59 85
93 67 93
109 86 109
120 101 120
108 85 108
93 65 93
91 62 91
95 66 95
99 72 99
95 66 95
102 76 102
97 68 97
98 70 98
97 68 97
99 70 99
97 69 97
97 71 97
96 70 96
98 72 98
91 62 91
90 61 90
92 64 92
99 74 99
104 82 104
101 78 101
101 78 101
99 76 99
100 79 100
110 92 110
128 117 128
110 97 110
33 12 33
7 0 7
5 0 5
5 0 5
6 0 6
9 0 9
9 0 9
9 0 9
7 0 7
8 0 8
2 0 2
0 0 0
0 0 0
0 0 0
0 0 0
0 0 0
0 0 0
27 16 27
70 50 70
80 54 80
100 76 100
116 95 116
120 102 120
104 78 104
96 68 96
93 64 93
94 66 94
100 73 100
95 66 95
101 75 101
95 66 95
96 68 96
96 67 96
102 74 102
99 72 99
99 73 99
100 75 100
95 67 95
89 60 89
90 61 90
95 69 95
100 76 100
101 77 101
99 76 99
101 78 101
103 82 103
101 80 101
111 94 111
132 122 132
112 100 112
33 12 33
7 0 7
5 0 5
4 0 4
6 0 6
9 0 9
10 0 10
9 0 9
7 0 7
7 0 7
2 0 2
0 0 0
0 0 0
0 0 0
0 0 0
0 0 0
0 0 0
28 17 28
56 34 56
73 45 73
103 80 103
121 102 121
118 97 118
104 77 104
95 66 95
94 65 94
94 66 94
97 69 97
94 65 94
102 75 102
95 67 95
96 67 96
96 67 96
100 72 100
99 72 99
98 71 98
100 75 100
95 68 95
90 61 90
91 63 91
96 70 96
96 72 96
93 67 93
93 68 93
97 73 97
104 83 104
104 84 104
112 95 112
132 122 132
113 100 113
32 11 32
7 0 7
6 0 6
5 0 5
6 0 6
8 0 8
9 0 9
10 0 10
7 0 7
7 0 7
2 0 2
0 0 0
0 0 0
0 0 0
0 0 0
0 0 0
0 0 0
27 14 27
55 34 55
71 42 71
95 68 95
112 89 112
113 89 113
98 69 98
90 62 90
96 68 96
93 65 93
94 65 94
94 64 94
102 75 102
96 67 96
95 67 95
93 64 93
98 70 98
98 70 98
98 71 98
99 73 99
95 68 95
89 60 89
93 66 93
94 67 94
90 62 90
89 62 89
88 61 88
94 69 94
102 80 102
104 84 104
114 98 114
134 124 134
108 95 108
27 7 27
7 0 7
6 0 6
5 0 5
6 0 6
8 0 8
8 0 8
10 0 10
7 0 7
7 0 7
1 0 1
0 0 0
0 0 0
0 0 0
0 0 0
0 0 0
2 0 2
35 21 35
62 41 62
72 43 72
90 63 90
101 74 101
105 78 105
96 67 96
92 64 92
93 65 93
92 64 92
92 63 92
93 65 93
98 71 98
96 68 96
96 67 96
95 67 95
98 70 98
96 67 96
98 70 98
96 69 96
96 69 96
90 61 90
94 66 94
89 60 89
88 59 88
91 65 91
88 61 88
92 67 92
103 82 103
105 85 105
117 102 117
134 125 134
104 91 104
23 4 23
7 0 7
6 0 6
5 0 5
6 0 6
7 0 7
8 0 8
9 0 9
7 0 7
7 0 7
1 0 1
0 0 0
0 0 0
0 0 0
0 0 0
0 0 0
7 0 7
42 29 42
68 46 68
73 44 73
88 59 88
97 67 97
102 74 102
97 69 97
92 64 92
91 64 91
88 61 88
89 60 89
92 65 92
94 67 94
96 67 96
96 68 96
96 68 96
99 71 99
95 66 95
97 69 97
94 66 94
97 70 97
90 61 90
92 64 92
87 58 87
85 56 85
93 67 93
89 63 89
90 64 90
101 79 101
106 87 106
120 106 120
133 124 133
96 82 96
18 2 18
6 0 6
5 0 5
4 0 4
6 0 6
8 0 8
8 0 8
9 0 9
8 0 8
6 0 6
1 0 1
0 0 0
0 0 0
0 0 0
0 0 0
0 0 0
13 3 13
43 28 43
70 45 70
72 42 72
87 55 87
99 68 99
100 70 100
99 71 99
92 65 92
92 66 92
85 56 85
86 58 86
90 63 90
91 63 91
96 68 96
97 69 97
95 66 95
99 71 99
96 67 96
99 71 99
95 67 95
98 71 98
92 64 92
92 64 92
86 56 86
85 55 85
91 64 91
91 66 91
91 66 91
99 77 99
107 88 107
120 106 120
130 121 130
78 60 78
14 1 14
6 0 6
5 0 5
4 0 4
6 0 6
7 0 7
9 0 9
8 0 8
7 0 7
6 0 6
2 0 2
0 0 0
0 0 0
0 0 0
0 0 0
1 0 1
22 7 22
58 41 58
76 50 76
68 37 68
89 54 89
101 70 101
95 63 95
98 71 98
96 69 96
95 67 95
87 57 87
89 61 89
90 62 90
89 61 89
90 62 90
94 66 94
94 64 94
98 70 98
96 67 96
99 71 99
96 67 96
98 71 98
93 64 93
94 67 94
88 58 88
85 56 85
92 65 92
93 68 93
91 67 91
100 79 100
110 93 110
119 105 119
128 118 128
56 36 56
10 0 10
6 0 6
6 0 6
4 0 4
6 0 6
7 0 7
9 0 9
8 0 8
7 0 7
6 0 6
2 0 2
0 0 0
0 0 0
0 0 0
0 0 0
1 0 1
24 8 24
68 50 68
80 55 80
67 35 67
90 55 90
102 71 102
93 60 93
96 69 96
95 68 95
94 65 94
87 55 87
90 62 90
87 60 87
89 61 89
89 61 89
93 64 93
96 66 96
98 69 98
96 66 96
98 71 98
96 68 96
98 71 98
94 65 94
98 71 98
89 60 89
86 58 86
92 66 92
95 70 95
93 69 93
101 80 101
111 94 111
122 108 122
127 118 127
47 26 47
8 0 8
6 0 6
5 0 5
4 0 4
6 0 6
7 0 7
9 0 9
7 0 7
7 0 7
6 0 6
1 0 1
0 0 0
0 0 0
0 0 0
0 0 0
1 0 1
32 11 32
89 70 89
88 61 88
82 47 82
82 44 82
99 70 99
96 70 96
100 77 100
90 64 90
88 57 88
89 60 89
92 65 92
89 62 89
96 70 96
92 66 92
92 63 92
98 68 98
98 68 98
100 72 100
100 73 100
104 78 104
107 82 107
101 75 101
104 80 104
97 71 97
99 75 99
97 73 97
98 75 98
97 74 97
104 84 104
118 102 118
131 120 131
110 96 110
29 7 29
7 0 7
6 0 6
5 0 5
5 0 5
6 0 6
7 0 7
9 0 9
8 0 8
7 0 7
6 0 6
1 0 1
0 0 0
0 0 0
0 0 0
0 0 0
2 0 2
36 14 36
92 71 92
91 64 91
74 38 74
74 37 74
95 66 95
104 81 104
101 80 101
97 74 97
94 67 94
111 91 111
103 79 103
95 68 95
98 72 98
95 69 95
91 61 91
97 68 97
97 67 97
101 73 101
100 73 100
110 85 110
110 85 110
104 79 104
107 81 107
103 78 103
104 80 104
98 74 98
94 69 94
94 69 94
93 69 93
118 102 118
134 123 134
78 56 78
20 0 20
8 0 8
4 0 4
4 0 4
5 0 5
6 0 6
7 0 7
9 0 9
8 0 8
7 0 7
6 0 6
1 0 1
0 0 0
0 0 0
0 0 0
0 0 0
2 0 2
34 11 34
84 62 84
97 73 97
76 41 76
81 47 81
99 72 99
105 84 105
110 89 110
112 92 112
107 86 107
116 96 116
111 88 111
106 83 106
98 72 98
98 72 98
96 67 96
98 69 98
97 67 97
100 72 100
102 75 102
108 83 108
104 77 104
101 75 101
102 76 102
97 69 97
94 67 94
98 74 98
95 70 95
88 62 88
98 75 98
125 112 125
141 134 141
63 39 63
15 0 15
6 0 6
4 0 4
4 0 4
4 0 4
5 0 5
7 0 7
9 0 9
8 0 8
7 0 7
6 0 6
1 0 1
0 0 0
0 0 0
0 0 0
0 0 0
3 0 3
35 11 35
80 58 80
85 61 85
71 38 71
85 52 85
84 53 84
95 70 95
118 98 118
110 87 110
115 97 115
120 102 120
121 103 121
105 83 105
98 73 98
99 75 99
100 74 100
98 69 98
97 68 97
96 66 96
101 73 101
101 74 101
104 79 104
102 76 102
103 79 103
102 78 102
98 75 98
104 82 104
98 75 98
96 72 96
107 88 107
137 128 137
127 116 127
43 18 43
9 0 9
5 0 5
4 0 4
4 0 4
4 0 4
5 0 5
7 0 7
9 0 9
8 0 8
6 0 6
5 0 5
1 0 1
0 0 0
0 0 0
0 0 0
0 0 0
4 0 4
32 10 32
64 38 64
76 49 76
72 39 72
76 41 76
82 48 82
80 45 80
101 77 101
95 67 95
109 86 109
119 101 119
120 104 120
107 85 107
98 74 98
99 75 99
107 83 107
104 78 104
98 70 98
96 67 96
98 70 98
98 70 98
95 66 95
102 76 102
105 81 105
105 82 105
97 74 97
100 78 100
92 69 92
101 80 101
129 118 129
150 145 150
99 82 99
23 3 23
5 0 5
4 0 4
4 0 4
3 0 3
4 0 4
5 0 5
7 0 7
9 0 9
8 0 8
5 0 5
6 0 6
1 0 1
0 0 0
0 0 0
0 0 0
0 0 0
2 0 2
25 8 25
49 22 49
61 32 61
72 38 72
83 47 83
84 50 84
85 51 85
101 72 101
104 76 104
116 93 116
127 110 127
109 88 109
102 80 102
101 79 101
105 83 105
106 81 106
105 81 105
101 74 101
98 70 98
97 69 97
101 74 101
98 71 98
103 78 103
116 97 116
120 104 120
104 84 104
109 91 109
113 96 113
121 108 121
146 140 146
145 140 145
62 37 62
10 0 10
3 0 3
3 0 3
3 0 3
3 0 3
5 0 5
5 0 5
7 0 7
8 0 8
8 0 8
5 0 5
5 0 5
1 0 1
0 0 0
0 0 0
0 0 0
0 0 0
0 0 0
16 4 16
40 15 40
55 27 55
73 38 73
88 55 88
96 64 96
86 52 86
101 69 101
114 87 114
121 99 121
113 91 113
118 97 118
107 84 107
101 76 101
110 88 110
109 85 109
105 80 105
108 84 108
106 81 106
106 82 106
107 83 107
116 96 116
122 106 122
122 107 122
119 102 119
115 98 115
117 102 117
125 115 125
146 141 146
155 152 155
108 93 108
31 7 31
6 0 6
2 0 2
3 0 3
3 0 3
3 0 3
5 0 5
5 0 5
7 0 7
9 0 9
8 0 8
5 0 5
5 0 5
1 0 1
0 0 0
0 0 0
0 0 0
0 0 0
0 0 0
11 3 11
34 10 34
54 26 54
75 38 75
89 53 89
107 75 107
102 67 102
106 75 106
112 86 112
113 90 113
105 80 105
115 95 115
109 85 109
120 100 120
114 90 114
103 76 103
104 79 104
108 83 108
107 82 107
112 90 112
121 103 121
126 110 126
130 118 130
122 107 122
124 110 124
129 117 129
130 119 130
128 118 128
136 126 136
123 109 123
52 27 52
15 2 15
5 0 5
2 0 2
3 0 3
2 0 2
3 0 3
4 0 4
5 0 5
7 0 7
9 0 9
8 0 8
6 0 6
4 0 4
1 0 1
0 0 0
0 0 0
0 0 0
0 0 0
0 0 0
7 1 7
25 7 25
52 24 52
74 37 74
97 63 97
114 83 114
114 84 114
107 78 107
105 76 105
111 84 111
115 91 115
126 106 126
124 103 124
121 100 121
119 97 119
106 80 106
99 71 99
102 75 102
103 77 103
107 83 107
114 92 114
123 105 123
118 100 118
113 94 113
114 97 114
119 102 119
117 99 117
123 107 123
117 101 117
66 41 66
25 4 25
15 5 15
3 0 3
2 0 2
3 0 3
2 0 2
3 0 3
5 0 5
5 0 5
8 0 8
9 0 9
9 0 9
5 0 5
4 0 4
1 0 1
0 0 0
0 0 0
0 0 0
0 0 0
0 0 0
3 0 3
23 7 23
49 22 49
75 39 75
100 67 100
123 95 123
119 92 119
103 73 103
102 73 102
110 82 110
121 98 121
129 109 129
128 107 128
120 97 120
120 98 120
115 91 115
105 79 105
102 75 102
107 82 107
112 90 112
119 99 119
132 116 132
116 96 116
99 74 99
95 69 95
103 80 103
119 101 119
104 83 104
67 38 67
43 16 43
16 1 16
10 1 10
3 0 3
3 0 3
2 0 2
2 0 2
3 0 3
5 0 5
5 0 5
8 0 8
9 0 9
9 0 9
5 0 5
4 0 4
0 0 0
0 0 0
0 0 0
1 0 1
2 0 2
3 0 3
7 0 7
25 8 25
54 26 54
85 54 85
108 77 108
109 78 109
99 68 99
89 58 89
105 77 105
104 70 104
107 72 107
107 75 107
113 84 113
116 92 116
128 107 128
128 107 128
121 100 121
115 93 115
111 86 111
107 80 107
111 86 111
104 78 104
100 73 100
90 62 90
83 54 83
83 55 83
74 45 74
62 33 62
51 23 51
23 2 23
11 0 11
5 0 5
3 0 3
2 0 2
2 0 2
3 0 3
3 0 3
4 0 4
5 0 5
8 0 8
8 0 8
9 0 9
6 0 6
4 0 4
0 0 0
0 0 0
0 0 0
0 0 0
0 0 0
0 0 0
1 0 1
18 5 18
37 13 37
62 31 62
74 42 74
96 64 96
99 70 99
84 49 84
82 47 82
83 48 83
87 51 87
89 54 89
91 58 91
101 71 101
106 77 106
91 58 91
90 57 90
92 59 92
95 63 95
95 63 95
99 70 99
90 58 90
82 48 82
72 39 72
69 37 69
66 36 66
63 34 63
57 30 57
37 12 37
14 1 14
8 0 8
3 0 3
3 0 3
2 0 2
3 0 3
3 0 3
3 0 3
4 0 4
5 0 5
6 0 6
7 0 7
8 0 8
5 0 5
4 0 4
0 0 0
0 0 0
0 0 0
1 0 1
2 0 2
3 0 3
4 0 4
22 8 22
40 16 40
71 41 71
107 77 107
115 89 115
112 85 112
107 77 107
103 72 103
97 65 97
97 66 97
98 67 98
104 74 104
120 93 120
126 102 126
108 79 108
99 69 99
99 69 99
97 65 97
93 62 93
102 74 102
86 53 86
75 41 75
69 35 69
64 32 64
64 34 64
60 33 60
48 23 48
19 1 19
7 0 7
4 0 4
3 0 3
3 0 3
3 0 3
3 0 3
3 0 3
3 0 3
4 0 4
4 0 4
5 0 5
6 0 6
7 0 7
4 0 4
4 0 4
0 0 0
0 0 0
0 0 0
0 0 0
1 0 1
2 0 2
3 0 3
18 7 18
38 18 38
68 39 68
112 84 112
127 101 127
124 96 124
119 90 119
99 64 99
95 61 95
92 58 92
89 56 89
98 67 98
110 81 110
117 89 117
112 84 112
101 70 101
97 65 97
96 66 96
94 63 94
87 55 87
80 45 80
75 41 75
70 37 70
66 34 66
64 35 64
58 32 58
40 17 40
10 0 10
5 0 5
3 0 3
3 0 3
3 0 3
4 0 4
4 0 4
3 0 3
3 0 3
4 0 4
4 0 4
6 0 6
7 0 7
9 1 9
4 0 4
4 0 4
0 0 0
0 0 0
0 0 0
0 0 0
0 0 0
0 0 0
0 0 0
5 0 5
29 11 29
54 23 54
81 48 81
115 86 115
138 116 138
115 85 115
97 62 97
95 60 95
89 54 89
83 47 83
89 55 89
100 69 100
108 80 108
108 79 108
98 66 98
93 60 93
95 63 95
90 58 90
90 58 90
80 46 80
74 41 74
69 36 69
66 35 66
64 35 64
56 30 56
34 13 34
7 0 7
4 0 4
2 0 2
2 0 2
2 0 2
4 0 4
3 0 3
3 0 3
3 0 3
4 0 4
3 0 3
5 0 5
6 0 6
8 1 8
4 0 4
3 0 3
1 0 1
0 0 0
0 0 0
0 0 0
0 0 0
0 0 0
0 0 0
1 0 1
25 8 25
50 22 50
81 50 81
124 99 124
127 102 127
113 83 113
94 59 94
97 62 97
92 57 92
85 49 85
85 50 85
92 60 92
101 70 101
106 75 106
101 70 101
93 61 93
97 67 97
95 64 95
95 64 95
82 50 82
73 40 73
66 35 66
64 33 64
61 32 61
54 29 54
31 12 31
6 0 6
3 0 3
2 0 2
2 0 2
2 0 2
3 0 3
3 0 3
3 0 3
3 0 3
3 0 3
3 0 3
4 0 4
6 0 6
8 1 8
4 0 4
4 0 4
1 0 1
0 0 0
0 0 0
0 0 0
0 0 0
0 0 0
0 0 0
1 0 1
13 1 13
45 18 45
76 46 76
114 89 114
115 87 115
107 76 107
91 56 91
89 54 89
91 55 91
92 57 92
85 50 85
93 60 93
95 62 95
94 62 94
95 63 95
93 62 93
94 63 94
94 63 94
93 62 93
82 50 82
71 38 71
66 35 66
63 33 63
60 33 60
53 28 53
28 9 28
6 0 6
2 0 2
2 0 2
2 0 2
2 0 2
3 0 3
4 0 4
3 0 3
3 0 3
3 0 3
3 0 3
4 0 4
6 0 6
8 1 8
4 0 4
4 0 4
1 0 1
0 0 0
0 0 0
0 0 0
0 0 0
0 0 0
0 0 0
0 0 0
5 0 5
38 14 38
70 40 70
102 74 102
111 82 111
106 74 106
88 52 88
87 52 87
92 57 92
93 59 93
84 49 84
87 52 87
90 57 90
92 60 92
96 64 96
94 63 94
90 58 90
86 54 86
86 55 86
76 44 76
69 37 69
67 35 67
63 34 63
60 33 60
51 26 51
26 9 26
6 0 6
2 0 2
2 0 2
2 0 2
2 0 2
3 0 3
4 0 4
3 0 3
3 0 3
3 0 3
2 0 2
4 0 4
6 0 6
8 1 8
4 0 4
4 0 4
1 0 1
0 0 0
0 0 0
0 0 0
0 0 0
0 0 0
0 0 0
0 0 0
2 0 2
26 5 26
66 39 66
100 74 100
98 67 98
106 73 106
88 53 88
88 53 88
91 56 91
93 58 93
87 52 87
87 51 87
94 62 94
98 67 98
100 70 100
90 58 90
87 55 87
87 57 87
81 51 81
71 39 71
67 36 67
66 35 66
63 34 63
60 33 60
50 26 50
26 8 26
5 0 5
2 0 2
2 0 2
3 0 3
2 0 2
2 0 2
3 0 3
3 0 3
3 0 3
2 0 2
3 0 3
4 0 4
5 0 5
8 1 8
5 0 5
5 0 5
1 0 1
0 0 0
0 0 0
0 0 0
0 0 0
0 0 0
0 0 0
0 0 0
0 0 0
14 0 14
54 27 54
116 96 116
109 80 109
103 71 103
93 59 93
93 59 93
93 58 93
94 59 94
90 56 90
91 57 91
94 63 94
96 66 96
92 61 92
85 54 85
84 53 84
86 56 86
84 55 84
72 41 72
65 34 65
66 35 66
63 35 63
60 34 60
49 25 49
28 10 28
5 0 5
2 0 2
2 0 2
2 0 2
2 0 2
2 0 2
3 0 3
3 0 3
3 0 3
2 0 2
2 0 2
3 0 3
5 0 5
7 1 7
4 0 4
5 0 5
1 0 1
0 0 0
0 0 0
0 0 0
0 0 0
0 0 0
0 0 0
0 0 0
0 0 0
3 0 3
34 10 34
97 74 97
139 123 139
98 66 98
93 59 93
90 55 90
98 64 98
97 63 97
92 58 92
90 57 90
81 48 81
86 56 86
85 54 85
84 54 84
82 51 82
81 51 81
84 55 84
71 41 71
65 35 65
65 35 65
63 35 63
60 33 60
49 24 49
27 9 27
4 0 4
2 0 2
2 0 2
2 0 2
2 0 2
2 0 2
2 0 2
3 0 3
3 0 3
2 0 2
2 0 2
3 0 3
5 0 5
7 1 7
3 0 3
4 0 4
1 0 1
0 0 0
0 0 0
0 0 0
0 0 0
0 0 0
0 0 0
0 0 0
0 0 0
0 0 0
0 0 0
0 0 0
0 0 0
0 0 0
0 0 0
0 0 0
0 0 0
0 0 0
0 0 0
0 0 0
0 0 0
0 0 0
0 0 0
0 0 0
0 0 0
0 0 0
0 0 0
0 0 0
0 0 0
0 0 0
0 0 0
0 0 0
0 0 0
0 0 0
0 0 0
0 0 0
0 0 0
0 0 0
0 0 0
0 0 0
0 0 0
0 0 0
0 0 0
0 0 0
0 0 0
0 0 0
0 0 0
0 0 0
0 0 0
0 0 0
0 0 0
