P3 
50 50 
255
0 0 0
0 0 0
0 0 0
0 0 0
0 0 0
0 0 0
0 0 0
0 0 0
0 0 0
0 0 0
0 0 0
0 0 0
0 0 0
0 0 0
0 0 0
0 0 0
0 0 0
0 0 0
0 0 0
0 0 0
0 0 0
0 0 0
0 0 0
0 0 0
0 0 0
0 0 0
0 0 0
0 0 0
0 0 0
0 0 0
0 0 0
0 0 0
0 0 0
0 0 0
0 0 0
0 0 0
0 0 0
0 0 0
0 0 0
0 0 0
0 0 0
0 0 0
0 0 0
0 0 0
0 0 0
0 0 0
0 0 0
0 0 0
0 0 0
0 0 0
0 0 0
0 0 0
0 0 0
0 0 0
2 0 2
1 0 1
1 0 1
5 0 5
5 0 5
5 0 5
4 0 4
2 0 2
4 0 4
4 0 4
7 1 7
11 3 11
11 3 11
8 0 8
6 0 6
4 0 4
4 0 4
3 0 3
3 0 3
3 0 3
4 0 4
5 0 5
4 0 4
9 0 9
18 0 18
30 7 30
32 9 32
26 4 26
17 0 17
8 0 8
8 0 8
12 2 12
11 3 11
9 2 9
4 0 4
2 0 2
2 0 2
3 0 3
3 0 3
2 0 2
1 0 1
0 0 0
0 0 0
0 0 0
0 0 0
0 0 0
0 0 0
0 0 0
0 0 0
0 0 0
1 0 1
1 0 1
1 0 1
4 0 4
5 0 5
5 0 5
3 0 3
2 0 2
4 0 4
5 0 5
8 1 8
11 3 11
11 3 11
7 0 7
6 0 6
4 0 4
3 0 3
3 0 3
4 0 4
4 0 4
7 0 7
18 1 18
55 27 55
91 63 91
127 108 127
154 142 154
156 144 156
130 110 130
99 71 99
70 38 70
44 16 44
19 2 19
10 3 10
9 2 9
4 0 4
3 0 3
1 0 1
2 0 2
2 0 2
3 0 3
3 0 3
1 0 1
0 0 0
0 0 0
0 0 0
0 0 0
0 0 0
0 0 0
0 0 0
0 0 0
1 0 1
1 0 1
1 0 1
4 0 4
6 0 6
5 0 5
4 0 4
3 0 3
4 0 4
5 0 5
9 1 9
11 3 11
11 3 11
7 0 7
6 0 6
5 0 5
3 0 3
4 0 4
4 0 4
15 0 15
59 29 59
115 92 115
181 176 181
192 188 192
197 195 197
192 188 192
191 188 191
187 183 187
188 183 188
183 176 183
132 111 132
75 43 75
36 10 36
8 1 8
2 0 2
5 0 5
3 0 3
2 0 2
1 0 1
1 0 1
3 0 3
1 0 1
0 0 0
0 0 0
0 0 0
0 0 0
0 0 0
0 0 0
0 0 0
1 0 1
1 0 1
2 0 2
2 0 2
3 0 3
7 0 7
4 0 4
3 0 3
3 0 3
6 0 6
5 0 5
9 1 9
11 3 11
11 3 11
7 0 7
6 0 6
5 0 5
5 0 5
4 0 4
36 10 36
97 70 97
182 178 182
191 188 191
192 187 192
196 193 196
167 152 167
153 134 153
155 137 155
154 137 154
168 156 168
182 173 182
187 181 187
179 171 179
94 64 94
62 30 62
10 0 10
3 0 3
5 0 5
3 0 3
2 0 2
1 0 1
1 0 1
1 0 1
1 0 1
0 0 0
0 0 0
0 0 0
0 0 0
0 0 0
0 0 0
1 0 1
1 0 1
2 0 2
3 0 3
3 0 3
6 0 6
3 0 3
3 0 3
4 0 4
7 0 7
6 0 6
9 1 9
11 3 11
12 3 12
8 0 8
7 0 7
5 0 5
4 0 4
43 16 43
125 104 125
196 196 196
191 188 191
196 194 196
187 181 187
164 151 164
152 134 152
148 128 148
139 114 139
143 122 143
150 132 150
162 149 162
173 162 173
186 179 186
184 176 184
125 99 125
69 37 69
21 0 21
3 0 3
3 0 3
3 0 3
3 0 3
1 0 1
1 0 1
1 0 1
0 0 0
0 0 0
0 0 0
0 0 0
0 0 0
0 0 0
1 0 1
1 0 1
3 0 3
3 0 3
3 0 3
6 0 6
3 0 3
4 0 4
5 0 5
7 0 7
5 0 5
8 1 8
10 3 10
13 3 13
8 1 8
6 0 6
6 0 6
22 2 22
131 111 131
196 195 196
192 189 192
194 191 194
184 178 184
169 158 169
158 143 158
153 136 153
145 124 145
131 104 131
148 128 148
158 143 158
156 141 156
165 153 165
172 160 172
189 182 189
186 178 186
146 127 146
70 37 70
26 3 26
4 0 4
2 0 2
4 0 4
1 0 1
1 0 1
1 0 1
1 0 1
0 0 0
0 0 0
0 0 0
0 0 0
0 0 0
1 0 1
1 0 1
2 0 2
2 0 2
3 0 3
5 0 5
3 0 3
4 0 4
5 0 5
5 0 5
4 0 4
8 1 8
10 3 10
13 3 13
8 1 8
6 0 6
12 0 12
87 59 87
194 191 194
194 191 194
186 180 186
172 162 172
162 149 162
156 140 156
153 135 153
146 125 146
133 107 133
125 95 125
133 108 133
144 122 144
152 135 152
159 145 159
165 152 165
174 163 174
189 183 189
188 181 188
142 120 142
69 36 69
14 0 14
2 0 2
3 0 3
1 0 1
1 0 1
1 0 1
1 0 1
0 0 0
0 0 0
0 0 0
0 0 0
0 0 0
1 0 1
1 0 1
2 0 2
3 0 3
3 0 3
5 0 5
3 0 3
6 0 6
4 0 4
5 0 5
3 0 3
7 1 7
11 3 11
14 3 14
9 1 9
7 0 7
72 45 72
183 177 183
191 187 191
178 169 178
163 150 163
155 139 155
146 125 146
136 112 136
134 109 134
133 106 133
135 111 135
127 98 127
132 107 132
129 102 129
134 110 134
147 127 147
156 140 156
162 148 162
167 154 167
188 181 188
187 180 187
132 108 132
59 30 59
11 0 11
3 0 3
1 0 1
1 0 1
1 0 1
1 0 1
0 0 0
0 0 0
0 0 0
0 0 0
0 0 0
1 0 1
3 0 3
2 0 2
3 0 3
3 0 3
5 0 5
5 0 5
5 0 5
4 0 4
5 0 5
4 0 4
9 1 9
13 3 13
14 3 14
9 0 9
44 16 44
173 165 173
200 199 200
175 165 175
154 138 154
145 125 145
139 117 139
133 107 133
128 99 128
124 95 124
125 96 125
125 97 125
117 86 117
123 94 123
124 94 124
130 103 130
134 108 134
134 109 134
145 124 145
155 138 155
159 143 159
189 183 189
175 163 175
98 67 98
52 25 52
5 0 5
1 0 1
2 0 2
1 0 1
1 0 1
1 0 1
0 0 0
0 0 0
0 0 0
0 0 0
1 0 1
3 0 3
3 0 3
3 0 3
3 0 3
5 0 5
6 0 6
4 0 4
4 0 4
6 0 6
5 0 5
10 1 10
14 3 14
14 3 14
14 0 14
128 111 128
187 182 187
183 176 183
152 135 152
142 121 142
136 112 136
132 107 132
119 87 119
124 95 124
127 100 127
127 99 127
125 97 125
121 91 121
124 95 124
124 96 124
125 96 125
122 92 122
128 100 128
130 103 130
143 120 143
147 127 147
162 147 162
189 184 189
161 145 161
77 47 77
41 19 41
2 0 2
2 0 2
1 0 1
1 0 1
0 0 0
0 0 0
0 0 0
0 0 0
1 0 1
2 0 2
2 0 2
3 0 3
4 0 4
4 0 4
5 0 5
7 0 7
4 0 4
4 0 4
8 0 8
6 0 6
11 1 11
13 3 13
12 3 12
52 26 52
173 164 173
195 192 195
155 138 155
143 123 143
133 107 133
126 98 126
125 95 125
117 86 117
120 90 120
115 82 115
118 86 118
116 85 116
114 81 114
112 78 112
116 84 116
120 89 120
123 93 123
118 86 118
129 101 129
132 105 132
141 118 141
150 131 150
158 141 158
169 155 169
152 137 152
58 31 58
9 0 9
2 0 2
2 0 2
1 0 1
1 0 1
0 0 0
0 0 0
0 0 0
0 0 0
2 0 2
2 0 2
3 0 3
5 0 5
5 0 5
6 0 6
7 0 7
3 0 3
5 0 5
8 0 8
6 0 6
11 1 11
12 3 12
15 3 15
129 112 129
184 177 184
171 159 171
148 129 148
138 115 138
125 96 125
128 99 128
117 85 117
122 91 122
113 79 113
115 83 115
120 89 120
117 86 117
122 93 122
119 88 119
116 84 116
115 82 115
117 83 117
119 86 119
120 87 120
124 93 124
135 109 135
144 122 144
146 124 146
176 165 176
163 148 163
111 90 111
39 18 39
1 0 1
2 0 2
1 0 1
1 0 1
0 0 0
0 0 0
0 0 0
1 0 1
3 0 3
3 0 3
3 0 3
6 0 6
6 0 6
7 0 7
7 0 7
4 0 4
5 0 5
8 0 8
7 0 7
9 1 9
12 2 12
30 8 30
166 156 166
181 172 181
143 123 143
141 121 141
137 114 137
124 94 124
118 85 118
119 88 119
114 80 114
113 80 113
114 81 114
115 82 115
105 68 105
117 85 117
112 78 112
115 82 115
114 81 114
109 74 109
116 82 116
114 81 114
125 95 125
124 93 124
140 117 140
139 115 139
160 144 160
172 159 172
148 135 148
51 27 51
3 0 3
2 0 2
2 0 2
1 0 1
0 0 0
0 0 0
0 0 0
1 0 1
4 0 4
3 0 3
2 0 2
5 0 5
9 0 9
8 0 8
9 0 9
5 0 5
6 0 6
8 0 8
6 0 6
9 1 9
14 3 14
47 20 47
173 163 173
172 160 172
133 108 133
133 108 133
128 101 128
131 105 131
116 82 116
113 79 113
115 83 115
111 76 111
110 75 110
112 79 112
106 69 106
115 84 115
106 70 106
110 76 110
111 77 111
114 81 114
111 76 111
119 88 119
115 82 115
123 92 123
135 110 135
136 110 136
143 121 143
160 143 160
158 146 158
89 69 89
16 3 16
2 0 2
2 0 2
1 0 1
0 0 0
0 0 0
0 0 0
1 0 1
3 0 3
4 0 4
2 0 2
5 0 5
10 0 10
10 0 10
10 0 10
6 0 6
7 0 7
10 0 10
5 0 5
11 1 11
15 3 15
64 35 64
174 163 174
164 149 164
129 102 129
130 104 130
130 104 130
119 87 119
124 95 124
116 83 116
113 79 113
114 81 114
110 75 110
107 72 107
103 65 103
108 74 108
105 69 105
111 77 111
112 78 112
106 69 106
119 89 119
114 79 114
119 87 119
128 100 128
126 97 126
130 103 130
131 105 131
146 125 146
167 154 167
136 123 136
32 14 32
2 0 2
1 0 1
1 0 1
0 0 0
0 0 0
0 0 0
2 0 2
2 0 2
3 0 3
2 0 2
3 0 3
6 0 6
10 0 10
11 0 11
7 0 7
9 0 9
10 0 10
6 0 6
11 1 11
15 3 15
85 57 85
176 166 176
159 143 159
124 95 124
127 99 127
132 107 132
127 99 127
120 88 120
121 91 121
117 85 117
113 79 113
102 65 102
111 78 111
114 82 114
111 77 111
109 74 109
103 65 103
108 72 108
121 92 121
106 69 106
120 90 120
119 88 119
118 86 118
121 90 121
127 97 127
130 103 130
137 112 137
167 154 167
146 133 146
39 18 39
3 0 3
1 0 1
1 0 1
0 0 0
0 0 0
0 0 0
1 0 1
1 0 1
2 0 2
2 0 2
3 0 3
5 0 5
9 0 9
10 0 10
6 0 6
7 0 7
9 0 9
6 0 6
11 1 11
15 3 15
111 88 111
181 173 181
159 142 159
123 94 123
120 89 120
128 101 128
123 93 123
129 102 129
118 86 118
118 86 118
102 62 102
114 81 114
101 62 101
101 62 101
114 83 114
110 75 110
106 70 106
103 65 103
118 87 118
115 83 115
119 89 119
119 88 119
122 93 122
118 86 118
123 93 123
128 101 128
136 111 136
156 140 156
152 140 152
44 21 44
3 0 3
2 0 2
2 0 2
0 0 0
0 0 0
0 0 0
1 0 1
2 0 2
1 0 1
2 0 2
3 0 3
5 0 5
8 0 8
9 0 9
5 0 5
7 0 7
9 0 9
6 0 6
10 1 10
15 3 15
139 122 139
188 182 188
158 142 158
128 101 128
114 80 114
133 109 133
132 106 132
111 76 111
108 70 108
107 70 107
105 68 105
114 82 114
101 62 101
101 62 101
108 74 108
109 75 109
111 78 111
106 70 106
105 69 105
111 78 111
117 86 117
128 101 128
118 86 118
115 80 115
118 86 118
130 103 130
139 116 139
157 141 157
158 145 158
48 24 48
4 0 4
2 0 2
2 0 2
0 0 0
0 0 0
0 0 0
1 0 1
2 0 2
1 0 1
3 0 3
2 0 2
4 0 4
6 0 6
8 0 8
5 0 5
6 0 6
9 0 9
7 0 7
10 1 10
16 3 16
163 154 163
188 182 188
153 134 153
130 104 130
122 92 122
145 126 145
111 75 111
110 73 110
107 69 107
104 65 104
104 66 104
105 68 105
102 63 102
104 67 104
106 69 106
110 74 110
106 69 106
103 65 103
100 61 100
102 64 102
104 65 104
112 77 112
130 104 130
112 77 112
117 85 117
139 115 139
143 121 143
156 140 156
161 150 161
52 27 52
4 0 4
2 0 2
2 0 2
1 0 1
0 0 0
0 0 0
1 0 1
1 0 1
1 0 1
3 0 3
2 0 2
3 0 3
6 0 6
7 0 7
4 0 4
6 0 6
10 0 10
7 0 7
10 1 10
16 3 16
177 172 177
176 166 176
143 120 143
122 91 122
141 119 141
127 98 127
117 85 117
112 76 112
109 72 109
105 67 105
101 61 101
110 74 110
113 79 113
112 79 112
111 79 111
108 72 108
106 68 106
104 66 104
103 65 103
104 67 104
102 63 102
109 72 109
133 108 133
127 100 127
121 90 121
134 108 134
140 117 140
152 133 152
166 155 166
55 28 55
4 0 4
2 0 2
2 0 2
0 0 0
0 0 0
0 0 0
1 0 1
1 0 1
1 0 1
3 0 3
2 0 2
4 0 4
6 0 6
7 0 7
4 0 4
6 0 6
10 0 10
6 0 6
10 1 10
18 3 18
179 174 179
159 142 159
129 101 129
117 84 117
142 122 142
117 83 117
114 80 114
111 76 111
105 67 105
105 67 105
103 64 103
105 66 105
112 78 112
112 81 112
111 78 111
106 70 106
104 66 104
104 65 104
104 65 104
104 65 104
106 70 106
113 78 113
125 97 125
132 107 132
122 91 122
126 97 126
137 112 137
145 123 145
169 160 169
57 29 57
3 0 3
3 0 3
1 0 1
0 0 0
0 0 0
0 0 0
0 0 0
1 0 1
1 0 1
2 0 2
3 0 3
4 0 4
5 0 5
8 0 8
4 0 4
5 0 5
8 0 8
5 0 5
11 1 11
22 4 22
180 176 180
140 116 140
121 91 121
118 86 118
138 114 138
112 76 112
110 74 110
106 68 106
105 67 105
101 61 101
105 66 105
104 65 104
112 81 112
101 65 101
100 64 100
104 66 104
102 63 102
102 63 102
102 64 102
102 63 102
104 67 104
113 78 113
119 87 119
125 96 125
116 84 116
114 80 114
126 97 126
136 112 136
174 167 174
56 29 56
2 0 2
2 0 2
2 0 2
0 0 0
0 0 0
0 0 0
0 0 0
1 0 1
1 0 1
2 0 2
3 0 3
5 0 5
4 0 4
8 0 8
5 0 5
4 0 4
8 0 8
5 0 5
11 1 11
24 5 24
180 175 180
133 108 133
117 85 117
128 100 128
136 112 136
112 75 112
109 73 109
106 69 106
106 68 106
102 63 102
102 63 102
105 67 105
106 74 106
91 51 91
95 56 95
99 59 99
102 63 102
101 62 101
102 64 102
102 64 102
104 66 104
109 73 109
120 89 120
126 97 126
113 79 113
111 76 111
119 87 119
129 101 129
175 168 175
56 28 56
4 0 4
3 0 3
3 0 3
0 0 0
0 0 0
0 0 0
0 0 0
1 0 1
1 0 1
2 0 2
3 0 3
4 0 4
4 0 4
7 0 7
6 0 6
4 0 4
7 0 7
6 0 6
11 1 11
24 5 24
170 163 170
126 100 126
115 82 115
127 99 127
134 109 134
116 82 116
108 71 108
106 69 106
105 67 105
103 64 103
101 61 101
100 61 100
97 61 97
91 52 91
91 48 91
101 63 101
98 58 98
97 57 97
100 61 100
103 66 103
102 63 102
110 74 110
124 96 124
122 92 122
116 85 116
111 76 111
119 87 119
124 95 124
173 166 173
55 28 55
3 0 3
3 0 3
3 0 3
0 0 0
0 0 0
0 0 0
0 0 0
1 0 1
1 0 1
2 0 2
3 0 3
4 0 4
4 0 4
5 0 5
5 0 5
4 0 4
6 0 6
6 0 6
11 1 11
21 4 21
157 147 157
123 95 123
113 79 113
122 93 122
132 107 132
115 82 115
107 70 107
104 66 104
105 66 105
103 65 103
100 60 100
98 60 98
93 53 93
94 55 94
93 51 93
105 71 105
94 54 94
97 57 97
101 63 101
103 65 103
104 66 104
107 69 107
121 91 121
116 83 116
111 78 111
111 77 111
117 84 117
127 99 127
168 160 168
53 27 53
7 0 7
3 0 3
3 0 3
0 0 0
0 0 0
0 0 0
0 0 0
1 0 1
1 0 1
2 0 2
3 0 3
4 0 4
5 0 5
5 0 5
5 0 5
3 0 3
6 0 6
7 0 7
11 1 11
16 3 16
139 124 139
122 94 122
110 75 110
122 93 122
122 93 122
114 82 114
102 65 102
104 67 104
107 70 107
103 66 103
106 71 106
108 77 108
95 55 95
91 53 91
87 46 87
96 58 96
99 63 99
98 59 98
102 65 102
104 67 104
102 64 102
107 70 107
116 84 116
120 90 120
108 73 108
109 74 109
114 81 114
126 98 126
158 148 158
47 22 47
27 11 27
3 0 3
2 0 2
0 0 0
0 0 0
0 0 0
0 0 0
1 0 1
1 0 1
2 0 2
3 0 3
4 0 4
5 0 5
4 0 4
5 0 5
3 0 3
5 0 5
7 0 7
15 2 15
15 3 15
134 119 134
124 96 124
108 74 108
126 99 126
125 98 125
114 83 114
106 70 106
106 69 106
107 72 107
110 74 110
103 66 103
110 79 110
94 55 94
92 55 92
87 47 87
93 53 93
107 73 107
102 65 102
102 64 102
104 66 104
101 62 101
108 71 108
117 87 117
124 96 124
108 73 108
109 74 109
112 79 112
125 97 125
152 141 152
44 19 44
22 7 22
3 0 3
2 0 2
0 0 0
0 0 0
0 0 0
1 0 1
1 0 1
1 0 1
3 0 3
3 0 3
5 0 5
7 0 7
4 0 4
6 0 6
3 0 3
4 0 4
7 0 7
19 4 19
26 6 26
117 101 117
127 99 127
123 95 123
130 105 130
123 95 123
122 95 122
121 92 121
128 100 128
137 89 137
119 86 119
108 72 108
110 80 110
94 56 94
87 48 87
93 54 93
92 54 92
112 78 112
109 72 109
108 70 108
108 72 108
114 83 114
122 94 122
116 85 116
120 92 120
116 85 116
110 76 110
111 77 111
136 112 136
123 107 123
38 18 38
11 1 11
2 0 2
2 0 2
0 0 0
0 0 0
0 0 0
1 0 1
2 0 2
1 0 1
3 0 3
3 0 3
5 0 5
8 0 8
4 0 4
5 0 5
3 0 3
4 0 4
6 0 6
13 2 13
29 11 29
81 58 81
121 93 121
142 121 142
141 121 141
130 105 130
123 95 123
130 104 130
128 100 128
137 113 137
124 93 124
111 77 111
98 63 98
93 55 93
89 51 89
103 66 103
92 55 92
101 64 101
113 76 113
111 76 111
116 82 116
123 95 123
124 96 124
123 95 123
116 85 116
119 90 119
121 92 121
116 85 116
147 127 147
102 79 102
38 17 38
6 0 6
2 0 2
2 0 2
0 0 0
0 0 0
0 0 0
2 0 2
2 0 2
1 0 1
3 0 3
3 0 3
5 0 5
7 0 7
4 0 4
5 0 5
3 0 3
4 0 4
5 0 5
11 2 11
33 9 33
61 33 61
120 92 120
136 113 136
138 117 138
127 102 127
121 92 121
116 85 116
121 91 121
126 97 126
119 87 119
105 69 105
96 60 96
98 60 98
92 55 92
108 74 108
93 55 93
99 63 99
108 71 108
110 74 110
120 88 120
123 93 123
126 99 126
131 107 131
117 88 117
127 100 127
144 125 144
128 101 128
152 138 152
61 34 61
35 16 35
4 0 4
1 0 1
1 0 1
0 0 0
0 0 0
0 0 0
2 0 2
2 0 2
1 0 1
3 0 3
2 0 2
4 0 4
6 0 6
4 0 4
5 0 5
4 0 4
3 0 3
4 0 4
11 2 11
35 14 35
44 19 44
120 92 120
119 91 119
126 100 126
127 102 127
121 92 121
117 86 117
115 83 115
123 93 123
112 77 112
102 67 102
101 65 101
99 60 99
102 70 102
103 66 103
100 63 100
99 63 99
111 76 111
115 80 115
115 82 115
125 97 125
127 101 127
122 96 122
118 90 118
133 108 133
129 103 129
133 108 133
154 141 154
51 25 51
27 10 27
4 0 4
1 0 1
1 0 1
0 0 0
0 0 0
0 0 0
1 0 1
2 0 2
2 0 2
3 0 3
2 0 2
3 0 3
6 0 6
3 0 3
5 0 5
4 0 4
3 0 3
4 0 4
16 4 16
25 8 25
40 18 40
111 83 111
111 83 111
117 89 117
122 94 122
124 96 124
118 87 118
103 67 103
105 68 105
107 71 107
111 79 111
100 63 100
102 66 102
107 77 107
111 76 111
106 71 106
104 71 104
110 74 110
108 71 108
108 73 108
118 88 118
112 80 112
117 88 117
115 85 115
116 85 116
127 99 127
130 106 130
117 97 117
46 21 46
19 7 19
4 0 4
2 0 2
1 0 1
0 0 0
0 0 0
0 0 0
1 0 1
2 0 2
2 0 2
3 0 3
3 0 3
3 0 3
5 0 5
4 0 4
5 0 5
4 0 4
3 0 3
4 0 4
18 5 18
27 11 27
42 18 42
80 47 80
99 70 99
117 88 117
132 107 132
121 92 121
112 78 112
107 73 107
104 67 104
110 76 110
116 87 116
109 77 109
113 83 113
116 89 116
114 84 114
113 82 113
108 74 108
112 77 112
107 71 107
102 65 102
107 72 107
109 76 109
116 85 116
119 89 119
119 89 119
130 105 130
127 104 127
72 44 72
34 14 34
19 9 19
4 0 4
2 0 2
0 0 0
0 0 0
0 0 0
0 0 0
1 0 1
1 0 1
2 0 2
3 0 3
3 0 3
2 0 2
5 0 5
5 0 5
5 0 5
4 0 4
4 0 4
3 0 3
17 3 17
27 11 27
37 17 37
67 33 67
104 73 104
115 87 115
137 116 137
115 86 115
107 72 107
102 66 102
112 81 112
112 80 112
126 102 126
107 75 107
117 89 117
116 88 116
114 83 114
120 94 120
110 78 110
112 80 112
107 72 107
102 65 102
104 67 104
112 79 112
120 92 120
121 93 121
130 105 130
121 95 121
119 94 119
57 29 57
26 12 26
17 6 17
6 0 6
2 0 2
0 0 0
0 0 0
0 0 0
0 0 0
1 0 1
1 0 1
3 0 3
3 0 3
4 0 4
3 0 3
4 0 4
4 0 4
5 0 5
4 0 4
4 0 4
3 0 3
17 3 17
25 9 25
32 13 32
60 26 60
111 83 111
104 76 104
131 109 131
121 92 121
106 71 106
98 61 98
132 112 132
124 101 124
122 98 122
121 95 121
129 107 129
120 94 120
125 99 125
115 87 115
117 90 117
118 89 118
123 96 123
109 74 109
105 69 105
108 73 108
116 88 116
121 93 121
131 106 131
115 88 115
105 78 105
49 24 49
24 10 24
36 17 36
7 0 7
2 0 2
0 0 0
0 0 0
0 0 0
0 0 0
0 0 0
1 0 1
2 0 2
3 0 3
3 0 3
3 0 3
5 0 5
4 0 4
5 0 5
6 0 6
4 0 4
3 0 3
21 8 21
32 12 32
27 10 27
52 21 52
95 65 95
94 62 94
125 101 125
132 108 132
105 70 105
104 71 104
142 71 142
151 142 151
131 64 131
113 86 113
121 57 121
121 97 121
119 92 119
123 100 123
127 107 127
132 113 132
129 106 129
105 70 105
103 67 103
104 70 104
115 85 115
125 98 125
123 99 123
121 98 121
80 50 80
53 28 53
31 15 31
37 20 37
4 0 4
2 0 2
0 0 0
0 0 0
0 0 0
0 0 0
0 0 0
2 0 2
2 0 2
3 0 3
3 0 3
4 0 4
5 0 5
4 0 4
4 0 4
7 0 7
4 0 4
3 0 3
22 8 22
35 16 35
30 12 30
31 7 31
69 37 69
103 77 103
107 81 107
107 78 107
113 85 113
110 82 110
133 87 133
147 136 147
130 111 130
120 95 120
132 113 132
132 113 132
121 96 121
132 114 132
126 105 126
136 120 136
152 79 152
108 76 108
102 66 102
113 82 113
124 97 124
126 102 126
105 77 105
106 82 106
62 33 62
37 16 37
26 13 26
34 20 34
3 0 3
2 0 2
0 0 0
0 0 0
0 0 0
0 0 0
1 0 1
2 0 2
3 0 3
4 0 4
4 0 4
5 0 5
6 0 6
4 0 4
3 0 3
5 0 5
5 0 5
3 0 3
13 3 13
35 16 35
18 4 18
18 1 18
62 32 62
77 46 77
96 69 96
92 63 92
98 69 98
123 78 123
120 99 120
144 133 144
149 139 149
111 83 111
126 106 126
131 74 131
116 88 116
125 105 125
128 77 128
125 72 125
132 70 132
128 108 128
104 73 104
112 84 112
100 72 100
90 59 90
89 59 89
70 41 70
49 24 49
16 4 16
15 5 15
19 7 19
2 0 2
2 0 2
0 0 0
0 0 0
0 0 0
0 0 0
0 0 0
1 0 1
2 0 2
3 0 3
2 0 2
4 0 4
5 0 5
3 0 3
2 0 2
4 0 4
4 0 4
3 0 3
12 4 12
29 13 29
16 5 16
13 2 13
52 22 52
71 39 71
92 62 92
98 68 98
93 61 93
92 58 92
91 55 91
99 67 99
100 68 100
96 62 96
88 53 88
99 67 99
98 66 98
99 67 99
96 62 96
100 67 100
102 71 102
94 59 94
97 64 97
105 76 105
93 62 93
91 61 91
72 39 72
58 31 58
34 16 34
12 4 12
13 5 13
4 0 4
2 0 2
1 0 1
1 0 1
0 0 0
0 0 0
0 0 0
1 0 1
1 0 1
2 0 2
2 0 2
2 0 2
3 0 3
4 0 4
2 0 2
2 0 2
4 0 4
4 0 4
3 0 3
12 2 12
11 2 11
9 1 9
8 0 8
42 15 42
62 30 62
83 55 83
98 72 98
112 47 112
116 94 116
122 100 122
150 140 150
115 88 115
123 101 123
111 85 111
108 80 108
107 79 107
114 90 114
134 119 134
118 95 118
143 106 143
123 102 123
102 73 102
101 71 101
89 57 89
95 68 95
70 38 70
43 18 43
21 4 21
4 0 4
3 0 3
2 0 2
2 0 2
1 0 1
0 0 0
0 0 0
0 0 0
0 0 0
1 0 1
1 0 1
2 0 2
2 0 2
2 0 2
3 0 3
5 0 5
2 0 2
2 0 2
4 0 4
4 0 4
3 0 3
15 6 15
14 5 14
11 3 11
9 0 9
36 11 36
57 26 57
66 36 66
92 65 92
85 55 85
120 101 120
125 105 125
134 82 134
132 117 132
127 107 127
128 72 128
126 66 126
119 98 119
119 99 119
143 133 143
112 88 112
125 75 125
101 73 101
101 74 101
98 68 98
89 59 89
85 56 85
64 33 64
32 13 32
7 0 7
3 0 3
2 0 2
2 0 2
1 0 1
1 0 1
0 0 0
0 0 0
0 0 0
0 0 0
0 0 0
1 0 1
1 0 1
2 0 2
2 0 2
2 0 2
4 0 4
2 0 2
2 0 2
3 0 3
3 0 3
2 0 2
14 5 14
12 4 12
8 1 8
6 0 6
25 6 25
61 32 61
71 41 71
114 93 114
87 53 87
113 87 113
138 87 138
107 78 107
125 65 125
113 88 113
111 87 111
109 83 109
107 81 107
110 86 110
112 87 112
100 69 100
105 77 105
113 90 113
86 53 86
96 66 96
95 68 95
72 41 72
63 33 63
26 11 26
4 0 4
2 0 2
2 0 2
1 0 1
1 0 1
1 0 1
0 0 0
0 0 0
0 0 0
0 0 0
0 0 0
1 0 1
2 0 2
2 0 2
2 0 2
2 0 2
4 0 4
2 0 2
1 0 1
3 0 3
3 0 3
2 0 2
14 6 14
12 4 12
9 1 9
6 0 6
13 0 13
59 30 59
73 42 73
122 104 122
97 67 97
109 82 109
121 99 121
104 75 104
122 101 122
115 92 115
106 79 106
110 84 110
110 85 110
116 93 116
117 94 117
106 78 106
100 70 100
94 64 94
95 67 95
98 69 98
93 65 93
69 38 69
59 30 59
14 4 14
4 0 4
2 0 2
2 0 2
2 0 2
1 0 1
1 0 1
1 0 1
0 0 0
0 0 0
0 0 0
1 0 1
1 0 1
2 0 2
2 0 2
3 0 3
2 0 2
4 0 4
2 0 2
1 0 1
3 0 3
2 0 2
2 0 2
14 6 14
11 5 11
8 0 8
6 0 6
8 0 8
57 28 57
68 36 68
122 103 122
102 74 102
95 64 95
100 70 100
112 87 112
113 88 113
105 77 105
103 74 103
104 76 104
99 69 99
105 77 105
103 75 103
107 80 107
91 60 91
86 54 86
94 65 94
102 76 102
83 53 83
66 35 66
47 21 47
3 0 3
4 0 4
2 0 2
2 0 2
1 0 1
1 0 1
1 0 1
1 0 1
0 0 0
0 0 0
0 0 0
1 0 1
0 0 0
2 0 2
2 0 2
4 0 4
3 0 3
4 0 4
2 0 2
2 0 2
3 0 3
3 0 3
2 0 2
14 7 14
10 4 10
6 0 6
5 0 5
7 0 7
46 21 46
63 32 63
95 66 95
106 81 106
93 62 93
96 65 96
104 76 104
110 84 110
106 78 106
100 71 100
100 70 100
96 64 96
106 80 106
99 70 99
101 71 101
91 60 91
87 55 87
101 75 101
90 60 90
73 42 73
61 31 61
26 10 26
3 0 3
4 0 4
2 0 2
2 0 2
1 0 1
1 0 1
1 0 1
1 0 1
0 0 0
0 0 0
0 0 0
0 0 0
1 0 1
2 0 2
2 0 2
3 0 3
2 0 2
4 0 4
2 0 2
2 0 2
3 0 3
3 0 3
2 0 2
14 6 14
10 4 10
6 0 6
4 0 4
6 0 6
43 22 43
59 30 59
73 38 73
113 91 113
102 74 102
102 74 102
105 77 105
109 83 109
105 77 105
107 80 107
101 72 101
105 77 105
108 82 108
93 61 93
93 61 93
92 60 92
92 62 92
99 72 99
72 38 72
66 34 66
48 22 48
11 2 11
3 0 3
5 0 5
2 0 2
2 0 2
1 0 1
1 0 1
1 0 1
1 0 1
0 0 0
0 0 0
0 0 0
0 0 0
1 0 1
1 0 1
2 0 2
2 0 2
2 0 2
4 0 4
2 0 2
2 0 2
3 0 3
2 0 2
2 0 2
14 6 14
9 4 9
6 0 6
4 0 4
5 0 5
40 19 40
54 26 54
69 35 69
79 45 79
118 96 118
121 101 121
115 92 115
107 81 107
109 83 109
113 89 113
105 78 105
105 78 105
105 79 105
97 66 97
102 74 102
105 79 105
105 81 105
72 37 72
68 35 68
56 29 56
39 16 39
3 0 3
2 0 2
5 0 5
2 0 2
2 0 2
1 0 1
1 0 1
1 0 1
1 0 1
1 0 1
0 0 0
0 0 0
0 0 0
0 0 0
1 0 1
2 0 2
1 0 1
1 0 1
3 0 3
1 0 1
2 0 2
3 0 3
2 0 2
2 0 2
14 6 14
9 4 9
6 0 6
4 0 4
5 0 5
38 19 38
52 27 52
66 34 66
72 38 72
81 45 81
114 91 114
124 104 124
121 101 121
110 85 110
108 82 108
106 80 106
106 80 106
118 98 118
117 94 117
117 95 117
95 66 95
75 40 75
67 32 67
62 32 62
53 27 53
23 6 23
3 0 3
3 0 3
4 0 4
2 0 2
1 0 1
1 0 1
1 0 1
1 0 1
1 0 1
0 0 0
0 0 0
0 0 0
0 0 0
0 0 0
0 0 0
0 0 0
0 0 0
0 0 0
0 0 0
0 0 0
0 0 0
0 0 0
0 0 0
0 0 0
0 0 0
0 0 0
0 0 0
0 0 0
0 0 0
0 0 0
0 0 0
0 0 0
0 0 0
0 0 0
0 0 0
0 0 0
0 0 0
0 0 0
0 0 0
0 0 0
0 0 0
0 0 0
0 0 0
0 0 0
0 0 0
0 0 0
0 0 0
0 0 0
0 0 0
0 0 0
0 0 0
0 0 0
0 0 0
0 0 0
0 0 0
0 0 0
0 0 0
0 0 0
0 0 0
0 0 0
