P3 
50 50 
255
0 0 0
0 0 0
0 0 0
0 0 0
0 0 0
0 0 0
0 0 0
0 0 0
0 0 0
0 0 0
0 0 0
0 0 0
0 0 0
0 0 0
0 0 0
0 0 0
0 0 0
0 0 0
0 0 0
0 0 0
0 0 0
0 0 0
0 0 0
0 0 0
0 0 0
0 0 0
0 0 0
0 0 0
0 0 0
0 0 0
0 0 0
0 0 0
0 0 0
0 0 0
0 0 0
0 0 0
0 0 0
0 0 0
0 0 0
0 0 0
0 0 0
0 0 0
0 0 0
0 0 0
0 0 0
0 0 0
0 0 0
0 0 0
0 0 0
0 0 0
0 0 0
1 0 1
2 0 2
6 1 6
6 0 6
5 0 5
3 0 3
3 0 3
2 0 2
2 0 2
2 0 2
3 0 3
4 0 4
3 0 3
3 0 3
4 0 4
7 0 7
12 0 12
16 1 16
21 4 21
23 5 23
22 5 22
15 1 15
9 0 9
5 0 5
3 0 3
1 0 1
1 0 1
2 0 2
2 0 2
2 0 2
2 0 2
1 0 1
1 0 1
1 0 1
1 0 1
1 0 1
0 0 0
0 0 0
0 0 0
0 0 0
0 0 0
0 0 0
0 0 0
0 0 0
0 0 0
0 0 0
0 0 0
0 0 0
0 0 0
0 0 0
2 0 2
2 0 2
5 1 5
5 0 5
5 0 5
3 0 3
3 0 3
2 0 2
3 0 3
4 0 4
4 0 4
3 0 3
8 0 8
23 6 23
41 19 41
58 36 58
76 55 76
94 75 94
105 89 105
111 96 111
109 94 109
98 82 98
84 65 84
62 41 62
40 18 40
17 2 17
3 0 3
2 0 2
2 0 2
2 0 2
2 0 2
1 0 1
1 0 1
1 0 1
1 0 1
1 0 1
0 0 0
0 0 0
0 0 0
0 0 0
0 0 0
0 0 0
0 0 0
0 0 0
0 0 0
0 0 0
0 0 0
0 0 0
0 0 0
0 0 0
2 0 2
2 0 2
5 1 5
6 0 6
4 0 4
3 0 3
2 0 2
3 0 3
4 0 4
4 0 4
8 0 8
29 11 29
53 32 53
96 81 96
127 116 127
142 134 142
148 142 148
152 146 152
152 144 152
150 141 150
150 141 150
151 144 151
151 144 151
143 135 143
130 119 130
101 84 101
47 25 47
15 1 15
2 0 2
2 0 2
2 0 2
1 0 1
1 0 1
1 0 1
1 0 1
1 0 1
0 0 0
0 0 0
0 0 0
0 0 0
0 0 0
0 0 0
0 0 0
0 0 0
0 0 0
0 0 0
0 0 0
0 0 0
0 0 0
0 0 0
1 0 1
3 0 3
6 1 6
5 0 5
4 0 4
3 0 3
3 0 3
4 0 4
5 0 5
22 3 22
49 27 49
92 76 92
121 108 121
136 126 136
139 128 139
137 125 137
133 120 133
133 118 133
131 114 131
135 120 135
136 121 136
141 128 141
144 133 144
150 140 150
156 149 156
152 144 152
142 133 142
82 62 82
27 7 27
3 0 3
2 0 2
2 0 2
1 0 1
1 0 1
1 0 1
1 0 1
1 0 1
0 0 0
0 0 0
0 0 0
0 0 0
0 0 0
0 0 0
0 0 0
0 0 0
0 0 0
0 0 0
0 0 0
0 0 0
0 0 0
1 0 1
3 0 3
5 1 5
5 0 5
5 0 5
4 0 4
4 0 4
12 0 12
35 13 35
65 43 65
109 93 109
124 110 124
131 117 131
136 123 136
134 120 134
122 103 122
116 95 116
120 99 120
127 108 127
130 112 130
128 110 128
134 118 134
137 122 137
133 118 133
149 138 149
164 159 164
165 160 165
152 144 152
107 91 107
31 10 31
2 0 2
2 0 2
1 0 1
1 0 1
1 0 1
1 0 1
1 0 1
0 0 0
0 0 0
0 0 0
0 0 0
0 0 0
0 0 0
0 0 0
0 0 0
0 0 0
0 0 0
0 0 0
0 0 0
0 0 0
2 0 2
2 0 2
6 1 6
6 0 6
5 0 5
5 0 5
17 2 17
41 18 41
79 57 79
121 107 121
133 120 133
134 120 134
133 118 133
130 113 130
121 101 121
114 91 114
116 93 116
117 94 117
121 99 121
125 105 125
129 111 129
133 115 133
136 120 136
132 115 132
132 116 132
154 143 154
172 167 172
170 165 170
154 147 154
123 112 123
28 9 28
2 0 2
1 0 1
1 0 1
1 0 1
1 0 1
1 0 1
0 0 0
0 0 0
0 0 0
0 0 0
0 0 0
0 0 0
0 0 0
0 0 0
0 0 0
0 0 0
0 0 0
0 0 0
0 0 0
2 0 2
2 0 2
8 2 8
6 0 6
6 0 6
19 3 19
41 19 41
83 62 83
122 108 122
132 119 132
125 108 125
126 108 126
126 108 126
118 97 118
114 90 114
114 90 114
115 92 115
119 96 119
114 90 114
118 94 118
119 96 119
126 105 126
133 114 133
127 107 127
121 100 121
124 103 124
145 131 145
167 160 167
166 160 166
158 152 158
117 105 117
18 2 18
1 0 1
1 0 1
1 0 1
1 0 1
1 0 1
0 0 0
0 0 0
0 0 0
0 0 0
0 0 0
0 0 0
0 0 0
0 0 0
0 0 0
0 0 0
0 0 0
0 0 0
0 0 0
1 0 1
3 0 3
7 2 7
7 0 7
17 3 17
39 17 39
85 63 85
123 108 123
137 125 137
120 101 120
114 92 114
114 91 114
114 92 114
112 88 112
116 93 116
114 90 114
112 86 112
114 89 114
112 87 112
112 86 112
111 84 111
117 92 117
120 97 120
121 100 121
121 100 121
120 99 120
123 102 123
135 118 135
159 150 159
166 158 166
150 142 150
85 68 85
5 0 5
1 0 1
1 0 1
1 0 1
1 0 1
0 0 0
0 0 0
0 0 0
0 0 0
0 0 0
0 0 0
0 0 0
0 0 0
0 0 0
0 0 0
0 0 0
0 0 0
0 0 0
2 0 2
3 0 3
8 2 8
13 0 13
33 12 33
76 54 76
115 98 115
136 124 136
131 116 131
119 98 119
111 88 111
112 88 112
112 88 112
109 84 109
110 85 110
110 84 110
110 84 110
107 79 107
107 79 107
108 79 108
108 80 108
106 77 106
113 88 113
113 88 113
116 93 116
121 99 121
119 96 119
122 100 122
130 111 130
153 141 153
161 154 161
135 125 135
37 19 37
1 0 1
1 0 1
1 0 1
1 0 1
1 0 1
1 0 1
1 0 1
0 0 0
0 0 0
0 0 0
0 0 0
0 0 0
0 0 0
0 0 0
0 0 0
0 0 0
0 0 0
2 0 2
3 0 3
9 2 9
25 6 25
61 37 61
108 88 108
130 114 130
136 121 136
118 97 118
110 86 110
107 81 107
104 77 104
102 74 102
107 80 107
110 83 110
108 81 108
106 78 106
108 81 108
107 79 107
105 76 105
104 75 104
105 77 105
104 75 104
112 87 112
111 86 111
117 94 117
124 103 124
125 104 125
119 96 119
130 110 130
153 142 153
150 141 150
89 72 89
6 0 6
1 0 1
2 0 2
2 0 2
2 0 2
2 0 2
1 0 1
0 0 0
0 0 0
0 0 0
0 0 0
0 0 0
0 0 0
0 0 0
0 0 0
0 0 0
0 0 0
2 0 2
3 0 3
14 2 14
41 17 41
93 72 93
128 112 128
139 125 139
129 112 129
115 92 115
106 80 106
109 84 109
108 82 108
105 78 105
108 82 108
103 74 103
108 81 108
105 77 105
105 77 105
103 74 103
106 78 106
104 76 104
102 73 102
106 78 106
102 73 102
111 86 111
115 91 115
113 89 113
117 94 117
118 94 118
119 96 119
127 107 127
148 136 148
123 111 123
26 10 26
2 0 2
2 0 2
3 0 3
2 0 2
1 0 1
0 0 0
0 0 0
0 0 0
0 0 0
0 0 0
0 0 0
0 0 0
0 0 0
0 0 0
0 0 0
0 0 0
2 0 2
3 0 3
20 5 20
62 36 62
124 108 124
139 126 139
142 129 142
119 99 119
112 88 112
111 85 111
107 80 107
100 71 100
99 69 99
105 76 105
105 77 105
102 73 102
109 82 109
103 74 103
103 75 103
101 71 101
103 74 103
99 70 99
103 75 103
101 71 101
103 75 103
102 74 102
113 88 113
123 101 123
123 101 123
118 94 118
118 95 118
133 116 133
134 121 134
54 36 54
2 0 2
1 0 1
1 0 1
2 0 2
1 0 1
0 0 0
0 0 0
0 0 0
0 0 0
0 0 0
0 0 0
0 0 0
0 0 0
0 0 0
0 0 0
0 0 0
2 0 2
4 0 4
26 8 26
94 72 94
135 121 135
143 130 143
123 103 123
114 90 114
109 82 109
107 80 107
109 83 109
105 77 105
100 70 100
101 71 101
103 74 103
103 74 103
104 75 104
106 78 106
103 75 103
100 69 100
102 74 102
104 75 104
99 68 99
101 72 101
96 65 96
106 79 106
115 91 115
114 89 114
118 95 118
115 91 115
107 81 107
122 101 122
130 114 130
88 72 88
7 0 7
2 0 2
3 0 3
3 0 3
1 0 1
1 0 1
0 0 0
0 0 0
0 0 0
0 0 0
0 0 0
0 0 0
0 0 0
0 0 0
0 0 0
0 0 0
2 0 2
5 0 5
38 15 38
120 103 120
140 127 140
132 115 132
117 95 117
115 92 115
113 89 113
113 90 113
112 88 112
107 79 107
104 76 104
103 74 103
100 69 100
103 73 103
102 73 102
105 77 105
100 70 100
98 66 98
98 67 98
101 72 101
100 71 100
101 71 101
99 68 99
103 74 103
101 73 101
104 76 104
112 86 112
116 91 116
107 80 107
111 86 111
126 107 126
106 90 106
14 1 14
2 0 2
2 0 2
2 0 2
3 0 3
1 0 1
0 0 0
0 0 0
0 0 0
0 0 0
0 0 0
0 0 0
0 0 0
0 0 0
0 0 0
0 0 0
2 0 2
7 0 7
57 32 57
126 108 126
144 130 144
132 115 132
117 96 117
112 88 112
111 86 111
110 84 110
107 79 107
102 72 102
102 73 102
106 78 106
100 70 100
100 69 100
101 72 101
102 73 102
101 70 101
99 68 99
98 67 98
99 70 99
99 68 99
98 67 98
98 68 98
96 65 96
99 68 99
101 71 101
108 81 108
114 89 114
106 78 106
102 74 102
123 102 123
116 99 116
31 12 31
1 0 1
2 0 2
1 0 1
1 0 1
2 0 2
0 0 0
0 0 0
0 0 0
0 0 0
0 0 0
0 0 0
0 0 0
0 0 0
0 0 0
0 0 0
2 0 2
10 0 10
85 62 85
135 121 135
139 125 139
122 102 122
110 85 110
105 78 105
104 76 104
100 70 100
99 68 99
98 66 98
96 65 96
102 73 102
106 79 106
98 68 98
100 71 100
100 70 100
103 74 103
99 68 99
99 69 99
102 73 102
100 69 100
98 67 98
99 69 99
97 66 97
97 66 97
100 69 100
109 82 109
114 89 114
109 83 109
97 68 97
117 94 117
123 105 123
58 37 58
2 0 2
1 0 1
1 0 1
1 0 1
1 0 1
0 0 0
0 0 0
0 0 0
0 0 0
0 0 0
0 0 0
0 0 0
0 0 0
0 0 0
0 0 0
3 0 3
13 0 13
99 79 99
141 128 141
132 116 132
110 86 110
103 75 103
102 73 102
100 70 100
100 70 100
100 69 100
98 66 98
96 63 96
98 66 98
108 81 108
98 67 98
101 71 101
100 70 100
100 70 100
98 66 98
98 67 98
102 72 102
104 74 104
99 68 99
103 74 103
96 65 96
96 66 96
103 74 103
112 87 112
114 90 114
110 85 110
103 78 103
109 84 109
122 103 122
76 57 76
8 0 8
1 0 1
1 0 1
0 0 0
0 0 0
0 0 0
0 0 0
0 0 0
0 0 0
0 0 0
0 0 0
0 0 0
0 0 0
0 0 0
0 0 0
2 0 2
15 0 15
108 89 108
145 132 145
126 108 126
105 80 105
103 75 103
107 79 107
107 79 107
106 78 106
105 76 105
99 67 99
98 66 98
97 65 97
107 79 107
100 70 100
101 71 101
99 69 99
99 69 99
97 65 97
98 66 98
101 71 101
107 79 107
100 69 100
102 72 102
96 64 96
97 67 97
104 75 104
113 87 113
116 93 116
117 96 117
117 95 117
109 84 109
97 71 97
95 81 95
24 11 24
1 0 1
1 0 1
0 0 0
0 0 0
0 0 0
0 0 0
0 0 0
0 0 0
0 0 0
0 0 0
0 0 0
0 0 0
0 0 0
0 0 0
2 0 2
19 1 19
115 98 115
145 132 145
121 101 121
103 76 103
106 79 106
115 91 115
115 91 115
113 86 113
109 81 109
103 72 103
102 70 102
98 66 98
105 76 105
102 73 102
102 72 102
99 69 99
99 68 99
97 65 97
99 67 99
103 73 103
106 78 106
98 67 98
99 69 99
95 64 95
98 68 98
105 77 105
112 87 112
116 94 116
125 105 125
132 113 132
120 98 120
78 51 78
68 49 68
56 47 56
2 0 2
1 0 1
0 0 0
0 0 0
0 0 0
0 0 0
0 0 0
0 0 0
0 0 0
0 0 0
0 0 0
0 0 0
0 0 0
0 0 0
2 0 2
22 2 22
119 103 119
147 135 147
120 99 120
101 74 101
111 85 111
119 96 119
113 87 113
112 86 112
110 82 110
106 77 106
104 73 104
99 67 99
105 77 105
104 76 104
103 73 103
102 72 102
99 68 99
98 67 98
103 73 103
103 73 103
106 78 106
99 68 99
99 69 99
96 65 96
97 66 97
103 74 103
110 84 110
119 96 119
130 110 130
135 115 135
122 101 122
74 46 74
57 36 57
55 44 55
4 0 4
0 0 0
0 0 0
0 0 0
0 0 0
0 0 0
0 0 0
0 0 0
0 0 0
0 0 0
0 0 0
0 0 0
0 0 0
0 0 0
3 0 3
23 2 23
117 101 117
148 136 148
121 101 121
104 78 104
113 89 113
118 94 118
105 77 105
105 76 105
106 77 106
107 79 107
105 75 105
99 67 99
105 77 105
104 75 104
103 74 103
103 73 103
100 69 100
101 70 101
104 73 104
101 71 101
103 75 103
97 66 97
99 68 99
96 65 96
96 65 96
105 76 105
106 78 106
114 89 114
125 102 125
118 93 118
116 93 116
73 44 73
56 32 56
50 38 50
3 0 3
0 0 0
0 0 0
0 0 0
0 0 0
0 0 0
0 0 0
0 0 0
0 0 0
0 0 0
0 0 0
0 0 0
0 0 0
0 0 0
3 0 3
21 2 21
112 94 112
147 135 147
122 102 122
108 84 108
112 88 112
112 86 112
102 73 102
101 70 101
102 71 102
104 75 104
104 74 104
97 64 97
105 76 105
102 72 102
102 72 102
101 71 101
99 69 99
100 68 100
104 73 104
101 71 101
103 74 103
97 66 97
98 67 98
97 66 97
97 66 97
105 77 105
100 72 100
98 69 98
116 89 116
110 79 110
107 80 107
72 41 72
62 37 62
50 35 50
2 0 2
0 0 0
0 0 0
0 0 0
0 0 0
0 0 0
0 0 0
0 0 0
0 0 0
0 0 0
0 0 0
0 0 0
0 0 0
0 0 0
2 0 2
19 1 19
107 88 107
145 131 145
122 102 122
113 90 113
110 84 110
106 76 106
103 73 103
101 71 101
100 69 100
103 75 103
102 72 102
97 65 97
105 77 105
100 69 100
101 71 101
101 71 101
101 71 101
100 69 100
104 75 104
103 75 103
101 72 101
98 68 98
96 65 96
98 68 98
96 65 96
99 69 99
100 72 100
98 69 98
106 77 106
111 80 111
111 81 111
71 39 71
63 40 63
60 45 60
2 0 2
0 0 0
0 0 0
0 0 0
0 0 0
0 0 0
0 0 0
0 0 0
0 0 0
0 0 0
0 0 0
0 0 0
0 0 0
0 0 0
2 0 2
17 0 17
101 82 101
141 127 141
125 106 125
115 93 115
107 79 107
103 73 103
101 70 101
103 75 103
99 69 99
102 73 102
103 74 103
98 66 98
107 79 107
99 68 99
99 69 99
99 68 99
103 73 103
101 69 101
106 77 106
106 77 106
99 69 99
97 67 97
91 60 91
94 65 94
92 62 92
94 64 94
101 73 101
98 70 98
98 68 98
104 71 104
107 74 107
76 41 76
67 41 67
73 59 73
5 0 5
0 0 0
0 0 0
0 0 0
0 0 0
0 0 0
0 0 0
0 0 0
0 0 0
0 0 0
0 0 0
0 0 0
0 0 0
0 0 0
2 0 2
14 0 14
89 69 89
140 126 140
132 114 132
120 99 120
105 77 105
101 70 101
97 65 97
102 73 102
106 78 106
105 77 105
104 75 104
98 67 98
106 78 106
99 68 99
97 66 97
98 66 98
100 69 100
97 64 97
105 74 105
105 75 105
97 65 97
96 66 96
91 60 91
93 63 93
93 63 93
92 60 92
105 79 105
100 71 100
95 63 95
99 67 99
103 69 103
77 40 77
69 41 69
79 63 79
17 5 17
0 0 0
0 0 0
0 0 0
0 0 0
0 0 0
0 0 0
0 0 0
0 0 0
0 0 0
0 0 0
0 0 0
0 0 0
0 0 0
2 0 2
11 0 11
67 43 67
137 122 137
137 120 137
122 100 122
108 81 108
101 70 101
96 64 96
103 74 103
109 82 109
107 81 107
107 79 107
99 67 99
105 76 105
98 67 98
96 64 96
97 64 97
95 61 95
93 59 93
105 75 105
108 78 108
98 66 98
93 62 93
90 58 90
91 59 91
96 66 96
91 58 91
107 81 107
97 65 97
95 61 95
109 81 109
105 69 105
84 44 84
71 39 71
75 54 75
39 22 39
2 0 2
0 0 0
0 0 0
0 0 0
0 0 0
0 0 0
0 0 0
0 0 0
0 0 0
0 0 0
0 0 0
0 0 0
0 0 0
2 0 2
8 0 8
56 31 56
134 118 134
138 122 138
121 99 121
110 83 110
101 71 101
96 65 96
104 75 104
109 83 109
109 83 109
107 80 107
100 68 100
104 76 104
98 67 98
97 65 97
96 63 96
94 60 94
93 58 93
106 76 106
107 77 107
98 68 98
93 64 93
93 63 93
93 62 93
100 71 100
92 58 92
108 82 108
96 66 96
96 64 96
107 77 107
98 61 98
91 52 91
74 40 74
85 63 85
54 34 54
5 0 5
0 0 0
0 0 0
0 0 0
0 0 0
0 0 0
0 0 0
0 0 0
0 0 0
0 0 0
0 0 0
0 0 0
0 0 0
2 0 2
4 0 4
30 8 30
115 96 115
144 131 144
123 103 123
121 97 121
111 85 111
108 81 108
110 83 110
110 84 110
112 87 112
103 73 103
102 71 102
104 75 104
100 70 100
102 72 102
101 69 101
99 66 99
96 62 96
99 66 99
99 67 99
101 73 101
97 67 97
109 85 109
113 89 113
113 90 113
99 70 99
109 83 109
100 73 100
107 83 107
95 64 95
67 31 67
83 42 83
89 52 89
114 94 114
74 53 74
22 5 22
0 0 0
0 0 0
0 0 0
1 0 1
0 0 0
0 0 0
0 0 0
0 0 0
0 0 0
0 0 0
0 0 0
0 0 0
2 0 2
4 0 4
20 4 20
86 62 86
144 131 144
127 108 127
118 94 118
115 90 115
106 77 106
103 73 103
106 78 106
105 76 105
101 70 101
107 76 107
110 82 110
109 81 109
107 77 107
102 70 102
98 65 98
98 64 98
94 59 94
101 70 101
98 67 98
97 68 97
119 98 119
126 107 126
109 84 109
114 90 114
115 91 115
116 94 116
111 88 111
101 75 101
78 46 78
83 47 83
81 44 81
99 75 99
79 59 79
25 7 25
1 0 1
0 0 0
0 0 0
1 0 1
0 0 0
0 0 0
0 0 0
0 0 0
0 0 0
0 0 0
0 0 0
0 0 0
1 0 1
4 0 4
12 3 12
43 17 43
136 123 136
142 128 142
124 102 124
112 86 112
104 74 104
104 74 104
112 85 112
106 78 106
104 74 104
114 86 114
115 87 115
115 88 115
113 85 113
106 76 106
102 71 102
100 67 100
96 63 96
104 74 104
105 75 105
103 76 103
116 93 116
119 98 119
121 102 121
105 81 105
96 66 96
111 86 111
100 71 100
84 54 84
83 55 83
83 47 83
80 42 80
86 59 86
81 60 81
30 10 30
2 0 2
0 0 0
1 0 1
1 0 1
0 0 0
0 0 0
0 0 0
0 0 0
0 0 0
0 0 0
0 0 0
0 0 0
2 0 2
4 0 4
10 3 10
22 1 22
95 71 95
159 151 159
141 125 141
128 109 128
115 91 115
109 83 109
118 94 118
115 90 115
107 79 107
113 86 113
114 88 114
114 86 114
112 84 112
106 76 106
103 71 103
97 63 97
103 72 103
104 73 104
112 84 112
102 76 102
111 88 111
119 99 119
120 100 120
117 96 117
98 71 98
101 73 101
84 50 84
70 39 70
71 35 71
81 42 81
72 36 72
87 60 87
77 54 77
29 8 29
2 0 2
0 0 0
1 0 1
1 0 1
0 0 0
0 0 0
0 0 0
0 0 0
0 0 0
0 0 0
0 0 0
0 0 0
2 0 2
4 0 4
9 3 9
11 0 11
56 27 56
147 136 147
163 156 163
133 115 133
113 88 113
106 79 106
117 93 117
115 92 115
106 79 106
117 93 117
109 81 109
111 83 111
107 79 107
108 79 108
105 76 105
101 69 101
105 75 105
108 79 108
111 84 111
111 87 111
109 87 109
111 89 111
104 79 104
114 92 114
106 80 106
98 67 98
76 42 76
75 42 75
83 44 83
82 44 82
76 42 76
71 42 71
53 27 53
25 6 25
1 0 1
0 0 0
1 0 1
1 0 1
0 0 0
0 0 0
0 0 0
0 0 0
0 0 0
0 0 0
0 0 0
0 0 0
2 0 2
4 0 4
9 3 9
8 0 8
25 2 25
101 77 101
165 159 165
154 144 154
122 101 122
123 103 123
123 102 123
124 105 124
128 109 128
127 107 127
121 98 121
115 90 115
107 78 107
106 78 106
105 77 105
107 78 107
110 83 110
107 78 107
113 87 113
112 88 112
123 105 123
120 103 120
88 59 88
105 77 105
114 87 114
104 71 104
93 57 93
95 61 95
93 56 93
91 52 91
72 37 72
60 29 60
46 20 46
15 0 15
0 0 0
0 0 0
1 0 1
1 0 1
0 0 0
0 0 0
0 0 0
0 0 0
0 0 0
0 0 0
0 0 0
0 0 0
2 0 2
4 0 4
9 3 9
7 0 7
12 0 12
51 21 51
142 131 142
182 182 182
152 142 152
132 116 132
129 111 129
128 110 128
134 117 134
146 134 146
137 120 137
128 109 128
117 93 117
115 90 115
109 83 109
106 77 106
106 78 106
107 78 107
110 82 110
117 94 117
131 115 131
120 100 120
102 75 102
99 66 99
102 70 102
103 69 103
98 60 98
105 72 105
108 72 108
101 64 101
77 40 77
60 28 60
41 16 41
4 0 4
0 0 0
1 0 1
1 0 1
1 0 1
0 0 0
0 0 0
0 0 0
0 0 0
0 0 0
0 0 0
0 0 0
0 0 0
2 0 2
3 0 3
8 3 8
6 0 6
6 0 6
25 4 25
74 45 74
156 146 156
174 171 174
155 145 155
144 132 144
142 129 142
137 121 137
138 123 138
141 126 141
125 103 125
120 97 120
112 85 112
105 76 105
101 70 101
104 74 104
105 75 105
110 82 110
120 97 120
133 113 133
125 105 125
95 61 95
93 60 93
100 71 100
99 68 99
96 61 96
125 97 125
124 92 124
120 87 120
92 56 92
61 26 61
30 5 30
1 0 1
0 0 0
0 0 0
1 0 1
0 0 0
0 0 0
0 0 0
0 0 0
0 0 0
0 0 0
0 0 0
0 0 0
0 0 0
2 0 2
3 0 3
8 3 8
5 0 5
5 0 5
9 0 9
33 7 33
93 64 93
149 134 149
150 135 150
134 115 134
134 117 134
129 110 129
127 107 127
126 105 126
128 107 128
116 90 116
107 79 107
100 70 100
99 67 99
101 70 101
105 75 105
113 86 113
122 98 122
139 121 139
134 112 134
103 71 103
100 66 100
103 70 103
98 64 98
95 59 95
119 92 119
128 99 128
129 100 129
112 80 112
62 26 62
17 0 17
1 0 1
0 0 0
1 0 1
1 0 1
0 0 0
0 0 0
0 0 0
0 0 0
0 0 0
0 0 0
0 0 0
0 0 0
0 0 0
2 0 2
3 0 3
8 3 8
5 0 5
4 0 4
6 0 6
16 3 16
49 18 49
90 60 90
140 122 140
134 113 134
120 95 120
118 93 118
115 89 115
121 97 121
132 112 132
130 110 130
114 88 114
109 81 109
105 75 105
107 78 107
112 84 112
120 95 120
123 99 123
131 97 131
118 86 118
92 53 92
109 78 109
117 87 117
101 65 101
104 66 104
102 66 102
108 75 108
140 115 140
126 98 126
66 31 66
10 0 10
2 0 2
1 0 1
1 0 1
1 0 1
0 0 0
0 0 0
0 0 0
0 0 0
0 0 0
0 0 0
0 0 0
0 0 0
0 0 0
2 0 2
2 0 2
8 3 8
5 0 5
3 0 3
4 0 4
8 0 8
19 1 19
54 23 54
75 44 75
103 76 103
113 87 113
110 82 110
105 75 105
108 79 108
113 85 113
122 98 122
108 78 108
108 79 108
108 78 108
109 81 109
109 80 109
105 73 105
118 89 118
129 100 129
115 81 115
93 54 93
95 56 95
95 57 95
99 60 99
95 58 95
103 68 103
113 81 113
146 127 146
131 109 131
72 42 72
18 2 18
7 0 7
4 0 4
3 0 3
1 0 1
1 0 1
1 0 1
1 0 1
0 0 0
1 0 1
0 0 0
0 0 0
0 0 0
0 0 0
2 0 2
3 0 3
9 3 9
5 0 5
3 0 3
3 0 3
3 0 3
7 0 7
30 5 30
59 29 59
69 37 69
75 41 75
78 43 78
80 44 80
81 44 81
87 51 87
96 63 96
100 67 100
96 62 96
94 58 94
96 61 96
98 63 98
100 66 100
108 78 108
106 73 106
98 62 98
91 53 91
92 54 92
89 50 89
86 48 86
91 54 91
97 63 97
87 59 87
72 37 72
69 36 69
45 15 45
3 0 3
0 0 0
1 0 1
1 0 1
0 0 0
0 0 0
0 0 0
0 0 0
0 0 0
0 0 0
0 0 0
0 0 0
0 0 0
0 0 0
2 0 2
3 0 3
9 3 9
6 0 6
4 0 4
3 0 3
3 0 3
3 0 3
8 0 8
43 18 43
63 34 63
73 40 73
76 41 76
78 41 78
79 43 79
84 48 84
100 68 100
111 81 111
98 63 98
98 63 98
104 71 104
103 70 103
113 82 113
121 92 121
118 86 118
108 75 108
103 68 103
115 79 115
119 84 119
122 88 122
118 86 118
102 73 102
91 63 91
118 52 118
112 87 112
65 41 65
10 0 10
5 0 5
5 0 5
2 0 2
1 0 1
1 0 1
1 0 1
1 0 1
1 0 1
1 0 1
0 0 0
0 0 0
0 0 0
0 0 0
2 0 2
3 0 3
8 2 8
5 0 5
3 0 3
2 0 2
3 0 3
3 0 3
3 0 3
21 1 21
55 27 55
68 36 68
74 41 74
74 40 74
76 40 76
80 44 80
88 53 88
96 61 96
102 69 102
100 66 100
102 69 102
95 60 95
99 65 99
115 85 115
106 74 106
101 66 101
99 62 99
116 81 116
121 86 121
130 97 130
144 119 144
112 77 112
110 78 110
128 101 128
99 70 99
48 25 48
8 0 8
5 0 5
3 0 3
2 0 2
1 0 1
1 0 1
1 0 1
0 0 0
0 0 0
0 0 0
0 0 0
0 0 0
0 0 0
0 0 0
2 0 2
3 0 3
8 3 8
5 0 5
2 0 2
2 0 2
3 0 3
3 0 3
3 0 3
7 0 7
42 15 42
63 33 63
72 40 72
74 40 74
74 39 74
77 41 77
82 46 82
94 59 94
100 66 100
100 66 100
97 62 97
94 58 94
101 68 101
99 66 99
95 61 95
95 60 95
95 57 95
101 63 101
100 62 100
103 64 103
124 93 124
152 130 152
146 124 146
125 97 125
69 34 69
24 4 24
1 0 1
1 0 1
0 0 0
0 0 0
0 0 0
0 0 0
0 0 0
0 0 0
0 0 0
0 0 0
0 0 0
0 0 0
0 0 0
0 0 0
2 0 2
3 0 3
9 3 9
5 0 5
2 0 2
2 0 2
3 0 3
3 0 3
3 0 3
4 0 4
29 6 29
58 29 58
71 38 71
71 37 71
73 39 73
76 40 76
80 44 80
92 56 92
103 71 103
99 66 99
97 63 97
96 61 96
99 65 99
102 71 102
101 67 101
95 58 95
98 61 98
101 63 101
103 66 103
106 69 106
111 76 111
146 123 146
155 136 155
128 104 128
63 30 63
20 3 20
1 0 1
0 0 0
0 0 0
0 0 0
0 0 0
0 0 0
0 0 0
0 0 0
0 0 0
0 0 0
0 0 0
0 0 0
0 0 0
0 0 0
2 0 2
3 0 3
8 2 8
5 0 5
3 0 3
2 0 2
3 0 3
3 0 3
3 0 3
4 0 4
19 2 19
47 20 47
66 35 66
70 37 70
73 39 73
76 40 76
81 44 81
92 57 92
98 65 98
93 59 93
96 61 96
92 56 92
97 63 97
97 64 97
97 63 97
95 58 95
99 62 99
97 58 97
99 61 99
99 60 99
102 65 102
134 107 134
142 120 142
126 102 126
62 29 62
16 1 16
1 0 1
0 0 0
0 0 0
0 0 0
0 0 0
0 0 0
0 0 0
0 0 0
0 0 0
0 0 0
0 0 0
0 0 0
0 0 0
0 0 0
2 0 2
2 0 2
8 2 8
5 0 5
3 0 3
2 0 2
3 0 3
4 0 4
4 0 4
5 0 5
12 0 12
41 18 41
62 31 62
70 37 70
72 39 72
75 40 75
78 43 78
86 51 86
90 55 90
92 57 92
94 59 94
92 56 92
98 64 98
98 65 98
97 62 97
94 57 94
97 59 97
96 58 96
98 60 98
99 61 99
95 56 95
119 87 119
126 99 126
119 94 119
58 26 58
13 0 13
1 0 1
0 0 0
0 0 0
0 0 0
0 0 0
0 0 0
0 0 0
0 0 0
0 0 0
0 0 0
0 0 0
0 0 0
0 0 0
0 0 0
2 0 2
2 0 2
7 2 7
5 0 5
3 0 3
2 0 2
3 0 3
4 0 4
4 0 4
5 0 5
7 0 7
37 14 37
56 27 56
68 36 68
71 39 71
74 41 74
76 42 76
81 47 81
89 56 89
90 56 90
90 55 90
92 57 92
94 59 94
104 73 104
98 63 98
92 54 92
92 53 92
94 56 94
98 60 98
104 66 104
96 59 96
113 80 113
127 101 127
134 114 134
53 24 53
9 0 9
0 0 0
0 0 0
0 0 0
0 0 0
0 0 0
0 0 0
0 0 0
0 0 0
0 0 0
0 0 0
0 0 0
0 0 0
0 0 0
0 0 0
2 0 2
2 0 2
7 2 7
5 0 5
3 0 3
2 0 2
3 0 3
4 0 4
5 0 5
5 0 5
5 0 5
26 5 26
52 24 52
64 33 64
71 38 71
74 41 74
75 42 75
80 46 80
87 55 87
90 57 90
88 53 88
87 52 87
90 55 90
105 75 105
100 66 100
95 60 95
94 56 94
98 60 98
97 59 97
105 68 105
101 65 101
115 82 115
149 129 149
137 120 137
42 15 42
4 0 4
0 0 0
0 0 0
0 0 0
0 0 0
0 0 0
0 0 0
0 0 0
0 0 0
0 0 0
0 0 0
0 0 0
0 0 0
0 0 0
0 0 0
2 0 2
2 0 2
7 2 7
5 0 5
3 0 3
2 0 2
3 0 3
4 0 4
5 0 5
5 0 5
5 0 5
17 1 17
51 23 51
62 33 62
67 36 67
70 38 70
75 42 75
81 48 81
86 53 86
87 53 87
88 54 88
87 53 87
86 51 86
94 61 94
94 59 94
98 65 98
99 62 99
105 69 105
104 68 104
104 66 104
102 65 102
109 75 109
149 130 149
121 106 121
28 7 28
1 0 1
0 0 0
0 0 0
0 0 0
0 0 0
0 0 0
0 0 0
0 0 0
0 0 0
0 0 0
0 0 0
0 0 0
0 0 0
0 0 0
0 0 0
0 0 0
0 0 0
0 0 0
0 0 0
0 0 0
0 0 0
0 0 0
0 0 0
0 0 0
0 0 0
0 0 0
0 0 0
0 0 0
0 0 0
0 0 0
0 0 0
0 0 0
0 0 0
0 0 0
0 0 0
0 0 0
0 0 0
0 0 0
0 0 0
0 0 0
0 0 0
0 0 0
0 0 0
0 0 0
0 0 0
0 0 0
0 0 0
0 0 0
0 0 0
0 0 0
0 0 0
0 0 0
0 0 0
0 0 0
0 0 0
0 0 0
0 0 0
0 0 0
0 0 0
0 0 0
0 0 0
0 0 0
0 0 0
0 0 0
