P3 
50 50 
255
0 0 0
0 0 0
0 0 0
0 0 0
0 0 0
0 0 0
0 0 0
0 0 0
0 0 0
0 0 0
0 0 0
0 0 0
0 0 0
0 0 0
0 0 0
0 0 0
0 0 0
0 0 0
0 0 0
0 0 0
0 0 0
0 0 0
0 0 0
0 0 0
0 0 0
0 0 0
0 0 0
0 0 0
0 0 0
0 0 0
0 0 0
0 0 0
0 0 0
0 0 0
0 0 0
0 0 0
0 0 0
0 0 0
0 0 0
0 0 0
0 0 0
0 0 0
0 0 0
0 0 0
0 0 0
0 0 0
0 0 0
0 0 0
0 0 0
0 0 0
0 0 0
0 0 0
0 0 0
0 0 0
0 0 0
0 0 0
0 0 0
0 0 0
0 0 0
0 0 0
0 0 0
0 0 0
0 0 0
0 0 0
0 0 0
0 0 0
1 0 1
1 0 1
1 0 1
1 0 1
4 0 4
8 0 8
14 1 14
18 4 18
19 4 19
19 5 19
13 1 13
7 0 7
4 0 4
3 0 3
3 0 3
4 0 4
4 0 4
4 0 4
2 0 2
6 1 6
6 0 6
4 0 4
3 0 3
3 0 3
3 0 3
3 0 3
4 0 4
4 0 4
5 0 5
6 0 6
7 0 7
10 0 10
10 1 10
1 0 1
0 0 0
0 0 0
0 0 0
0 0 0
0 0 0
0 0 0
0 0 0
0 0 0
0 0 0
0 0 0
0 0 0
0 0 0
0 0 0
0 0 0
0 0 0
1 0 1
1 0 1
9 0 9
25 9 25
41 22 41
59 39 59
78 60 78
96 82 96
110 99 110
112 102 112
104 92 104
83 67 83
67 49 67
52 33 52
36 18 36
23 7 23
11 0 11
4 0 4
3 0 3
3 0 3
6 1 6
6 0 6
4 0 4
3 0 3
4 0 4
4 0 4
4 0 4
4 0 4
4 0 4
5 0 5
6 0 6
8 0 8
9 0 9
10 1 10
2 0 2
0 0 0
0 0 0
0 0 0
0 0 0
0 0 0
0 0 0
0 0 0
0 0 0
0 0 0
0 0 0
0 0 0
0 0 0
0 0 0
0 0 0
0 0 0
7 0 7
28 11 28
55 36 55
102 89 102
125 116 125
135 127 135
146 141 146
152 148 152
150 146 150
149 145 149
149 145 149
141 136 141
140 135 140
134 129 134
120 113 120
99 87 99
59 41 59
30 13 30
10 0 10
3 0 3
7 0 7
6 0 6
4 0 4
4 0 4
5 0 5
5 0 5
5 0 5
4 0 4
4 0 4
5 0 5
6 0 6
8 0 8
9 0 9
10 1 10
2 0 2
0 0 0
0 0 0
0 0 0
0 0 0
0 0 0
0 0 0
0 0 0
0 0 0
0 0 0
0 0 0
0 0 0
0 0 0
0 0 0
1 0 1
17 3 17
43 23 43
96 82 96
130 122 130
137 128 137
141 132 141
142 134 142
137 127 137
132 120 132
129 117 129
129 116 129
132 120 132
128 116 128
124 110 124
121 108 121
128 118 128
132 125 132
125 118 125
104 93 104
59 41 59
24 7 24
8 0 8
6 0 6
5 0 5
4 0 4
5 0 5
4 0 4
4 0 4
5 0 5
5 0 5
5 0 5
7 0 7
9 0 9
10 0 10
10 1 10
2 0 2
0 0 0
0 0 0
0 0 0
0 0 0
0 0 0
0 0 0
0 0 0
0 0 0
0 0 0
0 0 0
0 0 0
0 0 0
1 0 1
20 5 20
57 37 57
118 107 118
135 126 135
140 130 140
139 129 139
141 131 141
136 125 136
128 113 128
125 110 125
122 105 122
119 102 119
116 98 116
114 94 114
110 90 110
109 90 109
110 93 110
120 106 120
127 117 127
123 112 123
125 118 125
86 72 86
37 17 37
14 0 14
6 0 6
4 0 4
4 0 4
3 0 3
4 0 4
6 0 6
6 0 6
5 0 5
7 0 7
9 0 9
10 0 10
10 1 10
2 0 2
0 0 0
0 0 0
0 0 0
0 0 0
0 0 0
0 0 0
0 0 0
0 0 0
0 0 0
0 0 0
0 0 0
1 0 1
20 6 20
73 56 73
125 116 125
144 137 144
149 141 149
147 139 147
143 133 143
132 118 132
126 110 126
123 106 123
121 104 121
120 102 120
118 100 118
110 89 110
109 87 109
106 84 106
107 86 107
107 87 107
106 87 106
116 102 116
128 118 128
123 112 123
124 115 124
99 86 99
46 24 46
15 0 15
5 0 5
4 0 4
3 0 3
3 0 3
5 0 5
6 0 6
6 0 6
7 0 7
8 0 8
11 0 11
10 1 10
2 0 2
0 0 0
0 0 0
0 0 0
0 0 0
0 0 0
0 0 0
0 0 0
0 0 0
0 0 0
0 0 0
0 0 0
12 2 12
73 58 73
130 121 130
147 141 147
146 138 146
144 134 144
139 129 139
129 114 129
120 102 120
117 98 117
117 97 117
117 98 117
118 99 118
115 96 115
108 86 108
106 84 106
102 80 102
101 78 101
102 79 102
99 76 99
102 81 102
113 98 113
113 97 113
120 108 120
118 106 118
96 81 96
44 24 44
12 0 12
5 0 5
4 0 4
3 0 3
4 0 4
5 0 5
6 0 6
6 0 6
7 0 7
11 0 11
11 1 11
2 0 2
0 0 0
0 0 0
0 0 0
0 0 0
0 0 0
0 0 0
0 0 0
0 0 0
0 0 0
0 0 0
5 0 5
60 46 60
124 115 124
149 143 149
153 146 153
143 133 143
130 116 130
118 99 118
111 90 111
111 89 111
110 88 110
111 89 111
113 93 113
112 90 112
106 83 106
102 78 102
103 80 103
101 77 101
102 79 102
98 74 98
100 78 100
103 82 103
103 83 103
104 84 104
110 93 110
115 101 115
111 96 111
88 72 88
34 15 34
8 0 8
5 0 5
3 0 3
4 0 4
5 0 5
6 0 6
7 0 7
7 0 7
11 0 11
11 1 11
2 0 2
0 0 0
0 0 0
0 0 0
0 0 0
0 0 0
0 0 0
0 0 0
0 0 0
0 0 0
1 0 1
35 20 35
106 95 106
139 131 139
144 135 144
128 113 128
125 109 125
115 95 115
101 77 101
102 77 102
104 81 104
107 84 107
107 84 107
107 84 107
103 79 103
103 79 103
104 80 104
99 74 99
98 74 98
99 75 99
99 76 99
98 74 98
103 82 103
100 78 100
108 91 108
108 91 108
109 91 109
117 102 117
111 99 111
71 53 71
21 3 21
8 0 8
6 0 6
5 0 5
4 0 4
6 0 6
7 0 7
8 0 8
11 0 11
11 1 11
2 0 2
0 0 0
0 0 0
0 0 0
0 0 0
0 0 0
0 0 0
0 0 0
0 0 0
0 0 0
7 0 7
76 60 76
135 126 135
138 127 138
133 119 133
126 110 126
114 93 114
100 74 100
100 74 100
101 77 101
104 79 104
106 82 106
105 81 105
101 76 101
102 77 102
100 75 100
98 71 98
101 76 101
99 75 99
99 75 99
94 68 94
101 78 101
99 75 99
105 85 105
104 83 104
100 77 100
96 72 96
112 95 112
116 103 116
107 94 107
44 22 44
13 0 13
8 0 8
6 0 6
4 0 4
7 0 7
8 0 8
9 0 9
11 0 11
12 1 12
2 0 2
0 0 0
0 0 0
0 0 0
0 0 0
0 0 0
0 0 0
0 0 0
0 0 0
0 0 0
27 10 27
119 110 119
131 121 131
115 98 115
107 86 107
105 82 105
100 74 100
92 63 92
97 70 97
102 77 102
105 80 105
103 79 103
101 76 101
102 77 102
98 72 98
98 72 98
100 76 100
97 71 97
99 74 99
96 70 96
96 71 96
100 76 100
104 83 104
97 73 97
102 80 102
103 81 103
100 78 100
111 93 111
125 113 125
120 110 120
75 56 75
20 2 20
8 0 8
7 0 7
6 0 6
7 0 7
8 0 8
10 0 10
12 0 12
13 1 13
2 0 2
0 0 0
0 0 0
0 0 0
0 0 0
0 0 0
0 0 0
0 0 0
0 0 0
2 0 2
62 44 62
123 112 123
123 108 123
113 93 113
110 89 110
97 71 97
94 66 94
97 71 97
101 75 101
102 77 102
104 81 104
103 79 103
101 76 101
97 70 97
97 70 97
99 74 99
98 72 98
98 73 98
97 71 97
97 72 97
99 76 99
102 79 102
99 76 99
101 80 101
108 89 108
105 84 105
99 77 99
95 72 95
114 97 114
123 111 123
99 84 99
36 14 36
10 0 10
8 0 8
8 0 8
8 0 8
8 0 8
10 0 10
13 0 13
13 1 13
3 0 3
0 0 0
0 0 0
0 0 0
0 0 0
0 0 0
0 0 0
1 0 1
0 0 0
9 0 9
94 79 94
119 106 119
106 86 106
104 81 104
104 79 104
94 67 94
94 67 94
97 70 97
100 75 100
103 78 103
102 77 102
98 72 98
101 76 101
100 76 100
96 69 96
98 72 98
97 71 97
98 72 98
97 72 97
95 70 95
97 73 97
100 78 100
96 70 96
106 85 106
99 76 99
99 76 99
96 73 96
98 76 98
109 91 109
126 114 126
116 104 116
57 35 57
14 0 14
9 0 9
11 0 11
10 0 10
10 0 10
9 0 9
13 0 13
13 1 13
3 0 3
0 0 0
0 0 0
0 0 0
0 0 0
0 0 0
0 0 0
1 0 1
1 0 1
37 18 37
119 108 119
109 90 109
98 74 98
96 69 96
94 65 94
96 68 96
92 63 92
100 75 100
98 71 98
98 71 98
99 73 99
97 70 97
95 67 95
96 69 96
97 70 97
95 68 95
97 72 97
96 70 96
99 75 99
97 72 97
94 68 94
100 76 100
99 76 99
98 75 98
95 70 95
101 80 101
105 86 105
103 83 103
107 89 107
127 115 127
125 115 125
72 53 72
23 3 23
11 0 11
12 0 12
11 0 11
12 0 12
10 0 10
13 0 13
14 1 14
3 0 3
0 0 0
0 0 0
0 0 0
0 0 0
0 0 0
0 0 0
1 0 1
7 0 7
68 49 68
126 114 126
96 74 96
92 66 92
93 64 93
94 64 94
92 63 92
97 70 97
100 73 100
95 66 95
101 75 101
103 79 103
102 78 102
97 71 97
91 61 91
94 67 94
94 67 94
95 69 95
94 67 94
96 70 96
94 68 94
96 71 96
97 73 97
100 76 100
94 68 94
100 77 100
105 85 105
104 84 104
98 75 98
97 74 97
116 100 116
128 119 128
93 76 93
31 9 31
13 0 13
13 0 13
14 0 14
13 0 13
11 0 11
12 0 12
15 1 15
3 0 3
0 0 0
0 0 0
0 0 0
0 0 0
0 0 0
0 0 0
2 0 2
26 10 26
95 80 95
108 91 108
92 68 92
92 65 92
86 57 86
90 58 90
90 61 90
103 77 103
94 65 94
101 75 101
102 77 102
98 72 98
95 68 95
97 71 97
94 66 94
90 61 90
96 71 96
91 64 91
94 68 94
94 67 94
95 69 95
100 77 100
98 74 98
100 77 100
95 69 95
99 76 99
98 75 98
95 71 95
90 64 90
91 66 91
107 88 107
124 113 124
112 100 112
38 16 38
13 0 13
13 0 13
15 0 15
12 0 12
11 0 11
12 0 12
15 1 15
3 0 3
0 0 0
0 0 0
0 0 0
0 0 0
0 0 0
1 0 1
3 0 3
42 27 42
107 94 107
103 84 103
90 66 90
83 55 83
84 55 84
85 55 85
95 66 95
100 73 100
98 69 98
104 78 104
98 71 98
93 64 93
89 59 89
93 64 93
97 70 97
89 60 89
94 68 94
91 63 91
97 71 97
94 67 94
96 70 96
100 77 100
99 75 99
98 74 98
98 73 98
96 71 96
94 69 94
91 65 91
90 63 90
93 69 93
101 81 101
121 107 121
120 109 120
45 23 45
13 0 13
13 0 13
13 0 13
11 0 11
11 0 11
13 0 13
15 1 15
3 0 3
0 0 0
0 0 0
0 0 0
0 0 0
0 0 0
0 0 0
9 1 9
62 48 62
91 74 91
101 79 101
86 61 86
76 48 76
87 59 87
90 62 90
97 70 97
101 75 101
104 78 104
103 78 103
96 68 96
92 62 92
89 60 89
91 63 91
97 70 97
91 63 91
93 66 93
96 70 96
97 71 97
93 65 93
95 68 95
99 74 99
100 76 100
97 72 97
102 79 102
97 72 97
94 68 94
92 66 92
95 70 95
98 76 98
103 84 103
119 105 119
122 112 122
52 30 52
15 0 15
12 0 12
12 0 12
10 0 10
11 0 11
15 0 15
15 1 15
3 0 3
0 0 0
0 0 0
0 0 0
0 0 0
0 0 0
0 0 0
12 3 12
70 58 70
62 41 62
82 55 82
80 51 80
81 55 81
89 62 89
97 72 97
99 74 99
104 79 104
105 81 105
103 77 103
96 66 96
93 62 93
91 62 91
91 62 91
96 69 96
94 67 94
94 66 94
99 73 99
96 69 96
94 66 94
94 67 94
96 70 96
100 76 100
96 70 96
105 83 105
96 71 96
94 68 94
96 71 96
104 82 104
106 86 106
108 90 108
120 106 120
123 113 123
60 39 60
17 0 17
11 0 11
12 0 12
9 0 9
9 0 9
14 0 14
15 1 15
2 0 2
0 0 0
0 0 0
0 0 0
0 0 0
0 0 0
0 0 0
14 5 14
71 59 71
63 42 63
81 52 81
95 69 95
92 67 92
97 72 97
99 75 99
100 74 100
105 81 105
102 77 102
94 65 94
94 64 94
97 67 97
94 64 94
92 63 92
96 70 96
96 69 96
93 65 93
98 73 98
93 66 93
94 66 94
94 67 94
95 68 95
100 77 100
98 73 98
106 84 106
93 67 93
94 68 94
99 76 99
105 85 105
104 84 104
109 91 109
124 112 124
128 119 128
64 44 64
17 0 17
11 0 11
10 0 10
9 0 9
10 0 10
14 0 14
14 1 14
2 0 2
0 0 0
0 0 0
0 0 0
0 0 0
0 0 0
0 0 0
10 2 10
56 41 56
59 34 59
80 50 80
101 76 101
108 87 108
96 71 96
97 72 97
99 73 99
100 74 100
97 70 97
93 63 93
92 62 92
97 67 97
94 64 94
91 61 91
96 69 96
95 67 95
92 64 92
98 73 98
92 65 92
92 65 92
93 66 93
94 67 94
99 75 99
97 71 97
105 83 105
94 68 94
94 69 94
102 80 102
101 79 101
97 75 97
106 87 106
127 116 127
130 122 130
62 42 62
17 0 17
11 0 11
11 0 11
9 0 9
10 0 10
14 0 14
14 1 14
2 0 2
0 0 0
0 0 0
0 0 0
0 0 0
0 0 0
0 0 0
6 0 6
54 35 54
72 45 72
79 49 79
81 52 81
93 69 93
87 60 87
88 59 88
93 64 93
96 68 96
96 69 96
92 63 92
91 60 91
96 66 96
93 64 93
91 61 91
93 65 93
92 64 92
92 64 92
97 71 97
93 65 93
91 63 91
92 64 92
92 65 92
96 71 96
96 71 96
103 80 103
93 67 93
95 70 95
100 77 100
97 72 97
94 70 94
106 87 106
126 115 126
130 123 130
56 36 56
15 0 15
12 0 12
10 0 10
9 0 9
10 0 10
15 0 15
14 2 14
2 0 2
0 0 0
0 0 0
0 0 0
0 0 0
0 0 0
0 0 0
8 1 8
69 48 69
78 51 78
74 43 74
78 48 78
87 60 87
79 50 79
77 47 77
82 51 82
90 60 90
93 66 93
91 62 91
92 62 92
97 68 97
95 66 95
91 62 91
92 63 92
92 64 92
95 67 95
95 69 95
94 67 94
91 64 91
93 66 93
92 65 92
92 66 92
95 69 95
100 76 100
94 68 94
95 70 95
96 71 96
97 72 97
94 71 94
107 88 107
128 117 128
130 123 130
48 28 48
13 0 13
11 0 11
10 0 10
8 0 8
9 0 9
15 0 15
14 1 14
2 0 2
0 0 0
0 0 0
0 0 0
0 0 0
0 0 0
0 0 0
19 6 19
78 56 78
83 56 83
72 41 72
73 42 73
86 58 86
76 47 76
77 45 77
77 45 77
83 53 83
91 64 91
89 62 89
92 62 92
97 68 97
96 68 96
92 64 92
92 62 92
92 63 92
95 68 95
93 65 93
95 68 95
92 64 92
94 68 94
91 64 91
91 64 91
93 66 93
97 73 97
94 69 94
94 69 94
94 68 94
96 72 96
96 73 96
104 85 104
127 117 127
128 122 128
41 22 41
11 0 11
10 0 10
9 0 9
8 0 8
9 0 9
15 0 15
13 1 13
2 0 2
0 0 0
0 0 0
0 0 0
0 0 0
0 0 0
4 0 4
36 14 36
83 59 83
86 58 86
70 39 70
68 36 68
84 56 84
79 50 79
77 46 77
77 46 77
76 46 76
86 59 86
89 61 89
93 65 93
98 70 98
97 69 97
92 63 92
92 62 92
93 64 93
94 67 94
92 64 92
95 68 95
91 64 91
92 64 92
92 65 92
92 65 92
93 67 93
96 71 96
96 71 96
95 70 95
94 68 94
94 69 94
99 77 99
105 86 105
126 116 126
119 110 119
36 16 36
9 0 9
9 0 9
9 0 9
8 0 8
8 0 8
14 0 14
13 1 13
2 0 2
0 0 0
0 0 0
0 0 0
0 0 0
0 0 0
20 4 20
60 33 60
92 67 92
81 51 81
72 40 72
72 39 72
86 58 86
83 54 83
82 50 82
81 48 81
76 44 76
82 52 82
88 60 88
93 65 93
97 68 97
97 68 97
91 61 91
93 64 93
94 66 94
94 65 94
93 66 93
93 66 93
90 62 90
89 60 89
92 65 92
93 66 93
92 65 92
94 69 94
93 68 93
97 72 97
95 69 95
95 70 95
101 80 101
107 89 107
130 121 130
105 93 105
29 9 29
8 0 8
9 0 9
8 0 8
8 0 8
8 0 8
14 0 14
12 1 12
2 0 2
0 0 0
0 0 0
0 0 0
0 0 0
1 0 1
28 8 28
69 42 69
99 76 99
81 50 81
73 41 73
73 39 73
79 51 79
81 52 81
83 52 83
82 49 82
76 44 76
81 51 81
90 62 90
92 65 92
95 67 95
95 64 95
90 59 90
95 66 95
95 66 95
93 65 93
96 69 96
93 66 93
92 64 92
90 62 90
91 63 91
92 66 92
91 64 91
94 69 94
93 68 93
98 74 98
96 71 96
96 71 96
103 82 103
109 92 109
131 123 131
101 88 101
25 6 25
8 0 8
9 0 9
8 0 8
8 0 8
9 0 9
13 0 13
12 1 12
2 0 2
0 0 0
0 0 0
0 0 0
1 0 1
14 2 14
40 16 40
93 69 93
103 78 103
79 49 79
58 27 58
56 26 56
64 36 64
83 57 83
87 59 87
86 56 86
85 55 85
84 57 84
93 68 93
96 69 96
97 69 97
94 64 94
95 65 95
99 71 99
95 66 95
99 71 99
105 81 105
100 73 100
98 71 98
96 69 96
94 67 94
93 67 93
94 67 94
94 68 94
95 70 95
101 78 101
103 80 103
105 83 105
108 89 108
116 101 116
130 123 130
85 70 85
16 0 16
9 0 9
9 0 9
8 0 8
8 0 8
10 0 10
13 0 13
12 2 12
2 0 2
0 0 0
0 0 0
0 0 0
2 0 2
19 3 19
42 16 42
87 61 87
96 70 96
70 42 70
51 25 51
51 24 51
58 30 58
75 48 75
87 61 87
88 61 88
84 58 84
88 62 88
105 83 105
121 103 121
109 85 109
99 70 99
99 69 99
95 65 95
99 70 99
105 80 105
111 88 111
104 78 104
103 76 103
103 78 103
97 72 97
94 68 94
98 73 98
96 70 96
93 67 93
94 69 94
100 76 100
104 82 104
103 84 103
108 91 108
120 110 120
56 36 56
13 0 13
9 0 9
8 0 8
7 0 7
7 0 7
9 0 9
12 0 12
12 2 12
2 0 2
0 0 0
0 0 0
0 0 0
0 0 0
16 1 16
41 15 41
76 48 76
92 67 92
66 40 66
60 34 60
60 31 60
62 35 62
85 58 85
94 69 94
102 80 102
103 81 103
99 76 99
102 81 102
123 105 123
124 106 124
107 82 107
94 63 94
95 66 95
102 74 102
106 80 106
106 81 106
101 74 101
100 74 100
97 71 97
96 70 96
97 71 97
96 71 96
96 72 96
91 65 91
99 75 99
101 78 101
105 84 105
104 85 104
111 96 111
117 108 117
38 17 38
11 0 11
9 0 9
7 0 7
7 0 7
8 0 8
8 0 8
12 0 12
12 2 12
2 0 2
0 0 0
0 0 0
0 0 0
0 0 0
11 1 11
35 13 35
74 47 74
96 71 96
62 32 62
56 27 56
60 32 60
75 47 75
77 49 77
78 47 78
93 66 93
100 78 100
104 85 104
98 74 98
123 106 123
133 119 133
111 88 111
99 71 99
98 70 98
97 70 97
107 83 107
102 77 102
109 85 109
102 76 102
94 67 94
88 59 88
99 74 99
95 70 95
96 71 96
95 70 95
103 82 103
114 96 114
114 97 114
113 97 113
129 121 129
90 75 90
23 5 23
8 0 8
9 0 9
7 0 7
7 0 7
7 0 7
6 0 6
11 0 11
12 2 12
2 0 2
0 0 0
0 0 0
0 0 0
0 0 0
10 1 10
32 14 32
63 35 63
89 59 89
78 46 78
67 37 67
59 31 59
68 36 68
72 40 72
76 44 76
79 46 79
79 49 79
100 78 100
94 68 94
101 76 101
113 92 113
111 89 111
112 90 112
106 83 106
100 73 100
102 76 102
100 74 100
112 90 112
106 83 106
97 71 97
89 63 89
94 69 94
92 66 92
92 67 92
103 82 103
112 93 112
115 98 115
115 99 115
124 113 124
131 126 131
47 27 47
11 0 11
6 0 6
8 0 8
6 0 6
7 0 7
8 0 8
7 0 7
10 0 10
12 2 12
2 0 2
0 0 0
0 0 0
0 0 0
0 0 0
7 0 7
28 11 28
48 19 48
74 41 74
86 54 86
85 56 85
86 56 86
82 49 82
89 57 89
87 55 87
77 45 77
68 37 68
104 84 104
95 70 95
86 55 86
102 79 102
112 89 112
110 87 110
103 77 103
104 80 104
102 77 102
109 86 109
109 86 109
108 85 108
104 79 104
90 65 90
92 65 92
95 70 95
101 80 101
117 102 117
120 105 120
126 112 126
137 129 137
148 146 148
86 72 86
21 4 21
5 0 5
5 0 5
6 0 6
6 0 6
7 0 7
8 0 8
7 0 7
10 0 10
12 2 12
2 0 2
0 0 0
0 0 0
0 0 0
0 0 0
3 0 3
21 7 21
49 18 49
72 39 72
93 61 93
95 64 95
92 61 92
85 51 85
90 58 90
90 58 90
81 49 81
76 42 76
102 80 102
97 72 97
87 57 87
101 76 101
115 94 115
114 93 114
104 79 104
99 72 99
107 83 107
109 87 109
112 91 112
106 84 106
109 87 109
98 75 98
103 81 103
112 95 112
125 114 125
133 123 133
132 121 132
141 133 141
156 155 156
119 112 119
39 19 39
8 0 8
4 0 4
4 0 4
5 0 5
6 0 6
7 0 7
9 0 9
7 0 7
9 0 9
11 2 11
2 0 2
0 0 0
0 0 0
0 0 0
0 0 0
1 0 1
20 5 20
56 27 56
92 63 92
103 71 103
109 80 109
98 67 98
91 62 91
89 60 89
91 61 91
78 44 78
83 49 83
98 70 98
105 81 105
92 65 92
99 72 99
112 90 112
117 97 117
102 75 102
104 78 104
104 79 104
108 85 108
110 88 110
104 81 104
107 85 107
108 88 108
123 109 123
129 118 129
134 124 134
142 136 142
148 143 148
151 147 151
102 86 102
46 25 46
14 0 14
4 0 4
4 0 4
5 0 5
5 0 5
5 0 5
7 0 7
10 0 10
7 0 7
8 0 8
11 2 11
2 0 2
0 0 0
0 0 0
0 0 0
0 0 0
0 0 0
15 2 15
60 31 60
119 97 119
111 82 111
102 73 102
112 88 112
103 76 103
94 63 94
96 65 96
89 54 89
90 56 90
98 69 98
98 69 98
98 71 98
109 86 109
116 96 116
122 103 122
109 85 109
104 79 104
104 77 104
102 76 102
105 81 105
103 79 103
106 84 106
118 100 118
124 109 124
125 109 125
128 115 128
130 118 130
133 122 133
88 64 88
48 24 48
23 5 23
6 0 6
4 0 4
4 0 4
4 0 4
5 0 5
6 0 6
8 0 8
11 0 11
7 0 7
8 0 8
11 2 11
2 0 2
0 0 0
0 0 0
0 0 0
0 0 0
0 0 0
13 0 13
68 40 68
124 102 124
99 71 99
99 73 99
129 83 129
119 94 119
97 68 97
94 62 94
92 59 92
91 57 91
99 69 99
88 57 88
100 74 100
123 105 123
127 110 127
123 103 123
110 85 110
107 81 107
107 82 107
108 85 108
105 82 105
117 98 117
122 105 122
121 104 121
117 97 117
111 89 111
109 88 109
113 95 113
80 54 80
53 26 53
30 11 30
9 0 9
4 0 4
4 0 4
4 0 4
4 0 4
5 0 5
5 0 5
9 0 9
10 0 10
7 0 7
7 0 7
11 2 11
2 0 2
0 0 0
1 0 1
3 0 3
4 0 4
4 0 4
18 6 18
85 61 85
105 79 105
95 70 95
86 57 86
109 81 109
118 92 118
118 95 118
101 69 101
90 54 90
83 47 83
106 77 106
100 70 100
87 55 87
100 72 100
110 85 110
111 86 111
108 83 108
111 87 111
120 101 120
125 108 125
113 93 113
108 85 108
105 81 105
96 69 96
91 63 91
85 57 85
80 52 80
67 39 67
55 28 55
40 17 40
16 1 16
5 0 5
4 0 4
4 0 4
5 0 5
5 0 5
6 0 6
6 0 6
9 0 9
9 0 9
6 0 6
7 0 7
11 2 11
2 0 2
0 0 0
0 0 0
0 0 0
0 0 0
0 0 0
0 0 0
20 2 20
51 24 51
61 32 61
72 41 72
80 48 80
97 68 97
102 73 102
90 59 90
80 44 80
78 42 78
82 48 82
82 49 82
86 53 86
93 64 93
106 79 106
107 79 107
91 58 91
89 57 89
91 59 91
99 71 99
95 66 95
77 44 77
74 41 74
71 39 71
69 37 69
68 36 68
65 35 65
58 30 58
45 22 45
32 12 32
9 0 9
4 0 4
3 0 3
4 0 4
5 0 5
5 0 5
5 0 5
5 0 5
8 0 8
7 0 7
5 0 5
8 0 8
11 2 11
2 0 2
0 0 0
0 0 0
1 0 1
1 0 1
1 0 1
4 0 4
34 13 34
75 49 75
91 65 91
104 80 104
104 80 104
100 72 100
118 97 118
102 76 102
94 62 94
116 88 116
113 85 113
105 75 105
112 73 112
94 65 94
106 79 106
105 78 105
97 68 97
93 63 93
90 60 90
99 72 99
98 72 98
79 48 79
71 39 71
67 36 67
65 35 65
62 33 62
57 31 57
49 25 49
38 17 38
21 5 21
8 0 8
4 0 4
3 0 3
4 0 4
4 0 4
4 0 4
4 0 4
5 0 5
8 0 8
6 0 6
5 0 5
7 0 7
9 1 9
2 0 2
0 0 0
0 0 0
0 0 0
1 0 1
1 0 1
6 0 6
42 21 42
103 81 103
125 106 125
115 91 115
110 85 110
108 81 108
101 74 101
89 60 89
86 52 86
109 78 109
113 83 113
99 68 99
105 75 105
95 65 95
103 75 103
103 75 103
94 63 94
90 58 90
90 60 90
91 62 91
86 56 86
75 43 75
71 39 71
66 35 66
64 34 64
62 34 62
56 31 56
45 24 45
31 14 31
13 2 13
5 0 5
3 0 3
3 0 3
4 0 4
3 0 3
5 0 5
6 0 6
6 0 6
7 0 7
5 0 5
6 0 6
9 0 9
13 3 13
3 0 3
0 0 0
0 0 0
0 0 0
0 0 0
0 0 0
1 0 1
21 6 21
69 39 69
109 85 109
117 92 117
117 92 117
119 96 119
113 88 113
89 59 89
82 47 82
90 57 90
98 68 98
92 60 92
93 61 93
96 66 96
100 71 100
100 73 100
95 65 95
90 59 90
84 52 84
81 50 81
78 48 78
77 46 77
72 40 72
66 35 66
63 34 63
60 32 60
52 28 52
42 21 42
25 9 25
10 2 10
4 0 4
3 0 3
3 0 3
4 0 4
3 0 3
5 0 5
6 0 6
6 0 6
6 0 6
5 0 5
5 0 5
7 0 7
12 3 12
2 0 2
0 0 0
0 0 0
0 0 0
0 0 0
0 0 0
0 0 0
11 0 11
59 30 59
108 83 108
128 106 128
119 94 119
114 88 114
111 86 111
90 59 90
81 47 81
85 52 85
91 58 91
95 64 95
86 53 86
88 56 88
96 66 96
95 65 95
98 69 98
94 65 94
86 56 86
89 61 89
84 55 84
74 44 74
73 43 73
65 35 65
63 34 63
59 31 59
49 25 49
38 17 38
22 8 22
9 2 9
4 0 4
3 0 3
3 0 3
3 0 3
3 0 3
4 0 4
6 0 6
6 0 6
6 0 6
5 0 5
5 0 5
8 0 8
12 3 12
2 0 2
0 0 0
0 0 0
0 0 0
0 0 0
0 0 0
0 0 0
6 0 6
48 20 48
87 58 87
106 80 106
115 89 115
113 88 113
100 71 100
92 61 92
83 49 83
87 54 87
87 54 87
82 48 82
81 48 81
81 49 81
94 63 94
97 68 97
94 64 94
85 54 85
84 52 84
84 54 84
84 55 84
76 47 76
69 40 69
63 33 63
64 35 64
58 31 58
49 26 49
38 18 38
17 3 17
7 2 7
4 0 4
3 0 3
3 0 3
3 0 3
3 0 3
5 0 5
6 0 6
6 0 6
6 0 6
5 0 5
5 0 5
7 0 7
12 3 12
2 0 2
0 0 0
0 0 0
0 0 0
0 0 0
0 0 0
0 0 0
4 0 4
45 18 45
79 49 79
100 74 100
112 87 112
112 88 112
92 61 92
91 60 91
81 47 81
83 50 83
83 49 83
80 46 80
81 49 81
81 48 81
87 55 87
92 62 92
90 61 90
84 54 84
78 47 78
85 56 85
85 56 85
70 40 70
66 36 66
63 33 63
63 34 63
56 30 56
48 25 48
38 18 38
13 1 13
7 2 7
4 0 4
3 0 3
3 0 3
3 0 3
3 0 3
4 0 4
6 0 6
6 0 6
6 0 6
5 0 5
5 0 5
7 0 7
12 2 12
2 0 2
0 0 0
0 0 0
0 0 0
0 0 0
0 0 0
0 0 0
5 0 5
44 19 44
75 47 75
108 83 108
116 94 116
100 73 100
85 53 85
89 57 89
84 51 84
82 49 82
86 53 86
80 47 80
85 53 85
77 46 77
78 46 78
87 57 87
93 65 93
88 59 88
83 53 83
88 59 88
80 49 80
67 37 67
66 36 66
64 34 64
62 33 62
55 30 55
48 25 48
37 18 37
13 1 13
7 2 7
3 0 3
3 0 3
3 0 3
3 0 3
3 0 3
4 0 4
5 0 5
5 0 5
6 0 6
5 0 5
5 0 5
7 0 7
12 2 12
2 0 2
0 0 0
0 0 0
0 0 0
0 0 0
0 0 0
0 0 0
5 0 5
42 19 42
75 49 75
127 110 127
136 121 136
97 70 97
87 57 87
88 56 88
91 59 91
86 55 86
94 64 94
82 50 82
70 38 70
68 36 68
74 42 74
81 51 81
89 60 89
87 58 87
85 56 85
86 57 86
81 52 81
70 40 70
66 36 66
64 35 64
60 32 60
55 30 55
48 25 48
37 17 37
15 3 15
6 2 6
4 0 4
3 0 3
3 0 3
3 0 3
3 0 3
3 0 3
4 0 4
5 0 5
5 0 5
5 0 5
5 0 5
7 0 7
11 2 11
2 0 2
0 0 0
0 0 0
0 0 0
0 0 0
0 0 0
0 0 0
3 0 3
33 13 33
79 57 79
160 155 160
131 115 131
85 57 85
93 66 93
91 61 91
90 59 90
85 53 85
76 43 76
68 35 68
65 33 65
64 33 64
71 39 71
80 49 80
90 62 90
85 57 85
82 53 82
82 53 82
82 54 82
71 41 71
66 36 66
63 33 63
60 33 60
53 28 53
47 25 47
37 17 37
14 3 14
6 1 6
4 0 4
3 0 3
3 0 3
3 0 3
2 0 2
3 0 3
4 0 4
4 0 4
5 0 5
4 0 4
4 0 4
6 0 6
11 2 11
2 0 2
0 0 0
0 0 0
0 0 0
0 0 0
0 0 0
0 0 0
0 0 0
0 0 0
0 0 0
0 0 0
0 0 0
0 0 0
0 0 0
0 0 0
0 0 0
0 0 0
0 0 0
0 0 0
0 0 0
0 0 0
0 0 0
0 0 0
0 0 0
0 0 0
0 0 0
0 0 0
0 0 0
0 0 0
0 0 0
0 0 0
0 0 0
0 0 0
0 0 0
0 0 0
0 0 0
0 0 0
0 0 0
0 0 0
0 0 0
0 0 0
0 0 0
0 0 0
0 0 0
0 0 0
0 0 0
0 0 0
0 0 0
0 0 0
0 0 0
0 0 0
