P3 
50 50 
255
0 0 0
0 0 0
0 0 0
0 0 0
0 0 0
0 0 0
0 0 0
0 0 0
0 0 0
0 0 0
0 0 0
0 0 0
0 0 0
0 0 0
0 0 0
0 0 0
0 0 0
0 0 0
0 0 0
0 0 0
0 0 0
0 0 0
0 0 0
0 0 0
0 0 0
0 0 0
0 0 0
0 0 0
0 0 0
0 0 0
0 0 0
0 0 0
0 0 0
0 0 0
0 0 0
0 0 0
0 0 0
0 0 0
0 0 0
0 0 0
0 0 0
0 0 0
0 0 0
0 0 0
0 0 0
0 0 0
0 0 0
0 0 0
0 0 0
0 0 0
0 0 0
2 2 2
2 2 2
2 2 2
2 2 2
2 2 2
2 2 2
2 2 2
2 2 2
2 2 2
2 2 2
2 2 2
2 2 2
2 2 2
2 2 2
2 2 2
2 2 2
1 1 1
0 0 0
1 1 1
7 7 7
7 7 7
3 3 3
3 3 3
3 3 3
3 3 3
4 4 4
3 3 3
4 4 4
4 4 4
5 5 5
8 8 8
3 3 3
2 2 2
2 2 2
2 2 2
2 2 2
2 2 2
2 2 2
2 2 2
2 2 2
2 2 2
2 2 2
2 2 2
2 2 2
2 2 2
2 2 2
2 2 2
2 2 2
0 0 0
0 0 0
2 2 2
2 2 2
2 2 2
2 2 2
2 2 2
2 2 2
2 2 2
2 2 2
2 2 2
2 2 2
2 2 2
2 2 2
2 2 2
2 2 2
0 0 0
0 0 0
0 0 0
4 4 4
13 13 13
3 3 3
3 3 3
3 3 3
3 3 3
3 3 3
3 3 3
4 4 4
4 4 4
3 3 3
6 6 6
9 9 9
3 3 3
13 13 13
6 6 6
7 7 7
2 2 2
2 2 2
2 2 2
2 2 2
2 2 2
2 2 2
2 2 2
2 2 2
2 2 2
2 2 2
2 2 2
2 2 2
2 2 2
2 2 2
0 0 0
0 0 0
2 2 2
2 2 2
2 2 2
2 2 2
2 2 2
2 2 2
2 2 2
2 2 2
2 2 2
2 2 2
2 2 2
2 2 2
1 1 1
0 0 0
1 1 1
2 2 2
14 14 14
3 3 3
3 3 3
3 3 3
3 3 3
3 3 3
2 2 2
2 2 2
4 4 4
5 5 5
8 8 8
15 15 15
24 24 24
15 15 15
9 9 9
9 9 9
12 12 12
10 10 10
10 10 10
17 17 17
2 2 2
2 2 2
2 2 2
2 2 2
2 2 2
2 2 2
2 2 2
2 2 2
2 2 2
2 2 2
2 2 2
2 2 2
0 0 0
0 0 0
2 2 2
2 2 2
2 2 2
2 2 2
2 2 2
2 2 2
2 2 2
2 2 2
2 2 2
2 2 2
1 1 1
0 0 0
1 1 1
2 2 2
3 3 3
3 3 3
3 3 3
3 3 3
3 3 3
3 3 3
4 4 4
4 4 4
3 3 3
12 12 12
5 5 5
9 9 9
28 28 28
29 29 29
36 36 36
10 10 10
8 8 8
7 7 7
7 7 7
5 5 5
7 7 7
12 12 12
18 18 18
7 7 7
2 2 2
2 2 2
2 2 2
2 2 2
2 2 2
2 2 2
2 2 2
2 2 2
2 2 2
2 2 2
0 0 0
0 0 0
2 2 2
2 2 2
2 2 2
2 2 2
2 2 2
2 2 2
2 2 2
2 2 2
2 2 2
1 1 1
2 2 2
1 1 1
1 1 1
3 3 3
3 3 3
4 4 4
4 4 4
4 4 4
3 3 3
4 4 4
3 3 3
1 1 1
10 10 10
65 65 65
86 86 86
86 86 86
89 89 89
91 91 91
85 85 85
16 16 16
4 4 4
6 6 6
3 3 3
3 3 3
8 8 8
2 2 2
15 15 15
7 7 7
10 10 10
2 2 2
2 2 2
2 2 2
2 2 2
2 2 2
2 2 2
2 2 2
2 2 2
2 2 2
0 0 0
0 0 0
2 2 2
2 2 2
2 2 2
2 2 2
2 2 2
2 2 2
2 2 2
2 2 2
2 2 2
3 3 3
3 3 3
2 2 2
3 3 3
3 3 3
4 4 4
5 5 5
3 3 3
2 2 2
2 2 2
1 1 1
2 2 2
25 25 25
83 83 83
87 87 87
83 83 83
59 59 59
62 62 62
82 82 82
11 11 11
4 4 4
2 2 2
8 8 8
7 7 7
6 6 6
3 3 3
3 3 3
9 9 9
4 4 4
16 16 16
9 9 9
5 5 5
2 2 2
2 2 2
2 2 2
2 2 2
2 2 2
2 2 2
2 2 2
0 0 0
0 0 0
2 2 2
2 2 2
2 2 2
2 2 2
2 2 2
2 2 2
2 2 2
3 3 3
2 2 2
3 3 3
3 3 3
2 2 2
2 2 2
3 3 3
4 4 4
3 3 3
1 1 1
1 1 1
9 9 9
65 65 65
84 84 84
87 87 87
88 88 88
86 86 86
85 85 85
83 83 83
83 83 83
84 84 84
83 83 83
38 38 38
31 31 31
22 22 22
3 3 3
4 4 4
4 4 4
3 3 3
4 4 4
10 10 10
5 5 5
16 16 16
13 13 13
8 8 8
2 2 2
2 2 2
2 2 2
2 2 2
2 2 2
2 2 2
0 0 0
0 0 0
2 2 2
2 2 2
2 2 2
2 2 2
2 2 2
2 2 2
3 3 3
3 3 3
2 2 2
3 3 3
3 3 3
2 2 2
4 4 4
3 3 3
3 3 3
29 29 29
75 75 75
80 80 80
82 82 82
85 85 85
87 87 87
85 85 85
86 86 86
87 87 87
84 84 84
88 88 88
125 125 125
145 145 145
116 116 116
88 88 88
75 75 75
27 27 27
21 21 21
10 10 10
7 7 7
9 9 9
12 12 12
5 5 5
3 3 3
8 8 8
13 13 13
50 50 50
4 4 4
2 2 2
2 2 2
2 2 2
2 2 2
2 2 2
0 0 0
0 0 0
2 2 2
2 2 2
2 2 2
2 2 2
2 2 2
3 3 3
2 2 2
3 3 3
3 3 3
4 4 4
3 3 3
4 4 4
3 3 3
2 2 2
69 69 69
78 78 78
84 84 84
87 87 87
86 86 86
87 87 87
84 84 84
84 84 84
84 84 84
89 89 89
159 159 159
190 190 190
112 112 112
160 160 160
202 202 202
189 189 189
116 116 116
94 94 94
63 63 63
23 23 23
7 7 7
14 14 14
11 11 11
10 10 10
11 11 11
5 5 5
6 6 6
11 11 11
18 18 18
2 2 2
2 2 2
2 2 2
2 2 2
2 2 2
0 0 0
0 0 0
2 2 2
2 2 2
2 2 2
2 2 2
2 2 2
3 3 3
3 3 3
3 3 3
2 2 2
0 0 0
4 4 4
3 3 3
15 15 15
77 77 77
82 82 82
88 88 88
88 88 88
87 87 87
86 86 86
103 103 103
145 145 145
85 85 85
85 85 85
86 86 86
76 76 76
59 59 59
27 27 27
171 171 171
75 75 75
203 203 203
197 197 197
197 197 197
159 159 159
99 99 99
68 68 68
25 25 25
11 11 11
19 19 19
6 6 6
4 4 4
13 13 13
5 5 5
49 49 49
18 18 18
2 2 2
2 2 2
2 2 2
2 2 2
0 0 0
0 0 0
2 2 2
2 2 2
2 2 2
2 2 2
2 2 2
2 2 2
2 2 2
3 3 3
2 2 2
61 61 61
78 78 78
79 79 79
77 77 77
80 80 80
88 88 88
90 90 90
85 85 85
99 99 99
137 137 137
132 132 132
140 140 140
82 82 82
82 82 82
124 124 124
145 145 145
116 116 116
68 68 68
142 142 142
158 158 158
175 175 175
159 159 159
174 174 174
194 194 194
187 187 187
99 99 99
79 79 79
38 38 38
13 13 13
12 12 12
14 14 14
14 14 14
6 6 6
27 27 27
14 14 14
20 20 20
2 2 2
2 2 2
2 2 2
0 0 0
0 0 0
2 2 2
2 2 2
2 2 2
1 1 1
1 1 1
1 1 1
1 1 1
2 2 2
4 4 4
78 78 78
76 76 76
84 84 84
86 86 86
86 86 86
86 86 86
136 136 136
125 125 125
119 119 119
110 110 110
81 81 81
85 85 85
83 83 83
96 96 96
87 87 87
95 95 95
144 144 144
136 136 136
135 135 135
94 94 94
88 88 88
85 85 85
90 90 90
120 120 120
190 190 190
183 183 183
103 103 103
86 86 86
52 52 52
15 15 15
12 12 12
6 6 6
6 6 6
18 18 18
13 13 13
15 15 15
6 6 6
2 2 2
2 2 2
0 0 0
0 0 0
2 2 2
2 2 2
2 2 2
1 1 1
2 2 2
1 1 1
1 1 1
1 1 1
24 24 24
75 75 75
75 75 75
82 82 82
88 88 88
86 86 86
83 83 83
85 85 85
116 116 116
86 86 86
80 80 80
85 85 85
81 81 81
82 82 82
118 118 118
85 85 85
113 113 113
123 123 123
103 103 103
93 93 93
86 86 86
88 88 88
87 87 87
87 87 87
87 87 87
119 119 119
200 200 200
148 148 148
91 91 91
89 89 89
41 41 41
11 11 11
11 11 11
5 5 5
12 12 12
19 19 19
13 13 13
88 88 88
2 2 2
2 2 2
0 0 0
0 0 0
2 2 2
2 2 2
2 2 2
2 2 2
2 2 2
1 1 1
2 2 2
1 1 1
53 53 53
75 75 75
76 76 76
80 80 80
82 82 82
82 82 82
77 77 77
81 81 81
79 79 79
81 81 81
86 86 86
83 83 83
83 83 83
84 84 84
89 89 89
88 88 88
108 108 108
109 109 109
147 147 147
89 89 89
89 89 89
88 88 88
87 87 87
89 89 89
88 88 88
91 91 91
181 181 181
194 194 194
122 122 122
93 93 93
88 88 88
30 30 30
23 23 23
7 7 7
13 13 13
30 30 30
11 11 11
75 75 75
5 5 5
2 2 2
0 0 0
0 0 0
2 2 2
2 2 2
1 1 1
2 2 2
2 2 2
3 3 3
1 1 1
2 2 2
78 78 78
80 80 80
88 88 88
87 87 87
87 87 87
84 84 84
84 84 84
80 80 80
87 87 87
87 87 87
87 87 87
81 81 81
82 82 82
86 86 86
87 87 87
89 89 89
125 125 125
97 97 97
131 131 131
101 101 101
87 87 87
88 88 88
87 87 87
88 88 88
88 88 88
89 89 89
109 109 109
194 194 194
185 185 185
112 112 112
92 92 92
72 72 72
16 16 16
10 10 10
8 8 8
42 42 42
9 9 9
52 52 52
24 24 24
2 2 2
0 0 0
0 0 0
2 2 2
3 3 3
2 2 2
1 1 1
3 3 3
0 0 0
2 2 2
81 81 81
84 84 84
87 87 87
112 112 112
195 195 195
163 163 163
174 174 174
87 87 87
89 89 89
87 87 87
87 87 87
84 84 84
85 85 85
85 85 85
86 86 86
85 85 85
104 104 104
94 94 94
139 139 139
139 139 139
96 96 96
86 86 86
88 88 88
90 90 90
88 88 88
88 88 88
89 89 89
98 98 98
180 180 180
196 196 196
142 142 142
102 102 102
84 84 84
34 34 34
9 9 9
5 5 5
35 35 35
8 8 8
34 34 34
15 15 15
3 3 3
0 0 0
0 0 0
2 2 2
2 2 2
2 2 2
3 3 3
1 1 1
17 17 17
88 88 88
87 87 87
107 107 107
92 92 92
110 110 110
228 228 228
111 111 111
213 213 213
88 88 88
94 94 94
85 85 85
82 82 82
84 84 84
84 84 84
86 86 86
86 86 86
98 98 98
95 95 95
119 119 119
173 173 173
117 117 117
90 90 90
87 87 87
88 88 88
88 88 88
88 88 88
88 88 88
89 89 89
94 94 94
158 158 158
199 199 199
151 151 151
105 105 105
90 90 90
50 50 50
8 8 8
6 6 6
14 14 14
9 9 9
22 22 22
13 13 13
17 17 17
0 0 0
0 0 0
1 1 1
1 1 1
3 3 3
3 3 3
5 5 5
90 90 90
110 110 110
228 228 228
152 152 152
121 121 121
98 98 98
102 102 102
92 92 92
86 86 86
85 85 85
117 117 117
84 84 84
86 86 86
86 86 86
86 86 86
87 87 87
87 87 87
111 111 111
94 94 94
130 130 130
85 85 85
85 85 85
88 88 88
87 87 87
90 90 90
89 89 89
88 88 88
89 89 89
89 89 89
92 92 92
135 135 135
199 199 199
170 170 170
123 123 123
98 98 98
63 63 63
15 15 15
5 5 5
6 6 6
12 12 12
16 16 16
15 15 15
18 18 18
0 0 0
0 0 0
0 0 0
2 2 2
2 2 2
0 0 0
81 81 81
91 91 91
222 222 222
151 151 151
91 91 91
28 28 28
46 46 46
72 72 72
84 84 84
85 85 85
86 86 86
87 87 87
86 86 86
86 86 86
68 68 68
88 88 88
87 87 87
88 88 88
110 110 110
139 139 139
84 84 84
85 85 85
85 85 85
88 88 88
88 88 88
88 88 88
89 89 89
88 88 88
87 87 87
89 89 89
110 110 110
191 191 191
196 196 196
188 188 188
144 144 144
122 122 122
77 77 77
20 20 20
13 13 13
13 13 13
9 9 9
13 13 13
16 16 16
14 14 14
0 0 0
0 0 0
0 0 0
0 0 0
1 1 1
6 6 6
85 85 85
157 157 157
151 151 151
59 59 59
4 4 4
17 17 17
57 57 57
85 85 85
85 85 85
81 81 81
48 48 48
80 80 80
87 87 87
77 77 77
18 18 18
11 11 11
91 91 91
90 90 90
86 86 86
90 90 90
86 86 86
88 88 88
86 86 86
86 86 86
88 88 88
86 86 86
89 89 89
118 118 118
167 167 167
180 180 180
147 147 147
143 143 143
192 192 192
186 186 186
161 161 161
166 166 166
75 75 75
13 13 13
20 20 20
14 14 14
8 8 8
11 11 11
20 20 20
12 12 12
0 0 0
0 0 0
0 0 0
0 0 0
0 0 0
11 11 11
88 88 88
223 223 223
135 135 135
48 48 48
4 4 4
12 12 12
57 57 57
81 81 81
83 83 83
82 82 82
30 30 30
62 62 62
88 88 88
86 86 86
29 29 29
0 0 0
84 84 84
91 91 91
88 88 88
91 91 91
87 87 87
87 87 87
86 86 86
85 85 85
86 86 86
86 86 86
97 97 97
94 94 94
91 91 91
95 95 95
137 137 137
176 176 176
192 192 192
176 176 176
120 120 120
108 108 108
59 59 59
11 11 11
21 21 21
17 17 17
7 7 7
9 9 9
23 23 23
13 13 13
0 0 0
0 0 0
0 0 0
0 0 0
1 1 1
4 4 4
90 90 90
234 234 234
144 144 144
67 67 67
3 3 3
15 15 15
68 68 68
87 87 87
87 87 87
83 83 83
50 50 50
55 55 55
87 87 87
87 87 87
42 42 42
0 0 0
88 88 88
91 91 91
85 85 85
107 107 107
86 86 86
84 84 84
84 84 84
84 84 84
87 87 87
88 88 88
88 88 88
88 88 88
89 89 89
88 88 88
93 93 93
150 150 150
199 199 199
144 144 144
101 101 101
90 90 90
57 57 57
13 13 13
20 20 20
13 13 13
9 9 9
11 11 11
26 26 26
14 14 14
0 0 0
0 0 0
0 0 0
0 0 0
0 0 0
0 0 0
81 81 81
150 150 150
188 188 188
85 85 85
12 12 12
5 5 5
31 31 31
76 76 76
87 87 87
81 81 81
71 71 71
75 75 75
86 86 86
87 87 87
89 89 89
72 72 72
87 87 87
88 88 88
127 127 127
108 108 108
123 123 123
87 87 87
86 86 86
87 87 87
89 89 89
88 88 88
88 88 88
88 88 88
88 88 88
89 89 89
90 90 90
132 132 132
199 199 199
124 124 124
96 96 96
86 86 86
39 39 39
10 10 10
22 22 22
24 24 24
8 8 8
8 8 8
27 27 27
12 12 12
0 0 0
0 0 0
0 0 0
0 0 0
0 0 0
0 0 0
49 49 49
63 63 63
247 247 247
167 167 167
103 103 103
76 76 76
61 61 61
40 40 40
62 62 62
68 68 68
83 83 83
92 92 92
90 90 90
86 86 86
85 85 85
82 82 82
67 67 67
86 86 86
120 120 120
98 98 98
108 108 108
147 147 147
157 157 157
145 145 145
92 92 92
86 86 86
87 87 87
87 87 87
88 88 88
89 89 89
92 92 92
157 157 157
191 191 191
110 110 110
92 92 92
79 79 79
21 21 21
10 10 10
23 23 23
20 20 20
9 9 9
8 8 8
27 27 27
12 12 12
0 0 0
0 0 0
2 2 2
2 2 2
1 1 1
5 5 5
6 6 6
116 116 116
57 57 57
198 198 198
189 189 189
195 195 195
197 197 197
118 118 118
217 217 217
162 162 162
102 102 102
90 90 90
88 88 88
87 87 87
83 83 83
83 83 83
84 84 84
87 87 87
86 86 86
115 115 115
110 110 110
117 117 117
121 121 121
113 113 113
90 90 90
87 87 87
87 87 87
86 86 86
87 87 87
88 88 88
105 105 105
197 197 197
142 142 142
95 95 95
87 87 87
42 42 42
15 15 15
13 13 13
18 18 18
23 23 23
8 8 8
9 9 9
27 27 27
12 12 12
0 0 0
0 0 0
3 3 3
2 2 2
2 2 2
2 2 2
3 3 3
2 2 2
30 30 30
78 78 78
86 86 86
124 124 124
155 155 155
234 234 234
175 175 175
235 235 235
95 95 95
81 81 81
85 85 85
87 87 87
87 87 87
87 87 87
79 79 79
87 87 87
88 88 88
88 88 88
93 93 93
106 106 106
106 106 106
146 146 146
88 88 88
86 86 86
86 86 86
86 86 86
87 87 87
91 91 91
168 168 168
179 179 179
97 97 97
89 89 89
84 84 84
27 27 27
4 4 4
18 18 18
18 18 18
19 19 19
8 8 8
7 7 7
25 25 25
13 13 13
0 0 0
0 0 0
3 3 3
1 1 1
4 4 4
2 2 2
6 6 6
0 0 0
0 0 0
42 42 42
77 77 77
85 85 85
88 88 88
96 96 96
82 82 82
164 164 164
73 73 73
84 84 84
81 81 81
85 85 85
85 85 85
84 84 84
77 77 77
82 82 82
86 86 86
89 89 89
85 85 85
90 90 90
98 98 98
138 138 138
96 96 96
85 85 85
85 85 85
87 87 87
89 89 89
122 122 122
198 198 198
126 126 126
87 87 87
85 85 85
49 49 49
28 28 28
22 22 22
9 9 9
20 20 20
10 10 10
8 8 8
8 8 8
22 22 22
14 14 14
0 0 0
0 0 0
1 1 1
3 3 3
2 2 2
3 3 3
3 3 3
1 1 1
0 0 0
0 0 0
65 65 65
75 75 75
75 75 75
80 80 80
82 82 82
94 94 94
87 87 87
74 74 74
80 80 80
89 89 89
82 82 82
89 89 89
85 85 85
86 86 86
123 123 123
83 83 83
87 87 87
81 81 81
89 89 89
133 133 133
140 140 140
121 121 121
100 100 100
103 103 103
128 128 128
192 192 192
171 171 171
94 94 94
84 84 84
59 59 59
31 31 31
18 18 18
14 14 14
14 14 14
12 12 12
15 15 15
9 9 9
10 10 10
19 19 19
14 14 14
0 0 0
0 0 0
1 1 1
2 2 2
1 1 1
3 3 3
0 0 0
1 1 1
0 0 0
1 1 1
0 0 0
55 55 55
80 80 80
77 77 77
82 82 82
86 86 86
88 88 88
91 91 91
164 164 164
114 114 114
136 136 136
80 80 80
86 86 86
85 85 85
84 84 84
84 84 84
88 88 88
90 90 90
96 96 96
170 170 170
201 201 201
206 206 206
187 187 187
184 184 184
194 194 194
184 184 184
104 104 104
84 84 84
63 63 63
19 19 19
22 22 22
9 9 9
23 23 23
17 17 17
17 17 17
20 20 20
9 9 9
11 11 11
16 16 16
13 13 13
0 0 0
0 0 0
0 0 0
2 2 2
2 2 2
3 3 3
1 1 1
2 2 2
0 0 0
2 2 2
1 1 1
0 0 0
0 0 0
58 58 58
78 78 78
81 81 81
89 89 89
89 89 89
88 88 88
88 88 88
107 107 107
165 165 165
150 150 150
121 121 121
82 82 82
85 85 85
19 19 19
134 134 134
175 175 175
120 120 120
140 140 140
183 183 183
167 167 167
147 147 147
120 120 120
89 89 89
77 77 77
16 16 16
7 7 7
6 6 6
15 15 15
12 12 12
26 26 26
18 18 18
17 17 17
21 21 21
9 9 9
16 16 16
14 14 14
13 13 13
0 0 0
0 0 0
1 1 1
3 3 3
2 2 2
2 2 2
0 0 0
2 2 2
1 1 1
1 1 1
1 1 1
2 2 2
1 1 1
1 1 1
59 59 59
77 77 77
81 81 81
89 89 89
89 89 89
89 89 89
89 89 89
86 86 86
85 85 85
86 86 86
85 85 85
88 88 88
140 140 140
111 111 111
90 90 90
92 92 92
41 41 41
178 178 178
120 120 120
92 92 92
82 82 82
44 44 44
3 3 3
3 3 3
3 3 3
12 12 12
9 9 9
17 17 17
20 20 20
15 15 15
11 11 11
27 27 27
10 10 10
21 21 21
13 13 13
18 18 18
0 0 0
0 0 0
2 2 2
2 2 2
3 3 3
1 1 1
1 1 1
2 2 2
1 1 1
0 0 0
1 1 1
2 2 2
3 3 3
3 3 3
1 1 1
37 37 37
77 77 77
77 77 77
79 79 79
82 82 82
80 80 80
83 83 83
84 84 84
87 87 87
85 85 85
85 85 85
88 88 88
110 110 110
178 178 178
141 141 141
154 154 154
103 103 103
86 86 86
64 64 64
8 8 8
1 1 1
4 4 4
3 3 3
11 11 11
14 14 14
19 19 19
8 8 8
7 7 7
9 9 9
14 14 14
47 47 47
10 10 10
30 30 30
12 12 12
28 28 28
0 0 0
0 0 0
2 2 2
2 2 2
2 2 2
0 0 0
1 1 1
2 2 2
1 1 1
2 2 2
1 1 1
2 2 2
2 2 2
3 3 3
2 2 2
2 2 2
1 1 1
22 22 22
64 64 64
69 69 69
59 59 59
57 57 57
79 79 79
81 81 81
86 86 86
87 87 87
87 87 87
83 83 83
81 81 81
53 53 53
50 50 50
15 15 15
3 3 3
1 1 1
10 10 10
4 4 4
3 3 3
2 2 2
5 5 5
8 8 8
11 11 11
18 18 18
17 17 17
9 9 9
33 33 33
45 45 45
10 10 10
49 49 49
13 13 13
2 2 2
0 0 0
0 0 0
2 2 2
2 2 2
2 2 2
1 1 1
1 1 1
2 2 2
2 2 2
1 1 1
2 2 2
1 1 1
3 3 3
2 2 2
2 2 2
2 2 2
2 2 2
1 1 1
2 2 2
3 3 3
1 1 1
1 1 1
2 2 2
28 28 28
80 80 80
84 84 84
22 22 22
2 2 2
34 34 34
69 69 69
4 4 4
2 2 2
2 2 2
0 0 0
1 1 1
1 1 1
4 4 4
3 3 3
4 4 4
11 11 11
14 14 14
19 19 19
21 21 21
25 25 25
26 26 26
16 16 16
10 10 10
69 69 69
23 23 23
2 2 2
0 0 0
0 0 0
2 2 2
2 2 2
0 0 0
1 1 1
1 1 1
1 1 1
1 1 1
2 2 2
2 2 2
2 2 2
1 1 1
1 1 1
2 2 2
2 2 2
2 2 2
3 3 3
3 3 3
2 2 2
3 3 3
2 2 2
2 2 2
1 1 1
3 3 3
65 65 65
72 72 72
42 42 42
7 7 7
14 14 14
84 84 84
72 72 72
17 17 17
2 2 2
2 2 2
3 3 3
2 2 2
2 2 2
2 2 2
9 9 9
14 14 14
17 17 17
16 16 16
13 13 13
42 42 42
8 8 8
10 10 10
81 81 81
8 8 8
2 2 2
0 0 0
0 0 0
2 2 2
2 2 2
1 1 1
1 1 1
1 1 1
1 1 1
1 1 1
2 2 2
2 2 2
1 1 1
2 2 2
2 2 2
2 2 2
2 2 2
2 2 2
3 3 3
3 3 3
2 2 2
2 2 2
2 2 2
2 2 2
1 1 1
1 1 1
1 1 1
26 26 26
14 14 14
3 3 3
26 26 26
92 92 92
26 26 26
2 2 2
3 3 3
5 5 5
5 5 5
5 5 5
12 12 12
6 6 6
11 11 11
3 3 3
6 6 6
15 15 15
7 7 7
49 49 49
10 10 10
13 13 13
75 75 75
2 2 2
2 2 2
0 0 0
0 0 0
2 2 2
2 2 2
2 2 2
1 1 1
1 1 1
2 2 2
1 1 1
1 1 1
1 1 1
2 2 2
1 1 1
1 1 1
1 1 1
3 3 3
3 3 3
5 5 5
3 3 3
3 3 3
2 2 2
2 2 2
1 1 1
2 2 2
3 3 3
2 2 2
2 2 2
2 2 2
3 3 3
3 3 3
2 2 2
1 1 1
4 4 4
5 5 5
4 4 4
3 3 3
5 5 5
12 12 12
13 13 13
10 10 10
22 22 22
15 15 15
15 15 15
14 14 14
24 24 24
10 10 10
16 16 16
11 11 11
2 2 2
2 2 2
0 0 0
0 0 0
2 2 2
2 2 2
2 2 2
2 2 2
1 1 1
1 1 1
1 1 1
1 1 1
2 2 2
2 2 2
2 2 2
1 1 1
3 3 3
4 4 4
3 3 3
3 3 3
4 4 4
2 2 2
3 3 3
2 2 2
2 2 2
2 2 2
2 2 2
2 2 2
2 2 2
4 4 4
4 4 4
2 2 2
3 3 3
4 4 4
3 3 3
4 4 4
4 4 4
4 4 4
3 3 3
6 6 6
15 15 15
8 8 8
21 21 21
25 25 25
16 16 16
18 18 18
10 10 10
13 13 13
31 31 31
2 2 2
2 2 2
2 2 2
0 0 0
0 0 0
2 2 2
2 2 2
2 2 2
2 2 2
2 2 2
1 1 1
1 1 1
1 1 1
2 2 2
2 2 2
2 2 2
3 3 3
3 3 3
3 3 3
3 3 3
4 4 4
6 6 6
6 6 6
20 20 20
2 2 2
5 5 5
4 4 4
4 4 4
2 2 2
3 3 3
4 4 4
4 4 4
3 3 3
3 3 3
3 3 3
4 4 4
5 5 5
4 4 4
5 5 5
4 4 4
6 6 6
17 17 17
21 21 21
22 22 22
35 35 35
11 11 11
41 41 41
11 11 11
16 16 16
2 2 2
2 2 2
2 2 2
2 2 2
0 0 0
0 0 0
2 2 2
2 2 2
2 2 2
2 2 2
2 2 2
1 1 1
2 2 2
1 1 1
1 1 1
1 1 1
1 1 1
2 2 2
3 3 3
3 3 3
3 3 3
3 3 3
3 3 3
8 8 8
14 14 14
7 7 7
4 4 4
4 4 4
4 4 4
4 4 4
5 5 5
4 4 4
4 4 4
3 3 3
3 3 3
3 3 3
4 4 4
4 4 4
3 3 3
4 4 4
6 6 6
16 16 16
16 16 16
20 20 20
27 27 27
23 23 23
13 13 13
29 29 29
13 13 13
5 5 5
2 2 2
2 2 2
2 2 2
2 2 2
0 0 0
0 0 0
2 2 2
2 2 2
2 2 2
2 2 2
2 2 2
2 2 2
1 1 1
1 1 1
1 1 1
1 1 1
2 2 2
2 2 2
3 3 3
2 2 2
3 3 3
2 2 2
2 2 2
2 2 2
1 1 1
15 15 15
5 5 5
4 4 4
4 4 4
4 4 4
5 5 5
4 4 4
3 3 3
3 3 3
3 3 3
3 3 3
4 4 4
4 4 4
3 3 3
5 5 5
18 18 18
29 29 29
11 11 11
23 23 23
20 20 20
6 6 6
17 17 17
13 13 13
9 9 9
2 2 2
2 2 2
2 2 2
2 2 2
2 2 2
0 0 0
0 0 0
2 2 2
2 2 2
2 2 2
2 2 2
2 2 2
2 2 2
2 2 2
1 1 1
1 1 1
1 1 1
1 1 1
1 1 1
2 2 2
2 2 2
2 2 2
1 1 1
2 2 2
2 2 2
2 2 2
5 5 5
9 9 9
4 4 4
4 4 4
4 4 4
4 4 4
3 3 3
3 3 3
3 3 3
3 3 3
3 3 3
4 4 4
4 4 4
6 6 6
21 21 21
15 15 15
14 14 14
24 24 24
13 13 13
10 10 10
15 15 15
43 43 43
16 16 16
2 2 2
2 2 2
2 2 2
2 2 2
2 2 2
2 2 2
0 0 0
0 0 0
2 2 2
2 2 2
2 2 2
2 2 2
2 2 2
2 2 2
2 2 2
2 2 2
1 1 1
1 1 1
2 2 2
2 2 2
2 2 2
2 2 2
1 1 1
1 1 1
2 2 2
1 1 1
2 2 2
1 1 1
3 3 3
14 14 14
5 5 5
4 4 4
3 3 3
3 3 3
3 3 3
3 3 3
4 4 4
11 11 11
8 8 8
15 15 15
23 23 23
5 5 5
8 8 8
22 22 22
24 24 24
12 12 12
7 7 7
19 19 19
10 10 10
2 2 2
2 2 2
2 2 2
2 2 2
2 2 2
2 2 2
2 2 2
0 0 0
0 0 0
2 2 2
2 2 2
2 2 2
2 2 2
2 2 2
2 2 2
2 2 2
2 2 2
2 2 2
1 1 1
1 1 1
1 1 1
2 2 2
1 1 1
1 1 1
1 1 1
2 2 2
2 2 2
2 2 2
2 2 2
1 1 1
1 1 1
13 13 13
2 2 2
9 9 9
10 10 10
10 10 10
10 10 10
12 12 12
17 17 17
18 18 18
8 8 8
8 8 8
7 7 7
16 16 16
28 28 28
11 11 11
15 15 15
15 15 15
5 5 5
2 2 2
2 2 2
2 2 2
2 2 2
2 2 2
2 2 2
2 2 2
2 2 2
0 0 0
0 0 0
2 2 2
2 2 2
2 2 2
2 2 2
2 2 2
2 2 2
2 2 2
2 2 2
2 2 2
2 2 2
1 1 1
1 1 1
1 1 1
0 0 0
1 1 1
1 1 1
1 1 1
2 2 2
2 2 2
2 2 2
2 2 2
2 2 2
0 0 0
5 5 5
14 14 14
2 2 2
9 9 9
6 6 6
10 10 10
9 9 9
10 10 10
14 14 14
16 16 16
24 24 24
19 19 19
23 23 23
17 17 17
20 20 20
2 2 2
2 2 2
2 2 2
2 2 2
2 2 2
2 2 2
2 2 2
2 2 2
2 2 2
2 2 2
0 0 0
0 0 0
2 2 2
2 2 2
2 2 2
2 2 2
2 2 2
2 2 2
2 2 2
2 2 2
2 2 2
2 2 2
2 2 2
2 2 2
1 1 1
2 2 2
1 1 1
1 1 1
2 2 2
2 2 2
2 2 2
2 2 2
2 2 2
2 2 2
2 2 2
1 1 1
18 18 18
10 10 10
10 10 10
2 2 2
5 5 5
8 8 8
14 14 14
13 13 13
18 18 18
16 16 16
17 17 17
16 16 16
4 4 4
2 2 2
2 2 2
2 2 2
2 2 2
2 2 2
2 2 2
2 2 2
2 2 2
2 2 2
2 2 2
2 2 2
0 0 0
0 0 0
2 2 2
2 2 2
2 2 2
2 2 2
2 2 2
2 2 2
2 2 2
2 2 2
2 2 2
2 2 2
2 2 2
2 2 2
2 2 2
2 2 2
1 1 1
1 1 1
1 1 1
1 1 1
1 1 1
2 2 2
1 1 1
2 2 2
2 2 2
2 2 2
3 3 3
12 12 12
5 5 5
3 3 3
6 6 6
12 12 12
8 8 8
14 14 14
19 19 19
20 20 20
4 4 4
2 2 2
2 2 2
2 2 2
2 2 2
2 2 2
2 2 2
2 2 2
2 2 2
2 2 2
2 2 2
2 2 2
2 2 2
2 2 2
0 0 0
0 0 0
2 2 2
2 2 2
2 2 2
2 2 2
2 2 2
2 2 2
2 2 2
2 2 2
2 2 2
2 2 2
2 2 2
2 2 2
2 2 2
2 2 2
2 2 2
2 2 2
2 2 2
2 2 2
2 2 2
2 2 2
2 2 2
1 1 1
2 2 2
2 2 2
7 7 7
9 9 9
3 3 3
13 13 13
5 5 5
9 9 9
9 9 9
12 12 12
2 2 2
2 2 2
2 2 2
2 2 2
2 2 2
2 2 2
2 2 2
2 2 2
2 2 2
2 2 2
2 2 2
2 2 2
2 2 2
2 2 2
2 2 2
2 2 2
0 0 0
0 0 0
0 0 0
0 0 0
0 0 0
0 0 0
0 0 0
0 0 0
0 0 0
0 0 0
0 0 0
0 0 0
0 0 0
0 0 0
0 0 0
0 0 0
0 0 0
0 0 0
0 0 0
0 0 0
0 0 0
0 0 0
0 0 0
0 0 0
0 0 0
0 0 0
0 0 0
0 0 0
0 0 0
0 0 0
0 0 0
0 0 0
0 0 0
0 0 0
0 0 0
0 0 0
0 0 0
0 0 0
0 0 0
0 0 0
0 0 0
0 0 0
0 0 0
0 0 0
0 0 0
0 0 0
0 0 0
0 0 0
0 0 0
0 0 0
0 0 0
