P3 
50 50 
255
0 0 0
0 0 0
0 0 0
0 0 0
0 0 0
0 0 0
0 0 0
0 0 0
0 0 0
0 0 0
0 0 0
0 0 0
0 0 0
0 0 0
0 0 0
0 0 0
0 0 0
0 0 0
0 0 0
0 0 0
0 0 0
0 0 0
0 0 0
0 0 0
0 0 0
0 0 0
0 0 0
0 0 0
0 0 0
0 0 0
0 0 0
0 0 0
0 0 0
0 0 0
0 0 0
0 0 0
0 0 0
0 0 0
0 0 0
0 0 0
0 0 0
0 0 0
0 0 0
0 0 0
0 0 0
0 0 0
0 0 0
0 0 0
0 0 0
0 0 0
0 0 0
2 2 2
2 2 2
2 2 2
2 2 2
2 2 2
2 2 2
2 2 2
2 2 2
2 2 2
2 2 2
2 2 2
2 2 2
2 2 2
2 2 2
2 2 2
2 2 2
2 2 2
1 1 1
2 2 2
2 2 2
11 11 11
3 3 3
4 4 4
4 4 4
4 4 4
5 5 5
6 6 6
6 6 6
5 5 5
11 11 11
12 12 12
4 4 4
2 2 2
2 2 2
2 2 2
2 2 2
2 2 2
2 2 2
2 2 2
2 2 2
2 2 2
2 2 2
2 2 2
2 2 2
2 2 2
2 2 2
2 2 2
2 2 2
0 0 0
0 0 0
2 2 2
2 2 2
2 2 2
2 2 2
2 2 2
2 2 2
2 2 2
2 2 2
2 2 2
2 2 2
2 2 2
2 2 2
2 2 2
2 2 2
1 1 1
1 1 1
2 2 2
2 2 2
2 2 2
10 10 10
4 4 4
4 4 4
4 4 4
4 4 4
5 5 5
4 4 4
6 6 6
2 2 2
7 7 7
8 8 8
11 11 11
10 10 10
12 12 12
11 11 11
2 2 2
2 2 2
2 2 2
2 2 2
2 2 2
2 2 2
2 2 2
2 2 2
2 2 2
2 2 2
2 2 2
2 2 2
2 2 2
2 2 2
0 0 0
0 0 0
2 2 2
2 2 2
2 2 2
2 2 2
2 2 2
2 2 2
2 2 2
2 2 2
2 2 2
2 2 2
2 2 2
2 2 2
1 1 1
1 1 1
1 1 1
2 2 2
2 2 2
3 3 3
11 11 11
3 3 3
4 4 4
3 3 3
4 4 4
4 4 4
4 4 4
4 4 4
5 5 5
4 4 4
11 11 11
16 16 16
13 13 13
7 7 7
13 13 13
12 12 12
12 12 12
13 13 13
2 2 2
2 2 2
2 2 2
2 2 2
2 2 2
2 2 2
2 2 2
2 2 2
2 2 2
2 2 2
2 2 2
2 2 2
0 0 0
0 0 0
2 2 2
2 2 2
2 2 2
2 2 2
2 2 2
2 2 2
2 2 2
2 2 2
2 2 2
2 2 2
1 1 1
1 1 1
0 0 0
1 1 1
2 2 2
2 2 2
4 4 4
8 8 8
4 4 4
3 3 3
4 4 4
4 4 4
4 4 4
4 4 4
4 4 4
5 5 5
7 7 7
12 12 12
10 10 10
4 4 4
11 11 11
12 12 12
11 11 11
11 11 11
16 16 16
14 14 14
16 16 16
9 9 9
2 2 2
2 2 2
2 2 2
2 2 2
2 2 2
2 2 2
2 2 2
2 2 2
2 2 2
2 2 2
0 0 0
0 0 0
2 2 2
2 2 2
2 2 2
2 2 2
2 2 2
2 2 2
2 2 2
2 2 2
2 2 2
0 0 0
1 1 1
1 1 1
2 2 2
2 2 2
2 2 2
13 13 13
4 4 4
3 3 3
4 4 4
4 4 4
4 4 4
4 4 4
4 4 4
4 4 4
7 7 7
12 12 12
5 5 5
6 6 6
8 8 8
9 9 9
11 11 11
12 12 12
10 10 10
6 6 6
5 5 5
4 4 4
7 7 7
9 9 9
10 10 10
2 2 2
2 2 2
2 2 2
2 2 2
2 2 2
2 2 2
2 2 2
2 2 2
2 2 2
0 0 0
0 0 0
2 2 2
2 2 2
2 2 2
2 2 2
2 2 2
2 2 2
2 2 2
2 2 2
1 1 1
1 1 1
1 1 1
2 2 2
2 2 2
2 2 2
15 15 15
4 4 4
4 4 4
4 4 4
4 4 4
5 5 5
5 5 5
3 3 3
7 7 7
9 9 9
8 8 8
11 11 11
18 18 18
34 34 34
70 70 70
83 83 83
86 86 86
85 85 85
83 83 83
78 78 78
45 45 45
8 8 8
4 4 4
10 10 10
18 18 18
16 16 16
5 5 5
2 2 2
2 2 2
2 2 2
2 2 2
2 2 2
2 2 2
2 2 2
0 0 0
0 0 0
2 2 2
2 2 2
2 2 2
2 2 2
2 2 2
2 2 2
2 2 2
1 1 1
1 1 1
1 1 1
2 2 2
3 3 3
2 2 2
8 8 8
4 4 4
4 4 4
4 4 4
4 4 4
5 5 5
5 5 5
3 3 3
9 9 9
6 6 6
18 18 18
45 45 45
79 79 79
88 88 88
94 94 94
110 110 110
154 154 154
169 169 169
157 157 157
139 139 139
112 112 112
89 89 89
86 86 86
67 67 67
5 5 5
8 8 8
6 6 6
18 18 18
9 9 9
2 2 2
2 2 2
2 2 2
2 2 2
2 2 2
2 2 2
0 0 0
0 0 0
2 2 2
2 2 2
2 2 2
2 2 2
2 2 2
2 2 2
2 2 2
1 1 1
1 1 1
2 2 2
2 2 2
1 1 1
5 5 5
4 4 4
4 4 4
4 4 4
5 5 5
5 5 5
5 5 5
4 4 4
25 25 25
53 53 53
82 82 82
93 93 93
125 125 125
162 162 162
164 164 164
165 165 165
172 172 172
168 168 168
163 163 163
155 155 155
156 156 156
144 144 144
163 163 163
171 171 171
102 102 102
86 86 86
78 78 78
12 12 12
10 10 10
48 48 48
4 4 4
2 2 2
2 2 2
2 2 2
2 2 2
2 2 2
0 0 0
0 0 0
2 2 2
2 2 2
2 2 2
2 2 2
2 2 2
1 1 1
1 1 1
1 1 1
1 1 1
1 1 1
1 1 1
1 1 1
7 7 7
4 4 4
4 4 4
4 4 4
8 8 8
16 16 16
65 65 65
97 97 97
143 143 143
181 181 181
169 169 169
163 163 163
155 155 155
160 160 160
160 160 160
157 157 157
133 133 133
134 134 134
146 146 146
155 155 155
153 153 153
154 154 154
149 149 149
147 147 147
164 164 164
173 173 173
89 89 89
87 87 87
14 14 14
16 16 16
16 16 16
2 2 2
2 2 2
2 2 2
2 2 2
2 2 2
0 0 0
0 0 0
2 2 2
2 2 2
2 2 2
2 2 2
1 1 1
1 1 1
1 1 1
1 1 1
1 1 1
1 1 1
1 1 1
11 11 11
3 3 3
4 4 4
2 2 2
55 55 55
89 89 89
171 171 171
167 167 167
160 160 160
166 166 166
121 121 121
88 88 88
87 87 87
87 87 87
87 87 87
88 88 88
87 87 87
87 87 87
87 87 87
87 87 87
87 87 87
87 87 87
92 92 92
122 122 122
157 157 157
147 147 147
145 145 145
181 181 181
94 94 94
79 79 79
8 8 8
40 40 40
20 20 20
2 2 2
2 2 2
2 2 2
2 2 2
0 0 0
0 0 0
2 2 2
2 2 2
2 2 2
2 2 2
1 1 1
1 1 1
1 1 1
1 1 1
1 1 1
0 0 0
12 12 12
1 1 1
2 2 2
1 1 1
69 69 69
161 161 161
176 176 176
168 168 168
164 164 164
110 110 110
90 90 90
87 87 87
87 87 87
87 87 87
88 88 88
87 87 87
87 87 87
87 87 87
87 87 87
88 88 88
87 87 87
87 87 87
87 87 87
87 87 87
86 86 86
96 96 96
156 156 156
152 152 152
137 137 137
180 180 180
89 89 89
32 32 32
37 37 37
15 15 15
20 20 20
2 2 2
2 2 2
2 2 2
0 0 0
0 0 0
2 2 2
2 2 2
2 2 2
1 1 1
1 1 1
0 0 0
0 0 0
0 0 0
0 0 0
0 0 0
9 9 9
4 4 4
2 2 2
47 47 47
171 171 171
167 167 167
161 161 161
89 89 89
89 89 89
87 87 87
87 87 87
87 87 87
87 87 87
87 87 87
87 87 87
87 87 87
87 87 87
88 88 88
87 87 87
87 87 87
87 87 87
87 87 87
88 88 88
87 87 87
88 88 88
87 87 87
92 92 92
154 154 154
150 150 150
147 147 147
186 186 186
82 82 82
21 21 21
14 14 14
18 18 18
7 7 7
2 2 2
2 2 2
0 0 0
0 0 0
2 2 2
2 2 2
1 1 1
0 0 0
0 0 0
0 0 0
0 0 0
1 1 1
1 1 1
8 8 8
5 5 5
4 4 4
20 20 20
124 124 124
166 166 166
134 134 134
87 87 87
87 87 87
87 87 87
87 87 87
87 87 87
87 87 87
87 87 87
87 87 87
87 87 87
88 88 88
87 87 87
87 87 87
87 87 87
87 87 87
88 88 88
87 87 87
87 87 87
88 88 88
87 87 87
87 87 87
87 87 87
89 89 89
147 147 147
160 160 160
165 165 165
117 117 117
78 78 78
31 31 31
16 16 16
84 84 84
2 2 2
2 2 2
0 0 0
0 0 0
2 2 2
2 2 2
0 0 0
0 0 0
1 1 1
0 0 0
1 1 1
1 1 1
0 0 0
18 18 18
5 5 5
5 5 5
81 81 81
166 166 166
125 125 125
90 90 90
87 87 87
86 86 86
87 87 87
87 87 87
87 87 87
87 87 87
87 87 87
87 87 87
87 87 87
88 88 88
87 87 87
87 87 87
87 87 87
87 87 87
87 87 87
88 88 88
88 88 88
87 87 87
88 88 88
88 88 88
88 88 88
88 88 88
88 88 88
167 167 167
155 155 155
181 181 181
87 87 87
48 48 48
14 14 14
83 83 83
5 5 5
2 2 2
0 0 0
0 0 0
2 2 2
1 1 1
1 1 1
1 1 1
1 1 1
1 1 1
1 1 1
1 1 1
0 0 0
8 8 8
3 3 3
74 74 74
176 176 176
124 124 124
87 87 87
87 87 87
87 87 87
87 87 87
87 87 87
87 87 87
87 87 87
87 87 87
87 87 87
87 87 87
86 86 86
87 87 87
87 87 87
87 87 87
87 87 87
87 87 87
87 87 87
88 88 88
87 87 87
88 88 88
87 87 87
87 87 87
88 88 88
87 87 87
88 88 88
115 115 115
165 165 165
187 187 187
87 87 87
45 45 45
12 12 12
65 65 65
25 25 25
2 2 2
0 0 0
0 0 0
2 2 2
1 1 1
1 1 1
0 0 0
0 0 0
0 0 0
1 1 1
1 1 1
0 0 0
5 5 5
4 4 4
79 79 79
181 181 181
88 88 88
86 86 86
87 87 87
87 87 87
87 87 87
87 87 87
87 87 87
87 87 87
87 87 87
87 87 87
87 87 87
87 87 87
87 87 87
88 88 88
86 86 86
87 87 87
87 87 87
87 87 87
87 87 87
87 87 87
87 87 87
87 87 87
88 88 88
88 88 88
88 88 88
88 88 88
88 88 88
167 167 167
183 183 183
91 91 91
36 36 36
12 12 12
47 47 47
15 15 15
3 3 3
0 0 0
0 0 0
2 2 2
1 1 1
1 1 1
1 1 1
1 1 1
1 1 1
1 1 1
2 2 2
1 1 1
4 4 4
23 23 23
97 97 97
180 180 180
86 86 86
86 86 86
86 86 86
87 87 87
86 86 86
87 87 87
87 87 87
87 87 87
87 87 87
87 87 87
86 86 86
87 87 87
87 87 87
87 87 87
87 87 87
87 87 87
87 87 87
87 87 87
87 87 87
88 88 88
87 87 87
87 87 87
87 87 87
87 87 87
88 88 88
87 87 87
88 88 88
168 168 168
180 180 180
92 92 92
36 36 36
13 13 13
33 33 33
14 14 14
19 19 19
0 0 0
0 0 0
1 1 1
1 1 1
1 1 1
1 1 1
1 1 1
1 1 1
2 2 2
1 1 1
1 1 1
5 5 5
42 42 42
136 136 136
174 174 174
85 85 85
86 86 86
87 87 87
86 86 86
87 87 87
87 87 87
87 87 87
87 87 87
87 87 87
87 87 87
87 87 87
87 87 87
87 87 87
87 87 87
87 87 87
87 87 87
87 87 87
87 87 87
87 87 87
87 87 87
87 87 87
88 88 88
87 87 87
87 87 87
88 88 88
87 87 87
88 88 88
169 169 169
175 175 175
92 92 92
44 44 44
17 17 17
24 24 24
14 14 14
20 20 20
0 0 0
0 0 0
1 1 1
1 1 1
2 2 2
1 1 1
2 2 2
1 1 1
1 1 1
1 1 1
1 1 1
7 7 7
52 52 52
165 165 165
173 173 173
86 86 86
86 86 86
86 86 86
87 87 87
87 87 87
86 86 86
87 87 87
87 87 87
87 87 87
87 87 87
87 87 87
87 87 87
87 87 87
87 87 87
87 87 87
87 87 87
87 87 87
87 87 87
87 87 87
87 87 87
87 87 87
87 87 87
87 87 87
87 87 87
88 88 88
88 88 88
89 89 89
146 146 146
170 170 170
92 92 92
54 54 54
30 30 30
18 18 18
14 14 14
15 15 15
0 0 0
0 0 0
2 2 2
2 2 2
1 1 1
1 1 1
2 2 2
1 1 1
0 0 0
1 1 1
1 1 1
4 4 4
54 54 54
179 179 179
177 177 177
88 88 88
86 86 86
86 86 86
86 86 86
87 87 87
87 87 87
87 87 87
86 86 86
86 86 86
86 86 86
87 87 87
87 87 87
87 87 87
87 87 87
87 87 87
87 87 87
87 87 87
87 87 87
87 87 87
87 87 87
87 87 87
87 87 87
87 87 87
87 87 87
88 88 88
88 88 88
88 88 88
148 148 148
164 164 164
98 98 98
47 47 47
50 50 50
16 16 16
17 17 17
14 14 14
0 0 0
0 0 0
2 2 2
2 2 2
2 2 2
1 1 1
1 1 1
2 2 2
2 2 2
1 1 1
1 1 1
5 5 5
58 58 58
173 173 173
159 159 159
87 87 87
87 87 87
86 86 86
87 87 87
87 87 87
87 87 87
86 86 86
87 87 87
87 87 87
87 87 87
86 86 86
87 87 87
87 87 87
87 87 87
87 87 87
87 87 87
87 87 87
87 87 87
87 87 87
87 87 87
87 87 87
88 88 88
88 88 88
88 88 88
88 88 88
88 88 88
88 88 88
115 115 115
166 166 166
105 105 105
43 43 43
53 53 53
14 14 14
18 18 18
15 15 15
0 0 0
0 0 0
1 1 1
1 1 1
1 1 1
1 1 1
1 1 1
2 2 2
2 2 2
2 2 2
1 1 1
7 7 7
47 47 47
172 172 172
173 173 173
89 89 89
87 87 87
87 87 87
87 87 87
87 87 87
87 87 87
87 87 87
87 87 87
87 87 87
87 87 87
87 87 87
87 87 87
87 87 87
87 87 87
87 87 87
87 87 87
87 87 87
87 87 87
87 87 87
87 87 87
87 87 87
88 88 88
88 88 88
88 88 88
87 87 87
87 87 87
87 87 87
125 125 125
163 163 163
102 102 102
38 38 38
43 43 43
13 13 13
19 19 19
15 15 15
0 0 0
0 0 0
1 1 1
1 1 1
1 1 1
1 1 1
1 1 1
1 1 1
2 2 2
2 2 2
1 1 1
12 12 12
32 32 32
144 144 144
162 162 162
88 88 88
87 87 87
87 87 87
87 87 87
87 87 87
88 88 88
87 87 87
88 88 88
87 87 87
87 87 87
87 87 87
87 87 87
87 87 87
87 87 87
87 87 87
87 87 87
88 88 88
87 87 87
87 87 87
87 87 87
88 88 88
88 88 88
87 87 87
88 88 88
88 88 88
88 88 88
86 86 86
153 153 153
165 165 165
96 96 96
35 35 35
44 44 44
13 13 13
20 20 20
14 14 14
0 0 0
0 0 0
1 1 1
1 1 1
1 1 1
1 1 1
1 1 1
1 1 1
1 1 1
2 2 2
1 1 1
17 17 17
16 16 16
94 94 94
168 168 168
94 94 94
87 87 87
87 87 87
87 87 87
87 87 87
88 88 88
87 87 87
87 87 87
87 87 87
87 87 87
87 87 87
87 87 87
87 87 87
87 87 87
87 87 87
88 88 88
87 87 87
87 87 87
87 87 87
88 88 88
87 87 87
88 88 88
87 87 87
88 88 88
87 87 87
88 88 88
89 89 89
170 170 170
170 170 170
90 90 90
42 42 42
44 44 44
16 16 16
20 20 20
13 13 13
0 0 0
0 0 0
1 1 1
1 1 1
1 1 1
0 0 0
1 1 1
1 1 1
1 1 1
1 1 1
2 2 2
12 12 12
0 0 0
70 70 70
189 189 189
131 131 131
87 87 87
87 87 87
87 87 87
88 88 88
87 87 87
87 87 87
88 88 88
87 87 87
87 87 87
87 87 87
87 87 87
87 87 87
87 87 87
88 88 88
87 87 87
88 88 88
87 87 87
87 87 87
87 87 87
88 88 88
87 87 87
87 87 87
88 88 88
87 87 87
87 87 87
146 146 146
157 157 157
186 186 186
71 71 71
44 44 44
41 41 41
15 15 15
20 20 20
12 12 12
0 0 0
0 0 0
1 1 1
1 1 1
1 1 1
1 1 1
0 0 0
0 0 0
1 1 1
1 1 1
1 1 1
4 4 4
6 6 6
11 11 11
121 121 121
170 170 170
91 91 91
87 87 87
87 87 87
87 87 87
87 87 87
87 87 87
88 88 88
88 88 88
87 87 87
88 88 88
87 87 87
88 88 88
88 88 88
88 88 88
88 88 88
88 88 88
88 88 88
87 87 87
88 88 88
87 87 87
87 87 87
87 87 87
88 88 88
87 87 87
98 98 98
162 162 162
160 160 160
121 121 121
49 49 49
31 31 31
46 46 46
14 14 14
19 19 19
14 14 14
0 0 0
0 0 0
1 1 1
1 1 1
0 0 0
1 1 1
0 0 0
0 0 0
0 0 0
0 0 0
1 1 1
1 1 1
8 8 8
4 4 4
56 56 56
190 190 190
148 148 148
94 94 94
87 87 87
88 88 88
87 87 87
87 87 87
88 88 88
88 88 88
87 87 87
88 88 88
88 88 88
87 87 87
88 88 88
87 87 87
88 88 88
88 88 88
87 87 87
87 87 87
88 88 88
88 88 88
87 87 87
87 87 87
87 87 87
91 91 91
168 168 168
152 152 152
190 190 190
83 83 83
36 36 36
34 34 34
50 50 50
14 14 14
18 18 18
14 14 14
0 0 0
0 0 0
1 1 1
1 1 1
1 1 1
1 1 1
1 1 1
1 1 1
0 0 0
0 0 0
1 1 1
0 0 0
19 19 19
5 5 5
3 3 3
83 83 83
177 177 177
149 149 149
94 94 94
88 88 88
87 87 87
88 88 88
87 87 87
87 87 87
88 88 88
87 87 87
88 88 88
87 87 87
87 87 87
87 87 87
87 87 87
87 87 87
87 87 87
87 87 87
87 87 87
88 88 88
88 88 88
87 87 87
90 90 90
155 155 155
162 162 162
182 182 182
96 96 96
56 56 56
26 26 26
23 23 23
31 31 31
14 14 14
16 16 16
13 13 13
0 0 0
0 0 0
1 1 1
1 1 1
1 1 1
1 1 1
1 1 1
1 1 1
1 1 1
0 0 0
0 0 0
0 0 0
9 9 9
7 7 7
4 4 4
8 8 8
123 123 123
187 187 187
170 170 170
148 148 148
105 105 105
91 91 91
88 88 88
88 88 88
88 88 88
87 87 87
87 87 87
87 87 87
87 87 87
87 87 87
88 88 88
87 87 87
88 88 88
88 88 88
88 88 88
86 86 86
87 87 87
87 87 87
153 153 153
156 156 156
159 159 159
118 118 118
83 83 83
26 26 26
22 22 22
14 14 14
15 15 15
16 16 16
14 14 14
14 14 14
0 0 0
0 0 0
1 1 1
1 1 1
1 1 1
1 1 1
1 1 1
1 1 1
0 0 0
0 0 0
0 0 0
0 0 0
0 0 0
24 24 24
8 8 8
3 3 3
4 4 4
67 67 67
175 175 175
174 174 174
163 163 163
163 163 163
149 149 149
104 104 104
87 87 87
87 87 87
87 87 87
88 88 88
87 87 87
87 87 87
88 88 88
88 88 88
87 87 87
87 87 87
86 86 86
88 88 88
93 93 93
166 166 166
157 157 157
167 167 167
129 129 129
77 77 77
11 11 11
18 18 18
11 11 11
24 24 24
9 9 9
21 21 21
11 11 11
14 14 14
0 0 0
0 0 0
1 1 1
2 2 2
1 1 1
2 2 2
1 1 1
2 2 2
1 1 1
2 2 2
1 1 1
1 1 1
0 0 0
2 2 2
8 8 8
4 4 4
2 2 2
0 0 0
7 7 7
64 64 64
122 122 122
181 181 181
182 182 182
161 161 161
146 146 146
139 139 139
143 143 143
155 155 155
162 162 162
140 140 140
114 114 114
108 108 108
108 108 108
118 118 118
122 122 122
140 140 140
164 164 164
164 164 164
184 184 184
107 107 107
76 76 76
6 6 6
8 8 8
25 25 25
18 18 18
38 38 38
9 9 9
29 29 29
12 12 12
19 19 19
0 0 0
0 0 0
2 2 2
2 2 2
1 1 1
1 1 1
1 1 1
2 2 2
2 2 2
1 1 1
2 2 2
1 1 1
1 1 1
1 1 1
7 7 7
7 7 7
5 5 5
4 4 4
3 3 3
1 1 1
0 0 0
33 33 33
83 83 83
120 120 120
155 155 155
177 177 177
173 173 173
172 172 172
165 165 165
180 180 180
178 178 178
177 177 177
161 161 161
168 168 168
172 172 172
165 165 165
188 188 188
139 139 139
81 81 81
35 35 35
23 23 23
13 13 13
13 13 13
19 19 19
12 12 12
42 42 42
8 8 8
43 43 43
13 13 13
28 28 28
0 0 0
0 0 0
2 2 2
1 1 1
2 2 2
2 2 2
2 2 2
2 2 2
1 1 1
2 2 2
1 1 1
1 1 1
2 2 2
3 3 3
1 1 1
14 14 14
5 5 5
5 5 5
5 5 5
5 5 5
4 4 4
3 3 3
3 3 3
3 3 3
8 8 8
25 25 25
58 58 58
85 85 85
107 107 107
125 125 125
153 153 153
175 175 175
187 187 187
183 183 183
138 138 138
94 94 94
65 65 65
30 30 30
8 8 8
8 8 8
25 25 25
18 18 18
21 21 21
25 25 25
15 15 15
27 27 27
9 9 9
62 62 62
13 13 13
2 2 2
0 0 0
0 0 0
2 2 2
1 1 1
1 1 1
1 1 1
2 2 2
1 1 1
2 2 2
1 1 1
1 1 1
2 2 2
2 2 2
2 2 2
2 2 2
1 1 1
18 18 18
5 5 5
5 5 5
5 5 5
5 5 5
5 5 5
5 5 5
3 3 3
3 3 3
3 3 3
3 3 3
4 4 4
11 11 11
7 7 7
9 9 9
25 25 25
34 34 34
27 27 27
12 12 12
6 6 6
4 4 4
16 16 16
23 23 23
10 10 10
23 23 23
18 18 18
23 23 23
23 23 23
25 25 25
12 12 12
9 9 9
78 78 78
22 22 22
2 2 2
0 0 0
0 0 0
2 2 2
2 2 2
1 1 1
2 2 2
1 1 1
1 1 1
2 2 2
2 2 2
1 1 1
1 1 1
2 2 2
1 1 1
2 2 2
2 2 2
1 1 1
16 16 16
5 5 5
4 4 4
5 5 5
4 4 4
5 5 5
5 5 5
3 3 3
4 4 4
4 4 4
5 5 5
5 5 5
4 4 4
3 3 3
4 4 4
2 2 2
3 3 3
4 4 4
5 5 5
10 10 10
12 12 12
11 11 11
29 29 29
24 24 24
26 26 26
12 12 12
9 9 9
29 29 29
7 7 7
10 10 10
74 74 74
8 8 8
2 2 2
0 0 0
0 0 0
2 2 2
2 2 2
1 1 1
2 2 2
1 1 1
1 1 1
1 1 1
1 1 1
1 1 1
2 2 2
2 2 2
1 1 1
2 2 2
2 2 2
2 2 2
2 2 2
15 15 15
4 4 4
4 4 4
4 4 4
4 4 4
4 4 4
6 6 6
5 5 5
5 5 5
4 4 4
5 5 5
5 5 5
3 3 3
3 3 3
4 4 4
5 5 5
4 4 4
4 4 4
5 5 5
5 5 5
4 4 4
18 18 18
32 32 32
29 29 29
22 22 22
12 12 12
40 40 40
6 6 6
14 14 14
61 61 61
2 2 2
2 2 2
0 0 0
0 0 0
2 2 2
2 2 2
2 2 2
2 2 2
2 2 2
2 2 2
1 1 1
2 2 2
1 1 1
1 1 1
2 2 2
2 2 2
1 1 1
2 2 2
2 2 2
3 3 3
3 3 3
15 15 15
4 4 4
4 4 4
5 5 5
5 5 5
5 5 5
5 5 5
5 5 5
5 5 5
5 5 5
5 5 5
3 3 3
3 3 3
5 5 5
5 5 5
5 5 5
5 5 5
6 6 6
8 8 8
7 7 7
11 11 11
28 28 28
18 18 18
13 13 13
10 10 10
50 50 50
9 9 9
18 18 18
10 10 10
2 2 2
2 2 2
0 0 0
0 0 0
2 2 2
2 2 2
2 2 2
1 1 1
1 1 1
1 1 1
1 1 1
1 1 1
1 1 1
2 2 2
2 2 2
1 1 1
2 2 2
1 1 1
2 2 2
3 3 3
2 2 2
3 3 3
15 15 15
5 5 5
5 5 5
4 4 4
4 4 4
5 5 5
4 4 4
4 4 4
4 4 4
5 5 5
4 4 4
4 4 4
5 5 5
5 5 5
5 5 5
5 5 5
7 7 7
8 8 8
6 6 6
8 8 8
20 20 20
26 26 26
22 22 22
22 22 22
52 52 52
12 12 12
36 36 36
2 2 2
2 2 2
2 2 2
0 0 0
0 0 0
2 2 2
2 2 2
2 2 2
2 2 2
1 1 1
1 1 1
1 1 1
1 1 1
1 1 1
1 1 1
1 1 1
1 1 1
1 1 1
1 1 1
2 2 2
2 2 2
2 2 2
3 3 3
3 3 3
14 14 14
5 5 5
4 4 4
4 4 4
4 4 4
4 4 4
4 4 4
4 4 4
4 4 4
5 5 5
5 5 5
5 5 5
5 5 5
5 5 5
5 5 5
7 7 7
6 6 6
6 6 6
6 6 6
22 22 22
28 28 28
26 26 26
18 18 18
33 33 33
17 17 17
2 2 2
2 2 2
2 2 2
2 2 2
0 0 0
0 0 0
2 2 2
2 2 2
2 2 2
2 2 2
2 2 2
2 2 2
1 1 1
1 1 1
1 1 1
1 1 1
1 1 1
1 1 1
1 1 1
2 2 2
2 2 2
2 2 2
2 2 2
2 2 2
2 2 2
2 2 2
15 15 15
5 5 5
4 4 4
4 4 4
5 5 5
4 4 4
4 4 4
4 4 4
4 4 4
4 4 4
4 4 4
4 4 4
3 3 3
4 4 4
6 6 6
6 6 6
6 6 6
6 6 6
22 22 22
21 21 21
20 20 20
24 24 24
17 17 17
5 5 5
2 2 2
2 2 2
2 2 2
2 2 2
0 0 0
0 0 0
2 2 2
2 2 2
2 2 2
2 2 2
2 2 2
2 2 2
1 1 1
1 1 1
1 1 1
2 2 2
1 1 1
1 1 1
1 1 1
1 1 1
2 2 2
2 2 2
2 2 2
2 2 2
2 2 2
2 2 2
2 2 2
11 11 11
6 6 6
3 3 3
3 3 3
3 3 3
4 4 4
5 5 5
4 4 4
12 12 12
3 3 3
5 5 5
7 7 7
5 5 5
5 5 5
5 5 5
5 5 5
7 7 7
22 22 22
26 26 26
36 36 36
54 54 54
11 11 11
2 2 2
2 2 2
2 2 2
2 2 2
2 2 2
0 0 0
0 0 0
2 2 2
2 2 2
2 2 2
2 2 2
2 2 2
2 2 2
2 2 2
2 2 2
1 1 1
1 1 1
1 1 1
1 1 1
1 1 1
2 2 2
1 1 1
1 1 1
2 2 2
2 2 2
2 2 2
2 2 2
2 2 2
2 2 2
8 8 8
9 9 9
2 2 2
2 2 2
6 6 6
5 5 5
4 4 4
14 14 14
6 6 6
3 3 3
8 8 8
4 4 4
5 5 5
5 5 5
5 5 5
20 20 20
34 34 34
26 26 26
29 29 29
38 38 38
2 2 2
2 2 2
2 2 2
2 2 2
2 2 2
2 2 2
0 0 0
0 0 0
2 2 2
2 2 2
2 2 2
2 2 2
2 2 2
2 2 2
2 2 2
2 2 2
1 1 1
1 1 1
1 1 1
1 1 1
1 1 1
1 1 1
2 2 2
2 2 2
1 1 1
1 1 1
2 2 2
2 2 2
2 2 2
2 2 2
2 2 2
5 5 5
7 7 7
5 5 5
5 5 5
11 11 11
9 9 9
7 7 7
12 12 12
11 11 11
10 10 10
21 21 21
21 21 21
19 19 19
24 24 24
28 28 28
20 20 20
24 24 24
14 14 14
2 2 2
2 2 2
2 2 2
2 2 2
2 2 2
2 2 2
2 2 2
0 0 0
0 0 0
2 2 2
2 2 2
2 2 2
2 2 2
2 2 2
2 2 2
2 2 2
2 2 2
2 2 2
1 1 1
1 1 1
1 1 1
1 1 1
1 1 1
1 1 1
1 1 1
1 1 1
2 2 2
2 2 2
2 2 2
2 2 2
2 2 2
2 2 2
2 2 2
4 4 4
12 12 12
8 8 8
7 7 7
7 7 7
13 13 13
9 9 9
13 13 13
16 16 16
25 25 25
27 27 27
31 31 31
23 23 23
16 16 16
17 17 17
6 6 6
2 2 2
2 2 2
2 2 2
2 2 2
2 2 2
2 2 2
2 2 2
2 2 2
0 0 0
0 0 0
2 2 2
2 2 2
2 2 2
2 2 2
2 2 2
2 2 2
2 2 2
2 2 2
2 2 2
2 2 2
1 1 1
1 1 1
1 1 1
1 1 1
1 1 1
1 1 1
1 1 1
2 2 2
1 1 1
2 2 2
2 2 2
2 2 2
2 2 2
2 2 2
2 2 2
3 3 3
16 16 16
6 6 6
15 15 15
8 8 8
15 15 15
13 13 13
14 14 14
15 15 15
16 16 16
17 17 17
11 11 11
31 31 31
2 2 2
2 2 2
2 2 2
2 2 2
2 2 2
2 2 2
2 2 2
2 2 2
2 2 2
2 2 2
0 0 0
0 0 0
2 2 2
2 2 2
2 2 2
2 2 2
2 2 2
2 2 2
2 2 2
2 2 2
2 2 2
2 2 2
2 2 2
2 2 2
0 0 0
1 1 1
1 1 1
1 1 1
1 1 1
1 1 1
1 1 1
1 1 1
2 2 2
2 2 2
2 2 2
2 2 2
2 2 2
2 2 2
3 3 3
14 14 14
5 5 5
10 10 10
10 10 10
21 21 21
21 21 21
17 17 17
14 14 14
14 14 14
4 4 4
2 2 2
2 2 2
2 2 2
2 2 2
2 2 2
2 2 2
2 2 2
2 2 2
2 2 2
2 2 2
2 2 2
0 0 0
0 0 0
2 2 2
2 2 2
2 2 2
2 2 2
2 2 2
2 2 2
2 2 2
2 2 2
2 2 2
2 2 2
2 2 2
2 2 2
2 2 2
2 2 2
1 1 1
1 1 1
1 1 1
1 1 1
1 1 1
2 2 2
2 2 2
1 1 1
1 1 1
2 2 2
2 2 2
2 2 2
3 3 3
3 3 3
12 12 12
4 4 4
11 11 11
15 15 15
24 24 24
30 30 30
4 4 4
2 2 2
2 2 2
2 2 2
2 2 2
2 2 2
2 2 2
2 2 2
2 2 2
2 2 2
2 2 2
2 2 2
2 2 2
2 2 2
0 0 0
0 0 0
2 2 2
2 2 2
2 2 2
2 2 2
2 2 2
2 2 2
2 2 2
2 2 2
2 2 2
2 2 2
2 2 2
2 2 2
2 2 2
2 2 2
2 2 2
2 2 2
1 1 1
1 1 1
2 2 2
2 2 2
1 1 1
2 2 2
2 2 2
2 2 2
3 3 3
3 3 3
3 3 3
4 4 4
4 4 4
15 15 15
8 8 8
14 14 14
2 2 2
2 2 2
2 2 2
2 2 2
2 2 2
2 2 2
2 2 2
2 2 2
2 2 2
2 2 2
2 2 2
2 2 2
2 2 2
2 2 2
2 2 2
2 2 2
0 0 0
0 0 0
0 0 0
0 0 0
0 0 0
0 0 0
0 0 0
0 0 0
0 0 0
0 0 0
0 0 0
0 0 0
0 0 0
0 0 0
0 0 0
0 0 0
0 0 0
0 0 0
0 0 0
0 0 0
0 0 0
0 0 0
0 0 0
0 0 0
0 0 0
0 0 0
0 0 0
0 0 0
0 0 0
0 0 0
0 0 0
0 0 0
0 0 0
0 0 0
0 0 0
0 0 0
0 0 0
0 0 0
0 0 0
0 0 0
0 0 0
0 0 0
0 0 0
0 0 0
0 0 0
0 0 0
0 0 0
0 0 0
0 0 0
0 0 0
0 0 0
