P3 
50 50 
255
0 0 0
0 0 0
0 0 0
0 0 0
0 0 0
0 0 0
0 0 0
0 0 0
0 0 0
0 0 0
0 0 0
0 0 0
0 0 0
0 0 0
0 0 0
0 0 0
0 0 0
0 0 0
0 0 0
0 0 0
0 0 0
0 0 0
0 0 0
0 0 0
0 0 0
0 0 0
0 0 0
0 0 0
0 0 0
0 0 0
0 0 0
0 0 0
0 0 0
0 0 0
0 0 0
0 0 0
0 0 0
0 0 0
0 0 0
0 0 0
0 0 0
0 0 0
0 0 0
0 0 0
0 0 0
0 0 0
0 0 0
0 0 0
0 0 0
0 0 0
0 0 0
2 2 2
2 2 2
2 2 2
2 2 2
2 2 2
2 2 2
2 2 2
2 2 2
2 2 2
2 2 2
2 2 2
2 2 2
2 2 2
2 2 2
2 2 2
2 2 2
2 2 2
1 1 1
2 2 2
12 12 12
4 4 4
4 4 4
4 4 4
4 4 4
5 5 5
6 6 6
5 5 5
6 6 6
8 8 8
10 10 10
14 14 14
4 4 4
2 2 2
2 2 2
2 2 2
2 2 2
2 2 2
2 2 2
2 2 2
2 2 2
2 2 2
2 2 2
2 2 2
2 2 2
2 2 2
2 2 2
2 2 2
2 2 2
0 0 0
0 0 0
2 2 2
2 2 2
2 2 2
2 2 2
2 2 2
2 2 2
2 2 2
2 2 2
2 2 2
2 2 2
2 2 2
2 2 2
2 2 2
2 2 2
1 1 1
1 1 1
1 1 1
7 7 7
7 7 7
4 4 4
4 4 4
4 4 4
4 4 4
5 5 5
3 3 3
2 2 2
7 7 7
7 7 7
12 12 12
13 13 13
11 11 11
14 14 14
21 21 21
15 15 15
2 2 2
2 2 2
2 2 2
2 2 2
2 2 2
2 2 2
2 2 2
2 2 2
2 2 2
2 2 2
2 2 2
2 2 2
2 2 2
2 2 2
0 0 0
0 0 0
2 2 2
2 2 2
2 2 2
2 2 2
2 2 2
2 2 2
2 2 2
2 2 2
2 2 2
2 2 2
2 2 2
2 2 2
1 1 1
1 1 1
1 1 1
2 2 2
14 14 14
4 4 4
3 3 3
4 4 4
4 4 4
4 4 4
4 4 4
4 4 4
5 5 5
20 20 20
12 12 12
13 13 13
9 9 9
11 11 11
13 13 13
17 17 17
17 17 17
10 10 10
16 16 16
22 22 22
2 2 2
2 2 2
2 2 2
2 2 2
2 2 2
2 2 2
2 2 2
2 2 2
2 2 2
2 2 2
2 2 2
2 2 2
0 0 0
0 0 0
2 2 2
2 2 2
2 2 2
2 2 2
2 2 2
2 2 2
2 2 2
2 2 2
2 2 2
2 2 2
1 1 1
1 1 1
1 1 1
1 1 1
5 5 5
7 7 7
4 4 4
4 4 4
4 4 4
4 4 4
4 4 4
5 5 5
4 4 4
4 4 4
10 10 10
15 15 15
18 18 18
20 20 20
11 11 11
7 7 7
3 3 3
24 24 24
6 6 6
8 8 8
16 16 16
17 17 17
14 14 14
10 10 10
2 2 2
2 2 2
2 2 2
2 2 2
2 2 2
2 2 2
2 2 2
2 2 2
2 2 2
2 2 2
0 0 0
0 0 0
2 2 2
2 2 2
2 2 2
2 2 2
2 2 2
2 2 2
2 2 2
2 2 2
2 2 2
1 1 1
1 1 1
1 1 1
2 2 2
2 2 2
3 3 3
3 3 3
4 4 4
4 4 4
4 4 4
4 4 4
4 4 4
4 4 4
8 8 8
13 13 13
30 30 30
63 63 63
85 85 85
83 83 83
84 84 84
84 84 84
86 86 86
85 85 85
84 84 84
83 83 83
76 76 76
57 57 57
13 13 13
12 12 12
13 13 13
2 2 2
2 2 2
2 2 2
2 2 2
2 2 2
2 2 2
2 2 2
2 2 2
2 2 2
0 0 0
0 0 0
2 2 2
2 2 2
2 2 2
2 2 2
2 2 2
2 2 2
2 2 2
2 2 2
1 1 1
1 1 1
2 2 2
2 2 2
3 3 3
4 4 4
3 3 3
4 4 4
4 4 4
3 3 3
4 4 4
7 7 7
12 12 12
31 31 31
63 63 63
87 87 87
90 90 90
136 136 136
192 192 192
192 192 192
175 175 175
170 170 170
146 146 146
166 166 166
167 167 167
177 177 177
185 185 185
134 134 134
88 88 88
31 31 31
10 10 10
12 12 12
4 4 4
2 2 2
2 2 2
2 2 2
2 2 2
2 2 2
2 2 2
2 2 2
0 0 0
0 0 0
2 2 2
2 2 2
2 2 2
2 2 2
2 2 2
2 2 2
2 2 2
1 1 1
1 1 1
2 2 2
2 2 2
3 3 3
3 3 3
4 4 4
5 5 5
5 5 5
2 2 2
4 4 4
9 9 9
52 52 52
87 87 87
87 87 87
89 89 89
137 137 137
193 193 193
158 158 158
98 98 98
102 102 102
112 112 112
93 93 93
92 92 92
90 90 90
94 94 94
115 115 115
174 174 174
166 166 166
169 169 169
180 180 180
75 75 75
15 15 15
10 10 10
9 9 9
2 2 2
2 2 2
2 2 2
2 2 2
2 2 2
2 2 2
0 0 0
0 0 0
2 2 2
2 2 2
2 2 2
2 2 2
2 2 2
2 2 2
1 1 1
1 1 1
1 1 1
2 2 2
3 3 3
4 4 4
5 5 5
4 4 4
4 4 4
3 3 3
38 38 38
79 79 79
87 87 87
86 86 86
93 93 93
158 158 158
187 187 187
165 165 165
119 119 119
86 86 86
86 86 86
87 87 87
87 87 87
86 86 86
86 86 86
86 86 86
87 87 87
87 87 87
88 88 88
96 96 96
168 168 168
169 169 169
178 178 178
105 105 105
28 28 28
21 21 21
6 6 6
2 2 2
2 2 2
2 2 2
2 2 2
2 2 2
0 0 0
0 0 0
2 2 2
2 2 2
2 2 2
2 2 2
2 2 2
1 1 1
1 1 1
1 1 1
2 2 2
2 2 2
4 4 4
6 6 6
4 4 4
4 4 4
16 16 16
79 79 79
87 87 87
89 89 89
90 90 90
148 148 148
172 172 172
148 148 148
98 98 98
86 86 86
87 87 87
86 86 86
86 86 86
87 87 87
87 87 87
87 87 87
87 87 87
86 86 86
86 86 86
88 88 88
88 88 88
88 88 88
88 88 88
106 106 106
170 170 170
180 180 180
117 117 117
43 43 43
56 56 56
2 2 2
2 2 2
2 2 2
2 2 2
2 2 2
0 0 0
0 0 0
2 2 2
2 2 2
2 2 2
2 2 2
1 1 1
1 1 1
2 2 2
2 2 2
3 3 3
3 3 3
3 3 3
11 11 11
79 79 79
88 88 88
85 85 85
87 87 87
92 92 92
167 167 167
176 176 176
105 105 105
87 87 87
86 86 86
86 86 86
87 87 87
87 87 87
87 87 87
86 86 86
86 86 86
86 86 86
86 86 86
86 86 86
87 87 87
86 86 86
87 87 87
88 88 88
88 88 88
88 88 88
88 88 88
90 90 90
165 165 165
179 179 179
145 145 145
43 43 43
32 32 32
2 2 2
2 2 2
2 2 2
2 2 2
0 0 0
0 0 0
2 2 2
2 2 2
2 2 2
2 2 2
1 1 1
2 2 2
2 2 2
1 1 1
2 2 2
3 3 3
1 1 1
127 127 127
197 197 197
83 83 83
82 82 82
105 105 105
123 123 123
170 170 170
90 90 90
85 85 85
85 85 85
86 86 86
87 87 87
86 86 86
87 87 87
87 87 87
87 87 87
87 87 87
87 87 87
86 86 86
86 86 86
87 87 87
87 87 87
88 88 88
88 88 88
88 88 88
88 88 88
89 89 89
88 88 88
104 104 104
170 170 170
193 193 193
91 91 91
56 56 56
23 23 23
2 2 2
2 2 2
2 2 2
0 0 0
0 0 0
2 2 2
2 2 2
2 2 2
1 1 1
2 2 2
3 3 3
2 2 2
2 2 2
2 2 2
2 2 2
14 14 14
96 96 96
101 101 101
163 163 163
126 126 126
148 148 148
132 132 132
114 114 114
85 85 85
85 85 85
86 86 86
86 86 86
86 86 86
86 86 86
86 86 86
85 85 85
87 87 87
87 87 87
86 86 86
87 87 87
86 86 86
87 87 87
88 88 88
88 88 88
88 88 88
88 88 88
89 89 89
88 88 88
89 89 89
89 89 89
155 155 155
161 161 161
181 181 181
46 46 46
20 20 20
7 7 7
2 2 2
2 2 2
0 0 0
0 0 0
2 2 2
2 2 2
1 1 1
2 2 2
3 3 3
2 2 2
2 2 2
3 3 3
4 4 4
2 2 2
60 60 60
85 85 85
83 83 83
78 78 78
127 127 127
139 139 139
121 121 121
93 93 93
85 85 85
86 86 86
86 86 86
87 87 87
87 87 87
87 87 87
87 87 87
87 87 87
87 87 87
86 86 86
86 86 86
86 86 86
87 87 87
87 87 87
87 87 87
87 87 87
87 87 87
88 88 88
87 87 87
88 88 88
88 88 88
89 89 89
89 89 89
172 172 172
193 193 193
85 85 85
27 27 27
92 92 92
2 2 2
2 2 2
0 0 0
0 0 0
2 2 2
2 2 2
2 2 2
2 2 2
2 2 2
3 3 3
3 3 3
4 4 4
2 2 2
26 26 26
89 89 89
84 84 84
84 84 84
79 79 79
77 77 77
142 142 142
129 129 129
85 85 85
85 85 85
86 86 86
87 87 87
86 86 86
87 87 87
87 87 87
87 87 87
87 87 87
87 87 87
87 87 87
87 87 87
87 87 87
87 87 87
87 87 87
87 87 87
87 87 87
87 87 87
88 88 88
87 87 87
88 88 88
88 88 88
88 88 88
88 88 88
108 108 108
166 166 166
102 102 102
48 48 48
84 84 84
6 6 6
2 2 2
0 0 0
0 0 0
2 2 2
2 2 2
2 2 2
2 2 2
2 2 2
2 2 2
2 2 2
2 2 2
3 3 3
91 91 91
85 85 85
85 85 85
85 85 85
83 83 83
82 82 82
106 106 106
123 123 123
85 85 85
86 86 86
87 87 87
87 87 87
86 86 86
87 87 87
87 87 87
87 87 87
87 87 87
86 86 86
87 87 87
87 87 87
87 87 87
86 86 86
86 86 86
85 85 85
87 87 87
87 87 87
87 87 87
87 87 87
88 88 88
88 88 88
89 89 89
88 88 88
87 87 87
162 162 162
132 132 132
61 61 61
64 64 64
26 26 26
2 2 2
0 0 0
0 0 0
2 2 2
1 1 1
2 2 2
1 1 1
3 3 3
1 1 1
2 2 2
2 2 2
5 5 5
88 88 88
84 84 84
85 85 85
85 85 85
80 80 80
85 85 85
101 101 101
108 108 108
86 86 86
86 86 86
86 86 86
86 86 86
87 87 87
87 87 87
87 87 87
86 86 86
86 86 86
87 87 87
86 86 86
87 87 87
87 87 87
86 86 86
86 86 86
86 86 86
86 86 86
87 87 87
88 88 88
87 87 87
88 88 88
88 88 88
88 88 88
88 88 88
88 88 88
170 170 170
178 178 178
57 57 57
46 46 46
16 16 16
3 3 3
0 0 0
0 0 0
1 1 1
0 0 0
0 0 0
2 2 2
2 2 2
2 2 2
2 2 2
2 2 2
4 4 4
84 84 84
86 86 86
86 86 86
82 82 82
76 76 76
82 82 82
102 102 102
87 87 87
86 86 86
87 87 87
86 86 86
86 86 86
86 86 86
87 87 87
87 87 87
87 87 87
87 87 87
87 87 87
86 86 86
88 88 88
87 87 87
86 86 86
86 86 86
86 86 86
87 87 87
87 87 87
87 87 87
88 88 88
88 88 88
88 88 88
88 88 88
88 88 88
88 88 88
169 169 169
196 196 196
78 78 78
35 35 35
17 17 17
21 21 21
0 0 0
0 0 0
1 1 1
1 1 1
1 1 1
1 1 1
2 2 2
1 1 1
2 2 2
3 3 3
1 1 1
89 89 89
82 82 82
79 79 79
87 87 87
93 93 93
108 108 108
87 87 87
86 86 86
87 87 87
87 87 87
87 87 87
87 87 87
86 86 86
86 86 86
86 86 86
87 87 87
87 87 87
87 87 87
87 87 87
87 87 87
87 87 87
86 86 86
86 86 86
87 87 87
87 87 87
87 87 87
87 87 87
87 87 87
88 88 88
88 88 88
88 88 88
88 88 88
88 88 88
160 160 160
182 182 182
85 85 85
29 29 29
16 16 16
23 23 23
0 0 0
0 0 0
1 1 1
1 1 1
1 1 1
1 1 1
1 1 1
3 3 3
1 1 1
2 2 2
7 7 7
122 122 122
124 124 124
7 7 7
33 33 33
10 10 10
91 91 91
86 86 86
86 86 86
87 87 87
86 86 86
87 87 87
86 86 86
86 86 86
87 87 87
86 86 86
87 87 87
86 86 86
87 87 87
87 87 87
86 86 86
86 86 86
86 86 86
86 86 86
87 87 87
88 88 88
87 87 87
87 87 87
87 87 87
88 88 88
87 87 87
88 88 88
88 88 88
89 89 89
126 126 126
158 158 158
89 89 89
29 29 29
17 17 17
16 16 16
0 0 0
0 0 0
1 1 1
1 1 1
1 1 1
1 1 1
1 1 1
1 1 1
8 8 8
63 63 63
150 150 150
153 153 153
95 95 95
73 73 73
96 96 96
103 103 103
86 86 86
85 85 85
85 85 85
87 87 87
86 86 86
86 86 86
86 86 86
86 86 86
85 85 85
86 86 86
85 85 85
86 86 86
87 87 87
86 86 86
86 86 86
86 86 86
86 86 86
87 87 87
87 87 87
87 87 87
87 87 87
87 87 87
87 87 87
87 87 87
87 87 87
88 88 88
88 88 88
89 89 89
133 133 133
176 176 176
88 88 88
28 28 28
18 18 18
14 14 14
0 0 0
0 0 0
1 1 1
1 1 1
1 1 1
2 2 2
2 2 2
1 1 1
54 54 54
92 92 92
167 167 167
142 142 142
91 91 91
69 69 69
101 101 101
126 126 126
86 86 86
86 86 86
86 86 86
87 87 87
87 87 87
87 87 87
86 86 86
86 86 86
86 86 86
86 86 86
87 87 87
87 87 87
87 87 87
87 87 87
86 86 86
86 86 86
86 86 86
87 87 87
87 87 87
87 87 87
88 88 88
88 88 88
88 88 88
88 88 88
88 88 88
88 88 88
88 88 88
88 88 88
141 141 141
183 183 183
75 75 75
31 31 31
20 20 20
16 16 16
0 0 0
0 0 0
2 2 2
2 2 2
2 2 2
1 1 1
1 1 1
1 1 1
0 0 0
2 2 2
41 41 41
171 171 171
122 122 122
36 36 36
4 4 4
35 35 35
94 94 94
87 87 87
86 86 86
86 86 86
86 86 86
87 87 87
87 87 87
86 86 86
86 86 86
87 87 87
86 86 86
87 87 87
87 87 87
87 87 87
88 88 88
87 87 87
86 86 86
86 86 86
87 87 87
87 87 87
88 88 88
87 87 87
88 88 88
88 88 88
88 88 88
88 88 88
88 88 88
88 88 88
115 115 115
193 193 193
63 63 63
36 36 36
20 20 20
15 15 15
0 0 0
0 0 0
1 1 1
1 1 1
1 1 1
2 2 2
0 0 0
0 0 0
1 1 1
0 0 0
0 0 0
72 72 72
92 92 92
84 84 84
85 85 85
88 88 88
102 102 102
97 97 97
87 87 87
87 87 87
86 86 86
87 87 87
86 86 86
86 86 86
87 87 87
87 87 87
87 87 87
87 87 87
87 87 87
87 87 87
87 87 87
87 87 87
87 87 87
87 87 87
87 87 87
87 87 87
87 87 87
87 87 87
88 88 88
88 88 88
88 88 88
89 89 89
87 87 87
88 88 88
155 155 155
192 192 192
55 55 55
40 40 40
22 22 22
15 15 15
0 0 0
0 0 0
2 2 2
1 1 1
1 1 1
0 0 0
0 0 0
1 1 1
2 2 2
1 1 1
1 1 1
44 44 44
83 83 83
88 88 88
86 86 86
78 78 78
81 81 81
90 90 90
112 112 112
87 87 87
85 85 85
87 87 87
86 86 86
87 87 87
87 87 87
87 87 87
87 87 87
87 87 87
87 87 87
87 87 87
87 87 87
87 87 87
87 87 87
87 87 87
87 87 87
86 86 86
87 87 87
87 87 87
88 88 88
88 88 88
88 88 88
88 88 88
87 87 87
89 89 89
171 171 171
166 166 166
54 54 54
49 49 49
22 22 22
13 13 13
0 0 0
0 0 0
1 1 1
1 1 1
1 1 1
1 1 1
1 1 1
1 1 1
2 2 2
2 2 2
1 1 1
38 38 38
89 89 89
85 85 85
86 86 86
85 85 85
85 85 85
87 87 87
123 123 123
113 113 113
86 86 86
87 87 87
87 87 87
87 87 87
87 87 87
87 87 87
87 87 87
87 87 87
87 87 87
87 87 87
87 87 87
87 87 87
87 87 87
87 87 87
87 87 87
87 87 87
87 87 87
87 87 87
87 87 87
87 87 87
89 89 89
88 88 88
87 87 87
128 128 128
169 169 169
105 105 105
48 48 48
56 56 56
21 21 21
13 13 13
0 0 0
0 0 0
1 1 1
1 1 1
1 1 1
1 1 1
1 1 1
2 2 2
2 2 2
2 2 2
2 2 2
47 47 47
88 88 88
85 85 85
86 86 86
86 86 86
77 77 77
88 88 88
120 120 120
96 96 96
85 85 85
86 86 86
86 86 86
87 87 87
87 87 87
87 87 87
87 87 87
87 87 87
87 87 87
87 87 87
87 87 87
87 87 87
87 87 87
87 87 87
87 87 87
87 87 87
87 87 87
87 87 87
88 88 88
87 87 87
88 88 88
88 88 88
88 88 88
172 172 172
197 197 197
83 83 83
41 41 41
47 47 47
20 20 20
15 15 15
0 0 0
0 0 0
0 0 0
0 0 0
1 1 1
0 0 0
1 1 1
2 2 2
2 2 2
2 2 2
2 2 2
13 13 13
91 91 91
86 86 86
85 85 85
86 86 86
77 77 77
139 139 139
127 127 127
91 91 91
86 86 86
86 86 86
86 86 86
87 87 87
87 87 87
87 87 87
87 87 87
87 87 87
87 87 87
87 87 87
86 86 86
88 88 88
87 87 87
87 87 87
87 87 87
88 88 88
87 87 87
88 88 88
87 87 87
88 88 88
88 88 88
88 88 88
153 153 153
175 175 175
167 167 167
52 52 52
37 37 37
32 32 32
19 19 19
15 15 15
0 0 0
0 0 0
0 0 0
0 0 0
1 1 1
0 0 0
0 0 0
1 1 1
1 1 1
2 2 2
4 4 4
2 2 2
43 43 43
90 90 90
86 86 86
85 85 85
117 117 117
145 145 145
126 126 126
90 90 90
86 86 86
87 87 87
87 87 87
86 86 86
86 86 86
86 86 86
86 86 86
87 87 87
86 86 86
86 86 86
87 87 87
87 87 87
87 87 87
87 87 87
88 88 88
88 88 88
87 87 87
88 88 88
88 88 88
88 88 88
87 87 87
99 99 99
175 175 175
201 201 201
84 84 84
43 43 43
46 46 46
22 22 22
15 15 15
15 15 15
0 0 0
0 0 0
1 1 1
1 1 1
2 2 2
1 1 1
1 1 1
0 0 0
0 0 0
1 1 1
2 2 2
3 3 3
0 0 0
71 71 71
89 89 89
93 93 93
148 148 148
104 104 104
120 120 120
124 124 124
87 87 87
86 86 86
87 87 87
87 87 87
87 87 87
86 86 86
86 86 86
87 87 87
87 87 87
87 87 87
87 87 87
87 87 87
87 87 87
87 87 87
87 87 87
87 87 87
88 88 88
88 88 88
87 87 87
87 87 87
89 89 89
174 174 174
185 185 185
124 124 124
55 55 55
33 33 33
46 46 46
19 19 19
15 15 15
14 14 14
0 0 0
0 0 0
1 1 1
3 3 3
3 3 3
3 3 3
1 1 1
1 1 1
1 1 1
2 2 2
2 2 2
2 2 2
0 0 0
27 27 27
180 180 180
179 179 179
84 84 84
86 86 86
86 86 86
160 160 160
194 194 194
93 93 93
86 86 86
86 86 86
87 87 87
87 87 87
87 87 87
87 87 87
87 87 87
87 87 87
87 87 87
87 87 87
87 87 87
87 87 87
87 87 87
88 88 88
87 87 87
87 87 87
87 87 87
120 120 120
174 174 174
190 190 190
107 107 107
56 56 56
32 32 32
43 43 43
52 52 52
21 21 21
12 12 12
14 14 14
0 0 0
0 0 0
2 2 2
3 3 3
3 3 3
3 3 3
3 3 3
2 2 2
2 2 2
3 3 3
3 3 3
4 4 4
1 1 1
0 0 0
37 37 37
83 83 83
87 87 87
83 83 83
84 84 84
87 87 87
111 111 111
174 174 174
97 97 97
86 86 86
86 86 86
86 86 86
87 87 87
87 87 87
87 87 87
87 87 87
87 87 87
87 87 87
87 87 87
88 88 88
87 87 87
87 87 87
87 87 87
94 94 94
159 159 159
179 179 179
193 193 193
89 89 89
53 53 53
17 17 17
27 27 27
31 31 31
23 23 23
29 29 29
13 13 13
17 17 17
0 0 0
0 0 0
2 2 2
3 3 3
3 3 3
2 2 2
3 3 3
3 3 3
4 4 4
4 4 4
3 3 3
3 3 3
2 2 2
1 1 1
0 0 0
0 0 0
3 3 3
4 4 4
13 13 13
64 64 64
86 86 86
89 89 89
151 151 151
153 153 153
104 104 104
88 88 88
87 87 87
87 87 87
87 87 87
87 87 87
87 87 87
87 87 87
87 87 87
87 87 87
88 88 88
89 89 89
142 142 142
170 170 170
184 184 184
190 190 190
83 83 83
46 46 46
19 19 19
23 23 23
24 24 24
24 24 24
11 11 11
42 42 42
13 13 13
27 27 27
0 0 0
0 0 0
2 2 2
3 3 3
3 3 3
3 3 3
3 3 3
3 3 3
3 3 3
3 3 3
3 3 3
3 3 3
3 3 3
3 3 3
3 3 3
3 3 3
3 3 3
4 4 4
3 3 3
3 3 3
1 1 1
43 43 43
86 86 86
92 92 92
154 154 154
169 169 169
151 151 151
134 134 134
143 143 143
145 145 145
111 111 111
99 99 99
132 132 132
154 154 154
159 159 159
176 176 176
190 190 190
184 184 184
93 93 93
79 79 79
15 15 15
17 17 17
22 22 22
15 15 15
18 18 18
34 34 34
9 9 9
61 61 61
12 12 12
2 2 2
0 0 0
0 0 0
2 2 2
3 3 3
3 3 3
3 3 3
3 3 3
3 3 3
3 3 3
3 3 3
2 2 2
3 3 3
2 2 2
3 3 3
3 3 3
3 3 3
3 3 3
4 4 4
4 4 4
4 4 4
2 2 2
2 2 2
1 1 1
11 11 11
61 61 61
83 83 83
120 120 120
179 179 179
208 208 208
204 204 204
193 193 193
191 191 191
189 189 189
187 187 187
150 150 150
105 105 105
73 73 73
47 47 47
25 25 25
20 20 20
12 12 12
20 20 20
22 22 22
28 28 28
27 27 27
48 48 48
9 9 9
79 79 79
21 21 21
2 2 2
0 0 0
0 0 0
2 2 2
2 2 2
2 2 2
2 2 2
2 2 2
3 3 3
3 3 3
3 3 3
3 3 3
3 3 3
3 3 3
3 3 3
3 3 3
3 3 3
3 3 3
4 4 4
4 4 4
4 4 4
2 2 2
3 3 3
2 2 2
2 2 2
1 1 1
2 2 2
9 9 9
18 18 18
31 31 31
35 35 35
43 43 43
29 29 29
31 31 31
23 23 23
4 4 4
2 2 2
5 5 5
4 4 4
5 5 5
29 29 29
22 22 22
25 25 25
17 17 17
33 33 33
14 14 14
30 30 30
11 11 11
78 78 78
8 8 8
2 2 2
0 0 0
0 0 0
2 2 2
2 2 2
1 1 1
1 1 1
1 1 1
1 1 1
1 1 1
2 2 2
2 2 2
3 3 3
3 3 3
3 3 3
3 3 3
4 4 4
3 3 3
3 3 3
3 3 3
4 4 4
3 3 3
2 2 2
2 2 2
2 2 2
4 4 4
3 3 3
4 4 4
5 5 5
8 8 8
9 9 9
10 10 10
10 10 10
5 5 5
1 1 1
3 3 3
4 4 4
4 4 4
5 5 5
6 6 6
22 22 22
25 25 25
19 19 19
21 21 21
20 20 20
30 30 30
14 14 14
14 14 14
65 65 65
2 2 2
2 2 2
0 0 0
0 0 0
2 2 2
2 2 2
2 2 2
1 1 1
1 1 1
1 1 1
1 1 1
1 1 1
1 1 1
2 2 2
2 2 2
3 3 3
3 3 3
3 3 3
3 3 3
3 3 3
3 3 3
4 4 4
3 3 3
3 3 3
3 3 3
3 3 3
4 4 4
4 4 4
4 4 4
4 4 4
2 2 2
3 3 3
3 3 3
2 2 2
3 3 3
2 2 2
4 4 4
4 4 4
5 5 5
6 6 6
6 6 6
13 13 13
26 26 26
23 23 23
25 25 25
21 21 21
37 37 37
10 10 10
17 17 17
10 10 10
2 2 2
2 2 2
0 0 0
0 0 0
2 2 2
2 2 2
2 2 2
2 2 2
1 1 1
1 1 1
1 1 1
1 1 1
1 1 1
2 2 2
2 2 2
1 1 1
3 3 3
3 3 3
3 3 3
3 3 3
4 4 4
3 3 3
4 4 4
4 4 4
4 4 4
4 4 4
4 4 4
4 4 4
4 4 4
3 3 3
4 4 4
4 4 4
4 4 4
4 4 4
2 2 2
3 3 3
5 5 5
4 4 4
5 5 5
8 8 8
8 8 8
10 10 10
23 23 23
31 31 31
30 30 30
22 22 22
55 55 55
13 13 13
37 37 37
2 2 2
2 2 2
2 2 2
0 0 0
0 0 0
2 2 2
2 2 2
2 2 2
2 2 2
1 1 1
1 1 1
1 1 1
1 1 1
1 1 1
1 1 1
1 1 1
1 1 1
1 1 1
2 2 2
3 3 3
3 3 3
3 3 3
4 4 4
3 3 3
4 4 4
4 4 4
4 4 4
4 4 4
4 4 4
4 4 4
5 5 5
4 4 4
4 4 4
4 4 4
4 4 4
4 4 4
5 5 5
5 5 5
5 5 5
5 5 5
5 5 5
10 10 10
18 18 18
15 15 15
31 31 31
15 15 15
27 27 27
39 39 39
15 15 15
2 2 2
2 2 2
2 2 2
2 2 2
0 0 0
0 0 0
2 2 2
2 2 2
2 2 2
2 2 2
2 2 2
1 1 1
1 1 1
1 1 1
1 1 1
1 1 1
1 1 1
1 1 1
1 1 1
2 2 2
1 1 1
2 2 2
2 2 2
3 3 3
3 3 3
4 4 4
4 4 4
4 4 4
4 4 4
4 4 4
4 4 4
5 5 5
4 4 4
4 4 4
4 4 4
4 4 4
4 4 4
4 4 4
5 5 5
4 4 4
3 3 3
10 10 10
13 13 13
17 17 17
8 8 8
20 20 20
16 16 16
41 41 41
15 15 15
5 5 5
2 2 2
2 2 2
2 2 2
2 2 2
0 0 0
0 0 0
2 2 2
2 2 2
2 2 2
2 2 2
2 2 2
2 2 2
1 1 1
1 1 1
1 1 1
1 1 1
1 1 1
1 1 1
2 2 2
1 1 1
2 2 2
2 2 2
1 1 1
2 2 2
2 2 2
3 3 3
4 4 4
3 3 3
3 3 3
4 4 4
4 4 4
4 4 4
4 4 4
4 4 4
4 4 4
4 4 4
4 4 4
4 4 4
4 4 4
7 7 7
8 8 8
11 11 11
13 13 13
14 14 14
26 26 26
23 23 23
18 18 18
58 58 58
11 11 11
2 2 2
2 2 2
2 2 2
2 2 2
2 2 2
0 0 0
0 0 0
2 2 2
2 2 2
2 2 2
2 2 2
2 2 2
2 2 2
2 2 2
1 1 1
1 1 1
1 1 1
1 1 1
1 1 1
1 1 1
2 2 2
1 1 1
1 1 1
1 1 1
1 1 1
2 2 2
2 2 2
2 2 2
3 3 3
3 3 3
4 4 4
4 4 4
4 4 4
5 5 5
4 4 4
4 4 4
4 4 4
4 4 4
3 3 3
3 3 3
3 3 3
4 4 4
17 17 17
22 22 22
21 21 21
30 30 30
28 28 28
33 33 33
26 26 26
2 2 2
2 2 2
2 2 2
2 2 2
2 2 2
2 2 2
0 0 0
0 0 0
2 2 2
2 2 2
2 2 2
2 2 2
2 2 2
2 2 2
2 2 2
2 2 2
1 1 1
1 1 1
1 1 1
1 1 1
1 1 1
1 1 1
1 1 1
1 1 1
1 1 1
1 1 1
2 2 2
2 2 2
2 2 2
1 1 1
2 2 2
2 2 2
2 2 2
3 3 3
3 3 3
3 3 3
3 3 3
2 2 2
3 3 3
3 3 3
3 3 3
3 3 3
17 17 17
15 15 15
19 19 19
16 16 16
35 35 35
29 29 29
15 15 15
2 2 2
2 2 2
2 2 2
2 2 2
2 2 2
2 2 2
2 2 2
0 0 0
0 0 0
2 2 2
2 2 2
2 2 2
2 2 2
2 2 2
2 2 2
2 2 2
2 2 2
2 2 2
1 1 1
1 1 1
1 1 1
1 1 1
1 1 1
1 1 1
1 1 1
1 1 1
1 1 1
2 2 2
2 2 2
2 2 2
2 2 2
2 2 2
2 2 2
2 2 2
2 2 2
3 3 3
3 3 3
10 10 10
3 3 3
3 3 3
3 3 3
2 2 2
12 12 12
9 9 9
12 12 12
9 9 9
27 27 27
24 24 24
6 6 6
2 2 2
2 2 2
2 2 2
2 2 2
2 2 2
2 2 2
2 2 2
2 2 2
0 0 0
0 0 0
2 2 2
2 2 2
2 2 2
2 2 2
2 2 2
2 2 2
2 2 2
2 2 2
2 2 2
2 2 2
1 1 1
1 1 1
1 1 1
1 1 1
1 1 1
1 1 1
1 1 1
1 1 1
1 1 1
1 1 1
2 2 2
2 2 2
2 2 2
2 2 2
3 3 3
2 2 2
2 2 2
10 10 10
3 3 3
8 8 8
3 3 3
3 3 3
4 4 4
12 12 12
7 7 7
12 12 12
22 22 22
36 36 36
2 2 2
2 2 2
2 2 2
2 2 2
2 2 2
2 2 2
2 2 2
2 2 2
2 2 2
2 2 2
0 0 0
0 0 0
2 2 2
2 2 2
2 2 2
2 2 2
2 2 2
2 2 2
2 2 2
2 2 2
2 2 2
2 2 2
2 2 2
2 2 2
0 0 0
1 1 1
1 1 1
1 1 1
1 1 1
1 1 1
1 1 1
1 1 1
1 1 1
1 1 1
2 2 2
2 2 2
2 2 2
2 2 2
4 4 4
2 2 2
3 3 3
3 3 3
8 8 8
13 13 13
10 10 10
13 13 13
13 13 13
23 23 23
4 4 4
2 2 2
2 2 2
2 2 2
2 2 2
2 2 2
2 2 2
2 2 2
2 2 2
2 2 2
2 2 2
2 2 2
0 0 0
0 0 0
2 2 2
2 2 2
2 2 2
2 2 2
2 2 2
2 2 2
2 2 2
2 2 2
2 2 2
2 2 2
2 2 2
2 2 2
2 2 2
2 2 2
0 0 0
1 1 1
1 1 1
1 1 1
1 1 1
1 1 1
1 1 1
1 1 1
2 2 2
2 2 2
2 2 2
8 8 8
15 15 15
7 7 7
3 3 3
7 7 7
4 4 4
9 9 9
11 11 11
22 22 22
3 3 3
2 2 2
2 2 2
2 2 2
2 2 2
2 2 2
2 2 2
2 2 2
2 2 2
2 2 2
2 2 2
2 2 2
2 2 2
2 2 2
0 0 0
0 0 0
2 2 2
2 2 2
2 2 2
2 2 2
2 2 2
2 2 2
2 2 2
2 2 2
2 2 2
2 2 2
2 2 2
2 2 2
2 2 2
2 2 2
2 2 2
2 2 2
1 1 1
0 0 0
1 1 1
1 1 1
1 1 1
1 1 1
2 2 2
2 2 2
2 2 2
3 3 3
5 5 5
16 16 16
14 14 14
11 11 11
7 7 7
16 16 16
2 2 2
2 2 2
2 2 2
2 2 2
2 2 2
2 2 2
2 2 2
2 2 2
2 2 2
2 2 2
2 2 2
2 2 2
2 2 2
2 2 2
2 2 2
2 2 2
0 0 0
0 0 0
0 0 0
0 0 0
0 0 0
0 0 0
0 0 0
0 0 0
0 0 0
0 0 0
0 0 0
0 0 0
0 0 0
0 0 0
0 0 0
0 0 0
0 0 0
0 0 0
0 0 0
0 0 0
0 0 0
0 0 0
0 0 0
0 0 0
0 0 0
0 0 0
0 0 0
0 0 0
0 0 0
0 0 0
0 0 0
0 0 0
0 0 0
0 0 0
0 0 0
0 0 0
0 0 0
0 0 0
0 0 0
0 0 0
0 0 0
0 0 0
0 0 0
0 0 0
0 0 0
0 0 0
0 0 0
0 0 0
0 0 0
0 0 0
0 0 0
