P3 
50 50 
255
0 0 0
0 0 0
0 0 0
0 0 0
0 0 0
0 0 0
0 0 0
0 0 0
0 0 0
0 0 0
0 0 0
0 0 0
0 0 0
0 0 0
0 0 0
0 0 0
0 0 0
0 0 0
0 0 0
0 0 0
0 0 0
0 0 0
0 0 0
0 0 0
0 0 0
0 0 0
0 0 0
0 0 0
0 0 0
0 0 0
0 0 0
0 0 0
0 0 0
0 0 0
0 0 0
0 0 0
0 0 0
0 0 0
0 0 0
0 0 0
0 0 0
0 0 0
0 0 0
0 0 0
0 0 0
0 0 0
0 0 0
0 0 0
0 0 0
0 0 0
0 0 0
2 2 2
2 2 2
2 2 2
2 2 2
2 2 2
2 2 2
2 2 2
2 2 2
2 2 2
2 2 2
2 2 2
2 2 2
2 2 2
2 2 2
2 2 2
2 2 2
2 2 2
1 1 1
1 1 1
3 3 3
3 3 3
3 3 3
3 3 3
4 4 4
3 3 3
3 3 3
4 4 4
5 5 5
6 6 6
7 7 7
13 13 13
4 4 4
2 2 2
2 2 2
2 2 2
2 2 2
2 2 2
2 2 2
2 2 2
2 2 2
2 2 2
2 2 2
2 2 2
2 2 2
2 2 2
2 2 2
2 2 2
2 2 2
0 0 0
0 0 0
2 2 2
2 2 2
2 2 2
2 2 2
2 2 2
2 2 2
2 2 2
2 2 2
2 2 2
2 2 2
2 2 2
2 2 2
2 2 2
2 2 2
1 1 1
2 2 2
2 2 2
2 2 2
4 4 4
3 3 3
3 3 3
4 4 4
3 3 3
3 3 3
5 5 5
11 11 11
13 13 13
10 10 10
22 22 22
20 20 20
19 19 19
11 11 11
18 18 18
17 17 17
2 2 2
2 2 2
2 2 2
2 2 2
2 2 2
2 2 2
2 2 2
2 2 2
2 2 2
2 2 2
2 2 2
2 2 2
2 2 2
2 2 2
0 0 0
0 0 0
2 2 2
2 2 2
2 2 2
2 2 2
2 2 2
2 2 2
2 2 2
2 2 2
2 2 2
2 2 2
2 2 2
2 2 2
2 2 2
1 1 1
3 3 3
2 2 2
3 3 3
3 3 3
3 3 3
3 3 3
4 4 4
4 4 4
4 4 4
7 7 7
6 6 6
12 12 12
21 21 21
32 32 32
10 10 10
17 17 17
14 14 14
12 12 12
11 11 11
9 9 9
14 14 14
17 17 17
2 2 2
2 2 2
2 2 2
2 2 2
2 2 2
2 2 2
2 2 2
2 2 2
2 2 2
2 2 2
2 2 2
2 2 2
0 0 0
0 0 0
2 2 2
2 2 2
2 2 2
2 2 2
2 2 2
2 2 2
2 2 2
2 2 2
2 2 2
2 2 2
1 1 1
2 2 2
3 3 3
2 2 2
3 3 3
3 3 3
3 3 3
3 3 3
3 3 3
2 2 2
2 2 2
2 2 2
5 5 5
6 6 6
18 18 18
26 26 26
75 75 75
83 83 83
71 71 71
83 83 83
55 55 55
10 10 10
10 10 10
15 15 15
10 10 10
10 10 10
14 14 14
8 8 8
2 2 2
2 2 2
2 2 2
2 2 2
2 2 2
2 2 2
2 2 2
2 2 2
2 2 2
2 2 2
0 0 0
0 0 0
2 2 2
2 2 2
2 2 2
2 2 2
2 2 2
2 2 2
2 2 2
2 2 2
2 2 2
1 1 1
2 2 2
3 3 3
3 3 3
3 3 3
3 3 3
3 3 3
3 3 3
4 4 4
3 3 3
4 4 4
4 4 4
5 5 5
11 11 11
36 36 36
72 72 72
82 82 82
82 82 82
79 79 79
82 82 82
78 78 78
75 75 75
81 81 81
68 68 68
34 34 34
12 12 12
16 16 16
14 14 14
20 20 20
15 15 15
2 2 2
2 2 2
2 2 2
2 2 2
2 2 2
2 2 2
2 2 2
2 2 2
2 2 2
0 0 0
0 0 0
2 2 2
2 2 2
2 2 2
2 2 2
2 2 2
2 2 2
2 2 2
2 2 2
1 1 1
3 3 3
3 3 3
3 3 3
3 3 3
3 3 3
3 3 3
4 4 4
5 5 5
4 4 4
3 3 3
6 6 6
9 9 9
22 22 22
74 74 74
87 87 87
88 88 88
100 100 100
137 137 137
188 188 188
206 206 206
200 200 200
191 191 191
187 187 187
162 162 162
114 114 114
89 89 89
80 80 80
36 36 36
12 12 12
11 11 11
11 11 11
4 4 4
2 2 2
2 2 2
2 2 2
2 2 2
2 2 2
2 2 2
2 2 2
0 0 0
0 0 0
2 2 2
2 2 2
2 2 2
2 2 2
2 2 2
2 2 2
2 2 2
2 2 2
2 2 2
2 2 2
3 3 3
4 4 4
4 4 4
3 3 3
3 3 3
4 4 4
3 3 3
5 5 5
73 73 73
83 83 83
85 85 85
88 88 88
91 91 91
137 137 137
127 127 127
90 90 90
90 90 90
89 89 89
91 91 91
90 90 90
88 88 88
104 104 104
139 139 139
168 168 168
178 178 178
196 196 196
126 126 126
85 85 85
56 56 56
11 11 11
10 10 10
10 10 10
2 2 2
2 2 2
2 2 2
2 2 2
2 2 2
2 2 2
0 0 0
0 0 0
2 2 2
2 2 2
2 2 2
2 2 2
2 2 2
2 2 2
2 2 2
2 2 2
2 2 2
3 3 3
3 3 3
3 3 3
2 2 2
17 17 17
4 4 4
9 9 9
59 59 59
80 80 80
81 81 81
85 85 85
91 91 91
138 138 138
100 100 100
86 86 86
86 86 86
86 86 86
86 86 86
87 87 87
87 87 87
87 87 87
87 87 87
86 86 86
86 86 86
87 87 87
92 92 92
156 156 156
172 172 172
194 194 194
113 113 113
85 85 85
15 15 15
22 22 22
5 5 5
2 2 2
2 2 2
2 2 2
2 2 2
2 2 2
0 0 0
0 0 0
2 2 2
2 2 2
2 2 2
2 2 2
2 2 2
2 2 2
2 2 2
3 3 3
2 2 2
3 3 3
2 2 2
29 29 29
84 84 84
80 80 80
81 81 81
84 84 84
81 81 81
83 83 83
87 87 87
122 122 122
144 144 144
93 93 93
85 85 85
86 86 86
86 86 86
86 86 86
86 86 86
87 87 87
87 87 87
87 87 87
87 87 87
87 87 87
87 87 87
86 86 86
87 87 87
87 87 87
97 97 97
168 168 168
177 177 177
137 137 137
77 77 77
13 13 13
53 53 53
2 2 2
2 2 2
2 2 2
2 2 2
2 2 2
0 0 0
0 0 0
2 2 2
2 2 2
2 2 2
2 2 2
2 2 2
2 2 2
2 2 2
3 3 3
4 4 4
2 2 2
69 69 69
81 81 81
83 83 83
135 135 135
77 77 77
82 82 82
87 87 87
85 85 85
151 151 151
86 86 86
86 86 86
85 85 85
86 86 86
86 86 86
85 85 85
86 86 86
87 87 87
87 87 87
87 87 87
87 87 87
87 87 87
86 86 86
87 87 87
87 87 87
87 87 87
88 88 88
87 87 87
88 88 88
113 113 113
173 173 173
157 157 157
73 73 73
31 31 31
22 22 22
2 2 2
2 2 2
2 2 2
2 2 2
0 0 0
0 0 0
2 2 2
2 2 2
2 2 2
2 2 2
2 2 2
2 2 2
1 1 1
1 1 1
1 1 1
53 53 53
78 78 78
150 150 150
181 181 181
89 89 89
84 84 84
86 86 86
87 87 87
140 140 140
86 86 86
85 85 85
85 85 85
86 86 86
86 86 86
86 86 86
87 87 87
86 86 86
87 87 87
87 87 87
87 87 87
86 86 86
87 87 87
87 87 87
87 87 87
87 87 87
87 87 87
88 88 88
88 88 88
88 88 88
87 87 87
132 132 132
180 180 180
161 161 161
56 56 56
49 49 49
22 22 22
2 2 2
2 2 2
2 2 2
0 0 0
0 0 0
2 2 2
2 2 2
2 2 2
3 3 3
2 2 2
1 1 1
1 1 1
1 1 1
1 1 1
75 75 75
83 83 83
140 140 140
158 158 158
108 108 108
83 83 83
85 85 85
122 122 122
101 101 101
84 84 84
85 85 85
86 86 86
86 86 86
86 86 86
86 86 86
86 86 86
86 86 86
86 86 86
87 87 87
86 86 86
86 86 86
87 87 87
87 87 87
87 87 87
87 87 87
87 87 87
88 88 88
87 87 87
88 88 88
87 87 87
88 88 88
157 157 157
186 186 186
111 111 111
50 50 50
20 20 20
7 7 7
2 2 2
2 2 2
0 0 0
0 0 0
2 2 2
2 2 2
2 2 2
2 2 2
2 2 2
3 3 3
2 2 2
1 1 1
13 13 13
83 83 83
78 78 78
76 76 76
77 77 77
135 135 135
78 78 78
87 87 87
119 119 119
85 85 85
84 84 84
85 85 85
86 86 86
86 86 86
86 86 86
86 86 86
86 86 86
86 86 86
87 87 87
86 86 86
87 87 87
87 87 87
86 86 86
85 85 85
86 86 86
86 86 86
87 87 87
87 87 87
87 87 87
88 88 88
88 88 88
88 88 88
89 89 89
174 174 174
201 201 201
77 77 77
21 21 21
91 91 91
2 2 2
2 2 2
0 0 0
0 0 0
2 2 2
2 2 2
2 2 2
3 3 3
3 3 3
3 3 3
2 2 2
1 1 1
56 56 56
82 82 82
84 84 84
84 84 84
82 82 82
77 77 77
120 120 120
91 91 91
112 112 112
87 87 87
85 85 85
86 86 86
86 86 86
86 86 86
86 86 86
87 87 87
86 86 86
86 86 86
86 86 86
86 86 86
86 86 86
87 87 87
86 86 86
85 85 85
86 86 86
86 86 86
87 87 87
87 87 87
87 87 87
88 88 88
88 88 88
88 88 88
88 88 88
130 130 130
175 175 175
119 119 119
47 47 47
82 82 82
5 5 5
2 2 2
0 0 0
0 0 0
2 2 2
2 2 2
2 2 2
3 3 3
2 2 2
3 3 3
3 3 3
2 2 2
84 84 84
82 82 82
87 87 87
85 85 85
83 83 83
78 78 78
80 80 80
107 107 107
123 123 123
97 97 97
84 84 84
86 86 86
86 86 86
86 86 86
87 87 87
85 85 85
86 86 86
86 86 86
86 86 86
86 86 86
86 86 86
86 86 86
86 86 86
86 86 86
87 87 87
87 87 87
87 87 87
88 88 88
88 88 88
88 88 88
88 88 88
88 88 88
88 88 88
87 87 87
167 167 167
194 194 194
59 59 59
64 64 64
27 27 27
2 2 2
0 0 0
0 0 0
2 2 2
2 2 2
3 3 3
3 3 3
2 2 2
3 3 3
3 3 3
0 0 0
86 86 86
83 83 83
83 83 83
83 83 83
83 83 83
82 82 82
69 69 69
103 103 103
101 101 101
131 131 131
95 95 95
86 86 86
86 86 86
86 86 86
86 86 86
86 86 86
86 86 86
86 86 86
86 86 86
86 86 86
87 87 87
86 86 86
87 87 87
86 86 86
87 87 87
87 87 87
87 87 87
87 87 87
88 88 88
88 88 88
87 87 87
89 89 89
88 88 88
87 87 87
126 126 126
171 171 171
73 73 73
44 44 44
18 18 18
3 3 3
0 0 0
0 0 0
2 2 2
3 3 3
2 2 2
3 3 3
2 2 2
3 3 3
1 1 1
8 8 8
89 89 89
85 85 85
76 76 76
79 79 79
77 77 77
69 69 69
42 42 42
104 104 104
110 110 110
86 86 86
95 95 95
88 88 88
87 87 87
87 87 87
87 87 87
87 87 87
86 86 86
86 86 86
87 87 87
85 85 85
86 86 86
87 87 87
87 87 87
86 86 86
86 86 86
87 87 87
86 86 86
87 87 87
88 88 88
88 88 88
88 88 88
88 88 88
88 88 88
87 87 87
96 96 96
162 162 162
82 82 82
33 33 33
16 16 16
21 21 21
0 0 0
0 0 0
1 1 1
2 2 2
2 2 2
1 1 1
2 2 2
1 1 1
10 10 10
72 72 72
127 127 127
68 68 68
95 95 95
120 120 120
41 41 41
19 19 19
21 21 21
55 55 55
20 20 20
2 2 2
23 23 23
97 97 97
89 89 89
88 88 88
89 89 89
84 84 84
86 86 86
86 86 86
87 87 87
86 86 86
86 86 86
86 86 86
86 86 86
87 87 87
87 87 87
87 87 87
87 87 87
87 87 87
87 87 87
88 88 88
88 88 88
88 88 88
87 87 87
87 87 87
98 98 98
150 150 150
88 88 88
27 27 27
15 15 15
22 22 22
0 0 0
0 0 0
1 1 1
2 2 2
1 1 1
0 0 0
3 3 3
53 53 53
88 88 88
131 131 131
88 88 88
99 99 99
21 21 21
51 51 51
32 32 32
65 65 65
42 42 42
43 43 43
47 47 47
1 1 1
21 21 21
71 71 71
92 92 92
95 95 95
90 90 90
85 85 85
86 86 86
87 87 87
86 86 86
87 87 87
86 86 86
86 86 86
86 86 86
86 86 86
86 86 86
86 86 86
88 88 88
87 87 87
88 88 88
87 87 87
87 87 87
88 88 88
87 87 87
87 87 87
155 155 155
139 139 139
86 86 86
24 24 24
16 16 16
16 16 16
0 0 0
0 0 0
1 1 1
2 2 2
7 7 7
68 68 68
83 83 83
52 52 52
10 10 10
30 30 30
62 62 62
33 33 33
29 29 29
42 42 42
47 47 47
70 70 70
61 61 61
40 40 40
76 76 76
51 51 51
3 3 3
14 14 14
69 69 69
91 91 91
88 88 88
86 86 86
87 87 87
87 87 87
87 87 87
87 87 87
86 86 86
86 86 86
86 86 86
87 87 87
86 86 86
86 86 86
87 87 87
87 87 87
86 86 86
87 87 87
87 87 87
88 88 88
88 88 88
90 90 90
169 169 169
151 151 151
88 88 88
21 21 21
18 18 18
14 14 14
0 0 0
0 0 0
0 0 0
0 0 0
39 39 39
85 85 85
73 73 73
88 88 88
90 90 90
89 89 89
91 91 91
90 90 90
58 58 58
41 41 41
42 42 42
58 58 58
41 41 41
46 46 46
33 33 33
2 2 2
3 3 3
19 19 19
60 60 60
99 99 99
89 89 89
87 87 87
86 86 86
87 87 87
87 87 87
87 87 87
86 86 86
87 87 87
87 87 87
86 86 86
86 86 86
87 87 87
87 87 87
87 87 87
87 87 87
87 87 87
88 88 88
88 88 88
88 88 88
88 88 88
180 180 180
163 163 163
90 90 90
19 19 19
21 21 21
15 15 15
0 0 0
0 0 0
1 1 1
1 1 1
6 6 6
75 75 75
84 84 84
68 68 68
22 22 22
0 0 0
1 1 1
0 0 0
89 89 89
73 73 73
39 39 39
44 44 44
41 41 41
44 44 44
47 47 47
1 1 1
1 1 1
76 76 76
95 95 95
93 93 93
90 90 90
84 84 84
86 86 86
86 86 86
86 86 86
86 86 86
86 86 86
86 86 86
86 86 86
87 87 87
87 87 87
87 87 87
87 87 87
87 87 87
87 87 87
87 87 87
87 87 87
88 88 88
88 88 88
87 87 87
154 154 154
179 179 179
85 85 85
16 16 16
21 21 21
15 15 15
0 0 0
0 0 0
1 1 1
1 1 1
1 1 1
0 0 0
11 11 11
68 68 68
84 84 84
132 132 132
167 167 167
99 99 99
77 77 77
97 97 97
92 92 92
18 18 18
43 43 43
103 103 103
18 18 18
31 31 31
85 85 85
96 96 96
88 88 88
88 88 88
95 95 95
90 90 90
86 86 86
86 86 86
86 86 86
86 86 86
87 87 87
87 87 87
87 87 87
87 87 87
87 87 87
88 88 88
87 87 87
87 87 87
87 87 87
87 87 87
87 87 87
88 88 88
88 88 88
87 87 87
166 166 166
191 191 191
67 67 67
16 16 16
23 23 23
14 14 14
0 0 0
0 0 0
1 1 1
1 1 1
2 2 2
0 0 0
0 0 0
0 0 0
7 7 7
63 63 63
90 90 90
140 140 140
82 82 82
84 84 84
106 106 106
34 34 34
14 14 14
70 70 70
107 107 107
96 96 96
110 110 110
87 87 87
87 87 87
86 86 86
86 86 86
89 89 89
87 87 87
87 87 87
86 86 86
86 86 86
86 86 86
86 86 86
87 87 87
87 87 87
87 87 87
87 87 87
87 87 87
88 88 88
88 88 88
88 88 88
87 87 87
88 88 88
88 88 88
87 87 87
176 176 176
178 178 178
34 34 34
17 17 17
22 22 22
13 13 13
0 0 0
0 0 0
1 1 1
2 2 2
1 1 1
2 2 2
1 1 1
1 1 1
1 1 1
0 0 0
28 28 28
100 100 100
83 83 83
82 82 82
84 84 84
85 85 85
43 43 43
15 15 15
98 98 98
125 125 125
86 86 86
86 86 86
87 87 87
86 86 86
86 86 86
88 88 88
90 90 90
86 86 86
86 86 86
86 86 86
86 86 86
87 87 87
87 87 87
87 87 87
87 87 87
87 87 87
87 87 87
87 87 87
87 87 87
87 87 87
87 87 87
87 87 87
88 88 88
147 147 147
181 181 181
92 92 92
30 30 30
17 17 17
22 22 22
12 12 12
0 0 0
0 0 0
2 2 2
2 2 2
1 1 1
2 2 2
2 2 2
1 1 1
1 1 1
2 2 2
2 2 2
86 86 86
82 82 82
87 87 87
84 84 84
81 81 81
81 81 81
100 100 100
101 101 101
135 135 135
85 85 85
86 86 86
87 87 87
87 87 87
87 87 87
87 87 87
87 87 87
87 87 87
86 86 86
86 86 86
87 87 87
87 87 87
87 87 87
87 87 87
87 87 87
86 86 86
87 87 87
88 88 88
87 87 87
87 87 87
88 88 88
87 87 87
89 89 89
180 180 180
183 183 183
61 61 61
35 35 35
15 15 15
20 20 20
14 14 14
0 0 0
0 0 0
1 1 1
1 1 1
1 1 1
1 1 1
2 2 2
2 2 2
1 1 1
2 2 2
1 1 1
80 80 80
80 80 80
85 85 85
82 82 82
78 78 78
83 83 83
109 109 109
100 100 100
118 118 118
85 85 85
86 86 86
87 87 87
87 87 87
87 87 87
87 87 87
87 87 87
87 87 87
87 87 87
87 87 87
86 86 86
87 87 87
87 87 87
87 87 87
87 87 87
87 87 87
88 88 88
87 87 87
88 88 88
88 88 88
88 88 88
88 88 88
153 153 153
189 189 189
83 83 83
34 34 34
38 38 38
14 14 14
19 19 19
15 15 15
0 0 0
0 0 0
1 1 1
1 1 1
1 1 1
1 1 1
1 1 1
2 2 2
2 2 2
3 3 3
2 2 2
32 32 32
84 84 84
79 79 79
77 77 77
80 80 80
93 93 93
85 85 85
91 91 91
120 120 120
93 93 93
86 86 86
86 86 86
87 87 87
86 86 86
87 87 87
89 89 89
97 97 97
87 87 87
87 87 87
87 87 87
88 88 88
87 87 87
87 87 87
87 87 87
87 87 87
88 88 88
88 88 88
87 87 87
88 88 88
87 87 87
119 119 119
187 187 187
109 109 109
59 59 59
22 22 22
32 32 32
15 15 15
16 16 16
14 14 14
0 0 0
0 0 0
1 1 1
0 0 0
1 1 1
0 0 0
0 0 0
0 0 0
1 1 1
2 2 2
2 2 2
10 10 10
83 83 83
85 85 85
110 110 110
133 133 133
85 85 85
85 85 85
85 85 85
144 144 144
145 145 145
85 85 85
86 86 86
86 86 86
87 87 87
87 87 87
87 87 87
87 87 87
87 87 87
87 87 87
87 87 87
87 87 87
87 87 87
87 87 87
87 87 87
87 87 87
87 87 87
87 87 87
87 87 87
87 87 87
125 125 125
186 186 186
125 125 125
77 77 77
26 26 26
28 28 28
41 41 41
16 16 16
14 14 14
14 14 14
0 0 0
0 0 0
1 1 1
1 1 1
2 2 2
2 2 2
1 1 1
1 1 1
1 1 1
1 1 1
0 0 0
0 0 0
46 46 46
140 140 140
160 160 160
89 89 89
84 84 84
87 87 87
87 87 87
86 86 86
132 132 132
143 143 143
89 89 89
86 86 86
86 86 86
87 87 87
87 87 87
87 87 87
86 86 86
87 87 87
87 87 87
87 87 87
87 87 87
87 87 87
87 87 87
87 87 87
87 87 87
87 87 87
93 93 93
176 176 176
200 200 200
104 104 104
75 75 75
29 29 29
34 34 34
41 41 41
37 37 37
21 21 21
13 13 13
14 14 14
0 0 0
0 0 0
2 2 2
3 3 3
3 3 3
2 2 2
2 2 2
1 1 1
1 1 1
1 1 1
0 0 0
0 0 0
2 2 2
63 63 63
94 94 94
176 176 176
107 107 107
77 77 77
78 78 78
85 85 85
85 85 85
151 151 151
118 118 118
91 91 91
87 87 87
87 87 87
86 86 86
87 87 87
86 86 86
87 87 87
87 87 87
87 87 87
87 87 87
86 86 86
87 87 87
87 87 87
87 87 87
121 121 121
183 183 183
201 201 201
96 96 96
66 66 66
16 16 16
26 26 26
37 37 37
34 34 34
16 16 16
28 28 28
12 12 12
18 18 18
0 0 0
0 0 0
2 2 2
3 3 3
2 2 2
3 3 3
2 2 2
2 2 2
1 1 1
1 1 1
1 1 1
0 0 0
0 0 0
0 0 0
47 47 47
79 79 79
82 82 82
82 82 82
81 81 81
81 81 81
80 80 80
81 81 81
94 94 94
147 147 147
95 95 95
88 88 88
87 87 87
87 87 87
87 87 87
87 87 87
87 87 87
87 87 87
87 87 87
87 87 87
88 88 88
108 108 108
186 186 186
196 196 196
125 125 125
84 84 84
52 52 52
25 25 25
13 13 13
26 26 26
23 23 23
32 32 32
10 10 10
41 41 41
13 13 13
27 27 27
0 0 0
0 0 0
2 2 2
3 3 3
3 3 3
3 3 3
2 2 2
3 3 3
2 2 2
2 2 2
3 3 3
2 2 2
3 3 3
1 1 1
0 0 0
1 1 1
15 15 15
40 40 40
71 71 71
78 78 78
79 79 79
81 81 81
83 83 83
84 84 84
96 96 96
149 149 149
139 139 139
113 113 113
90 90 90
88 88 88
110 110 110
111 111 111
125 125 125
165 165 165
188 188 188
191 191 191
112 112 112
80 80 80
35 35 35
7 7 7
17 17 17
6 6 6
24 24 24
14 14 14
10 10 10
45 45 45
8 8 8
60 60 60
13 13 13
2 2 2
0 0 0
0 0 0
2 2 2
3 3 3
3 3 3
3 3 3
3 3 3
3 3 3
3 3 3
3 3 3
3 3 3
2 2 2
3 3 3
2 2 2
1 1 1
1 1 1
2 2 2
1 1 1
2 2 2
1 1 1
2 2 2
1 1 1
4 4 4
17 17 17
50 50 50
85 85 85
90 90 90
96 96 96
124 124 124
161 161 161
182 182 182
223 223 223
203 203 203
122 122 122
86 86 86
60 60 60
19 19 19
17 17 17
5 5 5
14 14 14
24 24 24
19 19 19
24 24 24
11 11 11
19 19 19
41 41 41
9 9 9
78 78 78
22 22 22
2 2 2
0 0 0
0 0 0
2 2 2
2 2 2
2 2 2
3 3 3
2 2 2
3 3 3
3 3 3
3 3 3
3 3 3
3 3 3
4 4 4
4 4 4
2 2 2
2 2 2
2 2 2
2 2 2
3 3 3
4 4 4
4 4 4
3 3 3
3 3 3
3 3 3
2 2 2
3 3 3
1 1 1
4 4 4
23 23 23
10 10 10
24 24 24
43 43 43
37 37 37
27 27 27
13 13 13
7 7 7
3 3 3
3 3 3
5 5 5
18 18 18
23 23 23
18 18 18
18 18 18
28 28 28
16 16 16
12 12 12
11 11 11
78 78 78
8 8 8
2 2 2
0 0 0
0 0 0
2 2 2
2 2 2
2 2 2
2 2 2
2 2 2
2 2 2
3 3 3
3 3 3
3 3 3
3 3 3
3 3 3
3 3 3
4 4 4
4 4 4
3 3 3
3 3 3
4 4 4
4 4 4
4 4 4
3 3 3
2 2 2
2 2 2
3 3 3
2 2 2
1 1 1
3 3 3
5 5 5
19 19 19
31 31 31
7 7 7
3 3 3
4 4 4
4 4 4
3 3 3
4 4 4
4 4 4
3 3 3
19 19 19
24 24 24
18 18 18
14 14 14
25 25 25
31 31 31
7 7 7
14 14 14
64 64 64
2 2 2
2 2 2
0 0 0
0 0 0
2 2 2
2 2 2
2 2 2
3 3 3
3 3 3
3 3 3
3 3 3
3 3 3
3 3 3
3 3 3
3 3 3
3 3 3
3 3 3
3 3 3
3 3 3
3 3 3
3 3 3
3 3 3
4 4 4
3 3 3
1 1 1
2 2 2
2 2 2
2 2 2
2 2 2
1 1 1
2 2 2
3 3 3
3 3 3
4 4 4
4 4 4
4 4 4
4 4 4
4 4 4
4 4 4
5 5 5
5 5 5
10 10 10
18 18 18
32 32 32
19 19 19
27 27 27
51 51 51
8 8 8
15 15 15
10 10 10
2 2 2
2 2 2
0 0 0
0 0 0
2 2 2
2 2 2
2 2 2
1 1 1
1 1 1
1 1 1
2 2 2
3 3 3
3 3 3
3 3 3
3 3 3
3 3 3
3 3 3
3 3 3
3 3 3
3 3 3
3 3 3
3 3 3
3 3 3
3 3 3
2 2 2
1 1 1
2 2 2
2 2 2
3 3 3
3 3 3
2 2 2
4 4 4
4 4 4
4 4 4
3 3 3
4 4 4
5 5 5
5 5 5
4 4 4
5 5 5
6 6 6
14 14 14
12 12 12
23 23 23
14 14 14
30 30 30
31 31 31
14 14 14
35 35 35
2 2 2
2 2 2
2 2 2
0 0 0
0 0 0
2 2 2
2 2 2
2 2 2
2 2 2
2 2 2
1 1 1
1 1 1
1 1 1
1 1 1
2 2 2
3 3 3
3 3 3
3 3 3
3 3 3
3 3 3
3 3 3
3 3 3
3 3 3
3 3 3
3 3 3
4 4 4
2 2 2
2 2 2
4 4 4
4 4 4
4 4 4
3 3 3
4 4 4
4 4 4
4 4 4
4 4 4
4 4 4
5 5 5
5 5 5
5 5 5
5 5 5
12 12 12
17 17 17
14 14 14
16 16 16
17 17 17
24 24 24
14 14 14
15 15 15
2 2 2
2 2 2
2 2 2
2 2 2
0 0 0
0 0 0
2 2 2
2 2 2
2 2 2
2 2 2
2 2 2
1 1 1
1 1 1
1 1 1
1 1 1
1 1 1
1 1 1
1 1 1
2 2 2
3 3 3
3 3 3
3 3 3
3 3 3
3 3 3
3 3 3
3 3 3
4 4 4
4 4 4
4 4 4
4 4 4
4 4 4
4 4 4
4 4 4
5 5 5
4 4 4
4 4 4
5 5 5
5 5 5
4 4 4
4 4 4
4 4 4
4 4 4
3 3 3
9 9 9
20 20 20
7 7 7
24 24 24
54 54 54
13 13 13
5 5 5
2 2 2
2 2 2
2 2 2
2 2 2
0 0 0
0 0 0
2 2 2
2 2 2
2 2 2
2 2 2
2 2 2
2 2 2
0 0 0
1 1 1
1 1 1
1 1 1
1 1 1
1 1 1
1 1 1
1 1 1
2 2 2
2 2 2
3 3 3
3 3 3
3 3 3
3 3 3
3 3 3
3 3 3
4 4 4
4 4 4
3 3 3
3 3 3
4 4 4
4 4 4
4 4 4
4 4 4
3 3 3
5 5 5
5 5 5
10 10 10
4 4 4
11 11 11
14 14 14
17 17 17
18 18 18
27 27 27
28 28 28
31 31 31
10 10 10
2 2 2
2 2 2
2 2 2
2 2 2
2 2 2
0 0 0
0 0 0
2 2 2
2 2 2
2 2 2
2 2 2
2 2 2
2 2 2
2 2 2
1 1 1
1 1 1
1 1 1
1 1 1
0 0 0
1 1 1
1 1 1
1 1 1
2 2 2
2 2 2
2 2 2
2 2 2
2 2 2
3 3 3
3 3 3
3 3 3
3 3 3
3 3 3
4 4 4
4 4 4
4 4 4
4 4 4
4 4 4
4 4 4
9 9 9
6 6 6
5 5 5
13 13 13
18 18 18
16 16 16
20 20 20
22 22 22
32 32 32
33 33 33
18 18 18
2 2 2
2 2 2
2 2 2
2 2 2
2 2 2
2 2 2
0 0 0
0 0 0
2 2 2
2 2 2
2 2 2
2 2 2
2 2 2
2 2 2
2 2 2
2 2 2
1 1 1
1 1 1
1 1 1
1 1 1
1 1 1
1 1 1
1 1 1
2 2 2
2 2 2
1 1 1
2 2 2
2 2 2
2 2 2
2 2 2
3 3 3
3 3 3
4 4 4
4 4 4
4 4 4
4 4 4
4 4 4
3 3 3
10 10 10
10 10 10
4 4 4
8 8 8
13 13 13
19 19 19
15 15 15
18 18 18
33 33 33
31 31 31
19 19 19
2 2 2
2 2 2
2 2 2
2 2 2
2 2 2
2 2 2
2 2 2
0 0 0
0 0 0
2 2 2
2 2 2
2 2 2
2 2 2
2 2 2
2 2 2
2 2 2
2 2 2
2 2 2
1 1 1
1 1 1
1 1 1
1 1 1
1 1 1
1 1 1
1 1 1
1 1 1
2 2 2
1 1 1
2 2 2
2 2 2
2 2 2
2 2 2
2 2 2
2 2 2
2 2 2
3 3 3
3 3 3
3 3 3
6 6 6
4 4 4
5 5 5
12 12 12
14 14 14
9 9 9
16 16 16
8 8 8
18 18 18
42 42 42
6 6 6
2 2 2
2 2 2
2 2 2
2 2 2
2 2 2
2 2 2
2 2 2
2 2 2
0 0 0
0 0 0
2 2 2
2 2 2
2 2 2
2 2 2
2 2 2
2 2 2
2 2 2
2 2 2
2 2 2
2 2 2
1 1 1
1 1 1
1 1 1
0 0 0
1 1 1
1 1 1
1 1 1
1 1 1
1 1 1
1 1 1
1 1 1
1 1 1
5 5 5
18 18 18
13 13 13
1 1 1
2 2 2
3 3 3
2 2 2
8 8 8
9 9 9
4 4 4
11 11 11
9 9 9
5 5 5
13 13 13
22 22 22
27 27 27
2 2 2
2 2 2
2 2 2
2 2 2
2 2 2
2 2 2
2 2 2
2 2 2
2 2 2
2 2 2
0 0 0
0 0 0
2 2 2
2 2 2
2 2 2
2 2 2
2 2 2
2 2 2
2 2 2
2 2 2
2 2 2
2 2 2
2 2 2
2 2 2
0 0 0
1 1 1
1 1 1
1 1 1
1 1 1
1 1 1
1 1 1
1 1 1
2 2 2
2 2 2
2 2 2
2 2 2
13 13 13
3 3 3
2 2 2
2 2 2
3 3 3
8 8 8
11 11 11
4 4 4
6 6 6
10 10 10
6 6 6
17 17 17
3 3 3
2 2 2
2 2 2
2 2 2
2 2 2
2 2 2
2 2 2
2 2 2
2 2 2
2 2 2
2 2 2
2 2 2
0 0 0
0 0 0
2 2 2
2 2 2
2 2 2
2 2 2
2 2 2
2 2 2
2 2 2
2 2 2
2 2 2
2 2 2
2 2 2
2 2 2
2 2 2
2 2 2
1 1 1
1 1 1
1 1 1
1 1 1
1 1 1
1 1 1
2 2 2
2 2 2
2 2 2
2 2 2
2 2 2
13 13 13
3 3 3
2 2 2
3 3 3
3 3 3
7 7 7
16 16 16
13 13 13
12 12 12
3 3 3
2 2 2
2 2 2
2 2 2
2 2 2
2 2 2
2 2 2
2 2 2
2 2 2
2 2 2
2 2 2
2 2 2
2 2 2
2 2 2
0 0 0
0 0 0
2 2 2
2 2 2
2 2 2
2 2 2
2 2 2
2 2 2
2 2 2
2 2 2
2 2 2
2 2 2
2 2 2
2 2 2
2 2 2
2 2 2
2 2 2
2 2 2
1 1 1
1 1 1
1 1 1
2 2 2
2 2 2
1 1 1
2 2 2
2 2 2
2 2 2
3 3 3
9 9 9
3 3 3
4 4 4
4 4 4
7 7 7
9 9 9
2 2 2
2 2 2
2 2 2
2 2 2
2 2 2
2 2 2
2 2 2
2 2 2
2 2 2
2 2 2
2 2 2
2 2 2
2 2 2
2 2 2
2 2 2
2 2 2
0 0 0
0 0 0
0 0 0
0 0 0
0 0 0
0 0 0
0 0 0
0 0 0
0 0 0
0 0 0
0 0 0
0 0 0
0 0 0
0 0 0
0 0 0
0 0 0
0 0 0
0 0 0
0 0 0
0 0 0
0 0 0
0 0 0
0 0 0
0 0 0
0 0 0
0 0 0
0 0 0
0 0 0
0 0 0
0 0 0
0 0 0
0 0 0
0 0 0
0 0 0
0 0 0
0 0 0
0 0 0
0 0 0
0 0 0
0 0 0
0 0 0
0 0 0
0 0 0
0 0 0
0 0 0
0 0 0
0 0 0
0 0 0
0 0 0
0 0 0
0 0 0
