P3 
50 50 
255
0 0 0
0 0 0
0 0 0
0 0 0
0 0 0
0 0 0
0 0 0
0 0 0
0 0 0
0 0 0
0 0 0
0 0 0
0 0 0
0 0 0
0 0 0
0 0 0
0 0 0
0 0 0
0 0 0
0 0 0
0 0 0
0 0 0
0 0 0
0 0 0
0 0 0
0 0 0
0 0 0
0 0 0
0 0 0
0 0 0
0 0 0
0 0 0
0 0 0
0 0 0
0 0 0
0 0 0
0 0 0
0 0 0
0 0 0
0 0 0
0 0 0
0 0 0
0 0 0
0 0 0
0 0 0
0 0 0
0 0 0
0 0 0
0 0 0
0 0 0
0 0 0
2 2 2
2 2 2
2 2 2
2 2 2
2 2 2
2 2 2
2 2 2
2 2 2
2 2 2
2 2 2
2 2 2
2 2 2
2 2 2
2 2 2
2 2 2
2 2 2
2 2 2
1 1 1
1 1 1
2 2 2
2 2 2
1 1 1
3 3 3
4 4 4
4 4 4
4 4 4
3 3 3
4 4 4
4 4 4
6 6 6
6 6 6
3 3 3
2 2 2
2 2 2
2 2 2
2 2 2
2 2 2
2 2 2
2 2 2
2 2 2
2 2 2
2 2 2
2 2 2
2 2 2
2 2 2
2 2 2
2 2 2
2 2 2
0 0 0
0 0 0
2 2 2
2 2 2
2 2 2
2 2 2
2 2 2
2 2 2
2 2 2
2 2 2
2 2 2
2 2 2
2 2 2
2 2 2
2 2 2
2 2 2
1 1 1
1 1 1
1 1 1
1 1 1
2 2 2
1 1 1
1 1 1
11 11 11
3 3 3
3 3 3
4 4 4
2 2 2
2 2 2
14 14 14
16 16 16
9 9 9
11 11 11
17 17 17
7 7 7
12 12 12
2 2 2
2 2 2
2 2 2
2 2 2
2 2 2
2 2 2
2 2 2
2 2 2
2 2 2
2 2 2
2 2 2
2 2 2
2 2 2
2 2 2
0 0 0
0 0 0
2 2 2
2 2 2
2 2 2
2 2 2
2 2 2
2 2 2
2 2 2
2 2 2
2 2 2
2 2 2
2 2 2
2 2 2
1 1 1
1 1 1
1 1 1
1 1 1
1 1 1
1 1 1
2 2 2
1 1 1
5 5 5
2 2 2
2 2 2
3 3 3
3 3 3
5 5 5
8 8 8
8 8 8
8 8 8
8 8 8
10 10 10
12 12 12
13 13 13
6 6 6
15 15 15
18 18 18
2 2 2
2 2 2
2 2 2
2 2 2
2 2 2
2 2 2
2 2 2
2 2 2
2 2 2
2 2 2
2 2 2
2 2 2
0 0 0
0 0 0
2 2 2
2 2 2
2 2 2
2 2 2
2 2 2
2 2 2
2 2 2
2 2 2
2 2 2
2 2 2
1 1 1
1 1 1
1 1 1
1 1 1
1 1 1
1 1 1
1 1 1
2 2 2
2 2 2
4 4 4
10 10 10
2 2 2
2 2 2
3 3 3
6 6 6
7 7 7
11 11 11
8 8 8
3 3 3
11 11 11
5 5 5
13 13 13
2 2 2
6 6 6
11 11 11
14 14 14
7 7 7
8 8 8
2 2 2
2 2 2
2 2 2
2 2 2
2 2 2
2 2 2
2 2 2
2 2 2
2 2 2
2 2 2
0 0 0
0 0 0
2 2 2
2 2 2
2 2 2
2 2 2
2 2 2
2 2 2
2 2 2
2 2 2
2 2 2
1 1 1
1 1 1
1 1 1
1 1 1
1 1 1
2 2 2
2 2 2
2 2 2
2 2 2
3 3 3
9 9 9
2 2 2
6 6 6
7 7 7
7 7 7
5 5 5
5 5 5
3 3 3
8 8 8
2 2 2
7 7 7
4 4 4
10 10 10
17 17 17
16 16 16
7 7 7
16 16 16
9 9 9
6 6 6
9 9 9
2 2 2
2 2 2
2 2 2
2 2 2
2 2 2
2 2 2
2 2 2
2 2 2
2 2 2
0 0 0
0 0 0
2 2 2
2 2 2
2 2 2
2 2 2
2 2 2
2 2 2
2 2 2
2 2 2
1 1 1
1 1 1
1 1 1
1 1 1
1 1 1
1 1 1
2 2 2
2 2 2
2 2 2
5 5 5
14 14 14
8 8 8
12 12 12
9 9 9
6 6 6
13 13 13
4 4 4
15 15 15
8 8 8
7 7 7
6 6 6
6 6 6
14 14 14
9 9 9
7 7 7
3 3 3
9 9 9
5 5 5
15 15 15
14 14 14
7 7 7
10 10 10
4 4 4
2 2 2
2 2 2
2 2 2
2 2 2
2 2 2
2 2 2
2 2 2
0 0 0
0 0 0
2 2 2
2 2 2
2 2 2
2 2 2
2 2 2
2 2 2
2 2 2
1 1 1
1 1 1
1 1 1
1 1 1
1 1 1
1 1 1
1 1 1
2 2 2
2 2 2
7 7 7
16 16 16
9 9 9
7 7 7
1 1 1
6 6 6
14 14 14
6 6 6
6 6 6
2 2 2
9 9 9
11 11 11
7 7 7
15 15 15
4 4 4
7 7 7
10 10 10
3 3 3
4 4 4
10 10 10
4 4 4
6 6 6
5 5 5
7 7 7
11 11 11
7 7 7
2 2 2
2 2 2
2 2 2
2 2 2
2 2 2
2 2 2
0 0 0
0 0 0
2 2 2
2 2 2
2 2 2
2 2 2
2 2 2
2 2 2
1 1 1
1 1 1
1 1 1
1 1 1
1 1 1
1 1 1
2 2 2
1 1 1
3 3 3
13 13 13
11 11 11
4 4 4
8 8 8
6 6 6
4 4 4
10 10 10
6 6 6
5 5 5
6 6 6
10 10 10
11 11 11
2 2 2
12 12 12
1 1 1
7 7 7
5 5 5
10 10 10
5 5 5
10 10 10
6 6 6
4 4 4
3 3 3
4 4 4
5 5 5
7 7 7
46 46 46
4 4 4
2 2 2
2 2 2
2 2 2
2 2 2
2 2 2
0 0 0
0 0 0
2 2 2
2 2 2
2 2 2
2 2 2
2 2 2
2 2 2
2 2 2
1 1 1
1 1 1
1 1 1
2 2 2
2 2 2
3 3 3
7 7 7
13 13 13
3 3 3
2 2 2
1 1 1
3 3 3
13 13 13
9 9 9
20 20 20
20 20 20
11 11 11
7 7 7
2 2 2
2 2 2
8 8 8
5 5 5
11 11 11
11 11 11
10 10 10
10 10 10
14 14 14
5 5 5
5 5 5
9 9 9
10 10 10
6 6 6
5 5 5
6 6 6
15 15 15
17 17 17
2 2 2
2 2 2
2 2 2
2 2 2
2 2 2
0 0 0
0 0 0
2 2 2
2 2 2
2 2 2
2 2 2
2 2 2
1 1 1
2 2 2
1 1 1
2 2 2
1 1 1
2 2 2
6 6 6
16 16 16
7 7 7
26 26 26
60 60 60
74 74 74
77 77 77
79 79 79
82 82 82
69 69 69
82 82 82
84 84 84
87 87 87
86 86 86
51 51 51
48 48 48
33 33 33
7 7 7
8 8 8
7 7 7
4 4 4
7 7 7
15 15 15
5 5 5
9 9 9
12 12 12
13 13 13
11 11 11
9 9 9
5 5 5
5 5 5
27 27 27
19 19 19
2 2 2
2 2 2
2 2 2
2 2 2
0 0 0
0 0 0
2 2 2
2 2 2
2 2 2
2 2 2
2 2 2
2 2 2
1 1 1
2 2 2
2 2 2
2 2 2
2 2 2
5 5 5
31 31 31
77 77 77
77 77 77
77 77 77
80 80 80
85 85 85
86 86 86
79 79 79
80 80 80
84 84 84
85 85 85
86 86 86
86 86 86
90 90 90
90 90 90
89 89 89
84 84 84
14 14 14
7 7 7
5 5 5
10 10 10
10 10 10
6 6 6
4 4 4
4 4 4
12 12 12
7 7 7
13 13 13
6 6 6
5 5 5
40 40 40
14 14 14
19 19 19
2 2 2
2 2 2
2 2 2
0 0 0
0 0 0
2 2 2
2 2 2
2 2 2
2 2 2
2 2 2
2 2 2
2 2 2
2 2 2
2 2 2
3 3 3
1 1 1
45 45 45
78 78 78
77 77 77
82 82 82
86 86 86
95 95 95
139 139 139
124 124 124
112 112 112
84 84 84
85 85 85
85 85 85
84 84 84
84 84 84
80 80 80
80 80 80
87 87 87
90 90 90
85 85 85
76 76 76
13 13 13
9 9 9
13 13 13
17 17 17
11 11 11
9 9 9
14 14 14
5 5 5
10 10 10
5 5 5
4 4 4
39 39 39
11 11 11
16 16 16
5 5 5
2 2 2
2 2 2
0 0 0
0 0 0
2 2 2
2 2 2
2 2 2
2 2 2
1 1 1
2 2 2
2 2 2
2 2 2
3 3 3
2 2 2
25 25 25
78 78 78
80 80 80
84 84 84
125 125 125
183 183 183
144 144 144
130 130 130
93 93 93
82 82 82
83 83 83
87 87 87
88 88 88
88 88 88
80 80 80
80 80 80
79 79 79
86 86 86
89 89 89
89 89 89
84 84 84
82 82 82
11 11 11
4 4 4
3 3 3
17 17 17
18 18 18
14 14 14
11 11 11
4 4 4
4 4 4
5 5 5
29 29 29
8 8 8
13 13 13
83 83 83
2 2 2
2 2 2
0 0 0
0 0 0
2 2 2
2 2 2
2 2 2
2 2 2
2 2 2
2 2 2
2 2 2
3 3 3
2 2 2
13 13 13
80 80 80
84 84 84
86 86 86
177 177 177
88 88 88
106 106 106
108 108 108
85 85 85
86 86 86
86 86 86
87 87 87
88 88 88
89 89 89
82 82 82
85 85 85
87 87 87
82 82 82
85 85 85
87 87 87
88 88 88
89 89 89
83 83 83
67 67 67
10 10 10
3 3 3
10 10 10
11 11 11
5 5 5
3 3 3
4 4 4
4 4 4
4 4 4
14 14 14
8 8 8
10 10 10
60 60 60
5 5 5
2 2 2
0 0 0
0 0 0
2 2 2
2 2 2
2 2 2
2 2 2
1 1 1
2 2 2
3 3 3
2 2 2
14 14 14
81 81 81
86 86 86
93 93 93
123 123 123
86 86 86
116 116 116
85 85 85
87 87 87
87 87 87
86 86 86
86 86 86
87 87 87
87 87 87
89 89 89
86 86 86
88 88 88
86 86 86
80 80 80
86 86 86
86 86 86
85 85 85
88 88 88
90 90 90
80 80 80
13 13 13
11 11 11
13 13 13
17 17 17
8 8 8
10 10 10
6 6 6
4 4 4
4 4 4
5 5 5
13 13 13
9 9 9
37 37 37
23 23 23
2 2 2
0 0 0
0 0 0
2 2 2
1 1 1
1 1 1
2 2 2
2 2 2
3 3 3
2 2 2
10 10 10
81 81 81
87 87 87
113 113 113
127 127 127
94 94 94
107 107 107
98 98 98
87 87 87
88 88 88
88 88 88
85 85 85
87 87 87
87 87 87
87 87 87
86 86 86
98 98 98
103 103 103
85 85 85
87 87 87
83 83 83
84 84 84
84 84 84
86 86 86
89 89 89
88 88 88
64 64 64
18 18 18
13 13 13
6 6 6
6 6 6
11 11 11
6 6 6
11 11 11
5 5 5
5 5 5
33 33 33
7 7 7
23 23 23
16 16 16
3 3 3
0 0 0
0 0 0
2 2 2
1 1 1
1 1 1
1 1 1
2 2 2
2 2 2
4 4 4
84 84 84
88 88 88
153 153 153
104 104 104
100 100 100
160 160 160
130 130 130
87 87 87
86 86 86
87 87 87
88 88 88
87 87 87
88 88 88
87 87 87
87 87 87
86 86 86
118 118 118
114 114 114
123 123 123
102 102 102
86 86 86
83 83 83
86 86 86
88 88 88
89 89 89
89 89 89
82 82 82
85 85 85
64 64 64
17 17 17
11 11 11
18 18 18
6 6 6
8 8 8
7 7 7
4 4 4
41 41 41
7 7 7
16 16 16
17 17 17
19 19 19
0 0 0
0 0 0
1 1 1
0 0 0
0 0 0
1 1 1
2 2 2
2 2 2
79 79 79
87 87 87
129 129 129
129 129 129
101 101 101
172 172 172
86 86 86
86 86 86
87 87 87
84 84 84
85 85 85
87 87 87
86 86 86
22 22 22
88 88 88
88 88 88
89 89 89
87 87 87
131 131 131
104 104 104
109 109 109
85 85 85
85 85 85
80 80 80
85 85 85
88 88 88
88 88 88
88 88 88
85 85 85
83 83 83
10 10 10
7 7 7
10 10 10
13 13 13
12 12 12
11 11 11
4 4 4
31 31 31
10 10 10
12 12 12
20 20 20
20 20 20
0 0 0
0 0 0
1 1 1
0 0 0
0 0 0
1 1 1
2 2 2
16 16 16
86 86 86
94 94 94
131 131 131
154 154 154
143 143 143
84 84 84
84 84 84
86 86 86
85 85 85
87 87 87
87 87 87
88 88 88
81 81 81
35 35 35
88 88 88
88 88 88
108 108 108
127 127 127
90 90 90
125 125 125
124 124 124
119 119 119
84 84 84
84 84 84
79 79 79
87 87 87
87 87 87
88 88 88
88 88 88
79 79 79
37 37 37
8 8 8
9 9 9
5 5 5
11 11 11
16 16 16
8 8 8
26 26 26
9 9 9
10 10 10
23 23 23
14 14 14
0 0 0
0 0 0
2 2 2
1 1 1
1 1 1
0 0 0
0 0 0
70 70 70
83 83 83
140 140 140
155 155 155
91 91 91
85 85 85
87 87 87
87 87 87
87 87 87
86 86 86
88 88 88
88 88 88
89 89 89
40 40 40
0 0 0
84 84 84
110 110 110
115 115 115
111 111 111
87 87 87
85 85 85
92 92 92
101 101 101
104 104 104
87 87 87
82 82 82
79 79 79
82 82 82
86 86 86
90 90 90
79 79 79
51 51 51
17 17 17
7 7 7
11 11 11
9 9 9
11 11 11
13 13 13
31 31 31
8 8 8
9 9 9
29 29 29
13 13 13
0 0 0
0 0 0
2 2 2
2 2 2
1 1 1
2 2 2
0 0 0
83 83 83
85 85 85
158 158 158
162 162 162
85 85 85
88 88 88
88 88 88
87 87 87
86 86 86
87 87 87
87 87 87
86 86 86
89 89 89
19 19 19
0 0 0
86 86 86
104 104 104
115 115 115
116 116 116
85 85 85
85 85 85
86 86 86
110 110 110
109 109 109
119 119 119
86 86 86
81 81 81
81 81 81
85 85 85
91 91 91
79 79 79
58 58 58
9 9 9
6 6 6
10 10 10
14 14 14
11 11 11
8 8 8
42 42 42
7 7 7
9 9 9
33 33 33
14 14 14
0 0 0
0 0 0
1 1 1
1 1 1
1 1 1
2 2 2
0 0 0
83 83 83
84 84 84
147 147 147
154 154 154
85 85 85
87 87 87
88 88 88
88 88 88
86 86 86
87 87 87
87 87 87
88 88 88
88 88 88
78 78 78
10 10 10
88 88 88
111 111 111
123 123 123
131 131 131
85 85 85
85 85 85
90 90 90
108 108 108
110 110 110
114 114 114
104 104 104
79 79 79
80 80 80
87 87 87
89 89 89
82 82 82
38 38 38
12 12 12
8 8 8
16 16 16
23 23 23
12 12 12
6 6 6
37 37 37
8 8 8
8 8 8
39 39 39
14 14 14
0 0 0
0 0 0
1 1 1
1 1 1
1 1 1
1 1 1
0 0 0
78 78 78
83 83 83
96 96 96
186 186 186
110 110 110
84 84 84
83 83 83
87 87 87
87 87 87
87 87 87
87 87 87
86 86 86
87 87 87
89 89 89
88 88 88
87 87 87
91 91 91
147 147 147
109 109 109
86 86 86
85 85 85
137 137 137
103 103 103
118 118 118
96 96 96
91 91 91
81 81 81
85 85 85
88 88 88
90 90 90
82 82 82
16 16 16
9 9 9
16 16 16
14 14 14
19 19 19
13 13 13
6 6 6
22 22 22
7 7 7
8 8 8
42 42 42
12 12 12
0 0 0
0 0 0
1 1 1
1 1 1
0 0 0
1 1 1
1 1 1
10 10 10
82 82 82
86 86 86
172 172 172
145 145 145
176 176 176
88 88 88
84 84 84
86 86 86
87 87 87
85 85 85
86 86 86
86 86 86
88 88 88
88 88 88
87 87 87
88 88 88
88 88 88
99 99 99
136 136 136
125 125 125
131 131 131
93 93 93
86 86 86
87 87 87
79 79 79
81 81 81
88 88 88
88 88 88
89 89 89
85 85 85
14 14 14
6 6 6
20 20 20
11 11 11
10 10 10
14 14 14
6 6 6
15 15 15
7 7 7
7 7 7
41 41 41
12 12 12
0 0 0
0 0 0
1 1 1
0 0 0
0 0 0
0 0 0
2 2 2
1 1 1
14 14 14
82 82 82
85 85 85
164 164 164
107 107 107
128 128 128
184 184 184
102 102 102
85 85 85
87 87 87
88 88 88
87 87 87
88 88 88
87 87 87
85 85 85
108 108 108
95 95 95
131 131 131
110 110 110
105 105 105
86 86 86
86 86 86
86 86 86
80 80 80
81 81 81
86 86 86
89 89 89
89 89 89
80 80 80
87 87 87
15 15 15
6 6 6
9 9 9
13 13 13
12 12 12
12 12 12
6 6 6
15 15 15
7 7 7
8 8 8
39 39 39
13 13 13
0 0 0
0 0 0
0 0 0
1 1 1
1 1 1
1 1 1
1 1 1
1 1 1
0 0 0
11 11 11
80 80 80
86 86 86
138 138 138
118 118 118
118 118 118
142 142 142
98 98 98
88 88 88
88 88 88
88 88 88
87 87 87
87 87 87
87 87 87
87 87 87
97 97 97
87 87 87
100 100 100
88 88 88
84 84 84
82 82 82
81 81 81
84 84 84
86 86 86
88 88 88
89 89 89
85 85 85
84 84 84
27 27 27
5 5 5
22 22 22
9 9 9
8 8 8
4 4 4
11 11 11
6 6 6
21 21 21
8 8 8
8 8 8
39 39 39
13 13 13
0 0 0
0 0 0
1 1 1
1 1 1
1 1 1
1 1 1
1 1 1
1 1 1
1 1 1
0 0 0
3 3 3
77 77 77
88 88 88
102 102 102
146 146 146
121 121 121
115 115 115
92 92 92
82 82 82
87 87 87
86 86 86
87 87 87
87 87 87
88 88 88
90 90 90
89 89 89
86 86 86
81 81 81
84 84 84
85 85 85
85 85 85
86 86 86
87 87 87
89 89 89
89 89 89
79 79 79
44 44 44
23 23 23
5 5 5
13 13 13
6 6 6
4 4 4
3 3 3
10 10 10
6 6 6
31 31 31
8 8 8
8 8 8
34 34 34
14 14 14
0 0 0
0 0 0
1 1 1
1 1 1
1 1 1
1 1 1
1 1 1
2 2 2
1 1 1
2 2 2
0 0 0
11 11 11
77 77 77
78 78 78
94 94 94
177 177 177
89 89 89
101 101 101
161 161 161
86 86 86
84 84 84
86 86 86
86 86 86
91 91 91
88 88 88
90 90 90
80 80 80
88 88 88
86 86 86
87 87 87
89 89 89
89 89 89
90 90 90
89 89 89
83 83 83
70 70 70
2 2 2
12 12 12
15 15 15
11 11 11
12 12 12
8 8 8
4 4 4
6 6 6
11 11 11
42 42 42
8 8 8
9 9 9
30 30 30
14 14 14
0 0 0
0 0 0
1 1 1
1 1 1
1 1 1
1 1 1
1 1 1
2 2 2
1 1 1
1 1 1
1 1 1
1 1 1
9 9 9
79 79 79
77 77 77
83 83 83
154 154 154
202 202 202
180 180 180
171 171 171
131 131 131
98 98 98
83 83 83
91 91 91
87 87 87
87 87 87
82 82 82
82 82 82
79 79 79
90 90 90
90 90 90
90 90 90
82 82 82
79 79 79
17 17 17
2 2 2
9 9 9
3 3 3
4 4 4
7 7 7
12 12 12
10 10 10
5 5 5
4 4 4
11 11 11
44 44 44
8 8 8
11 11 11
24 24 24
13 13 13
0 0 0
0 0 0
1 1 1
2 2 2
1 1 1
1 1 1
1 1 1
1 1 1
1 1 1
2 2 2
2 2 2
2 2 2
1 1 1
0 0 0
56 56 56
77 77 77
75 75 75
74 74 74
81 81 81
86 86 86
93 93 93
96 96 96
83 83 83
85 85 85
86 86 86
87 87 87
91 91 91
83 83 83
83 83 83
91 91 91
79 79 79
26 26 26
21 21 21
13 13 13
8 8 8
5 5 5
6 6 6
5 5 5
10 10 10
10 10 10
6 6 6
10 10 10
15 15 15
14 14 14
12 12 12
38 38 38
7 7 7
14 14 14
19 19 19
14 14 14
0 0 0
0 0 0
1 1 1
1 1 1
2 2 2
2 2 2
2 2 2
2 2 2
2 2 2
2 2 2
2 2 2
2 2 2
2 2 2
1 1 1
7 7 7
4 4 4
50 50 50
74 74 74
73 73 73
76 76 76
79 79 79
78 78 78
81 81 81
86 86 86
85 85 85
87 87 87
88 88 88
91 91 91
89 89 89
45 45 45
9 9 9
9 9 9
2 2 2
3 3 3
3 3 3
3 3 3
3 3 3
9 9 9
12 12 12
10 10 10
14 14 14
23 23 23
17 17 17
16 16 16
12 12 12
40 40 40
9 9 9
18 18 18
16 16 16
18 18 18
0 0 0
0 0 0
1 1 1
2 2 2
1 1 1
2 2 2
1 1 1
2 2 2
1 1 1
2 2 2
2 2 2
2 2 2
2 2 2
2 2 2
11 11 11
19 19 19
9 9 9
14 14 14
0 0 0
0 0 0
0 0 0
1 1 1
0 0 0
3 3 3
16 16 16
40 40 40
4 4 4
1 1 1
0 0 0
2 2 2
6 6 6
3 3 3
2 2 2
3 3 3
3 3 3
3 3 3
3 3 3
11 11 11
6 6 6
3 3 3
20 20 20
20 20 20
9 9 9
13 13 13
9 9 9
43 43 43
9 9 9
25 25 25
14 14 14
26 26 26
0 0 0
0 0 0
2 2 2
1 1 1
2 2 2
1 1 1
1 1 1
1 1 1
1 1 1
1 1 1
2 2 2
1 1 1
2 2 2
2 2 2
1 1 1
2 2 2
6 6 6
27 27 27
7 7 7
3 3 3
2 2 2
1 1 1
2 2 2
2 2 2
1 1 1
1 1 1
2 2 2
2 2 2
2 2 2
3 3 3
2 2 2
3 3 3
2 2 2
2 2 2
3 3 3
3 3 3
3 3 3
3 3 3
10 10 10
4 4 4
16 16 16
23 23 23
14 14 14
11 11 11
11 11 11
27 27 27
9 9 9
39 39 39
13 13 13
2 2 2
0 0 0
0 0 0
2 2 2
1 1 1
2 2 2
1 1 1
1 1 1
1 1 1
1 1 1
2 2 2
1 1 1
2 2 2
2 2 2
2 2 2
2 2 2
1 1 1
2 2 2
3 3 3
8 8 8
14 14 14
3 3 3
2 2 2
2 2 2
2 2 2
2 2 2
2 2 2
2 2 2
1 1 1
2 2 2
3 3 3
3 3 3
4 4 4
3 3 3
3 3 3
3 3 3
3 3 3
3 3 3
3 3 3
14 14 14
11 11 11
8 8 8
18 18 18
22 22 22
10 10 10
12 12 12
12 12 12
9 9 9
59 59 59
21 21 21
2 2 2
0 0 0
0 0 0
2 2 2
2 2 2
1 1 1
1 1 1
1 1 1
1 1 1
1 1 1
1 1 1
2 2 2
2 2 2
2 2 2
1 1 1
2 2 2
2 2 2
2 2 2
2 2 2
2 2 2
2 2 2
13 13 13
2 2 2
3 3 3
2 2 2
2 2 2
2 2 2
2 2 2
2 2 2
2 2 2
3 3 3
3 3 3
3 3 3
3 3 3
3 3 3
3 3 3
3 3 3
3 3 3
2 2 2
8 8 8
4 4 4
5 5 5
15 15 15
15 15 15
6 6 6
21 21 21
8 8 8
11 11 11
82 82 82
8 8 8
2 2 2
0 0 0
0 0 0
2 2 2
2 2 2
1 1 1
2 2 2
1 1 1
1 1 1
1 1 1
1 1 1
2 2 2
1 1 1
2 2 2
1 1 1
2 2 2
2 2 2
2 2 2
2 2 2
2 2 2
2 2 2
2 2 2
12 12 12
3 3 3
2 2 2
2 2 2
2 2 2
3 3 3
3 3 3
2 2 2
3 3 3
4 4 4
3 3 3
3 3 3
3 3 3
3 3 3
3 3 3
3 3 3
3 3 3
4 4 4
10 10 10
6 6 6
15 15 15
12 12 12
10 10 10
41 41 41
8 8 8
14 14 14
90 90 90
2 2 2
2 2 2
0 0 0
0 0 0
2 2 2
2 2 2
2 2 2
1 1 1
1 1 1
1 1 1
1 1 1
1 1 1
1 1 1
2 2 2
1 1 1
1 1 1
2 2 2
1 1 1
2 2 2
2 2 2
2 2 2
2 2 2
2 2 2
3 3 3
2 2 2
3 3 3
2 2 2
2 2 2
2 2 2
3 3 3
3 3 3
4 4 4
4 4 4
4 4 4
4 4 4
4 4 4
3 3 3
3 3 3
2 2 2
3 3 3
4 4 4
8 8 8
8 8 8
10 10 10
6 6 6
13 13 13
21 21 21
10 10 10
17 17 17
11 11 11
2 2 2
2 2 2
0 0 0
0 0 0
2 2 2
2 2 2
2 2 2
2 2 2
1 1 1
1 1 1
2 2 2
1 1 1
1 1 1
1 1 1
1 1 1
1 1 1
2 2 2
1 1 1
1 1 1
2 2 2
2 2 2
2 2 2
2 2 2
2 2 2
2 2 2
2 2 2
2 2 2
2 2 2
2 2 2
2 2 2
3 3 3
4 4 4
4 4 4
4 4 4
4 4 4
4 4 4
4 4 4
3 3 3
3 3 3
3 3 3
4 4 4
7 7 7
5 5 5
8 8 8
12 12 12
13 13 13
9 9 9
13 13 13
32 32 32
2 2 2
2 2 2
2 2 2
0 0 0
0 0 0
2 2 2
2 2 2
2 2 2
2 2 2
1 1 1
1 1 1
1 1 1
1 1 1
1 1 1
1 1 1
1 1 1
1 1 1
1 1 1
1 1 1
2 2 2
2 2 2
2 2 2
2 2 2
2 2 2
2 2 2
2 2 2
2 2 2
3 3 3
3 3 3
2 2 2
2 2 2
4 4 4
4 4 4
4 4 4
4 4 4
4 4 4
4 4 4
4 4 4
3 3 3
3 3 3
3 3 3
3 3 3
6 6 6
8 8 8
11 11 11
14 14 14
40 40 40
11 11 11
16 16 16
2 2 2
2 2 2
2 2 2
2 2 2
0 0 0
0 0 0
2 2 2
2 2 2
2 2 2
2 2 2
2 2 2
1 1 1
1 1 1
2 2 2
1 1 1
1 1 1
1 1 1
1 1 1
1 1 1
2 2 2
1 1 1
2 2 2
1 1 1
2 2 2
2 2 2
2 2 2
2 2 2
2 2 2
2 2 2
3 3 3
3 3 3
3 3 3
4 4 4
4 4 4
4 4 4
4 4 4
4 4 4
4 4 4
4 4 4
4 4 4
3 3 3
9 9 9
4 4 4
11 11 11
6 6 6
17 17 17
9 9 9
20 20 20
14 14 14
5 5 5
2 2 2
2 2 2
2 2 2
2 2 2
0 0 0
0 0 0
2 2 2
2 2 2
2 2 2
2 2 2
2 2 2
2 2 2
2 2 2
1 1 1
1 1 1
1 1 1
1 1 1
1 1 1
1 1 1
1 1 1
2 2 2
1 1 1
2 2 2
1 1 1
2 2 2
2 2 2
2 2 2
2 2 2
2 2 2
2 2 2
2 2 2
3 3 3
4 4 4
4 4 4
3 3 3
4 4 4
4 4 4
4 4 4
14 14 14
10 10 10
3 3 3
7 7 7
3 3 3
7 7 7
4 4 4
17 17 17
27 27 27
14 14 14
9 9 9
2 2 2
2 2 2
2 2 2
2 2 2
2 2 2
0 0 0
0 0 0
2 2 2
2 2 2
2 2 2
2 2 2
2 2 2
2 2 2
2 2 2
1 1 1
1 1 1
1 1 1
2 2 2
1 1 1
1 1 1
2 2 2
1 1 1
2 2 2
1 1 1
2 2 2
1 1 1
2 2 2
2 2 2
2 2 2
2 2 2
2 2 2
2 2 2
3 3 3
4 4 4
4 4 4
3 3 3
3 3 3
2 2 2
11 11 11
8 8 8
11 11 11
10 10 10
8 8 8
11 11 11
10 10 10
6 6 6
10 10 10
46 46 46
17 17 17
2 2 2
2 2 2
2 2 2
2 2 2
2 2 2
2 2 2
0 0 0
0 0 0
2 2 2
2 2 2
2 2 2
2 2 2
2 2 2
2 2 2
2 2 2
2 2 2
1 1 1
1 1 1
1 1 1
1 1 1
1 1 1
1 1 1
2 2 2
2 2 2
1 1 1
2 2 2
2 2 2
2 2 2
2 2 2
2 2 2
2 2 2
2 2 2
2 2 2
2 2 2
4 4 4
4 4 4
4 4 4
7 7 7
16 16 16
8 8 8
11 11 11
17 17 17
11 11 11
10 10 10
16 16 16
19 19 19
14 14 14
12 12 12
11 11 11
2 2 2
2 2 2
2 2 2
2 2 2
2 2 2
2 2 2
2 2 2
0 0 0
0 0 0
2 2 2
2 2 2
2 2 2
2 2 2
2 2 2
2 2 2
2 2 2
2 2 2
2 2 2
1 1 1
2 2 2
1 1 1
1 1 1
1 1 1
1 1 1
1 1 1
2 2 2
2 2 2
1 1 1
2 2 2
2 2 2
2 2 2
2 2 2
2 2 2
2 2 2
2 2 2
7 7 7
8 8 8
9 9 9
4 4 4
3 3 3
10 10 10
16 16 16
9 9 9
32 32 32
13 13 13
13 13 13
21 21 21
18 18 18
5 5 5
2 2 2
2 2 2
2 2 2
2 2 2
2 2 2
2 2 2
2 2 2
2 2 2
0 0 0
0 0 0
2 2 2
2 2 2
2 2 2
2 2 2
2 2 2
2 2 2
2 2 2
2 2 2
2 2 2
2 2 2
1 1 1
1 1 1
1 1 1
1 1 1
1 1 1
1 1 1
2 2 2
1 1 1
1 1 1
2 2 2
2 2 2
2 2 2
2 2 2
2 2 2
2 2 2
2 2 2
7 7 7
11 11 11
3 3 3
16 16 16
13 13 13
9 9 9
5 5 5
16 16 16
16 16 16
10 10 10
9 9 9
25 25 25
2 2 2
2 2 2
2 2 2
2 2 2
2 2 2
2 2 2
2 2 2
2 2 2
2 2 2
2 2 2
0 0 0
0 0 0
2 2 2
2 2 2
2 2 2
2 2 2
2 2 2
2 2 2
2 2 2
2 2 2
2 2 2
2 2 2
2 2 2
2 2 2
1 1 1
1 1 1
1 1 1
1 1 1
2 2 2
1 1 1
1 1 1
1 1 1
2 2 2
1 1 1
2 2 2
2 2 2
2 2 2
2 2 2
8 8 8
11 11 11
8 8 8
15 15 15
15 15 15
5 5 5
12 12 12
18 18 18
10 10 10
18 18 18
4 4 4
2 2 2
2 2 2
2 2 2
2 2 2
2 2 2
2 2 2
2 2 2
2 2 2
2 2 2
2 2 2
2 2 2
0 0 0
0 0 0
2 2 2
2 2 2
2 2 2
2 2 2
2 2 2
2 2 2
2 2 2
2 2 2
2 2 2
2 2 2
2 2 2
2 2 2
2 2 2
2 2 2
1 1 1
1 1 1
1 1 1
1 1 1
1 1 1
2 2 2
1 1 1
2 2 2
2 2 2
2 2 2
5 5 5
9 9 9
2 2 2
10 10 10
10 10 10
8 8 8
9 9 9
7 7 7
6 6 6
16 16 16
4 4 4
2 2 2
2 2 2
2 2 2
2 2 2
2 2 2
2 2 2
2 2 2
2 2 2
2 2 2
2 2 2
2 2 2
2 2 2
2 2 2
0 0 0
0 0 0
2 2 2
2 2 2
2 2 2
2 2 2
2 2 2
2 2 2
2 2 2
2 2 2
2 2 2
2 2 2
2 2 2
2 2 2
2 2 2
2 2 2
2 2 2
2 2 2
1 1 1
2 2 2
2 2 2
2 2 2
1 1 1
2 2 2
2 2 2
4 4 4
6 6 6
9 9 9
10 10 10
6 6 6
10 10 10
4 4 4
13 13 13
18 18 18
2 2 2
2 2 2
2 2 2
2 2 2
2 2 2
2 2 2
2 2 2
2 2 2
2 2 2
2 2 2
2 2 2
2 2 2
2 2 2
2 2 2
2 2 2
2 2 2
0 0 0
0 0 0
0 0 0
0 0 0
0 0 0
0 0 0
0 0 0
0 0 0
0 0 0
0 0 0
0 0 0
0 0 0
0 0 0
0 0 0
0 0 0
0 0 0
0 0 0
0 0 0
0 0 0
0 0 0
0 0 0
0 0 0
0 0 0
0 0 0
0 0 0
0 0 0
0 0 0
0 0 0
0 0 0
0 0 0
0 0 0
0 0 0
0 0 0
0 0 0
0 0 0
0 0 0
0 0 0
0 0 0
0 0 0
0 0 0
0 0 0
0 0 0
0 0 0
0 0 0
0 0 0
0 0 0
0 0 0
0 0 0
0 0 0
0 0 0
0 0 0
