P3 
50 50 
255
0 0 0
0 0 0
0 0 0
0 0 0
0 0 0
0 0 0
0 0 0
0 0 0
0 0 0
0 0 0
0 0 0
0 0 0
0 0 0
0 0 0
0 0 0
0 0 0
0 0 0
0 0 0
0 0 0
0 0 0
0 0 0
0 0 0
0 0 0
0 0 0
0 0 0
0 0 0
0 0 0
0 0 0
0 0 0
0 0 0
0 0 0
0 0 0
0 0 0
0 0 0
0 0 0
0 0 0
0 0 0
0 0 0
0 0 0
0 0 0
0 0 0
0 0 0
0 0 0
0 0 0
0 0 0
0 0 0
0 0 0
0 0 0
0 0 0
0 0 0
0 0 0
2 2 2
2 2 2
2 2 2
2 2 2
2 2 2
2 2 2
2 2 2
2 2 2
2 2 2
2 2 2
2 2 2
2 2 2
2 2 2
2 2 2
2 2 2
2 2 2
2 2 2
1 1 1
1 1 1
3 3 3
2 2 2
2 2 2
3 3 3
4 4 4
4 4 4
4 4 4
2 2 2
8 8 8
11 11 11
9 9 9
6 6 6
3 3 3
2 2 2
2 2 2
2 2 2
2 2 2
2 2 2
2 2 2
2 2 2
2 2 2
2 2 2
2 2 2
2 2 2
2 2 2
2 2 2
2 2 2
2 2 2
2 2 2
0 0 0
0 0 0
2 2 2
2 2 2
2 2 2
2 2 2
2 2 2
2 2 2
2 2 2
2 2 2
2 2 2
2 2 2
2 2 2
2 2 2
2 2 2
2 2 2
1 1 1
0 0 0
1 1 1
1 1 1
3 3 3
2 2 2
3 3 3
3 3 3
4 4 4
3 3 3
4 4 4
3 3 3
3 3 3
11 11 11
8 8 8
6 6 6
12 12 12
13 13 13
12 12 12
13 13 13
2 2 2
2 2 2
2 2 2
2 2 2
2 2 2
2 2 2
2 2 2
2 2 2
2 2 2
2 2 2
2 2 2
2 2 2
2 2 2
2 2 2
0 0 0
0 0 0
2 2 2
2 2 2
2 2 2
2 2 2
2 2 2
2 2 2
2 2 2
2 2 2
2 2 2
2 2 2
2 2 2
2 2 2
1 1 1
1 1 1
2 2 2
2 2 2
3 3 3
2 2 2
2 2 2
3 3 3
3 3 3
4 4 4
4 4 4
5 5 5
4 4 4
6 6 6
20 20 20
8 8 8
11 11 11
16 16 16
6 6 6
4 4 4
8 8 8
11 11 11
12 12 12
12 12 12
2 2 2
2 2 2
2 2 2
2 2 2
2 2 2
2 2 2
2 2 2
2 2 2
2 2 2
2 2 2
2 2 2
2 2 2
0 0 0
0 0 0
2 2 2
2 2 2
2 2 2
2 2 2
2 2 2
2 2 2
2 2 2
2 2 2
2 2 2
2 2 2
1 1 1
1 1 1
2 2 2
2 2 2
2 2 2
2 2 2
2 2 2
2 2 2
3 3 3
2 2 2
4 4 4
4 4 4
4 4 4
4 4 4
11 11 11
20 20 20
23 23 23
21 21 21
29 29 29
26 26 26
19 19 19
9 9 9
4 4 4
4 4 4
10 10 10
12 12 12
8 8 8
9 9 9
2 2 2
2 2 2
2 2 2
2 2 2
2 2 2
2 2 2
2 2 2
2 2 2
2 2 2
2 2 2
0 0 0
0 0 0
2 2 2
2 2 2
2 2 2
2 2 2
2 2 2
2 2 2
2 2 2
2 2 2
2 2 2
1 1 1
2 2 2
2 2 2
3 3 3
3 3 3
4 4 4
4 4 4
3 3 3
2 2 2
3 3 3
3 3 3
6 6 6
10 10 10
10 10 10
19 19 19
55 55 55
35 35 35
3 3 3
80 80 80
67 67 67
46 46 46
83 83 83
74 74 74
17 17 17
7 7 7
6 6 6
4 4 4
5 5 5
7 7 7
11 11 11
2 2 2
2 2 2
2 2 2
2 2 2
2 2 2
2 2 2
2 2 2
2 2 2
2 2 2
0 0 0
0 0 0
2 2 2
2 2 2
2 2 2
2 2 2
2 2 2
2 2 2
2 2 2
2 2 2
2 2 2
2 2 2
2 2 2
3 3 3
3 3 3
3 3 3
2 2 2
3 3 3
3 3 3
2 2 2
4 4 4
2 2 2
9 9 9
65 65 65
85 85 85
86 86 86
86 86 86
34 34 34
77 77 77
85 85 85
86 86 86
83 83 83
67 67 67
70 70 70
47 47 47
15 15 15
11 11 11
9 9 9
7 7 7
9 9 9
10 10 10
9 9 9
4 4 4
2 2 2
2 2 2
2 2 2
2 2 2
2 2 2
2 2 2
2 2 2
0 0 0
0 0 0
2 2 2
2 2 2
2 2 2
2 2 2
2 2 2
2 2 2
2 2 2
2 2 2
2 2 2
3 3 3
3 3 3
5 5 5
2 2 2
1 1 1
1 1 1
1 1 1
1 1 1
1 1 1
10 10 10
65 65 65
84 84 84
83 83 83
89 89 89
89 89 89
87 87 87
113 113 113
194 194 194
207 207 207
214 214 214
209 209 209
194 194 194
154 154 154
101 101 101
84 84 84
72 72 72
17 17 17
12 12 12
8 8 8
6 6 6
7 7 7
18 18 18
11 11 11
2 2 2
2 2 2
2 2 2
2 2 2
2 2 2
2 2 2
0 0 0
0 0 0
2 2 2
2 2 2
2 2 2
2 2 2
2 2 2
2 2 2
2 2 2
2 2 2
2 2 2
4 4 4
4 4 4
2 2 2
0 0 0
53 53 53
80 80 80
78 78 78
79 79 79
78 78 78
84 84 84
87 87 87
86 86 86
85 85 85
90 90 90
94 94 94
171 171 171
174 174 174
88 88 88
88 88 88
121 121 121
175 175 175
188 188 188
182 182 182
175 175 175
191 191 191
153 153 153
92 92 92
54 54 54
15 15 15
16 16 16
7 7 7
17 17 17
37 37 37
4 4 4
2 2 2
2 2 2
2 2 2
2 2 2
2 2 2
0 0 0
0 0 0
2 2 2
2 2 2
2 2 2
2 2 2
2 2 2
2 2 2
2 2 2
2 2 2
3 3 3
3 3 3
3 3 3
11 11 11
81 81 81
76 76 76
84 84 84
90 90 90
88 88 88
91 91 91
154 154 154
130 130 130
118 118 118
105 105 105
153 153 153
124 124 124
160 160 160
116 116 116
96 96 96
90 90 90
110 110 110
95 95 95
98 98 98
102 102 102
112 112 112
132 132 132
189 189 189
200 200 200
107 107 107
85 85 85
39 39 39
12 12 12
4 4 4
19 19 19
29 29 29
2 2 2
2 2 2
2 2 2
2 2 2
2 2 2
0 0 0
0 0 0
2 2 2
2 2 2
2 2 2
2 2 2
2 2 2
2 2 2
3 3 3
2 2 2
1 1 1
6 6 6
73 73 73
77 77 77
95 95 95
161 161 161
90 90 90
82 82 82
83 83 83
83 83 83
147 147 147
145 145 145
110 110 110
115 115 115
187 187 187
103 103 103
142 142 142
57 57 57
45 45 45
126 126 126
96 96 96
86 86 86
88 88 88
87 87 87
87 87 87
87 87 87
123 123 123
192 192 192
198 198 198
185 185 185
104 104 104
63 63 63
11 11 11
15 15 15
46 46 46
18 18 18
2 2 2
2 2 2
2 2 2
2 2 2
0 0 0
0 0 0
2 2 2
2 2 2
2 2 2
2 2 2
2 2 2
2 2 2
2 2 2
0 0 0
62 62 62
76 76 76
80 80 80
155 155 155
143 143 143
79 79 79
95 95 95
85 85 85
84 84 84
83 83 83
100 100 100
114 114 114
121 121 121
107 107 107
123 123 123
17 17 17
131 131 131
40 40 40
102 102 102
143 143 143
87 87 87
86 86 86
87 87 87
87 87 87
86 86 86
87 87 87
89 89 89
94 94 94
115 115 115
156 156 156
200 200 200
108 108 108
62 62 62
16 16 16
23 23 23
20 20 20
20 20 20
2 2 2
2 2 2
2 2 2
0 0 0
0 0 0
2 2 2
2 2 2
2 2 2
2 2 2
2 2 2
2 2 2
3 3 3
24 24 24
75 75 75
76 76 76
154 154 154
169 169 169
74 74 74
83 83 83
88 88 88
84 84 84
84 84 84
81 81 81
87 87 87
113 113 113
142 142 142
98 98 98
120 120 120
19 19 19
143 143 143
192 192 192
94 94 94
89 89 89
87 87 87
87 87 87
87 87 87
87 87 87
87 87 87
87 87 87
87 87 87
87 87 87
87 87 87
88 88 88
119 119 119
195 195 195
115 115 115
52 52 52
7 7 7
49 49 49
18 18 18
7 7 7
2 2 2
2 2 2
0 0 0
0 0 0
2 2 2
2 2 2
2 2 2
1 1 1
2 2 2
3 3 3
1 1 1
73 73 73
75 75 75
77 77 77
125 125 125
158 158 158
73 73 73
75 75 75
86 86 86
85 85 85
85 85 85
84 84 84
86 86 86
90 90 90
135 135 135
171 171 171
146 146 146
93 93 93
187 187 187
204 204 204
125 125 125
86 86 86
87 87 87
87 87 87
87 87 87
87 87 87
87 87 87
87 87 87
86 86 86
87 87 87
86 86 86
87 87 87
87 87 87
174 174 174
197 197 197
102 102 102
39 39 39
47 47 47
16 16 16
89 89 89
2 2 2
2 2 2
0 0 0
0 0 0
2 2 2
2 2 2
1 1 1
2 2 2
3 3 3
2 2 2
0 0 0
80 80 80
77 77 77
80 80 80
45 45 45
14 14 14
95 95 95
78 78 78
80 80 80
86 86 86
83 83 83
83 83 83
87 87 87
94 94 94
115 115 115
164 164 164
88 88 88
195 195 195
219 219 219
182 182 182
86 86 86
86 86 86
86 86 86
87 87 87
87 87 87
87 87 87
86 86 86
86 86 86
87 87 87
86 86 86
87 87 87
87 87 87
87 87 87
93 93 93
178 178 178
203 203 203
81 81 81
29 29 29
14 14 14
81 81 81
5 5 5
2 2 2
0 0 0
0 0 0
2 2 2
1 1 1
1 1 1
1 1 1
1 1 1
2 2 2
1 1 1
80 80 80
78 78 78
76 76 76
2 2 2
0 0 0
1 1 1
10 10 10
88 88 88
83 83 83
80 80 80
86 86 86
83 83 83
87 87 87
91 91 91
134 134 134
126 126 126
125 125 125
185 185 185
99 99 99
85 85 85
87 87 87
87 87 87
87 87 87
87 87 87
87 87 87
86 86 86
87 87 87
86 86 86
86 86 86
86 86 86
87 87 87
87 87 87
88 88 88
107 107 107
183 183 183
140 140 140
35 35 35
13 13 13
61 61 61
25 25 25
2 2 2
0 0 0
0 0 0
2 2 2
1 1 1
1 1 1
2 2 2
1 1 1
2 2 2
1 1 1
79 79 79
79 79 79
79 79 79
0 0 0
1 1 1
2 2 2
2 2 2
0 0 0
68 68 68
87 87 87
106 106 106
110 110 110
85 85 85
87 87 87
114 114 114
118 118 118
119 119 119
155 155 155
85 85 85
86 86 86
87 87 87
87 87 87
87 87 87
88 88 88
86 86 86
87 87 87
87 87 87
87 87 87
86 86 86
87 87 87
88 88 88
88 88 88
87 87 87
87 87 87
165 165 165
193 193 193
73 73 73
19 19 19
39 39 39
15 15 15
3 3 3
0 0 0
0 0 0
2 2 2
1 1 1
1 1 1
2 2 2
1 1 1
1 1 1
0 0 0
81 81 81
85 85 85
72 72 72
17 17 17
1 1 1
2 2 2
2 2 2
0 0 0
22 22 22
113 113 113
107 107 107
85 85 85
88 88 88
105 105 105
95 95 95
114 114 114
113 113 113
92 92 92
86 86 86
87 87 87
87 87 87
87 87 87
87 87 87
87 87 87
87 87 87
87 87 87
87 87 87
88 88 88
87 87 87
87 87 87
88 88 88
87 87 87
87 87 87
87 87 87
166 166 166
197 197 197
80 80 80
25 25 25
27 27 27
14 14 14
18 18 18
0 0 0
0 0 0
2 2 2
1 1 1
1 1 1
1 1 1
13 13 13
82 82 82
67 67 67
86 86 86
108 108 108
46 46 46
23 23 23
22 22 22
54 54 54
57 57 57
73 73 73
80 80 80
107 107 107
110 110 110
102 102 102
97 97 97
91 91 91
94 94 94
108 108 108
112 112 112
86 86 86
86 86 86
86 86 86
88 88 88
88 88 88
87 87 87
87 87 87
87 87 87
87 87 87
87 87 87
87 87 87
87 87 87
86 86 86
87 87 87
87 87 87
87 87 87
87 87 87
156 156 156
194 194 194
80 80 80
33 33 33
20 20 20
15 15 15
19 19 19
0 0 0
0 0 0
2 2 2
1 1 1
2 2 2
1 1 1
2 2 2
34 34 34
86 86 86
95 95 95
17 17 17
52 52 52
92 92 92
105 105 105
65 65 65
38 38 38
73 73 73
24 24 24
3 3 3
2 2 2
36 36 36
65 65 65
108 108 108
110 110 110
107 107 107
87 87 87
85 85 85
87 87 87
87 87 87
88 88 88
87 87 87
87 87 87
87 87 87
87 87 87
87 87 87
87 87 87
88 88 88
88 88 88
88 88 88
87 87 87
88 88 88
87 87 87
107 107 107
158 158 158
187 187 187
80 80 80
35 35 35
17 17 17
15 15 15
14 14 14
0 0 0
0 0 0
2 2 2
2 2 2
18 18 18
35 35 35
52 52 52
46 46 46
39 39 39
1 1 1
8 8 8
1 1 1
1 1 1
6 6 6
17 17 17
11 11 11
4 4 4
7 7 7
21 21 21
60 60 60
61 61 61
48 48 48
130 130 130
105 105 105
111 111 111
83 83 83
85 85 85
87 87 87
86 86 86
86 86 86
86 86 86
86 86 86
87 87 87
87 87 87
87 87 87
87 87 87
87 87 87
88 88 88
89 89 89
88 88 88
87 87 87
90 90 90
138 138 138
161 161 161
186 186 186
81 81 81
34 34 34
13 13 13
18 18 18
13 13 13
0 0 0
0 0 0
1 1 1
3 3 3
42 42 42
80 80 80
90 90 90
85 85 85
85 85 85
104 104 104
117 117 117
134 134 134
74 74 74
30 30 30
14 14 14
10 10 10
17 17 17
20 20 20
32 32 32
31 31 31
29 29 29
33 33 33
135 135 135
106 106 106
123 123 123
84 84 84
85 85 85
87 87 87
87 87 87
88 88 88
86 86 86
87 87 87
87 87 87
88 88 88
88 88 88
88 88 88
87 87 87
88 88 88
88 88 88
88 88 88
88 88 88
89 89 89
124 124 124
170 170 170
193 193 193
82 82 82
34 34 34
11 11 11
21 21 21
13 13 13
0 0 0
0 0 0
1 1 1
1 1 1
5 5 5
1 1 1
54 54 54
57 57 57
52 52 52
16 16 16
6 6 6
1 1 1
1 1 1
47 47 47
78 78 78
64 64 64
70 70 70
16 16 16
3 3 3
2 2 2
6 6 6
25 25 25
92 92 92
128 128 128
105 105 105
94 94 94
84 84 84
86 86 86
87 87 87
87 87 87
87 87 87
88 88 88
87 87 87
87 87 87
87 87 87
86 86 86
87 87 87
88 88 88
87 87 87
88 88 88
88 88 88
88 88 88
86 86 86
129 129 129
192 192 192
78 78 78
36 36 36
11 11 11
21 21 21
14 14 14
0 0 0
0 0 0
1 1 1
1 1 1
0 0 0
1 1 1
18 18 18
45 45 45
86 86 86
85 85 85
5 5 5
3 3 3
31 31 31
106 106 106
91 91 91
24 24 24
43 43 43
32 32 32
2 2 2
59 59 59
93 93 93
79 79 79
73 73 73
89 89 89
122 122 122
100 100 100
120 120 120
86 86 86
87 87 87
88 88 88
87 87 87
87 87 87
88 88 88
88 88 88
87 87 87
87 87 87
87 87 87
88 88 88
87 87 87
88 88 88
88 88 88
88 88 88
87 87 87
166 166 166
192 192 192
64 64 64
36 36 36
8 8 8
23 23 23
13 13 13
0 0 0
0 0 0
2 2 2
1 1 1
2 2 2
1 1 1
11 11 11
79 79 79
67 67 67
88 88 88
115 115 115
23 23 23
6 6 6
14 14 14
7 7 7
45 45 45
31 31 31
56 56 56
102 102 102
115 115 115
92 92 92
90 90 90
90 90 90
91 91 91
90 90 90
119 119 119
120 120 120
84 84 84
86 86 86
87 87 87
88 88 88
87 87 87
88 88 88
87 87 87
87 87 87
87 87 87
88 88 88
88 88 88
88 88 88
88 88 88
88 88 88
88 88 88
105 105 105
188 188 188
142 142 142
36 36 36
34 34 34
9 9 9
24 24 24
12 12 12
0 0 0
0 0 0
1 1 1
2 2 2
1 1 1
2 2 2
1 1 1
1 1 1
0 0 0
79 79 79
85 85 85
80 80 80
46 46 46
14 14 14
2 2 2
2 2 2
2 2 2
0 0 0
118 118 118
84 84 84
88 88 88
85 85 85
88 88 88
87 87 87
115 115 115
152 152 152
96 96 96
85 85 85
86 86 86
87 87 87
87 87 87
88 88 88
88 88 88
88 88 88
87 87 87
87 87 87
87 87 87
87 87 87
88 88 88
87 87 87
88 88 88
90 90 90
162 162 162
207 207 207
80 80 80
22 22 22
38 38 38
10 10 10
24 24 24
13 13 13
0 0 0
0 0 0
1 1 1
1 1 1
1 1 1
2 2 2
2 2 2
2 2 2
1 1 1
79 79 79
76 76 76
80 80 80
100 100 100
0 0 0
2 2 2
2 2 2
0 0 0
93 93 93
86 86 86
87 87 87
88 88 88
85 85 85
90 90 90
120 120 120
173 173 173
87 87 87
175 175 175
183 183 183
86 86 86
87 87 87
87 87 87
88 88 88
88 88 88
87 87 87
87 87 87
89 89 89
88 88 88
88 88 88
88 88 88
88 88 88
88 88 88
130 130 130
200 200 200
110 110 110
59 59 59
16 16 16
44 44 44
10 10 10
23 23 23
14 14 14
0 0 0
0 0 0
0 0 0
2 2 2
1 1 1
2 2 2
1 1 1
3 3 3
1 1 1
61 61 61
76 76 76
80 80 80
97 97 97
1 1 1
1 1 1
16 16 16
102 102 102
83 83 83
88 88 88
83 83 83
87 87 87
88 88 88
88 88 88
147 147 147
118 118 118
152 152 152
149 149 149
139 139 139
106 106 106
86 86 86
87 87 87
88 88 88
88 88 88
88 88 88
88 88 88
88 88 88
87 87 87
88 88 88
87 87 87
88 88 88
95 95 95
195 195 195
145 145 145
75 75 75
22 22 22
27 27 27
45 45 45
12 12 12
20 20 20
15 15 15
0 0 0
0 0 0
1 1 1
1 1 1
1 1 1
1 1 1
2 2 2
2 2 2
2 2 2
13 13 13
76 76 76
80 80 80
123 123 123
10 10 10
104 104 104
80 80 80
77 77 77
83 83 83
86 86 86
81 81 81
86 86 86
87 87 87
91 91 91
91 91 91
88 88 88
208 208 208
136 136 136
119 119 119
145 145 145
85 85 85
87 87 87
87 87 87
87 87 87
87 87 87
88 88 88
88 88 88
87 87 87
87 87 87
90 90 90
105 105 105
194 194 194
147 147 147
84 84 84
44 44 44
27 27 27
34 34 34
40 40 40
12 12 12
19 19 19
14 14 14
0 0 0
0 0 0
1 1 1
1 1 1
1 1 1
1 1 1
1 1 1
1 1 1
1 1 1
0 0 0
80 80 80
78 78 78
123 123 123
105 105 105
81 81 81
74 74 74
87 87 87
86 86 86
86 86 86
83 83 83
80 80 80
87 87 87
89 89 89
88 88 88
115 115 115
166 166 166
145 145 145
174 174 174
124 124 124
152 152 152
86 86 86
87 87 87
87 87 87
88 88 88
89 89 89
89 89 89
88 88 88
118 118 118
182 182 182
205 205 205
145 145 145
83 83 83
39 39 39
21 21 21
35 35 35
34 34 34
27 27 27
14 14 14
16 16 16
14 14 14
0 0 0
0 0 0
1 1 1
1 1 1
1 1 1
1 1 1
0 0 0
0 0 0
1 1 1
1 1 1
7 7 7
75 75 75
77 77 77
179 179 179
144 144 144
75 75 75
87 87 87
114 114 114
82 82 82
85 85 85
86 86 86
87 87 87
93 93 93
133 133 133
106 106 106
132 132 132
8 8 8
99 99 99
32 32 32
145 145 145
126 126 126
89 89 89
90 90 90
90 90 90
89 89 89
101 101 101
169 169 169
201 201 201
165 165 165
88 88 88
80 80 80
38 38 38
23 23 23
20 20 20
16 16 16
26 26 26
14 14 14
18 18 18
13 13 13
14 14 14
0 0 0
0 0 0
0 0 0
1 1 1
0 0 0
1 1 1
0 0 0
1 1 1
0 0 0
0 0 0
0 0 0
43 43 43
73 73 73
77 77 77
154 154 154
162 162 162
84 84 84
86 86 86
86 86 86
86 86 86
87 87 87
99 99 99
92 92 92
110 110 110
126 126 126
100 100 100
7 7 7
98 98 98
103 103 103
12 12 12
125 125 125
141 141 141
103 103 103
106 106 106
158 158 158
181 181 181
203 203 203
144 144 144
86 86 86
48 48 48
31 31 31
14 14 14
23 23 23
29 29 29
14 14 14
31 31 31
9 9 9
24 24 24
13 13 13
18 18 18
0 0 0
0 0 0
2 2 2
1 1 1
1 1 1
1 1 1
1 1 1
1 1 1
1 1 1
1 1 1
1 1 1
0 0 0
12 12 12
76 76 76
77 77 77
81 81 81
89 89 89
89 89 89
85 85 85
86 86 86
85 85 85
98 98 98
98 98 98
104 104 104
88 88 88
83 83 83
62 62 62
211 211 211
89 89 89
91 91 91
64 64 64
47 47 47
103 103 103
167 167 167
212 212 212
213 213 213
99 99 99
72 72 72
25 25 25
17 17 17
12 12 12
28 28 28
19 19 19
14 14 14
25 25 25
37 37 37
8 8 8
37 37 37
15 15 15
29 29 29
0 0 0
0 0 0
2 2 2
1 1 1
1 1 1
1 1 1
1 1 1
2 2 2
1 1 1
1 1 1
1 1 1
1 1 1
0 0 0
0 0 0
16 16 16
74 74 74
79 79 79
79 79 79
80 80 80
80 80 80
79 79 79
79 79 79
80 80 80
81 81 81
88 88 88
88 88 88
89 89 89
94 94 94
158 158 158
146 146 146
190 190 190
159 159 159
211 211 211
174 174 174
95 95 95
81 81 81
18 18 18
5 5 5
3 3 3
4 4 4
19 19 19
12 12 12
24 24 24
19 19 19
28 28 28
51 51 51
9 9 9
53 53 53
13 13 13
2 2 2
0 0 0
0 0 0
2 2 2
0 0 0
1 1 1
1 1 1
3 3 3
2 2 2
1 1 1
1 1 1
0 0 0
0 0 0
1 1 1
2 2 2
1 1 1
0 0 0
0 0 0
1 1 1
2 2 2
4 4 4
16 16 16
27 27 27
34 34 34
47 47 47
76 76 76
84 84 84
90 90 90
83 83 83
10 10 10
69 69 69
84 84 84
46 46 46
28 28 28
12 12 12
5 5 5
3 3 3
3 3 3
5 5 5
9 9 9
6 6 6
19 19 19
20 20 20
7 7 7
15 15 15
16 16 16
30 30 30
9 9 9
75 75 75
23 23 23
2 2 2
0 0 0
0 0 0
2 2 2
2 2 2
3 3 3
3 3 3
3 3 3
4 4 4
3 3 3
2 2 2
1 1 1
3 3 3
3 3 3
3 3 3
3 3 3
3 3 3
2 2 2
1 1 1
3 3 3
2 2 2
2 2 2
1 1 1
1 1 1
1 1 1
1 1 1
2 2 2
19 19 19
71 71 71
5 5 5
88 88 88
65 65 65
71 71 71
40 40 40
63 63 63
3 3 3
4 4 4
5 5 5
5 5 5
5 5 5
16 16 16
15 15 15
15 15 15
17 17 17
26 26 26
11 11 11
9 9 9
10 10 10
82 82 82
9 9 9
2 2 2
0 0 0
0 0 0
2 2 2
2 2 2
2 2 2
2 2 2
3 3 3
3 3 3
2 2 2
3 3 3
2 2 2
3 3 3
3 3 3
3 3 3
3 3 3
3 3 3
3 3 3
2 2 2
1 1 1
2 2 2
2 2 2
4 4 4
4 4 4
3 3 3
3 3 3
2 2 2
3 3 3
11 11 11
1 1 1
1 1 1
32 32 32
34 34 34
2 2 2
4 4 4
3 3 3
4 4 4
6 6 6
5 5 5
5 5 5
13 13 13
9 9 9
14 14 14
14 14 14
16 16 16
30 30 30
10 10 10
14 14 14
70 70 70
2 2 2
2 2 2
0 0 0
0 0 0
2 2 2
2 2 2
2 2 2
3 3 3
2 2 2
2 2 2
3 3 3
2 2 2
2 2 2
2 2 2
3 3 3
3 3 3
2 2 2
3 3 3
2 2 2
2 2 2
2 2 2
1 1 1
3 3 3
4 4 4
4 4 4
3 3 3
3 3 3
2 2 2
3 3 3
1 1 1
2 2 2
1 1 1
2 2 2
2 2 2
4 4 4
4 4 4
4 4 4
5 5 5
5 5 5
5 5 5
4 4 4
10 10 10
12 12 12
12 12 12
10 10 10
5 5 5
46 46 46
11 11 11
17 17 17
11 11 11
2 2 2
2 2 2
0 0 0
0 0 0
2 2 2
2 2 2
2 2 2
2 2 2
2 2 2
2 2 2
3 3 3
2 2 2
3 3 3
3 3 3
2 2 2
3 3 3
3 3 3
3 3 3
2 2 2
3 3 3
2 2 2
3 3 3
3 3 3
4 4 4
4 4 4
2 2 2
3 3 3
2 2 2
2 2 2
1 1 1
1 1 1
3 3 3
3 3 3
3 3 3
4 4 4
4 4 4
4 4 4
4 4 4
5 5 5
4 4 4
5 5 5
15 15 15
14 14 14
16 16 16
7 7 7
8 8 8
18 18 18
13 13 13
35 35 35
2 2 2
2 2 2
2 2 2
0 0 0
0 0 0
2 2 2
2 2 2
2 2 2
2 2 2
2 2 2
2 2 2
2 2 2
3 3 3
2 2 2
3 3 3
3 3 3
3 3 3
2 2 2
3 3 3
4 4 4
4 4 4
3 3 3
3 3 3
3 3 3
4 4 4
4 4 4
3 3 3
3 3 3
3 3 3
3 3 3
2 2 2
4 4 4
2 2 2
3 3 3
3 3 3
4 4 4
4 4 4
5 5 5
4 4 4
4 4 4
4 4 4
11 11 11
26 26 26
14 14 14
15 15 15
9 9 9
34 34 34
11 11 11
16 16 16
2 2 2
2 2 2
2 2 2
2 2 2
0 0 0
0 0 0
2 2 2
2 2 2
2 2 2
2 2 2
2 2 2
1 1 1
1 1 1
2 2 2
3 3 3
2 2 2
3 3 3
3 3 3
3 3 3
3 3 3
3 3 3
4 4 4
3 3 3
3 3 3
4 4 4
3 3 3
4 4 4
3 3 3
4 4 4
5 5 5
4 4 4
4 4 4
4 4 4
4 4 4
5 5 5
5 5 5
5 5 5
4 4 4
4 4 4
5 5 5
4 4 4
13 13 13
11 11 11
23 23 23
21 21 21
28 28 28
8 8 8
40 40 40
13 13 13
5 5 5
2 2 2
2 2 2
2 2 2
2 2 2
0 0 0
0 0 0
2 2 2
2 2 2
2 2 2
2 2 2
2 2 2
2 2 2
1 1 1
1 1 1
1 1 1
2 2 2
2 2 2
2 2 2
3 3 3
3 3 3
3 3 3
4 4 4
3 3 3
4 4 4
4 4 4
4 4 4
4 4 4
3 3 3
3 3 3
4 4 4
4 4 4
3 3 3
4 4 4
4 4 4
4 4 4
5 5 5
4 4 4
4 4 4
4 4 4
10 10 10
15 15 15
9 9 9
10 10 10
27 27 27
8 8 8
27 27 27
24 24 24
15 15 15
10 10 10
2 2 2
2 2 2
2 2 2
2 2 2
2 2 2
0 0 0
0 0 0
2 2 2
2 2 2
2 2 2
2 2 2
2 2 2
2 2 2
2 2 2
1 1 1
1 1 1
1 1 1
1 1 1
1 1 1
1 1 1
1 1 1
2 2 2
2 2 2
2 2 2
3 3 3
2 2 2
5 5 5
6 6 6
3 3 3
3 3 3
5 5 5
3 3 3
3 3 3
4 4 4
4 4 4
4 4 4
4 4 4
4 4 4
6 6 6
10 10 10
10 10 10
3 3 3
16 16 16
16 16 16
15 15 15
24 24 24
22 22 22
52 52 52
17 17 17
2 2 2
2 2 2
2 2 2
2 2 2
2 2 2
2 2 2
0 0 0
0 0 0
2 2 2
2 2 2
2 2 2
2 2 2
2 2 2
2 2 2
2 2 2
2 2 2
1 1 1
0 0 0
1 1 1
1 1 1
1 1 1
1 1 1
2 2 2
2 2 2
1 1 1
1 1 1
1 1 1
3 3 3
15 15 15
25 25 25
3 3 3
4 4 4
3 3 3
3 3 3
3 3 3
5 5 5
4 4 4
6 6 6
12 12 12
10 10 10
11 11 11
17 17 17
10 10 10
9 9 9
19 19 19
19 19 19
30 30 30
13 13 13
15 15 15
2 2 2
2 2 2
2 2 2
2 2 2
2 2 2
2 2 2
2 2 2
0 0 0
0 0 0
2 2 2
2 2 2
2 2 2
2 2 2
2 2 2
2 2 2
2 2 2
2 2 2
2 2 2
0 0 0
1 1 1
0 0 0
1 1 1
1 1 1
1 1 1
1 1 1
1 1 1
2 2 2
1 1 1
2 2 2
0 0 0
3 3 3
15 15 15
2 2 2
2 2 2
2 2 2
2 2 2
3 3 3
2 2 2
12 12 12
12 12 12
11 11 11
10 10 10
11 11 11
11 11 11
8 8 8
19 19 19
20 20 20
21 21 21
4 4 4
2 2 2
2 2 2
2 2 2
2 2 2
2 2 2
2 2 2
2 2 2
2 2 2
0 0 0
0 0 0
2 2 2
2 2 2
2 2 2
2 2 2
2 2 2
2 2 2
2 2 2
2 2 2
2 2 2
2 2 2
1 1 1
0 0 0
1 1 1
1 1 1
1 1 1
2 2 2
1 1 1
1 1 1
1 1 1
2 2 2
2 2 2
1 1 1
2 2 2
15 15 15
2 2 2
9 9 9
9 9 9
2 2 2
3 3 3
18 18 18
7 7 7
14 14 14
9 9 9
16 16 16
13 13 13
12 12 12
15 15 15
35 35 35
2 2 2
2 2 2
2 2 2
2 2 2
2 2 2
2 2 2
2 2 2
2 2 2
2 2 2
2 2 2
0 0 0
0 0 0
2 2 2
2 2 2
2 2 2
2 2 2
2 2 2
2 2 2
2 2 2
2 2 2
2 2 2
2 2 2
2 2 2
2 2 2
1 1 1
1 1 1
1 1 1
1 1 1
1 1 1
1 1 1
1 1 1
2 2 2
1 1 1
2 2 2
2 2 2
2 2 2
16 16 16
6 6 6
7 7 7
2 2 2
14 14 14
5 5 5
7 7 7
16 16 16
7 7 7
7 7 7
14 14 14
14 14 14
5 5 5
2 2 2
2 2 2
2 2 2
2 2 2
2 2 2
2 2 2
2 2 2
2 2 2
2 2 2
2 2 2
2 2 2
0 0 0
0 0 0
2 2 2
2 2 2
2 2 2
2 2 2
2 2 2
2 2 2
2 2 2
2 2 2
2 2 2
2 2 2
2 2 2
2 2 2
2 2 2
2 2 2
0 0 0
1 1 1
1 1 1
1 1 1
1 1 1
1 1 1
2 2 2
1 1 1
2 2 2
2 2 2
1 1 1
19 19 19
19 19 19
12 12 12
15 15 15
9 9 9
12 12 12
11 11 11
7 7 7
16 16 16
3 3 3
2 2 2
2 2 2
2 2 2
2 2 2
2 2 2
2 2 2
2 2 2
2 2 2
2 2 2
2 2 2
2 2 2
2 2 2
2 2 2
0 0 0
0 0 0
2 2 2
2 2 2
2 2 2
2 2 2
2 2 2
2 2 2
2 2 2
2 2 2
2 2 2
2 2 2
2 2 2
2 2 2
2 2 2
2 2 2
2 2 2
2 2 2
2 2 2
2 2 2
2 2 2
2 2 2
2 2 2
2 2 2
2 2 2
3 3 3
2 2 2
20 20 20
25 25 25
6 6 6
14 14 14
10 10 10
13 13 13
11 11 11
2 2 2
2 2 2
2 2 2
2 2 2
2 2 2
2 2 2
2 2 2
2 2 2
2 2 2
2 2 2
2 2 2
2 2 2
2 2 2
2 2 2
2 2 2
2 2 2
0 0 0
0 0 0
0 0 0
0 0 0
0 0 0
0 0 0
0 0 0
0 0 0
0 0 0
0 0 0
0 0 0
0 0 0
0 0 0
0 0 0
0 0 0
0 0 0
0 0 0
0 0 0
0 0 0
0 0 0
0 0 0
0 0 0
0 0 0
0 0 0
0 0 0
0 0 0
0 0 0
0 0 0
0 0 0
0 0 0
0 0 0
0 0 0
0 0 0
0 0 0
0 0 0
0 0 0
0 0 0
0 0 0
0 0 0
0 0 0
0 0 0
0 0 0
0 0 0
0 0 0
0 0 0
0 0 0
0 0 0
0 0 0
0 0 0
0 0 0
0 0 0
