P3 
50 50 
255
0 0 0
0 0 0
0 0 0
0 0 0
0 0 0
0 0 0
0 0 0
0 0 0
0 0 0
0 0 0
0 0 0
0 0 0
0 0 0
0 0 0
0 0 0
0 0 0
0 0 0
0 0 0
0 0 0
0 0 0
0 0 0
0 0 0
0 0 0
0 0 0
0 0 0
0 0 0
0 0 0
0 0 0
0 0 0
0 0 0
0 0 0
0 0 0
0 0 0
0 0 0
0 0 0
0 0 0
0 0 0
0 0 0
0 0 0
0 0 0
0 0 0
0 0 0
0 0 0
0 0 0
0 0 0
0 0 0
0 0 0
0 0 0
0 0 0
0 0 0
0 0 0
2 2 2
2 2 2
2 2 2
2 2 2
2 2 2
2 2 2
2 2 2
2 2 2
2 2 2
2 2 2
2 2 2
2 2 2
2 2 2
2 2 2
2 2 2
2 2 2
1 1 1
1 1 1
2 2 2
3 3 3
2 2 2
3 3 3
4 4 4
4 4 4
4 4 4
4 4 4
8 8 8
9 9 9
4 4 4
5 5 5
7 7 7
4 4 4
2 2 2
2 2 2
2 2 2
2 2 2
2 2 2
2 2 2
2 2 2
2 2 2
2 2 2
2 2 2
2 2 2
2 2 2
2 2 2
2 2 2
2 2 2
2 2 2
0 0 0
0 0 0
2 2 2
2 2 2
2 2 2
2 2 2
2 2 2
2 2 2
2 2 2
2 2 2
2 2 2
2 2 2
2 2 2
2 2 2
2 2 2
2 2 2
1 1 1
2 2 2
2 2 2
2 2 2
3 3 3
3 3 3
3 3 3
3 3 3
3 3 3
3 3 3
4 4 4
5 5 5
13 13 13
11 11 11
7 7 7
14 14 14
17 17 17
22 22 22
16 16 16
16 16 16
2 2 2
2 2 2
2 2 2
2 2 2
2 2 2
2 2 2
2 2 2
2 2 2
2 2 2
2 2 2
2 2 2
2 2 2
2 2 2
2 2 2
0 0 0
0 0 0
2 2 2
2 2 2
2 2 2
2 2 2
2 2 2
2 2 2
2 2 2
2 2 2
2 2 2
2 2 2
2 2 2
2 2 2
1 1 1
1 1 1
2 2 2
2 2 2
2 2 2
3 3 3
2 2 2
3 3 3
4 4 4
3 3 3
3 3 3
3 3 3
5 5 5
18 18 18
19 19 19
18 18 18
21 21 21
13 13 13
11 11 11
10 10 10
9 9 9
9 9 9
10 10 10
14 14 14
2 2 2
2 2 2
2 2 2
2 2 2
2 2 2
2 2 2
2 2 2
2 2 2
2 2 2
2 2 2
2 2 2
2 2 2
0 0 0
0 0 0
2 2 2
2 2 2
2 2 2
2 2 2
2 2 2
2 2 2
2 2 2
2 2 2
2 2 2
2 2 2
1 1 1
2 2 2
2 2 2
2 2 2
3 3 3
3 3 3
3 3 3
4 4 4
1 1 1
2 2 2
1 1 1
2 2 2
3 3 3
4 4 4
30 30 30
55 55 55
67 67 67
4 4 4
24 24 24
6 6 6
32 32 32
24 24 24
8 8 8
12 12 12
11 11 11
7 7 7
8 8 8
8 8 8
2 2 2
2 2 2
2 2 2
2 2 2
2 2 2
2 2 2
2 2 2
2 2 2
2 2 2
2 2 2
0 0 0
0 0 0
2 2 2
2 2 2
2 2 2
2 2 2
2 2 2
2 2 2
2 2 2
2 2 2
2 2 2
2 2 2
3 3 3
2 2 2
3 3 3
3 3 3
2 2 2
3 3 3
4 4 4
4 4 4
2 2 2
6 6 6
7 7 7
8 8 8
11 11 11
24 24 24
83 83 83
86 86 86
75 75 75
88 88 88
84 84 84
69 69 69
39 39 39
36 36 36
23 23 23
10 10 10
7 7 7
9 9 9
13 13 13
12 12 12
19 19 19
2 2 2
2 2 2
2 2 2
2 2 2
2 2 2
2 2 2
2 2 2
2 2 2
2 2 2
0 0 0
0 0 0
2 2 2
2 2 2
2 2 2
2 2 2
2 2 2
2 2 2
2 2 2
2 2 2
2 2 2
3 3 3
3 3 3
3 3 3
3 3 3
4 4 4
4 4 4
3 3 3
3 3 3
2 2 2
1 1 1
8 8 8
9 9 9
25 25 25
77 77 77
89 89 89
86 86 86
86 86 86
99 99 99
158 158 158
210 210 210
192 192 192
145 145 145
109 109 109
90 90 90
87 87 87
80 80 80
25 25 25
6 6 6
8 8 8
11 11 11
11 11 11
4 4 4
2 2 2
2 2 2
2 2 2
2 2 2
2 2 2
2 2 2
2 2 2
0 0 0
0 0 0
2 2 2
2 2 2
2 2 2
2 2 2
2 2 2
2 2 2
2 2 2
2 2 2
2 2 2
3 3 3
3 3 3
4 4 4
4 4 4
2 2 2
2 2 2
1 1 1
4 4 4
46 46 46
81 81 81
81 81 81
84 84 84
87 87 87
85 85 85
90 90 90
144 144 144
152 152 152
138 138 138
122 122 122
120 120 120
129 129 129
148 148 148
151 151 151
169 169 169
190 190 190
173 173 173
108 108 108
87 87 87
39 39 39
10 10 10
10 10 10
11 11 11
11 11 11
2 2 2
2 2 2
2 2 2
2 2 2
2 2 2
2 2 2
0 0 0
0 0 0
2 2 2
2 2 2
2 2 2
2 2 2
2 2 2
2 2 2
2 2 2
2 2 2
2 2 2
4 4 4
4 4 4
4 4 4
3 3 3
61 61 61
68 68 68
75 75 75
79 79 79
79 79 79
82 82 82
85 85 85
87 87 87
89 89 89
134 134 134
133 133 133
92 92 92
85 85 85
87 87 87
86 86 86
86 86 86
87 87 87
87 87 87
86 86 86
87 87 87
92 92 92
145 145 145
182 182 182
195 195 195
109 109 109
78 78 78
25 25 25
9 9 9
23 23 23
5 5 5
2 2 2
2 2 2
2 2 2
2 2 2
2 2 2
0 0 0
0 0 0
2 2 2
2 2 2
2 2 2
2 2 2
2 2 2
2 2 2
2 2 2
2 2 2
3 3 3
3 3 3
4 4 4
11 11 11
79 79 79
80 80 80
86 86 86
83 83 83
82 82 82
80 80 80
84 84 84
89 89 89
122 122 122
148 148 148
87 87 87
86 86 86
87 87 87
86 86 86
87 87 87
86 86 86
87 87 87
88 88 88
87 87 87
87 87 87
86 86 86
87 87 87
87 87 87
103 103 103
168 168 168
183 183 183
149 149 149
87 87 87
18 18 18
11 11 11
45 45 45
2 2 2
2 2 2
2 2 2
2 2 2
2 2 2
0 0 0
0 0 0
2 2 2
2 2 2
2 2 2
2 2 2
2 2 2
2 2 2
3 3 3
4 4 4
3 3 3
2 2 2
59 59 59
81 81 81
97 97 97
188 188 188
78 78 78
77 77 77
86 86 86
86 86 86
109 109 109
115 115 115
125 125 125
85 85 85
86 86 86
86 86 86
86 86 86
86 86 86
87 87 87
87 87 87
87 87 87
87 87 87
87 87 87
87 87 87
87 87 87
88 88 88
87 87 87
88 88 88
87 87 87
88 88 88
160 160 160
184 184 184
89 89 89
34 34 34
32 32 32
19 19 19
2 2 2
2 2 2
2 2 2
2 2 2
0 0 0
0 0 0
2 2 2
2 2 2
2 2 2
2 2 2
2 2 2
2 2 2
2 2 2
1 1 1
22 22 22
78 78 78
86 86 86
180 180 180
160 160 160
85 85 85
86 86 86
86 86 86
81 81 81
102 102 102
138 138 138
89 89 89
86 86 86
85 85 85
86 86 86
86 86 86
86 86 86
86 86 86
87 87 87
87 87 87
87 87 87
87 87 87
87 87 87
86 86 86
87 87 87
87 87 87
87 87 87
87 87 87
87 87 87
88 88 88
89 89 89
177 177 177
189 189 189
102 102 102
33 33 33
36 36 36
22 22 22
2 2 2
2 2 2
2 2 2
0 0 0
0 0 0
2 2 2
2 2 2
2 2 2
2 2 2
2 2 2
1 1 1
1 1 1
1 1 1
78 78 78
85 85 85
162 162 162
120 120 120
77 77 77
84 84 84
83 83 83
84 84 84
81 81 81
143 143 143
135 135 135
84 84 84
86 86 86
85 85 85
86 86 86
87 87 87
94 94 94
94 94 94
87 87 87
86 86 86
87 87 87
86 86 86
86 86 86
86 86 86
86 86 86
86 86 86
87 87 87
87 87 87
87 87 87
88 88 88
87 87 87
92 92 92
175 175 175
195 195 195
86 86 86
53 53 53
20 20 20
7 7 7
2 2 2
2 2 2
0 0 0
0 0 0
2 2 2
2 2 2
2 2 2
1 1 1
3 3 3
0 0 0
1 1 1
13 13 13
78 78 78
174 174 174
117 117 117
136 136 136
137 137 137
78 78 78
80 80 80
83 83 83
85 85 85
110 110 110
142 142 142
86 86 86
85 85 85
86 86 86
86 86 86
88 88 88
91 91 91
88 88 88
87 87 87
87 87 87
86 86 86
86 86 86
86 86 86
86 86 86
86 86 86
86 86 86
86 86 86
87 87 87
87 87 87
88 88 88
87 87 87
87 87 87
99 99 99
170 170 170
194 194 194
59 59 59
19 19 19
92 92 92
2 2 2
2 2 2
0 0 0
0 0 0
2 2 2
2 2 2
2 2 2
2 2 2
2 2 2
1 1 1
0 0 0
31 31 31
81 81 81
150 150 150
120 120 120
105 105 105
101 101 101
98 98 98
80 80 80
106 106 106
105 105 105
111 111 111
129 129 129
85 85 85
85 85 85
85 85 85
86 86 86
90 90 90
94 94 94
87 87 87
86 86 86
86 86 86
86 86 86
86 86 86
86 86 86
85 85 85
86 86 86
87 87 87
87 87 87
87 87 87
87 87 87
88 88 88
87 87 87
87 87 87
88 88 88
156 156 156
183 183 183
102 102 102
31 31 31
82 82 82
5 5 5
2 2 2
0 0 0
0 0 0
2 2 2
1 1 1
1 1 1
1 1 1
1 1 1
1 1 1
1 1 1
43 43 43
82 82 82
111 111 111
82 82 82
56 56 56
19 19 19
0 0 0
5 5 5
91 91 91
105 105 105
105 105 105
118 118 118
100 100 100
85 85 85
86 86 86
89 89 89
110 110 110
102 102 102
87 87 87
87 87 87
86 86 86
87 87 87
86 86 86
86 86 86
85 85 85
87 87 87
87 87 87
87 87 87
88 88 88
87 87 87
88 88 88
89 89 89
88 88 88
88 88 88
88 88 88
172 172 172
180 180 180
61 61 61
61 61 61
25 25 25
2 2 2
0 0 0
0 0 0
2 2 2
1 1 1
0 0 0
1 1 1
1 1 1
2 2 2
0 0 0
66 66 66
82 82 82
88 88 88
11 11 11
9 9 9
1 1 1
2 2 2
0 0 0
18 18 18
95 95 95
59 59 59
77 77 77
99 99 99
86 86 86
86 86 86
95 95 95
135 135 135
85 85 85
85 85 85
86 86 86
86 86 86
87 87 87
88 88 88
87 87 87
87 87 87
86 86 86
88 88 88
87 87 87
87 87 87
87 87 87
88 88 88
88 88 88
88 88 88
88 88 88
87 87 87
164 164 164
194 194 194
64 64 64
41 41 41
16 16 16
3 3 3
0 0 0
0 0 0
1 1 1
1 1 1
1 1 1
0 0 0
1 1 1
1 1 1
1 1 1
78 78 78
89 89 89
21 21 21
69 69 69
3 3 3
1 1 1
3 3 3
2 2 2
3 3 3
98 98 98
32 32 32
7 7 7
111 111 111
94 94 94
101 101 101
115 115 115
104 104 104
84 84 84
86 86 86
86 86 86
86 86 86
87 87 87
86 86 86
86 86 86
86 86 86
87 87 87
87 87 87
87 87 87
87 87 87
88 88 88
88 88 88
88 88 88
88 88 88
88 88 88
87 87 87
143 143 143
190 190 190
65 65 65
29 29 29
17 17 17
21 21 21
0 0 0
0 0 0
1 1 1
1 1 1
0 0 0
0 0 0
1 1 1
0 0 0
59 59 59
77 77 77
161 161 161
5 5 5
42 42 42
44 44 44
12 12 12
2 2 2
0 0 0
97 97 97
115 115 115
95 95 95
2 2 2
2 2 2
87 87 87
105 105 105
105 105 105
84 84 84
86 86 86
87 87 87
87 87 87
87 87 87
86 86 86
87 87 87
87 87 87
86 86 86
86 86 86
87 87 87
86 86 86
87 87 87
87 87 87
87 87 87
88 88 88
88 88 88
89 89 89
86 86 86
160 160 160
180 180 180
66 66 66
22 22 22
17 17 17
22 22 22
0 0 0
0 0 0
2 2 2
0 0 0
11 11 11
67 67 67
79 79 79
83 83 83
83 83 83
97 97 97
78 78 78
109 109 109
64 64 64
28 28 28
24 24 24
14 14 14
27 27 27
53 53 53
42 42 42
79 79 79
25 25 25
32 32 32
81 81 81
99 99 99
101 101 101
85 85 85
87 87 87
87 87 87
87 87 87
87 87 87
87 87 87
86 86 86
87 87 87
87 87 87
86 86 86
86 86 86
87 87 87
87 87 87
87 87 87
87 87 87
87 87 87
87 87 87
87 87 87
86 86 86
158 158 158
178 178 178
68 68 68
21 21 21
16 16 16
16 16 16
0 0 0
0 0 0
2 2 2
68 68 68
63 63 63
14 14 14
2 2 2
51 51 51
24 24 24
3 3 3
15 15 15
15 15 15
9 9 9
35 35 35
58 58 58
51 51 51
32 32 32
68 68 68
111 111 111
74 74 74
53 53 53
1 1 1
1 1 1
17 17 17
92 92 92
85 85 85
87 87 87
86 86 86
87 87 87
87 87 87
86 86 86
87 87 87
87 87 87
86 86 86
86 86 86
86 86 86
87 87 87
88 88 88
87 87 87
87 87 87
87 87 87
87 87 87
89 89 89
105 105 105
170 170 170
183 183 183
63 63 63
16 16 16
19 19 19
14 14 14
0 0 0
0 0 0
1 1 1
71 71 71
73 73 73
81 81 81
76 76 76
73 73 73
73 73 73
63 63 63
70 70 70
76 76 76
71 71 71
60 60 60
48 48 48
46 46 46
42 42 42
20 20 20
58 58 58
74 74 74
7 7 7
1 1 1
1 1 1
81 81 81
97 97 97
87 87 87
88 88 88
87 87 87
88 88 88
88 88 88
87 87 87
87 87 87
87 87 87
87 87 87
87 87 87
87 87 87
88 88 88
88 88 88
87 87 87
88 88 88
88 88 88
88 88 88
87 87 87
92 92 92
166 166 166
184 184 184
73 73 73
14 14 14
21 21 21
13 13 13
0 0 0
0 0 0
1 1 1
13 13 13
83 83 83
66 66 66
46 46 46
82 82 82
75 75 75
2 2 2
0 0 0
1 1 1
15 15 15
18 18 18
7 7 7
27 27 27
46 46 46
20 20 20
30 30 30
83 83 83
46 46 46
63 63 63
89 89 89
107 107 107
101 101 101
85 85 85
87 87 87
87 87 87
87 87 87
86 86 86
87 87 87
87 87 87
87 87 87
87 87 87
86 86 86
87 87 87
87 87 87
86 86 86
87 87 87
87 87 87
88 88 88
89 89 89
88 88 88
87 87 87
172 172 172
191 191 191
68 68 68
13 13 13
22 22 22
15 15 15
0 0 0
0 0 0
2 2 2
1 1 1
0 0 0
12 12 12
22 22 22
63 63 63
84 84 84
104 104 104
88 88 88
150 150 150
80 80 80
123 123 123
72 72 72
7 7 7
6 6 6
54 54 54
146 146 146
89 89 89
83 83 83
128 128 128
113 113 113
96 96 96
104 104 104
121 121 121
85 85 85
86 86 86
86 86 86
87 87 87
87 87 87
87 87 87
87 87 87
87 87 87
87 87 87
87 87 87
87 87 87
87 87 87
88 88 88
87 87 87
88 88 88
88 88 88
88 88 88
86 86 86
172 172 172
190 190 190
46 46 46
12 12 12
24 24 24
13 13 13
0 0 0
0 0 0
2 2 2
1 1 1
0 0 0
0 0 0
1 1 1
1 1 1
62 62 62
78 78 78
96 96 96
5 5 5
42 42 42
7 7 7
7 7 7
2 2 2
3 3 3
1 1 1
51 51 51
113 113 113
120 120 120
107 107 107
92 92 92
86 86 86
97 97 97
103 103 103
121 121 121
85 85 85
86 86 86
86 86 86
87 87 87
86 86 86
87 87 87
86 86 86
87 87 87
87 87 87
87 87 87
87 87 87
88 88 88
88 88 88
87 87 87
87 87 87
87 87 87
94 94 94
172 172 172
142 142 142
41 41 41
11 11 11
24 24 24
13 13 13
0 0 0
0 0 0
2 2 2
1 1 1
1 1 1
1 1 1
0 0 0
1 1 1
0 0 0
56 56 56
84 84 84
76 76 76
2 2 2
17 17 17
3 3 3
2 2 2
3 3 3
5 5 5
91 91 91
107 107 107
116 116 116
94 94 94
86 86 86
88 88 88
102 102 102
160 160 160
147 147 147
105 105 105
84 84 84
86 86 86
86 86 86
87 87 87
87 87 87
86 86 86
87 87 87
88 88 88
87 87 87
87 87 87
87 87 87
88 88 88
88 88 88
87 87 87
88 88 88
176 176 176
203 203 203
79 79 79
30 30 30
11 11 11
23 23 23
13 13 13
0 0 0
0 0 0
1 1 1
1 1 1
0 0 0
1 1 1
1 1 1
1 1 1
1 1 1
4 4 4
79 79 79
151 151 151
70 70 70
115 115 115
8 8 8
1 1 1
0 0 0
98 98 98
85 85 85
89 89 89
117 117 117
116 116 116
87 87 87
86 86 86
92 92 92
237 237 237
106 106 106
222 222 222
99 99 99
86 86 86
86 86 86
86 86 86
87 87 87
87 87 87
87 87 87
87 87 87
87 87 87
87 87 87
87 87 87
88 88 88
88 88 88
88 88 88
134 134 134
184 184 184
131 131 131
35 35 35
42 42 42
11 11 11
22 22 22
14 14 14
0 0 0
0 0 0
1 1 1
1 1 1
0 0 0
1 1 1
1 1 1
1 1 1
1 1 1
1 1 1
74 74 74
151 151 151
125 125 125
81 81 81
19 19 19
4 4 4
71 71 71
86 86 86
85 85 85
87 87 87
105 105 105
123 123 123
87 87 87
85 85 85
91 91 91
146 146 146
175 175 175
190 190 190
125 125 125
85 85 85
86 86 86
87 87 87
87 87 87
88 88 88
87 87 87
87 87 87
88 88 88
88 88 88
87 87 87
87 87 87
87 87 87
100 100 100
178 178 178
189 189 189
74 74 74
22 22 22
53 53 53
11 11 11
20 20 20
15 15 15
0 0 0
0 0 0
1 1 1
0 0 0
0 0 0
1 1 1
1 1 1
1 1 1
1 1 1
1 1 1
54 54 54
122 122 122
124 124 124
41 41 41
5 5 5
100 100 100
77 77 77
86 86 86
85 85 85
85 85 85
105 105 105
138 138 138
92 92 92
88 88 88
94 94 94
52 52 52
110 110 110
204 204 204
159 159 159
87 87 87
87 87 87
88 88 88
87 87 87
87 87 87
87 87 87
87 87 87
88 88 88
88 88 88
87 87 87
88 88 88
88 88 88
173 173 173
185 185 185
85 85 85
35 35 35
24 24 24
47 47 47
12 12 12
17 17 17
14 14 14
0 0 0
0 0 0
0 0 0
0 0 0
1 1 1
1 1 1
1 1 1
1 1 1
2 2 2
1 1 1
15 15 15
81 81 81
151 151 151
136 136 136
140 140 140
75 75 75
86 86 86
85 85 85
84 84 84
79 79 79
125 125 125
134 134 134
129 129 129
95 95 95
102 102 102
131 131 131
42 42 42
36 36 36
121 121 121
117 117 117
87 87 87
87 87 87
87 87 87
87 87 87
87 87 87
87 87 87
87 87 87
87 87 87
87 87 87
93 93 93
160 160 160
163 163 163
84 84 84
39 39 39
29 29 29
25 25 25
44 44 44
15 15 15
15 15 15
14 14 14
0 0 0
0 0 0
0 0 0
1 1 1
0 0 0
0 0 0
0 0 0
1 1 1
0 0 0
1 1 1
0 0 0
72 72 72
86 86 86
165 165 165
141 141 141
76 76 76
85 85 85
88 88 88
88 88 88
84 84 84
86 86 86
139 139 139
127 127 127
124 124 124
98 98 98
104 104 104
106 106 106
101 101 101
115 115 115
102 102 102
86 86 86
87 87 87
87 87 87
87 87 87
87 87 87
87 87 87
86 86 86
93 93 93
166 166 166
190 190 190
125 125 125
82 82 82
22 22 22
21 21 21
30 30 30
37 37 37
24 24 24
20 20 20
13 13 13
15 15 15
0 0 0
0 0 0
1 1 1
1 1 1
1 1 1
1 1 1
0 0 0
1 1 1
0 0 0
1 1 1
0 0 0
3 3 3
74 74 74
76 76 76
131 131 131
191 191 191
112 112 112
73 73 73
75 75 75
79 79 79
87 87 87
86 86 86
142 142 142
165 165 165
128 128 128
94 94 94
90 90 90
87 87 87
89 89 89
89 89 89
86 86 86
88 88 88
87 87 87
87 87 87
87 87 87
89 89 89
126 126 126
183 183 183
204 204 204
96 96 96
82 82 82
24 24 24
26 26 26
27 27 27
16 16 16
33 33 33
10 10 10
27 27 27
13 13 13
19 19 19
0 0 0
0 0 0
1 1 1
1 1 1
2 2 2
3 3 3
2 2 2
1 1 1
0 0 0
0 0 0
1 1 1
0 0 0
0 0 0
65 65 65
76 76 76
78 78 78
137 137 137
158 158 158
87 87 87
80 80 80
79 79 79
82 82 82
83 83 83
88 88 88
130 130 130
170 170 170
110 110 110
91 91 91
92 92 92
93 93 93
98 98 98
87 87 87
87 87 87
89 89 89
112 112 112
172 172 172
199 199 199
130 130 130
85 85 85
38 38 38
22 22 22
21 21 21
18 18 18
14 14 14
22 22 22
41 41 41
9 9 9
41 41 41
13 13 13
28 28 28
0 0 0
0 0 0
2 2 2
2 2 2
2 2 2
2 2 2
2 2 2
1 1 1
1 1 1
0 0 0
0 0 0
2 2 2
0 0 0
0 0 0
4 4 4
50 50 50
76 76 76
79 79 79
83 83 83
89 89 89
85 85 85
82 82 82
82 82 82
86 86 86
86 86 86
89 89 89
112 112 112
166 166 166
170 170 170
80 80 80
115 115 115
180 180 180
175 175 175
186 186 186
188 188 188
115 115 115
81 81 81
48 48 48
28 28 28
14 14 14
24 24 24
13 13 13
26 26 26
20 20 20
15 15 15
50 50 50
8 8 8
59 59 59
13 13 13
2 2 2
0 0 0
0 0 0
2 2 2
2 2 2
3 3 3
3 3 3
2 2 2
1 1 1
0 0 0
1 1 1
1 1 1
1 1 1
1 1 1
2 2 2
1 1 1
1 1 1
1 1 1
1 1 1
4 4 4
7 7 7
6 6 6
6 6 6
7 7 7
6 6 6
11 11 11
49 49 49
89 89 89
90 90 90
93 93 93
142 142 142
204 204 204
202 202 202
134 134 134
84 84 84
67 67 67
33 33 33
22 22 22
4 4 4
12 12 12
18 18 18
24 24 24
22 22 22
22 22 22
19 19 19
19 19 19
35 35 35
9 9 9
78 78 78
22 22 22
2 2 2
0 0 0
0 0 0
2 2 2
2 2 2
2 2 2
3 3 3
2 2 2
3 3 3
2 2 2
2 2 2
1 1 1
3 3 3
3 3 3
3 3 3
3 3 3
2 2 2
2 2 2
2 2 2
3 3 3
3 3 3
3 3 3
3 3 3
2 2 2
2 2 2
3 3 3
3 3 3
2 2 2
73 73 73
46 46 46
63 63 63
7 7 7
49 49 49
46 46 46
5 5 5
18 18 18
15 15 15
3 3 3
4 4 4
5 5 5
27 27 27
23 23 23
23 23 23
19 19 19
23 23 23
18 18 18
10 10 10
10 10 10
80 80 80
8 8 8
2 2 2
0 0 0
0 0 0
2 2 2
2 2 2
2 2 2
3 3 3
2 2 2
3 3 3
3 3 3
3 3 3
3 3 3
3 3 3
3 3 3
3 3 3
3 3 3
4 4 4
3 3 3
4 4 4
2 2 2
3 3 3
4 4 4
2 2 2
2 2 2
3 3 3
2 2 2
1 1 1
5 5 5
3 3 3
77 77 77
14 14 14
20 20 20
22 22 22
55 55 55
10 10 10
6 6 6
3 3 3
4 4 4
4 4 4
4 4 4
24 24 24
20 20 20
17 17 17
13 13 13
26 26 26
32 32 32
7 7 7
14 14 14
65 65 65
2 2 2
2 2 2
0 0 0
0 0 0
2 2 2
2 2 2
2 2 2
2 2 2
2 2 2
3 3 3
3 3 3
3 3 3
3 3 3
3 3 3
3 3 3
3 3 3
3 3 3
3 3 3
4 4 4
4 4 4
4 4 4
4 4 4
4 4 4
3 3 3
2 2 2
2 2 2
2 2 2
2 2 2
3 3 3
3 3 3
3 3 3
4 4 4
5 5 5
4 4 4
3 3 3
3 3 3
3 3 3
2 2 2
4 4 4
5 5 5
5 5 5
19 19 19
16 16 16
25 25 25
17 17 17
29 29 29
49 49 49
11 11 11
16 16 16
10 10 10
2 2 2
2 2 2
0 0 0
0 0 0
2 2 2
2 2 2
2 2 2
2 2 2
2 2 2
3 3 3
3 3 3
3 3 3
3 3 3
3 3 3
3 3 3
3 3 3
3 3 3
3 3 3
3 3 3
4 4 4
3 3 3
4 4 4
5 5 5
5 5 5
3 3 3
2 2 2
2 2 2
3 3 3
4 4 4
4 4 4
3 3 3
4 4 4
3 3 3
4 4 4
4 4 4
4 4 4
3 3 3
5 5 5
5 5 5
4 4 4
5 5 5
14 14 14
13 13 13
6 6 6
18 18 18
22 22 22
19 19 19
14 14 14
35 35 35
2 2 2
2 2 2
2 2 2
0 0 0
0 0 0
2 2 2
2 2 2
2 2 2
2 2 2
1 1 1
1 1 1
1 1 1
2 2 2
2 2 2
3 3 3
3 3 3
3 3 3
3 3 3
3 3 3
3 3 3
4 4 4
3 3 3
3 3 3
4 4 4
4 4 4
4 4 4
4 4 4
3 3 3
4 4 4
4 4 4
4 4 4
3 3 3
6 6 6
4 4 4
4 4 4
4 4 4
4 4 4
4 4 4
5 5 5
5 5 5
5 5 5
12 12 12
16 16 16
13 13 13
10 10 10
23 23 23
25 25 25
11 11 11
16 16 16
2 2 2
2 2 2
2 2 2
2 2 2
0 0 0
0 0 0
2 2 2
2 2 2
2 2 2
2 2 2
2 2 2
1 1 1
1 1 1
2 2 2
0 0 0
1 1 1
1 1 1
3 3 3
2 2 2
2 2 2
3 3 3
3 3 3
4 4 4
4 4 4
3 3 3
4 4 4
4 4 4
5 5 5
5 5 5
4 4 4
4 4 4
3 3 3
5 5 5
5 5 5
5 5 5
4 4 4
4 4 4
4 4 4
4 4 4
4 4 4
5 5 5
6 6 6
5 5 5
18 18 18
17 17 17
19 19 19
30 30 30
50 50 50
14 14 14
5 5 5
2 2 2
2 2 2
2 2 2
2 2 2
0 0 0
0 0 0
2 2 2
2 2 2
2 2 2
2 2 2
2 2 2
2 2 2
1 1 1
1 1 1
0 0 0
1 1 1
1 1 1
1 1 1
1 1 1
2 2 2
3 3 3
3 3 3
3 3 3
3 3 3
3 3 3
4 4 4
4 4 4
4 4 4
4 4 4
4 4 4
3 3 3
4 4 4
4 4 4
4 4 4
4 4 4
4 4 4
4 4 4
4 4 4
5 5 5
11 11 11
9 9 9
13 13 13
12 12 12
30 30 30
20 20 20
33 33 33
12 12 12
18 18 18
10 10 10
2 2 2
2 2 2
2 2 2
2 2 2
2 2 2
0 0 0
0 0 0
2 2 2
2 2 2
2 2 2
2 2 2
2 2 2
2 2 2
2 2 2
1 1 1
0 0 0
1 1 1
1 1 1
1 1 1
1 1 1
2 2 2
1 1 1
1 1 1
2 2 2
3 3 3
3 3 3
3 3 3
3 3 3
3 3 3
3 3 3
4 4 4
3 3 3
3 3 3
4 4 4
4 4 4
4 4 4
4 4 4
4 4 4
12 12 12
13 13 13
12 12 12
5 5 5
21 21 21
7 7 7
27 27 27
22 22 22
29 29 29
49 49 49
18 18 18
2 2 2
2 2 2
2 2 2
2 2 2
2 2 2
2 2 2
0 0 0
0 0 0
2 2 2
2 2 2
2 2 2
2 2 2
2 2 2
2 2 2
2 2 2
2 2 2
0 0 0
1 1 1
1 1 1
0 0 0
1 1 1
1 1 1
1 1 1
1 1 1
1 1 1
2 2 2
2 2 2
1 1 1
2 2 2
3 3 3
2 2 2
3 3 3
4 4 4
4 4 4
4 4 4
4 4 4
4 4 4
4 4 4
9 9 9
9 9 9
6 6 6
10 10 10
14 14 14
9 9 9
16 16 16
28 28 28
33 33 33
31 31 31
19 19 19
2 2 2
2 2 2
2 2 2
2 2 2
2 2 2
2 2 2
2 2 2
0 0 0
0 0 0
2 2 2
2 2 2
2 2 2
2 2 2
2 2 2
2 2 2
2 2 2
2 2 2
2 2 2
1 1 1
1 1 1
0 0 0
1 1 1
1 1 1
0 0 0
1 1 1
1 1 1
1 1 1
2 2 2
2 2 2
1 1 1
17 17 17
9 9 9
4 4 4
2 2 2
2 2 2
3 3 3
3 3 3
3 3 3
12 12 12
10 10 10
7 7 7
11 11 11
11 11 11
13 13 13
7 7 7
21 21 21
15 15 15
36 36 36
4 4 4
2 2 2
2 2 2
2 2 2
2 2 2
2 2 2
2 2 2
2 2 2
2 2 2
0 0 0
0 0 0
2 2 2
2 2 2
2 2 2
2 2 2
2 2 2
2 2 2
2 2 2
2 2 2
2 2 2
2 2 2
1 1 1
1 1 1
1 1 1
1 1 1
1 1 1
1 1 1
1 1 1
2 2 2
1 1 1
1 1 1
2 2 2
2 2 2
3 3 3
17 17 17
1 1 1
3 3 3
2 2 2
3 3 3
6 6 6
9 9 9
3 3 3
9 9 9
12 12 12
5 5 5
9 9 9
15 15 15
34 34 34
25 25 25
2 2 2
2 2 2
2 2 2
2 2 2
2 2 2
2 2 2
2 2 2
2 2 2
2 2 2
2 2 2
0 0 0
0 0 0
2 2 2
2 2 2
2 2 2
2 2 2
2 2 2
2 2 2
2 2 2
2 2 2
2 2 2
2 2 2
2 2 2
2 2 2
1 1 1
0 0 0
1 1 1
1 1 1
1 1 1
1 1 1
1 1 1
2 2 2
2 2 2
1 1 1
2 2 2
2 2 2
15 15 15
14 14 14
2 2 2
2 2 2
8 8 8
8 8 8
3 3 3
5 5 5
14 14 14
9 9 9
9 9 9
17 17 17
5 5 5
2 2 2
2 2 2
2 2 2
2 2 2
2 2 2
2 2 2
2 2 2
2 2 2
2 2 2
2 2 2
2 2 2
0 0 0
0 0 0
2 2 2
2 2 2
2 2 2
2 2 2
2 2 2
2 2 2
2 2 2
2 2 2
2 2 2
2 2 2
2 2 2
2 2 2
2 2 2
2 2 2
1 1 1
1 1 1
1 1 1
1 1 1
1 1 1
2 2 2
2 2 2
1 1 1
2 2 2
2 2 2
2 2 2
27 27 27
7 7 7
3 3 3
7 7 7
12 12 12
11 11 11
11 11 11
6 6 6
10 10 10
3 3 3
2 2 2
2 2 2
2 2 2
2 2 2
2 2 2
2 2 2
2 2 2
2 2 2
2 2 2
2 2 2
2 2 2
2 2 2
2 2 2
0 0 0
0 0 0
2 2 2
2 2 2
2 2 2
2 2 2
2 2 2
2 2 2
2 2 2
2 2 2
2 2 2
2 2 2
2 2 2
2 2 2
2 2 2
2 2 2
2 2 2
2 2 2
2 2 2
2 2 2
2 2 2
1 1 1
2 2 2
2 2 2
2 2 2
3 3 3
3 3 3
2 2 2
24 24 24
9 9 9
7 7 7
11 11 11
13 13 13
12 12 12
2 2 2
2 2 2
2 2 2
2 2 2
2 2 2
2 2 2
2 2 2
2 2 2
2 2 2
2 2 2
2 2 2
2 2 2
2 2 2
2 2 2
2 2 2
2 2 2
0 0 0
0 0 0
0 0 0
0 0 0
0 0 0
0 0 0
0 0 0
0 0 0
0 0 0
0 0 0
0 0 0
0 0 0
0 0 0
0 0 0
0 0 0
0 0 0
0 0 0
0 0 0
0 0 0
0 0 0
0 0 0
0 0 0
0 0 0
0 0 0
0 0 0
0 0 0
0 0 0
0 0 0
0 0 0
0 0 0
0 0 0
0 0 0
0 0 0
0 0 0
0 0 0
0 0 0
0 0 0
0 0 0
0 0 0
0 0 0
0 0 0
0 0 0
0 0 0
0 0 0
0 0 0
0 0 0
0 0 0
0 0 0
0 0 0
0 0 0
0 0 0
