P3 
50 50 
255
0 0 0
0 0 0
0 0 0
0 0 0
0 0 0
0 0 0
0 0 0
0 0 0
0 0 0
0 0 0
0 0 0
0 0 0
0 0 0
0 0 0
0 0 0
0 0 0
0 0 0
0 0 0
0 0 0
0 0 0
0 0 0
0 0 0
0 0 0
0 0 0
0 0 0
0 0 0
0 0 0
0 0 0
0 0 0
0 0 0
0 0 0
0 0 0
0 0 0
0 0 0
0 0 0
0 0 0
0 0 0
0 0 0
0 0 0
0 0 0
0 0 0
0 0 0
0 0 0
0 0 0
0 0 0
0 0 0
0 0 0
0 0 0
0 0 0
0 0 0
0 0 0
2 2 2
2 2 2
2 2 2
2 2 2
2 2 2
2 2 2
2 2 2
2 2 2
2 2 2
2 2 2
2 2 2
2 2 2
2 2 2
2 2 2
2 2 2
2 2 2
2 2 2
2 2 2
2 2 2
4 4 4
4 4 4
4 4 4
4 4 4
3 3 3
3 3 3
4 4 4
3 3 3
6 6 6
6 6 6
11 11 11
10 10 10
4 4 4
2 2 2
2 2 2
2 2 2
2 2 2
2 2 2
2 2 2
2 2 2
2 2 2
2 2 2
2 2 2
2 2 2
2 2 2
2 2 2
2 2 2
2 2 2
2 2 2
0 0 0
0 0 0
2 2 2
2 2 2
2 2 2
2 2 2
2 2 2
2 2 2
2 2 2
2 2 2
2 2 2
2 2 2
2 2 2
2 2 2
2 2 2
2 2 2
2 2 2
1 1 1
2 2 2
2 2 2
3 3 3
4 4 4
3 3 3
3 3 3
4 4 4
2 2 2
2 2 2
9 9 9
13 13 13
21 21 21
20 20 20
22 22 22
15 15 15
17 17 17
21 21 21
20 20 20
2 2 2
2 2 2
2 2 2
2 2 2
2 2 2
2 2 2
2 2 2
2 2 2
2 2 2
2 2 2
2 2 2
2 2 2
2 2 2
2 2 2
0 0 0
0 0 0
2 2 2
2 2 2
2 2 2
2 2 2
2 2 2
2 2 2
2 2 2
2 2 2
2 2 2
2 2 2
2 2 2
2 2 2
1 1 1
1 1 1
2 2 2
2 2 2
3 3 3
3 3 3
3 3 3
3 3 3
3 3 3
3 3 3
4 4 4
2 2 2
12 12 12
10 10 10
19 19 19
23 23 23
10 10 10
17 17 17
17 17 17
18 18 18
18 18 18
17 17 17
17 17 17
18 18 18
2 2 2
2 2 2
2 2 2
2 2 2
2 2 2
2 2 2
2 2 2
2 2 2
2 2 2
2 2 2
2 2 2
2 2 2
0 0 0
0 0 0
2 2 2
2 2 2
2 2 2
2 2 2
2 2 2
2 2 2
2 2 2
2 2 2
2 2 2
2 2 2
1 1 1
1 1 1
2 2 2
2 2 2
2 2 2
3 3 3
3 3 3
3 3 3
3 3 3
3 3 3
4 4 4
4 4 4
4 4 4
6 6 6
14 14 14
13 13 13
13 13 13
12 12 12
8 8 8
4 4 4
6 6 6
14 14 14
17 17 17
21 21 21
23 23 23
12 12 12
10 10 10
12 12 12
2 2 2
2 2 2
2 2 2
2 2 2
2 2 2
2 2 2
2 2 2
2 2 2
2 2 2
2 2 2
0 0 0
0 0 0
2 2 2
2 2 2
2 2 2
2 2 2
2 2 2
2 2 2
2 2 2
2 2 2
2 2 2
1 1 1
2 2 2
3 3 3
2 2 2
3 3 3
3 3 3
3 3 3
3 3 3
4 4 4
4 4 4
4 4 4
3 3 3
5 5 5
15 15 15
38 38 38
64 64 64
84 84 84
83 83 83
85 85 85
86 86 86
88 88 88
83 83 83
84 84 84
85 85 85
72 72 72
38 38 38
13 13 13
7 7 7
11 11 11
13 13 13
2 2 2
2 2 2
2 2 2
2 2 2
2 2 2
2 2 2
2 2 2
2 2 2
2 2 2
0 0 0
0 0 0
2 2 2
2 2 2
2 2 2
2 2 2
2 2 2
2 2 2
2 2 2
2 2 2
1 1 1
2 2 2
3 3 3
3 3 3
3 3 3
3 3 3
4 4 4
4 4 4
4 4 4
4 4 4
7 7 7
12 12 12
16 16 16
33 33 33
73 73 73
85 85 85
101 101 101
151 151 151
191 191 191
198 198 198
195 195 195
185 185 185
178 178 178
175 175 175
191 191 191
174 174 174
116 116 116
87 87 87
86 86 86
37 37 37
11 11 11
12 12 12
5 5 5
2 2 2
2 2 2
2 2 2
2 2 2
2 2 2
2 2 2
2 2 2
0 0 0
0 0 0
2 2 2
2 2 2
2 2 2
2 2 2
2 2 2
2 2 2
2 2 2
1 1 1
2 2 2
1 1 1
3 3 3
4 4 4
5 5 5
4 4 4
4 4 4
3 3 3
2 2 2
6 6 6
47 47 47
83 83 83
87 87 87
87 87 87
110 110 110
119 119 119
90 90 90
87 87 87
88 88 88
90 90 90
87 87 87
87 87 87
88 88 88
93 93 93
112 112 112
150 150 150
177 177 177
178 178 178
193 193 193
114 114 114
81 81 81
12 12 12
10 10 10
10 10 10
2 2 2
2 2 2
2 2 2
2 2 2
2 2 2
2 2 2
0 0 0
0 0 0
2 2 2
2 2 2
2 2 2
2 2 2
2 2 2
2 2 2
2 2 2
2 2 2
2 2 2
2 2 2
3 3 3
3 3 3
3 3 3
2 2 2
1 1 1
9 9 9
73 73 73
83 83 83
84 84 84
87 87 87
101 101 101
147 147 147
90 90 90
86 86 86
86 86 86
86 86 86
87 87 87
87 87 87
87 87 87
87 87 87
87 87 87
87 87 87
87 87 87
87 87 87
88 88 88
115 115 115
173 173 173
177 177 177
194 194 194
87 87 87
26 26 26
20 20 20
6 6 6
2 2 2
2 2 2
2 2 2
2 2 2
2 2 2
0 0 0
0 0 0
2 2 2
2 2 2
2 2 2
2 2 2
2 2 2
2 2 2
2 2 2
3 3 3
3 3 3
2 2 2
3 3 3
2 2 2
39 39 39
83 83 83
80 80 80
83 83 83
84 84 84
83 83 83
86 86 86
155 155 155
100 100 100
85 85 85
86 86 86
86 86 86
87 87 87
87 87 87
88 88 88
86 86 86
87 87 87
87 87 87
87 87 87
87 87 87
87 87 87
88 88 88
87 87 87
87 87 87
87 87 87
122 122 122
168 168 168
202 202 202
92 92 92
20 20 20
56 56 56
2 2 2
2 2 2
2 2 2
2 2 2
2 2 2
0 0 0
0 0 0
2 2 2
2 2 2
2 2 2
2 2 2
2 2 2
2 2 2
2 2 2
2 2 2
1 1 1
3 3 3
3 3 3
81 81 81
90 90 90
172 172 172
82 82 82
84 84 84
86 86 86
93 93 93
140 140 140
85 85 85
86 86 86
85 85 85
86 86 86
86 86 86
86 86 86
86 86 86
86 86 86
87 87 87
87 87 87
87 87 87
86 86 86
87 87 87
87 87 87
88 88 88
88 88 88
89 89 89
88 88 88
88 88 88
96 96 96
165 165 165
190 190 190
88 88 88
22 22 22
27 27 27
2 2 2
2 2 2
2 2 2
2 2 2
0 0 0
0 0 0
2 2 2
2 2 2
2 2 2
2 2 2
2 2 2
3 3 3
2 2 2
2 2 2
3 3 3
3 3 3
2 2 2
86 86 86
182 182 182
119 119 119
84 84 84
85 85 85
116 116 116
125 125 125
84 84 84
85 85 85
85 85 85
86 86 86
86 86 86
85 85 85
86 86 86
86 86 86
87 87 87
87 87 87
86 86 86
87 87 87
87 87 87
87 87 87
88 88 88
87 87 87
87 87 87
88 88 88
88 88 88
88 88 88
88 88 88
101 101 101
168 168 168
192 192 192
70 70 70
55 55 55
23 23 23
2 2 2
2 2 2
2 2 2
0 0 0
0 0 0
2 2 2
2 2 2
2 2 2
3 3 3
3 3 3
3 3 3
2 2 2
2 2 2
3 3 3
2 2 2
2 2 2
86 86 86
169 169 169
176 176 176
80 80 80
82 82 82
137 137 137
84 84 84
85 85 85
85 85 85
86 86 86
86 86 86
85 85 85
86 86 86
86 86 86
87 87 87
86 86 86
87 87 87
87 87 87
87 87 87
87 87 87
87 87 87
88 88 88
87 87 87
88 88 88
87 87 87
88 88 88
89 89 89
88 88 88
88 88 88
125 125 125
171 171 171
132 132 132
51 51 51
22 22 22
7 7 7
2 2 2
2 2 2
0 0 0
0 0 0
2 2 2
2 2 2
2 2 2
3 3 3
2 2 2
2 2 2
2 2 2
3 3 3
4 4 4
3 3 3
31 31 31
87 87 87
86 86 86
84 84 84
122 122 122
104 104 104
119 119 119
84 84 84
85 85 85
86 86 86
86 86 86
86 86 86
86 86 86
86 86 86
86 86 86
86 86 86
87 87 87
86 86 86
87 87 87
87 87 87
87 87 87
87 87 87
87 87 87
87 87 87
87 87 87
87 87 87
88 88 88
88 88 88
87 87 87
88 88 88
87 87 87
169 169 169
201 201 201
82 82 82
25 25 25
92 92 92
2 2 2
2 2 2
0 0 0
0 0 0
2 2 2
2 2 2
3 3 3
3 3 3
2 2 2
3 3 3
3 3 3
5 5 5
3 3 3
30 30 30
88 88 88
83 83 83
84 84 84
81 81 81
84 84 84
108 108 108
105 105 105
84 84 84
86 86 86
85 85 85
86 86 86
86 86 86
86 86 86
86 86 86
86 86 86
87 87 87
87 87 87
88 88 88
87 87 87
87 87 87
86 86 86
86 86 86
86 86 86
86 86 86
87 87 87
88 88 88
88 88 88
88 88 88
87 87 87
89 89 89
88 88 88
126 126 126
170 170 170
102 102 102
52 52 52
83 83 83
5 5 5
2 2 2
0 0 0
0 0 0
2 2 2
2 2 2
3 3 3
3 3 3
3 3 3
3 3 3
3 3 3
2 2 2
20 20 20
88 88 88
84 84 84
83 83 83
84 84 84
85 85 85
78 78 78
86 86 86
132 132 132
88 88 88
85 85 85
86 86 86
86 86 86
86 86 86
86 86 86
86 86 86
86 86 86
86 86 86
86 86 86
86 86 86
86 86 86
86 86 86
87 87 87
86 86 86
86 86 86
86 86 86
87 87 87
87 87 87
88 88 88
88 88 88
88 88 88
88 88 88
88 88 88
88 88 88
174 174 174
174 174 174
59 59 59
63 63 63
27 27 27
2 2 2
0 0 0
0 0 0
2 2 2
2 2 2
3 3 3
3 3 3
3 3 3
2 2 2
2 2 2
2 2 2
47 47 47
89 89 89
83 83 83
84 84 84
84 84 84
82 82 82
78 78 78
81 81 81
83 83 83
123 123 123
87 87 87
86 86 86
86 86 86
85 85 85
86 86 86
86 86 86
86 86 86
86 86 86
86 86 86
86 86 86
87 87 87
86 86 86
86 86 86
87 87 87
87 87 87
87 87 87
87 87 87
88 88 88
87 87 87
87 87 87
88 88 88
87 87 87
89 89 89
87 87 87
124 124 124
186 186 186
70 70 70
46 46 46
18 18 18
3 3 3
0 0 0
0 0 0
2 2 2
1 1 1
2 2 2
3 3 3
3 3 3
2 2 2
2 2 2
1 1 1
41 41 41
88 88 88
86 86 86
84 84 84
85 85 85
77 77 77
80 80 80
81 81 81
84 84 84
88 88 88
99 99 99
87 87 87
86 86 86
86 86 86
86 86 86
86 86 86
86 86 86
86 86 86
87 87 87
87 87 87
86 86 86
86 86 86
86 86 86
86 86 86
87 87 87
87 87 87
87 87 87
87 87 87
87 87 87
88 88 88
88 88 88
87 87 87
87 87 87
87 87 87
86 86 86
157 157 157
87 87 87
35 35 35
16 16 16
22 22 22
0 0 0
0 0 0
1 1 1
1 1 1
2 2 2
2 2 2
2 2 2
1 1 1
2 2 2
1 1 1
38 38 38
86 86 86
81 81 81
81 81 81
83 83 83
86 86 86
84 84 84
61 61 61
72 72 72
97 97 97
94 94 94
90 90 90
112 112 112
87 87 87
85 85 85
86 86 86
86 86 86
86 86 86
86 86 86
86 86 86
86 86 86
86 86 86
87 87 87
87 87 87
87 87 87
87 87 87
87 87 87
87 87 87
88 88 88
88 88 88
88 88 88
87 87 87
87 87 87
86 86 86
87 87 87
147 147 147
103 103 103
30 30 30
15 15 15
22 22 22
0 0 0
0 0 0
1 1 1
1 1 1
2 2 2
2 2 2
1 1 1
1 1 1
6 6 6
32 32 32
123 123 123
68 68 68
52 52 52
32 32 32
2 2 2
6 6 6
23 23 23
31 31 31
1 1 1
42 42 42
90 90 90
88 88 88
86 86 86
93 93 93
85 85 85
85 85 85
86 86 86
87 87 87
86 86 86
87 87 87
87 87 87
86 86 86
86 86 86
85 85 85
86 86 86
87 87 87
87 87 87
87 87 87
87 87 87
88 88 88
87 87 87
88 88 88
88 88 88
87 87 87
173 173 173
142 142 142
112 112 112
30 30 30
16 16 16
16 16 16
0 0 0
0 0 0
2 2 2
2 2 2
2 2 2
1 1 1
58 58 58
65 65 65
33 33 33
9 9 9
3 3 3
42 42 42
60 60 60
61 61 61
54 54 54
50 50 50
53 53 53
47 47 47
58 58 58
14 14 14
14 14 14
92 92 92
86 86 86
86 86 86
86 86 86
85 85 85
86 86 86
86 86 86
87 87 87
87 87 87
86 86 86
87 87 87
86 86 86
88 88 88
88 88 88
86 86 86
88 88 88
88 88 88
88 88 88
87 87 87
87 87 87
87 87 87
88 88 88
90 90 90
160 160 160
156 156 156
112 112 112
26 26 26
18 18 18
14 14 14
0 0 0
0 0 0
0 0 0
1 1 1
1 1 1
4 4 4
89 89 89
80 80 80
77 77 77
87 87 87
59 59 59
22 22 22
33 33 33
48 48 48
47 47 47
48 48 48
45 45 45
11 11 11
18 18 18
8 8 8
15 15 15
99 99 99
88 88 88
94 94 94
86 86 86
85 85 85
86 86 86
87 87 87
87 87 87
86 86 86
86 86 86
86 86 86
86 86 86
86 86 86
87 87 87
86 86 86
87 87 87
87 87 87
87 87 87
87 87 87
88 88 88
88 88 88
89 89 89
88 88 88
115 115 115
160 160 160
94 94 94
24 24 24
20 20 20
15 15 15
0 0 0
0 0 0
0 0 0
0 0 0
1 1 1
0 0 0
58 58 58
79 79 79
84 84 84
97 97 97
115 115 115
134 134 134
30 30 30
37 37 37
36 36 36
18 18 18
27 27 27
27 27 27
2 2 2
8 8 8
61 61 61
92 92 92
88 88 88
87 87 87
85 85 85
85 85 85
86 86 86
86 86 86
86 86 86
86 86 86
86 86 86
87 87 87
86 86 86
87 87 87
87 87 87
87 87 87
87 87 87
87 87 87
88 88 88
87 87 87
88 88 88
87 87 87
88 88 88
87 87 87
119 119 119
175 175 175
81 81 81
21 21 21
19 19 19
15 15 15
0 0 0
0 0 0
1 1 1
1 1 1
1 1 1
2 2 2
0 0 0
2 2 2
3 3 3
13 13 13
68 68 68
45 45 45
83 83 83
82 82 82
78 78 78
71 71 71
84 84 84
87 87 87
84 84 84
93 93 93
99 99 99
108 108 108
87 87 87
85 85 85
86 86 86
87 87 87
86 86 86
86 86 86
86 86 86
87 87 87
87 87 87
86 86 86
87 87 87
87 87 87
87 87 87
87 87 87
87 87 87
87 87 87
87 87 87
87 87 87
87 87 87
88 88 88
88 88 88
88 88 88
163 163 163
188 188 188
59 59 59
22 22 22
22 22 22
14 14 14
0 0 0
0 0 0
1 1 1
1 1 1
1 1 1
2 2 2
1 1 1
0 0 0
0 0 0
1 1 1
1 1 1
87 87 87
84 84 84
86 86 86
83 83 83
78 78 78
81 81 81
82 82 82
82 82 82
89 89 89
88 88 88
87 87 87
86 86 86
85 85 85
86 86 86
86 86 86
87 87 87
86 86 86
86 86 86
86 86 86
87 87 87
86 86 86
87 87 87
87 87 87
87 87 87
87 87 87
87 87 87
87 87 87
87 87 87
88 88 88
88 88 88
88 88 88
87 87 87
88 88 88
172 172 172
158 158 158
46 46 46
25 25 25
22 22 22
13 13 13
0 0 0
0 0 0
1 1 1
1 1 1
2 2 2
2 2 2
1 1 1
2 2 2
1 1 1
2 2 2
1 1 1
81 81 81
89 89 89
85 85 85
84 84 84
85 85 85
77 77 77
80 80 80
85 85 85
119 119 119
85 85 85
86 86 86
86 86 86
87 87 87
86 86 86
87 87 87
87 87 87
87 87 87
86 86 86
87 87 87
87 87 87
87 87 87
87 87 87
86 86 86
88 88 88
86 86 86
87 87 87
87 87 87
87 87 87
88 88 88
88 88 88
88 88 88
88 88 88
131 131 131
192 192 192
89 89 89
41 41 41
28 28 28
21 21 21
12 12 12
0 0 0
0 0 0
2 2 2
1 1 1
2 2 2
1 1 1
1 1 1
2 2 2
2 2 2
2 2 2
2 2 2
64 64 64
89 89 89
85 85 85
85 85 85
85 85 85
77 77 77
88 88 88
112 112 112
95 95 95
86 86 86
86 86 86
86 86 86
87 87 87
87 87 87
87 87 87
86 86 86
87 87 87
87 87 87
87 87 87
87 87 87
87 87 87
87 87 87
86 86 86
87 87 87
87 87 87
87 87 87
87 87 87
88 88 88
87 87 87
87 87 87
88 88 88
88 88 88
179 179 179
205 205 205
76 76 76
38 38 38
25 25 25
20 20 20
14 14 14
0 0 0
0 0 0
1 1 1
1 1 1
2 2 2
1 1 1
1 1 1
1 1 1
2 2 2
1 1 1
2 2 2
13 13 13
91 91 91
86 86 86
85 85 85
86 86 86
80 80 80
111 111 111
117 117 117
86 86 86
85 85 85
87 87 87
86 86 86
86 86 86
87 87 87
87 87 87
86 86 86
87 87 87
87 87 87
87 87 87
87 87 87
87 87 87
86 86 86
87 87 87
87 87 87
87 87 87
88 88 88
87 87 87
87 87 87
88 88 88
87 87 87
88 88 88
150 150 150
193 193 193
96 96 96
46 46 46
43 43 43
19 19 19
19 19 19
14 14 14
0 0 0
0 0 0
0 0 0
1 1 1
1 1 1
0 0 0
1 1 1
2 2 2
1 1 1
2 2 2
2 2 2
1 1 1
73 73 73
90 90 90
87 87 87
83 83 83
116 116 116
101 101 101
110 110 110
90 90 90
86 86 86
86 86 86
87 87 87
87 87 87
87 87 87
87 87 87
87 87 87
87 87 87
87 87 87
86 86 86
87 87 87
87 87 87
87 87 87
87 87 87
87 87 87
88 88 88
87 87 87
88 88 88
88 88 88
88 88 88
88 88 88
129 129 129
178 178 178
167 167 167
76 76 76
32 32 32
45 45 45
17 17 17
14 14 14
14 14 14
0 0 0
0 0 0
1 1 1
1 1 1
1 1 1
0 0 0
0 0 0
0 0 0
0 0 0
0 0 0
1 1 1
1 1 1
0 0 0
85 85 85
89 89 89
137 137 137
111 111 111
81 81 81
84 84 84
136 136 136
89 89 89
85 85 85
86 86 86
86 86 86
86 86 86
87 87 87
87 87 87
87 87 87
87 87 87
87 87 87
87 87 87
87 87 87
88 88 88
87 87 87
87 87 87
88 88 88
87 87 87
87 87 87
87 87 87
88 88 88
97 97 97
179 179 179
203 203 203
83 83 83
34 34 34
31 31 31
47 47 47
17 17 17
14 14 14
13 13 13
0 0 0
0 0 0
1 1 1
1 1 1
1 1 1
2 2 2
1 1 1
1 1 1
1 1 1
1 1 1
0 0 0
0 0 0
0 0 0
12 12 12
189 189 189
150 150 150
85 85 85
85 85 85
85 85 85
89 89 89
147 147 147
128 128 128
85 85 85
86 86 86
86 86 86
86 86 86
87 87 87
86 86 86
87 87 87
87 87 87
87 87 87
87 87 87
87 87 87
87 87 87
87 87 87
88 88 88
87 87 87
87 87 87
88 88 88
140 140 140
183 183 183
197 197 197
83 83 83
28 28 28
34 34 34
41 41 41
45 45 45
20 20 20
12 12 12
14 14 14
0 0 0
0 0 0
1 1 1
3 3 3
2 2 2
3 3 3
3 3 3
1 1 1
1 1 1
1 1 1
2 2 2
2 2 2
2 2 2
0 0 0
39 39 39
132 132 132
175 175 175
81 81 81
82 82 82
86 86 86
88 88 88
153 153 153
86 86 86
87 87 87
87 87 87
87 87 87
86 86 86
87 87 87
87 87 87
87 87 87
87 87 87
87 87 87
87 87 87
87 87 87
87 87 87
87 87 87
88 88 88
102 102 102
174 174 174
185 185 185
187 187 187
83 83 83
29 29 29
27 27 27
38 38 38
37 37 37
22 22 22
28 28 28
12 12 12
18 18 18
0 0 0
0 0 0
2 2 2
3 3 3
3 3 3
3 3 3
3 3 3
3 3 3
2 2 2
3 3 3
3 3 3
2 2 2
2 2 2
2 2 2
0 0 0
6 6 6
64 64 64
79 79 79
81 81 81
83 83 83
80 80 80
87 87 87
151 151 151
94 94 94
87 87 87
87 87 87
87 87 87
87 87 87
87 87 87
86 86 86
87 87 87
86 86 86
87 87 87
87 87 87
88 88 88
91 91 91
162 162 162
185 185 185
200 200 200
104 104 104
84 84 84
16 16 16
5 5 5
22 22 22
26 26 26
28 28 28
11 11 11
41 41 41
13 13 13
27 27 27
0 0 0
0 0 0
2 2 2
3 3 3
3 3 3
3 3 3
3 3 3
3 3 3
3 3 3
3 3 3
3 3 3
3 3 3
3 3 3
2 2 2
2 2 2
2 2 2
0 0 0
0 0 0
2 2 2
21 21 21
49 49 49
81 81 81
86 86 86
95 95 95
151 151 151
114 114 114
96 96 96
89 89 89
88 88 88
88 88 88
89 89 89
91 91 91
109 109 109
151 151 151
171 171 171
189 189 189
187 187 187
99 99 99
79 79 79
26 26 26
6 6 6
22 22 22
21 21 21
10 10 10
16 16 16
27 27 27
9 9 9
60 60 60
13 13 13
2 2 2
0 0 0
0 0 0
2 2 2
2 2 2
3 3 3
3 3 3
3 3 3
2 2 2
3 3 3
2 2 2
2 2 2
3 3 3
3 3 3
3 3 3
3 3 3
1 1 1
2 2 2
2 2 2
2 2 2
2 2 2
1 1 1
1 1 1
3 3 3
32 32 32
75 75 75
88 88 88
113 113 113
158 158 158
176 176 176
200 200 200
208 208 208
206 206 206
209 209 209
181 181 181
117 117 117
85 85 85
42 42 42
28 28 28
7 7 7
9 9 9
16 16 16
11 11 11
13 13 13
13 13 13
19 19 19
47 47 47
9 9 9
78 78 78
22 22 22
2 2 2
0 0 0
0 0 0
2 2 2
2 2 2
3 3 3
3 3 3
3 3 3
3 3 3
3 3 3
3 3 3
3 3 3
3 3 3
3 3 3
3 3 3
4 4 4
2 2 2
2 2 2
3 3 3
3 3 3
4 4 4
3 3 3
3 3 3
3 3 3
2 2 2
1 1 1
1 1 1
0 0 0
4 4 4
36 36 36
49 49 49
64 64 64
66 66 66
52 52 52
23 23 23
4 4 4
0 0 0
2 2 2
4 4 4
5 5 5
13 13 13
11 11 11
18 18 18
16 16 16
32 32 32
14 14 14
18 18 18
11 11 11
78 78 78
9 9 9
2 2 2
0 0 0
0 0 0
2 2 2
2 2 2
2 2 2
3 3 3
3 3 3
3 3 3
3 3 3
3 3 3
2 2 2
3 3 3
3 3 3
3 3 3
4 4 4
4 4 4
3 3 3
4 4 4
3 3 3
3 3 3
3 3 3
2 2 2
2 2 2
2 2 2
3 3 3
2 2 2
4 4 4
9 9 9
8 8 8
12 12 12
12 12 12
11 11 11
8 8 8
4 4 4
3 3 3
3 3 3
5 5 5
5 5 5
4 4 4
20 20 20
21 21 21
31 31 31
21 21 21
34 34 34
28 28 28
9 9 9
14 14 14
64 64 64
2 2 2
2 2 2
0 0 0
0 0 0
2 2 2
2 2 2
2 2 2
1 1 1
1 1 1
2 2 2
3 3 3
3 3 3
3 3 3
3 3 3
3 3 3
3 3 3
3 3 3
4 4 4
3 3 3
3 3 3
4 4 4
3 3 3
3 3 3
4 4 4
3 3 3
3 3 3
3 3 3
3 3 3
3 3 3
2 2 2
1 1 1
2 2 2
4 4 4
4 4 4
4 4 4
5 5 5
4 4 4
4 4 4
5 5 5
5 5 5
6 6 6
10 10 10
21 21 21
25 25 25
24 24 24
19 19 19
47 47 47
9 9 9
16 16 16
10 10 10
2 2 2
2 2 2
0 0 0
0 0 0
2 2 2
2 2 2
2 2 2
1 1 1
1 1 1
1 1 1
1 1 1
1 1 1
1 1 1
3 3 3
3 3 3
3 3 3
3 3 3
3 3 3
3 3 3
4 4 4
3 3 3
3 3 3
3 3 3
3 3 3
4 4 4
4 4 4
3 3 3
4 4 4
3 3 3
2 2 2
3 3 3
3 3 3
4 4 4
4 4 4
4 4 4
4 4 4
5 5 5
4 4 4
4 4 4
5 5 5
7 7 7
7 7 7
19 19 19
22 22 22
7 7 7
33 33 33
46 46 46
14 14 14
36 36 36
2 2 2
2 2 2
2 2 2
0 0 0
0 0 0
2 2 2
2 2 2
2 2 2
2 2 2
1 1 1
1 1 1
1 1 1
1 1 1
0 0 0
1 1 1
2 2 2
2 2 2
2 2 2
3 3 3
3 3 3
3 3 3
3 3 3
3 3 3
3 3 3
3 3 3
3 3 3
4 4 4
4 4 4
4 4 4
4 4 4
3 3 3
2 2 2
3 3 3
4 4 4
4 4 4
4 4 4
5 5 5
5 5 5
4 4 4
4 4 4
5 5 5
12 12 12
16 16 16
16 16 16
27 27 27
8 8 8
36 36 36
20 20 20
15 15 15
2 2 2
2 2 2
2 2 2
2 2 2
0 0 0
0 0 0
2 2 2
2 2 2
2 2 2
2 2 2
2 2 2
1 1 1
1 1 1
1 1 1
1 1 1
1 1 1
1 1 1
1 1 1
0 0 0
2 2 2
2 2 2
3 3 3
3 3 3
3 3 3
3 3 3
3 3 3
4 4 4
3 3 3
4 4 4
4 4 4
4 4 4
4 4 4
3 3 3
5 5 5
4 4 4
5 5 5
4 4 4
4 4 4
4 4 4
4 4 4
6 6 6
9 9 9
14 14 14
20 20 20
14 14 14
24 24 24
25 25 25
48 48 48
13 13 13
5 5 5
2 2 2
2 2 2
2 2 2
2 2 2
0 0 0
0 0 0
2 2 2
2 2 2
2 2 2
2 2 2
2 2 2
2 2 2
1 1 1
1 1 1
0 0 0
1 1 1
2 2 2
1 1 1
1 1 1
2 2 2
1 1 1
1 1 1
2 2 2
2 2 2
3 3 3
3 3 3
3 3 3
3 3 3
3 3 3
4 4 4
3 3 3
3 3 3
4 4 4
4 4 4
4 4 4
4 4 4
4 4 4
4 4 4
4 4 4
11 11 11
6 6 6
11 11 11
13 13 13
8 8 8
23 23 23
27 27 27
41 41 41
46 46 46
10 10 10
2 2 2
2 2 2
2 2 2
2 2 2
2 2 2
0 0 0
0 0 0
2 2 2
2 2 2
2 2 2
2 2 2
2 2 2
2 2 2
2 2 2
2 2 2
1 1 1
1 1 1
1 1 1
1 1 1
1 1 1
1 1 1
1 1 1
1 1 1
1 1 1
2 2 2
1 1 1
2 2 2
3 3 3
4 4 4
3 3 3
3 3 3
4 4 4
4 4 4
4 4 4
4 4 4
3 3 3
4 4 4
4 4 4
4 4 4
7 7 7
9 9 9
9 9 9
10 10 10
20 20 20
17 17 17
21 21 21
31 31 31
22 22 22
20 20 20
2 2 2
2 2 2
2 2 2
2 2 2
2 2 2
2 2 2
0 0 0
0 0 0
2 2 2
2 2 2
2 2 2
2 2 2
2 2 2
2 2 2
2 2 2
2 2 2
1 1 1
1 1 1
1 1 1
1 1 1
1 1 1
1 1 1
1 1 1
2 2 2
1 1 1
1 1 1
1 1 1
2 2 2
2 2 2
1 1 1
2 2 2
3 3 3
3 3 3
4 4 4
4 4 4
4 4 4
4 4 4
3 3 3
3 3 3
8 8 8
8 8 8
4 4 4
9 9 9
11 11 11
16 16 16
21 21 21
27 27 27
39 39 39
17 17 17
2 2 2
2 2 2
2 2 2
2 2 2
2 2 2
2 2 2
2 2 2
0 0 0
0 0 0
2 2 2
2 2 2
2 2 2
2 2 2
2 2 2
2 2 2
2 2 2
2 2 2
2 2 2
1 1 1
1 1 1
1 1 1
1 1 1
1 1 1
1 1 1
1 1 1
1 1 1
1 1 1
1 1 1
2 2 2
2 2 2
2 2 2
2 2 2
2 2 2
2 2 2
3 3 3
2 2 2
3 3 3
3 3 3
2 2 2
3 3 3
8 8 8
8 8 8
9 9 9
14 14 14
10 10 10
12 12 12
27 27 27
29 29 29
6 6 6
2 2 2
2 2 2
2 2 2
2 2 2
2 2 2
2 2 2
2 2 2
2 2 2
0 0 0
0 0 0
2 2 2
2 2 2
2 2 2
2 2 2
2 2 2
2 2 2
2 2 2
2 2 2
2 2 2
2 2 2
1 1 1
1 1 1
1 1 1
1 1 1
1 1 1
1 1 1
2 2 2
1 1 1
1 1 1
1 1 1
1 1 1
1 1 1
2 2 2
3 3 3
2 2 2
2 2 2
2 2 2
2 2 2
2 2 2
2 2 2
5 5 5
10 10 10
10 10 10
11 11 11
12 12 12
8 8 8
21 21 21
27 27 27
2 2 2
2 2 2
2 2 2
2 2 2
2 2 2
2 2 2
2 2 2
2 2 2
2 2 2
2 2 2
0 0 0
0 0 0
2 2 2
2 2 2
2 2 2
2 2 2
2 2 2
2 2 2
2 2 2
2 2 2
2 2 2
2 2 2
2 2 2
2 2 2
0 0 0
1 1 1
1 1 1
1 1 1
1 1 1
1 1 1
2 2 2
1 1 1
2 2 2
1 1 1
1 1 1
1 1 1
14 14 14
9 9 9
1 1 1
2 2 2
3 3 3
4 4 4
6 6 6
9 9 9
12 12 12
5 5 5
13 13 13
14 14 14
4 4 4
2 2 2
2 2 2
2 2 2
2 2 2
2 2 2
2 2 2
2 2 2
2 2 2
2 2 2
2 2 2
2 2 2
0 0 0
0 0 0
2 2 2
2 2 2
2 2 2
2 2 2
2 2 2
2 2 2
2 2 2
2 2 2
2 2 2
2 2 2
2 2 2
2 2 2
2 2 2
2 2 2
0 0 0
1 1 1
1 1 1
1 1 1
1 1 1
1 1 1
1 1 1
1 1 1
2 2 2
1 1 1
1 1 1
8 8 8
13 13 13
5 5 5
6 6 6
7 7 7
9 9 9
15 15 15
13 13 13
16 16 16
3 3 3
2 2 2
2 2 2
2 2 2
2 2 2
2 2 2
2 2 2
2 2 2
2 2 2
2 2 2
2 2 2
2 2 2
2 2 2
2 2 2
0 0 0
0 0 0
2 2 2
2 2 2
2 2 2
2 2 2
2 2 2
2 2 2
2 2 2
2 2 2
2 2 2
2 2 2
2 2 2
2 2 2
2 2 2
2 2 2
2 2 2
2 2 2
1 1 1
1 1 1
1 1 1
1 1 1
1 1 1
1 1 1
2 2 2
2 2 2
2 2 2
2 2 2
7 7 7
13 13 13
5 5 5
8 8 8
8 8 8
9 9 9
2 2 2
2 2 2
2 2 2
2 2 2
2 2 2
2 2 2
2 2 2
2 2 2
2 2 2
2 2 2
2 2 2
2 2 2
2 2 2
2 2 2
2 2 2
2 2 2
0 0 0
0 0 0
0 0 0
0 0 0
0 0 0
0 0 0
0 0 0
0 0 0
0 0 0
0 0 0
0 0 0
0 0 0
0 0 0
0 0 0
0 0 0
0 0 0
0 0 0
0 0 0
0 0 0
0 0 0
0 0 0
0 0 0
0 0 0
0 0 0
0 0 0
0 0 0
0 0 0
0 0 0
0 0 0
0 0 0
0 0 0
0 0 0
0 0 0
0 0 0
0 0 0
0 0 0
0 0 0
0 0 0
0 0 0
0 0 0
0 0 0
0 0 0
0 0 0
0 0 0
0 0 0
0 0 0
0 0 0
0 0 0
0 0 0
0 0 0
0 0 0
