P3 
50 50 
255
0 0 0
0 0 0
0 0 0
0 0 0
0 0 0
0 0 0
0 0 0
0 0 0
0 0 0
0 0 0
0 0 0
0 0 0
0 0 0
0 0 0
0 0 0
0 0 0
0 0 0
0 0 0
0 0 0
0 0 0
0 0 0
0 0 0
0 0 0
0 0 0
0 0 0
0 0 0
0 0 0
0 0 0
0 0 0
0 0 0
0 0 0
0 0 0
0 0 0
0 0 0
0 0 0
0 0 0
0 0 0
0 0 0
0 0 0
0 0 0
0 0 0
0 0 0
0 0 0
0 0 0
0 0 0
0 0 0
0 0 0
0 0 0
0 0 0
0 0 0
0 0 0
2 2 2
2 2 2
2 2 2
2 2 2
2 2 2
2 2 2
2 2 2
2 2 2
2 2 2
2 2 2
2 2 2
2 2 2
2 2 2
2 2 2
2 2 2
2 2 2
2 2 2
2 2 2
2 2 2
2 2 2
2 2 2
4 4 4
4 4 4
4 4 4
5 5 5
5 5 5
6 6 6
6 6 6
6 6 6
8 8 8
13 13 13
3 3 3
2 2 2
2 2 2
2 2 2
2 2 2
2 2 2
2 2 2
2 2 2
2 2 2
2 2 2
2 2 2
2 2 2
2 2 2
2 2 2
2 2 2
2 2 2
2 2 2
0 0 0
0 0 0
2 2 2
2 2 2
2 2 2
2 2 2
2 2 2
2 2 2
2 2 2
2 2 2
2 2 2
2 2 2
2 2 2
2 2 2
2 2 2
2 2 2
1 1 1
1 1 1
1 1 1
2 2 2
2 2 2
2 2 2
4 4 4
4 4 4
4 4 4
4 4 4
5 5 5
4 4 4
3 3 3
5 5 5
6 6 6
10 10 10
11 11 11
6 6 6
6 6 6
15 15 15
2 2 2
2 2 2
2 2 2
2 2 2
2 2 2
2 2 2
2 2 2
2 2 2
2 2 2
2 2 2
2 2 2
2 2 2
2 2 2
2 2 2
0 0 0
0 0 0
2 2 2
2 2 2
2 2 2
2 2 2
2 2 2
2 2 2
2 2 2
2 2 2
2 2 2
2 2 2
2 2 2
2 2 2
1 1 1
1 1 1
1 1 1
2 2 2
2 2 2
2 2 2
2 2 2
5 5 5
4 4 4
5 5 5
4 4 4
5 5 5
4 4 4
4 4 4
7 7 7
6 6 6
8 8 8
9 9 9
9 9 9
8 8 8
14 14 14
12 12 12
11 11 11
15 15 15
2 2 2
2 2 2
2 2 2
2 2 2
2 2 2
2 2 2
2 2 2
2 2 2
2 2 2
2 2 2
2 2 2
2 2 2
0 0 0
0 0 0
2 2 2
2 2 2
2 2 2
2 2 2
2 2 2
2 2 2
2 2 2
2 2 2
2 2 2
2 2 2
2 2 2
1 1 1
1 1 1
1 1 1
1 1 1
2 2 2
2 2 2
2 2 2
4 4 4
7 7 7
5 5 5
4 4 4
4 4 4
5 5 5
4 4 4
5 5 5
3 3 3
8 8 8
9 9 9
12 12 12
8 8 8
6 6 6
6 6 6
9 9 9
8 8 8
6 6 6
8 8 8
8 8 8
2 2 2
2 2 2
2 2 2
2 2 2
2 2 2
2 2 2
2 2 2
2 2 2
2 2 2
2 2 2
0 0 0
0 0 0
2 2 2
2 2 2
2 2 2
2 2 2
2 2 2
2 2 2
2 2 2
2 2 2
2 2 2
1 1 1
1 1 1
1 1 1
2 2 2
2 2 2
1 1 1
2 2 2
3 3 3
4 4 4
4 4 4
4 4 4
3 3 3
3 3 3
3 3 3
4 4 4
7 7 7
3 3 3
8 8 8
5 5 5
9 9 9
10 10 10
9 9 9
12 12 12
5 5 5
14 14 14
7 7 7
4 4 4
8 8 8
8 8 8
11 11 11
2 2 2
2 2 2
2 2 2
2 2 2
2 2 2
2 2 2
2 2 2
2 2 2
2 2 2
0 0 0
0 0 0
2 2 2
2 2 2
2 2 2
2 2 2
2 2 2
2 2 2
2 2 2
2 2 2
1 1 1
2 2 2
2 2 2
2 2 2
2 2 2
2 2 2
1 1 1
3 3 3
4 4 4
4 4 4
4 4 4
3 3 3
3 3 3
3 3 3
3 3 3
7 7 7
3 3 3
5 5 5
6 6 6
11 11 11
9 9 9
11 11 11
16 16 16
8 8 8
10 10 10
4 4 4
10 10 10
4 4 4
4 4 4
12 12 12
12 12 12
10 10 10
7 7 7
2 2 2
2 2 2
2 2 2
2 2 2
2 2 2
2 2 2
2 2 2
0 0 0
0 0 0
2 2 2
2 2 2
2 2 2
2 2 2
2 2 2
2 2 2
2 2 2
1 1 1
2 2 2
1 1 1
1 1 1
2 2 2
2 2 2
2 2 2
3 3 3
4 4 4
4 4 4
4 4 4
5 5 5
3 3 3
3 3 3
4 4 4
4 4 4
6 6 6
8 8 8
8 8 8
9 9 9
8 8 8
17 17 17
8 8 8
9 9 9
11 11 11
10 10 10
9 9 9
7 7 7
15 15 15
11 11 11
5 5 5
3 3 3
7 7 7
30 30 30
6 6 6
2 2 2
2 2 2
2 2 2
2 2 2
2 2 2
2 2 2
0 0 0
0 0 0
2 2 2
2 2 2
2 2 2
2 2 2
2 2 2
2 2 2
2 2 2
1 1 1
1 1 1
2 2 2
2 2 2
1 1 1
2 2 2
3 3 3
4 4 4
4 4 4
4 4 4
5 5 5
5 5 5
4 4 4
8 8 8
9 9 9
12 12 12
11 11 11
13 13 13
16 16 16
27 27 27
23 23 23
29 29 29
43 43 43
49 49 49
45 45 45
33 33 33
22 22 22
10 10 10
6 6 6
11 11 11
5 5 5
3 3 3
7 7 7
15 15 15
20 20 20
4 4 4
2 2 2
2 2 2
2 2 2
2 2 2
2 2 2
0 0 0
0 0 0
2 2 2
2 2 2
2 2 2
2 2 2
2 2 2
1 1 1
1 1 1
1 1 1
1 1 1
1 1 1
2 2 2
2 2 2
3 3 3
4 4 4
4 4 4
4 4 4
5 5 5
5 5 5
6 6 6
13 13 13
10 10 10
11 11 11
11 11 11
16 16 16
45 45 45
74 74 74
84 84 84
87 87 87
86 86 86
85 85 85
85 85 85
85 85 85
85 85 85
85 85 85
79 79 79
48 48 48
11 11 11
8 8 8
6 6 6
3 3 3
5 5 5
44 44 44
16 16 16
2 2 2
2 2 2
2 2 2
2 2 2
2 2 2
0 0 0
0 0 0
2 2 2
2 2 2
2 2 2
2 2 2
1 1 1
1 1 1
1 1 1
1 1 1
1 1 1
1 1 1
1 1 1
2 2 2
3 3 3
2 2 2
2 2 2
3 3 3
5 5 5
5 5 5
7 7 7
19 19 19
44 44 44
75 75 75
86 86 86
90 90 90
104 104 104
122 122 122
138 138 138
140 140 140
136 136 136
151 151 151
162 162 162
158 158 158
152 152 152
138 138 138
100 100 100
84 84 84
83 83 83
85 85 85
62 62 62
10 10 10
5 5 5
34 34 34
11 11 11
18 18 18
2 2 2
2 2 2
2 2 2
2 2 2
0 0 0
0 0 0
2 2 2
2 2 2
2 2 2
1 1 1
1 1 1
0 0 0
1 1 1
1 1 1
1 1 1
1 1 1
1 1 1
4 4 4
2 2 2
2 2 2
3 3 3
3 3 3
3 3 3
12 12 12
63 63 63
94 94 94
137 137 137
182 182 182
183 183 183
188 188 188
170 170 170
171 171 171
174 174 174
169 169 169
163 163 163
155 155 155
166 166 166
163 163 163
157 157 157
158 158 158
151 151 151
155 155 155
108 108 108
85 85 85
85 85 85
42 42 42
11 11 11
18 18 18
9 9 9
13 13 13
20 20 20
2 2 2
2 2 2
2 2 2
0 0 0
0 0 0
2 2 2
2 2 2
2 2 2
1 1 1
0 0 0
1 1 1
1 1 1
1 1 1
1 1 1
1 1 1
3 3 3
2 2 2
1 1 1
1 1 1
0 0 0
3 3 3
39 39 39
87 87 87
142 142 142
182 182 182
167 167 167
167 167 167
181 181 181
176 176 176
163 163 163
146 146 146
156 156 156
162 162 162
154 154 154
159 159 159
170 170 170
174 174 174
171 171 171
160 160 160
147 147 147
149 149 149
164 164 164
145 145 145
83 83 83
80 80 80
17 17 17
6 6 6
21 21 21
11 11 11
16 16 16
7 7 7
2 2 2
2 2 2
0 0 0
0 0 0
2 2 2
2 2 2
1 1 1
1 1 1
0 0 0
0 0 0
1 1 1
0 0 0
1 1 1
0 0 0
5 5 5
2 2 2
3 3 3
0 0 0
9 9 9
70 70 70
117 117 117
188 188 188
173 173 173
170 170 170
175 175 175
174 174 174
165 165 165
129 129 129
98 98 98
90 90 90
92 92 92
92 92 92
91 91 91
90 90 90
93 93 93
100 100 100
104 104 104
110 110 110
152 152 152
164 164 164
147 147 147
165 165 165
144 144 144
83 83 83
43 43 43
16 16 16
46 46 46
9 9 9
14 14 14
78 78 78
2 2 2
2 2 2
0 0 0
0 0 0
2 2 2
2 2 2
1 1 1
1 1 1
0 0 0
0 0 0
0 0 0
1 1 1
1 1 1
3 3 3
3 3 3
2 2 2
2 2 2
7 7 7
77 77 77
153 153 153
185 185 185
175 175 175
173 173 173
172 172 172
163 163 163
164 164 164
120 120 120
90 90 90
87 87 87
88 88 88
88 88 88
87 87 87
88 88 88
88 88 88
88 88 88
87 87 87
87 87 87
87 87 87
92 92 92
124 124 124
163 163 163
146 146 146
176 176 176
95 95 95
68 68 68
23 23 23
36 36 36
9 9 9
12 12 12
80 80 80
5 5 5
2 2 2
0 0 0
0 0 0
2 2 2
1 1 1
1 1 1
1 1 1
1 1 1
0 0 0
0 0 0
1 1 1
0 0 0
6 6 6
2 2 2
2 2 2
0 0 0
69 69 69
168 168 168
176 176 176
180 180 180
167 167 167
166 166 166
146 146 146
138 138 138
108 108 108
90 90 90
88 88 88
88 88 88
88 88 88
88 88 88
88 88 88
87 87 87
88 88 88
88 88 88
87 87 87
87 87 87
87 87 87
88 88 88
87 87 87
91 91 91
160 160 160
156 156 156
173 173 173
85 85 85
50 50 50
19 19 19
14 14 14
10 10 10
70 70 70
23 23 23
2 2 2
0 0 0
0 0 0
2 2 2
1 1 1
1 1 1
1 1 1
1 1 1
1 1 1
0 0 0
0 0 0
1 1 1
3 3 3
3 3 3
2 2 2
6 6 6
85 85 85
182 182 182
173 173 173
175 175 175
157 157 157
147 147 147
102 102 102
93 93 93
89 89 89
89 89 89
88 88 88
88 88 88
88 88 88
88 88 88
88 88 88
88 88 88
88 88 88
88 88 88
88 88 88
88 88 88
87 87 87
88 88 88
87 87 87
86 86 86
90 90 90
172 172 172
179 179 179
94 94 94
57 57 57
26 26 26
29 29 29
10 10 10
51 51 51
14 14 14
3 3 3
0 0 0
0 0 0
2 2 2
1 1 1
1 1 1
1 1 1
1 1 1
1 1 1
0 0 0
1 1 1
1 1 1
3 3 3
2 2 2
1 1 1
18 18 18
122 122 122
165 165 165
177 177 177
160 160 160
128 128 128
92 92 92
91 91 91
89 89 89
88 88 88
89 89 89
89 89 89
88 88 88
88 88 88
88 88 88
88 88 88
88 88 88
88 88 88
88 88 88
88 88 88
88 88 88
87 87 87
88 88 88
87 87 87
86 86 86
87 87 87
116 116 116
176 176 176
102 102 102
62 62 62
23 23 23
44 44 44
9 9 9
36 36 36
15 15 15
19 19 19
0 0 0
0 0 0
1 1 1
1 1 1
1 1 1
1 1 1
0 0 0
0 0 0
1 1 1
0 0 0
2 2 2
2 2 2
3 3 3
2 2 2
39 39 39
156 156 156
171 171 171
169 169 169
94 94 94
88 88 88
89 89 89
88 88 88
88 88 88
88 88 88
88 88 88
88 88 88
88 88 88
88 88 88
88 88 88
88 88 88
88 88 88
88 88 88
87 87 87
88 88 88
88 88 88
88 88 88
88 88 88
88 88 88
87 87 87
88 88 88
131 131 131
173 173 173
102 102 102
68 68 68
16 16 16
42 42 42
10 10 10
26 26 26
14 14 14
21 21 21
0 0 0
0 0 0
1 1 1
1 1 1
1 1 1
0 0 0
1 1 1
0 0 0
0 0 0
1 1 1
3 3 3
3 3 3
2 2 2
2 2 2
51 51 51
174 174 174
171 171 171
171 171 171
87 87 87
88 88 88
88 88 88
88 88 88
89 89 89
89 89 89
88 88 88
88 88 88
88 88 88
88 88 88
88 88 88
88 88 88
87 87 87
87 87 87
87 87 87
88 88 88
88 88 88
88 88 88
88 88 88
88 88 88
88 88 88
90 90 90
135 135 135
187 187 187
100 100 100
72 72 72
20 20 20
31 31 31
9 9 9
19 19 19
13 13 13
15 15 15
0 0 0
0 0 0
1 1 1
1 1 1
1 1 1
0 0 0
1 1 1
0 0 0
1 1 1
1 1 1
0 0 0
2 2 2
2 2 2
0 0 0
56 56 56
184 184 184
168 168 168
90 90 90
88 88 88
88 88 88
88 88 88
89 89 89
89 89 89
87 87 87
87 87 87
87 87 87
88 88 88
88 88 88
88 88 88
87 87 87
87 87 87
87 87 87
87 87 87
88 88 88
88 88 88
87 87 87
87 87 87
88 88 88
89 89 89
93 93 93
163 163 163
173 173 173
104 104 104
79 79 79
17 17 17
15 15 15
10 10 10
14 14 14
15 15 15
14 14 14
0 0 0
0 0 0
1 1 1
1 1 1
1 1 1
0 0 0
1 1 1
1 1 1
0 0 0
1 1 1
1 1 1
0 0 0
0 0 0
0 0 0
59 59 59
185 185 185
175 175 175
168 168 168
88 88 88
88 88 88
89 89 89
89 89 89
89 89 89
88 88 88
88 88 88
88 88 88
88 88 88
88 88 88
88 88 88
88 88 88
88 88 88
88 88 88
88 88 88
88 88 88
88 88 88
88 88 88
87 87 87
88 88 88
87 87 87
88 88 88
144 144 144
164 164 164
128 128 128
79 79 79
22 22 22
21 21 21
11 11 11
12 12 12
17 17 17
14 14 14
0 0 0
0 0 0
0 0 0
1 1 1
1 1 1
1 1 1
1 1 1
1 1 1
1 1 1
0 0 0
1 1 1
0 0 0
1 1 1
0 0 0
60 60 60
181 181 181
181 181 181
132 132 132
89 89 89
90 90 90
89 89 89
89 89 89
89 89 89
89 89 89
89 89 89
88 88 88
88 88 88
88 88 88
88 88 88
88 88 88
88 88 88
88 88 88
87 87 87
88 88 88
88 88 88
88 88 88
89 89 89
88 88 88
88 88 88
88 88 88
162 162 162
162 162 162
149 149 149
71 71 71
26 26 26
16 16 16
16 16 16
12 12 12
18 18 18
15 15 15
0 0 0
0 0 0
1 1 1
1 1 1
1 1 1
1 1 1
0 0 0
1 1 1
1 1 1
1 1 1
1 1 1
0 0 0
0 0 0
0 0 0
63 63 63
177 177 177
166 166 166
156 156 156
106 106 106
102 102 102
89 89 89
89 89 89
89 89 89
89 89 89
89 89 89
89 89 89
88 88 88
88 88 88
88 88 88
88 88 88
88 88 88
88 88 88
88 88 88
87 87 87
88 88 88
88 88 88
88 88 88
88 88 88
87 87 87
99 99 99
171 171 171
170 170 170
136 136 136
55 55 55
20 20 20
19 19 19
23 23 23
11 11 11
19 19 19
13 13 13
0 0 0
0 0 0
1 1 1
1 1 1
1 1 1
1 1 1
1 1 1
0 0 0
0 0 0
1 1 1
1 1 1
0 0 0
0 0 0
0 0 0
58 58 58
146 146 146
172 172 172
184 184 184
133 133 133
96 96 96
91 91 91
89 89 89
88 88 88
89 89 89
88 88 88
89 89 89
88 88 88
88 88 88
89 89 89
89 89 89
89 89 89
88 88 88
88 88 88
88 88 88
87 87 87
88 88 88
88 88 88
87 87 87
87 87 87
146 146 146
152 152 152
180 180 180
102 102 102
44 44 44
28 28 28
21 21 21
26 26 26
11 11 11
18 18 18
12 12 12
0 0 0
0 0 0
1 1 1
1 1 1
0 0 0
1 1 1
1 1 1
1 1 1
1 1 1
1 1 1
2 2 2
2 2 2
3 3 3
1 1 1
5 5 5
86 86 86
177 177 177
173 173 173
163 163 163
157 157 157
135 135 135
97 97 97
90 90 90
89 89 89
89 89 89
89 89 89
89 89 89
89 89 89
88 88 88
88 88 88
88 88 88
89 89 89
89 89 89
87 87 87
89 89 89
88 88 88
88 88 88
93 93 93
153 153 153
164 164 164
154 154 154
164 164 164
80 80 80
34 34 34
24 24 24
27 27 27
22 22 22
11 11 11
18 18 18
12 12 12
0 0 0
0 0 0
1 1 1
1 1 1
1 1 1
1 1 1
1 1 1
0 0 0
1 1 1
2 2 2
2 2 2
3 3 3
2 2 2
2 2 2
0 0 0
41 41 41
160 160 160
178 178 178
177 177 177
167 167 167
160 160 160
150 150 150
114 114 114
96 96 96
91 91 91
89 89 89
89 89 89
89 89 89
88 88 88
89 89 89
89 89 89
89 89 89
89 89 89
87 87 87
89 89 89
89 89 89
89 89 89
149 149 149
164 164 164
154 154 154
178 178 178
90 90 90
56 56 56
26 26 26
20 20 20
23 23 23
16 16 16
11 11 11
17 17 17
13 13 13
0 0 0
0 0 0
1 1 1
1 1 1
0 0 0
0 0 0
0 0 0
1 1 1
1 1 1
2 2 2
2 2 2
3 3 3
3 3 3
2 2 2
1 1 1
0 0 0
71 71 71
171 171 171
170 170 170
178 178 178
178 178 178
163 163 163
158 158 158
144 144 144
122 122 122
95 95 95
89 89 89
89 89 89
90 90 90
89 89 89
90 90 90
92 92 92
92 92 92
94 94 94
94 94 94
100 100 100
139 139 139
162 162 162
156 156 156
166 166 166
127 127 127
80 80 80
22 22 22
15 15 15
15 15 15
18 18 18
12 12 12
12 12 12
16 16 16
14 14 14
0 0 0
0 0 0
1 1 1
1 1 1
1 1 1
1 1 1
1 1 1
1 1 1
1 1 1
2 2 2
3 3 3
3 3 3
3 3 3
2 2 2
2 2 2
0 0 0
2 2 2
55 55 55
142 142 142
189 189 189
174 174 174
167 167 167
171 171 171
163 163 163
153 153 153
143 143 143
99 99 99
98 98 98
104 104 104
125 125 125
134 134 134
150 150 150
155 155 155
160 160 160
163 163 163
174 174 174
160 160 160
151 151 151
171 171 171
118 118 118
83 83 83
32 32 32
30 30 30
11 11 11
8 8 8
19 19 19
10 10 10
12 12 12
14 14 14
14 14 14
0 0 0
0 0 0
1 1 1
1 1 1
1 1 1
1 1 1
1 1 1
1 1 1
1 1 1
1 1 1
2 2 2
3 3 3
4 4 4
4 4 4
2 2 2
1 1 1
0 0 0
0 0 0
22 22 22
87 87 87
169 169 169
180 180 180
172 172 172
169 169 169
176 176 176
172 172 172
153 153 153
159 159 159
164 164 164
171 171 171
166 166 166
176 176 176
172 172 172
169 169 169
164 164 164
161 161 161
160 160 160
165 165 165
98 98 98
83 83 83
48 48 48
2 2 2
26 26 26
6 6 6
16 16 16
19 19 19
9 9 9
14 14 14
12 12 12
14 14 14
0 0 0
0 0 0
1 1 1
2 2 2
1 1 1
1 1 1
1 1 1
1 1 1
1 1 1
1 1 1
1 1 1
1 1 1
1 1 1
1 1 1
3 3 3
3 3 3
3 3 3
2 2 2
1 1 1
2 2 2
8 8 8
71 71 71
116 116 116
149 149 149
178 178 178
192 192 192
183 183 183
178 178 178
169 169 169
166 166 166
161 161 161
173 173 173
172 172 172
169 169 169
163 163 163
140 140 140
95 95 95
79 79 79
53 53 53
13 13 13
4 4 4
25 25 25
4 4 4
15 15 15
18 18 18
37 37 37
8 8 8
20 20 20
11 11 11
13 13 13
0 0 0
0 0 0
1 1 1
1 1 1
1 1 1
1 1 1
1 1 1
1 1 1
1 1 1
1 1 1
1 1 1
1 1 1
1 1 1
1 1 1
3 3 3
3 3 3
3 3 3
3 3 3
4 4 4
4 4 4
4 4 4
3 3 3
9 9 9
9 9 9
26 26 26
60 60 60
90 90 90
102 102 102
111 111 111
108 108 108
98 98 98
94 94 94
92 92 92
88 88 88
83 83 83
77 77 77
36 36 36
10 10 10
2 2 2
3 3 3
3 3 3
6 6 6
8 8 8
13 13 13
15 15 15
37 37 37
8 8 8
29 29 29
12 12 12
18 18 18
0 0 0
0 0 0
2 2 2
1 1 1
1 1 1
1 1 1
1 1 1
1 1 1
1 1 1
1 1 1
1 1 1
1 1 1
1 1 1
1 1 1
1 1 1
3 3 3
3 3 3
4 4 4
4 4 4
4 4 4
5 5 5
5 5 5
4 4 4
5 5 5
4 4 4
3 3 3
5 5 5
6 6 6
10 10 10
14 14 14
21 21 21
13 13 13
10 10 10
8 8 8
9 9 9
10 10 10
13 13 13
8 8 8
9 9 9
18 18 18
6 6 6
8 8 8
15 15 15
17 17 17
8 8 8
19 19 19
8 8 8
44 44 44
13 13 13
27 27 27
0 0 0
0 0 0
2 2 2
1 1 1
1 1 1
1 1 1
1 1 1
1 1 1
1 1 1
1 1 1
1 1 1
1 1 1
1 1 1
1 1 1
2 2 2
2 2 2
4 4 4
4 4 4
4 4 4
5 5 5
5 5 5
5 5 5
5 5 5
4 4 4
5 5 5
5 5 5
5 5 5
6 6 6
5 5 5
4 4 4
4 4 4
9 9 9
10 10 10
5 5 5
5 5 5
10 10 10
16 16 16
16 16 16
26 26 26
7 7 7
8 8 8
5 5 5
7 7 7
22 22 22
27 27 27
8 8 8
8 8 8
60 60 60
13 13 13
2 2 2
0 0 0
0 0 0
2 2 2
1 1 1
1 1 1
1 1 1
1 1 1
1 1 1
2 2 2
1 1 1
2 2 2
2 2 2
1 1 1
1 1 1
2 2 2
2 2 2
2 2 2
4 4 4
4 4 4
4 4 4
5 5 5
5 5 5
6 6 6
5 5 5
4 4 4
4 4 4
5 5 5
5 5 5
6 6 6
5 5 5
4 4 4
5 5 5
5 5 5
5 5 5
13 13 13
8 8 8
3 3 3
5 5 5
22 22 22
17 17 17
14 14 14
12 12 12
15 15 15
27 27 27
50 50 50
6 6 6
10 10 10
76 76 76
22 22 22
2 2 2
0 0 0
0 0 0
2 2 2
2 2 2
1 1 1
1 1 1
1 1 1
1 1 1
1 1 1
1 1 1
2 2 2
2 2 2
1 1 1
1 1 1
2 2 2
2 2 2
2 2 2
2 2 2
4 4 4
4 4 4
5 5 5
5 5 5
5 5 5
5 5 5
4 4 4
5 5 5
5 5 5
4 4 4
4 4 4
3 3 3
5 5 5
5 5 5
5 5 5
5 5 5
5 5 5
5 5 5
5 5 5
5 5 5
5 5 5
6 6 6
21 21 21
17 17 17
9 9 9
14 14 14
35 35 35
7 7 7
12 12 12
75 75 75
8 8 8
2 2 2
0 0 0
0 0 0
2 2 2
2 2 2
1 1 1
1 1 1
1 1 1
1 1 1
1 1 1
1 1 1
1 1 1
2 2 2
1 1 1
1 1 1
2 2 2
2 2 2
2 2 2
2 2 2
3 3 3
4 4 4
5 5 5
4 4 4
5 5 5
5 5 5
6 6 6
7 7 7
5 5 5
5 5 5
5 5 5
5 5 5
5 5 5
4 4 4
5 5 5
5 5 5
5 5 5
5 5 5
5 5 5
5 5 5
5 5 5
4 4 4
16 16 16
18 18 18
17 17 17
18 18 18
16 16 16
8 8 8
14 14 14
61 61 61
2 2 2
2 2 2
0 0 0
0 0 0
2 2 2
2 2 2
2 2 2
1 1 1
1 1 1
1 1 1
1 1 1
1 1 1
2 2 2
1 1 1
1 1 1
2 2 2
2 2 2
2 2 2
2 2 2
2 2 2
2 2 2
3 3 3
3 3 3
4 4 4
4 4 4
4 4 4
5 5 5
5 5 5
5 5 5
4 4 4
5 5 5
5 5 5
5 5 5
5 5 5
4 4 4
5 5 5
5 5 5
5 5 5
5 5 5
6 6 6
6 6 6
5 5 5
10 10 10
24 24 24
21 21 21
27 27 27
9 9 9
10 10 10
17 17 17
10 10 10
2 2 2
2 2 2
0 0 0
0 0 0
2 2 2
2 2 2
2 2 2
2 2 2
1 1 1
1 1 1
2 2 2
1 1 1
1 1 1
1 1 1
2 2 2
1 1 1
2 2 2
2 2 2
2 2 2
2 2 2
2 2 2
2 2 2
3 3 3
3 3 3
4 4 4
5 5 5
4 4 4
5 5 5
5 5 5
5 5 5
4 4 4
5 5 5
5 5 5
5 5 5
5 5 5
5 5 5
4 4 4
5 5 5
5 5 5
7 7 7
7 7 7
13 13 13
6 6 6
23 23 23
25 25 25
33 33 33
8 8 8
12 12 12
35 35 35
2 2 2
2 2 2
2 2 2
0 0 0
0 0 0
2 2 2
2 2 2
2 2 2
2 2 2
2 2 2
2 2 2
1 1 1
2 2 2
2 2 2
2 2 2
1 1 1
2 2 2
1 1 1
2 2 2
2 2 2
2 2 2
2 2 2
2 2 2
3 3 3
2 2 2
3 3 3
3 3 3
4 4 4
4 4 4
5 5 5
4 4 4
4 4 4
4 4 4
4 4 4
4 4 4
4 4 4
4 4 4
4 4 4
4 4 4
4 4 4
5 5 5
7 7 7
13 13 13
15 15 15
19 19 19
21 21 21
41 41 41
11 11 11
16 16 16
2 2 2
2 2 2
2 2 2
2 2 2
0 0 0
0 0 0
2 2 2
2 2 2
2 2 2
2 2 2
2 2 2
1 1 1
1 1 1
2 2 2
2 2 2
2 2 2
1 1 1
1 1 1
2 2 2
2 2 2
2 2 2
1 1 1
2 2 2
2 2 2
2 2 2
3 3 3
3 3 3
2 2 2
2 2 2
3 3 3
4 4 4
4 4 4
4 4 4
5 5 5
4 4 4
5 5 5
3 3 3
4 4 4
10 10 10
8 8 8
16 16 16
16 16 16
11 11 11
4 4 4
14 14 14
21 21 21
15 15 15
51 51 51
14 14 14
5 5 5
2 2 2
2 2 2
2 2 2
2 2 2
0 0 0
0 0 0
2 2 2
2 2 2
2 2 2
2 2 2
2 2 2
2 2 2
1 1 1
1 1 1
1 1 1
2 2 2
1 1 1
1 1 1
2 2 2
2 2 2
2 2 2
2 2 2
2 2 2
2 2 2
2 2 2
2 2 2
2 2 2
3 3 3
3 3 3
3 3 3
3 3 3
3 3 3
10 10 10
11 11 11
10 10 10
12 12 12
5 5 5
4 4 4
6 6 6
12 12 12
17 17 17
10 10 10
4 4 4
4 4 4
12 12 12
17 17 17
13 13 13
28 28 28
10 10 10
2 2 2
2 2 2
2 2 2
2 2 2
2 2 2
0 0 0
0 0 0
2 2 2
2 2 2
2 2 2
2 2 2
2 2 2
2 2 2
2 2 2
2 2 2
1 1 1
1 1 1
1 1 1
2 2 2
1 1 1
1 1 1
2 2 2
1 1 1
2 2 2
2 2 2
2 2 2
2 2 2
2 2 2
2 2 2
2 2 2
2 2 2
3 3 3
6 6 6
4 4 4
3 3 3
11 11 11
14 14 14
11 11 11
7 7 7
13 13 13
24 24 24
5 5 5
7 7 7
8 8 8
19 19 19
13 13 13
21 21 21
41 41 41
18 18 18
2 2 2
2 2 2
2 2 2
2 2 2
2 2 2
2 2 2
0 0 0
0 0 0
2 2 2
2 2 2
2 2 2
2 2 2
2 2 2
2 2 2
2 2 2
2 2 2
1 1 1
1 1 1
1 1 1
2 2 2
1 1 1
1 1 1
2 2 2
2 2 2
2 2 2
2 2 2
2 2 2
2 2 2
2 2 2
2 2 2
2 2 2
2 2 2
3 3 3
6 6 6
7 7 7
3 3 3
11 11 11
17 17 17
14 14 14
10 10 10
13 13 13
9 9 9
7 7 7
4 4 4
11 11 11
19 19 19
22 22 22
12 12 12
19 19 19
2 2 2
2 2 2
2 2 2
2 2 2
2 2 2
2 2 2
2 2 2
0 0 0
0 0 0
2 2 2
2 2 2
2 2 2
2 2 2
2 2 2
2 2 2
2 2 2
2 2 2
2 2 2
1 1 1
1 1 1
1 1 1
2 2 2
1 1 1
1 1 1
1 1 1
2 2 2
2 2 2
2 2 2
2 2 2
2 2 2
2 2 2
2 2 2
2 2 2
3 3 3
3 3 3
3 3 3
10 10 10
10 10 10
11 11 11
7 7 7
7 7 7
14 14 14
18 18 18
13 13 13
11 11 11
21 21 21
20 20 20
21 21 21
5 5 5
2 2 2
2 2 2
2 2 2
2 2 2
2 2 2
2 2 2
2 2 2
2 2 2
0 0 0
0 0 0
2 2 2
2 2 2
2 2 2
2 2 2
2 2 2
2 2 2
2 2 2
2 2 2
2 2 2
2 2 2
1 1 1
1 1 1
1 1 1
2 2 2
1 1 1
1 1 1
1 1 1
1 1 1
2 2 2
1 1 1
2 2 2
2 2 2
2 2 2
2 2 2
2 2 2
3 3 3
3 3 3
11 11 11
6 6 6
4 4 4
8 8 8
12 12 12
10 10 10
12 12 12
6 6 6
6 6 6
16 16 16
34 34 34
2 2 2
2 2 2
2 2 2
2 2 2
2 2 2
2 2 2
2 2 2
2 2 2
2 2 2
2 2 2
0 0 0
0 0 0
2 2 2
2 2 2
2 2 2
2 2 2
2 2 2
2 2 2
2 2 2
2 2 2
2 2 2
2 2 2
2 2 2
2 2 2
1 1 1
1 1 1
1 1 1
1 1 1
1 1 1
2 2 2
1 1 1
2 2 2
2 2 2
2 2 2
2 2 2
2 2 2
2 2 2
2 2 2
2 2 2
5 5 5
11 11 11
7 7 7
4 4 4
8 8 8
21 21 21
15 15 15
18 18 18
14 14 14
4 4 4
2 2 2
2 2 2
2 2 2
2 2 2
2 2 2
2 2 2
2 2 2
2 2 2
2 2 2
2 2 2
2 2 2
0 0 0
0 0 0
2 2 2
2 2 2
2 2 2
2 2 2
2 2 2
2 2 2
2 2 2
2 2 2
2 2 2
2 2 2
2 2 2
2 2 2
2 2 2
2 2 2
1 1 1
1 1 1
1 1 1
1 1 1
2 2 2
1 1 1
2 2 2
2 2 2
2 2 2
2 2 2
2 2 2
2 2 2
2 2 2
3 3 3
4 4 4
4 4 4
7 7 7
9 9 9
24 24 24
15 15 15
3 3 3
2 2 2
2 2 2
2 2 2
2 2 2
2 2 2
2 2 2
2 2 2
2 2 2
2 2 2
2 2 2
2 2 2
2 2 2
2 2 2
0 0 0
0 0 0
2 2 2
2 2 2
2 2 2
2 2 2
2 2 2
2 2 2
2 2 2
2 2 2
2 2 2
2 2 2
2 2 2
2 2 2
2 2 2
2 2 2
2 2 2
2 2 2
1 1 1
1 1 1
2 2 2
2 2 2
2 2 2
2 2 2
2 2 2
2 2 2
2 2 2
3 3 3
3 3 3
3 3 3
4 4 4
5 5 5
8 8 8
16 16 16
2 2 2
2 2 2
2 2 2
2 2 2
2 2 2
2 2 2
2 2 2
2 2 2
2 2 2
2 2 2
2 2 2
2 2 2
2 2 2
2 2 2
2 2 2
2 2 2
0 0 0
0 0 0
0 0 0
0 0 0
0 0 0
0 0 0
0 0 0
0 0 0
0 0 0
0 0 0
0 0 0
0 0 0
0 0 0
0 0 0
0 0 0
0 0 0
0 0 0
0 0 0
0 0 0
0 0 0
0 0 0
0 0 0
0 0 0
0 0 0
0 0 0
0 0 0
0 0 0
0 0 0
0 0 0
0 0 0
0 0 0
0 0 0
0 0 0
0 0 0
0 0 0
0 0 0
0 0 0
0 0 0
0 0 0
0 0 0
0 0 0
0 0 0
0 0 0
0 0 0
0 0 0
0 0 0
0 0 0
0 0 0
0 0 0
0 0 0
0 0 0
