P3 
50 50 
255
0 0 0
0 0 0
0 0 0
0 0 0
0 0 0
0 0 0
0 0 0
0 0 0
0 0 0
0 0 0
0 0 0
0 0 0
0 0 0
0 0 0
0 0 0
0 0 0
0 0 0
0 0 0
0 0 0
0 0 0
0 0 0
0 0 0
0 0 0
0 0 0
0 0 0
0 0 0
0 0 0
0 0 0
0 0 0
0 0 0
0 0 0
0 0 0
0 0 0
0 0 0
0 0 0
0 0 0
0 0 0
0 0 0
0 0 0
0 0 0
0 0 0
0 0 0
0 0 0
0 0 0
0 0 0
0 0 0
0 0 0
0 0 0
0 0 0
0 0 0
0 0 0
2 2 2
2 2 2
2 2 2
2 2 2
2 2 2
2 2 2
2 2 2
2 2 2
2 2 2
2 2 2
2 2 2
2 2 2
2 2 2
2 2 2
2 2 2
2 2 2
2 2 2
1 1 1
2 2 2
15 15 15
4 4 4
3 3 3
4 4 4
4 4 4
5 5 5
5 5 5
5 5 5
6 6 6
9 9 9
15 15 15
9 9 9
4 4 4
2 2 2
2 2 2
2 2 2
2 2 2
2 2 2
2 2 2
2 2 2
2 2 2
2 2 2
2 2 2
2 2 2
2 2 2
2 2 2
2 2 2
2 2 2
2 2 2
0 0 0
0 0 0
2 2 2
2 2 2
2 2 2
2 2 2
2 2 2
2 2 2
2 2 2
2 2 2
2 2 2
2 2 2
2 2 2
2 2 2
2 2 2
2 2 2
1 1 1
1 1 1
1 1 1
3 3 3
15 15 15
3 3 3
4 4 4
4 4 4
5 5 5
4 4 4
4 4 4
4 4 4
5 5 5
7 7 7
8 8 8
10 10 10
11 11 11
20 20 20
19 19 19
17 17 17
2 2 2
2 2 2
2 2 2
2 2 2
2 2 2
2 2 2
2 2 2
2 2 2
2 2 2
2 2 2
2 2 2
2 2 2
2 2 2
2 2 2
0 0 0
0 0 0
2 2 2
2 2 2
2 2 2
2 2 2
2 2 2
2 2 2
2 2 2
2 2 2
2 2 2
2 2 2
2 2 2
2 2 2
1 1 1
0 0 0
1 1 1
1 1 1
5 5 5
11 11 11
4 4 4
4 4 4
4 4 4
4 4 4
4 4 4
3 3 3
4 4 4
8 8 8
20 20 20
10 10 10
7 7 7
3 3 3
8 8 8
20 20 20
20 20 20
11 11 11
11 11 11
18 18 18
2 2 2
2 2 2
2 2 2
2 2 2
2 2 2
2 2 2
2 2 2
2 2 2
2 2 2
2 2 2
2 2 2
2 2 2
0 0 0
0 0 0
2 2 2
2 2 2
2 2 2
2 2 2
2 2 2
2 2 2
2 2 2
2 2 2
2 2 2
2 2 2
1 1 1
1 1 1
1 1 1
1 1 1
1 1 1
10 10 10
5 5 5
4 4 4
4 4 4
4 4 4
4 4 4
4 4 4
3 3 3
3 3 3
15 15 15
16 16 16
15 15 15
16 16 16
16 16 16
20 20 20
14 14 14
33 33 33
5 5 5
5 5 5
13 13 13
16 16 16
18 18 18
8 8 8
2 2 2
2 2 2
2 2 2
2 2 2
2 2 2
2 2 2
2 2 2
2 2 2
2 2 2
2 2 2
0 0 0
0 0 0
2 2 2
2 2 2
2 2 2
2 2 2
2 2 2
2 2 2
2 2 2
2 2 2
2 2 2
1 1 1
1 1 1
2 2 2
1 1 1
1 1 1
17 17 17
4 4 4
4 4 4
4 4 4
4 4 4
4 4 4
6 6 6
4 4 4
7 7 7
11 11 11
15 15 15
24 24 24
71 71 71
87 87 87
83 83 83
83 83 83
86 86 86
85 85 85
83 83 83
81 81 81
78 78 78
44 44 44
16 16 16
10 10 10
12 12 12
2 2 2
2 2 2
2 2 2
2 2 2
2 2 2
2 2 2
2 2 2
2 2 2
2 2 2
0 0 0
0 0 0
2 2 2
2 2 2
2 2 2
2 2 2
2 2 2
2 2 2
2 2 2
2 2 2
1 1 1
1 1 1
2 2 2
2 2 2
7 7 7
16 16 16
4 4 4
4 4 4
5 5 5
4 4 4
2 2 2
5 5 5
7 7 7
35 35 35
28 28 28
77 77 77
87 87 87
100 100 100
156 156 156
183 183 183
180 180 180
168 168 168
160 160 160
160 160 160
165 165 165
175 175 175
184 184 184
148 148 148
89 89 89
21 21 21
9 9 9
12 12 12
4 4 4
2 2 2
2 2 2
2 2 2
2 2 2
2 2 2
2 2 2
2 2 2
0 0 0
0 0 0
2 2 2
2 2 2
2 2 2
2 2 2
2 2 2
2 2 2
2 2 2
1 1 1
1 1 1
1 1 1
1 1 1
4 4 4
15 15 15
3 3 3
4 4 4
4 4 4
5 5 5
3 3 3
12 12 12
33 33 33
80 80 80
88 88 88
91 91 91
122 122 122
191 191 191
168 168 168
176 176 176
165 165 165
126 126 126
93 93 93
92 92 92
91 91 91
95 95 95
127 127 127
166 166 166
166 166 166
171 171 171
176 176 176
77 77 77
13 13 13
12 12 12
9 9 9
2 2 2
2 2 2
2 2 2
2 2 2
2 2 2
2 2 2
0 0 0
0 0 0
2 2 2
2 2 2
2 2 2
2 2 2
2 2 2
2 2 2
1 1 1
0 0 0
2 2 2
1 1 1
2 2 2
8 8 8
4 4 4
5 5 5
4 4 4
3 3 3
7 7 7
65 65 65
84 84 84
90 90 90
101 101 101
160 160 160
179 179 179
159 159 159
165 165 165
131 131 131
91 91 91
87 87 87
86 86 86
85 85 85
87 87 87
87 87 87
87 87 87
88 88 88
87 87 87
99 99 99
167 167 167
161 161 161
180 180 180
104 104 104
19 19 19
22 22 22
6 6 6
2 2 2
2 2 2
2 2 2
2 2 2
2 2 2
0 0 0
0 0 0
2 2 2
2 2 2
2 2 2
2 2 2
2 2 2
1 1 1
1 1 1
1 1 1
1 1 1
2 2 2
4 4 4
5 5 5
5 5 5
5 5 5
4 4 4
35 35 35
88 88 88
93 93 93
127 127 127
177 177 177
163 163 163
165 165 165
132 132 132
104 104 104
87 87 87
87 87 87
87 87 87
87 87 87
87 87 87
87 87 87
87 87 87
87 87 87
87 87 87
87 87 87
86 86 86
87 87 87
88 88 88
137 137 137
167 167 167
174 174 174
110 110 110
31 31 31
53 53 53
2 2 2
2 2 2
2 2 2
2 2 2
2 2 2
0 0 0
0 0 0
2 2 2
2 2 2
2 2 2
2 2 2
1 1 1
1 1 1
1 1 1
1 1 1
2 2 2
4 4 4
5 5 5
5 5 5
17 17 17
54 54 54
86 86 86
102 102 102
144 144 144
142 142 142
119 119 119
89 89 89
88 88 88
87 87 87
87 87 87
87 87 87
87 87 87
87 87 87
87 87 87
87 87 87
87 87 87
87 87 87
86 86 86
86 86 86
87 87 87
87 87 87
87 87 87
88 88 88
88 88 88
87 87 87
92 92 92
163 163 163
176 176 176
136 136 136
31 31 31
25 25 25
2 2 2
2 2 2
2 2 2
2 2 2
0 0 0
0 0 0
2 2 2
2 2 2
2 2 2
2 2 2
2 2 2
1 1 1
1 1 1
2 2 2
3 3 3
4 4 4
8 8 8
89 89 89
114 114 114
79 79 79
144 144 144
89 89 89
86 86 86
88 88 88
87 87 87
86 86 86
87 87 87
86 86 86
87 87 87
87 87 87
87 87 87
87 87 87
87 87 87
88 88 88
88 88 88
87 87 87
87 87 87
88 88 88
87 87 87
88 88 88
88 88 88
88 88 88
87 87 87
89 89 89
88 88 88
119 119 119
160 160 160
196 196 196
89 89 89
52 52 52
23 23 23
2 2 2
2 2 2
2 2 2
0 0 0
0 0 0
2 2 2
2 2 2
2 2 2
1 1 1
0 0 0
1 1 1
2 2 2
2 2 2
3 3 3
0 0 0
74 74 74
205 205 205
154 154 154
136 136 136
94 94 94
86 86 86
87 87 87
87 87 87
86 86 86
86 86 86
87 87 87
86 86 86
87 87 87
86 86 86
87 87 87
86 86 86
87 87 87
87 87 87
87 87 87
87 87 87
87 87 87
87 87 87
87 87 87
88 88 88
88 88 88
87 87 87
88 88 88
88 88 88
88 88 88
88 88 88
169 169 169
143 143 143
169 169 169
44 44 44
20 20 20
7 7 7
2 2 2
2 2 2
0 0 0
0 0 0
2 2 2
2 2 2
1 1 1
1 1 1
0 0 0
1 1 1
1 1 1
0 0 0
1 1 1
2 2 2
113 113 113
129 129 129
88 88 88
108 108 108
91 91 91
86 86 86
86 86 86
86 86 86
86 86 86
87 87 87
87 87 87
87 87 87
87 87 87
87 87 87
86 86 86
87 87 87
87 87 87
87 87 87
87 87 87
87 87 87
86 86 86
87 87 87
87 87 87
87 87 87
88 88 88
88 88 88
88 88 88
87 87 87
88 88 88
88 88 88
92 92 92
167 167 167
191 191 191
81 81 81
22 22 22
92 92 92
2 2 2
2 2 2
0 0 0
0 0 0
2 2 2
2 2 2
0 0 0
1 1 1
1 1 1
0 0 0
0 0 0
1 1 1
3 3 3
33 33 33
96 96 96
80 80 80
80 80 80
85 85 85
119 119 119
85 85 85
85 85 85
86 86 86
86 86 86
86 86 86
87 87 87
87 87 87
87 87 87
87 87 87
87 87 87
88 88 88
87 87 87
87 87 87
87 87 87
87 87 87
87 87 87
87 87 87
87 87 87
87 87 87
88 88 88
88 88 88
87 87 87
88 88 88
88 88 88
88 88 88
88 88 88
144 144 144
167 167 167
91 91 91
34 34 34
84 84 84
6 6 6
2 2 2
0 0 0
0 0 0
2 2 2
1 1 1
0 0 0
2 2 2
1 1 1
1 1 1
3 3 3
4 4 4
5 5 5
85 85 85
83 83 83
84 84 84
83 83 83
84 84 84
124 124 124
90 90 90
86 86 86
86 86 86
87 87 87
86 86 86
87 87 87
87 87 87
86 86 86
87 87 87
87 87 87
87 87 87
87 87 87
87 87 87
87 87 87
87 87 87
87 87 87
87 87 87
86 86 86
88 88 88
87 87 87
87 87 87
87 87 87
88 88 88
88 88 88
88 88 88
88 88 88
91 91 91
169 169 169
90 90 90
55 55 55
65 65 65
26 26 26
2 2 2
0 0 0
0 0 0
2 2 2
0 0 0
0 0 0
3 3 3
2 2 2
4 4 4
4 4 4
5 5 5
5 5 5
90 90 90
80 80 80
87 87 87
84 84 84
86 86 86
100 100 100
86 86 86
86 86 86
86 86 86
86 86 86
86 86 86
86 86 86
87 87 87
88 88 88
87 87 87
87 87 87
87 87 87
87 87 87
86 86 86
87 87 87
87 87 87
87 87 87
86 86 86
87 87 87
87 87 87
87 87 87
87 87 87
88 88 88
88 88 88
88 88 88
88 88 88
88 88 88
88 88 88
170 170 170
113 113 113
56 56 56
46 46 46
17 17 17
3 3 3
0 0 0
0 0 0
1 1 1
1 1 1
1 1 1
2 2 2
3 3 3
3 3 3
4 4 4
4 4 4
5 5 5
90 90 90
85 85 85
82 82 82
83 83 83
117 117 117
88 88 88
86 86 86
86 86 86
86 86 86
87 87 87
86 86 86
87 87 87
87 87 87
87 87 87
87 87 87
87 87 87
87 87 87
87 87 87
87 87 87
87 87 87
86 86 86
85 85 85
85 85 85
86 86 86
87 87 87
88 88 88
87 87 87
88 88 88
88 88 88
87 87 87
88 88 88
88 88 88
88 88 88
165 165 165
171 171 171
67 67 67
33 33 33
16 16 16
21 21 21
0 0 0
0 0 0
1 1 1
2 2 2
2 2 2
2 2 2
2 2 2
3 3 3
4 4 4
3 3 3
18 18 18
105 105 105
133 133 133
81 81 81
51 51 51
91 91 91
86 86 86
86 86 86
86 86 86
86 86 86
87 87 87
86 86 86
86 86 86
86 86 86
87 87 87
87 87 87
87 87 87
86 86 86
87 87 87
87 87 87
86 86 86
86 86 86
86 86 86
87 87 87
87 87 87
87 87 87
87 87 87
88 88 88
88 88 88
88 88 88
88 88 88
88 88 88
88 88 88
89 89 89
167 167 167
187 187 187
68 68 68
27 27 27
16 16 16
22 22 22
0 0 0
0 0 0
2 2 2
2 2 2
2 2 2
2 2 2
1 1 1
1 1 1
3 3 3
3 3 3
65 65 65
165 165 165
1 1 1
22 22 22
74 74 74
87 87 87
86 86 86
86 86 86
86 86 86
86 86 86
87 87 87
87 87 87
87 87 87
86 86 86
86 86 86
85 85 85
86 86 86
87 87 87
86 86 86
87 87 87
86 86 86
86 86 86
86 86 86
87 87 87
87 87 87
87 87 87
87 87 87
87 87 87
87 87 87
87 87 87
87 87 87
88 88 88
88 88 88
92 92 92
169 169 169
194 194 194
61 61 61
26 26 26
16 16 16
15 15 15
0 0 0
0 0 0
1 1 1
1 1 1
2 2 2
2 2 2
2 2 2
1 1 1
1 1 1
10 10 10
83 83 83
121 121 121
4 4 4
62 62 62
118 118 118
90 90 90
85 85 85
86 86 86
86 86 86
86 86 86
86 86 86
86 86 86
87 87 87
87 87 87
86 86 86
86 86 86
86 86 86
86 86 86
87 87 87
87 87 87
86 86 86
86 86 86
86 86 86
87 87 87
87 87 87
87 87 87
87 87 87
87 87 87
87 87 87
88 88 88
87 87 87
88 88 88
87 87 87
89 89 89
164 164 164
190 190 190
57 57 57
28 28 28
17 17 17
14 14 14
0 0 0
0 0 0
2 2 2
1 1 1
2 2 2
1 1 1
1 1 1
2 2 2
2 2 2
30 30 30
84 84 84
66 66 66
4 4 4
9 9 9
128 128 128
88 88 88
87 87 87
86 86 86
86 86 86
86 86 86
86 86 86
87 87 87
87 87 87
86 86 86
86 86 86
86 86 86
87 87 87
87 87 87
87 87 87
86 86 86
87 87 87
86 86 86
86 86 86
87 87 87
87 87 87
87 87 87
88 88 88
87 87 87
88 88 88
88 88 88
88 88 88
88 88 88
88 88 88
88 88 88
168 168 168
186 186 186
59 59 59
33 33 33
20 20 20
16 16 16
0 0 0
0 0 0
2 2 2
1 1 1
2 2 2
1 1 1
1 1 1
1 1 1
2 2 2
1 1 1
71 71 71
100 100 100
14 14 14
3 3 3
94 94 94
87 87 87
86 86 86
87 87 87
86 86 86
86 86 86
87 87 87
87 87 87
86 86 86
87 87 87
87 87 87
87 87 87
87 87 87
87 87 87
87 87 87
87 87 87
88 88 88
87 87 87
86 86 86
86 86 86
87 87 87
87 87 87
87 87 87
88 88 88
87 87 87
88 88 88
88 88 88
88 88 88
87 87 87
87 87 87
158 158 158
151 151 151
54 54 54
41 41 41
20 20 20
15 15 15
0 0 0
0 0 0
1 1 1
2 2 2
1 1 1
2 2 2
0 0 0
1 1 1
1 1 1
2 2 2
5 5 5
120 120 120
97 97 97
46 46 46
81 81 81
120 120 120
87 87 87
87 87 87
86 86 86
87 87 87
87 87 87
86 86 86
87 87 87
87 87 87
87 87 87
87 87 87
87 87 87
87 87 87
87 87 87
87 87 87
87 87 87
87 87 87
86 86 86
85 85 85
86 86 86
87 87 87
87 87 87
87 87 87
88 88 88
88 88 88
88 88 88
87 87 87
87 87 87
86 86 86
162 162 162
130 130 130
49 49 49
49 49 49
22 22 22
15 15 15
0 0 0
0 0 0
2 2 2
2 2 2
1 1 1
1 1 1
2 2 2
2 2 2
1 1 1
3 3 3
0 0 0
91 91 91
87 87 87
83 83 83
79 79 79
94 94 94
123 123 123
85 85 85
86 86 86
86 86 86
87 87 87
86 86 86
86 86 86
87 87 87
87 87 87
87 87 87
87 87 87
87 87 87
87 87 87
87 87 87
87 87 87
87 87 87
87 87 87
87 87 87
87 87 87
87 87 87
87 87 87
88 88 88
88 88 88
88 88 88
88 88 88
87 87 87
87 87 87
90 90 90
165 165 165
132 132 132
48 48 48
58 58 58
22 22 22
13 13 13
0 0 0
0 0 0
1 1 1
1 1 1
1 1 1
1 1 1
1 1 1
1 1 1
2 2 2
2 2 2
1 1 1
39 39 39
79 79 79
89 89 89
85 85 85
82 82 82
122 122 122
95 95 95
87 87 87
87 87 87
87 87 87
87 87 87
87 87 87
87 87 87
87 87 87
87 87 87
87 87 87
87 87 87
87 87 87
87 87 87
87 87 87
87 87 87
86 86 86
86 86 86
87 87 87
87 87 87
88 88 88
87 87 87
88 88 88
87 87 87
88 88 88
88 88 88
87 87 87
152 152 152
154 154 154
101 101 101
38 38 38
52 52 52
21 21 21
13 13 13
0 0 0
0 0 0
1 1 1
0 0 0
0 0 0
1 1 1
0 0 0
1 1 1
2 2 2
1 1 1
2 2 2
5 5 5
88 88 88
87 87 87
86 86 86
85 85 85
113 113 113
95 95 95
86 86 86
86 86 86
87 87 87
87 87 87
86 86 86
87 87 87
87 87 87
87 87 87
87 87 87
87 87 87
87 87 87
87 87 87
87 87 87
86 86 86
87 87 87
86 86 86
87 87 87
87 87 87
87 87 87
87 87 87
87 87 87
87 87 87
88 88 88
87 87 87
92 92 92
169 169 169
188 188 188
82 82 82
43 43 43
45 45 45
19 19 19
15 15 15
0 0 0
0 0 0
1 1 1
1 1 1
1 1 1
1 1 1
0 0 0
0 0 0
0 0 0
1 1 1
4 4 4
2 2 2
88 88 88
85 85 85
85 85 85
83 83 83
133 133 133
95 95 95
87 87 87
86 86 86
87 87 87
87 87 87
86 86 86
87 87 87
87 87 87
87 87 87
87 87 87
87 87 87
87 87 87
87 87 87
87 87 87
87 87 87
87 87 87
88 88 88
87 87 87
87 87 87
87 87 87
88 88 88
88 88 88
88 88 88
88 88 88
87 87 87
170 170 170
164 164 164
169 169 169
48 48 48
46 46 46
35 35 35
19 19 19
15 15 15
0 0 0
0 0 0
1 1 1
2 2 2
2 2 2
2 2 2
1 1 1
0 0 0
0 0 0
0 0 0
1 1 1
1 1 1
45 45 45
101 101 101
80 80 80
79 79 79
143 143 143
108 108 108
93 93 93
86 86 86
87 87 87
87 87 87
87 87 87
86 86 86
86 86 86
87 87 87
86 86 86
86 86 86
86 86 86
86 86 86
87 87 87
87 87 87
88 88 88
87 87 87
87 87 87
87 87 87
88 88 88
88 88 88
88 88 88
87 87 87
87 87 87
113 113 113
164 164 164
196 196 196
83 83 83
42 42 42
46 46 46
27 27 27
16 16 16
15 15 15
0 0 0
0 0 0
2 2 2
2 2 2
3 3 3
2 2 2
2 2 2
2 2 2
1 1 1
0 0 0
0 0 0
0 0 0
3 3 3
193 193 193
181 181 181
144 144 144
135 135 135
158 158 158
123 123 123
97 97 97
88 88 88
86 86 86
86 86 86
86 86 86
86 86 86
86 86 86
87 87 87
87 87 87
87 87 87
87 87 87
87 87 87
87 87 87
88 88 88
87 87 87
86 86 86
87 87 87
87 87 87
88 88 88
88 88 88
87 87 87
90 90 90
172 172 172
184 184 184
109 109 109
45 45 45
41 41 41
43 43 43
19 19 19
14 14 14
14 14 14
0 0 0
0 0 0
2 2 2
3 3 3
3 3 3
2 2 2
3 3 3
3 3 3
3 3 3
2 2 2
2 2 2
1 1 1
0 0 0
49 49 49
156 156 156
98 98 98
81 81 81
85 85 85
112 112 112
142 142 142
144 144 144
109 109 109
87 87 87
87 87 87
87 87 87
87 87 87
87 87 87
87 87 87
87 87 87
87 87 87
87 87 87
87 87 87
87 87 87
87 87 87
87 87 87
87 87 87
87 87 87
87 87 87
87 87 87
117 117 117
167 167 167
182 182 182
103 103 103
62 62 62
28 28 28
38 38 38
53 53 53
22 22 22
11 11 11
15 15 15
0 0 0
0 0 0
2 2 2
3 3 3
3 3 3
3 3 3
2 2 2
2 2 2
2 2 2
3 3 3
3 3 3
3 3 3
3 3 3
0 0 0
7 7 7
11 11 11
38 38 38
75 75 75
87 87 87
88 88 88
160 160 160
173 173 173
159 159 159
105 105 105
89 89 89
87 87 87
87 87 87
87 87 87
87 87 87
87 87 87
88 88 88
86 86 86
87 87 87
87 87 87
87 87 87
88 88 88
87 87 87
94 94 94
162 162 162
175 175 175
187 187 187
94 94 94
55 55 55
16 16 16
24 24 24
18 18 18
25 25 25
28 28 28
12 12 12
18 18 18
0 0 0
0 0 0
2 2 2
3 3 3
3 3 3
3 3 3
3 3 3
3 3 3
3 3 3
3 3 3
4 4 4
3 3 3
3 3 3
2 2 2
0 0 0
2 2 2
3 3 3
2 2 2
3 3 3
36 36 36
86 86 86
97 97 97
164 164 164
191 191 191
166 166 166
161 161 161
127 127 127
104 104 104
92 92 92
89 89 89
88 88 88
87 87 87
87 87 87
87 87 87
88 88 88
88 88 88
136 136 136
168 168 168
180 180 180
190 190 190
85 85 85
47 47 47
17 17 17
14 14 14
24 24 24
23 23 23
11 11 11
42 42 42
13 13 13
27 27 27
0 0 0
0 0 0
2 2 2
3 3 3
3 3 3
3 3 3
3 3 3
3 3 3
3 3 3
3 3 3
3 3 3
4 4 4
3 3 3
4 4 4
3 3 3
3 3 3
4 4 4
4 4 4
3 3 3
3 3 3
1 1 1
17 17 17
75 75 75
92 92 92
131 131 131
203 203 203
185 185 185
176 176 176
176 176 176
177 177 177
168 168 168
163 163 163
157 157 157
159 159 159
169 169 169
172 172 172
182 182 182
190 190 190
107 107 107
84 84 84
14 14 14
14 14 14
22 22 22
17 17 17
12 12 12
37 37 37
9 9 9
61 61 61
13 13 13
2 2 2
0 0 0
0 0 0
2 2 2
2 2 2
2 2 2
2 2 2
3 3 3
3 3 3
3 3 3
3 3 3
3 3 3
3 3 3
3 3 3
3 3 3
3 3 3
3 3 3
4 4 4
3 3 3
4 4 4
3 3 3
3 3 3
2 2 2
1 1 1
4 4 4
16 16 16
68 68 68
94 94 94
143 143 143
187 187 187
193 193 193
179 179 179
186 186 186
184 184 184
168 168 168
137 137 137
103 103 103
79 79 79
56 56 56
10 10 10
10 10 10
6 6 6
16 16 16
13 13 13
35 35 35
9 9 9
39 39 39
9 9 9
79 79 79
21 21 21
2 2 2
0 0 0
0 0 0
2 2 2
2 2 2
1 1 1
1 1 1
1 1 1
1 1 1
1 1 1
2 2 2
3 3 3
3 3 3
3 3 3
3 3 3
3 3 3
3 3 3
3 3 3
4 4 4
5 5 5
5 5 5
4 4 4
2 2 2
3 3 3
3 3 3
3 3 3
3 3 3
9 9 9
31 31 31
24 24 24
16 16 16
11 11 11
10 10 10
19 19 19
20 20 20
9 9 9
4 4 4
4 4 4
3 3 3
4 4 4
31 31 31
30 30 30
22 22 22
26 26 26
27 27 27
18 18 18
38 38 38
10 10 10
77 77 77
8 8 8
2 2 2
0 0 0
0 0 0
2 2 2
2 2 2
1 1 1
1 1 1
2 2 2
1 1 1
1 1 1
1 1 1
1 1 1
2 2 2
3 3 3
4 4 4
3 3 3
3 3 3
3 3 3
4 4 4
4 4 4
4 4 4
4 4 4
3 3 3
3 3 3
3 3 3
3 3 3
3 3 3
3 3 3
3 3 3
4 4 4
4 4 4
4 4 4
1 1 1
1 1 1
1 1 1
2 2 2
3 3 3
4 4 4
5 5 5
7 7 7
23 23 23
23 23 23
23 23 23
19 19 19
25 25 25
28 28 28
17 17 17
14 14 14
62 62 62
2 2 2
2 2 2
0 0 0
0 0 0
2 2 2
2 2 2
2 2 2
1 1 1
2 2 2
1 1 1
1 1 1
1 1 1
1 1 1
2 2 2
2 2 2
2 2 2
2 2 2
3 3 3
3 3 3
3 3 3
4 4 4
4 4 4
3 3 3
4 4 4
4 4 4
5 5 5
4 4 4
4 4 4
3 3 3
4 4 4
4 4 4
4 4 4
5 5 5
4 4 4
3 3 3
3 3 3
4 4 4
4 4 4
5 5 5
7 7 7
6 6 6
19 19 19
26 26 26
34 34 34
20 20 20
29 29 29
36 36 36
11 11 11
17 17 17
10 10 10
2 2 2
2 2 2
0 0 0
0 0 0
2 2 2
2 2 2
2 2 2
2 2 2
1 1 1
1 1 1
1 1 1
1 1 1
1 1 1
1 1 1
2 2 2
1 1 1
1 1 1
2 2 2
2 2 2
3 3 3
4 4 4
3 3 3
4 4 4
5 5 5
5 5 5
4 4 4
4 4 4
4 4 4
5 5 5
5 5 5
4 4 4
5 5 5
4 4 4
4 4 4
4 4 4
4 4 4
5 5 5
4 4 4
5 5 5
9 9 9
8 8 8
19 19 19
25 25 25
34 34 34
18 18 18
19 19 19
50 50 50
14 14 14
36 36 36
2 2 2
2 2 2
2 2 2
0 0 0
0 0 0
2 2 2
2 2 2
2 2 2
2 2 2
1 1 1
1 1 1
1 1 1
1 1 1
1 1 1
2 2 2
1 1 1
2 2 2
1 1 1
1 1 1
2 2 2
2 2 2
4 4 4
4 4 4
4 4 4
4 4 4
4 4 4
5 5 5
4 4 4
4 4 4
5 5 5
5 5 5
4 4 4
4 4 4
4 4 4
5 5 5
5 5 5
6 6 6
5 5 5
5 5 5
6 6 6
6 6 6
9 9 9
18 18 18
23 23 23
16 16 16
25 25 25
19 19 19
44 44 44
15 15 15
2 2 2
2 2 2
2 2 2
2 2 2
0 0 0
0 0 0
2 2 2
2 2 2
2 2 2
2 2 2
2 2 2
1 1 1
1 1 1
1 1 1
1 1 1
2 2 2
1 1 1
2 2 2
1 1 1
2 2 2
1 1 1
1 1 1
2 2 2
2 2 2
3 3 3
4 4 4
4 4 4
4 4 4
5 5 5
4 4 4
5 5 5
4 4 4
5 5 5
4 4 4
4 4 4
4 4 4
5 5 5
5 5 5
5 5 5
6 6 6
5 5 5
5 5 5
11 11 11
22 22 22
21 21 21
16 16 16
29 29 29
33 33 33
16 16 16
5 5 5
2 2 2
2 2 2
2 2 2
2 2 2
0 0 0
0 0 0
2 2 2
2 2 2
2 2 2
2 2 2
2 2 2
2 2 2
1 1 1
1 1 1
1 1 1
1 1 1
1 1 1
2 2 2
1 1 1
2 2 2
2 2 2
1 1 1
1 1 1
2 2 2
2 2 2
2 2 2
4 4 4
4 4 4
4 4 4
4 4 4
4 4 4
4 4 4
4 4 4
4 4 4
4 4 4
4 4 4
4 4 4
5 5 5
8 8 8
11 11 11
7 7 7
10 10 10
20 20 20
24 24 24
19 19 19
29 29 29
21 21 21
57 57 57
11 11 11
2 2 2
2 2 2
2 2 2
2 2 2
2 2 2
0 0 0
0 0 0
2 2 2
2 2 2
2 2 2
2 2 2
2 2 2
2 2 2
2 2 2
2 2 2
1 1 1
1 1 1
2 2 2
2 2 2
1 1 1
1 1 1
2 2 2
1 1 1
1 1 1
2 2 2
2 2 2
2 2 2
2 2 2
2 2 2
3 3 3
3 3 3
4 4 4
4 4 4
5 5 5
4 4 4
4 4 4
4 4 4
6 6 6
9 9 9
7 7 7
12 12 12
14 14 14
14 14 14
21 21 21
12 12 12
26 26 26
36 36 36
31 31 31
32 32 32
2 2 2
2 2 2
2 2 2
2 2 2
2 2 2
2 2 2
0 0 0
0 0 0
2 2 2
2 2 2
2 2 2
2 2 2
2 2 2
2 2 2
2 2 2
2 2 2
1 1 1
1 1 1
1 1 1
1 1 1
1 1 1
1 1 1
2 2 2
1 1 1
2 2 2
1 1 1
2 2 2
1 1 1
2 2 2
2 2 2
2 2 2
2 2 2
3 3 3
3 3 3
3 3 3
3 3 3
3 3 3
4 4 4
2 2 2
4 4 4
6 6 6
8 8 8
7 7 7
18 18 18
8 8 8
6 6 6
29 29 29
39 39 39
13 13 13
2 2 2
2 2 2
2 2 2
2 2 2
2 2 2
2 2 2
2 2 2
0 0 0
0 0 0
2 2 2
2 2 2
2 2 2
2 2 2
2 2 2
2 2 2
2 2 2
2 2 2
2 2 2
1 1 1
2 2 2
1 1 1
1 1 1
1 1 1
2 2 2
1 1 1
1 1 1
1 1 1
1 1 1
1 1 1
2 2 2
2 2 2
2 2 2
2 2 2
2 2 2
3 3 3
3 3 3
10 10 10
5 5 5
5 5 5
7 7 7
10 10 10
4 4 4
4 4 4
18 18 18
7 7 7
7 7 7
22 22 22
27 27 27
7 7 7
2 2 2
2 2 2
2 2 2
2 2 2
2 2 2
2 2 2
2 2 2
2 2 2
0 0 0
0 0 0
2 2 2
2 2 2
2 2 2
2 2 2
2 2 2
2 2 2
2 2 2
2 2 2
2 2 2
2 2 2
1 1 1
1 1 1
1 1 1
1 1 1
2 2 2
1 1 1
1 1 1
1 1 1
1 1 1
1 1 1
1 1 1
2 2 2
2 2 2
2 2 2
3 3 3
2 2 2
6 6 6
3 3 3
2 2 2
5 5 5
11 11 11
9 9 9
9 9 9
4 4 4
16 16 16
18 18 18
26 26 26
27 27 27
2 2 2
2 2 2
2 2 2
2 2 2
2 2 2
2 2 2
2 2 2
2 2 2
2 2 2
2 2 2
0 0 0
0 0 0
2 2 2
2 2 2
2 2 2
2 2 2
2 2 2
2 2 2
2 2 2
2 2 2
2 2 2
2 2 2
2 2 2
2 2 2
0 0 0
1 1 1
1 1 1
1 1 1
1 1 1
1 1 1
1 1 1
2 2 2
1 1 1
2 2 2
2 2 2
2 2 2
2 2 2
2 2 2
11 11 11
5 5 5
8 8 8
3 3 3
4 4 4
12 12 12
14 14 14
14 14 14
14 14 14
20 20 20
4 4 4
2 2 2
2 2 2
2 2 2
2 2 2
2 2 2
2 2 2
2 2 2
2 2 2
2 2 2
2 2 2
2 2 2
0 0 0
0 0 0
2 2 2
2 2 2
2 2 2
2 2 2
2 2 2
2 2 2
2 2 2
2 2 2
2 2 2
2 2 2
2 2 2
2 2 2
2 2 2
2 2 2
1 1 1
1 1 1
1 1 1
1 1 1
1 1 1
1 1 1
1 1 1
2 2 2
2 2 2
2 2 2
3 3 3
3 3 3
3 3 3
5 5 5
5 5 5
4 4 4
5 5 5
20 20 20
25 25 25
31 31 31
4 4 4
2 2 2
2 2 2
2 2 2
2 2 2
2 2 2
2 2 2
2 2 2
2 2 2
2 2 2
2 2 2
2 2 2
2 2 2
2 2 2
0 0 0
0 0 0
2 2 2
2 2 2
2 2 2
2 2 2
2 2 2
2 2 2
2 2 2
2 2 2
2 2 2
2 2 2
2 2 2
2 2 2
2 2 2
2 2 2
2 2 2
2 2 2
1 1 1
0 0 0
1 1 1
1 1 1
1 1 1
2 2 2
2 2 2
3 3 3
3 3 3
3 3 3
4 4 4
16 16 16
4 4 4
5 5 5
19 19 19
21 21 21
2 2 2
2 2 2
2 2 2
2 2 2
2 2 2
2 2 2
2 2 2
2 2 2
2 2 2
2 2 2
2 2 2
2 2 2
2 2 2
2 2 2
2 2 2
2 2 2
0 0 0
0 0 0
0 0 0
0 0 0
0 0 0
0 0 0
0 0 0
0 0 0
0 0 0
0 0 0
0 0 0
0 0 0
0 0 0
0 0 0
0 0 0
0 0 0
0 0 0
0 0 0
0 0 0
0 0 0
0 0 0
0 0 0
0 0 0
0 0 0
0 0 0
0 0 0
0 0 0
0 0 0
0 0 0
0 0 0
0 0 0
0 0 0
0 0 0
0 0 0
0 0 0
0 0 0
0 0 0
0 0 0
0 0 0
0 0 0
0 0 0
0 0 0
0 0 0
0 0 0
0 0 0
0 0 0
0 0 0
0 0 0
0 0 0
0 0 0
0 0 0
