P3 
50 50 
255
0 0 0
0 0 0
0 0 0
0 0 0
0 0 0
0 0 0
0 0 0
0 0 0
0 0 0
0 0 0
0 0 0
0 0 0
0 0 0
0 0 0
0 0 0
0 0 0
0 0 0
0 0 0
0 0 0
0 0 0
0 0 0
0 0 0
0 0 0
0 0 0
0 0 0
0 0 0
0 0 0
0 0 0
0 0 0
0 0 0
0 0 0
0 0 0
0 0 0
0 0 0
0 0 0
0 0 0
0 0 0
0 0 0
0 0 0
0 0 0
0 0 0
0 0 0
0 0 0
0 0 0
0 0 0
0 0 0
0 0 0
0 0 0
0 0 0
0 0 0
0 0 0
2 2 2
2 2 2
2 2 2
2 2 2
2 2 2
2 2 2
2 2 2
2 2 2
2 2 2
2 2 2
2 2 2
2 2 2
2 2 2
2 2 2
2 2 2
2 2 2
2 2 2
1 1 1
3 3 3
4 4 4
4 4 4
4 4 4
4 4 4
4 4 4
3 3 3
3 3 3
4 4 4
5 5 5
7 7 7
10 10 10
11 11 11
4 4 4
2 2 2
2 2 2
2 2 2
2 2 2
2 2 2
2 2 2
2 2 2
2 2 2
2 2 2
2 2 2
2 2 2
2 2 2
2 2 2
2 2 2
2 2 2
2 2 2
0 0 0
0 0 0
2 2 2
2 2 2
2 2 2
2 2 2
2 2 2
2 2 2
2 2 2
2 2 2
2 2 2
2 2 2
2 2 2
2 2 2
2 2 2
2 2 2
1 1 1
1 1 1
1 1 1
1 1 1
3 3 3
3 3 3
4 4 4
3 3 3
4 4 4
3 3 3
2 2 2
6 6 6
15 15 15
21 21 21
18 18 18
21 21 21
18 18 18
14 14 14
21 21 21
19 19 19
2 2 2
2 2 2
2 2 2
2 2 2
2 2 2
2 2 2
2 2 2
2 2 2
2 2 2
2 2 2
2 2 2
2 2 2
2 2 2
2 2 2
0 0 0
0 0 0
2 2 2
2 2 2
2 2 2
2 2 2
2 2 2
2 2 2
2 2 2
2 2 2
2 2 2
2 2 2
2 2 2
2 2 2
1 1 1
1 1 1
1 1 1
2 2 2
3 3 3
3 3 3
2 2 2
4 4 4
4 4 4
4 4 4
4 4 4
3 3 3
10 10 10
9 9 9
15 15 15
13 13 13
12 12 12
21 21 21
17 17 17
18 18 18
19 19 19
13 13 13
16 16 16
19 19 19
2 2 2
2 2 2
2 2 2
2 2 2
2 2 2
2 2 2
2 2 2
2 2 2
2 2 2
2 2 2
2 2 2
2 2 2
0 0 0
0 0 0
2 2 2
2 2 2
2 2 2
2 2 2
2 2 2
2 2 2
2 2 2
2 2 2
2 2 2
2 2 2
2 2 2
1 1 1
1 1 1
2 2 2
2 2 2
3 3 3
3 3 3
3 3 3
3 3 3
3 3 3
3 3 3
4 4 4
4 4 4
6 6 6
13 13 13
17 17 17
9 9 9
10 10 10
12 12 12
2 2 2
3 3 3
21 21 21
22 22 22
27 27 27
26 26 26
14 14 14
10 10 10
9 9 9
2 2 2
2 2 2
2 2 2
2 2 2
2 2 2
2 2 2
2 2 2
2 2 2
2 2 2
2 2 2
0 0 0
0 0 0
2 2 2
2 2 2
2 2 2
2 2 2
2 2 2
2 2 2
2 2 2
2 2 2
2 2 2
0 0 0
1 1 1
3 3 3
2 2 2
3 3 3
3 3 3
3 3 3
3 3 3
3 3 3
4 4 4
4 4 4
3 3 3
4 4 4
12 12 12
28 28 28
52 52 52
80 80 80
82 82 82
84 84 84
86 86 86
87 87 87
84 84 84
84 84 84
85 85 85
83 83 83
56 56 56
20 20 20
14 14 14
12 12 12
13 13 13
2 2 2
2 2 2
2 2 2
2 2 2
2 2 2
2 2 2
2 2 2
2 2 2
2 2 2
0 0 0
0 0 0
2 2 2
2 2 2
2 2 2
2 2 2
2 2 2
2 2 2
2 2 2
2 2 2
1 1 1
2 2 2
2 2 2
2 2 2
4 4 4
4 4 4
3 3 3
3 3 3
4 4 4
3 3 3
6 6 6
13 13 13
16 16 16
37 37 37
70 70 70
86 86 86
101 101 101
161 161 161
200 200 200
195 195 195
181 181 181
181 181 181
177 177 177
173 173 173
183 183 183
183 183 183
147 147 147
95 95 95
86 86 86
40 40 40
14 14 14
11 11 11
5 5 5
2 2 2
2 2 2
2 2 2
2 2 2
2 2 2
2 2 2
2 2 2
0 0 0
0 0 0
2 2 2
2 2 2
2 2 2
2 2 2
2 2 2
2 2 2
2 2 2
0 0 0
2 2 2
1 1 1
3 3 3
4 4 4
4 4 4
5 5 5
4 4 4
3 3 3
1 1 1
2 2 2
26 26 26
78 78 78
87 87 87
86 86 86
103 103 103
155 155 155
100 100 100
91 91 91
88 88 88
92 92 92
92 92 92
87 87 87
88 88 88
91 91 91
101 101 101
131 131 131
174 174 174
176 176 176
190 190 190
150 150 150
74 74 74
16 16 16
9 9 9
9 9 9
2 2 2
2 2 2
2 2 2
2 2 2
2 2 2
2 2 2
0 0 0
0 0 0
2 2 2
2 2 2
2 2 2
2 2 2
2 2 2
2 2 2
1 1 1
2 2 2
2 2 2
2 2 2
3 3 3
4 4 4
3 3 3
2 2 2
1 1 1
20 20 20
75 75 75
83 83 83
87 87 87
87 87 87
98 98 98
156 156 156
102 102 102
86 86 86
86 86 86
87 87 87
87 87 87
87 87 87
86 86 86
87 87 87
87 87 87
87 87 87
87 87 87
87 87 87
88 88 88
102 102 102
167 167 167
173 173 173
192 192 192
92 92 92
28 28 28
18 18 18
6 6 6
2 2 2
2 2 2
2 2 2
2 2 2
2 2 2
0 0 0
0 0 0
2 2 2
2 2 2
2 2 2
2 2 2
2 2 2
1 1 1
2 2 2
2 2 2
3 3 3
3 3 3
3 3 3
3 3 3
7 7 7
55 55 55
81 81 81
82 82 82
83 83 83
86 86 86
86 86 86
156 156 156
99 99 99
85 85 85
86 86 86
86 86 86
86 86 86
87 87 87
87 87 87
87 87 87
87 87 87
87 87 87
87 87 87
87 87 87
87 87 87
88 88 88
87 87 87
88 88 88
88 88 88
106 106 106
171 171 171
188 188 188
98 98 98
29 29 29
56 56 56
2 2 2
2 2 2
2 2 2
2 2 2
2 2 2
0 0 0
0 0 0
2 2 2
2 2 2
2 2 2
2 2 2
2 2 2
2 2 2
2 2 2
2 2 2
2 2 2
3 3 3
3 3 3
38 38 38
93 93 93
140 140 140
83 83 83
85 85 85
84 84 84
104 104 104
139 139 139
85 85 85
85 85 85
86 86 86
87 87 87
87 87 87
87 87 87
87 87 87
87 87 87
87 87 87
87 87 87
87 87 87
87 87 87
87 87 87
87 87 87
88 88 88
87 87 87
88 88 88
88 88 88
88 88 88
91 91 91
169 169 169
187 187 187
103 103 103
29 29 29
30 30 30
2 2 2
2 2 2
2 2 2
2 2 2
0 0 0
0 0 0
2 2 2
2 2 2
2 2 2
1 1 1
2 2 2
2 2 2
2 2 2
2 2 2
3 3 3
3 3 3
0 0 0
80 80 80
192 192 192
111 111 111
83 83 83
83 83 83
146 146 146
120 120 120
85 85 85
85 85 85
86 86 86
86 86 86
86 86 86
86 86 86
85 85 85
87 87 87
86 86 86
86 86 86
86 86 86
87 87 87
87 87 87
87 87 87
88 88 88
88 88 88
88 88 88
87 87 87
88 88 88
89 89 89
88 88 88
104 104 104
167 167 167
198 198 198
78 78 78
58 58 58
24 24 24
2 2 2
2 2 2
2 2 2
0 0 0
0 0 0
2 2 2
2 2 2
2 2 2
2 2 2
2 2 2
3 3 3
3 3 3
2 2 2
3 3 3
3 3 3
1 1 1
84 84 84
129 129 129
179 179 179
87 87 87
94 94 94
128 128 128
84 84 84
85 85 85
85 85 85
86 86 86
86 86 86
86 86 86
85 85 85
86 86 86
86 86 86
86 86 86
87 87 87
87 87 87
86 86 86
87 87 87
87 87 87
87 87 87
87 87 87
87 87 87
88 88 88
87 87 87
89 89 89
88 88 88
88 88 88
124 124 124
175 175 175
152 152 152
50 50 50
22 22 22
7 7 7
2 2 2
2 2 2
0 0 0
0 0 0
2 2 2
2 2 2
2 2 2
3 3 3
2 2 2
2 2 2
2 2 2
3 3 3
4 4 4
3 3 3
25 25 25
87 87 87
86 86 86
82 82 82
110 110 110
106 106 106
125 125 125
83 83 83
85 85 85
85 85 85
86 86 86
86 86 86
86 86 86
86 86 86
86 86 86
87 87 87
86 86 86
86 86 86
87 87 87
86 86 86
87 87 87
87 87 87
87 87 87
87 87 87
87 87 87
87 87 87
88 88 88
88 88 88
88 88 88
89 89 89
88 88 88
170 170 170
198 198 198
85 85 85
26 26 26
91 91 91
2 2 2
2 2 2
0 0 0
0 0 0
2 2 2
2 2 2
3 3 3
3 3 3
2 2 2
3 3 3
3 3 3
4 4 4
3 3 3
17 17 17
89 89 89
84 84 84
84 84 84
85 85 85
81 81 81
112 112 112
123 123 123
84 84 84
85 85 85
85 85 85
86 86 86
86 86 86
87 87 87
87 87 87
86 86 86
86 86 86
87 87 87
87 87 87
86 86 86
87 87 87
87 87 87
87 87 87
87 87 87
87 87 87
87 87 87
87 87 87
89 89 89
88 88 88
88 88 88
88 88 88
88 88 88
114 114 114
170 170 170
97 97 97
54 54 54
84 84 84
5 5 5
2 2 2
0 0 0
0 0 0
2 2 2
2 2 2
4 4 4
4 4 4
3 3 3
3 3 3
2 2 2
2 2 2
14 14 14
87 87 87
84 84 84
84 84 84
85 85 85
86 86 86
77 77 77
79 79 79
120 120 120
90 90 90
86 86 86
86 86 86
86 86 86
86 86 86
87 87 87
86 86 86
86 86 86
87 87 87
87 87 87
87 87 87
86 86 86
87 87 87
88 88 88
86 86 86
87 87 87
86 86 86
87 87 87
88 88 88
88 88 88
88 88 88
88 88 88
88 88 88
88 88 88
87 87 87
166 166 166
176 176 176
60 60 60
64 64 64
27 27 27
2 2 2
0 0 0
0 0 0
2 2 2
2 2 2
3 3 3
3 3 3
3 3 3
3 3 3
2 2 2
2 2 2
19 19 19
88 88 88
84 84 84
84 84 84
84 84 84
86 86 86
84 84 84
83 83 83
81 81 81
120 120 120
85 85 85
86 86 86
86 86 86
86 86 86
86 86 86
86 86 86
87 87 87
86 86 86
87 87 87
86 86 86
86 86 86
87 87 87
86 86 86
87 87 87
86 86 86
87 87 87
87 87 87
87 87 87
88 88 88
88 88 88
88 88 88
88 88 88
88 88 88
88 88 88
151 151 151
186 186 186
66 66 66
46 46 46
18 18 18
4 4 4
0 0 0
0 0 0
1 1 1
1 1 1
2 2 2
3 3 3
3 3 3
2 2 2
1 1 1
2 2 2
5 5 5
89 89 89
85 85 85
84 84 84
85 85 85
78 78 78
81 81 81
79 79 79
88 88 88
115 115 115
95 95 95
86 86 86
86 86 86
86 86 86
86 86 86
86 86 86
86 86 86
87 87 87
87 87 87
88 88 88
87 87 87
87 87 87
86 86 86
86 86 86
86 86 86
87 87 87
87 87 87
87 87 87
88 88 88
88 88 88
87 87 87
88 88 88
87 87 87
87 87 87
97 97 97
175 175 175
87 87 87
35 35 35
16 16 16
22 22 22
0 0 0
0 0 0
1 1 1
1 1 1
1 1 1
2 2 2
2 2 2
1 1 1
2 2 2
2 2 2
2 2 2
89 89 89
84 84 84
84 84 84
83 83 83
82 82 82
85 85 85
95 95 95
109 109 109
103 103 103
87 87 87
85 85 85
87 87 87
86 86 86
86 86 86
86 86 86
85 85 85
86 86 86
87 87 87
87 87 87
87 87 87
86 86 86
86 86 86
86 86 86
88 88 88
86 86 86
87 87 87
88 88 88
88 88 88
88 88 88
88 88 88
87 87 87
88 88 88
87 87 87
94 94 94
155 155 155
101 101 101
32 32 32
16 16 16
23 23 23
0 0 0
0 0 0
1 1 1
0 0 0
1 1 1
2 2 2
2 2 2
0 0 0
1 1 1
2 2 2
69 69 69
83 83 83
77 77 77
30 30 30
11 11 11
6 6 6
19 19 19
43 43 43
80 80 80
88 88 88
87 87 87
85 85 85
84 84 84
86 86 86
86 86 86
86 86 86
86 86 86
87 87 87
86 86 86
87 87 87
87 87 87
89 89 89
86 86 86
86 86 86
87 87 87
88 88 88
87 87 87
87 87 87
87 87 87
87 87 87
88 88 88
87 87 87
87 87 87
88 88 88
155 155 155
152 152 152
112 112 112
31 31 31
17 17 17
16 16 16
0 0 0
0 0 0
1 1 1
1 1 1
1 1 1
2 2 2
6 6 6
85 85 85
92 92 92
78 78 78
30 30 30
49 49 49
52 52 52
61 61 61
42 42 42
70 70 70
70 70 70
96 96 96
110 110 110
104 104 104
92 92 92
85 85 85
85 85 85
85 85 85
85 85 85
86 86 86
86 86 86
86 86 86
87 87 87
86 86 86
86 86 86
107 107 107
88 88 88
87 87 87
88 88 88
89 89 89
88 88 88
88 88 88
88 88 88
87 87 87
88 88 88
88 88 88
87 87 87
89 89 89
127 127 127
161 161 161
111 111 111
27 27 27
19 19 19
14 14 14
0 0 0
0 0 0
0 0 0
0 0 0
0 0 0
1 1 1
29 29 29
107 107 107
76 76 76
68 68 68
29 29 29
25 25 25
41 41 41
59 59 59
53 53 53
48 48 48
79 79 79
47 47 47
63 63 63
97 97 97
90 90 90
86 86 86
86 86 86
86 86 86
86 86 86
85 85 85
86 86 86
87 87 87
87 87 87
87 87 87
86 86 86
86 86 86
85 85 85
86 86 86
87 87 87
86 86 86
87 87 87
88 88 88
87 87 87
87 87 87
88 88 88
88 88 88
89 89 89
88 88 88
97 97 97
180 180 180
89 89 89
26 26 26
20 20 20
15 15 15
0 0 0
0 0 0
1 1 1
1 1 1
2 2 2
1 1 1
5 5 5
71 71 71
117 117 117
118 118 118
140 140 140
149 149 149
64 64 64
27 27 27
37 37 37
16 16 16
36 36 36
26 26 26
38 38 38
96 96 96
88 88 88
85 85 85
86 86 86
86 86 86
86 86 86
86 86 86
86 86 86
86 86 86
87 87 87
87 87 87
87 87 87
86 86 86
86 86 86
87 87 87
87 87 87
87 87 87
87 87 87
87 87 87
87 87 87
88 88 88
88 88 88
87 87 87
88 88 88
87 87 87
117 117 117
187 187 187
76 76 76
25 25 25
20 20 20
16 16 16
0 0 0
0 0 0
1 1 1
1 1 1
1 1 1
2 2 2
1 1 1
0 0 0
0 0 0
0 0 0
8 8 8
82 82 82
88 88 88
83 83 83
82 82 82
82 82 82
88 88 88
88 88 88
97 97 97
103 103 103
112 112 112
89 89 89
86 86 86
85 85 85
87 87 87
87 87 87
86 86 86
87 87 87
86 86 86
88 88 88
87 87 87
87 87 87
87 87 87
87 87 87
87 87 87
87 87 87
87 87 87
87 87 87
87 87 87
88 88 88
87 87 87
88 88 88
87 87 87
88 88 88
159 159 159
195 195 195
57 57 57
27 27 27
21 21 21
14 14 14
0 0 0
0 0 0
1 1 1
1 1 1
2 2 2
1 1 1
2 2 2
1 1 1
1 1 1
2 2 2
2 2 2
51 51 51
89 89 89
88 88 88
86 86 86
78 78 78
81 81 81
86 86 86
86 86 86
89 89 89
113 113 113
86 86 86
86 86 86
85 85 85
86 86 86
86 86 86
87 87 87
86 86 86
87 87 87
87 87 87
87 87 87
87 87 87
87 87 87
87 87 87
86 86 86
86 86 86
87 87 87
87 87 87
88 88 88
87 87 87
88 88 88
88 88 88
87 87 87
88 88 88
175 175 175
152 152 152
47 47 47
31 31 31
21 21 21
13 13 13
0 0 0
0 0 0
1 1 1
1 1 1
1 1 1
2 2 2
2 2 2
2 2 2
2 2 2
2 2 2
3 3 3
34 34 34
88 88 88
85 85 85
85 85 85
84 84 84
81 81 81
80 80 80
84 84 84
118 118 118
85 85 85
86 86 86
85 85 85
87 87 87
87 87 87
87 87 87
86 86 86
87 87 87
87 87 87
86 86 86
87 87 87
87 87 87
87 87 87
86 86 86
88 88 88
86 86 86
87 87 87
87 87 87
88 88 88
87 87 87
88 88 88
88 88 88
87 87 87
120 120 120
182 182 182
94 94 94
46 46 46
37 37 37
20 20 20
12 12 12
0 0 0
0 0 0
1 1 1
1 1 1
2 2 2
1 1 1
2 2 2
2 2 2
2 2 2
2 2 2
3 3 3
21 21 21
88 88 88
85 85 85
85 85 85
85 85 85
78 78 78
86 86 86
116 116 116
93 93 93
85 85 85
86 86 86
86 86 86
86 86 86
87 87 87
87 87 87
86 86 86
87 87 87
87 87 87
87 87 87
87 87 87
87 87 87
87 87 87
86 86 86
87 87 87
87 87 87
88 88 88
87 87 87
88 88 88
88 88 88
88 88 88
87 87 87
88 88 88
176 176 176
203 203 203
80 80 80
44 44 44
34 34 34
20 20 20
14 14 14
0 0 0
0 0 0
1 1 1
1 1 1
2 2 2
1 1 1
1 1 1
1 1 1
2 2 2
1 1 1
3 3 3
10 10 10
87 87 87
86 86 86
85 85 85
85 85 85
79 79 79
108 108 108
119 119 119
84 84 84
86 86 86
86 86 86
86 86 86
87 87 87
87 87 87
87 87 87
87 87 87
86 86 86
87 87 87
87 87 87
87 87 87
87 87 87
87 87 87
87 87 87
87 87 87
87 87 87
88 88 88
88 88 88
87 87 87
88 88 88
88 88 88
88 88 88
150 150 150
182 182 182
121 121 121
49 49 49
42 42 42
25 25 25
18 18 18
14 14 14
0 0 0
0 0 0
0 0 0
1 1 1
0 0 0
0 0 0
1 1 1
1 1 1
1 1 1
2 2 2
3 3 3
3 3 3
33 33 33
90 90 90
86 86 86
88 88 88
102 102 102
107 107 107
118 118 118
85 85 85
86 86 86
86 86 86
87 87 87
87 87 87
87 87 87
87 87 87
87 87 87
87 87 87
87 87 87
87 87 87
87 87 87
87 87 87
88 88 88
88 88 88
87 87 87
88 88 88
87 87 87
87 87 87
88 88 88
88 88 88
87 87 87
122 122 122
174 174 174
197 197 197
80 80 80
41 41 41
48 48 48
19 19 19
15 15 15
14 14 14
0 0 0
0 0 0
1 1 1
1 1 1
1 1 1
1 1 1
1 1 1
0 0 0
0 0 0
0 0 0
1 1 1
2 2 2
1 1 1
69 69 69
89 89 89
113 113 113
120 120 120
82 82 82
88 88 88
112 112 112
86 86 86
86 86 86
86 86 86
86 86 86
87 87 87
87 87 87
87 87 87
87 87 87
87 87 87
87 87 87
87 87 87
87 87 87
87 87 87
87 87 87
87 87 87
88 88 88
88 88 88
88 88 88
88 88 88
88 88 88
92 92 92
180 180 180
195 195 195
87 87 87
43 43 43
37 37 37
51 51 51
18 18 18
14 14 14
13 13 13
0 0 0
0 0 0
1 1 1
1 1 1
1 1 1
1 1 1
1 1 1
1 1 1
1 1 1
1 1 1
0 0 0
0 0 0
0 0 0
0 0 0
148 148 148
191 191 191
85 85 85
86 86 86
86 86 86
103 103 103
159 159 159
131 131 131
85 85 85
86 86 86
86 86 86
87 87 87
87 87 87
86 86 86
86 86 86
87 87 87
87 87 87
87 87 87
87 87 87
87 87 87
87 87 87
87 87 87
88 88 88
87 87 87
87 87 87
127 127 127
182 182 182
200 200 200
86 86 86
34 34 34
25 25 25
39 39 39
48 48 48
20 20 20
12 12 12
14 14 14
0 0 0
0 0 0
2 2 2
3 3 3
2 2 2
3 3 3
3 3 3
1 1 1
1 1 1
1 1 1
2 2 2
2 2 2
2 2 2
0 0 0
12 12 12
117 117 117
164 164 164
80 80 80
82 82 82
86 86 86
91 91 91
166 166 166
85 85 85
86 86 86
87 87 87
86 86 86
87 87 87
86 86 86
87 87 87
86 86 86
87 87 87
87 87 87
87 87 87
87 87 87
87 87 87
88 88 88
88 88 88
95 95 95
179 179 179
183 183 183
205 205 205
83 83 83
35 35 35
31 31 31
40 40 40
33 33 33
23 23 23
28 28 28
12 12 12
18 18 18
0 0 0
0 0 0
2 2 2
3 3 3
3 3 3
3 3 3
3 3 3
3 3 3
2 2 2
3 3 3
3 3 3
3 3 3
2 2 2
2 2 2
0 0 0
0 0 0
28 28 28
57 57 57
78 78 78
83 83 83
83 83 83
88 88 88
159 159 159
93 93 93
87 87 87
86 86 86
87 87 87
87 87 87
87 87 87
87 87 87
87 87 87
87 87 87
87 87 87
87 87 87
87 87 87
89 89 89
154 154 154
183 183 183
197 197 197
138 138 138
83 83 83
24 24 24
10 10 10
25 25 25
31 31 31
31 31 31
12 12 12
41 41 41
13 13 13
27 27 27
0 0 0
0 0 0
2 2 2
3 3 3
3 3 3
3 3 3
3 3 3
3 3 3
3 3 3
3 3 3
3 3 3
3 3 3
2 2 2
3 3 3
3 3 3
2 2 2
2 2 2
1 1 1
1 1 1
2 2 2
18 18 18
71 71 71
89 89 89
101 101 101
156 156 156
123 123 123
89 89 89
88 88 88
89 89 89
88 88 88
88 88 88
95 95 95
117 117 117
147 147 147
168 168 168
183 183 183
196 196 196
125 125 125
84 84 84
50 50 50
8 8 8
21 21 21
25 25 25
15 15 15
23 23 23
28 28 28
10 10 10
60 60 60
13 13 13
2 2 2
0 0 0
0 0 0
2 2 2
3 3 3
3 3 3
2 2 2
3 3 3
3 3 3
2 2 2
3 3 3
2 2 2
3 3 3
3 3 3
3 3 3
3 3 3
3 3 3
3 3 3
3 3 3
3 3 3
2 2 2
1 1 1
2 2 2
2 2 2
32 32 32
74 74 74
88 88 88
135 135 135
179 179 179
200 200 200
206 206 206
200 200 200
198 198 198
204 204 204
191 191 191
137 137 137
91 91 91
60 60 60
40 40 40
15 15 15
12 12 12
17 17 17
19 19 19
21 21 21
19 19 19
26 26 26
48 48 48
8 8 8
78 78 78
22 22 22
2 2 2
0 0 0
0 0 0
2 2 2
2 2 2
3 3 3
3 3 3
3 3 3
3 3 3
3 3 3
2 2 2
3 3 3
3 3 3
3 3 3
3 3 3
3 3 3
3 3 3
3 3 3
4 4 4
4 4 4
3 3 3
3 3 3
2 2 2
3 3 3
3 3 3
1 1 1
1 1 1
0 0 0
5 5 5
33 33 33
53 53 53
65 65 65
62 62 62
47 47 47
24 24 24
3 3 3
1 1 1
3 3 3
4 4 4
4 4 4
10 10 10
7 7 7
25 25 25
17 17 17
30 30 30
17 17 17
21 21 21
10 10 10
78 78 78
8 8 8
2 2 2
0 0 0
0 0 0
2 2 2
2 2 2
1 1 1
2 2 2
3 3 3
3 3 3
3 3 3
3 3 3
2 2 2
3 3 3
3 3 3
3 3 3
3 3 3
4 4 4
4 4 4
4 4 4
4 4 4
4 4 4
3 3 3
2 2 2
2 2 2
2 2 2
3 3 3
3 3 3
5 5 5
5 5 5
13 13 13
6 6 6
2 2 2
2 2 2
3 3 3
2 2 2
3 3 3
4 4 4
5 5 5
5 5 5
5 5 5
23 23 23
28 28 28
26 26 26
28 28 28
34 34 34
25 25 25
9 9 9
15 15 15
64 64 64
2 2 2
2 2 2
0 0 0
0 0 0
2 2 2
2 2 2
2 2 2
1 1 1
1 1 1
2 2 2
1 1 1
2 2 2
2 2 2
3 3 3
3 3 3
3 3 3
3 3 3
3 3 3
3 3 3
3 3 3
3 3 3
3 3 3
2 2 2
4 4 4
3 3 3
3 3 3
3 3 3
4 4 4
4 4 4
3 3 3
2 2 2
4 4 4
4 4 4
4 4 4
3 3 3
4 4 4
4 4 4
4 4 4
5 5 5
5 5 5
5 5 5
18 18 18
16 16 16
17 17 17
20 20 20
19 19 19
44 44 44
10 10 10
17 17 17
10 10 10
2 2 2
2 2 2
0 0 0
0 0 0
2 2 2
2 2 2
2 2 2
1 1 1
1 1 1
1 1 1
1 1 1
1 1 1
1 1 1
2 2 2
3 3 3
3 3 3
3 3 3
3 3 3
3 3 3
4 4 4
3 3 3
3 3 3
3 3 3
3 3 3
4 4 4
4 4 4
3 3 3
4 4 4
3 3 3
2 2 2
3 3 3
2 2 2
3 3 3
4 4 4
4 4 4
5 5 5
5 5 5
4 4 4
5 5 5
6 6 6
7 7 7
9 9 9
22 22 22
15 15 15
17 17 17
26 26 26
52 52 52
14 14 14
37 37 37
2 2 2
2 2 2
2 2 2
0 0 0
0 0 0
2 2 2
2 2 2
2 2 2
2 2 2
1 1 1
1 1 1
1 1 1
1 1 1
1 1 1
1 1 1
1 1 1
1 1 1
2 2 2
3 3 3
3 3 3
3 3 3
3 3 3
3 3 3
4 4 4
3 3 3
3 3 3
4 4 4
4 4 4
4 4 4
4 4 4
3 3 3
2 2 2
3 3 3
4 4 4
4 4 4
4 4 4
4 4 4
5 5 5
5 5 5
4 4 4
4 4 4
7 7 7
11 11 11
12 12 12
23 23 23
6 6 6
35 35 35
26 26 26
15 15 15
2 2 2
2 2 2
2 2 2
2 2 2
0 0 0
0 0 0
2 2 2
2 2 2
2 2 2
2 2 2
2 2 2
1 1 1
1 1 1
1 1 1
1 1 1
1 1 1
1 1 1
1 1 1
1 1 1
2 2 2
2 2 2
3 3 3
3 3 3
3 3 3
3 3 3
3 3 3
3 3 3
3 3 3
4 4 4
4 4 4
4 4 4
4 4 4
3 3 3
4 4 4
4 4 4
4 4 4
4 4 4
4 4 4
5 5 5
4 4 4
9 9 9
8 8 8
11 11 11
21 21 21
13 13 13
24 24 24
23 23 23
44 44 44
15 15 15
5 5 5
2 2 2
2 2 2
2 2 2
2 2 2
0 0 0
0 0 0
2 2 2
2 2 2
2 2 2
2 2 2
2 2 2
2 2 2
1 1 1
1 1 1
1 1 1
1 1 1
1 1 1
1 1 1
1 1 1
2 2 2
1 1 1
1 1 1
2 2 2
2 2 2
3 3 3
3 3 3
3 3 3
3 3 3
3 3 3
3 3 3
4 4 4
4 4 4
4 4 4
4 4 4
4 4 4
4 4 4
4 4 4
4 4 4
4 4 4
11 11 11
7 7 7
13 13 13
15 15 15
11 11 11
30 30 30
24 24 24
35 35 35
52 52 52
10 10 10
2 2 2
2 2 2
2 2 2
2 2 2
2 2 2
0 0 0
0 0 0
2 2 2
2 2 2
2 2 2
2 2 2
2 2 2
2 2 2
2 2 2
1 1 1
1 1 1
1 1 1
1 1 1
1 1 1
1 1 1
1 1 1
2 2 2
1 1 1
1 1 1
1 1 1
1 1 1
2 2 2
2 2 2
4 4 4
3 3 3
3 3 3
4 4 4
4 4 4
4 4 4
4 4 4
4 4 4
4 4 4
4 4 4
2 2 2
6 6 6
8 8 8
4 4 4
11 11 11
17 17 17
14 14 14
20 20 20
29 29 29
22 22 22
22 22 22
2 2 2
2 2 2
2 2 2
2 2 2
2 2 2
2 2 2
0 0 0
0 0 0
2 2 2
2 2 2
2 2 2
2 2 2
2 2 2
2 2 2
2 2 2
2 2 2
1 1 1
1 1 1
1 1 1
1 1 1
1 1 1
1 1 1
1 1 1
2 2 2
1 1 1
1 1 1
2 2 2
2 2 2
2 2 2
2 2 2
2 2 2
2 2 2
3 3 3
4 4 4
4 4 4
3 3 3
3 3 3
3 3 3
2 2 2
3 3 3
5 5 5
12 12 12
5 5 5
10 10 10
8 8 8
23 23 23
32 32 32
39 39 39
17 17 17
2 2 2
2 2 2
2 2 2
2 2 2
2 2 2
2 2 2
2 2 2
0 0 0
0 0 0
2 2 2
2 2 2
2 2 2
2 2 2
2 2 2
2 2 2
2 2 2
2 2 2
2 2 2
1 1 1
1 1 1
0 0 0
1 1 1
1 1 1
1 1 1
1 1 1
1 1 1
1 1 1
1 1 1
2 2 2
1 1 1
1 1 1
2 2 2
2 2 2
2 2 2
2 2 2
2 2 2
3 3 3
3 3 3
3 3 3
3 3 3
3 3 3
8 8 8
9 9 9
13 13 13
10 10 10
14 14 14
28 28 28
30 30 30
7 7 7
2 2 2
2 2 2
2 2 2
2 2 2
2 2 2
2 2 2
2 2 2
2 2 2
0 0 0
0 0 0
2 2 2
2 2 2
2 2 2
2 2 2
2 2 2
2 2 2
2 2 2
2 2 2
2 2 2
2 2 2
1 1 1
1 1 1
1 1 1
1 1 1
1 1 1
1 1 1
2 2 2
1 1 1
1 1 1
1 1 1
1 1 1
2 2 2
2 2 2
2 2 2
2 2 2
2 2 2
2 2 2
2 2 2
3 3 3
4 4 4
3 3 3
3 3 3
8 8 8
10 10 10
10 10 10
8 8 8
23 23 23
28 28 28
2 2 2
2 2 2
2 2 2
2 2 2
2 2 2
2 2 2
2 2 2
2 2 2
2 2 2
2 2 2
0 0 0
0 0 0
2 2 2
2 2 2
2 2 2
2 2 2
2 2 2
2 2 2
2 2 2
2 2 2
2 2 2
2 2 2
2 2 2
2 2 2
0 0 0
1 1 1
1 1 1
1 1 1
1 1 1
1 1 1
1 1 1
1 1 1
1 1 1
1 1 1
1 1 1
1 1 1
15 15 15
4 4 4
2 2 2
5 5 5
5 5 5
6 6 6
9 9 9
8 8 8
9 9 9
7 7 7
8 8 8
16 16 16
4 4 4
2 2 2
2 2 2
2 2 2
2 2 2
2 2 2
2 2 2
2 2 2
2 2 2
2 2 2
2 2 2
2 2 2
0 0 0
0 0 0
2 2 2
2 2 2
2 2 2
2 2 2
2 2 2
2 2 2
2 2 2
2 2 2
2 2 2
2 2 2
2 2 2
2 2 2
2 2 2
2 2 2
0 0 0
0 0 0
1 1 1
1 1 1
1 1 1
1 1 1
1 1 1
1 1 1
2 2 2
2 2 2
2 2 2
12 12 12
15 15 15
7 7 7
4 4 4
4 4 4
5 5 5
9 9 9
15 15 15
14 14 14
3 3 3
2 2 2
2 2 2
2 2 2
2 2 2
2 2 2
2 2 2
2 2 2
2 2 2
2 2 2
2 2 2
2 2 2
2 2 2
2 2 2
0 0 0
0 0 0
2 2 2
2 2 2
2 2 2
2 2 2
2 2 2
2 2 2
2 2 2
2 2 2
2 2 2
2 2 2
2 2 2
2 2 2
2 2 2
2 2 2
2 2 2
2 2 2
1 1 1
0 0 0
1 1 1
1 1 1
1 1 1
1 1 1
2 2 2
2 2 2
2 2 2
2 2 2
3 3 3
11 11 11
10 10 10
4 4 4
12 12 12
10 10 10
2 2 2
2 2 2
2 2 2
2 2 2
2 2 2
2 2 2
2 2 2
2 2 2
2 2 2
2 2 2
2 2 2
2 2 2
2 2 2
2 2 2
2 2 2
2 2 2
0 0 0
0 0 0
0 0 0
0 0 0
0 0 0
0 0 0
0 0 0
0 0 0
0 0 0
0 0 0
0 0 0
0 0 0
0 0 0
0 0 0
0 0 0
0 0 0
0 0 0
0 0 0
0 0 0
0 0 0
0 0 0
0 0 0
0 0 0
0 0 0
0 0 0
0 0 0
0 0 0
0 0 0
0 0 0
0 0 0
0 0 0
0 0 0
0 0 0
0 0 0
0 0 0
0 0 0
0 0 0
0 0 0
0 0 0
0 0 0
0 0 0
0 0 0
0 0 0
0 0 0
0 0 0
0 0 0
0 0 0
0 0 0
0 0 0
0 0 0
0 0 0
