P3 
50 50 
255
0 0 0
0 0 0
0 0 0
0 0 0
0 0 0
0 0 0
0 0 0
0 0 0
0 0 0
0 0 0
0 0 0
0 0 0
0 0 0
0 0 0
0 0 0
0 0 0
0 0 0
0 0 0
0 0 0
0 0 0
0 0 0
0 0 0
0 0 0
0 0 0
0 0 0
0 0 0
0 0 0
0 0 0
0 0 0
0 0 0
0 0 0
0 0 0
0 0 0
0 0 0
0 0 0
0 0 0
0 0 0
0 0 0
0 0 0
0 0 0
0 0 0
0 0 0
0 0 0
0 0 0
0 0 0
0 0 0
0 0 0
0 0 0
0 0 0
0 0 0
0 0 0
2 2 2
1 1 1
2 2 2
2 2 2
2 2 2
2 2 2
3 3 3
3 3 3
3 3 3
3 3 3
3 3 3
3 3 3
3 3 3
2 2 2
1 1 1
3 3 3
3 3 3
4 4 4
4 4 4
5 5 5
4 4 4
4 4 4
7 7 7
4 4 4
4 4 4
5 5 5
6 6 6
8 8 8
8 8 8
10 10 10
15 15 15
15 15 15
12 12 12
9 9 9
7 7 7
5 5 5
20 20 20
8 8 8
13 13 13
18 18 18
11 11 11
19 19 19
15 15 15
25 25 25
8 8 8
10 10 10
17 17 17
13 13 13
0 0 0
0 0 0
2 2 2
1 1 1
1 1 1
1 1 1
1 1 1
1 1 1
3 3 3
3 3 3
3 3 3
3 3 3
3 3 3
1 1 1
1 1 1
1 1 1
1 1 1
2 2 2
2 2 2
3 3 3
3 3 3
4 4 4
8 8 8
17 17 17
30 30 30
39 39 39
56 56 56
60 60 60
51 51 51
39 39 39
27 27 27
20 20 20
16 16 16
14 14 14
12 12 12
13 13 13
10 10 10
13 13 13
15 15 15
20 20 20
13 13 13
8 8 8
18 18 18
14 14 14
16 16 16
43 43 43
7 7 7
10 10 10
16 16 16
12 12 12
0 0 0
0 0 0
1 1 1
1 1 1
1 1 1
1 1 1
1 1 1
1 1 1
2 2 2
2 2 2
2 2 2
2 2 2
2 2 2
1 1 1
1 1 1
1 1 1
1 1 1
1 1 1
1 1 1
3 3 3
21 21 21
70 70 70
84 84 84
101 101 101
120 120 120
137 137 137
157 157 157
158 158 158
144 144 144
127 127 127
112 112 112
100 100 100
96 96 96
90 90 90
81 81 81
74 74 74
32 32 32
8 8 8
5 5 5
13 13 13
10 10 10
8 8 8
21 21 21
20 20 20
16 16 16
47 47 47
6 6 6
10 10 10
16 16 16
12 12 12
0 0 0
0 0 0
1 1 1
1 1 1
1 1 1
1 1 1
1 1 1
1 1 1
1 1 1
2 2 2
2 2 2
2 2 2
2 2 2
0 0 0
0 0 0
0 0 0
1 1 1
1 1 1
13 13 13
69 69 69
89 89 89
147 147 147
194 194 194
183 183 183
171 171 171
169 169 169
193 193 193
189 189 189
173 173 173
178 178 178
181 181 181
179 179 179
176 176 176
177 177 177
183 183 183
147 147 147
96 96 96
76 76 76
32 32 32
5 5 5
10 10 10
15 15 15
18 18 18
26 26 26
14 14 14
37 37 37
6 6 6
10 10 10
15 15 15
12 12 12
0 0 0
0 0 0
1 1 1
1 1 1
0 0 0
0 0 0
1 1 1
0 0 0
1 1 1
2 2 2
2 2 2
2 2 2
2 2 2
1 1 1
0 0 0
0 0 0
0 0 0
33 33 33
84 84 84
134 134 134
195 195 195
170 170 170
176 176 176
180 180 180
178 178 178
184 184 184
186 186 186
174 174 174
174 174 174
177 177 177
176 176 176
172 172 172
171 171 171
167 167 167
166 166 166
172 172 172
176 176 176
164 164 164
98 98 98
76 76 76
28 28 28
22 22 22
13 13 13
17 17 17
22 22 22
21 21 21
8 8 8
10 10 10
15 15 15
11 11 11
0 0 0
0 0 0
1 1 1
1 1 1
1 1 1
1 1 1
1 1 1
1 1 1
1 1 1
2 2 2
2 2 2
2 2 2
2 2 2
1 1 1
0 0 0
0 0 0
47 47 47
99 99 99
193 193 193
184 184 184
174 174 174
181 181 181
185 185 185
174 174 174
168 168 168
156 156 156
106 106 106
102 102 102
103 103 103
108 108 108
109 109 109
127 127 127
143 143 143
150 150 150
157 157 157
174 174 174
172 172 172
166 166 166
174 174 174
140 140 140
85 85 85
30 30 30
23 23 23
22 22 22
28 28 28
14 14 14
9 9 9
10 10 10
16 16 16
11 11 11
0 0 0
0 0 0
1 1 1
1 1 1
1 1 1
1 1 1
1 1 1
1 1 1
1 1 1
3 3 3
2 2 2
2 2 2
2 2 2
1 1 1
0 0 0
36 36 36
118 118 118
183 183 183
181 181 181
183 183 183
177 177 177
174 174 174
135 135 135
116 116 116
101 101 101
91 91 91
89 89 89
89 89 89
90 90 90
90 90 90
90 90 90
90 90 90
89 89 89
90 90 90
90 90 90
92 92 92
101 101 101
170 170 170
166 166 166
161 161 161
174 174 174
83 83 83
42 42 42
25 25 25
18 18 18
23 23 23
10 10 10
11 11 11
17 17 17
11 11 11
0 0 0
0 0 0
1 1 1
1 1 1
0 0 0
1 1 1
1 1 1
1 1 1
1 1 1
1 1 1
2 2 2
2 2 2
3 3 3
1 1 1
5 5 5
86 86 86
177 177 177
173 173 173
163 163 163
157 157 157
135 135 135
97 97 97
90 90 90
89 89 89
89 89 89
89 89 89
89 89 89
89 89 89
88 88 88
88 88 88
88 88 88
89 89 89
89 89 89
87 87 87
89 89 89
88 88 88
88 88 88
93 93 93
153 153 153
164 164 164
154 154 154
164 164 164
80 80 80
34 34 34
24 24 24
27 27 27
22 22 22
11 11 11
18 18 18
12 12 12
0 0 0
0 0 0
1 1 1
1 1 1
1 1 1
1 1 1
1 1 1
1 1 1
1 1 1
1 1 1
1 1 1
1 1 1
3 3 3
1 1 1
58 58 58
185 185 185
165 165 165
148 148 148
105 105 105
92 92 92
89 89 89
88 88 88
89 89 89
88 88 88
88 88 88
89 89 89
88 88 88
88 88 88
88 88 88
88 88 88
88 88 88
88 88 88
88 88 88
87 87 87
88 88 88
88 88 88
88 88 88
88 88 88
89 89 89
140 140 140
148 148 148
161 161 161
124 124 124
55 55 55
22 22 22
33 33 33
44 44 44
12 12 12
19 19 19
12 12 12
0 0 0
0 0 0
1 1 1
1 1 1
1 1 1
1 1 1
1 1 1
0 0 0
0 0 0
1 1 1
1 1 1
29 29 29
3 3 3
5 5 5
97 97 97
168 168 168
127 127 127
91 91 91
88 88 88
88 88 88
88 88 88
88 88 88
87 87 87
87 87 87
88 88 88
88 88 88
88 88 88
88 88 88
88 88 88
88 88 88
88 88 88
88 88 88
87 87 87
87 87 87
87 87 87
88 88 88
88 88 88
88 88 88
88 88 88
89 89 89
145 145 145
150 150 150
189 189 189
82 82 82
33 33 33
25 25 25
56 56 56
14 14 14
19 19 19
12 12 12
0 0 0
0 0 0
1 1 1
1 1 1
1 1 1
1 1 1
1 1 1
0 0 0
1 1 1
1 1 1
2 2 2
19 19 19
2 2 2
38 38 38
165 165 165
145 145 145
87 87 87
87 87 87
87 87 87
88 88 88
88 88 88
87 87 87
87 87 87
88 88 88
87 87 87
88 88 88
88 88 88
88 88 88
87 87 87
88 88 88
87 87 87
88 88 88
88 88 88
88 88 88
88 88 88
88 88 88
88 88 88
87 87 87
88 88 88
87 87 87
91 91 91
169 169 169
151 151 151
132 132 132
42 42 42
33 33 33
50 50 50
14 14 14
19 19 19
13 13 13
0 0 0
0 0 0
1 1 1
1 1 1
1 1 1
0 0 0
1 1 1
1 1 1
1 1 1
1 1 1
2 2 2
12 12 12
0 0 0
70 70 70
189 189 189
131 131 131
87 87 87
87 87 87
87 87 87
88 88 88
87 87 87
87 87 87
88 88 88
87 87 87
87 87 87
87 87 87
87 87 87
87 87 87
87 87 87
88 88 88
87 87 87
88 88 88
87 87 87
87 87 87
87 87 87
88 88 88
87 87 87
87 87 87
88 88 88
87 87 87
87 87 87
146 146 146
157 157 157
186 186 186
71 71 71
44 44 44
41 41 41
15 15 15
20 20 20
12 12 12
0 0 0
0 0 0
1 1 1
1 1 1
2 2 2
0 0 0
1 1 1
1 1 1
2 2 2
1 1 1
2 2 2
18 18 18
5 5 5
87 87 87
173 173 173
88 88 88
87 87 87
88 88 88
87 87 87
87 87 87
87 87 87
87 87 87
87 87 87
87 87 87
87 87 87
88 88 88
87 87 87
87 87 87
86 86 86
87 87 87
87 87 87
87 87 87
87 87 87
87 87 87
87 87 87
88 88 88
87 87 87
87 87 87
87 87 87
88 88 88
87 87 87
95 95 95
166 166 166
175 175 175
86 86 86
39 39 39
37 37 37
17 17 17
20 20 20
13 13 13
0 0 0
0 0 0
1 1 1
1 1 1
1 1 1
1 1 1
0 0 0
1 1 1
1 1 1
2 2 2
1 1 1
36 36 36
49 49 49
158 158 158
154 154 154
86 86 86
86 86 86
87 87 87
87 87 87
87 87 87
87 87 87
87 87 87
87 87 87
87 87 87
87 87 87
87 87 87
87 87 87
86 86 86
86 86 86
87 87 87
87 87 87
87 87 87
87 87 87
87 87 87
88 88 88
87 87 87
87 87 87
88 88 88
87 87 87
89 89 89
88 88 88
86 86 86
172 172 172
166 166 166
125 125 125
48 48 48
43 43 43
21 21 21
20 20 20
13 13 13
0 0 0
0 0 0
1 1 1
1 1 1
0 0 0
1 1 1
0 0 0
1 1 1
1 1 1
2 2 2
2 2 2
35 35 35
90 90 90
168 168 168
106 106 106
86 86 86
87 87 87
86 86 86
87 87 87
87 87 87
87 87 87
86 86 86
86 86 86
87 87 87
87 87 87
87 87 87
87 87 87
87 87 87
86 86 86
87 87 87
86 86 86
87 87 87
87 87 87
87 87 87
87 87 87
87 87 87
87 87 87
87 87 87
88 88 88
88 88 88
88 88 88
87 87 87
120 120 120
160 160 160
178 178 178
59 59 59
43 43 43
27 27 27
21 21 21
13 13 13
0 0 0
0 0 0
1 1 1
1 1 1
0 0 0
1 1 1
0 0 0
1 1 1
1 1 1
2 2 2
0 0 0
80 80 80
166 166 166
117 117 117
130 130 130
87 87 87
86 86 86
86 86 86
87 87 87
87 87 87
87 87 87
86 86 86
87 87 87
87 87 87
87 87 87
87 87 87
87 87 87
87 87 87
87 87 87
87 87 87
87 87 87
87 87 87
87 87 87
87 87 87
87 87 87
88 88 88
87 87 87
87 87 87
88 88 88
87 87 87
87 87 87
87 87 87
90 90 90
172 172 172
182 182 182
74 74 74
45 45 45
36 36 36
20 20 20
13 13 13
0 0 0
0 0 0
1 1 1
1 1 1
0 0 0
1 1 1
0 0 0
1 1 1
0 0 0
1 1 1
0 0 0
86 86 86
187 187 187
63 63 63
18 18 18
122 122 122
86 86 86
86 86 86
86 86 86
87 87 87
87 87 87
87 87 87
87 87 87
87 87 87
87 87 87
87 87 87
88 88 88
87 87 87
86 86 86
87 87 87
87 87 87
87 87 87
87 87 87
87 87 87
87 87 87
87 87 87
87 87 87
88 88 88
88 88 88
87 87 87
87 87 87
88 88 88
87 87 87
170 170 170
178 178 178
84 84 84
41 41 41
40 40 40
21 21 21
13 13 13
0 0 0
0 0 0
0 0 0
0 0 0
1 1 1
0 0 0
1 1 1
1 1 1
2 2 2
2 2 2
0 0 0
82 82 82
108 108 108
96 96 96
75 75 75
126 126 126
90 90 90
86 86 86
86 86 86
86 86 86
87 87 87
87 87 87
86 86 86
87 87 87
87 87 87
87 87 87
87 87 87
87 87 87
87 87 87
87 87 87
87 87 87
87 87 87
87 87 87
87 87 87
87 87 87
88 88 88
88 88 88
87 87 87
88 88 88
88 88 88
88 88 88
88 88 88
87 87 87
163 163 163
166 166 166
91 91 91
42 42 42
45 45 45
21 21 21
14 14 14
0 0 0
0 0 0
1 1 1
1 1 1
1 1 1
1 1 1
1 1 1
1 1 1
2 2 2
2 2 2
1 1 1
39 39 39
79 79 79
89 89 89
85 85 85
82 82 82
122 122 122
95 95 95
87 87 87
87 87 87
87 87 87
87 87 87
87 87 87
87 87 87
87 87 87
87 87 87
87 87 87
87 87 87
87 87 87
87 87 87
87 87 87
87 87 87
86 86 86
86 86 86
87 87 87
87 87 87
88 88 88
87 87 87
88 88 88
87 87 87
88 88 88
88 88 88
87 87 87
152 152 152
154 154 154
101 101 101
38 38 38
52 52 52
21 21 21
13 13 13
0 0 0
0 0 0
1 1 1
2 2 2
1 1 1
1 1 1
1 1 1
1 1 1
1 1 1
2 2 2
2 2 2
22 22 22
87 87 87
86 86 86
88 88 88
84 84 84
86 86 86
121 121 121
99 99 99
87 87 87
87 87 87
87 87 87
87 87 87
87 87 87
87 87 87
87 87 87
88 88 88
88 88 88
87 87 87
88 88 88
87 87 87
87 87 87
87 87 87
87 87 87
87 87 87
87 87 87
87 87 87
87 87 87
88 88 88
88 88 88
88 88 88
88 88 88
88 88 88
133 133 133
167 167 167
109 109 109
46 46 46
58 58 58
21 21 21
13 13 13
0 0 0
0 0 0
1 1 1
1 1 1
1 1 1
1 1 1
1 1 1
1 1 1
2 2 2
2 2 2
1 1 1
38 38 38
89 89 89
85 85 85
86 86 86
85 85 85
85 85 85
87 87 87
123 123 123
113 113 113
86 86 86
87 87 87
87 87 87
87 87 87
87 87 87
87 87 87
87 87 87
87 87 87
87 87 87
87 87 87
87 87 87
87 87 87
87 87 87
87 87 87
87 87 87
87 87 87
87 87 87
87 87 87
87 87 87
87 87 87
89 89 89
88 88 88
87 87 87
128 128 128
169 169 169
105 105 105
48 48 48
56 56 56
21 21 21
13 13 13
0 0 0
0 0 0
1 1 1
1 1 1
1 1 1
1 1 1
2 2 2
2 2 2
2 2 2
1 1 1
2 2 2
68 68 68
89 89 89
86 86 86
85 85 85
85 85 85
83 83 83
79 79 79
86 86 86
101 101 101
85 85 85
86 86 86
86 86 86
86 86 86
86 86 86
87 87 87
87 87 87
87 87 87
87 87 87
87 87 87
87 87 87
87 87 87
87 87 87
87 87 87
86 86 86
87 87 87
87 87 87
87 87 87
88 88 88
87 87 87
88 88 88
88 88 88
88 88 88
121 121 121
177 177 177
98 98 98
47 47 47
48 48 48
20 20 20
13 13 13
0 0 0
0 0 0
1 1 1
1 1 1
1 1 1
2 2 2
2 2 2
2 2 2
2 2 2
2 2 2
3 3 3
34 34 34
88 88 88
85 85 85
85 85 85
84 84 84
81 81 81
80 80 80
84 84 84
118 118 118
85 85 85
86 86 86
85 85 85
87 87 87
87 87 87
87 87 87
86 86 86
87 87 87
87 87 87
86 86 86
87 87 87
87 87 87
87 87 87
86 86 86
88 88 88
86 86 86
87 87 87
87 87 87
88 88 88
87 87 87
88 88 88
88 88 88
87 87 87
120 120 120
182 182 182
94 94 94
46 46 46
37 37 37
20 20 20
12 12 12
0 0 0
0 0 0
1 1 1
1 1 1
2 2 2
2 2 2
1 1 1
2 2 2
1 1 1
2 2 2
1 1 1
81 81 81
89 89 89
85 85 85
84 84 84
85 85 85
77 77 77
80 80 80
85 85 85
119 119 119
85 85 85
86 86 86
86 86 86
87 87 87
86 86 86
87 87 87
87 87 87
87 87 87
86 86 86
87 87 87
87 87 87
87 87 87
87 87 87
86 86 86
88 88 88
86 86 86
87 87 87
87 87 87
87 87 87
88 88 88
88 88 88
88 88 88
88 88 88
131 131 131
192 192 192
89 89 89
41 41 41
28 28 28
21 21 21
12 12 12
0 0 0
0 0 0
1 1 1
2 2 2
2 2 2
1 1 1
1 1 1
1 1 1
1 1 1
1 1 1
1 1 1
86 86 86
86 86 86
86 86 86
85 85 85
80 80 80
85 85 85
82 82 82
93 93 93
120 120 120
86 86 86
87 87 87
86 86 86
87 87 87
86 86 86
86 86 86
87 87 87
86 86 86
86 86 86
86 86 86
86 86 86
87 87 87
87 87 87
87 87 87
86 86 86
87 87 87
87 87 87
88 88 88
88 88 88
87 87 87
88 88 88
88 88 88
87 87 87
128 128 128
188 188 188
91 91 91
36 36 36
21 21 21
22 22 22
12 12 12
0 0 0
0 0 0
1 1 1
2 2 2
1 1 1
2 2 2
1 1 1
1 1 1
1 1 1
0 0 0
28 28 28
100 100 100
83 83 83
82 82 82
84 84 84
85 85 85
43 43 43
15 15 15
98 98 98
125 125 125
86 86 86
86 86 86
87 87 87
86 86 86
86 86 86
88 88 88
90 90 90
86 86 86
86 86 86
86 86 86
86 86 86
87 87 87
87 87 87
87 87 87
87 87 87
87 87 87
87 87 87
87 87 87
87 87 87
87 87 87
87 87 87
87 87 87
88 88 88
147 147 147
181 181 181
92 92 92
30 30 30
17 17 17
22 22 22
12 12 12
0 0 0
0 0 0
1 1 1
1 1 1
1 1 1
2 2 2
1 1 1
0 0 0
0 0 0
1 1 1
64 64 64
136 136 136
85 85 85
77 77 77
94 94 94
53 53 53
6 6 6
2 2 2
94 94 94
125 125 125
86 86 86
87 87 87
87 87 87
86 86 86
86 86 86
98 98 98
117 117 117
87 87 87
86 86 86
86 86 86
86 86 86
87 87 87
86 86 86
87 87 87
87 87 87
88 88 88
88 88 88
88 88 88
87 87 87
87 87 87
88 88 88
88 88 88
87 87 87
154 154 154
186 186 186
91 91 91
28 28 28
16 16 16
22 22 22
12 12 12
0 0 0
0 0 0
2 2 2
1 1 1
1 1 1
1 1 1
0 0 0
1 1 1
0 0 0
56 56 56
84 84 84
76 76 76
2 2 2
17 17 17
3 3 3
2 2 2
3 3 3
5 5 5
91 91 91
107 107 107
116 116 116
94 94 94
86 86 86
88 88 88
102 102 102
160 160 160
147 147 147
105 105 105
84 84 84
86 86 86
86 86 86
87 87 87
87 87 87
86 86 86
87 87 87
88 88 88
87 87 87
87 87 87
87 87 87
88 88 88
88 88 88
87 87 87
88 88 88
176 176 176
203 203 203
79 79 79
30 30 30
11 11 11
23 23 23
13 13 13
0 0 0
0 0 0
2 2 2
1 1 1
1 1 1
1 1 1
1 1 1
1 1 1
0 0 0
78 78 78
79 79 79
91 91 91
0 0 0
41 41 41
0 0 0
2 2 2
3 3 3
3 3 3
97 97 97
108 108 108
105 105 105
137 137 137
94 94 94
105 105 105
90 90 90
136 136 136
194 194 194
124 124 124
84 84 84
86 86 86
86 86 86
86 86 86
87 87 87
87 87 87
87 87 87
87 87 87
88 88 88
87 87 87
87 87 87
88 88 88
87 87 87
87 87 87
90 90 90
180 180 180
176 176 176
60 60 60
38 38 38
11 11 11
23 23 23
13 13 13
0 0 0
0 0 0
2 2 2
2 2 2
1 1 1
2 2 2
1 1 1
1 1 1
0 0 0
78 78 78
81 81 81
88 88 88
2 2 2
21 21 21
1 1 1
3 3 3
2 2 2
2 2 2
132 132 132
86 86 86
96 96 96
91 91 91
92 92 92
92 92 92
154 154 154
128 128 128
155 155 155
103 103 103
86 86 86
88 88 88
87 87 87
88 88 88
87 87 87
87 87 87
88 88 88
87 87 87
87 87 87
87 87 87
88 88 88
87 87 87
88 88 88
87 87 87
101 101 101
187 187 187
112 112 112
39 39 39
43 43 43
10 10 10
23 23 23
12 12 12
0 0 0
0 0 0
1 1 1
2 2 2
1 1 1
2 2 2
1 1 1
1 1 1
0 0 0
79 79 79
85 85 85
80 80 80
46 46 46
14 14 14
2 2 2
2 2 2
2 2 2
0 0 0
118 118 118
84 84 84
88 88 88
85 85 85
88 88 88
87 87 87
115 115 115
152 152 152
96 96 96
85 85 85
86 86 86
87 87 87
87 87 87
88 88 88
88 88 88
88 88 88
87 87 87
87 87 87
87 87 87
87 87 87
88 88 88
87 87 87
88 88 88
90 90 90
162 162 162
207 207 207
80 80 80
22 22 22
38 38 38
10 10 10
24 24 24
13 13 13
0 0 0
0 0 0
1 1 1
1 1 1
1 1 1
1 1 1
1 1 1
1 1 1
0 0 0
86 86 86
85 85 85
78 78 78
92 92 92
1 1 1
1 1 1
1 1 1
0 0 0
31 31 31
111 111 111
101 101 101
88 88 88
85 85 85
87 87 87
85 85 85
91 91 91
91 91 91
108 108 108
89 89 89
87 87 87
87 87 87
87 87 87
88 88 88
88 88 88
87 87 87
88 88 88
88 88 88
87 87 87
88 88 88
88 88 88
88 88 88
88 88 88
153 153 153
206 206 206
114 114 114
41 41 41
17 17 17
25 25 25
10 10 10
24 24 24
12 12 12
0 0 0
0 0 0
1 1 1
1 1 1
1 1 1
1 1 1
2 2 2
0 0 0
28 28 28
85 85 85
78 78 78
90 90 90
67 67 67
0 0 0
1 1 1
1 1 1
13 13 13
124 124 124
104 104 104
95 95 95
83 83 83
87 87 87
87 87 87
86 86 86
91 91 91
89 89 89
145 145 145
100 100 100
87 87 87
87 87 87
87 87 87
88 88 88
87 87 87
88 88 88
88 88 88
88 88 88
88 88 88
88 88 88
90 90 90
95 95 95
108 108 108
207 207 207
169 169 169
81 81 81
11 11 11
15 15 15
15 15 15
10 10 10
24 24 24
13 13 13
0 0 0
0 0 0
1 1 1
1 1 1
1 1 1
1 1 1
0 0 0
3 3 3
80 80 80
83 83 83
86 86 86
125 125 125
105 105 105
51 51 51
75 75 75
32 32 32
111 111 111
125 125 125
98 98 98
85 85 85
83 83 83
83 83 83
86 86 86
86 86 86
88 88 88
90 90 90
123 123 123
139 139 139
132 132 132
86 86 86
86 86 86
87 87 87
88 88 88
89 89 89
89 89 89
88 88 88
88 88 88
89 89 89
115 115 115
180 180 180
202 202 202
187 187 187
86 86 86
36 36 36
12 12 12
19 19 19
10 10 10
9 9 9
25 25 25
11 11 11
0 0 0
0 0 0
0 0 0
0 0 0
1 1 1
2 2 2
0 0 0
36 36 36
80 80 80
106 106 106
116 116 116
145 145 145
112 112 112
102 102 102
207 207 207
138 138 138
100 100 100
112 112 112
93 93 93
87 87 87
85 85 85
83 83 83
86 86 86
87 87 87
87 87 87
95 95 95
128 128 128
111 111 111
146 146 146
94 94 94
85 85 85
87 87 87
87 87 87
88 88 88
88 88 88
88 88 88
89 89 89
111 111 111
194 194 194
193 193 193
121 121 121
89 89 89
58 58 58
7 7 7
20 20 20
16 16 16
9 9 9
8 8 8
26 26 26
12 12 12
0 0 0
0 0 0
2 2 2
2 2 2
1 1 1
5 5 5
6 6 6
116 116 116
57 57 57
198 198 198
189 189 189
195 195 195
197 197 197
118 118 118
217 217 217
162 162 162
102 102 102
90 90 90
88 88 88
87 87 87
83 83 83
83 83 83
84 84 84
87 87 87
86 86 86
115 115 115
110 110 110
117 117 117
121 121 121
113 113 113
90 90 90
87 87 87
87 87 87
86 86 86
87 87 87
88 88 88
105 105 105
197 197 197
142 142 142
95 95 95
87 87 87
42 42 42
15 15 15
13 13 13
18 18 18
23 23 23
8 8 8
9 9 9
27 27 27
12 12 12
0 0 0
0 0 0
3 3 3
1 1 1
3 3 3
7 7 7
10 10 10
94 94 94
95 95 95
193 193 193
201 201 201
171 171 171
210 210 210
91 91 91
179 179 179
170 170 170
127 127 127
79 79 79
81 81 81
78 78 78
76 76 76
72 72 72
80 80 80
86 86 86
114 114 114
138 138 138
140 140 140
125 125 125
86 86 86
88 88 88
159 159 159
91 91 91
86 86 86
88 88 88
89 89 89
111 111 111
185 185 185
113 113 113
87 87 87
87 87 87
61 61 61
16 16 16
9 9 9
10 10 10
18 18 18
35 35 35
11 11 11
9 9 9
27 27 27
13 13 13
0 0 0
0 0 0
0 0 0
0 0 0
2 2 2
6 6 6
22 22 22
73 73 73
192 192 192
208 208 208
196 196 196
173 173 173
87 87 87
137 137 137
111 111 111
154 154 154
97 97 97
78 78 78
65 65 65
85 85 85
83 83 83
81 81 81
82 82 82
82 82 82
115 115 115
119 119 119
168 168 168
155 155 155
83 83 83
86 86 86
92 92 92
132 132 132
138 138 138
134 134 134
136 136 136
120 120 120
90 90 90
85 85 85
89 89 89
84 84 84
19 19 19
9 9 9
14 14 14
12 12 12
13 13 13
42 42 42
9 9 9
9 9 9
29 29 29
13 13 13
0 0 0
0 0 0
0 0 0
1 1 1
1 1 1
2 2 2
2 2 2
20 20 20
65 65 65
95 95 95
104 104 104
54 54 54
37 37 37
48 48 48
112 112 112
108 108 108
95 95 95
68 68 68
74 74 74
80 80 80
80 80 80
76 76 76
85 85 85
84 84 84
130 130 130
130 130 130
157 157 157
175 175 175
92 92 92
86 86 86
83 83 83
88 88 88
88 88 88
89 89 89
83 83 83
87 87 87
88 88 88
89 89 89
83 83 83
58 58 58
19 19 19
11 11 11
18 18 18
5 5 5
9 9 9
46 46 46
8 8 8
8 8 8
31 31 31
12 12 12
0 0 0
0 0 0
0 0 0
0 0 0
5 5 5
3 3 3
4 4 4
1 1 1
8 8 8
67 67 67
65 65 65
8 8 8
0 0 0
147 147 147
202 202 202
214 214 214
205 205 205
209 209 209
104 104 104
97 97 97
71 71 71
78 78 78
79 79 79
77 77 77
120 120 120
115 115 115
161 161 161
132 132 132
102 102 102
89 89 89
89 89 89
87 87 87
87 87 87
85 85 85
89 89 89
90 90 90
89 89 89
90 90 90
83 83 83
33 33 33
9 9 9
7 7 7
13 13 13
11 11 11
10 10 10
45 45 45
10 10 10
11 11 11
32 32 32
13 13 13
0 0 0
0 0 0
0 0 0
2 2 2
4 4 4
0 0 0
0 0 0
0 0 0
44 44 44
71 71 71
76 76 76
30 30 30
1 1 1
174 174 174
47 47 47
236 236 236
187 187 187
157 157 157
119 119 119
109 109 109
95 95 95
89 89 89
89 89 89
90 90 90
118 118 118
134 134 134
117 117 117
86 86 86
87 87 87
87 87 87
90 90 90
87 87 87
83 83 83
82 82 82
90 90 90
88 88 88
89 89 89
81 81 81
74 74 74
20 20 20
10 10 10
13 13 13
12 12 12
6 6 6
17 17 17
36 36 36
10 10 10
17 17 17
29 29 29
13 13 13
0 0 0
0 0 0
1 1 1
0 0 0
0 0 0
0 0 0
0 0 0
0 0 0
58 58 58
77 77 77
94 94 94
83 83 83
75 75 75
120 120 120
194 194 194
131 131 131
86 86 86
90 90 90
88 88 88
88 88 88
88 88 88
84 84 84
86 86 86
123 123 123
122 122 122
139 139 139
88 88 88
88 88 88
88 88 88
88 88 88
88 88 88
86 86 86
83 83 83
83 83 83
88 88 88
88 88 88
88 88 88
80 80 80
34 34 34
17 17 17
15 15 15
9 9 9
17 17 17
16 16 16
9 9 9
27 27 27
8 8 8
9 9 9
31 31 31
13 13 13
0 0 0
0 0 0
1 1 1
1 1 1
1 1 1
1 1 1
2 2 2
1 1 1
31 31 31
80 80 80
87 87 87
121 121 121
124 124 124
97 97 97
168 168 168
117 117 117
87 87 87
86 86 86
87 87 87
88 88 88
88 88 88
86 86 86
86 86 86
113 113 113
98 98 98
115 115 115
111 111 111
90 90 90
88 88 88
88 88 88
88 88 88
86 86 86
85 85 85
85 85 85
88 88 88
89 89 89
82 82 82
86 86 86
32 32 32
9 9 9
16 16 16
13 13 13
11 11 11
14 14 14
13 13 13
20 20 20
8 8 8
8 8 8
35 35 35
12 12 12
0 0 0
0 0 0
1 1 1
0 0 0
0 0 0
0 0 0
2 2 2
1 1 1
14 14 14
82 82 82
85 85 85
164 164 164
107 107 107
128 128 128
184 184 184
102 102 102
85 85 85
87 87 87
88 88 88
87 87 87
88 88 88
87 87 87
85 85 85
108 108 108
95 95 95
131 131 131
110 110 110
105 105 105
86 86 86
86 86 86
86 86 86
80 80 80
81 81 81
86 86 86
89 89 89
89 89 89
80 80 80
87 87 87
15 15 15
6 6 6
9 9 9
13 13 13
12 12 12
12 12 12
6 6 6
15 15 15
7 7 7
8 8 8
39 39 39
13 13 13
0 0 0
0 0 0
1 1 1
1 1 1
1 1 1
0 0 0
1 1 1
0 0 0
19 19 19
80 80 80
84 84 84
179 179 179
103 103 103
122 122 122
128 128 128
88 88 88
87 87 87
87 87 87
88 88 88
88 88 88
86 86 86
87 87 87
85 85 85
88 88 88
89 89 89
89 89 89
119 119 119
111 111 111
84 84 84
82 82 82
85 85 85
81 81 81
81 81 81
88 88 88
88 88 88
88 88 88
81 81 81
70 70 70
4 4 4
20 20 20
12 12 12
9 9 9
5 5 5
7 7 7
10 10 10
11 11 11
8 8 8
8 8 8
42 42 42
13 13 13
0 0 0
0 0 0
1 1 1
0 0 0
1 1 1
0 0 0
1 1 1
0 0 0
36 36 36
79 79 79
85 85 85
177 177 177
105 105 105
161 161 161
90 90 90
87 87 87
88 88 88
88 88 88
88 88 88
87 87 87
87 87 87
87 87 87
86 86 86
87 87 87
88 88 88
104 104 104
105 105 105
115 115 115
79 79 79
81 81 81
81 81 81
81 81 81
83 83 83
88 88 88
89 89 89
89 89 89
82 82 82
86 86 86
8 8 8
11 11 11
11 11 11
7 7 7
13 13 13
13 13 13
16 16 16
10 10 10
8 8 8
8 8 8
44 44 44
13 13 13
0 0 0
0 0 0
2 2 2
1 1 1
1 1 1
0 0 0
1 1 1
0 0 0
45 45 45
77 77 77
83 83 83
208 208 208
115 115 115
192 192 192
88 88 88
88 88 88
88 88 88
87 87 87
87 87 87
87 87 87
87 87 87
86 86 86
87 87 87
89 89 89
101 101 101
112 112 112
99 99 99
121 121 121
78 78 78
79 79 79
80 80 80
80 80 80
84 84 84
87 87 87
89 89 89
88 88 88
82 82 82
91 91 91
6 6 6
10 10 10
17 17 17
9 9 9
11 11 11
12 12 12
9 9 9
9 9 9
7 7 7
8 8 8
44 44 44
13 13 13
0 0 0
0 0 0
1 1 1
1 1 1
1 1 1
0 0 0
1 1 1
0 0 0
33 33 33
76 76 76
81 81 81
224 224 224
208 208 208
136 136 136
87 87 87
88 88 88
88 88 88
89 89 89
88 88 88
87 87 87
86 86 86
87 87 87
87 87 87
87 87 87
93 93 93
123 123 123
101 101 101
110 110 110
80 80 80
80 80 80
82 82 82
79 79 79
85 85 85
85 85 85
89 89 89
88 88 88
82 82 82
90 90 90
7 7 7
12 12 12
8 8 8
17 17 17
16 16 16
12 12 12
13 13 13
8 8 8
7 7 7
8 8 8
44 44 44
13 13 13
0 0 0
0 0 0
0 0 0
0 0 0
0 0 0
0 0 0
0 0 0
0 0 0
0 0 0
0 0 0
0 0 0
0 0 0
0 0 0
0 0 0
0 0 0
0 0 0
0 0 0
0 0 0
0 0 0
0 0 0
0 0 0
0 0 0
0 0 0
0 0 0
0 0 0
0 0 0
0 0 0
0 0 0
0 0 0
0 0 0
0 0 0
0 0 0
0 0 0
0 0 0
0 0 0
0 0 0
0 0 0
0 0 0
0 0 0
0 0 0
0 0 0
0 0 0
0 0 0
0 0 0
0 0 0
0 0 0
0 0 0
0 0 0
0 0 0
0 0 0
0 0 0
