P3 
50 50 
255
0 0 0
0 0 0
0 0 0
0 0 0
0 0 0
0 0 0
0 0 0
0 0 0
0 0 0
0 0 0
0 0 0
0 0 0
0 0 0
0 0 0
0 0 0
0 0 0
0 0 0
0 0 0
0 0 0
0 0 0
0 0 0
0 0 0
0 0 0
0 0 0
0 0 0
0 0 0
0 0 0
0 0 0
0 0 0
0 0 0
0 0 0
0 0 0
0 0 0
0 0 0
0 0 0
0 0 0
0 0 0
0 0 0
0 0 0
0 0 0
0 0 0
0 0 0
0 0 0
0 0 0
0 0 0
0 0 0
0 0 0
0 0 0
0 0 0
0 0 0
0 0 0
2 2 2
2 2 2
2 2 2
2 2 2
2 2 2
2 2 2
2 2 2
2 2 2
2 2 2
2 2 2
2 2 2
2 2 2
2 2 2
2 2 2
2 2 2
2 2 2
2 2 2
1 1 1
1 1 1
4 4 4
8 8 8
4 4 4
4 4 4
4 4 4
4 4 4
5 5 5
4 4 4
9 9 9
4 4 4
12 12 12
14 14 14
4 4 4
2 2 2
2 2 2
2 2 2
2 2 2
2 2 2
2 2 2
2 2 2
2 2 2
2 2 2
2 2 2
2 2 2
2 2 2
2 2 2
2 2 2
2 2 2
2 2 2
0 0 0
0 0 0
2 2 2
2 2 2
2 2 2
2 2 2
2 2 2
2 2 2
2 2 2
2 2 2
2 2 2
2 2 2
2 2 2
2 2 2
2 2 2
2 2 2
1 1 1
1 1 1
1 1 1
2 2 2
5 5 5
5 5 5
3 3 3
3 3 3
4 4 4
4 4 4
4 4 4
4 4 4
4 4 4
3 3 3
7 7 7
9 9 9
15 15 15
7 7 7
16 16 16
16 16 16
2 2 2
2 2 2
2 2 2
2 2 2
2 2 2
2 2 2
2 2 2
2 2 2
2 2 2
2 2 2
2 2 2
2 2 2
2 2 2
2 2 2
0 0 0
0 0 0
2 2 2
2 2 2
2 2 2
2 2 2
2 2 2
2 2 2
2 2 2
2 2 2
2 2 2
2 2 2
2 2 2
2 2 2
1 1 1
1 1 1
1 1 1
2 2 2
2 2 2
10 10 10
4 4 4
4 4 4
4 4 4
4 4 4
4 4 4
3 3 3
3 3 3
4 4 4
6 6 6
13 13 13
17 17 17
12 12 12
14 14 14
11 11 11
12 12 12
13 13 13
11 11 11
13 13 13
2 2 2
2 2 2
2 2 2
2 2 2
2 2 2
2 2 2
2 2 2
2 2 2
2 2 2
2 2 2
2 2 2
2 2 2
0 0 0
0 0 0
2 2 2
2 2 2
2 2 2
2 2 2
2 2 2
2 2 2
2 2 2
2 2 2
2 2 2
2 2 2
1 1 1
1 1 1
1 1 1
2 2 2
2 2 2
2 2 2
15 15 15
3 3 3
3 3 3
4 4 4
4 4 4
4 4 4
3 3 3
2 2 2
7 7 7
8 8 8
10 10 10
10 10 10
4 4 4
10 10 10
8 8 8
12 12 12
11 11 11
16 16 16
11 11 11
10 10 10
15 15 15
9 9 9
2 2 2
2 2 2
2 2 2
2 2 2
2 2 2
2 2 2
2 2 2
2 2 2
2 2 2
2 2 2
0 0 0
0 0 0
2 2 2
2 2 2
2 2 2
2 2 2
2 2 2
2 2 2
2 2 2
2 2 2
2 2 2
1 1 1
1 1 1
1 1 1
1 1 1
2 2 2
3 3 3
12 12 12
4 4 4
4 4 4
4 4 4
4 4 4
5 5 5
5 5 5
3 3 3
7 7 7
4 4 4
4 4 4
12 12 12
6 6 6
20 20 20
50 50 50
63 63 63
66 66 66
57 57 57
31 31 31
3 3 3
4 4 4
15 15 15
11 11 11
11 11 11
2 2 2
2 2 2
2 2 2
2 2 2
2 2 2
2 2 2
2 2 2
2 2 2
2 2 2
0 0 0
0 0 0
2 2 2
2 2 2
2 2 2
2 2 2
2 2 2
2 2 2
2 2 2
2 2 2
1 1 1
1 1 1
1 1 1
2 2 2
1 1 1
2 2 2
10 10 10
4 4 4
3 3 3
4 4 4
5 5 5
6 6 6
5 5 5
5 5 5
10 10 10
8 8 8
18 18 18
28 28 28
74 74 74
88 88 88
90 90 90
113 113 113
139 139 139
157 157 157
139 139 139
101 101 101
85 85 85
66 66 66
13 13 13
7 7 7
12 12 12
10 10 10
4 4 4
2 2 2
2 2 2
2 2 2
2 2 2
2 2 2
2 2 2
2 2 2
0 0 0
0 0 0
2 2 2
2 2 2
2 2 2
2 2 2
2 2 2
2 2 2
2 2 2
1 1 1
1 1 1
1 1 1
1 1 1
1 1 1
1 1 1
16 16 16
4 4 4
4 4 4
4 4 4
5 5 5
6 6 6
5 5 5
5 5 5
19 19 19
26 26 26
61 61 61
90 90 90
113 113 113
160 160 160
180 180 180
175 175 175
170 170 170
160 160 160
153 153 153
149 149 149
147 147 147
167 167 167
161 161 161
91 91 91
60 60 60
12 12 12
14 14 14
17 17 17
11 11 11
2 2 2
2 2 2
2 2 2
2 2 2
2 2 2
2 2 2
0 0 0
0 0 0
2 2 2
2 2 2
2 2 2
2 2 2
2 2 2
2 2 2
2 2 2
1 1 1
1 1 1
2 2 2
2 2 2
1 1 1
16 16 16
4 4 4
4 4 4
5 5 5
3 3 3
7 7 7
14 14 14
44 44 44
85 85 85
102 102 102
134 134 134
165 165 165
162 162 162
168 168 168
170 170 170
128 128 128
114 114 114
115 115 115
119 119 119
125 125 125
132 132 132
159 159 159
153 153 153
156 156 156
172 172 172
165 165 165
85 85 85
55 55 55
10 10 10
43 43 43
4 4 4
2 2 2
2 2 2
2 2 2
2 2 2
2 2 2
0 0 0
0 0 0
2 2 2
2 2 2
2 2 2
2 2 2
2 2 2
1 1 1
1 1 1
1 1 1
1 1 1
2 2 2
1 1 1
8 8 8
4 4 4
5 5 5
3 3 3
2 2 2
33 33 33
75 75 75
107 107 107
191 191 191
158 158 158
148 148 148
119 119 119
96 96 96
111 111 111
99 99 99
87 87 87
86 86 86
87 87 87
87 87 87
87 87 87
87 87 87
87 87 87
87 87 87
104 104 104
154 154 154
155 155 155
152 152 152
190 190 190
86 86 86
34 34 34
15 15 15
21 21 21
2 2 2
2 2 2
2 2 2
2 2 2
2 2 2
0 0 0
0 0 0
2 2 2
2 2 2
2 2 2
2 2 2
1 1 1
1 1 1
1 1 1
1 1 1
1 1 1
0 0 0
2 2 2
5 5 5
3 3 3
0 0 0
70 70 70
97 97 97
175 175 175
159 159 159
163 163 163
104 104 104
86 86 86
86 86 86
86 86 86
88 88 88
87 87 87
87 87 87
86 86 86
87 87 87
87 87 87
87 87 87
87 87 87
88 88 88
86 86 86
88 88 88
87 87 87
88 88 88
131 131 131
158 158 158
156 156 156
184 184 184
88 88 88
27 27 27
45 45 45
21 21 21
2 2 2
2 2 2
2 2 2
2 2 2
0 0 0
0 0 0
2 2 2
2 2 2
2 2 2
2 2 2
1 1 1
1 1 1
1 1 1
0 0 0
0 0 0
0 0 0
17 17 17
3 3 3
3 3 3
66 66 66
191 191 191
166 166 166
141 141 141
108 108 108
89 89 89
86 86 86
87 87 87
86 86 86
87 87 87
87 87 87
87 87 87
87 87 87
87 87 87
87 87 87
87 87 87
87 87 87
87 87 87
87 87 87
87 87 87
87 87 87
88 88 88
87 87 87
86 86 86
114 114 114
167 167 167
154 154 154
186 186 186
85 85 85
25 25 25
17 17 17
21 21 21
2 2 2
2 2 2
2 2 2
0 0 0
0 0 0
2 2 2
2 2 2
2 2 2
1 1 1
0 0 0
0 0 0
0 0 0
0 0 0
1 1 1
1 1 1
7 7 7
3 3 3
63 63 63
154 154 154
166 166 166
93 93 93
86 86 86
86 86 86
87 87 87
86 86 86
86 86 86
87 87 87
87 87 87
86 86 86
87 87 87
87 87 87
87 87 87
87 87 87
87 87 87
87 87 87
87 87 87
87 87 87
87 87 87
87 87 87
88 88 88
89 89 89
87 87 87
88 88 88
109 109 109
166 166 166
153 153 153
171 171 171
73 73 73
38 38 38
19 19 19
7 7 7
2 2 2
2 2 2
0 0 0
0 0 0
2 2 2
2 2 2
1 1 1
0 0 0
0 0 0
0 0 0
0 0 0
0 0 0
1 1 1
18 18 18
5 5 5
28 28 28
94 94 94
165 165 165
101 101 101
85 85 85
86 86 86
86 86 86
86 86 86
86 86 86
87 87 87
87 87 87
87 87 87
87 87 87
87 87 87
87 87 87
87 87 87
87 87 87
87 87 87
87 87 87
87 87 87
87 87 87
86 86 86
87 87 87
88 88 88
87 87 87
88 88 88
88 88 88
87 87 87
141 141 141
161 161 161
178 178 178
87 87 87
39 39 39
17 17 17
88 88 88
2 2 2
2 2 2
0 0 0
0 0 0
2 2 2
2 2 2
1 1 1
0 0 0
1 1 1
0 0 0
0 0 0
0 0 0
1 1 1
10 10 10
7 7 7
74 74 74
174 174 174
144 144 144
86 86 86
86 86 86
86 86 86
86 86 86
86 86 86
87 87 87
87 87 87
86 86 86
87 87 87
87 87 87
87 87 87
87 87 87
87 87 87
87 87 87
87 87 87
87 87 87
87 87 87
87 87 87
87 87 87
87 87 87
87 87 87
88 88 88
88 88 88
87 87 87
87 87 87
87 87 87
167 167 167
164 164 164
114 114 114
33 33 33
15 15 15
83 83 83
5 5 5
2 2 2
0 0 0
0 0 0
2 2 2
1 1 1
0 0 0
1 1 1
1 1 1
1 1 1
1 1 1
1 1 1
4 4 4
7 7 7
43 43 43
113 113 113
161 161 161
86 86 86
85 85 85
87 87 87
87 87 87
87 87 87
87 87 87
87 87 87
87 87 87
86 86 86
87 87 87
87 87 87
86 86 86
87 87 87
87 87 87
87 87 87
87 87 87
87 87 87
87 87 87
87 87 87
87 87 87
87 87 87
88 88 88
87 87 87
87 87 87
87 87 87
87 87 87
87 87 87
113 113 113
162 162 162
145 145 145
55 55 55
14 14 14
66 66 66
25 25 25
2 2 2
0 0 0
0 0 0
2 2 2
1 1 1
0 0 0
1 1 1
1 1 1
1 1 1
2 2 2
2 2 2
14 14 14
6 6 6
78 78 78
181 181 181
103 103 103
86 86 86
86 86 86
86 86 86
87 87 87
87 87 87
86 86 86
86 86 86
87 87 87
87 87 87
87 87 87
87 87 87
87 87 87
86 86 86
87 87 87
86 86 86
87 87 87
87 87 87
87 87 87
87 87 87
87 87 87
88 88 88
87 87 87
88 88 88
88 88 88
87 87 87
88 88 88
87 87 87
95 95 95
163 163 163
172 172 172
69 69 69
20 20 20
47 47 47
15 15 15
3 3 3
0 0 0
0 0 0
2 2 2
1 1 1
1 1 1
1 1 1
2 2 2
1 1 1
2 2 2
1 1 1
20 20 20
12 12 12
85 85 85
167 167 167
91 91 91
86 86 86
86 86 86
86 86 86
86 86 86
86 86 86
87 87 87
87 87 87
87 87 87
87 87 87
86 86 86
87 87 87
87 87 87
87 87 87
87 87 87
86 86 86
87 87 87
86 86 86
87 87 87
87 87 87
87 87 87
87 87 87
87 87 87
88 88 88
87 87 87
87 87 87
88 88 88
88 88 88
89 89 89
167 167 167
189 189 189
77 77 77
33 33 33
32 32 32
16 16 16
19 19 19
0 0 0
0 0 0
1 1 1
1 1 1
1 1 1
2 2 2
2 2 2
2 2 2
2 2 2
1 1 1
22 22 22
24 24 24
110 110 110
152 152 152
88 88 88
86 86 86
86 86 86
87 87 87
86 86 86
86 86 86
87 87 87
87 87 87
86 86 86
87 87 87
86 86 86
87 87 87
87 87 87
87 87 87
86 86 86
87 87 87
87 87 87
87 87 87
87 87 87
87 87 87
86 86 86
87 87 87
87 87 87
88 88 88
87 87 87
88 88 88
88 88 88
88 88 88
93 93 93
171 171 171
192 192 192
88 88 88
50 50 50
23 23 23
16 16 16
21 21 21
0 0 0
0 0 0
2 2 2
2 2 2
1 1 1
2 2 2
2 2 2
1 1 1
1 1 1
2 2 2
20 20 20
42 42 42
139 139 139
84 84 84
89 89 89
86 86 86
86 86 86
86 86 86
87 87 87
86 86 86
87 87 87
87 87 87
87 87 87
86 86 86
87 87 87
87 87 87
87 87 87
87 87 87
87 87 87
87 87 87
87 87 87
87 87 87
87 87 87
87 87 87
87 87 87
87 87 87
87 87 87
87 87 87
87 87 87
88 88 88
89 89 89
90 90 90
94 94 94
175 175 175
185 185 185
89 89 89
55 55 55
20 20 20
13 13 13
16 16 16
0 0 0
0 0 0
2 2 2
2 2 2
2 2 2
2 2 2
2 2 2
1 1 1
1 1 1
2 2 2
11 11 11
69 69 69
165 165 165
138 138 138
113 113 113
86 86 86
85 85 85
86 86 86
86 86 86
87 87 87
86 86 86
86 86 86
87 87 87
87 87 87
87 87 87
87 87 87
87 87 87
86 86 86
87 87 87
87 87 87
86 86 86
87 87 87
87 87 87
87 87 87
87 87 87
86 86 86
87 87 87
87 87 87
87 87 87
87 87 87
88 88 88
88 88 88
91 91 91
169 169 169
192 192 192
87 87 87
38 38 38
17 17 17
16 16 16
15 15 15
0 0 0
0 0 0
2 2 2
2 2 2
1 1 1
2 2 2
2 2 2
1 1 1
2 2 2
1 1 1
9 9 9
73 73 73
144 144 144
70 70 70
89 89 89
86 86 86
85 85 85
87 87 87
87 87 87
86 86 86
86 86 86
87 87 87
86 86 86
87 87 87
87 87 87
87 87 87
87 87 87
87 87 87
87 87 87
86 86 86
87 87 87
87 87 87
87 87 87
87 87 87
87 87 87
87 87 87
87 87 87
87 87 87
88 88 88
87 87 87
88 88 88
88 88 88
88 88 88
146 146 146
190 190 190
87 87 87
37 37 37
18 18 18
18 18 18
15 15 15
0 0 0
0 0 0
1 1 1
1 1 1
1 1 1
1 1 1
2 2 2
2 2 2
2 2 2
1 1 1
7 7 7
59 59 59
139 139 139
153 153 153
92 92 92
86 86 86
86 86 86
87 87 87
87 87 87
87 87 87
87 87 87
87 87 87
87 87 87
87 87 87
87 87 87
86 86 86
87 87 87
87 87 87
87 87 87
86 86 86
87 87 87
87 87 87
87 87 87
87 87 87
88 88 88
87 87 87
88 88 88
88 88 88
88 88 88
88 88 88
88 88 88
88 88 88
87 87 87
155 155 155
185 185 185
80 80 80
34 34 34
20 20 20
19 19 19
16 16 16
0 0 0
0 0 0
1 1 1
0 0 0
1 1 1
2 2 2
1 1 1
1 1 1
2 2 2
2 2 2
2 2 2
53 53 53
109 109 109
157 157 157
86 86 86
87 87 87
86 86 86
87 87 87
87 87 87
87 87 87
87 87 87
86 86 86
87 87 87
86 86 86
87 87 87
87 87 87
87 87 87
87 87 87
87 87 87
87 87 87
87 87 87
87 87 87
87 87 87
87 87 87
87 87 87
87 87 87
88 88 88
87 87 87
88 88 88
88 88 88
88 88 88
87 87 87
88 88 88
169 169 169
183 183 183
70 70 70
40 40 40
21 21 21
20 20 20
15 15 15
0 0 0
0 0 0
1 1 1
1 1 1
0 0 0
1 1 1
2 2 2
2 2 2
1 1 1
2 2 2
1 1 1
43 43 43
84 84 84
171 171 171
86 86 86
86 86 86
87 87 87
87 87 87
87 87 87
87 87 87
87 87 87
87 87 87
86 86 86
87 87 87
87 87 87
87 87 87
87 87 87
87 87 87
87 87 87
87 87 87
87 87 87
87 87 87
87 87 87
87 87 87
87 87 87
87 87 87
87 87 87
87 87 87
88 88 88
88 88 88
88 88 88
87 87 87
98 98 98
168 168 168
170 170 170
60 60 60
42 42 42
20 20 20
21 21 21
13 13 13
0 0 0
0 0 0
1 1 1
1 1 1
1 1 1
1 1 1
0 0 0
1 1 1
1 1 1
2 2 2
1 1 1
36 36 36
49 49 49
158 158 158
154 154 154
86 86 86
86 86 86
87 87 87
87 87 87
87 87 87
87 87 87
87 87 87
87 87 87
87 87 87
87 87 87
87 87 87
87 87 87
86 86 86
86 86 86
87 87 87
87 87 87
87 87 87
87 87 87
87 87 87
88 88 88
87 87 87
87 87 87
88 88 88
87 87 87
89 89 89
88 88 88
86 86 86
172 172 172
166 166 166
125 125 125
48 48 48
43 43 43
21 21 21
20 20 20
13 13 13
0 0 0
0 0 0
1 1 1
1 1 1
0 0 0
0 0 0
0 0 0
0 0 0
0 0 0
1 1 1
1 1 1
26 26 26
10 10 10
85 85 85
167 167 167
100 100 100
87 87 87
87 87 87
87 87 87
87 87 87
87 87 87
86 86 86
87 87 87
87 87 87
87 87 87
87 87 87
87 87 87
87 87 87
87 87 87
86 86 86
86 86 86
87 87 87
88 88 88
87 87 87
87 87 87
88 88 88
87 87 87
88 88 88
87 87 87
87 87 87
86 86 86
121 121 121
163 163 163
175 175 175
83 83 83
44 44 44
41 41 41
18 18 18
19 19 19
15 15 15
0 0 0
0 0 0
1 1 1
1 1 1
1 1 1
0 0 0
0 0 0
0 0 0
0 0 0
0 0 0
2 2 2
7 7 7
7 7 7
44 44 44
149 149 149
133 133 133
87 87 87
87 87 87
87 87 87
87 87 87
87 87 87
86 86 86
87 87 87
87 87 87
87 87 87
87 87 87
88 88 88
87 87 87
87 87 87
86 86 86
86 86 86
87 87 87
87 87 87
88 88 88
88 88 88
88 88 88
88 88 88
87 87 87
88 88 88
87 87 87
88 88 88
175 175 175
162 162 162
161 161 161
68 68 68
40 40 40
44 44 44
15 15 15
19 19 19
15 15 15
0 0 0
0 0 0
1 1 1
1 1 1
1 1 1
1 1 1
0 0 0
0 0 0
0 0 0
0 0 0
2 2 2
2 2 2
12 12 12
4 4 4
75 75 75
202 202 202
172 172 172
87 87 87
87 87 87
87 87 87
87 87 87
86 86 86
86 86 86
87 87 87
87 87 87
87 87 87
87 87 87
87 87 87
87 87 87
86 86 86
87 87 87
87 87 87
87 87 87
87 87 87
87 87 87
87 87 87
88 88 88
87 87 87
87 87 87
86 86 86
142 142 142
166 166 166
180 180 180
85 85 85
41 41 41
34 34 34
55 55 55
17 17 17
16 16 16
14 14 14
0 0 0
0 0 0
1 1 1
1 1 1
1 1 1
0 0 0
1 1 1
2 2 2
2 2 2
3 3 3
2 2 2
3 3 3
13 13 13
6 6 6
6 6 6
90 90 90
181 181 181
161 161 161
131 131 131
91 91 91
87 87 87
86 86 86
86 86 86
87 87 87
88 88 88
87 87 87
87 87 87
87 87 87
86 86 86
86 86 86
87 87 87
87 87 87
88 88 88
87 87 87
87 87 87
87 87 87
88 88 88
87 87 87
87 87 87
129 129 129
165 165 165
172 172 172
104 104 104
61 61 61
29 29 29
26 26 26
39 39 39
16 16 16
13 13 13
14 14 14
0 0 0
0 0 0
1 1 1
1 1 1
1 1 1
1 1 1
2 2 2
3 3 3
3 3 3
3 3 3
3 3 3
2 2 2
6 6 6
10 10 10
7 7 7
4 4 4
66 66 66
144 144 144
174 174 174
163 163 163
145 145 145
105 105 105
86 86 86
87 87 87
87 87 87
88 88 88
88 88 88
87 87 87
86 86 86
87 87 87
87 87 87
87 87 87
87 87 87
87 87 87
87 87 87
88 88 88
88 88 88
87 87 87
133 133 133
165 165 165
172 172 172
96 96 96
72 72 72
26 26 26
24 24 24
18 18 18
16 16 16
21 21 21
12 12 12
14 14 14
0 0 0
0 0 0
1 1 1
1 1 1
1 1 1
2 2 2
3 3 3
3 3 3
3 3 3
4 4 4
4 4 4
5 5 5
5 5 5
13 13 13
8 8 8
4 4 4
0 0 0
6 6 6
70 70 70
112 112 112
174 174 174
159 159 159
134 134 134
100 100 100
86 86 86
95 95 95
101 101 101
97 97 97
88 88 88
87 87 87
88 88 88
87 87 87
87 87 87
88 88 88
87 87 87
87 87 87
90 90 90
159 159 159
170 170 170
179 179 179
107 107 107
61 61 61
18 18 18
15 15 15
24 24 24
27 27 27
10 10 10
29 29 29
13 13 13
19 19 19
0 0 0
0 0 0
2 2 2
2 2 2
1 1 1
2 2 2
2 2 2
1 1 1
2 2 2
1 1 1
2 2 2
2 2 2
2 2 2
2 2 2
14 14 14
6 6 6
3 3 3
1 1 1
0 0 0
1 1 1
39 39 39
92 92 92
137 137 137
170 170 170
163 163 163
162 162 162
164 164 164
171 171 171
156 156 156
149 149 149
141 141 141
128 128 128
123 123 123
116 116 116
129 129 129
166 166 166
164 164 164
173 173 173
173 173 173
85 85 85
50 50 50
5 5 5
12 12 12
28 28 28
18 18 18
25 25 25
8 8 8
43 43 43
14 14 14
27 27 27
0 0 0
0 0 0
2 2 2
1 1 1
2 2 2
1 1 1
1 1 1
1 1 1
2 2 2
2 2 2
2 2 2
2 2 2
2 2 2
3 3 3
3 3 3
19 19 19
5 5 5
4 4 4
3 3 3
2 2 2
1 1 1
0 0 0
7 7 7
35 35 35
74 74 74
92 92 92
121 121 121
163 163 163
175 175 175
180 180 180
184 184 184
178 178 178
181 181 181
174 174 174
171 171 171
187 187 187
155 155 155
86 86 86
60 60 60
15 15 15
33 33 33
31 31 31
8 8 8
28 28 28
21 21 21
42 42 42
9 9 9
61 61 61
13 13 13
2 2 2
0 0 0
0 0 0
2 2 2
1 1 1
1 1 1
1 1 1
2 2 2
1 1 1
2 2 2
1 1 1
2 2 2
2 2 2
2 2 2
2 2 2
3 3 3
9 9 9
14 14 14
5 5 5
3 3 3
4 4 4
5 5 5
5 5 5
4 4 4
4 4 4
6 6 6
7 7 7
7 7 7
10 10 10
32 32 32
59 59 59
78 78 78
87 87 87
91 91 91
84 84 84
77 77 77
55 55 55
15 15 15
9 9 9
14 14 14
17 17 17
11 11 11
24 24 24
24 24 24
28 28 28
30 30 30
43 43 43
9 9 9
78 78 78
22 22 22
2 2 2
0 0 0
0 0 0
2 2 2
2 2 2
1 1 1
2 2 2
1 1 1
1 1 1
2 2 2
2 2 2
2 2 2
2 2 2
2 2 2
1 1 1
2 2 2
2 2 2
17 17 17
21 21 21
5 5 5
4 4 4
4 4 4
4 4 4
5 5 5
5 5 5
4 4 4
5 5 5
3 3 3
4 4 4
3 3 3
5 5 5
9 9 9
3 3 3
3 3 3
3 3 3
3 3 3
3 3 3
4 4 4
14 14 14
23 23 23
34 34 34
28 28 28
13 13 13
22 22 22
23 23 23
28 28 28
22 22 22
11 11 11
76 76 76
8 8 8
2 2 2
0 0 0
0 0 0
2 2 2
2 2 2
2 2 2
1 1 1
1 1 1
1 1 1
1 1 1
1 1 1
2 2 2
1 1 1
2 2 2
1 1 1
2 2 2
2 2 2
2 2 2
20 20 20
20 20 20
4 4 4
4 4 4
4 4 4
4 4 4
4 4 4
4 4 4
4 4 4
4 4 4
4 4 4
4 4 4
4 4 4
3 3 3
2 2 2
4 4 4
4 4 4
5 5 5
4 4 4
5 5 5
6 6 6
18 18 18
23 23 23
28 28 28
20 20 20
12 12 12
12 12 12
27 27 27
11 11 11
14 14 14
60 60 60
2 2 2
2 2 2
0 0 0
0 0 0
2 2 2
2 2 2
2 2 2
1 1 1
1 1 1
2 2 2
2 2 2
1 1 1
1 1 1
2 2 2
2 2 2
1 1 1
1 1 1
2 2 2
3 3 3
2 2 2
18 18 18
22 22 22
4 4 4
4 4 4
5 5 5
4 4 4
5 5 5
5 5 5
4 4 4
4 4 4
5 5 5
4 4 4
3 3 3
4 4 4
4 4 4
4 4 4
4 4 4
5 5 5
7 7 7
7 7 7
7 7 7
21 21 21
28 28 28
32 32 32
19 19 19
14 14 14
32 32 32
10 10 10
17 17 17
10 10 10
2 2 2
2 2 2
0 0 0
0 0 0
2 2 2
2 2 2
2 2 2
1 1 1
1 1 1
1 1 1
1 1 1
1 1 1
1 1 1
2 2 2
2 2 2
2 2 2
1 1 1
2 2 2
2 2 2
3 3 3
2 2 2
14 14 14
23 23 23
4 4 4
4 4 4
4 4 4
4 4 4
5 5 5
4 4 4
4 4 4
5 5 5
5 5 5
5 5 5
6 6 6
5 5 5
5 5 5
5 5 5
5 5 5
8 8 8
7 7 7
7 7 7
25 25 25
24 24 24
28 28 28
16 16 16
18 18 18
43 43 43
12 12 12
37 37 37
2 2 2
2 2 2
2 2 2
0 0 0
0 0 0
2 2 2
2 2 2
2 2 2
2 2 2
1 1 1
1 1 1
1 1 1
1 1 1
1 1 1
2 2 2
2 2 2
1 1 1
2 2 2
1 1 1
2 2 2
2 2 2
3 3 3
2 2 2
12 12 12
14 14 14
4 4 4
4 4 4
4 4 4
4 4 4
5 5 5
4 4 4
4 4 4
5 5 5
5 5 5
5 5 5
5 5 5
5 5 5
5 5 5
5 5 5
6 6 6
6 6 6
6 6 6
17 17 17
21 21 21
25 25 25
20 20 20
22 22 22
45 45 45
17 17 17
2 2 2
2 2 2
2 2 2
2 2 2
0 0 0
0 0 0
2 2 2
2 2 2
2 2 2
2 2 2
2 2 2
2 2 2
1 1 1
1 1 1
2 2 2
1 1 1
1 1 1
1 1 1
1 1 1
2 2 2
2 2 2
2 2 2
2 2 2
2 2 2
2 2 2
9 9 9
25 25 25
4 4 4
4 4 4
4 4 4
4 4 4
4 4 4
4 4 4
4 4 4
4 4 4
4 4 4
4 4 4
5 5 5
4 4 4
5 5 5
6 6 6
5 5 5
6 6 6
12 12 12
22 22 22
30 30 30
28 28 28
25 25 25
18 18 18
5 5 5
2 2 2
2 2 2
2 2 2
2 2 2
0 0 0
0 0 0
2 2 2
2 2 2
2 2 2
2 2 2
2 2 2
2 2 2
1 1 1
1 1 1
1 1 1
2 2 2
2 2 2
1 1 1
2 2 2
1 1 1
2 2 2
1 1 1
2 2 2
2 2 2
2 2 2
2 2 2
6 6 6
21 21 21
3 3 3
4 4 4
4 4 4
4 4 4
4 4 4
4 4 4
4 4 4
5 5 5
4 4 4
9 9 9
4 4 4
8 8 8
10 10 10
6 6 6
16 16 16
24 24 24
29 29 29
32 32 32
28 28 28
55 55 55
11 11 11
2 2 2
2 2 2
2 2 2
2 2 2
2 2 2
0 0 0
0 0 0
2 2 2
2 2 2
2 2 2
2 2 2
2 2 2
2 2 2
2 2 2
2 2 2
1 1 1
2 2 2
2 2 2
1 1 1
1 1 1
1 1 1
1 1 1
2 2 2
2 2 2
2 2 2
1 1 1
1 1 1
2 2 2
5 5 5
16 16 16
3 3 3
2 2 2
2 2 2
4 4 4
8 8 8
9 9 9
9 9 9
12 12 12
7 7 7
6 6 6
11 11 11
24 24 24
23 23 23
21 21 21
31 31 31
26 26 26
30 30 30
29 29 29
40 40 40
2 2 2
2 2 2
2 2 2
2 2 2
2 2 2
2 2 2
0 0 0
0 0 0
2 2 2
2 2 2
2 2 2
2 2 2
2 2 2
2 2 2
2 2 2
2 2 2
1 1 1
1 1 1
1 1 1
1 1 1
2 2 2
1 1 1
1 1 1
1 1 1
2 2 2
1 1 1
2 2 2
2 2 2
2 2 2
2 2 2
3 3 3
10 10 10
4 4 4
2 2 2
6 6 6
9 9 9
11 11 11
7 7 7
16 16 16
16 16 16
22 22 22
31 31 31
26 26 26
30 30 30
33 33 33
31 31 31
23 23 23
35 35 35
16 16 16
2 2 2
2 2 2
2 2 2
2 2 2
2 2 2
2 2 2
2 2 2
0 0 0
0 0 0
2 2 2
2 2 2
2 2 2
2 2 2
2 2 2
2 2 2
2 2 2
2 2 2
2 2 2
1 1 1
2 2 2
1 1 1
2 2 2
1 1 1
1 1 1
1 1 1
1 1 1
2 2 2
2 2 2
2 2 2
2 2 2
2 2 2
2 2 2
3 3 3
10 10 10
4 4 4
3 3 3
8 8 8
4 4 4
11 11 11
9 9 9
18 18 18
26 26 26
25 25 25
31 31 31
26 26 26
17 17 17
13 13 13
28 28 28
6 6 6
2 2 2
2 2 2
2 2 2
2 2 2
2 2 2
2 2 2
2 2 2
2 2 2
0 0 0
0 0 0
2 2 2
2 2 2
2 2 2
2 2 2
2 2 2
2 2 2
2 2 2
2 2 2
2 2 2
2 2 2
1 1 1
1 1 1
1 1 1
1 1 1
1 1 1
1 1 1
1 1 1
1 1 1
2 2 2
1 1 1
2 2 2
2 2 2
2 2 2
2 2 2
3 3 3
4 4 4
15 15 15
3 3 3
9 9 9
9 9 9
9 9 9
12 12 12
14 14 14
15 15 15
13 13 13
8 8 8
15 15 15
28 28 28
2 2 2
2 2 2
2 2 2
2 2 2
2 2 2
2 2 2
2 2 2
2 2 2
2 2 2
2 2 2
0 0 0
0 0 0
2 2 2
2 2 2
2 2 2
2 2 2
2 2 2
2 2 2
2 2 2
2 2 2
2 2 2
2 2 2
2 2 2
2 2 2
1 1 1
1 1 1
1 1 1
1 1 1
1 1 1
1 1 1
1 1 1
1 1 1
1 1 1
2 2 2
2 2 2
2 2 2
2 2 2
2 2 2
3 3 3
12 12 12
8 8 8
12 12 12
18 18 18
24 24 24
24 24 24
29 29 29
21 21 21
14 14 14
4 4 4
2 2 2
2 2 2
2 2 2
2 2 2
2 2 2
2 2 2
2 2 2
2 2 2
2 2 2
2 2 2
2 2 2
0 0 0
0 0 0
2 2 2
2 2 2
2 2 2
2 2 2
2 2 2
2 2 2
2 2 2
2 2 2
2 2 2
2 2 2
2 2 2
2 2 2
2 2 2
2 2 2
1 1 1
1 1 1
1 1 1
1 1 1
1 1 1
2 2 2
2 2 2
2 2 2
2 2 2
2 2 2
3 3 3
3 3 3
3 3 3
4 4 4
14 14 14
4 4 4
14 14 14
23 23 23
27 27 27
42 42 42
4 4 4
2 2 2
2 2 2
2 2 2
2 2 2
2 2 2
2 2 2
2 2 2
2 2 2
2 2 2
2 2 2
2 2 2
2 2 2
2 2 2
0 0 0
0 0 0
2 2 2
2 2 2
2 2 2
2 2 2
2 2 2
2 2 2
2 2 2
2 2 2
2 2 2
2 2 2
2 2 2
2 2 2
2 2 2
2 2 2
2 2 2
2 2 2
1 1 1
1 1 1
1 1 1
1 1 1
2 2 2
1 1 1
2 2 2
2 2 2
2 2 2
3 3 3
4 4 4
4 4 4
4 4 4
14 14 14
10 10 10
18 18 18
2 2 2
2 2 2
2 2 2
2 2 2
2 2 2
2 2 2
2 2 2
2 2 2
2 2 2
2 2 2
2 2 2
2 2 2
2 2 2
2 2 2
2 2 2
2 2 2
0 0 0
0 0 0
0 0 0
0 0 0
0 0 0
0 0 0
0 0 0
0 0 0
0 0 0
0 0 0
0 0 0
0 0 0
0 0 0
0 0 0
0 0 0
0 0 0
0 0 0
0 0 0
0 0 0
0 0 0
0 0 0
0 0 0
0 0 0
0 0 0
0 0 0
0 0 0
0 0 0
0 0 0
0 0 0
0 0 0
0 0 0
0 0 0
0 0 0
0 0 0
0 0 0
0 0 0
0 0 0
0 0 0
0 0 0
0 0 0
0 0 0
0 0 0
0 0 0
0 0 0
0 0 0
0 0 0
0 0 0
0 0 0
0 0 0
0 0 0
0 0 0
