P3 
50 50 
255
0 0 0
0 0 0
0 0 0
0 0 0
0 0 0
0 0 0
0 0 0
0 0 0
0 0 0
0 0 0
0 0 0
0 0 0
0 0 0
0 0 0
0 0 0
0 0 0
0 0 0
0 0 0
0 0 0
0 0 0
0 0 0
0 0 0
0 0 0
0 0 0
0 0 0
0 0 0
0 0 0
0 0 0
0 0 0
0 0 0
0 0 0
0 0 0
0 0 0
0 0 0
0 0 0
0 0 0
0 0 0
0 0 0
0 0 0
0 0 0
0 0 0
0 0 0
0 0 0
0 0 0
0 0 0
0 0 0
0 0 0
0 0 0
0 0 0
0 0 0
0 0 0
2 2 2
2 2 2
2 2 2
2 2 2
2 2 2
2 2 2
2 2 2
2 2 2
2 2 2
2 2 2
2 2 2
2 2 2
2 2 2
2 2 2
2 2 2
2 2 2
1 1 1
1 1 1
1 1 1
3 3 3
2 2 2
3 3 3
3 3 3
4 4 4
4 4 4
4 4 4
5 5 5
5 5 5
5 5 5
7 7 7
11 11 11
3 3 3
2 2 2
2 2 2
2 2 2
2 2 2
2 2 2
2 2 2
2 2 2
2 2 2
2 2 2
2 2 2
2 2 2
2 2 2
2 2 2
2 2 2
2 2 2
2 2 2
0 0 0
0 0 0
2 2 2
2 2 2
2 2 2
2 2 2
2 2 2
2 2 2
2 2 2
2 2 2
2 2 2
2 2 2
2 2 2
2 2 2
2 2 2
2 2 2
1 1 1
2 2 2
2 2 2
3 3 3
3 3 3
4 4 4
3 3 3
4 4 4
3 3 3
3 3 3
5 5 5
10 10 10
12 12 12
7 7 7
20 20 20
18 18 18
19 19 19
14 14 14
16 16 16
18 18 18
2 2 2
2 2 2
2 2 2
2 2 2
2 2 2
2 2 2
2 2 2
2 2 2
2 2 2
2 2 2
2 2 2
2 2 2
2 2 2
2 2 2
0 0 0
0 0 0
2 2 2
2 2 2
2 2 2
2 2 2
2 2 2
2 2 2
2 2 2
2 2 2
2 2 2
2 2 2
2 2 2
2 2 2
1 1 1
1 1 1
2 2 2
2 2 2
3 3 3
3 3 3
3 3 3
3 3 3
3 3 3
4 4 4
4 4 4
5 5 5
6 6 6
13 13 13
22 22 22
28 28 28
12 12 12
14 14 14
13 13 13
8 8 8
11 11 11
7 7 7
13 13 13
16 16 16
2 2 2
2 2 2
2 2 2
2 2 2
2 2 2
2 2 2
2 2 2
2 2 2
2 2 2
2 2 2
2 2 2
2 2 2
0 0 0
0 0 0
2 2 2
2 2 2
2 2 2
2 2 2
2 2 2
2 2 2
2 2 2
2 2 2
2 2 2
2 2 2
1 1 1
2 2 2
3 3 3
2 2 2
3 3 3
3 3 3
3 3 3
4 4 4
2 2 2
1 1 1
2 2 2
2 2 2
3 3 3
9 9 9
20 20 20
34 34 34
88 88 88
51 51 51
44 44 44
50 50 50
75 75 75
16 16 16
11 11 11
10 10 10
7 7 7
13 13 13
11 11 11
8 8 8
2 2 2
2 2 2
2 2 2
2 2 2
2 2 2
2 2 2
2 2 2
2 2 2
2 2 2
2 2 2
0 0 0
0 0 0
2 2 2
2 2 2
2 2 2
2 2 2
2 2 2
2 2 2
2 2 2
2 2 2
2 2 2
2 2 2
2 2 2
3 3 3
3 3 3
3 3 3
3 3 3
3 3 3
3 3 3
4 4 4
2 2 2
6 6 6
7 7 7
8 8 8
12 12 12
30 30 30
76 76 76
83 83 83
84 84 84
80 80 80
82 82 82
72 72 72
60 60 60
74 74 74
59 59 59
26 26 26
13 13 13
15 15 15
13 13 13
19 19 19
16 16 16
2 2 2
2 2 2
2 2 2
2 2 2
2 2 2
2 2 2
2 2 2
2 2 2
2 2 2
0 0 0
0 0 0
2 2 2
2 2 2
2 2 2
2 2 2
2 2 2
2 2 2
2 2 2
2 2 2
2 2 2
3 3 3
2 2 2
3 3 3
4 4 4
3 3 3
4 4 4
4 4 4
4 4 4
4 4 4
1 1 1
6 6 6
10 10 10
20 20 20
72 72 72
87 87 87
87 87 87
91 91 91
123 123 123
180 180 180
211 211 211
204 204 204
193 193 193
179 179 179
138 138 138
100 100 100
87 87 87
71 71 71
19 19 19
11 11 11
14 14 14
12 12 12
4 4 4
2 2 2
2 2 2
2 2 2
2 2 2
2 2 2
2 2 2
2 2 2
0 0 0
0 0 0
2 2 2
2 2 2
2 2 2
2 2 2
2 2 2
2 2 2
2 2 2
2 2 2
2 2 2
2 2 2
3 3 3
4 4 4
3 3 3
3 3 3
3 3 3
3 3 3
3 3 3
7 7 7
76 76 76
83 83 83
85 85 85
88 88 88
88 88 88
118 118 118
141 141 141
97 97 97
96 96 96
89 89 89
89 89 89
88 88 88
91 91 91
107 107 107
141 141 141
171 171 171
185 185 185
185 185 185
104 104 104
85 85 85
36 36 36
12 12 12
11 11 11
10 10 10
2 2 2
2 2 2
2 2 2
2 2 2
2 2 2
2 2 2
0 0 0
0 0 0
2 2 2
2 2 2
2 2 2
2 2 2
2 2 2
2 2 2
1 1 1
2 2 2
1 1 1
3 3 3
4 4 4
4 4 4
4 4 4
23 23 23
8 8 8
16 16 16
65 65 65
79 79 79
81 81 81
85 85 85
89 89 89
121 121 121
117 117 117
87 87 87
86 86 86
86 86 86
86 86 86
86 86 86
86 86 86
87 87 87
87 87 87
87 87 87
87 87 87
87 87 87
95 95 95
162 162 162
176 176 176
190 190 190
94 94 94
75 75 75
14 14 14
22 22 22
5 5 5
2 2 2
2 2 2
2 2 2
2 2 2
2 2 2
0 0 0
0 0 0
2 2 2
2 2 2
2 2 2
2 2 2
2 2 2
2 2 2
2 2 2
2 2 2
2 2 2
3 3 3
3 3 3
25 25 25
82 82 82
80 80 80
82 82 82
83 83 83
80 80 80
82 82 82
86 86 86
107 107 107
145 145 145
112 112 112
84 84 84
85 85 85
86 86 86
86 86 86
86 86 86
86 86 86
86 86 86
87 87 87
87 87 87
87 87 87
87 87 87
87 87 87
88 88 88
87 87 87
109 109 109
171 171 171
183 183 183
109 109 109
65 65 65
16 16 16
52 52 52
2 2 2
2 2 2
2 2 2
2 2 2
2 2 2
0 0 0
0 0 0
2 2 2
2 2 2
2 2 2
2 2 2
1 1 1
2 2 2
2 2 2
3 3 3
3 3 3
2 2 2
61 61 61
81 81 81
84 84 84
140 140 140
77 77 77
81 81 81
87 87 87
85 85 85
145 145 145
89 89 89
85 85 85
85 85 85
86 86 86
86 86 86
86 86 86
86 86 86
87 87 87
87 87 87
87 87 87
86 86 86
87 87 87
87 87 87
86 86 86
88 88 88
87 87 87
88 88 88
87 87 87
88 88 88
127 127 127
184 184 184
132 132 132
64 64 64
33 33 33
20 20 20
2 2 2
2 2 2
2 2 2
2 2 2
0 0 0
0 0 0
2 2 2
2 2 2
2 2 2
2 2 2
2 2 2
2 2 2
1 1 1
1 1 1
0 0 0
72 72 72
78 78 78
172 172 172
189 189 189
87 87 87
84 84 84
86 86 86
86 86 86
136 136 136
90 90 90
85 85 85
85 85 85
85 85 85
86 86 86
86 86 86
87 87 87
86 86 86
87 87 87
87 87 87
87 87 87
86 86 86
87 87 87
87 87 87
87 87 87
87 87 87
87 87 87
88 88 88
88 88 88
88 88 88
88 88 88
147 147 147
176 176 176
148 148 148
49 49 49
44 44 44
22 22 22
2 2 2
2 2 2
2 2 2
0 0 0
0 0 0
2 2 2
2 2 2
2 2 2
3 3 3
3 3 3
0 0 0
1 1 1
1 1 1
12 12 12
84 84 84
104 104 104
167 167 167
140 140 140
90 90 90
84 84 84
86 86 86
104 104 104
128 128 128
84 84 84
85 85 85
86 86 86
85 85 85
86 86 86
86 86 86
86 86 86
86 86 86
87 87 87
87 87 87
86 86 86
86 86 86
86 86 86
87 87 87
87 87 87
86 86 86
87 87 87
88 88 88
87 87 87
88 88 88
87 87 87
88 88 88
163 163 163
183 183 183
106 106 106
50 50 50
19 19 19
7 7 7
2 2 2
2 2 2
0 0 0
0 0 0
2 2 2
2 2 2
2 2 2
2 2 2
2 2 2
2 2 2
2 2 2
1 1 1
48 48 48
81 81 81
77 77 77
77 77 77
82 82 82
155 155 155
79 79 79
84 84 84
108 108 108
94 94 94
85 85 85
85 85 85
85 85 85
87 87 87
86 86 86
86 86 86
86 86 86
86 86 86
87 87 87
86 86 86
87 87 87
87 87 87
86 86 86
86 86 86
86 86 86
86 86 86
87 87 87
87 87 87
88 88 88
87 87 87
88 88 88
88 88 88
90 90 90
177 177 177
199 199 199
75 75 75
21 21 21
91 91 91
2 2 2
2 2 2
0 0 0
0 0 0
2 2 2
2 2 2
2 2 2
3 3 3
2 2 2
2 2 2
2 2 2
1 1 1
81 81 81
79 79 79
79 79 79
80 80 80
80 80 80
78 78 78
104 104 104
93 93 93
102 102 102
99 99 99
85 85 85
85 85 85
86 86 86
86 86 86
86 86 86
86 86 86
86 86 86
86 86 86
86 86 86
87 87 87
86 86 86
87 87 87
86 86 86
86 86 86
86 86 86
86 86 86
87 87 87
87 87 87
87 87 87
88 88 88
88 88 88
88 88 88
88 88 88
128 128 128
171 171 171
123 123 123
46 46 46
82 82 82
5 5 5
2 2 2
0 0 0
0 0 0
2 2 2
2 2 2
2 2 2
3 3 3
2 2 2
3 3 3
2 2 2
1 1 1
87 87 87
80 80 80
86 86 86
84 84 84
83 83 83
81 81 81
70 70 70
106 106 106
113 113 113
107 107 107
87 87 87
86 86 86
86 86 86
86 86 86
86 86 86
86 86 86
86 86 86
87 87 87
86 86 86
87 87 87
86 86 86
86 86 86
86 86 86
86 86 86
86 86 86
87 87 87
87 87 87
88 88 88
88 88 88
87 87 87
88 88 88
88 88 88
88 88 88
86 86 86
166 166 166
196 196 196
60 60 60
63 63 63
26 26 26
2 2 2
0 0 0
0 0 0
2 2 2
2 2 2
3 3 3
3 3 3
2 2 2
3 3 3
2 2 2
2 2 2
87 87 87
88 88 88
80 80 80
80 80 80
83 83 83
60 60 60
12 12 12
61 61 61
100 100 100
126 126 126
106 106 106
85 85 85
85 85 85
85 85 85
86 86 86
86 86 86
86 86 86
86 86 86
86 86 86
86 86 86
86 86 86
87 87 87
87 87 87
87 87 87
87 87 87
86 86 86
87 87 87
87 87 87
88 88 88
88 88 88
87 87 87
88 88 88
88 88 88
87 87 87
136 136 136
176 176 176
72 72 72
43 43 43
17 17 17
3 3 3
0 0 0
0 0 0
1 1 1
3 3 3
3 3 3
2 2 2
2 2 2
3 3 3
1 1 1
26 26 26
90 90 90
109 109 109
83 83 83
90 90 90
45 45 45
14 14 14
6 6 6
91 91 91
113 113 113
96 96 96
103 103 103
88 88 88
87 87 87
88 88 88
88 88 88
87 87 87
86 86 86
86 86 86
86 86 86
86 86 86
88 88 88
87 87 87
88 88 88
87 87 87
86 86 86
87 87 87
87 87 87
87 87 87
88 88 88
88 88 88
87 87 87
87 87 87
87 87 87
87 87 87
102 102 102
164 164 164
78 78 78
32 32 32
16 16 16
21 21 21
0 0 0
0 0 0
1 1 1
1 1 1
1 1 1
1 1 1
1 1 1
1 1 1
27 27 27
79 79 79
148 148 148
41 41 41
118 118 118
101 101 101
9 9 9
3 3 3
24 24 24
111 111 111
4 4 4
0 0 0
3 3 3
94 94 94
90 90 90
91 91 91
91 91 91
85 85 85
86 86 86
86 86 86
86 86 86
86 86 86
87 87 87
86 86 86
86 86 86
87 87 87
87 87 87
88 88 88
86 86 86
87 87 87
87 87 87
88 88 88
88 88 88
88 88 88
88 88 88
87 87 87
106 106 106
158 158 158
82 82 82
25 25 25
15 15 15
22 22 22
0 0 0
0 0 0
1 1 1
1 1 1
1 1 1
0 0 0
12 12 12
71 71 71
92 92 92
121 121 121
73 73 73
79 79 79
31 31 31
51 51 51
52 52 52
44 44 44
54 54 54
54 54 54
55 55 55
1 1 1
10 10 10
37 37 37
62 62 62
101 101 101
92 92 92
85 85 85
86 86 86
87 87 87
87 87 87
87 87 87
85 85 85
86 86 86
86 86 86
86 86 86
86 86 86
86 86 86
88 88 88
87 87 87
87 87 87
88 88 88
87 87 87
88 88 88
87 87 87
87 87 87
156 156 156
143 143 143
82 82 82
23 23 23
16 16 16
16 16 16
0 0 0
0 0 0
1 1 1
1 1 1
33 33 33
83 83 83
80 80 80
64 64 64
10 10 10
27 27 27
64 64 64
45 45 45
32 32 32
45 45 45
51 51 51
72 72 72
42 42 42
37 37 37
92 92 92
65 65 65
8 8 8
3 3 3
11 11 11
57 57 57
85 85 85
85 85 85
87 87 87
87 87 87
87 87 87
87 87 87
86 86 86
86 86 86
86 86 86
87 87 87
86 86 86
86 86 86
87 87 87
87 87 87
86 86 86
87 87 87
87 87 87
88 88 88
88 88 88
91 91 91
168 168 168
156 156 156
83 83 83
20 20 20
19 19 19
14 14 14
0 0 0
0 0 0
0 0 0
1 1 1
73 73 73
87 87 87
78 78 78
87 87 87
89 89 89
89 89 89
91 91 91
90 90 90
69 69 69
40 40 40
43 43 43
55 55 55
39 39 39
33 33 33
32 32 32
1 1 1
3 3 3
3 3 3
14 14 14
86 86 86
92 92 92
87 87 87
86 86 86
86 86 86
86 86 86
87 87 87
86 86 86
87 87 87
87 87 87
86 86 86
87 87 87
86 86 86
87 87 87
88 88 88
87 87 87
88 88 88
88 88 88
88 88 88
89 89 89
88 88 88
182 182 182
168 168 168
88 88 88
17 17 17
20 20 20
14 14 14
0 0 0
0 0 0
1 1 1
1 1 1
26 26 26
81 81 81
82 82 82
75 75 75
34 34 34
0 0 0
1 1 1
0 0 0
74 74 74
89 89 89
42 42 42
43 43 43
50 50 50
44 44 44
61 61 61
6 6 6
1 1 1
36 36 36
94 94 94
107 107 107
95 95 95
84 84 84
86 86 86
86 86 86
86 86 86
86 86 86
86 86 86
86 86 86
86 86 86
87 87 87
88 88 88
87 87 87
87 87 87
87 87 87
87 87 87
88 88 88
88 88 88
88 88 88
88 88 88
88 88 88
159 159 159
179 179 179
85 85 85
15 15 15
21 21 21
15 15 15
0 0 0
0 0 0
1 1 1
1 1 1
0 0 0
0 0 0
18 18 18
77 77 77
88 88 88
141 141 141
140 140 140
123 123 123
89 89 89
91 91 91
75 75 75
4 4 4
12 12 12
105 105 105
15 15 15
39 39 39
70 70 70
113 113 113
89 89 89
91 91 91
117 117 117
105 105 105
86 86 86
86 86 86
86 86 86
86 86 86
87 87 87
88 88 88
88 88 88
87 87 87
87 87 87
87 87 87
87 87 87
87 87 87
87 87 87
88 88 88
88 88 88
88 88 88
88 88 88
87 87 87
167 167 167
198 198 198
63 63 63
15 15 15
22 22 22
14 14 14
0 0 0
0 0 0
1 1 1
1 1 1
1 1 1
0 0 0
0 0 0
0 0 0
27 27 27
79 79 79
96 96 96
89 89 89
74 74 74
59 59 59
79 79 79
5 5 5
1 1 1
20 20 20
112 112 112
95 95 95
103 103 103
87 87 87
87 87 87
85 85 85
87 87 87
105 105 105
89 89 89
87 87 87
88 88 88
87 87 87
87 87 87
86 86 86
87 87 87
87 87 87
87 87 87
87 87 87
88 88 88
87 87 87
88 88 88
87 87 87
87 87 87
88 88 88
87 87 87
89 89 89
170 170 170
185 185 185
37 37 37
15 15 15
22 22 22
13 13 13
0 0 0
0 0 0
1 1 1
1 1 1
1 1 1
2 2 2
1 1 1
0 0 0
0 0 0
1 1 1
64 64 64
136 136 136
85 85 85
77 77 77
94 94 94
53 53 53
6 6 6
2 2 2
94 94 94
125 125 125
86 86 86
87 87 87
87 87 87
86 86 86
86 86 86
98 98 98
117 117 117
87 87 87
86 86 86
86 86 86
86 86 86
87 87 87
86 86 86
87 87 87
87 87 87
88 88 88
88 88 88
88 88 88
87 87 87
87 87 87
88 88 88
88 88 88
87 87 87
154 154 154
186 186 186
91 91 91
28 28 28
16 16 16
22 22 22
12 12 12
0 0 0
0 0 0
1 1 1
1 1 1
1 1 1
1 1 1
1 1 1
1 1 1
1 1 1
1 1 1
14 14 14
107 107 107
83 83 83
86 86 86
86 86 86
91 91 91
44 44 44
96 96 96
106 106 106
130 130 130
86 86 86
87 87 87
87 87 87
87 87 87
87 87 87
88 88 88
105 105 105
89 89 89
87 87 87
87 87 87
87 87 87
86 86 86
87 87 87
87 87 87
87 87 87
87 87 87
88 88 88
88 88 88
87 87 87
87 87 87
88 88 88
87 87 87
90 90 90
181 181 181
175 175 175
54 54 54
34 34 34
13 13 13
21 21 21
15 15 15
0 0 0
0 0 0
1 1 1
1 1 1
1 1 1
1 1 1
2 2 2
2 2 2
2 2 2
2 2 2
2 2 2
95 95 95
76 76 76
82 82 82
80 80 80
80 80 80
88 88 88
102 102 102
103 103 103
116 116 116
86 86 86
86 86 86
86 86 86
87 87 87
87 87 87
87 87 87
96 96 96
100 100 100
87 87 87
87 87 87
86 86 86
87 87 87
87 87 87
87 87 87
87 87 87
87 87 87
88 88 88
87 87 87
87 87 87
88 88 88
87 87 87
88 88 88
162 162 162
192 192 192
82 82 82
31 31 31
41 41 41
13 13 13
19 19 19
15 15 15
0 0 0
0 0 0
1 1 1
1 1 1
1 1 1
1 1 1
1 1 1
1 1 1
1 1 1
2 2 2
1 1 1
79 79 79
80 80 80
77 77 77
80 80 80
93 93 93
80 80 80
85 85 85
89 89 89
98 98 98
122 122 122
86 86 86
86 86 86
86 86 86
87 87 87
87 87 87
102 102 102
156 156 156
89 89 89
87 87 87
87 87 87
87 87 87
87 87 87
87 87 87
87 87 87
87 87 87
88 88 88
87 87 87
88 88 88
87 87 87
87 87 87
123 123 123
186 186 186
98 98 98
54 54 54
22 22 22
35 35 35
14 14 14
17 17 17
14 14 14
0 0 0
0 0 0
1 1 1
0 0 0
0 0 0
0 0 0
0 0 0
0 0 0
1 1 1
1 1 1
2 2 2
48 48 48
104 104 104
113 113 113
141 141 141
106 106 106
85 85 85
86 86 86
85 85 85
115 115 115
149 149 149
91 91 91
86 86 86
85 85 85
87 87 87
86 86 86
91 91 91
93 93 93
87 87 87
87 87 87
87 87 87
87 87 87
88 88 88
87 87 87
87 87 87
87 87 87
87 87 87
87 87 87
87 87 87
87 87 87
132 132 132
190 190 190
103 103 103
70 70 70
26 26 26
25 25 25
39 39 39
16 16 16
14 14 14
14 14 14
0 0 0
0 0 0
1 1 1
0 0 0
1 1 1
2 2 2
0 0 0
1 1 1
1 1 1
0 0 0
0 0 0
2 2 2
74 74 74
176 176 176
147 147 147
78 78 78
83 83 83
87 87 87
87 87 87
85 85 85
126 126 126
140 140 140
109 109 109
85 85 85
86 86 86
87 87 87
87 87 87
87 87 87
85 85 85
87 87 87
87 87 87
87 87 87
87 87 87
87 87 87
87 87 87
87 87 87
87 87 87
87 87 87
97 97 97
179 179 179
205 205 205
87 87 87
65 65 65
27 27 27
36 36 36
41 41 41
33 33 33
21 21 21
13 13 13
15 15 15
0 0 0
0 0 0
1 1 1
3 3 3
3 3 3
2 2 2
2 2 2
1 1 1
1 1 1
1 1 1
1 1 1
0 0 0
16 16 16
76 76 76
100 100 100
185 185 185
114 114 114
76 76 76
77 77 77
84 84 84
86 86 86
135 135 135
144 144 144
112 112 112
86 86 86
86 86 86
86 86 86
87 87 87
86 86 86
86 86 86
87 87 87
88 88 88
87 87 87
87 87 87
87 87 87
87 87 87
90 90 90
159 159 159
192 192 192
187 187 187
86 86 86
52 52 52
17 17 17
29 29 29
32 32 32
34 34 34
14 14 14
28 28 28
12 12 12
18 18 18
0 0 0
0 0 0
2 2 2
2 2 2
2 2 2
3 3 3
2 2 2
2 2 2
1 1 1
1 1 1
0 0 0
0 0 0
1 1 1
6 6 6
69 69 69
81 81 81
80 80 80
80 80 80
80 80 80
81 81 81
80 80 80
81 81 81
87 87 87
132 132 132
121 121 121
90 90 90
87 87 87
87 87 87
87 87 87
86 86 86
87 87 87
87 87 87
87 87 87
87 87 87
89 89 89
119 119 119
186 186 186
195 195 195
105 105 105
83 83 83
33 33 33
24 24 24
16 16 16
25 25 25
22 22 22
33 33 33
9 9 9
42 42 42
13 13 13
28 28 28
0 0 0
0 0 0
2 2 2
3 3 3
3 3 3
3 3 3
2 2 2
2 2 2
1 1 1
1 1 1
2 2 2
1 1 1
2 2 2
1 1 1
0 0 0
5 5 5
37 37 37
63 63 63
79 79 79
79 79 79
79 79 79
81 81 81
83 83 83
85 85 85
90 90 90
130 130 130
161 161 161
140 140 140
97 97 97
99 99 99
133 133 133
110 110 110
127 127 127
169 169 169
191 191 191
183 183 183
99 99 99
73 73 73
26 26 26
8 8 8
17 17 17
5 5 5
25 25 25
15 15 15
12 12 12
49 49 49
8 8 8
59 59 59
13 13 13
2 2 2
0 0 0
0 0 0
2 2 2
3 3 3
3 3 3
3 3 3
2 2 2
3 3 3
2 2 2
2 2 2
2 2 2
2 2 2
3 3 3
2 2 2
2 2 2
1 1 1
1 1 1
1 1 1
1 1 1
1 1 1
2 2 2
2 2 2
4 4 4
12 12 12
39 39 39
83 83 83
90 90 90
90 90 90
111 111 111
151 151 151
179 179 179
226 226 226
197 197 197
111 111 111
85 85 85
52 52 52
21 21 21
14 14 14
6 6 6
14 14 14
24 24 24
19 19 19
27 27 27
12 12 12
17 17 17
40 40 40
9 9 9
77 77 77
22 22 22
2 2 2
0 0 0
0 0 0
2 2 2
2 2 2
2 2 2
3 3 3
2 2 2
3 3 3
3 3 3
3 3 3
3 3 3
4 4 4
4 4 4
4 4 4
3 3 3
2 2 2
2 2 2
3 3 3
3 3 3
3 3 3
3 3 3
3 3 3
3 3 3
2 2 2
2 2 2
4 4 4
1 1 1
5 5 5
34 34 34
7 7 7
11 11 11
27 27 27
22 22 22
30 30 30
16 16 16
6 6 6
2 2 2
3 3 3
4 4 4
17 17 17
26 26 26
23 23 23
18 18 18
27 27 27
18 18 18
11 11 11
11 11 11
78 78 78
8 8 8
2 2 2
0 0 0
0 0 0
2 2 2
2 2 2
2 2 2
2 2 2
3 3 3
3 3 3
3 3 3
3 3 3
3 3 3
4 4 4
3 3 3
4 4 4
3 3 3
4 4 4
3 3 3
3 3 3
4 4 4
4 4 4
4 4 4
3 3 3
2 2 2
2 2 2
3 3 3
3 3 3
1 1 1
2 2 2
5 5 5
41 41 41
62 62 62
30 30 30
8 8 8
4 4 4
4 4 4
3 3 3
4 4 4
3 3 3
4 4 4
12 12 12
24 24 24
16 16 16
13 13 13
26 26 26
31 31 31
8 8 8
13 13 13
64 64 64
2 2 2
2 2 2
0 0 0
0 0 0
2 2 2
2 2 2
2 2 2
3 3 3
3 3 3
3 3 3
3 3 3
3 3 3
3 3 3
3 3 3
3 3 3
3 3 3
3 3 3
3 3 3
4 4 4
3 3 3
3 3 3
3 3 3
4 4 4
4 4 4
2 2 2
2 2 2
2 2 2
1 1 1
3 3 3
2 2 2
2 2 2
4 4 4
3 3 3
3 3 3
3 3 3
4 4 4
3 3 3
3 3 3
5 5 5
4 4 4
5 5 5
12 12 12
18 18 18
30 30 30
17 17 17
28 28 28
50 50 50
9 9 9
15 15 15
10 10 10
2 2 2
2 2 2
0 0 0
0 0 0
2 2 2
2 2 2
2 2 2
1 1 1
1 1 1
2 2 2
3 3 3
3 3 3
3 3 3
3 3 3
3 3 3
3 3 3
3 3 3
3 3 3
3 3 3
3 3 3
3 3 3
3 3 3
3 3 3
3 3 3
2 2 2
1 1 1
2 2 2
3 3 3
4 4 4
3 3 3
3 3 3
4 4 4
4 4 4
4 4 4
4 4 4
4 4 4
5 5 5
5 5 5
4 4 4
5 5 5
6 6 6
12 12 12
8 8 8
20 20 20
18 18 18
28 28 28
27 27 27
14 14 14
36 36 36
2 2 2
2 2 2
2 2 2
0 0 0
0 0 0
2 2 2
2 2 2
2 2 2
2 2 2
1 1 1
1 1 1
1 1 1
1 1 1
1 1 1
3 3 3
3 3 3
3 3 3
3 3 3
3 3 3
3 3 3
3 3 3
3 3 3
4 4 4
3 3 3
3 3 3
4 4 4
2 2 2
2 2 2
3 3 3
4 4 4
4 4 4
4 4 4
5 5 5
4 4 4
4 4 4
4 4 4
4 4 4
4 4 4
5 5 5
5 5 5
5 5 5
12 12 12
15 15 15
13 13 13
10 10 10
21 21 21
22 22 22
13 13 13
16 16 16
2 2 2
2 2 2
2 2 2
2 2 2
0 0 0
0 0 0
2 2 2
2 2 2
2 2 2
2 2 2
2 2 2
1 1 1
1 1 1
1 1 1
1 1 1
1 1 1
1 1 1
1 1 1
2 2 2
3 3 3
3 3 3
2 2 2
3 3 3
3 3 3
3 3 3
4 4 4
4 4 4
4 4 4
4 4 4
4 4 4
4 4 4
4 4 4
4 4 4
5 5 5
4 4 4
5 5 5
5 5 5
5 5 5
4 4 4
4 4 4
4 4 4
3 3 3
3 3 3
13 13 13
19 19 19
5 5 5
20 20 20
54 54 54
13 13 13
5 5 5
2 2 2
2 2 2
2 2 2
2 2 2
0 0 0
0 0 0
2 2 2
2 2 2
2 2 2
2 2 2
2 2 2
2 2 2
0 0 0
1 1 1
1 1 1
2 2 2
1 1 1
1 1 1
1 1 1
1 1 1
2 2 2
3 3 3
3 3 3
3 3 3
3 3 3
3 3 3
3 3 3
3 3 3
4 4 4
4 4 4
3 3 3
4 4 4
4 4 4
4 4 4
4 4 4
4 4 4
4 4 4
4 4 4
4 4 4
8 8 8
4 4 4
10 10 10
11 11 11
22 22 22
21 21 21
27 27 27
21 21 21
28 28 28
10 10 10
2 2 2
2 2 2
2 2 2
2 2 2
2 2 2
0 0 0
0 0 0
2 2 2
2 2 2
2 2 2
2 2 2
2 2 2
2 2 2
2 2 2
1 1 1
1 1 1
1 1 1
1 1 1
1 1 1
1 1 1
1 1 1
1 1 1
2 2 2
2 2 2
2 2 2
2 2 2
3 3 3
3 3 3
3 3 3
4 4 4
3 3 3
4 4 4
4 4 4
4 4 4
4 4 4
4 4 4
4 4 4
4 4 4
9 9 9
5 5 5
7 7 7
11 11 11
18 18 18
16 16 16
22 22 22
22 22 22
32 32 32
36 36 36
17 17 17
2 2 2
2 2 2
2 2 2
2 2 2
2 2 2
2 2 2
0 0 0
0 0 0
2 2 2
2 2 2
2 2 2
2 2 2
2 2 2
2 2 2
2 2 2
2 2 2
0 0 0
1 1 1
1 1 1
1 1 1
1 1 1
1 1 1
1 1 1
2 2 2
1 1 1
1 1 1
2 2 2
1 1 1
2 2 2
3 3 3
3 3 3
3 3 3
4 4 4
3 3 3
4 4 4
4 4 4
4 4 4
3 3 3
11 11 11
11 11 11
9 9 9
8 8 8
7 7 7
18 18 18
14 14 14
20 20 20
33 33 33
30 30 30
19 19 19
2 2 2
2 2 2
2 2 2
2 2 2
2 2 2
2 2 2
2 2 2
0 0 0
0 0 0
2 2 2
2 2 2
2 2 2
2 2 2
2 2 2
2 2 2
2 2 2
2 2 2
2 2 2
1 1 1
1 1 1
1 1 1
1 1 1
1 1 1
1 1 1
1 1 1
1 1 1
1 1 1
1 1 1
2 2 2
1 1 1
2 2 2
2 2 2
2 2 2
2 2 2
2 2 2
3 3 3
3 3 3
3 3 3
9 9 9
6 6 6
3 3 3
14 14 14
14 14 14
15 15 15
13 13 13
9 9 9
19 19 19
40 40 40
6 6 6
2 2 2
2 2 2
2 2 2
2 2 2
2 2 2
2 2 2
2 2 2
2 2 2
0 0 0
0 0 0
2 2 2
2 2 2
2 2 2
2 2 2
2 2 2
2 2 2
2 2 2
2 2 2
2 2 2
2 2 2
1 1 1
1 1 1
1 1 1
0 0 0
1 1 1
1 1 1
1 1 1
1 1 1
2 2 2
1 1 1
1 1 1
2 2 2
9 9 9
20 20 20
13 13 13
2 2 2
2 2 2
3 3 3
2 2 2
6 6 6
10 10 10
3 3 3
10 10 10
10 10 10
6 6 6
14 14 14
24 24 24
24 24 24
2 2 2
2 2 2
2 2 2
2 2 2
2 2 2
2 2 2
2 2 2
2 2 2
2 2 2
2 2 2
0 0 0
0 0 0
2 2 2
2 2 2
2 2 2
2 2 2
2 2 2
2 2 2
2 2 2
2 2 2
2 2 2
2 2 2
2 2 2
2 2 2
0 0 0
1 1 1
1 1 1
1 1 1
1 1 1
1 1 1
1 1 1
1 1 1
1 1 1
2 2 2
2 2 2
2 2 2
17 17 17
2 2 2
2 2 2
2 2 2
3 3 3
10 10 10
9 9 9
3 3 3
8 8 8
13 13 13
7 7 7
16 16 16
3 3 3
2 2 2
2 2 2
2 2 2
2 2 2
2 2 2
2 2 2
2 2 2
2 2 2
2 2 2
2 2 2
2 2 2
0 0 0
0 0 0
2 2 2
2 2 2
2 2 2
2 2 2
2 2 2
2 2 2
2 2 2
2 2 2
2 2 2
2 2 2
2 2 2
2 2 2
2 2 2
2 2 2
1 1 1
1 1 1
1 1 1
1 1 1
1 1 1
1 1 1
2 2 2
2 2 2
2 2 2
2 2 2
2 2 2
12 12 12
2 2 2
2 2 2
3 3 3
3 3 3
10 10 10
16 16 16
11 11 11
12 12 12
3 3 3
2 2 2
2 2 2
2 2 2
2 2 2
2 2 2
2 2 2
2 2 2
2 2 2
2 2 2
2 2 2
2 2 2
2 2 2
2 2 2
0 0 0
0 0 0
2 2 2
2 2 2
2 2 2
2 2 2
2 2 2
2 2 2
2 2 2
2 2 2
2 2 2
2 2 2
2 2 2
2 2 2
2 2 2
2 2 2
2 2 2
2 2 2
1 1 1
1 1 1
1 1 1
1 1 1
2 2 2
2 2 2
2 2 2
2 2 2
2 2 2
3 3 3
13 13 13
3 3 3
4 4 4
5 5 5
7 7 7
10 10 10
2 2 2
2 2 2
2 2 2
2 2 2
2 2 2
2 2 2
2 2 2
2 2 2
2 2 2
2 2 2
2 2 2
2 2 2
2 2 2
2 2 2
2 2 2
2 2 2
0 0 0
0 0 0
0 0 0
0 0 0
0 0 0
0 0 0
0 0 0
0 0 0
0 0 0
0 0 0
0 0 0
0 0 0
0 0 0
0 0 0
0 0 0
0 0 0
0 0 0
0 0 0
0 0 0
0 0 0
0 0 0
0 0 0
0 0 0
0 0 0
0 0 0
0 0 0
0 0 0
0 0 0
0 0 0
0 0 0
0 0 0
0 0 0
0 0 0
0 0 0
0 0 0
0 0 0
0 0 0
0 0 0
0 0 0
0 0 0
0 0 0
0 0 0
0 0 0
0 0 0
0 0 0
0 0 0
0 0 0
0 0 0
0 0 0
0 0 0
0 0 0
