P3 
50 50 
255
0 0 0
0 0 0
0 0 0
0 0 0
0 0 0
0 0 0
0 0 0
0 0 0
0 0 0
0 0 0
0 0 0
0 0 0
0 0 0
0 0 0
0 0 0
0 0 0
0 0 0
0 0 0
0 0 0
0 0 0
0 0 0
0 0 0
0 0 0
0 0 0
0 0 0
0 0 0
0 0 0
0 0 0
0 0 0
0 0 0
0 0 0
0 0 0
0 0 0
0 0 0
0 0 0
0 0 0
0 0 0
0 0 0
0 0 0
0 0 0
0 0 0
0 0 0
0 0 0
0 0 0
0 0 0
0 0 0
0 0 0
0 0 0
0 0 0
0 0 0
0 0 0
2 2 2
2 2 2
2 2 2
2 2 2
2 2 2
2 2 2
2 2 2
2 2 2
2 2 2
2 2 2
2 2 2
2 2 2
2 2 2
2 2 2
2 2 2
2 2 2
2 2 2
5 5 5
10 10 10
5 5 5
3 3 3
15 15 15
1 1 1
3 3 3
3 3 3
3 3 3
3 3 3
4 4 4
3 3 3
4 4 4
6 6 6
2 2 2
2 2 2
2 2 2
2 2 2
2 2 2
2 2 2
2 2 2
2 2 2
2 2 2
2 2 2
2 2 2
2 2 2
2 2 2
2 2 2
2 2 2
2 2 2
2 2 2
0 0 0
0 0 0
2 2 2
2 2 2
2 2 2
2 2 2
2 2 2
2 2 2
2 2 2
2 2 2
2 2 2
2 2 2
2 2 2
2 2 2
2 2 2
2 2 2
0 0 0
0 0 0
6 6 6
8 8 8
8 8 8
5 5 5
15 15 15
3 3 3
3 3 3
3 3 3
2 2 2
4 4 4
2 2 2
5 5 5
1 1 1
3 3 3
5 5 5
4 4 4
5 5 5
9 9 9
2 2 2
2 2 2
2 2 2
2 2 2
2 2 2
2 2 2
2 2 2
2 2 2
2 2 2
2 2 2
2 2 2
2 2 2
2 2 2
2 2 2
0 0 0
0 0 0
2 2 2
2 2 2
2 2 2
2 2 2
2 2 2
2 2 2
2 2 2
2 2 2
2 2 2
2 2 2
2 2 2
2 2 2
4 4 4
2 2 2
0 0 0
0 0 0
8 8 8
11 11 11
8 8 8
17 17 17
3 3 3
2 2 2
3 3 3
4 4 4
3 3 3
6 6 6
3 3 3
5 5 5
5 5 5
5 5 5
2 2 2
7 7 7
15 15 15
7 7 7
7 7 7
17 17 17
2 2 2
2 2 2
2 2 2
2 2 2
2 2 2
2 2 2
2 2 2
2 2 2
2 2 2
2 2 2
2 2 2
2 2 2
0 0 0
0 0 0
2 2 2
2 2 2
2 2 2
2 2 2
2 2 2
2 2 2
2 2 2
2 2 2
2 2 2
2 2 2
2 2 2
5 5 5
11 11 11
2 2 2
0 0 0
0 0 0
8 8 8
20 20 20
16 16 16
5 5 5
2 2 2
2 2 2
3 3 3
5 5 5
10 10 10
6 6 6
9 9 9
0 0 0
4 4 4
7 7 7
4 4 4
7 7 7
4 4 4
6 6 6
12 12 12
5 5 5
10 10 10
7 7 7
2 2 2
2 2 2
2 2 2
2 2 2
2 2 2
2 2 2
2 2 2
2 2 2
2 2 2
2 2 2
0 0 0
0 0 0
2 2 2
2 2 2
2 2 2
2 2 2
2 2 2
2 2 2
2 2 2
2 2 2
2 2 2
5 5 5
11 11 11
6 6 6
13 13 13
1 1 1
0 0 0
3 3 3
25 25 25
14 14 14
7 7 7
4 4 4
1 1 1
3 3 3
5 5 5
5 5 5
11 11 11
5 5 5
1 1 1
2 2 2
11 11 11
2 2 2
2 2 2
6 6 6
4 4 4
9 9 9
4 4 4
9 9 9
6 6 6
5 5 5
13 13 13
2 2 2
2 2 2
2 2 2
2 2 2
2 2 2
2 2 2
2 2 2
2 2 2
2 2 2
0 0 0
0 0 0
2 2 2
2 2 2
2 2 2
2 2 2
2 2 2
2 2 2
2 2 2
2 2 2
5 5 5
7 7 7
11 11 11
8 8 8
16 16 16
1 1 1
0 0 0
13 13 13
19 19 19
11 11 11
5 5 5
2 2 2
5 5 5
5 5 5
4 4 4
4 4 4
0 0 0
8 8 8
7 7 7
2 2 2
5 5 5
0 0 0
7 7 7
12 12 12
11 11 11
9 9 9
9 9 9
5 5 5
9 9 9
12 12 12
13 13 13
13 13 13
4 4 4
2 2 2
2 2 2
2 2 2
2 2 2
2 2 2
2 2 2
2 2 2
0 0 0
0 0 0
2 2 2
2 2 2
2 2 2
2 2 2
2 2 2
2 2 2
2 2 2
7 7 7
4 4 4
6 6 6
10 10 10
11 11 11
17 17 17
6 6 6
0 0 0
11 11 11
23 23 23
8 8 8
6 6 6
2 2 2
13 13 13
8 8 8
2 2 2
6 6 6
2 2 2
9 9 9
2 2 2
5 5 5
0 0 0
15 15 15
6 6 6
1 1 1
11 11 11
3 3 3
13 13 13
12 12 12
11 11 11
11 11 11
13 13 13
13 13 13
14 14 14
7 7 7
2 2 2
2 2 2
2 2 2
2 2 2
2 2 2
2 2 2
0 0 0
0 0 0
2 2 2
2 2 2
2 2 2
2 2 2
2 2 2
2 2 2
5 5 5
7 7 7
7 7 7
7 7 7
9 9 9
13 13 13
19 19 19
1 1 1
0 0 0
16 16 16
19 19 19
6 6 6
1 1 1
10 10 10
18 18 18
22 22 22
17 17 17
37 37 37
0 0 0
0 0 0
1 1 1
4 4 4
4 4 4
15 15 15
12 12 12
15 15 15
6 6 6
4 4 4
3 3 3
8 8 8
10 10 10
10 10 10
13 13 13
5 5 5
9 9 9
48 48 48
4 4 4
2 2 2
2 2 2
2 2 2
2 2 2
2 2 2
0 0 0
0 0 0
2 2 2
2 2 2
2 2 2
2 2 2
2 2 2
0 0 0
1 1 1
11 11 11
5 5 5
7 7 7
10 10 10
19 19 19
23 23 23
0 0 0
0 0 0
23 23 23
9 9 9
19 19 19
67 67 67
83 83 83
77 77 77
81 81 81
78 78 78
82 82 82
40 40 40
40 40 40
27 27 27
2 2 2
10 10 10
13 13 13
6 6 6
6 6 6
4 4 4
10 10 10
6 6 6
14 14 14
3 3 3
8 8 8
8 8 8
13 13 13
8 8 8
15 15 15
15 15 15
2 2 2
2 2 2
2 2 2
2 2 2
2 2 2
0 0 0
0 0 0
2 2 2
2 2 2
2 2 2
2 2 2
9 9 9
0 0 0
1 1 1
13 13 13
3 3 3
9 9 9
12 12 12
23 23 23
69 69 69
50 50 50
77 77 77
109 109 109
82 82 82
89 89 89
87 87 87
73 73 73
73 73 73
72 72 72
75 75 75
85 85 85
86 86 86
90 90 90
87 87 87
90 90 90
75 75 75
22 22 22
6 6 6
5 5 5
8 8 8
16 16 16
5 5 5
9 9 9
6 6 6
11 11 11
5 5 5
6 6 6
6 6 6
10 10 10
34 34 34
20 20 20
2 2 2
2 2 2
2 2 2
2 2 2
0 0 0
0 0 0
2 2 2
2 2 2
2 2 2
1 1 1
4 4 4
0 0 0
0 0 0
8 8 8
7 7 7
5 5 5
8 8 8
104 104 104
106 106 106
42 42 42
96 96 96
107 107 107
94 94 94
79 79 79
87 87 87
151 151 151
71 71 71
84 84 84
85 85 85
84 84 84
82 82 82
82 82 82
89 89 89
88 88 88
91 91 91
92 92 92
69 69 69
10 10 10
11 11 11
12 12 12
7 7 7
6 6 6
8 8 8
9 9 9
8 8 8
4 4 4
2 2 2
8 8 8
46 46 46
15 15 15
19 19 19
2 2 2
2 2 2
2 2 2
0 0 0
0 0 0
2 2 2
2 2 2
2 2 2
1 1 1
1 1 1
12 12 12
0 0 0
2 2 2
8 8 8
3 3 3
26 26 26
104 104 104
111 111 111
49 49 49
105 105 105
95 95 95
94 94 94
111 111 111
125 125 125
99 99 99
85 85 85
84 84 84
85 85 85
84 84 84
89 89 89
85 85 85
88 88 88
94 94 94
94 94 94
93 93 93
91 91 91
86 86 86
38 38 38
11 11 11
6 6 6
4 4 4
10 10 10
12 12 12
6 6 6
5 5 5
5 5 5
6 6 6
35 35 35
12 12 12
16 16 16
6 6 6
2 2 2
2 2 2
0 0 0
0 0 0
2 2 2
2 2 2
2 2 2
3 3 3
2 2 2
3 3 3
1 1 1
1 1 1
17 17 17
0 0 0
74 74 74
77 77 77
128 128 128
82 82 82
170 170 170
94 94 94
48 48 48
122 122 122
84 84 84
84 84 84
83 83 83
90 90 90
93 93 93
95 95 95
92 92 92
84 84 84
86 86 86
93 93 93
91 91 91
88 88 88
92 92 92
86 86 86
82 82 82
66 66 66
15 15 15
12 12 12
11 11 11
12 12 12
13 13 13
7 7 7
11 11 11
12 12 12
22 22 22
6 6 6
14 14 14
78 78 78
2 2 2
2 2 2
0 0 0
0 0 0
2 2 2
2 2 2
6 6 6
6 6 6
3 3 3
1 1 1
12 12 12
0 0 0
19 19 19
33 33 33
72 72 72
77 77 77
53 53 53
207 207 207
39 39 39
42 42 42
138 138 138
85 85 85
88 88 88
96 96 96
99 99 99
99 99 99
98 98 98
94 94 94
91 91 91
91 91 91
85 85 85
82 82 82
83 83 83
85 85 85
88 88 88
90 90 90
81 81 81
82 82 82
75 75 75
16 16 16
15 15 15
16 16 16
20 20 20
16 16 16
5 5 5
7 7 7
15 15 15
8 8 8
9 9 9
67 67 67
5 5 5
2 2 2
0 0 0
0 0 0
2 2 2
1 1 1
5 5 5
9 9 9
10 10 10
8 8 8
1 1 1
16 16 16
12 12 12
94 94 94
103 103 103
92 92 92
193 193 193
71 71 71
82 82 82
90 90 90
107 107 107
95 95 95
94 94 94
93 93 93
91 91 91
90 90 90
90 90 90
90 90 90
92 92 92
89 89 89
90 90 90
91 91 91
82 82 82
85 85 85
87 87 87
88 88 88
90 90 90
87 87 87
84 84 84
80 80 80
5 5 5
4 4 4
4 4 4
2 2 2
3 3 3
4 4 4
11 11 11
16 16 16
9 9 9
52 52 52
22 22 22
2 2 2
0 0 0
0 0 0
2 2 2
5 5 5
5 5 5
7 7 7
19 19 19
19 19 19
15 15 15
33 33 33
26 26 26
114 114 114
131 131 131
37 37 37
152 152 152
188 188 188
252 252 252
94 94 94
75 75 75
87 87 87
84 84 84
84 84 84
88 88 88
91 91 91
122 122 122
126 126 126
92 92 92
93 93 93
90 90 90
88 88 88
85 85 85
81 81 81
83 83 83
88 88 88
89 89 89
89 89 89
91 91 91
86 86 86
28 28 28
12 12 12
9 9 9
4 4 4
3 3 3
3 3 3
5 5 5
37 37 37
7 7 7
35 35 35
13 13 13
3 3 3
0 0 0
0 0 0
2 2 2
4 4 4
3 3 3
4 4 4
10 10 10
26 26 26
94 94 94
130 130 130
188 188 188
83 83 83
14 14 14
78 78 78
126 126 126
77 77 77
116 116 116
101 101 101
91 91 91
78 78 78
80 80 80
86 86 86
87 87 87
114 114 114
131 131 131
139 139 139
158 158 158
96 96 96
128 128 128
92 92 92
85 85 85
85 85 85
81 81 81
81 81 81
86 86 86
89 89 89
87 87 87
87 87 87
51 51 51
12 12 12
11 11 11
13 13 13
4 4 4
5 5 5
4 4 4
30 30 30
9 9 9
25 25 25
16 16 16
19 19 19
0 0 0
0 0 0
1 1 1
3 3 3
1 1 1
2 2 2
4 4 4
90 90 90
153 153 153
219 219 219
199 199 199
221 221 221
120 120 120
92 92 92
144 144 144
67 67 67
125 125 125
97 97 97
94 94 94
91 91 91
18 18 18
90 90 90
89 89 89
99 99 99
125 125 125
120 120 120
130 130 130
83 83 83
104 104 104
149 149 149
86 86 86
86 86 86
87 87 87
85 85 85
83 83 83
88 88 88
87 87 87
87 87 87
78 78 78
9 9 9
3 3 3
17 17 17
7 7 7
5 5 5
6 6 6
19 19 19
11 11 11
21 21 21
16 16 16
17 17 17
0 0 0
0 0 0
1 1 1
2 2 2
13 13 13
20 20 20
27 27 27
62 62 62
139 139 139
202 202 202
146 146 146
26 26 26
122 122 122
120 120 120
119 119 119
87 87 87
121 121 121
95 95 95
100 100 100
92 92 92
25 25 25
93 93 93
89 89 89
93 93 93
136 136 136
160 160 160
113 113 113
89 89 89
91 91 91
145 145 145
96 96 96
84 84 84
85 85 85
86 86 86
79 79 79
86 86 86
89 89 89
88 88 88
84 84 84
14 14 14
4 4 4
11 11 11
18 18 18
5 5 5
12 12 12
19 19 19
11 11 11
15 15 15
19 19 19
13 13 13
0 0 0
0 0 0
2 2 2
0 0 0
2 2 2
0 0 0
45 45 45
42 42 42
208 208 208
143 143 143
102 102 102
65 65 65
83 83 83
138 138 138
49 49 49
98 98 98
116 116 116
104 104 104
99 99 99
100 100 100
10 10 10
90 90 90
91 91 91
146 146 146
117 117 117
127 127 127
91 91 91
83 83 83
85 85 85
169 169 169
121 121 121
86 86 86
88 88 88
85 85 85
82 82 82
83 83 83
88 88 88
88 88 88
86 86 86
17 17 17
8 8 8
9 9 9
8 8 8
10 10 10
7 7 7
25 25 25
8 8 8
13 13 13
21 21 21
10 10 10
0 0 0
0 0 0
0 0 0
0 0 0
0 0 0
0 0 0
50 50 50
86 86 86
237 237 237
107 107 107
101 101 101
62 62 62
81 81 81
151 151 151
18 18 18
108 108 108
123 123 123
105 105 105
101 101 101
97 97 97
10 10 10
92 92 92
84 84 84
174 174 174
110 110 110
119 119 119
85 85 85
85 85 85
88 88 88
166 166 166
129 129 129
84 84 84
84 84 84
85 85 85
81 81 81
86 86 86
89 89 89
90 90 90
87 87 87
26 26 26
8 8 8
5 5 5
6 6 6
13 13 13
3 3 3
42 42 42
8 8 8
11 11 11
25 25 25
13 13 13
0 0 0
0 0 0
0 0 0
0 0 0
0 0 0
0 0 0
51 51 51
91 91 91
231 231 231
38 38 38
73 73 73
94 94 94
13 13 13
166 166 166
27 27 27
134 134 134
127 127 127
110 110 110
105 105 105
100 100 100
14 14 14
90 90 90
91 91 91
166 166 166
160 160 160
93 93 93
88 88 88
88 88 88
86 86 86
162 162 162
108 108 108
88 88 88
83 83 83
80 80 80
77 77 77
81 81 81
89 89 89
90 90 90
85 85 85
26 26 26
4 4 4
12 12 12
9 9 9
7 7 7
11 11 11
48 48 48
9 9 9
11 11 11
27 27 27
12 12 12
0 0 0
0 0 0
0 0 0
0 0 0
0 0 0
0 0 0
6 6 6
64 64 64
228 228 228
78 78 78
35 35 35
84 84 84
74 74 74
141 141 141
57 57 57
166 166 166
147 147 147
108 108 108
106 106 106
104 104 104
54 54 54
94 94 94
91 91 91
141 141 141
146 146 146
109 109 109
95 95 95
91 91 91
96 96 96
135 135 135
86 86 86
86 86 86
90 90 90
82 82 82
83 83 83
89 89 89
89 89 89
89 89 89
85 85 85
31 31 31
12 12 12
13 13 13
8 8 8
10 10 10
7 7 7
40 40 40
7 7 7
10 10 10
29 29 29
12 12 12
0 0 0
0 0 0
0 0 0
0 0 0
0 0 0
4 4 4
1 1 1
72 72 72
136 136 136
197 197 197
180 180 180
30 30 30
53 53 53
47 47 47
28 28 28
208 208 208
150 150 150
119 119 119
109 109 109
99 99 99
41 41 41
105 105 105
103 103 103
113 113 113
130 130 130
131 131 131
108 108 108
92 92 92
106 106 106
94 94 94
89 89 89
86 86 86
87 87 87
81 81 81
81 81 81
88 88 88
88 88 88
88 88 88
86 86 86
25 25 25
9 9 9
9 9 9
10 10 10
9 9 9
11 11 11
32 32 32
10 10 10
9 9 9
30 30 30
11 11 11
0 0 0
0 0 0
0 0 0
2 2 2
4 4 4
0 0 0
0 0 0
0 0 0
44 44 44
71 71 71
76 76 76
30 30 30
1 1 1
174 174 174
47 47 47
236 236 236
187 187 187
157 157 157
119 119 119
109 109 109
95 95 95
89 89 89
89 89 89
90 90 90
118 118 118
134 134 134
117 117 117
86 86 86
87 87 87
87 87 87
90 90 90
87 87 87
83 83 83
82 82 82
90 90 90
88 88 88
89 89 89
81 81 81
74 74 74
20 20 20
10 10 10
13 13 13
12 12 12
6 6 6
17 17 17
36 36 36
10 10 10
17 17 17
29 29 29
13 13 13
0 0 0
0 0 0
6 6 6
7 7 7
3 3 3
6 6 6
7 7 7
9 9 9
0 0 0
6 6 6
71 71 71
88 88 88
92 92 92
117 117 117
158 158 158
48 48 48
229 229 229
219 219 219
99 99 99
87 87 87
90 90 90
98 98 98
95 95 95
93 93 93
95 95 95
92 92 92
92 92 92
91 91 91
89 89 89
91 91 91
87 87 87
81 81 81
88 88 88
89 89 89
89 89 89
90 90 90
86 86 86
84 84 84
30 30 30
24 24 24
18 18 18
9 9 9
20 20 20
14 14 14
7 7 7
43 43 43
9 9 9
29 29 29
26 26 26
11 11 11
0 0 0
0 0 0
6 6 6
4 4 4
6 6 6
2 2 2
5 5 5
3 3 3
5 5 5
11 11 11
18 18 18
122 122 122
199 199 199
190 190 190
133 133 133
99 99 99
70 70 70
105 105 105
143 143 143
67 67 67
78 78 78
83 83 83
88 88 88
91 91 91
92 92 92
92 92 92
92 92 92
90 90 90
90 90 90
84 84 84
82 82 82
88 88 88
86 86 86
90 90 90
90 90 90
81 81 81
85 85 85
31 31 31
20 20 20
20 20 20
16 16 16
8 8 8
13 13 13
11 11 11
10 10 10
50 50 50
7 7 7
35 35 35
24 24 24
12 12 12
0 0 0
0 0 0
5 5 5
5 5 5
3 3 3
6 6 6
8 8 8
1 1 1
7 7 7
12 12 12
17 17 17
99 99 99
154 154 154
80 80 80
69 69 69
125 125 125
78 78 78
32 32 32
26 26 26
91 91 91
65 65 65
72 72 72
75 75 75
79 79 79
82 82 82
87 87 87
85 85 85
87 87 87
80 80 80
83 83 83
84 84 84
89 89 89
89 89 89
88 88 88
81 81 81
73 73 73
12 12 12
32 32 32
6 6 6
21 21 21
8 8 8
17 17 17
10 10 10
5 5 5
2 2 2
43 43 43
8 8 8
25 25 25
23 23 23
14 14 14
0 0 0
0 0 0
4 4 4
2 2 2
3 3 3
4 4 4
2 2 2
6 6 6
13 13 13
11 11 11
23 23 23
34 34 34
78 78 78
75 75 75
87 87 87
129 129 129
92 92 92
151 151 151
150 150 150
87 87 87
103 103 103
119 119 119
88 88 88
80 80 80
80 80 80
85 85 85
85 85 85
74 74 74
85 85 85
86 86 86
87 87 87
88 88 88
83 83 83
80 80 80
12 12 12
22 22 22
24 24 24
18 18 18
3 3 3
15 15 15
8 8 8
2 2 2
3 3 3
11 11 11
7 7 7
31 31 31
7 7 7
18 18 18
20 20 20
12 12 12
0 0 0
0 0 0
1 1 1
4 4 4
3 3 3
5 5 5
5 5 5
8 8 8
9 9 9
16 16 16
17 17 17
35 35 35
3 3 3
7 7 7
82 82 82
110 110 110
51 51 51
92 92 92
75 75 75
77 77 77
77 77 77
88 88 88
100 100 100
64 64 64
75 75 75
81 81 81
81 81 81
78 78 78
87 87 87
87 87 87
86 86 86
72 72 72
15 15 15
22 22 22
11 11 11
9 9 9
4 4 4
2 2 2
12 12 12
9 9 9
10 10 10
9 9 9
6 6 6
6 6 6
14 14 14
26 26 26
9 9 9
23 23 23
16 16 16
15 15 15
0 0 0
0 0 0
2 2 2
4 4 4
3 3 3
3 3 3
7 7 7
7 7 7
11 11 11
11 11 11
17 17 17
35 35 35
0 0 0
0 0 0
7 7 7
77 77 77
55 55 55
87 87 87
71 71 71
70 70 70
84 84 84
80 80 80
77 77 77
80 80 80
74 74 74
77 77 77
77 77 77
86 86 86
86 86 86
82 82 82
33 33 33
8 8 8
16 16 16
9 9 9
9 9 9
5 5 5
2 2 2
3 3 3
4 4 4
4 4 4
22 22 22
18 18 18
24 24 24
14 14 14
14 14 14
32 32 32
10 10 10
30 30 30
14 14 14
20 20 20
0 0 0
0 0 0
1 1 1
3 3 3
2 2 2
2 2 2
7 7 7
7 7 7
8 8 8
11 11 11
11 11 11
25 25 25
0 0 0
0 0 0
3 3 3
43 43 43
0 0 0
37 37 37
73 73 73
74 74 74
68 68 68
66 66 66
58 58 58
72 72 72
80 80 80
79 79 79
23 23 23
3 3 3
1 1 1
0 0 0
6 6 6
6 6 6
1 1 1
0 0 0
1 1 1
1 1 1
2 2 2
6 6 6
12 12 12
14 14 14
15 15 15
20 20 20
15 15 15
9 9 9
11 11 11
43 43 43
8 8 8
40 40 40
13 13 13
27 27 27
0 0 0
0 0 0
2 2 2
5 5 5
2 2 2
5 5 5
6 6 6
6 6 6
9 9 9
7 7 7
15 15 15
17 17 17
0 0 0
0 0 0
1 1 1
38 38 38
0 0 0
7 7 7
6 6 6
1 1 1
0 0 0
0 0 0
1 1 1
0 0 0
0 0 0
0 0 0
0 0 0
0 0 0
0 0 0
0 0 0
0 0 0
1 1 1
1 1 1
2 2 2
1 1 1
0 0 0
1 1 1
10 10 10
12 12 12
6 6 6
14 14 14
8 8 8
9 9 9
10 10 10
19 19 19
34 34 34
8 8 8
59 59 59
13 13 13
2 2 2
0 0 0
0 0 0
2 2 2
1 1 1
2 2 2
3 3 3
5 5 5
6 6 6
5 5 5
9 9 9
18 18 18
8 8 8
0 0 0
0 0 0
1 1 1
32 32 32
0 0 0
7 7 7
1 1 1
12 12 12
3 3 3
0 0 0
0 0 0
4 4 4
0 0 0
0 0 0
0 0 0
2 2 2
1 1 1
0 0 0
0 0 0
0 0 0
0 0 0
0 0 0
1 1 1
1 1 1
1 1 1
10 10 10
4 4 4
4 4 4
17 17 17
12 12 12
20 20 20
14 14 14
10 10 10
12 12 12
11 11 11
76 76 76
22 22 22
2 2 2
0 0 0
0 0 0
2 2 2
2 2 2
5 5 5
5 5 5
5 5 5
4 4 4
6 6 6
8 8 8
18 18 18
0 0 0
0 0 0
0 0 0
1 1 1
31 31 31
8 8 8
19 19 19
21 21 21
7 7 7
7 7 7
3 3 3
0 0 0
1 1 1
4 4 4
1 1 1
2 2 2
1 1 1
1 1 1
2 2 2
1 1 1
1 1 1
0 0 0
1 1 1
1 1 1
0 0 0
0 0 0
4 4 4
8 8 8
17 17 17
8 8 8
20 20 20
24 24 24
4 4 4
30 30 30
9 9 9
10 10 10
87 87 87
9 9 9
2 2 2
0 0 0
0 0 0
2 2 2
2 2 2
3 3 3
4 4 4
4 4 4
7 7 7
5 5 5
9 9 9
15 15 15
0 0 0
0 0 0
0 0 0
2 2 2
26 26 26
1 1 1
5 5 5
10 10 10
11 11 11
7 7 7
3 3 3
0 0 0
0 0 0
0 0 0
5 5 5
2 2 2
2 2 2
1 1 1
0 0 0
1 1 1
2 2 2
2 2 2
3 3 3
1 1 1
0 0 0
1 1 1
0 0 0
7 7 7
5 5 5
6 6 6
33 33 33
8 8 8
10 10 10
42 42 42
7 7 7
17 17 17
89 89 89
2 2 2
2 2 2
0 0 0
0 0 0
2 2 2
2 2 2
2 2 2
5 5 5
3 3 3
6 6 6
4 4 4
11 11 11
11 11 11
0 0 0
0 0 0
0 0 0
3 3 3
19 19 19
2 2 2
7 7 7
3 3 3
1 1 1
13 13 13
3 3 3
3 3 3
0 0 0
1 1 1
0 0 0
3 3 3
4 4 4
1 1 1
3 3 3
3 3 3
1 1 1
2 2 2
2 2 2
5 5 5
3 3 3
0 0 0
1 1 1
8 8 8
3 3 3
16 16 16
22 22 22
19 19 19
13 13 13
17 17 17
9 9 9
20 20 20
12 12 12
2 2 2
2 2 2
0 0 0
0 0 0
2 2 2
2 2 2
2 2 2
2 2 2
6 6 6
3 3 3
6 6 6
13 13 13
8 8 8
0 0 0
0 0 0
0 0 0
4 4 4
16 16 16
3 3 3
8 8 8
6 6 6
0 0 0
1 1 1
12 12 12
5 5 5
1 1 1
1 1 1
1 1 1
1 1 1
1 1 1
3 3 3
1 1 1
4 4 4
2 2 2
1 1 1
3 3 3
3 3 3
4 4 4
1 1 1
2 2 2
2 2 2
3 3 3
18 18 18
6 6 6
13 13 13
17 17 17
6 6 6
12 12 12
41 41 41
2 2 2
2 2 2
2 2 2
0 0 0
0 0 0
2 2 2
2 2 2
2 2 2
2 2 2
4 4 4
4 4 4
6 6 6
12 12 12
7 7 7
0 0 0
0 0 0
0 0 0
5 5 5
15 15 15
3 3 3
6 6 6
5 5 5
1 1 1
0 0 0
9 9 9
8 8 8
7 7 7
1 1 1
1 1 1
2 2 2
2 2 2
1 1 1
4 4 4
3 3 3
4 4 4
1 1 1
3 3 3
3 3 3
2 2 2
3 3 3
4 4 4
7 7 7
5 5 5
5 5 5
11 11 11
3 3 3
45 45 45
9 9 9
16 16 16
2 2 2
2 2 2
2 2 2
2 2 2
0 0 0
0 0 0
2 2 2
2 2 2
2 2 2
2 2 2
2 2 2
5 5 5
9 9 9
8 8 8
2 2 2
0 0 0
0 0 0
0 0 0
5 5 5
12 12 12
4 4 4
3 3 3
8 8 8
2 2 2
0 0 0
1 1 1
7 7 7
2 2 2
4 4 4
2 2 2
0 0 0
1 1 1
3 3 3
4 4 4
4 4 4
5 5 5
3 3 3
4 4 4
3 3 3
3 3 3
10 10 10
6 6 6
8 8 8
5 5 5
6 6 6
11 11 11
14 14 14
18 18 18
12 12 12
5 5 5
2 2 2
2 2 2
2 2 2
2 2 2
0 0 0
0 0 0
2 2 2
2 2 2
2 2 2
2 2 2
2 2 2
2 2 2
10 10 10
6 6 6
0 0 0
0 0 0
0 0 0
0 0 0
5 5 5
10 10 10
4 4 4
2 2 2
8 8 8
2 2 2
1 1 1
0 0 0
4 4 4
4 4 4
6 6 6
1 1 1
2 2 2
2 2 2
2 2 2
2 2 2
4 4 4
3 3 3
3 3 3
3 3 3
6 6 6
2 2 2
13 13 13
8 8 8
10 10 10
11 11 11
7 7 7
6 6 6
27 27 27
14 14 14
9 9 9
2 2 2
2 2 2
2 2 2
2 2 2
2 2 2
0 0 0
0 0 0
2 2 2
2 2 2
2 2 2
2 2 2
2 2 2
2 2 2
2 2 2
7 7 7
0 0 0
0 0 0
0 0 0
0 0 0
4 4 4
10 10 10
1 1 1
1 1 1
7 7 7
4 4 4
2 2 2
0 0 0
1 1 1
4 4 4
1 1 1
6 6 6
2 2 2
1 1 1
3 3 3
4 4 4
4 4 4
3 3 3
4 4 4
4 4 4
14 14 14
15 15 15
18 18 18
16 16 16
12 12 12
16 16 16
11 11 11
9 9 9
42 42 42
16 16 16
2 2 2
2 2 2
2 2 2
2 2 2
2 2 2
2 2 2
0 0 0
0 0 0
2 2 2
2 2 2
2 2 2
2 2 2
2 2 2
2 2 2
2 2 2
2 2 2
0 0 0
0 0 0
0 0 0
0 0 0
3 3 3
10 10 10
1 1 1
2 2 2
6 6 6
5 5 5
2 2 2
0 0 0
0 0 0
5 5 5
3 3 3
3 3 3
2 2 2
1 1 1
3 3 3
3 3 3
3 3 3
4 4 4
7 7 7
18 18 18
13 13 13
8 8 8
18 18 18
18 18 18
15 15 15
15 15 15
10 10 10
21 21 21
9 9 9
2 2 2
2 2 2
2 2 2
2 2 2
2 2 2
2 2 2
2 2 2
0 0 0
0 0 0
2 2 2
2 2 2
2 2 2
2 2 2
2 2 2
2 2 2
2 2 2
2 2 2
2 2 2
0 0 0
0 0 0
0 0 0
3 3 3
10 10 10
2 2 2
3 3 3
7 7 7
6 6 6
2 2 2
1 1 1
0 0 0
2 2 2
5 5 5
2 2 2
4 4 4
1 1 1
1 1 1
3 3 3
3 3 3
4 4 4
11 11 11
9 9 9
8 8 8
21 21 21
19 19 19
8 8 8
11 11 11
18 18 18
17 17 17
5 5 5
2 2 2
2 2 2
2 2 2
2 2 2
2 2 2
2 2 2
2 2 2
2 2 2
0 0 0
0 0 0
2 2 2
2 2 2
2 2 2
2 2 2
2 2 2
2 2 2
2 2 2
2 2 2
2 2 2
2 2 2
0 0 0
0 0 0
3 3 3
8 8 8
1 1 1
4 4 4
6 6 6
8 8 8
3 3 3
3 3 3
0 0 0
0 0 0
3 3 3
3 3 3
3 3 3
2 2 2
0 0 0
7 7 7
4 4 4
7 7 7
5 5 5
3 3 3
24 24 24
8 8 8
12 12 12
15 15 15
20 20 20
15 15 15
2 2 2
2 2 2
2 2 2
2 2 2
2 2 2
2 2 2
2 2 2
2 2 2
2 2 2
2 2 2
0 0 0
0 0 0
2 2 2
2 2 2
2 2 2
2 2 2
2 2 2
2 2 2
2 2 2
2 2 2
2 2 2
2 2 2
2 2 2
2 2 2
2 2 2
8 8 8
0 0 0
3 3 3
5 5 5
4 4 4
4 4 4
2 2 2
1 1 1
1 1 1
2 2 2
4 4 4
0 0 0
5 5 5
4 4 4
6 6 6
1 1 1
4 4 4
11 11 11
16 16 16
16 16 16
15 15 15
20 20 20
12 12 12
3 3 3
2 2 2
2 2 2
2 2 2
2 2 2
2 2 2
2 2 2
2 2 2
2 2 2
2 2 2
2 2 2
2 2 2
0 0 0
0 0 0
2 2 2
2 2 2
2 2 2
2 2 2
2 2 2
2 2 2
2 2 2
2 2 2
2 2 2
2 2 2
2 2 2
2 2 2
2 2 2
2 2 2
0 0 0
2 2 2
4 4 4
5 5 5
5 5 5
1 1 1
1 1 1
0 0 0
0 0 0
5 5 5
8 8 8
1 1 1
3 3 3
2 2 2
4 4 4
5 5 5
12 12 12
6 6 6
14 14 14
16 16 16
3 3 3
2 2 2
2 2 2
2 2 2
2 2 2
2 2 2
2 2 2
2 2 2
2 2 2
2 2 2
2 2 2
2 2 2
2 2 2
2 2 2
0 0 0
0 0 0
2 2 2
2 2 2
2 2 2
2 2 2
2 2 2
2 2 2
2 2 2
2 2 2
2 2 2
2 2 2
2 2 2
2 2 2
2 2 2
2 2 2
2 2 2
2 2 2
3 3 3
5 5 5
6 6 6
4 4 4
3 3 3
2 2 2
0 0 0
1 1 1
4 4 4
6 6 6
5 5 5
1 1 1
5 5 5
6 6 6
14 14 14
20 20 20
2 2 2
2 2 2
2 2 2
2 2 2
2 2 2
2 2 2
2 2 2
2 2 2
2 2 2
2 2 2
2 2 2
2 2 2
2 2 2
2 2 2
2 2 2
2 2 2
0 0 0
0 0 0
0 0 0
0 0 0
0 0 0
0 0 0
0 0 0
0 0 0
0 0 0
0 0 0
0 0 0
0 0 0
0 0 0
0 0 0
0 0 0
0 0 0
0 0 0
0 0 0
0 0 0
0 0 0
0 0 0
0 0 0
0 0 0
0 0 0
0 0 0
0 0 0
0 0 0
0 0 0
0 0 0
0 0 0
0 0 0
0 0 0
0 0 0
0 0 0
0 0 0
0 0 0
0 0 0
0 0 0
0 0 0
0 0 0
0 0 0
0 0 0
0 0 0
0 0 0
0 0 0
0 0 0
0 0 0
0 0 0
0 0 0
0 0 0
0 0 0
