P3 
50 50 
255
0 0 0
0 0 0
0 0 0
0 0 0
0 0 0
0 0 0
0 0 0
0 0 0
0 0 0
0 0 0
0 0 0
0 0 0
0 0 0
0 0 0
0 0 0
0 0 0
0 0 0
0 0 0
0 0 0
0 0 0
0 0 0
0 0 0
0 0 0
0 0 0
0 0 0
0 0 0
0 0 0
0 0 0
0 0 0
0 0 0
0 0 0
0 0 0
0 0 0
0 0 0
0 0 0
0 0 0
0 0 0
0 0 0
0 0 0
0 0 0
0 0 0
0 0 0
0 0 0
0 0 0
0 0 0
0 0 0
0 0 0
0 0 0
0 0 0
0 0 0
0 0 0
2 2 2
2 2 2
2 2 2
2 2 2
2 2 2
2 2 2
2 2 2
2 2 2
2 2 2
2 2 2
2 2 2
2 2 2
2 2 2
2 2 2
2 2 2
2 2 2
1 1 1
1 1 1
2 2 2
2 2 2
2 2 2
4 4 4
4 4 4
4 4 4
5 5 5
5 5 5
6 6 6
5 5 5
5 5 5
8 8 8
13 13 13
3 3 3
2 2 2
2 2 2
2 2 2
2 2 2
2 2 2
2 2 2
2 2 2
2 2 2
2 2 2
2 2 2
2 2 2
2 2 2
2 2 2
2 2 2
2 2 2
2 2 2
0 0 0
0 0 0
2 2 2
2 2 2
2 2 2
2 2 2
2 2 2
2 2 2
2 2 2
2 2 2
2 2 2
2 2 2
2 2 2
2 2 2
2 2 2
2 2 2
1 1 1
1 1 1
1 1 1
2 2 2
2 2 2
2 2 2
4 4 4
4 4 4
4 4 4
4 4 4
4 4 4
5 5 5
3 3 3
5 5 5
4 4 4
12 12 12
13 13 13
5 5 5
9 9 9
14 14 14
2 2 2
2 2 2
2 2 2
2 2 2
2 2 2
2 2 2
2 2 2
2 2 2
2 2 2
2 2 2
2 2 2
2 2 2
2 2 2
2 2 2
0 0 0
0 0 0
2 2 2
2 2 2
2 2 2
2 2 2
2 2 2
2 2 2
2 2 2
2 2 2
2 2 2
2 2 2
2 2 2
2 2 2
1 1 1
1 1 1
1 1 1
1 1 1
2 2 2
2 2 2
3 3 3
5 5 5
3 3 3
4 4 4
4 4 4
4 4 4
5 5 5
5 5 5
8 8 8
3 3 3
7 7 7
6 6 6
10 10 10
11 11 11
13 13 13
10 10 10
10 10 10
14 14 14
2 2 2
2 2 2
2 2 2
2 2 2
2 2 2
2 2 2
2 2 2
2 2 2
2 2 2
2 2 2
2 2 2
2 2 2
0 0 0
0 0 0
2 2 2
2 2 2
2 2 2
2 2 2
2 2 2
2 2 2
2 2 2
2 2 2
2 2 2
2 2 2
2 2 2
1 1 1
1 1 1
1 1 1
2 2 2
2 2 2
2 2 2
3 3 3
4 4 4
4 4 4
4 4 4
4 4 4
4 4 4
4 4 4
4 4 4
4 4 4
3 3 3
7 7 7
18 18 18
13 13 13
10 10 10
7 7 7
8 8 8
8 8 8
8 8 8
9 9 9
9 9 9
7 7 7
2 2 2
2 2 2
2 2 2
2 2 2
2 2 2
2 2 2
2 2 2
2 2 2
2 2 2
2 2 2
0 0 0
0 0 0
2 2 2
2 2 2
2 2 2
2 2 2
2 2 2
2 2 2
2 2 2
2 2 2
2 2 2
1 1 1
1 1 1
1 1 1
1 1 1
2 2 2
1 1 1
1 1 1
4 4 4
4 4 4
4 4 4
4 4 4
2 2 2
3 3 3
3 3 3
4 4 4
10 10 10
4 4 4
8 8 8
5 5 5
14 14 14
11 11 11
13 13 13
11 11 11
12 12 12
16 16 16
9 9 9
4 4 4
5 5 5
12 12 12
14 14 14
2 2 2
2 2 2
2 2 2
2 2 2
2 2 2
2 2 2
2 2 2
2 2 2
2 2 2
0 0 0
0 0 0
2 2 2
2 2 2
2 2 2
2 2 2
2 2 2
2 2 2
2 2 2
2 2 2
1 1 1
1 1 1
1 1 1
1 1 1
2 2 2
1 1 1
1 1 1
4 4 4
4 4 4
4 4 4
4 4 4
3 3 3
3 3 3
3 3 3
4 4 4
6 6 6
5 5 5
7 7 7
7 7 7
8 8 8
7 7 7
12 12 12
10 10 10
11 11 11
5 5 5
5 5 5
8 8 8
12 12 12
10 10 10
7 7 7
12 12 12
10 10 10
6 6 6
2 2 2
2 2 2
2 2 2
2 2 2
2 2 2
2 2 2
2 2 2
0 0 0
0 0 0
2 2 2
2 2 2
2 2 2
2 2 2
2 2 2
2 2 2
2 2 2
1 1 1
2 2 2
1 1 1
1 1 1
2 2 2
2 2 2
2 2 2
6 6 6
4 4 4
4 4 4
5 5 5
5 5 5
3 3 3
3 3 3
3 3 3
7 7 7
8 8 8
5 5 5
7 7 7
10 10 10
14 14 14
22 22 22
28 28 28
26 26 26
21 21 21
16 16 16
14 14 14
8 8 8
8 8 8
6 6 6
4 4 4
6 6 6
9 9 9
24 24 24
6 6 6
2 2 2
2 2 2
2 2 2
2 2 2
2 2 2
2 2 2
0 0 0
0 0 0
2 2 2
2 2 2
2 2 2
2 2 2
2 2 2
2 2 2
1 1 1
2 2 2
2 2 2
2 2 2
2 2 2
1 1 1
1 1 1
13 13 13
4 4 4
4 4 4
5 5 5
5 5 5
5 5 5
5 5 5
9 9 9
12 12 12
8 8 8
17 17 17
23 23 23
47 47 47
69 69 69
82 82 82
87 87 87
85 85 85
84 84 84
85 85 85
85 85 85
85 85 85
74 74 74
29 29 29
7 7 7
5 5 5
4 4 4
5 5 5
8 8 8
28 28 28
4 4 4
2 2 2
2 2 2
2 2 2
2 2 2
2 2 2
0 0 0
0 0 0
2 2 2
2 2 2
2 2 2
2 2 2
2 2 2
1 1 1
1 1 1
1 1 1
2 2 2
1 1 1
1 1 1
1 1 1
8 8 8
4 4 4
3 3 3
4 4 4
5 5 5
5 5 5
5 5 5
16 16 16
10 10 10
14 14 14
56 56 56
80 80 80
88 88 88
90 90 90
98 98 98
109 109 109
112 112 112
121 121 121
125 125 125
130 130 130
119 119 119
103 103 103
86 86 86
84 84 84
78 78 78
60 60 60
30 30 30
4 4 4
5 5 5
50 50 50
15 15 15
2 2 2
2 2 2
2 2 2
2 2 2
2 2 2
0 0 0
0 0 0
2 2 2
2 2 2
2 2 2
2 2 2
1 1 1
1 1 1
1 1 1
1 1 1
1 1 1
1 1 1
1 1 1
3 3 3
4 4 4
2 2 2
3 3 3
4 4 4
4 4 4
4 4 4
30 30 30
80 80 80
96 96 96
123 123 123
148 148 148
175 175 175
180 180 180
168 168 168
169 169 169
157 157 157
163 163 163
162 162 162
165 165 165
164 164 164
151 151 151
161 161 161
160 160 160
157 157 157
105 105 105
84 84 84
85 85 85
50 50 50
9 9 9
17 17 17
13 13 13
18 18 18
2 2 2
2 2 2
2 2 2
2 2 2
0 0 0
0 0 0
2 2 2
2 2 2
2 2 2
2 2 2
1 1 1
1 1 1
1 1 1
1 1 1
1 1 1
2 2 2
1 1 1
14 14 14
2 2 2
3 3 3
3 3 3
1 1 1
7 7 7
60 60 60
122 122 122
185 185 185
178 178 178
169 169 169
179 179 179
168 168 168
149 149 149
140 140 140
150 150 150
165 165 165
170 170 170
168 168 168
172 172 172
171 171 171
171 171 171
162 162 162
155 155 155
144 144 144
159 159 159
152 152 152
87 87 87
86 86 86
19 19 19
6 6 6
21 21 21
13 13 13
20 20 20
2 2 2
2 2 2
2 2 2
0 0 0
0 0 0
2 2 2
2 2 2
2 2 2
1 1 1
1 1 1
1 1 1
1 1 1
1 1 1
2 2 2
1 1 1
10 10 10
1 1 1
1 1 1
1 1 1
4 4 4
59 59 59
96 96 96
172 172 172
178 178 178
163 163 163
171 171 171
172 172 172
156 156 156
102 102 102
92 92 92
88 88 88
89 89 89
92 92 92
91 91 91
90 90 90
93 93 93
94 94 94
95 95 95
105 105 105
150 150 150
155 155 155
149 149 149
152 152 152
164 164 164
81 81 81
58 58 58
12 12 12
45 45 45
12 12 12
18 18 18
7 7 7
2 2 2
2 2 2
0 0 0
0 0 0
2 2 2
2 2 2
1 1 1
1 1 1
1 1 1
1 1 1
0 0 0
0 0 0
1 1 1
0 0 0
10 10 10
2 2 2
2 2 2
1 1 1
77 77 77
139 139 139
183 183 183
176 176 176
178 178 178
162 162 162
155 155 155
122 122 122
96 96 96
87 87 87
87 87 87
88 88 88
88 88 88
88 88 88
88 88 88
88 88 88
88 88 88
87 87 87
87 87 87
88 88 88
89 89 89
113 113 113
165 165 165
151 151 151
161 161 161
114 114 114
85 85 85
21 21 21
39 39 39
9 9 9
14 14 14
80 80 80
2 2 2
2 2 2
0 0 0
0 0 0
2 2 2
2 2 2
1 1 1
0 0 0
0 0 0
1 1 1
1 1 1
1 1 1
1 1 1
8 8 8
3 3 3
3 3 3
0 0 0
65 65 65
159 159 159
175 175 175
166 166 166
154 154 154
149 149 149
123 123 123
96 96 96
92 92 92
88 88 88
88 88 88
88 88 88
88 88 88
88 88 88
88 88 88
87 87 87
88 88 88
87 87 87
87 87 87
87 87 87
87 87 87
86 86 86
87 87 87
109 109 109
163 163 163
149 149 149
183 183 183
89 89 89
49 49 49
16 16 16
11 11 11
13 13 13
82 82 82
5 5 5
2 2 2
0 0 0
0 0 0
2 2 2
1 1 1
1 1 1
0 0 0
1 1 1
0 0 0
1 1 1
2 2 2
1 1 1
18 18 18
3 3 3
2 2 2
33 33 33
121 121 121
167 167 167
168 168 168
162 162 162
114 114 114
109 109 109
88 88 88
88 88 88
87 87 87
88 88 88
87 87 87
88 88 88
88 88 88
87 87 87
88 88 88
87 87 87
88 88 88
88 88 88
87 87 87
87 87 87
88 88 88
88 88 88
87 87 87
87 87 87
96 96 96
172 172 172
162 162 162
139 139 139
74 74 74
24 24 24
29 29 29
11 11 11
69 69 69
23 23 23
2 2 2
0 0 0
0 0 0
2 2 2
1 1 1
1 1 1
1 1 1
0 0 0
1 1 1
0 0 0
1 1 1
0 0 0
6 6 6
2 2 2
1 1 1
68 68 68
179 179 179
171 171 171
160 160 160
108 108 108
94 94 94
92 92 92
87 87 87
88 88 88
88 88 88
88 88 88
87 87 87
88 88 88
87 87 87
87 87 87
88 88 88
88 88 88
88 88 88
88 88 88
88 88 88
86 86 86
87 87 87
88 88 88
88 88 88
87 87 87
87 87 87
123 123 123
156 156 156
173 173 173
85 85 85
35 35 35
51 51 51
10 10 10
49 49 49
14 14 14
3 3 3
0 0 0
0 0 0
2 2 2
1 1 1
1 1 1
1 1 1
1 1 1
0 0 0
0 0 0
1 1 1
1 1 1
3 3 3
3 3 3
2 2 2
83 83 83
171 171 171
171 171 171
148 148 148
89 89 89
88 88 88
88 88 88
88 88 88
89 89 89
88 88 88
88 88 88
88 88 88
87 87 87
88 88 88
88 88 88
88 88 88
88 88 88
87 87 87
87 87 87
87 87 87
87 87 87
88 88 88
88 88 88
87 87 87
87 87 87
87 87 87
88 88 88
167 167 167
186 186 186
89 89 89
29 29 29
45 45 45
10 10 10
35 35 35
14 14 14
20 20 20
0 0 0
0 0 0
1 1 1
1 1 1
1 1 1
1 1 1
1 1 1
0 0 0
0 0 0
0 0 0
3 3 3
3 3 3
2 2 2
9 9 9
104 104 104
166 166 166
162 162 162
102 102 102
87 87 87
88 88 88
88 88 88
88 88 88
88 88 88
88 88 88
88 88 88
88 88 88
87 87 87
88 88 88
87 87 87
87 87 87
87 87 87
88 88 88
87 87 87
88 88 88
87 87 87
87 87 87
88 88 88
88 88 88
88 88 88
87 87 87
89 89 89
167 167 167
180 180 180
89 89 89
33 33 33
29 29 29
10 10 10
25 25 25
14 14 14
21 21 21
0 0 0
0 0 0
1 1 1
1 1 1
1 1 1
1 1 1
0 0 0
1 1 1
0 0 0
1 1 1
4 4 4
3 3 3
2 2 2
15 15 15
117 117 117
157 157 157
168 168 168
108 108 108
88 88 88
88 88 88
88 88 88
87 87 87
88 88 88
87 87 87
88 88 88
88 88 88
88 88 88
88 88 88
88 88 88
87 87 87
87 87 87
87 87 87
87 87 87
87 87 87
87 87 87
87 87 87
88 88 88
87 87 87
88 88 88
88 88 88
90 90 90
169 169 169
166 166 166
88 88 88
42 42 42
26 26 26
9 9 9
19 19 19
14 14 14
15 15 15
0 0 0
0 0 0
1 1 1
1 1 1
1 1 1
1 1 1
0 0 0
0 0 0
1 1 1
1 1 1
1 1 1
3 3 3
2 2 2
22 22 22
134 134 134
165 165 165
100 100 100
86 86 86
87 87 87
88 88 88
87 87 87
88 88 88
87 87 87
87 87 87
87 87 87
86 86 86
88 88 88
87 87 87
87 87 87
87 87 87
87 87 87
87 87 87
87 87 87
87 87 87
87 87 87
88 88 88
88 88 88
88 88 88
88 88 88
88 88 88
93 93 93
164 164 164
171 171 171
90 90 90
31 31 31
16 16 16
12 12 12
13 13 13
16 16 16
14 14 14
0 0 0
0 0 0
1 1 1
0 0 0
1 1 1
1 1 1
1 1 1
0 0 0
1 1 1
1 1 1
1 1 1
1 1 1
2 2 2
18 18 18
138 138 138
162 162 162
155 155 155
103 103 103
87 87 87
88 88 88
88 88 88
88 88 88
88 88 88
88 88 88
87 87 87
87 87 87
87 87 87
87 87 87
88 88 88
87 87 87
87 87 87
87 87 87
88 88 88
88 88 88
87 87 87
87 87 87
88 88 88
88 88 88
88 88 88
88 88 88
88 88 88
166 166 166
187 187 187
92 92 92
33 33 33
21 21 21
20 20 20
11 11 11
18 18 18
14 14 14
0 0 0
0 0 0
1 1 1
0 0 0
1 1 1
1 1 1
1 1 1
1 1 1
1 1 1
1 1 1
1 1 1
2 2 2
0 0 0
22 22 22
135 135 135
160 160 160
163 163 163
97 97 97
87 87 87
88 88 88
88 88 88
88 88 88
88 88 88
88 88 88
88 88 88
88 88 88
88 88 88
87 87 87
88 88 88
87 87 87
88 88 88
88 88 88
87 87 87
87 87 87
88 88 88
88 88 88
88 88 88
88 88 88
87 87 87
87 87 87
93 93 93
161 161 161
178 178 178
93 93 93
37 37 37
21 21 21
33 33 33
11 11 11
18 18 18
15 15 15
0 0 0
0 0 0
1 1 1
1 1 1
1 1 1
1 1 1
0 0 0
1 1 1
1 1 1
1 1 1
1 1 1
3 3 3
1 1 1
26 26 26
119 119 119
165 165 165
164 164 164
90 90 90
87 87 87
88 88 88
89 89 89
88 88 88
88 88 88
88 88 88
88 88 88
88 88 88
88 88 88
88 88 88
88 88 88
88 88 88
88 88 88
88 88 88
87 87 87
87 87 87
88 88 88
88 88 88
88 88 88
88 88 88
87 87 87
87 87 87
125 125 125
157 157 157
182 182 182
90 90 90
30 30 30
21 21 21
43 43 43
11 11 11
19 19 19
14 14 14
0 0 0
0 0 0
2 2 2
1 1 1
1 1 1
1 1 1
0 0 0
0 0 0
1 1 1
1 1 1
1 1 1
1 1 1
1 1 1
6 6 6
92 92 92
169 169 169
168 168 168
111 111 111
87 87 87
88 88 88
88 88 88
88 88 88
88 88 88
88 88 88
88 88 88
88 88 88
88 88 88
88 88 88
87 87 87
88 88 88
88 88 88
88 88 88
88 88 88
88 88 88
88 88 88
87 87 87
88 88 88
88 88 88
87 87 87
89 89 89
157 157 157
154 154 154
189 189 189
77 77 77
25 25 25
27 27 27
50 50 50
12 12 12
18 18 18
13 13 13
0 0 0
0 0 0
1 1 1
1 1 1
1 1 1
1 1 1
1 1 1
1 1 1
1 1 1
1 1 1
1 1 1
1 1 1
3 3 3
1 1 1
58 58 58
185 185 185
165 165 165
148 148 148
105 105 105
92 92 92
89 89 89
88 88 88
89 89 89
88 88 88
88 88 88
89 89 89
88 88 88
88 88 88
88 88 88
88 88 88
88 88 88
88 88 88
88 88 88
87 87 87
88 88 88
88 88 88
88 88 88
88 88 88
89 89 89
140 140 140
148 148 148
161 161 161
124 124 124
55 55 55
22 22 22
33 33 33
44 44 44
12 12 12
19 19 19
12 12 12
0 0 0
0 0 0
1 1 1
1 1 1
1 1 1
0 0 0
1 1 1
0 0 0
1 1 1
1 1 1
2 2 2
3 3 3
3 3 3
3 3 3
9 9 9
101 101 101
171 171 171
173 173 173
162 162 162
141 141 141
102 102 102
89 89 89
88 88 88
88 88 88
89 89 89
88 88 88
88 88 88
88 88 88
88 88 88
88 88 88
89 89 89
89 89 89
88 88 88
87 87 87
88 88 88
88 88 88
88 88 88
89 89 89
131 131 131
145 145 145
151 151 151
183 183 183
83 83 83
28 28 28
23 23 23
25 25 25
30 30 30
13 13 13
17 17 17
14 14 14
0 0 0
0 0 0
1 1 1
1 1 1
0 0 0
1 1 1
1 1 1
1 1 1
1 1 1
1 1 1
3 3 3
4 4 4
4 4 4
3 3 3
0 0 0
34 34 34
163 163 163
166 166 166
167 167 167
160 160 160
154 154 154
107 107 107
98 98 98
90 90 90
89 89 89
89 89 89
89 89 89
89 89 89
88 88 88
88 88 88
88 88 88
88 88 88
88 88 88
88 88 88
88 88 88
88 88 88
89 89 89
127 127 127
160 160 160
141 141 141
166 166 166
97 97 97
59 59 59
34 34 34
15 15 15
15 15 15
18 18 18
11 11 11
17 17 17
14 14 14
0 0 0
0 0 0
1 1 1
1 1 1
1 1 1
1 1 1
1 1 1
1 1 1
0 0 0
1 1 1
2 2 2
4 4 4
5 5 5
4 4 4
2 2 2
0 0 0
53 53 53
147 147 147
187 187 187
170 170 170
164 164 164
164 164 164
144 144 144
116 116 116
95 95 95
89 89 89
89 89 89
88 88 88
88 88 88
89 89 89
89 89 89
90 90 90
91 91 91
91 91 91
91 91 91
102 102 102
142 142 142
161 161 161
137 137 137
160 160 160
129 129 129
83 83 83
23 23 23
14 14 14
12 12 12
19 19 19
13 13 13
12 12 12
14 14 14
15 15 15
0 0 0
0 0 0
1 1 1
1 1 1
1 1 1
1 1 1
1 1 1
1 1 1
1 1 1
1 1 1
2 2 2
3 3 3
5 5 5
4 4 4
3 3 3
1 1 1
0 0 0
24 24 24
101 101 101
178 178 178
174 174 174
176 176 176
174 174 174
167 167 167
160 160 160
110 110 110
94 94 94
93 93 93
101 101 101
122 122 122
136 136 136
151 151 151
152 152 152
150 150 150
167 167 167
168 168 168
154 154 154
147 147 147
172 172 172
115 115 115
85 85 85
20 20 20
19 19 19
6 6 6
9 9 9
21 21 21
11 11 11
14 14 14
14 14 14
13 13 13
0 0 0
0 0 0
1 1 1
2 2 2
2 2 2
1 1 1
1 1 1
1 1 1
1 1 1
1 1 1
1 1 1
1 1 1
0 0 0
2 2 2
4 4 4
3 3 3
2 2 2
0 0 0
0 0 0
16 16 16
81 81 81
181 181 181
195 195 195
193 193 193
185 185 185
166 166 166
162 162 162
160 160 160
159 159 159
173 173 173
171 171 171
176 176 176
168 168 168
162 162 162
157 157 157
163 163 163
172 172 172
143 143 143
85 85 85
82 82 82
34 34 34
14 14 14
7 7 7
16 16 16
14 14 14
29 29 29
8 8 8
20 20 20
11 11 11
14 14 14
0 0 0
0 0 0
1 1 1
1 1 1
1 1 1
2 2 2
1 1 1
1 1 1
1 1 1
1 1 1
1 1 1
1 1 1
1 1 1
1 1 1
3 3 3
3 3 3
3 3 3
4 4 4
3 3 3
4 4 4
3 3 3
14 14 14
61 61 61
85 85 85
121 121 121
159 159 159
180 180 180
179 179 179
187 187 187
181 181 181
179 179 179
175 175 175
176 176 176
169 169 169
156 156 156
125 125 125
87 87 87
75 75 75
40 40 40
6 6 6
2 2 2
11 11 11
8 8 8
12 12 12
8 8 8
39 39 39
8 8 8
29 29 29
12 12 12
18 18 18
0 0 0
0 0 0
1 1 1
1 1 1
1 1 1
1 1 1
1 1 1
1 1 1
1 1 1
1 1 1
1 1 1
1 1 1
1 1 1
1 1 1
4 4 4
4 4 4
4 4 4
4 4 4
4 4 4
4 4 4
4 4 4
3 3 3
2 2 2
2 2 2
2 2 2
12 12 12
33 33 33
52 52 52
70 70 70
80 80 80
88 88 88
81 81 81
75 75 75
70 70 70
64 64 64
55 55 55
19 19 19
17 17 17
15 15 15
23 23 23
6 6 6
6 6 6
11 11 11
14 14 14
4 4 4
20 20 20
8 8 8
42 42 42
12 12 12
27 27 27
0 0 0
0 0 0
2 2 2
1 1 1
1 1 1
1 1 1
1 1 1
1 1 1
1 1 1
1 1 1
1 1 1
1 1 1
1 1 1
1 1 1
2 2 2
9 9 9
4 4 4
5 5 5
4 4 4
4 4 4
4 4 4
4 4 4
4 4 4
3 3 3
5 5 5
5 5 5
6 6 6
5 5 5
5 5 5
7 7 7
4 4 4
10 10 10
9 9 9
5 5 5
9 9 9
12 12 12
17 17 17
17 17 17
25 25 25
9 9 9
3 3 3
8 8 8
9 9 9
19 19 19
27 27 27
8 8 8
8 8 8
60 60 60
12 12 12
2 2 2
0 0 0
0 0 0
2 2 2
1 1 1
2 2 2
1 1 1
1 1 1
1 1 1
1 1 1
1 1 1
1 1 1
2 2 2
1 1 1
2 2 2
2 2 2
2 2 2
14 14 14
4 4 4
4 4 4
4 4 4
4 4 4
5 5 5
5 5 5
3 3 3
3 3 3
3 3 3
6 6 6
8 8 8
9 9 9
9 9 9
7 7 7
6 6 6
4 4 4
5 5 5
11 11 11
9 9 9
3 3 3
3 3 3
22 22 22
26 26 26
10 10 10
11 11 11
10 10 10
25 25 25
48 48 48
6 6 6
10 10 10
77 77 77
21 21 21
2 2 2
0 0 0
0 0 0
2 2 2
2 2 2
1 1 1
1 1 1
1 1 1
1 1 1
1 1 1
1 1 1
2 2 2
2 2 2
1 1 1
2 2 2
2 2 2
2 2 2
2 2 2
18 18 18
5 5 5
4 4 4
5 5 5
5 5 5
5 5 5
5 5 5
4 4 4
4 4 4
5 5 5
5 5 5
4 4 4
4 4 4
5 5 5
5 5 5
5 5 5
5 5 5
5 5 5
5 5 5
5 5 5
5 5 5
4 4 4
6 6 6
27 27 27
13 13 13
12 12 12
18 18 18
48 48 48
6 6 6
12 12 12
76 76 76
8 8 8
2 2 2
0 0 0
0 0 0
2 2 2
2 2 2
2 2 2
1 1 1
1 1 1
1 1 1
1 1 1
1 1 1
1 1 1
1 1 1
1 1 1
1 1 1
1 1 1
2 2 2
2 2 2
2 2 2
17 17 17
6 6 6
5 5 5
5 5 5
5 5 5
5 5 5
6 6 6
5 5 5
5 5 5
5 5 5
5 5 5
6 6 6
5 5 5
5 5 5
5 5 5
5 5 5
5 5 5
5 5 5
6 6 6
5 5 5
5 5 5
6 6 6
18 18 18
18 18 18
14 14 14
20 20 20
31 31 31
7 7 7
14 14 14
62 62 62
2 2 2
2 2 2
0 0 0
0 0 0
2 2 2
2 2 2
2 2 2
2 2 2
2 2 2
2 2 2
1 1 1
2 2 2
2 2 2
1 1 1
1 1 1
2 2 2
2 2 2
2 2 2
2 2 2
2 2 2
3 3 3
14 14 14
8 8 8
5 5 5
5 5 5
5 5 5
5 5 5
5 5 5
5 5 5
4 4 4
4 4 4
5 5 5
5 5 5
4 4 4
5 5 5
5 5 5
5 5 5
5 5 5
5 5 5
6 6 6
7 7 7
5 5 5
8 8 8
30 30 30
20 20 20
21 21 21
20 20 20
9 9 9
17 17 17
10 10 10
2 2 2
2 2 2
0 0 0
0 0 0
2 2 2
2 2 2
2 2 2
2 2 2
1 1 1
1 1 1
2 2 2
1 1 1
2 2 2
2 2 2
1 1 1
1 1 1
2 2 2
2 2 2
2 2 2
2 2 2
2 2 2
2 2 2
14 14 14
7 7 7
5 5 5
4 4 4
5 5 5
4 4 4
5 5 5
4 4 4
4 4 4
5 5 5
5 5 5
5 5 5
5 5 5
4 4 4
5 5 5
5 5 5
6 6 6
9 9 9
7 7 7
6 6 6
4 4 4
22 22 22
27 27 27
31 31 31
13 13 13
13 13 13
35 35 35
2 2 2
2 2 2
2 2 2
0 0 0
0 0 0
2 2 2
2 2 2
2 2 2
2 2 2
1 1 1
2 2 2
1 1 1
2 2 2
1 1 1
1 1 1
1 1 1
2 2 2
2 2 2
1 1 1
2 2 2
2 2 2
2 2 2
3 3 3
3 3 3
14 14 14
7 7 7
4 4 4
4 4 4
4 4 4
4 4 4
4 4 4
4 4 4
5 5 5
5 5 5
4 4 4
5 5 5
5 5 5
5 5 5
4 4 4
5 5 5
6 6 6
6 6 6
10 10 10
17 17 17
21 21 21
21 21 21
33 33 33
12 12 12
16 16 16
2 2 2
2 2 2
2 2 2
2 2 2
0 0 0
0 0 0
2 2 2
2 2 2
2 2 2
2 2 2
2 2 2
2 2 2
1 1 1
1 1 1
1 1 1
1 1 1
1 1 1
2 2 2
1 1 1
1 1 1
2 2 2
2 2 2
2 2 2
2 2 2
2 2 2
3 3 3
10 10 10
12 12 12
3 3 3
3 3 3
4 4 4
4 4 4
4 4 4
4 4 4
4 4 4
4 4 4
4 4 4
3 3 3
4 4 4
11 11 11
5 5 5
5 5 5
13 13 13
5 5 5
18 18 18
16 16 16
14 14 14
50 50 50
14 14 14
5 5 5
2 2 2
2 2 2
2 2 2
2 2 2
0 0 0
0 0 0
2 2 2
2 2 2
2 2 2
2 2 2
2 2 2
2 2 2
1 1 1
1 1 1
1 1 1
1 1 1
1 1 1
1 1 1
1 1 1
2 2 2
2 2 2
2 2 2
2 2 2
2 2 2
2 2 2
2 2 2
2 2 2
9 9 9
12 12 12
3 3 3
3 3 3
3 3 3
10 10 10
11 11 11
10 10 10
11 11 11
2 2 2
3 3 3
7 7 7
15 15 15
16 16 16
12 12 12
3 3 3
4 4 4
12 12 12
20 20 20
20 20 20
41 41 41
10 10 10
2 2 2
2 2 2
2 2 2
2 2 2
2 2 2
0 0 0
0 0 0
2 2 2
2 2 2
2 2 2
2 2 2
2 2 2
2 2 2
2 2 2
2 2 2
1 1 1
1 1 1
1 1 1
1 1 1
1 1 1
2 2 2
1 1 1
2 2 2
2 2 2
2 2 2
2 2 2
2 2 2
2 2 2
2 2 2
10 10 10
12 12 12
3 3 3
8 8 8
3 3 3
3 3 3
10 10 10
15 15 15
15 15 15
14 14 14
15 15 15
15 15 15
6 6 6
14 14 14
8 8 8
13 13 13
17 17 17
25 25 25
30 30 30
19 19 19
2 2 2
2 2 2
2 2 2
2 2 2
2 2 2
2 2 2
0 0 0
0 0 0
2 2 2
2 2 2
2 2 2
2 2 2
2 2 2
2 2 2
2 2 2
2 2 2
1 1 1
1 1 1
1 1 1
1 1 1
2 2 2
1 1 1
1 1 1
2 2 2
2 2 2
2 2 2
2 2 2
2 2 2
2 2 2
2 2 2
2 2 2
10 10 10
9 9 9
6 6 6
7 7 7
2 2 2
12 12 12
16 16 16
11 11 11
4 4 4
10 10 10
14 14 14
15 15 15
8 8 8
5 5 5
16 16 16
20 20 20
14 14 14
16 16 16
2 2 2
2 2 2
2 2 2
2 2 2
2 2 2
2 2 2
2 2 2
0 0 0
0 0 0
2 2 2
2 2 2
2 2 2
2 2 2
2 2 2
2 2 2
2 2 2
2 2 2
2 2 2
1 1 1
1 1 1
1 1 1
1 1 1
1 1 1
1 1 1
1 1 1
2 2 2
2 2 2
2 2 2
2 2 2
2 2 2
2 2 2
2 2 2
3 3 3
10 10 10
9 9 9
5 5 5
13 13 13
11 11 11
11 11 11
14 14 14
7 7 7
5 5 5
9 9 9
12 12 12
12 12 12
18 18 18
27 27 27
19 19 19
5 5 5
2 2 2
2 2 2
2 2 2
2 2 2
2 2 2
2 2 2
2 2 2
2 2 2
0 0 0
0 0 0
2 2 2
2 2 2
2 2 2
2 2 2
2 2 2
2 2 2
2 2 2
2 2 2
2 2 2
2 2 2
1 1 1
1 1 1
1 1 1
1 1 1
1 1 1
2 2 2
1 1 1
2 2 2
2 2 2
2 2 2
2 2 2
2 2 2
2 2 2
3 3 3
3 3 3
11 11 11
9 9 9
14 14 14
7 7 7
5 5 5
7 7 7
11 11 11
10 10 10
6 6 6
5 5 5
10 10 10
19 19 19
31 31 31
2 2 2
2 2 2
2 2 2
2 2 2
2 2 2
2 2 2
2 2 2
2 2 2
2 2 2
2 2 2
0 0 0
0 0 0
2 2 2
2 2 2
2 2 2
2 2 2
2 2 2
2 2 2
2 2 2
2 2 2
2 2 2
2 2 2
2 2 2
2 2 2
1 1 1
1 1 1
1 1 1
1 1 1
1 1 1
1 1 1
2 2 2
2 2 2
2 2 2
2 2 2
2 2 2
2 2 2
2 2 2
3 3 3
12 12 12
18 18 18
11 11 11
13 13 13
7 7 7
9 9 9
21 21 21
18 18 18
21 21 21
21 21 21
4 4 4
2 2 2
2 2 2
2 2 2
2 2 2
2 2 2
2 2 2
2 2 2
2 2 2
2 2 2
2 2 2
2 2 2
0 0 0
0 0 0
2 2 2
2 2 2
2 2 2
2 2 2
2 2 2
2 2 2
2 2 2
2 2 2
2 2 2
2 2 2
2 2 2
2 2 2
2 2 2
2 2 2
1 1 1
1 1 1
1 1 1
1 1 1
1 1 1
1 1 1
1 1 1
2 2 2
2 2 2
2 2 2
2 2 2
2 2 2
3 3 3
14 14 14
12 12 12
4 4 4
11 11 11
13 13 13
20 20 20
21 21 21
3 3 3
2 2 2
2 2 2
2 2 2
2 2 2
2 2 2
2 2 2
2 2 2
2 2 2
2 2 2
2 2 2
2 2 2
2 2 2
2 2 2
0 0 0
0 0 0
2 2 2
2 2 2
2 2 2
2 2 2
2 2 2
2 2 2
2 2 2
2 2 2
2 2 2
2 2 2
2 2 2
2 2 2
2 2 2
2 2 2
2 2 2
2 2 2
1 1 1
1 1 1
1 1 1
2 2 2
2 2 2
2 2 2
2 2 2
2 2 2
3 3 3
4 4 4
3 3 3
4 4 4
14 14 14
13 13 13
8 8 8
14 14 14
2 2 2
2 2 2
2 2 2
2 2 2
2 2 2
2 2 2
2 2 2
2 2 2
2 2 2
2 2 2
2 2 2
2 2 2
2 2 2
2 2 2
2 2 2
2 2 2
0 0 0
0 0 0
0 0 0
0 0 0
0 0 0
0 0 0
0 0 0
0 0 0
0 0 0
0 0 0
0 0 0
0 0 0
0 0 0
0 0 0
0 0 0
0 0 0
0 0 0
0 0 0
0 0 0
0 0 0
0 0 0
0 0 0
0 0 0
0 0 0
0 0 0
0 0 0
0 0 0
0 0 0
0 0 0
0 0 0
0 0 0
0 0 0
0 0 0
0 0 0
0 0 0
0 0 0
0 0 0
0 0 0
0 0 0
0 0 0
0 0 0
0 0 0
0 0 0
0 0 0
0 0 0
0 0 0
0 0 0
0 0 0
0 0 0
0 0 0
0 0 0
