P3 
50 50 
255
0 0 0
0 0 0
0 0 0
0 0 0
0 0 0
0 0 0
0 0 0
0 0 0
0 0 0
0 0 0
0 0 0
0 0 0
0 0 0
0 0 0
0 0 0
0 0 0
0 0 0
0 0 0
0 0 0
0 0 0
0 0 0
0 0 0
0 0 0
0 0 0
0 0 0
0 0 0
0 0 0
0 0 0
0 0 0
0 0 0
0 0 0
0 0 0
0 0 0
0 0 0
0 0 0
0 0 0
0 0 0
0 0 0
0 0 0
0 0 0
0 0 0
0 0 0
0 0 0
0 0 0
0 0 0
0 0 0
0 0 0
0 0 0
0 0 0
0 0 0
0 0 0
2 2 2
2 2 2
2 2 2
2 2 2
2 2 2
2 2 2
2 2 2
2 2 2
2 2 2
2 2 2
2 2 2
2 2 2
2 2 2
2 2 2
2 2 2
2 2 2
2 2 2
1 1 1
2 2 2
5 5 5
17 17 17
2 2 2
2 2 2
4 4 4
5 5 5
5 5 5
5 5 5
7 7 7
5 5 5
9 9 9
5 5 5
3 3 3
2 2 2
2 2 2
2 2 2
2 2 2
2 2 2
2 2 2
2 2 2
2 2 2
2 2 2
2 2 2
2 2 2
2 2 2
2 2 2
2 2 2
2 2 2
2 2 2
0 0 0
0 0 0
2 2 2
2 2 2
2 2 2
2 2 2
2 2 2
2 2 2
2 2 2
2 2 2
2 2 2
2 2 2
2 2 2
2 2 2
2 2 2
2 2 2
1 1 1
5 5 5
2 2 2
0 0 0
10 10 10
6 6 6
4 4 4
4 4 4
3 3 3
2 2 2
5 5 5
5 5 5
6 6 6
4 4 4
6 6 6
8 8 8
7 7 7
4 4 4
11 11 11
8 8 8
2 2 2
2 2 2
2 2 2
2 2 2
2 2 2
2 2 2
2 2 2
2 2 2
2 2 2
2 2 2
2 2 2
2 2 2
2 2 2
2 2 2
0 0 0
0 0 0
2 2 2
2 2 2
2 2 2
2 2 2
2 2 2
2 2 2
2 2 2
2 2 2
2 2 2
2 2 2
2 2 2
2 2 2
0 0 0
2 2 2
3 3 3
6 6 6
12 12 12
9 9 9
3 3 3
5 5 5
2 2 2
3 3 3
3 3 3
5 5 5
6 6 6
8 8 8
9 9 9
14 14 14
21 21 21
14 14 14
12 12 12
10 10 10
12 12 12
10 10 10
10 10 10
16 16 16
2 2 2
2 2 2
2 2 2
2 2 2
2 2 2
2 2 2
2 2 2
2 2 2
2 2 2
2 2 2
2 2 2
2 2 2
0 0 0
0 0 0
2 2 2
2 2 2
2 2 2
2 2 2
2 2 2
2 2 2
2 2 2
2 2 2
2 2 2
2 2 2
2 2 2
0 0 0
0 0 0
3 3 3
5 5 5
11 11 11
5 5 5
4 4 4
6 6 6
3 3 3
3 3 3
2 2 2
4 4 4
11 11 11
12 12 12
7 7 7
27 27 27
23 23 23
16 16 16
8 8 8
11 11 11
10 10 10
4 4 4
9 9 9
6 6 6
8 8 8
18 18 18
7 7 7
2 2 2
2 2 2
2 2 2
2 2 2
2 2 2
2 2 2
2 2 2
2 2 2
2 2 2
2 2 2
0 0 0
0 0 0
2 2 2
2 2 2
2 2 2
2 2 2
2 2 2
2 2 2
2 2 2
2 2 2
2 2 2
4 4 4
10 10 10
0 0 0
0 0 0
4 4 4
9 9 9
6 6 6
3 3 3
5 5 5
7 7 7
5 5 5
4 4 4
4 4 4
5 5 5
27 27 27
84 84 84
91 91 91
88 88 88
89 89 89
86 86 86
5 5 5
6 6 6
7 7 7
1 1 1
2 2 2
7 7 7
3 3 3
15 15 15
4 4 4
10 10 10
2 2 2
2 2 2
2 2 2
2 2 2
2 2 2
2 2 2
2 2 2
2 2 2
2 2 2
0 0 0
0 0 0
2 2 2
2 2 2
2 2 2
2 2 2
2 2 2
2 2 2
2 2 2
2 2 2
4 4 4
2 2 2
9 9 9
1 1 1
0 0 0
4 4 4
12 12 12
8 8 8
2 2 2
6 6 6
3 3 3
4 4 4
2 2 2
5 5 5
36 36 36
83 83 83
86 86 86
83 83 83
77 77 77
28 28 28
6 6 6
6 6 6
7 7 7
2 2 2
8 8 8
5 5 5
2 2 2
2 2 2
11 11 11
6 6 6
16 16 16
14 14 14
5 5 5
2 2 2
2 2 2
2 2 2
2 2 2
2 2 2
2 2 2
2 2 2
0 0 0
0 0 0
2 2 2
2 2 2
2 2 2
2 2 2
2 2 2
2 2 2
2 2 2
2 2 2
3 3 3
3 3 3
10 10 10
3 3 3
0 0 0
4 4 4
14 14 14
6 6 6
3 3 3
7 7 7
4 4 4
28 28 28
72 72 72
81 81 81
85 85 85
87 87 87
84 84 84
76 76 76
47 47 47
45 45 45
28 28 28
39 39 39
19 19 19
19 19 19
2 2 2
3 3 3
8 8 8
4 4 4
5 5 5
11 11 11
13 13 13
14 14 14
14 14 14
7 7 7
2 2 2
2 2 2
2 2 2
2 2 2
2 2 2
2 2 2
0 0 0
0 0 0
2 2 2
2 2 2
2 2 2
2 2 2
2 2 2
2 2 2
3 3 3
3 3 3
2 2 2
4 4 4
9 9 9
5 5 5
1 1 1
4 4 4
15 15 15
4 4 4
42 42 42
81 81 81
83 83 83
89 89 89
92 92 92
87 87 87
85 85 85
85 85 85
86 86 86
86 86 86
88 88 88
85 85 85
85 85 85
60 60 60
11 11 11
5 5 5
10 10 10
8 8 8
6 6 6
7 7 7
13 13 13
4 4 4
11 11 11
4 4 4
15 15 15
47 47 47
4 4 4
2 2 2
2 2 2
2 2 2
2 2 2
2 2 2
0 0 0
0 0 0
2 2 2
2 2 2
2 2 2
2 2 2
2 2 2
3 3 3
5 5 5
3 3 3
2 2 2
3 3 3
7 7 7
11 11 11
1 1 1
1 1 1
56 56 56
78 78 78
87 87 87
86 86 86
90 90 90
91 91 91
87 87 87
82 82 82
80 80 80
86 86 86
128 128 128
183 183 183
114 114 114
206 206 206
164 164 164
99 99 99
89 89 89
49 49 49
9 9 9
4 4 4
5 5 5
11 11 11
2 2 2
10 10 10
4 4 4
5 5 5
5 5 5
12 12 12
16 16 16
2 2 2
2 2 2
2 2 2
2 2 2
2 2 2
0 0 0
0 0 0
2 2 2
2 2 2
2 2 2
2 2 2
1 1 1
2 2 2
7 7 7
7 7 7
3 3 3
3 3 3
8 8 8
25 25 25
29 29 29
69 69 69
94 94 94
92 92 92
92 92 92
91 91 91
94 94 94
90 90 90
89 89 89
87 87 87
93 93 93
80 80 80
177 177 177
100 100 100
40 40 40
158 158 158
163 163 163
157 157 157
108 108 108
98 98 98
86 86 86
67 67 67
18 18 18
15 15 15
11 11 11
14 14 14
6 6 6
5 5 5
10 10 10
8 8 8
46 46 46
19 19 19
2 2 2
2 2 2
2 2 2
2 2 2
0 0 0
0 0 0
2 2 2
2 2 2
2 2 2
2 2 2
2 2 2
0 0 0
2 2 2
5 5 5
5 5 5
13 13 13
80 80 80
89 89 89
71 71 71
66 66 66
99 99 99
99 99 99
92 92 92
106 106 106
145 145 145
121 121 121
163 163 163
84 84 84
81 81 81
82 82 82
93 93 93
115 115 115
154 154 154
173 173 173
196 196 196
192 192 192
176 176 176
150 150 150
111 111 111
94 94 94
76 76 76
21 21 21
11 11 11
11 11 11
5 5 5
16 16 16
12 12 12
6 6 6
32 32 32
14 14 14
19 19 19
2 2 2
2 2 2
2 2 2
0 0 0
0 0 0
2 2 2
2 2 2
2 2 2
0 0 0
0 0 0
0 0 0
3 3 3
0 0 0
4 4 4
62 62 62
74 74 74
98 98 98
77 77 77
70 70 70
91 91 91
127 127 127
167 167 167
104 104 104
109 109 109
92 92 92
78 78 78
85 85 85
87 87 87
84 84 84
83 83 83
134 134 134
163 163 163
163 163 163
157 157 157
123 123 123
134 134 134
167 167 167
190 190 190
149 149 149
88 88 88
85 85 85
55 55 55
17 17 17
13 13 13
5 5 5
5 5 5
9 9 9
17 17 17
13 13 13
15 15 15
6 6 6
2 2 2
2 2 2
0 0 0
0 0 0
2 2 2
2 2 2
2 2 2
0 0 0
4 4 4
2 2 2
0 0 0
0 0 0
2 2 2
72 72 72
69 69 69
94 94 94
80 80 80
65 65 65
102 102 102
112 112 112
138 138 138
137 137 137
79 79 79
83 83 83
84 84 84
95 95 95
99 99 99
83 83 83
87 87 87
107 107 107
125 125 125
136 136 136
100 100 100
89 89 89
89 89 89
99 99 99
154 154 154
200 200 200
108 108 108
88 88 88
87 87 87
56 56 56
13 13 13
10 10 10
4 4 4
11 11 11
13 13 13
11 11 11
13 13 13
87 87 87
2 2 2
2 2 2
0 0 0
0 0 0
2 2 2
2 2 2
3 3 3
4 4 4
0 0 0
0 0 0
0 0 0
1 1 1
6 6 6
64 64 64
62 62 62
85 85 85
91 91 91
60 60 60
125 125 125
72 72 72
82 82 82
82 82 82
82 82 82
74 74 74
83 83 83
85 85 85
91 91 91
88 88 88
84 84 84
89 89 89
104 104 104
131 131 131
92 92 92
91 91 91
86 86 86
89 89 89
102 102 102
176 176 176
173 173 173
92 92 92
89 89 89
88 88 88
35 35 35
24 24 24
6 6 6
3 3 3
13 13 13
19 19 19
11 11 11
72 72 72
5 5 5
2 2 2
0 0 0
0 0 0
2 2 2
4 4 4
1 1 1
4 4 4
4 4 4
1 1 1
3 3 3
0 0 0
80 80 80
86 86 86
79 79 79
12 12 12
80 80 80
153 153 153
81 81 81
63 63 63
73 73 73
87 87 87
92 92 92
89 89 89
89 89 89
91 91 91
93 93 93
90 90 90
99 99 99
103 103 103
120 120 120
149 149 149
101 101 101
89 89 89
89 89 89
89 89 89
93 93 93
117 117 117
194 194 194
118 118 118
93 93 93
89 89 89
75 75 75
16 16 16
5 5 5
6 6 6
5 5 5
41 41 41
8 8 8
50 50 50
23 23 23
2 2 2
0 0 0
0 0 0
2 2 2
4 4 4
10 10 10
3 3 3
9 9 9
1 1 1
5 5 5
76 76 76
99 99 99
109 109 109
205 205 205
238 238 238
246 246 246
153 153 153
48 48 48
82 82 82
91 91 91
92 92 92
86 86 86
88 88 88
87 87 87
87 87 87
97 97 97
108 108 108
118 118 118
127 127 127
107 107 107
122 122 122
135 135 135
94 94 94
89 89 89
89 89 89
92 92 92
112 112 112
187 187 187
135 135 135
93 93 93
90 90 90
85 85 85
18 18 18
8 8 8
3 3 3
5 5 5
41 41 41
8 8 8
33 33 33
13 13 13
3 3 3
0 0 0
0 0 0
2 2 2
5 5 5
6 6 6
15 15 15
3 3 3
28 28 28
75 75 75
84 84 84
64 64 64
14 14 14
144 144 144
219 219 219
207 207 207
174 174 174
26 26 26
56 56 56
78 78 78
81 81 81
81 81 81
63 63 63
90 90 90
93 93 93
138 138 138
108 108 108
107 107 107
124 124 124
144 144 144
159 159 159
128 128 128
109 109 109
98 98 98
92 92 92
96 96 96
120 120 120
182 182 182
136 136 136
99 99 99
90 90 90
84 84 84
39 39 39
8 8 8
5 5 5
4 4 4
18 18 18
7 7 7
22 22 22
13 13 13
16 16 16
0 0 0
0 0 0
0 0 0
1 1 1
4 4 4
6 6 6
34 34 34
111 111 111
115 115 115
215 215 215
169 169 169
85 85 85
45 45 45
146 146 146
111 111 111
48 48 48
85 85 85
77 77 77
66 66 66
80 80 80
81 81 81
79 79 79
91 91 91
125 125 125
119 119 119
105 105 105
134 134 134
89 89 89
87 87 87
88 88 88
102 102 102
127 127 127
117 117 117
97 97 97
96 96 96
117 117 117
180 180 180
147 147 147
99 99 99
91 91 91
87 87 87
55 55 55
17 17 17
11 11 11
5 5 5
7 7 7
9 9 9
16 16 16
14 14 14
16 16 16
0 0 0
0 0 0
3 3 3
1 1 1
1 1 1
1 1 1
65 65 65
158 158 158
226 226 226
152 152 152
46 46 46
82 82 82
106 106 106
120 120 120
93 93 93
41 41 41
98 98 98
80 80 80
85 85 85
81 81 81
85 85 85
89 89 89
84 84 84
169 169 169
96 96 96
112 112 112
84 84 84
86 86 86
84 84 84
86 86 86
87 87 87
117 117 117
157 157 157
143 143 143
120 120 120
158 158 158
192 192 192
155 155 155
100 100 100
92 92 92
90 90 90
81 81 81
19 19 19
16 16 16
5 5 5
11 11 11
10 10 10
13 13 13
15 15 15
12 12 12
0 0 0
0 0 0
0 0 0
0 0 0
0 0 0
1 1 1
70 70 70
186 186 186
77 77 77
1 1 1
6 6 6
92 92 92
108 108 108
99 99 99
110 110 110
46 46 46
83 83 83
65 65 65
78 78 78
94 94 94
82 82 82
75 75 75
106 106 106
172 172 172
105 105 105
87 87 87
83 83 83
87 87 87
87 87 87
85 85 85
87 87 87
89 89 89
170 170 170
134 134 134
164 164 164
157 157 157
176 176 176
164 164 164
105 105 105
93 93 93
93 93 93
85 85 85
25 25 25
4 4 4
9 9 9
9 9 9
6 6 6
11 11 11
20 20 20
12 12 12
0 0 0
0 0 0
0 0 0
0 0 0
2 2 2
7 7 7
155 155 155
215 215 215
32 32 32
16 16 16
22 22 22
80 80 80
104 104 104
82 82 82
118 118 118
59 59 59
83 83 83
47 47 47
55 55 55
92 92 92
87 87 87
22 22 22
140 140 140
162 162 162
127 127 127
96 96 96
84 84 84
87 87 87
87 87 87
84 84 84
86 86 86
101 101 101
143 143 143
172 172 172
167 167 167
177 177 177
179 179 179
164 164 164
104 104 104
90 90 90
89 89 89
77 77 77
19 19 19
2 2 2
18 18 18
12 12 12
7 7 7
10 10 10
25 25 25
13 13 13
0 0 0
0 0 0
0 0 0
0 0 0
0 0 0
10 10 10
185 185 185
208 208 208
25 25 25
2 2 2
40 40 40
90 90 90
107 107 107
96 96 96
120 120 120
73 73 73
92 92 92
86 86 86
46 46 46
89 89 89
85 85 85
2 2 2
87 87 87
183 183 183
87 87 87
90 90 90
83 83 83
86 86 86
85 85 85
85 85 85
85 85 85
158 158 158
149 149 149
112 112 112
106 106 106
123 123 123
175 175 175
160 160 160
100 100 100
89 89 89
87 87 87
60 60 60
15 15 15
5 5 5
19 19 19
24 24 24
8 8 8
9 9 9
25 25 25
12 12 12
0 0 0
0 0 0
0 0 0
0 0 0
0 0 0
0 0 0
89 89 89
187 187 187
54 54 54
5 5 5
0 0 0
68 68 68
92 92 92
93 93 93
138 138 138
81 81 81
110 110 110
104 104 104
53 53 53
79 79 79
87 87 87
86 86 86
88 88 88
139 139 139
130 130 130
128 128 128
104 104 104
85 85 85
86 86 86
107 107 107
155 155 155
147 147 147
115 115 115
93 93 93
90 90 90
101 101 101
169 169 169
153 153 153
95 95 95
90 90 90
85 85 85
37 37 37
10 10 10
6 6 6
25 25 25
33 33 33
9 9 9
8 8 8
28 28 28
13 13 13
0 0 0
0 0 0
4 4 4
4 4 4
0 0 0
0 0 0
74 74 74
138 138 138
190 190 190
170 170 170
97 97 97
22 22 22
87 87 87
64 64 64
155 155 155
58 58 58
136 136 136
97 97 97
75 75 75
85 85 85
91 91 91
84 84 84
84 84 84
90 90 90
133 133 133
121 121 121
112 112 112
157 157 157
155 155 155
174 174 174
158 158 158
108 108 108
91 91 91
87 87 87
87 87 87
98 98 98
174 174 174
139 139 139
91 91 91
91 91 91
86 86 86
23 23 23
12 12 12
11 11 11
13 13 13
34 34 34
8 8 8
8 8 8
28 28 28
11 11 11
0 0 0
0 0 0
3 3 3
1 1 1
3 3 3
7 7 7
10 10 10
94 94 94
95 95 95
193 193 193
201 201 201
171 171 171
210 210 210
91 91 91
179 179 179
170 170 170
127 127 127
79 79 79
81 81 81
78 78 78
76 76 76
72 72 72
80 80 80
86 86 86
114 114 114
138 138 138
140 140 140
125 125 125
86 86 86
88 88 88
159 159 159
91 91 91
86 86 86
88 88 88
89 89 89
111 111 111
185 185 185
113 113 113
87 87 87
87 87 87
61 61 61
16 16 16
9 9 9
10 10 10
18 18 18
35 35 35
11 11 11
9 9 9
27 27 27
13 13 13
0 0 0
0 0 0
0 0 0
2 2 2
4 4 4
12 12 12
8 8 8
12 12 12
41 41 41
108 108 108
139 139 139
194 194 194
147 147 147
240 240 240
100 100 100
112 112 112
88 88 88
60 60 60
80 80 80
88 88 88
93 93 93
94 94 94
88 88 88
93 93 93
93 93 93
87 87 87
91 91 91
94 94 94
93 93 93
109 109 109
148 148 148
92 92 92
88 88 88
88 88 88
99 99 99
178 178 178
160 160 160
87 87 87
89 89 89
86 86 86
33 33 33
18 18 18
18 18 18
14 14 14
17 17 17
28 28 28
9 9 9
9 9 9
27 27 27
14 14 14
0 0 0
0 0 0
5 5 5
7 7 7
12 12 12
6 6 6
8 8 8
3 3 3
4 4 4
22 22 22
86 86 86
70 70 70
81 81 81
176 176 176
59 59 59
124 124 124
32 32 32
81 81 81
104 104 104
102 102 102
98 98 98
92 92 92
83 83 83
98 98 98
90 90 90
93 93 93
85 85 85
86 86 86
83 83 83
96 96 96
137 137 137
106 106 106
97 97 97
102 102 102
166 166 166
198 198 198
99 99 99
86 86 86
84 84 84
62 62 62
45 45 45
17 17 17
11 11 11
15 15 15
15 15 15
17 17 17
8 8 8
9 9 9
24 24 24
14 14 14
0 0 0
0 0 0
2 2 2
3 3 3
2 2 2
1 1 1
2 2 2
2 2 2
1 1 1
2 2 2
48 48 48
59 59 59
81 81 81
111 111 111
21 21 21
133 133 133
120 120 120
17 17 17
37 37 37
104 104 104
88 88 88
96 96 96
94 94 94
93 93 93
94 94 94
86 86 86
87 87 87
77 77 77
81 81 81
103 103 103
130 130 130
166 166 166
174 174 174
181 181 181
162 162 162
119 119 119
86 86 86
80 80 80
63 63 63
39 39 39
27 27 27
8 8 8
17 17 17
13 13 13
12 12 12
13 13 13
9 9 9
9 9 9
22 22 22
13 13 13
0 0 0
0 0 0
3 3 3
1 1 1
1 1 1
2 2 2
0 0 0
1 1 1
4 4 4
5 5 5
4 4 4
34 34 34
97 97 97
75 75 75
53 53 53
99 99 99
132 132 132
100 100 100
162 162 162
71 71 71
140 140 140
55 55 55
69 69 69
74 74 74
87 87 87
90 90 90
89 89 89
92 92 92
89 89 89
93 93 93
139 139 139
146 146 146
137 137 137
112 112 112
94 94 94
86 86 86
81 81 81
56 56 56
21 21 21
17 17 17
17 17 17
9 9 9
23 23 23
9 9 9
18 18 18
13 13 13
8 8 8
12 12 12
19 19 19
13 13 13
0 0 0
0 0 0
1 1 1
1 1 1
2 2 2
2 2 2
4 4 4
1 1 1
2 2 2
2 2 2
4 4 4
8 8 8
10 10 10
12 12 12
68 68 68
87 87 87
113 113 113
99 99 99
98 98 98
92 92 92
93 93 93
145 145 145
184 184 184
81 81 81
71 71 71
76 76 76
60 60 60
173 173 173
124 124 124
88 88 88
89 89 89
90 90 90
95 95 95
93 93 93
88 88 88
81 81 81
15 15 15
6 6 6
9 9 9
15 15 15
5 5 5
11 11 11
18 18 18
16 16 16
18 18 18
18 18 18
10 10 10
14 14 14
14 14 14
12 12 12
0 0 0
0 0 0
1 1 1
4 4 4
3 3 3
0 0 0
4 4 4
0 0 0
8 8 8
5 5 5
3 3 3
5 5 5
7 7 7
8 8 8
6 6 6
86 86 86
87 87 87
106 106 106
89 89 89
100 100 100
93 93 93
78 78 78
72 72 72
80 80 80
89 89 89
85 85 85
103 103 103
174 174 174
171 171 171
180 180 180
93 93 93
91 91 91
89 89 89
90 90 90
43 43 43
5 5 5
2 2 2
2 2 2
3 3 3
14 14 14
17 17 17
18 18 18
12 12 12
19 19 19
16 16 16
31 31 31
11 11 11
21 21 21
12 12 12
19 19 19
0 0 0
0 0 0
2 2 2
1 1 1
1 1 1
2 2 2
1 1 1
4 4 4
4 4 4
6 6 6
6 6 6
5 5 5
6 6 6
12 12 12
1 1 1
15 15 15
71 71 71
93 93 93
82 82 82
79 79 79
89 89 89
81 81 81
81 81 81
82 82 82
75 75 75
84 84 84
83 83 83
81 81 81
95 95 95
100 100 100
92 92 92
76 76 76
37 37 37
4 4 4
1 1 1
5 5 5
3 3 3
3 3 3
9 9 9
10 10 10
16 16 16
13 13 13
5 5 5
13 13 13
14 14 14
48 48 48
11 11 11
32 32 32
14 14 14
29 29 29
0 0 0
0 0 0
2 2 2
2 2 2
0 0 0
3 3 3
1 1 1
4 4 4
4 4 4
4 4 4
3 3 3
4 4 4
4 4 4
14 14 14
0 0 0
11 11 11
0 0 0
23 23 23
39 39 39
50 50 50
40 40 40
28 28 28
50 50 50
75 75 75
83 83 83
80 80 80
54 54 54
42 42 42
9 9 9
6 6 6
5 5 5
0 0 0
0 0 0
1 1 1
2 2 2
0 0 0
0 0 0
0 0 0
5 5 5
8 8 8
18 18 18
26 26 26
7 7 7
18 18 18
29 29 29
41 41 41
10 10 10
49 49 49
13 13 13
2 2 2
0 0 0
0 0 0
2 2 2
2 2 2
2 2 2
1 1 1
2 2 2
3 3 3
9 9 9
1 1 1
0 0 0
0 0 0
3 3 3
12 12 12
0 0 0
10 10 10
0 0 0
17 17 17
9 9 9
8 8 8
1 1 1
4 4 4
3 3 3
3 3 3
22 22 22
84 84 84
83 83 83
69 69 69
75 75 75
20 20 20
0 0 0
0 0 0
3 3 3
1 1 1
0 0 0
0 0 0
0 0 0
1 1 1
2 2 2
8 8 8
13 13 13
18 18 18
14 14 14
22 22 22
30 30 30
17 17 17
11 11 11
67 67 67
24 24 24
2 2 2
0 0 0
0 0 0
2 2 2
2 2 2
0 0 0
3 3 3
4 4 4
6 6 6
2 2 2
3 3 3
2 2 2
0 0 0
3 3 3
11 11 11
0 0 0
9 9 9
0 0 0
12 12 12
10 10 10
7 7 7
4 4 4
2 2 2
6 6 6
4 4 4
0 0 0
18 18 18
84 84 84
86 86 86
75 75 75
83 83 83
38 38 38
35 35 35
2 2 2
2 2 2
1 1 1
2 2 2
0 0 0
0 0 0
0 0 0
9 9 9
3 3 3
17 17 17
17 17 17
9 9 9
39 39 39
8 8 8
10 10 10
81 81 81
9 9 9
2 2 2
0 0 0
0 0 0
2 2 2
2 2 2
2 2 2
2 2 2
5 5 5
4 4 4
0 0 0
4 4 4
2 2 2
1 1 1
3 3 3
9 9 9
0 0 0
8 8 8
0 0 0
11 11 11
6 6 6
6 6 6
7 7 7
0 0 0
2 2 2
5 5 5
5 5 5
2 2 2
15 15 15
11 11 11
32 32 32
81 81 81
70 70 70
11 11 11
1 1 1
6 6 6
5 5 5
3 3 3
2 2 2
3 3 3
2 2 2
7 7 7
1 1 1
7 7 7
14 14 14
7 7 7
44 44 44
7 7 7
13 13 13
77 77 77
2 2 2
2 2 2
0 0 0
0 0 0
2 2 2
2 2 2
2 2 2
4 4 4
3 3 3
3 3 3
2 2 2
0 0 0
3 3 3
3 3 3
5 5 5
7 7 7
0 0 0
8 8 8
0 0 0
9 9 9
7 7 7
7 7 7
4 4 4
2 2 2
1 1 1
1 1 1
4 4 4
3 3 3
2 2 2
4 4 4
2 2 2
4 4 4
0 0 0
0 0 0
1 1 1
1 1 1
4 4 4
6 6 6
4 4 4
10 10 10
12 12 12
7 7 7
12 12 12
19 19 19
18 18 18
17 17 17
19 19 19
9 9 9
15 15 15
11 11 11
2 2 2
2 2 2
0 0 0
0 0 0
2 2 2
2 2 2
2 2 2
2 2 2
2 2 2
1 1 1
4 4 4
0 0 0
2 2 2
3 3 3
5 5 5
6 6 6
0 0 0
7 7 7
0 0 0
8 8 8
13 13 13
9 9 9
9 9 9
7 7 7
2 2 2
4 4 4
1 1 1
5 5 5
3 3 3
3 3 3
5 5 5
2 2 2
4 4 4
1 1 1
1 1 1
2 2 2
1 1 1
2 2 2
4 4 4
14 14 14
12 12 12
11 11 11
19 19 19
28 28 28
12 12 12
13 13 13
8 8 8
12 12 12
30 30 30
2 2 2
2 2 2
2 2 2
0 0 0
0 0 0
2 2 2
2 2 2
2 2 2
2 2 2
4 4 4
1 1 1
2 2 2
0 0 0
1 1 1
3 3 3
6 6 6
4 4 4
0 0 0
5 5 5
0 0 0
4 4 4
19 19 19
17 17 17
26 26 26
4 4 4
5 5 5
2 2 2
3 3 3
2 2 2
5 5 5
6 6 6
3 3 3
5 5 5
1 1 1
3 3 3
4 4 4
3 3 3
2 2 2
1 1 1
2 2 2
14 14 14
15 15 15
15 15 15
24 24 24
31 31 31
13 13 13
43 43 43
10 10 10
14 14 14
2 2 2
2 2 2
2 2 2
2 2 2
0 0 0
0 0 0
2 2 2
2 2 2
2 2 2
2 2 2
2 2 2
1 1 1
2 2 2
1 1 1
1 1 1
4 4 4
6 6 6
3 3 3
0 0 0
5 5 5
0 0 0
1 1 1
10 10 10
4 4 4
6 6 6
6 6 6
6 6 6
4 4 4
1 1 1
5 5 5
8 8 8
5 5 5
6 6 6
4 4 4
6 6 6
6 6 6
4 4 4
3 3 3
3 3 3
3 3 3
3 3 3
12 12 12
16 16 16
23 23 23
20 20 20
18 18 18
6 6 6
27 27 27
12 12 12
5 5 5
2 2 2
2 2 2
2 2 2
2 2 2
0 0 0
0 0 0
2 2 2
2 2 2
2 2 2
2 2 2
2 2 2
2 2 2
0 0 0
0 0 0
0 0 0
4 4 4
6 6 6
3 3 3
0 0 0
4 4 4
0 0 0
0 0 0
10 10 10
4 4 4
5 5 5
16 16 16
5 5 5
7 7 7
4 4 4
2 2 2
3 3 3
6 6 6
5 5 5
4 4 4
4 4 4
4 4 4
6 6 6
4 4 4
4 4 4
4 4 4
22 22 22
28 28 28
12 12 12
18 18 18
21 21 21
11 11 11
20 20 20
15 15 15
9 9 9
2 2 2
2 2 2
2 2 2
2 2 2
2 2 2
0 0 0
0 0 0
2 2 2
2 2 2
2 2 2
2 2 2
2 2 2
2 2 2
2 2 2
1 1 1
0 0 0
3 3 3
6 6 6
3 3 3
0 0 0
3 3 3
0 0 0
0 0 0
6 6 6
2 2 2
5 5 5
2 2 2
18 18 18
6 6 6
3 3 3
3 3 3
5 5 5
2 2 2
6 6 6
4 4 4
5 5 5
4 4 4
4 4 4
7 7 7
9 9 9
21 21 21
18 18 18
12 12 12
22 22 22
9 9 9
15 15 15
14 14 14
42 42 42
16 16 16
2 2 2
2 2 2
2 2 2
2 2 2
2 2 2
2 2 2
0 0 0
0 0 0
2 2 2
2 2 2
2 2 2
2 2 2
2 2 2
2 2 2
2 2 2
2 2 2
1 1 1
4 4 4
6 6 6
3 3 3
0 0 0
3 3 3
0 0 0
0 0 0
5 5 5
3 3 3
2 2 2
3 3 3
3 3 3
16 16 16
9 9 9
4 4 4
1 1 1
5 5 5
3 3 3
6 6 6
5 5 5
8 8 8
13 13 13
18 18 18
22 22 22
2 2 2
15 15 15
26 26 26
24 24 24
5 5 5
5 5 5
15 15 15
9 9 9
2 2 2
2 2 2
2 2 2
2 2 2
2 2 2
2 2 2
2 2 2
0 0 0
0 0 0
2 2 2
2 2 2
2 2 2
2 2 2
2 2 2
2 2 2
2 2 2
2 2 2
2 2 2
3 3 3
5 5 5
1 1 1
0 0 0
3 3 3
0 0 0
0 0 0
3 3 3
5 5 5
4 4 4
4 4 4
2 2 2
3 3 3
15 15 15
3 3 3
2 2 2
10 10 10
12 12 12
14 14 14
9 9 9
15 15 15
10 10 10
12 12 12
13 13 13
5 5 5
22 22 22
25 25 25
13 13 13
12 12 12
11 11 11
5 5 5
2 2 2
2 2 2
2 2 2
2 2 2
2 2 2
2 2 2
2 2 2
2 2 2
0 0 0
0 0 0
2 2 2
2 2 2
2 2 2
2 2 2
2 2 2
2 2 2
2 2 2
2 2 2
2 2 2
2 2 2
3 3 3
1 1 1
0 0 0
2 2 2
1 1 1
0 0 0
3 3 3
6 6 6
4 4 4
5 5 5
3 3 3
4 4 4
1 1 1
3 3 3
5 5 5
9 9 9
4 4 4
6 6 6
13 13 13
9 9 9
11 11 11
7 7 7
15 15 15
29 29 29
13 13 13
21 21 21
20 20 20
14 14 14
2 2 2
2 2 2
2 2 2
2 2 2
2 2 2
2 2 2
2 2 2
2 2 2
2 2 2
2 2 2
0 0 0
0 0 0
2 2 2
2 2 2
2 2 2
2 2 2
2 2 2
2 2 2
2 2 2
2 2 2
2 2 2
2 2 2
2 2 2
2 2 2
0 0 0
3 3 3
1 1 1
0 0 0
3 3 3
6 6 6
3 3 3
1 1 1
2 2 2
3 3 3
4 4 4
3 3 3
4 4 4
9 9 9
5 5 5
8 8 8
10 10 10
13 13 13
12 12 12
14 14 14
24 24 24
11 11 11
18 18 18
23 23 23
4 4 4
2 2 2
2 2 2
2 2 2
2 2 2
2 2 2
2 2 2
2 2 2
2 2 2
2 2 2
2 2 2
2 2 2
0 0 0
0 0 0
2 2 2
2 2 2
2 2 2
2 2 2
2 2 2
2 2 2
2 2 2
2 2 2
2 2 2
2 2 2
2 2 2
2 2 2
2 2 2
2 2 2
1 1 1
0 0 0
3 3 3
5 5 5
1 1 1
2 2 2
3 3 3
3 3 3
2 2 2
1 1 1
6 6 6
18 18 18
9 9 9
9 9 9
6 6 6
5 5 5
12 12 12
12 12 12
15 15 15
25 25 25
4 4 4
2 2 2
2 2 2
2 2 2
2 2 2
2 2 2
2 2 2
2 2 2
2 2 2
2 2 2
2 2 2
2 2 2
2 2 2
2 2 2
0 0 0
0 0 0
2 2 2
2 2 2
2 2 2
2 2 2
2 2 2
2 2 2
2 2 2
2 2 2
2 2 2
2 2 2
2 2 2
2 2 2
2 2 2
2 2 2
2 2 2
2 2 2
2 2 2
4 4 4
2 2 2
3 3 3
5 5 5
4 4 4
3 3 3
3 3 3
8 8 8
8 8 8
3 3 3
12 12 12
2 2 2
7 7 7
9 9 9
12 12 12
2 2 2
2 2 2
2 2 2
2 2 2
2 2 2
2 2 2
2 2 2
2 2 2
2 2 2
2 2 2
2 2 2
2 2 2
2 2 2
2 2 2
2 2 2
2 2 2
0 0 0
0 0 0
0 0 0
0 0 0
0 0 0
0 0 0
0 0 0
0 0 0
0 0 0
0 0 0
0 0 0
0 0 0
0 0 0
0 0 0
0 0 0
0 0 0
0 0 0
0 0 0
0 0 0
0 0 0
0 0 0
0 0 0
0 0 0
0 0 0
0 0 0
0 0 0
0 0 0
0 0 0
0 0 0
0 0 0
0 0 0
0 0 0
0 0 0
0 0 0
0 0 0
0 0 0
0 0 0
0 0 0
0 0 0
0 0 0
0 0 0
0 0 0
0 0 0
0 0 0
0 0 0
0 0 0
0 0 0
0 0 0
0 0 0
0 0 0
0 0 0
