P3 
50 50 
255
0 0 0
0 0 0
0 0 0
0 0 0
0 0 0
0 0 0
0 0 0
0 0 0
0 0 0
0 0 0
0 0 0
0 0 0
0 0 0
0 0 0
0 0 0
0 0 0
0 0 0
0 0 0
0 0 0
0 0 0
0 0 0
0 0 0
0 0 0
0 0 0
0 0 0
0 0 0
0 0 0
0 0 0
0 0 0
0 0 0
0 0 0
0 0 0
0 0 0
0 0 0
0 0 0
0 0 0
0 0 0
0 0 0
0 0 0
0 0 0
0 0 0
0 0 0
0 0 0
0 0 0
0 0 0
0 0 0
0 0 0
0 0 0
0 0 0
0 0 0
0 0 0
2 2 2
2 2 2
2 2 2
2 2 2
2 2 2
2 2 2
2 2 2
2 2 2
2 2 2
2 2 2
2 2 2
2 2 2
2 2 2
2 2 2
2 2 2
2 2 2
2 2 2
1 1 1
2 2 2
14 14 14
4 4 4
4 4 4
4 4 4
4 4 4
5 5 5
5 5 5
6 6 6
5 5 5
7 7 7
10 10 10
9 9 9
4 4 4
2 2 2
2 2 2
2 2 2
2 2 2
2 2 2
2 2 2
2 2 2
2 2 2
2 2 2
2 2 2
2 2 2
2 2 2
2 2 2
2 2 2
2 2 2
2 2 2
0 0 0
0 0 0
2 2 2
2 2 2
2 2 2
2 2 2
2 2 2
2 2 2
2 2 2
2 2 2
2 2 2
2 2 2
2 2 2
2 2 2
2 2 2
2 2 2
1 1 1
1 1 1
1 1 1
3 3 3
11 11 11
3 3 3
4 4 4
4 4 4
4 4 4
4 4 4
5 5 5
4 4 4
4 4 4
10 10 10
10 10 10
11 11 11
10 10 10
18 18 18
21 21 21
16 16 16
2 2 2
2 2 2
2 2 2
2 2 2
2 2 2
2 2 2
2 2 2
2 2 2
2 2 2
2 2 2
2 2 2
2 2 2
2 2 2
2 2 2
0 0 0
0 0 0
2 2 2
2 2 2
2 2 2
2 2 2
2 2 2
2 2 2
2 2 2
2 2 2
2 2 2
2 2 2
2 2 2
2 2 2
1 1 1
1 1 1
1 1 1
1 1 1
8 8 8
6 6 6
4 4 4
4 4 4
4 4 4
4 4 4
4 4 4
4 4 4
3 3 3
17 17 17
19 19 19
9 9 9
6 6 6
7 7 7
8 8 8
18 18 18
17 17 17
7 7 7
14 14 14
19 19 19
2 2 2
2 2 2
2 2 2
2 2 2
2 2 2
2 2 2
2 2 2
2 2 2
2 2 2
2 2 2
2 2 2
2 2 2
0 0 0
0 0 0
2 2 2
2 2 2
2 2 2
2 2 2
2 2 2
2 2 2
2 2 2
2 2 2
2 2 2
2 2 2
1 1 1
1 1 1
1 1 1
0 0 0
2 2 2
15 15 15
5 5 5
3 3 3
4 4 4
4 4 4
4 4 4
4 4 4
5 5 5
3 3 3
10 10 10
15 15 15
20 20 20
21 21 21
19 19 19
17 17 17
8 8 8
28 28 28
4 4 4
6 6 6
16 16 16
21 21 21
14 14 14
10 10 10
2 2 2
2 2 2
2 2 2
2 2 2
2 2 2
2 2 2
2 2 2
2 2 2
2 2 2
2 2 2
0 0 0
0 0 0
2 2 2
2 2 2
2 2 2
2 2 2
2 2 2
2 2 2
2 2 2
2 2 2
2 2 2
1 1 1
1 1 1
1 1 1
1 1 1
11 11 11
8 8 8
3 3 3
3 3 3
4 4 4
3 3 3
5 5 5
4 4 4
4 4 4
8 8 8
12 12 12
19 19 19
46 46 46
85 85 85
86 86 86
81 81 81
83 83 83
85 85 85
85 85 85
84 84 84
83 83 83
77 77 77
59 59 59
16 16 16
9 9 9
12 12 12
2 2 2
2 2 2
2 2 2
2 2 2
2 2 2
2 2 2
2 2 2
2 2 2
2 2 2
0 0 0
0 0 0
2 2 2
2 2 2
2 2 2
2 2 2
2 2 2
2 2 2
2 2 2
2 2 2
1 1 1
1 1 1
1 1 1
2 2 2
3 3 3
5 5 5
3 3 3
4 4 4
4 4 4
3 3 3
3 3 3
6 6 6
11 11 11
34 34 34
50 50 50
85 85 85
89 89 89
113 113 113
180 180 180
189 189 189
177 177 177
168 168 168
158 158 158
162 162 162
166 166 166
173 173 173
183 183 183
147 147 147
90 90 90
25 25 25
13 13 13
12 12 12
4 4 4
2 2 2
2 2 2
2 2 2
2 2 2
2 2 2
2 2 2
2 2 2
0 0 0
0 0 0
2 2 2
2 2 2
2 2 2
2 2 2
2 2 2
2 2 2
2 2 2
1 1 1
1 1 1
1 1 1
2 2 2
3 3 3
4 4 4
3 3 3
5 5 5
5 5 5
3 3 3
5 5 5
10 10 10
47 47 47
87 87 87
89 89 89
91 91 91
131 131 131
195 195 195
176 176 176
157 157 157
110 110 110
100 100 100
97 97 97
93 93 93
90 90 90
97 97 97
124 124 124
170 170 170
170 170 170
170 170 170
178 178 178
75 75 75
17 17 17
10 10 10
9 9 9
2 2 2
2 2 2
2 2 2
2 2 2
2 2 2
2 2 2
0 0 0
0 0 0
2 2 2
2 2 2
2 2 2
2 2 2
2 2 2
2 2 2
1 1 1
1 1 1
1 1 1
2 2 2
3 3 3
4 4 4
4 4 4
4 4 4
4 4 4
3 3 3
24 24 24
73 73 73
87 87 87
89 89 89
95 95 95
157 157 157
183 183 183
163 163 163
163 163 163
94 94 94
87 87 87
87 87 87
87 87 87
86 86 86
87 87 87
87 87 87
86 86 86
87 87 87
88 88 88
98 98 98
167 167 167
165 165 165
179 179 179
107 107 107
25 25 25
20 20 20
6 6 6
2 2 2
2 2 2
2 2 2
2 2 2
2 2 2
0 0 0
0 0 0
2 2 2
2 2 2
2 2 2
2 2 2
2 2 2
1 1 1
1 1 1
1 1 1
2 2 2
2 2 2
4 4 4
5 5 5
5 5 5
5 5 5
7 7 7
59 59 59
87 87 87
90 90 90
101 101 101
164 164 164
179 179 179
161 161 161
123 123 123
90 90 90
86 86 86
86 86 86
87 87 87
87 87 87
87 87 87
87 87 87
87 87 87
86 86 86
87 87 87
87 87 87
88 88 88
88 88 88
88 88 88
114 114 114
168 168 168
177 177 177
120 120 120
38 38 38
55 55 55
2 2 2
2 2 2
2 2 2
2 2 2
2 2 2
0 0 0
0 0 0
2 2 2
2 2 2
2 2 2
2 2 2
2 2 2
1 1 1
1 1 1
2 2 2
2 2 2
4 4 4
5 5 5
9 9 9
50 50 50
79 79 79
85 85 85
87 87 87
118 118 118
164 164 164
146 146 146
127 127 127
93 93 93
86 86 86
86 86 86
87 87 87
86 86 86
87 87 87
87 87 87
86 86 86
86 86 86
87 87 87
87 87 87
87 87 87
87 87 87
87 87 87
88 88 88
88 88 88
87 87 87
88 88 88
90 90 90
166 166 166
178 178 178
151 151 151
41 41 41
29 29 29
2 2 2
2 2 2
2 2 2
2 2 2
0 0 0
0 0 0
2 2 2
2 2 2
2 2 2
2 2 2
1 1 1
1 1 1
3 3 3
2 2 2
2 2 2
3 3 3
6 6 6
133 133 133
181 181 181
78 78 78
95 95 95
129 129 129
120 120 120
126 126 126
93 93 93
86 86 86
85 85 85
85 85 85
86 86 86
87 87 87
87 87 87
87 87 87
86 86 86
87 87 87
87 87 87
87 87 87
87 87 87
87 87 87
88 88 88
88 88 88
87 87 87
88 88 88
88 88 88
88 88 88
89 89 89
106 106 106
163 163 163
190 190 190
95 95 95
55 55 55
23 23 23
2 2 2
2 2 2
2 2 2
0 0 0
0 0 0
2 2 2
2 2 2
2 2 2
1 1 1
1 1 1
2 2 2
2 2 2
2 2 2
2 2 2
0 0 0
56 56 56
183 183 183
152 152 152
164 164 164
141 141 141
88 88 88
93 93 93
90 90 90
86 86 86
86 86 86
87 87 87
86 86 86
86 86 86
86 86 86
86 86 86
86 86 86
87 87 87
86 86 86
86 86 86
87 87 87
87 87 87
87 87 87
88 88 88
87 87 87
88 88 88
88 88 88
88 88 88
88 88 88
87 87 87
87 87 87
164 164 164
162 162 162
183 183 183
48 48 48
21 21 21
7 7 7
2 2 2
2 2 2
0 0 0
0 0 0
2 2 2
2 2 2
1 1 1
0 0 0
2 2 2
1 1 1
1 1 1
1 1 1
2 2 2
1 1 1
83 83 83
80 80 80
85 85 85
79 79 79
142 142 142
88 88 88
90 90 90
86 86 86
86 86 86
86 86 86
86 86 86
87 87 87
87 87 87
87 87 87
86 86 86
87 87 87
88 88 88
86 86 86
87 87 87
86 86 86
87 87 87
86 86 86
87 87 87
87 87 87
88 88 88
88 88 88
88 88 88
88 88 88
88 88 88
88 88 88
90 90 90
168 168 168
184 184 184
84 84 84
24 24 24
91 91 91
2 2 2
2 2 2
0 0 0
0 0 0
2 2 2
2 2 2
0 0 0
2 2 2
1 1 1
1 1 1
1 1 1
3 3 3
3 3 3
20 20 20
89 89 89
86 86 86
86 86 86
78 78 78
105 105 105
97 97 97
87 87 87
85 85 85
87 87 87
86 86 86
87 87 87
87 87 87
87 87 87
86 86 86
87 87 87
87 87 87
88 88 88
87 87 87
87 87 87
87 87 87
86 86 86
87 87 87
87 87 87
87 87 87
88 88 88
88 88 88
88 88 88
88 88 88
88 88 88
88 88 88
88 88 88
121 121 121
149 149 149
99 99 99
43 43 43
83 83 83
5 5 5
2 2 2
0 0 0
0 0 0
2 2 2
1 1 1
2 2 2
2 2 2
1 1 1
2 2 2
3 3 3
4 4 4
2 2 2
91 91 91
87 87 87
86 86 86
88 88 88
85 85 85
94 94 94
137 137 137
85 85 85
86 86 86
87 87 87
87 87 87
87 87 87
87 87 87
87 87 87
87 87 87
87 87 87
87 87 87
87 87 87
87 87 87
87 87 87
87 87 87
87 87 87
86 86 86
86 86 86
87 87 87
87 87 87
87 87 87
87 87 87
88 88 88
88 88 88
88 88 88
88 88 88
89 89 89
166 166 166
105 105 105
60 60 60
64 64 64
26 26 26
2 2 2
0 0 0
0 0 0
2 2 2
0 0 0
1 1 1
2 2 2
2 2 2
3 3 3
3 3 3
4 4 4
3 3 3
86 86 86
86 86 86
88 88 88
86 86 86
81 81 81
93 93 93
118 118 118
85 85 85
86 86 86
86 86 86
87 87 87
87 87 87
87 87 87
88 88 88
88 88 88
87 87 87
87 87 87
87 87 87
86 86 86
87 87 87
87 87 87
86 86 86
85 85 85
86 86 86
87 87 87
86 86 86
88 88 88
87 87 87
88 88 88
88 88 88
88 88 88
88 88 88
88 88 88
172 172 172
145 145 145
55 55 55
46 46 46
17 17 17
3 3 3
0 0 0
0 0 0
2 2 2
1 1 1
1 1 1
2 2 2
2 2 2
3 3 3
3 3 3
2 2 2
2 2 2
86 86 86
86 86 86
81 81 81
77 77 77
78 78 78
114 114 114
86 86 86
85 85 85
86 86 86
86 86 86
86 86 86
87 87 87
87 87 87
87 87 87
87 87 87
87 87 87
87 87 87
87 87 87
87 87 87
88 88 88
87 87 87
86 86 86
85 85 85
87 87 87
87 87 87
87 87 87
87 87 87
88 88 88
88 88 88
87 87 87
88 88 88
88 88 88
88 88 88
173 173 173
194 194 194
71 71 71
34 34 34
17 17 17
21 21 21
0 0 0
0 0 0
1 1 1
1 1 1
1 1 1
1 1 1
2 2 2
2 2 2
3 3 3
3 3 3
2 2 2
89 89 89
90 90 90
86 86 86
84 84 84
119 119 119
87 87 87
86 86 86
86 86 86
86 86 86
87 87 87
86 86 86
87 87 87
87 87 87
87 87 87
87 87 87
87 87 87
87 87 87
87 87 87
87 87 87
87 87 87
87 87 87
85 85 85
86 86 86
87 87 87
87 87 87
88 88 88
87 87 87
88 88 88
88 88 88
88 88 88
88 88 88
88 88 88
90 90 90
168 168 168
194 194 194
84 84 84
29 29 29
16 16 16
22 22 22
0 0 0
0 0 0
2 2 2
2 2 2
2 2 2
2 2 2
2 2 2
2 2 2
2 2 2
2 2 2
18 18 18
148 148 148
53 53 53
4 4 4
11 11 11
94 94 94
86 86 86
86 86 86
86 86 86
86 86 86
87 87 87
87 87 87
86 86 86
87 87 87
86 86 86
87 87 87
87 87 87
87 87 87
87 87 87
87 87 87
86 86 86
86 86 86
86 86 86
86 86 86
87 87 87
87 87 87
87 87 87
88 88 88
87 87 87
87 87 87
88 88 88
88 88 88
88 88 88
91 91 91
155 155 155
185 185 185
81 81 81
28 28 28
16 16 16
15 15 15
0 0 0
0 0 0
2 2 2
2 2 2
2 2 2
1 1 1
1 1 1
2 2 2
1 1 1
31 31 31
106 106 106
159 159 159
17 17 17
84 84 84
118 118 118
114 114 114
85 85 85
85 85 85
85 85 85
86 86 86
86 86 86
86 86 86
87 87 87
85 85 85
86 86 86
86 86 86
85 85 85
87 87 87
87 87 87
86 86 86
86 86 86
85 85 85
86 86 86
87 87 87
87 87 87
87 87 87
88 88 88
87 87 87
87 87 87
88 88 88
88 88 88
88 88 88
87 87 87
89 89 89
157 157 157
191 191 191
76 76 76
28 28 28
18 18 18
15 15 15
0 0 0
0 0 0
1 1 1
1 1 1
1 1 1
2 2 2
1 1 1
2 2 2
3 3 3
75 75 75
109 109 109
179 179 179
59 59 59
70 70 70
100 100 100
110 110 110
86 86 86
87 87 87
86 86 86
87 87 87
86 86 86
87 87 87
87 87 87
87 87 87
87 87 87
87 87 87
87 87 87
87 87 87
87 87 87
86 86 86
87 87 87
87 87 87
86 86 86
86 86 86
87 87 87
87 87 87
88 88 88
87 87 87
87 87 87
88 88 88
88 88 88
88 88 88
88 88 88
88 88 88
156 156 156
193 193 193
63 63 63
33 33 33
20 20 20
15 15 15
0 0 0
0 0 0
2 2 2
1 1 1
1 1 1
0 0 0
1 1 1
1 1 1
0 0 0
0 0 0
44 44 44
181 181 181
10 10 10
28 28 28
4 4 4
94 94 94
87 87 87
87 87 87
87 87 87
87 87 87
87 87 87
87 87 87
87 87 87
87 87 87
87 87 87
87 87 87
87 87 87
87 87 87
87 87 87
87 87 87
87 87 87
87 87 87
86 86 86
86 86 86
87 87 87
87 87 87
87 87 87
87 87 87
87 87 87
88 88 88
88 88 88
88 88 88
88 88 88
87 87 87
140 140 140
180 180 180
60 60 60
39 39 39
20 20 20
15 15 15
0 0 0
0 0 0
1 1 1
1 1 1
1 1 1
2 2 2
1 1 1
0 0 0
1 1 1
1 1 1
0 0 0
88 88 88
119 119 119
103 103 103
96 96 96
113 113 113
114 114 114
87 87 87
86 86 86
87 87 87
87 87 87
87 87 87
87 87 87
87 87 87
88 88 88
87 87 87
87 87 87
87 87 87
87 87 87
87 87 87
87 87 87
87 87 87
87 87 87
87 87 87
86 86 86
87 87 87
87 87 87
87 87 87
88 88 88
88 88 88
88 88 88
88 88 88
88 88 88
88 88 88
157 157 157
172 172 172
53 53 53
47 47 47
22 22 22
15 15 15
0 0 0
0 0 0
2 2 2
1 1 1
1 1 1
1 1 1
0 0 0
1 1 1
1 1 1
2 2 2
1 1 1
74 74 74
83 83 83
85 85 85
79 79 79
77 77 77
85 85 85
93 93 93
86 86 86
86 86 86
87 87 87
87 87 87
87 87 87
86 86 86
87 87 87
87 87 87
87 87 87
87 87 87
87 87 87
87 87 87
87 87 87
87 87 87
87 87 87
86 86 86
86 86 86
87 87 87
87 87 87
88 88 88
88 88 88
87 87 87
88 88 88
88 88 88
88 88 88
89 89 89
159 159 159
157 157 157
49 49 49
55 55 55
21 21 21
13 13 13
0 0 0
0 0 0
1 1 1
2 2 2
1 1 1
1 1 1
1 1 1
1 1 1
1 1 1
2 2 2
2 2 2
22 22 22
87 87 87
86 86 86
88 88 88
84 84 84
86 86 86
121 121 121
99 99 99
87 87 87
87 87 87
87 87 87
87 87 87
87 87 87
87 87 87
87 87 87
88 88 88
88 88 88
87 87 87
88 88 88
87 87 87
87 87 87
87 87 87
87 87 87
87 87 87
87 87 87
87 87 87
87 87 87
88 88 88
88 88 88
88 88 88
88 88 88
88 88 88
133 133 133
167 167 167
109 109 109
46 46 46
58 58 58
21 21 21
13 13 13
0 0 0
0 0 0
1 1 1
0 0 0
0 0 0
1 1 1
1 1 1
2 2 2
2 2 2
1 1 1
2 2 2
9 9 9
91 91 91
85 85 85
86 86 86
88 88 88
80 80 80
128 128 128
118 118 118
86 86 86
87 87 87
87 87 87
86 86 86
87 87 87
87 87 87
87 87 87
87 87 87
87 87 87
87 87 87
87 87 87
87 87 87
87 87 87
87 87 87
87 87 87
87 87 87
87 87 87
87 87 87
87 87 87
88 88 88
87 87 87
87 87 87
88 88 88
90 90 90
170 170 170
189 189 189
86 86 86
38 38 38
47 47 47
19 19 19
15 15 15
0 0 0
0 0 0
1 1 1
0 0 0
0 0 0
0 0 0
1 1 1
1 1 1
2 2 2
2 2 2
4 4 4
1 1 1
87 87 87
87 87 87
85 85 85
86 86 86
82 82 82
132 132 132
129 129 129
93 93 93
86 86 86
87 87 87
86 86 86
87 87 87
87 87 87
87 87 87
87 87 87
87 87 87
87 87 87
87 87 87
87 87 87
87 87 87
87 87 87
87 87 87
87 87 87
87 87 87
87 87 87
87 87 87
88 88 88
88 88 88
88 88 88
88 88 88
160 160 160
169 169 169
180 180 180
51 51 51
39 39 39
34 34 34
18 18 18
16 16 16
0 0 0
0 0 0
0 0 0
1 1 1
2 2 2
1 1 1
0 0 0
0 0 0
1 1 1
2 2 2
4 4 4
4 4 4
16 16 16
89 89 89
84 84 84
80 80 80
121 121 121
149 149 149
129 129 129
119 119 119
85 85 85
87 87 87
86 86 86
86 86 86
86 86 86
86 86 86
86 86 86
86 86 86
86 86 86
87 87 87
87 87 87
87 87 87
87 87 87
86 86 86
87 87 87
87 87 87
87 87 87
88 88 88
88 88 88
88 88 88
87 87 87
103 103 103
174 174 174
200 200 200
85 85 85
43 43 43
46 46 46
23 23 23
15 15 15
14 14 14
0 0 0
0 0 0
2 2 2
2 2 2
2 2 2
2 2 2
1 1 1
1 1 1
1 1 1
0 0 0
0 0 0
2 2 2
1 1 1
104 104 104
97 97 97
136 136 136
144 144 144
129 129 129
150 150 150
130 130 130
106 106 106
85 85 85
86 86 86
87 87 87
87 87 87
87 87 87
86 86 86
87 87 87
87 87 87
87 87 87
87 87 87
87 87 87
87 87 87
87 87 87
87 87 87
87 87 87
87 87 87
88 88 88
88 88 88
88 88 88
89 89 89
175 175 175
179 179 179
121 121 121
49 49 49
37 37 37
47 47 47
19 19 19
14 14 14
15 15 15
0 0 0
0 0 0
2 2 2
3 3 3
3 3 3
2 2 2
3 3 3
2 2 2
2 2 2
2 2 2
1 1 1
2 2 2
0 0 0
61 61 61
209 209 209
151 151 151
81 81 81
84 84 84
87 87 87
142 142 142
192 192 192
103 103 103
86 86 86
87 87 87
87 87 87
87 87 87
87 87 87
88 88 88
87 87 87
87 87 87
87 87 87
87 87 87
87 87 87
87 87 87
88 88 88
87 87 87
87 87 87
87 87 87
87 87 87
121 121 121
176 176 176
186 186 186
108 108 108
64 64 64
31 31 31
35 35 35
51 51 51
22 22 22
12 12 12
14 14 14
0 0 0
0 0 0
2 2 2
3 3 3
3 3 3
3 3 3
3 3 3
3 3 3
2 2 2
2 2 2
3 3 3
3 3 3
2 2 2
0 0 0
27 27 27
52 52 52
76 76 76
83 83 83
85 85 85
86 86 86
133 133 133
181 181 181
136 136 136
89 89 89
88 88 88
87 87 87
87 87 87
87 87 87
88 88 88
87 87 87
87 87 87
87 87 87
87 87 87
88 88 88
87 87 87
88 88 88
87 87 87
95 95 95
161 161 161
176 176 176
188 188 188
94 94 94
56 56 56
14 14 14
21 21 21
25 25 25
24 24 24
29 29 29
13 13 13
18 18 18
0 0 0
0 0 0
2 2 2
3 3 3
3 3 3
3 3 3
2 2 2
3 3 3
3 3 3
3 3 3
3 3 3
3 3 3
3 3 3
0 0 0
0 0 0
1 1 1
3 3 3
3 3 3
5 5 5
49 49 49
86 86 86
90 90 90
151 151 151
186 186 186
164 164 164
114 114 114
92 92 92
88 88 88
88 88 88
87 87 87
87 87 87
87 87 87
87 87 87
88 88 88
87 87 87
88 88 88
135 135 135
173 173 173
181 181 181
194 194 194
84 84 84
49 49 49
22 22 22
17 17 17
26 26 26
22 22 22
10 10 10
43 43 43
13 13 13
27 27 27
0 0 0
0 0 0
2 2 2
3 3 3
3 3 3
2 2 2
3 3 3
3 3 3
3 3 3
3 3 3
3 3 3
3 3 3
3 3 3
2 2 2
3 3 3
3 3 3
4 4 4
4 4 4
3 3 3
3 3 3
1 1 1
29 29 29
82 82 82
92 92 92
148 148 148
191 191 191
175 175 175
165 165 165
159 159 159
167 167 167
147 147 147
134 134 134
126 126 126
160 160 160
160 160 160
172 172 172
185 185 185
191 191 191
101 101 101
83 83 83
14 14 14
16 16 16
20 20 20
16 16 16
15 15 15
36 36 36
9 9 9
63 63 63
12 12 12
2 2 2
0 0 0
0 0 0
2 2 2
2 2 2
3 3 3
3 3 3
2 2 2
3 3 3
3 3 3
3 3 3
3 3 3
3 3 3
3 3 3
3 3 3
3 3 3
3 3 3
3 3 3
4 4 4
5 5 5
4 4 4
3 3 3
2 2 2
1 1 1
5 5 5
36 36 36
78 78 78
105 105 105
166 166 166
200 200 200
202 202 202
196 196 196
196 196 196
190 190 190
180 180 180
144 144 144
107 107 107
78 78 78
53 53 53
17 17 17
14 14 14
8 8 8
13 13 13
14 14 14
29 29 29
23 23 23
45 45 45
9 9 9
79 79 79
21 21 21
2 2 2
0 0 0
0 0 0
2 2 2
2 2 2
1 1 1
1 1 1
1 1 1
2 2 2
2 2 2
2 2 2
3 3 3
3 3 3
3 3 3
3 3 3
3 3 3
3 3 3
3 3 3
4 4 4
4 4 4
5 5 5
3 3 3
3 3 3
3 3 3
3 3 3
2 2 2
2 2 2
9 9 9
25 25 25
28 28 28
16 16 16
19 19 19
18 18 18
26 26 26
24 24 24
6 6 6
2 2 2
3 3 3
4 4 4
7 7 7
30 30 30
28 28 28
21 21 21
17 17 17
25 25 25
18 18 18
34 34 34
11 11 11
77 77 77
8 8 8
2 2 2
0 0 0
0 0 0
2 2 2
2 2 2
1 1 1
1 1 1
1 1 1
2 2 2
1 1 1
1 1 1
2 2 2
3 3 3
3 3 3
3 3 3
3 3 3
3 3 3
3 3 3
3 3 3
4 4 4
4 4 4
3 3 3
2 2 2
2 2 2
3 3 3
3 3 3
3 3 3
2 2 2
4 4 4
8 8 8
9 9 9
6 6 6
3 3 3
1 1 1
1 1 1
3 3 3
3 3 3
4 4 4
5 5 5
6 6 6
26 26 26
23 23 23
9 9 9
24 24 24
17 17 17
32 32 32
16 16 16
14 14 14
64 64 64
2 2 2
2 2 2
0 0 0
0 0 0
2 2 2
2 2 2
2 2 2
1 1 1
1 1 1
1 1 1
1 1 1
1 1 1
1 1 1
1 1 1
1 1 1
3 3 3
3 3 3
3 3 3
3 3 3
3 3 3
4 4 4
4 4 4
4 4 4
3 3 3
3 3 3
4 4 4
5 5 5
4 4 4
3 3 3
3 3 3
3 3 3
4 4 4
4 4 4
3 3 3
3 3 3
2 2 2
4 4 4
4 4 4
5 5 5
6 6 6
6 6 6
17 17 17
30 30 30
26 26 26
25 25 25
33 33 33
40 40 40
11 11 11
18 18 18
10 10 10
2 2 2
2 2 2
0 0 0
0 0 0
2 2 2
2 2 2
2 2 2
1 1 1
1 1 1
1 1 1
1 1 1
1 1 1
1 1 1
1 1 1
2 2 2
1 1 1
1 1 1
3 3 3
3 3 3
3 3 3
4 4 4
3 3 3
4 4 4
4 4 4
5 5 5
4 4 4
4 4 4
4 4 4
4 4 4
5 5 5
4 4 4
4 4 4
4 4 4
5 5 5
3 3 3
3 3 3
5 5 5
4 4 4
5 5 5
9 9 9
9 9 9
20 20 20
24 24 24
35 35 35
23 23 23
26 26 26
52 52 52
14 14 14
37 37 37
2 2 2
2 2 2
2 2 2
0 0 0
0 0 0
2 2 2
2 2 2
2 2 2
2 2 2
1 1 1
1 1 1
1 1 1
1 1 1
1 1 1
1 1 1
1 1 1
2 2 2
1 1 1
1 1 1
2 2 2
3 3 3
3 3 3
4 4 4
3 3 3
4 4 4
4 4 4
4 4 4
4 4 4
4 4 4
5 5 5
6 6 6
4 4 4
4 4 4
4 4 4
5 5 5
5 5 5
5 5 5
5 5 5
5 5 5
5 5 5
5 5 5
7 7 7
16 16 16
24 24 24
24 24 24
15 15 15
26 26 26
42 42 42
15 15 15
2 2 2
2 2 2
2 2 2
2 2 2
0 0 0
0 0 0
2 2 2
2 2 2
2 2 2
2 2 2
2 2 2
1 1 1
1 1 1
1 1 1
1 1 1
1 1 1
1 1 1
1 1 1
1 1 1
2 2 2
2 2 2
2 2 2
2 2 2
3 3 3
3 3 3
4 4 4
4 4 4
4 4 4
4 4 4
4 4 4
4 4 4
4 4 4
4 4 4
4 4 4
4 4 4
4 4 4
4 4 4
5 5 5
5 5 5
5 5 5
4 4 4
6 6 6
13 13 13
17 17 17
12 12 12
24 24 24
25 25 25
37 37 37
16 16 16
5 5 5
2 2 2
2 2 2
2 2 2
2 2 2
0 0 0
0 0 0
2 2 2
2 2 2
2 2 2
2 2 2
2 2 2
2 2 2
1 1 1
1 1 1
2 2 2
1 1 1
1 1 1
2 2 2
1 1 1
1 1 1
1 1 1
1 1 1
1 1 1
2 2 2
2 2 2
3 3 3
4 4 4
3 3 3
4 4 4
4 4 4
4 4 4
4 4 4
4 4 4
4 4 4
4 4 4
4 4 4
4 4 4
4 4 4
5 5 5
7 7 7
8 8 8
6 6 6
16 16 16
17 17 17
21 21 21
23 23 23
18 18 18
58 58 58
11 11 11
2 2 2
2 2 2
2 2 2
2 2 2
2 2 2
0 0 0
0 0 0
2 2 2
2 2 2
2 2 2
2 2 2
2 2 2
2 2 2
2 2 2
2 2 2
1 1 1
1 1 1
2 2 2
1 1 1
2 2 2
1 1 1
2 2 2
1 1 1
1 1 1
1 1 1
1 1 1
2 2 2
2 2 2
2 2 2
3 3 3
4 4 4
4 4 4
4 4 4
4 4 4
4 4 4
4 4 4
4 4 4
3 3 3
4 4 4
7 7 7
7 7 7
6 6 6
12 12 12
19 19 19
22 22 22
27 27 27
29 29 29
34 34 34
29 29 29
2 2 2
2 2 2
2 2 2
2 2 2
2 2 2
2 2 2
0 0 0
0 0 0
2 2 2
2 2 2
2 2 2
2 2 2
2 2 2
2 2 2
2 2 2
2 2 2
1 1 1
1 1 1
1 1 1
1 1 1
1 1 1
1 1 1
1 1 1
1 1 1
1 1 1
1 1 1
2 2 2
2 2 2
2 2 2
2 2 2
2 2 2
2 2 2
2 2 2
3 3 3
2 2 2
3 3 3
3 3 3
3 3 3
3 3 3
3 3 3
3 3 3
3 3 3
12 12 12
14 14 14
15 15 15
9 9 9
31 31 31
30 30 30
13 13 13
2 2 2
2 2 2
2 2 2
2 2 2
2 2 2
2 2 2
2 2 2
0 0 0
0 0 0
2 2 2
2 2 2
2 2 2
2 2 2
2 2 2
2 2 2
2 2 2
2 2 2
2 2 2
1 1 1
1 1 1
1 1 1
1 1 1
1 1 1
1 1 1
1 1 1
1 1 1
1 1 1
1 1 1
1 1 1
2 2 2
2 2 2
2 2 2
2 2 2
3 3 3
3 3 3
3 3 3
7 7 7
4 4 4
6 6 6
4 4 4
3 3 3
3 3 3
5 5 5
13 13 13
5 5 5
9 9 9
18 18 18
31 31 31
6 6 6
2 2 2
2 2 2
2 2 2
2 2 2
2 2 2
2 2 2
2 2 2
2 2 2
0 0 0
0 0 0
2 2 2
2 2 2
2 2 2
2 2 2
2 2 2
2 2 2
2 2 2
2 2 2
2 2 2
2 2 2
1 1 1
1 1 1
1 1 1
1 1 1
1 1 1
1 1 1
1 1 1
1 1 1
1 1 1
1 1 1
1 1 1
2 2 2
3 3 3
2 2 2
2 2 2
2 2 2
3 3 3
5 5 5
2 2 2
8 8 8
6 6 6
5 5 5
4 4 4
8 8 8
10 10 10
9 9 9
28 28 28
33 33 33
2 2 2
2 2 2
2 2 2
2 2 2
2 2 2
2 2 2
2 2 2
2 2 2
2 2 2
2 2 2
0 0 0
0 0 0
2 2 2
2 2 2
2 2 2
2 2 2
2 2 2
2 2 2
2 2 2
2 2 2
2 2 2
2 2 2
2 2 2
2 2 2
1 1 1
1 1 1
1 1 1
1 1 1
1 1 1
1 1 1
1 1 1
1 1 1
1 1 1
2 2 2
2 2 2
2 2 2
2 2 2
2 2 2
9 9 9
2 2 2
3 3 3
9 9 9
8 8 8
11 11 11
9 9 9
13 13 13
13 13 13
26 26 26
4 4 4
2 2 2
2 2 2
2 2 2
2 2 2
2 2 2
2 2 2
2 2 2
2 2 2
2 2 2
2 2 2
2 2 2
0 0 0
0 0 0
2 2 2
2 2 2
2 2 2
2 2 2
2 2 2
2 2 2
2 2 2
2 2 2
2 2 2
2 2 2
2 2 2
2 2 2
2 2 2
2 2 2
0 0 0
1 1 1
1 1 1
1 1 1
1 1 1
1 1 1
1 1 1
2 2 2
2 2 2
2 2 2
2 2 2
3 3 3
8 8 8
9 9 9
6 6 6
7 7 7
4 4 4
12 12 12
16 16 16
23 23 23
4 4 4
2 2 2
2 2 2
2 2 2
2 2 2
2 2 2
2 2 2
2 2 2
2 2 2
2 2 2
2 2 2
2 2 2
2 2 2
2 2 2
0 0 0
0 0 0
2 2 2
2 2 2
2 2 2
2 2 2
2 2 2
2 2 2
2 2 2
2 2 2
2 2 2
2 2 2
2 2 2
2 2 2
2 2 2
2 2 2
2 2 2
2 2 2
1 1 1
0 0 0
1 1 1
1 1 1
1 1 1
1 1 1
2 2 2
2 2 2
2 2 2
2 2 2
12 12 12
18 18 18
5 5 5
5 5 5
7 7 7
19 19 19
2 2 2
2 2 2
2 2 2
2 2 2
2 2 2
2 2 2
2 2 2
2 2 2
2 2 2
2 2 2
2 2 2
2 2 2
2 2 2
2 2 2
2 2 2
2 2 2
0 0 0
0 0 0
0 0 0
0 0 0
0 0 0
0 0 0
0 0 0
0 0 0
0 0 0
0 0 0
0 0 0
0 0 0
0 0 0
0 0 0
0 0 0
0 0 0
0 0 0
0 0 0
0 0 0
0 0 0
0 0 0
0 0 0
0 0 0
0 0 0
0 0 0
0 0 0
0 0 0
0 0 0
0 0 0
0 0 0
0 0 0
0 0 0
0 0 0
0 0 0
0 0 0
0 0 0
0 0 0
0 0 0
0 0 0
0 0 0
0 0 0
0 0 0
0 0 0
0 0 0
0 0 0
0 0 0
0 0 0
0 0 0
0 0 0
0 0 0
0 0 0
