P3 
50 50 
255
0 0 0
0 0 0
0 0 0
0 0 0
0 0 0
0 0 0
0 0 0
0 0 0
0 0 0
0 0 0
0 0 0
0 0 0
0 0 0
0 0 0
0 0 0
0 0 0
0 0 0
0 0 0
0 0 0
0 0 0
0 0 0
0 0 0
0 0 0
0 0 0
0 0 0
0 0 0
0 0 0
0 0 0
0 0 0
0 0 0
0 0 0
0 0 0
0 0 0
0 0 0
0 0 0
0 0 0
0 0 0
0 0 0
0 0 0
0 0 0
0 0 0
0 0 0
0 0 0
0 0 0
0 0 0
0 0 0
0 0 0
0 0 0
0 0 0
0 0 0
0 0 0
2 2 2
2 2 2
2 2 2
2 2 2
2 2 2
2 2 2
2 2 2
2 2 2
2 2 2
2 2 2
2 2 2
2 2 2
2 2 2
2 2 2
2 2 2
2 2 2
1 1 1
0 0 0
5 5 5
5 5 5
2 2 2
2 2 2
3 3 3
4 4 4
3 3 3
3 3 3
2 2 2
4 4 4
6 6 6
12 12 12
9 9 9
3 3 3
2 2 2
2 2 2
2 2 2
2 2 2
2 2 2
2 2 2
2 2 2
2 2 2
2 2 2
2 2 2
2 2 2
2 2 2
2 2 2
2 2 2
2 2 2
2 2 2
0 0 0
0 0 0
2 2 2
2 2 2
2 2 2
2 2 2
2 2 2
2 2 2
2 2 2
2 2 2
2 2 2
2 2 2
2 2 2
2 2 2
2 2 2
2 2 2
0 0 0
0 0 0
1 1 1
1 1 1
2 2 2
1 1 1
2 2 2
3 3 3
3 3 3
4 4 4
4 4 4
3 3 3
2 2 2
3 3 3
11 11 11
10 10 10
13 13 13
6 6 6
7 7 7
11 11 11
2 2 2
2 2 2
2 2 2
2 2 2
2 2 2
2 2 2
2 2 2
2 2 2
2 2 2
2 2 2
2 2 2
2 2 2
2 2 2
2 2 2
0 0 0
0 0 0
2 2 2
2 2 2
2 2 2
2 2 2
2 2 2
2 2 2
2 2 2
2 2 2
2 2 2
2 2 2
2 2 2
2 2 2
1 1 1
0 0 0
1 1 1
2 2 2
2 2 2
2 2 2
1 1 1
2 2 2
2 2 2
1 1 1
1 1 1
2 2 2
0 0 0
2 2 2
14 14 14
24 24 24
7 7 7
14 14 14
12 12 12
13 13 13
14 14 14
13 13 13
13 13 13
13 13 13
2 2 2
2 2 2
2 2 2
2 2 2
2 2 2
2 2 2
2 2 2
2 2 2
2 2 2
2 2 2
2 2 2
2 2 2
0 0 0
0 0 0
2 2 2
2 2 2
2 2 2
2 2 2
2 2 2
2 2 2
2 2 2
2 2 2
2 2 2
2 2 2
1 1 1
1 1 1
2 2 2
2 2 2
2 2 2
3 3 3
3 3 3
3 3 3
2 2 2
3 3 3
3 3 3
1 1 1
3 3 3
8 8 8
14 14 14
12 12 12
20 20 20
22 22 22
20 20 20
30 30 30
17 17 17
14 14 14
11 11 11
7 7 7
9 9 9
15 15 15
13 13 13
7 7 7
2 2 2
2 2 2
2 2 2
2 2 2
2 2 2
2 2 2
2 2 2
2 2 2
2 2 2
2 2 2
0 0 0
0 0 0
2 2 2
2 2 2
2 2 2
2 2 2
2 2 2
2 2 2
2 2 2
2 2 2
2 2 2
1 1 1
2 2 2
2 2 2
2 2 2
3 3 3
2 2 2
3 3 3
3 3 3
3 3 3
3 3 3
3 3 3
2 2 2
4 4 4
12 12 12
8 8 8
3 3 3
5 5 5
4 4 4
0 0 0
78 78 78
67 67 67
90 90 90
7 7 7
7 7 7
10 10 10
6 6 6
4 4 4
11 11 11
7 7 7
10 10 10
2 2 2
2 2 2
2 2 2
2 2 2
2 2 2
2 2 2
2 2 2
2 2 2
2 2 2
0 0 0
0 0 0
2 2 2
2 2 2
2 2 2
2 2 2
2 2 2
2 2 2
2 2 2
2 2 2
1 1 1
3 3 3
2 2 2
3 3 3
3 3 3
3 3 3
4 4 4
3 3 3
4 4 4
3 3 3
3 3 3
1 1 1
20 20 20
84 84 84
88 88 88
44 44 44
40 40 40
76 76 76
63 63 63
41 41 41
86 86 86
36 36 36
28 28 28
20 20 20
12 12 12
8 8 8
4 4 4
10 10 10
5 5 5
6 6 6
15 15 15
9 9 9
4 4 4
2 2 2
2 2 2
2 2 2
2 2 2
2 2 2
2 2 2
2 2 2
0 0 0
0 0 0
2 2 2
2 2 2
2 2 2
2 2 2
2 2 2
2 2 2
2 2 2
2 2 2
2 2 2
2 2 2
2 2 2
3 3 3
4 4 4
3 3 3
3 3 3
2 2 2
1 1 1
1 1 1
3 3 3
40 40 40
82 82 82
84 84 84
86 86 86
0 0 0
88 88 88
88 88 88
92 92 92
104 104 104
121 121 121
101 101 101
87 87 87
84 84 84
75 75 75
26 26 26
7 7 7
6 6 6
14 14 14
10 10 10
5 5 5
7 7 7
18 18 18
10 10 10
2 2 2
2 2 2
2 2 2
2 2 2
2 2 2
2 2 2
0 0 0
0 0 0
2 2 2
2 2 2
2 2 2
2 2 2
2 2 2
2 2 2
2 2 2
3 3 3
2 2 2
4 4 4
4 4 4
3 3 3
2 2 2
3 3 3
76 76 76
80 80 80
80 80 80
80 80 80
81 81 81
78 78 78
84 84 84
89 89 89
78 78 78
1 1 1
91 91 91
188 188 188
149 149 149
128 128 128
67 67 67
191 191 191
202 202 202
188 188 188
141 141 141
104 104 104
61 61 61
16 16 16
9 9 9
6 6 6
5 5 5
9 9 9
13 13 13
47 47 47
4 4 4
2 2 2
2 2 2
2 2 2
2 2 2
2 2 2
0 0 0
0 0 0
2 2 2
2 2 2
2 2 2
2 2 2
2 2 2
2 2 2
2 2 2
1 1 1
2 2 2
2 2 2
3 3 3
2 2 2
22 22 22
74 74 74
79 79 79
81 81 81
83 83 83
81 81 81
80 80 80
85 85 85
129 129 129
96 96 96
89 89 89
7 7 7
141 141 141
102 102 102
73 73 73
45 45 45
141 141 141
152 152 152
177 177 177
196 196 196
200 200 200
205 205 205
153 153 153
89 89 89
49 49 49
24 24 24
7 7 7
4 4 4
13 13 13
21 21 21
23 23 23
2 2 2
2 2 2
2 2 2
2 2 2
2 2 2
0 0 0
0 0 0
2 2 2
2 2 2
2 2 2
2 2 2
3 3 3
2 2 2
2 2 2
1 1 1
0 0 0
21 21 21
71 71 71
78 78 78
77 77 77
80 80 80
87 87 87
88 88 88
86 86 86
86 86 86
86 86 86
91 91 91
129 129 129
104 104 104
123 123 123
48 48 48
163 163 163
30 30 30
80 80 80
154 154 154
90 90 90
91 91 91
94 94 94
94 94 94
140 140 140
178 178 178
189 189 189
211 211 211
126 126 126
83 83 83
34 34 34
16 16 16
10 10 10
8 8 8
50 50 50
19 19 19
2 2 2
2 2 2
2 2 2
2 2 2
0 0 0
0 0 0
2 2 2
2 2 2
2 2 2
2 2 2
3 3 3
3 3 3
3 3 3
0 0 0
48 48 48
77 77 77
77 77 77
79 79 79
86 86 86
88 88 88
87 87 87
91 91 91
86 86 86
85 85 85
81 81 81
85 85 85
86 86 86
142 142 142
87 87 87
201 201 201
179 179 179
40 40 40
120 120 120
91 91 91
87 87 87
87 87 87
87 87 87
87 87 87
89 89 89
97 97 97
161 161 161
180 180 180
205 205 205
140 140 140
88 88 88
31 31 31
7 7 7
6 6 6
21 21 21
16 16 16
20 20 20
2 2 2
2 2 2
2 2 2
0 0 0
0 0 0
2 2 2
2 2 2
2 2 2
3 3 3
3 3 3
3 3 3
4 4 4
3 3 3
78 78 78
75 75 75
79 79 79
87 87 87
85 85 85
81 81 81
153 153 153
108 108 108
84 84 84
80 80 80
84 84 84
87 87 87
87 87 87
84 84 84
89 89 89
173 173 173
123 123 123
110 110 110
124 124 124
86 86 86
86 86 86
87 87 87
88 88 88
88 88 88
87 87 87
89 89 89
97 97 97
151 151 151
180 180 180
189 189 189
159 159 159
86 86 86
39 39 39
14 14 14
7 7 7
30 30 30
17 17 17
7 7 7
2 2 2
2 2 2
0 0 0
0 0 0
2 2 2
2 2 2
2 2 2
3 3 3
3 3 3
3 3 3
2 2 2
36 36 36
76 76 76
76 76 76
96 96 96
84 84 84
78 78 78
76 76 76
84 84 84
87 87 87
85 85 85
81 81 81
87 87 87
86 86 86
85 85 85
85 85 85
190 190 190
148 148 148
127 127 127
79 79 79
91 91 91
86 86 86
88 88 88
88 88 88
88 88 88
88 88 88
88 88 88
87 87 87
90 90 90
92 92 92
96 96 96
126 126 126
198 198 198
139 139 139
85 85 85
40 40 40
8 8 8
52 52 52
15 15 15
90 90 90
2 2 2
2 2 2
0 0 0
0 0 0
2 2 2
2 2 2
2 2 2
2 2 2
3 3 3
3 3 3
1 1 1
61 61 61
75 75 75
76 76 76
95 95 95
88 88 88
76 76 76
76 76 76
77 77 77
83 83 83
83 83 83
86 86 86
86 86 86
84 84 84
87 87 87
134 134 134
134 134 134
150 150 150
93 93 93
135 135 135
88 88 88
86 86 86
87 87 87
88 88 88
88 88 88
88 88 88
88 88 88
88 88 88
87 87 87
88 88 88
86 86 86
91 91 91
142 142 142
204 204 204
127 127 127
81 81 81
13 13 13
47 47 47
13 13 13
78 78 78
5 5 5
2 2 2
0 0 0
0 0 0
2 2 2
1 1 1
1 1 1
2 2 2
2 2 2
3 3 3
1 1 1
65 65 65
75 75 75
77 77 77
133 133 133
74 74 74
75 75 75
95 95 95
85 85 85
81 81 81
85 85 85
87 87 87
84 84 84
81 81 81
83 83 83
89 89 89
90 90 90
90 90 90
92 92 92
91 91 91
87 87 87
87 87 87
87 87 87
87 87 87
87 87 87
88 88 88
88 88 88
87 87 87
87 87 87
88 88 88
87 87 87
87 87 87
88 88 88
160 160 160
204 204 204
106 106 106
50 50 50
29 29 29
12 12 12
57 57 57
24 24 24
2 2 2
0 0 0
0 0 0
2 2 2
1 1 1
2 2 2
2 2 2
2 2 2
2 2 2
1 1 1
56 56 56
83 83 83
78 78 78
25 25 25
3 3 3
0 0 0
0 0 0
26 26 26
87 87 87
83 83 83
93 93 93
80 80 80
85 85 85
86 86 86
91 91 91
89 89 89
124 124 124
150 150 150
87 87 87
87 87 87
88 88 88
88 88 88
87 87 87
88 88 88
87 87 87
88 88 88
89 89 89
88 88 88
88 88 88
87 87 87
87 87 87
86 86 86
101 101 101
189 189 189
170 170 170
65 65 65
24 24 24
11 11 11
38 38 38
16 16 16
3 3 3
0 0 0
0 0 0
1 1 1
1 1 1
1 1 1
2 2 2
2 2 2
1 1 1
4 4 4
86 86 86
81 81 81
86 86 86
0 0 0
1 1 1
2 2 2
0 0 0
63 63 63
132 132 132
85 85 85
85 85 85
84 84 84
88 88 88
86 86 86
88 88 88
90 90 90
118 118 118
114 114 114
88 88 88
88 88 88
87 87 87
87 87 87
88 88 88
87 87 87
87 87 87
88 88 88
87 87 87
88 88 88
87 87 87
90 90 90
88 88 88
95 95 95
150 150 150
182 182 182
187 187 187
80 80 80
16 16 16
12 12 12
25 25 25
14 14 14
17 17 17
0 0 0
0 0 0
1 1 1
1 1 1
1 1 1
2 2 2
1 1 1
4 4 4
77 77 77
88 88 88
137 137 137
103 103 103
37 37 37
52 52 52
62 62 62
25 25 25
16 16 16
89 89 89
97 97 97
82 82 82
82 82 82
86 86 86
89 89 89
91 91 91
114 114 114
92 92 92
135 135 135
85 85 85
88 88 88
87 87 87
88 88 88
87 87 87
88 88 88
88 88 88
87 87 87
88 88 88
87 87 87
87 87 87
90 90 90
92 92 92
110 110 110
160 160 160
179 179 179
188 188 188
84 84 84
9 9 9
14 14 14
17 17 17
14 14 14
17 17 17
0 0 0
0 0 0
1 1 1
1 1 1
2 2 2
2 2 2
2 2 2
79 79 79
86 86 86
115 115 115
105 105 105
130 130 130
96 96 96
33 33 33
17 17 17
11 11 11
36 36 36
42 42 42
2 2 2
0 0 0
0 0 0
9 9 9
89 89 89
91 91 91
132 132 132
107 107 107
85 85 85
86 86 86
87 87 87
87 87 87
87 87 87
88 88 88
87 87 87
88 88 88
87 87 87
87 87 87
88 88 88
86 86 86
88 88 88
118 118 118
163 163 163
156 156 156
164 164 164
195 195 195
87 87 87
14 14 14
15 15 15
13 13 13
12 12 12
12 12 12
0 0 0
0 0 0
1 1 1
0 0 0
1 1 1
1 1 1
76 76 76
87 87 87
86 86 86
114 114 114
123 123 123
113 113 113
100 100 100
84 84 84
43 43 43
14 14 14
2 2 2
1 1 1
2 2 2
3 3 3
2 2 2
1 1 1
27 27 27
122 122 122
118 118 118
87 87 87
85 85 85
87 87 87
87 87 87
86 86 86
87 87 87
87 87 87
87 87 87
87 87 87
88 88 88
87 87 87
89 89 89
89 89 89
107 107 107
140 140 140
168 168 168
165 165 165
165 165 165
195 195 195
87 87 87
15 15 15
12 12 12
10 10 10
17 17 17
11 11 11
0 0 0
0 0 0
1 1 1
0 0 0
1 1 1
0 0 0
77 77 77
88 88 88
107 107 107
108 108 108
126 126 126
129 129 129
131 131 131
141 141 141
136 136 136
112 112 112
80 80 80
39 39 39
3 3 3
3 3 3
2 2 2
1 1 1
19 19 19
106 106 106
124 124 124
86 86 86
85 85 85
88 88 88
87 87 87
87 87 87
86 86 86
88 88 88
87 87 87
88 88 88
88 88 88
89 89 89
87 87 87
87 87 87
90 90 90
100 100 100
103 103 103
171 171 171
171 171 171
191 191 191
83 83 83
19 19 19
10 10 10
10 10 10
20 20 20
13 13 13
0 0 0
0 0 0
1 1 1
0 0 0
1 1 1
1 1 1
64 64 64
85 85 85
92 92 92
111 111 111
126 126 126
124 124 124
135 135 135
105 105 105
59 59 59
13 13 13
8 8 8
7 7 7
4 4 4
2 2 2
2 2 2
0 0 0
88 88 88
90 90 90
131 131 131
106 106 106
84 84 84
87 87 87
87 87 87
87 87 87
88 88 88
88 88 88
87 87 87
88 88 88
89 89 89
88 88 88
88 88 88
88 88 88
90 90 90
89 89 89
101 101 101
168 168 168
186 186 186
182 182 182
81 81 81
25 25 25
12 12 12
10 10 10
23 23 23
14 14 14
0 0 0
0 0 0
1 1 1
0 0 0
1 1 1
1 1 1
0 0 0
76 76 76
86 86 86
119 119 119
101 101 101
130 130 130
94 94 94
56 56 56
25 25 25
18 18 18
22 22 22
26 26 26
3 3 3
35 35 35
22 22 22
88 88 88
87 87 87
90 90 90
89 89 89
104 104 104
145 145 145
85 85 85
86 86 86
87 87 87
87 87 87
87 87 87
87 87 87
88 88 88
87 87 87
87 87 87
88 88 88
88 88 88
89 89 89
90 90 90
106 106 106
163 163 163
200 200 200
172 172 172
63 63 63
20 20 20
11 11 11
10 10 10
26 26 26
13 13 13
0 0 0
0 0 0
1 1 1
0 0 0
0 0 0
1 1 1
0 0 0
10 10 10
84 84 84
88 88 88
162 162 162
109 109 109
124 124 124
108 108 108
60 60 60
38 38 38
43 43 43
89 89 89
119 119 119
89 89 89
36 36 36
89 89 89
87 87 87
88 88 88
89 89 89
105 105 105
104 104 104
160 160 160
86 86 86
86 86 86
87 87 87
87 87 87
87 87 87
87 87 87
88 88 88
88 88 88
88 88 88
88 88 88
90 90 90
93 93 93
111 111 111
183 183 183
214 214 214
119 119 119
26 26 26
21 21 21
12 12 12
10 10 10
26 26 26
12 12 12
0 0 0
0 0 0
1 1 1
1 1 1
1 1 1
1 1 1
2 2 2
0 0 0
28 28 28
85 85 85
78 78 78
90 90 90
67 67 67
0 0 0
1 1 1
1 1 1
13 13 13
124 124 124
104 104 104
95 95 95
83 83 83
87 87 87
87 87 87
86 86 86
91 91 91
89 89 89
145 145 145
100 100 100
87 87 87
87 87 87
87 87 87
88 88 88
87 87 87
88 88 88
88 88 88
88 88 88
88 88 88
88 88 88
90 90 90
95 95 95
108 108 108
207 207 207
169 169 169
81 81 81
11 11 11
15 15 15
15 15 15
10 10 10
24 24 24
13 13 13
0 0 0
0 0 0
1 1 1
0 0 0
1 1 1
0 0 0
1 1 1
1 1 1
0 0 0
79 79 79
77 77 77
75 75 75
115 115 115
5 5 5
2 2 2
0 0 0
36 36 36
85 85 85
86 86 86
86 86 86
84 84 84
86 86 86
85 85 85
82 82 82
90 90 90
90 90 90
90 90 90
99 99 99
88 88 88
87 87 87
88 88 88
87 87 87
88 88 88
88 88 88
88 88 88
87 87 87
87 87 87
88 88 88
91 91 91
126 126 126
173 173 173
192 192 192
86 86 86
41 41 41
16 16 16
18 18 18
19 19 19
9 9 9
23 23 23
14 14 14
0 0 0
0 0 0
1 1 1
1 1 1
1 1 1
0 0 0
1 1 1
1 1 1
1 1 1
56 56 56
76 76 76
77 77 77
79 79 79
134 134 134
97 97 97
91 91 91
79 79 79
79 79 79
88 88 88
87 87 87
87 87 87
86 86 86
83 83 83
84 84 84
84 84 84
91 91 91
92 92 92
116 116 116
134 134 134
85 85 85
87 87 87
88 88 88
88 88 88
88 88 88
89 89 89
88 88 88
88 88 88
92 92 92
139 139 139
190 190 190
207 207 207
92 92 92
65 65 65
19 19 19
24 24 24
27 27 27
20 20 20
10 10 10
21 21 21
14 14 14
0 0 0
0 0 0
1 1 1
1 1 1
1 1 1
1 1 1
2 2 2
2 2 2
2 2 2
5 5 5
78 78 78
74 74 74
76 76 76
86 86 86
81 81 81
79 79 79
77 77 77
78 78 78
87 87 87
81 81 81
87 87 87
88 88 88
89 89 89
82 82 82
95 95 95
186 186 186
132 132 132
88 88 88
117 117 117
87 87 87
87 87 87
88 88 88
88 88 88
87 87 87
88 88 88
88 88 88
90 90 90
162 162 162
194 194 194
207 207 207
104 104 104
71 71 71
37 37 37
13 13 13
18 18 18
24 24 24
20 20 20
11 11 11
18 18 18
13 13 13
0 0 0
0 0 0
0 0 0
1 1 1
1 1 1
1 1 1
1 1 1
1 1 1
1 1 1
0 0 0
60 60 60
76 76 76
76 76 76
83 83 83
80 80 80
80 80 80
84 84 84
115 115 115
93 93 93
85 85 85
83 83 83
88 88 88
88 88 88
88 88 88
80 80 80
130 130 130
212 212 212
200 200 200
117 117 117
91 91 91
89 89 89
88 88 88
89 89 89
88 88 88
88 88 88
87 87 87
168 168 168
187 187 187
212 212 212
100 100 100
79 79 79
31 31 31
24 24 24
17 17 17
26 26 26
21 21 21
16 16 16
13 13 13
17 17 17
14 14 14
0 0 0
0 0 0
1 1 1
1 1 1
1 1 1
1 1 1
1 1 1
1 1 1
2 2 2
2 2 2
0 0 0
69 69 69
76 76 76
77 77 77
88 88 88
86 86 86
85 85 85
88 88 88
101 101 101
94 94 94
84 84 84
93 93 93
130 130 130
130 130 130
108 108 108
168 168 168
208 208 208
40 40 40
39 39 39
134 134 134
124 124 124
144 144 144
155 155 155
169 169 169
167 167 167
174 174 174
208 208 208
197 197 197
88 88 88
40 40 40
20 20 20
12 12 12
12 12 12
20 20 20
17 17 17
29 29 29
11 11 11
18 18 18
13 13 13
14 14 14
0 0 0
0 0 0
1 1 1
1 1 1
1 1 1
2 2 2
1 1 1
1 1 1
1 1 1
2 2 2
1 1 1
0 0 0
51 51 51
76 76 76
78 78 78
84 84 84
89 89 89
89 89 89
88 88 88
87 87 87
85 85 85
82 82 82
96 96 96
128 128 128
91 91 91
87 87 87
69 69 69
102 102 102
73 73 73
80 80 80
48 48 48
35 35 35
182 182 182
203 203 203
210 210 210
213 213 213
130 130 130
80 80 80
21 21 21
15 15 15
20 20 20
12 12 12
31 31 31
16 16 16
15 15 15
30 30 30
9 9 9
23 23 23
13 13 13
18 18 18
0 0 0
0 0 0
2 2 2
1 1 1
2 2 2
1 1 1
1 1 1
1 1 1
1 1 1
1 1 1
2 2 2
1 1 1
0 0 0
21 21 21
79 79 79
76 76 76
76 76 76
78 78 78
81 81 81
79 79 79
76 76 76
78 78 78
79 79 79
87 87 87
92 92 92
33 33 33
8 8 8
129 129 129
169 169 169
79 79 79
69 69 69
27 27 27
72 72 72
213 213 213
140 140 140
86 86 86
40 40 40
4 4 4
11 11 11
6 6 6
21 21 21
15 15 15
25 25 25
14 14 14
22 22 22
38 38 38
9 9 9
35 35 35
14 14 14
29 29 29
0 0 0
0 0 0
2 2 2
2 2 2
2 2 2
2 2 2
1 1 1
2 2 2
1 1 1
1 1 1
1 1 1
2 2 2
2 2 2
1 1 1
0 0 0
33 33 33
78 78 78
79 79 79
79 79 79
79 79 79
79 79 79
79 79 79
79 79 79
81 81 81
92 92 92
2 2 2
12 12 12
88 88 88
89 89 89
106 106 106
131 131 131
124 124 124
91 91 91
82 82 82
58 58 58
5 5 5
3 3 3
4 4 4
4 4 4
9 9 9
15 15 15
16 16 16
21 21 21
21 21 21
28 28 28
52 52 52
9 9 9
52 52 52
12 12 12
2 2 2
0 0 0
0 0 0
2 2 2
1 1 1
1 1 1
1 1 1
3 3 3
3 3 3
3 3 3
1 1 1
1 1 1
1 1 1
1 1 1
2 2 2
1 1 1
1 1 1
0 0 0
0 0 0
1 1 1
1 1 1
1 1 1
1 1 1
14 14 14
77 77 77
85 85 85
71 71 71
0 0 0
89 89 89
65 65 65
48 48 48
84 84 84
2 2 2
11 11 11
0 0 0
0 0 0
3 3 3
3 3 3
4 4 4
7 7 7
14 14 14
12 12 12
13 13 13
18 18 18
20 20 20
28 28 28
21 21 21
10 10 10
74 74 74
22 22 22
2 2 2
0 0 0
0 0 0
2 2 2
2 2 2
1 1 1
2 2 2
3 3 3
3 3 3
3 3 3
3 3 3
1 1 1
1 1 1
2 2 2
1 1 1
1 1 1
2 2 2
2 2 2
2 2 2
2 2 2
2 2 2
3 3 3
2 2 2
1 1 1
1 1 1
8 8 8
64 64 64
1 1 1
9 9 9
1 1 1
1 1 1
70 70 70
85 85 85
46 46 46
3 3 3
4 4 4
3 3 3
4 4 4
11 11 11
3 3 3
6 6 6
14 14 14
14 14 14
11 11 11
25 25 25
12 12 12
7 7 7
11 11 11
82 82 82
9 9 9
2 2 2
0 0 0
0 0 0
2 2 2
2 2 2
1 1 1
1 1 1
2 2 2
2 2 2
3 3 3
3 3 3
2 2 2
1 1 1
1 1 1
1 1 1
2 2 2
2 2 2
2 2 2
2 2 2
2 2 2
2 2 2
2 2 2
3 3 3
2 2 2
1 1 1
2 2 2
2 2 2
1 1 1
0 0 0
2 2 2
1 1 1
70 70 70
55 55 55
4 4 4
4 4 4
5 5 5
5 5 5
4 4 4
5 5 5
6 6 6
16 16 16
9 9 9
12 12 12
16 16 16
11 11 11
42 42 42
9 9 9
13 13 13
73 73 73
2 2 2
2 2 2
0 0 0
0 0 0
2 2 2
2 2 2
2 2 2
1 1 1
2 2 2
3 3 3
3 3 3
3 3 3
2 2 2
2 2 2
2 2 2
2 2 2
3 3 3
3 3 3
3 3 3
2 2 2
2 2 2
2 2 2
3 3 3
3 3 3
3 3 3
3 3 3
2 2 2
2 2 2
2 2 2
0 0 0
3 3 3
1 1 1
0 0 0
3 3 3
4 4 4
5 5 5
4 4 4
5 5 5
5 5 5
5 5 5
13 13 13
17 17 17
14 14 14
8 8 8
14 14 14
9 9 9
37 37 37
11 11 11
16 16 16
11 11 11
2 2 2
2 2 2
0 0 0
0 0 0
2 2 2
2 2 2
2 2 2
2 2 2
1 1 1
2 2 2
3 3 3
3 3 3
2 2 2
3 3 3
3 3 3
2 2 2
3 3 3
3 3 3
3 3 3
3 3 3
4 4 4
3 3 3
3 3 3
3 3 3
3 3 3
3 3 3
3 3 3
2 2 2
1 1 1
2 2 2
1 1 1
1 1 1
3 3 3
4 4 4
4 4 4
5 5 5
5 5 5
5 5 5
4 4 4
4 4 4
8 8 8
16 16 16
16 16 16
18 18 18
6 6 6
14 14 14
13 13 13
13 13 13
34 34 34
2 2 2
2 2 2
2 2 2
0 0 0
0 0 0
2 2 2
2 2 2
2 2 2
2 2 2
1 1 1
2 2 2
3 3 3
3 3 3
3 3 3
3 3 3
3 3 3
3 3 3
3 3 3
3 3 3
3 3 3
2 2 2
3 3 3
3 3 3
3 3 3
4 4 4
4 4 4
4 4 4
3 3 3
2 2 2
2 2 2
2 2 2
2 2 2
4 4 4
3 3 3
4 4 4
3 3 3
5 5 5
5 5 5
5 5 5
4 4 4
4 4 4
10 10 10
24 24 24
8 8 8
14 14 14
24 24 24
31 31 31
11 11 11
16 16 16
2 2 2
2 2 2
2 2 2
2 2 2
0 0 0
0 0 0
2 2 2
2 2 2
2 2 2
2 2 2
2 2 2
1 1 1
3 3 3
2 2 2
3 3 3
3 3 3
3 3 3
3 3 3
3 3 3
3 3 3
3 3 3
3 3 3
4 4 4
3 3 3
5 5 5
5 5 5
4 4 4
3 3 3
3 3 3
4 4 4
2 2 2
3 3 3
4 4 4
4 4 4
4 4 4
5 5 5
4 4 4
4 4 4
5 5 5
4 4 4
4 4 4
11 11 11
12 12 12
21 21 21
23 23 23
32 32 32
9 9 9
33 33 33
14 14 14
5 5 5
2 2 2
2 2 2
2 2 2
2 2 2
0 0 0
0 0 0
2 2 2
2 2 2
2 2 2
2 2 2
2 2 2
2 2 2
1 1 1
1 1 1
1 1 1
2 2 2
2 2 2
3 3 3
3 3 3
3 3 3
3 3 3
3 3 3
3 3 3
4 4 4
7 7 7
16 16 16
6 6 6
5 5 5
4 4 4
4 4 4
3 3 3
3 3 3
4 4 4
4 4 4
5 5 5
4 4 4
4 4 4
4 4 4
4 4 4
4 4 4
12 12 12
12 12 12
19 19 19
22 22 22
13 13 13
23 23 23
25 25 25
14 14 14
10 10 10
2 2 2
2 2 2
2 2 2
2 2 2
2 2 2
0 0 0
0 0 0
2 2 2
2 2 2
2 2 2
2 2 2
2 2 2
2 2 2
2 2 2
1 1 1
1 1 1
0 0 0
1 1 1
1 1 1
2 2 2
2 2 2
3 3 3
3 3 3
4 4 4
3 3 3
8 8 8
13 13 13
20 20 20
5 5 5
4 4 4
3 3 3
4 4 4
3 3 3
4 4 4
4 4 4
4 4 4
4 4 4
4 4 4
5 5 5
16 16 16
13 13 13
7 7 7
11 11 11
6 6 6
16 16 16
12 12 12
12 12 12
48 48 48
17 17 17
2 2 2
2 2 2
2 2 2
2 2 2
2 2 2
2 2 2
0 0 0
0 0 0
2 2 2
2 2 2
2 2 2
2 2 2
2 2 2
2 2 2
2 2 2
2 2 2
1 1 1
0 0 0
1 1 1
1 1 1
1 1 1
1 1 1
1 1 1
1 1 1
1 1 1
2 2 2
1 1 1
1 1 1
5 5 5
13 13 13
2 2 2
3 3 3
3 3 3
3 3 3
4 4 4
4 4 4
4 4 4
4 4 4
11 11 11
6 6 6
11 11 11
7 7 7
5 5 5
6 6 6
17 17 17
13 13 13
30 30 30
17 17 17
12 12 12
2 2 2
2 2 2
2 2 2
2 2 2
2 2 2
2 2 2
2 2 2
0 0 0
0 0 0
2 2 2
2 2 2
2 2 2
2 2 2
2 2 2
2 2 2
2 2 2
2 2 2
2 2 2
0 0 0
0 0 0
1 1 1
1 1 1
2 2 2
1 1 1
1 1 1
1 1 1
2 2 2
2 2 2
1 1 1
2 2 2
5 5 5
5 5 5
2 2 2
6 6 6
4 4 4
2 2 2
4 4 4
7 7 7
11 11 11
11 11 11
18 18 18
19 19 19
9 9 9
9 9 9
13 13 13
20 20 20
22 22 22
15 15 15
5 5 5
2 2 2
2 2 2
2 2 2
2 2 2
2 2 2
2 2 2
2 2 2
2 2 2
0 0 0
0 0 0
2 2 2
2 2 2
2 2 2
2 2 2
2 2 2
2 2 2
2 2 2
2 2 2
2 2 2
2 2 2
1 1 1
1 1 1
1 1 1
1 1 1
1 1 1
1 1 1
1 1 1
1 1 1
1 1 1
1 1 1
1 1 1
2 2 2
1 1 1
15 15 15
3 3 3
10 10 10
3 3 3
9 9 9
7 7 7
19 19 19
13 13 13
13 13 13
8 8 8
11 11 11
16 16 16
15 15 15
21 21 21
24 24 24
2 2 2
2 2 2
2 2 2
2 2 2
2 2 2
2 2 2
2 2 2
2 2 2
2 2 2
2 2 2
0 0 0
0 0 0
2 2 2
2 2 2
2 2 2
2 2 2
2 2 2
2 2 2
2 2 2
2 2 2
2 2 2
2 2 2
2 2 2
2 2 2
1 1 1
0 0 0
1 1 1
1 1 1
1 1 1
1 1 1
1 1 1
1 1 1
1 1 1
1 1 1
1 1 1
2 2 2
15 15 15
11 11 11
8 8 8
12 12 12
8 8 8
8 8 8
9 9 9
12 12 12
7 7 7
13 13 13
23 23 23
20 20 20
4 4 4
2 2 2
2 2 2
2 2 2
2 2 2
2 2 2
2 2 2
2 2 2
2 2 2
2 2 2
2 2 2
2 2 2
0 0 0
0 0 0
2 2 2
2 2 2
2 2 2
2 2 2
2 2 2
2 2 2
2 2 2
2 2 2
2 2 2
2 2 2
2 2 2
2 2 2
2 2 2
2 2 2
1 1 1
1 1 1
1 1 1
1 1 1
1 1 1
1 1 1
1 1 1
2 2 2
2 2 2
2 2 2
11 11 11
17 17 17
11 11 11
11 11 11
13 13 13
5 5 5
15 15 15
7 7 7
14 14 14
19 19 19
4 4 4
2 2 2
2 2 2
2 2 2
2 2 2
2 2 2
2 2 2
2 2 2
2 2 2
2 2 2
2 2 2
2 2 2
2 2 2
2 2 2
0 0 0
0 0 0
2 2 2
2 2 2
2 2 2
2 2 2
2 2 2
2 2 2
2 2 2
2 2 2
2 2 2
2 2 2
2 2 2
2 2 2
2 2 2
2 2 2
2 2 2
2 2 2
2 2 2
1 1 1
1 1 1
1 1 1
2 2 2
2 2 2
2 2 2
3 3 3
9 9 9
16 16 16
5 5 5
13 13 13
6 6 6
10 10 10
14 14 14
18 18 18
2 2 2
2 2 2
2 2 2
2 2 2
2 2 2
2 2 2
2 2 2
2 2 2
2 2 2
2 2 2
2 2 2
2 2 2
2 2 2
2 2 2
2 2 2
2 2 2
0 0 0
0 0 0
0 0 0
0 0 0
0 0 0
0 0 0
0 0 0
0 0 0
0 0 0
0 0 0
0 0 0
0 0 0
0 0 0
0 0 0
0 0 0
0 0 0
0 0 0
0 0 0
0 0 0
0 0 0
0 0 0
0 0 0
0 0 0
0 0 0
0 0 0
0 0 0
0 0 0
0 0 0
0 0 0
0 0 0
0 0 0
0 0 0
0 0 0
0 0 0
0 0 0
0 0 0
0 0 0
0 0 0
0 0 0
0 0 0
0 0 0
0 0 0
0 0 0
0 0 0
0 0 0
0 0 0
0 0 0
0 0 0
0 0 0
0 0 0
0 0 0
