P3 
50 50 
255
0 0 0
0 0 0
0 0 0
0 0 0
0 0 0
0 0 0
0 0 0
0 0 0
0 0 0
0 0 0
0 0 0
0 0 0
0 0 0
0 0 0
0 0 0
0 0 0
0 0 0
0 0 0
0 0 0
0 0 0
0 0 0
0 0 0
0 0 0
0 0 0
0 0 0
0 0 0
0 0 0
0 0 0
0 0 0
0 0 0
0 0 0
0 0 0
0 0 0
0 0 0
0 0 0
0 0 0
0 0 0
0 0 0
0 0 0
0 0 0
0 0 0
0 0 0
0 0 0
0 0 0
0 0 0
0 0 0
0 0 0
0 0 0
0 0 0
0 0 0
0 0 0
2 2 2
2 2 2
2 2 2
2 2 2
2 2 2
2 2 2
2 2 2
2 2 2
2 2 2
2 2 2
2 2 2
2 2 2
2 2 2
2 2 2
2 2 2
2 2 2
2 2 2
1 1 1
2 2 2
1 1 1
2 2 2
7 7 7
5 5 5
3 3 3
3 3 3
2 2 2
2 2 2
3 3 3
4 4 4
5 5 5
5 5 5
3 3 3
2 2 2
2 2 2
2 2 2
2 2 2
2 2 2
2 2 2
2 2 2
2 2 2
2 2 2
2 2 2
2 2 2
2 2 2
2 2 2
2 2 2
2 2 2
2 2 2
0 0 0
0 0 0
2 2 2
2 2 2
2 2 2
2 2 2
2 2 2
2 2 2
2 2 2
2 2 2
2 2 2
2 2 2
2 2 2
2 2 2
2 2 2
2 2 2
1 1 1
0 0 0
1 1 1
1 1 1
2 2 2
1 1 1
12 12 12
5 5 5
3 3 3
3 3 3
3 3 3
2 2 2
3 3 3
6 6 6
5 5 5
3 3 3
11 11 11
3 3 3
4 4 4
11 11 11
2 2 2
2 2 2
2 2 2
2 2 2
2 2 2
2 2 2
2 2 2
2 2 2
2 2 2
2 2 2
2 2 2
2 2 2
2 2 2
2 2 2
0 0 0
0 0 0
2 2 2
2 2 2
2 2 2
2 2 2
2 2 2
2 2 2
2 2 2
2 2 2
2 2 2
2 2 2
2 2 2
2 2 2
1 1 1
1 1 1
1 1 1
1 1 1
2 2 2
1 1 1
2 2 2
14 14 14
5 5 5
3 3 3
3 3 3
4 4 4
2 2 2
6 6 6
3 3 3
3 3 3
11 11 11
7 7 7
5 5 5
9 9 9
12 12 12
8 8 8
10 10 10
22 22 22
2 2 2
2 2 2
2 2 2
2 2 2
2 2 2
2 2 2
2 2 2
2 2 2
2 2 2
2 2 2
2 2 2
2 2 2
0 0 0
0 0 0
2 2 2
2 2 2
2 2 2
2 2 2
2 2 2
2 2 2
2 2 2
2 2 2
2 2 2
2 2 2
1 1 1
1 1 1
1 1 1
1 1 1
1 1 1
1 1 1
1 1 1
1 1 1
9 9 9
5 5 5
3 3 3
4 4 4
4 4 4
4 4 4
2 2 2
6 6 6
5 5 5
4 4 4
5 5 5
8 8 8
5 5 5
9 9 9
6 6 6
3 3 3
14 14 14
7 7 7
11 11 11
7 7 7
2 2 2
2 2 2
2 2 2
2 2 2
2 2 2
2 2 2
2 2 2
2 2 2
2 2 2
2 2 2
0 0 0
0 0 0
2 2 2
2 2 2
2 2 2
2 2 2
2 2 2
2 2 2
2 2 2
2 2 2
2 2 2
1 1 1
1 1 1
1 1 1
2 2 2
2 2 2
1 1 1
1 1 1
4 4 4
12 12 12
14 14 14
3 3 3
3 3 3
4 4 4
4 4 4
3 3 3
4 4 4
7 7 7
2 2 2
6 6 6
9 9 9
6 6 6
5 5 5
7 7 7
7 7 7
14 14 14
4 4 4
14 14 14
4 4 4
8 8 8
16 16 16
2 2 2
2 2 2
2 2 2
2 2 2
2 2 2
2 2 2
2 2 2
2 2 2
2 2 2
0 0 0
0 0 0
2 2 2
2 2 2
2 2 2
2 2 2
2 2 2
2 2 2
2 2 2
2 2 2
2 2 2
2 2 2
1 1 1
2 2 2
2 2 2
1 1 1
0 0 0
6 6 6
9 9 9
3 3 3
3 3 3
3 3 3
9 9 9
8 8 8
10 10 10
11 11 11
9 9 9
10 10 10
16 16 16
11 11 11
10 10 10
6 6 6
7 7 7
12 12 12
6 6 6
12 12 12
10 10 10
9 9 9
11 11 11
13 13 13
14 14 14
10 10 10
4 4 4
2 2 2
2 2 2
2 2 2
2 2 2
2 2 2
2 2 2
2 2 2
0 0 0
0 0 0
2 2 2
2 2 2
2 2 2
2 2 2
2 2 2
2 2 2
2 2 2
3 3 3
2 2 2
2 2 2
2 2 2
2 2 2
2 2 2
3 3 3
10 10 10
5 5 5
2 2 2
3 3 3
4 4 4
8 8 8
10 10 10
7 7 7
11 11 11
7 7 7
6 6 6
4 4 4
2 2 2
4 4 4
8 8 8
12 12 12
1 1 1
3 3 3
11 11 11
2 2 2
4 4 4
14 14 14
16 16 16
8 8 8
11 11 11
7 7 7
12 12 12
7 7 7
2 2 2
2 2 2
2 2 2
2 2 2
2 2 2
2 2 2
0 0 0
0 0 0
2 2 2
2 2 2
2 2 2
2 2 2
2 2 2
2 2 2
1 1 1
2 2 2
3 3 3
3 3 3
2 2 2
2 2 2
8 8 8
10 10 10
2 2 2
3 3 3
3 3 3
2 2 2
2 2 2
6 6 6
2 2 2
2 2 2
8 8 8
11 11 11
4 4 4
3 3 3
3 3 3
9 9 9
6 6 6
3 3 3
10 10 10
15 15 15
2 2 2
4 4 4
3 3 3
3 3 3
3 3 3
6 6 6
8 8 8
5 5 5
8 8 8
47 47 47
4 4 4
2 2 2
2 2 2
2 2 2
2 2 2
2 2 2
0 0 0
0 0 0
2 2 2
2 2 2
2 2 2
2 2 2
2 2 2
2 2 2
1 1 1
3 3 3
2 2 2
2 2 2
2 2 2
4 4 4
3 3 3
2 2 2
1 1 1
0 0 0
2 2 2
10 10 10
27 27 27
46 46 46
71 71 71
83 83 83
85 85 85
88 88 88
14 14 14
2 2 2
6 6 6
2 2 2
8 8 8
18 18 18
17 17 17
11 11 11
4 4 4
11 11 11
4 4 4
11 11 11
8 8 8
11 11 11
7 7 7
5 5 5
5 5 5
15 15 15
17 17 17
2 2 2
2 2 2
2 2 2
2 2 2
2 2 2
0 0 0
0 0 0
2 2 2
2 2 2
2 2 2
2 2 2
2 2 2
1 1 1
2 2 2
3 3 3
2 2 2
3 3 3
3 3 3
2 2 2
13 13 13
67 67 67
78 78 78
78 78 78
79 79 79
84 84 84
87 87 87
83 83 83
82 82 82
82 82 82
80 80 80
86 86 86
86 86 86
91 91 91
90 90 90
88 88 88
52 52 52
4 4 4
3 3 3
4 4 4
3 3 3
5 5 5
10 10 10
7 7 7
9 9 9
6 6 6
8 8 8
12 12 12
11 11 11
11 11 11
32 32 32
20 20 20
2 2 2
2 2 2
2 2 2
2 2 2
0 0 0
0 0 0
2 2 2
2 2 2
2 2 2
1 1 1
3 3 3
2 2 2
2 2 2
4 4 4
3 3 3
4 4 4
2 2 2
44 44 44
79 79 79
76 76 76
81 81 81
89 89 89
87 87 87
86 86 86
88 88 88
114 114 114
77 77 77
86 86 86
85 85 85
84 84 84
86 86 86
80 80 80
85 85 85
88 88 88
89 89 89
82 82 82
18 18 18
7 7 7
11 11 11
6 6 6
10 10 10
13 13 13
6 6 6
5 5 5
4 4 4
4 4 4
4 4 4
6 6 6
43 43 43
14 14 14
18 18 18
2 2 2
2 2 2
2 2 2
0 0 0
0 0 0
2 2 2
2 2 2
2 2 2
3 3 3
2 2 2
3 3 3
1 1 1
4 4 4
4 4 4
3 3 3
7 7 7
79 79 79
78 78 78
81 81 81
88 88 88
86 86 86
96 96 96
158 158 158
163 163 163
140 140 140
83 83 83
88 88 88
84 84 84
85 85 85
87 87 87
80 80 80
86 86 86
88 88 88
89 89 89
89 89 89
83 83 83
50 50 50
15 15 15
9 9 9
6 6 6
13 13 13
10 10 10
3 3 3
5 5 5
7 7 7
11 11 11
12 12 12
35 35 35
12 12 12
16 16 16
6 6 6
2 2 2
2 2 2
0 0 0
0 0 0
2 2 2
2 2 2
1 1 1
2 2 2
3 3 3
4 4 4
2 2 2
5 5 5
5 5 5
1 1 1
69 69 69
75 75 75
85 85 85
81 81 81
149 149 149
134 134 134
95 95 95
145 145 145
89 89 89
85 85 85
88 88 88
87 87 87
87 87 87
88 88 88
84 84 84
79 79 79
86 86 86
87 87 87
86 86 86
88 88 88
89 89 89
80 80 80
79 79 79
9 9 9
10 10 10
12 12 12
12 12 12
6 6 6
11 11 11
12 12 12
4 4 4
6 6 6
25 25 25
7 7 7
13 13 13
86 86 86
2 2 2
2 2 2
0 0 0
0 0 0
2 2 2
2 2 2
2 2 2
2 2 2
3 3 3
3 3 3
7 7 7
3 3 3
4 4 4
22 22 22
80 80 80
85 85 85
87 87 87
103 103 103
112 112 112
74 74 74
134 134 134
84 84 84
84 84 84
82 82 82
87 87 87
89 89 89
88 88 88
86 86 86
86 86 86
85 85 85
81 81 81
84 84 84
83 83 83
85 85 85
88 88 88
86 86 86
80 80 80
47 47 47
10 10 10
3 3 3
11 11 11
19 19 19
24 24 24
5 5 5
4 4 4
4 4 4
11 11 11
8 8 8
10 10 10
66 66 66
5 5 5
2 2 2
0 0 0
0 0 0
2 2 2
1 1 1
2 2 2
2 2 2
2 2 2
5 5 5
7 7 7
0 0 0
12 12 12
83 83 83
82 82 82
83 83 83
79 79 79
167 167 167
202 202 202
179 179 179
88 88 88
83 83 83
85 85 85
88 88 88
88 88 88
88 88 88
87 87 87
87 87 87
90 90 90
88 88 88
88 88 88
87 87 87
81 81 81
86 86 86
87 87 87
88 88 88
87 87 87
82 82 82
84 84 84
21 21 21
3 3 3
2 2 2
2 2 2
5 5 5
5 5 5
4 4 4
5 5 5
15 15 15
8 8 8
43 43 43
21 21 21
2 2 2
0 0 0
0 0 0
2 2 2
2 2 2
2 2 2
2 2 2
4 4 4
3 3 3
9 9 9
24 24 24
88 88 88
79 79 79
80 80 80
91 91 91
130 130 130
127 127 127
193 193 193
98 98 98
87 87 87
87 87 87
86 86 86
85 85 85
87 87 87
86 86 86
100 100 100
134 134 134
96 96 96
86 86 86
87 87 87
87 87 87
88 88 88
81 81 81
87 87 87
88 88 88
88 88 88
89 89 89
84 84 84
80 80 80
10 10 10
8 8 8
5 5 5
10 10 10
7 7 7
6 6 6
6 6 6
36 36 36
6 6 6
28 28 28
15 15 15
3 3 3
0 0 0
0 0 0
2 2 2
2 2 2
2 2 2
2 2 2
1 1 1
4 4 4
53 53 53
91 91 91
117 117 117
85 85 85
112 112 112
108 108 108
116 116 116
93 93 93
88 88 88
88 88 88
88 88 88
88 88 88
82 82 82
88 88 88
87 87 87
90 90 90
125 125 125
125 125 125
164 164 164
106 106 106
87 87 87
87 87 87
88 88 88
83 83 83
82 82 82
87 87 87
87 87 87
88 88 88
89 89 89
83 83 83
29 29 29
13 13 13
11 11 11
11 11 11
11 11 11
6 6 6
8 8 8
39 39 39
7 7 7
19 19 19
16 16 16
18 18 18
0 0 0
0 0 0
1 1 1
2 2 2
1 1 1
3 3 3
3 3 3
54 54 54
94 94 94
83 83 83
151 151 151
199 199 199
112 112 112
92 92 92
88 88 88
87 87 87
86 86 86
88 88 88
87 87 87
88 88 88
23 23 23
85 85 85
87 87 87
95 95 95
120 120 120
123 123 123
132 132 132
160 160 160
87 87 87
88 88 88
87 87 87
87 87 87
83 83 83
83 83 83
87 87 87
87 87 87
88 88 88
85 85 85
53 53 53
5 5 5
10 10 10
12 12 12
15 15 15
10 10 10
11 11 11
25 25 25
9 9 9
14 14 14
18 18 18
18 18 18
0 0 0
0 0 0
0 0 0
1 1 1
3 3 3
4 4 4
7 7 7
79 79 79
117 117 117
164 164 164
188 188 188
90 90 90
88 88 88
85 85 85
88 88 88
89 89 89
86 86 86
88 88 88
88 88 88
89 89 89
31 31 31
88 88 88
87 87 87
90 90 90
105 105 105
130 130 130
152 152 152
91 91 91
90 90 90
89 89 89
88 88 88
88 88 88
86 86 86
82 82 82
80 80 80
87 87 87
88 88 88
84 84 84
69 69 69
6 6 6
6 6 6
10 10 10
8 8 8
14 14 14
7 7 7
20 20 20
10 10 10
11 11 11
21 21 21
14 14 14
0 0 0
0 0 0
1 1 1
0 0 0
0 0 0
1 1 1
35 35 35
82 82 82
155 155 155
193 193 193
87 87 87
78 78 78
90 90 90
88 88 88
88 88 88
89 89 89
87 87 87
87 87 87
88 88 88
92 92 92
1 1 1
82 82 82
88 88 88
135 135 135
96 96 96
133 133 133
89 89 89
85 85 85
83 83 83
96 96 96
87 87 87
88 88 88
88 88 88
81 81 81
80 80 80
86 86 86
88 88 88
81 81 81
74 74 74
25 25 25
10 10 10
5 5 5
3 3 3
10 10 10
4 4 4
27 27 27
8 8 8
10 10 10
25 25 25
13 13 13
0 0 0
0 0 0
0 0 0
0 0 0
0 0 0
0 0 0
29 29 29
83 83 83
164 164 164
185 185 185
90 90 90
90 90 90
89 89 89
89 89 89
86 86 86
87 87 87
87 87 87
88 88 88
90 90 90
91 91 91
1 1 1
38 38 38
88 88 88
135 135 135
100 100 100
116 116 116
86 86 86
86 86 86
84 84 84
136 136 136
87 87 87
87 87 87
86 86 86
84 84 84
81 81 81
85 85 85
89 89 89
84 84 84
86 86 86
13 13 13
10 10 10
5 5 5
3 3 3
13 13 13
12 12 12
41 41 41
7 7 7
8 8 8
28 28 28
13 13 13
0 0 0
0 0 0
0 0 0
0 0 0
0 0 0
1 1 1
18 18 18
82 82 82
172 172 172
180 180 180
83 83 83
94 94 94
77 77 77
90 90 90
87 87 87
90 90 90
88 88 88
88 88 88
88 88 88
91 91 91
12 12 12
37 37 37
88 88 88
143 143 143
106 106 106
117 117 117
85 85 85
85 85 85
83 83 83
127 127 127
138 138 138
109 109 109
84 84 84
78 78 78
77 77 77
82 82 82
87 87 87
82 82 82
86 86 86
16 16 16
15 15 15
9 9 9
4 4 4
14 14 14
6 6 6
45 45 45
8 8 8
9 9 9
32 32 32
13 13 13
0 0 0
0 0 0
0 0 0
0 0 0
0 0 0
2 2 2
1 1 1
82 82 82
143 143 143
218 218 218
85 85 85
83 83 83
84 84 84
91 91 91
88 88 88
91 91 91
89 89 89
88 88 88
87 87 87
88 88 88
70 70 70
89 89 89
90 90 90
112 112 112
123 123 123
138 138 138
89 89 89
86 86 86
93 93 93
104 104 104
86 86 86
91 91 91
87 87 87
78 78 78
79 79 79
87 87 87
88 88 88
83 83 83
72 72 72
14 14 14
12 12 12
12 12 12
9 9 9
16 16 16
10 10 10
32 32 32
7 7 7
8 8 8
33 33 33
13 13 13
0 0 0
0 0 0
1 1 1
1 1 1
0 0 0
1 1 1
0 0 0
59 59 59
91 91 91
192 192 192
255 255 255
30 30 30
86 86 86
84 84 84
88 88 88
91 91 91
88 88 88
87 87 87
88 88 88
88 88 88
70 70 70
89 89 89
93 93 93
112 112 112
118 118 118
123 123 123
110 110 110
94 94 94
89 89 89
88 88 88
89 89 89
88 88 88
83 83 83
81 81 81
84 84 84
88 88 88
89 89 89
84 84 84
60 60 60
17 17 17
6 6 6
11 11 11
10 10 10
15 15 15
9 9 9
25 25 25
8 8 8
7 7 7
33 33 33
12 12 12
0 0 0
0 0 0
1 1 1
0 0 0
0 0 0
0 0 0
0 0 0
0 0 0
58 58 58
77 77 77
94 94 94
83 83 83
75 75 75
120 120 120
194 194 194
131 131 131
86 86 86
90 90 90
88 88 88
88 88 88
88 88 88
84 84 84
86 86 86
123 123 123
122 122 122
139 139 139
88 88 88
88 88 88
88 88 88
88 88 88
88 88 88
86 86 86
83 83 83
83 83 83
88 88 88
88 88 88
88 88 88
80 80 80
34 34 34
17 17 17
15 15 15
9 9 9
17 17 17
16 16 16
9 9 9
27 27 27
8 8 8
9 9 9
31 31 31
13 13 13
0 0 0
0 0 0
1 1 1
1 1 1
0 0 0
0 0 0
1 1 1
1 1 1
0 0 0
29 29 29
79 79 79
87 87 87
89 89 89
110 110 110
236 236 236
219 219 219
195 195 195
181 181 181
86 86 86
83 83 83
87 87 87
87 87 87
87 87 87
88 88 88
90 90 90
87 87 87
89 89 89
89 89 89
88 88 88
89 89 89
88 88 88
83 83 83
87 87 87
88 88 88
88 88 88
89 89 89
81 81 81
87 87 87
11 11 11
13 13 13
21 21 21
9 9 9
10 10 10
19 19 19
12 12 12
38 38 38
8 8 8
10 10 10
30 30 30
12 12 12
0 0 0
0 0 0
1 1 1
1 1 1
0 0 0
0 0 0
1 1 1
1 1 1
0 0 0
0 0 0
0 0 0
85 85 85
95 95 95
98 98 98
116 116 116
103 103 103
164 164 164
187 187 187
152 152 152
83 83 83
83 83 83
84 84 84
88 88 88
87 87 87
90 90 90
89 89 89
88 88 88
88 88 88
88 88 88
84 84 84
83 83 83
86 86 86
86 86 86
89 89 89
88 88 88
80 80 80
86 86 86
12 12 12
4 4 4
16 16 16
8 8 8
16 16 16
15 15 15
5 5 5
8 8 8
49 49 49
7 7 7
12 12 12
27 27 27
13 13 13
0 0 0
0 0 0
1 1 1
1 1 1
2 2 2
1 1 1
2 2 2
1 1 1
3 3 3
2 2 2
0 0 0
17 17 17
80 80 80
83 83 83
88 88 88
82 82 82
136 136 136
76 76 76
88 88 88
99 99 99
86 86 86
86 86 86
87 87 87
87 87 87
88 88 88
84 84 84
85 85 85
86 86 86
81 81 81
87 87 87
87 87 87
88 88 88
90 90 90
87 87 87
84 84 84
60 60 60
5 5 5
17 17 17
11 11 11
21 21 21
9 9 9
4 4 4
4 4 4
8 8 8
3 3 3
50 50 50
8 8 8
13 13 13
26 26 26
13 13 13
0 0 0
0 0 0
1 1 1
1 1 1
1 1 1
2 2 2
1 1 1
1 1 1
1 1 1
1 1 1
1 1 1
2 2 2
41 41 41
79 79 79
78 78 78
83 83 83
125 125 125
198 198 198
165 165 165
114 114 114
159 159 159
136 136 136
101 101 101
90 90 90
87 87 87
90 90 90
88 88 88
78 78 78
87 87 87
89 89 89
90 90 90
90 90 90
82 82 82
62 62 62
4 4 4
17 17 17
22 22 22
6 6 6
6 6 6
7 7 7
6 6 6
2 2 2
3 3 3
12 12 12
3 3 3
39 39 39
8 8 8
14 14 14
22 22 22
14 14 14
0 0 0
0 0 0
1 1 1
2 2 2
2 2 2
1 1 1
1 1 1
2 2 2
1 1 1
3 3 3
2 2 2
4 4 4
2 2 2
10 10 10
79 79 79
78 78 78
71 71 71
85 85 85
86 86 86
87 87 87
86 86 86
96 96 96
111 111 111
78 78 78
84 84 84
85 85 85
89 89 89
79 79 79
89 89 89
91 91 91
86 86 86
41 41 41
24 24 24
10 10 10
11 11 11
6 6 6
3 3 3
3 3 3
6 6 6
6 6 6
13 13 13
6 6 6
7 7 7
5 5 5
8 8 8
31 31 31
8 8 8
18 18 18
17 17 17
15 15 15
0 0 0
0 0 0
1 1 1
2 2 2
1 1 1
1 1 1
3 3 3
2 2 2
2 2 2
2 2 2
2 2 2
4 4 4
2 2 2
1 1 1
0 0 0
23 23 23
74 74 74
79 79 79
75 75 75
80 80 80
85 85 85
83 83 83
84 84 84
86 86 86
84 84 84
84 84 84
87 87 87
92 92 92
89 89 89
75 75 75
7 7 7
9 9 9
12 12 12
7 7 7
3 3 3
4 4 4
3 3 3
9 9 9
12 12 12
17 17 17
15 15 15
19 19 19
13 13 13
19 19 19
13 13 13
33 33 33
10 10 10
21 21 21
15 15 15
18 18 18
0 0 0
0 0 0
2 2 2
1 1 1
1 1 1
1 1 1
2 2 2
1 1 1
2 2 2
3 3 3
2 2 2
4 4 4
2 2 2
1 1 1
3 3 3
3 3 3
0 0 0
2 2 2
28 28 28
49 49 49
58 58 58
34 34 34
25 25 25
65 65 65
77 77 77
77 77 77
14 14 14
1 1 1
0 0 0
2 2 2
9 9 9
4 4 4
2 2 2
2 2 2
2 2 2
3 3 3
2 2 2
10 10 10
17 17 17
9 9 9
18 18 18
25 25 25
8 8 8
12 12 12
18 18 18
43 43 43
9 9 9
27 27 27
15 15 15
27 27 27
0 0 0
0 0 0
2 2 2
1 1 1
1 1 1
2 2 2
1 1 1
1 1 1
2 2 2
2 2 2
3 3 3
3 3 3
1 1 1
2 2 2
2 2 2
8 8 8
1 1 1
2 2 2
0 0 0
1 1 1
0 0 0
1 1 1
0 0 0
0 0 0
1 1 1
0 0 0
0 0 0
2 2 2
1 1 1
1 1 1
1 1 1
2 2 2
3 3 3
3 3 3
3 3 3
2 2 2
2 2 2
10 10 10
15 15 15
8 8 8
18 18 18
16 16 16
16 16 16
14 14 14
14 14 14
30 30 30
9 9 9
42 42 42
14 14 14
2 2 2
0 0 0
0 0 0
2 2 2
1 1 1
1 1 1
2 2 2
1 1 1
2 2 2
1 1 1
3 3 3
3 3 3
3 3 3
2 2 2
2 2 2
3 3 3
9 9 9
14 14 14
14 14 14
14 14 14
6 6 6
2 2 2
2 2 2
2 2 2
2 2 2
1 1 1
1 1 1
2 2 2
2 2 2
2 2 2
3 3 3
3 3 3
2 2 2
2 2 2
2 2 2
3 3 3
3 3 3
3 3 3
9 9 9
5 5 5
6 6 6
22 22 22
19 19 19
20 20 20
5 5 5
10 10 10
12 12 12
10 10 10
63 63 63
22 22 22
2 2 2
0 0 0
0 0 0
2 2 2
2 2 2
2 2 2
1 1 1
2 2 2
1 1 1
2 2 2
2 2 2
3 3 3
2 2 2
2 2 2
3 3 3
2 2 2
3 3 3
2 2 2
3 3 3
22 22 22
4 4 4
4 4 4
1 1 1
2 2 2
3 3 3
2 2 2
2 2 2
2 2 2
3 3 3
2 2 2
2 2 2
2 2 2
3 3 3
2 2 2
2 2 2
2 2 2
2 2 2
2 2 2
3 3 3
3 3 3
17 17 17
6 6 6
31 31 31
8 8 8
14 14 14
28 28 28
9 9 9
10 10 10
82 82 82
8 8 8
2 2 2
0 0 0
0 0 0
2 2 2
2 2 2
2 2 2
1 1 1
2 2 2
1 1 1
2 2 2
2 2 2
3 3 3
1 1 1
2 2 2
2 2 2
2 2 2
3 3 3
3 3 3
2 2 2
1 1 1
11 11 11
9 9 9
3 3 3
3 3 3
2 2 2
2 2 2
3 3 3
3 3 3
2 2 2
3 3 3
2 2 2
3 3 3
2 2 2
2 2 2
3 3 3
4 4 4
2 2 2
3 3 3
2 2 2
3 3 3
11 11 11
8 8 8
25 25 25
22 22 22
16 16 16
42 42 42
9 9 9
14 14 14
86 86 86
2 2 2
2 2 2
0 0 0
0 0 0
2 2 2
2 2 2
2 2 2
2 2 2
2 2 2
1 1 1
2 2 2
1 1 1
3 3 3
1 1 1
2 2 2
2 2 2
2 2 2
2 2 2
3 3 3
2 2 2
2 2 2
3 3 3
4 4 4
8 8 8
3 3 3
3 3 3
2 2 2
2 2 2
2 2 2
3 3 3
2 2 2
4 4 4
3 3 3
3 3 3
3 3 3
4 4 4
4 4 4
4 4 4
2 2 2
2 2 2
3 3 3
3 3 3
14 14 14
11 11 11
14 14 14
11 11 11
19 19 19
11 11 11
17 17 17
11 11 11
2 2 2
2 2 2
0 0 0
0 0 0
2 2 2
2 2 2
2 2 2
1 1 1
1 1 1
1 1 1
2 2 2
1 1 1
3 3 3
1 1 1
2 2 2
1 1 1
2 2 2
2 2 2
2 2 2
3 3 3
2 2 2
2 2 2
3 3 3
10 10 10
4 4 4
2 2 2
2 2 2
2 2 2
2 2 2
2 2 2
3 3 3
4 4 4
4 4 4
3 3 3
3 3 3
4 4 4
4 4 4
4 4 4
3 3 3
3 3 3
3 3 3
3 3 3
18 18 18
3 3 3
5 5 5
23 23 23
9 9 9
14 14 14
33 33 33
2 2 2
2 2 2
2 2 2
0 0 0
0 0 0
2 2 2
2 2 2
2 2 2
2 2 2
1 1 1
2 2 2
2 2 2
2 2 2
3 3 3
0 0 0
2 2 2
2 2 2
2 2 2
3 3 3
2 2 2
2 2 2
2 2 2
1 1 1
2 2 2
1 1 1
8 8 8
3 3 3
2 2 2
2 2 2
2 2 2
2 2 2
2 2 2
4 4 4
4 4 4
5 5 5
4 4 4
4 4 4
4 4 4
4 4 4
4 4 4
6 6 6
4 4 4
4 4 4
13 13 13
11 11 11
7 7 7
42 42 42
10 10 10
17 17 17
2 2 2
2 2 2
2 2 2
2 2 2
0 0 0
0 0 0
2 2 2
2 2 2
2 2 2
2 2 2
2 2 2
1 1 1
1 1 1
1 1 1
3 3 3
0 0 0
1 1 1
2 2 2
2 2 2
2 2 2
2 2 2
2 2 2
2 2 2
2 2 2
1 1 1
3 3 3
1 1 1
3 3 3
4 4 4
3 3 3
3 3 3
2 2 2
3 3 3
4 4 4
4 4 4
4 4 4
4 4 4
4 4 4
4 4 4
4 4 4
16 16 16
5 5 5
9 9 9
4 4 4
14 14 14
9 9 9
15 15 15
19 19 19
14 14 14
5 5 5
2 2 2
2 2 2
2 2 2
2 2 2
0 0 0
0 0 0
2 2 2
2 2 2
2 2 2
2 2 2
2 2 2
2 2 2
2 2 2
1 1 1
2 2 2
1 1 1
2 2 2
1 1 1
2 2 2
1 1 1
2 2 2
2 2 2
2 2 2
2 2 2
1 1 1
2 2 2
3 3 3
1 1 1
2 2 2
4 4 4
3 3 3
3 3 3
4 4 4
4 4 4
4 4 4
4 4 4
4 4 4
4 4 4
4 4 4
8 8 8
13 13 13
6 6 6
13 13 13
5 5 5
13 13 13
6 6 6
27 27 27
13 13 13
9 9 9
2 2 2
2 2 2
2 2 2
2 2 2
2 2 2
0 0 0
0 0 0
2 2 2
2 2 2
2 2 2
2 2 2
2 2 2
2 2 2
2 2 2
1 1 1
2 2 2
0 0 0
1 1 1
2 2 2
1 1 1
1 1 1
2 2 2
1 1 1
2 2 2
2 2 2
1 1 1
2 2 2
3 3 3
1 1 1
3 3 3
3 3 3
4 4 4
3 3 3
4 4 4
4 4 4
3 3 3
3 3 3
5 5 5
7 7 7
7 7 7
14 14 14
17 17 17
18 18 18
14 14 14
10 10 10
13 13 13
14 14 14
43 43 43
17 17 17
2 2 2
2 2 2
2 2 2
2 2 2
2 2 2
2 2 2
0 0 0
0 0 0
2 2 2
2 2 2
2 2 2
2 2 2
2 2 2
2 2 2
2 2 2
2 2 2
1 1 1
0 0 0
1 1 1
2 2 2
1 1 1
2 2 2
2 2 2
2 2 2
2 2 2
2 2 2
2 2 2
1 1 1
2 2 2
2 2 2
1 1 1
4 4 4
4 4 4
4 4 4
4 4 4
3 3 3
6 6 6
8 8 8
11 11 11
5 5 5
4 4 4
10 10 10
12 12 12
12 12 12
10 10 10
21 21 21
8 8 8
18 18 18
10 10 10
2 2 2
2 2 2
2 2 2
2 2 2
2 2 2
2 2 2
2 2 2
0 0 0
0 0 0
2 2 2
2 2 2
2 2 2
2 2 2
2 2 2
2 2 2
2 2 2
2 2 2
2 2 2
0 0 0
1 1 1
2 2 2
2 2 2
2 2 2
2 2 2
2 2 2
1 1 1
2 2 2
1 1 1
1 1 1
2 2 2
3 3 3
2 2 2
2 2 2
3 3 3
3 3 3
3 3 3
9 9 9
7 7 7
9 9 9
13 13 13
10 10 10
7 7 7
20 20 20
18 18 18
12 12 12
14 14 14
14 14 14
19 19 19
5 5 5
2 2 2
2 2 2
2 2 2
2 2 2
2 2 2
2 2 2
2 2 2
2 2 2
0 0 0
0 0 0
2 2 2
2 2 2
2 2 2
2 2 2
2 2 2
2 2 2
2 2 2
2 2 2
2 2 2
2 2 2
1 1 1
1 1 1
1 1 1
1 1 1
1 1 1
2 2 2
2 2 2
2 2 2
1 1 1
2 2 2
1 1 1
2 2 2
3 3 3
2 2 2
4 4 4
2 2 2
4 4 4
3 3 3
4 4 4
6 6 6
13 13 13
5 5 5
21 21 21
8 8 8
12 12 12
12 12 12
15 15 15
23 23 23
2 2 2
2 2 2
2 2 2
2 2 2
2 2 2
2 2 2
2 2 2
2 2 2
2 2 2
2 2 2
0 0 0
0 0 0
2 2 2
2 2 2
2 2 2
2 2 2
2 2 2
2 2 2
2 2 2
2 2 2
2 2 2
2 2 2
2 2 2
2 2 2
1 1 1
1 1 1
1 1 1
1 1 1
2 2 2
2 2 2
2 2 2
2 2 2
1 1 1
2 2 2
2 2 2
2 2 2
1 1 1
3 3 3
3 3 3
5 5 5
4 4 4
4 4 4
7 7 7
13 13 13
11 11 11
10 10 10
9 9 9
13 13 13
4 4 4
2 2 2
2 2 2
2 2 2
2 2 2
2 2 2
2 2 2
2 2 2
2 2 2
2 2 2
2 2 2
2 2 2
0 0 0
0 0 0
2 2 2
2 2 2
2 2 2
2 2 2
2 2 2
2 2 2
2 2 2
2 2 2
2 2 2
2 2 2
2 2 2
2 2 2
2 2 2
2 2 2
1 1 1
1 1 1
1 1 1
2 2 2
2 2 2
1 1 1
2 2 2
1 1 1
2 2 2
3 3 3
9 9 9
5 5 5
4 4 4
4 4 4
9 9 9
5 5 5
18 18 18
4 4 4
8 8 8
10 10 10
3 3 3
2 2 2
2 2 2
2 2 2
2 2 2
2 2 2
2 2 2
2 2 2
2 2 2
2 2 2
2 2 2
2 2 2
2 2 2
2 2 2
0 0 0
0 0 0
2 2 2
2 2 2
2 2 2
2 2 2
2 2 2
2 2 2
2 2 2
2 2 2
2 2 2
2 2 2
2 2 2
2 2 2
2 2 2
2 2 2
2 2 2
2 2 2
2 2 2
1 1 1
1 1 1
2 2 2
2 2 2
1 1 1
2 2 2
3 3 3
8 8 8
2 2 2
4 4 4
3 3 3
5 5 5
8 8 8
10 10 10
14 14 14
2 2 2
2 2 2
2 2 2
2 2 2
2 2 2
2 2 2
2 2 2
2 2 2
2 2 2
2 2 2
2 2 2
2 2 2
2 2 2
2 2 2
2 2 2
2 2 2
0 0 0
0 0 0
0 0 0
0 0 0
0 0 0
0 0 0
0 0 0
0 0 0
0 0 0
0 0 0
0 0 0
0 0 0
0 0 0
0 0 0
0 0 0
0 0 0
0 0 0
0 0 0
0 0 0
0 0 0
0 0 0
0 0 0
0 0 0
0 0 0
0 0 0
0 0 0
0 0 0
0 0 0
0 0 0
0 0 0
0 0 0
0 0 0
0 0 0
0 0 0
0 0 0
0 0 0
0 0 0
0 0 0
0 0 0
0 0 0
0 0 0
0 0 0
0 0 0
0 0 0
0 0 0
0 0 0
0 0 0
0 0 0
0 0 0
0 0 0
0 0 0
