P3 
50 50 
255
0 0 0
0 0 0
0 0 0
0 0 0
0 0 0
0 0 0
0 0 0
0 0 0
0 0 0
0 0 0
0 0 0
0 0 0
0 0 0
0 0 0
0 0 0
0 0 0
0 0 0
0 0 0
0 0 0
0 0 0
0 0 0
0 0 0
0 0 0
0 0 0
0 0 0
0 0 0
0 0 0
0 0 0
0 0 0
0 0 0
0 0 0
0 0 0
0 0 0
0 0 0
0 0 0
0 0 0
0 0 0
0 0 0
0 0 0
0 0 0
0 0 0
0 0 0
0 0 0
0 0 0
0 0 0
0 0 0
0 0 0
0 0 0
0 0 0
0 0 0
0 0 0
2 2 2
2 2 2
2 2 2
2 2 2
2 2 2
2 2 2
2 2 2
2 2 2
2 2 2
2 2 2
2 2 2
2 2 2
2 2 2
2 2 2
2 2 2
2 2 2
2 2 2
0 0 0
4 4 4
7 7 7
19 19 19
4 4 4
6 6 6
2 2 2
9 9 9
3 3 3
5 5 5
8 8 8
6 6 6
5 5 5
4 4 4
2 2 2
2 2 2
2 2 2
2 2 2
2 2 2
2 2 2
2 2 2
2 2 2
2 2 2
2 2 2
2 2 2
2 2 2
2 2 2
2 2 2
2 2 2
2 2 2
2 2 2
0 0 0
0 0 0
2 2 2
2 2 2
2 2 2
2 2 2
2 2 2
2 2 2
2 2 2
2 2 2
2 2 2
2 2 2
2 2 2
2 2 2
2 2 2
2 2 2
0 0 0
4 4 4
2 2 2
5 5 5
1 1 1
14 14 14
3 3 3
6 6 6
4 4 4
2 2 2
5 5 5
5 5 5
8 8 8
5 5 5
3 3 3
9 9 9
1 1 1
4 4 4
8 8 8
9 9 9
2 2 2
2 2 2
2 2 2
2 2 2
2 2 2
2 2 2
2 2 2
2 2 2
2 2 2
2 2 2
2 2 2
2 2 2
2 2 2
2 2 2
0 0 0
0 0 0
2 2 2
2 2 2
2 2 2
2 2 2
2 2 2
2 2 2
2 2 2
2 2 2
2 2 2
2 2 2
2 2 2
2 2 2
0 0 0
3 3 3
0 0 0
4 4 4
2 2 2
13 13 13
6 6 6
13 13 13
1 1 1
6 6 6
1 1 1
8 8 8
9 9 9
13 13 13
16 16 16
15 15 15
18 18 18
10 10 10
13 13 13
8 8 8
11 11 11
12 12 12
9 9 9
16 16 16
2 2 2
2 2 2
2 2 2
2 2 2
2 2 2
2 2 2
2 2 2
2 2 2
2 2 2
2 2 2
2 2 2
2 2 2
0 0 0
0 0 0
2 2 2
2 2 2
2 2 2
2 2 2
2 2 2
2 2 2
2 2 2
2 2 2
2 2 2
2 2 2
1 1 1
6 6 6
0 0 0
0 0 0
3 3 3
17 17 17
8 8 8
3 3 3
9 9 9
0 0 0
9 9 9
0 0 0
8 8 8
6 6 6
17 17 17
7 7 7
14 14 14
18 18 18
16 16 16
6 6 6
11 11 11
11 11 11
9 9 9
10 10 10
7 7 7
7 7 7
13 13 13
6 6 6
2 2 2
2 2 2
2 2 2
2 2 2
2 2 2
2 2 2
2 2 2
2 2 2
2 2 2
2 2 2
0 0 0
0 0 0
2 2 2
2 2 2
2 2 2
2 2 2
2 2 2
2 2 2
2 2 2
2 2 2
2 2 2
11 11 11
5 5 5
6 6 6
0 0 0
0 0 0
4 4 4
6 6 6
5 5 5
6 6 6
15 15 15
9 9 9
3 3 3
7 7 7
5 5 5
12 12 12
48 48 48
80 80 80
79 79 79
67 67 67
30 30 30
10 10 10
12 12 12
2 2 2
3 3 3
3 3 3
5 5 5
0 0 0
9 9 9
7 7 7
10 10 10
2 2 2
2 2 2
2 2 2
2 2 2
2 2 2
2 2 2
2 2 2
2 2 2
2 2 2
0 0 0
0 0 0
2 2 2
2 2 2
2 2 2
2 2 2
2 2 2
2 2 2
2 2 2
2 2 2
17 17 17
16 16 16
12 12 12
7 7 7
0 0 0
0 0 0
4 4 4
13 13 13
0 0 0
16 16 16
1 1 1
8 8 8
4 4 4
7 7 7
10 10 10
43 43 43
85 85 85
72 72 72
19 19 19
19 19 19
7 7 7
7 7 7
4 4 4
2 2 2
4 4 4
3 3 3
2 2 2
1 1 1
7 7 7
5 5 5
14 14 14
13 13 13
4 4 4
2 2 2
2 2 2
2 2 2
2 2 2
2 2 2
2 2 2
2 2 2
0 0 0
0 0 0
2 2 2
2 2 2
2 2 2
2 2 2
2 2 2
2 2 2
2 2 2
0 0 0
10 10 10
22 22 22
21 21 21
9 9 9
0 0 0
0 0 0
3 3 3
17 17 17
4 4 4
11 11 11
4 4 4
3 3 3
25 25 25
21 21 21
51 51 51
81 81 81
70 70 70
16 16 16
8 8 8
9 9 9
6 6 6
35 35 35
16 16 16
2 2 2
4 4 4
6 6 6
11 11 11
2 2 2
2 2 2
12 12 12
7 7 7
7 7 7
19 19 19
7 7 7
2 2 2
2 2 2
2 2 2
2 2 2
2 2 2
2 2 2
0 0 0
0 0 0
2 2 2
2 2 2
2 2 2
2 2 2
2 2 2
2 2 2
1 1 1
1 1 1
8 8 8
15 15 15
23 23 23
7 7 7
0 0 0
0 0 0
8 8 8
1 1 1
26 26 26
48 48 48
85 85 85
95 95 95
93 93 93
86 86 86
80 80 80
84 84 84
79 79 79
49 49 49
69 69 69
73 73 73
19 19 19
10 10 10
4 4 4
6 6 6
16 16 16
4 4 4
9 9 9
10 10 10
9 9 9
9 9 9
4 4 4
2 2 2
9 9 9
48 48 48
4 4 4
2 2 2
2 2 2
2 2 2
2 2 2
2 2 2
0 0 0
0 0 0
2 2 2
2 2 2
2 2 2
2 2 2
2 2 2
1 1 1
6 6 6
0 0 0
5 5 5
5 5 5
21 21 21
6 6 6
0 0 0
0 0 0
35 35 35
61 61 61
86 86 86
88 88 88
88 88 88
88 88 88
86 86 86
74 74 74
86 86 86
92 92 92
90 90 90
112 112 112
110 110 110
95 95 95
86 86 86
79 79 79
50 50 50
6 6 6
1 1 1
5 5 5
4 4 4
5 5 5
2 2 2
3 3 3
2 2 2
4 4 4
4 4 4
9 9 9
16 16 16
2 2 2
2 2 2
2 2 2
2 2 2
2 2 2
0 0 0
0 0 0
2 2 2
2 2 2
2 2 2
2 2 2
13 13 13
2 2 2
21 21 21
3 3 3
4 4 4
24 24 24
23 23 23
32 32 32
49 49 49
49 49 49
96 96 96
94 94 94
92 92 92
89 89 89
89 89 89
79 79 79
79 79 79
89 89 89
89 89 89
83 83 83
159 159 159
178 178 178
110 110 110
86 86 86
90 90 90
90 90 90
87 87 87
85 85 85
45 45 45
10 10 10
14 14 14
3 3 3
5 5 5
9 9 9
6 6 6
1 1 1
4 4 4
13 13 13
42 42 42
17 17 17
2 2 2
2 2 2
2 2 2
2 2 2
0 0 0
0 0 0
2 2 2
2 2 2
2 2 2
1 1 1
5 5 5
15 15 15
29 29 29
11 11 11
5 5 5
16 16 16
95 95 95
87 87 87
69 69 69
54 54 54
91 91 91
110 110 110
101 101 101
97 97 97
126 126 126
145 145 145
122 122 122
81 81 81
74 74 74
72 72 72
80 80 80
80 80 80
82 82 82
89 89 89
95 95 95
94 94 94
88 88 88
88 88 88
85 85 85
70 70 70
22 22 22
12 12 12
6 6 6
3 3 3
4 4 4
17 17 17
7 7 7
3 3 3
35 35 35
15 15 15
19 19 19
2 2 2
2 2 2
2 2 2
0 0 0
0 0 0
2 2 2
2 2 2
2 2 2
0 0 0
0 0 0
24 24 24
29 29 29
16 16 16
21 21 21
22 22 22
98 98 98
91 91 91
89 89 89
68 68 68
76 76 76
114 114 114
172 172 172
113 113 113
95 95 95
87 87 87
63 63 63
72 72 72
79 79 79
71 71 71
81 81 81
81 81 81
93 93 93
137 137 137
141 141 141
141 141 141
126 126 126
107 107 107
94 94 94
82 82 82
79 79 79
42 42 42
21 21 21
11 11 11
6 6 6
3 3 3
8 8 8
6 6 6
18 18 18
15 15 15
17 17 17
6 6 6
2 2 2
2 2 2
0 0 0
0 0 0
2 2 2
2 2 2
10 10 10
2 2 2
1 1 1
19 19 19
8 8 8
12 12 12
38 38 38
53 53 53
111 111 111
101 101 101
95 95 95
95 95 95
124 124 124
139 139 139
111 111 111
148 148 148
65 65 65
62 62 62
71 71 71
92 92 92
67 67 67
76 76 76
80 80 80
82 82 82
86 86 86
105 105 105
145 145 145
151 151 151
148 148 148
175 175 175
165 165 165
98 98 98
89 89 89
85 85 85
47 47 47
14 14 14
9 9 9
5 5 5
6 6 6
14 14 14
18 18 18
12 12 12
14 14 14
88 88 88
2 2 2
2 2 2
0 0 0
0 0 0
2 2 2
2 2 2
7 7 7
29 29 29
0 0 0
0 0 0
0 0 0
3 3 3
22 22 22
132 132 132
106 106 106
93 93 93
129 129 129
83 83 83
97 97 97
67 67 67
88 88 88
47 47 47
62 62 62
60 60 60
70 70 70
82 82 82
80 80 80
82 82 82
79 79 79
82 82 82
82 82 82
89 89 89
117 117 117
125 125 125
117 117 117
151 151 151
178 178 178
119 119 119
91 91 91
90 90 90
85 85 85
44 44 44
8 8 8
10 10 10
2 2 2
12 12 12
7 7 7
12 12 12
12 12 12
74 74 74
5 5 5
2 2 2
0 0 0
0 0 0
2 2 2
7 7 7
9 9 9
9 9 9
35 35 35
0 0 0
6 6 6
4 4 4
81 81 81
122 122 122
222 222 222
36 36 36
191 191 191
64 64 64
11 11 11
13 13 13
35 35 35
59 59 59
73 73 73
83 83 83
85 85 85
92 92 92
115 115 115
100 100 100
99 99 99
97 97 97
94 94 94
108 108 108
138 138 138
140 140 140
127 127 127
141 141 141
148 148 148
124 124 124
95 95 95
87 87 87
87 87 87
75 75 75
30 30 30
11 11 11
7 7 7
5 5 5
6 6 6
33 33 33
8 8 8
48 48 48
23 23 23
2 2 2
0 0 0
0 0 0
2 2 2
5 5 5
18 18 18
14 14 14
16 16 16
10 10 10
0 0 0
53 53 53
76 76 76
115 115 115
252 252 252
106 106 106
140 140 140
73 73 73
12 12 12
50 50 50
87 87 87
94 94 94
88 88 88
85 85 85
84 84 84
82 82 82
111 111 111
139 139 139
139 139 139
153 153 153
81 81 81
88 88 88
131 131 131
156 156 156
148 148 148
160 160 160
141 141 141
122 122 122
92 92 92
91 91 91
89 89 89
84 84 84
30 30 30
10 10 10
10 10 10
6 6 6
6 6 6
45 45 45
8 8 8
30 30 30
13 13 13
3 3 3
0 0 0
0 0 0
2 2 2
11 11 11
10 10 10
17 17 17
14 14 14
52 52 52
17 17 17
58 58 58
133 133 133
14 14 14
46 46 46
110 110 110
107 107 107
238 238 238
122 122 122
77 77 77
81 81 81
83 83 83
78 78 78
79 79 79
89 89 89
108 108 108
101 101 101
132 132 132
129 129 129
128 128 128
109 109 109
159 159 159
155 155 155
140 140 140
161 161 161
145 145 145
121 121 121
111 111 111
92 92 92
88 88 88
89 89 89
85 85 85
47 47 47
18 18 18
13 13 13
9 9 9
3 3 3
24 24 24
8 8 8
22 22 22
14 14 14
16 16 16
0 0 0
0 0 0
7 7 7
17 17 17
28 28 28
41 41 41
71 71 71
135 135 135
231 231 231
79 79 79
54 54 54
94 94 94
86 86 86
144 144 144
53 53 53
217 217 217
123 123 123
98 98 98
90 90 90
92 92 92
91 91 91
95 95 95
93 93 93
128 128 128
124 124 124
100 100 100
104 104 104
87 87 87
89 89 89
92 92 92
154 154 154
158 158 158
165 165 165
141 141 141
109 109 109
103 103 103
90 90 90
91 91 91
92 92 92
90 90 90
73 73 73
14 14 14
19 19 19
12 12 12
5 5 5
9 9 9
12 12 12
17 17 17
17 17 17
19 19 19
0 0 0
0 0 0
14 14 14
12 12 12
2 2 2
1 1 1
0 0 0
158 158 158
100 100 100
105 105 105
136 136 136
151 151 151
47 47 47
152 152 152
22 22 22
106 106 106
160 160 160
121 121 121
93 93 93
94 94 94
82 82 82
92 92 92
87 87 87
147 147 147
125 125 125
93 93 93
86 86 86
88 88 88
85 85 85
86 86 86
88 88 88
179 179 179
177 177 177
144 144 144
111 111 111
104 104 104
94 94 94
92 92 92
90 90 90
90 90 90
86 86 86
28 28 28
20 20 20
15 15 15
9 9 9
10 10 10
9 9 9
13 13 13
18 18 18
14 14 14
0 0 0
0 0 0
0 0 0
0 0 0
0 0 0
0 0 0
99 99 99
98 98 98
61 61 61
4 4 4
74 74 74
112 112 112
81 81 81
141 141 141
53 53 53
98 98 98
112 112 112
130 130 130
74 74 74
78 78 78
89 89 89
82 82 82
167 167 167
153 153 153
141 141 141
105 105 105
88 88 88
89 89 89
92 92 92
92 92 92
90 90 90
103 103 103
190 190 190
183 183 183
129 129 129
108 108 108
99 99 99
91 91 91
93 93 93
90 90 90
86 86 86
31 31 31
13 13 13
16 16 16
4 4 4
15 15 15
9 9 9
12 12 12
22 22 22
12 12 12
0 0 0
0 0 0
0 0 0
0 0 0
2 2 2
21 21 21
230 230 230
87 87 87
52 52 52
36 36 36
37 37 37
82 82 82
144 144 144
127 127 127
85 85 85
103 103 103
91 91 91
112 112 112
49 49 49
53 53 53
95 95 95
75 75 75
218 218 218
171 171 171
121 121 121
151 151 151
87 87 87
87 87 87
87 87 87
89 89 89
94 94 94
99 99 99
150 150 150
125 125 125
100 100 100
97 97 97
92 92 92
91 91 91
91 91 91
90 90 90
85 85 85
19 19 19
6 6 6
12 12 12
11 11 11
22 22 22
7 7 7
9 9 9
24 24 24
12 12 12
0 0 0
0 0 0
0 0 0
0 0 0
0 0 0
8 8 8
227 227 227
74 74 74
32 32 32
47 47 47
128 128 128
111 111 111
118 118 118
109 109 109
81 81 81
82 82 82
107 107 107
97 97 97
100 100 100
41 41 41
104 104 104
25 25 25
95 95 95
170 170 170
104 104 104
91 91 91
82 82 82
88 88 88
83 83 83
86 86 86
91 91 91
177 177 177
153 153 153
138 138 138
113 113 113
104 104 104
90 90 90
88 88 88
90 90 90
91 91 91
81 81 81
29 29 29
10 10 10
10 10 10
18 18 18
34 34 34
7 7 7
10 10 10
28 28 28
12 12 12
0 0 0
0 0 0
0 0 0
0 0 0
0 0 0
0 0 0
134 134 134
60 60 60
23 23 23
15 15 15
22 22 22
68 68 68
79 79 79
121 121 121
74 74 74
87 87 87
118 118 118
98 98 98
98 98 98
60 60 60
107 107 107
104 104 104
100 100 100
142 142 142
153 153 153
122 122 122
94 94 94
88 88 88
82 82 82
91 91 91
105 105 105
155 155 155
155 155 155
145 145 145
124 124 124
109 109 109
90 90 90
88 88 88
89 89 89
88 88 88
66 66 66
17 17 17
3 3 3
10 10 10
13 13 13
39 39 39
6 6 6
7 7 7
29 29 29
12 12 12
0 0 0
0 0 0
0 0 0
0 0 0
0 0 0
0 0 0
13 13 13
29 29 29
202 202 202
126 126 126
189 189 189
177 177 177
174 174 174
166 166 166
107 107 107
91 91 91
124 124 124
101 101 101
96 96 96
49 49 49
101 101 101
90 90 90
90 90 90
102 102 102
109 109 109
154 154 154
130 130 130
172 172 172
86 86 86
96 96 96
128 128 128
162 162 162
154 154 154
141 141 141
119 119 119
113 113 113
96 96 96
86 86 86
89 89 89
87 87 87
47 47 47
9 9 9
5 5 5
16 16 16
13 13 13
44 44 44
10 10 10
9 9 9
31 31 31
11 11 11
0 0 0
0 0 0
0 0 0
0 0 0
2 2 2
6 6 6
22 22 22
73 73 73
192 192 192
208 208 208
196 196 196
173 173 173
87 87 87
137 137 137
111 111 111
154 154 154
97 97 97
78 78 78
65 65 65
85 85 85
83 83 83
81 81 81
82 82 82
82 82 82
115 115 115
119 119 119
168 168 168
155 155 155
83 83 83
86 86 86
92 92 92
132 132 132
138 138 138
134 134 134
136 136 136
120 120 120
90 90 90
85 85 85
89 89 89
84 84 84
19 19 19
9 9 9
14 14 14
12 12 12
13 13 13
42 42 42
9 9 9
9 9 9
29 29 29
13 13 13
0 0 0
0 0 0
2 2 2
9 9 9
11 11 11
16 16 16
12 12 12
67 67 67
36 36 36
54 54 54
101 101 101
225 225 225
75 75 75
114 114 114
177 177 177
172 172 172
6 6 6
31 31 31
66 66 66
81 81 81
81 81 81
90 90 90
93 93 93
90 90 90
96 96 96
101 101 101
92 92 92
93 93 93
89 89 89
88 88 88
91 91 91
107 107 107
126 126 126
135 135 135
137 137 137
108 108 108
87 87 87
88 88 88
85 85 85
54 54 54
23 23 23
16 16 16
12 12 12
6 6 6
7 7 7
31 31 31
7 7 7
8 8 8
27 27 27
12 12 12
0 0 0
0 0 0
8 8 8
10 10 10
11 11 11
22 22 22
28 28 28
44 44 44
10 10 10
2 2 2
161 161 161
29 29 29
27 27 27
228 228 228
230 230 230
106 106 106
25 25 25
13 13 13
24 24 24
41 41 41
56 56 56
68 68 68
82 82 82
90 90 90
84 84 84
93 93 93
96 96 96
86 86 86
84 84 84
81 81 81
87 87 87
95 95 95
104 104 104
121 121 121
115 115 115
91 91 91
85 85 85
82 82 82
70 70 70
34 34 34
27 27 27
11 11 11
9 9 9
14 14 14
16 16 16
21 21 21
7 7 7
8 8 8
24 24 24
12 12 12
0 0 0
0 0 0
6 6 6
5 5 5
16 16 16
0 0 0
23 23 23
0 0 0
30 30 30
3 3 3
86 86 86
66 66 66
76 76 76
188 188 188
132 132 132
150 150 150
78 78 78
62 62 62
75 75 75
96 96 96
60 60 60
66 66 66
69 69 69
76 76 76
80 80 80
76 76 76
81 81 81
83 83 83
84 84 84
86 86 86
87 87 87
89 89 89
95 95 95
90 90 90
86 86 86
87 87 87
82 82 82
64 64 64
37 37 37
36 36 36
18 18 18
4 4 4
21 21 21
10 10 10
7 7 7
14 14 14
9 9 9
9 9 9
22 22 22
13 13 13
0 0 0
0 0 0
5 5 5
9 9 9
0 0 0
19 19 19
4 4 4
2 2 2
17 17 17
1 1 1
48 48 48
22 22 22
79 79 79
120 120 120
87 87 87
114 114 114
129 129 129
101 101 101
171 171 171
91 91 91
92 92 92
90 90 90
62 62 62
70 70 70
77 77 77
79 79 79
82 82 82
86 86 86
77 77 77
80 80 80
80 80 80
83 83 83
81 81 81
86 86 86
84 84 84
82 82 82
40 40 40
29 29 29
20 20 20
16 16 16
7 7 7
9 9 9
21 21 21
2 2 2
17 17 17
22 22 22
8 8 8
11 11 11
19 19 19
13 13 13
0 0 0
0 0 0
3 3 3
0 0 0
3 3 3
17 17 17
1 1 1
20 20 20
0 0 0
7 7 7
30 30 30
3 3 3
9 9 9
39 39 39
90 90 90
71 71 71
126 126 126
114 114 114
107 107 107
96 96 96
79 79 79
146 146 146
188 188 188
71 71 71
75 75 75
75 75 75
85 85 85
107 107 107
80 80 80
78 78 78
84 84 84
85 85 85
88 88 88
83 83 83
76 76 76
13 13 13
6 6 6
5 5 5
1 1 1
18 18 18
8 8 8
15 15 15
8 8 8
15 15 15
21 21 21
23 23 23
8 8 8
14 14 14
14 14 14
14 14 14
0 0 0
0 0 0
0 0 0
0 0 0
29 29 29
1 1 1
8 8 8
2 2 2
1 1 1
18 18 18
19 19 19
0 0 0
7 7 7
41 41 41
10 10 10
76 76 76
93 93 93
113 113 113
108 108 108
106 106 106
102 102 102
76 76 76
70 70 70
82 82 82
87 87 87
82 82 82
79 79 79
99 99 99
90 90 90
88 88 88
82 82 82
85 85 85
76 76 76
44 44 44
2 2 2
1 1 1
1 1 1
1 1 1
1 1 1
9 9 9
13 13 13
12 12 12
12 12 12
22 22 22
13 13 13
33 33 33
8 8 8
19 19 19
12 12 12
18 18 18
0 0 0
0 0 0
1 1 1
23 23 23
2 2 2
0 0 0
15 15 15
2 2 2
5 5 5
8 8 8
13 13 13
0 0 0
4 4 4
23 23 23
10 10 10
5 5 5
67 67 67
106 106 106
85 85 85
90 90 90
93 93 93
91 91 91
82 82 82
77 77 77
71 71 71
87 87 87
67 67 67
60 60 60
81 81 81
82 82 82
73 73 73
18 18 18
1 1 1
5 5 5
3 3 3
2 2 2
0 0 0
0 0 0
8 8 8
8 8 8
13 13 13
10 10 10
10 10 10
9 9 9
13 13 13
46 46 46
8 8 8
28 28 28
10 10 10
27 27 27
0 0 0
0 0 0
2 2 2
7 7 7
0 0 0
0 0 0
1 1 1
1 1 1
19 19 19
9 9 9
3 3 3
0 0 0
4 4 4
8 8 8
20 20 20
13 13 13
6 6 6
10 10 10
27 27 27
28 28 28
26 26 26
12 12 12
25 25 25
50 50 50
63 63 63
52 52 52
45 45 45
5 5 5
2 2 2
0 0 0
0 0 0
0 0 0
0 0 0
0 0 0
0 0 0
0 0 0
0 0 0
0 0 0
7 7 7
5 5 5
21 21 21
22 22 22
9 9 9
23 23 23
16 16 16
37 37 37
8 8 8
46 46 46
12 12 12
2 2 2
0 0 0
0 0 0
2 2 2
2 2 2
0 0 0
12 12 12
1 1 1
2 2 2
17 17 17
4 4 4
0 0 0
0 0 0
6 6 6
4 4 4
26 26 26
5 5 5
3 3 3
3 3 3
16 16 16
12 12 12
12 12 12
10 10 10
9 9 9
11 11 11
11 11 11
58 58 58
80 80 80
33 33 33
11 11 11
3 3 3
2 2 2
1 1 1
0 0 0
0 0 0
0 0 0
1 1 1
1 1 1
1 1 1
7 7 7
6 6 6
13 13 13
15 15 15
14 14 14
7 7 7
24 24 24
13 13 13
9 9 9
65 65 65
22 22 22
2 2 2
0 0 0
0 0 0
2 2 2
2 2 2
0 0 0
11 11 11
1 1 1
8 8 8
21 21 21
7 7 7
0 0 0
1 1 1
9 9 9
2 2 2
18 18 18
7 7 7
1 1 1
3 3 3
4 4 4
10 10 10
7 7 7
10 10 10
10 10 10
7 7 7
6 6 6
10 10 10
83 83 83
84 84 84
81 81 81
77 77 77
61 61 61
6 6 6
2 2 2
2 2 2
0 0 0
1 1 1
1 1 1
1 1 1
1 1 1
11 11 11
2 2 2
20 20 20
21 21 21
6 6 6
35 35 35
9 9 9
10 10 10
80 80 80
8 8 8
2 2 2
0 0 0
0 0 0
2 2 2
2 2 2
7 7 7
5 5 5
1 1 1
4 4 4
15 15 15
2 2 2
0 0 0
0 0 0
10 10 10
1 1 1
8 8 8
12 12 12
4 4 4
4 4 4
1 1 1
5 5 5
9 9 9
6 6 6
8 8 8
11 11 11
10 10 10
8 8 8
8 8 8
11 11 11
11 11 11
27 27 27
22 22 22
2 2 2
5 5 5
6 6 6
4 4 4
3 3 3
2 2 2
2 2 2
2 2 2
8 8 8
1 1 1
10 10 10
22 22 22
12 12 12
41 41 41
6 6 6
13 13 13
78 78 78
2 2 2
2 2 2
0 0 0
0 0 0
2 2 2
2 2 2
2 2 2
2 2 2
1 1 1
8 8 8
14 14 14
0 0 0
0 0 0
2 2 2
10 10 10
1 1 1
4 4 4
15 15 15
2 2 2
11 11 11
5 5 5
13 13 13
6 6 6
7 7 7
7 7 7
8 8 8
7 7 7
6 6 6
6 6 6
7 7 7
10 10 10
6 6 6
1 1 1
0 0 0
1 1 1
1 1 1
6 6 6
6 6 6
5 5 5
3 3 3
1 1 1
6 6 6
3 3 3
24 24 24
9 9 9
7 7 7
18 18 18
9 9 9
16 16 16
10 10 10
2 2 2
2 2 2
0 0 0
0 0 0
2 2 2
2 2 2
2 2 2
1 1 1
0 0 0
16 16 16
18 18 18
0 0 0
0 0 0
2 2 2
10 10 10
0 0 0
1 1 1
12 12 12
2 2 2
12 12 12
16 16 16
15 15 15
16 16 16
8 8 8
6 6 6
6 6 6
11 11 11
10 10 10
7 7 7
6 6 6
6 6 6
10 10 10
7 7 7
2 2 2
0 0 0
0 0 0
1 1 1
6 6 6
7 7 7
14 14 14
4 4 4
11 11 11
16 16 16
28 28 28
7 7 7
13 13 13
8 8 8
12 12 12
30 30 30
2 2 2
2 2 2
2 2 2
0 0 0
0 0 0
2 2 2
2 2 2
2 2 2
2 2 2
1 1 1
12 12 12
12 12 12
0 0 0
0 0 0
2 2 2
10 10 10
0 0 0
0 0 0
8 8 8
6 6 6
11 11 11
2 2 2
4 4 4
9 9 9
6 6 6
7 7 7
5 5 5
7 7 7
7 7 7
9 9 9
8 8 8
5 5 5
6 6 6
6 6 6
6 6 6
4 4 4
1 1 1
2 2 2
1 1 1
4 4 4
15 15 15
6 6 6
9 9 9
21 21 21
28 28 28
11 11 11
44 44 44
9 9 9
15 15 15
2 2 2
2 2 2
2 2 2
2 2 2
0 0 0
0 0 0
2 2 2
2 2 2
2 2 2
2 2 2
2 2 2
8 8 8
5 5 5
0 0 0
0 0 0
5 5 5
9 9 9
1 1 1
0 0 0
6 6 6
11 11 11
3 3 3
7 7 7
3 3 3
4 4 4
7 7 7
6 6 6
8 8 8
5 5 5
9 9 9
10 10 10
10 10 10
7 7 7
6 6 6
7 7 7
8 8 8
7 7 7
6 6 6
3 3 3
4 4 4
14 14 14
7 7 7
14 14 14
16 16 16
14 14 14
13 13 13
11 11 11
26 26 26
11 11 11
4 4 4
2 2 2
2 2 2
2 2 2
2 2 2
0 0 0
0 0 0
2 2 2
2 2 2
2 2 2
2 2 2
2 2 2
2 2 2
1 1 1
0 0 0
0 0 0
5 5 5
10 10 10
3 3 3
0 0 0
2 2 2
9 9 9
1 1 1
13 13 13
2 2 2
3 3 3
2 2 2
9 9 9
6 6 6
6 6 6
4 4 4
6 6 6
5 5 5
7 7 7
6 6 6
7 7 7
6 6 6
9 9 9
8 8 8
9 9 9
13 13 13
19 19 19
22 22 22
18 18 18
16 16 16
16 16 16
14 14 14
26 26 26
13 13 13
9 9 9
2 2 2
2 2 2
2 2 2
2 2 2
2 2 2
0 0 0
0 0 0
2 2 2
2 2 2
2 2 2
2 2 2
2 2 2
2 2 2
2 2 2
1 1 1
0 0 0
6 6 6
8 8 8
5 5 5
0 0 0
2 2 2
9 9 9
3 3 3
9 9 9
1 1 1
3 3 3
0 0 0
6 6 6
9 9 9
6 6 6
5 5 5
7 7 7
7 7 7
6 6 6
7 7 7
6 6 6
5 5 5
5 5 5
6 6 6
19 19 19
25 25 25
13 13 13
16 16 16
16 16 16
5 5 5
20 20 20
15 15 15
44 44 44
16 16 16
2 2 2
2 2 2
2 2 2
2 2 2
2 2 2
2 2 2
0 0 0
0 0 0
2 2 2
2 2 2
2 2 2
2 2 2
2 2 2
2 2 2
2 2 2
2 2 2
0 0 0
6 6 6
7 7 7
6 6 6
0 0 0
1 1 1
6 6 6
4 4 4
7 7 7
4 4 4
0 0 0
0 0 0
1 1 1
10 10 10
10 10 10
8 8 8
2 2 2
6 6 6
7 7 7
6 6 6
7 7 7
10 10 10
24 24 24
26 26 26
18 18 18
13 13 13
22 22 22
27 27 27
25 25 25
5 5 5
8 8 8
12 12 12
9 9 9
2 2 2
2 2 2
2 2 2
2 2 2
2 2 2
2 2 2
2 2 2
0 0 0
0 0 0
2 2 2
2 2 2
2 2 2
2 2 2
2 2 2
2 2 2
2 2 2
2 2 2
2 2 2
4 4 4
4 4 4
5 5 5
0 0 0
0 0 0
0 0 0
7 7 7
5 5 5
7 7 7
2 2 2
5 5 5
0 0 0
0 0 0
5 5 5
2 2 2
4 4 4
8 8 8
11 11 11
10 10 10
13 13 13
15 15 15
14 14 14
16 16 16
13 13 13
13 13 13
30 30 30
24 24 24
14 14 14
14 14 14
12 12 12
4 4 4
2 2 2
2 2 2
2 2 2
2 2 2
2 2 2
2 2 2
2 2 2
2 2 2
0 0 0
0 0 0
2 2 2
2 2 2
2 2 2
2 2 2
2 2 2
2 2 2
2 2 2
2 2 2
2 2 2
2 2 2
2 2 2
6 6 6
0 0 0
0 0 0
4 4 4
9 9 9
1 1 1
7 7 7
8 8 8
1 1 1
1 1 1
1 1 1
2 2 2
1 1 1
2 2 2
13 13 13
5 5 5
4 4 4
8 8 8
13 13 13
9 9 9
10 10 10
9 9 9
35 35 35
24 24 24
26 26 26
10 10 10
13 13 13
2 2 2
2 2 2
2 2 2
2 2 2
2 2 2
2 2 2
2 2 2
2 2 2
2 2 2
2 2 2
0 0 0
0 0 0
2 2 2
2 2 2
2 2 2
2 2 2
2 2 2
2 2 2
2 2 2
2 2 2
2 2 2
2 2 2
2 2 2
2 2 2
1 1 1
0 0 0
3 3 3
4 4 4
3 3 3
10 10 10
7 7 7
1 1 1
2 2 2
0 0 0
1 1 1
4 4 4
3 3 3
16 16 16
4 4 4
11 11 11
7 7 7
19 19 19
10 10 10
16 16 16
23 23 23
10 10 10
17 17 17
19 19 19
3 3 3
2 2 2
2 2 2
2 2 2
2 2 2
2 2 2
2 2 2
2 2 2
2 2 2
2 2 2
2 2 2
2 2 2
0 0 0
0 0 0
2 2 2
2 2 2
2 2 2
2 2 2
2 2 2
2 2 2
2 2 2
2 2 2
2 2 2
2 2 2
2 2 2
2 2 2
2 2 2
2 2 2
0 0 0
1 1 1
5 5 5
6 6 6
1 1 1
1 1 1
1 1 1
2 2 2
0 0 0
1 1 1
8 8 8
14 14 14
10 10 10
2 2 2
7 7 7
10 10 10
16 16 16
11 11 11
15 15 15
22 22 22
3 3 3
2 2 2
2 2 2
2 2 2
2 2 2
2 2 2
2 2 2
2 2 2
2 2 2
2 2 2
2 2 2
2 2 2
2 2 2
2 2 2
0 0 0
0 0 0
2 2 2
2 2 2
2 2 2
2 2 2
2 2 2
2 2 2
2 2 2
2 2 2
2 2 2
2 2 2
2 2 2
2 2 2
2 2 2
2 2 2
2 2 2
2 2 2
4 4 4
4 4 4
3 3 3
4 4 4
3 3 3
3 3 3
1 1 1
2 2 2
4 4 4
3 3 3
10 10 10
9 9 9
7 7 7
10 10 10
22 22 22
13 13 13
2 2 2
2 2 2
2 2 2
2 2 2
2 2 2
2 2 2
2 2 2
2 2 2
2 2 2
2 2 2
2 2 2
2 2 2
2 2 2
2 2 2
2 2 2
2 2 2
0 0 0
0 0 0
0 0 0
0 0 0
0 0 0
0 0 0
0 0 0
0 0 0
0 0 0
0 0 0
0 0 0
0 0 0
0 0 0
0 0 0
0 0 0
0 0 0
0 0 0
0 0 0
0 0 0
0 0 0
0 0 0
0 0 0
0 0 0
0 0 0
0 0 0
0 0 0
0 0 0
0 0 0
0 0 0
0 0 0
0 0 0
0 0 0
0 0 0
0 0 0
0 0 0
0 0 0
0 0 0
0 0 0
0 0 0
0 0 0
0 0 0
0 0 0
0 0 0
0 0 0
0 0 0
0 0 0
0 0 0
0 0 0
0 0 0
0 0 0
0 0 0
