P3 
50 50 
255
0 0 0
0 0 0
0 0 0
0 0 0
0 0 0
0 0 0
0 0 0
0 0 0
0 0 0
0 0 0
0 0 0
0 0 0
0 0 0
0 0 0
0 0 0
0 0 0
0 0 0
0 0 0
0 0 0
0 0 0
0 0 0
0 0 0
0 0 0
0 0 0
0 0 0
0 0 0
0 0 0
0 0 0
0 0 0
0 0 0
0 0 0
0 0 0
0 0 0
0 0 0
0 0 0
0 0 0
0 0 0
0 0 0
0 0 0
0 0 0
0 0 0
0 0 0
0 0 0
0 0 0
0 0 0
0 0 0
0 0 0
0 0 0
0 0 0
0 0 0
0 0 0
2 2 2
2 2 2
2 2 2
2 2 2
2 2 2
2 2 2
2 2 2
2 2 2
2 2 2
2 2 2
2 2 2
2 2 2
2 2 2
2 2 2
2 2 2
2 2 2
2 2 2
1 1 1
2 2 2
2 2 2
2 2 2
2 2 2
2 2 2
2 2 2
3 3 3
3 3 3
3 3 3
4 4 4
4 4 4
9 9 9
11 11 11
4 4 4
2 2 2
2 2 2
2 2 2
2 2 2
2 2 2
2 2 2
2 2 2
2 2 2
2 2 2
2 2 2
2 2 2
2 2 2
2 2 2
2 2 2
2 2 2
2 2 2
0 0 0
0 0 0
2 2 2
2 2 2
2 2 2
2 2 2
2 2 2
2 2 2
2 2 2
2 2 2
2 2 2
2 2 2
2 2 2
2 2 2
2 2 2
2 2 2
2 2 2
1 1 1
1 1 1
1 1 1
2 2 2
2 2 2
2 2 2
2 2 2
2 2 2
2 2 2
2 2 2
2 2 2
3 3 3
3 3 3
4 4 4
7 7 7
5 5 5
5 5 5
7 7 7
8 8 8
2 2 2
2 2 2
2 2 2
2 2 2
2 2 2
2 2 2
2 2 2
2 2 2
2 2 2
2 2 2
2 2 2
2 2 2
2 2 2
2 2 2
0 0 0
0 0 0
2 2 2
2 2 2
2 2 2
2 2 2
2 2 2
2 2 2
2 2 2
2 2 2
2 2 2
2 2 2
2 2 2
2 2 2
1 1 1
1 1 1
1 1 1
1 1 1
1 1 1
2 2 2
2 2 2
2 2 2
2 2 2
2 2 2
2 2 2
2 2 2
2 2 2
3 3 3
3 3 3
3 3 3
8 8 8
3 3 3
8 8 8
4 4 4
9 9 9
5 5 5
8 8 8
11 11 11
2 2 2
2 2 2
2 2 2
2 2 2
2 2 2
2 2 2
2 2 2
2 2 2
2 2 2
2 2 2
2 2 2
2 2 2
0 0 0
0 0 0
2 2 2
2 2 2
2 2 2
2 2 2
2 2 2
2 2 2
2 2 2
2 2 2
2 2 2
2 2 2
1 1 1
1 1 1
1 1 1
1 1 1
1 1 1
2 2 2
2 2 2
2 2 2
1 1 1
2 2 2
3 3 3
2 2 2
2 2 2
2 2 2
2 2 2
3 3 3
4 4 4
3 3 3
6 6 6
8 8 8
6 6 6
6 6 6
4 4 4
8 8 8
8 8 8
6 6 6
9 9 9
8 8 8
2 2 2
2 2 2
2 2 2
2 2 2
2 2 2
2 2 2
2 2 2
2 2 2
2 2 2
2 2 2
0 0 0
0 0 0
2 2 2
2 2 2
2 2 2
2 2 2
2 2 2
2 2 2
2 2 2
2 2 2
2 2 2
1 1 1
1 1 1
1 1 1
1 1 1
1 1 1
1 1 1
2 2 2
2 2 2
2 2 2
3 3 3
3 3 3
2 2 2
2 2 2
2 2 2
2 2 2
5 5 5
3 3 3
4 4 4
9 9 9
11 11 11
10 10 10
7 7 7
8 8 8
5 5 5
4 4 4
4 4 4
8 8 8
6 6 6
7 7 7
11 11 11
2 2 2
2 2 2
2 2 2
2 2 2
2 2 2
2 2 2
2 2 2
2 2 2
2 2 2
0 0 0
0 0 0
2 2 2
2 2 2
2 2 2
2 2 2
2 2 2
2 2 2
2 2 2
2 2 2
1 1 1
1 1 1
1 1 1
1 1 1
1 1 1
1 1 1
1 1 1
1 1 1
2 2 2
3 3 3
4 4 4
3 3 3
3 3 3
2 2 2
2 2 2
2 2 2
5 5 5
6 6 6
3 3 3
9 9 9
16 16 16
6 6 6
6 6 6
4 4 4
9 9 9
8 8 8
8 8 8
8 8 8
5 5 5
5 5 5
7 7 7
41 41 41
4 4 4
2 2 2
2 2 2
2 2 2
2 2 2
2 2 2
2 2 2
2 2 2
0 0 0
0 0 0
2 2 2
2 2 2
2 2 2
2 2 2
2 2 2
2 2 2
2 2 2
1 1 1
1 1 1
1 1 1
1 1 1
1 1 1
1 1 1
1 1 1
2 2 2
2 2 2
3 3 3
3 3 3
3 3 3
3 3 3
2 2 2
2 2 2
2 2 2
5 5 5
4 4 4
3 3 3
8 8 8
11 11 11
4 4 4
4 4 4
8 8 8
4 4 4
7 7 7
6 6 6
9 9 9
4 4 4
5 5 5
5 5 5
6 6 6
42 42 42
13 13 13
6 6 6
2 2 2
2 2 2
2 2 2
2 2 2
2 2 2
2 2 2
0 0 0
0 0 0
2 2 2
2 2 2
2 2 2
2 2 2
2 2 2
2 2 2
2 2 2
1 1 1
1 1 1
1 1 1
1 1 1
1 1 1
1 1 1
2 2 2
2 2 2
3 3 3
3 3 3
3 3 3
3 3 3
3 3 3
2 2 2
2 2 2
2 2 2
9 9 9
3 3 3
2 2 2
11 11 11
12 12 12
6 6 6
6 6 6
5 5 5
7 7 7
4 4 4
5 5 5
9 9 9
8 8 8
5 5 5
8 8 8
6 6 6
27 27 27
10 10 10
14 14 14
4 4 4
2 2 2
2 2 2
2 2 2
2 2 2
2 2 2
0 0 0
0 0 0
2 2 2
2 2 2
2 2 2
2 2 2
2 2 2
1 1 1
1 1 1
1 1 1
1 1 1
1 1 1
1 1 1
1 1 1
1 1 1
2 2 2
3 3 3
3 3 3
3 3 3
3 3 3
2 2 2
2 2 2
2 2 2
2 2 2
5 5 5
10 10 10
4 4 4
9 9 9
7 7 7
9 9 9
9 9 9
3 3 3
9 9 9
5 5 5
7 7 7
6 6 6
4 4 4
4 4 4
5 5 5
5 5 5
11 11 11
19 19 19
7 7 7
11 11 11
15 15 15
2 2 2
2 2 2
2 2 2
2 2 2
2 2 2
0 0 0
0 0 0
2 2 2
2 2 2
2 2 2
2 2 2
2 2 2
1 1 1
1 1 1
1 1 1
1 1 1
1 1 1
1 1 1
1 1 1
1 1 1
3 3 3
3 3 3
3 3 3
3 3 3
2 2 2
2 2 2
2 2 2
5 5 5
5 5 5
2 2 2
6 6 6
5 5 5
4 4 4
7 7 7
4 4 4
9 9 9
7 7 7
5 5 5
9 9 9
4 4 4
6 6 6
4 4 4
4 4 4
7 7 7
10 10 10
4 4 4
10 10 10
10 10 10
8 8 8
11 11 11
17 17 17
2 2 2
2 2 2
2 2 2
2 2 2
0 0 0
0 0 0
2 2 2
2 2 2
2 2 2
2 2 2
1 1 1
1 1 1
1 1 1
1 1 1
1 1 1
1 1 1
1 1 1
1 1 1
2 2 2
3 3 3
3 3 3
3 3 3
3 3 3
2 2 2
4 4 4
4 4 4
7 7 7
12 12 12
22 22 22
13 13 13
11 11 11
9 9 9
7 7 7
7 7 7
8 8 8
8 8 8
6 6 6
9 9 9
5 5 5
7 7 7
5 5 5
3 3 3
10 10 10
10 10 10
4 4 4
5 5 5
29 29 29
6 6 6
8 8 8
13 13 13
19 19 19
2 2 2
2 2 2
2 2 2
0 0 0
0 0 0
2 2 2
2 2 2
2 2 2
1 1 1
1 1 1
1 1 1
1 1 1
1 1 1
2 2 2
1 1 1
1 1 1
2 2 2
3 3 3
3 3 3
3 3 3
3 3 3
3 3 3
3 3 3
2 2 2
5 5 5
2 2 2
6 6 6
10 10 10
9 9 9
7 7 7
6 6 6
5 5 5
13 13 13
11 11 11
14 14 14
10 10 10
16 16 16
12 12 12
8 8 8
6 6 6
4 4 4
4 4 4
4 4 4
4 4 4
3 3 3
40 40 40
6 6 6
8 8 8
11 11 11
15 15 15
6 6 6
2 2 2
2 2 2
0 0 0
0 0 0
2 2 2
2 2 2
2 2 2
1 1 1
1 1 1
1 1 1
1 1 1
1 1 1
1 1 1
1 1 1
1 1 1
3 3 3
3 3 3
3 3 3
3 3 3
3 3 3
3 3 3
6 6 6
4 4 4
4 4 4
6 6 6
10 10 10
11 11 11
8 8 8
6 6 6
8 8 8
9 9 9
10 10 10
10 10 10
10 10 10
9 9 9
13 13 13
23 23 23
13 13 13
9 9 9
5 5 5
6 6 6
11 11 11
12 12 12
10 10 10
15 15 15
8 8 8
7 7 7
10 10 10
12 12 12
67 67 67
2 2 2
2 2 2
0 0 0
0 0 0
2 2 2
2 2 2
2 2 2
1 1 1
1 1 1
1 1 1
1 1 1
1 1 1
2 2 2
1 1 1
3 3 3
3 3 3
3 3 3
3 3 3
3 3 3
3 3 3
3 3 3
7 7 7
6 6 6
9 9 9
6 6 6
6 6 6
6 6 6
6 6 6
5 5 5
5 5 5
8 8 8
9 9 9
7 7 7
7 7 7
6 6 6
6 6 6
6 6 6
15 15 15
14 14 14
16 16 16
12 12 12
8 8 8
6 6 6
5 5 5
15 15 15
31 31 31
7 7 7
9 9 9
10 10 10
74 74 74
5 5 5
2 2 2
0 0 0
0 0 0
2 2 2
2 2 2
1 1 1
1 1 1
1 1 1
1 1 1
2 2 2
2 2 2
1 1 1
2 2 2
3 3 3
3 3 3
3 3 3
3 3 3
3 3 3
3 3 3
2 2 2
13 13 13
12 12 12
4 4 4
5 5 5
6 6 6
8 8 8
13 13 13
24 24 24
35 35 35
50 50 50
56 56 56
39 39 39
19 19 19
14 14 14
14 14 14
12 12 12
7 7 7
8 8 8
16 16 16
25 25 25
14 14 14
15 15 15
16 16 16
7 7 7
36 36 36
6 6 6
8 8 8
8 8 8
71 71 71
24 24 24
2 2 2
0 0 0
0 0 0
2 2 2
1 1 1
2 2 2
1 1 1
2 2 2
2 2 2
1 1 1
1 1 1
1 1 1
3 3 3
3 3 3
3 3 3
3 3 3
2 2 2
9 9 9
8 8 8
9 9 9
9 9 9
5 5 5
4 4 4
11 11 11
21 21 21
41 41 41
59 59 59
77 77 77
83 83 83
84 84 84
84 84 84
82 82 82
68 68 68
56 56 56
49 49 49
38 38 38
24 24 24
9 9 9
17 17 17
9 9 9
18 18 18
14 14 14
10 10 10
11 11 11
13 13 13
6 6 6
7 7 7
8 8 8
52 52 52
13 13 13
3 3 3
0 0 0
0 0 0
2 2 2
1 1 1
1 1 1
1 1 1
1 1 1
1 1 1
1 1 1
1 1 1
2 2 2
3 3 3
3 3 3
3 3 3
2 2 2
1 1 1
4 4 4
3 3 3
3 3 3
4 4 4
3 3 3
18 18 18
42 42 42
65 65 65
79 79 79
84 84 84
89 89 89
94 94 94
97 97 97
98 98 98
98 98 98
91 91 91
87 87 87
83 83 83
76 76 76
56 56 56
26 26 26
16 16 16
20 20 20
42 42 42
19 19 19
5 5 5
12 12 12
5 5 5
20 20 20
6 6 6
7 7 7
35 35 35
10 10 10
17 17 17
0 0 0
0 0 0
2 2 2
2 2 2
1 1 1
1 1 1
1 1 1
1 1 1
1 1 1
1 1 1
3 3 3
3 3 3
2 2 2
2 2 2
1 1 1
1 1 1
6 6 6
3 3 3
3 3 3
3 3 3
11 11 11
45 45 45
75 75 75
84 84 84
91 91 91
98 98 98
110 110 110
124 124 124
133 133 133
136 136 136
127 127 127
119 119 119
106 106 106
97 97 97
87 87 87
75 75 75
43 43 43
14 14 14
6 6 6
29 29 29
22 22 22
5 5 5
17 17 17
10 10 10
40 40 40
6 6 6
7 7 7
25 25 25
12 12 12
19 19 19
0 0 0
0 0 0
2 2 2
1 1 1
1 1 1
1 1 1
1 1 1
1 1 1
1 1 1
2 2 2
3 3 3
2 2 2
2 2 2
2 2 2
1 1 1
1 1 1
5 5 5
3 3 3
2 2 2
6 6 6
25 25 25
72 72 72
84 84 84
96 96 96
112 112 112
125 125 125
142 142 142
160 160 160
170 170 170
166 166 166
157 157 157
139 139 139
125 125 125
114 114 114
93 93 93
82 82 82
65 65 65
16 16 16
3 3 3
11 11 11
12 12 12
7 7 7
16 16 16
8 8 8
29 29 29
6 6 6
8 8 8
18 18 18
12 12 12
14 14 14
0 0 0
0 0 0
2 2 2
1 1 1
1 1 1
1 1 1
1 1 1
1 1 1
1 1 1
1 1 1
1 1 1
2 2 2
2 2 2
2 2 2
1 1 1
2 2 2
3 3 3
3 3 3
2 2 2
8 8 8
39 39 39
79 79 79
90 90 90
116 116 116
135 135 135
152 152 152
178 178 178
194 194 194
189 189 189
193 193 193
175 175 175
150 150 150
136 136 136
122 122 122
99 99 99
83 83 83
63 63 63
13 13 13
10 10 10
10 10 10
15 15 15
8 8 8
8 8 8
5 5 5
13 13 13
8 8 8
9 9 9
13 13 13
13 13 13
12 12 12
0 0 0
0 0 0
1 1 1
1 1 1
1 1 1
1 1 1
1 1 1
1 1 1
1 1 1
1 1 1
1 1 1
1 1 1
2 2 2
2 2 2
1 1 1
2 2 2
3 3 3
2 2 2
2 2 2
7 7 7
38 38 38
79 79 79
92 92 92
121 121 121
144 144 144
157 157 157
177 177 177
193 193 193
191 191 191
181 181 181
161 161 161
141 141 141
131 131 131
116 116 116
94 94 94
80 80 80
55 55 55
11 11 11
7 7 7
19 19 19
22 22 22
7 7 7
7 7 7
6 6 6
5 5 5
12 12 12
8 8 8
12 12 12
16 16 16
13 13 13
0 0 0
0 0 0
1 1 1
1 1 1
1 1 1
1 1 1
1 1 1
1 1 1
1 1 1
1 1 1
1 1 1
1 1 1
1 1 1
1 1 1
1 1 1
1 1 1
1 1 1
2 2 2
2 2 2
5 5 5
23 23 23
74 74 74
89 89 89
111 111 111
133 133 133
142 142 142
153 153 153
169 169 169
160 160 160
147 147 147
129 129 129
118 118 118
106 106 106
94 94 94
84 84 84
73 73 73
37 37 37
11 11 11
10 10 10
22 22 22
15 15 15
5 5 5
12 12 12
3 3 3
9 9 9
20 20 20
8 8 8
11 11 11
16 16 16
13 13 13
0 0 0
0 0 0
1 1 1
1 1 1
2 2 2
1 1 1
1 1 1
1 1 1
1 1 1
2 2 2
1 1 1
1 1 1
1 1 1
1 1 1
1 1 1
1 1 1
1 1 1
2 2 2
2 2 2
3 3 3
11 11 11
47 47 47
78 78 78
91 91 91
106 106 106
115 115 115
124 124 124
129 129 129
123 123 123
112 112 112
99 99 99
90 90 90
85 85 85
77 77 77
69 69 69
57 57 57
17 17 17
7 7 7
12 12 12
23 23 23
11 11 11
11 11 11
6 6 6
12 12 12
10 10 10
31 31 31
9 9 9
10 10 10
17 17 17
14 14 14
0 0 0
0 0 0
1 1 1
1 1 1
1 1 1
1 1 1
1 1 1
1 1 1
2 2 2
3 3 3
3 3 3
3 3 3
1 1 1
1 1 1
1 1 1
1 1 1
1 1 1
2 2 2
2 2 2
2 2 2
4 4 4
16 16 16
43 43 43
67 67 67
82 82 82
87 87 87
93 93 93
96 96 96
92 92 92
90 90 90
80 80 80
63 63 63
54 54 54
41 41 41
29 29 29
22 22 22
8 8 8
5 5 5
9 9 9
14 14 14
12 12 12
16 16 16
12 12 12
7 7 7
7 7 7
38 38 38
8 8 8
10 10 10
17 17 17
13 13 13
0 0 0
0 0 0
2 2 2
1 1 1
1 1 1
1 1 1
1 1 1
1 1 1
3 3 3
3 3 3
3 3 3
3 3 3
3 3 3
1 1 1
1 1 1
1 1 1
1 1 1
2 2 2
2 2 2
3 3 3
3 3 3
4 4 4
8 8 8
17 17 17
30 30 30
39 39 39
56 56 56
60 60 60
51 51 51
39 39 39
27 27 27
20 20 20
16 16 16
14 14 14
12 12 12
13 13 13
10 10 10
13 13 13
15 15 15
20 20 20
13 13 13
8 8 8
18 18 18
14 14 14
16 16 16
43 43 43
7 7 7
10 10 10
16 16 16
12 12 12
0 0 0
0 0 0
1 1 1
1 1 1
1 1 1
1 1 1
1 1 1
1 1 1
3 3 3
3 3 3
3 3 3
3 3 3
3 3 3
3 3 3
2 2 2
2 2 2
2 2 2
3 3 3
3 3 3
4 4 4
3 3 3
3 3 3
3 3 3
5 5 5
8 8 8
10 10 10
15 15 15
17 17 17
16 16 16
12 12 12
9 9 9
10 10 10
13 13 13
18 18 18
21 21 21
15 15 15
9 9 9
9 9 9
5 5 5
23 23 23
14 14 14
20 20 20
10 10 10
18 18 18
14 14 14
38 38 38
7 7 7
11 11 11
16 16 16
14 14 14
0 0 0
0 0 0
2 2 2
1 1 1
1 1 1
1 1 1
1 1 1
2 2 2
3 3 3
3 3 3
3 3 3
3 3 3
3 3 3
3 3 3
3 3 3
3 3 3
3 3 3
3 3 3
3 3 3
3 3 3
4 4 4
2 2 2
3 3 3
5 5 5
6 6 6
7 7 7
8 8 8
8 8 8
7 7 7
8 8 8
9 9 9
8 8 8
8 8 8
12 12 12
11 11 11
11 11 11
9 9 9
8 8 8
10 10 10
11 11 11
11 11 11
5 5 5
9 9 9
20 20 20
12 12 12
26 26 26
8 8 8
11 11 11
16 16 16
14 14 14
0 0 0
0 0 0
1 1 1
1 1 1
1 1 1
1 1 1
1 1 1
1 1 1
1 1 1
3 3 3
3 3 3
3 3 3
3 3 3
3 3 3
3 3 3
3 3 3
3 3 3
3 3 3
3 3 3
3 3 3
3 3 3
5 5 5
4 4 4
4 4 4
5 5 5
7 7 7
6 6 6
6 6 6
6 6 6
7 7 7
5 5 5
6 6 6
8 8 8
12 12 12
14 14 14
24 24 24
18 18 18
11 11 11
5 5 5
10 10 10
16 16 16
19 19 19
12 12 12
11 11 11
11 11 11
15 15 15
8 8 8
13 13 13
14 14 14
14 14 14
0 0 0
0 0 0
1 1 1
1 1 1
1 1 1
1 1 1
1 1 1
1 1 1
1 1 1
1 1 1
1 1 1
3 3 3
3 3 3
3 3 3
3 3 3
3 3 3
3 3 3
3 3 3
4 4 4
4 4 4
3 3 3
5 5 5
6 6 6
5 5 5
5 5 5
6 6 6
5 5 5
5 5 5
5 5 5
5 5 5
5 5 5
4 4 4
10 10 10
11 11 11
11 11 11
10 10 10
4 4 4
16 16 16
4 4 4
3 3 3
8 8 8
10 10 10
15 15 15
9 9 9
16 16 16
9 9 9
8 8 8
14 14 14
13 13 13
14 14 14
0 0 0
0 0 0
1 1 1
1 1 1
1 1 1
1 1 1
1 1 1
1 1 1
1 1 1
1 1 1
1 1 1
1 1 1
1 1 1
2 2 2
3 3 3
3 3 3
3 3 3
4 4 4
4 4 4
4 4 4
4 4 4
3 3 3
11 11 11
6 6 6
4 4 4
4 4 4
5 5 5
5 5 5
5 5 5
5 5 5
4 4 4
5 5 5
3 3 3
11 11 11
9 9 9
7 7 7
6 6 6
6 6 6
9 9 9
3 3 3
5 5 5
6 6 6
13 13 13
5 5 5
23 23 23
7 7 7
8 8 8
20 20 20
12 12 12
15 15 15
0 0 0
0 0 0
1 1 1
1 1 1
1 1 1
1 1 1
1 1 1
1 1 1
1 1 1
1 1 1
1 1 1
1 1 1
1 1 1
2 2 2
2 2 2
3 3 3
3 3 3
4 4 4
4 4 4
4 4 4
4 4 4
3 3 3
3 3 3
7 7 7
6 6 6
4 4 4
5 5 5
5 5 5
4 4 4
5 5 5
6 6 6
5 5 5
3 3 3
6 6 6
6 6 6
6 6 6
8 8 8
5 5 5
12 12 12
5 5 5
19 19 19
9 9 9
24 24 24
8 8 8
20 20 20
7 7 7
8 8 8
29 29 29
12 12 12
19 19 19
0 0 0
0 0 0
2 2 2
1 1 1
1 1 1
1 1 1
1 1 1
1 1 1
1 1 1
1 1 1
2 2 2
2 2 2
2 2 2
1 1 1
1 1 1
2 2 2
4 4 4
4 4 4
4 4 4
4 4 4
4 4 4
4 4 4
4 4 4
4 4 4
5 5 5
7 7 7
4 4 4
4 4 4
4 4 4
5 5 5
8 8 8
3 3 3
7 7 7
3 3 3
5 5 5
15 15 15
12 12 12
8 8 8
10 10 10
11 11 11
15 15 15
16 16 16
19 19 19
20 20 20
11 11 11
6 6 6
9 9 9
42 42 42
13 13 13
29 29 29
0 0 0
0 0 0
2 2 2
1 1 1
1 1 1
1 1 1
1 1 1
2 2 2
1 1 1
1 1 1
1 1 1
1 1 1
2 2 2
2 2 2
2 2 2
2 2 2
2 2 2
3 3 3
4 4 4
4 4 4
4 4 4
4 4 4
4 4 4
4 4 4
4 4 4
5 5 5
4 4 4
3 3 3
4 4 4
4 4 4
5 5 5
11 11 11
8 8 8
3 3 3
4 4 4
3 3 3
13 13 13
10 10 10
9 9 9
7 7 7
19 19 19
10 10 10
11 11 11
9 9 9
16 16 16
7 7 7
8 8 8
59 59 59
13 13 13
2 2 2
0 0 0
0 0 0
2 2 2
1 1 1
2 2 2
1 1 1
1 1 1
1 1 1
1 1 1
2 2 2
2 2 2
2 2 2
2 2 2
2 2 2
2 2 2
2 2 2
2 2 2
2 2 2
3 3 3
4 4 4
4 4 4
4 4 4
4 4 4
4 4 4
4 4 4
5 5 5
5 5 5
5 5 5
5 5 5
5 5 5
4 4 4
3 3 3
4 4 4
4 4 4
6 6 6
4 4 4
11 11 11
14 14 14
5 5 5
3 3 3
17 17 17
12 12 12
15 15 15
8 8 8
30 30 30
7 7 7
9 9 9
74 74 74
21 21 21
2 2 2
0 0 0
0 0 0
2 2 2
2 2 2
1 1 1
1 1 1
1 1 1
2 2 2
1 1 1
1 1 1
2 2 2
1 1 1
2 2 2
2 2 2
2 2 2
2 2 2
2 2 2
2 2 2
2 2 2
2 2 2
4 4 4
4 4 4
4 4 4
4 4 4
4 4 4
4 4 4
4 4 4
5 5 5
5 5 5
5 5 5
5 5 5
3 3 3
3 3 3
3 3 3
3 3 3
7 7 7
10 10 10
11 11 11
6 6 6
5 5 5
13 13 13
19 19 19
19 19 19
13 13 13
44 44 44
8 8 8
11 11 11
73 73 73
8 8 8
2 2 2
0 0 0
0 0 0
2 2 2
2 2 2
1 1 1
2 2 2
1 1 1
2 2 2
1 1 1
1 1 1
2 2 2
2 2 2
1 1 1
2 2 2
2 2 2
2 2 2
2 2 2
2 2 2
2 2 2
2 2 2
2 2 2
3 3 3
4 4 4
4 4 4
4 4 4
4 4 4
4 4 4
5 5 5
5 5 5
5 5 5
5 5 5
4 4 4
3 3 3
3 3 3
3 3 3
3 3 3
7 7 7
8 8 8
13 13 13
17 17 17
16 16 16
20 20 20
23 23 23
24 24 24
10 10 10
8 8 8
14 14 14
61 61 61
2 2 2
2 2 2
0 0 0
0 0 0
2 2 2
2 2 2
2 2 2
1 1 1
2 2 2
2 2 2
2 2 2
1 1 1
1 1 1
2 2 2
2 2 2
1 1 1
2 2 2
2 2 2
2 2 2
2 2 2
2 2 2
2 2 2
2 2 2
2 2 2
2 2 2
3 3 3
4 4 4
4 4 4
4 4 4
4 4 4
4 4 4
5 5 5
4 4 4
4 4 4
6 6 6
6 6 6
11 11 11
13 13 13
10 10 10
10 10 10
8 8 8
7 7 7
10 10 10
6 6 6
15 15 15
49 49 49
5 5 5
10 10 10
15 15 15
10 10 10
2 2 2
2 2 2
0 0 0
0 0 0
2 2 2
2 2 2
2 2 2
2 2 2
1 1 1
1 1 1
1 1 1
1 1 1
2 2 2
1 1 1
2 2 2
2 2 2
2 2 2
2 2 2
2 2 2
2 2 2
2 2 2
2 2 2
2 2 2
2 2 2
2 2 2
2 2 2
2 2 2
3 3 3
4 4 4
4 4 4
4 4 4
4 4 4
4 4 4
5 5 5
7 7 7
4 4 4
10 10 10
16 16 16
6 6 6
6 6 6
7 7 7
13 13 13
16 16 16
15 15 15
20 20 20
26 26 26
6 6 6
13 13 13
32 32 32
2 2 2
2 2 2
2 2 2
0 0 0
0 0 0
2 2 2
2 2 2
2 2 2
2 2 2
1 1 1
1 1 1
1 1 1
1 1 1
1 1 1
1 1 1
1 1 1
2 2 2
2 2 2
2 2 2
2 2 2
2 2 2
1 1 1
2 2 2
2 2 2
2 2 2
2 2 2
2 2 2
2 2 2
2 2 2
2 2 2
5 5 5
7 7 7
6 6 6
7 7 7
9 9 9
10 10 10
9 9 9
7 7 7
6 6 6
11 11 11
18 18 18
11 11 11
10 10 10
11 11 11
10 10 10
17 17 17
9 9 9
10 10 10
16 16 16
2 2 2
2 2 2
2 2 2
2 2 2
0 0 0
0 0 0
2 2 2
2 2 2
2 2 2
2 2 2
2 2 2
2 2 2
2 2 2
2 2 2
1 1 1
1 1 1
1 1 1
1 1 1
1 1 1
2 2 2
2 2 2
2 2 2
2 2 2
2 2 2
2 2 2
2 2 2
2 2 2
2 2 2
2 2 2
2 2 2
9 9 9
8 8 8
4 4 4
10 10 10
6 6 6
8 8 8
8 8 8
12 12 12
5 5 5
8 8 8
6 6 6
16 16 16
12 12 12
17 17 17
12 12 12
21 21 21
26 26 26
11 11 11
13 13 13
5 5 5
2 2 2
2 2 2
2 2 2
2 2 2
0 0 0
0 0 0
2 2 2
2 2 2
2 2 2
2 2 2
2 2 2
2 2 2
2 2 2
1 1 1
1 1 1
2 2 2
1 1 1
2 2 2
2 2 2
2 2 2
1 1 1
2 2 2
2 2 2
2 2 2
2 2 2
2 2 2
2 2 2
2 2 2
2 2 2
2 2 2
4 4 4
5 5 5
3 3 3
7 7 7
11 11 11
5 5 5
13 13 13
12 12 12
13 13 13
16 16 16
8 8 8
6 6 6
19 19 19
16 16 16
16 16 16
14 14 14
41 41 41
12 12 12
9 9 9
2 2 2
2 2 2
2 2 2
2 2 2
2 2 2
0 0 0
0 0 0
2 2 2
2 2 2
2 2 2
2 2 2
2 2 2
2 2 2
2 2 2
2 2 2
1 1 1
1 1 1
2 2 2
1 1 1
1 1 1
1 1 1
2 2 2
1 1 1
2 2 2
2 2 2
2 2 2
2 2 2
2 2 2
2 2 2
2 2 2
2 2 2
2 2 2
3 3 3
7 7 7
4 4 4
7 7 7
7 7 7
4 4 4
5 5 5
7 7 7
18 18 18
12 12 12
16 16 16
24 24 24
21 21 21
23 23 23
13 13 13
34 34 34
17 17 17
2 2 2
2 2 2
2 2 2
2 2 2
2 2 2
2 2 2
0 0 0
0 0 0
2 2 2
2 2 2
2 2 2
2 2 2
2 2 2
2 2 2
2 2 2
2 2 2
1 1 1
1 1 1
1 1 1
1 1 1
1 1 1
1 1 1
2 2 2
2 2 2
2 2 2
2 2 2
2 2 2
2 2 2
2 2 2
2 2 2
2 2 2
2 2 2
2 2 2
2 2 2
2 2 2
2 2 2
3 3 3
9 9 9
3 3 3
9 9 9
9 9 9
12 12 12
26 26 26
19 19 19
15 15 15
17 17 17
14 14 14
33 33 33
10 10 10
2 2 2
2 2 2
2 2 2
2 2 2
2 2 2
2 2 2
2 2 2
0 0 0
0 0 0
2 2 2
2 2 2
2 2 2
2 2 2
2 2 2
2 2 2
2 2 2
2 2 2
2 2 2
1 1 1
1 1 1
1 1 1
1 1 1
1 1 1
1 1 1
1 1 1
2 2 2
2 2 2
2 2 2
2 2 2
2 2 2
2 2 2
2 2 2
2 2 2
2 2 2
2 2 2
3 3 3
3 3 3
2 2 2
6 6 6
10 10 10
7 7 7
11 11 11
10 10 10
13 13 13
6 6 6
9 9 9
12 12 12
21 21 21
7 7 7
2 2 2
2 2 2
2 2 2
2 2 2
2 2 2
2 2 2
2 2 2
2 2 2
0 0 0
0 0 0
2 2 2
2 2 2
2 2 2
2 2 2
2 2 2
2 2 2
2 2 2
2 2 2
2 2 2
2 2 2
1 1 1
1 1 1
1 1 1
1 1 1
1 1 1
2 2 2
1 1 1
1 1 1
2 2 2
2 2 2
2 2 2
2 2 2
2 2 2
2 2 2
2 2 2
2 2 2
2 2 2
3 3 3
2 2 2
2 2 2
3 3 3
4 4 4
11 11 11
9 9 9
12 12 12
16 16 16
8 8 8
22 22 22
2 2 2
2 2 2
2 2 2
2 2 2
2 2 2
2 2 2
2 2 2
2 2 2
2 2 2
2 2 2
0 0 0
0 0 0
2 2 2
2 2 2
2 2 2
2 2 2
2 2 2
2 2 2
2 2 2
2 2 2
2 2 2
2 2 2
2 2 2
2 2 2
1 1 1
1 1 1
1 1 1
1 1 1
1 1 1
1 1 1
2 2 2
1 1 1
2 2 2
2 2 2
2 2 2
2 2 2
2 2 2
2 2 2
2 2 2
3 3 3
3 3 3
8 8 8
7 7 7
8 8 8
13 13 13
8 8 8
14 14 14
22 22 22
4 4 4
2 2 2
2 2 2
2 2 2
2 2 2
2 2 2
2 2 2
2 2 2
2 2 2
2 2 2
2 2 2
2 2 2
0 0 0
0 0 0
2 2 2
2 2 2
2 2 2
2 2 2
2 2 2
2 2 2
2 2 2
2 2 2
2 2 2
2 2 2
2 2 2
2 2 2
2 2 2
2 2 2
1 1 1
1 1 1
1 1 1
1 1 1
1 1 1
1 1 1
2 2 2
2 2 2
2 2 2
2 2 2
2 2 2
2 2 2
2 2 2
2 2 2
3 3 3
6 6 6
4 4 4
6 6 6
13 13 13
11 11 11
5 5 5
2 2 2
2 2 2
2 2 2
2 2 2
2 2 2
2 2 2
2 2 2
2 2 2
2 2 2
2 2 2
2 2 2
2 2 2
2 2 2
0 0 0
0 0 0
2 2 2
2 2 2
2 2 2
2 2 2
2 2 2
2 2 2
2 2 2
2 2 2
2 2 2
2 2 2
2 2 2
2 2 2
2 2 2
2 2 2
2 2 2
2 2 2
1 1 1
1 1 1
1 1 1
2 2 2
1 1 1
2 2 2
2 2 2
2 2 2
2 2 2
3 3 3
3 3 3
3 3 3
4 4 4
6 6 6
6 6 6
10 10 10
2 2 2
2 2 2
2 2 2
2 2 2
2 2 2
2 2 2
2 2 2
2 2 2
2 2 2
2 2 2
2 2 2
2 2 2
2 2 2
2 2 2
2 2 2
2 2 2
0 0 0
0 0 0
0 0 0
0 0 0
0 0 0
0 0 0
0 0 0
0 0 0
0 0 0
0 0 0
0 0 0
0 0 0
0 0 0
0 0 0
0 0 0
0 0 0
0 0 0
0 0 0
0 0 0
0 0 0
0 0 0
0 0 0
0 0 0
0 0 0
0 0 0
0 0 0
0 0 0
0 0 0
0 0 0
0 0 0
0 0 0
0 0 0
0 0 0
0 0 0
0 0 0
0 0 0
0 0 0
0 0 0
0 0 0
0 0 0
0 0 0
0 0 0
0 0 0
0 0 0
0 0 0
0 0 0
0 0 0
0 0 0
0 0 0
0 0 0
0 0 0
