P3 
50 50 
255
0 0 0
0 0 0
0 0 0
0 0 0
0 0 0
0 0 0
0 0 0
0 0 0
0 0 0
0 0 0
0 0 0
0 0 0
0 0 0
0 0 0
0 0 0
0 0 0
0 0 0
0 0 0
0 0 0
0 0 0
0 0 0
0 0 0
0 0 0
0 0 0
0 0 0
0 0 0
0 0 0
0 0 0
0 0 0
0 0 0
0 0 0
0 0 0
0 0 0
0 0 0
0 0 0
0 0 0
0 0 0
0 0 0
0 0 0
0 0 0
0 0 0
0 0 0
0 0 0
0 0 0
0 0 0
0 0 0
0 0 0
0 0 0
0 0 0
0 0 0
0 0 0
2 2 2
2 2 2
2 2 2
2 2 2
2 2 2
2 2 2
2 2 2
2 2 2
2 2 2
2 2 2
2 2 2
2 2 2
2 2 2
2 2 2
2 2 2
2 2 2
2 2 2
1 1 1
1 1 1
1 1 1
1 1 1
2 2 2
1 1 1
2 2 2
2 2 2
3 3 3
5 5 5
7 7 7
5 5 5
7 7 7
13 13 13
5 5 5
2 2 2
2 2 2
2 2 2
2 2 2
2 2 2
2 2 2
2 2 2
2 2 2
2 2 2
2 2 2
2 2 2
2 2 2
2 2 2
2 2 2
2 2 2
2 2 2
0 0 0
0 0 0
2 2 2
2 2 2
2 2 2
2 2 2
2 2 2
2 2 2
2 2 2
2 2 2
2 2 2
2 2 2
2 2 2
2 2 2
2 2 2
2 2 2
1 1 1
0 0 0
1 1 1
1 1 1
1 1 1
1 1 1
1 1 1
1 1 1
1 1 1
1 1 1
4 4 4
8 8 8
8 8 8
17 17 17
13 13 13
10 10 10
9 9 9
12 12 12
6 6 6
10 10 10
2 2 2
2 2 2
2 2 2
2 2 2
2 2 2
2 2 2
2 2 2
2 2 2
2 2 2
2 2 2
2 2 2
2 2 2
2 2 2
2 2 2
0 0 0
0 0 0
2 2 2
2 2 2
2 2 2
2 2 2
2 2 2
2 2 2
2 2 2
2 2 2
2 2 2
2 2 2
2 2 2
2 2 2
1 1 1
1 1 1
1 1 1
1 1 1
1 1 1
1 1 1
1 1 1
1 1 1
1 1 1
1 1 1
2 2 2
1 1 1
6 6 6
6 6 6
11 11 11
16 16 16
8 8 8
11 11 11
10 10 10
11 11 11
5 5 5
13 13 13
10 10 10
14 14 14
2 2 2
2 2 2
2 2 2
2 2 2
2 2 2
2 2 2
2 2 2
2 2 2
2 2 2
2 2 2
2 2 2
2 2 2
0 0 0
0 0 0
2 2 2
2 2 2
2 2 2
2 2 2
2 2 2
2 2 2
2 2 2
2 2 2
2 2 2
2 2 2
2 2 2
1 1 1
1 1 1
1 1 1
0 0 0
1 1 1
2 2 2
2 2 2
1 1 1
2 2 2
1 1 1
4 4 4
2 2 2
2 2 2
3 3 3
2 2 2
8 8 8
9 9 9
5 5 5
4 4 4
4 4 4
8 8 8
6 6 6
11 11 11
12 12 12
5 5 5
11 11 11
7 7 7
2 2 2
2 2 2
2 2 2
2 2 2
2 2 2
2 2 2
2 2 2
2 2 2
2 2 2
2 2 2
0 0 0
0 0 0
2 2 2
2 2 2
2 2 2
2 2 2
2 2 2
2 2 2
2 2 2
2 2 2
2 2 2
1 1 1
1 1 1
1 1 1
1 1 1
1 1 1
1 1 1
1 1 1
1 1 1
1 1 1
2 2 2
18 18 18
2 2 2
3 3 3
4 4 4
7 7 7
5 5 5
3 3 3
4 4 4
2 2 2
7 7 7
6 6 6
7 7 7
3 3 3
16 16 16
6 6 6
4 4 4
10 10 10
12 12 12
6 6 6
10 10 10
2 2 2
2 2 2
2 2 2
2 2 2
2 2 2
2 2 2
2 2 2
2 2 2
2 2 2
0 0 0
0 0 0
2 2 2
2 2 2
2 2 2
2 2 2
2 2 2
2 2 2
2 2 2
2 2 2
1 1 1
1 1 1
1 1 1
1 1 1
1 1 1
1 1 1
1 1 1
1 1 1
2 2 2
2 2 2
1 1 1
18 18 18
14 14 14
16 16 16
12 12 12
9 9 9
11 11 11
6 6 6
10 10 10
4 4 4
4 4 4
6 6 6
11 11 11
21 21 21
4 4 4
10 10 10
2 2 2
4 4 4
8 8 8
5 5 5
6 6 6
10 10 10
4 4 4
2 2 2
2 2 2
2 2 2
2 2 2
2 2 2
2 2 2
2 2 2
0 0 0
0 0 0
2 2 2
2 2 2
2 2 2
2 2 2
2 2 2
2 2 2
2 2 2
1 1 1
1 1 1
2 2 2
1 1 1
2 2 2
1 1 1
1 1 1
2 2 2
1 1 1
2 2 2
1 1 1
6 6 6
8 8 8
10 10 10
3 3 3
7 7 7
9 9 9
9 9 9
11 11 11
13 13 13
5 5 5
11 11 11
19 19 19
6 6 6
4 4 4
13 13 13
10 10 10
4 4 4
3 3 3
3 3 3
4 4 4
5 5 5
7 7 7
11 11 11
8 8 8
2 2 2
2 2 2
2 2 2
2 2 2
2 2 2
2 2 2
0 0 0
0 0 0
2 2 2
2 2 2
2 2 2
2 2 2
2 2 2
2 2 2
2 2 2
1 1 1
1 1 1
2 2 2
1 1 1
2 2 2
2 2 2
2 2 2
2 2 2
1 1 1
2 2 2
3 3 3
16 16 16
5 5 5
8 8 8
9 9 9
16 16 16
12 12 12
16 16 16
3 3 3
9 9 9
8 8 8
15 15 15
14 14 14
10 10 10
11 11 11
9 9 9
4 4 4
3 3 3
6 6 6
12 12 12
4 4 4
4 4 4
5 5 5
7 7 7
45 45 45
4 4 4
2 2 2
2 2 2
2 2 2
2 2 2
2 2 2
0 0 0
0 0 0
2 2 2
2 2 2
2 2 2
2 2 2
2 2 2
2 2 2
1 1 1
2 2 2
1 1 1
2 2 2
2 2 2
2 2 2
3 3 3
2 2 2
1 1 1
3 3 3
15 15 15
16 16 16
5 5 5
14 14 14
4 4 4
14 14 14
15 15 15
4 4 4
5 5 5
3 3 3
8 8 8
24 24 24
3 3 3
8 8 8
10 10 10
14 14 14
7 7 7
3 3 3
3 3 3
3 3 3
5 5 5
6 6 6
4 4 4
4 4 4
5 5 5
16 16 16
17 17 17
2 2 2
2 2 2
2 2 2
2 2 2
2 2 2
0 0 0
0 0 0
2 2 2
2 2 2
2 2 2
2 2 2
1 1 1
1 1 1
2 2 2
2 2 2
2 2 2
2 2 2
2 2 2
2 2 2
2 2 2
3 3 3
14 14 14
14 14 14
7 7 7
5 5 5
12 12 12
17 17 17
9 9 9
29 29 29
72 72 72
55 55 55
26 26 26
4 4 4
5 5 5
3 3 3
3 3 3
3 3 3
3 3 3
23 23 23
9 9 9
3 3 3
3 3 3
3 3 3
4 4 4
11 11 11
4 4 4
4 4 4
5 5 5
5 5 5
23 23 23
19 19 19
2 2 2
2 2 2
2 2 2
2 2 2
0 0 0
0 0 0
2 2 2
2 2 2
2 2 2
2 2 2
2 2 2
1 1 1
2 2 2
2 2 2
2 2 2
2 2 2
3 3 3
2 2 2
5 5 5
16 16 16
17 17 17
25 25 25
14 14 14
25 25 25
50 50 50
80 80 80
81 81 81
81 81 81
83 83 83
83 83 83
85 85 85
81 81 81
85 85 85
82 82 82
26 26 26
2 2 2
3 3 3
13 13 13
10 10 10
17 17 17
13 13 13
4 4 4
5 5 5
3 3 3
3 3 3
7 7 7
5 5 5
4 4 4
37 37 37
13 13 13
19 19 19
2 2 2
2 2 2
2 2 2
0 0 0
0 0 0
2 2 2
2 2 2
2 2 2
1 1 1
1 1 1
1 1 1
2 2 2
1 1 1
1 1 1
2 2 2
2 2 2
13 13 13
22 22 22
64 64 64
74 74 74
73 73 73
76 76 76
74 74 74
82 82 82
81 81 81
85 85 85
85 85 85
84 84 84
85 85 85
88 88 88
89 89 89
89 89 89
90 90 90
85 85 85
80 80 80
5 5 5
10 10 10
18 18 18
10 10 10
11 11 11
19 19 19
15 15 15
3 3 3
4 4 4
11 11 11
10 10 10
10 10 10
43 43 43
11 11 11
16 16 16
5 5 5
2 2 2
2 2 2
0 0 0
0 0 0
2 2 2
2 2 2
2 2 2
2 2 2
1 1 1
2 2 2
1 1 1
2 2 2
2 2 2
2 2 2
10 10 10
43 43 43
78 78 78
78 78 78
77 77 77
81 81 81
83 83 83
81 81 81
82 82 82
85 85 85
86 86 86
85 85 85
85 85 85
82 82 82
84 84 84
80 80 80
78 78 78
81 81 81
88 88 88
86 86 86
78 78 78
18 18 18
9 9 9
2 2 2
13 13 13
23 23 23
11 11 11
3 3 3
3 3 3
11 11 11
8 8 8
6 6 6
37 37 37
7 7 7
13 13 13
82 82 82
2 2 2
2 2 2
0 0 0
0 0 0
2 2 2
2 2 2
2 2 2
2 2 2
2 2 2
1 1 1
1 1 1
3 3 3
2 2 2
1 1 1
69 69 69
78 78 78
86 86 86
176 176 176
174 174 174
99 99 99
81 81 81
85 85 85
83 83 83
85 85 85
82 82 82
82 82 82
83 83 83
78 78 78
82 82 82
82 82 82
87 87 87
81 81 81
85 85 85
89 89 89
87 87 87
83 83 83
22 22 22
6 6 6
10 10 10
10 10 10
15 15 15
13 13 13
4 4 4
8 8 8
6 6 6
5 5 5
25 25 25
8 8 8
11 11 11
56 56 56
5 5 5
2 2 2
0 0 0
0 0 0
2 2 2
1 1 1
1 1 1
2 2 2
2 2 2
2 2 2
3 3 3
2 2 2
6 6 6
80 80 80
82 82 82
131 131 131
134 134 134
102 102 102
119 119 119
83 83 83
82 82 82
85 85 85
86 86 86
86 86 86
88 88 88
88 88 88
89 89 89
86 86 86
81 81 81
83 83 83
87 87 87
88 88 88
87 87 87
88 88 88
89 89 89
89 89 89
81 81 81
26 26 26
10 10 10
3 3 3
13 13 13
8 8 8
8 8 8
8 8 8
11 11 11
11 11 11
12 12 12
11 11 11
9 9 9
33 33 33
23 23 23
2 2 2
0 0 0
0 0 0
2 2 2
1 1 1
1 1 1
1 1 1
1 1 1
3 3 3
2 2 2
4 4 4
83 83 83
86 86 86
113 113 113
120 120 120
95 95 95
136 136 136
83 83 83
86 86 86
86 86 86
87 87 87
86 86 86
87 87 87
87 87 87
88 88 88
87 87 87
85 85 85
85 85 85
86 86 86
89 89 89
87 87 87
87 87 87
86 86 86
87 87 87
89 89 89
82 82 82
67 67 67
7 7 7
10 10 10
6 6 6
18 18 18
14 14 14
9 9 9
15 15 15
7 7 7
11 11 11
30 30 30
7 7 7
22 22 22
16 16 16
3 3 3
0 0 0
0 0 0
2 2 2
1 1 1
1 1 1
1 1 1
2 2 2
3 3 3
2 2 2
83 83 83
81 81 81
110 110 110
113 113 113
90 90 90
122 122 122
87 87 87
88 88 88
87 87 87
87 87 87
87 87 87
86 86 86
87 87 87
87 87 87
86 86 86
88 88 88
86 86 86
88 88 88
124 124 124
116 116 116
99 99 99
85 85 85
87 87 87
85 85 85
88 88 88
88 88 88
87 87 87
23 23 23
12 12 12
11 11 11
14 14 14
11 11 11
15 15 15
13 13 13
11 11 11
10 10 10
42 42 42
7 7 7
16 16 16
17 17 17
19 19 19
0 0 0
0 0 0
1 1 1
1 1 1
1 1 1
1 1 1
2 2 2
0 0 0
77 77 77
83 83 83
92 92 92
108 108 108
91 91 91
136 136 136
86 86 86
87 87 87
87 87 87
88 88 88
85 85 85
87 87 87
87 87 87
16 16 16
88 88 88
85 85 85
88 88 88
102 102 102
86 86 86
142 142 142
98 98 98
102 102 102
85 85 85
82 82 82
86 86 86
88 88 88
88 88 88
82 82 82
87 87 87
37 37 37
14 14 14
3 3 3
5 5 5
11 11 11
16 16 16
15 15 15
9 9 9
31 31 31
10 10 10
11 11 11
20 20 20
20 20 20
0 0 0
0 0 0
2 2 2
1 1 1
1 1 1
2 2 2
1 1 1
15 15 15
81 81 81
83 83 83
169 169 169
133 133 133
153 153 153
85 85 85
86 86 86
86 86 86
86 86 86
86 86 86
87 87 87
88 88 88
87 87 87
2 2 2
88 88 88
85 85 85
97 97 97
118 118 118
122 122 122
141 141 141
129 129 129
98 98 98
78 78 78
80 80 80
82 82 82
88 88 88
87 87 87
89 89 89
80 80 80
84 84 84
14 14 14
4 4 4
14 14 14
9 9 9
7 7 7
7 7 7
5 5 5
26 26 26
9 9 9
9 9 9
25 25 25
14 14 14
0 0 0
0 0 0
2 2 2
1 1 1
1 1 1
2 2 2
2 2 2
81 81 81
82 82 82
107 107 107
108 108 108
202 202 202
84 84 84
86 86 86
87 87 87
86 86 86
87 87 87
88 88 88
88 88 88
87 87 87
89 89 89
0 0 0
56 56 56
113 113 113
96 96 96
118 118 118
91 91 91
84 84 84
99 99 99
148 148 148
80 80 80
85 85 85
79 79 79
83 83 83
87 87 87
88 88 88
89 89 89
83 83 83
28 28 28
13 13 13
7 7 7
17 17 17
5 5 5
13 13 13
10 10 10
41 41 41
8 8 8
9 9 9
32 32 32
13 13 13
0 0 0
0 0 0
1 1 1
1 1 1
1 1 1
3 3 3
1 1 1
85 85 85
85 85 85
175 175 175
104 104 104
122 122 122
85 85 85
87 87 87
87 87 87
84 84 84
86 86 86
86 86 86
85 85 85
87 87 87
87 87 87
0 0 0
62 62 62
113 113 113
99 99 99
123 123 123
88 88 88
85 85 85
86 86 86
135 135 135
80 80 80
86 86 86
84 84 84
80 80 80
82 82 82
85 85 85
91 91 91
81 81 81
30 30 30
13 13 13
10 10 10
17 17 17
5 5 5
5 5 5
14 14 14
47 47 47
8 8 8
8 8 8
35 35 35
14 14 14
0 0 0
0 0 0
1 1 1
1 1 1
1 1 1
3 3 3
1 1 1
85 85 85
84 84 84
175 175 175
104 104 104
146 146 146
85 85 85
87 87 87
87 87 87
87 87 87
87 87 87
87 87 87
87 87 87
88 88 88
84 84 84
0 0 0
83 83 83
114 114 114
138 138 138
123 123 123
84 84 84
85 85 85
87 87 87
156 156 156
92 92 92
83 83 83
83 83 83
83 83 83
82 82 82
86 86 86
90 90 90
84 84 84
23 23 23
6 6 6
22 22 22
9 9 9
5 5 5
4 4 4
12 12 12
32 32 32
8 8 8
8 8 8
42 42 42
13 13 13
0 0 0
0 0 0
1 1 1
1 1 1
1 1 1
2 2 2
1 1 1
79 79 79
83 83 83
89 89 89
114 114 114
205 205 205
87 87 87
86 86 86
88 88 88
88 88 88
87 87 87
87 87 87
87 87 87
88 88 88
88 88 88
53 53 53
87 87 87
93 93 93
111 111 111
143 143 143
87 87 87
85 85 85
129 129 129
85 85 85
84 84 84
84 84 84
86 86 86
80 80 80
87 87 87
88 88 88
90 90 90
84 84 84
22 22 22
5 5 5
12 12 12
5 5 5
12 12 12
5 5 5
15 15 15
15 15 15
7 7 7
8 8 8
44 44 44
12 12 12
0 0 0
0 0 0
2 2 2
1 1 1
1 1 1
1 1 1
1 1 1
24 24 24
81 81 81
81 81 81
147 147 147
113 113 113
194 194 194
85 85 85
86 86 86
86 86 86
87 87 87
87 87 87
86 86 86
87 87 87
87 87 87
79 79 79
85 85 85
86 86 86
95 95 95
132 132 132
146 146 146
143 143 143
94 94 94
79 79 79
81 81 81
86 86 86
81 81 81
83 83 83
85 85 85
89 89 89
86 86 86
87 87 87
15 15 15
13 13 13
11 11 11
9 9 9
9 9 9
7 7 7
18 18 18
10 10 10
7 7 7
6 6 6
45 45 45
12 12 12
0 0 0
0 0 0
1 1 1
0 0 0
1 1 1
0 0 0
1 1 1
0 0 0
36 36 36
79 79 79
85 85 85
177 177 177
105 105 105
161 161 161
90 90 90
87 87 87
88 88 88
88 88 88
88 88 88
87 87 87
87 87 87
87 87 87
86 86 86
87 87 87
88 88 88
104 104 104
105 105 105
115 115 115
79 79 79
81 81 81
81 81 81
81 81 81
83 83 83
88 88 88
89 89 89
89 89 89
82 82 82
86 86 86
8 8 8
11 11 11
11 11 11
7 7 7
13 13 13
13 13 13
16 16 16
10 10 10
8 8 8
8 8 8
44 44 44
13 13 13
0 0 0
0 0 0
1 1 1
1 1 1
0 0 0
1 1 1
1 1 1
1 1 1
0 0 0
37 37 37
78 78 78
86 86 86
188 188 188
91 91 91
137 137 137
102 102 102
84 84 84
87 87 87
87 87 87
87 87 87
87 87 87
87 87 87
87 87 87
88 88 88
84 84 84
87 87 87
117 117 117
91 91 91
80 80 80
84 84 84
84 84 84
87 87 87
85 85 85
88 88 88
89 89 89
80 80 80
89 89 89
18 18 18
6 6 6
15 15 15
16 16 16
8 8 8
16 16 16
19 19 19
10 10 10
12 12 12
8 8 8
7 7 7
41 41 41
13 13 13
0 0 0
0 0 0
1 1 1
1 1 1
1 1 1
1 1 1
1 1 1
1 1 1
1 1 1
0 0 0
26 26 26
76 76 76
80 80 80
189 189 189
119 119 119
123 123 123
111 111 111
78 78 78
83 83 83
87 87 87
87 87 87
89 89 89
86 86 86
88 88 88
87 87 87
88 88 88
84 84 84
84 84 84
88 88 88
88 88 88
87 87 87
86 86 86
88 88 88
89 89 89
83 83 83
83 83 83
15 15 15
6 6 6
7 7 7
4 4 4
8 8 8
8 8 8
16 16 16
18 18 18
6 6 6
17 17 17
8 8 8
7 7 7
38 38 38
13 13 13
0 0 0
0 0 0
1 1 1
1 1 1
1 1 1
1 1 1
1 1 1
2 2 2
1 1 1
1 1 1
0 0 0
12 12 12
73 73 73
75 75 75
111 111 111
206 206 206
202 202 202
96 96 96
81 81 81
83 83 83
87 87 87
88 88 88
86 86 86
80 80 80
83 83 83
90 90 90
83 83 83
84 84 84
89 89 89
88 88 88
89 89 89
89 89 89
89 89 89
88 88 88
82 82 82
33 33 33
3 3 3
4 4 4
9 9 9
6 6 6
13 13 13
12 12 12
8 8 8
14 14 14
7 7 7
27 27 27
8 8 8
8 8 8
33 33 33
13 13 13
0 0 0
0 0 0
1 1 1
1 1 1
2 2 2
2 2 2
1 1 1
2 2 2
1 1 1
1 1 1
2 2 2
1 1 1
0 0 0
34 34 34
70 70 70
72 72 72
83 83 83
80 80 80
79 79 79
83 83 83
81 81 81
86 86 86
84 84 84
88 88 88
83 83 83
81 81 81
84 84 84
81 81 81
87 87 87
80 80 80
90 90 90
90 90 90
82 82 82
84 84 84
36 36 36
1 1 1
6 6 6
4 4 4
10 10 10
11 11 11
10 10 10
12 12 12
8 8 8
12 12 12
9 9 9
39 39 39
8 8 8
10 10 10
27 27 27
13 13 13
0 0 0
0 0 0
1 1 1
2 2 2
1 1 1
1 1 1
1 1 1
1 1 1
1 1 1
2 2 2
1 1 1
2 2 2
2 2 2
11 11 11
17 17 17
9 9 9
27 27 27
55 55 55
77 77 77
78 78 78
80 80 80
80 80 80
86 86 86
86 86 86
86 86 86
86 86 86
90 90 90
85 85 85
89 89 89
87 87 87
52 52 52
22 22 22
22 22 22
7 7 7
4 4 4
5 5 5
4 4 4
10 10 10
3 3 3
7 7 7
6 6 6
9 9 9
20 20 20
8 8 8
7 7 7
42 42 42
7 7 7
12 12 12
20 20 20
14 14 14
0 0 0
0 0 0
1 1 1
1 1 1
1 1 1
1 1 1
1 1 1
1 1 1
2 2 2
2 2 2
2 2 2
2 2 2
2 2 2
2 2 2
2 2 2
12 12 12
20 20 20
13 13 13
12 12 12
1 1 1
7 7 7
13 13 13
79 79 79
84 84 84
80 80 80
83 83 83
91 91 91
92 92 92
85 85 85
15 15 15
6 6 6
10 10 10
2 2 2
3 3 3
4 4 4
3 3 3
3 3 3
9 9 9
3 3 3
8 8 8
12 12 12
13 13 13
16 16 16
10 10 10
5 5 5
43 43 43
8 8 8
16 16 16
17 17 17
18 18 18
0 0 0
0 0 0
2 2 2
1 1 1
1 1 1
1 1 1
1 1 1
1 1 1
2 2 2
1 1 1
2 2 2
1 1 1
2 2 2
2 2 2
2 2 2
1 1 1
3 3 3
3 3 3
10 10 10
9 9 9
1 1 1
0 0 0
1 1 1
1 1 1
0 0 0
11 11 11
13 13 13
4 4 4
0 0 0
2 2 2
4 4 4
5 5 5
3 3 3
3 3 3
3 3 3
4 4 4
3 3 3
11 11 11
9 9 9
3 3 3
12 12 12
23 23 23
10 10 10
8 8 8
4 4 4
40 40 40
9 9 9
22 22 22
15 15 15
26 26 26
0 0 0
0 0 0
2 2 2
1 1 1
1 1 1
1 1 1
2 2 2
1 1 1
1 1 1
1 1 1
2 2 2
2 2 2
2 2 2
2 2 2
2 2 2
2 2 2
1 1 1
1 1 1
2 2 2
5 5 5
9 9 9
1 1 1
2 2 2
2 2 2
3 3 3
2 2 2
2 2 2
2 2 2
2 2 2
2 2 2
2 2 2
3 3 3
3 3 3
3 3 3
3 3 3
3 3 3
3 3 3
8 8 8
9 9 9
3 3 3
10 10 10
25 25 25
5 5 5
8 8 8
6 6 6
26 26 26
9 9 9
35 35 35
14 14 14
2 2 2
0 0 0
0 0 0
2 2 2
1 1 1
2 2 2
1 1 1
1 1 1
1 1 1
1 1 1
1 1 1
2 2 2
2 2 2
2 2 2
2 2 2
2 2 2
2 2 2
1 1 1
2 2 2
2 2 2
2 2 2
7 7 7
2 2 2
2 2 2
2 2 2
1 1 1
2 2 2
3 3 3
3 3 3
2 2 2
3 3 3
3 3 3
3 3 3
3 3 3
3 3 3
3 3 3
3 3 3
3 3 3
5 5 5
10 10 10
10 10 10
6 6 6
14 14 14
11 11 11
7 7 7
7 7 7
13 13 13
10 10 10
53 53 53
21 21 21
2 2 2
0 0 0
0 0 0
2 2 2
2 2 2
1 1 1
1 1 1
1 1 1
1 1 1
1 1 1
1 1 1
2 2 2
1 1 1
2 2 2
2 2 2
2 2 2
2 2 2
1 1 1
2 2 2
2 2 2
1 1 1
2 2 2
2 2 2
2 2 2
2 2 2
2 2 2
2 2 2
3 3 3
3 3 3
3 3 3
3 3 3
3 3 3
3 3 3
3 3 3
3 3 3
3 3 3
3 3 3
2 2 2
4 4 4
6 6 6
7 7 7
3 3 3
11 11 11
12 12 12
10 10 10
16 16 16
9 9 9
11 11 11
78 78 78
8 8 8
2 2 2
0 0 0
0 0 0
2 2 2
2 2 2
1 1 1
1 1 1
1 1 1
1 1 1
2 2 2
1 1 1
2 2 2
2 2 2
1 1 1
2 2 2
2 2 2
2 2 2
2 2 2
1 1 1
2 2 2
2 2 2
2 2 2
2 2 2
2 2 2
2 2 2
2 2 2
2 2 2
2 2 2
3 3 3
3 3 3
3 3 3
3 3 3
3 3 3
3 3 3
3 3 3
3 3 3
3 3 3
3 3 3
4 4 4
4 4 4
8 8 8
4 4 4
10 10 10
12 12 12
8 8 8
40 40 40
9 9 9
14 14 14
90 90 90
2 2 2
2 2 2
0 0 0
0 0 0
2 2 2
2 2 2
2 2 2
1 1 1
1 1 1
2 2 2
1 1 1
1 1 1
2 2 2
1 1 1
1 1 1
2 2 2
2 2 2
1 1 1
2 2 2
1 1 1
1 1 1
2 2 2
2 2 2
2 2 2
2 2 2
2 2 2
2 2 2
2 2 2
2 2 2
3 3 3
2 2 2
3 3 3
4 4 4
4 4 4
3 3 3
3 3 3
3 3 3
3 3 3
3 3 3
4 4 4
4 4 4
8 8 8
10 10 10
10 10 10
11 11 11
9 9 9
25 25 25
10 10 10
16 16 16
11 11 11
2 2 2
2 2 2
0 0 0
0 0 0
2 2 2
2 2 2
2 2 2
1 1 1
1 1 1
1 1 1
1 1 1
1 1 1
2 2 2
1 1 1
1 1 1
1 1 1
2 2 2
1 1 1
1 1 1
2 2 2
2 2 2
2 2 2
2 2 2
2 2 2
3 3 3
2 2 2
2 2 2
2 2 2
2 2 2
2 2 2
2 2 2
3 3 3
4 4 4
4 4 4
4 4 4
4 4 4
3 3 3
3 3 3
3 3 3
3 3 3
4 4 4
7 7 7
11 11 11
14 14 14
15 15 15
12 12 12
10 10 10
13 13 13
32 32 32
2 2 2
2 2 2
2 2 2
0 0 0
0 0 0
2 2 2
2 2 2
2 2 2
2 2 2
1 1 1
1 1 1
1 1 1
2 2 2
1 1 1
1 1 1
2 2 2
1 1 1
2 2 2
2 2 2
1 1 1
2 2 2
2 2 2
2 2 2
2 2 2
2 2 2
2 2 2
2 2 2
2 2 2
2 2 2
2 2 2
2 2 2
2 2 2
2 2 2
3 3 3
4 4 4
4 4 4
4 4 4
4 4 4
3 3 3
3 3 3
3 3 3
8 8 8
6 6 6
8 8 8
18 18 18
9 9 9
38 38 38
10 10 10
16 16 16
2 2 2
2 2 2
2 2 2
2 2 2
0 0 0
0 0 0
2 2 2
2 2 2
2 2 2
2 2 2
2 2 2
1 1 1
1 1 1
1 1 1
1 1 1
1 1 1
1 1 1
1 1 1
2 2 2
1 1 1
1 1 1
2 2 2
1 1 1
2 2 2
2 2 2
2 2 2
2 2 2
2 2 2
2 2 2
2 2 2
3 3 3
2 2 2
2 2 2
2 2 2
3 3 3
4 4 4
4 4 4
4 4 4
4 4 4
10 10 10
8 8 8
3 3 3
7 7 7
7 7 7
7 7 7
18 18 18
8 8 8
22 22 22
14 14 14
5 5 5
2 2 2
2 2 2
2 2 2
2 2 2
0 0 0
0 0 0
2 2 2
2 2 2
2 2 2
2 2 2
2 2 2
2 2 2
1 1 1
1 1 1
1 1 1
1 1 1
1 1 1
2 2 2
1 1 1
1 1 1
2 2 2
1 1 1
2 2 2
1 1 1
2 2 2
2 2 2
2 2 2
3 3 3
2 2 2
2 2 2
2 2 2
2 2 2
2 2 2
2 2 2
3 3 3
4 4 4
4 4 4
4 4 4
10 10 10
3 3 3
10 10 10
3 3 3
4 4 4
11 11 11
13 13 13
13 13 13
25 25 25
14 14 14
10 10 10
2 2 2
2 2 2
2 2 2
2 2 2
2 2 2
0 0 0
0 0 0
2 2 2
2 2 2
2 2 2
2 2 2
2 2 2
2 2 2
2 2 2
1 1 1
1 1 1
1 1 1
1 1 1
1 1 1
1 1 1
2 2 2
2 2 2
2 2 2
1 1 1
2 2 2
2 2 2
1 1 1
2 2 2
2 2 2
2 2 2
2 2 2
2 2 2
2 2 2
2 2 2
2 2 2
2 2 2
3 3 3
10 10 10
7 7 7
5 5 5
7 7 7
8 8 8
4 4 4
12 12 12
5 5 5
18 18 18
12 12 12
47 47 47
17 17 17
2 2 2
2 2 2
2 2 2
2 2 2
2 2 2
2 2 2
0 0 0
0 0 0
2 2 2
2 2 2
2 2 2
2 2 2
2 2 2
2 2 2
2 2 2
2 2 2
1 1 1
1 1 1
1 1 1
1 1 1
1 1 1
1 1 1
1 1 1
1 1 1
1 1 1
1 1 1
1 1 1
2 2 2
2 2 2
2 2 2
2 2 2
2 2 2
2 2 2
2 2 2
3 3 3
5 5 5
7 7 7
14 14 14
7 7 7
7 7 7
16 16 16
11 11 11
11 11 11
13 13 13
14 14 14
20 20 20
18 18 18
14 14 14
12 12 12
2 2 2
2 2 2
2 2 2
2 2 2
2 2 2
2 2 2
2 2 2
0 0 0
0 0 0
2 2 2
2 2 2
2 2 2
2 2 2
2 2 2
2 2 2
2 2 2
2 2 2
2 2 2
1 1 1
1 1 1
1 1 1
1 1 1
1 1 1
1 1 1
1 1 1
2 2 2
2 2 2
2 2 2
2 2 2
2 2 2
2 2 2
2 2 2
2 2 2
2 2 2
2 2 2
8 8 8
3 3 3
10 10 10
9 9 9
4 4 4
10 10 10
10 10 10
16 16 16
18 18 18
23 23 23
13 13 13
28 28 28
23 23 23
5 5 5
2 2 2
2 2 2
2 2 2
2 2 2
2 2 2
2 2 2
2 2 2
2 2 2
0 0 0
0 0 0
2 2 2
2 2 2
2 2 2
2 2 2
2 2 2
2 2 2
2 2 2
2 2 2
2 2 2
2 2 2
1 1 1
1 1 1
1 1 1
1 1 1
1 1 1
2 2 2
2 2 2
1 1 1
2 2 2
2 2 2
2 2 2
2 2 2
2 2 2
2 2 2
2 2 2
6 6 6
2 2 2
7 7 7
10 10 10
2 2 2
7 7 7
12 12 12
10 10 10
10 10 10
21 21 21
12 12 12
14 14 14
28 28 28
2 2 2
2 2 2
2 2 2
2 2 2
2 2 2
2 2 2
2 2 2
2 2 2
2 2 2
2 2 2
0 0 0
0 0 0
2 2 2
2 2 2
2 2 2
2 2 2
2 2 2
2 2 2
2 2 2
2 2 2
2 2 2
2 2 2
2 2 2
2 2 2
1 1 1
1 1 1
1 1 1
1 1 1
1 1 1
1 1 1
1 1 1
1 1 1
2 2 2
1 1 1
2 2 2
2 2 2
2 2 2
7 7 7
10 10 10
9 9 9
3 3 3
4 4 4
8 8 8
12 12 12
12 12 12
13 13 13
22 22 22
18 18 18
4 4 4
2 2 2
2 2 2
2 2 2
2 2 2
2 2 2
2 2 2
2 2 2
2 2 2
2 2 2
2 2 2
2 2 2
0 0 0
0 0 0
2 2 2
2 2 2
2 2 2
2 2 2
2 2 2
2 2 2
2 2 2
2 2 2
2 2 2
2 2 2
2 2 2
2 2 2
2 2 2
2 2 2
1 1 1
1 1 1
1 1 1
1 1 1
1 1 1
2 2 2
1 1 1
2 2 2
2 2 2
1 1 1
8 8 8
9 9 9
7 7 7
6 6 6
3 3 3
4 4 4
7 7 7
15 15 15
15 15 15
11 11 11
4 4 4
2 2 2
2 2 2
2 2 2
2 2 2
2 2 2
2 2 2
2 2 2
2 2 2
2 2 2
2 2 2
2 2 2
2 2 2
2 2 2
0 0 0
0 0 0
2 2 2
2 2 2
2 2 2
2 2 2
2 2 2
2 2 2
2 2 2
2 2 2
2 2 2
2 2 2
2 2 2
2 2 2
2 2 2
2 2 2
2 2 2
2 2 2
1 1 1
2 2 2
2 2 2
2 2 2
2 2 2
2 2 2
2 2 2
2 2 2
8 8 8
10 10 10
7 7 7
3 3 3
4 4 4
4 4 4
13 13 13
13 13 13
2 2 2
2 2 2
2 2 2
2 2 2
2 2 2
2 2 2
2 2 2
2 2 2
2 2 2
2 2 2
2 2 2
2 2 2
2 2 2
2 2 2
2 2 2
2 2 2
0 0 0
0 0 0
0 0 0
0 0 0
0 0 0
0 0 0
0 0 0
0 0 0
0 0 0
0 0 0
0 0 0
0 0 0
0 0 0
0 0 0
0 0 0
0 0 0
0 0 0
0 0 0
0 0 0
0 0 0
0 0 0
0 0 0
0 0 0
0 0 0
0 0 0
0 0 0
0 0 0
0 0 0
0 0 0
0 0 0
0 0 0
0 0 0
0 0 0
0 0 0
0 0 0
0 0 0
0 0 0
0 0 0
0 0 0
0 0 0
0 0 0
0 0 0
0 0 0
0 0 0
0 0 0
0 0 0
0 0 0
0 0 0
0 0 0
0 0 0
0 0 0
