P3 
50 50 
255
0 0 0
0 0 0
0 0 0
0 0 0
0 0 0
0 0 0
0 0 0
0 0 0
0 0 0
0 0 0
0 0 0
0 0 0
0 0 0
0 0 0
0 0 0
0 0 0
0 0 0
0 0 0
0 0 0
0 0 0
0 0 0
0 0 0
0 0 0
0 0 0
0 0 0
0 0 0
0 0 0
0 0 0
0 0 0
0 0 0
0 0 0
0 0 0
0 0 0
0 0 0
0 0 0
0 0 0
0 0 0
0 0 0
0 0 0
0 0 0
0 0 0
0 0 0
0 0 0
0 0 0
0 0 0
0 0 0
0 0 0
0 0 0
0 0 0
0 0 0
0 0 0
2 2 2
2 2 2
2 2 2
2 2 2
2 2 2
2 2 2
2 2 2
2 2 2
2 2 2
2 2 2
2 2 2
2 2 2
2 2 2
2 2 2
2 2 2
2 2 2
2 2 2
1 1 1
1 1 1
1 1 1
1 1 1
1 1 1
1 1 1
2 2 2
3 3 3
4 4 4
4 4 4
4 4 4
4 4 4
5 5 5
6 6 6
4 4 4
2 2 2
2 2 2
2 2 2
2 2 2
2 2 2
2 2 2
2 2 2
2 2 2
2 2 2
2 2 2
2 2 2
2 2 2
2 2 2
2 2 2
2 2 2
2 2 2
0 0 0
0 0 0
2 2 2
2 2 2
2 2 2
2 2 2
2 2 2
2 2 2
2 2 2
2 2 2
2 2 2
2 2 2
2 2 2
2 2 2
2 2 2
2 2 2
1 1 1
1 1 1
1 1 1
1 1 1
1 1 1
1 1 1
1 1 1
1 1 1
2 2 2
2 2 2
3 3 3
4 4 4
5 5 5
15 15 15
15 15 15
13 13 13
14 14 14
13 13 13
9 9 9
11 11 11
2 2 2
2 2 2
2 2 2
2 2 2
2 2 2
2 2 2
2 2 2
2 2 2
2 2 2
2 2 2
2 2 2
2 2 2
2 2 2
2 2 2
0 0 0
0 0 0
2 2 2
2 2 2
2 2 2
2 2 2
2 2 2
2 2 2
2 2 2
2 2 2
2 2 2
2 2 2
2 2 2
2 2 2
1 1 1
1 1 1
1 1 1
1 1 1
1 1 1
2 2 2
1 1 1
2 2 2
6 6 6
1 1 1
2 2 2
2 2 2
5 5 5
9 9 9
8 8 8
8 8 8
10 10 10
13 13 13
17 17 17
9 9 9
12 12 12
5 5 5
10 10 10
13 13 13
2 2 2
2 2 2
2 2 2
2 2 2
2 2 2
2 2 2
2 2 2
2 2 2
2 2 2
2 2 2
2 2 2
2 2 2
0 0 0
0 0 0
2 2 2
2 2 2
2 2 2
2 2 2
2 2 2
2 2 2
2 2 2
2 2 2
2 2 2
2 2 2
1 1 1
1 1 1
1 1 1
1 1 1
1 1 1
1 1 1
2 2 2
1 1 1
1 1 1
1 1 1
10 10 10
2 2 2
1 1 1
2 2 2
8 8 8
6 6 6
4 4 4
3 3 3
7 7 7
7 7 7
4 4 4
15 15 15
3 3 3
8 8 8
6 6 6
5 5 5
10 10 10
7 7 7
2 2 2
2 2 2
2 2 2
2 2 2
2 2 2
2 2 2
2 2 2
2 2 2
2 2 2
2 2 2
0 0 0
0 0 0
2 2 2
2 2 2
2 2 2
2 2 2
2 2 2
2 2 2
2 2 2
2 2 2
2 2 2
1 1 1
1 1 1
1 1 1
1 1 1
1 1 1
2 2 2
1 1 1
1 1 1
2 2 2
2 2 2
14 14 14
5 5 5
5 5 5
9 9 9
9 9 9
2 2 2
8 8 8
9 9 9
3 3 3
3 3 3
4 4 4
6 6 6
3 3 3
14 14 14
13 13 13
4 4 4
16 16 16
12 12 12
6 6 6
9 9 9
2 2 2
2 2 2
2 2 2
2 2 2
2 2 2
2 2 2
2 2 2
2 2 2
2 2 2
0 0 0
0 0 0
2 2 2
2 2 2
2 2 2
2 2 2
2 2 2
2 2 2
2 2 2
2 2 2
1 1 1
1 1 1
1 1 1
1 1 1
2 2 2
1 1 1
2 2 2
1 1 1
2 2 2
2 2 2
2 2 2
11 11 11
11 11 11
11 11 11
4 4 4
11 11 11
7 7 7
10 10 10
8 8 8
10 10 10
3 3 3
5 5 5
5 5 5
19 19 19
6 6 6
3 3 3
6 6 6
4 4 4
13 13 13
13 13 13
6 6 6
10 10 10
4 4 4
2 2 2
2 2 2
2 2 2
2 2 2
2 2 2
2 2 2
2 2 2
0 0 0
0 0 0
2 2 2
2 2 2
2 2 2
2 2 2
2 2 2
2 2 2
2 2 2
1 1 1
1 1 1
1 1 1
1 1 1
2 2 2
1 1 1
2 2 2
2 2 2
2 2 2
2 2 2
9 9 9
18 18 18
8 8 8
3 3 3
5 5 5
11 11 11
3 3 3
10 10 10
6 6 6
11 11 11
9 9 9
3 3 3
18 18 18
10 10 10
9 9 9
3 3 3
5 5 5
9 9 9
3 3 3
4 4 4
4 4 4
5 5 5
7 7 7
11 11 11
8 8 8
2 2 2
2 2 2
2 2 2
2 2 2
2 2 2
2 2 2
0 0 0
0 0 0
2 2 2
2 2 2
2 2 2
2 2 2
2 2 2
2 2 2
2 2 2
1 1 1
1 1 1
1 1 1
1 1 1
2 2 2
2 2 2
2 2 2
2 2 2
2 2 2
4 4 4
8 8 8
8 8 8
10 10 10
11 11 11
7 7 7
6 6 6
10 10 10
9 9 9
5 5 5
6 6 6
9 9 9
16 16 16
9 9 9
5 5 5
9 9 9
9 9 9
10 10 10
10 10 10
10 10 10
11 11 11
5 5 5
4 4 4
5 5 5
7 7 7
45 45 45
4 4 4
2 2 2
2 2 2
2 2 2
2 2 2
2 2 2
0 0 0
0 0 0
2 2 2
2 2 2
2 2 2
2 2 2
2 2 2
2 2 2
2 2 2
1 1 1
2 2 2
1 1 1
2 2 2
2 2 2
2 2 2
2 2 2
5 5 5
14 14 14
17 17 17
2 2 2
6 6 6
16 16 16
5 5 5
16 16 16
15 15 15
0 0 0
7 7 7
3 3 3
4 4 4
13 13 13
3 3 3
8 8 8
10 10 10
10 10 10
18 18 18
10 10 10
8 8 8
5 5 5
3 3 3
7 7 7
9 9 9
4 4 4
6 6 6
16 16 16
17 17 17
2 2 2
2 2 2
2 2 2
2 2 2
2 2 2
0 0 0
0 0 0
2 2 2
2 2 2
2 2 2
2 2 2
2 2 2
2 2 2
2 2 2
1 1 1
2 2 2
2 2 2
2 2 2
3 3 3
4 4 4
13 13 13
10 10 10
10 10 10
17 17 17
22 22 22
33 33 33
62 62 62
10 10 10
70 70 70
84 84 84
86 86 86
68 68 68
13 13 13
16 16 16
7 7 7
5 5 5
8 8 8
2 2 2
4 4 4
17 17 17
9 9 9
8 8 8
6 6 6
7 7 7
8 8 8
9 9 9
11 11 11
4 4 4
5 5 5
24 24 24
19 19 19
2 2 2
2 2 2
2 2 2
2 2 2
0 0 0
0 0 0
2 2 2
2 2 2
2 2 2
2 2 2
2 2 2
2 2 2
2 2 2
1 1 1
2 2 2
2 2 2
3 3 3
8 8 8
14 14 14
35 35 35
73 73 73
75 75 75
75 75 75
79 79 79
78 78 78
80 80 80
82 82 82
84 84 84
85 85 85
86 86 86
85 85 85
89 89 89
88 88 88
86 86 86
76 76 76
6 6 6
4 4 4
8 8 8
12 12 12
11 11 11
12 12 12
14 14 14
14 14 14
6 6 6
6 6 6
11 11 11
13 13 13
5 5 5
39 39 39
14 14 14
18 18 18
2 2 2
2 2 2
2 2 2
0 0 0
0 0 0
2 2 2
2 2 2
2 2 2
2 2 2
1 1 1
2 2 2
2 2 2
2 2 2
2 2 2
3 3 3
3 3 3
12 12 12
72 72 72
77 77 77
78 78 78
83 83 83
86 86 86
99 99 99
106 106 106
78 78 78
86 86 86
83 83 83
85 85 85
85 85 85
89 89 89
87 87 87
87 87 87
89 89 89
90 90 90
84 84 84
33 33 33
10 10 10
13 13 13
14 14 14
15 15 15
13 13 13
6 6 6
12 12 12
4 4 4
11 11 11
9 9 9
9 9 9
41 41 41
12 12 12
15 15 15
5 5 5
2 2 2
2 2 2
0 0 0
0 0 0
2 2 2
2 2 2
2 2 2
1 1 1
1 1 1
2 2 2
2 2 2
2 2 2
3 3 3
2 2 2
6 6 6
79 79 79
77 77 77
80 80 80
93 93 93
144 144 144
154 154 154
91 91 91
84 84 84
83 83 83
84 84 84
88 88 88
85 85 85
84 84 84
78 78 78
79 79 79
78 78 78
78 78 78
88 88 88
89 89 89
82 82 82
52 52 52
18 18 18
2 2 2
4 4 4
21 21 21
22 22 22
3 3 3
5 5 5
9 9 9
10 10 10
11 11 11
33 33 33
7 7 7
13 13 13
83 83 83
2 2 2
2 2 2
0 0 0
0 0 0
2 2 2
2 2 2
2 2 2
1 1 1
2 2 2
2 2 2
2 2 2
3 3 3
2 2 2
4 4 4
80 80 80
78 78 78
93 93 93
176 176 176
107 107 107
176 176 176
84 84 84
83 83 83
86 86 86
85 85 85
85 85 85
89 89 89
88 88 88
79 79 79
80 80 80
87 87 87
86 86 86
80 80 80
88 88 88
89 89 89
88 88 88
81 81 81
48 48 48
7 7 7
5 5 5
4 4 4
4 4 4
9 9 9
8 8 8
4 4 4
5 5 5
7 7 7
16 16 16
8 8 8
10 10 10
57 57 57
5 5 5
2 2 2
0 0 0
0 0 0
2 2 2
1 1 1
2 2 2
2 2 2
1 1 1
2 2 2
3 3 3
1 1 1
8 8 8
80 80 80
87 87 87
109 109 109
98 98 98
89 89 89
130 130 130
79 79 79
83 83 83
85 85 85
86 86 86
87 87 87
87 87 87
87 87 87
89 89 89
85 85 85
86 86 86
83 83 83
84 84 84
88 88 88
87 87 87
88 88 88
88 88 88
89 89 89
80 80 80
26 26 26
12 12 12
8 8 8
18 18 18
9 9 9
12 12 12
10 10 10
4 4 4
4 4 4
6 6 6
11 11 11
8 8 8
35 35 35
23 23 23
2 2 2
0 0 0
0 0 0
2 2 2
1 1 1
1 1 1
2 2 2
1 1 1
3 3 3
2 2 2
4 4 4
81 81 81
87 87 87
113 113 113
114 114 114
89 89 89
130 130 130
87 87 87
88 88 88
88 88 88
87 87 87
85 85 85
86 86 86
88 88 88
88 88 88
87 87 87
97 97 97
102 102 102
91 91 91
92 92 92
85 85 85
87 87 87
85 85 85
86 86 86
88 88 88
83 83 83
59 59 59
7 7 7
11 11 11
3 3 3
8 8 8
7 7 7
7 7 7
13 13 13
4 4 4
4 4 4
32 32 32
7 7 7
23 23 23
16 16 16
3 3 3
0 0 0
0 0 0
2 2 2
1 1 1
0 0 0
1 1 1
2 2 2
2 2 2
1 1 1
83 83 83
85 85 85
117 117 117
114 114 114
102 102 102
167 167 167
90 90 90
87 87 87
87 87 87
88 88 88
88 88 88
87 87 87
86 86 86
87 87 87
87 87 87
85 85 85
86 86 86
115 115 115
121 121 121
101 101 101
98 98 98
82 82 82
87 87 87
86 86 86
89 89 89
88 88 88
85 85 85
68 68 68
23 23 23
18 18 18
16 16 16
17 17 17
11 11 11
11 11 11
8 8 8
4 4 4
40 40 40
7 7 7
16 16 16
17 17 17
20 20 20
0 0 0
0 0 0
1 1 1
1 1 1
1 1 1
0 0 0
2 2 2
0 0 0
74 74 74
84 84 84
108 108 108
111 111 111
97 97 97
171 171 171
89 89 89
85 85 85
87 87 87
85 85 85
84 84 84
88 88 88
88 88 88
14 14 14
88 88 88
86 86 86
88 88 88
88 88 88
91 91 91
137 137 137
109 109 109
104 104 104
87 87 87
80 80 80
86 86 86
88 88 88
88 88 88
86 86 86
80 80 80
77 77 77
8 8 8
10 10 10
11 11 11
14 14 14
12 12 12
16 16 16
4 4 4
28 28 28
10 10 10
12 12 12
20 20 20
20 20 20
0 0 0
0 0 0
2 2 2
1 1 1
1 1 1
1 1 1
1 1 1
8 8 8
83 83 83
82 82 82
167 167 167
124 124 124
174 174 174
86 86 86
87 87 87
85 85 85
85 85 85
87 87 87
87 87 87
88 88 88
88 88 88
9 9 9
88 88 88
87 87 87
90 90 90
102 102 102
85 85 85
105 105 105
122 122 122
101 101 101
78 78 78
80 80 80
78 78 78
88 88 88
87 87 87
89 89 89
86 86 86
83 83 83
23 23 23
5 5 5
4 4 4
9 9 9
12 12 12
16 16 16
7 7 7
30 30 30
9 9 9
9 9 9
25 25 25
15 15 15
0 0 0
0 0 0
2 2 2
2 2 2
1 1 1
2 2 2
2 2 2
73 73 73
79 79 79
108 108 108
108 108 108
151 151 151
84 84 84
85 85 85
87 87 87
87 87 87
86 86 86
87 87 87
88 88 88
88 88 88
84 84 84
0 0 0
70 70 70
99 99 99
112 112 112
117 117 117
87 87 87
85 85 85
96 96 96
117 117 117
97 97 97
78 78 78
78 78 78
81 81 81
84 84 84
85 85 85
91 91 91
80 80 80
45 45 45
20 20 20
10 10 10
7 7 7
13 13 13
17 17 17
13 13 13
38 38 38
8 8 8
9 9 9
31 31 31
13 13 13
0 0 0
0 0 0
1 1 1
1 1 1
1 1 1
3 3 3
1 1 1
84 84 84
86 86 86
153 153 153
140 140 140
88 88 88
87 87 87
88 88 88
87 87 87
86 86 86
85 85 85
86 86 86
86 86 86
88 88 88
78 78 78
0 0 0
83 83 83
93 93 93
122 122 122
117 117 117
84 84 84
85 85 85
86 86 86
130 130 130
105 105 105
89 89 89
85 85 85
79 79 79
80 80 80
83 83 83
91 91 91
79 79 79
40 40 40
15 15 15
6 6 6
18 18 18
12 12 12
6 6 6
17 17 17
46 46 46
7 7 7
8 8 8
34 34 34
14 14 14
0 0 0
0 0 0
1 1 1
1 1 1
1 1 1
3 3 3
0 0 0
85 85 85
86 86 86
146 146 146
118 118 118
96 96 96
86 86 86
88 88 88
87 87 87
87 87 87
86 86 86
86 86 86
87 87 87
87 87 87
89 89 89
3 3 3
87 87 87
112 112 112
132 132 132
128 128 128
84 84 84
85 85 85
88 88 88
144 144 144
111 111 111
82 82 82
85 85 85
80 80 80
81 81 81
87 87 87
90 90 90
81 81 81
28 28 28
7 7 7
14 14 14
16 16 16
5 5 5
4 4 4
13 13 13
33 33 33
8 8 8
8 8 8
41 41 41
14 14 14
0 0 0
0 0 0
1 1 1
1 1 1
1 1 1
1 1 1
1 1 1
76 76 76
79 79 79
87 87 87
119 119 119
202 202 202
87 87 87
83 83 83
87 87 87
87 87 87
86 86 86
86 86 86
86 86 86
87 87 87
88 88 88
81 81 81
87 87 87
90 90 90
139 139 139
127 127 127
85 85 85
85 85 85
122 122 122
112 112 112
87 87 87
86 86 86
86 86 86
80 80 80
84 84 84
88 88 88
90 90 90
86 86 86
20 20 20
6 6 6
23 23 23
11 11 11
12 12 12
7 7 7
13 13 13
18 18 18
7 7 7
8 8 8
43 43 43
13 13 13
0 0 0
0 0 0
2 2 2
1 1 1
1 1 1
1 1 1
1 1 1
8 8 8
81 81 81
82 82 82
152 152 152
107 107 107
208 208 208
87 87 87
81 81 81
85 85 85
87 87 87
85 85 85
85 85 85
87 87 87
87 87 87
86 86 86
86 86 86
87 87 87
90 90 90
87 87 87
119 119 119
127 127 127
122 122 122
103 103 103
78 78 78
82 82 82
80 80 80
83 83 83
88 88 88
87 87 87
88 88 88
86 86 86
19 19 19
4 4 4
12 12 12
10 10 10
9 9 9
9 9 9
11 11 11
11 11 11
7 7 7
7 7 7
43 43 43
12 12 12
0 0 0
0 0 0
1 1 1
1 1 1
1 1 1
0 0 0
1 1 1
0 0 0
19 19 19
80 80 80
84 84 84
179 179 179
103 103 103
122 122 122
128 128 128
88 88 88
87 87 87
87 87 87
88 88 88
88 88 88
86 86 86
87 87 87
85 85 85
88 88 88
89 89 89
89 89 89
119 119 119
111 111 111
84 84 84
82 82 82
85 85 85
81 81 81
81 81 81
88 88 88
88 88 88
88 88 88
81 81 81
70 70 70
4 4 4
20 20 20
12 12 12
9 9 9
5 5 5
7 7 7
10 10 10
11 11 11
8 8 8
8 8 8
42 42 42
13 13 13
0 0 0
0 0 0
1 1 1
1 1 1
0 0 0
0 0 0
1 1 1
2 2 2
0 0 0
21 21 21
79 79 79
84 84 84
137 137 137
106 106 106
96 96 96
129 129 129
88 88 88
88 88 88
88 88 88
87 87 87
86 86 86
86 86 86
86 86 86
88 88 88
101 101 101
84 84 84
118 118 118
100 100 100
86 86 86
82 82 82
82 82 82
87 87 87
86 86 86
88 88 88
88 88 88
82 82 82
90 90 90
7 7 7
9 9 9
12 12 12
12 12 12
6 6 6
6 6 6
5 5 5
10 10 10
15 15 15
8 8 8
8 8 8
41 41 41
13 13 13
0 0 0
0 0 0
1 1 1
0 0 0
1 1 1
1 1 1
1 1 1
1 1 1
2 2 2
0 0 0
14 14 14
76 76 76
88 88 88
142 142 142
97 97 97
87 87 87
134 134 134
79 79 79
85 85 85
86 86 86
87 87 87
88 88 88
89 89 89
88 88 88
88 88 88
88 88 88
85 85 85
81 81 81
86 86 86
87 87 87
88 88 88
84 84 84
87 87 87
89 89 89
86 86 86
81 81 81
12 12 12
14 14 14
10 10 10
14 14 14
15 15 15
8 8 8
7 7 7
5 5 5
10 10 10
23 23 23
7 7 7
8 8 8
35 35 35
14 14 14
0 0 0
0 0 0
0 0 0
1 1 1
1 1 1
1 1 1
1 1 1
2 2 2
1 1 1
2 2 2
0 0 0
18 18 18
78 78 78
77 77 77
120 120 120
172 172 172
108 108 108
182 182 182
102 102 102
83 83 83
87 87 87
87 87 87
87 87 87
87 87 87
84 84 84
90 90 90
80 80 80
86 86 86
88 88 88
88 88 88
89 89 89
89 89 89
89 89 89
90 90 90
81 81 81
60 60 60
3 3 3
7 7 7
10 10 10
5 5 5
7 7 7
6 6 6
13 13 13
10 10 10
9 9 9
35 35 35
8 8 8
8 8 8
31 31 31
13 13 13
0 0 0
0 0 0
1 1 1
1 1 1
2 2 2
1 1 1
1 1 1
1 1 1
1 1 1
2 2 2
2 2 2
0 0 0
5 5 5
75 75 75
75 75 75
79 79 79
134 134 134
154 154 154
141 141 141
96 96 96
85 85 85
86 86 86
82 82 82
90 90 90
85 85 85
85 85 85
82 82 82
82 82 82
85 85 85
85 85 85
90 90 90
90 90 90
81 81 81
84 84 84
42 42 42
1 1 1
8 8 8
3 3 3
8 8 8
10 10 10
13 13 13
9 9 9
20 20 20
18 18 18
9 9 9
43 43 43
8 8 8
10 10 10
26 26 26
13 13 13
0 0 0
0 0 0
1 1 1
2 2 2
1 1 1
2 2 2
1 1 1
2 2 2
2 2 2
2 2 2
1 1 1
2 2 2
1 1 1
4 4 4
18 18 18
57 57 57
72 72 72
73 73 73
76 76 76
78 78 78
79 79 79
83 83 83
87 87 87
86 86 86
87 87 87
87 87 87
90 90 90
84 84 84
87 87 87
90 90 90
65 65 65
24 24 24
24 24 24
7 7 7
7 7 7
6 6 6
5 5 5
6 6 6
10 10 10
6 6 6
3 3 3
7 7 7
7 7 7
14 14 14
11 11 11
40 40 40
7 7 7
12 12 12
20 20 20
14 14 14
0 0 0
0 0 0
2 2 2
2 2 2
1 1 1
1 1 1
2 2 2
1 1 1
2 2 2
1 1 1
2 2 2
2 2 2
2 2 2
2 2 2
12 12 12
6 6 6
15 15 15
41 41 41
44 44 44
34 34 34
53 53 53
38 38 38
83 83 83
86 86 86
84 84 84
88 88 88
90 90 90
91 91 91
88 88 88
29 29 29
9 9 9
7 7 7
2 2 2
2 2 2
3 3 3
4 4 4
3 3 3
11 11 11
3 3 3
8 8 8
19 19 19
20 20 20
9 9 9
11 11 11
9 9 9
42 42 42
9 9 9
16 16 16
17 17 17
18 18 18
0 0 0
0 0 0
2 2 2
2 2 2
1 1 1
1 1 1
1 1 1
1 1 1
1 1 1
2 2 2
2 2 2
1 1 1
2 2 2
2 2 2
2 2 2
5 5 5
10 10 10
20 20 20
5 5 5
1 1 1
0 0 0
1 1 1
0 0 0
0 0 0
2 2 2
23 23 23
5 5 5
3 3 3
1 1 1
1 1 1
5 5 5
3 3 3
3 3 3
3 3 3
3 3 3
3 3 3
3 3 3
15 15 15
7 7 7
3 3 3
17 17 17
24 24 24
22 22 22
12 12 12
8 8 8
42 42 42
9 9 9
24 24 24
15 15 15
26 26 26
0 0 0
0 0 0
2 2 2
1 1 1
1 1 1
1 1 1
1 1 1
2 2 2
1 1 1
1 1 1
2 2 2
2 2 2
2 2 2
2 2 2
1 1 1
2 2 2
1 1 1
4 4 4
10 10 10
13 13 13
3 3 3
2 2 2
2 2 2
1 1 1
1 1 1
2 2 2
2 2 2
3 3 3
2 2 2
3 3 3
2 2 2
2 2 2
2 2 2
3 3 3
3 3 3
3 3 3
3 3 3
5 5 5
12 12 12
2 2 2
11 11 11
21 21 21
15 15 15
6 6 6
5 5 5
26 26 26
9 9 9
36 36 36
14 14 14
2 2 2
0 0 0
0 0 0
2 2 2
2 2 2
1 1 1
1 1 1
1 1 1
1 1 1
1 1 1
1 1 1
1 1 1
2 2 2
1 1 1
2 2 2
2 2 2
2 2 2
2 2 2
2 2 2
2 2 2
4 4 4
14 14 14
2 2 2
2 2 2
2 2 2
2 2 2
1 1 1
2 2 2
3 3 3
2 2 2
3 3 3
3 3 3
3 3 3
3 3 3
3 3 3
3 3 3
3 3 3
3 3 3
3 3 3
12 12 12
10 10 10
5 5 5
19 19 19
9 9 9
8 8 8
6 6 6
12 12 12
9 9 9
57 57 57
21 21 21
2 2 2
0 0 0
0 0 0
2 2 2
2 2 2
1 1 1
1 1 1
1 1 1
1 1 1
1 1 1
1 1 1
1 1 1
2 2 2
2 2 2
2 2 2
2 2 2
2 2 2
1 1 1
1 1 1
2 2 2
2 2 2
3 3 3
4 4 4
3 3 3
2 2 2
2 2 2
3 3 3
2 2 2
2 2 2
3 3 3
3 3 3
3 3 3
3 3 3
3 3 3
3 3 3
3 3 3
3 3 3
3 3 3
2 2 2
12 12 12
4 4 4
4 4 4
14 14 14
8 8 8
10 10 10
17 17 17
8 8 8
11 11 11
79 79 79
8 8 8
2 2 2
0 0 0
0 0 0
2 2 2
2 2 2
1 1 1
1 1 1
1 1 1
1 1 1
1 1 1
1 1 1
1 1 1
2 2 2
1 1 1
2 2 2
2 2 2
2 2 2
2 2 2
2 2 2
2 2 2
2 2 2
2 2 2
3 3 3
3 3 3
2 2 2
2 2 2
2 2 2
3 3 3
2 2 2
2 2 2
3 3 3
4 4 4
3 3 3
3 3 3
3 3 3
3 3 3
3 3 3
3 3 3
3 3 3
9 9 9
8 8 8
3 3 3
8 8 8
13 13 13
11 11 11
39 39 39
8 8 8
14 14 14
91 91 91
2 2 2
2 2 2
0 0 0
0 0 0
2 2 2
2 2 2
2 2 2
1 1 1
1 1 1
1 1 1
1 1 1
1 1 1
1 1 1
2 2 2
1 1 1
2 2 2
2 2 2
2 2 2
2 2 2
1 1 1
2 2 2
2 2 2
2 2 2
2 2 2
2 2 2
3 3 3
2 2 2
2 2 2
2 2 2
3 3 3
2 2 2
3 3 3
4 4 4
5 5 5
4 4 4
3 3 3
3 3 3
3 3 3
3 3 3
3 3 3
9 9 9
8 8 8
5 5 5
10 10 10
8 8 8
9 9 9
24 24 24
10 10 10
17 17 17
11 11 11
2 2 2
2 2 2
0 0 0
0 0 0
2 2 2
2 2 2
2 2 2
1 1 1
1 1 1
1 1 1
2 2 2
1 1 1
1 1 1
1 1 1
2 2 2
1 1 1
2 2 2
2 2 2
2 2 2
1 1 1
2 2 2
2 2 2
2 2 2
2 2 2
3 3 3
2 2 2
2 2 2
2 2 2
2 2 2
2 2 2
3 3 3
3 3 3
4 4 4
4 4 4
5 5 5
5 5 5
4 4 4
3 3 3
3 3 3
3 3 3
10 10 10
5 5 5
10 10 10
10 10 10
15 15 15
14 14 14
9 9 9
13 13 13
33 33 33
2 2 2
2 2 2
2 2 2
0 0 0
0 0 0
2 2 2
2 2 2
2 2 2
2 2 2
1 1 1
1 1 1
1 1 1
1 1 1
1 1 1
1 1 1
1 1 1
1 1 1
2 2 2
1 1 1
1 1 1
2 2 2
1 1 1
2 2 2
2 2 2
2 2 2
2 2 2
2 2 2
2 2 2
3 3 3
2 2 2
2 2 2
3 3 3
4 4 4
4 4 4
4 4 4
4 4 4
4 4 4
5 5 5
3 3 3
3 3 3
3 3 3
9 9 9
3 3 3
6 6 6
14 14 14
11 11 11
39 39 39
11 11 11
16 16 16
2 2 2
2 2 2
2 2 2
2 2 2
0 0 0
0 0 0
2 2 2
2 2 2
2 2 2
2 2 2
2 2 2
1 1 1
1 1 1
1 1 1
1 1 1
1 1 1
2 2 2
1 1 1
1 1 1
2 2 2
1 1 1
2 2 2
2 2 2
2 2 2
2 2 2
2 2 2
2 2 2
2 2 2
2 2 2
2 2 2
3 3 3
2 2 2
3 3 3
4 4 4
4 4 4
4 4 4
4 4 4
3 3 3
4 4 4
6 6 6
4 4 4
6 6 6
4 4 4
7 7 7
7 7 7
19 19 19
7 7 7
21 21 21
14 14 14
5 5 5
2 2 2
2 2 2
2 2 2
2 2 2
0 0 0
0 0 0
2 2 2
2 2 2
2 2 2
2 2 2
2 2 2
2 2 2
1 1 1
1 1 1
1 1 1
1 1 1
1 1 1
1 1 1
1 1 1
1 1 1
1 1 1
1 1 1
2 2 2
1 1 1
2 2 2
2 2 2
2 2 2
2 2 2
2 2 2
2 2 2
2 2 2
2 2 2
3 3 3
4 4 4
4 4 4
4 4 4
4 4 4
4 4 4
12 12 12
5 5 5
7 7 7
3 3 3
4 4 4
12 12 12
12 12 12
16 16 16
23 23 23
14 14 14
10 10 10
2 2 2
2 2 2
2 2 2
2 2 2
2 2 2
0 0 0
0 0 0
2 2 2
2 2 2
2 2 2
2 2 2
2 2 2
2 2 2
2 2 2
1 1 1
1 1 1
1 1 1
2 2 2
1 1 1
1 1 1
1 1 1
1 1 1
2 2 2
1 1 1
1 1 1
2 2 2
1 1 1
2 2 2
2 2 2
2 2 2
2 2 2
2 2 2
2 2 2
3 3 3
4 4 4
4 4 4
3 3 3
9 9 9
11 11 11
4 4 4
12 12 12
14 14 14
3 3 3
9 9 9
12 12 12
15 15 15
10 10 10
46 46 46
17 17 17
2 2 2
2 2 2
2 2 2
2 2 2
2 2 2
2 2 2
0 0 0
0 0 0
2 2 2
2 2 2
2 2 2
2 2 2
2 2 2
2 2 2
2 2 2
2 2 2
1 1 1
1 1 1
1 1 1
1 1 1
1 1 1
1 1 1
1 1 1
1 1 1
1 1 1
2 2 2
2 2 2
2 2 2
2 2 2
1 1 1
2 2 2
2 2 2
2 2 2
2 2 2
3 3 3
3 3 3
3 3 3
13 13 13
10 10 10
5 5 5
18 18 18
12 12 12
10 10 10
11 11 11
13 13 13
19 19 19
21 21 21
14 14 14
12 12 12
2 2 2
2 2 2
2 2 2
2 2 2
2 2 2
2 2 2
2 2 2
0 0 0
0 0 0
2 2 2
2 2 2
2 2 2
2 2 2
2 2 2
2 2 2
2 2 2
2 2 2
2 2 2
1 1 1
1 1 1
1 1 1
1 1 1
1 1 1
1 1 1
2 2 2
1 1 1
2 2 2
2 2 2
1 1 1
1 1 1
2 2 2
2 2 2
2 2 2
2 2 2
2 2 2
9 9 9
9 9 9
10 10 10
9 9 9
10 10 10
11 11 11
13 13 13
20 20 20
27 27 27
20 20 20
11 11 11
25 25 25
19 19 19
5 5 5
2 2 2
2 2 2
2 2 2
2 2 2
2 2 2
2 2 2
2 2 2
2 2 2
0 0 0
0 0 0
2 2 2
2 2 2
2 2 2
2 2 2
2 2 2
2 2 2
2 2 2
2 2 2
2 2 2
2 2 2
1 1 1
1 1 1
1 1 1
1 1 1
1 1 1
2 2 2
1 1 1
2 2 2
1 1 1
2 2 2
2 2 2
2 2 2
2 2 2
2 2 2
2 2 2
3 3 3
3 3 3
8 8 8
6 6 6
4 4 4
5 5 5
19 19 19
7 7 7
15 15 15
12 12 12
11 11 11
8 8 8
28 28 28
2 2 2
2 2 2
2 2 2
2 2 2
2 2 2
2 2 2
2 2 2
2 2 2
2 2 2
2 2 2
0 0 0
0 0 0
2 2 2
2 2 2
2 2 2
2 2 2
2 2 2
2 2 2
2 2 2
2 2 2
2 2 2
2 2 2
2 2 2
2 2 2
2 2 2
1 1 1
1 1 1
1 1 1
1 1 1
2 2 2
1 1 1
1 1 1
2 2 2
1 1 1
2 2 2
2 2 2
2 2 2
5 5 5
4 4 4
8 8 8
8 8 8
9 9 9
5 5 5
18 18 18
9 9 9
21 21 21
13 13 13
24 24 24
3 3 3
2 2 2
2 2 2
2 2 2
2 2 2
2 2 2
2 2 2
2 2 2
2 2 2
2 2 2
2 2 2
2 2 2
0 0 0
0 0 0
2 2 2
2 2 2
2 2 2
2 2 2
2 2 2
2 2 2
2 2 2
2 2 2
2 2 2
2 2 2
2 2 2
2 2 2
2 2 2
2 2 2
2 2 2
1 1 1
1 1 1
1 1 1
1 1 1
2 2 2
2 2 2
2 2 2
2 2 2
1 1 1
6 6 6
7 7 7
8 8 8
7 7 7
4 4 4
4 4 4
5 5 5
12 12 12
7 7 7
10 10 10
3 3 3
2 2 2
2 2 2
2 2 2
2 2 2
2 2 2
2 2 2
2 2 2
2 2 2
2 2 2
2 2 2
2 2 2
2 2 2
2 2 2
0 0 0
0 0 0
2 2 2
2 2 2
2 2 2
2 2 2
2 2 2
2 2 2
2 2 2
2 2 2
2 2 2
2 2 2
2 2 2
2 2 2
2 2 2
2 2 2
2 2 2
2 2 2
2 2 2
2 2 2
2 2 2
2 2 2
2 2 2
2 2 2
2 2 2
3 3 3
10 10 10
5 5 5
6 6 6
10 10 10
4 4 4
4 4 4
14 14 14
20 20 20
2 2 2
2 2 2
2 2 2
2 2 2
2 2 2
2 2 2
2 2 2
2 2 2
2 2 2
2 2 2
2 2 2
2 2 2
2 2 2
2 2 2
2 2 2
2 2 2
0 0 0
0 0 0
0 0 0
0 0 0
0 0 0
0 0 0
0 0 0
0 0 0
0 0 0
0 0 0
0 0 0
0 0 0
0 0 0
0 0 0
0 0 0
0 0 0
0 0 0
0 0 0
0 0 0
0 0 0
0 0 0
0 0 0
0 0 0
0 0 0
0 0 0
0 0 0
0 0 0
0 0 0
0 0 0
0 0 0
0 0 0
0 0 0
0 0 0
0 0 0
0 0 0
0 0 0
0 0 0
0 0 0
0 0 0
0 0 0
0 0 0
0 0 0
0 0 0
0 0 0
0 0 0
0 0 0
0 0 0
0 0 0
0 0 0
0 0 0
0 0 0
