P3 
50 50 
255
0 0 0
0 0 0
0 0 0
0 0 0
0 0 0
0 0 0
0 0 0
0 0 0
0 0 0
0 0 0
0 0 0
0 0 0
0 0 0
0 0 0
0 0 0
0 0 0
0 0 0
0 0 0
0 0 0
0 0 0
0 0 0
0 0 0
0 0 0
0 0 0
0 0 0
0 0 0
0 0 0
0 0 0
0 0 0
0 0 0
0 0 0
0 0 0
0 0 0
0 0 0
0 0 0
0 0 0
0 0 0
0 0 0
0 0 0
0 0 0
0 0 0
0 0 0
0 0 0
0 0 0
0 0 0
0 0 0
0 0 0
0 0 0
0 0 0
0 0 0
0 0 0
2 2 2
2 2 2
2 2 2
2 2 2
2 2 2
2 2 2
2 2 2
2 2 2
2 2 2
2 2 2
2 2 2
2 2 2
2 2 2
2 2 2
2 2 2
2 2 2
1 1 1
1 1 1
2 2 2
3 3 3
3 3 3
4 4 4
4 4 4
4 4 4
4 4 4
5 5 5
4 4 4
5 5 5
5 5 5
8 8 8
12 12 12
3 3 3
2 2 2
2 2 2
2 2 2
2 2 2
2 2 2
2 2 2
2 2 2
2 2 2
2 2 2
2 2 2
2 2 2
2 2 2
2 2 2
2 2 2
2 2 2
2 2 2
0 0 0
0 0 0
2 2 2
2 2 2
2 2 2
2 2 2
2 2 2
2 2 2
2 2 2
2 2 2
2 2 2
2 2 2
2 2 2
2 2 2
2 2 2
2 2 2
1 1 1
1 1 1
2 2 2
2 2 2
2 2 2
2 2 2
4 4 4
4 4 4
4 4 4
4 4 4
5 5 5
5 5 5
4 4 4
3 3 3
6 6 6
10 10 10
11 11 11
6 6 6
11 11 11
12 12 12
2 2 2
2 2 2
2 2 2
2 2 2
2 2 2
2 2 2
2 2 2
2 2 2
2 2 2
2 2 2
2 2 2
2 2 2
2 2 2
2 2 2
0 0 0
0 0 0
2 2 2
2 2 2
2 2 2
2 2 2
2 2 2
2 2 2
2 2 2
2 2 2
2 2 2
2 2 2
2 2 2
2 2 2
1 1 1
1 1 1
1 1 1
2 2 2
2 2 2
2 2 2
3 3 3
4 4 4
4 4 4
4 4 4
4 4 4
4 4 4
5 5 5
5 5 5
7 7 7
3 3 3
8 8 8
11 11 11
11 11 11
10 10 10
13 13 13
10 10 10
11 11 11
13 13 13
2 2 2
2 2 2
2 2 2
2 2 2
2 2 2
2 2 2
2 2 2
2 2 2
2 2 2
2 2 2
2 2 2
2 2 2
0 0 0
0 0 0
2 2 2
2 2 2
2 2 2
2 2 2
2 2 2
2 2 2
2 2 2
2 2 2
2 2 2
2 2 2
2 2 2
1 1 1
1 1 1
1 1 1
2 2 2
2 2 2
2 2 2
6 6 6
4 4 4
4 4 4
4 4 4
4 4 4
5 5 5
5 5 5
5 5 5
4 4 4
3 3 3
9 9 9
15 15 15
17 17 17
8 8 8
10 10 10
8 8 8
11 11 11
12 12 12
10 10 10
12 12 12
8 8 8
2 2 2
2 2 2
2 2 2
2 2 2
2 2 2
2 2 2
2 2 2
2 2 2
2 2 2
2 2 2
0 0 0
0 0 0
2 2 2
2 2 2
2 2 2
2 2 2
2 2 2
2 2 2
2 2 2
2 2 2
2 2 2
1 1 1
1 1 1
1 1 1
1 1 1
2 2 2
1 1 1
3 3 3
7 7 7
4 4 4
4 4 4
4 4 4
3 3 3
3 3 3
3 3 3
4 4 4
8 8 8
10 10 10
8 8 8
12 12 12
12 12 12
15 15 15
17 17 17
13 13 13
19 19 19
9 9 9
6 6 6
12 12 12
10 10 10
13 13 13
11 11 11
2 2 2
2 2 2
2 2 2
2 2 2
2 2 2
2 2 2
2 2 2
2 2 2
2 2 2
0 0 0
0 0 0
2 2 2
2 2 2
2 2 2
2 2 2
2 2 2
2 2 2
2 2 2
2 2 2
1 1 1
1 1 1
1 1 1
2 2 2
2 2 2
2 2 2
3 3 3
8 8 8
3 3 3
4 4 4
4 4 4
3 3 3
3 3 3
3 3 3
5 5 5
7 7 7
6 6 6
4 4 4
8 8 8
10 10 10
7 7 7
12 12 12
20 20 20
11 11 11
8 8 8
7 7 7
7 7 7
5 5 5
6 6 6
7 7 7
14 14 14
9 9 9
5 5 5
2 2 2
2 2 2
2 2 2
2 2 2
2 2 2
2 2 2
2 2 2
0 0 0
0 0 0
2 2 2
2 2 2
2 2 2
2 2 2
2 2 2
2 2 2
2 2 2
1 1 1
1 1 1
1 1 1
1 1 1
2 2 2
1 1 1
2 2 2
8 8 8
4 4 4
4 4 4
4 4 4
4 4 4
4 4 4
4 4 4
6 6 6
7 7 7
6 6 6
10 10 10
8 8 8
16 16 16
55 55 55
80 80 80
85 85 85
84 84 84
84 84 84
80 80 80
75 75 75
49 49 49
15 15 15
5 5 5
5 5 5
10 10 10
13 13 13
23 23 23
7 7 7
2 2 2
2 2 2
2 2 2
2 2 2
2 2 2
2 2 2
0 0 0
0 0 0
2 2 2
2 2 2
2 2 2
2 2 2
2 2 2
2 2 2
2 2 2
1 1 1
1 1 1
2 2 2
2 2 2
1 1 1
1 1 1
16 16 16
5 5 5
3 3 3
4 4 4
4 4 4
5 5 5
8 8 8
8 8 8
10 10 10
6 6 6
29 29 29
75 75 75
87 87 87
86 86 86
90 90 90
101 101 101
104 104 104
102 102 102
102 102 102
98 98 98
91 91 91
85 85 85
85 85 85
62 62 62
13 13 13
5 5 5
4 4 4
7 7 7
38 38 38
4 4 4
2 2 2
2 2 2
2 2 2
2 2 2
2 2 2
0 0 0
0 0 0
2 2 2
2 2 2
2 2 2
2 2 2
2 2 2
1 1 1
1 1 1
1 1 1
2 2 2
1 1 1
1 1 1
2 2 2
16 16 16
3 3 3
4 4 4
4 4 4
5 5 5
5 5 5
8 8 8
14 14 14
50 50 50
78 78 78
91 91 91
102 102 102
125 125 125
156 156 156
171 171 171
170 170 170
168 168 168
171 171 171
173 173 173
168 168 168
163 163 163
162 162 162
165 165 165
117 117 117
86 86 86
86 86 86
87 87 87
17 17 17
11 11 11
39 39 39
15 15 15
2 2 2
2 2 2
2 2 2
2 2 2
2 2 2
0 0 0
0 0 0
2 2 2
2 2 2
2 2 2
2 2 2
1 1 1
1 1 1
1 1 1
1 1 1
1 1 1
1 1 1
1 1 1
13 13 13
2 2 2
3 3 3
4 4 4
3 3 3
6 6 6
26 26 26
82 82 82
139 139 139
177 177 177
196 196 196
187 187 187
169 169 169
145 145 145
147 147 147
164 164 164
163 163 163
163 163 163
175 175 175
169 169 169
166 166 166
165 165 165
151 151 151
147 147 147
143 143 143
171 171 171
139 139 139
87 87 87
86 86 86
17 17 17
7 7 7
18 18 18
20 20 20
2 2 2
2 2 2
2 2 2
2 2 2
0 0 0
0 0 0
2 2 2
2 2 2
2 2 2
2 2 2
1 1 1
1 1 1
1 1 1
1 1 1
1 1 1
1 1 1
1 1 1
5 5 5
2 2 2
3 3 3
1 1 1
14 14 14
57 57 57
152 152 152
178 178 178
167 167 167
177 177 177
171 171 171
152 152 152
108 108 108
88 88 88
87 87 87
89 89 89
95 95 95
95 95 95
94 94 94
94 94 94
95 95 95
100 100 100
121 121 121
162 162 162
151 151 151
139 139 139
150 150 150
166 166 166
83 83 83
60 60 60
6 6 6
39 39 39
14 14 14
20 20 20
2 2 2
2 2 2
2 2 2
0 0 0
0 0 0
2 2 2
2 2 2
2 2 2
1 1 1
1 1 1
1 1 1
1 1 1
1 1 1
1 1 1
0 0 0
15 15 15
2 2 2
2 2 2
1 1 1
56 56 56
104 104 104
180 180 180
171 171 171
168 168 168
161 161 161
143 143 143
112 112 112
90 90 90
87 87 87
87 87 87
87 87 87
87 87 87
87 87 87
87 87 87
88 88 88
87 87 87
87 87 87
87 87 87
87 87 87
91 91 91
133 133 133
159 159 159
141 141 141
152 152 152
129 129 129
85 85 85
22 22 22
44 44 44
12 12 12
18 18 18
7 7 7
2 2 2
2 2 2
0 0 0
0 0 0
2 2 2
2 2 2
1 1 1
1 1 1
1 1 1
1 1 1
0 0 0
0 0 0
0 0 0
1 1 1
6 6 6
4 4 4
2 2 2
31 31 31
134 134 134
181 181 181
161 161 161
154 154 154
146 146 146
103 103 103
90 90 90
88 88 88
88 88 88
87 87 87
87 87 87
87 87 87
87 87 87
87 87 87
87 87 87
88 88 88
87 87 87
87 87 87
87 87 87
87 87 87
87 87 87
87 87 87
129 129 129
165 165 165
139 139 139
178 178 178
96 96 96
67 67 67
18 18 18
11 11 11
15 15 15
81 81 81
2 2 2
2 2 2
0 0 0
0 0 0
2 2 2
2 2 2
0 0 0
1 1 1
1 1 1
0 0 0
1 1 1
1 1 1
1 1 1
8 8 8
3 3 3
3 3 3
13 13 13
96 96 96
167 167 167
167 167 167
131 131 131
95 95 95
88 88 88
87 87 87
88 88 88
88 88 88
87 87 87
87 87 87
87 87 87
88 88 88
88 88 88
87 87 87
88 88 88
88 88 88
88 88 88
87 87 87
87 87 87
87 87 87
87 87 87
88 88 88
88 88 88
117 117 117
166 166 166
152 152 152
170 170 170
88 88 88
19 19 19
20 20 20
13 13 13
82 82 82
5 5 5
2 2 2
0 0 0
0 0 0
2 2 2
1 1 1
1 1 1
1 1 1
1 1 1
1 1 1
1 1 1
1 1 1
0 0 0
13 13 13
3 3 3
3 3 3
75 75 75
178 178 178
158 158 158
145 145 145
90 90 90
86 86 86
87 87 87
88 88 88
87 87 87
87 87 87
88 88 88
87 87 87
87 87 87
88 88 88
87 87 87
87 87 87
88 88 88
88 88 88
87 87 87
87 87 87
88 88 88
87 87 87
87 87 87
87 87 87
87 87 87
87 87 87
122 122 122
158 158 158
179 179 179
89 89 89
48 48 48
47 47 47
11 11 11
67 67 67
25 25 25
2 2 2
0 0 0
0 0 0
2 2 2
1 1 1
1 1 1
1 1 1
1 1 1
0 0 0
1 1 1
1 1 1
0 0 0
5 5 5
2 2 2
29 29 29
119 119 119
169 169 169
150 150 150
108 108 108
86 86 86
86 86 86
87 87 87
87 87 87
87 87 87
88 88 88
88 88 88
88 88 88
87 87 87
87 87 87
87 87 87
87 87 87
87 87 87
88 88 88
87 87 87
88 88 88
86 86 86
88 88 88
87 87 87
88 88 88
88 88 88
87 87 87
87 87 87
164 164 164
169 169 169
97 97 97
56 56 56
47 47 47
10 10 10
48 48 48
14 14 14
3 3 3
0 0 0
0 0 0
2 2 2
2 2 2
1 1 1
1 1 1
1 1 1
0 0 0
0 0 0
1 1 1
0 0 0
4 4 4
2 2 2
51 51 51
165 165 165
164 164 164
149 149 149
88 88 88
87 87 87
87 87 87
87 87 87
88 88 88
87 87 87
88 88 88
88 88 88
88 88 88
87 87 87
87 87 87
88 88 88
87 87 87
87 87 87
87 87 87
88 88 88
87 87 87
88 88 88
87 87 87
87 87 87
87 87 87
87 87 87
87 87 87
87 87 87
152 152 152
169 169 169
99 99 99
56 56 56
34 34 34
10 10 10
34 34 34
14 14 14
20 20 20
0 0 0
0 0 0
1 1 1
1 1 1
1 1 1
1 1 1
1 1 1
0 0 0
1 1 1
1 1 1
1 1 1
4 4 4
2 2 2
70 70 70
180 180 180
161 161 161
136 136 136
86 86 86
87 87 87
88 88 88
87 87 87
87 87 87
88 88 88
88 88 88
87 87 87
87 87 87
88 88 88
88 88 88
87 87 87
87 87 87
87 87 87
87 87 87
87 87 87
87 87 87
87 87 87
87 87 87
87 87 87
88 88 88
88 88 88
88 88 88
87 87 87
138 138 138
161 161 161
97 97 97
57 57 57
28 28 28
9 9 9
24 24 24
14 14 14
21 21 21
0 0 0
0 0 0
1 1 1
1 1 1
1 1 1
1 1 1
1 1 1
1 1 1
1 1 1
1 1 1
2 2 2
7 7 7
2 2 2
74 74 74
175 175 175
181 181 181
109 109 109
87 87 87
87 87 87
87 87 87
88 88 88
87 87 87
88 88 88
88 88 88
87 87 87
87 87 87
87 87 87
87 87 87
87 87 87
87 87 87
87 87 87
87 87 87
87 87 87
88 88 88
87 87 87
87 87 87
88 88 88
87 87 87
88 88 88
88 88 88
88 88 88
113 113 113
179 179 179
95 95 95
67 67 67
22 22 22
11 11 11
18 18 18
14 14 14
16 16 16
0 0 0
0 0 0
1 1 1
1 1 1
1 1 1
1 1 1
1 1 1
1 1 1
1 1 1
1 1 1
1 1 1
6 6 6
2 2 2
78 78 78
177 177 177
165 165 165
86 86 86
86 86 86
87 87 87
87 87 87
87 87 87
86 86 86
86 86 86
87 87 87
87 87 87
87 87 87
87 87 87
87 87 87
87 87 87
87 87 87
86 86 86
87 87 87
87 87 87
87 87 87
86 86 86
87 87 87
88 88 88
87 87 87
88 88 88
87 87 87
88 88 88
138 138 138
162 162 162
113 113 113
66 66 66
17 17 17
21 21 21
14 14 14
16 16 16
14 14 14
0 0 0
0 0 0
1 1 1
0 0 0
1 1 1
1 1 1
1 1 1
1 1 1
1 1 1
2 2 2
1 1 1
8 8 8
2 2 2
79 79 79
170 170 170
175 175 175
139 139 139
86 86 86
87 87 87
88 88 88
88 88 88
87 87 87
88 88 88
88 88 88
87 87 87
87 87 87
87 87 87
87 87 87
87 87 87
87 87 87
87 87 87
87 87 87
88 88 88
87 87 87
87 87 87
87 87 87
88 88 88
88 88 88
88 88 88
88 88 88
87 87 87
111 111 111
165 165 165
136 136 136
66 66 66
25 25 25
37 37 37
11 11 11
18 18 18
15 15 15
0 0 0
0 0 0
1 1 1
1 1 1
1 1 1
1 1 1
1 1 1
1 1 1
1 1 1
2 2 2
1 1 1
16 16 16
0 0 0
76 76 76
175 175 175
171 171 171
146 146 146
86 86 86
88 88 88
88 88 88
88 88 88
88 88 88
88 88 88
87 87 87
87 87 87
87 87 87
87 87 87
87 87 87
88 88 88
87 87 87
88 88 88
87 87 87
88 88 88
87 87 87
88 88 88
87 87 87
88 88 88
87 87 87
87 87 87
87 87 87
87 87 87
138 138 138
157 157 157
144 144 144
62 62 62
25 25 25
51 51 51
11 11 11
18 18 18
15 15 15
0 0 0
0 0 0
1 1 1
1 1 1
1 1 1
1 1 1
0 0 0
1 1 1
1 1 1
2 2 2
1 1 1
27 27 27
0 0 0
73 73 73
179 179 179
171 171 171
137 137 137
86 86 86
87 87 87
88 88 88
88 88 88
88 88 88
88 88 88
88 88 88
87 87 87
88 88 88
87 87 87
88 88 88
88 88 88
88 88 88
87 87 87
87 87 87
87 87 87
87 87 87
88 88 88
88 88 88
88 88 88
88 88 88
88 88 88
87 87 87
87 87 87
165 165 165
157 157 157
158 158 158
55 55 55
27 27 27
54 54 54
12 12 12
19 19 19
14 14 14
0 0 0
0 0 0
1 1 1
1 1 1
1 1 1
1 1 1
0 0 0
0 0 0
1 1 1
2 2 2
1 1 1
30 30 30
0 0 0
49 49 49
182 182 182
165 165 165
106 106 106
86 86 86
87 87 87
87 87 87
88 88 88
88 88 88
88 88 88
88 88 88
88 88 88
88 88 88
88 88 88
88 88 88
88 88 88
88 88 88
88 88 88
88 88 88
88 88 88
88 88 88
88 88 88
88 88 88
88 88 88
88 88 88
87 87 87
87 87 87
93 93 93
161 161 161
160 160 160
130 130 130
44 44 44
25 25 25
56 56 56
13 13 13
19 19 19
12 12 12
0 0 0
0 0 0
1 1 1
1 1 1
1 1 1
1 1 1
1 1 1
0 0 0
0 0 0
1 1 1
1 1 1
29 29 29
3 3 3
5 5 5
97 97 97
168 168 168
127 127 127
91 91 91
88 88 88
88 88 88
88 88 88
88 88 88
87 87 87
87 87 87
88 88 88
88 88 88
88 88 88
88 88 88
88 88 88
88 88 88
88 88 88
88 88 88
87 87 87
87 87 87
87 87 87
88 88 88
88 88 88
88 88 88
88 88 88
89 89 89
145 145 145
150 150 150
189 189 189
82 82 82
33 33 33
25 25 25
56 56 56
14 14 14
19 19 19
12 12 12
0 0 0
0 0 0
1 1 1
1 1 1
1 1 1
1 1 1
1 1 1
1 1 1
0 0 0
0 0 0
1 1 1
19 19 19
6 6 6
2 2 2
57 57 57
185 185 185
159 159 159
155 155 155
113 113 113
90 90 90
88 88 88
88 88 88
88 88 88
87 87 87
88 88 88
88 88 88
88 88 88
88 88 88
88 88 88
88 88 88
88 88 88
88 88 88
88 88 88
88 88 88
88 88 88
88 88 88
88 88 88
87 87 87
88 88 88
139 139 139
157 157 157
157 157 157
140 140 140
61 61 61
40 40 40
18 18 18
47 47 47
13 13 13
18 18 18
14 14 14
0 0 0
0 0 0
1 1 1
1 1 1
1 1 1
1 1 1
1 1 1
1 1 1
0 0 0
0 0 0
1 1 1
10 10 10
12 12 12
5 5 5
2 2 2
79 79 79
179 179 179
166 166 166
147 147 147
130 130 130
112 112 112
88 88 88
88 88 88
88 88 88
88 88 88
88 88 88
88 88 88
88 88 88
88 88 88
88 88 88
88 88 88
88 88 88
88 88 88
88 88 88
88 88 88
88 88 88
87 87 87
87 87 87
134 134 134
156 156 156
153 153 153
183 183 183
83 83 83
38 38 38
23 23 23
21 21 21
28 28 28
12 12 12
18 18 18
15 15 15
0 0 0
0 0 0
1 1 1
1 1 1
0 0 0
1 1 1
1 1 1
1 1 1
1 1 1
0 0 0
2 2 2
3 3 3
20 20 20
5 5 5
2 2 2
8 8 8
109 109 109
190 190 190
167 167 167
146 146 146
141 141 141
127 127 127
91 91 91
88 88 88
88 88 88
89 89 89
88 88 88
88 88 88
88 88 88
88 88 88
88 88 88
88 88 88
88 88 88
88 88 88
87 87 87
87 87 87
89 89 89
129 129 129
160 160 160
144 144 144
176 176 176
88 88 88
64 64 64
31 31 31
18 18 18
12 12 12
16 16 16
13 13 13
14 14 14
14 14 14
0 0 0
0 0 0
1 1 1
1 1 1
1 1 1
1 1 1
1 1 1
0 0 0
0 0 0
0 0 0
2 2 2
3 3 3
27 27 27
8 8 8
4 4 4
0 0 0
17 17 17
90 90 90
188 188 188
167 167 167
170 170 170
159 159 159
153 153 153
134 134 134
93 93 93
87 87 87
88 88 88
88 88 88
89 89 89
89 89 89
89 89 89
89 89 89
89 89 89
91 91 91
94 94 94
104 104 104
148 148 148
158 158 158
144 144 144
174 174 174
111 111 111
80 80 80
15 15 15
13 13 13
10 10 10
18 18 18
11 11 11
14 14 14
13 13 13
14 14 14
0 0 0
0 0 0
1 1 1
2 2 2
1 1 1
1 1 1
1 1 1
1 1 1
1 1 1
1 1 1
1 1 1
1 1 1
0 0 0
26 26 26
5 5 5
2 2 2
1 1 1
0 0 0
22 22 22
101 101 101
188 188 188
173 173 173
167 167 167
168 168 168
161 161 161
139 139 139
120 120 120
129 129 129
152 152 152
161 161 161
163 163 163
161 161 161
166 166 166
168 168 168
168 168 168
171 171 171
160 160 160
163 163 163
162 162 162
88 88 88
84 84 84
4 4 4
5 5 5
16 16 16
14 14 14
32 32 32
8 8 8
20 20 20
11 11 11
14 14 14
0 0 0
0 0 0
1 1 1
1 1 1
1 1 1
1 1 1
1 1 1
1 1 1
1 1 1
1 1 1
1 1 1
2 2 2
1 1 1
5 5 5
20 20 20
3 3 3
3 3 3
2 2 2
2 2 2
1 1 1
19 19 19
79 79 79
133 133 133
178 178 178
194 194 194
179 179 179
171 171 171
161 161 161
161 161 161
163 163 163
169 169 169
176 176 176
174 174 174
162 162 162
158 158 158
178 178 178
179 179 179
113 113 113
82 82 82
55 55 55
3 3 3
8 8 8
13 13 13
13 13 13
5 5 5
41 41 41
8 8 8
28 28 28
12 12 12
18 18 18
0 0 0
0 0 0
2 2 2
1 1 1
1 1 1
2 2 2
2 2 2
1 1 1
1 1 1
1 1 1
2 2 2
1 1 1
2 2 2
2 2 2
10 10 10
9 9 9
5 5 5
5 5 5
4 4 4
5 5 5
4 4 4
2 2 2
8 8 8
13 13 13
36 36 36
69 69 69
95 95 95
121 121 121
139 139 139
156 156 156
174 174 174
175 175 175
159 159 159
140 140 140
117 117 117
93 93 93
70 70 70
41 41 41
7 7 7
13 13 13
17 17 17
9 9 9
4 4 4
17 17 17
5 5 5
26 26 26
7 7 7
42 42 42
13 13 13
28 28 28
0 0 0
0 0 0
2 2 2
1 1 1
2 2 2
1 1 1
1 1 1
1 1 1
1 1 1
1 1 1
1 1 1
2 2 2
1 1 1
2 2 2
1 1 1
16 16 16
5 5 5
5 5 5
5 5 5
4 4 4
4 4 4
4 4 4
3 3 3
2 2 2
3 3 3
3 3 3
5 5 5
6 6 6
10 10 10
21 21 21
36 36 36
41 41 41
38 38 38
29 29 29
25 25 25
19 19 19
15 15 15
20 20 20
17 17 17
8 8 8
11 11 11
13 13 13
10 10 10
18 18 18
25 25 25
9 9 9
8 8 8
60 60 60
12 12 12
2 2 2
0 0 0
0 0 0
2 2 2
1 1 1
1 1 1
1 1 1
1 1 1
2 2 2
1 1 1
1 1 1
2 2 2
2 2 2
1 1 1
1 1 1
2 2 2
2 2 2
29 29 29
5 5 5
4 4 4
5 5 5
4 4 4
4 4 4
4 4 4
3 3 3
3 3 3
3 3 3
5 5 5
9 9 9
13 13 13
12 12 12
14 14 14
18 18 18
14 14 14
7 7 7
7 7 7
8 8 8
6 6 6
6 6 6
24 24 24
29 29 29
10 10 10
19 19 19
9 9 9
19 19 19
39 39 39
6 6 6
9 9 9
77 77 77
21 21 21
2 2 2
0 0 0
0 0 0
2 2 2
2 2 2
1 1 1
1 1 1
2 2 2
1 1 1
2 2 2
1 1 1
2 2 2
1 1 1
1 1 1
1 1 1
2 2 2
2 2 2
2 2 2
22 22 22
5 5 5
4 4 4
5 5 5
5 5 5
5 5 5
4 4 4
3 3 3
4 4 4
4 4 4
5 5 5
5 5 5
4 4 4
4 4 4
4 4 4
5 5 5
4 4 4
4 4 4
7 7 7
7 7 7
5 5 5
6 6 6
14 14 14
25 25 25
16 16 16
20 20 20
28 28 28
52 52 52
5 5 5
11 11 11
75 75 75
8 8 8
2 2 2
0 0 0
0 0 0
2 2 2
2 2 2
1 1 1
2 2 2
1 1 1
1 1 1
1 1 1
1 1 1
2 2 2
1 1 1
1 1 1
1 1 1
2 2 2
2 2 2
3 3 3
3 3 3
23 23 23
5 5 5
4 4 4
5 5 5
5 5 5
5 5 5
5 5 5
5 5 5
5 5 5
5 5 5
5 5 5
5 5 5
5 5 5
5 5 5
5 5 5
5 5 5
6 6 6
5 5 5
5 5 5
5 5 5
5 5 5
15 15 15
17 17 17
17 17 17
11 11 11
18 18 18
47 47 47
7 7 7
14 14 14
62 62 62
2 2 2
2 2 2
0 0 0
0 0 0
2 2 2
2 2 2
2 2 2
1 1 1
1 1 1
2 2 2
1 1 1
1 1 1
1 1 1
1 1 1
1 1 1
1 1 1
1 1 1
2 2 2
2 2 2
3 3 3
3 3 3
22 22 22
6 6 6
5 5 5
5 5 5
5 5 5
5 5 5
5 5 5
4 4 4
5 5 5
4 4 4
5 5 5
5 5 5
4 4 4
5 5 5
5 5 5
5 5 5
5 5 5
6 6 6
6 6 6
6 6 6
6 6 6
15 15 15
27 27 27
16 16 16
18 18 18
35 35 35
9 9 9
17 17 17
10 10 10
2 2 2
2 2 2
0 0 0
0 0 0
2 2 2
2 2 2
2 2 2
2 2 2
1 1 1
1 1 1
1 1 1
1 1 1
2 2 2
1 1 1
1 1 1
1 1 1
2 2 2
2 2 2
2 2 2
2 2 2
3 3 3
3 3 3
18 18 18
5 5 5
4 4 4
4 4 4
5 5 5
4 4 4
5 5 5
4 4 4
4 4 4
5 5 5
5 5 5
5 5 5
4 4 4
5 5 5
5 5 5
5 5 5
6 6 6
9 9 9
7 7 7
5 5 5
21 21 21
30 30 30
24 24 24
27 27 27
22 22 22
13 13 13
35 35 35
2 2 2
2 2 2
2 2 2
0 0 0
0 0 0
2 2 2
2 2 2
2 2 2
2 2 2
1 1 1
2 2 2
1 1 1
1 1 1
1 1 1
1 1 1
1 1 1
1 1 1
1 1 1
1 1 1
2 2 2
2 2 2
2 2 2
3 3 3
3 3 3
16 16 16
6 6 6
4 4 4
5 5 5
4 4 4
4 4 4
4 4 4
4 4 4
4 4 4
4 4 4
4 4 4
5 5 5
4 4 4
5 5 5
5 5 5
6 6 6
7 7 7
6 6 6
5 5 5
16 16 16
28 28 28
21 21 21
26 26 26
15 15 15
16 16 16
2 2 2
2 2 2
2 2 2
2 2 2
0 0 0
0 0 0
2 2 2
2 2 2
2 2 2
2 2 2
2 2 2
1 1 1
1 1 1
1 1 1
2 2 2
1 1 1
1 1 1
1 1 1
1 1 1
2 2 2
2 2 2
2 2 2
2 2 2
2 2 2
2 2 2
3 3 3
13 13 13
13 13 13
3 3 3
3 3 3
4 4 4
4 4 4
4 4 4
4 4 4
4 4 4
4 4 4
4 4 4
4 4 4
3 3 3
5 5 5
5 5 5
6 6 6
6 6 6
5 5 5
19 19 19
21 21 21
17 17 17
38 38 38
14 14 14
5 5 5
2 2 2
2 2 2
2 2 2
2 2 2
0 0 0
0 0 0
2 2 2
2 2 2
2 2 2
2 2 2
2 2 2
2 2 2
2 2 2
1 1 1
2 2 2
1 1 1
1 1 1
1 1 1
2 2 2
1 1 1
2 2 2
2 2 2
2 2 2
2 2 2
2 2 2
2 2 2
3 3 3
12 12 12
14 14 14
3 3 3
2 2 2
3 3 3
10 10 10
9 9 9
11 11 11
4 4 4
2 2 2
3 3 3
14 14 14
12 12 12
8 8 8
5 5 5
5 5 5
7 7 7
16 16 16
20 20 20
24 24 24
54 54 54
10 10 10
2 2 2
2 2 2
2 2 2
2 2 2
2 2 2
0 0 0
0 0 0
2 2 2
2 2 2
2 2 2
2 2 2
2 2 2
2 2 2
2 2 2
1 1 1
1 1 1
1 1 1
1 1 1
1 1 1
1 1 1
1 1 1
1 1 1
2 2 2
1 1 1
2 2 2
2 2 2
2 2 2
3 3 3
3 3 3
8 8 8
13 13 13
3 3 3
8 8 8
3 3 3
6 6 6
8 8 8
16 16 16
16 16 16
10 10 10
12 12 12
12 12 12
6 6 6
6 6 6
4 4 4
12 12 12
21 21 21
29 29 29
26 26 26
24 24 24
2 2 2
2 2 2
2 2 2
2 2 2
2 2 2
2 2 2
0 0 0
0 0 0
2 2 2
2 2 2
2 2 2
2 2 2
2 2 2
2 2 2
2 2 2
2 2 2
1 1 1
1 1 1
1 1 1
1 1 1
1 1 1
1 1 1
1 1 1
2 2 2
2 2 2
2 2 2
2 2 2
2 2 2
2 2 2
2 2 2
4 4 4
7 7 7
13 13 13
10 10 10
6 6 6
3 3 3
7 7 7
18 18 18
10 10 10
9 9 9
12 12 12
10 10 10
21 21 21
13 13 13
10 10 10
15 15 15
16 16 16
27 27 27
12 12 12
2 2 2
2 2 2
2 2 2
2 2 2
2 2 2
2 2 2
2 2 2
0 0 0
0 0 0
2 2 2
2 2 2
2 2 2
2 2 2
2 2 2
2 2 2
2 2 2
2 2 2
2 2 2
1 1 1
1 1 1
1 1 1
2 2 2
1 1 1
1 1 1
1 1 1
2 2 2
2 2 2
2 2 2
2 2 2
2 2 2
3 3 3
2 2 2
3 3 3
4 4 4
15 15 15
9 9 9
14 14 14
11 11 11
15 15 15
15 15 15
13 13 13
13 13 13
10 10 10
8 8 8
14 14 14
10 10 10
32 32 32
16 16 16
5 5 5
2 2 2
2 2 2
2 2 2
2 2 2
2 2 2
2 2 2
2 2 2
2 2 2
0 0 0
0 0 0
2 2 2
2 2 2
2 2 2
2 2 2
2 2 2
2 2 2
2 2 2
2 2 2
2 2 2
2 2 2
1 1 1
1 1 1
1 1 1
1 1 1
1 1 1
1 1 1
1 1 1
1 1 1
2 2 2
1 1 1
2 2 2
2 2 2
2 2 2
3 3 3
3 3 3
4 4 4
12 12 12
13 13 13
10 10 10
8 8 8
9 9 9
10 10 10
8 8 8
11 11 11
8 8 8
13 13 13
20 20 20
30 30 30
2 2 2
2 2 2
2 2 2
2 2 2
2 2 2
2 2 2
2 2 2
2 2 2
2 2 2
2 2 2
0 0 0
0 0 0
2 2 2
2 2 2
2 2 2
2 2 2
2 2 2
2 2 2
2 2 2
2 2 2
2 2 2
2 2 2
2 2 2
2 2 2
1 1 1
1 1 1
1 1 1
1 1 1
1 1 1
1 1 1
1 1 1
2 2 2
1 1 1
2 2 2
2 2 2
2 2 2
2 2 2
2 2 2
4 4 4
10 10 10
9 9 9
10 10 10
15 15 15
16 16 16
22 22 22
18 18 18
23 23 23
20 20 20
4 4 4
2 2 2
2 2 2
2 2 2
2 2 2
2 2 2
2 2 2
2 2 2
2 2 2
2 2 2
2 2 2
2 2 2
0 0 0
0 0 0
2 2 2
2 2 2
2 2 2
2 2 2
2 2 2
2 2 2
2 2 2
2 2 2
2 2 2
2 2 2
2 2 2
2 2 2
2 2 2
2 2 2
1 1 1
2 2 2
1 1 1
1 1 1
2 2 2
1 1 1
1 1 1
2 2 2
2 2 2
2 2 2
3 3 3
3 3 3
2 2 2
4 4 4
7 7 7
7 7 7
5 5 5
14 14 14
20 20 20
23 23 23
4 4 4
2 2 2
2 2 2
2 2 2
2 2 2
2 2 2
2 2 2
2 2 2
2 2 2
2 2 2
2 2 2
2 2 2
2 2 2
2 2 2
0 0 0
0 0 0
2 2 2
2 2 2
2 2 2
2 2 2
2 2 2
2 2 2
2 2 2
2 2 2
2 2 2
2 2 2
2 2 2
2 2 2
2 2 2
2 2 2
2 2 2
2 2 2
1 1 1
1 1 1
1 1 1
2 2 2
1 1 1
2 2 2
2 2 2
3 3 3
2 2 2
3 3 3
4 4 4
3 3 3
5 5 5
10 10 10
11 11 11
15 15 15
2 2 2
2 2 2
2 2 2
2 2 2
2 2 2
2 2 2
2 2 2
2 2 2
2 2 2
2 2 2
2 2 2
2 2 2
2 2 2
2 2 2
2 2 2
2 2 2
0 0 0
0 0 0
0 0 0
0 0 0
0 0 0
0 0 0
0 0 0
0 0 0
0 0 0
0 0 0
0 0 0
0 0 0
0 0 0
0 0 0
0 0 0
0 0 0
0 0 0
0 0 0
0 0 0
0 0 0
0 0 0
0 0 0
0 0 0
0 0 0
0 0 0
0 0 0
0 0 0
0 0 0
0 0 0
0 0 0
0 0 0
0 0 0
0 0 0
0 0 0
0 0 0
0 0 0
0 0 0
0 0 0
0 0 0
0 0 0
0 0 0
0 0 0
0 0 0
0 0 0
0 0 0
0 0 0
0 0 0
0 0 0
0 0 0
0 0 0
0 0 0
