P3 
50 50 
255
0 0 0
0 0 0
0 0 0
0 0 0
0 0 0
0 0 0
0 0 0
0 0 0
0 0 0
0 0 0
0 0 0
0 0 0
0 0 0
0 0 0
0 0 0
0 0 0
0 0 0
0 0 0
0 0 0
0 0 0
0 0 0
0 0 0
0 0 0
0 0 0
0 0 0
0 0 0
0 0 0
0 0 0
0 0 0
0 0 0
0 0 0
0 0 0
0 0 0
0 0 0
0 0 0
0 0 0
0 0 0
0 0 0
0 0 0
0 0 0
0 0 0
0 0 0
0 0 0
0 0 0
0 0 0
0 0 0
0 0 0
0 0 0
0 0 0
0 0 0
0 0 0
2 2 2
2 2 2
2 2 2
2 2 2
2 2 2
2 2 2
2 2 2
2 2 2
2 2 2
2 2 2
2 2 2
2 2 2
2 2 2
2 2 2
2 2 2
2 2 2
2 2 2
1 1 1
2 2 2
2 2 2
2 2 2
4 4 4
4 4 4
4 4 4
5 5 5
4 4 4
5 5 5
6 6 6
6 6 6
8 8 8
11 11 11
3 3 3
2 2 2
2 2 2
2 2 2
2 2 2
2 2 2
2 2 2
2 2 2
2 2 2
2 2 2
2 2 2
2 2 2
2 2 2
2 2 2
2 2 2
2 2 2
2 2 2
0 0 0
0 0 0
2 2 2
2 2 2
2 2 2
2 2 2
2 2 2
2 2 2
2 2 2
2 2 2
2 2 2
2 2 2
2 2 2
2 2 2
2 2 2
2 2 2
1 1 1
1 1 1
2 2 2
2 2 2
2 2 2
2 2 2
4 4 4
4 4 4
4 4 4
5 5 5
3 3 3
3 3 3
3 3 3
7 7 7
7 7 7
6 6 6
9 9 9
8 8 8
12 12 12
10 10 10
2 2 2
2 2 2
2 2 2
2 2 2
2 2 2
2 2 2
2 2 2
2 2 2
2 2 2
2 2 2
2 2 2
2 2 2
2 2 2
2 2 2
0 0 0
0 0 0
2 2 2
2 2 2
2 2 2
2 2 2
2 2 2
2 2 2
2 2 2
2 2 2
2 2 2
2 2 2
2 2 2
2 2 2
1 1 1
1 1 1
2 2 2
2 2 2
2 2 2
2 2 2
2 2 2
4 4 4
4 4 4
4 4 4
4 4 4
5 5 5
3 3 3
3 3 3
12 12 12
8 8 8
5 5 5
6 6 6
8 8 8
8 8 8
13 13 13
10 10 10
11 11 11
11 11 11
2 2 2
2 2 2
2 2 2
2 2 2
2 2 2
2 2 2
2 2 2
2 2 2
2 2 2
2 2 2
2 2 2
2 2 2
0 0 0
0 0 0
2 2 2
2 2 2
2 2 2
2 2 2
2 2 2
2 2 2
2 2 2
2 2 2
2 2 2
2 2 2
2 2 2
1 1 1
1 1 1
1 1 1
2 2 2
2 2 2
2 2 2
2 2 2
4 4 4
5 5 5
4 4 4
4 4 4
5 5 5
4 4 4
3 3 3
9 9 9
10 10 10
5 5 5
5 5 5
6 6 6
12 12 12
5 5 5
4 4 4
6 6 6
5 5 5
9 9 9
8 8 8
7 7 7
2 2 2
2 2 2
2 2 2
2 2 2
2 2 2
2 2 2
2 2 2
2 2 2
2 2 2
2 2 2
0 0 0
0 0 0
2 2 2
2 2 2
2 2 2
2 2 2
2 2 2
2 2 2
2 2 2
2 2 2
2 2 2
1 1 1
1 1 1
1 1 1
1 1 1
1 1 1
2 2 2
2 2 2
2 2 2
4 4 4
4 4 4
5 5 5
4 4 4
5 5 5
5 5 5
4 4 4
5 5 5
5 5 5
6 6 6
9 9 9
12 12 12
11 11 11
10 10 10
4 4 4
10 10 10
7 7 7
6 6 6
8 8 8
5 5 5
7 7 7
11 11 11
2 2 2
2 2 2
2 2 2
2 2 2
2 2 2
2 2 2
2 2 2
2 2 2
2 2 2
0 0 0
0 0 0
2 2 2
2 2 2
2 2 2
2 2 2
2 2 2
2 2 2
2 2 2
2 2 2
1 1 1
1 1 1
2 2 2
2 2 2
1 1 1
2 2 2
2 2 2
2 2 2
4 4 4
4 4 4
4 4 4
4 4 4
4 4 4
5 5 5
5 5 5
4 4 4
8 8 8
5 5 5
6 6 6
6 6 6
6 6 6
11 11 11
13 13 13
13 13 13
10 10 10
9 9 9
5 5 5
4 4 4
6 6 6
7 7 7
9 9 9
12 12 12
6 6 6
2 2 2
2 2 2
2 2 2
2 2 2
2 2 2
2 2 2
2 2 2
0 0 0
0 0 0
2 2 2
2 2 2
2 2 2
2 2 2
2 2 2
2 2 2
2 2 2
1 1 1
2 2 2
1 1 1
1 1 1
2 2 2
2 2 2
2 2 2
3 3 3
3 3 3
3 3 3
4 4 4
4 4 4
4 4 4
4 4 4
5 5 5
5 5 5
5 5 5
4 4 4
6 6 6
5 5 5
8 8 8
9 9 9
8 8 8
8 8 8
8 8 8
10 10 10
6 6 6
7 7 7
5 5 5
4 4 4
7 7 7
9 9 9
9 9 9
46 46 46
6 6 6
2 2 2
2 2 2
2 2 2
2 2 2
2 2 2
2 2 2
0 0 0
0 0 0
2 2 2
2 2 2
2 2 2
2 2 2
2 2 2
2 2 2
1 1 1
1 1 1
1 1 1
1 1 1
2 2 2
1 1 1
1 1 1
2 2 2
4 4 4
3 3 3
4 4 4
4 4 4
5 5 5
5 5 5
4 4 4
4 4 4
5 5 5
12 12 12
5 5 5
7 7 7
6 6 6
11 11 11
6 6 6
9 9 9
10 10 10
9 9 9
7 7 7
5 5 5
4 4 4
11 11 11
3 3 3
9 9 9
4 4 4
11 11 11
23 23 23
14 14 14
4 4 4
2 2 2
2 2 2
2 2 2
2 2 2
2 2 2
0 0 0
0 0 0
2 2 2
2 2 2
2 2 2
2 2 2
2 2 2
1 1 1
1 1 1
1 1 1
2 2 2
1 1 1
2 2 2
2 2 2
2 2 2
4 4 4
4 4 4
4 4 4
4 4 4
4 4 4
4 4 4
4 4 4
11 11 11
10 10 10
15 15 15
18 18 18
14 14 14
12 12 12
12 12 12
13 13 13
18 18 18
13 13 13
7 7 7
7 7 7
6 6 6
9 9 9
14 14 14
16 16 16
18 18 18
3 3 3
4 4 4
4 4 4
13 13 13
12 12 12
15 15 15
2 2 2
2 2 2
2 2 2
2 2 2
2 2 2
0 0 0
0 0 0
2 2 2
2 2 2
2 2 2
2 2 2
1 1 1
1 1 1
1 1 1
1 1 1
1 1 1
1 1 1
1 1 1
1 1 1
3 3 3
3 3 3
4 4 4
4 4 4
4 4 4
5 5 5
5 5 5
12 12 12
10 10 10
9 9 9
6 6 6
6 6 6
17 17 17
43 43 43
44 44 44
45 45 45
49 49 49
57 57 57
61 61 61
63 63 63
59 59 59
56 56 56
38 38 38
12 12 12
6 6 6
10 10 10
9 9 9
3 3 3
4 4 4
25 25 25
10 10 10
17 17 17
2 2 2
2 2 2
2 2 2
2 2 2
0 0 0
0 0 0
2 2 2
2 2 2
2 2 2
1 1 1
1 1 1
1 1 1
1 1 1
1 1 1
1 1 1
1 1 1
1 1 1
2 2 2
3 3 3
4 4 4
4 4 4
4 4 4
4 4 4
5 5 5
11 11 11
7 7 7
11 11 11
24 24 24
47 47 47
71 71 71
87 87 87
88 88 88
88 88 88
89 89 89
87 87 87
86 86 86
86 86 86
86 86 86
84 84 84
84 84 84
84 84 84
81 81 81
50 50 50
11 11 11
9 9 9
5 5 5
4 4 4
43 43 43
7 7 7
13 13 13
20 20 20
2 2 2
2 2 2
2 2 2
0 0 0
0 0 0
2 2 2
2 2 2
2 2 2
1 1 1
1 1 1
1 1 1
1 1 1
1 1 1
1 1 1
1 1 1
2 2 2
2 2 2
3 3 3
2 2 2
1 1 1
2 2 2
2 2 2
11 11 11
11 11 11
57 57 57
81 81 81
89 89 89
94 94 94
105 105 105
129 129 129
149 149 149
166 166 166
173 173 173
172 172 172
167 167 167
163 163 163
161 161 161
149 149 149
121 121 121
90 90 90
81 81 81
81 81 81
42 42 42
8 8 8
8 8 8
5 5 5
38 38 38
5 5 5
11 11 11
16 16 16
6 6 6
2 2 2
2 2 2
0 0 0
0 0 0
2 2 2
2 2 2
2 2 2
1 1 1
1 1 1
1 1 1
1 1 1
1 1 1
1 1 1
1 1 1
3 3 3
2 2 2
3 3 3
1 1 1
1 1 1
1 1 1
4 4 4
42 42 42
81 81 81
98 98 98
133 133 133
170 170 170
186 186 186
190 190 190
202 202 202
171 171 171
168 168 168
171 171 171
169 169 169
170 170 170
170 170 170
171 171 171
163 163 163
154 154 154
154 154 154
120 120 120
87 87 87
81 81 81
43 43 43
12 12 12
18 18 18
15 15 15
7 7 7
9 9 9
13 13 13
70 70 70
2 2 2
2 2 2
0 0 0
0 0 0
2 2 2
2 2 2
1 1 1
1 1 1
1 1 1
1 1 1
0 0 0
0 0 0
1 1 1
2 2 2
2 2 2
2 2 2
2 2 2
1 1 1
0 0 0
7 7 7
59 59 59
88 88 88
127 127 127
190 190 190
173 173 173
167 167 167
166 166 166
172 172 172
183 183 183
169 169 169
166 166 166
169 169 169
168 168 168
172 172 172
174 174 174
176 176 176
162 162 162
158 158 158
155 155 155
159 159 159
137 137 137
88 88 88
80 80 80
26 26 26
24 24 24
12 12 12
26 26 26
9 9 9
11 11 11
77 77 77
5 5 5
2 2 2
0 0 0
0 0 0
2 2 2
1 1 1
1 1 1
1 1 1
1 1 1
1 1 1
1 1 1
0 0 0
0 0 0
1 1 1
2 2 2
2 2 2
1 1 1
2 2 2
11 11 11
77 77 77
103 103 103
178 178 178
173 173 173
168 168 168
162 162 162
175 175 175
177 177 177
178 178 178
154 154 154
118 118 118
105 105 105
103 103 103
102 102 102
100 100 100
100 100 100
102 102 102
108 108 108
127 127 127
155 155 155
163 163 163
159 159 159
145 145 145
86 86 86
58 58 58
30 30 30
12 12 12
46 46 46
8 8 8
10 10 10
70 70 70
23 23 23
2 2 2
0 0 0
0 0 0
2 2 2
1 1 1
1 1 1
0 0 0
1 1 1
1 1 1
0 0 0
0 0 0
1 1 1
1 1 1
2 2 2
1 1 1
1 1 1
1 1 1
56 56 56
93 93 93
176 176 176
179 179 179
175 175 175
177 177 177
182 182 182
175 175 175
168 168 168
127 127 127
100 100 100
93 93 93
90 90 90
90 90 90
89 89 89
89 89 89
88 88 88
89 89 89
89 89 89
87 87 87
91 91 91
120 120 120
150 150 150
162 162 162
128 128 128
81 81 81
41 41 41
10 10 10
29 29 29
7 7 7
9 9 9
52 52 52
14 14 14
3 3 3
0 0 0
0 0 0
1 1 1
1 1 1
1 1 1
1 1 1
0 0 0
0 0 0
1 1 1
0 0 0
2 2 2
1 1 1
2 2 2
1 1 1
1 1 1
1 1 1
80 80 80
139 139 139
176 176 176
170 170 170
171 171 171
175 175 175
176 176 176
147 147 147
108 108 108
91 91 91
90 90 90
89 89 89
89 89 89
89 89 89
89 89 89
88 88 88
89 89 89
89 89 89
88 88 88
88 88 88
88 88 88
89 89 89
105 105 105
166 166 166
175 175 175
86 86 86
46 46 46
17 17 17
18 18 18
12 12 12
8 8 8
36 36 36
13 13 13
17 17 17
0 0 0
0 0 0
1 1 1
1 1 1
1 1 1
1 1 1
0 0 0
0 0 0
0 0 0
1 1 1
2 2 2
1 1 1
2 2 2
1 1 1
1 1 1
2 2 2
90 90 90
180 180 180
180 180 180
184 184 184
178 178 178
170 170 170
106 106 106
90 90 90
90 90 90
90 90 90
88 88 88
88 88 88
88 88 88
88 88 88
88 88 88
89 89 89
88 88 88
88 88 88
89 89 89
88 88 88
87 87 87
88 88 88
139 139 139
184 184 184
181 181 181
86 86 86
32 32 32
26 26 26
9 9 9
25 25 25
7 7 7
25 25 25
13 13 13
19 19 19
0 0 0
0 0 0
1 1 1
1 1 1
1 1 1
1 1 1
1 1 1
0 0 0
1 1 1
2 2 2
2 2 2
1 1 1
1 1 1
1 1 1
1 1 1
8 8 8
101 101 101
181 181 181
183 183 183
177 177 177
125 125 125
90 90 90
88 88 88
89 89 89
89 89 89
89 89 89
88 88 88
88 88 88
88 88 88
89 89 89
89 89 89
89 89 89
89 89 89
88 88 88
89 89 89
88 88 88
88 88 88
92 92 92
172 172 172
195 195 195
186 186 186
89 89 89
46 46 46
22 22 22
13 13 13
42 42 42
9 9 9
19 19 19
14 14 14
14 14 14
0 0 0
0 0 0
1 1 1
1 1 1
1 1 1
1 1 1
1 1 1
0 0 0
0 0 0
0 0 0
1 1 1
1 1 1
0 0 0
0 0 0
0 0 0
30 30 30
120 120 120
170 170 170
152 152 152
93 93 93
89 89 89
88 88 88
89 89 89
89 89 89
89 89 89
90 90 90
89 89 89
89 89 89
90 90 90
89 89 89
89 89 89
89 89 89
89 89 89
89 89 89
89 89 89
90 90 90
92 92 92
113 113 113
171 171 171
175 175 175
189 189 189
90 90 90
40 40 40
19 19 19
14 14 14
38 38 38
9 9 9
15 15 15
14 14 14
13 13 13
0 0 0
0 0 0
1 1 1
1 1 1
1 1 1
0 0 0
0 0 0
1 1 1
1 1 1
0 0 0
0 0 0
0 0 0
0 0 0
0 0 0
0 0 0
32 32 32
127 127 127
178 178 178
187 187 187
164 164 164
130 130 130
89 89 89
89 89 89
90 90 90
90 90 90
90 90 90
90 90 90
89 89 89
88 88 88
88 88 88
89 89 89
89 89 89
88 88 88
89 89 89
88 88 88
88 88 88
88 88 88
92 92 92
129 129 129
176 176 176
190 190 190
90 90 90
46 46 46
16 16 16
19 19 19
23 23 23
8 8 8
12 12 12
16 16 16
14 14 14
0 0 0
0 0 0
1 1 1
1 1 1
1 1 1
1 1 1
0 0 0
0 0 0
0 0 0
1 1 1
0 0 0
0 0 0
0 0 0
0 0 0
0 0 0
22 22 22
116 116 116
178 178 178
176 176 176
188 188 188
173 173 173
138 138 138
90 90 90
90 90 90
90 90 90
89 89 89
90 90 90
90 90 90
88 88 88
89 89 89
90 90 90
89 89 89
89 89 89
89 89 89
89 89 89
89 89 89
88 88 88
89 89 89
105 105 105
181 181 181
188 188 188
89 89 89
50 50 50
15 15 15
18 18 18
20 20 20
8 8 8
11 11 11
16 16 16
13 13 13
0 0 0
0 0 0
1 1 1
1 1 1
1 1 1
0 0 0
0 0 0
0 0 0
0 0 0
1 1 1
1 1 1
0 0 0
0 0 0
0 0 0
0 0 0
8 8 8
96 96 96
179 179 179
177 177 177
184 184 184
177 177 177
174 174 174
112 112 112
92 92 92
90 90 90
91 91 91
91 91 91
90 90 90
90 90 90
90 90 90
90 90 90
90 90 90
90 90 90
89 89 89
89 89 89
90 90 90
89 89 89
90 90 90
129 129 129
180 180 180
170 170 170
85 85 85
42 42 42
16 16 16
21 21 21
16 16 16
8 8 8
11 11 11
17 17 17
13 13 13
0 0 0
0 0 0
1 1 1
1 1 1
0 0 0
0 0 0
1 1 1
1 1 1
1 1 1
2 2 2
2 2 2
2 2 2
0 0 0
0 0 0
0 0 0
4 4 4
82 82 82
171 171 171
185 185 185
180 180 180
181 181 181
181 181 181
172 172 172
146 146 146
108 108 108
94 94 94
91 91 91
91 91 91
91 91 91
91 91 91
91 91 91
91 91 91
92 92 92
93 93 93
95 95 95
100 100 100
118 118 118
157 157 157
181 181 181
183 183 183
112 112 112
78 78 78
28 28 28
13 13 13
30 30 30
22 22 22
8 8 8
10 10 10
17 17 17
12 12 12
0 0 0
0 0 0
1 1 1
1 1 1
1 1 1
1 1 1
1 1 1
1 1 1
1 1 1
2 2 2
2 2 2
2 2 2
2 2 2
1 1 1
0 0 0
0 0 0
47 47 47
99 99 99
193 193 193
184 184 184
174 174 174
181 181 181
185 185 185
174 174 174
168 168 168
156 156 156
106 106 106
102 102 102
103 103 103
108 108 108
109 109 109
127 127 127
143 143 143
150 150 150
157 157 157
174 174 174
172 172 172
166 166 166
174 174 174
140 140 140
85 85 85
30 30 30
23 23 23
22 22 22
28 28 28
14 14 14
9 9 9
10 10 10
16 16 16
11 11 11
0 0 0
0 0 0
1 1 1
1 1 1
1 1 1
1 1 1
1 1 1
1 1 1
1 1 1
2 2 2
2 2 2
2 2 2
2 2 2
2 2 2
2 2 2
0 0 0
4 4 4
55 55 55
116 116 116
190 190 190
177 177 177
166 166 166
167 167 167
177 177 177
180 180 180
172 172 172
163 163 163
164 164 164
161 161 161
172 172 172
173 173 173
174 174 174
179 179 179
175 175 175
177 177 177
169 169 169
167 167 167
173 173 173
158 158 158
90 90 90
70 70 70
20 20 20
19 19 19
14 14 14
24 24 24
20 20 20
8 8 8
10 10 10
17 17 17
13 13 13
0 0 0
0 0 0
1 1 1
1 1 1
1 1 1
0 0 0
1 1 1
1 1 1
2 2 2
2 2 2
2 2 2
2 2 2
2 2 2
2 2 2
1 1 1
1 1 1
0 0 0
2 2 2
44 44 44
103 103 103
179 179 179
179 179 179
164 164 164
166 166 166
177 177 177
178 178 178
176 176 176
160 160 160
175 175 175
176 176 176
168 168 168
171 171 171
166 166 166
165 165 165
172 172 172
168 168 168
178 178 178
149 149 149
87 87 87
76 76 76
17 17 17
18 18 18
7 7 7
10 10 10
17 17 17
25 25 25
7 7 7
10 10 10
15 15 15
13 13 13
0 0 0
0 0 0
1 1 1
1 1 1
0 0 0
1 1 1
1 1 1
1 1 1
2 2 2
2 2 2
2 2 2
3 3 3
3 3 3
2 2 2
2 2 2
1 1 1
1 1 1
0 0 0
2 2 2
18 18 18
76 76 76
144 144 144
188 188 188
186 186 186
187 187 187
199 199 199
175 175 175
177 177 177
173 173 173
177 177 177
173 173 173
172 172 172
171 171 171
172 172 172
179 179 179
150 150 150
102 102 102
81 81 81
68 68 68
15 15 15
7 7 7
12 12 12
5 5 5
9 9 9
9 9 9
40 40 40
9 9 9
12 12 12
13 13 13
14 14 14
0 0 0
0 0 0
1 1 1
1 1 1
1 1 1
1 1 1
1 1 1
1 1 1
0 0 0
1 1 1
2 2 2
3 3 3
4 4 4
3 3 3
3 3 3
3 3 3
2 2 2
2 2 2
2 2 2
4 4 4
5 5 5
33 33 33
74 74 74
103 103 103
126 126 126
146 146 146
162 162 162
166 166 166
160 160 160
150 150 150
130 130 130
117 117 117
106 106 106
100 100 100
91 91 91
82 82 82
75 75 75
40 40 40
6 6 6
4 4 4
19 19 19
12 12 12
21 21 21
5 5 5
4 4 4
48 48 48
8 8 8
15 15 15
12 12 12
14 14 14
0 0 0
0 0 0
1 1 1
1 1 1
1 1 1
1 1 1
1 1 1
1 1 1
1 1 1
1 1 1
1 1 1
1 1 1
0 0 0
3 3 3
3 3 3
3 3 3
3 3 3
2 2 2
3 3 3
3 3 3
4 4 4
5 5 5
4 4 4
5 5 5
9 9 9
21 21 21
40 40 40
54 54 54
62 62 62
60 60 60
52 52 52
46 46 46
43 43 43
33 33 33
23 23 23
14 14 14
4 4 4
4 4 4
4 4 4
10 10 10
12 12 12
10 10 10
3 3 3
19 19 19
14 14 14
40 40 40
7 7 7
21 21 21
10 10 10
14 14 14
0 0 0
0 0 0
1 1 1
1 1 1
1 1 1
1 1 1
1 1 1
1 1 1
1 1 1
0 0 0
1 1 1
1 1 1
1 1 1
1 1 1
3 3 3
3 3 3
3 3 3
4 4 4
4 4 4
4 4 4
4 4 4
7 7 7
9 9 9
8 8 8
5 5 5
5 5 5
4 4 4
6 6 6
4 4 4
4 4 4
4 4 4
6 6 6
6 6 6
6 6 6
12 12 12
13 13 13
12 12 12
21 21 21
18 18 18
6 6 6
5 5 5
14 14 14
19 19 19
12 12 12
14 14 14
27 27 27
7 7 7
29 29 29
11 11 11
17 17 17
0 0 0
0 0 0
2 2 2
1 1 1
0 0 0
1 1 1
1 1 1
1 1 1
1 1 1
1 1 1
1 1 1
1 1 1
1 1 1
1 1 1
1 1 1
3 3 3
4 4 4
4 4 4
4 4 4
5 5 5
4 4 4
5 5 5
5 5 5
6 6 6
13 13 13
10 10 10
4 4 4
5 5 5
5 5 5
4 4 4
4 4 4
6 6 6
4 4 4
4 4 4
8 8 8
9 9 9
19 19 19
9 9 9
6 6 6
4 4 4
5 5 5
16 16 16
10 10 10
23 23 23
13 13 13
17 17 17
8 8 8
43 43 43
13 13 13
26 26 26
0 0 0
0 0 0
2 2 2
1 1 1
1 1 1
2 2 2
1 1 1
1 1 1
1 1 1
1 1 1
1 1 1
1 1 1
1 1 1
2 2 2
2 2 2
2 2 2
4 4 4
4 4 4
4 4 4
5 5 5
5 5 5
5 5 5
6 6 6
6 6 6
6 6 6
5 5 5
9 9 9
10 10 10
8 8 8
9 9 9
11 11 11
13 13 13
10 10 10
7 7 7
4 4 4
4 4 4
6 6 6
17 17 17
18 18 18
11 11 11
5 5 5
10 10 10
4 4 4
26 26 26
15 15 15
9 9 9
9 9 9
60 60 60
13 13 13
2 2 2
0 0 0
0 0 0
2 2 2
1 1 1
1 1 1
1 1 1
1 1 1
1 1 1
1 1 1
1 1 1
1 1 1
1 1 1
1 1 1
2 2 2
2 2 2
2 2 2
2 2 2
3 3 3
4 4 4
4 4 4
5 5 5
5 5 5
5 5 5
6 6 6
6 6 6
6 6 6
6 6 6
4 4 4
4 4 4
4 4 4
3 3 3
5 5 5
4 4 4
4 4 4
8 8 8
7 7 7
3 3 3
9 9 9
13 13 13
9 9 9
10 10 10
9 9 9
16 16 16
13 13 13
48 48 48
7 7 7
9 9 9
76 76 76
22 22 22
2 2 2
0 0 0
0 0 0
2 2 2
2 2 2
1 1 1
1 1 1
1 1 1
1 1 1
1 1 1
1 1 1
2 2 2
2 2 2
2 2 2
2 2 2
2 2 2
2 2 2
2 2 2
2 2 2
3 3 3
4 4 4
5 5 5
5 5 5
5 5 5
5 5 5
6 6 6
6 6 6
5 5 5
5 5 5
4 4 4
4 4 4
5 5 5
5 5 5
4 4 4
4 4 4
4 4 4
5 5 5
5 5 5
3 3 3
9 9 9
9 9 9
10 10 10
19 19 19
22 22 22
19 19 19
24 24 24
7 7 7
11 11 11
75 75 75
8 8 8
2 2 2
0 0 0
0 0 0
2 2 2
2 2 2
1 1 1
1 1 1
1 1 1
1 1 1
1 1 1
2 2 2
1 1 1
1 1 1
2 2 2
2 2 2
2 2 2
2 2 2
2 2 2
2 2 2
3 3 3
3 3 3
4 4 4
5 5 5
5 5 5
5 5 5
5 5 5
5 5 5
5 5 5
5 5 5
5 5 5
4 4 4
5 5 5
4 4 4
5 5 5
5 5 5
4 4 4
5 5 5
5 5 5
5 5 5
9 9 9
7 7 7
8 8 8
16 16 16
20 20 20
32 32 32
6 6 6
8 8 8
14 14 14
61 61 61
2 2 2
2 2 2
0 0 0
0 0 0
2 2 2
2 2 2
2 2 2
1 1 1
1 1 1
2 2 2
1 1 1
1 1 1
1 1 1
2 2 2
2 2 2
2 2 2
2 2 2
2 2 2
2 2 2
2 2 2
2 2 2
2 2 2
3 3 3
4 4 4
5 5 5
4 4 4
5 5 5
5 5 5
5 5 5
5 5 5
5 5 5
5 5 5
5 5 5
4 4 4
5 5 5
5 5 5
4 4 4
4 4 4
5 5 5
5 5 5
7 7 7
4 4 4
22 22 22
16 16 16
26 26 26
43 43 43
5 5 5
10 10 10
16 16 16
9 9 9
2 2 2
2 2 2
0 0 0
0 0 0
2 2 2
2 2 2
2 2 2
2 2 2
1 1 1
1 1 1
2 2 2
1 1 1
2 2 2
2 2 2
1 1 1
2 2 2
2 2 2
2 2 2
2 2 2
2 2 2
2 2 2
2 2 2
3 3 3
3 3 3
3 3 3
4 4 4
4 4 4
5 5 5
5 5 5
5 5 5
5 5 5
4 4 4
4 4 4
5 5 5
4 4 4
5 5 5
5 5 5
4 4 4
4 4 4
4 4 4
15 15 15
11 11 11
28 28 28
8 8 8
12 12 12
51 51 51
7 7 7
13 13 13
33 33 33
2 2 2
2 2 2
2 2 2
0 0 0
0 0 0
2 2 2
2 2 2
2 2 2
2 2 2
2 2 2
1 1 1
2 2 2
1 1 1
1 1 1
2 2 2
2 2 2
1 1 1
2 2 2
2 2 2
2 2 2
2 2 2
2 2 2
3 3 3
2 2 2
3 3 3
3 3 3
3 3 3
3 3 3
4 4 4
5 5 5
4 4 4
5 5 5
5 5 5
4 4 4
4 4 4
4 4 4
4 4 4
6 6 6
12 12 12
10 10 10
12 12 12
8 8 8
5 5 5
25 25 25
10 10 10
11 11 11
51 51 51
11 11 11
15 15 15
2 2 2
2 2 2
2 2 2
2 2 2
0 0 0
0 0 0
2 2 2
2 2 2
2 2 2
2 2 2
2 2 2
2 2 2
1 1 1
1 1 1
1 1 1
1 1 1
2 2 2
2 2 2
2 2 2
2 2 2
2 2 2
2 2 2
2 2 2
2 2 2
2 2 2
2 2 2
2 2 2
3 3 3
3 3 3
3 3 3
3 3 3
3 3 3
3 3 3
12 12 12
9 9 9
11 11 11
11 11 11
7 7 7
12 12 12
18 18 18
19 19 19
2 2 2
11 11 11
11 11 11
12 12 12
15 15 15
9 9 9
34 34 34
15 15 15
5 5 5
2 2 2
2 2 2
2 2 2
2 2 2
0 0 0
0 0 0
2 2 2
2 2 2
2 2 2
2 2 2
2 2 2
2 2 2
2 2 2
2 2 2
1 1 1
2 2 2
1 1 1
1 1 1
1 1 1
2 2 2
2 2 2
2 2 2
2 2 2
2 2 2
2 2 2
2 2 2
2 2 2
3 3 3
2 2 2
2 2 2
3 3 3
6 6 6
8 8 8
7 7 7
7 7 7
5 5 5
10 10 10
3 3 3
5 5 5
10 10 10
20 20 20
9 9 9
12 12 12
12 12 12
16 16 16
16 16 16
18 18 18
15 15 15
10 10 10
2 2 2
2 2 2
2 2 2
2 2 2
2 2 2
0 0 0
0 0 0
2 2 2
2 2 2
2 2 2
2 2 2
2 2 2
2 2 2
2 2 2
2 2 2
1 1 1
1 1 1
2 2 2
1 1 1
1 1 1
2 2 2
2 2 2
2 2 2
2 2 2
2 2 2
2 2 2
2 2 2
2 2 2
2 2 2
2 2 2
2 2 2
6 6 6
3 3 3
5 5 5
5 5 5
10 10 10
15 15 15
6 6 6
6 6 6
17 17 17
10 10 10
20 20 20
5 5 5
13 13 13
23 23 23
12 12 12
13 13 13
52 52 52
17 17 17
2 2 2
2 2 2
2 2 2
2 2 2
2 2 2
2 2 2
0 0 0
0 0 0
2 2 2
2 2 2
2 2 2
2 2 2
2 2 2
2 2 2
2 2 2
2 2 2
1 1 1
1 1 1
1 1 1
1 1 1
2 2 2
2 2 2
2 2 2
2 2 2
2 2 2
2 2 2
2 2 2
2 2 2
2 2 2
2 2 2
2 2 2
2 2 2
2 2 2
9 9 9
6 6 6
3 3 3
5 5 5
7 7 7
20 20 20
14 14 14
9 9 9
17 17 17
7 7 7
4 4 4
16 16 16
25 25 25
20 20 20
13 13 13
15 15 15
2 2 2
2 2 2
2 2 2
2 2 2
2 2 2
2 2 2
2 2 2
0 0 0
0 0 0
2 2 2
2 2 2
2 2 2
2 2 2
2 2 2
2 2 2
2 2 2
2 2 2
2 2 2
1 1 1
1 1 1
1 1 1
1 1 1
2 2 2
1 1 1
1 1 1
2 2 2
2 2 2
2 2 2
2 2 2
2 2 2
2 2 2
2 2 2
2 2 2
2 2 2
3 3 3
3 3 3
4 4 4
6 6 6
3 3 3
10 10 10
9 9 9
4 4 4
14 14 14
16 16 16
10 10 10
18 18 18
31 31 31
27 27 27
4 4 4
2 2 2
2 2 2
2 2 2
2 2 2
2 2 2
2 2 2
2 2 2
2 2 2
0 0 0
0 0 0
2 2 2
2 2 2
2 2 2
2 2 2
2 2 2
2 2 2
2 2 2
2 2 2
2 2 2
2 2 2
1 1 1
1 1 1
1 1 1
2 2 2
1 1 1
2 2 2
1 1 1
1 1 1
2 2 2
2 2 2
2 2 2
2 2 2
2 2 2
2 2 2
2 2 2
3 3 3
3 3 3
3 3 3
8 8 8
10 10 10
11 11 11
15 15 15
17 17 17
16 16 16
21 21 21
5 5 5
16 16 16
26 26 26
2 2 2
2 2 2
2 2 2
2 2 2
2 2 2
2 2 2
2 2 2
2 2 2
2 2 2
2 2 2
0 0 0
0 0 0
2 2 2
2 2 2
2 2 2
2 2 2
2 2 2
2 2 2
2 2 2
2 2 2
2 2 2
2 2 2
2 2 2
2 2 2
1 1 1
1 1 1
1 1 1
1 1 1
1 1 1
1 1 1
2 2 2
2 2 2
2 2 2
2 2 2
2 2 2
2 2 2
2 2 2
2 2 2
2 2 2
3 3 3
3 3 3
3 3 3
4 4 4
6 6 6
18 18 18
10 10 10
10 10 10
21 21 21
4 4 4
2 2 2
2 2 2
2 2 2
2 2 2
2 2 2
2 2 2
2 2 2
2 2 2
2 2 2
2 2 2
2 2 2
0 0 0
0 0 0
2 2 2
2 2 2
2 2 2
2 2 2
2 2 2
2 2 2
2 2 2
2 2 2
2 2 2
2 2 2
2 2 2
2 2 2
2 2 2
2 2 2
1 1 1
1 1 1
1 1 1
2 2 2
2 2 2
2 2 2
2 2 2
2 2 2
2 2 2
2 2 2
2 2 2
2 2 2
3 3 3
3 3 3
3 3 3
4 4 4
4 4 4
12 12 12
17 17 17
21 21 21
3 3 3
2 2 2
2 2 2
2 2 2
2 2 2
2 2 2
2 2 2
2 2 2
2 2 2
2 2 2
2 2 2
2 2 2
2 2 2
2 2 2
0 0 0
0 0 0
2 2 2
2 2 2
2 2 2
2 2 2
2 2 2
2 2 2
2 2 2
2 2 2
2 2 2
2 2 2
2 2 2
2 2 2
2 2 2
2 2 2
2 2 2
2 2 2
1 1 1
1 1 1
1 1 1
1 1 1
2 2 2
2 2 2
2 2 2
2 2 2
3 3 3
3 3 3
3 3 3
3 3 3
4 4 4
5 5 5
7 7 7
11 11 11
2 2 2
2 2 2
2 2 2
2 2 2
2 2 2
2 2 2
2 2 2
2 2 2
2 2 2
2 2 2
2 2 2
2 2 2
2 2 2
2 2 2
2 2 2
2 2 2
0 0 0
0 0 0
0 0 0
0 0 0
0 0 0
0 0 0
0 0 0
0 0 0
0 0 0
0 0 0
0 0 0
0 0 0
0 0 0
0 0 0
0 0 0
0 0 0
0 0 0
0 0 0
0 0 0
0 0 0
0 0 0
0 0 0
0 0 0
0 0 0
0 0 0
0 0 0
0 0 0
0 0 0
0 0 0
0 0 0
0 0 0
0 0 0
0 0 0
0 0 0
0 0 0
0 0 0
0 0 0
0 0 0
0 0 0
0 0 0
0 0 0
0 0 0
0 0 0
0 0 0
0 0 0
0 0 0
0 0 0
0 0 0
0 0 0
0 0 0
0 0 0
