P3 
50 50 
255
0 0 0
0 0 0
0 0 0
0 0 0
0 0 0
0 0 0
0 0 0
0 0 0
0 0 0
0 0 0
0 0 0
0 0 0
0 0 0
0 0 0
0 0 0
0 0 0
0 0 0
0 0 0
0 0 0
0 0 0
0 0 0
0 0 0
0 0 0
0 0 0
0 0 0
0 0 0
0 0 0
0 0 0
0 0 0
0 0 0
0 0 0
0 0 0
0 0 0
0 0 0
0 0 0
0 0 0
0 0 0
0 0 0
0 0 0
0 0 0
0 0 0
0 0 0
0 0 0
0 0 0
0 0 0
0 0 0
0 0 0
0 0 0
0 0 0
0 0 0
0 0 0
2 2 2
2 2 2
2 2 2
2 2 2
2 2 2
2 2 2
2 2 2
2 2 2
2 2 2
2 2 2
2 2 2
2 2 2
2 2 2
2 2 2
2 2 2
2 2 2
2 2 2
0 0 0
2 2 2
13 13 13
4 4 4
4 4 4
3 3 3
4 4 4
4 4 4
4 4 4
5 5 5
5 5 5
11 11 11
10 10 10
9 9 9
4 4 4
2 2 2
2 2 2
2 2 2
2 2 2
2 2 2
2 2 2
2 2 2
2 2 2
2 2 2
2 2 2
2 2 2
2 2 2
2 2 2
2 2 2
2 2 2
2 2 2
0 0 0
0 0 0
2 2 2
2 2 2
2 2 2
2 2 2
2 2 2
2 2 2
2 2 2
2 2 2
2 2 2
2 2 2
2 2 2
2 2 2
2 2 2
2 2 2
1 1 1
1 1 1
0 0 0
1 1 1
16 16 16
4 4 4
3 3 3
3 3 3
3 3 3
3 3 3
4 4 4
4 4 4
4 4 4
7 7 7
5 5 5
7 7 7
13 13 13
17 17 17
18 18 18
19 19 19
2 2 2
2 2 2
2 2 2
2 2 2
2 2 2
2 2 2
2 2 2
2 2 2
2 2 2
2 2 2
2 2 2
2 2 2
2 2 2
2 2 2
0 0 0
0 0 0
2 2 2
2 2 2
2 2 2
2 2 2
2 2 2
2 2 2
2 2 2
2 2 2
2 2 2
2 2 2
2 2 2
2 2 2
1 1 1
1 1 1
1 1 1
2 2 2
2 2 2
15 15 15
4 4 4
4 4 4
4 4 4
3 3 3
2 2 2
3 3 3
3 3 3
4 4 4
13 13 13
17 17 17
8 8 8
8 8 8
10 10 10
17 17 17
16 16 16
16 16 16
13 13 13
16 16 16
2 2 2
2 2 2
2 2 2
2 2 2
2 2 2
2 2 2
2 2 2
2 2 2
2 2 2
2 2 2
2 2 2
2 2 2
0 0 0
0 0 0
2 2 2
2 2 2
2 2 2
2 2 2
2 2 2
2 2 2
2 2 2
2 2 2
2 2 2
2 2 2
2 2 2
1 1 1
1 1 1
1 1 1
1 1 1
4 4 4
9 9 9
4 4 4
3 3 3
4 4 4
4 4 4
3 3 3
2 2 2
3 3 3
13 13 13
12 12 12
6 6 6
10 10 10
10 10 10
12 12 12
18 18 18
18 18 18
24 24 24
19 19 19
15 15 15
10 10 10
18 18 18
8 8 8
2 2 2
2 2 2
2 2 2
2 2 2
2 2 2
2 2 2
2 2 2
2 2 2
2 2 2
2 2 2
0 0 0
0 0 0
2 2 2
2 2 2
2 2 2
2 2 2
2 2 2
2 2 2
2 2 2
2 2 2
2 2 2
1 1 1
1 1 1
2 2 2
2 2 2
2 2 2
11 11 11
4 4 4
4 4 4
4 4 4
4 4 4
5 5 5
5 5 5
3 3 3
7 7 7
6 6 6
6 6 6
14 14 14
21 21 21
52 52 52
81 81 81
85 85 85
83 83 83
82 82 82
81 81 81
81 81 81
70 70 70
20 20 20
17 17 17
12 12 12
18 18 18
2 2 2
2 2 2
2 2 2
2 2 2
2 2 2
2 2 2
2 2 2
2 2 2
2 2 2
0 0 0
0 0 0
2 2 2
2 2 2
2 2 2
2 2 2
2 2 2
2 2 2
2 2 2
2 2 2
1 1 1
1 1 1
2 2 2
2 2 2
2 2 2
3 3 3
4 4 4
4 4 4
4 4 4
5 5 5
5 5 5
4 4 4
4 4 4
21 21 21
4 4 4
22 22 22
77 77 77
87 87 87
95 95 95
135 135 135
178 178 178
174 174 174
169 169 169
165 165 165
158 158 158
175 175 175
182 182 182
110 110 110
78 78 78
15 15 15
13 13 13
13 13 13
4 4 4
2 2 2
2 2 2
2 2 2
2 2 2
2 2 2
2 2 2
2 2 2
0 0 0
0 0 0
2 2 2
2 2 2
2 2 2
2 2 2
2 2 2
2 2 2
2 2 2
1 1 1
1 1 1
2 2 2
2 2 2
1 1 1
1 1 1
10 10 10
4 4 4
5 5 5
5 5 5
4 4 4
4 4 4
13 13 13
33 33 33
70 70 70
87 87 87
99 99 99
153 153 153
165 165 165
170 170 170
167 167 167
164 164 164
124 124 124
105 105 105
93 93 93
111 111 111
162 162 162
147 147 147
159 159 159
181 181 181
129 129 129
65 65 65
13 13 13
17 17 17
11 11 11
2 2 2
2 2 2
2 2 2
2 2 2
2 2 2
2 2 2
0 0 0
0 0 0
2 2 2
2 2 2
2 2 2
2 2 2
2 2 2
2 2 2
1 1 1
1 1 1
2 2 2
2 2 2
1 1 1
2 2 2
17 17 17
4 4 4
4 4 4
4 4 4
3 3 3
25 25 25
73 73 73
88 88 88
103 103 103
135 135 135
152 152 152
151 151 151
164 164 164
103 103 103
89 89 89
86 86 86
86 86 86
86 86 86
86 86 86
87 87 87
87 87 87
87 87 87
90 90 90
140 140 140
159 159 159
155 155 155
191 191 191
85 85 85
20 20 20
31 31 31
5 5 5
2 2 2
2 2 2
2 2 2
2 2 2
2 2 2
0 0 0
0 0 0
2 2 2
2 2 2
2 2 2
2 2 2
2 2 2
1 1 1
1 1 1
1 1 1
2 2 2
1 1 1
3 3 3
18 18 18
5 5 5
4 4 4
4 4 4
21 21 21
85 85 85
103 103 103
158 158 158
155 155 155
118 118 118
109 109 109
95 95 95
103 103 103
87 87 87
87 87 87
87 87 87
87 87 87
87 87 87
87 87 87
87 87 87
88 88 88
87 87 87
88 88 88
87 87 87
87 87 87
99 99 99
163 163 163
156 156 156
191 191 191
77 77 77
13 13 13
40 40 40
2 2 2
2 2 2
2 2 2
2 2 2
2 2 2
0 0 0
0 0 0
2 2 2
2 2 2
2 2 2
2 2 2
1 1 1
1 1 1
1 1 1
1 1 1
0 0 0
3 3 3
18 18 18
5 5 5
2 2 2
9 9 9
83 83 83
153 153 153
162 162 162
104 104 104
86 86 86
85 85 85
86 86 86
86 86 86
86 86 86
87 87 87
86 86 86
87 87 87
87 87 87
87 87 87
87 87 87
88 88 88
87 87 87
87 87 87
87 87 87
88 88 88
87 87 87
87 87 87
88 88 88
88 88 88
147 147 147
162 162 162
186 186 186
88 88 88
31 31 31
22 22 22
2 2 2
2 2 2
2 2 2
2 2 2
0 0 0
0 0 0
2 2 2
2 2 2
2 2 2
2 2 2
1 1 1
0 0 0
1 1 1
1 1 1
1 1 1
19 19 19
5 5 5
23 23 23
77 77 77
91 91 91
185 185 185
95 95 95
88 88 88
85 85 85
86 86 86
86 86 86
86 86 86
87 87 87
86 86 86
86 86 86
87 87 87
87 87 87
87 87 87
87 87 87
87 87 87
87 87 87
87 87 87
87 87 87
87 87 87
87 87 87
88 88 88
87 87 87
87 87 87
87 87 87
88 88 88
172 172 172
158 158 158
194 194 194
75 75 75
43 43 43
23 23 23
2 2 2
2 2 2
2 2 2
0 0 0
0 0 0
2 2 2
2 2 2
2 2 2
1 1 1
1 1 1
0 0 0
0 0 0
0 0 0
2 2 2
13 13 13
30 30 30
80 80 80
202 202 202
142 142 142
89 89 89
85 85 85
85 85 85
85 85 85
86 86 86
86 86 86
87 87 87
86 86 86
86 86 86
87 87 87
86 86 86
86 86 86
87 87 87
87 87 87
87 87 87
87 87 87
87 87 87
86 86 86
88 88 88
87 87 87
88 88 88
88 88 88
87 87 87
88 88 88
87 87 87
96 96 96
174 174 174
159 159 159
116 116 116
35 35 35
20 20 20
7 7 7
2 2 2
2 2 2
0 0 0
0 0 0
2 2 2
2 2 2
1 1 1
1 1 1
0 0 0
0 0 0
1 1 1
1 1 1
9 9 9
4 4 4
83 83 83
158 158 158
137 137 137
137 137 137
84 84 84
86 86 86
86 86 86
86 86 86
86 86 86
86 86 86
86 86 86
86 86 86
87 87 87
87 87 87
86 86 86
87 87 87
87 87 87
87 87 87
87 87 87
87 87 87
87 87 87
87 87 87
87 87 87
87 87 87
88 88 88
87 87 87
88 88 88
88 88 88
87 87 87
88 88 88
128 128 128
158 158 158
186 186 186
52 52 52
19 19 19
89 89 89
2 2 2
2 2 2
0 0 0
0 0 0
2 2 2
2 2 2
1 1 1
1 1 1
1 1 1
0 0 0
0 0 0
2 2 2
9 9 9
41 41 41
90 90 90
186 186 186
146 146 146
106 106 106
85 85 85
85 85 85
86 86 86
86 86 86
86 86 86
86 86 86
86 86 86
87 87 87
86 86 86
87 87 87
87 87 87
87 87 87
87 87 87
87 87 87
86 86 86
86 86 86
87 87 87
87 87 87
87 87 87
87 87 87
88 88 88
88 88 88
87 87 87
88 88 88
88 88 88
88 88 88
88 88 88
166 166 166
172 172 172
86 86 86
20 20 20
83 83 83
5 5 5
2 2 2
0 0 0
0 0 0
2 2 2
1 1 1
1 1 1
1 1 1
0 0 0
1 1 1
3 3 3
5 5 5
7 7 7
80 80 80
182 182 182
72 72 72
144 144 144
87 87 87
86 86 86
86 86 86
86 86 86
86 86 86
86 86 86
86 86 86
87 87 87
86 86 86
87 87 87
87 87 87
87 87 87
87 87 87
87 87 87
87 87 87
87 87 87
87 87 87
87 87 87
86 86 86
87 87 87
87 87 87
87 87 87
87 87 87
88 88 88
88 88 88
87 87 87
88 88 88
88 88 88
111 111 111
173 173 173
86 86 86
37 37 37
65 65 65
27 27 27
2 2 2
0 0 0
0 0 0
2 2 2
1 1 1
1 1 1
1 1 1
3 3 3
3 3 3
3 3 3
5 5 5
8 8 8
83 83 83
184 184 184
14 14 14
162 162 162
86 86 86
86 86 86
86 86 86
86 86 86
86 86 86
86 86 86
85 85 85
86 86 86
87 87 87
87 87 87
87 87 87
87 87 87
87 87 87
86 86 86
87 87 87
87 87 87
86 86 86
86 86 86
86 86 86
87 87 87
87 87 87
86 86 86
87 87 87
88 88 88
87 87 87
88 88 88
87 87 87
88 88 88
97 97 97
168 168 168
88 88 88
52 52 52
46 46 46
17 17 17
3 3 3
0 0 0
0 0 0
2 2 2
1 1 1
1 1 1
1 1 1
2 2 2
4 4 4
3 3 3
5 5 5
10 10 10
97 97 97
81 81 81
0 0 0
122 122 122
87 87 87
86 86 86
86 86 86
86 86 86
87 87 87
86 86 86
85 85 85
85 85 85
86 86 86
86 86 86
87 87 87
87 87 87
87 87 87
87 87 87
86 86 86
86 86 86
85 85 85
85 85 85
87 87 87
87 87 87
87 87 87
87 87 87
87 87 87
88 88 88
88 88 88
88 88 88
87 87 87
87 87 87
99 99 99
163 163 163
99 99 99
52 52 52
32 32 32
16 16 16
20 20 20
0 0 0
0 0 0
1 1 1
1 1 1
1 1 1
1 1 1
1 1 1
2 2 2
5 5 5
3 3 3
19 19 19
156 156 156
12 12 12
34 34 34
98 98 98
87 87 87
87 87 87
86 86 86
86 86 86
86 86 86
87 87 87
86 86 86
85 85 85
85 85 85
86 86 86
86 86 86
86 86 86
85 85 85
86 86 86
85 85 85
85 85 85
85 85 85
86 86 86
87 87 87
87 87 87
87 87 87
87 87 87
87 87 87
88 88 88
88 88 88
87 87 87
87 87 87
88 88 88
103 103 103
160 160 160
106 106 106
49 49 49
25 25 25
16 16 16
21 21 21
0 0 0
0 0 0
2 2 2
1 1 1
2 2 2
1 1 1
1 1 1
1 1 1
3 3 3
3 3 3
66 66 66
184 184 184
1 1 1
61 61 61
87 87 87
86 86 86
86 86 86
86 86 86
86 86 86
86 86 86
86 86 86
86 86 86
87 87 87
85 85 85
85 85 85
85 85 85
85 85 85
85 85 85
85 85 85
86 86 86
85 85 85
85 85 85
87 87 87
87 87 87
88 88 88
87 87 87
87 87 87
87 87 87
87 87 87
88 88 88
87 87 87
88 88 88
88 88 88
95 95 95
169 169 169
111 111 111
41 41 41
24 24 24
15 15 15
15 15 15
0 0 0
0 0 0
2 2 2
1 1 1
1 1 1
2 2 2
1 1 1
1 1 1
2 2 2
1 1 1
76 76 76
183 183 183
28 28 28
143 143 143
88 88 88
87 87 87
86 86 86
86 86 86
86 86 86
86 86 86
86 86 86
86 86 86
87 87 87
86 86 86
86 86 86
86 86 86
86 86 86
86 86 86
86 86 86
87 87 87
86 86 86
86 86 86
86 86 86
87 87 87
87 87 87
87 87 87
87 87 87
87 87 87
87 87 87
88 88 88
87 87 87
88 88 88
87 87 87
93 93 93
167 167 167
116 116 116
44 44 44
28 28 28
17 17 17
15 15 15
0 0 0
0 0 0
1 1 1
1 1 1
1 1 1
2 2 2
2 2 2
1 1 1
2 2 2
1 1 1
78 78 78
109 109 109
1 1 1
80 80 80
88 88 88
87 87 87
86 86 86
86 86 86
86 86 86
86 86 86
86 86 86
87 87 87
86 86 86
85 85 85
86 86 86
85 85 85
85 85 85
86 86 86
86 86 86
85 85 85
85 85 85
85 85 85
87 87 87
87 87 87
87 87 87
87 87 87
87 87 87
87 87 87
88 88 88
88 88 88
88 88 88
88 88 88
88 88 88
88 88 88
168 168 168
119 119 119
45 45 45
33 33 33
19 19 19
15 15 15
0 0 0
0 0 0
1 1 1
1 1 1
1 1 1
1 1 1
2 2 2
1 1 1
2 2 2
0 0 0
73 73 73
120 120 120
1 1 1
42 42 42
89 89 89
87 87 87
87 87 87
87 87 87
87 87 87
86 86 86
86 86 86
86 86 86
85 85 85
87 87 87
87 87 87
87 87 87
87 87 87
87 87 87
87 87 87
87 87 87
87 87 87
85 85 85
85 85 85
87 87 87
87 87 87
87 87 87
87 87 87
87 87 87
87 87 87
88 88 88
87 87 87
88 88 88
88 88 88
88 88 88
167 167 167
98 98 98
49 49 49
39 39 39
19 19 19
16 16 16
0 0 0
0 0 0
1 1 1
1 1 1
1 1 1
1 1 1
2 2 2
1 1 1
2 2 2
1 1 1
52 52 52
175 175 175
3 3 3
5 5 5
141 141 141
87 87 87
87 87 87
87 87 87
87 87 87
86 86 86
87 87 87
86 86 86
86 86 86
87 87 87
87 87 87
88 88 88
87 87 87
87 87 87
87 87 87
87 87 87
87 87 87
87 87 87
86 86 86
86 86 86
87 87 87
87 87 87
87 87 87
88 88 88
88 88 88
88 88 88
88 88 88
88 88 88
88 88 88
93 93 93
166 166 166
94 94 94
47 47 47
47 47 47
21 21 21
15 15 15
0 0 0
0 0 0
1 1 1
1 1 1
1 1 1
1 1 1
1 1 1
1 1 1
2 2 2
1 1 1
12 12 12
104 104 104
75 75 75
0 0 0
79 79 79
90 90 90
86 86 86
86 86 86
87 87 87
86 86 86
86 86 86
86 86 86
86 86 86
87 87 87
87 87 87
88 88 88
88 88 88
87 87 87
87 87 87
87 87 87
87 87 87
87 87 87
87 87 87
87 87 87
87 87 87
87 87 87
87 87 87
87 87 87
88 88 88
87 87 87
88 88 88
88 88 88
88 88 88
117 117 117
167 167 167
95 95 95
44 44 44
44 44 44
20 20 20
13 13 13
0 0 0
0 0 0
1 1 1
1 1 1
0 0 0
1 1 1
0 0 0
1 1 1
0 0 0
1 1 1
0 0 0
86 86 86
187 187 187
63 63 63
18 18 18
122 122 122
86 86 86
86 86 86
86 86 86
87 87 87
87 87 87
87 87 87
87 87 87
87 87 87
87 87 87
87 87 87
88 88 88
87 87 87
86 86 86
87 87 87
87 87 87
87 87 87
87 87 87
87 87 87
87 87 87
87 87 87
87 87 87
88 88 88
88 88 88
87 87 87
87 87 87
88 88 88
87 87 87
170 170 170
178 178 178
84 84 84
41 41 41
40 40 40
21 21 21
13 13 13
0 0 0
0 0 0
1 1 1
1 1 1
0 0 0
0 0 0
0 0 0
0 0 0
0 0 0
1 1 1
0 0 0
75 75 75
126 126 126
156 156 156
76 76 76
152 152 152
85 85 85
86 86 86
86 86 86
87 87 87
87 87 87
86 86 86
86 86 86
87 87 87
86 86 86
87 87 87
87 87 87
86 86 86
87 87 87
87 87 87
87 87 87
87 87 87
88 88 88
87 87 87
87 87 87
87 87 87
88 88 88
88 88 88
87 87 87
87 87 87
88 88 88
88 88 88
117 117 117
161 161 161
194 194 194
62 62 62
42 42 42
34 34 34
20 20 20
15 15 15
0 0 0
0 0 0
2 2 2
0 0 0
1 1 1
1 1 1
0 0 0
0 0 0
0 0 0
0 0 0
0 0 0
21 21 21
87 87 87
210 210 210
131 131 131
149 149 149
86 86 86
86 86 86
87 87 87
87 87 87
87 87 87
87 87 87
86 86 86
87 87 87
86 86 86
87 87 87
86 86 86
86 86 86
86 86 86
87 87 87
87 87 87
87 87 87
87 87 87
87 87 87
87 87 87
87 87 87
87 87 87
87 87 87
88 88 88
88 88 88
87 87 87
89 89 89
174 174 174
166 166 166
116 116 116
47 47 47
38 38 38
28 28 28
18 18 18
15 15 15
0 0 0
0 0 0
2 2 2
1 1 1
1 1 1
2 2 2
1 1 1
0 0 0
0 0 0
1 1 1
0 0 0
0 0 0
48 48 48
110 110 110
186 186 186
142 142 142
89 89 89
86 86 86
87 87 87
86 86 86
87 87 87
87 87 87
87 87 87
86 86 86
87 87 87
87 87 87
86 86 86
86 86 86
86 86 86
87 87 87
87 87 87
88 88 88
87 87 87
88 88 88
88 88 88
87 87 87
88 88 88
88 88 88
88 88 88
87 87 87
87 87 87
153 153 153
166 166 166
188 188 188
65 65 65
46 46 46
48 48 48
24 24 24
16 16 16
14 14 14
0 0 0
0 0 0
1 1 1
1 1 1
2 2 2
2 2 2
3 3 3
2 2 2
2 2 2
1 1 1
1 1 1
1 1 1
1 1 1
67 67 67
144 144 144
183 183 183
169 169 169
92 92 92
87 87 87
87 87 87
86 86 86
87 87 87
87 87 87
87 87 87
87 87 87
87 87 87
87 87 87
86 86 86
86 86 86
87 87 87
87 87 87
87 87 87
88 88 88
88 88 88
87 87 87
88 88 88
87 87 87
87 87 87
87 87 87
88 88 88
98 98 98
162 162 162
185 185 185
86 86 86
36 36 36
36 36 36
43 43 43
20 20 20
14 14 14
16 16 16
0 0 0
0 0 0
1 1 1
2 2 2
3 3 3
3 3 3
3 3 3
3 3 3
3 3 3
2 2 2
3 3 3
4 4 4
3 3 3
2 2 2
14 14 14
55 55 55
85 85 85
140 140 140
157 157 157
132 132 132
87 87 87
87 87 87
87 87 87
86 86 86
87 87 87
87 87 87
87 87 87
86 86 86
86 86 86
87 87 87
87 87 87
87 87 87
87 87 87
87 87 87
87 87 87
87 87 87
87 87 87
87 87 87
88 88 88
134 134 134
164 164 164
187 187 187
86 86 86
31 31 31
34 34 34
38 38 38
55 55 55
22 22 22
12 12 12
15 15 15
0 0 0
0 0 0
1 1 1
3 3 3
3 3 3
3 3 3
2 2 2
2 2 2
3 3 3
3 3 3
3 3 3
3 3 3
3 3 3
3 3 3
3 3 3
0 0 0
3 3 3
53 53 53
88 88 88
118 118 118
165 165 165
118 118 118
100 100 100
94 94 94
102 102 102
92 92 92
88 88 88
86 86 86
86 86 86
87 87 87
87 87 87
87 87 87
87 87 87
87 87 87
86 86 86
88 88 88
87 87 87
95 95 95
156 156 156
174 174 174
182 182 182
86 86 86
33 33 33
12 12 12
15 15 15
19 19 19
24 24 24
29 29 29
13 13 13
18 18 18
0 0 0
0 0 0
2 2 2
3 3 3
3 3 3
3 3 3
3 3 3
3 3 3
3 3 3
3 3 3
4 4 4
4 4 4
3 3 3
3 3 3
3 3 3
3 3 3
2 2 2
2 2 2
0 0 0
17 17 17
80 80 80
101 101 101
161 161 161
149 149 149
150 150 150
161 161 161
167 167 167
160 160 160
156 156 156
122 122 122
105 105 105
97 97 97
96 96 96
88 88 88
87 87 87
89 89 89
158 158 158
167 167 167
170 170 170
168 168 168
85 85 85
29 29 29
14 14 14
19 19 19
14 14 14
22 22 22
11 11 11
43 43 43
14 14 14
27 27 27
0 0 0
0 0 0
2 2 2
2 2 2
2 2 2
3 3 3
2 2 2
3 3 3
3 3 3
3 3 3
4 4 4
3 3 3
3 3 3
4 4 4
4 4 4
3 3 3
3 3 3
3 3 3
3 3 3
3 3 3
0 0 0
6 6 6
54 54 54
87 87 87
105 105 105
167 167 167
180 180 180
173 173 173
164 164 164
167 167 167
173 173 173
174 174 174
164 164 164
169 169 169
168 168 168
174 174 174
178 178 178
184 184 184
88 88 88
74 74 74
16 16 16
12 12 12
11 11 11
23 23 23
17 17 17
24 24 24
9 9 9
61 61 61
13 13 13
2 2 2
0 0 0
0 0 0
2 2 2
1 1 1
2 2 2
0 0 0
1 1 1
2 2 2
1 1 1
2 2 2
3 3 3
3 3 3
4 4 4
4 4 4
4 4 4
3 3 3
3 3 3
3 3 3
3 3 3
5 5 5
5 5 5
3 3 3
2 2 2
2 2 2
3 3 3
28 28 28
70 70 70
89 89 89
103 103 103
118 118 118
137 137 137
154 154 154
156 156 156
139 139 139
126 126 126
93 93 93
79 79 79
45 45 45
7 7 7
18 18 18
20 20 20
27 27 27
26 26 26
21 21 21
21 21 21
37 37 37
8 8 8
78 78 78
22 22 22
2 2 2
0 0 0
0 0 0
2 2 2
2 2 2
1 1 1
2 2 2
1 1 1
1 1 1
1 1 1
2 2 2
2 2 2
1 1 1
3 3 3
4 4 4
4 4 4
3 3 3
3 3 3
3 3 3
4 4 4
4 4 4
5 5 5
4 4 4
4 4 4
4 4 4
4 4 4
3 3 3
11 11 11
11 11 11
17 17 17
14 14 14
6 6 6
4 4 4
3 3 3
2 2 2
2 2 2
1 1 1
5 5 5
10 10 10
11 11 11
22 22 22
23 23 23
24 24 24
23 23 23
22 22 22
29 29 29
41 41 41
10 10 10
77 77 77
9 9 9
2 2 2
0 0 0
0 0 0
2 2 2
2 2 2
1 1 1
1 1 1
1 1 1
1 1 1
1 1 1
1 1 1
1 1 1
1 1 1
2 2 2
2 2 2
2 2 2
4 4 4
3 3 3
3 3 3
4 4 4
4 4 4
4 4 4
4 4 4
4 4 4
5 5 5
4 4 4
3 3 3
4 4 4
4 4 4
5 5 5
5 5 5
4 4 4
3 3 3
3 3 3
3 3 3
3 3 3
4 4 4
5 5 5
4 4 4
13 13 13
24 24 24
32 32 32
25 25 25
20 20 20
21 21 21
28 28 28
17 17 17
14 14 14
63 63 63
2 2 2
2 2 2
0 0 0
0 0 0
2 2 2
2 2 2
2 2 2
1 1 1
1 1 1
1 1 1
1 1 1
2 2 2
2 2 2
1 1 1
1 1 1
1 1 1
1 1 1
2 2 2
3 3 3
4 4 4
4 4 4
4 4 4
4 4 4
5 5 5
5 5 5
4 4 4
5 5 5
3 3 3
3 3 3
4 4 4
5 5 5
5 5 5
4 4 4
6 6 6
4 4 4
4 4 4
3 3 3
5 5 5
6 6 6
5 5 5
14 14 14
16 16 16
32 32 32
36 36 36
17 17 17
18 18 18
24 24 24
11 11 11
17 17 17
10 10 10
2 2 2
2 2 2
0 0 0
0 0 0
2 2 2
2 2 2
2 2 2
1 1 1
2 2 2
1 1 1
1 1 1
1 1 1
2 2 2
1 1 1
1 1 1
1 1 1
2 2 2
1 1 1
1 1 1
2 2 2
3 3 3
4 4 4
3 3 3
4 4 4
5 5 5
5 5 5
5 5 5
4 4 4
3 3 3
4 4 4
4 4 4
5 5 5
4 4 4
5 5 5
5 5 5
5 5 5
5 5 5
5 5 5
7 7 7
8 8 8
11 11 11
19 19 19
28 28 28
30 30 30
28 28 28
28 28 28
45 45 45
15 15 15
38 38 38
2 2 2
2 2 2
2 2 2
0 0 0
0 0 0
2 2 2
2 2 2
2 2 2
2 2 2
1 1 1
1 1 1
1 1 1
1 1 1
2 2 2
1 1 1
2 2 2
1 1 1
1 1 1
1 1 1
1 1 1
2 2 2
2 2 2
3 3 3
4 4 4
3 3 3
4 4 4
4 4 4
5 5 5
4 4 4
5 5 5
4 4 4
4 4 4
4 4 4
4 4 4
5 5 5
5 5 5
5 5 5
5 5 5
5 5 5
6 6 6
6 6 6
6 6 6
22 22 22
28 28 28
30 30 30
19 19 19
17 17 17
47 47 47
16 16 16
2 2 2
2 2 2
2 2 2
2 2 2
0 0 0
0 0 0
2 2 2
2 2 2
2 2 2
2 2 2
2 2 2
1 1 1
1 1 1
1 1 1
2 2 2
1 1 1
1 1 1
1 1 1
2 2 2
2 2 2
2 2 2
2 2 2
1 1 1
2 2 2
2 2 2
3 3 3
4 4 4
4 4 4
4 4 4
4 4 4
4 4 4
5 5 5
4 4 4
4 4 4
5 5 5
4 4 4
4 4 4
5 5 5
4 4 4
12 12 12
5 5 5
6 6 6
19 19 19
28 28 28
31 31 31
26 26 26
15 15 15
34 34 34
18 18 18
6 6 6
2 2 2
2 2 2
2 2 2
2 2 2
0 0 0
0 0 0
2 2 2
2 2 2
2 2 2
2 2 2
2 2 2
2 2 2
2 2 2
1 1 1
2 2 2
1 1 1
2 2 2
1 1 1
2 2 2
2 2 2
2 2 2
1 1 1
2 2 2
2 2 2
1 1 1
2 2 2
2 2 2
4 4 4
4 4 4
4 4 4
4 4 4
4 4 4
5 5 5
5 5 5
5 5 5
4 4 4
4 4 4
8 8 8
10 10 10
12 12 12
11 11 11
20 20 20
35 35 35
30 30 30
33 33 33
28 28 28
24 24 24
58 58 58
11 11 11
2 2 2
2 2 2
2 2 2
2 2 2
2 2 2
0 0 0
0 0 0
2 2 2
2 2 2
2 2 2
2 2 2
2 2 2
2 2 2
2 2 2
2 2 2
2 2 2
1 1 1
2 2 2
1 1 1
1 1 1
1 1 1
1 1 1
1 1 1
1 1 1
1 1 1
1 1 1
2 2 2
2 2 2
2 2 2
3 3 3
3 3 3
3 3 3
4 4 4
4 4 4
4 4 4
3 3 3
7 7 7
7 7 7
11 11 11
14 14 14
17 17 17
31 31 31
29 29 29
26 26 26
25 25 25
26 26 26
37 37 37
34 34 34
37 37 37
2 2 2
2 2 2
2 2 2
2 2 2
2 2 2
2 2 2
0 0 0
0 0 0
2 2 2
2 2 2
2 2 2
2 2 2
2 2 2
2 2 2
2 2 2
2 2 2
1 1 1
1 1 1
1 1 1
1 1 1
2 2 2
1 1 1
2 2 2
1 1 1
1 1 1
1 1 1
2 2 2
2 2 2
2 2 2
2 2 2
2 2 2
2 2 2
3 3 3
2 2 2
3 3 3
3 3 3
4 4 4
9 9 9
13 13 13
3 3 3
6 6 6
7 7 7
12 12 12
18 18 18
21 21 21
23 23 23
25 25 25
39 39 39
16 16 16
2 2 2
2 2 2
2 2 2
2 2 2
2 2 2
2 2 2
2 2 2
0 0 0
0 0 0
2 2 2
2 2 2
2 2 2
2 2 2
2 2 2
2 2 2
2 2 2
2 2 2
2 2 2
1 1 1
1 1 1
1 1 1
1 1 1
1 1 1
2 2 2
1 1 1
2 2 2
2 2 2
1 1 1
2 2 2
2 2 2
2 2 2
2 2 2
2 2 2
3 3 3
3 3 3
4 4 4
8 8 8
3 3 3
13 13 13
11 11 11
8 8 8
11 11 11
12 12 12
11 11 11
23 23 23
15 15 15
13 13 13
34 34 34
6 6 6
2 2 2
2 2 2
2 2 2
2 2 2
2 2 2
2 2 2
2 2 2
2 2 2
0 0 0
0 0 0
2 2 2
2 2 2
2 2 2
2 2 2
2 2 2
2 2 2
2 2 2
2 2 2
2 2 2
2 2 2
1 1 1
1 1 1
1 1 1
1 1 1
1 1 1
1 1 1
1 1 1
1 1 1
0 0 0
1 1 1
1 1 1
1 1 1
2 2 2
2 2 2
2 2 2
2 2 2
8 8 8
2 2 2
6 6 6
4 4 4
6 6 6
12 12 12
17 17 17
14 14 14
5 5 5
16 16 16
15 15 15
26 26 26
2 2 2
2 2 2
2 2 2
2 2 2
2 2 2
2 2 2
2 2 2
2 2 2
2 2 2
2 2 2
0 0 0
0 0 0
2 2 2
2 2 2
2 2 2
2 2 2
2 2 2
2 2 2
2 2 2
2 2 2
2 2 2
2 2 2
2 2 2
2 2 2
1 1 1
1 1 1
1 1 1
1 1 1
1 1 1
1 1 1
2 2 2
1 1 1
2 2 2
1 1 1
2 2 2
2 2 2
2 2 2
3 3 3
6 6 6
9 9 9
6 6 6
4 4 4
15 15 15
20 20 20
19 19 19
17 17 17
16 16 16
17 17 17
5 5 5
2 2 2
2 2 2
2 2 2
2 2 2
2 2 2
2 2 2
2 2 2
2 2 2
2 2 2
2 2 2
2 2 2
0 0 0
0 0 0
2 2 2
2 2 2
2 2 2
2 2 2
2 2 2
2 2 2
2 2 2
2 2 2
2 2 2
2 2 2
2 2 2
2 2 2
2 2 2
2 2 2
0 0 0
1 1 1
1 1 1
1 1 1
2 2 2
1 1 1
1 1 1
2 2 2
2 2 2
2 2 2
2 2 2
2 2 2
3 3 3
3 3 3
3 3 3
8 8 8
11 11 11
19 19 19
9 9 9
29 29 29
5 5 5
2 2 2
2 2 2
2 2 2
2 2 2
2 2 2
2 2 2
2 2 2
2 2 2
2 2 2
2 2 2
2 2 2
2 2 2
2 2 2
0 0 0
0 0 0
2 2 2
2 2 2
2 2 2
2 2 2
2 2 2
2 2 2
2 2 2
2 2 2
2 2 2
2 2 2
2 2 2
2 2 2
2 2 2
2 2 2
2 2 2
2 2 2
1 1 1
1 1 1
1 1 1
1 1 1
2 2 2
1 1 1
2 2 2
3 3 3
3 3 3
3 3 3
3 3 3
4 4 4
5 5 5
8 8 8
15 15 15
22 22 22
2 2 2
2 2 2
2 2 2
2 2 2
2 2 2
2 2 2
2 2 2
2 2 2
2 2 2
2 2 2
2 2 2
2 2 2
2 2 2
2 2 2
2 2 2
2 2 2
0 0 0
0 0 0
0 0 0
0 0 0
0 0 0
0 0 0
0 0 0
0 0 0
0 0 0
0 0 0
0 0 0
0 0 0
0 0 0
0 0 0
0 0 0
0 0 0
0 0 0
0 0 0
0 0 0
0 0 0
0 0 0
0 0 0
0 0 0
0 0 0
0 0 0
0 0 0
0 0 0
0 0 0
0 0 0
0 0 0
0 0 0
0 0 0
0 0 0
0 0 0
0 0 0
0 0 0
0 0 0
0 0 0
0 0 0
0 0 0
0 0 0
0 0 0
0 0 0
0 0 0
0 0 0
0 0 0
0 0 0
0 0 0
0 0 0
0 0 0
0 0 0
