P3 
50 50 
255
0 0 0
0 0 0
0 0 0
0 0 0
0 0 0
0 0 0
0 0 0
0 0 0
0 0 0
0 0 0
0 0 0
0 0 0
0 0 0
0 0 0
0 0 0
0 0 0
0 0 0
0 0 0
0 0 0
0 0 0
0 0 0
0 0 0
0 0 0
0 0 0
0 0 0
0 0 0
0 0 0
0 0 0
0 0 0
0 0 0
0 0 0
0 0 0
0 0 0
0 0 0
0 0 0
0 0 0
0 0 0
0 0 0
0 0 0
0 0 0
0 0 0
0 0 0
0 0 0
0 0 0
0 0 0
0 0 0
0 0 0
0 0 0
0 0 0
0 0 0
0 0 0
2 2 2
2 2 2
2 2 2
2 2 2
2 2 2
2 2 2
2 2 2
2 2 2
2 2 2
2 2 2
2 2 2
2 2 2
2 2 2
2 2 2
2 2 2
2 2 2
2 2 2
1 1 1
1 1 1
1 1 1
1 1 1
2 2 2
6 6 6
4 4 4
3 3 3
3 3 3
2 2 2
4 4 4
4 4 4
6 6 6
6 6 6
3 3 3
2 2 2
2 2 2
2 2 2
2 2 2
2 2 2
2 2 2
2 2 2
2 2 2
2 2 2
2 2 2
2 2 2
2 2 2
2 2 2
2 2 2
2 2 2
2 2 2
0 0 0
0 0 0
2 2 2
2 2 2
2 2 2
2 2 2
2 2 2
2 2 2
2 2 2
2 2 2
2 2 2
2 2 2
2 2 2
2 2 2
2 2 2
2 2 2
1 1 1
1 1 1
1 1 1
1 1 1
2 2 2
2 2 2
2 2 2
14 14 14
3 3 3
3 3 3
2 2 2
1 1 1
4 4 4
11 11 11
12 12 12
7 7 7
13 13 13
7 7 7
5 5 5
12 12 12
2 2 2
2 2 2
2 2 2
2 2 2
2 2 2
2 2 2
2 2 2
2 2 2
2 2 2
2 2 2
2 2 2
2 2 2
2 2 2
2 2 2
0 0 0
0 0 0
2 2 2
2 2 2
2 2 2
2 2 2
2 2 2
2 2 2
2 2 2
2 2 2
2 2 2
2 2 2
2 2 2
2 2 2
1 1 1
1 1 1
1 1 1
1 1 1
1 1 1
2 2 2
1 1 1
2 2 2
13 13 13
3 3 3
3 3 3
4 4 4
2 2 2
2 2 2
8 8 8
4 4 4
11 11 11
6 6 6
9 9 9
11 11 11
9 9 9
8 8 8
6 6 6
22 22 22
2 2 2
2 2 2
2 2 2
2 2 2
2 2 2
2 2 2
2 2 2
2 2 2
2 2 2
2 2 2
2 2 2
2 2 2
0 0 0
0 0 0
2 2 2
2 2 2
2 2 2
2 2 2
2 2 2
2 2 2
2 2 2
2 2 2
2 2 2
2 2 2
2 2 2
1 1 1
0 0 0
1 1 1
1 1 1
2 2 2
2 2 2
1 1 1
3 3 3
14 14 14
3 3 3
3 3 3
4 4 4
4 4 4
2 2 2
4 4 4
8 8 8
10 10 10
3 3 3
8 8 8
4 4 4
12 12 12
5 5 5
7 7 7
13 13 13
15 15 15
11 11 11
7 7 7
2 2 2
2 2 2
2 2 2
2 2 2
2 2 2
2 2 2
2 2 2
2 2 2
2 2 2
2 2 2
0 0 0
0 0 0
2 2 2
2 2 2
2 2 2
2 2 2
2 2 2
2 2 2
2 2 2
2 2 2
2 2 2
1 1 1
1 1 1
1 1 1
1 1 1
1 1 1
1 1 1
1 1 1
2 2 2
3 3 3
12 12 12
2 2 2
2 2 2
3 3 3
3 3 3
9 9 9
4 4 4
11 11 11
10 10 10
7 7 7
2 2 2
7 7 7
7 7 7
10 10 10
14 14 14
20 20 20
10 10 10
15 15 15
5 5 5
8 8 8
11 11 11
2 2 2
2 2 2
2 2 2
2 2 2
2 2 2
2 2 2
2 2 2
2 2 2
2 2 2
0 0 0
0 0 0
2 2 2
2 2 2
2 2 2
2 2 2
2 2 2
2 2 2
2 2 2
2 2 2
1 1 1
1 1 1
1 1 1
1 1 1
2 2 2
1 1 1
2 2 2
2 2 2
8 8 8
11 11 11
2 2 2
8 8 8
11 11 11
13 13 13
7 7 7
15 15 15
6 6 6
9 9 9
12 12 12
10 10 10
14 14 14
7 7 7
8 8 8
7 7 7
4 4 4
7 7 7
8 8 8
11 11 11
15 15 15
13 13 13
14 14 14
10 10 10
4 4 4
2 2 2
2 2 2
2 2 2
2 2 2
2 2 2
2 2 2
2 2 2
0 0 0
0 0 0
2 2 2
2 2 2
2 2 2
2 2 2
2 2 2
2 2 2
2 2 2
1 1 1
1 1 1
1 1 1
1 1 1
2 2 2
1 1 1
1 1 1
2 2 2
10 10 10
5 5 5
6 6 6
3 3 3
7 7 7
5 5 5
9 9 9
16 16 16
1 1 1
10 10 10
1 1 1
7 7 7
9 9 9
3 3 3
9 9 9
2 2 2
4 4 4
11 11 11
3 3 3
3 3 3
4 4 4
13 13 13
12 12 12
9 9 9
7 7 7
12 12 12
7 7 7
2 2 2
2 2 2
2 2 2
2 2 2
2 2 2
2 2 2
0 0 0
0 0 0
2 2 2
2 2 2
2 2 2
2 2 2
2 2 2
2 2 2
2 2 2
1 1 1
2 2 2
1 1 1
1 1 1
1 1 1
1 1 1
5 5 5
13 13 13
3 3 3
2 2 2
2 2 2
4 4 4
6 6 6
2 2 2
3 3 3
8 8 8
7 7 7
11 11 11
4 4 4
11 11 11
5 5 5
8 8 8
1 1 1
9 9 9
4 4 4
7 7 7
6 6 6
3 3 3
6 6 6
11 11 11
6 6 6
4 4 4
6 6 6
8 8 8
47 47 47
4 4 4
2 2 2
2 2 2
2 2 2
2 2 2
2 2 2
0 0 0
0 0 0
2 2 2
2 2 2
2 2 2
2 2 2
2 2 2
1 1 1
1 1 1
2 2 2
1 1 1
1 1 1
2 2 2
2 2 2
13 13 13
7 7 7
2 2 2
1 1 1
1 1 1
3 3 3
2 2 2
3 3 3
16 16 16
60 60 60
74 74 74
71 71 71
2 2 2
3 3 3
1 1 1
7 7 7
8 8 8
15 15 15
13 13 13
8 8 8
6 6 6
7 7 7
14 14 14
8 8 8
4 4 4
4 4 4
4 4 4
4 4 4
6 6 6
15 15 15
17 17 17
2 2 2
2 2 2
2 2 2
2 2 2
2 2 2
0 0 0
0 0 0
2 2 2
2 2 2
2 2 2
2 2 2
2 2 2
1 1 1
1 1 1
1 1 1
1 1 1
2 2 2
3 3 3
2 2 2
6 6 6
25 25 25
75 75 75
78 78 78
77 77 77
79 79 79
81 81 81
82 82 82
81 81 81
84 84 84
84 84 84
85 85 85
88 88 88
84 84 84
81 81 81
80 80 80
19 19 19
3 3 3
7 7 7
8 8 8
5 5 5
9 9 9
14 14 14
11 11 11
7 7 7
7 7 7
11 11 11
10 10 10
7 7 7
6 6 6
29 29 29
19 19 19
2 2 2
2 2 2
2 2 2
2 2 2
0 0 0
0 0 0
2 2 2
2 2 2
2 2 2
2 2 2
2 2 2
2 2 2
1 1 1
2 2 2
2 2 2
3 3 3
2 2 2
6 6 6
76 76 76
77 77 77
78 78 78
82 82 82
86 86 86
88 88 88
87 87 87
90 90 90
79 79 79
84 84 84
85 85 85
84 84 84
87 87 87
87 87 87
87 87 87
89 89 89
87 87 87
55 55 55
4 4 4
5 5 5
7 7 7
10 10 10
9 9 9
3 3 3
3 3 3
8 8 8
10 10 10
8 8 8
12 12 12
8 8 8
40 40 40
14 14 14
18 18 18
2 2 2
2 2 2
2 2 2
0 0 0
0 0 0
2 2 2
2 2 2
2 2 2
2 2 2
1 1 1
2 2 2
2 2 2
2 2 2
2 2 2
2 2 2
2 2 2
78 78 78
77 77 77
81 81 81
85 85 85
85 85 85
96 96 96
149 149 149
154 154 154
139 139 139
85 85 85
88 88 88
84 84 84
85 85 85
85 85 85
80 80 80
81 81 81
88 88 88
88 88 88
89 89 89
84 84 84
26 26 26
15 15 15
6 6 6
13 13 13
11 11 11
8 8 8
6 6 6
11 11 11
8 8 8
4 4 4
5 5 5
36 36 36
11 11 11
15 15 15
5 5 5
2 2 2
2 2 2
0 0 0
0 0 0
2 2 2
2 2 2
2 2 2
2 2 2
2 2 2
2 2 2
2 2 2
2 2 2
2 2 2
1 1 1
52 52 52
77 77 77
84 84 84
86 86 86
143 143 143
147 147 147
107 107 107
150 150 150
97 97 97
83 83 83
84 84 84
87 87 87
88 88 88
88 88 88
82 82 82
80 80 80
79 79 79
88 88 88
88 88 88
88 88 88
87 87 87
83 83 83
26 26 26
10 10 10
4 4 4
18 18 18
4 4 4
11 11 11
7 7 7
4 4 4
4 4 4
4 4 4
25 25 25
7 7 7
13 13 13
85 85 85
2 2 2
2 2 2
0 0 0
0 0 0
2 2 2
2 2 2
2 2 2
2 2 2
2 2 2
2 2 2
2 2 2
3 3 3
2 2 2
18 18 18
81 81 81
86 86 86
82 82 82
192 192 192
80 80 80
79 79 79
119 119 119
84 84 84
82 82 82
83 83 83
87 87 87
88 88 88
89 89 89
82 82 82
85 85 85
85 85 85
83 83 83
85 85 85
81 81 81
87 87 87
88 88 88
83 83 83
83 83 83
11 11 11
9 9 9
10 10 10
13 13 13
17 17 17
9 9 9
3 3 3
4 4 4
4 4 4
12 12 12
8 8 8
10 10 10
63 63 63
5 5 5
2 2 2
0 0 0
0 0 0
2 2 2
2 2 2
2 2 2
2 2 2
2 2 2
2 2 2
3 3 3
1 1 1
15 15 15
85 85 85
84 84 84
88 88 88
131 131 131
107 107 107
118 118 118
147 147 147
86 86 86
87 87 87
83 83 83
86 86 86
87 87 87
88 88 88
87 87 87
88 88 88
88 88 88
89 89 89
85 85 85
85 85 85
84 84 84
83 83 83
87 87 87
88 88 88
82 82 82
57 57 57
27 27 27
8 8 8
9 9 9
10 10 10
8 8 8
7 7 7
12 12 12
5 5 5
5 5 5
14 14 14
9 9 9
39 39 39
22 22 22
2 2 2
0 0 0
0 0 0
2 2 2
1 1 1
1 1 1
2 2 2
2 2 2
3 3 3
1 1 1
24 24 24
82 82 82
86 86 86
90 90 90
137 137 137
123 123 123
99 99 99
169 169 169
88 88 88
87 87 87
86 86 86
87 87 87
84 84 84
87 87 87
87 87 87
88 88 88
95 95 95
89 89 89
87 87 87
86 86 86
87 87 87
84 84 84
85 85 85
88 88 88
88 88 88
89 89 89
85 85 85
84 84 84
38 38 38
15 15 15
4 4 4
7 7 7
14 14 14
9 9 9
7 7 7
12 12 12
36 36 36
7 7 7
25 25 25
15 15 15
3 3 3
0 0 0
0 0 0
2 2 2
1 1 1
1 1 1
2 2 2
2 2 2
2 2 2
20 20 20
85 85 85
89 89 89
149 149 149
135 135 135
99 99 99
149 149 149
125 125 125
88 88 88
88 88 88
87 87 87
88 88 88
87 87 87
88 88 88
87 87 87
87 87 87
117 117 117
107 107 107
100 100 100
97 97 97
86 86 86
87 87 87
88 88 88
82 82 82
86 86 86
88 88 88
88 88 88
88 88 88
86 86 86
85 85 85
18 18 18
9 9 9
8 8 8
5 5 5
13 13 13
13 13 13
12 12 12
45 45 45
7 7 7
17 17 17
16 16 16
18 18 18
0 0 0
0 0 0
1 1 1
1 1 1
0 0 0
2 2 2
3 3 3
10 10 10
85 85 85
92 92 92
179 179 179
200 200 200
109 109 109
136 136 136
85 85 85
86 86 86
86 86 86
86 86 86
86 86 86
88 88 88
52 52 52
46 46 46
88 88 88
87 87 87
126 126 126
108 108 108
121 121 121
117 117 117
114 114 114
86 86 86
88 88 88
84 84 84
84 84 84
88 88 88
88 88 88
88 88 88
89 89 89
82 82 82
33 33 33
5 5 5
18 18 18
14 14 14
4 4 4
14 14 14
10 10 10
27 27 27
10 10 10
12 12 12
18 18 18
19 19 19
0 0 0
0 0 0
1 1 1
0 0 0
1 1 1
2 2 2
2 2 2
60 60 60
88 88 88
183 183 183
164 164 164
150 150 150
97 97 97
85 85 85
83 83 83
87 87 87
85 85 85
87 87 87
87 87 87
88 88 88
52 52 52
69 69 69
88 88 88
88 88 88
133 133 133
119 119 119
136 136 136
136 136 136
158 158 158
94 94 94
87 87 87
88 88 88
80 80 80
81 81 81
85 85 85
88 88 88
88 88 88
82 82 82
54 54 54
11 11 11
11 11 11
8 8 8
15 15 15
14 14 14
14 14 14
19 19 19
9 9 9
10 10 10
22 22 22
14 14 14
0 0 0
0 0 0
2 2 2
1 1 1
0 0 0
2 2 2
1 1 1
83 83 83
94 94 94
185 185 185
171 171 171
84 84 84
85 85 85
87 87 87
88 88 88
87 87 87
86 86 86
87 87 87
88 88 88
90 90 90
7 7 7
11 11 11
88 88 88
126 126 126
107 107 107
119 119 119
88 88 88
85 85 85
86 86 86
153 153 153
86 86 86
88 88 88
83 83 83
79 79 79
78 78 78
88 88 88
88 88 88
79 79 79
53 53 53
15 15 15
11 11 11
3 3 3
3 3 3
10 10 10
14 14 14
25 25 25
7 7 7
10 10 10
27 27 27
12 12 12
0 0 0
0 0 0
1 1 1
1 1 1
1 1 1
1 1 1
0 0 0
86 86 86
91 91 91
210 210 210
104 104 104
86 86 86
87 87 87
88 88 88
88 88 88
85 85 85
87 87 87
87 87 87
88 88 88
90 90 90
2 2 2
0 0 0
86 86 86
115 115 115
102 102 102
142 142 142
85 85 85
86 86 86
85 85 85
133 133 133
111 111 111
88 88 88
88 88 88
82 82 82
82 82 82
85 85 85
90 90 90
81 81 81
68 68 68
12 12 12
11 11 11
5 5 5
6 6 6
13 13 13
11 11 11
40 40 40
7 7 7
9 9 9
31 31 31
13 13 13
0 0 0
0 0 0
1 1 1
1 1 1
1 1 1
0 0 0
0 0 0
83 83 83
93 93 93
198 198 198
113 113 113
84 84 84
87 87 87
88 88 88
88 88 88
87 87 87
87 87 87
87 87 87
88 88 88
89 89 89
38 38 38
19 19 19
88 88 88
117 117 117
106 106 106
127 127 127
84 84 84
85 85 85
86 86 86
125 125 125
97 97 97
108 108 108
106 106 106
77 77 77
79 79 79
83 83 83
88 88 88
80 80 80
61 61 61
6 6 6
15 15 15
12 12 12
15 15 15
11 11 11
10 10 10
41 41 41
8 8 8
8 8 8
34 34 34
14 14 14
0 0 0
0 0 0
1 1 1
1 1 1
0 0 0
2 2 2
0 0 0
84 84 84
88 88 88
167 167 167
207 207 207
84 84 84
84 84 84
83 83 83
87 87 87
86 86 86
87 87 87
87 87 87
87 87 87
87 87 87
82 82 82
89 89 89
88 88 88
119 119 119
125 125 125
132 132 132
87 87 87
85 85 85
142 142 142
116 116 116
100 100 100
111 111 111
88 88 88
78 78 78
83 83 83
88 88 88
89 89 89
81 81 81
30 30 30
12 12 12
12 12 12
13 13 13
15 15 15
14 14 14
5 5 5
26 26 26
7 7 7
8 8 8
37 37 37
12 12 12
0 0 0
0 0 0
1 1 1
0 0 0
0 0 0
1 1 1
2 2 2
31 31 31
86 86 86
154 154 154
208 208 208
148 148 148
105 105 105
85 85 85
83 83 83
87 87 87
87 87 87
87 87 87
87 87 87
87 87 87
85 85 85
88 88 88
87 87 87
118 118 118
88 88 88
139 139 139
163 163 163
162 162 162
120 120 120
88 88 88
88 88 88
88 88 88
85 85 85
78 78 78
87 87 87
88 88 88
89 89 89
82 82 82
24 24 24
15 15 15
7 7 7
13 13 13
17 17 17
16 16 16
5 5 5
19 19 19
8 8 8
7 7 7
37 37 37
11 11 11
0 0 0
0 0 0
1 1 1
1 1 1
1 1 1
1 1 1
2 2 2
1 1 1
31 31 31
80 80 80
87 87 87
121 121 121
124 124 124
97 97 97
168 168 168
117 117 117
87 87 87
86 86 86
87 87 87
88 88 88
88 88 88
86 86 86
86 86 86
113 113 113
98 98 98
115 115 115
111 111 111
90 90 90
88 88 88
88 88 88
88 88 88
86 86 86
85 85 85
85 85 85
88 88 88
89 89 89
82 82 82
86 86 86
32 32 32
9 9 9
16 16 16
13 13 13
11 11 11
14 14 14
13 13 13
20 20 20
8 8 8
8 8 8
35 35 35
12 12 12
0 0 0
0 0 0
1 1 1
1 1 1
1 1 1
0 0 0
1 1 1
1 1 1
0 0 0
21 21 21
80 80 80
86 86 86
93 93 93
134 134 134
175 175 175
215 215 215
177 177 177
93 93 93
87 87 87
87 87 87
87 87 87
87 87 87
87 87 87
87 87 87
85 85 85
87 87 87
89 89 89
89 89 89
88 88 88
88 88 88
86 86 86
83 83 83
87 87 87
88 88 88
89 89 89
88 88 88
79 79 79
72 72 72
9 9 9
10 10 10
9 9 9
14 14 14
16 16 16
10 10 10
10 10 10
28 28 28
8 8 8
7 7 7
34 34 34
12 12 12
0 0 0
0 0 0
1 1 1
2 2 2
1 1 1
1 1 1
1 1 1
1 1 1
1 1 1
0 0 0
4 4 4
79 79 79
88 88 88
88 88 88
134 134 134
190 190 190
97 97 97
161 161 161
89 89 89
86 86 86
85 85 85
84 84 84
88 88 88
89 89 89
89 89 89
90 90 90
89 89 89
82 82 82
83 83 83
83 83 83
85 85 85
85 85 85
88 88 88
89 89 89
89 89 89
84 84 84
80 80 80
10 10 10
6 6 6
22 22 22
8 8 8
6 6 6
3 3 3
9 9 9
8 8 8
40 40 40
8 8 8
9 9 9
31 31 31
14 14 14
0 0 0
0 0 0
1 1 1
1 1 1
2 2 2
1 1 1
1 1 1
1 1 1
1 1 1
1 1 1
0 0 0
5 5 5
77 77 77
78 78 78
84 84 84
174 174 174
82 82 82
84 84 84
136 136 136
88 88 88
86 86 86
83 83 83
86 86 86
88 88 88
89 89 89
89 89 89
86 86 86
89 89 89
82 82 82
85 85 85
88 88 88
89 89 89
90 90 90
88 88 88
84 84 84
68 68 68
2 2 2
9 9 9
5 5 5
10 10 10
5 5 5
3 3 3
3 3 3
11 11 11
6 6 6
47 47 47
8 8 8
10 10 10
28 28 28
13 13 13
0 0 0
0 0 0
1 1 1
2 2 2
2 2 2
1 1 1
1 1 1
2 2 2
1 1 1
1 1 1
1 1 1
1 1 1
15 15 15
79 79 79
77 77 77
82 82 82
160 160 160
203 203 203
166 166 166
134 134 134
168 168 168
130 130 130
90 90 90
90 90 90
88 88 88
89 89 89
85 85 85
81 81 81
82 82 82
90 90 90
90 90 90
90 90 90
82 82 82
61 61 61
5 5 5
6 6 6
9 9 9
2 2 2
14 14 14
9 9 9
11 11 11
5 5 5
3 3 3
9 9 9
4 4 4
43 43 43
7 7 7
12 12 12
23 23 23
14 14 14
0 0 0
0 0 0
1 1 1
1 1 1
1 1 1
1 1 1
1 1 1
1 1 1
1 1 1
2 2 2
2 2 2
2 2 2
1 1 1
4 4 4
76 76 76
76 76 76
76 76 76
80 80 80
85 85 85
88 88 88
90 90 90
119 119 119
97 97 97
82 82 82
85 85 85
86 86 86
91 91 91
81 81 81
85 85 85
91 91 91
84 84 84
28 28 28
17 17 17
13 13 13
13 13 13
6 6 6
9 9 9
7 7 7
4 4 4
15 15 15
7 7 7
11 11 11
10 10 10
4 4 4
10 10 10
35 35 35
8 8 8
15 15 15
18 18 18
14 14 14
0 0 0
0 0 0
1 1 1
2 2 2
2 2 2
1 1 1
2 2 2
2 2 2
1 1 1
1 1 1
2 2 2
2 2 2
2 2 2
1 1 1
0 0 0
14 14 14
66 66 66
77 77 77
76 76 76
75 75 75
79 79 79
81 81 81
84 84 84
85 85 85
85 85 85
84 84 84
88 88 88
91 91 91
89 89 89
59 59 59
8 8 8
11 11 11
4 4 4
3 3 3
4 4 4
4 4 4
3 3 3
11 11 11
20 20 20
15 15 15
10 10 10
19 19 19
12 12 12
12 12 12
14 14 14
37 37 37
10 10 10
19 19 19
15 15 15
18 18 18
0 0 0
0 0 0
1 1 1
1 1 1
1 1 1
1 1 1
1 1 1
1 1 1
2 2 2
2 2 2
1 1 1
2 2 2
2 2 2
2 2 2
2 2 2
3 3 3
3 3 3
0 0 0
3 3 3
14 14 14
13 13 13
4 4 4
5 5 5
30 30 30
52 52 52
61 61 61
7 7 7
1 1 1
1 1 1
3 3 3
6 6 6
2 2 2
2 2 2
2 2 2
3 3 3
3 3 3
3 3 3
11 11 11
7 7 7
4 4 4
21 21 21
24 24 24
16 16 16
13 13 13
14 14 14
44 44 44
10 10 10
27 27 27
15 15 15
27 27 27
0 0 0
0 0 0
2 2 2
1 1 1
1 1 1
1 1 1
1 1 1
1 1 1
1 1 1
1 1 1
1 1 1
2 2 2
2 2 2
2 2 2
2 2 2
15 15 15
7 7 7
16 16 16
3 3 3
2 2 2
2 2 2
1 1 1
1 1 1
1 1 1
1 1 1
1 1 1
1 1 1
2 2 2
2 2 2
2 2 2
2 2 2
3 3 3
2 2 2
2 2 2
3 3 3
3 3 3
2 2 2
4 4 4
12 12 12
4 4 4
18 18 18
18 18 18
20 20 20
12 12 12
8 8 8
28 28 28
9 9 9
42 42 42
14 14 14
2 2 2
0 0 0
0 0 0
2 2 2
1 1 1
2 2 2
1 1 1
1 1 1
1 1 1
2 2 2
1 1 1
2 2 2
2 2 2
2 2 2
2 2 2
2 2 2
2 2 2
6 6 6
9 9 9
18 18 18
3 3 3
2 2 2
2 2 2
2 2 2
2 2 2
2 2 2
2 2 2
2 2 2
2 2 2
2 2 2
3 3 3
2 2 2
3 3 3
3 3 3
3 3 3
3 3 3
3 3 3
2 2 2
3 3 3
10 10 10
9 9 9
18 18 18
30 30 30
8 8 8
12 12 12
15 15 15
12 12 12
9 9 9
62 62 62
21 21 21
2 2 2
0 0 0
0 0 0
2 2 2
2 2 2
1 1 1
1 1 1
1 1 1
1 1 1
1 1 1
1 1 1
2 2 2
2 2 2
2 2 2
2 2 2
2 2 2
1 1 1
2 2 2
2 2 2
2 2 2
14 14 14
7 7 7
2 2 2
3 3 3
2 2 2
2 2 2
2 2 2
3 3 3
2 2 2
2 2 2
3 3 3
3 3 3
3 3 3
2 2 2
3 3 3
2 2 2
3 3 3
3 3 3
3 3 3
3 3 3
10 10 10
5 5 5
25 25 25
24 24 24
15 15 15
24 24 24
9 9 9
10 10 10
82 82 82
8 8 8
2 2 2
0 0 0
0 0 0
2 2 2
2 2 2
1 1 1
1 1 1
1 1 1
1 1 1
2 2 2
1 1 1
1 1 1
2 2 2
1 1 1
2 2 2
1 1 1
2 2 2
2 2 2
2 2 2
2 2 2
1 1 1
9 9 9
3 3 3
3 3 3
3 3 3
2 2 2
2 2 2
2 2 2
2 2 2
2 2 2
4 4 4
4 4 4
3 3 3
2 2 2
3 3 3
3 3 3
3 3 3
3 3 3
3 3 3
3 3 3
16 16 16
8 8 8
18 18 18
13 13 13
6 6 6
44 44 44
8 8 8
15 15 15
87 87 87
2 2 2
2 2 2
0 0 0
0 0 0
2 2 2
2 2 2
2 2 2
1 1 1
1 1 1
2 2 2
1 1 1
1 1 1
2 2 2
1 1 1
1 1 1
2 2 2
2 2 2
1 1 1
2 2 2
2 2 2
2 2 2
2 2 2
2 2 2
14 14 14
3 3 3
3 3 3
2 2 2
2 2 2
2 2 2
2 2 2
3 3 3
4 4 4
4 4 4
4 4 4
5 5 5
4 4 4
4 4 4
3 3 3
3 3 3
3 3 3
2 2 2
11 11 11
13 13 13
8 8 8
9 9 9
11 11 11
19 19 19
11 11 11
17 17 17
11 11 11
2 2 2
2 2 2
0 0 0
0 0 0
2 2 2
2 2 2
2 2 2
2 2 2
2 2 2
1 1 1
1 1 1
1 1 1
1 1 1
1 1 1
1 1 1
1 1 1
2 2 2
1 1 1
2 2 2
2 2 2
2 2 2
2 2 2
2 2 2
2 2 2
3 3 3
3 3 3
2 2 2
2 2 2
3 3 3
2 2 2
3 3 3
4 4 4
4 4 4
4 4 4
4 4 4
3 3 3
5 5 5
3 3 3
3 3 3
3 3 3
3 3 3
8 8 8
11 11 11
8 8 8
9 9 9
21 21 21
9 9 9
13 13 13
32 32 32
2 2 2
2 2 2
2 2 2
0 0 0
0 0 0
2 2 2
2 2 2
2 2 2
2 2 2
1 1 1
1 1 1
2 2 2
1 1 1
1 1 1
1 1 1
2 2 2
1 1 1
1 1 1
2 2 2
2 2 2
2 2 2
1 1 1
2 2 2
2 2 2
2 2 2
2 2 2
2 2 2
2 2 2
3 3 3
2 2 2
2 2 2
3 3 3
4 4 4
4 4 4
4 4 4
4 4 4
4 4 4
4 4 4
4 4 4
3 3 3
5 5 5
3 3 3
9 9 9
10 10 10
11 11 11
12 12 12
43 43 43
11 11 11
17 17 17
2 2 2
2 2 2
2 2 2
2 2 2
0 0 0
0 0 0
2 2 2
2 2 2
2 2 2
2 2 2
2 2 2
1 1 1
1 1 1
1 1 1
1 1 1
1 1 1
1 1 1
1 1 1
2 2 2
1 1 1
1 1 1
2 2 2
2 2 2
2 2 2
2 2 2
2 2 2
2 2 2
2 2 2
3 3 3
3 3 3
3 3 3
3 3 3
4 4 4
4 4 4
4 4 4
4 4 4
4 4 4
4 4 4
4 4 4
4 4 4
7 7 7
3 3 3
6 6 6
8 8 8
8 8 8
11 11 11
10 10 10
20 20 20
14 14 14
5 5 5
2 2 2
2 2 2
2 2 2
2 2 2
0 0 0
0 0 0
2 2 2
2 2 2
2 2 2
2 2 2
2 2 2
2 2 2
2 2 2
1 1 1
1 1 1
1 1 1
1 1 1
1 1 1
1 1 1
2 2 2
2 2 2
2 2 2
2 2 2
2 2 2
1 1 1
2 2 2
2 2 2
2 2 2
2 2 2
3 3 3
4 4 4
4 4 4
4 4 4
3 3 3
4 4 4
4 4 4
4 4 4
4 4 4
6 6 6
11 11 11
9 9 9
6 6 6
6 6 6
4 4 4
7 7 7
13 13 13
28 28 28
13 13 13
9 9 9
2 2 2
2 2 2
2 2 2
2 2 2
2 2 2
0 0 0
0 0 0
2 2 2
2 2 2
2 2 2
2 2 2
2 2 2
2 2 2
2 2 2
1 1 1
1 1 1
1 1 1
1 1 1
1 1 1
2 2 2
1 1 1
2 2 2
1 1 1
2 2 2
2 2 2
1 1 1
2 2 2
2 2 2
2 2 2
2 2 2
2 2 2
3 3 3
4 4 4
4 4 4
4 4 4
3 3 3
3 3 3
3 3 3
2 2 2
11 11 11
13 13 13
13 13 13
15 15 15
10 10 10
11 11 11
7 7 7
14 14 14
44 44 44
17 17 17
2 2 2
2 2 2
2 2 2
2 2 2
2 2 2
2 2 2
0 0 0
0 0 0
2 2 2
2 2 2
2 2 2
2 2 2
2 2 2
2 2 2
2 2 2
2 2 2
1 1 1
1 1 1
1 1 1
1 1 1
1 1 1
1 1 1
2 2 2
2 2 2
1 1 1
2 2 2
2 2 2
2 2 2
2 2 2
2 2 2
2 2 2
2 2 2
3 3 3
4 4 4
4 4 4
4 4 4
9 9 9
12 12 12
14 14 14
9 9 9
9 9 9
16 16 16
10 10 10
5 5 5
16 16 16
20 20 20
9 9 9
15 15 15
10 10 10
2 2 2
2 2 2
2 2 2
2 2 2
2 2 2
2 2 2
2 2 2
0 0 0
0 0 0
2 2 2
2 2 2
2 2 2
2 2 2
2 2 2
2 2 2
2 2 2
2 2 2
2 2 2
1 1 1
1 1 1
1 1 1
1 1 1
2 2 2
1 1 1
1 1 1
1 1 1
2 2 2
1 1 1
2 2 2
2 2 2
2 2 2
2 2 2
2 2 2
2 2 2
3 3 3
4 4 4
6 6 6
10 10 10
5 5 5
5 5 5
4 4 4
10 10 10
16 16 16
24 24 24
8 8 8
17 17 17
19 19 19
18 18 18
5 5 5
2 2 2
2 2 2
2 2 2
2 2 2
2 2 2
2 2 2
2 2 2
2 2 2
0 0 0
0 0 0
2 2 2
2 2 2
2 2 2
2 2 2
2 2 2
2 2 2
2 2 2
2 2 2
2 2 2
2 2 2
1 1 1
1 1 1
1 1 1
1 1 1
1 1 1
2 2 2
1 1 1
1 1 1
1 1 1
2 2 2
2 2 2
2 2 2
2 2 2
2 2 2
2 2 2
2 2 2
9 9 9
10 10 10
10 10 10
5 5 5
14 14 14
14 14 14
11 11 11
11 11 11
14 14 14
15 15 15
14 14 14
24 24 24
2 2 2
2 2 2
2 2 2
2 2 2
2 2 2
2 2 2
2 2 2
2 2 2
2 2 2
2 2 2
0 0 0
0 0 0
2 2 2
2 2 2
2 2 2
2 2 2
2 2 2
2 2 2
2 2 2
2 2 2
2 2 2
2 2 2
2 2 2
2 2 2
1 1 1
1 1 1
1 1 1
1 1 1
1 1 1
2 2 2
2 2 2
2 2 2
2 2 2
2 2 2
2 2 2
2 2 2
2 2 2
2 2 2
7 7 7
11 11 11
6 6 6
7 7 7
5 5 5
5 5 5
11 11 11
22 22 22
21 21 21
18 18 18
4 4 4
2 2 2
2 2 2
2 2 2
2 2 2
2 2 2
2 2 2
2 2 2
2 2 2
2 2 2
2 2 2
2 2 2
0 0 0
0 0 0
2 2 2
2 2 2
2 2 2
2 2 2
2 2 2
2 2 2
2 2 2
2 2 2
2 2 2
2 2 2
2 2 2
2 2 2
2 2 2
2 2 2
1 1 1
1 1 1
1 1 1
2 2 2
2 2 2
1 1 1
2 2 2
2 2 2
3 3 3
2 2 2
9 9 9
9 9 9
3 3 3
9 9 9
3 3 3
12 12 12
15 15 15
5 5 5
6 6 6
9 9 9
4 4 4
2 2 2
2 2 2
2 2 2
2 2 2
2 2 2
2 2 2
2 2 2
2 2 2
2 2 2
2 2 2
2 2 2
2 2 2
2 2 2
0 0 0
0 0 0
2 2 2
2 2 2
2 2 2
2 2 2
2 2 2
2 2 2
2 2 2
2 2 2
2 2 2
2 2 2
2 2 2
2 2 2
2 2 2
2 2 2
2 2 2
2 2 2
1 1 1
2 2 2
1 1 1
2 2 2
2 2 2
2 2 2
2 2 2
3 3 3
3 3 3
3 3 3
3 3 3
9 9 9
5 5 5
11 11 11
10 10 10
17 17 17
2 2 2
2 2 2
2 2 2
2 2 2
2 2 2
2 2 2
2 2 2
2 2 2
2 2 2
2 2 2
2 2 2
2 2 2
2 2 2
2 2 2
2 2 2
2 2 2
0 0 0
0 0 0
0 0 0
0 0 0
0 0 0
0 0 0
0 0 0
0 0 0
0 0 0
0 0 0
0 0 0
0 0 0
0 0 0
0 0 0
0 0 0
0 0 0
0 0 0
0 0 0
0 0 0
0 0 0
0 0 0
0 0 0
0 0 0
0 0 0
0 0 0
0 0 0
0 0 0
0 0 0
0 0 0
0 0 0
0 0 0
0 0 0
0 0 0
0 0 0
0 0 0
0 0 0
0 0 0
0 0 0
0 0 0
0 0 0
0 0 0
0 0 0
0 0 0
0 0 0
0 0 0
0 0 0
0 0 0
0 0 0
0 0 0
0 0 0
0 0 0
