P3 
50 50 
255
0 0 0
0 0 0
0 0 0
0 0 0
0 0 0
0 0 0
0 0 0
0 0 0
0 0 0
0 0 0
0 0 0
0 0 0
0 0 0
0 0 0
0 0 0
0 0 0
0 0 0
0 0 0
0 0 0
0 0 0
0 0 0
0 0 0
0 0 0
0 0 0
0 0 0
0 0 0
0 0 0
0 0 0
0 0 0
0 0 0
0 0 0
0 0 0
0 0 0
0 0 0
0 0 0
0 0 0
0 0 0
0 0 0
0 0 0
0 0 0
0 0 0
0 0 0
0 0 0
0 0 0
0 0 0
0 0 0
0 0 0
0 0 0
0 0 0
0 0 0
0 0 0
2 2 2
2 2 2
2 2 2
2 2 2
2 2 2
2 2 2
2 2 2
2 2 2
2 2 2
2 2 2
2 2 2
2 2 2
2 2 2
2 2 2
2 2 2
2 2 2
2 2 2
1 1 1
1 1 1
1 1 1
4 4 4
6 6 6
3 3 3
3 3 3
4 4 4
3 3 3
3 3 3
4 4 4
4 4 4
4 4 4
7 7 7
2 2 2
2 2 2
2 2 2
2 2 2
2 2 2
2 2 2
2 2 2
2 2 2
2 2 2
2 2 2
2 2 2
2 2 2
2 2 2
2 2 2
2 2 2
2 2 2
2 2 2
0 0 0
0 0 0
2 2 2
2 2 2
2 2 2
2 2 2
2 2 2
2 2 2
2 2 2
2 2 2
2 2 2
2 2 2
2 2 2
2 2 2
2 2 2
2 2 2
1 1 1
1 1 1
1 1 1
2 2 2
1 1 1
13 13 13
12 12 12
4 4 4
3 3 3
3 3 3
3 3 3
4 4 4
3 3 3
3 3 3
2 2 2
11 11 11
5 5 5
9 9 9
6 6 6
15 15 15
2 2 2
2 2 2
2 2 2
2 2 2
2 2 2
2 2 2
2 2 2
2 2 2
2 2 2
2 2 2
2 2 2
2 2 2
2 2 2
2 2 2
0 0 0
0 0 0
2 2 2
2 2 2
2 2 2
2 2 2
2 2 2
2 2 2
2 2 2
2 2 2
2 2 2
2 2 2
2 2 2
2 2 2
1 1 1
0 0 0
2 2 2
1 1 1
1 1 1
4 4 4
12 12 12
5 5 5
4 4 4
3 3 3
3 3 3
4 4 4
5 5 5
10 10 10
10 10 10
14 14 14
16 16 16
10 10 10
16 16 16
6 6 6
6 6 6
8 8 8
5 5 5
15 15 15
2 2 2
2 2 2
2 2 2
2 2 2
2 2 2
2 2 2
2 2 2
2 2 2
2 2 2
2 2 2
2 2 2
2 2 2
0 0 0
0 0 0
2 2 2
2 2 2
2 2 2
2 2 2
2 2 2
2 2 2
2 2 2
2 2 2
2 2 2
2 2 2
1 1 1
1 1 1
1 1 1
0 0 0
2 2 2
3 3 3
14 14 14
6 6 6
3 3 3
4 4 4
3 3 3
3 3 3
4 4 4
4 4 4
12 12 12
3 3 3
12 12 12
15 15 15
17 17 17
7 7 7
5 5 5
13 13 13
10 10 10
12 12 12
10 10 10
7 7 7
16 16 16
7 7 7
2 2 2
2 2 2
2 2 2
2 2 2
2 2 2
2 2 2
2 2 2
2 2 2
2 2 2
2 2 2
0 0 0
0 0 0
2 2 2
2 2 2
2 2 2
2 2 2
2 2 2
2 2 2
2 2 2
2 2 2
2 2 2
1 1 1
3 3 3
3 3 3
3 3 3
0 0 0
12 12 12
5 5 5
4 4 4
3 3 3
3 3 3
4 4 4
3 3 3
3 3 3
4 4 4
4 4 4
7 7 7
41 41 41
44 44 44
16 16 16
6 6 6
4 4 4
4 4 4
3 3 3
4 4 4
5 5 5
6 6 6
3 3 3
12 12 12
6 6 6
10 10 10
2 2 2
2 2 2
2 2 2
2 2 2
2 2 2
2 2 2
2 2 2
2 2 2
2 2 2
0 0 0
0 0 0
2 2 2
2 2 2
2 2 2
2 2 2
2 2 2
2 2 2
2 2 2
2 2 2
3 3 3
3 3 3
3 3 3
3 3 3
3 3 3
1 1 1
3 3 3
4 4 4
4 4 4
4 4 4
4 4 4
5 5 5
4 4 4
4 4 4
4 4 4
7 7 7
64 64 64
85 85 85
41 41 41
1 1 1
2 2 2
8 8 8
2 2 2
7 7 7
14 14 14
9 9 9
3 3 3
4 4 4
6 6 6
6 6 6
14 14 14
17 17 17
4 4 4
2 2 2
2 2 2
2 2 2
2 2 2
2 2 2
2 2 2
2 2 2
0 0 0
0 0 0
2 2 2
2 2 2
2 2 2
2 2 2
2 2 2
2 2 2
2 2 2
3 3 3
3 3 3
3 3 3
3 3 3
3 3 3
3 3 3
1 1 1
3 3 3
4 4 4
4 4 4
3 3 3
2 2 2
1 1 1
3 3 3
2 2 2
6 6 6
61 61 61
83 83 83
24 24 24
6 6 6
3 3 3
6 6 6
18 18 18
13 13 13
10 10 10
3 3 3
6 6 6
13 13 13
3 3 3
3 3 3
16 16 16
8 8 8
7 7 7
16 16 16
7 7 7
2 2 2
2 2 2
2 2 2
2 2 2
2 2 2
2 2 2
0 0 0
0 0 0
2 2 2
2 2 2
2 2 2
2 2 2
2 2 2
2 2 2
1 1 1
3 3 3
4 4 4
3 3 3
3 3 3
3 3 3
5 5 5
2 2 2
4 4 4
3 3 3
2 2 2
8 8 8
46 46 46
81 81 81
84 84 84
83 83 83
85 85 85
89 89 89
32 32 32
3 3 3
19 19 19
9 9 9
4 4 4
23 23 23
7 7 7
8 8 8
16 16 16
12 12 12
2 2 2
13 13 13
10 10 10
4 4 4
4 4 4
6 6 6
7 7 7
48 48 48
4 4 4
2 2 2
2 2 2
2 2 2
2 2 2
2 2 2
0 0 0
0 0 0
2 2 2
2 2 2
2 2 2
2 2 2
2 2 2
2 2 2
2 2 2
3 3 3
4 4 4
2 2 2
3 3 3
3 3 3
2 2 2
0 0 0
2 2 2
29 29 29
75 75 75
79 79 79
81 81 81
86 86 86
86 86 86
83 83 83
85 85 85
85 85 85
88 88 88
87 87 87
89 89 89
80 80 80
54 54 54
20 20 20
9 9 9
3 3 3
6 6 6
10 10 10
6 6 6
8 8 8
9 9 9
5 5 5
4 4 4
4 4 4
6 6 6
12 12 12
17 17 17
2 2 2
2 2 2
2 2 2
2 2 2
2 2 2
0 0 0
0 0 0
2 2 2
2 2 2
2 2 2
2 2 2
1 1 1
1 1 1
2 2 2
3 3 3
4 4 4
3 3 3
3 3 3
20 20 20
70 70 70
71 71 71
77 77 77
81 81 81
89 89 89
87 87 87
88 88 88
85 85 85
80 80 80
81 81 81
84 84 84
84 84 84
86 86 86
92 92 92
87 87 87
87 87 87
89 89 89
88 88 88
82 82 82
44 44 44
7 7 7
11 11 11
10 10 10
3 3 3
5 5 5
9 9 9
12 12 12
4 4 4
4 4 4
12 12 12
40 40 40
20 20 20
2 2 2
2 2 2
2 2 2
2 2 2
0 0 0
0 0 0
2 2 2
2 2 2
2 2 2
2 2 2
1 1 1
2 2 2
3 3 3
4 4 4
4 4 4
3 3 3
44 44 44
78 78 78
78 78 78
72 72 72
85 85 85
89 89 89
88 88 88
92 92 92
137 137 137
181 181 181
92 92 92
86 86 86
84 84 84
84 84 84
85 85 85
86 86 86
83 83 83
83 83 83
85 85 85
89 89 89
89 89 89
84 84 84
66 66 66
17 17 17
11 11 11
11 11 11
3 3 3
3 3 3
10 10 10
8 8 8
10 10 10
5 5 5
41 41 41
13 13 13
19 19 19
2 2 2
2 2 2
2 2 2
0 0 0
0 0 0
2 2 2
2 2 2
2 2 2
1 1 1
2 2 2
3 3 3
2 2 2
4 4 4
4 4 4
3 3 3
80 80 80
77 77 77
78 78 78
79 79 79
88 88 88
91 91 91
161 161 161
110 110 110
128 128 128
90 90 90
82 82 82
86 86 86
84 84 84
84 84 84
89 89 89
84 84 84
84 84 84
85 85 85
86 86 86
89 89 89
86 86 86
88 88 88
86 86 86
82 82 82
26 26 26
11 11 11
11 11 11
4 4 4
3 3 3
4 4 4
11 11 11
4 4 4
23 23 23
12 12 12
15 15 15
6 6 6
2 2 2
2 2 2
0 0 0
0 0 0
2 2 2
2 2 2
2 2 2
2 2 2
1 1 1
2 2 2
2 2 2
4 4 4
4 4 4
15 15 15
86 86 86
77 77 77
81 81 81
79 79 79
88 88 88
193 193 193
88 88 88
163 163 163
86 86 86
83 83 83
82 82 82
85 85 85
89 89 89
102 102 102
85 85 85
85 85 85
87 87 87
87 87 87
88 88 88
90 90 90
90 90 90
91 91 91
89 89 89
87 87 87
84 84 84
55 55 55
7 7 7
11 11 11
4 4 4
3 3 3
6 6 6
5 5 5
14 14 14
9 9 9
13 13 13
88 88 88
2 2 2
2 2 2
0 0 0
0 0 0
2 2 2
2 2 2
2 2 2
2 2 2
1 1 1
2 2 2
2 2 2
4 4 4
3 3 3
83 83 83
91 91 91
81 81 81
92 92 92
80 80 80
88 88 88
93 93 93
167 167 167
86 86 86
87 87 87
82 82 82
102 102 102
93 93 93
106 106 106
93 93 93
88 88 88
80 80 80
81 81 81
80 80 80
85 85 85
89 89 89
91 91 91
94 94 94
89 89 89
87 87 87
88 88 88
85 85 85
56 56 56
12 12 12
15 15 15
5 5 5
8 8 8
6 6 6
6 6 6
11 11 11
11 11 11
70 70 70
5 5 5
2 2 2
0 0 0
0 0 0
2 2 2
2 2 2
2 2 2
1 1 1
2 2 2
1 1 1
3 3 3
1 1 1
70 70 70
94 94 94
97 97 97
77 77 77
104 104 104
101 101 101
95 95 95
84 84 84
89 89 89
87 87 87
88 88 88
80 80 80
87 87 87
83 83 83
128 128 128
88 88 88
117 117 117
89 89 89
87 87 87
80 80 80
86 86 86
89 89 89
91 91 91
92 92 92
88 88 88
86 86 86
88 88 88
88 88 88
85 85 85
25 25 25
10 10 10
3 3 3
4 4 4
10 10 10
4 4 4
27 27 27
8 8 8
46 46 46
23 23 23
2 2 2
0 0 0
0 0 0
2 2 2
2 2 2
2 2 2
2 2 2
1 1 1
2 2 2
2 2 2
28 28 28
90 90 90
89 89 89
119 119 119
104 104 104
93 93 93
108 108 108
96 96 96
87 87 87
85 85 85
87 87 87
79 79 79
80 80 80
87 87 87
85 85 85
118 118 118
104 104 104
139 139 139
179 179 179
87 87 87
87 87 87
82 82 82
88 88 88
88 88 88
90 90 90
88 88 88
87 87 87
88 88 88
89 89 89
84 84 84
49 49 49
13 13 13
4 4 4
3 3 3
9 9 9
4 4 4
47 47 47
7 7 7
30 30 30
14 14 14
3 3 3
0 0 0
0 0 0
2 2 2
1 1 1
1 1 1
2 2 2
1 1 1
4 4 4
4 4 4
31 31 31
89 89 89
77 77 77
94 94 94
91 91 91
104 104 104
78 78 78
95 95 95
87 87 87
86 86 86
83 83 83
84 84 84
82 82 82
86 86 86
121 121 121
108 108 108
109 109 109
143 143 143
171 171 171
87 87 87
90 90 90
91 91 91
94 94 94
90 90 90
85 85 85
88 88 88
83 83 83
87 87 87
88 88 88
85 85 85
77 77 77
11 11 11
9 9 9
4 4 4
4 4 4
6 6 6
30 30 30
8 8 8
20 20 20
15 15 15
17 17 17
0 0 0
0 0 0
1 1 1
1 1 1
2 2 2
3 3 3
3 3 3
6 6 6
24 24 24
65 65 65
93 93 93
90 90 90
85 85 85
89 89 89
89 89 89
79 79 79
97 97 97
87 87 87
88 88 88
88 88 88
89 89 89
87 87 87
86 86 86
146 146 146
110 110 110
127 127 127
106 106 106
88 88 88
86 86 86
93 93 93
88 88 88
129 129 129
89 89 89
85 85 85
84 84 84
83 83 83
88 88 88
88 88 88
87 87 87
81 81 81
16 16 16
15 15 15
4 4 4
4 4 4
11 11 11
14 14 14
9 9 9
15 15 15
16 16 16
18 18 18
0 0 0
0 0 0
2 2 2
2 2 2
1 1 1
1 1 1
1 1 1
35 35 35
13 13 13
68 68 68
95 95 95
91 91 91
81 81 81
91 91 91
90 90 90
84 84 84
98 98 98
89 89 89
89 89 89
88 88 88
88 88 88
87 87 87
88 88 88
184 184 184
157 157 157
85 85 85
88 88 88
85 85 85
84 84 84
102 102 102
116 116 116
85 85 85
85 85 85
82 82 82
81 81 81
84 84 84
88 88 88
88 88 88
86 86 86
82 82 82
27 27 27
12 12 12
7 7 7
4 4 4
4 4 4
13 13 13
10 10 10
12 12 12
18 18 18
14 14 14
0 0 0
0 0 0
0 0 0
1 1 1
2 2 2
2 2 2
25 25 25
15 15 15
5 5 5
78 78 78
90 90 90
87 87 87
86 86 86
92 92 92
95 95 95
90 90 90
95 95 95
90 90 90
89 89 89
9 9 9
84 84 84
86 86 86
103 103 103
157 157 157
136 136 136
112 112 112
86 86 86
86 86 86
86 86 86
85 85 85
143 143 143
86 86 86
91 91 91
91 91 91
88 88 88
82 82 82
87 87 87
89 89 89
86 86 86
85 85 85
39 39 39
9 9 9
17 17 17
11 11 11
11 11 11
20 20 20
6 6 6
10 10 10
22 22 22
12 12 12
0 0 0
0 0 0
1 1 1
0 0 0
2 2 2
2 2 2
61 61 61
31 31 31
2 2 2
72 72 72
88 88 88
88 88 88
86 86 86
92 92 92
98 98 98
94 94 94
94 94 94
91 91 91
84 84 84
3 3 3
74 74 74
88 88 88
110 110 110
158 158 158
125 125 125
146 146 146
86 86 86
87 87 87
85 85 85
87 87 87
160 160 160
82 82 82
80 80 80
86 86 86
85 85 85
83 83 83
84 84 84
88 88 88
90 90 90
85 85 85
34 34 34
7 7 7
10 10 10
10 10 10
12 12 12
29 29 29
7 7 7
9 9 9
25 25 25
14 14 14
0 0 0
0 0 0
0 0 0
2 2 2
2 2 2
2 2 2
35 35 35
42 42 42
13 13 13
22 22 22
89 89 89
88 88 88
83 83 83
97 97 97
92 92 92
95 95 95
94 94 94
88 88 88
88 88 88
63 63 63
34 34 34
53 53 53
84 84 84
114 114 114
101 101 101
87 87 87
84 84 84
85 85 85
84 84 84
112 112 112
122 122 122
83 83 83
87 87 87
85 85 85
84 84 84
83 83 83
85 85 85
88 88 88
90 90 90
85 85 85
31 31 31
5 5 5
3 3 3
12 12 12
15 15 15
41 41 41
7 7 7
9 9 9
29 29 29
13 13 13
0 0 0
0 0 0
0 0 0
0 0 0
0 0 0
2 2 2
12 12 12
28 28 28
62 62 62
5 5 5
38 38 38
90 90 90
81 81 81
93 93 93
90 90 90
98 98 98
91 91 91
86 86 86
89 89 89
85 85 85
70 70 70
90 90 90
89 89 89
155 155 155
115 115 115
147 147 147
97 97 97
89 89 89
98 98 98
94 94 94
80 80 80
99 99 99
89 89 89
83 83 83
83 83 83
81 81 81
87 87 87
88 88 88
89 89 89
85 85 85
29 29 29
10 10 10
13 13 13
21 21 21
14 14 14
44 44 44
7 7 7
8 8 8
31 31 31
13 13 13
0 0 0
0 0 0
2 2 2
1 1 1
2 2 2
2 2 2
3 3 3
3 3 3
47 47 47
80 80 80
25 25 25
32 32 32
85 85 85
96 96 96
87 87 87
94 94 94
86 86 86
86 86 86
84 84 84
68 68 68
80 80 80
86 86 86
85 85 85
125 125 125
106 106 106
117 117 117
120 120 120
209 209 209
121 121 121
88 88 88
81 81 81
86 86 86
88 88 88
89 89 89
83 83 83
81 81 81
86 86 86
88 88 88
89 89 89
85 85 85
27 27 27
4 4 4
6 6 6
13 13 13
11 11 11
48 48 48
8 8 8
7 7 7
31 31 31
12 12 12
0 0 0
0 0 0
0 0 0
1 1 1
1 1 1
2 2 2
2 2 2
20 20 20
65 65 65
95 95 95
104 104 104
54 54 54
37 37 37
48 48 48
112 112 112
108 108 108
95 95 95
68 68 68
74 74 74
80 80 80
80 80 80
76 76 76
85 85 85
84 84 84
130 130 130
130 130 130
157 157 157
175 175 175
92 92 92
86 86 86
83 83 83
88 88 88
88 88 88
89 89 89
83 83 83
87 87 87
88 88 88
89 89 89
83 83 83
58 58 58
19 19 19
11 11 11
18 18 18
5 5 5
9 9 9
46 46 46
8 8 8
8 8 8
31 31 31
12 12 12
0 0 0
0 0 0
1 1 1
1 1 1
1 1 1
1 1 1
1 1 1
5 5 5
1 1 1
66 66 66
87 87 87
91 91 91
90 90 90
81 81 81
131 131 131
96 96 96
43 43 43
43 43 43
81 81 81
84 84 84
84 84 84
83 83 83
86 86 86
86 86 86
94 94 94
92 92 92
109 109 109
108 108 108
87 87 87
86 86 86
82 82 82
85 85 85
87 87 87
88 88 88
88 88 88
88 88 88
88 88 88
84 84 84
83 83 83
25 25 25
17 17 17
11 11 11
6 6 6
16 16 16
13 13 13
39 39 39
9 9 9
8 8 8
28 28 28
13 13 13
0 0 0
0 0 0
1 1 1
2 2 2
2 2 2
1 1 1
2 2 2
3 3 3
1 1 1
0 0 0
76 76 76
86 86 86
85 85 85
92 92 92
82 82 82
94 94 94
122 122 122
81 81 81
103 103 103
91 91 91
87 87 87
88 88 88
91 91 91
88 88 88
90 90 90
101 101 101
124 124 124
86 86 86
81 81 81
82 82 82
83 83 83
82 82 82
84 84 84
87 87 87
88 88 88
87 87 87
81 81 81
84 84 84
26 26 26
24 24 24
14 14 14
7 7 7
17 17 17
5 5 5
10 10 10
28 28 28
8 8 8
9 9 9
24 24 24
14 14 14
0 0 0
0 0 0
1 1 1
1 1 1
1 1 1
0 0 0
2 2 2
1 1 1
4 4 4
1 1 1
5 5 5
75 75 75
77 77 77
80 80 80
69 69 69
94 94 94
89 89 89
83 83 83
138 138 138
153 153 153
90 90 90
86 86 86
87 87 87
87 87 87
87 87 87
103 103 103
85 85 85
85 85 85
86 86 86
87 87 87
85 85 85
84 84 84
86 86 86
88 88 88
84 84 84
81 81 81
73 73 73
24 24 24
37 37 37
28 28 28
12 12 12
8 8 8
16 16 16
9 9 9
14 14 14
21 21 21
8 8 8
10 10 10
22 22 22
14 14 14
0 0 0
0 0 0
1 1 1
1 1 1
1 1 1
2 2 2
1 1 1
1 1 1
2 2 2
1 1 1
3 3 3
3 3 3
65 65 65
74 74 74
76 76 76
81 81 81
87 87 87
95 95 95
193 193 193
107 107 107
104 104 104
115 115 115
88 88 88
87 87 87
86 86 86
85 85 85
88 88 88
88 88 88
81 81 81
82 82 82
85 85 85
86 86 86
89 89 89
88 88 88
82 82 82
57 57 57
26 26 26
40 40 40
13 13 13
21 21 21
4 4 4
12 12 12
14 14 14
3 3 3
17 17 17
28 28 28
7 7 7
12 12 12
19 19 19
14 14 14
0 0 0
0 0 0
1 1 1
1 1 1
1 1 1
2 2 2
1 1 1
2 2 2
1 1 1
3 3 3
4 4 4
2 2 2
0 0 0
3 3 3
82 82 82
77 77 77
84 84 84
93 93 93
89 89 89
86 86 86
92 92 92
142 142 142
164 164 164
82 82 82
85 85 85
85 85 85
87 87 87
85 85 85
88 88 88
87 87 87
88 88 88
90 90 90
85 85 85
80 80 80
26 26 26
28 28 28
16 16 16
8 8 8
2 2 2
16 16 16
12 12 12
10 10 10
10 10 10
11 11 11
17 17 17
29 29 29
9 9 9
16 16 16
16 16 16
14 14 14
0 0 0
0 0 0
1 1 1
2 2 2
2 2 2
1 1 1
1 1 1
3 3 3
2 2 2
3 3 3
2 2 2
2 2 2
1 1 1
2 2 2
4 4 4
75 75 75
74 74 74
85 85 85
92 92 92
88 88 88
87 87 87
87 87 87
85 85 85
83 83 83
81 81 81
85 85 85
86 86 86
87 87 87
89 89 89
90 90 90
90 90 90
73 73 73
28 28 28
6 6 6
10 10 10
7 7 7
3 3 3
3 3 3
4 4 4
10 10 10
12 12 12
13 13 13
19 19 19
17 17 17
14 14 14
39 39 39
10 10 10
21 21 21
14 14 14
18 18 18
0 0 0
0 0 0
1 1 1
2 2 2
1 1 1
1 1 1
2 2 2
2 2 2
2 2 2
2 2 2
2 2 2
2 2 2
2 2 2
3 3 3
3 3 3
1 1 1
49 49 49
83 83 83
79 79 79
78 78 78
76 76 76
77 77 77
78 78 78
87 87 87
85 85 85
87 87 87
56 56 56
32 32 32
65 65 65
52 52 52
20 20 20
3 3 3
14 14 14
11 11 11
6 6 6
2 2 2
3 3 3
2 2 2
14 14 14
4 4 4
17 17 17
12 12 12
16 16 16
19 19 19
7 7 7
50 50 50
10 10 10
31 31 31
13 13 13
29 29 29
0 0 0
0 0 0
2 2 2
1 1 1
2 2 2
1 1 1
1 1 1
1 1 1
1 1 1
2 2 2
1 1 1
1 1 1
3 3 3
2 2 2
4 4 4
2 2 2
0 0 0
3 3 3
3 3 3
6 6 6
6 6 6
1 1 1
1 1 1
7 7 7
25 25 25
22 22 22
72 72 72
35 35 35
0 0 0
1 1 1
0 0 0
3 3 3
3 3 3
2 2 2
2 2 2
3 3 3
3 3 3
3 3 3
6 6 6
13 13 13
16 16 16
16 16 16
14 14 14
13 13 13
10 10 10
40 40 40
9 9 9
47 47 47
13 13 13
2 2 2
0 0 0
0 0 0
2 2 2
2 2 2
1 1 1
1 1 1
2 2 2
0 0 0
1 1 1
1 1 1
1 1 1
2 2 2
1 1 1
1 1 1
4 4 4
2 2 2
0 0 0
3 3 3
3 3 3
3 3 3
2 2 2
1 1 1
2 2 2
1 1 1
1 1 1
4 4 4
47 47 47
82 82 82
6 6 6
0 0 0
1 1 1
2 2 2
2 2 2
3 3 3
3 3 3
3 3 3
3 3 3
2 2 2
11 11 11
4 4 4
12 12 12
15 15 15
10 10 10
10 10 10
20 20 20
14 14 14
10 10 10
65 65 65
23 23 23
2 2 2
0 0 0
0 0 0
2 2 2
2 2 2
1 1 1
2 2 2
1 1 1
1 1 1
2 2 2
2 2 2
2 2 2
2 2 2
1 1 1
1 1 1
4 4 4
2 2 2
1 1 1
2 2 2
4 4 4
3 3 3
3 3 3
3 3 3
3 3 3
2 2 2
2 2 2
2 2 2
11 11 11
80 80 80
84 84 84
77 77 77
11 11 11
2 2 2
2 2 2
3 3 3
3 3 3
3 3 3
3 3 3
3 3 3
6 6 6
11 11 11
7 7 7
25 25 25
31 31 31
13 13 13
31 31 31
10 10 10
11 11 11
78 78 78
9 9 9
2 2 2
0 0 0
0 0 0
2 2 2
2 2 2
1 1 1
1 1 1
1 1 1
1 1 1
3 3 3
2 2 2
1 1 1
2 2 2
0 0 0
1 1 1
3 3 3
3 3 3
1 1 1
7 7 7
5 5 5
5 5 5
3 3 3
3 3 3
2 2 2
3 3 3
3 3 3
2 2 2
2 2 2
3 3 3
6 6 6
4 4 4
3 3 3
2 2 2
2 2 2
3 3 3
5 5 5
4 4 4
2 2 2
3 3 3
5 5 5
9 9 9
3 3 3
21 21 21
16 16 16
14 14 14
40 40 40
8 8 8
14 14 14
78 78 78
2 2 2
2 2 2
0 0 0
0 0 0
2 2 2
2 2 2
2 2 2
1 1 1
1 1 1
1 1 1
2 2 2
2 2 2
2 2 2
2 2 2
0 0 0
1 1 1
3 3 3
3 3 3
1 1 1
15 15 15
17 17 17
26 26 26
4 4 4
3 3 3
3 3 3
3 3 3
3 3 3
2 2 2
3 3 3
2 2 2
2 2 2
3 3 3
3 3 3
2 2 2
2 2 2
2 2 2
4 4 4
4 4 4
4 4 4
3 3 3
3 3 3
7 7 7
4 4 4
28 28 28
5 5 5
5 5 5
19 19 19
11 11 11
16 16 16
11 11 11
2 2 2
2 2 2
0 0 0
0 0 0
2 2 2
2 2 2
2 2 2
2 2 2
1 1 1
1 1 1
2 2 2
2 2 2
2 2 2
2 2 2
0 0 0
1 1 1
3 3 3
3 3 3
2 2 2
2 2 2
3 3 3
12 12 12
12 12 12
3 3 3
3 3 3
4 4 4
3 3 3
4 4 4
2 2 2
2 2 2
2 2 2
3 3 3
3 3 3
3 3 3
2 2 2
2 2 2
4 4 4
4 4 4
4 4 4
3 3 3
3 3 3
9 9 9
16 16 16
29 29 29
12 12 12
17 17 17
10 10 10
14 14 14
32 32 32
2 2 2
2 2 2
2 2 2
0 0 0
0 0 0
2 2 2
2 2 2
2 2 2
2 2 2
1 1 1
2 2 2
2 2 2
1 1 1
1 1 1
1 1 1
1 1 1
1 1 1
2 2 2
2 2 2
1 1 1
1 1 1
3 3 3
2 2 2
9 9 9
4 4 4
4 4 4
4 4 4
4 4 4
3 3 3
3 3 3
2 2 2
3 3 3
3 3 3
4 4 4
4 4 4
3 3 3
4 4 4
4 4 4
4 4 4
5 5 5
7 7 7
5 5 5
11 11 11
10 10 10
19 19 19
15 15 15
42 42 42
10 10 10
17 17 17
2 2 2
2 2 2
2 2 2
2 2 2
0 0 0
0 0 0
2 2 2
2 2 2
2 2 2
2 2 2
2 2 2
1 1 1
2 2 2
2 2 2
1 1 1
1 1 1
0 0 0
2 2 2
2 2 2
2 2 2
1 1 1
1 1 1
3 3 3
2 2 2
2 2 2
11 11 11
4 4 4
4 4 4
4 4 4
4 4 4
5 5 5
4 4 4
4 4 4
4 4 4
4 4 4
4 4 4
5 5 5
4 4 4
3 3 3
3 3 3
16 16 16
7 7 7
16 16 16
15 15 15
9 9 9
12 12 12
9 9 9
24 24 24
13 13 13
5 5 5
2 2 2
2 2 2
2 2 2
2 2 2
0 0 0
0 0 0
2 2 2
2 2 2
2 2 2
2 2 2
2 2 2
2 2 2
2 2 2
1 1 1
2 2 2
1 1 1
0 0 0
2 2 2
2 2 2
2 2 2
1 1 1
1 1 1
2 2 2
2 2 2
2 2 2
3 3 3
16 16 16
4 4 4
4 4 4
4 4 4
4 4 4
4 4 4
3 3 3
4 4 4
3 3 3
4 4 4
4 4 4
5 5 5
6 6 6
13 13 13
12 12 12
14 14 14
10 10 10
19 19 19
12 12 12
13 13 13
28 28 28
13 13 13
9 9 9
2 2 2
2 2 2
2 2 2
2 2 2
2 2 2
0 0 0
0 0 0
2 2 2
2 2 2
2 2 2
2 2 2
2 2 2
2 2 2
2 2 2
1 1 1
1 1 1
0 0 0
1 1 1
2 2 2
2 2 2
1 1 1
1 1 1
1 1 1
2 2 2
2 2 2
2 2 2
1 1 1
2 2 2
14 14 14
3 3 3
3 3 3
4 4 4
4 4 4
4 4 4
3 3 3
3 3 3
4 4 4
4 4 4
10 10 10
19 19 19
10 10 10
7 7 7
23 23 23
12 12 12
12 12 12
12 12 12
18 18 18
43 43 43
16 16 16
2 2 2
2 2 2
2 2 2
2 2 2
2 2 2
2 2 2
0 0 0
0 0 0
2 2 2
2 2 2
2 2 2
2 2 2
2 2 2
2 2 2
2 2 2
2 2 2
1 1 1
0 0 0
1 1 1
1 1 1
2 2 2
1 1 1
1 1 1
1 1 1
2 2 2
2 2 2
1 1 1
2 2 2
2 2 2
3 3 3
3 3 3
4 4 4
3 3 3
4 4 4
4 4 4
4 4 4
5 5 5
10 10 10
17 17 17
19 19 19
13 13 13
19 19 19
20 20 20
23 23 23
15 15 15
15 15 15
17 17 17
12 12 12
10 10 10
2 2 2
2 2 2
2 2 2
2 2 2
2 2 2
2 2 2
2 2 2
0 0 0
0 0 0
2 2 2
2 2 2
2 2 2
2 2 2
2 2 2
2 2 2
2 2 2
2 2 2
2 2 2
0 0 0
1 1 1
1 1 1
2 2 2
2 2 2
1 1 1
1 1 1
2 2 2
2 2 2
2 2 2
2 2 2
2 2 2
2 2 2
3 3 3
3 3 3
3 3 3
3 3 3
10 10 10
5 5 5
5 5 5
7 7 7
10 10 10
14 14 14
6 6 6
14 14 14
28 28 28
14 14 14
6 6 6
7 7 7
11 11 11
4 4 4
2 2 2
2 2 2
2 2 2
2 2 2
2 2 2
2 2 2
2 2 2
2 2 2
0 0 0
0 0 0
2 2 2
2 2 2
2 2 2
2 2 2
2 2 2
2 2 2
2 2 2
2 2 2
2 2 2
2 2 2
1 1 1
2 2 2
1 1 1
1 1 1
1 1 1
1 1 1
1 1 1
2 2 2
2 2 2
2 2 2
2 2 2
2 2 2
2 2 2
2 2 2
2 2 2
7 7 7
5 5 5
9 9 9
9 9 9
11 11 11
4 4 4
11 11 11
12 12 12
27 27 27
20 20 20
22 22 22
9 9 9
15 15 15
2 2 2
2 2 2
2 2 2
2 2 2
2 2 2
2 2 2
2 2 2
2 2 2
2 2 2
2 2 2
0 0 0
0 0 0
2 2 2
2 2 2
2 2 2
2 2 2
2 2 2
2 2 2
2 2 2
2 2 2
2 2 2
2 2 2
2 2 2
2 2 2
1 1 1
1 1 1
1 1 1
1 1 1
1 1 1
2 2 2
3 3 3
2 2 2
2 2 2
2 2 2
2 2 2
2 2 2
2 2 2
12 12 12
10 10 10
10 10 10
3 3 3
15 15 15
3 3 3
17 17 17
20 20 20
6 6 6
18 18 18
16 16 16
3 3 3
2 2 2
2 2 2
2 2 2
2 2 2
2 2 2
2 2 2
2 2 2
2 2 2
2 2 2
2 2 2
2 2 2
0 0 0
0 0 0
2 2 2
2 2 2
2 2 2
2 2 2
2 2 2
2 2 2
2 2 2
2 2 2
2 2 2
2 2 2
2 2 2
2 2 2
2 2 2
2 2 2
1 1 1
1 1 1
1 1 1
2 2 2
2 2 2
2 2 2
2 2 2
2 2 2
2 2 2
2 2 2
2 2 2
15 15 15
4 4 4
1 1 1
11 11 11
11 11 11
7 7 7
6 6 6
11 11 11
21 21 21
3 3 3
2 2 2
2 2 2
2 2 2
2 2 2
2 2 2
2 2 2
2 2 2
2 2 2
2 2 2
2 2 2
2 2 2
2 2 2
2 2 2
0 0 0
0 0 0
2 2 2
2 2 2
2 2 2
2 2 2
2 2 2
2 2 2
2 2 2
2 2 2
2 2 2
2 2 2
2 2 2
2 2 2
2 2 2
2 2 2
2 2 2
2 2 2
1 1 1
2 2 2
2 2 2
2 2 2
2 2 2
2 2 2
2 2 2
3 3 3
2 2 2
3 3 3
10 10 10
4 4 4
9 9 9
5 5 5
15 15 15
11 11 11
2 2 2
2 2 2
2 2 2
2 2 2
2 2 2
2 2 2
2 2 2
2 2 2
2 2 2
2 2 2
2 2 2
2 2 2
2 2 2
2 2 2
2 2 2
2 2 2
0 0 0
0 0 0
0 0 0
0 0 0
0 0 0
0 0 0
0 0 0
0 0 0
0 0 0
0 0 0
0 0 0
0 0 0
0 0 0
0 0 0
0 0 0
0 0 0
0 0 0
0 0 0
0 0 0
0 0 0
0 0 0
0 0 0
0 0 0
0 0 0
0 0 0
0 0 0
0 0 0
0 0 0
0 0 0
0 0 0
0 0 0
0 0 0
0 0 0
0 0 0
0 0 0
0 0 0
0 0 0
0 0 0
0 0 0
0 0 0
0 0 0
0 0 0
0 0 0
0 0 0
0 0 0
0 0 0
0 0 0
0 0 0
0 0 0
0 0 0
0 0 0
