P3 
50 50 
255
0 0 0
0 0 0
0 0 0
0 0 0
0 0 0
0 0 0
0 0 0
0 0 0
0 0 0
0 0 0
0 0 0
0 0 0
0 0 0
0 0 0
0 0 0
0 0 0
0 0 0
0 0 0
0 0 0
0 0 0
0 0 0
0 0 0
0 0 0
0 0 0
0 0 0
0 0 0
0 0 0
0 0 0
0 0 0
0 0 0
0 0 0
0 0 0
0 0 0
0 0 0
0 0 0
0 0 0
0 0 0
0 0 0
0 0 0
0 0 0
0 0 0
0 0 0
0 0 0
0 0 0
0 0 0
0 0 0
0 0 0
0 0 0
0 0 0
0 0 0
0 0 0
2 2 2
2 2 2
2 2 2
2 2 2
2 2 2
2 2 2
2 2 2
2 2 2
2 2 2
2 2 2
2 2 2
2 2 2
2 2 2
2 2 2
2 2 2
2 2 2
1 1 1
0 0 0
3 3 3
3 3 3
2 2 2
3 3 3
3 3 3
3 3 3
4 4 4
3 3 3
2 2 2
8 8 8
8 8 8
10 10 10
7 7 7
3 3 3
2 2 2
2 2 2
2 2 2
2 2 2
2 2 2
2 2 2
2 2 2
2 2 2
2 2 2
2 2 2
2 2 2
2 2 2
2 2 2
2 2 2
2 2 2
2 2 2
0 0 0
0 0 0
2 2 2
2 2 2
2 2 2
2 2 2
2 2 2
2 2 2
2 2 2
2 2 2
2 2 2
2 2 2
2 2 2
2 2 2
2 2 2
2 2 2
0 0 0
0 0 0
1 1 1
0 0 0
2 2 2
2 2 2
2 2 2
3 3 3
3 3 3
4 4 4
4 4 4
2 2 2
1 1 1
13 13 13
11 11 11
8 8 8
13 13 13
13 13 13
13 13 13
13 13 13
2 2 2
2 2 2
2 2 2
2 2 2
2 2 2
2 2 2
2 2 2
2 2 2
2 2 2
2 2 2
2 2 2
2 2 2
2 2 2
2 2 2
0 0 0
0 0 0
2 2 2
2 2 2
2 2 2
2 2 2
2 2 2
2 2 2
2 2 2
2 2 2
2 2 2
2 2 2
2 2 2
2 2 2
1 1 1
1 1 1
2 2 2
2 2 2
2 2 2
2 2 2
2 2 2
2 2 2
2 2 2
2 2 2
3 3 3
4 4 4
2 2 2
2 2 2
16 16 16
16 16 16
12 12 12
15 15 15
5 5 5
5 5 5
14 14 14
9 9 9
15 15 15
15 15 15
2 2 2
2 2 2
2 2 2
2 2 2
2 2 2
2 2 2
2 2 2
2 2 2
2 2 2
2 2 2
2 2 2
2 2 2
0 0 0
0 0 0
2 2 2
2 2 2
2 2 2
2 2 2
2 2 2
2 2 2
2 2 2
2 2 2
2 2 2
2 2 2
1 1 1
1 1 1
2 2 2
2 2 2
2 2 2
2 2 2
2 2 2
3 3 3
3 3 3
3 3 3
3 3 3
2 2 2
2 2 2
5 5 5
9 9 9
12 12 12
22 22 22
20 20 20
25 25 25
31 31 31
24 24 24
16 16 16
7 7 7
12 12 12
10 10 10
17 17 17
8 8 8
8 8 8
2 2 2
2 2 2
2 2 2
2 2 2
2 2 2
2 2 2
2 2 2
2 2 2
2 2 2
2 2 2
0 0 0
0 0 0
2 2 2
2 2 2
2 2 2
2 2 2
2 2 2
2 2 2
2 2 2
2 2 2
2 2 2
2 2 2
2 2 2
2 2 2
2 2 2
3 3 3
3 3 3
3 3 3
3 3 3
3 3 3
3 3 3
3 3 3
4 4 4
7 7 7
9 9 9
15 15 15
16 16 16
13 13 13
2 2 2
17 17 17
79 79 79
49 49 49
87 87 87
38 38 38
13 13 13
4 4 4
7 7 7
12 12 12
5 5 5
7 7 7
11 11 11
2 2 2
2 2 2
2 2 2
2 2 2
2 2 2
2 2 2
2 2 2
2 2 2
2 2 2
0 0 0
0 0 0
2 2 2
2 2 2
2 2 2
2 2 2
2 2 2
2 2 2
2 2 2
2 2 2
2 2 2
2 2 2
2 2 2
2 2 2
3 3 3
3 3 3
3 3 3
3 3 3
3 3 3
3 3 3
3 3 3
2 2 2
12 12 12
78 78 78
83 83 83
85 85 85
73 73 73
78 78 78
72 72 72
70 70 70
86 86 86
71 71 71
45 45 45
44 44 44
22 22 22
7 7 7
8 8 8
6 6 6
5 5 5
6 6 6
13 13 13
10 10 10
4 4 4
2 2 2
2 2 2
2 2 2
2 2 2
2 2 2
2 2 2
2 2 2
0 0 0
0 0 0
2 2 2
2 2 2
2 2 2
2 2 2
2 2 2
2 2 2
2 2 2
2 2 2
2 2 2
3 3 3
4 4 4
4 4 4
4 4 4
1 1 1
1 1 1
1 1 1
2 2 2
1 1 1
3 3 3
44 44 44
83 83 83
82 82 82
87 87 87
54 54 54
87 87 87
90 90 90
132 132 132
173 173 173
195 195 195
181 181 181
130 130 130
107 107 107
85 85 85
77 77 77
25 25 25
10 10 10
9 9 9
6 6 6
6 6 6
6 6 6
19 19 19
11 11 11
2 2 2
2 2 2
2 2 2
2 2 2
2 2 2
2 2 2
0 0 0
0 0 0
2 2 2
2 2 2
2 2 2
2 2 2
2 2 2
2 2 2
2 2 2
2 2 2
3 3 3
5 5 5
6 6 6
2 2 2
0 0 0
28 28 28
81 81 81
79 79 79
80 80 80
80 80 80
81 81 81
79 79 79
83 83 83
88 88 88
89 89 89
63 63 63
107 107 107
205 205 205
49 49 49
73 73 73
80 80 80
161 161 161
192 192 192
206 206 206
206 206 206
185 185 185
93 93 93
63 63 63
16 16 16
8 8 8
6 6 6
7 7 7
13 13 13
42 42 42
4 4 4
2 2 2
2 2 2
2 2 2
2 2 2
2 2 2
0 0 0
0 0 0
2 2 2
2 2 2
2 2 2
2 2 2
2 2 2
2 2 2
3 3 3
2 2 2
3 3 3
2 2 2
1 1 1
8 8 8
73 73 73
77 77 77
78 78 78
81 81 81
84 84 84
84 84 84
90 90 90
106 106 106
118 118 118
103 103 103
87 87 87
60 60 60
160 160 160
129 129 129
95 95 95
40 40 40
94 94 94
143 143 143
170 170 170
172 172 172
178 178 178
184 184 184
198 198 198
122 122 122
87 87 87
46 46 46
18 18 18
4 4 4
9 9 9
18 18 18
26 26 26
2 2 2
2 2 2
2 2 2
2 2 2
2 2 2
0 0 0
0 0 0
2 2 2
2 2 2
2 2 2
2 2 2
2 2 2
2 2 2
3 3 3
2 2 2
0 0 0
25 25 25
83 83 83
78 78 78
81 81 81
93 93 93
86 86 86
87 87 87
85 85 85
86 86 86
93 93 93
97 97 97
113 113 113
97 97 97
150 150 150
7 7 7
108 108 108
50 50 50
61 61 61
133 133 133
114 114 114
89 89 89
89 89 89
89 89 89
93 93 93
129 129 129
176 176 176
197 197 197
200 200 200
109 109 109
83 83 83
19 19 19
7 7 7
9 9 9
48 48 48
19 19 19
2 2 2
2 2 2
2 2 2
2 2 2
0 0 0
0 0 0
2 2 2
2 2 2
2 2 2
2 2 2
3 3 3
2 2 2
3 3 3
0 0 0
63 63 63
77 77 77
76 76 76
121 121 121
125 125 125
83 83 83
92 92 92
84 84 84
83 83 83
86 86 86
83 83 83
87 87 87
89 89 89
130 130 130
113 113 113
55 55 55
164 164 164
28 28 28
83 83 83
125 125 125
87 87 87
87 87 87
88 88 88
88 88 88
88 88 88
90 90 90
99 99 99
153 153 153
188 188 188
205 205 205
148 148 148
78 78 78
20 20 20
14 14 14
16 16 16
19 19 19
21 21 21
2 2 2
2 2 2
2 2 2
0 0 0
0 0 0
2 2 2
2 2 2
2 2 2
3 3 3
3 3 3
3 3 3
3 3 3
15 15 15
75 75 75
75 75 75
126 126 126
141 141 141
80 80 80
78 78 78
120 120 120
83 83 83
85 85 85
80 80 80
85 85 85
87 87 87
92 92 92
90 90 90
103 103 103
32 32 32
184 184 184
152 152 152
125 125 125
87 87 87
87 87 87
87 87 87
88 88 88
88 88 88
87 87 87
89 89 89
90 90 90
93 93 93
115 115 115
139 139 139
187 187 187
145 145 145
81 81 81
22 22 22
13 13 13
40 40 40
17 17 17
7 7 7
2 2 2
2 2 2
0 0 0
0 0 0
2 2 2
2 2 2
2 2 2
2 2 2
2 2 2
3 3 3
3 3 3
64 64 64
76 76 76
79 79 79
119 119 119
119 119 119
74 74 74
76 76 76
85 85 85
86 86 86
85 85 85
78 78 78
85 85 85
86 86 86
91 91 91
111 111 111
198 198 198
52 52 52
138 138 138
117 117 117
89 89 89
87 87 87
88 88 88
87 87 87
87 87 87
87 87 87
87 87 87
89 89 89
89 89 89
87 87 87
87 87 87
87 87 87
132 132 132
196 196 196
138 138 138
82 82 82
9 9 9
54 54 54
17 17 17
90 90 90
2 2 2
2 2 2
0 0 0
0 0 0
2 2 2
2 2 2
2 2 2
2 2 2
3 3 3
4 4 4
0 0 0
78 78 78
76 76 76
80 80 80
112 112 112
118 118 118
81 81 81
75 75 75
79 79 79
84 84 84
83 83 83
84 84 84
86 86 86
83 83 83
128 128 128
180 180 180
99 99 99
128 128 128
161 161 161
188 188 188
85 85 85
85 85 85
87 87 87
87 87 87
88 88 88
88 88 88
88 88 88
87 87 87
87 87 87
86 86 86
86 86 86
88 88 88
90 90 90
163 163 163
195 195 195
113 113 113
55 55 55
36 36 36
14 14 14
80 80 80
5 5 5
2 2 2
0 0 0
0 0 0
2 2 2
1 1 1
1 1 1
1 1 1
2 2 2
2 2 2
1 1 1
79 79 79
76 76 76
78 78 78
32 32 32
2 2 2
6 6 6
63 63 63
106 106 106
80 80 80
82 82 82
86 86 86
88 88 88
82 82 82
87 87 87
114 114 114
107 107 107
150 150 150
129 129 129
90 90 90
85 85 85
86 86 86
86 86 86
87 87 87
87 87 87
88 88 88
87 87 87
87 87 87
87 87 87
87 87 87
87 87 87
87 87 87
87 87 87
92 92 92
168 168 168
199 199 199
85 85 85
23 23 23
12 12 12
59 59 59
25 25 25
2 2 2
0 0 0
0 0 0
2 2 2
1 1 1
1 1 1
2 2 2
1 1 1
2 2 2
1 1 1
77 77 77
81 81 81
78 78 78
2 2 2
1 1 1
1 1 1
0 0 0
0 0 0
84 84 84
87 87 87
110 110 110
88 88 88
84 84 84
88 88 88
89 89 89
96 96 96
128 128 128
103 103 103
86 86 86
87 87 87
87 87 87
87 87 87
87 87 87
88 88 88
88 88 88
87 87 87
88 88 88
87 87 87
88 88 88
87 87 87
87 87 87
87 87 87
87 87 87
128 128 128
195 195 195
110 110 110
40 40 40
12 12 12
39 39 39
15 15 15
3 3 3
0 0 0
0 0 0
2 2 2
1 1 1
1 1 1
2 2 2
1 1 1
2 2 2
1 1 1
83 83 83
83 83 83
95 95 95
0 0 0
1 1 1
1 1 1
1 1 1
1 1 1
109 109 109
89 89 89
85 85 85
85 85 85
88 88 88
89 89 89
89 89 89
109 109 109
102 102 102
127 127 127
87 87 87
87 87 87
87 87 87
87 87 87
87 87 87
87 87 87
87 87 87
88 88 88
86 86 86
87 87 87
88 88 88
87 87 87
87 87 87
86 86 86
88 88 88
135 135 135
189 189 189
131 131 131
38 38 38
15 15 15
25 25 25
14 14 14
18 18 18
0 0 0
0 0 0
1 1 1
2 2 2
1 1 1
2 2 2
1 1 1
15 15 15
37 37 37
88 88 88
119 119 119
104 104 104
32 32 32
16 16 16
42 42 42
25 25 25
56 56 56
118 118 118
119 119 119
101 101 101
89 89 89
81 81 81
89 89 89
92 92 92
107 107 107
96 96 96
115 115 115
86 86 86
88 88 88
87 87 87
87 87 87
88 88 88
87 87 87
88 88 88
87 87 87
88 88 88
87 87 87
87 87 87
89 89 89
88 88 88
86 86 86
89 89 89
138 138 138
177 177 177
131 131 131
30 30 30
21 21 21
18 18 18
14 14 14
18 18 18
0 0 0
0 0 0
2 2 2
1 1 1
2 2 2
3 3 3
0 0 0
57 57 57
86 86 86
97 97 97
98 98 98
6 6 6
15 15 15
62 62 62
81 81 81
81 81 81
93 93 93
87 87 87
3 3 3
0 0 0
0 0 0
6 6 6
89 89 89
143 143 143
108 108 108
96 96 96
84 84 84
86 86 86
86 86 86
87 87 87
87 87 87
88 88 88
87 87 87
87 87 87
87 87 87
86 86 86
87 87 87
86 86 86
90 90 90
87 87 87
91 91 91
134 134 134
162 162 162
173 173 173
131 131 131
35 35 35
22 22 22
15 15 15
14 14 14
13 13 13
0 0 0
0 0 0
1 1 1
1 1 1
2 2 2
4 4 4
84 84 84
87 87 87
86 86 86
54 54 54
11 11 11
5 5 5
1 1 1
2 2 2
2 2 2
4 4 4
4 4 4
1 1 1
5 5 5
4 4 4
3 3 3
1 1 1
47 47 47
128 128 128
122 122 122
85 85 85
85 85 85
87 87 87
87 87 87
86 86 86
86 86 86
87 87 87
88 88 88
87 87 87
87 87 87
87 87 87
86 86 86
89 89 89
89 89 89
88 88 88
98 98 98
127 127 127
173 173 173
168 168 168
130 130 130
38 38 38
21 21 21
12 12 12
17 17 17
13 13 13
0 0 0
0 0 0
1 1 1
1 1 1
2 2 2
15 15 15
90 90 90
88 88 88
116 116 116
124 124 124
80 80 80
124 124 124
116 116 116
87 87 87
53 53 53
30 30 30
23 23 23
32 32 32
21 21 21
5 5 5
3 3 3
1 1 1
39 39 39
144 144 144
124 124 124
85 85 85
85 85 85
88 88 88
87 87 87
87 87 87
86 86 86
87 87 87
87 87 87
87 87 87
87 87 87
88 88 88
88 88 88
87 87 87
88 88 88
88 88 88
89 89 89
107 107 107
169 169 169
178 178 178
125 125 125
38 38 38
21 21 21
10 10 10
20 20 20
12 12 12
0 0 0
0 0 0
2 2 2
1 1 1
2 2 2
1 1 1
74 74 74
88 88 88
86 86 86
93 93 93
16 16 16
12 12 12
8 8 8
3 3 3
22 22 22
59 59 59
66 66 66
42 42 42
2 2 2
2 2 2
1 1 1
0 0 0
90 90 90
121 121 121
112 112 112
104 104 104
84 84 84
87 87 87
86 86 86
86 86 86
87 87 87
87 87 87
87 87 87
87 87 87
87 87 87
87 87 87
87 87 87
87 87 87
89 89 89
87 87 87
88 88 88
92 92 92
134 134 134
185 185 185
125 125 125
41 41 41
18 18 18
10 10 10
22 22 22
14 14 14
0 0 0
0 0 0
1 1 1
1 1 1
2 2 2
1 1 1
0 0 0
74 74 74
87 87 87
101 101 101
89 89 89
6 6 6
1 1 1
22 22 22
73 73 73
90 90 90
76 76 76
93 93 93
10 10 10
54 54 54
81 81 81
79 79 79
60 60 60
89 89 89
112 112 112
98 98 98
113 113 113
86 86 86
87 87 87
87 87 87
87 87 87
87 87 87
88 88 88
87 87 87
88 88 88
87 87 87
87 87 87
88 88 88
88 88 88
88 88 88
88 88 88
90 90 90
134 134 134
195 195 195
103 103 103
30 30 30
19 19 19
9 9 9
24 24 24
13 13 13
0 0 0
0 0 0
1 1 1
1 1 1
1 1 1
2 2 2
0 0 0
24 24 24
66 66 66
87 87 87
133 133 133
81 81 81
18 18 18
5 5 5
4 4 4
13 13 13
38 38 38
121 121 121
131 131 131
103 103 103
80 80 80
86 86 86
88 88 88
85 85 85
88 88 88
125 125 125
106 106 106
104 104 104
87 87 87
88 88 88
88 88 88
87 87 87
87 87 87
87 87 87
87 87 87
88 88 88
87 87 87
89 89 89
89 89 89
88 88 88
88 88 88
98 98 98
179 179 179
209 209 209
74 74 74
27 27 27
20 20 20
10 10 10
24 24 24
12 12 12
0 0 0
0 0 0
1 1 1
1 1 1
1 1 1
1 1 1
1 1 1
1 1 1
0 0 0
86 86 86
85 85 85
78 78 78
92 92 92
1 1 1
1 1 1
1 1 1
0 0 0
31 31 31
111 111 111
101 101 101
88 88 88
85 85 85
87 87 87
85 85 85
91 91 91
91 91 91
108 108 108
89 89 89
87 87 87
87 87 87
87 87 87
88 88 88
88 88 88
87 87 87
88 88 88
88 88 88
87 87 87
88 88 88
88 88 88
88 88 88
88 88 88
153 153 153
206 206 206
114 114 114
41 41 41
17 17 17
25 25 25
10 10 10
24 24 24
12 12 12
0 0 0
0 0 0
0 0 0
1 1 1
1 1 1
1 1 1
1 1 1
2 2 2
1 1 1
79 79 79
77 77 77
77 77 77
99 99 99
0 0 0
2 2 2
0 0 0
2 2 2
84 84 84
85 85 85
87 87 87
86 86 86
86 86 86
85 85 85
100 100 100
94 94 94
89 89 89
97 97 97
91 91 91
87 87 87
87 87 87
87 87 87
87 87 87
88 88 88
88 88 88
87 87 87
87 87 87
87 87 87
88 88 88
88 88 88
88 88 88
109 109 109
196 196 196
167 167 167
78 78 78
27 27 27
7 7 7
30 30 30
9 9 9
23 23 23
14 14 14
0 0 0
0 0 0
1 1 1
0 0 0
1 1 1
1 1 1
1 1 1
2 2 2
1 1 1
63 63 63
76 76 76
81 81 81
91 91 91
16 16 16
13 13 13
81 81 81
85 85 85
80 80 80
88 88 88
86 86 86
87 87 87
87 87 87
87 87 87
107 107 107
85 85 85
116 116 116
95 95 95
124 124 124
113 113 113
86 86 86
87 87 87
88 88 88
88 88 88
88 88 88
88 88 88
87 87 87
88 88 88
88 88 88
89 89 89
105 105 105
176 176 176
187 187 187
85 85 85
43 43 43
22 22 22
29 29 29
31 31 31
11 11 11
20 20 20
14 14 14
0 0 0
0 0 0
1 1 1
1 1 1
1 1 1
0 0 0
1 1 1
2 2 2
2 2 2
10 10 10
76 76 76
76 76 76
93 93 93
136 136 136
101 101 101
76 76 76
76 76 76
78 78 78
86 86 86
81 81 81
87 87 87
87 87 87
89 89 89
85 85 85
81 81 81
208 208 208
149 149 149
69 69 69
132 132 132
86 86 86
86 86 86
87 87 87
87 87 87
87 87 87
88 88 88
88 88 88
90 90 90
95 95 95
136 136 136
187 187 187
202 202 202
89 89 89
64 64 64
23 23 23
26 26 26
37 37 37
28 28 28
12 12 12
18 18 18
13 13 13
0 0 0
0 0 0
1 1 1
1 1 1
1 1 1
1 1 1
1 1 1
1 1 1
1 1 1
0 0 0
77 77 77
74 74 74
91 91 91
139 139 139
75 75 75
75 75 75
88 88 88
93 93 93
85 85 85
85 85 85
80 80 80
87 87 87
88 88 88
88 88 88
101 101 101
130 130 130
213 213 213
189 189 189
129 129 129
107 107 107
86 86 86
86 86 86
87 87 87
87 87 87
87 87 87
89 89 89
104 104 104
180 180 180
201 201 201
182 182 182
88 88 88
59 59 59
19 19 19
17 17 17
31 31 31
23 23 23
20 20 20
14 14 14
16 16 16
14 14 14
0 0 0
0 0 0
1 1 1
1 1 1
1 1 1
0 0 0
1 1 1
1 1 1
1 1 1
1 1 1
1 1 1
77 77 77
77 77 77
108 108 108
91 91 91
85 85 85
86 86 86
97 97 97
96 96 96
85 85 85
85 85 85
84 84 84
88 88 88
152 152 152
117 117 117
153 153 153
108 108 108
58 58 58
5 5 5
157 157 157
105 105 105
93 93 93
98 98 98
123 123 123
128 128 128
163 163 163
189 189 189
212 212 212
124 124 124
84 84 84
41 41 41
26 26 26
21 21 21
19 19 19
15 15 15
31 31 31
12 12 12
18 18 18
13 13 13
14 14 14
0 0 0
0 0 0
0 0 0
1 1 1
1 1 1
1 1 1
1 1 1
1 1 1
1 1 1
1 1 1
0 0 0
15 15 15
78 78 78
78 78 78
89 89 89
92 92 92
88 88 88
88 88 88
87 87 87
87 87 87
87 87 87
84 84 84
97 97 97
145 145 145
108 108 108
80 80 80
3 3 3
119 119 119
80 80 80
13 13 13
43 43 43
129 129 129
115 115 115
156 156 156
191 191 191
202 202 202
187 187 187
94 94 94
72 72 72
21 21 21
18 18 18
13 13 13
16 16 16
27 27 27
12 12 12
32 32 32
9 9 9
24 24 24
13 13 13
18 18 18
0 0 0
0 0 0
1 1 1
1 1 1
1 1 1
1 1 1
1 1 1
1 1 1
1 1 1
1 1 1
0 0 0
1 1 1
2 2 2
59 59 59
78 78 78
77 77 77
78 78 78
80 80 80
80 80 80
82 82 82
78 78 78
79 79 79
82 82 82
94 94 94
93 93 93
35 35 35
9 9 9
173 173 173
97 97 97
45 45 45
54 54 54
38 38 38
161 161 161
193 193 193
215 215 215
131 131 131
81 81 81
26 26 26
10 10 10
5 5 5
13 13 13
26 26 26
28 28 28
12 12 12
26 26 26
35 35 35
9 9 9
36 36 36
14 14 14
29 29 29
0 0 0
0 0 0
2 2 2
1 1 1
1 1 1
1 1 1
1 1 1
2 2 2
1 1 1
1 1 1
1 1 1
2 2 2
3 3 3
0 0 0
4 4 4
62 62 62
79 79 79
78 78 78
79 79 79
79 79 79
79 79 79
79 79 79
78 78 78
80 80 80
92 92 92
55 55 55
26 26 26
87 87 87
115 115 115
180 180 180
200 200 200
187 187 187
147 147 147
105 105 105
82 82 82
53 53 53
5 5 5
4 4 4
4 4 4
4 4 4
16 16 16
11 11 11
20 20 20
21 21 21
32 32 32
52 52 52
9 9 9
52 52 52
13 13 13
2 2 2
0 0 0
0 0 0
2 2 2
1 1 1
1 1 1
1 1 1
2 2 2
2 2 2
2 2 2
1 1 1
1 1 1
1 1 1
1 1 1
2 2 2
1 1 1
1 1 1
0 0 0
0 0 0
1 1 1
1 1 1
2 2 2
10 10 10
22 22 22
67 67 67
83 83 83
91 91 91
34 34 34
88 88 88
15 15 15
44 44 44
83 83 83
20 20 20
12 12 12
1 1 1
3 3 3
5 5 5
2 2 2
6 6 6
11 11 11
9 9 9
16 16 16
16 16 16
16 16 16
17 17 17
23 23 23
25 25 25
10 10 10
74 74 74
23 23 23
2 2 2
0 0 0
0 0 0
2 2 2
2 2 2
2 2 2
3 3 3
3 3 3
3 3 3
3 3 3
3 3 3
1 1 1
2 2 2
3 3 3
2 2 2
2 2 2
2 2 2
2 2 2
2 2 2
2 2 2
3 3 3
2 2 2
2 2 2
1 1 1
1 1 1
2 2 2
27 27 27
14 14 14
63 63 63
0 0 0
42 42 42
48 48 48
79 79 79
34 34 34
17 17 17
4 4 4
4 4 4
5 5 5
7 7 7
7 7 7
13 13 13
10 10 10
11 11 11
13 13 13
26 26 26
10 10 10
8 8 8
10 10 10
82 82 82
9 9 9
2 2 2
0 0 0
0 0 0
2 2 2
2 2 2
1 1 1
2 2 2
2 2 2
3 3 3
2 2 2
3 3 3
3 3 3
3 3 3
3 3 3
2 2 2
3 3 3
2 2 2
2 2 2
2 2 2
1 1 1
2 2 2
2 2 2
3 3 3
2 2 2
2 2 2
2 2 2
2 2 2
2 2 2
0 0 0
1 1 1
5 5 5
68 68 68
43 43 43
3 3 3
5 5 5
5 5 5
5 5 5
5 5 5
5 5 5
11 11 11
15 15 15
7 7 7
11 11 11
20 20 20
12 12 12
35 35 35
9 9 9
14 14 14
72 72 72
2 2 2
2 2 2
0 0 0
0 0 0
2 2 2
2 2 2
2 2 2
2 2 2
2 2 2
2 2 2
3 3 3
2 2 2
3 3 3
3 3 3
2 2 2
2 2 2
3 3 3
3 3 3
3 3 3
2 2 2
2 2 2
2 2 2
4 4 4
3 3 3
3 3 3
3 3 3
2 2 2
3 3 3
2 2 2
2 2 2
2 2 2
2 2 2
1 1 1
2 2 2
4 4 4
4 4 4
4 4 4
5 5 5
5 5 5
5 5 5
5 5 5
12 12 12
11 11 11
14 14 14
17 17 17
11 11 11
42 42 42
10 10 10
16 16 16
11 11 11
2 2 2
2 2 2
0 0 0
0 0 0
2 2 2
2 2 2
2 2 2
2 2 2
2 2 2
2 2 2
3 3 3
3 3 3
3 3 3
2 2 2
3 3 3
3 3 3
3 3 3
4 4 4
3 3 3
3 3 3
4 4 4
3 3 3
3 3 3
3 3 3
3 3 3
3 3 3
3 3 3
2 2 2
2 2 2
2 2 2
1 1 1
2 2 2
3 3 3
4 4 4
4 4 4
5 5 5
4 4 4
4 4 4
4 4 4
4 4 4
6 6 6
16 16 16
16 16 16
19 19 19
4 4 4
10 10 10
16 16 16
13 13 13
34 34 34
2 2 2
2 2 2
2 2 2
0 0 0
0 0 0
2 2 2
2 2 2
2 2 2
2 2 2
2 2 2
2 2 2
3 3 3
2 2 2
2 2 2
3 3 3
3 3 3
3 3 3
3 3 3
3 3 3
4 4 4
3 3 3
3 3 3
3 3 3
3 3 3
4 4 4
4 4 4
3 3 3
3 3 3
2 2 2
2 2 2
2 2 2
3 3 3
2 2 2
3 3 3
3 3 3
4 4 4
5 5 5
5 5 5
5 5 5
4 4 4
4 4 4
9 9 9
29 29 29
9 9 9
21 21 21
24 24 24
33 33 33
10 10 10
17 17 17
2 2 2
2 2 2
2 2 2
2 2 2
0 0 0
0 0 0
2 2 2
2 2 2
2 2 2
2 2 2
2 2 2
1 1 1
2 2 2
2 2 2
3 3 3
3 3 3
3 3 3
3 3 3
3 3 3
3 3 3
3 3 3
4 4 4
3 3 3
3 3 3
4 4 4
4 4 4
4 4 4
3 3 3
3 3 3
3 3 3
3 3 3
4 4 4
4 4 4
4 4 4
5 5 5
5 5 5
5 5 5
4 4 4
4 4 4
5 5 5
4 4 4
15 15 15
12 12 12
25 25 25
21 21 21
31 31 31
6 6 6
37 37 37
13 13 13
5 5 5
2 2 2
2 2 2
2 2 2
2 2 2
0 0 0
0 0 0
2 2 2
2 2 2
2 2 2
2 2 2
2 2 2
2 2 2
1 1 1
1 1 1
1 1 1
2 2 2
2 2 2
2 2 2
3 3 3
3 3 3
4 4 4
4 4 4
3 3 3
4 4 4
5 5 5
7 7 7
5 5 5
4 4 4
3 3 3
4 4 4
4 4 4
4 4 4
4 4 4
3 3 3
5 5 5
4 4 4
5 5 5
4 4 4
4 4 4
8 8 8
12 12 12
11 11 11
8 8 8
24 24 24
9 9 9
23 23 23
25 25 25
15 15 15
10 10 10
2 2 2
2 2 2
2 2 2
2 2 2
2 2 2
0 0 0
0 0 0
2 2 2
2 2 2
2 2 2
2 2 2
2 2 2
2 2 2
2 2 2
1 1 1
1 1 1
1 1 1
1 1 1
1 1 1
1 1 1
2 2 2
2 2 2
3 3 3
3 3 3
3 3 3
2 2 2
19 19 19
27 27 27
4 4 4
3 3 3
4 4 4
4 4 4
3 3 3
4 4 4
4 4 4
4 4 4
4 4 4
4 4 4
6 6 6
11 11 11
6 6 6
5 5 5
4 4 4
17 17 17
15 15 15
16 16 16
24 24 24
52 52 52
17 17 17
2 2 2
2 2 2
2 2 2
2 2 2
2 2 2
2 2 2
0 0 0
0 0 0
2 2 2
2 2 2
2 2 2
2 2 2
2 2 2
2 2 2
2 2 2
2 2 2
1 1 1
1 1 1
1 1 1
1 1 1
1 1 1
1 1 1
1 1 1
2 2 2
1 1 1
1 1 1
1 1 1
1 1 1
5 5 5
14 14 14
2 2 2
4 4 4
4 4 4
4 4 4
3 3 3
4 4 4
4 4 4
5 5 5
11 11 11
7 7 7
8 8 8
13 13 13
15 15 15
11 11 11
22 22 22
12 12 12
29 29 29
13 13 13
13 13 13
2 2 2
2 2 2
2 2 2
2 2 2
2 2 2
2 2 2
2 2 2
0 0 0
0 0 0
2 2 2
2 2 2
2 2 2
2 2 2
2 2 2
2 2 2
2 2 2
2 2 2
2 2 2
0 0 0
1 1 1
1 1 1
1 1 1
2 2 2
1 1 1
1 1 1
1 1 1
2 2 2
1 1 1
2 2 2
1 1 1
2 2 2
9 9 9
2 2 2
2 2 2
5 5 5
3 3 3
2 2 2
2 2 2
11 11 11
12 12 12
14 14 14
13 13 13
9 9 9
9 9 9
13 13 13
19 19 19
20 20 20
21 21 21
5 5 5
2 2 2
2 2 2
2 2 2
2 2 2
2 2 2
2 2 2
2 2 2
2 2 2
0 0 0
0 0 0
2 2 2
2 2 2
2 2 2
2 2 2
2 2 2
2 2 2
2 2 2
2 2 2
2 2 2
2 2 2
1 1 1
0 0 0
0 0 0
0 0 0
1 1 1
2 2 2
1 1 1
1 1 1
1 1 1
1 1 1
2 2 2
2 2 2
1 1 1
15 15 15
2 2 2
5 5 5
5 5 5
3 3 3
6 6 6
22 22 22
13 13 13
12 12 12
9 9 9
16 16 16
12 12 12
13 13 13
13 13 13
34 34 34
2 2 2
2 2 2
2 2 2
2 2 2
2 2 2
2 2 2
2 2 2
2 2 2
2 2 2
2 2 2
0 0 0
0 0 0
2 2 2
2 2 2
2 2 2
2 2 2
2 2 2
2 2 2
2 2 2
2 2 2
2 2 2
2 2 2
2 2 2
2 2 2
1 1 1
1 1 1
1 1 1
1 1 1
1 1 1
1 1 1
1 1 1
0 0 0
2 2 2
1 1 1
1 1 1
1 1 1
17 17 17
10 10 10
11 11 11
4 4 4
9 9 9
10 10 10
10 10 10
14 14 14
8 8 8
10 10 10
16 16 16
23 23 23
5 5 5
2 2 2
2 2 2
2 2 2
2 2 2
2 2 2
2 2 2
2 2 2
2 2 2
2 2 2
2 2 2
2 2 2
0 0 0
0 0 0
2 2 2
2 2 2
2 2 2
2 2 2
2 2 2
2 2 2
2 2 2
2 2 2
2 2 2
2 2 2
2 2 2
2 2 2
2 2 2
2 2 2
0 0 0
1 1 1
1 1 1
1 1 1
1 1 1
1 1 1
1 1 1
2 2 2
2 2 2
2 2 2
5 5 5
16 16 16
21 21 21
18 18 18
9 9 9
12 12 12
14 14 14
8 8 8
14 14 14
18 18 18
4 4 4
2 2 2
2 2 2
2 2 2
2 2 2
2 2 2
2 2 2
2 2 2
2 2 2
2 2 2
2 2 2
2 2 2
2 2 2
2 2 2
0 0 0
0 0 0
2 2 2
2 2 2
2 2 2
2 2 2
2 2 2
2 2 2
2 2 2
2 2 2
2 2 2
2 2 2
2 2 2
2 2 2
2 2 2
2 2 2
2 2 2
2 2 2
2 2 2
2 2 2
1 1 1
2 2 2
2 2 2
2 2 2
2 2 2
3 3 3
3 3 3
19 19 19
19 19 19
11 11 11
13 13 13
10 10 10
13 13 13
18 18 18
2 2 2
2 2 2
2 2 2
2 2 2
2 2 2
2 2 2
2 2 2
2 2 2
2 2 2
2 2 2
2 2 2
2 2 2
2 2 2
2 2 2
2 2 2
2 2 2
0 0 0
0 0 0
0 0 0
0 0 0
0 0 0
0 0 0
0 0 0
0 0 0
0 0 0
0 0 0
0 0 0
0 0 0
0 0 0
0 0 0
0 0 0
0 0 0
0 0 0
0 0 0
0 0 0
0 0 0
0 0 0
0 0 0
0 0 0
0 0 0
0 0 0
0 0 0
0 0 0
0 0 0
0 0 0
0 0 0
0 0 0
0 0 0
0 0 0
0 0 0
0 0 0
0 0 0
0 0 0
0 0 0
0 0 0
0 0 0
0 0 0
0 0 0
0 0 0
0 0 0
0 0 0
0 0 0
0 0 0
0 0 0
0 0 0
0 0 0
0 0 0
