P3 
50 50 
255
0 0 0
0 0 0
0 0 0
0 0 0
0 0 0
0 0 0
0 0 0
0 0 0
0 0 0
0 0 0
0 0 0
0 0 0
0 0 0
0 0 0
0 0 0
0 0 0
0 0 0
0 0 0
0 0 0
0 0 0
0 0 0
0 0 0
0 0 0
0 0 0
0 0 0
0 0 0
0 0 0
0 0 0
0 0 0
0 0 0
0 0 0
0 0 0
0 0 0
0 0 0
0 0 0
0 0 0
0 0 0
0 0 0
0 0 0
0 0 0
0 0 0
0 0 0
0 0 0
0 0 0
0 0 0
0 0 0
0 0 0
0 0 0
0 0 0
0 0 0
0 0 0
2 2 2
2 2 2
2 2 2
2 2 2
2 2 2
2 2 2
2 2 2
2 2 2
2 2 2
2 2 2
2 2 2
2 2 2
2 2 2
2 2 2
2 2 2
2 2 2
2 2 2
1 1 1
2 2 2
2 2 2
2 2 2
4 4 4
5 5 5
5 5 5
5 5 5
5 5 5
5 5 5
6 6 6
7 7 7
7 7 7
12 12 12
3 3 3
2 2 2
2 2 2
2 2 2
2 2 2
2 2 2
2 2 2
2 2 2
2 2 2
2 2 2
2 2 2
2 2 2
2 2 2
2 2 2
2 2 2
2 2 2
2 2 2
0 0 0
0 0 0
2 2 2
2 2 2
2 2 2
2 2 2
2 2 2
2 2 2
2 2 2
2 2 2
2 2 2
2 2 2
2 2 2
2 2 2
2 2 2
2 2 2
1 1 1
1 1 1
1 1 1
2 2 2
2 2 2
2 2 2
4 4 4
4 4 4
5 5 5
5 5 5
4 4 4
3 3 3
4 4 4
6 6 6
10 10 10
7 7 7
9 9 9
9 9 9
9 9 9
12 12 12
2 2 2
2 2 2
2 2 2
2 2 2
2 2 2
2 2 2
2 2 2
2 2 2
2 2 2
2 2 2
2 2 2
2 2 2
2 2 2
2 2 2
0 0 0
0 0 0
2 2 2
2 2 2
2 2 2
2 2 2
2 2 2
2 2 2
2 2 2
2 2 2
2 2 2
2 2 2
2 2 2
2 2 2
1 1 1
1 1 1
2 2 2
2 2 2
2 2 2
2 2 2
2 2 2
5 5 5
4 4 4
4 4 4
4 4 4
4 4 4
3 3 3
4 4 4
11 11 11
4 4 4
6 6 6
13 13 13
14 14 14
8 8 8
11 11 11
11 11 11
13 13 13
14 14 14
2 2 2
2 2 2
2 2 2
2 2 2
2 2 2
2 2 2
2 2 2
2 2 2
2 2 2
2 2 2
2 2 2
2 2 2
0 0 0
0 0 0
2 2 2
2 2 2
2 2 2
2 2 2
2 2 2
2 2 2
2 2 2
2 2 2
2 2 2
2 2 2
2 2 2
1 1 1
1 1 1
1 1 1
2 2 2
2 2 2
2 2 2
2 2 2
3 3 3
4 4 4
4 4 4
4 4 4
5 5 5
5 5 5
3 3 3
7 7 7
8 8 8
6 6 6
7 7 7
9 9 9
13 13 13
9 9 9
6 6 6
4 4 4
5 5 5
6 6 6
12 12 12
8 8 8
2 2 2
2 2 2
2 2 2
2 2 2
2 2 2
2 2 2
2 2 2
2 2 2
2 2 2
2 2 2
0 0 0
0 0 0
2 2 2
2 2 2
2 2 2
2 2 2
2 2 2
2 2 2
2 2 2
2 2 2
2 2 2
1 1 1
2 2 2
1 1 1
1 1 1
2 2 2
1 1 1
2 2 2
2 2 2
4 4 4
4 4 4
4 4 4
5 5 5
4 4 4
5 5 5
4 4 4
6 6 6
7 7 7
5 5 5
9 9 9
8 8 8
7 7 7
6 6 6
10 10 10
8 8 8
10 10 10
4 4 4
5 5 5
9 9 9
6 6 6
10 10 10
2 2 2
2 2 2
2 2 2
2 2 2
2 2 2
2 2 2
2 2 2
2 2 2
2 2 2
0 0 0
0 0 0
2 2 2
2 2 2
2 2 2
2 2 2
2 2 2
2 2 2
2 2 2
2 2 2
1 1 1
2 2 2
2 2 2
2 2 2
2 2 2
2 2 2
2 2 2
2 2 2
4 4 4
3 3 3
4 4 4
4 4 4
3 3 3
3 3 3
3 3 3
4 4 4
6 6 6
7 7 7
4 4 4
6 6 6
12 12 12
16 16 16
12 12 12
13 13 13
8 8 8
7 7 7
6 6 6
4 4 4
4 4 4
8 8 8
14 14 14
11 11 11
7 7 7
2 2 2
2 2 2
2 2 2
2 2 2
2 2 2
2 2 2
2 2 2
0 0 0
0 0 0
2 2 2
2 2 2
2 2 2
2 2 2
2 2 2
2 2 2
2 2 2
1 1 1
2 2 2
2 2 2
1 1 1
2 2 2
2 2 2
2 2 2
3 3 3
3 3 3
4 4 4
4 4 4
4 4 4
4 4 4
3 3 3
4 4 4
4 4 4
7 7 7
4 4 4
8 8 8
8 8 8
11 11 11
7 7 7
7 7 7
6 6 6
12 12 12
9 9 9
5 5 5
6 6 6
4 4 4
3 3 3
11 11 11
4 4 4
8 8 8
41 41 41
6 6 6
2 2 2
2 2 2
2 2 2
2 2 2
2 2 2
2 2 2
0 0 0
0 0 0
2 2 2
2 2 2
2 2 2
2 2 2
2 2 2
2 2 2
2 2 2
1 1 1
1 1 1
1 1 1
1 1 1
1 1 1
2 2 2
2 2 2
3 3 3
4 4 4
4 4 4
4 4 4
5 5 5
5 5 5
4 4 4
7 7 7
12 12 12
7 7 7
4 4 4
11 11 11
10 10 10
14 14 14
11 11 11
16 16 16
10 10 10
7 7 7
6 6 6
6 6 6
7 7 7
12 12 12
13 13 13
4 4 4
3 3 3
11 11 11
13 13 13
15 15 15
4 4 4
2 2 2
2 2 2
2 2 2
2 2 2
2 2 2
0 0 0
0 0 0
2 2 2
2 2 2
2 2 2
2 2 2
2 2 2
2 2 2
1 1 1
1 1 1
2 2 2
2 2 2
2 2 2
2 2 2
2 2 2
4 4 4
4 4 4
4 4 4
5 5 5
5 5 5
5 5 5
7 7 7
9 9 9
12 12 12
15 15 15
29 29 29
33 33 33
28 28 28
22 22 22
29 29 29
34 34 34
42 42 42
44 44 44
48 48 48
41 41 41
24 24 24
15 15 15
7 7 7
9 9 9
8 8 8
5 5 5
4 4 4
7 7 7
27 27 27
16 16 16
2 2 2
2 2 2
2 2 2
2 2 2
2 2 2
0 0 0
0 0 0
2 2 2
2 2 2
2 2 2
2 2 2
1 1 1
1 1 1
1 1 1
1 1 1
1 1 1
1 1 1
2 2 2
2 2 2
3 3 3
3 3 3
4 4 4
3 3 3
4 4 4
5 5 5
6 6 6
13 13 13
7 7 7
11 11 11
29 29 29
52 52 52
83 83 83
89 89 89
87 87 87
87 87 87
87 87 87
85 85 85
85 85 85
85 85 85
85 85 85
85 85 85
85 85 85
78 78 78
52 52 52
23 23 23
8 8 8
6 6 6
4 4 4
46 46 46
11 11 11
17 17 17
2 2 2
2 2 2
2 2 2
2 2 2
0 0 0
0 0 0
2 2 2
2 2 2
2 2 2
2 2 2
1 1 1
0 0 0
1 1 1
1 1 1
1 1 1
1 1 1
1 1 1
2 2 2
2 2 2
3 3 3
2 2 2
3 3 3
4 4 4
5 5 5
15 15 15
48 48 48
79 79 79
89 89 89
89 89 89
96 96 96
117 117 117
140 140 140
156 156 156
160 160 160
160 160 160
155 155 155
158 158 158
165 165 165
158 158 158
136 136 136
98 98 98
85 85 85
83 83 83
82 82 82
42 42 42
10 10 10
5 5 5
36 36 36
7 7 7
13 13 13
19 19 19
2 2 2
2 2 2
2 2 2
0 0 0
0 0 0
2 2 2
2 2 2
2 2 2
1 1 1
0 0 0
1 1 1
1 1 1
1 1 1
1 1 1
1 1 1
2 2 2
3 3 3
2 2 2
1 1 1
1 1 1
1 1 1
4 4 4
40 40 40
78 78 78
100 100 100
145 145 145
179 179 179
193 193 193
197 197 197
177 177 177
169 169 169
171 171 171
168 168 168
164 164 164
169 169 169
168 168 168
168 168 168
157 157 157
154 154 154
159 159 159
147 147 147
100 100 100
84 84 84
80 80 80
17 17 17
13 13 13
17 17 17
8 8 8
11 11 11
17 17 17
6 6 6
2 2 2
2 2 2
0 0 0
0 0 0
2 2 2
2 2 2
1 1 1
1 1 1
1 1 1
1 1 1
1 1 1
1 1 1
1 1 1
1 1 1
2 2 2
2 2 2
2 2 2
1 1 1
0 0 0
4 4 4
62 62 62
91 91 91
150 150 150
185 185 185
170 170 170
168 168 168
174 174 174
180 180 180
172 172 172
156 156 156
163 163 163
164 164 164
162 162 162
156 156 156
174 174 174
177 177 177
174 174 174
161 161 161
154 154 154
153 153 153
162 162 162
108 108 108
84 84 84
51 51 51
16 16 16
9 9 9
22 22 22
9 9 9
14 14 14
75 75 75
2 2 2
2 2 2
0 0 0
0 0 0
2 2 2
2 2 2
1 1 1
1 1 1
1 1 1
0 0 0
0 0 0
0 0 0
1 1 1
1 1 1
3 3 3
2 2 2
2 2 2
0 0 0
10 10 10
74 74 74
118 118 118
188 188 188
180 180 180
171 171 171
167 167 167
177 177 177
178 178 178
164 164 164
123 123 123
96 96 96
98 98 98
99 99 99
95 95 95
95 95 95
107 107 107
115 115 115
118 118 118
129 129 129
160 160 160
164 164 164
152 152 152
165 165 165
104 104 104
77 77 77
31 31 31
17 17 17
47 47 47
9 9 9
11 11 11
80 80 80
5 5 5
2 2 2
0 0 0
0 0 0
2 2 2
1 1 1
1 1 1
1 1 1
1 1 1
0 0 0
1 1 1
0 0 0
1 1 1
2 2 2
2 2 2
2 2 2
2 2 2
5 5 5
77 77 77
145 145 145
188 188 188
173 173 173
168 168 168
171 171 171
172 172 172
176 176 176
156 156 156
101 101 101
89 89 89
88 88 88
88 88 88
88 88 88
88 88 88
89 89 89
88 88 88
87 87 87
87 87 87
87 87 87
91 91 91
109 109 109
157 157 157
152 152 152
176 176 176
87 87 87
53 53 53
22 22 22
28 28 28
9 9 9
9 9 9
69 69 69
23 23 23
2 2 2
0 0 0
0 0 0
2 2 2
1 1 1
1 1 1
1 1 1
1 1 1
0 0 0
0 0 0
1 1 1
1 1 1
2 2 2
2 2 2
2 2 2
1 1 1
19 19 19
109 109 109
185 185 185
174 174 174
178 178 178
172 172 172
170 170 170
164 164 164
136 136 136
93 93 93
89 89 89
89 89 89
88 88 88
89 89 89
88 88 88
88 88 88
88 88 88
88 88 88
89 89 89
88 88 88
88 88 88
88 88 88
88 88 88
91 91 91
139 139 139
170 170 170
114 114 114
70 70 70
32 32 32
20 20 20
13 13 13
9 9 9
51 51 51
14 14 14
3 3 3
0 0 0
0 0 0
2 2 2
1 1 1
1 1 1
1 1 1
1 1 1
1 1 1
1 1 1
1 1 1
2 2 2
2 2 2
1 1 1
2 2 2
2 2 2
42 42 42
161 161 161
171 171 171
174 174 174
176 176 176
162 162 162
155 155 155
117 117 117
89 89 89
90 90 90
90 90 90
89 89 89
89 89 89
89 89 89
89 89 89
89 89 89
88 88 88
88 88 88
89 89 89
88 88 88
87 87 87
88 88 88
87 87 87
87 87 87
97 97 97
182 182 182
142 142 142
84 84 84
31 31 31
16 16 16
25 25 25
8 8 8
35 35 35
14 14 14
18 18 18
0 0 0
0 0 0
1 1 1
1 1 1
1 1 1
1 1 1
0 0 0
1 1 1
1 1 1
1 1 1
1 1 1
2 2 2
1 1 1
2 2 2
2 2 2
61 61 61
179 179 179
178 178 178
174 174 174
132 132 132
119 119 119
123 123 123
88 88 88
89 89 89
89 89 89
89 89 89
88 88 88
88 88 88
88 88 88
88 88 88
88 88 88
88 88 88
88 88 88
88 88 88
89 89 89
88 88 88
88 88 88
87 87 87
88 88 88
128 128 128
184 184 184
143 143 143
87 87 87
31 31 31
14 14 14
42 42 42
8 8 8
25 25 25
14 14 14
20 20 20
0 0 0
0 0 0
1 1 1
1 1 1
1 1 1
0 0 0
0 0 0
1 1 1
0 0 0
2 2 2
2 2 2
2 2 2
1 1 1
1 1 1
2 2 2
73 73 73
174 174 174
185 185 185
125 125 125
93 93 93
87 87 87
88 88 88
89 89 89
89 89 89
89 89 89
89 89 89
89 89 89
88 88 88
88 88 88
89 89 89
88 88 88
88 88 88
88 88 88
87 87 87
88 88 88
88 88 88
87 87 87
89 89 89
93 93 93
157 157 157
188 188 188
139 139 139
88 88 88
45 45 45
12 12 12
40 40 40
9 9 9
19 19 19
14 14 14
15 15 15
0 0 0
0 0 0
1 1 1
1 1 1
1 1 1
1 1 1
0 0 0
0 0 0
0 0 0
0 0 0
0 0 0
1 1 1
0 0 0
0 0 0
2 2 2
90 90 90
162 162 162
152 152 152
89 89 89
89 89 89
88 88 88
89 89 89
89 89 89
89 89 89
88 88 88
89 89 89
88 88 88
88 88 88
89 89 89
88 88 88
88 88 88
88 88 88
88 88 88
88 88 88
87 87 87
87 87 87
89 89 89
89 89 89
95 95 95
166 166 166
171 171 171
157 157 157
89 89 89
32 32 32
9 9 9
24 24 24
9 9 9
14 14 14
14 14 14
14 14 14
0 0 0
0 0 0
1 1 1
0 0 0
1 1 1
0 0 0
1 1 1
0 0 0
0 0 0
0 0 0
0 0 0
0 0 0
0 0 0
0 0 0
2 2 2
92 92 92
175 175 175
191 191 191
101 101 101
91 91 91
88 88 88
89 89 89
89 89 89
90 90 90
89 89 89
89 89 89
88 88 88
88 88 88
88 88 88
88 88 88
88 88 88
88 88 88
88 88 88
88 88 88
88 88 88
88 88 88
88 88 88
88 88 88
89 89 89
121 121 121
166 166 166
180 180 180
88 88 88
36 36 36
18 18 18
16 16 16
9 9 9
12 12 12
17 17 17
14 14 14
0 0 0
0 0 0
1 1 1
1 1 1
1 1 1
0 0 0
0 0 0
0 0 0
0 0 0
0 0 0
0 0 0
0 0 0
0 0 0
0 0 0
2 2 2
88 88 88
182 182 182
187 187 187
150 150 150
161 161 161
115 115 115
90 90 90
89 89 89
90 90 90
89 89 89
89 89 89
89 89 89
89 89 89
87 87 87
89 89 89
89 89 89
89 89 89
88 88 88
89 89 89
89 89 89
88 88 88
88 88 88
88 88 88
87 87 87
131 131 131
164 164 164
184 184 184
89 89 89
31 31 31
20 20 20
14 14 14
9 9 9
12 12 12
18 18 18
14 14 14
0 0 0
0 0 0
1 1 1
1 1 1
1 1 1
1 1 1
0 0 0
0 0 0
1 1 1
1 1 1
2 2 2
0 0 0
0 0 0
0 0 0
2 2 2
76 76 76
185 185 185
182 182 182
176 176 176
179 179 179
134 134 134
97 97 97
89 89 89
90 90 90
90 90 90
90 90 90
90 90 90
89 89 89
89 89 89
89 89 89
89 89 89
89 89 89
89 89 89
88 88 88
89 89 89
89 89 89
88 88 88
89 89 89
88 88 88
170 170 170
163 163 163
161 161 161
86 86 86
25 25 25
23 23 23
16 16 16
11 11 11
11 11 11
18 18 18
13 13 13
0 0 0
0 0 0
1 1 1
1 1 1
0 0 0
1 1 1
1 1 1
1 1 1
1 1 1
1 1 1
2 2 2
2 2 2
0 0 0
0 0 0
2 2 2
66 66 66
185 185 185
182 182 182
186 186 186
177 177 177
158 158 158
103 103 103
93 93 93
91 91 91
89 89 89
90 90 90
89 89 89
89 89 89
89 89 89
89 89 89
89 89 89
89 89 89
89 89 89
89 89 89
88 88 88
89 89 89
89 89 89
92 92 92
142 142 142
170 170 170
162 162 162
112 112 112
74 74 74
28 28 28
22 22 22
15 15 15
12 12 12
10 10 10
17 17 17
12 12 12
0 0 0
0 0 0
1 1 1
1 1 1
1 1 1
1 1 1
1 1 1
1 1 1
1 1 1
3 3 3
2 2 2
2 2 2
2 2 2
1 1 1
0 0 0
36 36 36
118 118 118
183 183 183
181 181 181
183 183 183
177 177 177
174 174 174
135 135 135
116 116 116
101 101 101
91 91 91
89 89 89
89 89 89
90 90 90
90 90 90
90 90 90
90 90 90
89 89 89
90 90 90
90 90 90
92 92 92
101 101 101
170 170 170
166 166 166
161 161 161
174 174 174
83 83 83
42 42 42
25 25 25
18 18 18
23 23 23
10 10 10
11 11 11
17 17 17
11 11 11
0 0 0
0 0 0
1 1 1
1 1 1
0 0 0
1 1 1
1 1 1
1 1 1
1 1 1
2 2 2
2 2 2
2 2 2
2 2 2
2 2 2
1 1 1
1 1 1
69 69 69
157 157 157
188 188 188
179 179 179
171 171 171
176 176 176
167 167 167
165 165 165
151 151 151
104 104 104
91 91 91
92 92 92
92 92 92
94 94 94
96 96 96
100 100 100
107 107 107
109 109 109
119 119 119
128 128 128
160 160 160
166 166 166
153 153 153
177 177 177
104 104 104
67 67 67
33 33 33
27 27 27
21 21 21
16 16 16
9 9 9
11 11 11
17 17 17
13 13 13
0 0 0
0 0 0
2 2 2
1 1 1
1 1 1
0 0 0
1 1 1
1 1 1
1 1 1
2 2 2
2 2 2
2 2 2
3 3 3
2 2 2
2 2 2
0 0 0
5 5 5
64 64 64
149 149 149
192 192 192
171 171 171
162 162 162
168 168 168
179 179 179
165 165 165
164 164 164
124 124 124
118 118 118
131 131 131
140 140 140
147 147 147
162 162 162
166 166 166
176 176 176
178 178 178
174 174 174
160 160 160
153 153 153
182 182 182
111 111 111
81 81 81
21 21 21
11 11 11
14 14 14
19 19 19
16 16 16
9 9 9
11 11 11
15 15 15
13 13 13
0 0 0
0 0 0
1 1 1
1 1 1
1 1 1
1 1 1
1 1 1
1 1 1
2 2 2
2 2 2
3 3 3
3 3 3
3 3 3
3 3 3
2 2 2
1 1 1
0 0 0
1 1 1
42 42 42
108 108 108
189 189 189
174 174 174
160 160 160
171 171 171
177 177 177
184 184 184
164 164 164
176 176 176
173 173 173
174 174 174
170 170 170
169 169 169
166 166 166
171 171 171
170 170 170
165 165 165
173 173 173
154 154 154
97 97 97
81 81 81
40 40 40
19 19 19
8 8 8
9 9 9
8 8 8
23 23 23
9 9 9
12 12 12
13 13 13
13 13 13
0 0 0
0 0 0
1 1 1
1 1 1
1 1 1
1 1 1
1 1 1
1 1 1
1 1 1
1 1 1
2 2 2
3 3 3
4 4 4
3 3 3
2 2 2
2 2 2
1 1 1
0 0 0
0 0 0
12 12 12
67 67 67
132 132 132
181 181 181
186 186 186
192 192 192
192 192 192
179 179 179
173 173 173
173 173 173
172 172 172
166 166 166
161 161 161
160 160 160
166 166 166
172 172 172
162 162 162
111 111 111
83 83 83
70 70 70
21 21 21
3 3 3
9 9 9
23 23 23
3 3 3
12 12 12
31 31 31
9 9 9
15 15 15
13 13 13
14 14 14
0 0 0
0 0 0
1 1 1
1 1 1
1 1 1
1 1 1
1 1 1
1 1 1
1 1 1
1 1 1
1 1 1
1 1 1
1 1 1
3 3 3
3 3 3
3 3 3
3 3 3
3 3 3
3 3 3
3 3 3
4 4 4
6 6 6
17 17 17
44 44 44
72 72 72
95 95 95
110 110 110
122 122 122
126 126 126
115 115 115
101 101 101
99 99 99
96 96 96
91 91 91
87 87 87
82 82 82
52 52 52
16 16 16
3 3 3
3 3 3
16 16 16
15 15 15
2 2 2
16 16 16
16 16 16
42 42 42
7 7 7
21 21 21
11 11 11
14 14 14
0 0 0
0 0 0
1 1 1
1 1 1
1 1 1
1 1 1
1 1 1
1 1 1
1 1 1
1 1 1
1 1 1
1 1 1
1 1 1
1 1 1
2 2 2
2 2 2
3 3 3
3 3 3
3 3 3
3 3 3
4 4 4
5 5 5
8 8 8
5 5 5
4 4 4
6 6 6
15 15 15
26 26 26
36 36 36
39 39 39
33 33 33
35 35 35
31 31 31
25 25 25
18 18 18
15 15 15
9 9 9
6 6 6
7 7 7
4 4 4
2 2 2
5 5 5
11 11 11
13 13 13
16 16 16
34 34 34
7 7 7
29 29 29
11 11 11
18 18 18
0 0 0
0 0 0
2 2 2
1 1 1
1 1 1
1 1 1
1 1 1
1 1 1
1 1 1
1 1 1
1 1 1
1 1 1
1 1 1
1 1 1
1 1 1
3 3 3
4 4 4
4 4 4
4 4 4
4 4 4
5 5 5
6 6 6
5 5 5
9 9 9
10 10 10
6 6 6
4 4 4
6 6 6
5 5 5
4 4 4
5 5 5
7 7 7
6 6 6
6 6 6
5 5 5
6 6 6
15 15 15
4 4 4
7 7 7
10 10 10
8 8 8
11 11 11
7 7 7
20 20 20
10 10 10
18 18 18
8 8 8
42 42 42
13 13 13
26 26 26
0 0 0
0 0 0
2 2 2
1 1 1
1 1 1
1 1 1
1 1 1
1 1 1
1 1 1
1 1 1
1 1 1
1 1 1
1 1 1
1 1 1
1 1 1
2 2 2
4 4 4
4 4 4
5 5 5
5 5 5
5 5 5
5 5 5
6 6 6
5 5 5
5 5 5
9 9 9
7 7 7
6 6 6
6 6 6
6 6 6
5 5 5
10 10 10
11 11 11
6 6 6
4 4 4
7 7 7
10 10 10
15 15 15
20 20 20
11 11 11
3 3 3
12 12 12
9 9 9
25 25 25
23 23 23
8 8 8
9 9 9
60 60 60
12 12 12
2 2 2
0 0 0
0 0 0
2 2 2
1 1 1
1 1 1
1 1 1
1 1 1
1 1 1
1 1 1
1 1 1
1 1 1
2 2 2
2 2 2
1 1 1
2 2 2
2 2 2
2 2 2
4 4 4
5 5 5
5 5 5
5 5 5
5 5 5
6 6 6
6 6 6
5 5 5
5 5 5
5 5 5
4 4 4
4 4 4
4 4 4
4 4 4
5 5 5
5 5 5
4 4 4
9 9 9
9 9 9
4 4 4
7 7 7
17 17 17
9 9 9
11 11 11
10 10 10
10 10 10
21 21 21
51 51 51
6 6 6
10 10 10
76 76 76
22 22 22
2 2 2
0 0 0
0 0 0
2 2 2
2 2 2
1 1 1
1 1 1
1 1 1
1 1 1
1 1 1
1 1 1
2 2 2
2 2 2
2 2 2
2 2 2
2 2 2
2 2 2
2 2 2
2 2 2
4 4 4
4 4 4
4 4 4
5 5 5
6 6 6
5 5 5
6 6 6
5 5 5
5 5 5
4 4 4
4 4 4
4 4 4
5 5 5
5 5 5
5 5 5
5 5 5
5 5 5
5 5 5
5 5 5
4 4 4
3 3 3
17 17 17
11 11 11
16 16 16
15 15 15
16 16 16
27 27 27
7 7 7
12 12 12
75 75 75
8 8 8
2 2 2
0 0 0
0 0 0
2 2 2
2 2 2
1 1 1
1 1 1
1 1 1
1 1 1
1 1 1
2 2 2
1 1 1
1 1 1
2 2 2
1 1 1
2 2 2
2 2 2
2 2 2
2 2 2
2 2 2
3 3 3
5 5 5
4 4 4
4 4 4
5 5 5
5 5 5
6 6 6
5 5 5
5 5 5
5 5 5
5 5 5
5 5 5
4 4 4
5 5 5
5 5 5
5 5 5
5 5 5
5 5 5
5 5 5
4 4 4
15 15 15
5 5 5
19 19 19
15 15 15
25 25 25
9 9 9
8 8 8
14 14 14
62 62 62
2 2 2
2 2 2
0 0 0
0 0 0
2 2 2
2 2 2
2 2 2
1 1 1
2 2 2
2 2 2
1 1 1
1 1 1
2 2 2
2 2 2
1 1 1
2 2 2
2 2 2
2 2 2
2 2 2
2 2 2
2 2 2
3 3 3
3 3 3
4 4 4
4 4 4
5 5 5
4 4 4
5 5 5
5 5 5
5 5 5
5 5 5
5 5 5
5 5 5
4 4 4
4 4 4
5 5 5
4 4 4
5 5 5
5 5 5
5 5 5
9 9 9
8 8 8
16 16 16
15 15 15
21 21 21
34 34 34
6 6 6
9 9 9
17 17 17
10 10 10
2 2 2
2 2 2
0 0 0
0 0 0
2 2 2
2 2 2
2 2 2
2 2 2
2 2 2
2 2 2
1 1 1
1 1 1
1 1 1
2 2 2
2 2 2
1 1 1
2 2 2
2 2 2
2 2 2
2 2 2
2 2 2
2 2 2
2 2 2
3 3 3
3 3 3
4 4 4
4 4 4
5 5 5
5 5 5
5 5 5
4 4 4
4 4 4
5 5 5
5 5 5
4 4 4
4 4 4
4 4 4
4 4 4
5 5 5
5 5 5
9 9 9
12 12 12
11 11 11
16 16 16
16 16 16
44 44 44
7 7 7
12 12 12
34 34 34
2 2 2
2 2 2
2 2 2
0 0 0
0 0 0
2 2 2
2 2 2
2 2 2
2 2 2
1 1 1
1 1 1
1 1 1
1 1 1
1 1 1
1 1 1
2 2 2
2 2 2
2 2 2
2 2 2
2 2 2
2 2 2
2 2 2
2 2 2
3 3 3
3 3 3
3 3 3
3 3 3
4 4 4
4 4 4
5 5 5
5 5 5
5 5 5
4 4 4
4 4 4
4 4 4
4 4 4
4 4 4
4 4 4
6 6 6
5 5 5
3 3 3
18 18 18
13 13 13
8 8 8
12 12 12
14 14 14
48 48 48
11 11 11
15 15 15
2 2 2
2 2 2
2 2 2
2 2 2
0 0 0
0 0 0
2 2 2
2 2 2
2 2 2
2 2 2
2 2 2
2 2 2
1 1 1
1 1 1
2 2 2
2 2 2
1 1 1
1 1 1
2 2 2
2 2 2
2 2 2
2 2 2
2 2 2
2 2 2
2 2 2
2 2 2
2 2 2
3 3 3
3 3 3
3 3 3
3 3 3
3 3 3
4 4 4
9 9 9
4 4 4
7 7 7
6 6 6
6 6 6
10 10 10
17 17 17
10 10 10
7 7 7
4 4 4
3 3 3
6 6 6
15 15 15
11 11 11
46 46 46
15 15 15
5 5 5
2 2 2
2 2 2
2 2 2
2 2 2
0 0 0
0 0 0
2 2 2
2 2 2
2 2 2
2 2 2
2 2 2
2 2 2
2 2 2
1 1 1
2 2 2
2 2 2
1 1 1
1 1 1
2 2 2
2 2 2
1 1 1
2 2 2
2 2 2
2 2 2
2 2 2
2 2 2
2 2 2
3 3 3
3 3 3
2 2 2
3 3 3
3 3 3
10 10 10
9 9 9
8 8 8
11 11 11
7 7 7
5 5 5
6 6 6
9 9 9
17 17 17
11 11 11
11 11 11
13 13 13
16 16 16
17 17 17
18 18 18
19 19 19
10 10 10
2 2 2
2 2 2
2 2 2
2 2 2
2 2 2
0 0 0
0 0 0
2 2 2
2 2 2
2 2 2
2 2 2
2 2 2
2 2 2
2 2 2
2 2 2
1 1 1
1 1 1
1 1 1
1 1 1
1 1 1
2 2 2
1 1 1
2 2 2
2 2 2
2 2 2
2 2 2
2 2 2
2 2 2
2 2 2
2 2 2
2 2 2
5 5 5
6 6 6
4 4 4
4 4 4
10 10 10
19 19 19
4 4 4
9 9 9
11 11 11
14 14 14
9 9 9
3 3 3
13 13 13
23 23 23
10 10 10
16 16 16
48 48 48
17 17 17
2 2 2
2 2 2
2 2 2
2 2 2
2 2 2
2 2 2
0 0 0
0 0 0
2 2 2
2 2 2
2 2 2
2 2 2
2 2 2
2 2 2
2 2 2
2 2 2
1 1 1
1 1 1
1 1 1
1 1 1
1 1 1
1 1 1
2 2 2
2 2 2
2 2 2
2 2 2
1 1 1
2 2 2
2 2 2
2 2 2
2 2 2
2 2 2
2 2 2
8 8 8
7 7 7
3 3 3
7 7 7
15 15 15
20 20 20
9 9 9
11 11 11
10 10 10
5 5 5
4 4 4
15 15 15
18 18 18
21 21 21
17 17 17
18 18 18
2 2 2
2 2 2
2 2 2
2 2 2
2 2 2
2 2 2
2 2 2
0 0 0
0 0 0
2 2 2
2 2 2
2 2 2
2 2 2
2 2 2
2 2 2
2 2 2
2 2 2
2 2 2
1 1 1
1 1 1
1 1 1
1 1 1
2 2 2
2 2 2
1 1 1
1 1 1
2 2 2
2 2 2
2 2 2
3 3 3
2 2 2
2 2 2
2 2 2
2 2 2
2 2 2
3 3 3
7 7 7
9 9 9
6 6 6
7 7 7
11 11 11
9 9 9
18 18 18
16 16 16
11 11 11
11 11 11
27 27 27
18 18 18
4 4 4
2 2 2
2 2 2
2 2 2
2 2 2
2 2 2
2 2 2
2 2 2
2 2 2
0 0 0
0 0 0
2 2 2
2 2 2
2 2 2
2 2 2
2 2 2
2 2 2
2 2 2
2 2 2
2 2 2
2 2 2
1 1 1
1 1 1
1 1 1
1 1 1
2 2 2
2 2 2
1 1 1
2 2 2
2 2 2
2 2 2
2 2 2
2 2 2
2 2 2
2 2 2
2 2 2
3 3 3
3 3 3
6 6 6
3 3 3
8 8 8
11 11 11
14 14 14
14 14 14
15 15 15
12 12 12
6 6 6
13 13 13
31 31 31
2 2 2
2 2 2
2 2 2
2 2 2
2 2 2
2 2 2
2 2 2
2 2 2
2 2 2
2 2 2
0 0 0
0 0 0
2 2 2
2 2 2
2 2 2
2 2 2
2 2 2
2 2 2
2 2 2
2 2 2
2 2 2
2 2 2
2 2 2
2 2 2
1 1 1
1 1 1
1 1 1
1 1 1
2 2 2
1 1 1
1 1 1
1 1 1
2 2 2
2 2 2
2 2 2
2 2 2
2 2 2
2 2 2
2 2 2
3 3 3
6 6 6
3 3 3
4 4 4
8 8 8
23 23 23
13 13 13
12 12 12
19 19 19
4 4 4
2 2 2
2 2 2
2 2 2
2 2 2
2 2 2
2 2 2
2 2 2
2 2 2
2 2 2
2 2 2
2 2 2
0 0 0
0 0 0
2 2 2
2 2 2
2 2 2
2 2 2
2 2 2
2 2 2
2 2 2
2 2 2
2 2 2
2 2 2
2 2 2
2 2 2
2 2 2
2 2 2
1 1 1
1 1 1
1 1 1
1 1 1
1 1 1
2 2 2
2 2 2
2 2 2
2 2 2
2 2 2
2 2 2
2 2 2
2 2 2
3 3 3
3 3 3
4 4 4
6 6 6
8 8 8
23 23 23
13 13 13
3 3 3
2 2 2
2 2 2
2 2 2
2 2 2
2 2 2
2 2 2
2 2 2
2 2 2
2 2 2
2 2 2
2 2 2
2 2 2
2 2 2
0 0 0
0 0 0
2 2 2
2 2 2
2 2 2
2 2 2
2 2 2
2 2 2
2 2 2
2 2 2
2 2 2
2 2 2
2 2 2
2 2 2
2 2 2
2 2 2
2 2 2
2 2 2
1 1 1
2 2 2
1 1 1
1 1 1
2 2 2
2 2 2
2 2 2
2 2 2
3 3 3
3 3 3
3 3 3
4 4 4
4 4 4
5 5 5
7 7 7
12 12 12
2 2 2
2 2 2
2 2 2
2 2 2
2 2 2
2 2 2
2 2 2
2 2 2
2 2 2
2 2 2
2 2 2
2 2 2
2 2 2
2 2 2
2 2 2
2 2 2
0 0 0
0 0 0
0 0 0
0 0 0
0 0 0
0 0 0
0 0 0
0 0 0
0 0 0
0 0 0
0 0 0
0 0 0
0 0 0
0 0 0
0 0 0
0 0 0
0 0 0
0 0 0
0 0 0
0 0 0
0 0 0
0 0 0
0 0 0
0 0 0
0 0 0
0 0 0
0 0 0
0 0 0
0 0 0
0 0 0
0 0 0
0 0 0
0 0 0
0 0 0
0 0 0
0 0 0
0 0 0
0 0 0
0 0 0
0 0 0
0 0 0
0 0 0
0 0 0
0 0 0
0 0 0
0 0 0
0 0 0
0 0 0
0 0 0
0 0 0
0 0 0
