P3 
50 50 
255
0 0 0
0 0 0
0 0 0
0 0 0
0 0 0
0 0 0
0 0 0
0 0 0
0 0 0
0 0 0
0 0 0
0 0 0
0 0 0
0 0 0
0 0 0
0 0 0
0 0 0
0 0 0
0 0 0
0 0 0
0 0 0
0 0 0
0 0 0
0 0 0
0 0 0
0 0 0
0 0 0
0 0 0
0 0 0
0 0 0
0 0 0
0 0 0
0 0 0
0 0 0
0 0 0
0 0 0
0 0 0
0 0 0
0 0 0
0 0 0
0 0 0
0 0 0
0 0 0
0 0 0
0 0 0
0 0 0
0 0 0
0 0 0
0 0 0
0 0 0
0 0 0
2 2 2
2 2 2
2 2 2
2 2 2
2 2 2
2 2 2
2 2 2
2 2 2
2 2 2
2 2 2
2 2 2
2 2 2
2 2 2
2 2 2
2 2 2
2 2 2
2 2 2
1 1 1
2 2 2
2 2 2
2 2 2
2 2 2
3 3 3
3 3 3
3 3 3
3 3 3
4 4 4
4 4 4
4 4 4
10 10 10
11 11 11
3 3 3
2 2 2
2 2 2
2 2 2
2 2 2
2 2 2
2 2 2
2 2 2
2 2 2
2 2 2
2 2 2
2 2 2
2 2 2
2 2 2
2 2 2
2 2 2
2 2 2
0 0 0
0 0 0
2 2 2
2 2 2
2 2 2
2 2 2
2 2 2
2 2 2
2 2 2
2 2 2
2 2 2
2 2 2
2 2 2
2 2 2
2 2 2
2 2 2
1 1 1
1 1 1
2 2 2
2 2 2
2 2 2
2 2 2
2 2 2
3 3 3
4 4 4
3 3 3
3 3 3
3 3 3
3 3 3
3 3 3
4 4 4
5 5 5
6 6 6
5 5 5
9 9 9
9 9 9
2 2 2
2 2 2
2 2 2
2 2 2
2 2 2
2 2 2
2 2 2
2 2 2
2 2 2
2 2 2
2 2 2
2 2 2
2 2 2
2 2 2
0 0 0
0 0 0
2 2 2
2 2 2
2 2 2
2 2 2
2 2 2
2 2 2
2 2 2
2 2 2
2 2 2
2 2 2
2 2 2
2 2 2
1 1 1
1 1 1
1 1 1
2 2 2
2 2 2
2 2 2
2 2 2
2 2 2
4 4 4
4 4 4
4 4 4
3 3 3
3 3 3
3 3 3
4 4 4
4 4 4
7 7 7
4 4 4
8 8 8
4 4 4
7 7 7
5 5 5
8 8 8
10 10 10
2 2 2
2 2 2
2 2 2
2 2 2
2 2 2
2 2 2
2 2 2
2 2 2
2 2 2
2 2 2
2 2 2
2 2 2
0 0 0
0 0 0
2 2 2
2 2 2
2 2 2
2 2 2
2 2 2
2 2 2
2 2 2
2 2 2
2 2 2
2 2 2
2 2 2
1 1 1
1 1 1
1 1 1
1 1 1
1 1 1
2 2 2
2 2 2
2 2 2
4 4 4
4 4 4
3 3 3
4 4 4
3 3 3
3 3 3
4 4 4
5 5 5
6 6 6
6 6 6
7 7 7
10 10 10
7 7 7
4 4 4
7 7 7
6 6 6
6 6 6
8 8 8
8 8 8
2 2 2
2 2 2
2 2 2
2 2 2
2 2 2
2 2 2
2 2 2
2 2 2
2 2 2
2 2 2
0 0 0
0 0 0
2 2 2
2 2 2
2 2 2
2 2 2
2 2 2
2 2 2
2 2 2
2 2 2
2 2 2
1 1 1
1 1 1
1 1 1
2 2 2
1 1 1
1 1 1
2 2 2
2 2 2
2 2 2
4 4 4
4 4 4
3 3 3
4 4 4
4 4 4
3 3 3
3 3 3
6 6 6
9 9 9
7 7 7
7 7 7
10 10 10
5 5 5
7 7 7
4 4 4
7 7 7
4 4 4
6 6 6
7 7 7
7 7 7
10 10 10
2 2 2
2 2 2
2 2 2
2 2 2
2 2 2
2 2 2
2 2 2
2 2 2
2 2 2
0 0 0
0 0 0
2 2 2
2 2 2
2 2 2
2 2 2
2 2 2
2 2 2
2 2 2
2 2 2
1 1 1
1 1 1
1 1 1
1 1 1
1 1 1
2 2 2
2 2 2
2 2 2
2 2 2
4 4 4
4 4 4
4 4 4
4 4 4
4 4 4
4 4 4
3 3 3
6 6 6
5 5 5
10 10 10
11 11 11
14 14 14
6 6 6
8 8 8
6 6 6
5 5 5
8 8 8
6 6 6
5 5 5
6 6 6
5 5 5
7 7 7
43 43 43
4 4 4
2 2 2
2 2 2
2 2 2
2 2 2
2 2 2
2 2 2
2 2 2
0 0 0
0 0 0
2 2 2
2 2 2
2 2 2
2 2 2
2 2 2
2 2 2
2 2 2
1 1 1
1 1 1
1 1 1
1 1 1
1 1 1
1 1 1
1 1 1
2 2 2
2 2 2
4 4 4
4 4 4
3 3 3
4 4 4
4 4 4
4 4 4
3 3 3
3 3 3
7 7 7
7 7 7
17 17 17
8 8 8
4 4 4
8 8 8
4 4 4
5 5 5
12 12 12
8 8 8
3 3 3
4 4 4
6 6 6
5 5 5
6 6 6
18 18 18
14 14 14
6 6 6
2 2 2
2 2 2
2 2 2
2 2 2
2 2 2
2 2 2
0 0 0
0 0 0
2 2 2
2 2 2
2 2 2
2 2 2
2 2 2
2 2 2
1 1 1
1 1 1
1 1 1
1 1 1
1 1 1
1 1 1
1 1 1
2 2 2
2 2 2
4 4 4
3 3 3
4 4 4
4 4 4
3 3 3
4 4 4
4 4 4
4 4 4
11 11 11
5 5 5
5 5 5
12 12 12
10 10 10
7 7 7
4 4 4
5 5 5
7 7 7
3 3 3
4 4 4
10 10 10
9 9 9
8 8 8
5 5 5
11 11 11
9 9 9
13 13 13
13 13 13
4 4 4
2 2 2
2 2 2
2 2 2
2 2 2
2 2 2
0 0 0
0 0 0
2 2 2
2 2 2
2 2 2
2 2 2
2 2 2
1 1 1
1 1 1
1 1 1
1 1 1
1 1 1
1 1 1
1 1 1
2 2 2
2 2 2
3 3 3
3 3 3
4 4 4
3 3 3
3 3 3
3 3 3
3 3 3
3 3 3
5 5 5
8 8 8
4 4 4
7 7 7
6 6 6
8 8 8
5 5 5
8 8 8
9 9 9
4 4 4
4 4 4
4 4 4
4 4 4
3 3 3
7 7 7
6 6 6
5 5 5
12 12 12
18 18 18
11 11 11
16 16 16
2 2 2
2 2 2
2 2 2
2 2 2
2 2 2
0 0 0
0 0 0
2 2 2
2 2 2
2 2 2
2 2 2
1 1 1
1 1 1
1 1 1
1 1 1
1 1 1
1 1 1
1 1 1
2 2 2
1 1 1
3 3 3
3 3 3
3 3 3
4 4 4
2 2 2
3 3 3
3 3 3
8 8 8
9 9 9
12 12 12
8 8 8
9 9 9
9 9 9
8 8 8
7 7 7
9 9 9
8 8 8
9 9 9
6 6 6
10 10 10
5 5 5
4 4 4
3 3 3
12 12 12
11 11 11
4 4 4
6 6 6
34 34 34
7 7 7
11 11 11
17 17 17
2 2 2
2 2 2
2 2 2
2 2 2
0 0 0
0 0 0
2 2 2
2 2 2
2 2 2
2 2 2
1 1 1
1 1 1
1 1 1
1 1 1
1 1 1
1 1 1
1 1 1
1 1 1
3 3 3
3 3 3
3 3 3
3 3 3
3 3 3
2 2 2
7 7 7
7 7 7
4 4 4
12 12 12
18 18 18
10 10 10
11 11 11
10 10 10
8 8 8
6 6 6
9 9 9
10 10 10
13 13 13
20 20 20
15 15 15
9 9 9
4 4 4
4 4 4
4 4 4
5 5 5
4 4 4
4 4 4
41 41 41
6 6 6
8 8 8
12 12 12
21 21 21
2 2 2
2 2 2
2 2 2
0 0 0
0 0 0
2 2 2
2 2 2
2 2 2
1 1 1
1 1 1
1 1 1
1 1 1
1 1 1
1 1 1
1 1 1
1 1 1
2 2 2
3 3 3
2 2 2
3 3 3
3 3 3
3 3 3
3 3 3
2 2 2
5 5 5
5 5 5
8 8 8
7 7 7
9 9 9
6 6 6
8 8 8
8 8 8
12 12 12
8 8 8
10 10 10
9 9 9
10 10 10
11 11 11
8 8 8
6 6 6
6 6 6
5 5 5
5 5 5
4 4 4
4 4 4
20 20 20
7 7 7
7 7 7
11 11 11
16 16 16
6 6 6
2 2 2
2 2 2
0 0 0
0 0 0
2 2 2
2 2 2
2 2 2
1 1 1
1 1 1
1 1 1
1 1 1
1 1 1
1 1 1
1 1 1
1 1 1
2 2 2
2 2 2
2 2 2
3 3 3
3 3 3
3 3 3
5 5 5
8 8 8
6 6 6
6 6 6
7 7 7
6 6 6
7 7 7
10 10 10
13 13 13
17 17 17
16 16 16
14 14 14
12 12 12
10 10 10
9 9 9
11 11 11
11 11 11
12 12 12
7 7 7
8 8 8
6 6 6
7 7 7
12 12 12
12 12 12
19 19 19
7 7 7
10 10 10
12 12 12
64 64 64
2 2 2
2 2 2
0 0 0
0 0 0
2 2 2
2 2 2
1 1 1
1 1 1
1 1 1
1 1 1
1 1 1
1 1 1
1 1 1
1 1 1
3 3 3
3 3 3
3 3 3
3 3 3
3 3 3
2 2 2
3 3 3
10 10 10
10 10 10
6 6 6
6 6 6
10 10 10
19 19 19
31 31 31
57 57 57
64 64 64
76 76 76
81 81 81
68 68 68
52 52 52
39 39 39
43 43 43
46 46 46
22 22 22
8 8 8
6 6 6
9 9 9
10 10 10
7 7 7
4 4 4
13 13 13
44 44 44
6 6 6
9 9 9
9 9 9
73 73 73
5 5 5
2 2 2
0 0 0
0 0 0
2 2 2
1 1 1
1 1 1
1 1 1
1 1 1
1 1 1
1 1 1
1 1 1
1 1 1
3 3 3
3 3 3
3 3 3
2 2 2
2 2 2
2 2 2
3 3 3
3 3 3
14 14 14
5 5 5
15 15 15
40 40 40
64 64 64
78 78 78
85 85 85
91 91 91
97 97 97
101 101 101
103 103 103
98 98 98
93 93 93
89 89 89
87 87 87
86 86 86
74 74 74
34 34 34
12 12 12
9 9 9
25 25 25
15 15 15
8 8 8
15 15 15
16 16 16
7 7 7
7 7 7
7 7 7
71 71 71
23 23 23
2 2 2
0 0 0
0 0 0
2 2 2
1 1 1
1 1 1
1 1 1
1 1 1
1 1 1
1 1 1
1 1 1
1 1 1
3 3 3
2 2 2
2 2 2
2 2 2
2 2 2
5 5 5
4 4 4
5 5 5
4 4 4
18 18 18
64 64 64
84 84 84
92 92 92
100 100 100
112 112 112
131 131 131
157 157 157
168 168 168
173 173 173
165 165 165
146 146 146
132 132 132
119 119 119
106 106 106
94 94 94
79 79 79
46 46 46
13 13 13
12 12 12
33 33 33
6 6 6
19 19 19
5 5 5
16 16 16
6 6 6
7 7 7
53 53 53
13 13 13
3 3 3
0 0 0
0 0 0
1 1 1
1 1 1
1 1 1
1 1 1
1 1 1
1 1 1
1 1 1
1 1 1
2 2 2
2 2 2
2 2 2
2 2 2
2 2 2
1 1 1
2 2 2
2 2 2
2 2 2
22 22 22
68 68 68
86 86 86
101 101 101
130 130 130
155 155 155
176 176 176
189 189 189
195 195 195
199 199 199
190 190 190
194 194 194
194 194 194
190 190 190
187 187 187
169 169 169
128 128 128
94 94 94
81 81 81
45 45 45
18 18 18
39 39 39
11 11 11
21 21 21
11 11 11
39 39 39
5 5 5
7 7 7
36 36 36
9 9 9
16 16 16
0 0 0
0 0 0
2 2 2
1 1 1
1 1 1
1 1 1
1 1 1
1 1 1
1 1 1
1 1 1
2 2 2
2 2 2
2 2 2
2 2 2
2 2 2
0 0 0
3 3 3
1 1 1
10 10 10
58 58 58
80 80 80
103 103 103
157 157 157
190 190 190
180 180 180
168 168 168
177 177 177
190 190 190
192 192 192
184 184 184
175 175 175
182 182 182
179 179 179
178 178 178
181 181 181
178 178 178
117 117 117
86 86 86
51 51 51
11 11 11
26 26 26
13 13 13
15 15 15
11 11 11
36 36 36
5 5 5
7 7 7
24 24 24
11 11 11
18 18 18
0 0 0
0 0 0
1 1 1
1 1 1
1 1 1
1 1 1
1 1 1
1 1 1
0 0 0
2 2 2
2 2 2
2 2 2
2 2 2
2 2 2
1 1 1
0 0 0
2 2 2
1 1 1
27 27 27
75 75 75
90 90 90
156 156 156
181 181 181
174 174 174
177 177 177
179 179 179
173 173 173
179 179 179
176 176 176
174 174 174
172 172 172
173 173 173
175 175 175
177 177 177
179 179 179
187 187 187
140 140 140
89 89 89
48 48 48
9 9 9
11 11 11
15 15 15
4 4 4
5 5 5
15 15 15
7 7 7
8 8 8
18 18 18
12 12 12
13 13 13
0 0 0
0 0 0
1 1 1
1 1 1
1 1 1
1 1 1
1 1 1
1 1 1
0 0 0
1 1 1
1 1 1
2 2 2
1 1 1
0 0 0
0 0 0
3 3 3
1 1 1
4 4 4
47 47 47
79 79 79
108 108 108
185 185 185
177 177 177
177 177 177
181 181 181
179 179 179
178 178 178
186 186 186
180 180 180
178 178 178
173 173 173
171 171 171
173 173 173
175 175 175
181 181 181
181 181 181
146 146 146
90 90 90
49 49 49
10 10 10
12 12 12
19 19 19
2 2 2
12 12 12
3 3 3
15 15 15
8 8 8
13 13 13
13 13 13
10 10 10
0 0 0
0 0 0
1 1 1
1 1 1
1 1 1
1 1 1
1 1 1
0 0 0
0 0 0
0 0 0
0 0 0
0 0 0
0 0 0
0 0 0
0 0 0
2 2 2
1 1 1
2 2 2
39 39 39
78 78 78
112 112 112
188 188 188
178 178 178
176 176 176
172 172 172
173 173 173
178 178 178
183 183 183
176 176 176
178 178 178
173 173 173
172 172 172
174 174 174
179 179 179
180 180 180
186 186 186
130 130 130
86 86 86
52 52 52
10 10 10
22 22 22
14 14 14
5 5 5
19 19 19
2 2 2
27 27 27
7 7 7
11 11 11
15 15 15
12 12 12
0 0 0
0 0 0
1 1 1
1 1 1
1 1 1
1 1 1
0 0 0
1 1 1
1 1 1
0 0 0
0 0 0
0 0 0
0 0 0
0 0 0
0 0 0
1 1 1
1 1 1
1 1 1
23 23 23
75 75 75
98 98 98
181 181 181
176 176 176
184 184 184
178 178 178
174 174 174
184 184 184
199 199 199
179 179 179
182 182 182
183 183 183
181 181 181
183 183 183
181 181 181
190 190 190
172 172 172
106 106 106
81 81 81
50 50 50
9 9 9
22 22 22
13 13 13
5 5 5
10 10 10
3 3 3
38 38 38
7 7 7
10 10 10
15 15 15
13 13 13
0 0 0
0 0 0
1 1 1
1 1 1
1 1 1
1 1 1
1 1 1
1 1 1
1 1 1
2 2 2
2 2 2
1 1 1
0 0 0
0 0 0
0 0 0
0 0 0
0 0 0
0 0 0
9 9 9
61 61 61
84 84 84
136 136 136
190 190 190
177 177 177
175 175 175
172 172 172
174 174 174
206 206 206
184 184 184
186 186 186
185 185 185
186 186 186
186 186 186
186 186 186
163 163 163
123 123 123
87 87 87
70 70 70
18 18 18
5 5 5
16 16 16
13 13 13
13 13 13
11 11 11
11 11 11
42 42 42
9 9 9
10 10 10
16 16 16
14 14 14
0 0 0
0 0 0
1 1 1
1 1 1
1 1 1
1 1 1
1 1 1
1 1 1
1 1 1
3 3 3
2 2 2
2 2 2
1 1 1
1 1 1
0 0 0
0 0 0
0 0 0
0 0 0
2 2 2
24 24 24
71 71 71
92 92 92
133 133 133
179 179 179
188 188 188
175 175 175
187 187 187
202 202 202
191 191 191
195 195 195
185 185 185
165 165 165
150 150 150
135 135 135
113 113 113
93 93 93
76 76 76
26 26 26
6 6 6
6 6 6
10 10 10
19 19 19
13 13 13
11 11 11
15 15 15
47 47 47
8 8 8
11 11 11
16 16 16
12 12 12
0 0 0
0 0 0
1 1 1
1 1 1
1 1 1
1 1 1
1 1 1
1 1 1
2 2 2
2 2 2
2 2 2
2 2 2
2 2 2
1 1 1
1 1 1
1 1 1
1 1 1
1 1 1
1 1 1
3 3 3
21 21 21
70 70 70
84 84 84
101 101 101
120 120 120
137 137 137
157 157 157
158 158 158
144 144 144
127 127 127
112 112 112
100 100 100
96 96 96
90 90 90
81 81 81
74 74 74
32 32 32
8 8 8
5 5 5
13 13 13
10 10 10
8 8 8
21 21 21
20 20 20
16 16 16
47 47 47
6 6 6
10 10 10
16 16 16
12 12 12
0 0 0
0 0 0
1 1 1
1 1 1
1 1 1
1 1 1
1 1 1
1 1 1
3 3 3
2 2 2
3 3 3
2 2 2
2 2 2
2 2 2
1 1 1
1 1 1
1 1 1
2 2 2
3 3 3
2 2 2
3 3 3
14 14 14
37 37 37
65 65 65
78 78 78
87 87 87
97 97 97
97 97 97
95 95 95
89 89 89
78 78 78
67 67 67
63 63 63
61 61 61
40 40 40
29 29 29
10 10 10
5 5 5
10 10 10
13 13 13
9 9 9
12 12 12
12 12 12
21 21 21
14 14 14
47 47 47
7 7 7
11 11 11
16 16 16
13 13 13
0 0 0
0 0 0
2 2 2
1 1 1
1 1 1
1 1 1
1 1 1
1 1 1
2 2 2
2 2 2
3 3 3
2 2 2
3 3 3
3 3 3
2 2 2
2 2 2
2 2 2
2 2 2
2 2 2
2 2 2
3 3 3
2 2 2
4 4 4
12 12 12
24 24 24
39 39 39
47 47 47
51 51 51
43 43 43
33 33 33
23 23 23
18 18 18
18 18 18
17 17 17
11 11 11
8 8 8
8 8 8
10 10 10
9 9 9
5 5 5
21 21 21
15 15 15
10 10 10
17 17 17
12 12 12
42 42 42
8 8 8
12 12 12
16 16 16
14 14 14
0 0 0
0 0 0
1 1 1
1 1 1
1 1 1
1 1 1
1 1 1
1 1 1
1 1 1
2 2 2
3 3 3
2 2 2
2 2 2
2 2 2
2 2 2
2 2 2
2 2 2
1 1 1
2 2 2
2 2 2
4 4 4
4 4 4
6 6 6
5 5 5
7 7 7
8 8 8
10 10 10
10 10 10
9 9 9
8 8 8
7 7 7
7 7 7
6 6 6
6 6 6
8 8 8
11 11 11
13 13 13
18 18 18
10 10 10
7 7 7
17 17 17
9 9 9
10 10 10
10 10 10
14 14 14
25 25 25
8 8 8
12 12 12
14 14 14
14 14 14
0 0 0
0 0 0
1 1 1
1 1 1
1 1 1
1 1 1
1 1 1
1 1 1
1 1 1
1 1 1
1 1 1
2 2 2
2 2 2
2 2 2
2 2 2
2 2 2
2 2 2
3 3 3
3 3 3
4 4 4
4 4 4
5 5 5
6 6 6
7 7 7
7 7 7
6 6 6
6 6 6
7 7 7
6 6 6
6 6 6
8 8 8
6 6 6
7 7 7
10 10 10
15 15 15
18 18 18
19 19 19
14 14 14
5 5 5
9 9 9
10 10 10
14 14 14
15 15 15
8 8 8
15 15 15
15 15 15
8 8 8
15 15 15
13 13 13
14 14 14
0 0 0
0 0 0
1 1 1
1 1 1
1 1 1
1 1 1
1 1 1
0 0 0
1 1 1
1 1 1
1 1 1
1 1 1
1 1 1
2 2 2
3 3 3
3 3 3
3 3 3
4 4 4
4 4 4
4 4 4
4 4 4
7 7 7
10 10 10
7 7 7
5 5 5
6 6 6
6 6 6
6 6 6
6 6 6
8 8 8
8 8 8
7 7 7
7 7 7
9 9 9
5 5 5
13 13 13
9 9 9
4 4 4
13 13 13
8 8 8
3 3 3
8 8 8
19 19 19
6 6 6
20 20 20
10 10 10
8 8 8
20 20 20
12 12 12
15 15 15
0 0 0
0 0 0
1 1 1
1 1 1
1 1 1
1 1 1
1 1 1
1 1 1
1 1 1
1 1 1
1 1 1
1 1 1
1 1 1
1 1 1
2 2 2
3 3 3
4 4 4
4 4 4
4 4 4
4 4 4
4 4 4
3 3 3
4 4 4
7 7 7
5 5 5
5 5 5
7 7 7
5 5 5
5 5 5
7 7 7
5 5 5
12 12 12
4 4 4
7 7 7
9 9 9
9 9 9
8 8 8
9 9 9
12 12 12
5 5 5
14 14 14
16 16 16
25 25 25
10 10 10
12 12 12
9 9 9
8 8 8
29 29 29
12 12 12
19 19 19
0 0 0
0 0 0
1 1 1
1 1 1
1 1 1
1 1 1
1 1 1
1 1 1
1 1 1
1 1 1
1 1 1
2 2 2
1 1 1
1 1 1
1 1 1
2 2 2
4 4 4
4 4 4
4 4 4
4 4 4
4 4 4
5 5 5
4 4 4
5 5 5
6 6 6
6 6 6
5 5 5
8 8 8
8 8 8
6 6 6
6 6 6
4 4 4
5 5 5
5 5 5
8 8 8
18 18 18
18 18 18
6 6 6
11 11 11
19 19 19
14 14 14
5 5 5
10 10 10
22 22 22
7 7 7
9 9 9
8 8 8
43 43 43
13 13 13
27 27 27
0 0 0
0 0 0
2 2 2
1 1 1
1 1 1
1 1 1
1 1 1
1 1 1
1 1 1
1 1 1
2 2 2
1 1 1
1 1 1
1 1 1
2 2 2
2 2 2
2 2 2
4 4 4
4 4 4
4 4 4
4 4 4
4 4 4
5 5 5
5 5 5
5 5 5
6 6 6
6 6 6
5 5 5
4 4 4
4 4 4
6 6 6
12 12 12
6 6 6
5 5 5
4 4 4
3 3 3
15 15 15
12 12 12
11 11 11
10 10 10
18 18 18
4 4 4
11 11 11
12 12 12
10 10 10
8 8 8
9 9 9
59 59 59
13 13 13
2 2 2
0 0 0
0 0 0
2 2 2
1 1 1
2 2 2
1 1 1
1 1 1
1 1 1
1 1 1
1 1 1
1 1 1
1 1 1
1 1 1
2 2 2
2 2 2
1 1 1
2 2 2
2 2 2
4 4 4
4 4 4
4 4 4
4 4 4
5 5 5
5 5 5
5 5 5
5 5 5
5 5 5
6 6 6
4 4 4
4 4 4
5 5 5
4 4 4
4 4 4
4 4 4
4 4 4
6 6 6
9 9 9
12 12 12
7 7 7
8 8 8
12 12 12
8 8 8
16 16 16
11 11 11
31 31 31
8 8 8
9 9 9
74 74 74
21 21 21
2 2 2
0 0 0
0 0 0
2 2 2
2 2 2
1 1 1
1 1 1
1 1 1
1 1 1
1 1 1
1 1 1
2 2 2
1 1 1
1 1 1
2 2 2
2 2 2
2 2 2
2 2 2
2 2 2
2 2 2
3 3 3
4 4 4
4 4 4
5 5 5
4 4 4
5 5 5
5 5 5
5 5 5
5 5 5
6 6 6
6 6 6
6 6 6
5 5 5
3 3 3
4 4 4
3 3 3
7 7 7
12 12 12
18 18 18
4 4 4
7 7 7
10 10 10
17 17 17
23 23 23
15 15 15
39 39 39
8 8 8
11 11 11
74 74 74
8 8 8
2 2 2
0 0 0
0 0 0
2 2 2
2 2 2
2 2 2
2 2 2
1 1 1
2 2 2
1 1 1
1 1 1
1 1 1
1 1 1
1 1 1
2 2 2
2 2 2
2 2 2
2 2 2
2 2 2
2 2 2
2 2 2
2 2 2
4 4 4
4 4 4
5 5 5
5 5 5
5 5 5
5 5 5
5 5 5
6 6 6
5 5 5
5 5 5
5 5 5
4 4 4
3 3 3
3 3 3
3 3 3
4 4 4
6 6 6
18 18 18
14 14 14
11 11 11
21 21 21
25 25 25
31 31 31
7 7 7
9 9 9
14 14 14
60 60 60
2 2 2
2 2 2
0 0 0
0 0 0
2 2 2
2 2 2
2 2 2
2 2 2
2 2 2
2 2 2
1 1 1
1 1 1
1 1 1
2 2 2
1 1 1
2 2 2
2 2 2
2 2 2
2 2 2
2 2 2
2 2 2
2 2 2
2 2 2
3 3 3
3 3 3
4 4 4
5 5 5
5 5 5
5 5 5
5 5 5
5 5 5
5 5 5
5 5 5
5 5 5
4 4 4
3 3 3
4 4 4
4 4 4
4 4 4
6 6 6
11 11 11
4 4 4
9 9 9
10 10 10
18 18 18
52 52 52
6 6 6
10 10 10
16 16 16
9 9 9
2 2 2
2 2 2
0 0 0
0 0 0
2 2 2
2 2 2
2 2 2
2 2 2
1 1 1
1 1 1
1 1 1
1 1 1
1 1 1
2 2 2
1 1 1
1 1 1
2 2 2
2 2 2
2 2 2
2 2 2
2 2 2
2 2 2
3 3 3
2 2 2
2 2 2
3 3 3
3 3 3
4 4 4
4 4 4
4 4 4
5 5 5
5 5 5
5 5 5
5 5 5
5 5 5
5 5 5
10 10 10
15 15 15
4 4 4
9 9 9
5 5 5
7 7 7
14 14 14
13 13 13
16 16 16
33 33 33
7 7 7
13 13 13
32 32 32
2 2 2
2 2 2
2 2 2
0 0 0
0 0 0
2 2 2
2 2 2
2 2 2
2 2 2
2 2 2
1 1 1
1 1 1
1 1 1
1 1 1
1 1 1
1 1 1
1 1 1
2 2 2
2 2 2
2 2 2
2 2 2
2 2 2
2 2 2
2 2 2
2 2 2
3 3 3
2 2 2
3 3 3
3 3 3
3 3 3
4 4 4
5 5 5
4 4 4
5 5 5
5 5 5
9 9 9
7 7 7
10 10 10
15 15 15
18 18 18
17 17 17
18 18 18
5 5 5
13 13 13
16 16 16
22 22 22
14 14 14
10 10 10
15 15 15
2 2 2
2 2 2
2 2 2
2 2 2
0 0 0
0 0 0
2 2 2
2 2 2
2 2 2
2 2 2
2 2 2
1 1 1
1 1 1
2 2 2
2 2 2
1 1 1
2 2 2
2 2 2
2 2 2
2 2 2
2 2 2
2 2 2
2 2 2
2 2 2
2 2 2
2 2 2
3 3 3
3 3 3
3 3 3
3 3 3
4 4 4
3 3 3
3 3 3
11 11 11
9 9 9
4 4 4
12 12 12
16 16 16
13 13 13
14 14 14
7 7 7
21 21 21
20 20 20
21 21 21
10 10 10
19 19 19
16 16 16
12 12 12
13 13 13
5 5 5
2 2 2
2 2 2
2 2 2
2 2 2
0 0 0
0 0 0
2 2 2
2 2 2
2 2 2
2 2 2
2 2 2
2 2 2
1 1 1
1 1 1
1 1 1
1 1 1
1 1 1
1 1 1
2 2 2
2 2 2
2 2 2
2 2 2
2 2 2
2 2 2
2 2 2
2 2 2
2 2 2
2 2 2
3 3 3
2 2 2
9 9 9
3 3 3
5 5 5
8 8 8
11 11 11
11 11 11
16 16 16
9 9 9
18 18 18
9 9 9
5 5 5
16 16 16
17 17 17
15 15 15
23 23 23
15 15 15
37 37 37
12 12 12
9 9 9
2 2 2
2 2 2
2 2 2
2 2 2
2 2 2
0 0 0
0 0 0
2 2 2
2 2 2
2 2 2
2 2 2
2 2 2
2 2 2
2 2 2
2 2 2
1 1 1
1 1 1
2 2 2
1 1 1
1 1 1
2 2 2
1 1 1
2 2 2
2 2 2
2 2 2
2 2 2
2 2 2
2 2 2
2 2 2
2 2 2
2 2 2
2 2 2
9 9 9
7 7 7
4 4 4
10 10 10
7 7 7
13 13 13
13 13 13
13 13 13
23 23 23
14 14 14
13 13 13
15 15 15
18 18 18
30 30 30
13 13 13
41 41 41
17 17 17
2 2 2
2 2 2
2 2 2
2 2 2
2 2 2
2 2 2
0 0 0
0 0 0
2 2 2
2 2 2
2 2 2
2 2 2
2 2 2
2 2 2
2 2 2
2 2 2
1 1 1
1 1 1
1 1 1
2 2 2
2 2 2
1 1 1
2 2 2
2 2 2
2 2 2
2 2 2
2 2 2
2 2 2
2 2 2
2 2 2
2 2 2
2 2 2
2 2 2
3 3 3
3 3 3
3 3 3
5 5 5
5 5 5
6 6 6
4 4 4
8 8 8
18 18 18
27 27 27
13 13 13
12 12 12
18 18 18
20 20 20
31 31 31
10 10 10
2 2 2
2 2 2
2 2 2
2 2 2
2 2 2
2 2 2
2 2 2
0 0 0
0 0 0
2 2 2
2 2 2
2 2 2
2 2 2
2 2 2
2 2 2
2 2 2
2 2 2
2 2 2
1 1 1
1 1 1
1 1 1
2 2 2
2 2 2
2 2 2
1 1 1
2 2 2
2 2 2
2 2 2
2 2 2
2 2 2
2 2 2
2 2 2
2 2 2
2 2 2
3 3 3
3 3 3
3 3 3
4 4 4
7 7 7
5 5 5
10 10 10
15 15 15
7 7 7
13 13 13
5 5 5
8 8 8
17 17 17
14 14 14
7 7 7
2 2 2
2 2 2
2 2 2
2 2 2
2 2 2
2 2 2
2 2 2
2 2 2
0 0 0
0 0 0
2 2 2
2 2 2
2 2 2
2 2 2
2 2 2
2 2 2
2 2 2
2 2 2
2 2 2
2 2 2
1 1 1
1 1 1
1 1 1
1 1 1
1 1 1
2 2 2
2 2 2
1 1 1
2 2 2
2 2 2
2 2 2
2 2 2
2 2 2
2 2 2
2 2 2
2 2 2
3 3 3
3 3 3
3 3 3
3 3 3
3 3 3
5 5 5
5 5 5
8 8 8
13 13 13
15 15 15
10 10 10
19 19 19
2 2 2
2 2 2
2 2 2
2 2 2
2 2 2
2 2 2
2 2 2
2 2 2
2 2 2
2 2 2
0 0 0
0 0 0
2 2 2
2 2 2
2 2 2
2 2 2
2 2 2
2 2 2
2 2 2
2 2 2
2 2 2
2 2 2
2 2 2
2 2 2
1 1 1
1 1 1
1 1 1
1 1 1
2 2 2
1 1 1
2 2 2
2 2 2
2 2 2
2 2 2
2 2 2
2 2 2
2 2 2
2 2 2
2 2 2
3 3 3
3 3 3
4 4 4
8 8 8
9 9 9
6 6 6
20 20 20
16 16 16
19 19 19
4 4 4
2 2 2
2 2 2
2 2 2
2 2 2
2 2 2
2 2 2
2 2 2
2 2 2
2 2 2
2 2 2
2 2 2
0 0 0
0 0 0
2 2 2
2 2 2
2 2 2
2 2 2
2 2 2
2 2 2
2 2 2
2 2 2
2 2 2
2 2 2
2 2 2
2 2 2
2 2 2
2 2 2
1 1 1
1 1 1
2 2 2
1 1 1
2 2 2
2 2 2
2 2 2
2 2 2
2 2 2
2 2 2
2 2 2
3 3 3
3 3 3
3 3 3
3 3 3
7 7 7
8 8 8
11 11 11
14 14 14
14 14 14
4 4 4
2 2 2
2 2 2
2 2 2
2 2 2
2 2 2
2 2 2
2 2 2
2 2 2
2 2 2
2 2 2
2 2 2
2 2 2
2 2 2
0 0 0
0 0 0
2 2 2
2 2 2
2 2 2
2 2 2
2 2 2
2 2 2
2 2 2
2 2 2
2 2 2
2 2 2
2 2 2
2 2 2
2 2 2
2 2 2
2 2 2
2 2 2
1 1 1
2 2 2
2 2 2
2 2 2
2 2 2
2 2 2
3 3 3
3 3 3
3 3 3
3 3 3
3 3 3
4 4 4
4 4 4
8 8 8
10 10 10
12 12 12
2 2 2
2 2 2
2 2 2
2 2 2
2 2 2
2 2 2
2 2 2
2 2 2
2 2 2
2 2 2
2 2 2
2 2 2
2 2 2
2 2 2
2 2 2
2 2 2
0 0 0
0 0 0
0 0 0
0 0 0
0 0 0
0 0 0
0 0 0
0 0 0
0 0 0
0 0 0
0 0 0
0 0 0
0 0 0
0 0 0
0 0 0
0 0 0
0 0 0
0 0 0
0 0 0
0 0 0
0 0 0
0 0 0
0 0 0
0 0 0
0 0 0
0 0 0
0 0 0
0 0 0
0 0 0
0 0 0
0 0 0
0 0 0
0 0 0
0 0 0
0 0 0
0 0 0
0 0 0
0 0 0
0 0 0
0 0 0
0 0 0
0 0 0
0 0 0
0 0 0
0 0 0
0 0 0
0 0 0
0 0 0
0 0 0
0 0 0
0 0 0
