P3 
50 50 
255
0 0 0
0 0 0
0 0 0
0 0 0
0 0 0
0 0 0
0 0 0
0 0 0
0 0 0
0 0 0
0 0 0
0 0 0
0 0 0
0 0 0
0 0 0
0 0 0
0 0 0
0 0 0
0 0 0
0 0 0
0 0 0
0 0 0
0 0 0
0 0 0
0 0 0
0 0 0
0 0 0
0 0 0
0 0 0
0 0 0
0 0 0
0 0 0
0 0 0
0 0 0
0 0 0
0 0 0
0 0 0
0 0 0
0 0 0
0 0 0
0 0 0
0 0 0
0 0 0
0 0 0
0 0 0
0 0 0
0 0 0
0 0 0
0 0 0
0 0 0
0 0 0
2 2 2
2 2 2
2 2 2
2 2 2
2 2 2
2 2 2
2 2 2
2 2 2
2 2 2
2 2 2
2 2 2
2 2 2
2 2 2
2 2 2
2 2 2
2 2 2
2 2 2
2 2 2
2 2 2
2 2 2
4 4 4
4 4 4
4 4 4
4 4 4
5 5 5
5 5 5
4 4 4
7 7 7
5 5 5
11 11 11
13 13 13
3 3 3
2 2 2
2 2 2
2 2 2
2 2 2
2 2 2
2 2 2
2 2 2
2 2 2
2 2 2
2 2 2
2 2 2
2 2 2
2 2 2
2 2 2
2 2 2
2 2 2
0 0 0
0 0 0
2 2 2
2 2 2
2 2 2
2 2 2
2 2 2
2 2 2
2 2 2
2 2 2
2 2 2
2 2 2
2 2 2
2 2 2
2 2 2
2 2 2
1 1 1
1 1 1
2 2 2
2 2 2
3 3 3
7 7 7
4 4 4
4 4 4
4 4 4
4 4 4
5 5 5
4 4 4
7 7 7
3 3 3
8 8 8
8 8 8
11 11 11
8 8 8
11 11 11
11 11 11
2 2 2
2 2 2
2 2 2
2 2 2
2 2 2
2 2 2
2 2 2
2 2 2
2 2 2
2 2 2
2 2 2
2 2 2
2 2 2
2 2 2
0 0 0
0 0 0
2 2 2
2 2 2
2 2 2
2 2 2
2 2 2
2 2 2
2 2 2
2 2 2
2 2 2
2 2 2
2 2 2
2 2 2
1 1 1
1 1 1
1 1 1
2 2 2
2 2 2
3 3 3
13 13 13
4 4 4
4 4 4
4 4 4
4 4 4
4 4 4
4 4 4
4 4 4
8 8 8
3 3 3
6 6 6
15 15 15
10 10 10
8 8 8
12 12 12
12 12 12
12 12 12
12 12 12
2 2 2
2 2 2
2 2 2
2 2 2
2 2 2
2 2 2
2 2 2
2 2 2
2 2 2
2 2 2
2 2 2
2 2 2
0 0 0
0 0 0
2 2 2
2 2 2
2 2 2
2 2 2
2 2 2
2 2 2
2 2 2
2 2 2
2 2 2
2 2 2
1 1 1
1 1 1
1 1 1
1 1 1
2 2 2
2 2 2
2 2 2
13 13 13
3 3 3
4 4 4
4 4 4
4 4 4
5 5 5
4 4 4
4 4 4
4 4 4
4 4 4
12 12 12
14 14 14
11 11 11
9 9 9
12 12 12
7 7 7
12 12 12
17 17 17
13 13 13
12 12 12
9 9 9
2 2 2
2 2 2
2 2 2
2 2 2
2 2 2
2 2 2
2 2 2
2 2 2
2 2 2
2 2 2
0 0 0
0 0 0
2 2 2
2 2 2
2 2 2
2 2 2
2 2 2
2 2 2
2 2 2
2 2 2
2 2 2
1 1 1
1 1 1
1 1 1
1 1 1
2 2 2
1 1 1
7 7 7
6 6 6
4 4 4
4 4 4
4 4 4
3 3 3
3 3 3
4 4 4
5 5 5
6 6 6
13 13 13
9 9 9
9 9 9
11 11 11
17 17 17
7 7 7
15 15 15
16 16 16
8 8 8
10 10 10
10 10 10
14 14 14
10 10 10
11 11 11
2 2 2
2 2 2
2 2 2
2 2 2
2 2 2
2 2 2
2 2 2
2 2 2
2 2 2
0 0 0
0 0 0
2 2 2
2 2 2
2 2 2
2 2 2
2 2 2
2 2 2
2 2 2
2 2 2
1 1 1
1 1 1
1 1 1
1 1 1
2 2 2
2 2 2
8 8 8
5 5 5
4 4 4
4 4 4
4 4 4
4 4 4
3 3 3
3 3 3
6 6 6
7 7 7
5 5 5
4 4 4
11 11 11
15 15 15
25 25 25
43 43 43
47 47 47
40 40 40
33 33 33
21 21 21
6 6 6
3 3 3
3 3 3
7 7 7
19 19 19
11 11 11
5 5 5
2 2 2
2 2 2
2 2 2
2 2 2
2 2 2
2 2 2
2 2 2
0 0 0
0 0 0
2 2 2
2 2 2
2 2 2
2 2 2
2 2 2
2 2 2
2 2 2
2 2 2
1 1 1
2 2 2
1 1 1
3 3 3
2 2 2
3 3 3
4 4 4
4 4 4
4 4 4
4 4 4
5 5 5
4 4 4
3 3 3
7 7 7
7 7 7
14 14 14
21 21 21
32 32 32
71 71 71
86 86 86
85 85 85
89 89 89
89 89 89
82 82 82
83 83 83
85 85 85
86 86 86
77 77 77
17 17 17
4 4 4
9 9 9
6 6 6
16 16 16
8 8 8
2 2 2
2 2 2
2 2 2
2 2 2
2 2 2
2 2 2
0 0 0
0 0 0
2 2 2
2 2 2
2 2 2
2 2 2
2 2 2
2 2 2
2 2 2
1 1 1
1 1 1
2 2 2
2 2 2
1 1 1
1 1 1
9 9 9
4 4 4
4 4 4
5 5 5
5 5 5
6 6 6
6 6 6
11 11 11
12 12 12
40 40 40
80 80 80
89 89 89
98 98 98
125 125 125
154 154 154
176 176 176
181 181 181
179 179 179
170 170 170
173 173 173
166 166 166
130 130 130
92 92 92
85 85 85
70 70 70
28 28 28
5 5 5
13 13 13
45 45 45
4 4 4
2 2 2
2 2 2
2 2 2
2 2 2
2 2 2
0 0 0
0 0 0
2 2 2
2 2 2
2 2 2
2 2 2
2 2 2
2 2 2
1 1 1
1 1 1
2 2 2
1 1 1
2 2 2
1 1 1
14 14 14
3 3 3
4 4 4
5 5 5
5 5 5
5 5 5
32 32 32
55 55 55
90 90 90
111 111 111
141 141 141
165 165 165
166 166 166
163 163 163
153 153 153
159 159 159
172 172 172
171 171 171
165 165 165
154 154 154
149 149 149
149 149 149
142 142 142
164 164 164
162 162 162
94 94 94
85 85 85
74 74 74
10 10 10
25 25 25
16 16 16
2 2 2
2 2 2
2 2 2
2 2 2
2 2 2
0 0 0
0 0 0
2 2 2
2 2 2
2 2 2
2 2 2
1 1 1
1 1 1
1 1 1
1 1 1
1 1 1
2 2 2
1 1 1
17 17 17
2 2 2
3 3 3
3 3 3
5 5 5
32 32 32
89 89 89
157 157 157
171 171 171
169 169 169
173 173 173
151 151 151
112 112 112
90 90 90
99 99 99
107 107 107
104 104 104
96 96 96
98 98 98
102 102 102
105 105 105
123 123 123
145 145 145
161 161 161
153 153 153
137 137 137
169 169 169
138 138 138
83 83 83
50 50 50
5 5 5
26 26 26
20 20 20
2 2 2
2 2 2
2 2 2
2 2 2
0 0 0
0 0 0
2 2 2
2 2 2
2 2 2
2 2 2
1 1 1
1 1 1
1 1 1
1 1 1
1 1 1
1 1 1
4 4 4
3 3 3
1 1 1
1 1 1
11 11 11
82 82 82
166 166 166
180 180 180
162 162 162
169 169 169
143 143 143
112 112 112
91 91 91
86 86 86
87 87 87
87 87 87
87 87 87
87 87 87
88 88 88
88 88 88
87 87 87
87 87 87
86 86 86
87 87 87
98 98 98
152 152 152
148 148 148
139 139 139
156 156 156
124 124 124
84 84 84
19 19 19
50 50 50
15 15 15
21 21 21
2 2 2
2 2 2
2 2 2
0 0 0
0 0 0
2 2 2
2 2 2
2 2 2
1 1 1
1 1 1
1 1 1
1 1 1
1 1 1
0 0 0
0 0 0
16 16 16
4 4 4
2 2 2
4 4 4
93 93 93
185 185 185
171 171 171
149 149 149
137 137 137
100 100 100
88 88 88
87 87 87
87 87 87
87 87 87
87 87 87
88 88 88
87 87 87
87 87 87
88 88 88
88 88 88
88 88 88
88 88 88
87 87 87
88 88 88
87 87 87
89 89 89
152 152 152
149 149 149
143 143 143
173 173 173
104 104 104
55 55 55
27 27 27
13 13 13
18 18 18
7 7 7
2 2 2
2 2 2
0 0 0
0 0 0
2 2 2
2 2 2
1 1 1
0 0 0
0 0 0
0 0 0
0 0 0
0 0 0
1 1 1
3 3 3
4 4 4
3 3 3
2 2 2
78 78 78
178 178 178
171 171 171
110 110 110
94 94 94
89 89 89
86 86 86
87 87 87
88 88 88
87 87 87
87 87 87
87 87 87
87 87 87
88 88 88
87 87 87
87 87 87
87 87 87
87 87 87
88 88 88
88 88 88
88 88 88
88 88 88
88 88 88
88 88 88
135 135 135
150 150 150
153 153 153
183 183 183
86 86 86
23 23 23
16 16 16
16 16 16
83 83 83
2 2 2
2 2 2
0 0 0
0 0 0
2 2 2
2 2 2
0 0 0
0 0 0
1 1 1
1 1 1
1 1 1
1 1 1
1 1 1
17 17 17
4 4 4
3 3 3
60 60 60
174 174 174
163 163 163
153 153 153
86 86 86
87 87 87
87 87 87
87 87 87
87 87 87
87 87 87
87 87 87
87 87 87
88 88 88
87 87 87
87 87 87
88 88 88
87 87 87
88 88 88
87 87 87
87 87 87
87 87 87
87 87 87
87 87 87
87 87 87
88 88 88
87 87 87
135 135 135
154 154 154
164 164 164
106 106 106
55 55 55
40 40 40
13 13 13
83 83 83
5 5 5
2 2 2
0 0 0
0 0 0
2 2 2
1 1 1
1 1 1
1 1 1
1 1 1
1 1 1
0 0 0
1 1 1
0 0 0
16 16 16
3 3 3
34 34 34
120 120 120
160 160 160
131 131 131
89 89 89
86 86 86
87 87 87
88 88 88
87 87 87
87 87 87
87 87 87
87 87 87
87 87 87
87 87 87
87 87 87
87 87 87
87 87 87
87 87 87
88 88 88
87 87 87
87 87 87
87 87 87
87 87 87
87 87 87
87 87 87
88 88 88
88 88 88
87 87 87
170 170 170
158 158 158
146 146 146
68 68 68
49 49 49
11 11 11
66 66 66
25 25 25
2 2 2
0 0 0
0 0 0
2 2 2
2 2 2
1 1 1
1 1 1
0 0 0
0 0 0
1 1 1
1 1 1
0 0 0
13 13 13
2 2 2
72 72 72
191 191 191
150 150 150
93 93 93
86 86 86
87 87 87
86 86 86
87 87 87
87 87 87
87 87 87
88 88 88
87 87 87
87 87 87
87 87 87
87 87 87
87 87 87
87 87 87
87 87 87
87 87 87
87 87 87
87 87 87
87 87 87
87 87 87
88 88 88
87 87 87
88 88 88
87 87 87
87 87 87
117 117 117
160 160 160
165 165 165
78 78 78
41 41 41
11 11 11
47 47 47
14 14 14
3 3 3
0 0 0
0 0 0
2 2 2
1 1 1
1 1 1
1 1 1
1 1 1
0 0 0
1 1 1
2 2 2
0 0 0
10 10 10
2 2 2
77 77 77
181 181 181
140 140 140
97 97 97
86 86 86
87 87 87
87 87 87
87 87 87
87 87 87
87 87 87
87 87 87
88 88 88
87 87 87
87 87 87
87 87 87
87 87 87
87 87 87
87 87 87
87 87 87
87 87 87
87 87 87
87 87 87
87 87 87
88 88 88
88 88 88
87 87 87
88 88 88
88 88 88
96 96 96
165 165 165
160 160 160
85 85 85
31 31 31
11 11 11
34 34 34
14 14 14
19 19 19
0 0 0
0 0 0
1 1 1
1 1 1
1 1 1
1 1 1
1 1 1
1 1 1
1 1 1
1 1 1
1 1 1
8 8 8
5 5 5
87 87 87
170 170 170
134 134 134
87 87 87
87 87 87
87 87 87
87 87 87
87 87 87
87 87 87
88 88 88
87 87 87
87 87 87
87 87 87
87 87 87
87 87 87
87 87 87
87 87 87
87 87 87
86 86 86
86 86 86
87 87 87
87 87 87
87 87 87
88 88 88
88 88 88
87 87 87
87 87 87
87 87 87
92 92 92
159 159 159
155 155 155
89 89 89
30 30 30
11 11 11
24 24 24
14 14 14
21 21 21
0 0 0
0 0 0
1 1 1
1 1 1
1 1 1
0 0 0
2 2 2
1 1 1
1 1 1
1 1 1
1 1 1
9 9 9
7 7 7
98 98 98
158 158 158
100 100 100
86 86 86
86 86 86
87 87 87
87 87 87
87 87 87
87 87 87
87 87 87
87 87 87
87 87 87
87 87 87
87 87 87
87 87 87
87 87 87
87 87 87
87 87 87
86 86 86
86 86 86
87 87 87
87 87 87
87 87 87
87 87 87
88 88 88
87 87 87
87 87 87
88 88 88
91 91 91
178 178 178
146 146 146
90 90 90
32 32 32
17 17 17
19 19 19
14 14 14
16 16 16
0 0 0
0 0 0
1 1 1
1 1 1
1 1 1
1 1 1
1 1 1
1 1 1
2 2 2
1 1 1
0 0 0
12 12 12
7 7 7
108 108 108
161 161 161
100 100 100
87 87 87
86 86 86
86 86 86
86 86 86
86 86 86
86 86 86
87 87 87
86 86 86
87 87 87
87 87 87
87 87 87
87 87 87
87 87 87
87 87 87
87 87 87
87 87 87
87 87 87
87 87 87
86 86 86
86 86 86
87 87 87
87 87 87
87 87 87
87 87 87
87 87 87
91 91 91
170 170 170
181 181 181
91 91 91
30 30 30
36 36 36
16 16 16
16 16 16
14 14 14
0 0 0
0 0 0
1 1 1
1 1 1
1 1 1
2 2 2
1 1 1
1 1 1
2 2 2
2 2 2
1 1 1
20 20 20
9 9 9
109 109 109
156 156 156
142 142 142
87 87 87
86 86 86
87 87 87
87 87 87
87 87 87
87 87 87
87 87 87
87 87 87
87 87 87
87 87 87
87 87 87
87 87 87
87 87 87
86 86 86
87 87 87
87 87 87
87 87 87
87 87 87
86 86 86
87 87 87
88 88 88
88 88 88
87 87 87
88 88 88
87 87 87
87 87 87
165 165 165
183 183 183
89 89 89
32 32 32
53 53 53
12 12 12
17 17 17
15 15 15
0 0 0
0 0 0
1 1 1
1 1 1
1 1 1
1 1 1
1 1 1
1 1 1
2 2 2
2 2 2
1 1 1
21 21 21
5 5 5
103 103 103
160 160 160
150 150 150
92 92 92
87 87 87
87 87 87
87 87 87
87 87 87
88 88 88
87 87 87
87 87 87
87 87 87
87 87 87
87 87 87
87 87 87
87 87 87
87 87 87
88 88 88
87 87 87
87 87 87
87 87 87
87 87 87
87 87 87
88 88 88
87 87 87
87 87 87
87 87 87
87 87 87
88 88 88
162 162 162
179 179 179
87 87 87
28 28 28
54 54 54
11 11 11
19 19 19
15 15 15
0 0 0
0 0 0
1 1 1
1 1 1
1 1 1
1 1 1
1 1 1
1 1 1
1 1 1
2 2 2
2 2 2
22 22 22
2 2 2
86 86 86
164 164 164
128 128 128
88 88 88
87 87 87
87 87 87
88 88 88
88 88 88
88 88 88
88 88 88
87 87 87
87 87 87
87 87 87
87 87 87
88 88 88
87 87 87
87 87 87
87 87 87
87 87 87
87 87 87
87 87 87
87 87 87
87 87 87
88 88 88
87 87 87
88 88 88
88 88 88
87 87 87
98 98 98
162 162 162
182 182 182
82 82 82
29 29 29
51 51 51
13 13 13
19 19 19
14 14 14
0 0 0
0 0 0
2 2 2
1 1 1
1 1 1
0 0 0
1 1 1
1 1 1
1 1 1
2 2 2
1 1 1
24 24 24
0 0 0
75 75 75
177 177 177
145 145 145
86 86 86
87 87 87
87 87 87
87 87 87
87 87 87
87 87 87
87 87 87
88 88 88
88 88 88
88 88 88
88 88 88
88 88 88
88 88 88
87 87 87
87 87 87
88 88 88
88 88 88
87 87 87
88 88 88
87 87 87
88 88 88
88 88 88
88 88 88
87 87 87
87 87 87
137 137 137
158 158 158
191 191 191
72 72 72
27 27 27
47 47 47
14 14 14
19 19 19
13 13 13
0 0 0
0 0 0
1 1 1
1 1 1
1 1 1
1 1 1
1 1 1
0 0 0
1 1 1
1 1 1
2 2 2
19 19 19
2 2 2
38 38 38
165 165 165
145 145 145
87 87 87
87 87 87
87 87 87
88 88 88
88 88 88
87 87 87
87 87 87
88 88 88
87 87 87
88 88 88
88 88 88
88 88 88
87 87 87
88 88 88
87 87 87
88 88 88
88 88 88
88 88 88
88 88 88
88 88 88
88 88 88
87 87 87
88 88 88
87 87 87
91 91 91
169 169 169
151 151 151
132 132 132
42 42 42
33 33 33
50 50 50
14 14 14
19 19 19
13 13 13
0 0 0
0 0 0
1 1 1
1 1 1
1 1 1
1 1 1
1 1 1
1 1 1
0 0 0
1 1 1
1 1 1
9 9 9
7 7 7
3 3 3
79 79 79
176 176 176
154 154 154
93 93 93
87 87 87
87 87 87
88 88 88
87 87 87
88 88 88
88 88 88
88 88 88
88 88 88
88 88 88
88 88 88
88 88 88
88 88 88
88 88 88
88 88 88
88 88 88
87 87 87
88 88 88
88 88 88
87 87 87
88 88 88
88 88 88
89 89 89
158 158 158
159 159 159
187 187 187
83 83 83
42 42 42
20 20 20
51 51 51
13 13 13
18 18 18
14 14 14
0 0 0
0 0 0
1 1 1
1 1 1
0 0 0
1 1 1
1 1 1
1 1 1
0 0 0
0 0 0
1 1 1
1 1 1
15 15 15
5 5 5
22 22 22
139 139 139
165 165 165
144 144 144
113 113 113
88 88 88
88 88 88
88 88 88
87 87 87
88 88 88
87 87 87
88 88 88
88 88 88
87 87 87
88 88 88
88 88 88
88 88 88
88 88 88
88 88 88
88 88 88
88 88 88
88 88 88
88 88 88
87 87 87
88 88 88
145 145 145
158 158 158
160 160 160
125 125 125
75 75 75
33 33 33
16 16 16
39 39 39
12 12 12
17 17 17
15 15 15
0 0 0
0 0 0
1 1 1
1 1 1
1 1 1
1 1 1
1 1 1
1 1 1
0 0 0
1 1 1
0 0 0
0 0 0
44 44 44
5 5 5
1 1 1
49 49 49
186 186 186
165 165 165
134 134 134
123 123 123
91 91 91
89 89 89
88 88 88
87 87 87
88 88 88
88 88 88
88 88 88
87 87 87
88 88 88
87 87 87
88 88 88
88 88 88
88 88 88
87 87 87
87 87 87
88 88 88
87 87 87
88 88 88
138 138 138
160 160 160
153 153 153
168 168 168
85 85 85
24 24 24
21 21 21
16 16 16
21 21 21
13 13 13
16 16 16
13 13 13
0 0 0
0 0 0
1 1 1
1 1 1
1 1 1
1 1 1
0 0 0
0 0 0
0 0 0
1 1 1
1 1 1
0 0 0
24 24 24
9 9 9
3 3 3
0 0 0
69 69 69
178 178 178
174 174 174
165 165 165
149 149 149
126 126 126
99 99 99
89 89 89
88 88 88
88 88 88
88 88 88
88 88 88
88 88 88
87 87 87
88 88 88
87 87 87
88 88 88
88 88 88
88 88 88
87 87 87
89 89 89
132 132 132
156 156 156
150 150 150
186 186 186
84 84 84
40 40 40
23 23 23
15 15 15
16 16 16
11 11 11
15 15 15
14 14 14
14 14 14
0 0 0
0 0 0
1 1 1
1 1 1
1 1 1
1 1 1
1 1 1
1 1 1
1 1 1
1 1 1
0 0 0
0 0 0
0 0 0
49 49 49
7 7 7
3 3 3
0 0 0
18 18 18
90 90 90
192 192 192
171 171 171
165 165 165
161 161 161
155 155 155
115 115 115
91 91 91
88 88 88
91 91 91
94 94 94
97 97 97
93 93 93
91 91 91
94 94 94
99 99 99
104 104 104
116 116 116
158 158 158
163 163 163
159 159 159
169 169 169
84 84 84
29 29 29
10 10 10
16 16 16
15 15 15
30 30 30
9 9 9
21 21 21
11 11 11
14 14 14
0 0 0
0 0 0
1 1 1
2 2 2
1 1 1
1 1 1
1 1 1
1 1 1
1 1 1
1 1 1
1 1 1
2 2 2
1 1 1
1 1 1
26 26 26
3 3 3
2 2 2
1 1 1
0 0 0
16 16 16
76 76 76
160 160 160
197 197 197
192 192 192
160 160 160
162 162 162
159 159 159
165 165 165
169 169 169
174 174 174
167 167 167
174 174 174
173 173 173
171 171 171
175 175 175
177 177 177
162 162 162
179 179 179
126 126 126
84 84 84
27 27 27
9 9 9
9 9 9
24 24 24
16 16 16
40 40 40
8 8 8
28 28 28
12 12 12
19 19 19
0 0 0
0 0 0
2 2 2
2 2 2
2 2 2
2 2 2
1 1 1
2 2 2
1 1 1
1 1 1
2 2 2
1 1 1
2 2 2
1 1 1
12 12 12
16 16 16
4 4 4
4 4 4
4 4 4
3 3 3
2 2 2
4 4 4
41 41 41
69 69 69
101 101 101
133 133 133
163 163 163
179 179 179
180 180 180
178 178 178
178 178 178
178 178 178
176 176 176
175 175 175
184 184 184
180 180 180
122 122 122
82 82 82
43 43 43
7 7 7
27 27 27
16 16 16
8 8 8
19 19 19
7 7 7
36 36 36
8 8 8
43 43 43
12 12 12
27 27 27
0 0 0
0 0 0
2 2 2
1 1 1
2 2 2
1 1 1
1 1 1
1 1 1
1 1 1
1 1 1
2 2 2
1 1 1
1 1 1
2 2 2
1 1 1
20 20 20
6 6 6
5 5 5
5 5 5
5 5 5
5 5 5
4 4 4
3 3 3
2 2 2
4 4 4
6 6 6
16 16 16
36 36 36
58 58 58
81 81 81
90 90 90
99 99 99
101 101 101
87 87 87
76 76 76
52 52 52
19 19 19
18 18 18
9 9 9
3 3 3
16 16 16
18 18 18
16 16 16
21 21 21
17 17 17
14 14 14
8 8 8
61 61 61
12 12 12
2 2 2
0 0 0
0 0 0
2 2 2
2 2 2
1 1 1
1 1 1
1 1 1
1 1 1
1 1 1
2 2 2
1 1 1
2 2 2
1 1 1
2 2 2
1 1 1
2 2 2
23 23 23
6 6 6
5 5 5
5 5 5
5 5 5
5 5 5
5 5 5
3 3 3
3 3 3
3 3 3
4 4 4
4 4 4
9 9 9
8 8 8
8 8 8
12 12 12
8 8 8
8 8 8
6 6 6
7 7 7
3 3 3
3 3 3
27 27 27
21 21 21
10 10 10
15 15 15
12 12 12
10 10 10
28 28 28
7 7 7
9 9 9
77 77 77
21 21 21
2 2 2
0 0 0
0 0 0
2 2 2
2 2 2
2 2 2
2 2 2
2 2 2
1 1 1
2 2 2
2 2 2
1 1 1
1 1 1
1 1 1
2 2 2
2 2 2
2 2 2
2 2 2
15 15 15
5 5 5
4 4 4
5 5 5
5 5 5
5 5 5
5 5 5
3 3 3
4 4 4
4 4 4
5 5 5
5 5 5
4 4 4
3 3 3
3 3 3
4 4 4
4 4 4
3 3 3
7 7 7
9 9 9
6 6 6
6 6 6
24 24 24
16 16 16
24 24 24
18 18 18
21 21 21
43 43 43
6 6 6
10 10 10
75 75 75
8 8 8
2 2 2
0 0 0
0 0 0
2 2 2
2 2 2
1 1 1
2 2 2
1 1 1
1 1 1
1 1 1
1 1 1
1 1 1
1 1 1
1 1 1
2 2 2
1 1 1
2 2 2
3 3 3
3 3 3
16 16 16
5 5 5
5 5 5
5 5 5
4 4 4
5 5 5
6 6 6
5 5 5
5 5 5
4 4 4
5 5 5
5 5 5
4 4 4
3 3 3
5 5 5
5 5 5
6 6 6
5 5 5
5 5 5
5 5 5
4 4 4
16 16 16
33 33 33
13 13 13
9 9 9
16 16 16
50 50 50
7 7 7
14 14 14
62 62 62
2 2 2
2 2 2
0 0 0
0 0 0
2 2 2
2 2 2
2 2 2
1 1 1
1 1 1
1 1 1
1 1 1
2 2 2
1 1 1
1 1 1
1 1 1
2 2 2
1 1 1
2 2 2
3 3 3
2 2 2
4 4 4
14 14 14
5 5 5
5 5 5
5 5 5
5 5 5
5 5 5
5 5 5
4 4 4
5 5 5
4 4 4
5 5 5
4 4 4
5 5 5
5 5 5
6 6 6
5 5 5
5 5 5
6 6 6
7 7 7
6 6 6
8 8 8
18 18 18
21 21 21
17 17 17
15 15 15
50 50 50
8 8 8
17 17 17
10 10 10
2 2 2
2 2 2
0 0 0
0 0 0
2 2 2
2 2 2
2 2 2
2 2 2
1 1 1
1 1 1
1 1 1
1 1 1
1 1 1
1 1 1
2 2 2
1 1 1
2 2 2
2 2 2
2 2 2
2 2 2
3 3 3
3 3 3
10 10 10
5 5 5
5 5 5
4 4 4
5 5 5
5 5 5
4 4 4
5 5 5
4 4 4
4 4 4
5 5 5
5 5 5
5 5 5
5 5 5
5 5 5
6 6 6
7 7 7
9 9 9
7 7 7
6 6 6
26 26 26
33 33 33
22 22 22
25 25 25
38 38 38
13 13 13
36 36 36
2 2 2
2 2 2
2 2 2
0 0 0
0 0 0
2 2 2
2 2 2
2 2 2
2 2 2
1 1 1
1 1 1
1 1 1
1 1 1
1 1 1
1 1 1
1 1 1
1 1 1
1 1 1
2 2 2
2 2 2
2 2 2
2 2 2
3 3 3
3 3 3
11 11 11
5 5 5
4 4 4
4 4 4
4 4 4
4 4 4
4 4 4
4 4 4
4 4 4
4 4 4
5 5 5
4 4 4
4 4 4
4 4 4
5 5 5
6 6 6
6 6 6
6 6 6
6 6 6
14 14 14
31 31 31
23 23 23
22 22 22
23 23 23
17 17 17
2 2 2
2 2 2
2 2 2
2 2 2
0 0 0
0 0 0
2 2 2
2 2 2
2 2 2
2 2 2
2 2 2
2 2 2
1 1 1
1 1 1
1 1 1
2 2 2
1 1 1
2 2 2
2 2 2
2 2 2
2 2 2
2 2 2
2 2 2
2 2 2
2 2 2
2 2 2
6 6 6
7 7 7
4 4 4
4 4 4
3 3 3
4 4 4
4 4 4
4 4 4
5 5 5
4 4 4
4 4 4
4 4 4
3 3 3
4 4 4
5 5 5
6 6 6
6 6 6
5 5 5
24 24 24
23 23 23
17 17 17
32 32 32
15 15 15
5 5 5
2 2 2
2 2 2
2 2 2
2 2 2
0 0 0
0 0 0
2 2 2
2 2 2
2 2 2
2 2 2
2 2 2
2 2 2
2 2 2
1 1 1
1 1 1
2 2 2
2 2 2
1 1 1
2 2 2
2 2 2
2 2 2
2 2 2
2 2 2
2 2 2
3 3 3
2 2 2
2 2 2
5 5 5
7 7 7
2 2 2
3 3 3
3 3 3
6 6 6
6 6 6
7 7 7
8 8 8
5 5 5
7 7 7
5 5 5
6 6 6
5 5 5
5 5 5
5 5 5
5 5 5
29 29 29
20 20 20
33 33 33
54 54 54
11 11 11
2 2 2
2 2 2
2 2 2
2 2 2
2 2 2
0 0 0
0 0 0
2 2 2
2 2 2
2 2 2
2 2 2
2 2 2
2 2 2
2 2 2
1 1 1
1 1 1
1 1 1
1 1 1
2 2 2
2 2 2
1 1 1
1 1 1
1 1 1
2 2 2
1 1 1
1 1 1
2 2 2
2 2 2
2 2 2
5 5 5
9 9 9
3 3 3
5 5 5
3 3 3
9 9 9
6 6 6
13 13 13
5 5 5
4 4 4
10 10 10
10 10 10
5 5 5
5 5 5
6 6 6
18 18 18
31 31 31
27 27 27
28 28 28
32 32 32
2 2 2
2 2 2
2 2 2
2 2 2
2 2 2
2 2 2
0 0 0
0 0 0
2 2 2
2 2 2
2 2 2
2 2 2
2 2 2
2 2 2
2 2 2
2 2 2
1 1 1
1 1 1
1 1 1
1 1 1
1 1 1
1 1 1
2 2 2
2 2 2
1 1 1
2 2 2
2 2 2
2 2 2
2 2 2
2 2 2
2 2 2
4 4 4
7 7 7
9 9 9
2 2 2
5 5 5
9 9 9
15 15 15
11 11 11
9 9 9
14 14 14
11 11 11
19 19 19
15 15 15
20 20 20
25 25 25
19 19 19
19 19 19
15 15 15
2 2 2
2 2 2
2 2 2
2 2 2
2 2 2
2 2 2
2 2 2
0 0 0
0 0 0
2 2 2
2 2 2
2 2 2
2 2 2
2 2 2
2 2 2
2 2 2
2 2 2
2 2 2
1 1 1
1 1 1
1 1 1
1 1 1
1 1 1
1 1 1
1 1 1
1 1 1
2 2 2
2 2 2
1 1 1
1 1 1
2 2 2
2 2 2
2 2 2
6 6 6
11 11 11
8 8 8
9 9 9
9 9 9
15 15 15
14 14 14
16 16 16
14 14 14
12 12 12
18 18 18
25 25 25
18 18 18
22 22 22
28 28 28
6 6 6
2 2 2
2 2 2
2 2 2
2 2 2
2 2 2
2 2 2
2 2 2
2 2 2
0 0 0
0 0 0
2 2 2
2 2 2
2 2 2
2 2 2
2 2 2
2 2 2
2 2 2
2 2 2
2 2 2
2 2 2
1 1 1
1 1 1
1 1 1
1 1 1
1 1 1
1 1 1
2 2 2
1 1 1
2 2 2
2 2 2
2 2 2
2 2 2
2 2 2
3 3 3
3 3 3
3 3 3
13 13 13
9 9 9
11 11 11
7 7 7
11 11 11
14 14 14
13 13 13
9 9 9
10 10 10
16 16 16
16 16 16
28 28 28
2 2 2
2 2 2
2 2 2
2 2 2
2 2 2
2 2 2
2 2 2
2 2 2
2 2 2
2 2 2
0 0 0
0 0 0
2 2 2
2 2 2
2 2 2
2 2 2
2 2 2
2 2 2
2 2 2
2 2 2
2 2 2
2 2 2
2 2 2
2 2 2
1 1 1
1 1 1
1 1 1
1 1 1
1 1 1
2 2 2
1 1 1
2 2 2
2 2 2
2 2 2
1 1 1
2 2 2
2 2 2
2 2 2
3 3 3
13 13 13
5 5 5
7 7 7
11 11 11
21 21 21
20 20 20
19 19 19
15 15 15
19 19 19
4 4 4
2 2 2
2 2 2
2 2 2
2 2 2
2 2 2
2 2 2
2 2 2
2 2 2
2 2 2
2 2 2
2 2 2
0 0 0
0 0 0
2 2 2
2 2 2
2 2 2
2 2 2
2 2 2
2 2 2
2 2 2
2 2 2
2 2 2
2 2 2
2 2 2
2 2 2
2 2 2
2 2 2
1 1 1
1 1 1
1 1 1
1 1 1
2 2 2
2 2 2
2 2 2
2 2 2
2 2 2
2 2 2
3 3 3
2 2 2
3 3 3
4 4 4
16 16 16
4 4 4
7 7 7
15 15 15
21 21 21
25 25 25
3 3 3
2 2 2
2 2 2
2 2 2
2 2 2
2 2 2
2 2 2
2 2 2
2 2 2
2 2 2
2 2 2
2 2 2
2 2 2
2 2 2
0 0 0
0 0 0
2 2 2
2 2 2
2 2 2
2 2 2
2 2 2
2 2 2
2 2 2
2 2 2
2 2 2
2 2 2
2 2 2
2 2 2
2 2 2
2 2 2
2 2 2
2 2 2
1 1 1
1 1 1
1 1 1
1 1 1
2 2 2
2 2 2
2 2 2
2 2 2
2 2 2
3 3 3
4 4 4
3 3 3
5 5 5
16 16 16
8 8 8
18 18 18
2 2 2
2 2 2
2 2 2
2 2 2
2 2 2
2 2 2
2 2 2
2 2 2
2 2 2
2 2 2
2 2 2
2 2 2
2 2 2
2 2 2
2 2 2
2 2 2
0 0 0
0 0 0
0 0 0
0 0 0
0 0 0
0 0 0
0 0 0
0 0 0
0 0 0
0 0 0
0 0 0
0 0 0
0 0 0
0 0 0
0 0 0
0 0 0
0 0 0
0 0 0
0 0 0
0 0 0
0 0 0
0 0 0
0 0 0
0 0 0
0 0 0
0 0 0
0 0 0
0 0 0
0 0 0
0 0 0
0 0 0
0 0 0
0 0 0
0 0 0
0 0 0
0 0 0
0 0 0
0 0 0
0 0 0
0 0 0
0 0 0
0 0 0
0 0 0
0 0 0
0 0 0
0 0 0
0 0 0
0 0 0
0 0 0
0 0 0
0 0 0
