P3 
50 50 
255
0 0 0
0 0 0
0 0 0
0 0 0
0 0 0
0 0 0
0 0 0
0 0 0
0 0 0
0 0 0
0 0 0
0 0 0
0 0 0
0 0 0
0 0 0
0 0 0
0 0 0
0 0 0
0 0 0
0 0 0
0 0 0
0 0 0
0 0 0
0 0 0
0 0 0
0 0 0
0 0 0
0 0 0
0 0 0
0 0 0
0 0 0
0 0 0
0 0 0
0 0 0
0 0 0
0 0 0
0 0 0
0 0 0
0 0 0
0 0 0
0 0 0
0 0 0
0 0 0
0 0 0
0 0 0
0 0 0
0 0 0
0 0 0
0 0 0
0 0 0
0 0 0
2 2 2
2 2 2
2 2 2
2 2 2
2 2 2
2 2 2
2 2 2
2 2 2
2 2 2
2 2 2
2 2 2
2 2 2
2 2 2
2 2 2
2 2 2
2 2 2
2 2 2
2 2 2
2 2 2
2 2 2
2 2 2
3 3 3
4 4 4
4 4 4
4 4 4
4 4 4
4 4 4
5 5 5
5 5 5
11 11 11
9 9 9
3 3 3
2 2 2
2 2 2
2 2 2
2 2 2
2 2 2
2 2 2
2 2 2
2 2 2
2 2 2
2 2 2
2 2 2
2 2 2
2 2 2
2 2 2
2 2 2
2 2 2
0 0 0
0 0 0
2 2 2
2 2 2
2 2 2
2 2 2
2 2 2
2 2 2
2 2 2
2 2 2
2 2 2
2 2 2
2 2 2
2 2 2
2 2 2
2 2 2
1 1 1
2 2 2
1 1 1
2 2 2
2 2 2
2 2 2
3 3 3
4 4 4
4 4 4
4 4 4
3 3 3
3 3 3
3 3 3
4 4 4
7 7 7
8 8 8
9 9 9
9 9 9
9 9 9
9 9 9
2 2 2
2 2 2
2 2 2
2 2 2
2 2 2
2 2 2
2 2 2
2 2 2
2 2 2
2 2 2
2 2 2
2 2 2
2 2 2
2 2 2
0 0 0
0 0 0
2 2 2
2 2 2
2 2 2
2 2 2
2 2 2
2 2 2
2 2 2
2 2 2
2 2 2
2 2 2
2 2 2
2 2 2
1 1 1
1 1 1
2 2 2
2 2 2
2 2 2
2 2 2
2 2 2
3 3 3
4 4 4
4 4 4
4 4 4
4 4 4
3 3 3
3 3 3
6 6 6
9 9 9
4 4 4
5 5 5
7 7 7
6 6 6
7 7 7
8 8 8
9 9 9
10 10 10
2 2 2
2 2 2
2 2 2
2 2 2
2 2 2
2 2 2
2 2 2
2 2 2
2 2 2
2 2 2
2 2 2
2 2 2
0 0 0
0 0 0
2 2 2
2 2 2
2 2 2
2 2 2
2 2 2
2 2 2
2 2 2
2 2 2
2 2 2
2 2 2
2 2 2
1 1 1
1 1 1
1 1 1
1 1 1
2 2 2
2 2 2
2 2 2
3 3 3
4 4 4
4 4 4
4 4 4
4 4 4
4 4 4
3 3 3
4 4 4
10 10 10
8 8 8
9 9 9
11 11 11
14 14 14
5 5 5
4 4 4
9 9 9
8 8 8
7 7 7
8 8 8
7 7 7
2 2 2
2 2 2
2 2 2
2 2 2
2 2 2
2 2 2
2 2 2
2 2 2
2 2 2
2 2 2
0 0 0
0 0 0
2 2 2
2 2 2
2 2 2
2 2 2
2 2 2
2 2 2
2 2 2
2 2 2
2 2 2
1 1 1
1 1 1
1 1 1
1 1 1
2 2 2
2 2 2
2 2 2
2 2 2
3 3 3
4 4 4
4 4 4
4 4 4
5 5 5
4 4 4
5 5 5
3 3 3
8 8 8
12 12 12
7 7 7
14 14 14
10 10 10
7 7 7
4 4 4
7 7 7
5 5 5
9 9 9
9 9 9
7 7 7
7 7 7
10 10 10
2 2 2
2 2 2
2 2 2
2 2 2
2 2 2
2 2 2
2 2 2
2 2 2
2 2 2
0 0 0
0 0 0
2 2 2
2 2 2
2 2 2
2 2 2
2 2 2
2 2 2
2 2 2
2 2 2
1 1 1
1 1 1
1 1 1
1 1 1
2 2 2
2 2 2
2 2 2
2 2 2
4 4 4
4 4 4
4 4 4
4 4 4
4 4 4
4 4 4
4 4 4
5 5 5
6 6 6
8 8 8
9 9 9
7 7 7
7 7 7
11 11 11
11 11 11
9 9 9
10 10 10
9 9 9
4 4 4
4 4 4
7 7 7
5 5 5
7 7 7
14 14 14
5 5 5
2 2 2
2 2 2
2 2 2
2 2 2
2 2 2
2 2 2
2 2 2
0 0 0
0 0 0
2 2 2
2 2 2
2 2 2
2 2 2
2 2 2
2 2 2
2 2 2
1 1 1
1 1 1
1 1 1
1 1 1
2 2 2
1 1 1
2 2 2
2 2 2
3 3 3
3 3 3
4 4 4
4 4 4
4 4 4
4 4 4
4 4 4
5 5 5
5 5 5
7 7 7
5 5 5
7 7 7
9 9 9
7 7 7
12 12 12
8 8 8
10 10 10
9 9 9
8 8 8
10 10 10
8 8 8
3 3 3
6 6 6
12 12 12
8 8 8
34 34 34
6 6 6
2 2 2
2 2 2
2 2 2
2 2 2
2 2 2
2 2 2
0 0 0
0 0 0
2 2 2
2 2 2
2 2 2
2 2 2
2 2 2
2 2 2
1 1 1
1 1 1
1 1 1
2 2 2
1 1 1
1 1 1
2 2 2
2 2 2
4 4 4
4 4 4
4 4 4
4 4 4
4 4 4
4 4 4
5 5 5
5 5 5
5 5 5
11 11 11
8 8 8
8 8 8
6 6 6
5 5 5
7 7 7
8 8 8
6 6 6
4 4 4
4 4 4
4 4 4
3 3 3
7 7 7
4 4 4
9 9 9
5 5 5
11 11 11
42 42 42
13 13 13
4 4 4
2 2 2
2 2 2
2 2 2
2 2 2
2 2 2
0 0 0
0 0 0
2 2 2
2 2 2
2 2 2
2 2 2
2 2 2
1 1 1
1 1 1
1 1 1
1 1 1
1 1 1
1 1 1
1 1 1
2 2 2
3 3 3
4 4 4
4 4 4
4 4 4
5 5 5
4 4 4
4 4 4
5 5 5
9 9 9
10 10 10
11 11 11
5 5 5
7 7 7
5 5 5
5 5 5
7 7 7
10 10 10
8 8 8
5 5 5
8 8 8
13 13 13
13 13 13
6 6 6
5 5 5
9 9 9
4 4 4
5 5 5
28 28 28
11 11 11
15 15 15
2 2 2
2 2 2
2 2 2
2 2 2
2 2 2
0 0 0
0 0 0
2 2 2
2 2 2
2 2 2
2 2 2
1 1 1
1 1 1
1 1 1
1 1 1
1 1 1
1 1 1
1 1 1
1 1 1
3 3 3
3 3 3
3 3 3
4 4 4
4 4 4
5 5 5
4 4 4
6 6 6
9 9 9
12 12 12
15 15 15
8 8 8
9 9 9
13 13 13
17 17 17
12 12 12
7 7 7
7 7 7
7 7 7
8 8 8
9 9 9
14 14 14
12 12 12
10 10 10
12 12 12
13 13 13
4 4 4
3 3 3
12 12 12
8 8 8
11 11 11
17 17 17
2 2 2
2 2 2
2 2 2
2 2 2
0 0 0
0 0 0
2 2 2
2 2 2
2 2 2
2 2 2
1 1 1
1 1 1
1 1 1
1 1 1
0 0 0
1 1 1
1 1 1
2 2 2
3 3 3
3 3 3
4 4 4
4 4 4
4 4 4
3 3 3
5 5 5
9 9 9
7 7 7
7 7 7
6 6 6
7 7 7
27 27 27
41 41 41
40 40 40
36 36 36
44 44 44
48 48 48
49 49 49
51 51 51
55 55 55
53 53 53
30 30 30
13 13 13
6 6 6
6 6 6
8 8 8
3 3 3
5 5 5
17 17 17
8 8 8
13 13 13
20 20 20
2 2 2
2 2 2
2 2 2
0 0 0
0 0 0
2 2 2
2 2 2
2 2 2
1 1 1
1 1 1
1 1 1
1 1 1
1 1 1
1 1 1
1 1 1
1 1 1
3 3 3
3 3 3
5 5 5
2 2 2
2 2 2
2 2 2
6 6 6
11 11 11
5 5 5
11 11 11
30 30 30
59 59 59
77 77 77
87 87 87
88 88 88
90 90 90
89 89 89
89 89 89
87 87 87
87 87 87
86 86 86
85 85 85
84 84 84
82 82 82
54 54 54
13 13 13
5 5 5
11 11 11
5 5 5
4 4 4
39 39 39
6 6 6
11 11 11
16 16 16
6 6 6
2 2 2
2 2 2
0 0 0
0 0 0
2 2 2
2 2 2
2 2 2
1 1 1
1 1 1
1 1 1
1 1 1
1 1 1
1 1 1
1 1 1
2 2 2
2 2 2
3 3 3
2 2 2
1 1 1
1 1 1
2 2 2
15 15 15
12 12 12
58 58 58
81 81 81
86 86 86
91 91 91
101 101 101
116 116 116
134 134 134
148 148 148
152 152 152
152 152 152
149 149 149
139 139 139
131 131 131
119 119 119
99 99 99
84 84 84
81 81 81
53 53 53
9 9 9
10 10 10
5 5 5
11 11 11
36 36 36
5 5 5
9 9 9
12 12 12
68 68 68
2 2 2
2 2 2
0 0 0
0 0 0
2 2 2
2 2 2
1 1 1
1 1 1
1 1 1
1 1 1
0 0 0
1 1 1
1 1 1
1 1 1
2 2 2
2 2 2
3 3 3
2 2 2
1 1 1
1 1 1
6 6 6
26 26 26
76 76 76
88 88 88
106 106 106
141 141 141
174 174 174
189 189 189
204 204 204
194 194 194
173 173 173
176 176 176
179 179 179
175 175 175
175 175 175
173 173 173
161 161 161
159 159 159
126 126 126
92 92 92
80 80 80
42 42 42
11 11 11
14 14 14
21 21 21
12 12 12
9 9 9
8 8 8
10 10 10
76 76 76
5 5 5
2 2 2
0 0 0
0 0 0
2 2 2
1 1 1
1 1 1
1 1 1
1 1 1
1 1 1
0 0 0
1 1 1
1 1 1
2 2 2
2 2 2
2 2 2
2 2 2
2 2 2
1 1 1
7 7 7
50 50 50
82 82 82
100 100 100
176 176 176
180 180 180
171 171 171
165 165 165
166 166 166
181 181 181
189 189 189
168 168 168
171 171 171
175 175 175
171 171 171
170 170 170
170 170 170
153 153 153
153 153 153
154 154 154
158 158 158
101 101 101
81 81 81
43 43 43
42 42 42
23 23 23
13 13 13
34 34 34
7 7 7
9 9 9
70 70 70
23 23 23
2 2 2
0 0 0
0 0 0
2 2 2
1 1 1
1 1 1
1 1 1
0 0 0
1 1 1
1 1 1
1 1 1
1 1 1
2 2 2
2 2 2
1 1 1
1 1 1
1 1 1
2 2 2
49 49 49
84 84 84
107 107 107
181 181 181
177 177 177
163 163 163
164 164 164
170 170 170
173 173 173
170 170 170
173 173 173
134 134 134
134 134 134
126 126 126
117 117 117
117 117 117
121 121 121
125 125 125
116 116 116
152 152 152
160 160 160
160 160 160
96 96 96
77 77 77
47 47 47
17 17 17
9 9 9
44 44 44
6 6 6
7 7 7
51 51 51
14 14 14
3 3 3
0 0 0
0 0 0
2 2 2
1 1 1
1 1 1
1 1 1
0 0 0
1 1 1
1 1 1
1 1 1
2 2 2
2 2 2
2 2 2
1 1 1
1 1 1
1 1 1
14 14 14
80 80 80
98 98 98
171 171 171
175 175 175
170 170 170
176 176 176
173 173 173
174 174 174
159 159 159
148 148 148
107 107 107
92 92 92
92 92 92
90 90 90
91 91 91
91 91 91
92 92 92
91 91 91
89 89 89
93 93 93
135 135 135
165 165 165
139 139 139
87 87 87
39 39 39
21 21 21
11 11 11
27 27 27
7 7 7
7 7 7
36 36 36
12 12 12
17 17 17
0 0 0
0 0 0
1 1 1
0 0 0
1 1 1
1 1 1
1 1 1
1 1 1
1 1 1
1 1 1
2 2 2
2 2 2
1 1 1
2 2 2
1 1 1
0 0 0
42 42 42
84 84 84
143 143 143
176 176 176
168 168 168
179 179 179
176 176 176
140 140 140
110 110 110
98 98 98
91 91 91
89 89 89
88 88 88
89 89 89
89 89 89
89 89 89
89 89 89
89 89 89
89 89 89
89 89 89
91 91 91
108 108 108
186 186 186
154 154 154
89 89 89
29 29 29
22 22 22
8 8 8
13 13 13
12 12 12
6 6 6
24 24 24
12 12 12
19 19 19
0 0 0
0 0 0
1 1 1
1 1 1
1 1 1
1 1 1
1 1 1
1 1 1
1 1 1
2 2 2
2 2 2
2 2 2
2 2 2
1 1 1
1 1 1
0 0 0
63 63 63
93 93 93
178 178 178
174 174 174
181 181 181
131 131 131
96 96 96
89 89 89
89 89 89
89 89 89
88 88 88
89 89 89
88 88 88
89 89 89
90 90 90
89 89 89
89 89 89
89 89 89
89 89 89
90 90 90
94 94 94
163 163 163
192 192 192
159 159 159
92 92 92
30 30 30
34 34 34
18 18 18
11 11 11
29 29 29
8 8 8
19 19 19
13 13 13
15 15 15
0 0 0
0 0 0
1 1 1
1 1 1
1 1 1
1 1 1
1 1 1
1 1 1
0 0 0
1 1 1
1 1 1
1 1 1
0 0 0
0 0 0
0 0 0
0 0 0
69 69 69
110 110 110
169 169 169
168 168 168
115 115 115
93 93 93
91 91 91
90 90 90
90 90 90
91 91 91
90 90 90
91 91 91
90 90 90
90 90 90
91 91 91
91 91 91
91 91 91
92 92 92
93 93 93
101 101 101
164 164 164
185 185 185
179 179 179
188 188 188
97 97 97
33 33 33
28 28 28
16 16 16
11 11 11
46 46 46
9 9 9
15 15 15
14 14 14
13 13 13
0 0 0
0 0 0
1 1 1
1 1 1
0 0 0
1 1 1
1 1 1
0 0 0
1 1 1
0 0 0
0 0 0
0 0 0
0 0 0
0 0 0
0 0 0
0 0 0
69 69 69
115 115 115
178 178 178
177 177 177
189 189 189
106 106 106
90 90 90
90 90 90
90 90 90
91 91 91
90 90 90
90 90 90
89 89 89
89 89 89
90 90 90
90 90 90
89 89 89
89 89 89
91 91 91
96 96 96
117 117 117
175 175 175
177 177 177
192 192 192
97 97 97
37 37 37
28 28 28
7 7 7
12 12 12
42 42 42
9 9 9
12 12 12
16 16 16
14 14 14
0 0 0
0 0 0
1 1 1
1 1 1
0 0 0
0 0 0
1 1 1
1 1 1
1 1 1
1 1 1
1 1 1
0 0 0
0 0 0
0 0 0
0 0 0
0 0 0
62 62 62
101 101 101
183 183 183
173 173 173
177 177 177
186 186 186
115 115 115
90 90 90
90 90 90
90 90 90
91 91 91
92 92 92
90 90 90
89 89 89
90 90 90
90 90 90
89 89 89
91 91 91
92 92 92
98 98 98
100 100 100
148 148 148
184 184 184
175 175 175
90 90 90
37 37 37
21 21 21
5 5 5
13 13 13
30 30 30
8 8 8
10 10 10
16 16 16
13 13 13
0 0 0
0 0 0
1 1 1
1 1 1
1 1 1
1 1 1
1 1 1
1 1 1
0 0 0
1 1 1
2 2 2
0 0 0
0 0 0
0 0 0
0 0 0
0 0 0
37 37 37
87 87 87
171 171 171
179 179 179
176 176 176
188 188 188
189 189 189
146 146 146
100 100 100
96 96 96
97 97 97
94 94 94
95 95 95
96 96 96
97 97 97
98 98 98
99 99 99
104 104 104
116 116 116
131 131 131
106 106 106
147 147 147
185 185 185
124 124 124
81 81 81
27 27 27
18 18 18
16 16 16
13 13 13
21 21 21
8 8 8
11 11 11
16 16 16
13 13 13
0 0 0
0 0 0
1 1 1
1 1 1
1 1 1
0 0 0
0 0 0
0 0 0
0 0 0
2 2 2
2 2 2
2 2 2
0 0 0
0 0 0
0 0 0
0 0 0
13 13 13
80 80 80
122 122 122
187 187 187
170 170 170
173 173 173
188 188 188
188 188 188
180 180 180
167 167 167
132 132 132
117 117 117
126 126 126
132 132 132
139 139 139
146 146 146
158 158 158
171 171 171
173 173 173
174 174 174
172 172 172
186 186 186
156 156 156
90 90 90
67 67 67
14 14 14
20 20 20
15 15 15
16 16 16
19 19 19
6 6 6
10 10 10
16 16 16
11 11 11
0 0 0
0 0 0
1 1 1
1 1 1
0 0 0
0 0 0
1 1 1
0 0 0
1 1 1
2 2 2
2 2 2
2 2 2
2 2 2
1 1 1
0 0 0
0 0 0
0 0 0
33 33 33
84 84 84
134 134 134
195 195 195
170 170 170
176 176 176
180 180 180
178 178 178
184 184 184
186 186 186
174 174 174
174 174 174
177 177 177
176 176 176
172 172 172
171 171 171
167 167 167
166 166 166
172 172 172
176 176 176
164 164 164
98 98 98
76 76 76
28 28 28
22 22 22
13 13 13
17 17 17
22 22 22
21 21 21
8 8 8
10 10 10
15 15 15
11 11 11
0 0 0
0 0 0
1 1 1
1 1 1
1 1 1
1 1 1
1 1 1
1 1 1
2 2 2
2 2 2
2 2 2
2 2 2
2 2 2
2 2 2
2 2 2
0 0 0
0 0 0
2 2 2
28 28 28
82 82 82
133 133 133
192 192 192
173 173 173
158 158 158
171 171 171
173 173 173
195 195 195
177 177 177
176 176 176
174 174 174
172 172 172
165 165 165
167 167 167
166 166 166
171 171 171
183 183 183
158 158 158
98 98 98
77 77 77
45 45 45
8 8 8
13 13 13
16 16 16
18 18 18
11 11 11
29 29 29
7 7 7
10 10 10
17 17 17
13 13 13
0 0 0
0 0 0
1 1 1
1 1 1
1 1 1
1 1 1
1 1 1
1 1 1
2 2 2
2 2 2
2 2 2
2 2 2
2 2 2
3 3 3
2 2 2
2 2 2
2 2 2
1 1 1
3 3 3
17 17 17
72 72 72
116 116 116
169 169 169
192 192 192
190 190 190
195 195 195
204 204 204
183 183 183
179 179 179
185 185 185
184 184 184
185 185 185
185 185 185
179 179 179
161 161 161
120 120 120
88 88 88
75 75 75
39 39 39
7 7 7
13 13 13
12 12 12
11 11 11
19 19 19
10 10 10
38 38 38
8 8 8
11 11 11
15 15 15
14 14 14
0 0 0
0 0 0
1 1 1
1 1 1
1 1 1
1 1 1
1 1 1
1 1 1
2 2 2
3 3 3
3 3 3
3 3 3
3 3 3
3 3 3
3 3 3
3 3 3
3 3 3
2 2 2
2 2 2
8 8 8
6 6 6
45 45 45
80 80 80
102 102 102
123 123 123
145 145 145
165 165 165
165 165 165
149 149 149
138 138 138
125 125 125
115 115 115
106 106 106
97 97 97
90 90 90
82 82 82
55 55 55
26 26 26
5 5 5
10 10 10
5 5 5
12 12 12
14 14 14
13 13 13
11 11 11
46 46 46
9 9 9
12 12 12
14 14 14
14 14 14
0 0 0
0 0 0
1 1 1
1 1 1
1 1 1
1 1 1
1 1 1
1 1 1
1 1 1
1 1 1
1 1 1
3 3 3
3 3 3
3 3 3
3 3 3
3 3 3
2 2 2
2 2 2
2 2 2
3 3 3
8 8 8
3 3 3
7 7 7
20 20 20
42 42 42
62 62 62
80 80 80
83 83 83
81 81 81
78 78 78
73 73 73
65 65 65
61 61 61
58 58 58
38 38 38
15 15 15
8 8 8
6 6 6
7 7 7
21 21 21
12 12 12
6 6 6
9 9 9
5 5 5
10 10 10
42 42 42
8 8 8
15 15 15
13 13 13
14 14 14
0 0 0
0 0 0
1 1 1
1 1 1
1 1 1
1 1 1
1 1 1
1 1 1
0 0 0
1 1 1
0 0 0
0 0 0
0 0 0
2 2 2
2 2 2
3 3 3
3 3 3
3 3 3
3 3 3
4 4 4
3 3 3
9 9 9
7 7 7
5 5 5
5 5 5
4 4 4
5 5 5
6 6 6
6 6 6
6 6 6
6 6 6
5 5 5
5 5 5
6 6 6
8 8 8
11 11 11
12 12 12
4 4 4
5 5 5
3 3 3
8 8 8
10 10 10
8 8 8
17 17 17
18 18 18
30 30 30
8 8 8
22 22 22
11 11 11
14 14 14
0 0 0
0 0 0
1 1 1
1 1 1
1 1 1
1 1 1
1 1 1
1 1 1
1 1 1
1 1 1
1 1 1
1 1 1
1 1 1
1 1 1
3 3 3
3 3 3
4 4 4
4 4 4
4 4 4
4 4 4
5 5 5
5 5 5
7 7 7
10 10 10
5 5 5
5 5 5
4 4 4
4 4 4
5 5 5
5 5 5
5 5 5
7 7 7
7 7 7
6 6 6
9 9 9
11 11 11
11 11 11
25 25 25
10 10 10
8 8 8
6 6 6
19 19 19
22 22 22
11 11 11
10 10 10
20 20 20
8 8 8
30 30 30
11 11 11
18 18 18
0 0 0
0 0 0
1 1 1
1 1 1
1 1 1
1 1 1
1 1 1
1 1 1
1 1 1
1 1 1
1 1 1
1 1 1
1 1 1
2 2 2
2 2 2
3 3 3
4 4 4
4 4 4
4 4 4
4 4 4
4 4 4
5 5 5
5 5 5
5 5 5
7 7 7
10 10 10
12 12 12
8 8 8
5 5 5
5 5 5
5 5 5
7 7 7
4 4 4
6 6 6
11 11 11
13 13 13
19 19 19
10 10 10
10 10 10
3 3 3
10 10 10
13 13 13
19 19 19
23 23 23
13 13 13
15 15 15
8 8 8
42 42 42
13 13 13
27 27 27
0 0 0
0 0 0
2 2 2
1 1 1
1 1 1
2 2 2
1 1 1
1 1 1
1 1 1
1 1 1
1 1 1
1 1 1
1 1 1
2 2 2
2 2 2
2 2 2
3 3 3
4 4 4
4 4 4
4 4 4
5 5 5
5 5 5
6 6 6
6 6 6
6 6 6
6 6 6
5 5 5
6 6 6
9 9 9
10 10 10
11 11 11
9 9 9
4 4 4
8 8 8
4 4 4
4 4 4
7 7 7
15 15 15
12 12 12
9 9 9
17 17 17
17 17 17
7 7 7
21 21 21
11 11 11
8 8 8
9 9 9
60 60 60
13 13 13
2 2 2
0 0 0
0 0 0
2 2 2
1 1 1
2 2 2
1 1 1
1 1 1
1 1 1
1 1 1
1 1 1
1 1 1
1 1 1
2 2 2
2 2 2
2 2 2
2 2 2
2 2 2
4 4 4
4 4 4
4 4 4
5 5 5
4 4 4
5 5 5
5 5 5
6 6 6
6 6 6
5 5 5
5 5 5
4 4 4
4 4 4
3 3 3
4 4 4
4 4 4
4 4 4
6 6 6
5 5 5
3 3 3
21 21 21
5 5 5
11 11 11
13 13 13
17 17 17
20 20 20
10 10 10
42 42 42
7 7 7
10 10 10
75 75 75
21 21 21
2 2 2
0 0 0
0 0 0
2 2 2
2 2 2
2 2 2
1 1 1
1 1 1
1 1 1
1 1 1
2 2 2
1 1 1
2 2 2
1 1 1
2 2 2
2 2 2
2 2 2
2 2 2
2 2 2
3 3 3
4 4 4
4 4 4
5 5 5
5 5 5
5 5 5
5 5 5
5 5 5
5 5 5
5 5 5
4 4 4
4 4 4
4 4 4
5 5 5
5 5 5
4 4 4
4 4 4
4 4 4
3 3 3
5 5 5
11 11 11
6 6 6
5 5 5
29 29 29
29 29 29
18 18 18
26 26 26
7 7 7
11 11 11
75 75 75
8 8 8
2 2 2
0 0 0
0 0 0
2 2 2
2 2 2
1 1 1
1 1 1
1 1 1
1 1 1
1 1 1
1 1 1
1 1 1
1 1 1
2 2 2
1 1 1
2 2 2
2 2 2
2 2 2
2 2 2
3 3 3
3 3 3
4 4 4
4 4 4
5 5 5
5 5 5
5 5 5
5 5 5
5 5 5
6 6 6
4 4 4
3 3 3
5 5 5
4 4 4
5 5 5
5 5 5
5 5 5
4 4 4
3 3 3
11 11 11
19 19 19
18 18 18
17 17 17
18 18 18
22 22 22
33 33 33
5 5 5
9 9 9
14 14 14
62 62 62
2 2 2
2 2 2
0 0 0
0 0 0
2 2 2
2 2 2
2 2 2
1 1 1
2 2 2
2 2 2
1 1 1
1 1 1
2 2 2
1 1 1
1 1 1
2 2 2
2 2 2
2 2 2
2 2 2
3 3 3
2 2 2
2 2 2
3 3 3
3 3 3
5 5 5
4 4 4
5 5 5
5 5 5
5 5 5
5 5 5
5 5 5
5 5 5
5 5 5
5 5 5
4 4 4
4 4 4
5 5 5
5 5 5
3 3 3
8 8 8
4 4 4
4 4 4
29 29 29
22 22 22
21 21 21
48 48 48
5 5 5
10 10 10
16 16 16
9 9 9
2 2 2
2 2 2
0 0 0
0 0 0
2 2 2
2 2 2
2 2 2
2 2 2
1 1 1
2 2 2
2 2 2
1 1 1
1 1 1
2 2 2
1 1 1
1 1 1
2 2 2
2 2 2
2 2 2
2 2 2
2 2 2
2 2 2
2 2 2
3 3 3
3 3 3
3 3 3
5 5 5
4 4 4
4 4 4
5 5 5
5 5 5
5 5 5
4 4 4
5 5 5
4 4 4
4 4 4
5 5 5
4 4 4
4 4 4
5 5 5
15 15 15
9 9 9
21 21 21
13 13 13
12 12 12
56 56 56
8 8 8
13 13 13
33 33 33
2 2 2
2 2 2
2 2 2
0 0 0
0 0 0
2 2 2
2 2 2
2 2 2
2 2 2
1 1 1
2 2 2
1 1 1
2 2 2
1 1 1
2 2 2
2 2 2
2 2 2
1 1 1
2 2 2
2 2 2
2 2 2
2 2 2
3 3 3
2 2 2
3 3 3
3 3 3
3 3 3
3 3 3
3 3 3
4 4 4
4 4 4
5 5 5
5 5 5
4 4 4
4 4 4
4 4 4
4 4 4
11 11 11
9 9 9
5 5 5
13 13 13
6 6 6
9 9 9
18 18 18
13 13 13
8 8 8
43 43 43
10 10 10
15 15 15
2 2 2
2 2 2
2 2 2
2 2 2
0 0 0
0 0 0
2 2 2
2 2 2
2 2 2
2 2 2
2 2 2
2 2 2
2 2 2
1 1 1
1 1 1
1 1 1
2 2 2
2 2 2
2 2 2
2 2 2
2 2 2
2 2 2
2 2 2
2 2 2
2 2 2
2 2 2
3 3 3
3 3 3
3 3 3
3 3 3
3 3 3
3 3 3
3 3 3
14 14 14
6 6 6
13 13 13
11 11 11
8 8 8
12 12 12
14 14 14
21 21 21
3 3 3
6 6 6
7 7 7
11 11 11
17 17 17
11 11 11
22 22 22
15 15 15
5 5 5
2 2 2
2 2 2
2 2 2
2 2 2
0 0 0
0 0 0
2 2 2
2 2 2
2 2 2
2 2 2
2 2 2
2 2 2
1 1 1
1 1 1
1 1 1
2 2 2
2 2 2
2 2 2
2 2 2
2 2 2
2 2 2
2 2 2
2 2 2
2 2 2
2 2 2
2 2 2
2 2 2
2 2 2
3 3 3
2 2 2
5 5 5
7 7 7
9 9 9
6 6 6
10 10 10
6 6 6
11 11 11
5 5 5
3 3 3
6 6 6
15 15 15
10 10 10
12 12 12
18 18 18
24 24 24
12 12 12
23 23 23
14 14 14
10 10 10
2 2 2
2 2 2
2 2 2
2 2 2
2 2 2
0 0 0
0 0 0
2 2 2
2 2 2
2 2 2
2 2 2
2 2 2
2 2 2
2 2 2
2 2 2
1 1 1
1 1 1
2 2 2
1 1 1
1 1 1
2 2 2
2 2 2
2 2 2
2 2 2
2 2 2
2 2 2
2 2 2
2 2 2
2 2 2
2 2 2
3 3 3
6 6 6
3 3 3
6 6 6
3 3 3
9 9 9
7 7 7
8 8 8
4 4 4
16 16 16
16 16 16
15 15 15
12 12 12
20 20 20
15 15 15
18 18 18
16 16 16
51 51 51
17 17 17
2 2 2
2 2 2
2 2 2
2 2 2
2 2 2
2 2 2
0 0 0
0 0 0
2 2 2
2 2 2
2 2 2
2 2 2
2 2 2
2 2 2
2 2 2
2 2 2
2 2 2
1 1 1
1 1 1
1 1 1
2 2 2
1 1 1
2 2 2
2 2 2
2 2 2
2 2 2
2 2 2
2 2 2
2 2 2
2 2 2
2 2 2
2 2 2
2 2 2
4 4 4
5 5 5
3 3 3
4 4 4
3 3 3
11 11 11
13 13 13
8 8 8
20 20 20
14 14 14
4 4 4
21 21 21
24 24 24
26 26 26
13 13 13
13 13 13
2 2 2
2 2 2
2 2 2
2 2 2
2 2 2
2 2 2
2 2 2
0 0 0
0 0 0
2 2 2
2 2 2
2 2 2
2 2 2
2 2 2
2 2 2
2 2 2
2 2 2
2 2 2
1 1 1
1 1 1
1 1 1
1 1 1
1 1 1
1 1 1
2 2 2
2 2 2
2 2 2
2 2 2
2 2 2
2 2 2
2 2 2
2 2 2
2 2 2
3 3 3
3 3 3
3 3 3
3 3 3
5 5 5
3 3 3
9 9 9
11 11 11
9 9 9
15 15 15
11 11 11
9 9 9
15 15 15
25 25 25
31 31 31
5 5 5
2 2 2
2 2 2
2 2 2
2 2 2
2 2 2
2 2 2
2 2 2
2 2 2
0 0 0
0 0 0
2 2 2
2 2 2
2 2 2
2 2 2
2 2 2
2 2 2
2 2 2
2 2 2
2 2 2
2 2 2
2 2 2
1 1 1
1 1 1
2 2 2
1 1 1
2 2 2
2 2 2
1 1 1
1 1 1
2 2 2
2 2 2
2 2 2
2 2 2
3 3 3
2 2 2
2 2 2
2 2 2
3 3 3
6 6 6
6 6 6
6 6 6
20 20 20
12 12 12
12 12 12
19 19 19
11 11 11
14 14 14
28 28 28
2 2 2
2 2 2
2 2 2
2 2 2
2 2 2
2 2 2
2 2 2
2 2 2
2 2 2
2 2 2
0 0 0
0 0 0
2 2 2
2 2 2
2 2 2
2 2 2
2 2 2
2 2 2
2 2 2
2 2 2
2 2 2
2 2 2
2 2 2
2 2 2
1 1 1
1 1 1
1 1 1
1 1 1
2 2 2
2 2 2
2 2 2
2 2 2
2 2 2
2 2 2
2 2 2
2 2 2
2 2 2
2 2 2
2 2 2
3 3 3
3 3 3
3 3 3
4 4 4
8 8 8
14 14 14
10 10 10
12 12 12
21 21 21
3 3 3
2 2 2
2 2 2
2 2 2
2 2 2
2 2 2
2 2 2
2 2 2
2 2 2
2 2 2
2 2 2
2 2 2
0 0 0
0 0 0
2 2 2
2 2 2
2 2 2
2 2 2
2 2 2
2 2 2
2 2 2
2 2 2
2 2 2
2 2 2
2 2 2
2 2 2
2 2 2
2 2 2
1 1 1
1 1 1
2 2 2
1 1 1
2 2 2
2 2 2
2 2 2
2 2 2
2 2 2
3 3 3
2 2 2
3 3 3
2 2 2
3 3 3
3 3 3
4 4 4
5 5 5
7 7 7
15 15 15
27 27 27
3 3 3
2 2 2
2 2 2
2 2 2
2 2 2
2 2 2
2 2 2
2 2 2
2 2 2
2 2 2
2 2 2
2 2 2
2 2 2
2 2 2
0 0 0
0 0 0
2 2 2
2 2 2
2 2 2
2 2 2
2 2 2
2 2 2
2 2 2
2 2 2
2 2 2
2 2 2
2 2 2
2 2 2
2 2 2
2 2 2
2 2 2
2 2 2
2 2 2
1 1 1
2 2 2
2 2 2
2 2 2
2 2 2
2 2 2
3 3 3
2 2 2
3 3 3
3 3 3
3 3 3
4 4 4
5 5 5
7 7 7
11 11 11
2 2 2
2 2 2
2 2 2
2 2 2
2 2 2
2 2 2
2 2 2
2 2 2
2 2 2
2 2 2
2 2 2
2 2 2
2 2 2
2 2 2
2 2 2
2 2 2
0 0 0
0 0 0
0 0 0
0 0 0
0 0 0
0 0 0
0 0 0
0 0 0
0 0 0
0 0 0
0 0 0
0 0 0
0 0 0
0 0 0
0 0 0
0 0 0
0 0 0
0 0 0
0 0 0
0 0 0
0 0 0
0 0 0
0 0 0
0 0 0
0 0 0
0 0 0
0 0 0
0 0 0
0 0 0
0 0 0
0 0 0
0 0 0
0 0 0
0 0 0
0 0 0
0 0 0
0 0 0
0 0 0
0 0 0
0 0 0
0 0 0
0 0 0
0 0 0
0 0 0
0 0 0
0 0 0
0 0 0
0 0 0
0 0 0
0 0 0
0 0 0
