P3 
50 50 
255
0 0 0
0 0 0
0 0 0
0 0 0
0 0 0
0 0 0
0 0 0
0 0 0
0 0 0
0 0 0
0 0 0
0 0 0
0 0 0
0 0 0
0 0 0
0 0 0
0 0 0
0 0 0
0 0 0
0 0 0
0 0 0
0 0 0
0 0 0
0 0 0
0 0 0
0 0 0
0 0 0
0 0 0
0 0 0
0 0 0
0 0 0
0 0 0
0 0 0
0 0 0
0 0 0
0 0 0
0 0 0
0 0 0
0 0 0
0 0 0
0 0 0
0 0 0
0 0 0
0 0 0
0 0 0
0 0 0
0 0 0
0 0 0
0 0 0
0 0 0
0 0 0
2 2 2
2 2 2
2 2 2
2 2 2
2 2 2
2 2 2
2 2 2
2 2 2
2 2 2
2 2 2
2 2 2
2 2 2
2 2 2
2 2 2
2 2 2
2 2 2
1 1 1
0 0 0
2 2 2
11 11 11
3 3 3
2 2 2
3 3 3
3 3 3
3 3 3
2 2 2
3 3 3
3 3 3
7 7 7
10 10 10
13 13 13
3 3 3
2 2 2
2 2 2
2 2 2
2 2 2
2 2 2
2 2 2
2 2 2
2 2 2
2 2 2
2 2 2
2 2 2
2 2 2
2 2 2
2 2 2
2 2 2
2 2 2
0 0 0
0 0 0
2 2 2
2 2 2
2 2 2
2 2 2
2 2 2
2 2 2
2 2 2
2 2 2
2 2 2
2 2 2
2 2 2
2 2 2
2 2 2
2 2 2
0 0 0
0 0 0
0 0 0
10 10 10
3 3 3
2 2 2
2 2 2
2 2 2
3 3 3
3 3 3
4 4 4
3 3 3
3 3 3
3 3 3
13 13 13
8 8 8
10 10 10
4 4 4
6 6 6
8 8 8
2 2 2
2 2 2
2 2 2
2 2 2
2 2 2
2 2 2
2 2 2
2 2 2
2 2 2
2 2 2
2 2 2
2 2 2
2 2 2
2 2 2
0 0 0
0 0 0
2 2 2
2 2 2
2 2 2
2 2 2
2 2 2
2 2 2
2 2 2
2 2 2
2 2 2
2 2 2
2 2 2
2 2 2
1 1 1
0 0 0
1 1 1
1 1 1
2 2 2
3 3 3
2 2 2
2 2 2
2 2 2
1 1 1
1 1 1
2 2 2
1 1 1
2 2 2
9 9 9
23 23 23
10 10 10
13 13 13
14 14 14
17 17 17
12 12 12
11 11 11
10 10 10
14 14 14
2 2 2
2 2 2
2 2 2
2 2 2
2 2 2
2 2 2
2 2 2
2 2 2
2 2 2
2 2 2
2 2 2
2 2 2
0 0 0
0 0 0
2 2 2
2 2 2
2 2 2
2 2 2
2 2 2
2 2 2
2 2 2
2 2 2
2 2 2
2 2 2
1 1 1
0 0 0
2 2 2
2 2 2
3 3 3
2 2 2
3 3 3
3 3 3
3 3 3
3 3 3
3 3 3
2 2 2
5 5 5
12 12 12
15 15 15
12 12 12
21 21 21
24 24 24
56 56 56
19 19 19
9 9 9
8 8 8
7 7 7
7 7 7
8 8 8
14 14 14
14 14 14
7 7 7
2 2 2
2 2 2
2 2 2
2 2 2
2 2 2
2 2 2
2 2 2
2 2 2
2 2 2
2 2 2
0 0 0
0 0 0
2 2 2
2 2 2
2 2 2
2 2 2
2 2 2
2 2 2
2 2 2
2 2 2
2 2 2
1 1 1
2 2 2
2 2 2
2 2 2
2 2 2
2 2 2
3 3 3
3 3 3
4 4 4
3 3 3
4 4 4
2 2 2
5 5 5
13 13 13
7 7 7
14 14 14
15 15 15
5 5 5
2 2 2
70 70 70
79 79 79
68 68 68
3 3 3
5 5 5
7 7 7
9 9 9
3 3 3
9 9 9
6 6 6
9 9 9
2 2 2
2 2 2
2 2 2
2 2 2
2 2 2
2 2 2
2 2 2
2 2 2
2 2 2
0 0 0
0 0 0
2 2 2
2 2 2
2 2 2
2 2 2
2 2 2
2 2 2
2 2 2
2 2 2
2 2 2
2 2 2
3 3 3
3 3 3
3 3 3
3 3 3
3 3 3
4 4 4
4 4 4
4 4 4
3 3 3
1 1 1
17 17 17
87 87 87
92 92 92
6 6 6
0 0 0
18 18 18
51 51 51
50 50 50
85 85 85
14 14 14
16 16 16
15 15 15
6 6 6
6 6 6
5 5 5
3 3 3
10 10 10
4 4 4
14 14 14
9 9 9
4 4 4
2 2 2
2 2 2
2 2 2
2 2 2
2 2 2
2 2 2
2 2 2
0 0 0
0 0 0
2 2 2
2 2 2
2 2 2
2 2 2
2 2 2
2 2 2
2 2 2
2 2 2
2 2 2
2 2 2
2 2 2
3 3 3
3 3 3
4 4 4
3 3 3
2 2 2
1 1 1
1 1 1
3 3 3
63 63 63
81 81 81
86 86 86
77 77 77
0 0 0
71 71 71
91 91 91
89 89 89
84 84 84
84 84 84
82 82 82
81 81 81
64 64 64
22 22 22
6 6 6
7 7 7
6 6 6
14 14 14
13 13 13
4 4 4
9 9 9
15 15 15
9 9 9
2 2 2
2 2 2
2 2 2
2 2 2
2 2 2
2 2 2
0 0 0
0 0 0
2 2 2
2 2 2
2 2 2
2 2 2
2 2 2
2 2 2
2 2 2
2 2 2
2 2 2
3 3 3
3 3 3
3 3 3
3 3 3
3 3 3
35 35 35
80 80 80
80 80 80
79 79 79
80 80 80
80 80 80
85 85 85
90 90 90
86 86 86
12 12 12
90 90 90
131 131 131
165 165 165
138 138 138
137 137 137
209 209 209
195 195 195
129 129 129
88 88 88
76 76 76
19 19 19
10 10 10
7 7 7
4 4 4
4 4 4
12 12 12
15 15 15
50 50 50
4 4 4
2 2 2
2 2 2
2 2 2
2 2 2
2 2 2
0 0 0
0 0 0
2 2 2
2 2 2
2 2 2
2 2 2
2 2 2
3 3 3
2 2 2
1 1 1
2 2 2
1 1 1
3 3 3
3 3 3
2 2 2
18 18 18
79 79 79
77 77 77
84 84 84
81 81 81
83 83 83
83 83 83
89 89 89
90 90 90
90 90 90
20 20 20
127 127 127
107 107 107
74 74 74
60 60 60
84 84 84
163 163 163
186 186 186
212 212 212
202 202 202
143 143 143
86 86 86
47 47 47
18 18 18
17 17 17
12 12 12
6 6 6
9 9 9
18 18 18
20 20 20
2 2 2
2 2 2
2 2 2
2 2 2
2 2 2
0 0 0
0 0 0
2 2 2
2 2 2
2 2 2
2 2 2
3 3 3
3 3 3
1 1 1
2 2 2
1 1 1
7 7 7
31 31 31
36 36 36
71 71 71
78 78 78
83 83 83
88 88 88
86 86 86
85 85 85
84 84 84
146 146 146
144 144 144
140 140 140
85 85 85
156 156 156
160 160 160
36 36 36
96 96 96
127 127 127
92 92 92
149 149 149
155 155 155
141 141 141
160 160 160
185 185 185
206 206 206
135 135 135
81 81 81
40 40 40
20 20 20
12 12 12
5 5 5
8 8 8
50 50 50
19 19 19
2 2 2
2 2 2
2 2 2
2 2 2
0 0 0
0 0 0
2 2 2
2 2 2
2 2 2
2 2 2
3 3 3
3 3 3
2 2 2
2 2 2
16 16 16
78 78 78
77 77 77
75 75 75
83 83 83
82 82 82
88 88 88
88 88 88
97 97 97
86 86 86
95 95 95
87 87 87
94 94 94
110 110 110
78 78 78
199 199 199
211 211 211
96 96 96
118 118 118
89 89 89
88 88 88
88 88 88
88 88 88
85 85 85
91 91 91
156 156 156
181 181 181
201 201 201
138 138 138
88 88 88
43 43 43
17 17 17
9 9 9
5 5 5
23 23 23
16 16 16
20 20 20
2 2 2
2 2 2
2 2 2
0 0 0
0 0 0
2 2 2
2 2 2
2 2 2
3 3 3
3 3 3
3 3 3
3 3 3
1 1 1
78 78 78
75 75 75
75 75 75
86 86 86
86 86 86
84 84 84
169 169 169
136 136 136
96 96 96
80 80 80
85 85 85
88 88 88
87 87 87
83 83 83
100 100 100
171 171 171
140 140 140
87 87 87
100 100 100
87 87 87
87 87 87
88 88 88
87 87 87
87 87 87
87 87 87
89 89 89
160 160 160
186 186 186
205 205 205
161 161 161
89 89 89
45 45 45
8 8 8
15 15 15
7 7 7
23 23 23
17 17 17
6 6 6
2 2 2
2 2 2
0 0 0
0 0 0
2 2 2
2 2 2
2 2 2
3 3 3
3 3 3
3 3 3
2 2 2
7 7 7
78 78 78
76 76 76
74 74 74
86 86 86
85 85 85
81 81 81
80 80 80
84 84 84
85 85 85
83 83 83
87 87 87
87 87 87
84 84 84
80 80 80
191 191 191
98 98 98
99 99 99
103 103 103
89 89 89
86 86 86
88 88 88
89 89 89
88 88 88
88 88 88
87 87 87
87 87 87
101 101 101
144 144 144
176 176 176
204 204 204
187 187 187
83 83 83
49 49 49
8 8 8
12 12 12
42 42 42
15 15 15
89 89 89
2 2 2
2 2 2
0 0 0
0 0 0
2 2 2
2 2 2
2 2 2
1 1 1
3 3 3
3 3 3
2 2 2
20 20 20
76 76 76
75 75 75
77 77 77
76 76 76
76 76 76
79 79 79
77 77 77
82 82 82
82 82 82
87 87 87
86 86 86
84 84 84
83 83 83
81 81 81
92 92 92
91 91 91
129 129 129
119 119 119
88 88 88
87 87 87
88 88 88
88 88 88
88 88 88
89 89 89
88 88 88
88 88 88
88 88 88
100 100 100
124 124 124
167 167 167
204 204 204
155 155 155
81 81 81
23 23 23
13 13 13
52 52 52
12 12 12
78 78 78
5 5 5
2 2 2
0 0 0
0 0 0
2 2 2
2 2 2
2 2 2
2 2 2
2 2 2
2 2 2
1 1 1
23 23 23
76 76 76
77 77 77
87 87 87
85 85 85
82 82 82
80 80 80
78 78 78
80 80 80
87 87 87
85 85 85
83 83 83
84 84 84
83 83 83
88 88 88
89 89 89
89 89 89
115 115 115
93 93 93
87 87 87
87 87 87
87 87 87
88 88 88
88 88 88
89 89 89
89 89 89
88 88 88
88 88 88
89 89 89
97 97 97
121 121 121
164 164 164
211 211 211
141 141 141
51 51 51
25 25 25
35 35 35
11 11 11
55 55 55
24 24 24
2 2 2
0 0 0
0 0 0
2 2 2
1 1 1
1 1 1
2 2 2
2 2 2
2 2 2
1 1 1
57 57 57
80 80 80
77 77 77
109 109 109
80 80 80
40 40 40
39 39 39
108 108 108
110 110 110
88 88 88
83 83 83
82 82 82
85 85 85
86 86 86
90 90 90
90 90 90
90 90 90
124 124 124
119 119 119
87 87 87
88 88 88
88 88 88
88 88 88
87 87 87
88 88 88
88 88 88
89 89 89
88 88 88
88 88 88
95 95 95
122 122 122
151 151 151
197 197 197
199 199 199
83 83 83
24 24 24
20 20 20
9 9 9
36 36 36
15 15 15
3 3 3
0 0 0
0 0 0
2 2 2
1 1 1
1 1 1
2 2 2
2 2 2
1 1 1
48 48 48
86 86 86
79 79 79
103 103 103
1 1 1
2 2 2
26 26 26
33 33 33
127 127 127
111 111 111
84 84 84
87 87 87
85 85 85
85 85 85
87 87 87
88 88 88
86 86 86
110 110 110
140 140 140
100 100 100
87 87 87
87 87 87
88 88 88
88 88 88
88 88 88
88 88 88
89 89 89
90 90 90
88 88 88
87 87 87
93 93 93
131 131 131
160 160 160
193 193 193
208 208 208
92 92 92
15 15 15
15 15 15
10 10 10
24 24 24
14 14 14
17 17 17
0 0 0
0 0 0
1 1 1
2 2 2
1 1 1
2 2 2
0 0 0
49 49 49
86 86 86
106 106 106
134 134 134
105 105 105
27 27 27
68 68 68
107 107 107
107 107 107
99 99 99
105 105 105
89 89 89
52 52 52
39 39 39
87 87 87
89 89 89
89 89 89
90 90 90
91 91 91
119 119 119
87 87 87
88 88 88
88 88 88
88 88 88
88 88 88
87 87 87
89 89 89
88 88 88
88 88 88
89 89 89
87 87 87
95 95 95
171 171 171
167 167 167
188 188 188
200 200 200
93 93 93
24 24 24
5 5 5
11 11 11
16 16 16
15 15 15
18 18 18
0 0 0
0 0 0
1 1 1
0 0 0
2 2 2
1 1 1
19 19 19
86 86 86
89 89 89
187 187 187
105 105 105
107 107 107
92 92 92
92 92 92
95 95 95
76 76 76
26 26 26
5 5 5
1 1 1
0 0 0
0 0 0
25 25 25
90 90 90
88 88 88
121 121 121
136 136 136
86 86 86
85 85 85
87 87 87
87 87 87
88 88 88
88 88 88
88 88 88
88 88 88
87 87 87
88 88 88
87 87 87
87 87 87
125 125 125
170 170 170
162 162 162
179 179 179
202 202 202
98 98 98
30 30 30
11 11 11
11 11 11
13 13 13
14 14 14
13 13 13
0 0 0
0 0 0
1 1 1
0 0 0
1 1 1
1 1 1
83 83 83
87 87 87
121 121 121
90 90 90
135 135 135
80 80 80
45 45 45
48 48 48
75 75 75
107 107 107
50 50 50
5 5 5
2 2 2
3 3 3
2 2 2
2 2 2
62 62 62
89 89 89
144 144 144
89 89 89
86 86 86
86 86 86
87 87 87
87 87 87
87 87 87
88 88 88
88 88 88
88 88 88
88 88 88
89 89 89
94 94 94
148 148 148
172 172 172
151 151 151
134 134 134
174 174 174
203 203 203
97 97 97
40 40 40
18 18 18
8 8 8
10 10 10
18 18 18
13 13 13
0 0 0
0 0 0
0 0 0
0 0 0
1 1 1
0 0 0
83 83 83
87 87 87
111 111 111
110 110 110
146 146 146
153 153 153
57 57 57
45 45 45
62 62 62
80 80 80
128 128 128
56 56 56
3 3 3
3 3 3
2 2 2
2 2 2
32 32 32
88 88 88
136 136 136
88 88 88
86 86 86
87 87 87
87 87 87
86 86 86
86 86 86
88 88 88
87 87 87
88 88 88
88 88 88
89 89 89
89 89 89
87 87 87
132 132 132
167 167 167
163 163 163
183 183 183
200 200 200
94 94 94
29 29 29
18 18 18
8 8 8
9 9 9
21 21 21
12 12 12
0 0 0
0 0 0
0 0 0
0 0 0
1 1 1
0 0 0
82 82 82
88 88 88
163 163 163
101 101 101
132 132 132
116 116 116
41 41 41
33 33 33
46 46 46
69 69 69
81 81 81
11 11 11
2 2 2
3 3 3
2 2 2
1 1 1
89 89 89
88 88 88
112 112 112
132 132 132
86 86 86
86 86 86
87 87 87
86 86 86
87 87 87
88 88 88
88 88 88
89 89 89
89 89 89
89 89 89
88 88 88
88 88 88
94 94 94
151 151 151
175 175 175
198 198 198
200 200 200
91 91 91
29 29 29
11 11 11
9 9 9
10 10 10
24 24 24
14 14 14
0 0 0
0 0 0
0 0 0
0 0 0
0 0 0
1 1 1
25 25 25
85 85 85
107 107 107
132 132 132
111 111 111
85 85 85
65 65 65
61 61 61
78 78 78
83 83 83
77 77 77
29 29 29
10 10 10
25 25 25
2 2 2
74 74 74
90 90 90
89 89 89
87 87 87
97 97 97
102 102 102
83 83 83
87 87 87
86 86 86
86 86 86
86 86 86
87 87 87
88 88 88
88 88 88
89 89 89
88 88 88
88 88 88
95 95 95
147 147 147
185 185 185
209 209 209
197 197 197
87 87 87
23 23 23
13 13 13
10 10 10
9 9 9
26 26 26
13 13 13
0 0 0
0 0 0
0 0 0
0 0 0
0 0 0
1 1 1
0 0 0
71 71 71
87 87 87
179 179 179
136 136 136
130 130 130
110 110 110
98 98 98
101 101 101
89 89 89
108 108 108
120 120 120
117 117 117
85 85 85
77 77 77
88 88 88
88 88 88
88 88 88
88 88 88
130 130 130
107 107 107
190 190 190
86 86 86
84 84 84
85 85 85
86 86 86
87 87 87
88 88 88
89 89 89
88 88 88
88 88 88
89 89 89
96 96 96
166 166 166
199 199 199
210 210 210
154 154 154
76 76 76
16 16 16
13 13 13
10 10 10
9 9 9
26 26 26
11 11 11
0 0 0
0 0 0
1 1 1
1 1 1
1 1 1
1 1 1
0 0 0
3 3 3
80 80 80
83 83 83
86 86 86
125 125 125
105 105 105
51 51 51
75 75 75
32 32 32
111 111 111
125 125 125
98 98 98
85 85 85
83 83 83
83 83 83
86 86 86
86 86 86
88 88 88
90 90 90
123 123 123
139 139 139
132 132 132
86 86 86
86 86 86
87 87 87
88 88 88
89 89 89
89 89 89
88 88 88
88 88 88
89 89 89
115 115 115
180 180 180
202 202 202
187 187 187
86 86 86
36 36 36
12 12 12
19 19 19
10 10 10
9 9 9
25 25 25
11 11 11
0 0 0
0 0 0
1 1 1
0 0 0
0 0 0
0 0 0
1 1 1
1 1 1
3 3 3
80 80 80
76 76 76
82 82 82
127 127 127
104 104 104
105 105 105
40 40 40
108 108 108
80 80 80
93 93 93
97 97 97
85 85 85
83 83 83
87 87 87
82 82 82
89 89 89
89 89 89
127 127 127
153 153 153
96 96 96
87 87 87
89 89 89
87 87 87
89 89 89
88 88 88
88 88 88
88 88 88
89 89 89
93 93 93
161 161 161
201 201 201
201 201 201
95 95 95
58 58 58
17 17 17
13 13 13
15 15 15
13 13 13
8 8 8
24 24 24
13 13 13
0 0 0
0 0 0
1 1 1
1 1 1
1 1 1
1 1 1
2 2 2
1 1 1
0 0 0
52 52 52
75 75 75
76 76 76
78 78 78
82 82 82
87 87 87
86 86 86
82 82 82
77 77 77
84 84 84
87 87 87
88 88 88
82 82 82
85 85 85
78 78 78
85 85 85
89 89 89
121 121 121
107 107 107
96 96 96
86 86 86
88 88 88
88 88 88
88 88 88
88 88 88
88 88 88
89 89 89
89 89 89
134 134 134
192 192 192
204 204 204
123 123 123
67 67 67
33 33 33
11 11 11
18 18 18
19 19 19
14 14 14
9 9 9
21 21 21
14 14 14
0 0 0
0 0 0
1 1 1
1 1 1
1 1 1
1 1 1
1 1 1
2 2 2
2 2 2
1 1 1
80 80 80
75 75 75
75 75 75
77 77 77
80 80 80
81 81 81
81 81 81
77 77 77
87 87 87
80 80 80
86 86 86
88 88 88
88 88 88
82 82 82
114 114 114
140 140 140
104 104 104
118 118 118
123 123 123
90 90 90
88 88 88
88 88 88
88 88 88
88 88 88
88 88 88
87 87 87
106 106 106
188 188 188
204 204 204
129 129 129
80 80 80
41 41 41
24 24 24
12 12 12
14 14 14
21 21 21
14 14 14
11 11 11
19 19 19
14 14 14
0 0 0
0 0 0
1 1 1
1 1 1
1 1 1
1 1 1
2 2 2
1 1 1
2 2 2
1 1 1
17 17 17
78 78 78
77 77 77
75 75 75
82 82 82
85 85 85
84 84 84
122 122 122
128 128 128
105 105 105
81 81 81
85 85 85
88 88 88
86 86 86
81 81 81
121 121 121
128 128 128
170 170 170
31 31 31
116 116 116
115 115 115
91 91 91
88 88 88
87 87 87
87 87 87
107 107 107
188 188 188
209 209 209
142 142 142
83 83 83
31 31 31
18 18 18
16 16 16
11 11 11
16 16 16
22 22 22
13 13 13
13 13 13
17 17 17
14 14 14
0 0 0
0 0 0
1 1 1
1 1 1
1 1 1
2 2 2
2 2 2
2 2 2
2 2 2
2 2 2
1 1 1
15 15 15
77 77 77
76 76 76
85 85 85
89 89 89
87 87 87
87 87 87
86 86 86
97 97 97
95 95 95
173 173 173
128 128 128
159 159 159
81 81 81
92 92 92
194 194 194
32 32 32
107 107 107
103 103 103
36 36 36
20 20 20
201 201 201
205 205 205
200 200 200
205 205 205
202 202 202
99 99 99
60 60 60
14 14 14
15 15 15
14 14 14
22 22 22
22 22 22
12 12 12
25 25 25
10 10 10
17 17 17
14 14 14
14 14 14
0 0 0
0 0 0
1 1 1
1 1 1
1 1 1
2 2 2
2 2 2
2 2 2
1 1 1
1 1 1
2 2 2
1 1 1
5 5 5
74 74 74
77 77 77
79 79 79
86 86 86
90 90 90
88 88 88
87 87 87
86 86 86
84 84 84
86 86 86
92 92 92
87 87 87
90 90 90
121 121 121
85 85 85
62 62 62
57 57 57
36 36 36
131 131 131
208 208 208
216 216 216
204 204 204
144 144 144
80 80 80
26 26 26
10 10 10
10 10 10
22 22 22
20 20 20
27 27 27
11 11 11
21 21 21
28 28 28
9 9 9
23 23 23
13 13 13
18 18 18
0 0 0
0 0 0
2 2 2
2 2 2
2 2 2
1 1 1
2 2 2
1 1 1
1 1 1
1 1 1
2 2 2
2 2 2
1 1 1
1 1 1
56 56 56
78 78 78
77 77 77
81 81 81
80 80 80
81 81 81
78 78 78
81 81 81
85 85 85
87 87 87
89 89 89
72 72 72
61 61 61
126 126 126
169 169 169
119 119 119
45 45 45
185 185 185
161 161 161
142 142 142
87 87 87
52 52 52
3 3 3
3 3 3
10 10 10
10 10 10
14 14 14
18 18 18
21 21 21
14 14 14
26 26 26
42 42 42
10 10 10
34 34 34
14 14 14
29 29 29
0 0 0
0 0 0
2 2 2
1 1 1
2 2 2
1 1 1
1 1 1
1 1 1
1 1 1
2 2 2
1 1 1
1 1 1
2 2 2
2 2 2
1 1 1
5 5 5
57 57 57
78 78 78
79 79 79
79 79 79
76 76 76
79 79 79
80 80 80
84 84 84
93 93 93
4 4 4
28 28 28
91 91 91
87 87 87
87 87 87
87 87 87
79 79 79
73 73 73
60 60 60
8 8 8
3 3 3
3 3 3
3 3 3
3 3 3
12 12 12
12 12 12
12 12 12
22 22 22
17 17 17
26 26 26
52 52 52
10 10 10
52 52 52
13 13 13
2 2 2
0 0 0
0 0 0
2 2 2
1 1 1
1 1 1
1 1 1
2 2 2
3 3 3
2 2 2
1 1 1
1 1 1
1 1 1
1 1 1
2 2 2
1 1 1
2 2 2
1 1 1
1 1 1
1 1 1
1 1 1
1 1 1
0 0 0
8 8 8
77 77 77
91 91 91
28 28 28
0 0 0
24 24 24
83 83 83
61 61 61
82 82 82
0 0 0
2 2 2
0 0 0
0 0 0
1 1 1
3 3 3
2 2 2
3 3 3
16 16 16
8 8 8
14 14 14
18 18 18
22 22 22
28 28 28
19 19 19
9 9 9
73 73 73
22 22 22
2 2 2
0 0 0
0 0 0
2 2 2
2 2 2
1 1 1
1 1 1
1 1 1
3 3 3
3 3 3
2 2 2
1 1 1
1 1 1
2 2 2
2 2 2
1 1 1
2 2 2
2 2 2
3 3 3
3 3 3
2 2 2
3 3 3
2 2 2
2 2 2
1 1 1
8 8 8
49 49 49
2 2 2
0 0 0
1 1 1
0 0 0
76 76 76
86 86 86
47 47 47
3 3 3
4 4 4
3 3 3
4 4 4
12 12 12
3 3 3
5 5 5
14 14 14
14 14 14
15 15 15
16 16 16
18 18 18
8 8 8
11 11 11
81 81 81
8 8 8
2 2 2
0 0 0
0 0 0
2 2 2
2 2 2
1 1 1
1 1 1
2 2 2
2 2 2
3 3 3
2 2 2
1 1 1
1 1 1
1 1 1
2 2 2
2 2 2
2 2 2
2 2 2
2 2 2
3 3 3
2 2 2
2 2 2
3 3 3
2 2 2
2 2 2
2 2 2
3 3 3
1 1 1
1 1 1
1 1 1
1 1 1
47 47 47
58 58 58
3 3 3
4 4 4
4 4 4
5 5 5
5 5 5
9 9 9
3 3 3
13 13 13
12 12 12
11 11 11
19 19 19
15 15 15
49 49 49
9 9 9
13 13 13
74 74 74
2 2 2
2 2 2
0 0 0
0 0 0
2 2 2
2 2 2
2 2 2
1 1 1
1 1 1
2 2 2
3 3 3
3 3 3
2 2 2
1 1 1
1 1 1
1 1 1
2 2 2
3 3 3
3 3 3
4 4 4
3 3 3
2 2 2
2 2 2
2 2 2
3 3 3
1 1 1
2 2 2
2 2 2
2 2 2
2 2 2
2 2 2
2 2 2
0 0 0
3 3 3
5 5 5
5 5 5
4 4 4
4 4 4
5 5 5
5 5 5
9 9 9
14 14 14
17 17 17
11 11 11
8 8 8
5 5 5
32 32 32
10 10 10
17 17 17
11 11 11
2 2 2
2 2 2
0 0 0
0 0 0
2 2 2
2 2 2
2 2 2
2 2 2
1 1 1
1 1 1
2 2 2
3 3 3
3 3 3
1 1 1
2 2 2
2 2 2
3 3 3
3 3 3
3 3 3
3 3 3
3 3 3
4 4 4
3 3 3
3 3 3
3 3 3
3 3 3
2 2 2
2 2 2
2 2 2
3 3 3
3 3 3
1 1 1
2 2 2
4 4 4
4 4 4
5 5 5
5 5 5
5 5 5
4 4 4
4 4 4
12 12 12
15 15 15
12 12 12
14 14 14
18 18 18
20 20 20
12 12 12
13 13 13
33 33 33
2 2 2
2 2 2
2 2 2
0 0 0
0 0 0
2 2 2
2 2 2
2 2 2
2 2 2
2 2 2
1 1 1
1 1 1
2 2 2
3 3 3
3 3 3
3 3 3
3 3 3
3 3 3
3 3 3
3 3 3
3 3 3
4 4 4
4 4 4
4 4 4
3 3 3
3 3 3
3 3 3
4 4 4
2 2 2
2 2 2
3 3 3
3 3 3
3 3 3
3 3 3
5 5 5
4 4 4
4 4 4
4 4 4
5 5 5
4 4 4
5 5 5
17 17 17
21 21 21
14 14 14
18 18 18
11 11 11
34 34 34
11 11 11
16 16 16
2 2 2
2 2 2
2 2 2
2 2 2
0 0 0
0 0 0
2 2 2
2 2 2
2 2 2
2 2 2
2 2 2
1 1 1
1 1 1
2 2 2
3 3 3
3 3 3
3 3 3
3 3 3
3 3 3
3 3 3
3 3 3
3 3 3
3 3 3
4 4 4
5 5 5
6 6 6
4 4 4
4 4 4
4 4 4
4 4 4
2 2 2
3 3 3
3 3 3
4 4 4
4 4 4
4 4 4
5 5 5
4 4 4
4 4 4
5 5 5
7 7 7
12 12 12
17 17 17
28 28 28
23 23 23
30 30 30
15 15 15
31 31 31
14 14 14
5 5 5
2 2 2
2 2 2
2 2 2
2 2 2
0 0 0
0 0 0
2 2 2
2 2 2
2 2 2
2 2 2
2 2 2
2 2 2
2 2 2
1 1 1
2 2 2
2 2 2
3 3 3
3 3 3
3 3 3
3 3 3
3 3 3
3 3 3
3 3 3
5 5 5
28 28 28
33 33 33
5 5 5
5 5 5
4 4 4
3 3 3
5 5 5
3 3 3
3 3 3
4 4 4
4 4 4
4 4 4
4 4 4
5 5 5
4 4 4
5 5 5
10 10 10
18 18 18
7 7 7
28 28 28
13 13 13
23 23 23
26 26 26
14 14 14
10 10 10
2 2 2
2 2 2
2 2 2
2 2 2
2 2 2
0 0 0
0 0 0
2 2 2
2 2 2
2 2 2
2 2 2
2 2 2
2 2 2
2 2 2
1 1 1
1 1 1
1 1 1
1 1 1
2 2 2
2 2 2
3 3 3
3 3 3
3 3 3
4 4 4
4 4 4
2 2 2
8 8 8
17 17 17
6 6 6
4 4 4
3 3 3
4 4 4
3 3 3
4 4 4
3 3 3
3 3 3
4 4 4
4 4 4
5 5 5
10 10 10
19 19 19
11 11 11
11 11 11
6 6 6
17 17 17
9 9 9
10 10 10
45 45 45
17 17 17
2 2 2
2 2 2
2 2 2
2 2 2
2 2 2
2 2 2
0 0 0
0 0 0
2 2 2
2 2 2
2 2 2
2 2 2
2 2 2
2 2 2
2 2 2
2 2 2
1 1 1
1 1 1
1 1 1
1 1 1
2 2 2
1 1 1
1 1 1
1 1 1
1 1 1
2 2 2
2 2 2
2 2 2
8 8 8
3 3 3
3 3 3
3 3 3
4 4 4
3 3 3
3 3 3
4 4 4
4 4 4
3 3 3
10 10 10
8 8 8
6 6 6
11 11 11
2 2 2
11 11 11
18 18 18
14 14 14
19 19 19
18 18 18
11 11 11
2 2 2
2 2 2
2 2 2
2 2 2
2 2 2
2 2 2
2 2 2
0 0 0
0 0 0
2 2 2
2 2 2
2 2 2
2 2 2
2 2 2
2 2 2
2 2 2
2 2 2
2 2 2
1 1 1
1 1 1
1 1 1
2 2 2
2 2 2
1 1 1
1 1 1
1 1 1
1 1 1
2 2 2
2 2 2
1 1 1
4 4 4
9 9 9
2 2 2
10 10 10
3 3 3
8 8 8
7 7 7
5 5 5
10 10 10
9 9 9
14 14 14
19 19 19
8 8 8
14 14 14
20 20 20
16 16 16
26 26 26
13 13 13
5 5 5
2 2 2
2 2 2
2 2 2
2 2 2
2 2 2
2 2 2
2 2 2
2 2 2
0 0 0
0 0 0
2 2 2
2 2 2
2 2 2
2 2 2
2 2 2
2 2 2
2 2 2
2 2 2
2 2 2
2 2 2
1 1 1
1 1 1
1 1 1
1 1 1
1 1 1
1 1 1
1 1 1
1 1 1
1 1 1
2 2 2
1 1 1
1 1 1
1 1 1
16 16 16
9 9 9
12 12 12
13 13 13
10 10 10
14 14 14
7 7 7
13 13 13
15 15 15
5 5 5
10 10 10
19 19 19
19 19 19
18 18 18
18 18 18
2 2 2
2 2 2
2 2 2
2 2 2
2 2 2
2 2 2
2 2 2
2 2 2
2 2 2
2 2 2
0 0 0
0 0 0
2 2 2
2 2 2
2 2 2
2 2 2
2 2 2
2 2 2
2 2 2
2 2 2
2 2 2
2 2 2
2 2 2
2 2 2
0 0 0
1 1 1
1 1 1
1 1 1
1 1 1
1 1 1
1 1 1
1 1 1
1 1 1
2 2 2
2 2 2
1 1 1
15 15 15
4 4 4
7 7 7
4 4 4
9 9 9
12 12 12
13 13 13
14 14 14
4 4 4
22 22 22
18 18 18
24 24 24
4 4 4
2 2 2
2 2 2
2 2 2
2 2 2
2 2 2
2 2 2
2 2 2
2 2 2
2 2 2
2 2 2
2 2 2
0 0 0
0 0 0
2 2 2
2 2 2
2 2 2
2 2 2
2 2 2
2 2 2
2 2 2
2 2 2
2 2 2
2 2 2
2 2 2
2 2 2
2 2 2
2 2 2
1 1 1
2 2 2
1 1 1
1 1 1
1 1 1
1 1 1
1 1 1
1 1 1
1 1 1
2 2 2
4 4 4
12 12 12
9 9 9
3 3 3
11 11 11
6 6 6
15 15 15
9 9 9
11 11 11
12 12 12
4 4 4
2 2 2
2 2 2
2 2 2
2 2 2
2 2 2
2 2 2
2 2 2
2 2 2
2 2 2
2 2 2
2 2 2
2 2 2
2 2 2
0 0 0
0 0 0
2 2 2
2 2 2
2 2 2
2 2 2
2 2 2
2 2 2
2 2 2
2 2 2
2 2 2
2 2 2
2 2 2
2 2 2
2 2 2
2 2 2
2 2 2
2 2 2
2 2 2
1 1 1
1 1 1
1 1 1
2 2 2
2 2 2
3 3 3
2 2 2
15 15 15
11 11 11
4 4 4
16 16 16
4 4 4
9 9 9
19 19 19
16 16 16
2 2 2
2 2 2
2 2 2
2 2 2
2 2 2
2 2 2
2 2 2
2 2 2
2 2 2
2 2 2
2 2 2
2 2 2
2 2 2
2 2 2
2 2 2
2 2 2
0 0 0
0 0 0
0 0 0
0 0 0
0 0 0
0 0 0
0 0 0
0 0 0
0 0 0
0 0 0
0 0 0
0 0 0
0 0 0
0 0 0
0 0 0
0 0 0
0 0 0
0 0 0
0 0 0
0 0 0
0 0 0
0 0 0
0 0 0
0 0 0
0 0 0
0 0 0
0 0 0
0 0 0
0 0 0
0 0 0
0 0 0
0 0 0
0 0 0
0 0 0
0 0 0
0 0 0
0 0 0
0 0 0
0 0 0
0 0 0
0 0 0
0 0 0
0 0 0
0 0 0
0 0 0
0 0 0
0 0 0
0 0 0
0 0 0
0 0 0
0 0 0
