P3 
50 50 
255
0 0 0
0 0 0
0 0 0
0 0 0
0 0 0
0 0 0
0 0 0
0 0 0
0 0 0
0 0 0
0 0 0
0 0 0
0 0 0
0 0 0
0 0 0
0 0 0
0 0 0
0 0 0
0 0 0
0 0 0
0 0 0
0 0 0
0 0 0
0 0 0
0 0 0
0 0 0
0 0 0
0 0 0
0 0 0
0 0 0
0 0 0
0 0 0
0 0 0
0 0 0
0 0 0
0 0 0
0 0 0
0 0 0
0 0 0
0 0 0
0 0 0
0 0 0
0 0 0
0 0 0
0 0 0
0 0 0
0 0 0
0 0 0
0 0 0
0 0 0
0 0 0
2 2 2
2 2 2
2 2 2
2 2 2
2 2 2
2 2 2
2 2 2
2 2 2
2 2 2
2 2 2
2 2 2
2 2 2
2 2 2
2 2 2
2 2 2
2 2 2
2 2 2
1 1 1
2 2 2
15 15 15
4 4 4
3 3 3
4 4 4
4 4 4
4 4 4
5 5 5
5 5 5
5 5 5
11 11 11
13 13 13
9 9 9
3 3 3
2 2 2
2 2 2
2 2 2
2 2 2
2 2 2
2 2 2
2 2 2
2 2 2
2 2 2
2 2 2
2 2 2
2 2 2
2 2 2
2 2 2
2 2 2
2 2 2
0 0 0
0 0 0
2 2 2
2 2 2
2 2 2
2 2 2
2 2 2
2 2 2
2 2 2
2 2 2
2 2 2
2 2 2
2 2 2
2 2 2
2 2 2
2 2 2
1 1 1
1 1 1
1 1 1
2 2 2
16 16 16
3 3 3
4 4 4
4 4 4
4 4 4
4 4 4
4 4 4
4 4 4
5 5 5
7 7 7
6 6 6
11 11 11
12 12 12
20 20 20
18 18 18
18 18 18
2 2 2
2 2 2
2 2 2
2 2 2
2 2 2
2 2 2
2 2 2
2 2 2
2 2 2
2 2 2
2 2 2
2 2 2
2 2 2
2 2 2
0 0 0
0 0 0
2 2 2
2 2 2
2 2 2
2 2 2
2 2 2
2 2 2
2 2 2
2 2 2
2 2 2
2 2 2
2 2 2
2 2 2
1 1 1
0 0 0
1 1 1
1 1 1
3 3 3
11 11 11
4 4 4
4 4 4
4 4 4
4 4 4
3 3 3
3 3 3
4 4 4
6 6 6
16 16 16
13 13 13
6 6 6
4 4 4
10 10 10
20 20 20
20 20 20
15 15 15
11 11 11
16 16 16
2 2 2
2 2 2
2 2 2
2 2 2
2 2 2
2 2 2
2 2 2
2 2 2
2 2 2
2 2 2
2 2 2
2 2 2
0 0 0
0 0 0
2 2 2
2 2 2
2 2 2
2 2 2
2 2 2
2 2 2
2 2 2
2 2 2
2 2 2
2 2 2
2 2 2
1 1 1
1 1 1
1 1 1
1 1 1
3 3 3
8 8 8
4 4 4
4 4 4
4 4 4
4 4 4
3 3 3
3 3 3
4 4 4
14 14 14
13 13 13
9 9 9
14 14 14
10 10 10
16 16 16
16 16 16
29 29 29
20 20 20
12 12 12
16 16 16
11 11 11
20 20 20
8 8 8
2 2 2
2 2 2
2 2 2
2 2 2
2 2 2
2 2 2
2 2 2
2 2 2
2 2 2
2 2 2
0 0 0
0 0 0
2 2 2
2 2 2
2 2 2
2 2 2
2 2 2
2 2 2
2 2 2
2 2 2
2 2 2
1 1 1
1 1 1
2 2 2
1 1 1
2 2 2
11 11 11
5 5 5
4 4 4
4 4 4
4 4 4
5 5 5
5 5 5
3 3 3
6 6 6
8 8 8
11 11 11
17 17 17
40 40 40
78 78 78
85 85 85
83 83 83
84 84 84
83 83 83
83 83 83
82 82 82
77 77 77
30 30 30
9 9 9
11 11 11
12 12 12
2 2 2
2 2 2
2 2 2
2 2 2
2 2 2
2 2 2
2 2 2
2 2 2
2 2 2
0 0 0
0 0 0
2 2 2
2 2 2
2 2 2
2 2 2
2 2 2
2 2 2
2 2 2
2 2 2
1 1 1
1 1 1
2 2 2
2 2 2
1 1 1
8 8 8
4 4 4
4 4 4
5 5 5
5 5 5
4 4 4
3 3 3
4 4 4
29 29 29
8 8 8
54 54 54
87 87 87
91 91 91
119 119 119
162 162 162
181 181 181
168 168 168
167 167 167
165 165 165
163 163 163
177 177 177
186 186 186
137 137 137
86 86 86
19 19 19
10 10 10
12 12 12
4 4 4
2 2 2
2 2 2
2 2 2
2 2 2
2 2 2
2 2 2
2 2 2
0 0 0
0 0 0
2 2 2
2 2 2
2 2 2
2 2 2
2 2 2
2 2 2
2 2 2
2 2 2
1 1 1
2 2 2
2 2 2
2 2 2
8 8 8
6 6 6
4 4 4
5 5 5
5 5 5
3 3 3
10 10 10
20 20 20
61 61 61
85 85 85
90 90 90
114 114 114
181 181 181
163 163 163
170 170 170
173 173 173
150 150 150
111 111 111
89 89 89
94 94 94
103 103 103
141 141 141
160 160 160
158 158 158
177 177 177
164 164 164
73 73 73
11 11 11
17 17 17
10 10 10
2 2 2
2 2 2
2 2 2
2 2 2
2 2 2
2 2 2
0 0 0
0 0 0
2 2 2
2 2 2
2 2 2
2 2 2
2 2 2
2 2 2
1 1 1
1 1 1
2 2 2
2 2 2
1 1 1
13 13 13
7 7 7
4 4 4
4 4 4
4 4 4
3 3 3
40 40 40
80 80 80
89 89 89
105 105 105
156 156 156
155 155 155
151 151 151
167 167 167
128 128 128
91 91 91
87 87 87
86 86 86
86 86 86
87 87 87
87 87 87
87 87 87
87 87 87
87 87 87
110 110 110
167 167 167
159 159 159
183 183 183
91 91 91
17 17 17
25 25 25
5 5 5
2 2 2
2 2 2
2 2 2
2 2 2
2 2 2
0 0 0
0 0 0
2 2 2
2 2 2
2 2 2
2 2 2
2 2 2
1 1 1
1 1 1
1 1 1
2 2 2
1 1 1
18 18 18
9 9 9
5 5 5
4 4 4
5 5 5
29 29 29
86 86 86
101 101 101
145 145 145
154 154 154
136 136 136
134 134 134
117 117 117
107 107 107
87 87 87
87 87 87
87 87 87
87 87 87
87 87 87
87 87 87
88 88 88
87 87 87
86 86 86
87 87 87
87 87 87
87 87 87
88 88 88
155 155 155
163 163 163
183 183 183
90 90 90
19 19 19
47 47 47
2 2 2
2 2 2
2 2 2
2 2 2
2 2 2
0 0 0
0 0 0
2 2 2
2 2 2
2 2 2
2 2 2
1 1 1
1 1 1
1 1 1
1 1 1
1 1 1
5 5 5
8 8 8
4 4 4
4 4 4
24 24 24
85 85 85
132 132 132
156 156 156
115 115 115
87 87 87
85 85 85
85 85 85
86 86 86
87 87 87
87 87 87
87 87 87
87 87 87
87 87 87
86 86 86
87 87 87
87 87 87
87 87 87
87 87 87
87 87 87
87 87 87
87 87 87
88 88 88
87 87 87
88 88 88
107 107 107
165 165 165
179 179 179
108 108 108
27 27 27
23 23 23
2 2 2
2 2 2
2 2 2
2 2 2
0 0 0
0 0 0
2 2 2
2 2 2
2 2 2
2 2 2
1 1 1
0 0 0
1 1 1
1 1 1
3 3 3
7 7 7
4 4 4
71 71 71
85 85 85
86 86 86
173 173 173
87 87 87
86 86 86
86 86 86
86 86 86
86 86 86
86 86 86
87 87 87
87 87 87
87 87 87
86 86 86
87 87 87
87 87 87
87 87 87
87 87 87
87 87 87
87 87 87
87 87 87
88 88 88
88 88 88
88 88 88
87 87 87
88 88 88
88 88 88
88 88 88
143 143 143
161 161 161
193 193 193
84 84 84
51 51 51
23 23 23
2 2 2
2 2 2
2 2 2
0 0 0
0 0 0
2 2 2
2 2 2
2 2 2
1 1 1
1 1 1
1 1 1
1 1 1
2 2 2
2 2 2
3 3 3
73 73 73
118 118 118
169 169 169
130 130 130
88 88 88
85 85 85
87 87 87
86 86 86
85 85 85
86 86 86
86 86 86
86 86 86
86 86 86
86 86 86
87 87 87
86 86 86
86 86 86
87 87 87
87 87 87
87 87 87
87 87 87
87 87 87
87 87 87
88 88 88
88 88 88
88 88 88
88 88 88
89 89 89
88 88 88
88 88 88
173 173 173
162 162 162
152 152 152
33 33 33
20 20 20
7 7 7
2 2 2
2 2 2
0 0 0
0 0 0
2 2 2
2 2 2
1 1 1
1 1 1
0 0 0
1 1 1
1 1 1
1 1 1
3 3 3
5 5 5
87 87 87
205 205 205
134 134 134
143 143 143
85 85 85
86 86 86
86 86 86
85 85 85
86 86 86
86 86 86
86 86 86
86 86 86
86 86 86
87 87 87
87 87 87
87 87 87
87 87 87
87 87 87
86 86 86
87 87 87
87 87 87
88 88 88
87 87 87
87 87 87
87 87 87
87 87 87
88 88 88
88 88 88
87 87 87
88 88 88
100 100 100
162 162 162
193 193 193
71 71 71
20 20 20
90 90 90
2 2 2
2 2 2
0 0 0
0 0 0
2 2 2
2 2 2
0 0 0
1 1 1
0 0 0
1 1 1
0 0 0
2 2 2
4 4 4
47 47 47
158 158 158
128 128 128
93 93 93
153 153 153
85 85 85
85 85 85
85 85 85
86 86 86
86 86 86
86 86 86
87 87 87
87 87 87
86 86 86
87 87 87
87 87 87
86 86 86
87 87 87
86 86 86
87 87 87
87 87 87
87 87 87
87 87 87
87 87 87
88 88 88
87 87 87
88 88 88
87 87 87
88 88 88
88 88 88
87 87 87
88 88 88
157 157 157
171 171 171
87 87 87
26 26 26
83 83 83
5 5 5
2 2 2
0 0 0
0 0 0
2 2 2
1 1 1
1 1 1
1 1 1
2 2 2
2 2 2
3 3 3
4 4 4
5 5 5
82 82 82
159 159 159
89 89 89
96 96 96
138 138 138
85 85 85
85 85 85
86 86 86
86 86 86
86 86 86
86 86 86
87 87 87
87 87 87
87 87 87
87 87 87
87 87 87
87 87 87
87 87 87
86 86 86
87 87 87
87 87 87
87 87 87
87 87 87
87 87 87
87 87 87
87 87 87
87 87 87
88 88 88
88 88 88
88 88 88
88 88 88
88 88 88
95 95 95
168 168 168
87 87 87
48 48 48
65 65 65
26 26 26
2 2 2
0 0 0
0 0 0
2 2 2
1 1 1
0 0 0
3 3 3
3 3 3
3 3 3
3 3 3
4 4 4
6 6 6
88 88 88
112 112 112
101 101 101
124 124 124
104 104 104
85 85 85
85 85 85
86 86 86
86 86 86
86 86 86
86 86 86
86 86 86
87 87 87
87 87 87
87 87 87
88 88 88
87 87 87
87 87 87
87 87 87
87 87 87
87 87 87
87 87 87
86 86 86
87 87 87
87 87 87
87 87 87
87 87 87
87 87 87
87 87 87
88 88 88
87 87 87
88 88 88
89 89 89
172 172 172
94 94 94
56 56 56
46 46 46
17 17 17
3 3 3
0 0 0
0 0 0
1 1 1
1 1 1
1 1 1
1 1 1
3 3 3
4 4 4
3 3 3
4 4 4
7 7 7
105 105 105
150 150 150
53 53 53
38 38 38
100 100 100
86 86 86
86 86 86
86 86 86
87 87 87
86 86 86
85 85 85
86 86 86
87 87 87
87 87 87
87 87 87
87 87 87
87 87 87
87 87 87
86 86 86
87 87 87
85 85 85
85 85 85
86 86 86
86 86 86
87 87 87
86 86 86
87 87 87
88 88 88
88 88 88
88 88 88
87 87 87
88 88 88
89 89 89
166 166 166
124 124 124
62 62 62
33 33 33
16 16 16
20 20 20
0 0 0
0 0 0
1 1 1
1 1 1
1 1 1
1 1 1
1 1 1
3 3 3
4 4 4
3 3 3
26 26 26
159 159 159
31 31 31
8 8 8
141 141 141
87 87 87
86 86 86
86 86 86
87 87 87
86 86 86
87 87 87
86 86 86
85 85 85
86 86 86
87 87 87
87 87 87
86 86 86
87 87 87
86 86 86
86 86 86
86 86 86
86 86 86
85 85 85
87 87 87
87 87 87
87 87 87
87 87 87
87 87 87
88 88 88
88 88 88
88 88 88
88 88 88
88 88 88
92 92 92
161 161 161
142 142 142
50 50 50
26 26 26
15 15 15
22 22 22
0 0 0
0 0 0
1 1 1
1 1 1
2 2 2
1 1 1
2 2 2
1 1 1
3 3 3
3 3 3
77 77 77
165 165 165
1 1 1
25 25 25
99 99 99
87 87 87
86 86 86
85 85 85
86 86 86
86 86 86
86 86 86
86 86 86
87 87 87
86 86 86
85 85 85
85 85 85
86 86 86
86 86 86
86 86 86
86 86 86
86 86 86
86 86 86
87 87 87
86 86 86
87 87 87
87 87 87
87 87 87
87 87 87
87 87 87
87 87 87
88 88 88
88 88 88
88 88 88
91 91 91
170 170 170
157 157 157
45 45 45
26 26 26
16 16 16
16 16 16
0 0 0
0 0 0
2 2 2
2 2 2
2 2 2
1 1 1
1 1 1
1 1 1
2 2 2
2 2 2
77 77 77
147 147 147
25 25 25
123 123 123
107 107 107
87 87 87
86 86 86
86 86 86
86 86 86
86 86 86
86 86 86
87 87 87
86 86 86
86 86 86
86 86 86
86 86 86
86 86 86
86 86 86
87 87 87
86 86 86
86 86 86
86 86 86
87 87 87
87 87 87
87 87 87
87 87 87
86 86 86
88 88 88
87 87 87
88 88 88
87 87 87
88 88 88
88 88 88
91 91 91
164 164 164
157 157 157
50 50 50
28 28 28
17 17 17
14 14 14
0 0 0
0 0 0
2 2 2
2 2 2
2 2 2
2 2 2
1 1 1
1 1 1
2 2 2
3 3 3
81 81 81
34 34 34
0 0 0
36 36 36
103 103 103
86 86 86
87 87 87
87 87 87
86 86 86
86 86 86
86 86 86
87 87 87
86 86 86
86 86 86
85 85 85
85 85 85
85 85 85
86 86 86
87 87 87
87 87 87
86 86 86
86 86 86
86 86 86
87 87 87
87 87 87
87 87 87
88 88 88
87 87 87
87 87 87
88 88 88
88 88 88
88 88 88
88 88 88
87 87 87
170 170 170
155 155 155
52 52 52
34 34 34
20 20 20
15 15 15
0 0 0
0 0 0
1 1 1
2 2 2
2 2 2
2 2 2
1 1 1
1 1 1
2 2 2
0 0 0
79 79 79
51 51 51
2 2 2
3 3 3
106 106 106
87 87 87
87 87 87
86 86 86
86 86 86
86 86 86
86 86 86
87 87 87
86 86 86
87 87 87
87 87 87
87 87 87
87 87 87
87 87 87
87 87 87
87 87 87
87 87 87
86 86 86
85 85 85
87 87 87
87 87 87
87 87 87
87 87 87
87 87 87
88 88 88
88 88 88
88 88 88
88 88 88
87 87 87
87 87 87
164 164 164
120 120 120
48 48 48
41 41 41
20 20 20
16 16 16
0 0 0
0 0 0
1 1 1
1 1 1
2 2 2
1 1 1
2 2 2
1 1 1
1 1 1
2 2 2
37 37 37
176 176 176
4 4 4
1 1 1
133 133 133
87 87 87
87 87 87
87 87 87
87 87 87
87 87 87
87 87 87
86 86 86
87 87 87
87 87 87
87 87 87
87 87 87
87 87 87
87 87 87
87 87 87
87 87 87
87 87 87
87 87 87
86 86 86
86 86 86
87 87 87
87 87 87
87 87 87
87 87 87
88 88 88
88 88 88
88 88 88
88 88 88
87 87 87
87 87 87
166 166 166
107 107 107
47 47 47
50 50 50
21 21 21
15 15 15
0 0 0
0 0 0
1 1 1
1 1 1
0 0 0
2 2 2
1 1 1
2 2 2
2 2 2
2 2 2
3 3 3
110 110 110
116 116 116
50 50 50
44 44 44
121 121 121
92 92 92
86 86 86
87 87 87
87 87 87
87 87 87
87 87 87
87 87 87
87 87 87
88 88 88
88 88 88
88 88 88
87 87 87
87 87 87
87 87 87
87 87 87
87 87 87
87 87 87
87 87 87
87 87 87
87 87 87
87 87 87
88 88 88
87 87 87
88 88 88
88 88 88
88 88 88
87 87 87
95 95 95
165 165 165
110 110 110
45 45 45
51 51 51
21 21 21
13 13 13
0 0 0
0 0 0
0 0 0
0 0 0
1 1 1
0 0 0
1 1 1
1 1 1
2 2 2
2 2 2
0 0 0
82 82 82
108 108 108
96 96 96
75 75 75
126 126 126
90 90 90
86 86 86
86 86 86
86 86 86
87 87 87
87 87 87
86 86 86
87 87 87
87 87 87
87 87 87
87 87 87
87 87 87
87 87 87
87 87 87
87 87 87
87 87 87
87 87 87
87 87 87
87 87 87
88 88 88
88 88 88
87 87 87
88 88 88
88 88 88
88 88 88
88 88 88
87 87 87
163 163 163
166 166 166
91 91 91
42 42 42
45 45 45
21 21 21
14 14 14
0 0 0
0 0 0
1 1 1
1 1 1
0 0 0
0 0 0
0 0 0
0 0 0
0 0 0
0 0 0
1 1 1
44 44 44
122 122 122
91 91 91
82 82 82
102 102 102
89 89 89
86 86 86
86 86 86
87 87 87
86 86 86
87 87 87
86 86 86
87 87 87
87 87 87
87 87 87
87 87 87
87 87 87
87 87 87
87 87 87
87 87 87
87 87 87
87 87 87
87 87 87
87 87 87
87 87 87
88 88 88
88 88 88
88 88 88
88 88 88
87 87 87
87 87 87
97 97 97
172 172 172
193 193 193
74 74 74
36 36 36
38 38 38
20 20 20
15 15 15
0 0 0
0 0 0
1 1 1
0 0 0
1 1 1
2 2 2
0 0 0
0 0 0
0 0 0
0 0 0
1 1 1
10 10 10
111 111 111
130 130 130
81 81 81
101 101 101
92 92 92
85 85 85
86 86 86
86 86 86
87 87 87
87 87 87
86 86 86
87 87 87
87 87 87
87 87 87
87 87 87
86 86 86
87 87 87
87 87 87
87 87 87
87 87 87
87 87 87
87 87 87
88 88 88
87 87 87
88 88 88
87 87 87
87 87 87
88 88 88
87 87 87
88 88 88
174 174 174
165 165 165
146 146 146
49 49 49
45 45 45
33 33 33
18 18 18
15 15 15
0 0 0
0 0 0
1 1 1
1 1 1
2 2 2
2 2 2
2 2 2
1 1 1
0 0 0
0 0 0
0 0 0
0 0 0
64 64 64
211 211 211
144 144 144
128 128 128
123 123 123
87 87 87
87 87 87
87 87 87
87 87 87
87 87 87
87 87 87
86 86 86
87 87 87
87 87 87
86 86 86
86 86 86
86 86 86
86 86 86
87 87 87
87 87 87
87 87 87
88 88 88
88 88 88
88 88 88
88 88 88
88 88 88
88 88 88
87 87 87
87 87 87
124 124 124
169 169 169
189 189 189
75 75 75
46 46 46
51 51 51
27 27 27
15 15 15
15 15 15
0 0 0
0 0 0
1 1 1
2 2 2
2 2 2
2 2 2
2 2 2
2 2 2
1 1 1
1 1 1
1 1 1
2 2 2
3 3 3
106 106 106
208 208 208
137 137 137
159 159 159
96 96 96
88 88 88
87 87 87
87 87 87
87 87 87
87 87 87
86 86 86
87 87 87
87 87 87
86 86 86
86 86 86
87 87 87
86 86 86
87 87 87
87 87 87
88 88 88
88 88 88
88 88 88
87 87 87
87 87 87
87 87 87
87 87 87
88 88 88
91 91 91
172 172 172
185 185 185
93 93 93
43 43 43
40 40 40
38 38 38
20 20 20
15 15 15
15 15 15
0 0 0
0 0 0
2 2 2
3 3 3
3 3 3
3 3 3
3 3 3
2 2 2
2 2 2
3 3 3
3 3 3
3 3 3
2 2 2
12 12 12
76 76 76
84 84 84
85 85 85
105 105 105
140 140 140
142 142 142
93 93 93
88 88 88
87 87 87
87 87 87
86 86 86
87 87 87
87 87 87
87 87 87
86 86 86
87 87 87
87 87 87
87 87 87
87 87 87
87 87 87
87 87 87
87 87 87
88 88 88
87 87 87
87 87 87
115 115 115
168 168 168
184 184 184
93 93 93
54 54 54
32 32 32
32 32 32
55 55 55
23 23 23
11 11 11
15 15 15
0 0 0
0 0 0
2 2 2
3 3 3
3 3 3
3 3 3
3 3 3
3 3 3
3 3 3
3 3 3
3 3 3
3 3 3
3 3 3
3 3 3
0 0 0
0 0 0
10 10 10
61 61 61
88 88 88
100 100 100
166 166 166
141 141 141
141 141 141
114 114 114
100 100 100
89 89 89
87 87 87
86 86 86
86 86 86
87 87 87
87 87 87
87 87 87
86 86 86
87 87 87
87 87 87
88 88 88
87 87 87
93 93 93
157 157 157
169 169 169
186 186 186
88 88 88
39 39 39
16 16 16
17 17 17
20 20 20
26 26 26
29 29 29
12 12 12
18 18 18
0 0 0
0 0 0
2 2 2
3 3 3
3 3 3
3 3 3
3 3 3
3 3 3
2 2 2
3 3 3
4 4 4
3 3 3
3 3 3
4 4 4
1 1 1
3 3 3
3 3 3
2 2 2
1 1 1
25 25 25
83 83 83
104 104 104
171 171 171
169 169 169
147 147 147
170 170 170
161 161 161
147 147 147
126 126 126
103 103 103
93 93 93
91 91 91
90 90 90
87 87 87
87 87 87
88 88 88
142 142 142
171 171 171
173 173 173
187 187 187
86 86 86
37 37 37
17 17 17
14 14 14
19 19 19
24 24 24
10 10 10
43 43 43
14 14 14
27 27 27
0 0 0
0 0 0
2 2 2
3 3 3
3 3 3
3 3 3
3 3 3
3 3 3
3 3 3
3 3 3
4 4 4
4 4 4
3 3 3
4 4 4
2 2 2
3 3 3
3 3 3
4 4 4
4 4 4
3 3 3
1 1 1
11 11 11
68 68 68
91 91 91
123 123 123
193 193 193
196 196 196
172 172 172
171 171 171
172 172 172
175 175 175
173 173 173
156 156 156
158 158 158
169 169 169
171 171 171
180 180 180
188 188 188
100 100 100
82 82 82
22 22 22
14 14 14
20 20 20
20 20 20
24 24 24
34 34 34
10 10 10
62 62 62
13 13 13
2 2 2
0 0 0
0 0 0
2 2 2
1 1 1
1 1 1
1 1 1
1 1 1
2 2 2
2 2 2
3 3 3
3 3 3
3 3 3
3 3 3
4 4 4
3 3 3
3 3 3
3 3 3
3 3 3
4 4 4
5 5 5
4 4 4
2 2 2
2 2 2
1 1 1
6 6 6
50 50 50
85 85 85
109 109 109
149 149 149
167 167 167
161 161 161
170 170 170
172 172 172
153 153 153
132 132 132
98 98 98
80 80 80
55 55 55
13 13 13
18 18 18
16 16 16
19 19 19
19 19 19
29 29 29
18 18 18
35 35 35
8 8 8
79 79 79
22 22 22
2 2 2
0 0 0
0 0 0
2 2 2
2 2 2
1 1 1
2 2 2
1 1 1
1 1 1
1 1 1
1 1 1
2 2 2
3 3 3
3 3 3
4 4 4
4 4 4
3 3 3
3 3 3
4 4 4
4 4 4
4 4 4
4 4 4
4 4 4
4 4 4
4 4 4
3 3 3
3 3 3
14 14 14
22 22 22
20 20 20
15 15 15
8 8 8
9 9 9
14 14 14
5 5 5
5 5 5
5 5 5
8 8 8
8 8 8
6 6 6
23 23 23
22 22 22
23 23 23
30 30 30
24 24 24
22 22 22
40 40 40
10 10 10
78 78 78
8 8 8
2 2 2
0 0 0
0 0 0
2 2 2
2 2 2
1 1 1
1 1 1
1 1 1
1 1 1
1 1 1
1 1 1
2 2 2
1 1 1
2 2 2
3 3 3
3 3 3
3 3 3
3 3 3
3 3 3
4 4 4
4 4 4
4 4 4
4 4 4
4 4 4
4 4 4
3 3 3
3 3 3
3 3 3
4 4 4
5 5 5
5 5 5
4 4 4
2 2 2
2 2 2
3 3 3
2 2 2
3 3 3
4 4 4
4 4 4
8 8 8
21 21 21
30 30 30
33 33 33
12 12 12
21 21 21
27 27 27
17 17 17
14 14 14
63 63 63
2 2 2
2 2 2
0 0 0
0 0 0
2 2 2
2 2 2
2 2 2
1 1 1
2 2 2
1 1 1
1 1 1
1 1 1
2 2 2
2 2 2
2 2 2
1 1 1
2 2 2
3 3 3
3 3 3
4 4 4
4 4 4
4 4 4
4 4 4
5 5 5
5 5 5
5 5 5
5 5 5
3 3 3
4 4 4
4 4 4
5 5 5
4 4 4
5 5 5
5 5 5
4 4 4
3 3 3
3 3 3
4 4 4
6 6 6
6 6 6
8 8 8
19 19 19
24 24 24
36 36 36
20 20 20
16 16 16
30 30 30
11 11 11
17 17 17
10 10 10
2 2 2
2 2 2
0 0 0
0 0 0
2 2 2
2 2 2
2 2 2
1 1 1
1 1 1
1 1 1
1 1 1
1 1 1
2 2 2
1 1 1
2 2 2
2 2 2
1 1 1
2 2 2
1 1 1
3 3 3
3 3 3
3 3 3
4 4 4
4 4 4
4 4 4
5 5 5
4 4 4
4 4 4
3 3 3
4 4 4
4 4 4
4 4 4
5 5 5
5 5 5
5 5 5
4 4 4
5 5 5
4 4 4
6 6 6
8 8 8
6 6 6
14 14 14
27 27 27
36 36 36
27 27 27
20 20 20
49 49 49
15 15 15
37 37 37
2 2 2
2 2 2
2 2 2
0 0 0
0 0 0
2 2 2
2 2 2
2 2 2
2 2 2
1 1 1
1 1 1
1 1 1
1 1 1
2 2 2
1 1 1
1 1 1
1 1 1
2 2 2
2 2 2
1 1 1
2 2 2
3 3 3
4 4 4
4 4 4
4 4 4
4 4 4
4 4 4
5 5 5
4 4 4
6 6 6
5 5 5
4 4 4
4 4 4
4 4 4
5 5 5
5 5 5
5 5 5
5 5 5
5 5 5
6 6 6
7 7 7
7 7 7
18 18 18
22 22 22
24 24 24
31 31 31
18 18 18
46 46 46
16 16 16
2 2 2
2 2 2
2 2 2
2 2 2
0 0 0
0 0 0
2 2 2
2 2 2
2 2 2
2 2 2
2 2 2
1 1 1
2 2 2
1 1 1
2 2 2
1 1 1
1 1 1
1 1 1
2 2 2
2 2 2
1 1 1
1 1 1
1 1 1
2 2 2
3 3 3
4 4 4
4 4 4
4 4 4
4 4 4
4 4 4
5 5 5
4 4 4
5 5 5
4 4 4
4 4 4
4 4 4
4 4 4
4 4 4
5 5 5
11 11 11
6 6 6
6 6 6
9 9 9
23 23 23
27 27 27
20 20 20
21 21 21
34 34 34
17 17 17
5 5 5
2 2 2
2 2 2
2 2 2
2 2 2
0 0 0
0 0 0
2 2 2
2 2 2
2 2 2
2 2 2
2 2 2
2 2 2
1 1 1
1 1 1
1 1 1
2 2 2
1 1 1
2 2 2
1 1 1
2 2 2
1 1 1
1 1 1
1 1 1
2 2 2
2 2 2
2 2 2
3 3 3
4 4 4
4 4 4
4 4 4
4 4 4
4 4 4
4 4 4
5 5 5
4 4 4
4 4 4
4 4 4
6 6 6
11 11 11
11 11 11
7 7 7
15 15 15
21 21 21
28 28 28
28 28 28
35 35 35
22 22 22
59 59 59
11 11 11
2 2 2
2 2 2
2 2 2
2 2 2
2 2 2
0 0 0
0 0 0
2 2 2
2 2 2
2 2 2
2 2 2
2 2 2
2 2 2
2 2 2
1 1 1
1 1 1
1 1 1
1 1 1
2 2 2
2 2 2
1 1 1
1 1 1
1 1 1
2 2 2
2 2 2
2 2 2
2 2 2
2 2 2
2 2 2
2 2 2
3 3 3
4 4 4
4 4 4
4 4 4
4 4 4
4 4 4
3 3 3
10 10 10
6 6 6
14 14 14
16 16 16
15 15 15
19 19 19
27 27 27
19 19 19
32 32 32
38 38 38
32 32 32
35 35 35
2 2 2
2 2 2
2 2 2
2 2 2
2 2 2
2 2 2
0 0 0
0 0 0
2 2 2
2 2 2
2 2 2
2 2 2
2 2 2
2 2 2
2 2 2
2 2 2
2 2 2
1 1 1
1 1 1
1 1 1
2 2 2
2 2 2
1 1 1
1 1 1
2 2 2
1 1 1
2 2 2
2 2 2
2 2 2
2 2 2
2 2 2
2 2 2
2 2 2
3 3 3
2 2 2
3 3 3
3 3 3
4 4 4
7 7 7
7 7 7
5 5 5
8 8 8
12 12 12
24 24 24
19 19 19
19 19 19
32 32 32
43 43 43
14 14 14
2 2 2
2 2 2
2 2 2
2 2 2
2 2 2
2 2 2
2 2 2
0 0 0
0 0 0
2 2 2
2 2 2
2 2 2
2 2 2
2 2 2
2 2 2
2 2 2
2 2 2
2 2 2
1 1 1
1 1 1
1 1 1
1 1 1
1 1 1
1 1 1
1 1 1
2 2 2
1 1 1
1 1 1
2 2 2
2 2 2
2 2 2
2 2 2
3 3 3
2 2 2
2 2 2
3 3 3
10 10 10
8 8 8
8 8 8
11 11 11
15 15 15
14 14 14
12 12 12
8 8 8
18 18 18
16 16 16
26 26 26
28 28 28
7 7 7
2 2 2
2 2 2
2 2 2
2 2 2
2 2 2
2 2 2
2 2 2
2 2 2
0 0 0
0 0 0
2 2 2
2 2 2
2 2 2
2 2 2
2 2 2
2 2 2
2 2 2
2 2 2
2 2 2
2 2 2
1 1 1
1 1 1
1 1 1
1 1 1
1 1 1
2 2 2
1 1 1
1 1 1
1 1 1
1 1 1
2 2 2
2 2 2
2 2 2
2 2 2
3 3 3
2 2 2
9 9 9
3 3 3
4 4 4
5 5 5
9 9 9
12 12 12
15 15 15
7 7 7
10 10 10
20 20 20
18 18 18
28 28 28
2 2 2
2 2 2
2 2 2
2 2 2
2 2 2
2 2 2
2 2 2
2 2 2
2 2 2
2 2 2
0 0 0
0 0 0
2 2 2
2 2 2
2 2 2
2 2 2
2 2 2
2 2 2
2 2 2
2 2 2
2 2 2
2 2 2
2 2 2
2 2 2
1 1 1
1 1 1
1 1 1
1 1 1
1 1 1
1 1 1
1 1 1
2 2 2
2 2 2
2 2 2
2 2 2
2 2 2
2 2 2
2 2 2
11 11 11
7 7 7
4 4 4
3 3 3
6 6 6
16 16 16
12 12 12
9 9 9
10 10 10
21 21 21
5 5 5
2 2 2
2 2 2
2 2 2
2 2 2
2 2 2
2 2 2
2 2 2
2 2 2
2 2 2
2 2 2
2 2 2
0 0 0
0 0 0
2 2 2
2 2 2
2 2 2
2 2 2
2 2 2
2 2 2
2 2 2
2 2 2
2 2 2
2 2 2
2 2 2
2 2 2
2 2 2
2 2 2
0 0 0
1 1 1
1 1 1
1 1 1
2 2 2
1 1 1
1 1 1
1 1 1
2 2 2
2 2 2
2 2 2
3 3 3
3 3 3
3 3 3
3 3 3
4 4 4
18 18 18
14 14 14
13 13 13
30 30 30
5 5 5
2 2 2
2 2 2
2 2 2
2 2 2
2 2 2
2 2 2
2 2 2
2 2 2
2 2 2
2 2 2
2 2 2
2 2 2
2 2 2
0 0 0
0 0 0
2 2 2
2 2 2
2 2 2
2 2 2
2 2 2
2 2 2
2 2 2
2 2 2
2 2 2
2 2 2
2 2 2
2 2 2
2 2 2
2 2 2
2 2 2
2 2 2
1 1 1
1 1 1
1 1 1
1 1 1
1 1 1
2 2 2
2 2 2
3 3 3
3 3 3
4 4 4
4 4 4
8 8 8
6 6 6
6 6 6
17 17 17
27 27 27
2 2 2
2 2 2
2 2 2
2 2 2
2 2 2
2 2 2
2 2 2
2 2 2
2 2 2
2 2 2
2 2 2
2 2 2
2 2 2
2 2 2
2 2 2
2 2 2
0 0 0
0 0 0
0 0 0
0 0 0
0 0 0
0 0 0
0 0 0
0 0 0
0 0 0
0 0 0
0 0 0
0 0 0
0 0 0
0 0 0
0 0 0
0 0 0
0 0 0
0 0 0
0 0 0
0 0 0
0 0 0
0 0 0
0 0 0
0 0 0
0 0 0
0 0 0
0 0 0
0 0 0
0 0 0
0 0 0
0 0 0
0 0 0
0 0 0
0 0 0
0 0 0
0 0 0
0 0 0
0 0 0
0 0 0
0 0 0
0 0 0
0 0 0
0 0 0
0 0 0
0 0 0
0 0 0
0 0 0
0 0 0
0 0 0
0 0 0
0 0 0
