P3 
50 50 
255
0 0 0
0 0 0
0 0 0
0 0 0
0 0 0
0 0 0
0 0 0
0 0 0
0 0 0
0 0 0
0 0 0
0 0 0
0 0 0
0 0 0
0 0 0
0 0 0
0 0 0
0 0 0
0 0 0
0 0 0
0 0 0
0 0 0
0 0 0
0 0 0
0 0 0
0 0 0
0 0 0
0 0 0
0 0 0
0 0 0
0 0 0
0 0 0
0 0 0
0 0 0
0 0 0
0 0 0
0 0 0
0 0 0
0 0 0
0 0 0
0 0 0
0 0 0
0 0 0
0 0 0
0 0 0
0 0 0
0 0 0
0 0 0
0 0 0
0 0 0
0 0 0
2 2 2
2 2 2
2 2 2
2 2 2
2 2 2
2 2 2
2 2 2
2 2 2
2 2 2
2 2 2
2 2 2
2 2 2
2 2 2
2 2 2
2 2 2
2 2 2
2 2 2
1 1 1
4 4 4
7 7 7
3 3 3
4 4 4
4 4 4
5 5 5
3 3 3
3 3 3
4 4 4
5 5 5
7 7 7
11 11 11
13 13 13
4 4 4
2 2 2
2 2 2
2 2 2
2 2 2
2 2 2
2 2 2
2 2 2
2 2 2
2 2 2
2 2 2
2 2 2
2 2 2
2 2 2
2 2 2
2 2 2
2 2 2
0 0 0
0 0 0
2 2 2
2 2 2
2 2 2
2 2 2
2 2 2
2 2 2
2 2 2
2 2 2
2 2 2
2 2 2
2 2 2
2 2 2
2 2 2
2 2 2
1 1 1
1 1 1
1 1 1
11 11 11
4 4 4
3 3 3
4 4 4
4 4 4
4 4 4
4 4 4
3 3 3
6 6 6
9 9 9
12 12 12
11 11 11
16 16 16
15 15 15
13 13 13
20 20 20
16 16 16
2 2 2
2 2 2
2 2 2
2 2 2
2 2 2
2 2 2
2 2 2
2 2 2
2 2 2
2 2 2
2 2 2
2 2 2
2 2 2
2 2 2
0 0 0
0 0 0
2 2 2
2 2 2
2 2 2
2 2 2
2 2 2
2 2 2
2 2 2
2 2 2
2 2 2
2 2 2
2 2 2
2 2 2
1 1 1
1 1 1
1 1 1
2 2 2
4 4 4
3 3 3
3 3 3
4 4 4
4 4 4
4 4 4
4 4 4
4 4 4
6 6 6
12 12 12
9 9 9
11 11 11
11 11 11
14 14 14
18 18 18
17 17 17
18 18 18
12 12 12
15 15 15
20 20 20
2 2 2
2 2 2
2 2 2
2 2 2
2 2 2
2 2 2
2 2 2
2 2 2
2 2 2
2 2 2
2 2 2
2 2 2
0 0 0
0 0 0
2 2 2
2 2 2
2 2 2
2 2 2
2 2 2
2 2 2
2 2 2
2 2 2
2 2 2
2 2 2
1 1 1
1 1 1
0 0 0
2 2 2
1 1 1
3 3 3
4 4 4
3 3 3
3 3 3
4 4 4
4 4 4
4 4 4
4 4 4
5 5 5
12 12 12
16 16 16
11 11 11
12 12 12
7 7 7
2 2 2
3 3 3
24 24 24
15 15 15
9 9 9
16 16 16
15 15 15
14 14 14
9 9 9
2 2 2
2 2 2
2 2 2
2 2 2
2 2 2
2 2 2
2 2 2
2 2 2
2 2 2
2 2 2
0 0 0
0 0 0
2 2 2
2 2 2
2 2 2
2 2 2
2 2 2
2 2 2
2 2 2
2 2 2
2 2 2
1 1 1
1 1 1
2 2 2
3 3 3
3 3 3
3 3 3
2 2 2
3 3 3
4 4 4
4 4 4
5 5 5
4 4 4
4 4 4
9 9 9
16 16 16
41 41 41
74 74 74
84 84 84
83 83 83
84 84 84
85 85 85
84 84 84
85 85 85
84 84 84
85 85 85
71 71 71
39 39 39
14 14 14
16 16 16
13 13 13
2 2 2
2 2 2
2 2 2
2 2 2
2 2 2
2 2 2
2 2 2
2 2 2
2 2 2
0 0 0
0 0 0
2 2 2
2 2 2
2 2 2
2 2 2
2 2 2
2 2 2
2 2 2
2 2 2
1 1 1
1 1 1
2 2 2
2 2 2
3 3 3
3 3 3
3 3 3
4 4 4
5 5 5
2 2 2
4 4 4
10 10 10
13 13 13
35 35 35
67 67 67
85 85 85
92 92 92
163 163 163
199 199 199
193 193 193
173 173 173
176 176 176
161 161 161
172 172 172
175 175 175
183 183 183
172 172 172
113 113 113
85 85 85
34 34 34
13 13 13
11 11 11
4 4 4
2 2 2
2 2 2
2 2 2
2 2 2
2 2 2
2 2 2
2 2 2
0 0 0
0 0 0
2 2 2
2 2 2
2 2 2
2 2 2
2 2 2
2 2 2
2 2 2
0 0 0
1 1 1
2 2 2
2 2 2
3 3 3
3 3 3
4 4 4
4 4 4
4 4 4
1 1 1
1 1 1
11 11 11
65 65 65
86 86 86
86 86 86
92 92 92
154 154 154
155 155 155
130 130 130
90 90 90
100 100 100
103 103 103
88 88 88
90 90 90
91 91 91
92 92 92
112 112 112
173 173 173
164 164 164
178 178 178
175 175 175
75 75 75
17 17 17
10 10 10
9 9 9
2 2 2
2 2 2
2 2 2
2 2 2
2 2 2
2 2 2
0 0 0
0 0 0
2 2 2
2 2 2
2 2 2
2 2 2
2 2 2
2 2 2
1 1 1
1 1 1
1 1 1
3 3 3
3 3 3
4 4 4
5 5 5
4 4 4
3 3 3
10 10 10
58 58 58
82 82 82
87 87 87
86 86 86
94 94 94
159 159 159
162 162 162
118 118 118
86 86 86
87 87 87
86 86 86
87 87 87
87 87 87
87 87 87
87 87 87
87 87 87
87 87 87
87 87 87
87 87 87
98 98 98
165 165 165
168 168 168
183 183 183
100 100 100
29 29 29
20 20 20
6 6 6
2 2 2
2 2 2
2 2 2
2 2 2
2 2 2
0 0 0
0 0 0
2 2 2
2 2 2
2 2 2
2 2 2
2 2 2
1 1 1
2 2 2
2 2 2
3 3 3
2 2 2
3 3 3
4 4 4
3 3 3
18 18 18
71 71 71
83 83 83
86 86 86
88 88 88
87 87 87
149 149 149
136 136 136
96 96 96
87 87 87
86 86 86
86 86 86
87 87 87
87 87 87
87 87 87
87 87 87
87 87 87
86 86 86
87 87 87
87 87 87
88 88 88
87 87 87
88 88 88
88 88 88
103 103 103
170 170 170
170 170 170
108 108 108
39 39 39
56 56 56
2 2 2
2 2 2
2 2 2
2 2 2
2 2 2
0 0 0
0 0 0
2 2 2
2 2 2
2 2 2
2 2 2
2 2 2
2 2 2
2 2 2
2 2 2
2 2 2
3 3 3
3 3 3
13 13 13
89 89 89
87 87 87
83 83 83
86 86 86
85 85 85
139 139 139
165 165 165
101 101 101
85 85 85
85 85 85
86 86 86
87 87 87
86 86 86
87 87 87
86 86 86
87 87 87
87 87 87
87 87 87
86 86 86
87 87 87
87 87 87
88 88 88
88 88 88
88 88 88
88 88 88
89 89 89
90 90 90
168 168 168
182 182 182
127 127 127
35 35 35
32 32 32
2 2 2
2 2 2
2 2 2
2 2 2
0 0 0
0 0 0
2 2 2
2 2 2
2 2 2
1 1 1
2 2 2
3 3 3
2 2 2
2 2 2
2 2 2
3 3 3
1 1 1
84 84 84
194 194 194
88 88 88
84 84 84
83 83 83
135 135 135
126 126 126
86 86 86
85 85 85
86 86 86
86 86 86
86 86 86
86 86 86
87 87 87
86 86 86
86 86 86
87 87 87
87 87 87
86 86 86
86 86 86
87 87 87
87 87 87
87 87 87
87 87 87
87 87 87
88 88 88
89 89 89
88 88 88
103 103 103
170 170 170
199 199 199
84 84 84
59 59 59
23 23 23
2 2 2
2 2 2
2 2 2
0 0 0
0 0 0
2 2 2
2 2 2
2 2 2
2 2 2
2 2 2
3 3 3
3 3 3
2 2 2
3 3 3
3 3 3
2 2 2
87 87 87
98 98 98
163 163 163
109 109 109
108 108 108
131 131 131
85 85 85
85 85 85
86 86 86
86 86 86
86 86 86
85 85 85
86 86 86
86 86 86
86 86 86
86 86 86
87 87 87
87 87 87
86 86 86
87 87 87
87 87 87
88 88 88
87 87 87
87 87 87
87 87 87
87 87 87
88 88 88
88 88 88
88 88 88
145 145 145
170 170 170
176 176 176
49 49 49
22 22 22
7 7 7
2 2 2
2 2 2
0 0 0
0 0 0
2 2 2
2 2 2
2 2 2
3 3 3
2 2 2
2 2 2
2 2 2
3 3 3
5 5 5
3 3 3
24 24 24
87 87 87
84 84 84
78 78 78
123 123 123
124 124 124
133 133 133
85 85 85
86 86 86
85 85 85
86 86 86
86 86 86
86 86 86
86 86 86
86 86 86
87 87 87
87 87 87
86 86 86
87 87 87
87 87 87
87 87 87
88 88 88
87 87 87
87 87 87
88 88 88
88 88 88
88 88 88
87 87 87
88 88 88
89 89 89
88 88 88
172 172 172
197 197 197
86 86 86
27 27 27
91 91 91
2 2 2
2 2 2
0 0 0
0 0 0
2 2 2
2 2 2
3 3 3
3 3 3
2 2 2
3 3 3
3 3 3
4 4 4
3 3 3
25 25 25
88 88 88
85 85 85
84 84 84
85 85 85
75 75 75
119 119 119
132 132 132
85 85 85
85 85 85
85 85 85
86 86 86
87 87 87
86 86 86
86 86 86
87 87 87
87 87 87
87 87 87
87 87 87
87 87 87
87 87 87
87 87 87
87 87 87
87 87 87
87 87 87
87 87 87
87 87 87
88 88 88
88 88 88
88 88 88
88 88 88
88 88 88
106 106 106
169 169 169
97 97 97
53 53 53
83 83 83
5 5 5
2 2 2
0 0 0
0 0 0
2 2 2
2 2 2
3 3 3
3 3 3
3 3 3
3 3 3
2 2 2
1 1 1
19 19 19
88 88 88
85 85 85
84 84 84
85 85 85
85 85 85
77 77 77
79 79 79
125 125 125
87 87 87
85 85 85
86 86 86
86 86 86
86 86 86
87 87 87
86 86 86
87 87 87
87 87 87
87 87 87
87 87 87
87 87 87
87 87 87
87 87 87
86 86 86
85 85 85
87 87 87
87 87 87
88 88 88
87 87 87
87 87 87
88 88 88
89 89 89
87 87 87
87 87 87
164 164 164
156 156 156
61 61 61
64 64 64
26 26 26
2 2 2
0 0 0
0 0 0
2 2 2
1 1 1
2 2 2
3 3 3
3 3 3
2 2 2
1 1 1
2 2 2
20 20 20
79 79 79
84 84 84
84 84 84
83 83 83
86 86 86
81 81 81
81 81 81
109 109 109
91 91 91
86 86 86
86 86 86
85 85 85
87 87 87
86 86 86
86 86 86
87 87 87
86 86 86
87 87 87
87 87 87
87 87 87
87 87 87
87 87 87
86 86 86
86 86 86
87 87 87
88 88 88
87 87 87
87 87 87
88 88 88
88 88 88
89 89 89
88 88 88
88 88 88
170 170 170
190 190 190
61 61 61
46 46 46
17 17 17
4 4 4
0 0 0
0 0 0
2 2 2
1 1 1
1 1 1
2 2 2
3 3 3
2 2 2
2 2 2
2 2 2
5 5 5
87 87 87
86 86 86
84 84 84
85 85 85
77 77 77
78 78 78
86 86 86
111 111 111
87 87 87
86 86 86
86 86 86
86 86 86
86 86 86
86 86 86
86 86 86
87 87 87
87 87 87
87 87 87
87 87 87
88 88 88
87 87 87
87 87 87
86 86 86
85 85 85
87 87 87
87 87 87
87 87 87
88 88 88
87 87 87
88 88 88
89 89 89
88 88 88
88 88 88
147 147 147
178 178 178
83 83 83
36 36 36
16 16 16
21 21 21
0 0 0
0 0 0
1 1 1
0 0 0
0 0 0
0 0 0
3 3 3
2 2 2
2 2 2
3 3 3
1 1 1
87 87 87
83 83 83
80 80 80
81 81 81
83 83 83
92 92 92
116 116 116
90 90 90
87 87 87
86 86 86
86 86 86
86 86 86
86 86 86
86 86 86
86 86 86
87 87 87
87 87 87
86 86 86
87 87 87
87 87 87
86 86 86
87 87 87
87 87 87
87 87 87
87 87 87
87 87 87
87 87 87
88 88 88
87 87 87
88 88 88
88 88 88
87 87 87
87 87 87
112 112 112
173 173 173
94 94 94
31 31 31
16 16 16
23 23 23
0 0 0
0 0 0
1 1 1
1 1 1
1 1 1
0 0 0
1 1 1
2 2 2
1 1 1
2 2 2
18 18 18
116 116 116
116 116 116
42 42 42
8 8 8
8 8 8
71 71 71
92 92 92
86 86 86
87 87 87
87 87 87
86 86 86
86 86 86
86 86 86
86 86 86
87 87 87
87 87 87
87 87 87
86 86 86
87 87 87
86 86 86
86 86 86
86 86 86
87 87 87
87 87 87
89 89 89
88 88 88
87 87 87
87 87 87
87 87 87
88 88 88
88 88 88
87 87 87
89 89 89
122 122 122
151 151 151
104 104 104
30 30 30
18 18 18
16 16 16
0 0 0
0 0 0
1 1 1
1 1 1
1 1 1
0 0 0
1 1 1
17 17 17
85 85 85
137 137 137
111 111 111
44 44 44
35 35 35
49 49 49
55 55 55
92 92 92
87 87 87
95 95 95
88 88 88
86 86 86
86 86 86
86 86 86
85 85 85
86 86 86
85 85 85
86 86 86
86 86 86
85 85 85
86 86 86
85 85 85
86 86 86
96 96 96
86 86 86
87 87 87
87 87 87
88 88 88
87 87 87
87 87 87
87 87 87
88 88 88
87 87 87
89 89 89
88 88 88
89 89 89
106 106 106
170 170 170
104 104 104
28 28 28
19 19 19
15 15 15
0 0 0
0 0 0
1 1 1
1 1 1
0 0 0
1 1 1
0 0 0
44 44 44
127 127 127
138 138 138
90 90 90
40 40 40
33 33 33
53 53 53
70 70 70
80 80 80
88 88 88
91 91 91
87 87 87
87 87 87
87 87 87
86 86 86
86 86 86
86 86 86
88 88 88
86 86 86
86 86 86
87 87 87
87 87 87
87 87 87
87 87 87
86 86 86
86 86 86
87 87 87
87 87 87
87 87 87
87 87 87
87 87 87
87 87 87
88 88 88
88 88 88
88 88 88
88 88 88
87 87 87
115 115 115
182 182 182
83 83 83
29 29 29
20 20 20
16 16 16
0 0 0
0 0 0
2 2 2
1 1 1
1 1 1
0 0 0
1 1 1
5 5 5
27 27 27
32 32 32
74 74 74
184 184 184
147 147 147
32 32 32
33 33 33
29 29 29
96 96 96
95 95 95
91 91 91
86 86 86
86 86 86
86 86 86
86 86 86
86 86 86
87 87 87
86 86 86
86 86 86
87 87 87
87 87 87
86 86 86
87 87 87
87 87 87
87 87 87
86 86 86
87 87 87
87 87 87
87 87 87
88 88 88
87 87 87
88 88 88
87 87 87
88 88 88
87 87 87
88 88 88
114 114 114
190 190 190
67 67 67
31 31 31
20 20 20
15 15 15
0 0 0
0 0 0
1 1 1
1 1 1
1 1 1
1 1 1
0 0 0
0 0 0
0 0 0
1 1 1
1 1 1
59 59 59
84 84 84
81 81 81
80 80 80
80 80 80
85 85 85
100 100 100
114 114 114
91 91 91
86 86 86
87 87 87
86 86 86
86 86 86
85 85 85
86 86 86
86 86 86
87 87 87
86 86 86
87 87 87
87 87 87
87 87 87
87 87 87
86 86 86
86 86 86
87 87 87
87 87 87
87 87 87
88 88 88
88 88 88
88 88 88
89 89 89
88 88 88
88 88 88
153 153 153
191 191 191
59 59 59
33 33 33
22 22 22
14 14 14
0 0 0
0 0 0
1 1 1
1 1 1
1 1 1
0 0 0
1 1 1
1 1 1
1 1 1
2 2 2
2 2 2
24 24 24
87 87 87
87 87 87
86 86 86
79 79 79
79 79 79
82 82 82
91 91 91
124 124 124
96 96 96
86 86 86
86 86 86
86 86 86
86 86 86
87 87 87
87 87 87
87 87 87
87 87 87
87 87 87
86 86 86
87 87 87
87 87 87
87 87 87
90 90 90
87 87 87
87 87 87
88 88 88
88 88 88
87 87 87
88 88 88
88 88 88
87 87 87
88 88 88
169 169 169
168 168 168
48 48 48
40 40 40
21 21 21
13 13 13
0 0 0
0 0 0
1 1 1
1 1 1
1 1 1
1 1 1
2 2 2
2 2 2
2 2 2
1 1 1
2 2 2
68 68 68
89 89 89
86 86 86
85 85 85
85 85 85
83 83 83
79 79 79
86 86 86
101 101 101
85 85 85
86 86 86
86 86 86
86 86 86
86 86 86
87 87 87
87 87 87
87 87 87
87 87 87
87 87 87
87 87 87
87 87 87
87 87 87
87 87 87
86 86 86
87 87 87
87 87 87
87 87 87
88 88 88
87 87 87
88 88 88
88 88 88
88 88 88
121 121 121
177 177 177
98 98 98
47 47 47
48 48 48
20 20 20
13 13 13
0 0 0
0 0 0
1 1 1
1 1 1
1 1 1
2 2 2
2 2 2
2 2 2
2 2 2
2 2 2
1 1 1
82 82 82
86 86 86
85 85 85
86 86 86
85 85 85
78 78 78
80 80 80
121 121 121
88 88 88
85 85 85
85 85 85
86 86 86
87 87 87
87 87 87
87 87 87
87 87 87
87 87 87
86 86 86
87 87 87
87 87 87
87 87 87
87 87 87
87 87 87
87 87 87
87 87 87
87 87 87
88 88 88
87 87 87
87 87 87
88 88 88
87 87 87
88 88 88
172 172 172
199 199 199
80 80 80
49 49 49
42 42 42
19 19 19
14 14 14
0 0 0
0 0 0
0 0 0
1 1 1
1 1 1
1 1 1
2 2 2
2 2 2
2 2 2
1 1 1
2 2 2
54 54 54
89 89 89
85 85 85
85 85 85
85 85 85
77 77 77
111 111 111
123 123 123
85 85 85
86 86 86
85 85 85
86 86 86
86 86 86
87 87 87
87 87 87
87 87 87
87 87 87
87 87 87
87 87 87
87 87 87
87 87 87
87 87 87
87 87 87
87 87 87
87 87 87
88 88 88
87 87 87
88 88 88
88 88 88
87 87 87
88 88 88
152 152 152
173 173 173
147 147 147
53 53 53
41 41 41
29 29 29
19 19 19
15 15 15
0 0 0
0 0 0
0 0 0
0 0 0
1 1 1
0 0 0
1 1 1
1 1 1
1 1 1
1 1 1
3 3 3
2 2 2
79 79 79
89 89 89
86 86 86
87 87 87
103 103 103
113 113 113
124 124 124
87 87 87
86 86 86
87 87 87
87 87 87
86 86 86
86 86 86
86 86 86
87 87 87
86 86 86
87 87 87
87 87 87
87 87 87
87 87 87
87 87 87
87 87 87
87 87 87
88 88 88
87 87 87
87 87 87
88 88 88
88 88 88
88 88 88
104 104 104
176 176 176
205 205 205
83 83 83
42 42 42
49 49 49
20 20 20
14 14 14
15 15 15
0 0 0
0 0 0
1 1 1
1 1 1
1 1 1
1 1 1
1 1 1
1 1 1
0 0 0
0 0 0
1 1 1
2 2 2
0 0 0
60 60 60
90 90 90
89 89 89
131 131 131
84 84 84
103 103 103
110 110 110
86 86 86
86 86 86
87 87 87
87 87 87
87 87 87
87 87 87
86 86 86
87 87 87
87 87 87
87 87 87
87 87 87
87 87 87
87 87 87
88 88 88
87 87 87
88 88 88
88 88 88
87 87 87
88 88 88
87 87 87
90 90 90
180 180 180
189 189 189
105 105 105
51 51 51
35 35 35
48 48 48
18 18 18
14 14 14
14 14 14
0 0 0
0 0 0
1 1 1
2 2 2
2 2 2
2 2 2
1 1 1
1 1 1
1 1 1
1 1 1
1 1 1
0 0 0
0 0 0
0 0 0
151 151 151
195 195 195
84 84 84
87 87 87
87 87 87
134 134 134
165 165 165
86 86 86
86 86 86
86 86 86
87 87 87
87 87 87
87 87 87
86 86 86
87 87 87
87 87 87
87 87 87
88 88 88
87 87 87
87 87 87
87 87 87
88 88 88
88 88 88
87 87 87
87 87 87
120 120 120
182 182 182
190 190 190
98 98 98
45 45 45
32 32 32
39 39 39
50 50 50
21 21 21
12 12 12
14 14 14
0 0 0
0 0 0
1 1 1
3 3 3
3 3 3
3 3 3
2 2 2
1 1 1
1 1 1
1 1 1
2 2 2
2 2 2
1 1 1
0 0 0
21 21 21
102 102 102
103 103 103
81 81 81
83 83 83
86 86 86
98 98 98
160 160 160
87 87 87
86 86 86
87 87 87
87 87 87
87 87 87
87 87 87
87 87 87
87 87 87
87 87 87
87 87 87
87 87 87
88 88 88
87 87 87
87 87 87
87 87 87
93 93 93
170 170 170
179 179 179
201 201 201
84 84 84
42 42 42
22 22 22
34 34 34
31 31 31
23 23 23
27 27 27
13 13 13
18 18 18
0 0 0
0 0 0
2 2 2
3 3 3
3 3 3
3 3 3
3 3 3
3 3 3
3 3 3
3 3 3
3 3 3
3 3 3
2 2 2
1 1 1
0 0 0
0 0 0
6 6 6
16 16 16
50 50 50
81 81 81
85 85 85
88 88 88
158 158 158
103 103 103
86 86 86
87 87 87
87 87 87
86 86 86
87 87 87
87 87 87
87 87 87
87 87 87
87 87 87
87 87 87
88 88 88
88 88 88
155 155 155
178 178 178
191 191 191
171 171 171
83 83 83
39 39 39
13 13 13
23 23 23
31 31 31
27 27 27
11 11 11
42 42 42
13 13 13
26 26 26
0 0 0
0 0 0
2 2 2
3 3 3
3 3 3
3 3 3
3 3 3
3 3 3
3 3 3
3 3 3
3 3 3
3 3 3
3 3 3
2 2 2
3 3 3
3 3 3
3 3 3
3 3 3
3 3 3
1 1 1
4 4 4
56 56 56
87 87 87
96 96 96
157 157 157
135 135 135
106 106 106
99 99 99
99 99 99
96 96 96
88 88 88
104 104 104
123 123 123
151 151 151
163 163 163
179 179 179
193 193 193
159 159 159
85 85 85
68 68 68
11 11 11
17 17 17
26 26 26
16 16 16
23 23 23
32 32 32
9 9 9
61 61 61
13 13 13
2 2 2
0 0 0
0 0 0
2 2 2
3 3 3
3 3 3
2 2 2
3 3 3
3 3 3
3 3 3
3 3 3
2 2 2
3 3 3
3 3 3
3 3 3
3 3 3
4 4 4
3 3 3
3 3 3
4 4 4
3 3 3
2 2 2
2 2 2
1 1 1
23 23 23
72 72 72
88 88 88
132 132 132
182 182 182
209 209 209
203 203 203
194 194 194
191 191 191
200 200 200
190 190 190
148 148 148
98 98 98
65 65 65
38 38 38
19 19 19
15 15 15
17 17 17
21 21 21
26 26 26
25 25 25
23 23 23
47 47 47
9 9 9
78 78 78
22 22 22
2 2 2
0 0 0
0 0 0
2 2 2
2 2 2
3 3 3
3 3 3
2 2 2
3 3 3
3 3 3
3 3 3
3 3 3
3 3 3
3 3 3
3 3 3
3 3 3
3 3 3
4 4 4
3 3 3
3 3 3
4 4 4
2 2 2
3 3 3
3 3 3
2 2 2
1 1 1
4 4 4
2 2 2
10 10 10
32 32 32
50 50 50
61 61 61
47 47 47
36 36 36
27 27 27
9 9 9
2 2 2
4 4 4
5 5 5
4 4 4
23 23 23
15 15 15
30 30 30
17 17 17
33 33 33
14 14 14
27 27 27
10 10 10
79 79 79
8 8 8
2 2 2
0 0 0
0 0 0
2 2 2
2 2 2
1 1 1
1 1 1
2 2 2
2 2 2
3 3 3
3 3 3
2 2 2
3 3 3
3 3 3
3 3 3
3 3 3
4 4 4
4 4 4
4 4 4
4 4 4
4 4 4
2 2 2
2 2 2
2 2 2
2 2 2
3 3 3
3 3 3
4 4 4
5 5 5
7 7 7
3 3 3
4 4 4
7 7 7
5 5 5
2 2 2
3 3 3
4 4 4
5 5 5
5 5 5
5 5 5
21 21 21
32 32 32
24 24 24
29 29 29
29 29 29
25 25 25
12 12 12
14 14 14
65 65 65
2 2 2
2 2 2
0 0 0
0 0 0
2 2 2
2 2 2
2 2 2
1 1 1
1 1 1
1 1 1
1 1 1
1 1 1
1 1 1
2 2 2
3 3 3
3 3 3
3 3 3
3 3 3
3 3 3
3 3 3
4 4 4
3 3 3
3 3 3
3 3 3
3 3 3
3 3 3
4 4 4
4 4 4
4 4 4
4 4 4
2 2 2
3 3 3
3 3 3
3 3 3
3 3 3
2 2 2
4 4 4
4 4 4
5 5 5
5 5 5
6 6 6
18 18 18
15 15 15
22 22 22
26 26 26
16 16 16
39 39 39
10 10 10
17 17 17
10 10 10
2 2 2
2 2 2
0 0 0
0 0 0
2 2 2
2 2 2
2 2 2
1 1 1
1 1 1
1 1 1
2 2 2
1 1 1
1 1 1
1 1 1
1 1 1
2 2 2
3 3 3
3 3 3
3 3 3
3 3 3
4 4 4
3 3 3
4 4 4
4 4 4
4 4 4
4 4 4
4 4 4
4 4 4
4 4 4
3 3 3
3 3 3
3 3 3
4 4 4
4 4 4
3 3 3
4 4 4
5 5 5
4 4 4
4 4 4
8 8 8
7 7 7
8 8 8
15 15 15
20 20 20
24 24 24
26 26 26
53 53 53
14 14 14
37 37 37
2 2 2
2 2 2
2 2 2
0 0 0
0 0 0
2 2 2
2 2 2
2 2 2
2 2 2
1 1 1
1 1 1
1 1 1
1 1 1
1 1 1
1 1 1
1 1 1
1 1 1
1 1 1
2 2 2
3 3 3
3 3 3
3 3 3
4 4 4
4 4 4
3 3 3
4 4 4
4 4 4
4 4 4
4 4 4
4 4 4
4 4 4
2 2 2
4 4 4
4 4 4
4 4 4
4 4 4
4 4 4
5 5 5
5 5 5
5 5 5
5 5 5
7 7 7
12 12 12
15 15 15
28 28 28
17 17 17
35 35 35
31 31 31
16 16 16
2 2 2
2 2 2
2 2 2
2 2 2
0 0 0
0 0 0
2 2 2
2 2 2
2 2 2
2 2 2
2 2 2
1 1 1
1 1 1
1 1 1
1 1 1
1 1 1
1 1 1
1 1 1
1 1 1
2 2 2
2 2 2
2 2 2
3 3 3
3 3 3
3 3 3
4 4 4
3 3 3
3 3 3
4 4 4
4 4 4
4 4 4
4 4 4
4 4 4
4 4 4
4 4 4
4 4 4
4 4 4
4 4 4
5 5 5
4 4 4
8 8 8
6 6 6
10 10 10
18 18 18
11 11 11
18 18 18
15 15 15
42 42 42
15 15 15
5 5 5
2 2 2
2 2 2
2 2 2
2 2 2
0 0 0
0 0 0
2 2 2
2 2 2
2 2 2
2 2 2
2 2 2
2 2 2
1 1 1
1 1 1
1 1 1
1 1 1
1 1 1
1 1 1
1 1 1
1 1 1
2 2 2
2 2 2
1 1 1
1 1 1
3 3 3
4 4 4
3 3 3
3 3 3
4 4 4
4 4 4
4 4 4
4 4 4
4 4 4
4 4 4
4 4 4
4 4 4
4 4 4
4 4 4
4 4 4
5 5 5
8 8 8
10 10 10
17 17 17
12 12 12
30 30 30
26 26 26
27 27 27
56 56 56
11 11 11
2 2 2
2 2 2
2 2 2
2 2 2
2 2 2
0 0 0
0 0 0
2 2 2
2 2 2
2 2 2
2 2 2
2 2 2
2 2 2
2 2 2
1 1 1
1 1 1
1 1 1
1 1 1
1 1 1
1 1 1
1 1 1
1 1 1
1 1 1
1 1 1
1 1 1
2 2 2
1 1 1
2 2 2
4 4 4
3 3 3
3 3 3
4 4 4
4 4 4
4 4 4
4 4 4
4 4 4
4 4 4
4 4 4
3 3 3
3 3 3
6 6 6
14 14 14
5 5 5
19 19 19
24 24 24
28 28 28
29 29 29
29 29 29
24 24 24
2 2 2
2 2 2
2 2 2
2 2 2
2 2 2
2 2 2
0 0 0
0 0 0
2 2 2
2 2 2
2 2 2
2 2 2
2 2 2
2 2 2
2 2 2
2 2 2
1 1 1
1 1 1
1 1 1
0 0 0
1 1 1
1 1 1
1 1 1
1 1 1
1 1 1
1 1 1
2 2 2
1 1 1
2 2 2
2 2 2
1 1 1
2 2 2
3 3 3
3 3 3
4 4 4
3 3 3
3 3 3
2 2 2
3 3 3
3 3 3
3 3 3
5 5 5
10 10 10
11 11 11
13 13 13
25 25 25
36 36 36
30 30 30
16 16 16
2 2 2
2 2 2
2 2 2
2 2 2
2 2 2
2 2 2
2 2 2
0 0 0
0 0 0
2 2 2
2 2 2
2 2 2
2 2 2
2 2 2
2 2 2
2 2 2
2 2 2
2 2 2
1 1 1
1 1 1
1 1 1
1 1 1
1 1 1
1 1 1
1 1 1
2 2 2
1 1 1
1 1 1
2 2 2
1 1 1
2 2 2
2 2 2
2 2 2
2 2 2
2 2 2
2 2 2
2 2 2
3 3 3
3 3 3
3 3 3
3 3 3
3 3 3
14 14 14
8 8 8
19 19 19
12 12 12
28 28 28
29 29 29
7 7 7
2 2 2
2 2 2
2 2 2
2 2 2
2 2 2
2 2 2
2 2 2
2 2 2
0 0 0
0 0 0
2 2 2
2 2 2
2 2 2
2 2 2
2 2 2
2 2 2
2 2 2
2 2 2
2 2 2
2 2 2
1 1 1
1 1 1
1 1 1
0 0 0
1 1 1
1 1 1
1 1 1
1 1 1
1 1 1
1 1 1
1 1 1
1 1 1
2 2 2
2 2 2
2 2 2
2 2 2
2 2 2
5 5 5
8 8 8
9 9 9
3 3 3
3 3 3
11 11 11
8 8 8
8 8 8
11 11 11
24 24 24
31 31 31
2 2 2
2 2 2
2 2 2
2 2 2
2 2 2
2 2 2
2 2 2
2 2 2
2 2 2
2 2 2
0 0 0
0 0 0
2 2 2
2 2 2
2 2 2
2 2 2
2 2 2
2 2 2
2 2 2
2 2 2
2 2 2
2 2 2
2 2 2
2 2 2
1 1 1
1 1 1
1 1 1
1 1 1
1 1 1
1 1 1
1 1 1
1 1 1
1 1 1
2 2 2
1 1 1
2 2 2
2 2 2
4 4 4
2 2 2
5 5 5
4 4 4
3 3 3
5 5 5
10 10 10
11 11 11
13 13 13
10 10 10
19 19 19
4 4 4
2 2 2
2 2 2
2 2 2
2 2 2
2 2 2
2 2 2
2 2 2
2 2 2
2 2 2
2 2 2
2 2 2
0 0 0
0 0 0
2 2 2
2 2 2
2 2 2
2 2 2
2 2 2
2 2 2
2 2 2
2 2 2
2 2 2
2 2 2
2 2 2
2 2 2
2 2 2
2 2 2
0 0 0
1 1 1
1 1 1
1 1 1
1 1 1
1 1 1
2 2 2
1 1 1
2 2 2
2 2 2
2 2 2
11 11 11
7 7 7
8 8 8
3 3 3
3 3 3
9 9 9
10 10 10
10 10 10
20 20 20
3 3 3
2 2 2
2 2 2
2 2 2
2 2 2
2 2 2
2 2 2
2 2 2
2 2 2
2 2 2
2 2 2
2 2 2
2 2 2
2 2 2
0 0 0
0 0 0
2 2 2
2 2 2
2 2 2
2 2 2
2 2 2
2 2 2
2 2 2
2 2 2
2 2 2
2 2 2
2 2 2
2 2 2
2 2 2
2 2 2
2 2 2
2 2 2
1 1 1
0 0 0
1 1 1
1 1 1
1 1 1
1 1 1
2 2 2
2 2 2
2 2 2
2 2 2
4 4 4
11 11 11
11 11 11
5 5 5
7 7 7
11 11 11
2 2 2
2 2 2
2 2 2
2 2 2
2 2 2
2 2 2
2 2 2
2 2 2
2 2 2
2 2 2
2 2 2
2 2 2
2 2 2
2 2 2
2 2 2
2 2 2
0 0 0
0 0 0
0 0 0
0 0 0
0 0 0
0 0 0
0 0 0
0 0 0
0 0 0
0 0 0
0 0 0
0 0 0
0 0 0
0 0 0
0 0 0
0 0 0
0 0 0
0 0 0
0 0 0
0 0 0
0 0 0
0 0 0
0 0 0
0 0 0
0 0 0
0 0 0
0 0 0
0 0 0
0 0 0
0 0 0
0 0 0
0 0 0
0 0 0
0 0 0
0 0 0
0 0 0
0 0 0
0 0 0
0 0 0
0 0 0
0 0 0
0 0 0
0 0 0
0 0 0
0 0 0
0 0 0
0 0 0
0 0 0
0 0 0
0 0 0
0 0 0
