P3 
50 50 
255
0 0 0
0 0 0
0 0 0
0 0 0
0 0 0
0 0 0
0 0 0
0 0 0
0 0 0
0 0 0
0 0 0
0 0 0
0 0 0
0 0 0
0 0 0
0 0 0
0 0 0
0 0 0
0 0 0
0 0 0
0 0 0
0 0 0
0 0 0
0 0 0
0 0 0
0 0 0
0 0 0
0 0 0
0 0 0
0 0 0
0 0 0
0 0 0
0 0 0
0 0 0
0 0 0
0 0 0
0 0 0
0 0 0
0 0 0
0 0 0
0 0 0
0 0 0
0 0 0
0 0 0
0 0 0
0 0 0
0 0 0
0 0 0
0 0 0
0 0 0
0 0 0
2 2 2
2 2 2
2 2 2
2 2 2
2 2 2
2 2 2
2 2 2
2 2 2
2 2 2
2 2 2
2 2 2
2 2 2
2 2 2
2 2 2
2 2 2
2 2 2
2 2 2
1 1 1
1 1 1
2 2 2
11 11 11
3 3 3
4 4 4
4 4 4
5 5 5
4 4 4
7 7 7
6 6 6
4 4 4
12 12 12
13 13 13
4 4 4
2 2 2
2 2 2
2 2 2
2 2 2
2 2 2
2 2 2
2 2 2
2 2 2
2 2 2
2 2 2
2 2 2
2 2 2
2 2 2
2 2 2
2 2 2
2 2 2
0 0 0
0 0 0
2 2 2
2 2 2
2 2 2
2 2 2
2 2 2
2 2 2
2 2 2
2 2 2
2 2 2
2 2 2
2 2 2
2 2 2
2 2 2
2 2 2
1 1 1
1 1 1
2 2 2
2 2 2
3 3 3
7 7 7
4 4 4
3 3 3
4 4 4
3 3 3
4 4 4
4 4 4
7 7 7
3 3 3
8 8 8
9 9 9
13 13 13
8 8 8
14 14 14
12 12 12
2 2 2
2 2 2
2 2 2
2 2 2
2 2 2
2 2 2
2 2 2
2 2 2
2 2 2
2 2 2
2 2 2
2 2 2
2 2 2
2 2 2
0 0 0
0 0 0
2 2 2
2 2 2
2 2 2
2 2 2
2 2 2
2 2 2
2 2 2
2 2 2
2 2 2
2 2 2
2 2 2
2 2 2
1 1 1
1 1 1
1 1 1
2 2 2
2 2 2
6 6 6
7 7 7
4 4 4
4 4 4
3 3 3
4 4 4
4 4 4
4 4 4
4 4 4
7 7 7
8 8 8
17 17 17
14 14 14
15 15 15
10 10 10
15 15 15
9 9 9
11 11 11
12 12 12
2 2 2
2 2 2
2 2 2
2 2 2
2 2 2
2 2 2
2 2 2
2 2 2
2 2 2
2 2 2
2 2 2
2 2 2
0 0 0
0 0 0
2 2 2
2 2 2
2 2 2
2 2 2
2 2 2
2 2 2
2 2 2
2 2 2
2 2 2
2 2 2
2 2 2
1 1 1
1 1 1
1 1 1
2 2 2
2 2 2
10 10 10
4 4 4
4 4 4
4 4 4
4 4 4
4 4 4
5 5 5
4 4 4
4 4 4
6 6 6
16 16 16
13 13 13
3 3 3
9 9 9
8 8 8
12 12 12
7 7 7
14 14 14
14 14 14
12 12 12
16 16 16
9 9 9
2 2 2
2 2 2
2 2 2
2 2 2
2 2 2
2 2 2
2 2 2
2 2 2
2 2 2
2 2 2
0 0 0
0 0 0
2 2 2
2 2 2
2 2 2
2 2 2
2 2 2
2 2 2
2 2 2
2 2 2
2 2 2
1 1 1
1 1 1
1 1 1
2 2 2
2 2 2
2 2 2
17 17 17
4 4 4
3 3 3
3 3 3
4 4 4
4 4 4
5 5 5
4 4 4
3 3 3
11 11 11
6 6 6
7 7 7
9 9 9
8 8 8
20 20 20
25 25 25
26 26 26
17 17 17
6 6 6
2 2 2
2 2 2
9 9 9
10 10 10
10 10 10
2 2 2
2 2 2
2 2 2
2 2 2
2 2 2
2 2 2
2 2 2
2 2 2
2 2 2
0 0 0
0 0 0
2 2 2
2 2 2
2 2 2
2 2 2
2 2 2
2 2 2
2 2 2
2 2 2
1 1 1
1 1 1
1 1 1
2 2 2
2 2 2
2 2 2
16 16 16
4 4 4
4 4 4
4 4 4
4 4 4
5 5 5
5 5 5
5 5 5
8 8 8
10 10 10
13 13 13
15 15 15
37 37 37
76 76 76
86 86 86
86 86 86
90 90 90
89 89 89
84 84 84
82 82 82
83 83 83
31 31 31
6 6 6
9 9 9
15 15 15
11 11 11
5 5 5
2 2 2
2 2 2
2 2 2
2 2 2
2 2 2
2 2 2
2 2 2
0 0 0
0 0 0
2 2 2
2 2 2
2 2 2
2 2 2
2 2 2
2 2 2
2 2 2
1 1 1
2 2 2
1 1 1
2 2 2
2 2 2
2 2 2
15 15 15
4 4 4
4 4 4
4 4 4
5 5 5
5 5 5
5 5 5
4 4 4
12 12 12
14 14 14
31 31 31
83 83 83
90 90 90
109 109 109
148 148 148
178 178 178
172 172 172
163 163 163
151 151 151
171 171 171
182 182 182
151 151 151
94 94 94
85 85 85
21 21 21
7 7 7
10 10 10
13 13 13
10 10 10
2 2 2
2 2 2
2 2 2
2 2 2
2 2 2
2 2 2
0 0 0
0 0 0
2 2 2
2 2 2
2 2 2
2 2 2
2 2 2
2 2 2
2 2 2
1 1 1
1 1 1
2 2 2
2 2 2
2 2 2
13 13 13
3 3 3
4 4 4
5 5 5
4 4 4
5 5 5
5 5 5
16 16 16
63 63 63
85 85 85
100 100 100
131 131 131
169 169 169
163 163 163
159 159 159
174 174 174
171 171 171
171 171 171
166 166 166
165 165 165
160 160 160
151 151 151
148 148 148
161 161 161
181 181 181
95 95 95
87 87 87
31 31 31
13 13 13
48 48 48
4 4 4
2 2 2
2 2 2
2 2 2
2 2 2
2 2 2
0 0 0
0 0 0
2 2 2
2 2 2
2 2 2
2 2 2
2 2 2
1 1 1
1 1 1
1 1 1
1 1 1
2 2 2
2 2 2
5 5 5
3 3 3
4 4 4
4 4 4
1 1 1
9 9 9
45 45 45
86 86 86
152 152 152
183 183 183
181 181 181
156 156 156
130 130 130
141 141 141
145 145 145
109 109 109
89 89 89
88 88 88
88 88 88
88 88 88
91 91 91
100 100 100
135 135 135
153 153 153
150 150 150
153 153 153
169 169 169
144 144 144
85 85 85
25 25 25
12 12 12
18 18 18
2 2 2
2 2 2
2 2 2
2 2 2
2 2 2
0 0 0
0 0 0
2 2 2
2 2 2
2 2 2
2 2 2
1 1 1
1 1 1
1 1 1
1 1 1
1 1 1
1 1 1
1 1 1
7 7 7
3 3 3
2 2 2
32 32 32
83 83 83
155 155 155
171 171 171
155 155 155
156 156 156
104 104 104
87 87 87
86 86 86
87 87 87
87 87 87
86 86 86
87 87 87
87 87 87
87 87 87
87 87 87
86 86 86
88 88 88
87 87 87
87 87 87
87 87 87
107 107 107
162 162 162
150 150 150
149 149 149
158 158 158
83 83 83
14 14 14
49 49 49
20 20 20
2 2 2
2 2 2
2 2 2
2 2 2
0 0 0
0 0 0
2 2 2
2 2 2
2 2 2
2 2 2
1 1 1
0 0 0
1 1 1
1 1 1
1 1 1
0 0 0
16 16 16
2 2 2
2 2 2
17 17 17
114 114 114
189 189 189
170 170 170
151 151 151
117 117 117
86 86 86
87 87 87
86 86 86
87 87 87
86 86 86
88 88 88
87 87 87
87 87 87
87 87 87
87 87 87
87 87 87
87 87 87
87 87 87
87 87 87
87 87 87
87 87 87
86 86 86
107 107 107
161 161 161
151 151 151
160 160 160
151 151 151
71 71 71
27 27 27
15 15 15
21 21 21
2 2 2
2 2 2
2 2 2
0 0 0
0 0 0
2 2 2
2 2 2
2 2 2
1 1 1
0 0 0
0 0 0
0 0 0
0 0 0
0 0 0
0 0 0
6 6 6
4 4 4
10 10 10
85 85 85
171 171 171
131 131 131
110 110 110
86 86 86
86 86 86
87 87 87
86 86 86
86 86 86
87 87 87
86 86 86
87 87 87
87 87 87
87 87 87
87 87 87
87 87 87
87 87 87
87 87 87
87 87 87
88 88 88
88 88 88
88 88 88
87 87 87
87 87 87
94 94 94
167 167 167
160 160 160
171 171 171
105 105 105
49 49 49
21 21 21
18 18 18
7 7 7
2 2 2
2 2 2
0 0 0
0 0 0
2 2 2
2 2 2
1 1 1
0 0 0
0 0 0
0 0 0
0 0 0
1 1 1
0 0 0
12 12 12
5 5 5
5 5 5
69 69 69
183 183 183
147 147 147
87 87 87
86 86 86
86 86 86
86 86 86
86 86 86
87 87 87
87 87 87
86 86 86
87 87 87
87 87 87
87 87 87
87 87 87
87 87 87
87 87 87
87 87 87
87 87 87
87 87 87
87 87 87
88 88 88
88 88 88
87 87 87
87 87 87
88 88 88
92 92 92
168 168 168
153 153 153
188 188 188
85 85 85
45 45 45
15 15 15
86 86 86
2 2 2
2 2 2
0 0 0
0 0 0
2 2 2
2 2 2
1 1 1
1 1 1
1 1 1
0 0 0
1 1 1
1 1 1
1 1 1
18 18 18
5 5 5
23 23 23
125 125 125
152 152 152
86 86 86
86 86 86
87 87 87
87 87 87
87 87 87
87 87 87
87 87 87
86 86 86
87 87 87
87 87 87
87 87 87
87 87 87
87 87 87
87 87 87
87 87 87
87 87 87
87 87 87
87 87 87
87 87 87
88 88 88
88 88 88
87 87 87
88 88 88
88 88 88
87 87 87
117 117 117
164 164 164
181 181 181
87 87 87
31 31 31
14 14 14
83 83 83
5 5 5
2 2 2
0 0 0
0 0 0
2 2 2
1 1 1
1 1 1
1 1 1
0 0 0
1 1 1
1 1 1
1 1 1
1 1 1
10 10 10
5 5 5
81 81 81
182 182 182
88 88 88
85 85 85
86 86 86
87 87 87
86 86 86
87 87 87
86 86 86
87 87 87
87 87 87
87 87 87
87 87 87
87 87 87
87 87 87
87 87 87
87 87 87
87 87 87
87 87 87
87 87 87
87 87 87
87 87 87
87 87 87
87 87 87
88 88 88
87 87 87
87 87 87
87 87 87
87 87 87
167 167 167
165 165 165
97 97 97
41 41 41
12 12 12
67 67 67
25 25 25
2 2 2
0 0 0
0 0 0
2 2 2
1 1 1
0 0 0
1 1 1
1 1 1
1 1 1
1 1 1
2 2 2
2 2 2
6 6 6
37 37 37
111 111 111
149 149 149
85 85 85
87 87 87
87 87 87
87 87 87
87 87 87
87 87 87
87 87 87
87 87 87
87 87 87
87 87 87
87 87 87
87 87 87
86 86 86
87 87 87
87 87 87
87 87 87
87 87 87
87 87 87
87 87 87
87 87 87
87 87 87
87 87 87
88 88 88
88 88 88
88 88 88
88 88 88
87 87 87
143 143 143
157 157 157
117 117 117
45 45 45
13 13 13
47 47 47
16 16 16
3 3 3
0 0 0
0 0 0
2 2 2
1 1 1
1 1 1
1 1 1
1 1 1
1 1 1
2 2 2
1 1 1
5 5 5
5 5 5
71 71 71
163 163 163
142 142 142
85 85 85
86 86 86
87 87 87
87 87 87
86 86 86
87 87 87
87 87 87
87 87 87
87 87 87
86 86 86
87 87 87
86 86 86
87 87 87
87 87 87
87 87 87
87 87 87
87 87 87
87 87 87
87 87 87
87 87 87
87 87 87
87 87 87
88 88 88
88 88 88
87 87 87
88 88 88
87 87 87
126 126 126
166 166 166
129 129 129
58 58 58
19 19 19
32 32 32
15 15 15
20 20 20
0 0 0
0 0 0
2 2 2
1 1 1
2 2 2
2 2 2
1 1 1
1 1 1
2 2 2
2 2 2
7 7 7
4 4 4
77 77 77
166 166 166
141 141 141
85 85 85
86 86 86
87 87 87
87 87 87
86 86 86
87 87 87
86 86 86
87 87 87
87 87 87
87 87 87
86 86 86
86 86 86
87 87 87
87 87 87
87 87 87
87 87 87
87 87 87
87 87 87
87 87 87
87 87 87
87 87 87
87 87 87
87 87 87
88 88 88
88 88 88
88 88 88
87 87 87
133 133 133
159 159 159
143 143 143
69 69 69
32 32 32
23 23 23
14 14 14
20 20 20
0 0 0
0 0 0
2 2 2
2 2 2
1 1 1
2 2 2
2 2 2
1 1 1
1 1 1
1 1 1
5 5 5
6 6 6
78 78 78
157 157 157
138 138 138
85 85 85
86 86 86
86 86 86
87 87 87
86 86 86
87 87 87
87 87 87
87 87 87
87 87 87
87 87 87
86 86 86
87 87 87
87 87 87
87 87 87
87 87 87
87 87 87
87 87 87
87 87 87
87 87 87
87 87 87
87 87 87
87 87 87
87 87 87
88 88 88
87 87 87
88 88 88
89 89 89
102 102 102
162 162 162
134 134 134
78 78 78
46 46 46
19 19 19
14 14 14
16 16 16
0 0 0
0 0 0
2 2 2
2 2 2
2 2 2
2 2 2
2 2 2
1 1 1
1 1 1
1 1 1
1 1 1
9 9 9
84 84 84
164 164 164
158 158 158
86 86 86
85 85 85
86 86 86
87 87 87
86 86 86
86 86 86
86 86 86
87 87 87
86 86 86
86 86 86
87 87 87
87 87 87
87 87 87
87 87 87
87 87 87
87 87 87
87 87 87
86 86 86
87 87 87
87 87 87
87 87 87
87 87 87
87 87 87
88 88 88
87 87 87
88 88 88
88 88 88
100 100 100
163 163 163
159 159 159
75 75 75
51 51 51
17 17 17
16 16 16
15 15 15
0 0 0
0 0 0
2 2 2
2 2 2
1 1 1
2 2 2
2 2 2
2 2 2
2 2 2
1 1 1
1 1 1
15 15 15
83 83 83
79 79 79
127 127 127
86 86 86
86 86 86
86 86 86
87 87 87
87 87 87
87 87 87
86 86 86
87 87 87
87 87 87
87 87 87
87 87 87
87 87 87
87 87 87
87 87 87
87 87 87
87 87 87
87 87 87
87 87 87
87 87 87
87 87 87
87 87 87
87 87 87
87 87 87
88 88 88
87 87 87
88 88 88
88 88 88
91 91 91
172 172 172
170 170 170
67 67 67
43 43 43
16 16 16
18 18 18
15 15 15
0 0 0
0 0 0
1 1 1
1 1 1
1 1 1
1 1 1
2 2 2
2 2 2
2 2 2
2 2 2
1 1 1
8 8 8
82 82 82
166 166 166
138 138 138
86 86 86
87 87 87
87 87 87
87 87 87
87 87 87
87 87 87
87 87 87
86 86 86
87 87 87
87 87 87
87 87 87
87 87 87
87 87 87
87 87 87
87 87 87
87 87 87
87 87 87
87 87 87
87 87 87
88 88 88
87 87 87
87 87 87
88 88 88
88 88 88
88 88 88
88 88 88
88 88 88
90 90 90
170 170 170
153 153 153
54 54 54
36 36 36
15 15 15
19 19 19
15 15 15
0 0 0
0 0 0
1 1 1
1 1 1
1 1 1
2 2 2
1 1 1
2 2 2
2 2 2
2 2 2
2 2 2
11 11 11
75 75 75
185 185 185
104 104 104
87 87 87
87 87 87
87 87 87
87 87 87
87 87 87
87 87 87
87 87 87
87 87 87
87 87 87
87 87 87
87 87 87
87 87 87
87 87 87
87 87 87
87 87 87
87 87 87
87 87 87
87 87 87
87 87 87
87 87 87
87 87 87
88 88 88
87 87 87
88 88 88
88 88 88
88 88 88
87 87 87
104 104 104
166 166 166
141 141 141
51 51 51
41 41 41
15 15 15
21 21 21
14 14 14
0 0 0
0 0 0
1 1 1
1 1 1
1 1 1
1 1 1
1 1 1
2 2 2
1 1 1
2 2 2
2 2 2
17 17 17
72 72 72
167 167 167
124 124 124
87 87 87
87 87 87
87 87 87
88 88 88
87 87 87
87 87 87
87 87 87
87 87 87
87 87 87
87 87 87
87 87 87
87 87 87
87 87 87
87 87 87
87 87 87
87 87 87
87 87 87
87 87 87
87 87 87
87 87 87
87 87 87
88 88 88
87 87 87
88 88 88
87 87 87
88 88 88
86 86 86
152 152 152
161 161 161
118 118 118
51 51 51
45 45 45
17 17 17
19 19 19
13 13 13
0 0 0
0 0 0
1 1 1
1 1 1
2 2 2
0 0 0
1 1 1
1 1 1
2 2 2
1 1 1
2 2 2
18 18 18
5 5 5
87 87 87
173 173 173
88 88 88
87 87 87
88 88 88
87 87 87
87 87 87
87 87 87
87 87 87
87 87 87
87 87 87
87 87 87
88 88 88
87 87 87
87 87 87
86 86 86
87 87 87
87 87 87
87 87 87
87 87 87
87 87 87
87 87 87
88 88 88
87 87 87
87 87 87
87 87 87
88 88 88
87 87 87
95 95 95
166 166 166
175 175 175
86 86 86
39 39 39
37 37 37
17 17 17
20 20 20
13 13 13
0 0 0
0 0 0
1 1 1
1 1 1
1 1 1
1 1 1
0 0 0
1 1 1
1 1 1
1 1 1
1 1 1
10 10 10
4 4 4
45 45 45
174 174 174
130 130 130
86 86 86
87 87 87
87 87 87
87 87 87
87 87 87
87 87 87
87 87 87
87 87 87
87 87 87
87 87 87
87 87 87
88 88 88
87 87 87
87 87 87
88 88 88
88 88 88
87 87 87
87 87 87
88 88 88
87 87 87
88 88 88
88 88 88
87 87 87
88 88 88
86 86 86
161 161 161
156 156 156
180 180 180
73 73 73
37 37 37
40 40 40
15 15 15
19 19 19
14 14 14
0 0 0
0 0 0
1 1 1
1 1 1
1 1 1
1 1 1
0 0 0
0 0 0
0 0 0
0 0 0
1 1 1
2 2 2
10 10 10
4 4 4
87 87 87
176 176 176
98 98 98
87 87 87
87 87 87
88 88 88
87 87 87
87 87 87
87 87 87
87 87 87
87 87 87
87 87 87
88 88 88
87 87 87
87 87 87
87 87 87
86 86 86
87 87 87
87 87 87
87 87 87
88 88 88
88 88 88
87 87 87
88 88 88
87 87 87
87 87 87
120 120 120
166 166 166
170 170 170
101 101 101
44 44 44
41 41 41
51 51 51
15 15 15
18 18 18
14 14 14
0 0 0
0 0 0
1 1 1
1 1 1
1 1 1
1 1 1
0 0 0
1 1 1
0 0 0
0 0 0
3 3 3
1 1 1
29 29 29
4 4 4
29 29 29
146 146 146
180 180 180
110 110 110
87 87 87
87 87 87
87 87 87
86 86 86
87 87 87
86 86 86
87 87 87
87 87 87
88 88 88
87 87 87
87 87 87
87 87 87
87 87 87
87 87 87
87 87 87
88 88 88
88 88 88
87 87 87
87 87 87
87 87 87
87 87 87
100 100 100
166 166 166
153 153 153
168 168 168
82 82 82
37 37 37
30 30 30
45 45 45
15 15 15
16 16 16
13 13 13
0 0 0
0 0 0
1 1 1
1 1 1
1 1 1
0 0 0
0 0 0
1 1 1
1 1 1
2 2 2
2 2 2
2 2 2
35 35 35
8 8 8
3 3 3
45 45 45
203 203 203
170 170 170
147 147 147
104 104 104
88 88 88
86 86 86
87 87 87
87 87 87
87 87 87
87 87 87
88 88 88
88 88 88
87 87 87
87 87 87
87 87 87
87 87 87
88 88 88
87 87 87
88 88 88
87 87 87
88 88 88
88 88 88
98 98 98
170 170 170
158 158 158
189 189 189
84 84 84
37 37 37
18 18 18
25 25 25
22 22 22
16 16 16
14 14 14
14 14 14
0 0 0
0 0 0
1 1 1
1 1 1
1 1 1
1 1 1
1 1 1
1 1 1
2 2 2
2 2 2
3 3 3
3 3 3
6 6 6
26 26 26
7 7 7
2 2 2
36 36 36
114 114 114
196 196 196
166 166 166
157 157 157
147 147 147
96 96 96
87 87 87
88 88 88
87 87 87
88 88 88
87 87 87
87 87 87
87 87 87
87 87 87
87 87 87
87 87 87
86 86 86
87 87 87
88 88 88
87 87 87
104 104 104
164 164 164
160 160 160
187 187 187
84 84 84
32 32 32
22 22 22
13 13 13
19 19 19
11 11 11
21 21 21
11 11 11
14 14 14
0 0 0
0 0 0
1 1 1
1 1 1
1 1 1
1 1 1
1 1 1
2 2 2
3 3 3
3 3 3
3 3 3
3 3 3
1 1 1
30 30 30
9 9 9
4 4 4
1 1 1
0 0 0
39 39 39
93 93 93
158 158 158
174 174 174
160 160 160
144 144 144
108 108 108
94 94 94
125 125 125
119 119 119
98 98 98
90 90 90
88 88 88
87 87 87
88 88 88
88 88 88
88 88 88
91 91 91
127 127 127
168 168 168
167 167 167
176 176 176
85 85 85
21 21 21
13 13 13
24 24 24
15 15 15
29 29 29
10 10 10
29 29 29
12 12 12
19 19 19
0 0 0
0 0 0
2 2 2
2 2 2
1 1 1
1 1 1
1 1 1
1 1 1
1 1 1
1 1 1
1 1 1
1 1 1
2 2 2
0 0 0
34 34 34
5 5 5
4 4 4
2 2 2
1 1 1
0 0 0
13 13 13
74 74 74
112 112 112
158 158 158
176 176 176
165 165 165
163 163 163
171 171 171
168 168 168
174 174 174
159 159 159
157 157 157
166 166 166
162 162 162
167 167 167
170 170 170
161 161 161
181 181 181
113 113 113
79 79 79
25 25 25
8 8 8
13 13 13
26 26 26
17 17 17
34 34 34
8 8 8
43 43 43
13 13 13
27 27 27
0 0 0
0 0 0
2 2 2
1 1 1
1 1 1
1 1 1
2 2 2
2 2 2
1 1 1
2 2 2
1 1 1
2 2 2
2 2 2
2 2 2
1 1 1
29 29 29
5 5 5
5 5 5
4 4 4
3 3 3
3 3 3
2 2 2
3 3 3
16 16 16
37 37 37
69 69 69
93 93 93
124 124 124
158 158 158
176 176 176
190 190 190
191 191 191
182 182 182
188 188 188
194 194 194
169 169 169
98 98 98
70 70 70
23 23 23
13 13 13
32 32 32
26 26 26
17 17 17
28 28 28
21 21 21
44 44 44
8 8 8
61 61 61
12 12 12
2 2 2
0 0 0
0 0 0
2 2 2
1 1 1
1 1 1
1 1 1
1 1 1
2 2 2
2 2 2
1 1 1
1 1 1
2 2 2
1 1 1
2 2 2
2 2 2
4 4 4
15 15 15
5 5 5
5 5 5
4 4 4
4 4 4
5 5 5
4 4 4
4 4 4
3 3 3
3 3 3
9 9 9
6 6 6
10 10 10
26 26 26
45 45 45
66 66 66
74 74 74
71 71 71
49 49 49
21 21 21
3 3 3
10 10 10
18 18 18
8 8 8
16 16 16
23 23 23
29 29 29
26 26 26
29 29 29
25 25 25
9 9 9
77 77 77
21 21 21
2 2 2
0 0 0
0 0 0
2 2 2
2 2 2
2 2 2
1 1 1
2 2 2
1 1 1
2 2 2
2 2 2
2 2 2
1 1 1
2 2 2
1 1 1
3 3 3
2 2 2
4 4 4
19 19 19
5 5 5
5 5 5
5 5 5
4 4 4
5 5 5
5 5 5
4 4 4
3 3 3
4 4 4
5 5 5
4 4 4
4 4 4
6 6 6
4 4 4
2 2 2
3 3 3
3 3 3
3 3 3
6 6 6
14 14 14
14 14 14
29 29 29
28 28 28
17 17 17
18 18 18
14 14 14
24 24 24
11 11 11
10 10 10
74 74 74
8 8 8
2 2 2
0 0 0
0 0 0
2 2 2
2 2 2
1 1 1
1 1 1
1 1 1
1 1 1
2 2 2
1 1 1
0 0 0
1 1 1
2 2 2
2 2 2
2 2 2
2 2 2
3 3 3
3 3 3
16 16 16
5 5 5
4 4 4
4 4 4
5 5 5
5 5 5
5 5 5
6 6 6
5 5 5
5 5 5
5 5 5
4 4 4
4 4 4
3 3 3
4 4 4
4 4 4
4 4 4
4 4 4
5 5 5
5 5 5
10 10 10
19 19 19
23 23 23
30 30 30
21 21 21
6 6 6
31 31 31
7 7 7
14 14 14
60 60 60
2 2 2
2 2 2
0 0 0
0 0 0
2 2 2
2 2 2
2 2 2
2 2 2
2 2 2
2 2 2
1 1 1
1 1 1
1 1 1
1 1 1
1 1 1
1 1 1
2 2 2
2 2 2
2 2 2
2 2 2
3 3 3
15 15 15
4 4 4
4 4 4
5 5 5
4 4 4
5 5 5
5 5 5
5 5 5
4 4 4
5 5 5
4 4 4
3 3 3
3 3 3
5 5 5
4 4 4
5 5 5
5 5 5
7 7 7
7 7 7
6 6 6
20 20 20
35 35 35
28 28 28
19 19 19
12 12 12
40 40 40
10 10 10
18 18 18
10 10 10
2 2 2
2 2 2
0 0 0
0 0 0
2 2 2
2 2 2
2 2 2
1 1 1
1 1 1
1 1 1
1 1 1
1 1 1
1 1 1
2 2 2
1 1 1
1 1 1
2 2 2
2 2 2
2 2 2
3 3 3
3 3 3
3 3 3
16 16 16
4 4 4
4 4 4
4 4 4
5 5 5
5 5 5
5 5 5
4 4 4
4 4 4
5 5 5
4 4 4
4 4 4
5 5 5
5 5 5
5 5 5
5 5 5
7 7 7
8 8 8
6 6 6
15 15 15
21 21 21
19 19 19
15 15 15
17 17 17
53 53 53
12 12 12
37 37 37
2 2 2
2 2 2
2 2 2
0 0 0
0 0 0
2 2 2
2 2 2
2 2 2
2 2 2
1 1 1
1 1 1
1 1 1
1 1 1
1 1 1
1 1 1
2 2 2
1 1 1
1 1 1
1 1 1
2 2 2
2 2 2
2 2 2
3 3 3
2 2 2
13 13 13
4 4 4
4 4 4
4 4 4
4 4 4
4 4 4
4 4 4
5 5 5
4 4 4
5 5 5
5 5 5
5 5 5
5 5 5
5 5 5
5 5 5
6 6 6
6 6 6
6 6 6
7 7 7
17 17 17
26 26 26
21 21 21
25 25 25
41 41 41
16 16 16
2 2 2
2 2 2
2 2 2
2 2 2
0 0 0
0 0 0
2 2 2
2 2 2
2 2 2
2 2 2
2 2 2
1 1 1
2 2 2
1 1 1
1 1 1
2 2 2
1 1 1
1 1 1
2 2 2
1 1 1
2 2 2
2 2 2
2 2 2
2 2 2
2 2 2
2 2 2
15 15 15
4 4 4
4 4 4
4 4 4
4 4 4
4 4 4
4 4 4
5 5 5
4 4 4
4 4 4
4 4 4
5 5 5
4 4 4
5 5 5
5 5 5
6 6 6
6 6 6
9 9 9
18 18 18
22 22 22
26 26 26
25 25 25
18 18 18
5 5 5
2 2 2
2 2 2
2 2 2
2 2 2
0 0 0
0 0 0
2 2 2
2 2 2
2 2 2
2 2 2
2 2 2
2 2 2
1 1 1
1 1 1
1 1 1
2 2 2
1 1 1
2 2 2
2 2 2
2 2 2
1 1 1
2 2 2
2 2 2
2 2 2
2 2 2
2 2 2
2 2 2
14 14 14
3 3 3
3 3 3
3 3 3
3 3 3
4 4 4
4 4 4
4 4 4
8 8 8
3 3 3
4 4 4
7 7 7
5 5 5
5 5 5
5 5 5
6 6 6
12 12 12
24 24 24
29 29 29
32 32 32
55 55 55
11 11 11
2 2 2
2 2 2
2 2 2
2 2 2
2 2 2
0 0 0
0 0 0
2 2 2
2 2 2
2 2 2
2 2 2
2 2 2
2 2 2
2 2 2
1 1 1
1 1 1
2 2 2
1 1 1
1 1 1
1 1 1
2 2 2
1 1 1
2 2 2
2 2 2
2 2 2
2 2 2
2 2 2
2 2 2
2 2 2
12 12 12
3 3 3
2 2 2
2 2 2
9 9 9
5 5 5
8 8 8
10 10 10
12 12 12
7 7 7
5 5 5
4 4 4
13 13 13
10 10 10
14 14 14
29 29 29
30 30 30
27 27 27
28 28 28
39 39 39
2 2 2
2 2 2
2 2 2
2 2 2
2 2 2
2 2 2
0 0 0
0 0 0
2 2 2
2 2 2
2 2 2
2 2 2
2 2 2
2 2 2
2 2 2
2 2 2
1 1 1
1 1 1
1 1 1
1 1 1
1 1 1
1 1 1
2 2 2
2 2 2
2 2 2
2 2 2
2 2 2
1 1 1
2 2 2
2 2 2
2 2 2
9 9 9
3 3 3
3 3 3
4 4 4
10 10 10
7 7 7
9 9 9
15 15 15
13 13 13
13 13 13
28 28 28
28 28 28
21 21 21
25 25 25
29 29 29
17 17 17
31 31 31
15 15 15
2 2 2
2 2 2
2 2 2
2 2 2
2 2 2
2 2 2
2 2 2
0 0 0
0 0 0
2 2 2
2 2 2
2 2 2
2 2 2
2 2 2
2 2 2
2 2 2
2 2 2
2 2 2
2 2 2
1 1 1
1 1 1
1 1 1
2 2 2
1 1 1
1 1 1
1 1 1
2 2 2
2 2 2
2 2 2
2 2 2
2 2 2
2 2 2
2 2 2
11 11 11
4 4 4
4 4 4
9 9 9
3 3 3
13 13 13
15 15 15
15 15 15
24 24 24
31 31 31
35 35 35
30 30 30
20 20 20
16 16 16
25 25 25
5 5 5
2 2 2
2 2 2
2 2 2
2 2 2
2 2 2
2 2 2
2 2 2
2 2 2
0 0 0
0 0 0
2 2 2
2 2 2
2 2 2
2 2 2
2 2 2
2 2 2
2 2 2
2 2 2
2 2 2
2 2 2
1 1 1
1 1 1
1 1 1
1 1 1
1 1 1
1 1 1
1 1 1
1 1 1
2 2 2
2 2 2
2 2 2
1 1 1
2 2 2
2 2 2
2 2 2
4 4 4
13 13 13
5 5 5
11 11 11
8 8 8
4 4 4
10 10 10
15 15 15
17 17 17
21 21 21
16 16 16
13 13 13
35 35 35
2 2 2
2 2 2
2 2 2
2 2 2
2 2 2
2 2 2
2 2 2
2 2 2
2 2 2
2 2 2
0 0 0
0 0 0
2 2 2
2 2 2
2 2 2
2 2 2
2 2 2
2 2 2
2 2 2
2 2 2
2 2 2
2 2 2
2 2 2
2 2 2
1 1 1
1 1 1
1 1 1
1 1 1
1 1 1
1 1 1
1 1 1
1 1 1
1 1 1
2 2 2
2 2 2
2 2 2
2 2 2
2 2 2
3 3 3
11 11 11
6 6 6
11 11 11
13 13 13
24 24 24
23 23 23
22 22 22
14 14 14
15 15 15
4 4 4
2 2 2
2 2 2
2 2 2
2 2 2
2 2 2
2 2 2
2 2 2
2 2 2
2 2 2
2 2 2
2 2 2
0 0 0
0 0 0
2 2 2
2 2 2
2 2 2
2 2 2
2 2 2
2 2 2
2 2 2
2 2 2
2 2 2
2 2 2
2 2 2
2 2 2
2 2 2
2 2 2
1 1 1
1 1 1
1 1 1
1 1 1
1 1 1
2 2 2
1 1 1
1 1 1
2 2 2
2 2 2
2 2 2
2 2 2
2 2 2
4 4 4
15 15 15
4 4 4
15 15 15
22 22 22
23 23 23
38 38 38
4 4 4
2 2 2
2 2 2
2 2 2
2 2 2
2 2 2
2 2 2
2 2 2
2 2 2
2 2 2
2 2 2
2 2 2
2 2 2
2 2 2
0 0 0
0 0 0
2 2 2
2 2 2
2 2 2
2 2 2
2 2 2
2 2 2
2 2 2
2 2 2
2 2 2
2 2 2
2 2 2
2 2 2
2 2 2
2 2 2
2 2 2
2 2 2
1 1 1
1 1 1
1 1 1
2 2 2
2 2 2
2 2 2
2 2 2
3 3 3
3 3 3
3 3 3
3 3 3
4 4 4
5 5 5
16 16 16
16 16 16
17 17 17
2 2 2
2 2 2
2 2 2
2 2 2
2 2 2
2 2 2
2 2 2
2 2 2
2 2 2
2 2 2
2 2 2
2 2 2
2 2 2
2 2 2
2 2 2
2 2 2
0 0 0
0 0 0
0 0 0
0 0 0
0 0 0
0 0 0
0 0 0
0 0 0
0 0 0
0 0 0
0 0 0
0 0 0
0 0 0
0 0 0
0 0 0
0 0 0
0 0 0
0 0 0
0 0 0
0 0 0
0 0 0
0 0 0
0 0 0
0 0 0
0 0 0
0 0 0
0 0 0
0 0 0
0 0 0
0 0 0
0 0 0
0 0 0
0 0 0
0 0 0
0 0 0
0 0 0
0 0 0
0 0 0
0 0 0
0 0 0
0 0 0
0 0 0
0 0 0
0 0 0
0 0 0
0 0 0
0 0 0
0 0 0
0 0 0
0 0 0
0 0 0
