P3 
50 50 
255
0 0 0
0 0 0
0 0 0
0 0 0
0 0 0
0 0 0
0 0 0
0 0 0
0 0 0
0 0 0
0 0 0
0 0 0
0 0 0
0 0 0
0 0 0
0 0 0
0 0 0
0 0 0
0 0 0
0 0 0
0 0 0
0 0 0
0 0 0
0 0 0
0 0 0
0 0 0
0 0 0
0 0 0
0 0 0
0 0 0
0 0 0
0 0 0
0 0 0
0 0 0
0 0 0
0 0 0
0 0 0
0 0 0
0 0 0
0 0 0
0 0 0
0 0 0
0 0 0
0 0 0
0 0 0
0 0 0
0 0 0
0 0 0
0 0 0
0 0 0
0 0 0
2 2 2
2 2 2
2 2 2
2 2 2
2 2 2
2 2 2
2 2 2
2 2 2
2 2 2
2 2 2
2 2 2
2 2 2
2 2 2
2 2 2
2 2 2
2 2 2
2 2 2
1 1 1
1 1 1
1 1 1
1 1 1
2 2 2
2 2 2
2 2 2
2 2 2
3 3 3
3 3 3
3 3 3
4 4 4
9 9 9
9 9 9
3 3 3
2 2 2
2 2 2
2 2 2
2 2 2
2 2 2
2 2 2
2 2 2
2 2 2
2 2 2
2 2 2
2 2 2
2 2 2
2 2 2
2 2 2
2 2 2
2 2 2
0 0 0
0 0 0
2 2 2
2 2 2
2 2 2
2 2 2
2 2 2
2 2 2
2 2 2
2 2 2
2 2 2
2 2 2
2 2 2
2 2 2
2 2 2
2 2 2
1 1 1
1 1 1
1 1 1
1 1 1
2 2 2
1 1 1
2 2 2
2 2 2
2 2 2
2 2 2
2 2 2
2 2 2
2 2 2
3 3 3
4 4 4
7 7 7
4 4 4
5 5 5
6 6 6
9 9 9
2 2 2
2 2 2
2 2 2
2 2 2
2 2 2
2 2 2
2 2 2
2 2 2
2 2 2
2 2 2
2 2 2
2 2 2
2 2 2
2 2 2
0 0 0
0 0 0
2 2 2
2 2 2
2 2 2
2 2 2
2 2 2
2 2 2
2 2 2
2 2 2
2 2 2
2 2 2
2 2 2
2 2 2
1 1 1
1 1 1
1 1 1
1 1 1
2 2 2
1 1 1
1 1 1
2 2 2
2 2 2
2 2 2
2 2 2
2 2 2
2 2 2
2 2 2
2 2 2
2 2 2
7 7 7
3 3 3
8 8 8
4 4 4
8 8 8
5 5 5
8 8 8
11 11 11
2 2 2
2 2 2
2 2 2
2 2 2
2 2 2
2 2 2
2 2 2
2 2 2
2 2 2
2 2 2
2 2 2
2 2 2
0 0 0
0 0 0
2 2 2
2 2 2
2 2 2
2 2 2
2 2 2
2 2 2
2 2 2
2 2 2
2 2 2
2 2 2
2 2 2
1 1 1
1 1 1
1 1 1
1 1 1
1 1 1
2 2 2
2 2 2
2 2 2
1 1 1
1 1 1
1 1 1
2 2 2
2 2 2
2 2 2
2 2 2
2 2 2
2 2 2
7 7 7
6 6 6
5 5 5
5 5 5
5 5 5
5 5 5
9 9 9
6 6 6
11 11 11
7 7 7
2 2 2
2 2 2
2 2 2
2 2 2
2 2 2
2 2 2
2 2 2
2 2 2
2 2 2
2 2 2
0 0 0
0 0 0
2 2 2
2 2 2
2 2 2
2 2 2
2 2 2
2 2 2
2 2 2
2 2 2
2 2 2
1 1 1
1 1 1
1 1 1
1 1 1
1 1 1
1 1 1
1 1 1
1 1 1
1 1 1
1 1 1
1 1 1
2 2 2
2 2 2
2 2 2
2 2 2
6 6 6
5 5 5
2 2 2
4 4 4
9 9 9
10 10 10
6 6 6
5 5 5
3 3 3
4 4 4
4 4 4
9 9 9
5 5 5
7 7 7
11 11 11
2 2 2
2 2 2
2 2 2
2 2 2
2 2 2
2 2 2
2 2 2
2 2 2
2 2 2
0 0 0
0 0 0
2 2 2
2 2 2
2 2 2
2 2 2
2 2 2
2 2 2
2 2 2
2 2 2
1 1 1
1 1 1
1 1 1
1 1 1
1 1 1
1 1 1
1 1 1
1 1 1
2 2 2
2 2 2
2 2 2
1 1 1
2 2 2
2 2 2
2 2 2
2 2 2
6 6 6
2 2 2
2 2 2
10 10 10
10 10 10
7 7 7
6 6 6
4 4 4
4 4 4
8 8 8
4 4 4
8 8 8
5 5 5
5 5 5
7 7 7
20 20 20
4 4 4
2 2 2
2 2 2
2 2 2
2 2 2
2 2 2
2 2 2
2 2 2
0 0 0
0 0 0
2 2 2
2 2 2
2 2 2
2 2 2
2 2 2
2 2 2
2 2 2
1 1 1
1 1 1
1 1 1
1 1 1
1 1 1
1 1 1
1 1 1
1 1 1
2 2 2
2 2 2
3 3 3
1 1 1
2 2 2
2 2 2
2 2 2
1 1 1
6 6 6
2 2 2
2 2 2
2 2 2
12 12 12
8 8 8
2 2 2
5 5 5
7 7 7
3 3 3
8 8 8
8 8 8
4 4 4
6 6 6
4 4 4
6 6 6
28 28 28
13 13 13
6 6 6
2 2 2
2 2 2
2 2 2
2 2 2
2 2 2
2 2 2
0 0 0
0 0 0
2 2 2
2 2 2
2 2 2
2 2 2
2 2 2
2 2 2
1 1 1
1 1 1
1 1 1
1 1 1
1 1 1
1 1 1
1 1 1
2 2 2
1 1 1
2 2 2
3 3 3
2 2 2
2 2 2
2 2 2
1 1 1
2 2 2
3 3 3
7 7 7
2 2 2
2 2 2
3 3 3
6 6 6
7 7 7
12 12 12
4 4 4
5 5 5
5 5 5
3 3 3
7 7 7
11 11 11
7 7 7
8 8 8
5 5 5
36 36 36
10 10 10
13 13 13
4 4 4
2 2 2
2 2 2
2 2 2
2 2 2
2 2 2
0 0 0
0 0 0
2 2 2
2 2 2
2 2 2
2 2 2
2 2 2
2 2 2
1 1 1
1 1 1
1 1 1
1 1 1
1 1 1
1 1 1
1 1 1
1 1 1
2 2 2
3 3 3
3 3 3
2 2 2
2 2 2
2 2 2
2 2 2
2 2 2
6 6 6
8 8 8
5 5 5
8 8 8
7 7 7
7 7 7
4 4 4
7 7 7
4 4 4
7 7 7
3 3 3
3 3 3
7 7 7
5 5 5
4 4 4
4 4 4
10 10 10
38 38 38
7 7 7
11 11 11
15 15 15
2 2 2
2 2 2
2 2 2
2 2 2
2 2 2
0 0 0
0 0 0
2 2 2
2 2 2
2 2 2
2 2 2
2 2 2
1 1 1
1 1 1
1 1 1
1 1 1
1 1 1
1 1 1
1 1 1
2 2 2
2 2 2
3 3 3
3 3 3
2 2 2
2 2 2
2 2 2
2 2 2
2 2 2
6 6 6
2 2 2
9 9 9
2 2 2
2 2 2
3 3 3
2 2 2
8 8 8
5 5 5
8 8 8
7 7 7
4 4 4
4 4 4
7 7 7
3 3 3
6 6 6
6 6 6
4 4 4
26 26 26
5 5 5
8 8 8
11 11 11
17 17 17
2 2 2
2 2 2
2 2 2
2 2 2
0 0 0
0 0 0
2 2 2
2 2 2
2 2 2
2 2 2
1 1 1
1 1 1
2 2 2
1 1 1
1 1 1
1 1 1
1 1 1
1 1 1
2 2 2
3 3 3
3 3 3
3 3 3
2 2 2
2 2 2
2 2 2
5 5 5
2 2 2
2 2 2
3 3 3
4 4 4
6 6 6
6 6 6
6 6 6
4 4 4
5 5 5
9 9 9
7 7 7
7 7 7
3 3 3
6 6 6
6 6 6
3 3 3
11 11 11
10 10 10
4 4 4
9 9 9
10 10 10
7 7 7
9 9 9
13 13 13
19 19 19
2 2 2
2 2 2
2 2 2
0 0 0
0 0 0
2 2 2
2 2 2
2 2 2
1 1 1
2 2 2
1 1 1
1 1 1
1 1 1
1 1 1
1 1 1
2 2 2
2 2 2
3 3 3
3 3 3
3 3 3
4 4 4
2 2 2
2 2 2
3 3 3
6 6 6
5 5 5
6 6 6
13 13 13
24 24 24
7 7 7
6 6 6
3 3 3
3 3 3
3 3 3
4 4 4
8 8 8
4 4 4
5 5 5
3 3 3
4 4 4
3 3 3
5 5 5
6 6 6
3 3 3
4 4 4
40 40 40
5 5 5
8 8 8
11 11 11
14 14 14
6 6 6
2 2 2
2 2 2
0 0 0
0 0 0
2 2 2
2 2 2
2 2 2
1 1 1
1 1 1
2 2 2
1 1 1
1 1 1
1 1 1
2 2 2
1 1 1
3 3 3
4 4 4
3 3 3
3 3 3
2 2 2
2 2 2
6 6 6
6 6 6
2 2 2
3 3 3
4 4 4
8 8 8
12 12 12
7 7 7
5 5 5
7 7 7
12 12 12
12 12 12
14 14 14
6 6 6
4 4 4
9 9 9
7 7 7
10 10 10
8 8 8
11 11 11
12 12 12
7 7 7
4 4 4
28 28 28
6 6 6
7 7 7
10 10 10
11 11 11
68 68 68
2 2 2
2 2 2
0 0 0
0 0 0
2 2 2
2 2 2
2 2 2
1 1 1
1 1 1
1 1 1
1 1 1
2 2 2
2 2 2
1 1 1
2 2 2
4 4 4
3 3 3
3 3 3
3 3 3
2 2 2
2 2 2
6 6 6
2 2 2
7 7 7
15 15 15
14 14 14
10 10 10
9 9 9
5 5 5
6 6 6
8 8 8
10 10 10
8 8 8
18 18 18
13 13 13
6 6 6
13 13 13
21 21 21
16 16 16
7 7 7
6 6 6
5 5 5
8 8 8
11 11 11
15 15 15
13 13 13
7 7 7
9 9 9
9 9 9
78 78 78
5 5 5
2 2 2
0 0 0
0 0 0
2 2 2
2 2 2
1 1 1
1 1 1
2 2 2
1 1 1
1 1 1
2 2 2
1 1 1
2 2 2
4 4 4
3 3 3
3 3 3
3 3 3
2 2 2
2 2 2
2 2 2
5 5 5
12 12 12
6 6 6
7 7 7
7 7 7
6 6 6
5 5 5
4 4 4
5 5 5
5 5 5
6 6 6
5 5 5
9 9 9
10 10 10
7 7 7
6 6 6
9 9 9
20 20 20
18 18 18
9 9 9
10 10 10
9 9 9
17 17 17
13 13 13
40 40 40
6 6 6
9 9 9
8 8 8
72 72 72
24 24 24
2 2 2
0 0 0
0 0 0
2 2 2
1 1 1
1 1 1
1 1 1
2 2 2
1 1 1
2 2 2
2 2 2
1 1 1
3 3 3
3 3 3
3 3 3
2 2 2
2 2 2
9 9 9
9 9 9
6 6 6
19 19 19
10 10 10
4 4 4
5 5 5
4 4 4
4 4 4
5 5 5
7 7 7
10 10 10
10 10 10
11 11 11
9 9 9
6 6 6
6 6 6
6 6 6
4 4 4
7 7 7
23 23 23
21 21 21
14 14 14
9 9 9
11 11 11
9 9 9
8 8 8
29 29 29
6 6 6
7 7 7
8 8 8
54 54 54
14 14 14
4 4 4
0 0 0
0 0 0
2 2 2
1 1 1
1 1 1
1 1 1
1 1 1
1 1 1
1 1 1
2 2 2
2 2 2
4 4 4
3 3 3
2 2 2
2 2 2
2 2 2
6 6 6
3 3 3
5 5 5
5 5 5
4 4 4
5 5 5
4 4 4
5 5 5
7 7 7
10 10 10
14 14 14
17 17 17
20 20 20
23 23 23
28 28 28
15 15 15
10 10 10
10 10 10
6 6 6
7 7 7
12 12 12
21 21 21
25 25 25
20 20 20
15 15 15
9 9 9
4 4 4
14 14 14
8 8 8
6 6 6
8 8 8
38 38 38
13 13 13
20 20 20
0 0 0
0 0 0
2 2 2
2 2 2
1 1 1
1 1 1
1 1 1
2 2 2
2 2 2
1 1 1
3 3 3
3 3 3
3 3 3
2 2 2
2 2 2
2 2 2
8 8 8
5 5 5
4 4 4
4 4 4
3 3 3
4 4 4
6 6 6
9 9 9
14 14 14
20 20 20
31 31 31
34 34 34
41 41 41
45 45 45
53 53 53
46 46 46
32 32 32
18 18 18
12 12 12
8 8 8
13 13 13
12 12 12
31 31 31
31 31 31
17 17 17
12 12 12
5 5 5
8 8 8
27 27 27
6 6 6
8 8 8
27 27 27
14 14 14
21 21 21
0 0 0
0 0 0
2 2 2
2 2 2
1 1 1
1 1 1
1 1 1
1 1 1
1 1 1
2 2 2
3 3 3
3 3 3
3 3 3
2 2 2
2 2 2
2 2 2
7 7 7
4 4 4
4 4 4
4 4 4
3 3 3
5 5 5
9 9 9
15 15 15
28 28 28
34 34 34
49 49 49
62 62 62
64 64 64
59 59 59
66 66 66
57 57 57
43 43 43
27 27 27
13 13 13
9 9 9
12 12 12
16 16 16
20 20 20
24 24 24
12 12 12
9 9 9
8 8 8
9 9 9
39 39 39
6 6 6
8 8 8
20 20 20
13 13 13
15 15 15
0 0 0
0 0 0
2 2 2
1 1 1
2 2 2
2 2 2
1 1 1
2 2 2
1 1 1
1 1 1
2 2 2
3 3 3
3 3 3
3 3 3
2 2 2
3 3 3
6 6 6
5 5 5
4 4 4
3 3 3
3 3 3
8 8 8
12 12 12
27 27 27
42 42 42
49 49 49
67 67 67
73 73 73
73 73 73
73 73 73
75 75 75
52 52 52
38 38 38
29 29 29
15 15 15
10 10 10
8 8 8
16 16 16
18 18 18
19 19 19
7 7 7
9 9 9
9 9 9
7 7 7
22 22 22
6 6 6
10 10 10
14 14 14
14 14 14
14 14 14
0 0 0
0 0 0
2 2 2
2 2 2
2 2 2
1 1 1
1 1 1
1 1 1
1 1 1
1 1 1
2 2 2
2 2 2
3 3 3
3 3 3
2 2 2
4 4 4
5 5 5
3 3 3
3 3 3
3 3 3
3 3 3
8 8 8
12 12 12
25 25 25
45 45 45
50 50 50
67 67 67
73 73 73
71 71 71
73 73 73
65 65 65
45 45 45
31 31 31
23 23 23
15 15 15
10 10 10
9 9 9
16 16 16
22 22 22
21 21 21
9 9 9
7 7 7
14 14 14
7 7 7
15 15 15
8 8 8
8 8 8
13 13 13
16 16 16
14 14 14
0 0 0
0 0 0
2 2 2
2 2 2
1 1 1
2 2 2
2 2 2
2 2 2
1 1 1
2 2 2
2 2 2
1 1 1
2 2 2
2 2 2
2 2 2
2 2 2
3 3 3
4 4 4
5 5 5
3 3 3
4 4 4
5 5 5
12 12 12
23 23 23
33 33 33
40 40 40
47 47 47
52 52 52
56 56 56
56 56 56
37 37 37
26 26 26
20 20 20
19 19 19
15 15 15
12 12 12
16 16 16
25 25 25
24 24 24
17 17 17
7 7 7
6 6 6
11 11 11
4 4 4
12 12 12
7 7 7
9 9 9
11 11 11
16 16 16
15 15 15
0 0 0
0 0 0
1 1 1
1 1 1
1 1 1
2 2 2
2 2 2
1 1 1
2 2 2
2 2 2
2 2 2
2 2 2
2 2 2
2 2 2
2 2 2
2 2 2
2 2 2
3 3 3
3 3 3
4 4 4
4 4 4
4 4 4
7 7 7
12 12 12
17 17 17
21 21 21
28 28 28
33 33 33
30 30 30
27 27 27
18 18 18
13 13 13
14 14 14
10 10 10
12 12 12
14 14 14
18 18 18
24 24 24
28 28 28
16 16 16
6 6 6
14 14 14
3 3 3
7 7 7
11 11 11
13 13 13
9 9 9
10 10 10
17 17 17
14 14 14
0 0 0
0 0 0
2 2 2
1 1 1
1 1 1
2 2 2
2 2 2
2 2 2
2 2 2
3 3 3
3 3 3
3 3 3
3 3 3
2 2 2
2 2 2
2 2 2
2 2 2
3 3 3
3 3 3
3 3 3
4 4 4
3 3 3
4 4 4
5 5 5
8 8 8
10 10 10
12 12 12
12 12 12
10 10 10
11 11 11
8 8 8
14 14 14
11 11 11
10 10 10
10 10 10
10 10 10
10 10 10
12 12 12
22 22 22
11 11 11
5 5 5
14 14 14
11 11 11
10 10 10
10 10 10
20 20 20
9 9 9
10 10 10
17 17 17
13 13 13
0 0 0
0 0 0
2 2 2
1 1 1
2 2 2
2 2 2
2 2 2
2 2 2
3 3 3
3 3 3
3 3 3
3 3 3
3 3 3
3 3 3
3 3 3
2 2 2
1 1 1
3 3 3
3 3 3
4 4 4
4 4 4
5 5 5
4 4 4
4 4 4
7 7 7
4 4 4
4 4 4
5 5 5
6 6 6
8 8 8
8 8 8
10 10 10
15 15 15
15 15 15
12 12 12
9 9 9
7 7 7
5 5 5
20 20 20
8 8 8
13 13 13
18 18 18
11 11 11
19 19 19
15 15 15
25 25 25
8 8 8
10 10 10
17 17 17
13 13 13
0 0 0
0 0 0
2 2 2
2 2 2
2 2 2
1 1 1
1 1 1
2 2 2
3 3 3
3 3 3
3 3 3
3 3 3
3 3 3
3 3 3
3 3 3
3 3 3
3 3 3
3 3 3
2 2 2
5 5 5
5 5 5
5 5 5
5 5 5
5 5 5
4 4 4
3 3 3
4 4 4
5 5 5
6 6 6
6 6 6
11 11 11
13 13 13
16 16 16
18 18 18
10 10 10
8 8 8
4 4 4
3 3 3
5 5 5
14 14 14
5 5 5
8 8 8
12 12 12
17 17 17
15 15 15
22 22 22
7 7 7
11 11 11
16 16 16
13 13 13
0 0 0
0 0 0
2 2 2
2 2 2
1 1 1
1 1 1
2 2 2
3 3 3
3 3 3
3 3 3
3 3 3
3 3 3
3 3 3
3 3 3
4 4 4
4 4 4
3 3 3
4 4 4
3 3 3
3 3 3
4 4 4
5 5 5
3 3 3
5 5 5
4 4 4
4 4 4
5 5 5
4 4 4
7 7 7
9 9 9
7 7 7
6 6 6
6 6 6
15 15 15
11 11 11
12 12 12
11 11 11
5 5 5
10 10 10
13 13 13
11 11 11
4 4 4
14 14 14
15 15 15
12 12 12
14 14 14
8 8 8
12 12 12
16 16 16
15 15 15
0 0 0
0 0 0
1 1 1
1 1 1
1 1 1
2 2 2
2 2 2
1 1 1
2 2 2
3 3 3
3 3 3
3 3 3
3 3 3
3 3 3
3 3 3
4 4 4
3 3 3
3 3 3
4 4 4
3 3 3
2 2 2
5 5 5
3 3 3
3 3 3
3 3 3
5 5 5
3 3 3
4 4 4
4 4 4
5 5 5
4 4 4
9 9 9
7 7 7
6 6 6
8 8 8
7 7 7
15 15 15
3 3 3
3 3 3
8 8 8
10 10 10
17 17 17
13 13 13
15 15 15
14 14 14
8 8 8
8 8 8
12 12 12
15 15 15
14 14 14
0 0 0
0 0 0
2 2 2
2 2 2
2 2 2
1 1 1
2 2 2
1 1 1
1 1 1
1 1 1
2 2 2
3 3 3
3 3 3
4 4 4
3 3 3
3 3 3
4 4 4
4 4 4
4 4 4
4 4 4
3 3 3
3 3 3
5 5 5
6 6 6
5 5 5
5 5 5
3 3 3
4 4 4
4 4 4
3 3 3
4 4 4
4 4 4
7 7 7
4 4 4
6 6 6
6 6 6
6 6 6
16 16 16
3 3 3
4 4 4
7 7 7
16 16 16
15 15 15
14 14 14
22 22 22
6 6 6
8 8 8
15 15 15
13 13 13
15 15 15
0 0 0
0 0 0
1 1 1
2 2 2
1 1 1
1 1 1
2 2 2
2 2 2
1 1 1
2 2 2
2 2 2
2 2 2
2 2 2
2 2 2
3 3 3
4 4 4
3 3 3
4 4 4
4 4 4
4 4 4
4 4 4
3 3 3
3 3 3
8 8 8
6 6 6
4 4 4
3 3 3
3 3 3
3 3 3
3 3 3
4 4 4
3 3 3
5 5 5
8 8 8
6 6 6
12 12 12
3 3 3
7 7 7
10 10 10
6 6 6
3 3 3
4 4 4
9 9 9
6 6 6
38 38 38
7 7 7
8 8 8
20 20 20
12 12 12
14 14 14
0 0 0
0 0 0
1 1 1
2 2 2
2 2 2
2 2 2
2 2 2
2 2 2
2 2 2
2 2 2
2 2 2
1 1 1
2 2 2
2 2 2
2 2 2
3 3 3
3 3 3
4 4 4
4 4 4
4 4 4
4 4 4
4 4 4
3 3 3
3 3 3
7 7 7
4 4 4
3 3 3
4 4 4
3 3 3
3 3 3
4 4 4
3 3 3
4 4 4
8 8 8
5 5 5
9 9 9
9 9 9
6 6 6
11 11 11
8 8 8
22 22 22
7 7 7
9 9 9
11 11 11
27 27 27
6 6 6
8 8 8
28 28 28
12 12 12
19 19 19
0 0 0
0 0 0
2 2 2
1 1 1
2 2 2
1 1 1
1 1 1
1 1 1
2 2 2
1 1 1
2 2 2
2 2 2
2 2 2
2 2 2
2 2 2
2 2 2
3 3 3
3 3 3
4 4 4
4 4 4
4 4 4
4 4 4
4 4 4
4 4 4
4 4 4
14 14 14
7 7 7
5 5 5
4 4 4
3 3 3
8 8 8
4 4 4
6 6 6
3 3 3
4 4 4
12 12 12
12 12 12
8 8 8
13 13 13
6 6 6
6 6 6
6 6 6
17 17 17
13 13 13
25 25 25
5 5 5
8 8 8
42 42 42
13 13 13
29 29 29
0 0 0
0 0 0
2 2 2
2 2 2
2 2 2
2 2 2
1 1 1
1 1 1
1 1 1
2 2 2
2 2 2
2 2 2
1 1 1
1 1 1
2 2 2
2 2 2
2 2 2
3 3 3
3 3 3
4 4 4
4 4 4
4 4 4
4 4 4
4 4 4
4 4 4
4 4 4
4 4 4
3 3 3
3 3 3
3 3 3
4 4 4
7 7 7
6 6 6
3 3 3
3 3 3
4 4 4
11 11 11
11 11 11
5 5 5
10 10 10
20 20 20
16 16 16
19 19 19
5 5 5
27 27 27
7 7 7
9 9 9
59 59 59
13 13 13
2 2 2
0 0 0
0 0 0
2 2 2
1 1 1
2 2 2
1 1 1
1 1 1
1 1 1
2 2 2
2 2 2
2 2 2
2 2 2
2 2 2
2 2 2
2 2 2
2 2 2
2 2 2
2 2 2
2 2 2
4 4 4
4 4 4
4 4 4
3 3 3
3 3 3
4 4 4
4 4 4
4 4 4
4 4 4
4 4 4
3 3 3
3 3 3
5 5 5
4 4 4
4 4 4
4 4 4
3 3 3
17 17 17
11 11 11
7 7 7
5 5 5
21 21 21
15 15 15
15 15 15
9 9 9
33 33 33
7 7 7
10 10 10
74 74 74
22 22 22
2 2 2
0 0 0
0 0 0
2 2 2
2 2 2
1 1 1
1 1 1
1 1 1
2 2 2
2 2 2
2 2 2
1 1 1
1 1 1
1 1 1
2 2 2
2 2 2
2 2 2
2 2 2
2 2 2
2 2 2
2 2 2
3 3 3
4 4 4
4 4 4
3 3 3
3 3 3
4 4 4
4 4 4
4 4 4
4 4 4
3 3 3
3 3 3
4 4 4
3 3 3
2 2 2
3 3 3
5 5 5
10 10 10
9 9 9
17 17 17
14 14 14
9 9 9
8 8 8
19 19 19
10 10 10
42 42 42
9 9 9
12 12 12
74 74 74
8 8 8
2 2 2
0 0 0
0 0 0
2 2 2
2 2 2
1 1 1
1 1 1
1 1 1
1 1 1
1 1 1
1 1 1
1 1 1
2 2 2
2 2 2
2 2 2
2 2 2
2 2 2
2 2 2
2 2 2
2 2 2
2 2 2
2 2 2
2 2 2
3 3 3
3 3 3
3 3 3
3 3 3
4 4 4
4 4 4
4 4 4
4 4 4
5 5 5
5 5 5
5 5 5
5 5 5
5 5 5
7 7 7
12 12 12
8 8 8
5 5 5
6 6 6
5 5 5
18 18 18
17 17 17
20 20 20
15 15 15
8 8 8
14 14 14
61 61 61
2 2 2
2 2 2
0 0 0
0 0 0
2 2 2
2 2 2
2 2 2
1 1 1
2 2 2
1 1 1
2 2 2
1 1 1
1 1 1
2 2 2
1 1 1
2 2 2
1 1 1
2 2 2
2 2 2
2 2 2
2 2 2
2 2 2
2 2 2
2 2 2
2 2 2
2 2 2
3 3 3
3 3 3
4 4 4
4 4 4
4 4 4
4 4 4
8 8 8
6 6 6
7 7 7
9 9 9
6 6 6
20 20 20
4 4 4
7 7 7
8 8 8
11 11 11
14 14 14
5 5 5
13 13 13
43 43 43
5 5 5
10 10 10
16 16 16
10 10 10
2 2 2
2 2 2
0 0 0
0 0 0
2 2 2
2 2 2
2 2 2
2 2 2
1 1 1
1 1 1
2 2 2
1 1 1
1 1 1
2 2 2
1 1 1
1 1 1
2 2 2
2 2 2
1 1 1
2 2 2
2 2 2
2 2 2
2 2 2
2 2 2
2 2 2
2 2 2
2 2 2
2 2 2
3 3 3
4 4 4
4 4 4
5 5 5
8 8 8
5 5 5
8 8 8
7 7 7
5 5 5
6 6 6
18 18 18
11 11 11
8 8 8
12 12 12
11 11 11
15 15 15
17 17 17
23 23 23
7 7 7
12 12 12
31 31 31
2 2 2
2 2 2
2 2 2
0 0 0
0 0 0
2 2 2
2 2 2
2 2 2
2 2 2
1 1 1
1 1 1
1 1 1
2 2 2
1 1 1
1 1 1
1 1 1
2 2 2
1 1 1
2 2 2
2 2 2
2 2 2
2 2 2
2 2 2
2 2 2
2 2 2
2 2 2
2 2 2
2 2 2
2 2 2
2 2 2
5 5 5
9 9 9
11 11 11
12 12 12
9 9 9
8 8 8
7 7 7
5 5 5
4 4 4
7 7 7
20 20 20
7 7 7
11 11 11
10 10 10
8 8 8
18 18 18
8 8 8
9 9 9
16 16 16
2 2 2
2 2 2
2 2 2
2 2 2
0 0 0
0 0 0
2 2 2
2 2 2
2 2 2
2 2 2
2 2 2
1 1 1
1 1 1
1 1 1
2 2 2
1 1 1
1 1 1
1 1 1
1 1 1
1 1 1
2 2 2
2 2 2
1 1 1
2 2 2
2 2 2
2 2 2
2 2 2
2 2 2
2 2 2
2 2 2
4 4 4
3 3 3
6 6 6
7 7 7
5 5 5
8 8 8
9 9 9
8 8 8
8 8 8
7 7 7
5 5 5
10 10 10
12 12 12
13 13 13
11 11 11
21 21 21
36 36 36
10 10 10
13 13 13
5 5 5
2 2 2
2 2 2
2 2 2
2 2 2
0 0 0
0 0 0
2 2 2
2 2 2
2 2 2
2 2 2
2 2 2
2 2 2
2 2 2
1 1 1
1 1 1
1 1 1
1 1 1
1 1 1
2 2 2
1 1 1
2 2 2
2 2 2
1 1 1
2 2 2
2 2 2
2 2 2
2 2 2
2 2 2
2 2 2
2 2 2
1 1 1
8 8 8
3 3 3
7 7 7
7 7 7
4 4 4
9 9 9
16 16 16
10 10 10
11 11 11
11 11 11
5 5 5
20 20 20
13 13 13
10 10 10
25 25 25
42 42 42
11 11 11
9 9 9
2 2 2
2 2 2
2 2 2
2 2 2
2 2 2
0 0 0
0 0 0
2 2 2
2 2 2
2 2 2
2 2 2
2 2 2
2 2 2
2 2 2
1 1 1
1 1 1
1 1 1
2 2 2
1 1 1
1 1 1
1 1 1
1 1 1
1 1 1
2 2 2
1 1 1
1 1 1
2 2 2
2 2 2
2 2 2
2 2 2
2 2 2
2 2 2
2 2 2
3 3 3
3 3 3
2 2 2
3 3 3
5 5 5
9 9 9
3 3 3
13 13 13
12 12 12
18 18 18
28 28 28
19 19 19
17 17 17
28 28 28
25 25 25
17 17 17
2 2 2
2 2 2
2 2 2
2 2 2
2 2 2
2 2 2
0 0 0
0 0 0
2 2 2
2 2 2
2 2 2
2 2 2
2 2 2
2 2 2
2 2 2
2 2 2
1 1 1
1 1 1
1 1 1
1 1 1
1 1 1
1 1 1
1 1 1
2 2 2
2 2 2
2 2 2
2 2 2
2 2 2
2 2 2
2 2 2
2 2 2
2 2 2
2 2 2
2 2 2
2 2 2
2 2 2
2 2 2
3 3 3
8 8 8
5 5 5
11 11 11
6 6 6
20 20 20
19 19 19
22 22 22
17 17 17
23 23 23
43 43 43
9 9 9
2 2 2
2 2 2
2 2 2
2 2 2
2 2 2
2 2 2
2 2 2
0 0 0
0 0 0
2 2 2
2 2 2
2 2 2
2 2 2
2 2 2
2 2 2
2 2 2
2 2 2
2 2 2
1 1 1
1 1 1
1 1 1
1 1 1
1 1 1
1 1 1
1 1 1
2 2 2
2 2 2
1 1 1
2 2 2
1 1 1
2 2 2
2 2 2
2 2 2
2 2 2
2 2 2
2 2 2
2 2 2
2 2 2
2 2 2
4 4 4
9 9 9
5 5 5
9 9 9
14 14 14
9 9 9
11 11 11
11 11 11
19 19 19
8 8 8
2 2 2
2 2 2
2 2 2
2 2 2
2 2 2
2 2 2
2 2 2
2 2 2
0 0 0
0 0 0
2 2 2
2 2 2
2 2 2
2 2 2
2 2 2
2 2 2
2 2 2
2 2 2
2 2 2
2 2 2
1 1 1
1 1 1
1 1 1
1 1 1
1 1 1
1 1 1
2 2 2
1 1 1
2 2 2
2 2 2
2 2 2
2 2 2
2 2 2
2 2 2
2 2 2
2 2 2
2 2 2
2 2 2
2 2 2
3 3 3
2 2 2
5 5 5
10 10 10
8 8 8
8 8 8
10 10 10
10 10 10
26 26 26
2 2 2
2 2 2
2 2 2
2 2 2
2 2 2
2 2 2
2 2 2
2 2 2
2 2 2
2 2 2
0 0 0
0 0 0
2 2 2
2 2 2
2 2 2
2 2 2
2 2 2
2 2 2
2 2 2
2 2 2
2 2 2
2 2 2
2 2 2
2 2 2
1 1 1
1 1 1
1 1 1
1 1 1
1 1 1
1 1 1
1 1 1
1 1 1
2 2 2
1 1 1
2 2 2
2 2 2
2 2 2
2 2 2
2 2 2
2 2 2
3 3 3
8 8 8
5 5 5
9 9 9
11 11 11
11 11 11
24 24 24
25 25 25
4 4 4
2 2 2
2 2 2
2 2 2
2 2 2
2 2 2
2 2 2
2 2 2
2 2 2
2 2 2
2 2 2
2 2 2
0 0 0
0 0 0
2 2 2
2 2 2
2 2 2
2 2 2
2 2 2
2 2 2
2 2 2
2 2 2
2 2 2
2 2 2
2 2 2
2 2 2
2 2 2
2 2 2
1 1 1
1 1 1
1 1 1
1 1 1
1 1 1
1 1 1
1 1 1
2 2 2
2 2 2
2 2 2
2 2 2
2 2 2
2 2 2
2 2 2
3 3 3
3 3 3
4 4 4
5 5 5
9 9 9
11 11 11
4 4 4
2 2 2
2 2 2
2 2 2
2 2 2
2 2 2
2 2 2
2 2 2
2 2 2
2 2 2
2 2 2
2 2 2
2 2 2
2 2 2
0 0 0
0 0 0
2 2 2
2 2 2
2 2 2
2 2 2
2 2 2
2 2 2
2 2 2
2 2 2
2 2 2
2 2 2
2 2 2
2 2 2
2 2 2
2 2 2
2 2 2
2 2 2
1 1 1
1 1 1
1 1 1
1 1 1
1 1 1
2 2 2
2 2 2
2 2 2
2 2 2
3 3 3
3 3 3
3 3 3
4 4 4
4 4 4
6 6 6
10 10 10
2 2 2
2 2 2
2 2 2
2 2 2
2 2 2
2 2 2
2 2 2
2 2 2
2 2 2
2 2 2
2 2 2
2 2 2
2 2 2
2 2 2
2 2 2
2 2 2
0 0 0
0 0 0
0 0 0
0 0 0
0 0 0
0 0 0
0 0 0
0 0 0
0 0 0
0 0 0
0 0 0
0 0 0
0 0 0
0 0 0
0 0 0
0 0 0
0 0 0
0 0 0
0 0 0
0 0 0
0 0 0
0 0 0
0 0 0
0 0 0
0 0 0
0 0 0
0 0 0
0 0 0
0 0 0
0 0 0
0 0 0
0 0 0
0 0 0
0 0 0
0 0 0
0 0 0
0 0 0
0 0 0
0 0 0
0 0 0
0 0 0
0 0 0
0 0 0
0 0 0
0 0 0
0 0 0
0 0 0
0 0 0
0 0 0
0 0 0
0 0 0
