P3 
50 50 
255
0 0 0
0 0 0
0 0 0
0 0 0
0 0 0
0 0 0
0 0 0
0 0 0
0 0 0
0 0 0
0 0 0
0 0 0
0 0 0
0 0 0
0 0 0
0 0 0
0 0 0
0 0 0
0 0 0
0 0 0
0 0 0
0 0 0
0 0 0
0 0 0
0 0 0
0 0 0
0 0 0
0 0 0
0 0 0
0 0 0
0 0 0
0 0 0
0 0 0
0 0 0
0 0 0
0 0 0
0 0 0
0 0 0
0 0 0
0 0 0
0 0 0
0 0 0
0 0 0
0 0 0
0 0 0
0 0 0
0 0 0
0 0 0
0 0 0
0 0 0
0 0 0
2 2 2
2 2 2
2 2 2
2 2 2
2 2 2
2 2 2
2 2 2
2 2 2
2 2 2
2 2 2
2 2 2
2 2 2
2 2 2
2 2 2
2 2 2
2 2 2
2 2 2
1 1 1
2 2 2
2 2 2
2 2 2
3 3 3
4 4 4
4 4 4
4 4 4
4 4 4
4 4 4
4 4 4
5 5 5
10 10 10
10 10 10
3 3 3
2 2 2
2 2 2
2 2 2
2 2 2
2 2 2
2 2 2
2 2 2
2 2 2
2 2 2
2 2 2
2 2 2
2 2 2
2 2 2
2 2 2
2 2 2
2 2 2
0 0 0
0 0 0
2 2 2
2 2 2
2 2 2
2 2 2
2 2 2
2 2 2
2 2 2
2 2 2
2 2 2
2 2 2
2 2 2
2 2 2
2 2 2
2 2 2
1 1 1
1 1 1
2 2 2
2 2 2
2 2 2
2 2 2
2 2 2
4 4 4
4 4 4
4 4 4
3 3 3
3 3 3
3 3 3
4 4 4
4 4 4
4 4 4
9 9 9
8 8 8
11 11 11
8 8 8
2 2 2
2 2 2
2 2 2
2 2 2
2 2 2
2 2 2
2 2 2
2 2 2
2 2 2
2 2 2
2 2 2
2 2 2
2 2 2
2 2 2
0 0 0
0 0 0
2 2 2
2 2 2
2 2 2
2 2 2
2 2 2
2 2 2
2 2 2
2 2 2
2 2 2
2 2 2
2 2 2
2 2 2
1 1 1
1 1 1
2 2 2
2 2 2
2 2 2
2 2 2
2 2 2
3 3 3
4 4 4
4 4 4
4 4 4
4 4 4
3 3 3
3 3 3
4 4 4
6 6 6
4 4 4
4 4 4
9 9 9
5 5 5
5 5 5
5 5 5
9 9 9
10 10 10
2 2 2
2 2 2
2 2 2
2 2 2
2 2 2
2 2 2
2 2 2
2 2 2
2 2 2
2 2 2
2 2 2
2 2 2
0 0 0
0 0 0
2 2 2
2 2 2
2 2 2
2 2 2
2 2 2
2 2 2
2 2 2
2 2 2
2 2 2
2 2 2
2 2 2
1 1 1
1 1 1
1 1 1
1 1 1
2 2 2
2 2 2
2 2 2
2 2 2
4 4 4
4 4 4
4 4 4
4 4 4
4 4 4
3 3 3
3 3 3
7 7 7
8 8 8
9 9 9
7 7 7
15 15 15
7 7 7
4 4 4
8 8 8
6 6 6
6 6 6
9 9 9
8 8 8
2 2 2
2 2 2
2 2 2
2 2 2
2 2 2
2 2 2
2 2 2
2 2 2
2 2 2
2 2 2
0 0 0
0 0 0
2 2 2
2 2 2
2 2 2
2 2 2
2 2 2
2 2 2
2 2 2
2 2 2
2 2 2
1 1 1
1 1 1
1 1 1
2 2 2
2 2 2
2 2 2
2 2 2
2 2 2
3 3 3
4 4 4
4 4 4
4 4 4
4 4 4
4 4 4
4 4 4
3 3 3
6 6 6
11 11 11
5 5 5
11 11 11
5 5 5
4 4 4
7 7 7
3 3 3
4 4 4
10 10 10
9 9 9
8 8 8
7 7 7
10 10 10
2 2 2
2 2 2
2 2 2
2 2 2
2 2 2
2 2 2
2 2 2
2 2 2
2 2 2
0 0 0
0 0 0
2 2 2
2 2 2
2 2 2
2 2 2
2 2 2
2 2 2
2 2 2
2 2 2
1 1 1
1 1 1
1 1 1
1 1 1
1 1 1
2 2 2
2 2 2
2 2 2
3 3 3
4 4 4
4 4 4
4 4 4
4 4 4
4 4 4
4 4 4
4 4 4
4 4 4
8 8 8
13 13 13
8 8 8
8 8 8
5 5 5
8 8 8
7 7 7
5 5 5
11 11 11
4 4 4
4 4 4
6 6 6
6 6 6
7 7 7
24 24 24
4 4 4
2 2 2
2 2 2
2 2 2
2 2 2
2 2 2
2 2 2
2 2 2
0 0 0
0 0 0
2 2 2
2 2 2
2 2 2
2 2 2
2 2 2
2 2 2
2 2 2
1 1 1
1 1 1
1 1 1
1 1 1
2 2 2
2 2 2
1 1 1
2 2 2
3 3 3
4 4 4
4 4 4
4 4 4
4 4 4
4 4 4
4 4 4
4 4 4
5 5 5
8 8 8
7 7 7
11 11 11
5 5 5
4 4 4
8 8 8
7 7 7
8 8 8
8 8 8
7 7 7
5 5 5
6 6 6
4 4 4
8 8 8
7 7 7
8 8 8
19 19 19
6 6 6
2 2 2
2 2 2
2 2 2
2 2 2
2 2 2
2 2 2
0 0 0
0 0 0
2 2 2
2 2 2
2 2 2
2 2 2
2 2 2
2 2 2
1 1 1
1 1 1
1 1 1
1 1 1
1 1 1
2 2 2
1 1 1
2 2 2
3 3 3
4 4 4
4 4 4
4 4 4
4 4 4
4 4 4
5 5 5
5 5 5
5 5 5
9 9 9
8 8 8
8 8 8
9 9 9
11 11 11
3 3 3
9 9 9
6 6 6
5 5 5
4 4 4
6 6 6
6 6 6
8 8 8
8 8 8
4 4 4
10 10 10
11 11 11
32 32 32
13 13 13
4 4 4
2 2 2
2 2 2
2 2 2
2 2 2
2 2 2
0 0 0
0 0 0
2 2 2
2 2 2
2 2 2
2 2 2
2 2 2
1 1 1
1 1 1
1 1 1
1 1 1
1 1 1
1 1 1
1 1 1
2 2 2
2 2 2
3 3 3
4 4 4
4 4 4
4 4 4
3 3 3
3 3 3
3 3 3
5 5 5
8 8 8
8 8 8
4 4 4
4 4 4
7 7 7
6 6 6
8 8 8
4 4 4
7 7 7
4 4 4
4 4 4
5 5 5
3 3 3
3 3 3
9 9 9
11 11 11
4 4 4
7 7 7
41 41 41
11 11 11
16 16 16
2 2 2
2 2 2
2 2 2
2 2 2
2 2 2
0 0 0
0 0 0
2 2 2
2 2 2
2 2 2
2 2 2
1 1 1
1 1 1
1 1 1
1 1 1
1 1 1
1 1 1
1 1 1
1 1 1
2 2 2
3 3 3
4 4 4
4 4 4
4 4 4
4 4 4
3 3 3
4 4 4
14 14 14
10 10 10
29 29 29
8 8 8
10 10 10
11 11 11
8 8 8
7 7 7
6 6 6
6 6 6
9 9 9
13 13 13
21 21 21
13 13 13
7 7 7
4 4 4
12 12 12
7 7 7
4 4 4
4 4 4
35 35 35
7 7 7
11 11 11
17 17 17
2 2 2
2 2 2
2 2 2
2 2 2
0 0 0
0 0 0
2 2 2
2 2 2
2 2 2
1 1 1
1 1 1
1 1 1
1 1 1
1 1 1
1 1 1
1 1 1
1 1 1
1 1 1
3 3 3
3 3 3
3 3 3
4 4 4
4 4 4
3 3 3
7 7 7
8 8 8
5 5 5
6 6 6
7 7 7
6 6 6
10 10 10
7 7 7
11 11 11
10 10 10
9 9 9
9 9 9
8 8 8
8 8 8
13 13 13
12 12 12
9 9 9
5 5 5
4 4 4
4 4 4
4 4 4
4 4 4
20 20 20
6 6 6
8 8 8
13 13 13
21 21 21
2 2 2
2 2 2
2 2 2
0 0 0
0 0 0
2 2 2
2 2 2
2 2 2
1 1 1
1 1 1
1 1 1
1 1 1
1 1 1
1 1 1
1 1 1
0 0 0
2 2 2
2 2 2
3 3 3
3 3 3
3 3 3
3 3 3
5 5 5
7 7 7
10 10 10
4 4 4
5 5 5
7 7 7
8 8 8
19 19 19
31 31 31
39 39 39
29 29 29
26 26 26
33 33 33
31 31 31
28 28 28
31 31 31
22 22 22
11 11 11
8 8 8
8 8 8
10 10 10
5 5 5
4 4 4
6 6 6
15 15 15
6 6 6
10 10 10
17 17 17
6 6 6
2 2 2
2 2 2
0 0 0
0 0 0
2 2 2
2 2 2
1 1 1
1 1 1
1 1 1
1 1 1
1 1 1
1 1 1
1 1 1
1 1 1
2 2 2
2 2 2
2 2 2
2 2 2
2 2 2
2 2 2
2 2 2
6 6 6
8 8 8
5 5 5
11 11 11
23 23 23
39 39 39
63 63 63
82 82 82
85 85 85
87 87 87
86 86 86
85 85 85
83 83 83
80 80 80
79 79 79
82 82 82
81 81 81
41 41 41
14 14 14
7 7 7
16 16 16
7 7 7
11 11 11
11 11 11
42 42 42
6 6 6
9 9 9
12 12 12
66 66 66
2 2 2
2 2 2
0 0 0
0 0 0
2 2 2
2 2 2
1 1 1
1 1 1
1 1 1
1 1 1
1 1 1
1 1 1
1 1 1
1 1 1
2 2 2
2 2 2
2 2 2
2 2 2
2 2 2
2 2 2
2 2 2
18 18 18
7 7 7
30 30 30
67 67 67
82 82 82
85 85 85
91 91 91
98 98 98
110 110 110
119 119 119
123 123 123
119 119 119
112 112 112
105 105 105
100 100 100
94 94 94
87 87 87
76 76 76
40 40 40
11 11 11
8 8 8
7 7 7
5 5 5
12 12 12
29 29 29
6 6 6
9 9 9
9 9 9
74 74 74
5 5 5
2 2 2
0 0 0
0 0 0
2 2 2
1 1 1
1 1 1
1 1 1
1 1 1
1 1 1
1 1 1
1 1 1
1 1 1
2 2 2
2 2 2
2 2 2
2 2 2
2 2 2
1 1 1
3 3 3
8 8 8
15 15 15
58 58 58
85 85 85
95 95 95
120 120 120
145 145 145
175 175 175
193 193 193
203 203 203
184 184 184
182 182 182
188 188 188
184 184 184
183 183 183
181 181 181
169 169 169
140 140 140
97 97 97
80 80 80
45 45 45
12 12 12
28 28 28
15 15 15
22 22 22
7 7 7
13 13 13
7 7 7
7 7 7
70 70 70
22 22 22
2 2 2
0 0 0
0 0 0
2 2 2
1 1 1
1 1 1
1 1 1
1 1 1
1 1 1
1 1 1
1 1 1
1 1 1
2 2 2
2 2 2
2 2 2
2 2 2
1 1 1
3 3 3
3 3 3
17 17 17
69 69 69
85 85 85
113 113 113
169 169 169
181 181 181
177 177 177
170 170 170
173 173 173
199 199 199
179 179 179
171 171 171
182 182 182
181 181 181
180 180 180
179 179 179
169 169 169
157 157 157
157 157 157
107 107 107
82 82 82
51 51 51
22 22 22
27 27 27
23 23 23
12 12 12
35 35 35
5 5 5
6 6 6
52 52 52
12 12 12
3 3 3
0 0 0
0 0 0
1 1 1
1 1 1
1 1 1
1 1 1
1 1 1
1 1 1
1 1 1
1 1 1
2 2 2
2 2 2
2 2 2
2 2 2
1 1 1
1 1 1
1 1 1
7 7 7
65 65 65
84 84 84
110 110 110
185 185 185
182 182 182
164 164 164
158 158 158
162 162 162
170 170 170
185 185 185
175 175 175
165 165 165
153 153 153
149 149 149
160 160 160
170 170 170
170 170 170
143 143 143
157 157 157
163 163 163
97 97 97
74 74 74
24 24 24
32 32 32
12 12 12
9 9 9
41 41 41
6 6 6
7 7 7
36 36 36
11 11 11
16 16 16
0 0 0
0 0 0
1 1 1
1 1 1
1 1 1
1 1 1
1 1 1
1 1 1
1 1 1
1 1 1
1 1 1
2 2 2
2 2 2
1 1 1
1 1 1
0 0 0
0 0 0
35 35 35
80 80 80
97 97 97
169 169 169
177 177 177
168 168 168
173 173 173
179 179 179
174 174 174
166 166 166
142 142 142
102 102 102
107 107 107
95 95 95
101 101 101
106 106 106
118 118 118
137 137 137
138 138 138
169 169 169
168 168 168
122 122 122
79 79 79
21 21 21
34 34 34
7 7 7
11 11 11
19 19 19
7 7 7
7 7 7
24 24 24
12 12 12
18 18 18
0 0 0
0 0 0
2 2 2
1 1 1
1 1 1
1 1 1
1 1 1
1 1 1
1 1 1
3 3 3
2 2 2
2 2 2
1 1 1
1 1 1
1 1 1
0 0 0
2 2 2
62 62 62
84 84 84
151 151 151
181 181 181
178 178 178
172 172 172
148 148 148
119 119 119
112 112 112
101 101 101
95 95 95
91 91 91
92 92 92
92 92 92
95 95 95
96 96 96
100 100 100
126 126 126
150 150 150
165 165 165
192 192 192
129 129 129
80 80 80
21 21 21
21 21 21
7 7 7
10 10 10
5 5 5
14 14 14
8 8 8
19 19 19
12 12 12
13 13 13
0 0 0
0 0 0
1 1 1
1 1 1
1 1 1
1 1 1
1 1 1
1 1 1
0 0 0
0 0 0
1 1 1
1 1 1
0 0 0
0 0 0
0 0 0
4 4 4
3 3 3
72 72 72
89 89 89
182 182 182
178 178 178
168 168 168
134 134 134
115 115 115
107 107 107
105 105 105
103 103 103
100 100 100
97 97 97
96 96 96
97 97 97
98 98 98
101 101 101
105 105 105
150 150 150
173 173 173
179 179 179
192 192 192
135 135 135
85 85 85
36 36 36
25 25 25
9 9 9
17 17 17
4 4 4
30 30 30
9 9 9
14 14 14
13 13 13
11 11 11
0 0 0
0 0 0
1 1 1
1 1 1
1 1 1
1 1 1
1 1 1
0 0 0
1 1 1
0 0 0
0 0 0
0 0 0
0 0 0
0 0 0
0 0 0
2 2 2
3 3 3
69 69 69
91 91 91
181 181 181
176 176 176
175 175 175
142 142 142
103 103 103
98 98 98
97 97 97
99 99 99
96 96 96
96 96 96
95 95 95
94 94 94
95 95 95
97 97 97
99 99 99
129 129 129
170 170 170
175 175 175
186 186 186
134 134 134
85 85 85
41 41 41
20 20 20
12 12 12
19 19 19
5 5 5
42 42 42
8 8 8
12 12 12
15 15 15
13 13 13
0 0 0
0 0 0
1 1 1
1 1 1
1 1 1
0 0 0
0 0 0
0 0 0
0 0 0
1 1 1
1 1 1
0 0 0
0 0 0
0 0 0
0 0 0
0 0 0
1 1 1
54 54 54
85 85 85
163 163 163
172 172 172
175 175 175
182 182 182
131 131 131
102 102 102
109 109 109
125 125 125
128 128 128
128 128 128
123 123 123
118 118 118
118 118 118
122 122 122
147 147 147
164 164 164
171 171 171
181 181 181
186 186 186
117 117 117
80 80 80
24 24 24
20 20 20
8 8 8
16 16 16
10 10 10
41 41 41
7 7 7
11 11 11
15 15 15
12 12 12
0 0 0
0 0 0
1 1 1
1 1 1
1 1 1
1 1 1
0 0 0
1 1 1
0 0 0
2 2 2
2 2 2
1 1 1
0 0 0
0 0 0
0 0 0
0 0 0
0 0 0
27 27 27
79 79 79
117 117 117
193 193 193
177 177 177
175 175 175
184 184 184
176 176 176
173 173 173
178 178 178
175 175 175
175 175 175
169 169 169
172 172 172
171 171 171
171 171 171
166 166 166
171 171 171
175 175 175
183 183 183
148 148 148
90 90 90
61 61 61
11 11 11
19 19 19
14 14 14
11 11 11
15 15 15
35 35 35
8 8 8
10 10 10
16 16 16
13 13 13
0 0 0
0 0 0
1 1 1
0 0 0
0 0 0
0 0 0
0 0 0
0 0 0
0 0 0
2 2 2
2 2 2
1 1 1
0 0 0
0 0 0
0 0 0
0 0 0
0 0 0
9 9 9
70 70 70
89 89 89
149 149 149
185 185 185
171 171 171
176 176 176
180 180 180
178 178 178
185 185 185
189 189 189
175 175 175
172 172 172
171 171 171
171 171 171
169 169 169
172 172 172
170 170 170
176 176 176
161 161 161
102 102 102
75 75 75
29 29 29
5 5 5
18 18 18
15 15 15
21 21 21
15 15 15
28 28 28
7 7 7
10 10 10
16 16 16
12 12 12
0 0 0
0 0 0
1 1 1
1 1 1
1 1 1
1 1 1
1 1 1
1 1 1
1 1 1
2 2 2
2 2 2
2 2 2
2 2 2
0 0 0
0 0 0
0 0 0
1 1 1
1 1 1
13 13 13
69 69 69
89 89 89
147 147 147
194 194 194
183 183 183
171 171 171
169 169 169
193 193 193
189 189 189
173 173 173
178 178 178
181 181 181
179 179 179
176 176 176
177 177 177
183 183 183
147 147 147
96 96 96
76 76 76
32 32 32
5 5 5
10 10 10
15 15 15
18 18 18
26 26 26
14 14 14
37 37 37
6 6 6
10 10 10
15 15 15
12 12 12
0 0 0
0 0 0
1 1 1
1 1 1
1 1 1
1 1 1
1 1 1
1 1 1
2 2 2
2 2 2
2 2 2
2 2 2
3 3 3
2 2 2
2 2 2
1 1 1
1 1 1
1 1 1
2 2 2
8 8 8
57 57 57
89 89 89
120 120 120
164 164 164
188 188 188
189 189 189
204 204 204
198 198 198
192 192 192
193 193 193
180 180 180
161 161 161
156 156 156
138 138 138
113 113 113
91 91 91
78 78 78
36 36 36
7 7 7
6 6 6
12 12 12
16 16 16
17 17 17
26 26 26
9 9 9
37 37 37
8 8 8
11 11 11
16 16 16
13 13 13
0 0 0
0 0 0
1 1 1
1 1 1
1 1 1
1 1 1
1 1 1
1 1 1
3 3 3
3 3 3
3 3 3
2 2 2
2 2 2
3 3 3
2 2 2
2 2 2
3 3 3
3 3 3
2 2 2
3 3 3
5 5 5
34 34 34
68 68 68
87 87 87
100 100 100
122 122 122
133 133 133
135 135 135
126 126 126
114 114 114
103 103 103
95 95 95
91 91 91
88 88 88
83 83 83
76 76 76
29 29 29
8 8 8
7 7 7
15 15 15
5 5 5
14 14 14
8 8 8
22 22 22
10 10 10
44 44 44
8 8 8
11 11 11
16 16 16
14 14 14
0 0 0
0 0 0
1 1 1
1 1 1
1 1 1
1 1 1
1 1 1
1 1 1
2 2 2
2 2 2
3 3 3
2 2 2
3 3 3
2 2 2
2 2 2
2 2 2
2 2 2
2 2 2
2 2 2
3 3 3
3 3 3
3 3 3
8 8 8
21 21 21
44 44 44
60 60 60
76 76 76
79 79 79
75 75 75
68 68 68
61 61 61
53 53 53
50 50 50
41 41 41
34 34 34
14 14 14
4 4 4
5 5 5
12 12 12
15 15 15
4 4 4
20 20 20
12 12 12
12 12 12
15 15 15
40 40 40
9 9 9
12 12 12
14 14 14
13 13 13
0 0 0
0 0 0
1 1 1
1 1 1
1 1 1
1 1 1
1 1 1
1 1 1
1 1 1
1 1 1
1 1 1
3 3 3
2 2 2
2 2 2
2 2 2
2 2 2
2 2 2
3 3 3
3 3 3
3 3 3
10 10 10
5 5 5
4 4 4
5 5 5
6 6 6
6 6 6
9 9 9
12 12 12
11 11 11
9 9 9
8 8 8
7 7 7
5 5 5
5 5 5
5 5 5
9 9 9
11 11 11
11 11 11
15 15 15
10 10 10
6 6 6
12 12 12
12 12 12
5 5 5
16 16 16
29 29 29
9 9 9
14 14 14
13 13 13
14 14 14
0 0 0
0 0 0
1 1 1
1 1 1
1 1 1
1 1 1
1 1 1
0 0 0
1 1 1
0 0 0
1 1 1
1 1 1
0 0 0
2 2 2
3 3 3
3 3 3
4 4 4
4 4 4
4 4 4
5 5 5
4 4 4
11 11 11
6 6 6
5 5 5
5 5 5
5 5 5
6 6 6
6 6 6
5 5 5
6 6 6
6 6 6
6 6 6
11 11 11
10 10 10
10 10 10
21 21 21
18 18 18
10 10 10
9 9 9
3 3 3
7 7 7
7 7 7
24 24 24
7 7 7
22 22 22
18 18 18
7 7 7
22 22 22
11 11 11
14 14 14
0 0 0
0 0 0
1 1 1
1 1 1
1 1 1
1 1 1
1 1 1
1 1 1
1 1 1
1 1 1
1 1 1
1 1 1
1 1 1
1 1 1
2 2 2
3 3 3
4 4 4
4 4 4
4 4 4
4 4 4
5 5 5
4 4 4
7 7 7
10 10 10
9 9 9
6 6 6
5 5 5
5 5 5
4 4 4
6 6 6
5 5 5
7 7 7
5 5 5
6 6 6
9 9 9
13 13 13
8 8 8
5 5 5
3 3 3
12 12 12
13 13 13
21 21 21
22 22 22
11 11 11
7 7 7
13 13 13
8 8 8
30 30 30
12 12 12
19 19 19
0 0 0
0 0 0
2 2 2
1 1 1
1 1 1
1 1 1
1 1 1
1 1 1
1 1 1
1 1 1
1 1 1
1 1 1
2 2 2
2 2 2
2 2 2
3 3 3
4 4 4
4 4 4
4 4 4
4 4 4
4 4 4
5 5 5
5 5 5
5 5 5
5 5 5
6 6 6
6 6 6
7 7 7
7 7 7
6 6 6
6 6 6
5 5 5
4 4 4
8 8 8
12 12 12
17 17 17
19 19 19
4 4 4
12 12 12
15 15 15
6 6 6
4 4 4
18 18 18
21 21 21
9 9 9
12 12 12
8 8 8
42 42 42
13 13 13
27 27 27
0 0 0
0 0 0
2 2 2
1 1 1
2 2 2
1 1 1
1 1 1
1 1 1
1 1 1
1 1 1
1 1 1
1 1 1
1 1 1
2 2 2
2 2 2
2 2 2
3 3 3
4 4 4
4 4 4
5 5 5
5 5 5
5 5 5
5 5 5
5 5 5
6 6 6
6 6 6
6 6 6
5 5 5
4 4 4
5 5 5
6 6 6
8 8 8
4 4 4
6 6 6
5 5 5
3 3 3
11 11 11
15 15 15
11 11 11
11 11 11
18 18 18
8 8 8
14 14 14
14 14 14
9 9 9
8 8 8
8 8 8
59 59 59
12 12 12
2 2 2
0 0 0
0 0 0
2 2 2
1 1 1
1 1 1
1 1 1
1 1 1
1 1 1
1 1 1
1 1 1
1 1 1
1 1 1
1 1 1
2 2 2
2 2 2
2 2 2
2 2 2
2 2 2
4 4 4
4 4 4
4 4 4
5 5 5
5 5 5
5 5 5
5 5 5
5 5 5
6 6 6
5 5 5
4 4 4
4 4 4
3 3 3
4 4 4
4 4 4
4 4 4
3 3 3
6 6 6
5 5 5
9 9 9
6 6 6
12 12 12
7 7 7
12 12 12
19 19 19
13 13 13
36 36 36
8 8 8
9 9 9
75 75 75
21 21 21
2 2 2
0 0 0
0 0 0
2 2 2
2 2 2
1 1 1
1 1 1
1 1 1
1 1 1
1 1 1
1 1 1
1 1 1
2 2 2
2 2 2
2 2 2
2 2 2
2 2 2
2 2 2
2 2 2
3 3 3
4 4 4
4 4 4
4 4 4
5 5 5
5 5 5
5 5 5
5 5 5
5 5 5
6 6 6
4 4 4
4 4 4
5 5 5
5 5 5
5 5 5
4 4 4
4 4 4
5 5 5
6 6 6
13 13 13
7 7 7
5 5 5
10 10 10
22 22 22
28 28 28
16 16 16
31 31 31
7 7 7
11 11 11
75 75 75
8 8 8
2 2 2
0 0 0
0 0 0
2 2 2
2 2 2
1 1 1
2 2 2
1 1 1
1 1 1
1 1 1
1 1 1
2 2 2
1 1 1
2 2 2
2 2 2
2 2 2
2 2 2
2 2 2
2 2 2
2 2 2
2 2 2
3 3 3
4 4 4
5 5 5
5 5 5
5 5 5
5 5 5
5 5 5
6 6 6
5 5 5
5 5 5
5 5 5
5 5 5
5 5 5
4 4 4
4 4 4
3 3 3
4 4 4
11 11 11
13 13 13
17 17 17
22 22 22
22 22 22
18 18 18
32 32 32
6 6 6
8 8 8
14 14 14
61 61 61
2 2 2
2 2 2
0 0 0
0 0 0
2 2 2
2 2 2
2 2 2
2 2 2
1 1 1
1 1 1
1 1 1
1 1 1
2 2 2
1 1 1
1 1 1
2 2 2
2 2 2
2 2 2
2 2 2
2 2 2
2 2 2
2 2 2
3 3 3
3 3 3
4 4 4
4 4 4
4 4 4
5 5 5
5 5 5
5 5 5
5 5 5
5 5 5
5 5 5
5 5 5
5 5 5
4 4 4
4 4 4
3 3 3
2 2 2
11 11 11
6 6 6
4 4 4
10 10 10
18 18 18
18 18 18
52 52 52
6 6 6
10 10 10
17 17 17
9 9 9
2 2 2
2 2 2
0 0 0
0 0 0
2 2 2
2 2 2
2 2 2
2 2 2
1 1 1
1 1 1
1 1 1
1 1 1
2 2 2
2 2 2
1 1 1
2 2 2
2 2 2
2 2 2
2 2 2
2 2 2
2 2 2
2 2 2
2 2 2
3 3 3
3 3 3
3 3 3
4 4 4
4 4 4
4 4 4
5 5 5
5 5 5
5 5 5
4 4 4
4 4 4
5 5 5
4 4 4
6 6 6
10 10 10
8 8 8
12 12 12
11 11 11
3 3 3
8 8 8
17 17 17
16 16 16
47 47 47
8 8 8
13 13 13
32 32 32
2 2 2
2 2 2
2 2 2
0 0 0
0 0 0
2 2 2
2 2 2
2 2 2
2 2 2
1 1 1
2 2 2
1 1 1
1 1 1
1 1 1
2 2 2
2 2 2
1 1 1
1 1 1
2 2 2
2 2 2
2 2 2
2 2 2
2 2 2
2 2 2
2 2 2
3 3 3
3 3 3
2 2 2
3 3 3
4 4 4
4 4 4
5 5 5
5 5 5
5 5 5
4 4 4
5 5 5
6 6 6
6 6 6
15 15 15
6 6 6
10 10 10
13 13 13
10 10 10
17 17 17
13 13 13
17 17 17
28 28 28
9 9 9
16 16 16
2 2 2
2 2 2
2 2 2
2 2 2
0 0 0
0 0 0
2 2 2
2 2 2
2 2 2
2 2 2
2 2 2
2 2 2
2 2 2
1 1 1
2 2 2
1 1 1
2 2 2
1 1 1
2 2 2
2 2 2
2 2 2
2 2 2
2 2 2
2 2 2
2 2 2
2 2 2
3 3 3
3 3 3
3 3 3
3 3 3
3 3 3
3 3 3
3 3 3
14 14 14
10 10 10
8 8 8
9 9 9
16 16 16
13 13 13
6 6 6
15 15 15
11 11 11
13 13 13
13 13 13
15 15 15
16 16 16
11 11 11
15 15 15
14 14 14
5 5 5
2 2 2
2 2 2
2 2 2
2 2 2
0 0 0
0 0 0
2 2 2
2 2 2
2 2 2
2 2 2
2 2 2
2 2 2
1 1 1
1 1 1
1 1 1
2 2 2
2 2 2
1 1 1
2 2 2
2 2 2
2 2 2
2 2 2
2 2 2
2 2 2
2 2 2
2 2 2
2 2 2
2 2 2
2 2 2
2 2 2
8 8 8
6 6 6
8 8 8
8 8 8
10 10 10
10 10 10
11 11 11
14 14 14
10 10 10
5 5 5
7 7 7
24 24 24
14 14 14
17 17 17
26 26 26
12 12 12
30 30 30
13 13 13
10 10 10
2 2 2
2 2 2
2 2 2
2 2 2
2 2 2
0 0 0
0 0 0
2 2 2
2 2 2
2 2 2
2 2 2
2 2 2
2 2 2
2 2 2
2 2 2
1 1 1
1 1 1
1 1 1
1 1 1
2 2 2
2 2 2
2 2 2
2 2 2
2 2 2
2 2 2
2 2 2
2 2 2
2 2 2
2 2 2
2 2 2
2 2 2
3 3 3
6 6 6
6 6 6
3 3 3
12 12 12
4 4 4
12 12 12
9 9 9
9 9 9
21 21 21
11 11 11
24 24 24
23 23 23
12 12 12
26 26 26
16 16 16
47 47 47
18 18 18
2 2 2
2 2 2
2 2 2
2 2 2
2 2 2
2 2 2
0 0 0
0 0 0
2 2 2
2 2 2
2 2 2
2 2 2
2 2 2
2 2 2
2 2 2
2 2 2
1 1 1
1 1 1
1 1 1
1 1 1
1 1 1
1 1 1
2 2 2
2 2 2
1 1 1
2 2 2
2 2 2
2 2 2
2 2 2
2 2 2
2 2 2
2 2 2
2 2 2
2 2 2
3 3 3
3 3 3
10 10 10
3 3 3
10 10 10
6 6 6
9 9 9
16 16 16
21 21 21
10 10 10
19 19 19
17 17 17
25 25 25
23 23 23
11 11 11
2 2 2
2 2 2
2 2 2
2 2 2
2 2 2
2 2 2
2 2 2
0 0 0
0 0 0
2 2 2
2 2 2
2 2 2
2 2 2
2 2 2
2 2 2
2 2 2
2 2 2
2 2 2
2 2 2
1 1 1
1 1 1
1 1 1
2 2 2
1 1 1
2 2 2
2 2 2
2 2 2
2 2 2
2 2 2
2 2 2
2 2 2
2 2 2
2 2 2
3 3 3
3 3 3
3 3 3
3 3 3
9 9 9
3 3 3
5 5 5
9 9 9
14 14 14
9 9 9
12 12 12
7 7 7
9 9 9
21 21 21
28 28 28
6 6 6
2 2 2
2 2 2
2 2 2
2 2 2
2 2 2
2 2 2
2 2 2
2 2 2
0 0 0
0 0 0
2 2 2
2 2 2
2 2 2
2 2 2
2 2 2
2 2 2
2 2 2
2 2 2
2 2 2
2 2 2
2 2 2
1 1 1
1 1 1
2 2 2
1 1 1
2 2 2
2 2 2
2 2 2
2 2 2
2 2 2
2 2 2
2 2 2
2 2 2
2 2 2
2 2 2
3 3 3
2 2 2
3 3 3
3 3 3
3 3 3
4 4 4
13 13 13
6 6 6
12 12 12
15 15 15
12 12 12
13 13 13
27 27 27
2 2 2
2 2 2
2 2 2
2 2 2
2 2 2
2 2 2
2 2 2
2 2 2
2 2 2
2 2 2
0 0 0
0 0 0
2 2 2
2 2 2
2 2 2
2 2 2
2 2 2
2 2 2
2 2 2
2 2 2
2 2 2
2 2 2
2 2 2
2 2 2
1 1 1
1 1 1
1 1 1
1 1 1
2 2 2
2 2 2
2 2 2
2 2 2
2 2 2
2 2 2
2 2 2
2 2 2
2 2 2
2 2 2
3 3 3
3 3 3
3 3 3
3 3 3
4 4 4
11 11 11
7 7 7
21 21 21
13 13 13
20 20 20
3 3 3
2 2 2
2 2 2
2 2 2
2 2 2
2 2 2
2 2 2
2 2 2
2 2 2
2 2 2
2 2 2
2 2 2
0 0 0
0 0 0
2 2 2
2 2 2
2 2 2
2 2 2
2 2 2
2 2 2
2 2 2
2 2 2
2 2 2
2 2 2
2 2 2
2 2 2
2 2 2
2 2 2
1 1 1
1 1 1
1 1 1
1 1 1
2 2 2
2 2 2
2 2 2
2 2 2
2 2 2
2 2 2
3 3 3
2 2 2
3 3 3
3 3 3
3 3 3
4 4 4
6 6 6
9 9 9
14 14 14
21 21 21
4 4 4
2 2 2
2 2 2
2 2 2
2 2 2
2 2 2
2 2 2
2 2 2
2 2 2
2 2 2
2 2 2
2 2 2
2 2 2
2 2 2
0 0 0
0 0 0
2 2 2
2 2 2
2 2 2
2 2 2
2 2 2
2 2 2
2 2 2
2 2 2
2 2 2
2 2 2
2 2 2
2 2 2
2 2 2
2 2 2
2 2 2
2 2 2
1 1 1
2 2 2
2 2 2
2 2 2
2 2 2
2 2 2
2 2 2
3 3 3
3 3 3
3 3 3
3 3 3
4 4 4
4 4 4
5 5 5
10 10 10
14 14 14
2 2 2
2 2 2
2 2 2
2 2 2
2 2 2
2 2 2
2 2 2
2 2 2
2 2 2
2 2 2
2 2 2
2 2 2
2 2 2
2 2 2
2 2 2
2 2 2
0 0 0
0 0 0
0 0 0
0 0 0
0 0 0
0 0 0
0 0 0
0 0 0
0 0 0
0 0 0
0 0 0
0 0 0
0 0 0
0 0 0
0 0 0
0 0 0
0 0 0
0 0 0
0 0 0
0 0 0
0 0 0
0 0 0
0 0 0
0 0 0
0 0 0
0 0 0
0 0 0
0 0 0
0 0 0
0 0 0
0 0 0
0 0 0
0 0 0
0 0 0
0 0 0
0 0 0
0 0 0
0 0 0
0 0 0
0 0 0
0 0 0
0 0 0
0 0 0
0 0 0
0 0 0
0 0 0
0 0 0
0 0 0
0 0 0
0 0 0
0 0 0
