P3 
50 50 
255
0 0 0
0 0 0
0 0 0
0 0 0
0 0 0
0 0 0
0 0 0
0 0 0
0 0 0
0 0 0
0 0 0
0 0 0
0 0 0
0 0 0
0 0 0
0 0 0
0 0 0
0 0 0
0 0 0
0 0 0
0 0 0
0 0 0
0 0 0
0 0 0
0 0 0
0 0 0
0 0 0
0 0 0
0 0 0
0 0 0
0 0 0
0 0 0
0 0 0
0 0 0
0 0 0
0 0 0
0 0 0
0 0 0
0 0 0
0 0 0
0 0 0
0 0 0
0 0 0
0 0 0
0 0 0
0 0 0
0 0 0
0 0 0
0 0 0
0 0 0
0 0 0
2 2 2
2 2 2
2 2 2
2 2 2
2 2 2
2 2 2
2 2 2
2 2 2
2 2 2
2 2 2
2 2 2
2 2 2
2 2 2
2 2 2
2 2 2
2 2 2
1 1 1
9 9 9
17 17 17
4 4 4
4 4 4
13 13 13
0 0 0
2 2 2
2 2 2
3 3 3
4 4 4
4 4 4
3 3 3
6 6 6
10 10 10
3 3 3
2 2 2
2 2 2
2 2 2
2 2 2
2 2 2
2 2 2
2 2 2
2 2 2
2 2 2
2 2 2
2 2 2
2 2 2
2 2 2
2 2 2
2 2 2
2 2 2
0 0 0
0 0 0
2 2 2
2 2 2
2 2 2
2 2 2
2 2 2
2 2 2
2 2 2
2 2 2
2 2 2
2 2 2
2 2 2
2 2 2
2 2 2
2 2 2
0 0 0
0 0 0
2 2 2
13 13 13
11 11 11
8 8 8
12 12 12
2 2 2
2 2 2
2 2 2
3 3 3
4 4 4
2 2 2
4 4 4
4 4 4
5 5 5
6 6 6
5 5 5
6 6 6
8 8 8
2 2 2
2 2 2
2 2 2
2 2 2
2 2 2
2 2 2
2 2 2
2 2 2
2 2 2
2 2 2
2 2 2
2 2 2
2 2 2
2 2 2
0 0 0
0 0 0
2 2 2
2 2 2
2 2 2
2 2 2
2 2 2
2 2 2
2 2 2
2 2 2
2 2 2
2 2 2
2 2 2
2 2 2
1 1 1
0 0 0
0 0 0
0 0 0
5 5 5
20 20 20
17 17 17
15 15 15
4 4 4
2 2 2
2 2 2
1 1 1
4 4 4
6 6 6
3 3 3
8 8 8
10 10 10
8 8 8
7 7 7
7 7 7
8 8 8
6 6 6
5 5 5
16 16 16
2 2 2
2 2 2
2 2 2
2 2 2
2 2 2
2 2 2
2 2 2
2 2 2
2 2 2
2 2 2
2 2 2
2 2 2
0 0 0
0 0 0
2 2 2
2 2 2
2 2 2
2 2 2
2 2 2
2 2 2
2 2 2
2 2 2
2 2 2
2 2 2
3 3 3
0 0 0
8 8 8
0 0 0
0 0 0
0 0 0
12 12 12
36 36 36
10 10 10
6 6 6
2 2 2
1 1 1
1 1 1
4 4 4
8 8 8
4 4 4
10 10 10
5 5 5
9 9 9
3 3 3
4 4 4
9 9 9
8 8 8
10 10 10
11 11 11
5 5 5
11 11 11
7 7 7
2 2 2
2 2 2
2 2 2
2 2 2
2 2 2
2 2 2
2 2 2
2 2 2
2 2 2
2 2 2
0 0 0
0 0 0
2 2 2
2 2 2
2 2 2
2 2 2
2 2 2
2 2 2
2 2 2
2 2 2
2 2 2
8 8 8
19 19 19
2 2 2
11 11 11
0 0 0
2 2 2
11 11 11
19 19 19
19 19 19
5 5 5
6 6 6
0 0 0
1 1 1
3 3 3
5 5 5
8 8 8
11 11 11
11 11 11
11 11 11
9 9 9
8 8 8
2 2 2
8 8 8
4 4 4
6 6 6
6 6 6
4 4 4
6 6 6
6 6 6
11 11 11
2 2 2
2 2 2
2 2 2
2 2 2
2 2 2
2 2 2
2 2 2
2 2 2
2 2 2
0 0 0
0 0 0
2 2 2
2 2 2
2 2 2
2 2 2
2 2 2
2 2 2
2 2 2
2 2 2
8 8 8
8 8 8
18 18 18
9 9 9
10 10 10
0 0 0
0 0 0
3 3 3
28 28 28
11 11 11
8 8 8
3 3 3
1 1 1
2 2 2
3 3 3
4 4 4
11 11 11
20 20 20
2 2 2
0 0 0
3 3 3
3 3 3
4 4 4
12 12 12
16 16 16
11 11 11
2 2 2
4 4 4
6 6 6
8 8 8
12 12 12
17 17 17
5 5 5
2 2 2
2 2 2
2 2 2
2 2 2
2 2 2
2 2 2
2 2 2
0 0 0
0 0 0
2 2 2
2 2 2
2 2 2
2 2 2
2 2 2
2 2 2
2 2 2
5 5 5
6 6 6
10 10 10
21 21 21
15 15 15
5 5 5
0 0 0
0 0 0
8 8 8
39 39 39
9 9 9
7 7 7
0 0 0
2 2 2
1 1 1
4 4 4
13 13 13
15 15 15
7 7 7
7 7 7
2 2 2
7 7 7
8 8 8
10 10 10
2 2 2
3 3 3
9 9 9
15 15 15
5 5 5
11 11 11
9 9 9
12 12 12
9 9 9
15 15 15
7 7 7
2 2 2
2 2 2
2 2 2
2 2 2
2 2 2
2 2 2
0 0 0
0 0 0
2 2 2
2 2 2
2 2 2
2 2 2
2 2 2
2 2 2
5 5 5
9 9 9
8 8 8
13 13 13
18 18 18
19 19 19
3 3 3
0 0 0
0 0 0
18 18 18
28 28 28
7 7 7
3 3 3
50 50 50
63 63 63
66 66 66
61 61 61
74 74 74
1 1 1
0 0 0
3 3 3
5 5 5
5 5 5
31 31 31
10 10 10
11 11 11
12 12 12
5 5 5
0 0 0
10 10 10
5 5 5
5 5 5
4 4 4
6 6 6
8 8 8
49 49 49
4 4 4
2 2 2
2 2 2
2 2 2
2 2 2
2 2 2
0 0 0
0 0 0
2 2 2
2 2 2
2 2 2
2 2 2
2 2 2
1 1 1
4 4 4
11 11 11
10 10 10
11 11 11
17 17 17
28 28 28
1 1 1
0 0 0
1 1 1
31 31 31
37 37 37
68 68 68
73 73 73
83 83 83
81 81 81
82 82 82
77 77 77
81 81 81
79 79 79
75 75 75
62 62 62
20 20 20
5 5 5
10 10 10
2 2 2
4 4 4
9 9 9
7 7 7
5 5 5
13 13 13
9 9 9
11 11 11
9 9 9
8 8 8
8 8 8
14 14 14
17 17 17
2 2 2
2 2 2
2 2 2
2 2 2
2 2 2
0 0 0
0 0 0
2 2 2
2 2 2
2 2 2
2 2 2
0 0 0
0 0 0
1 1 1
15 15 15
5 5 5
13 13 13
15 15 15
45 45 45
54 54 54
49 49 49
74 74 74
134 134 134
89 89 89
80 80 80
83 83 83
78 78 78
72 72 72
73 73 73
84 84 84
86 86 86
87 87 87
86 86 86
89 89 89
90 90 90
90 90 90
78 78 78
23 23 23
8 8 8
8 8 8
12 12 12
6 6 6
5 5 5
4 4 4
12 12 12
8 8 8
9 9 9
10 10 10
9 9 9
37 37 37
20 20 20
2 2 2
2 2 2
2 2 2
2 2 2
0 0 0
0 0 0
2 2 2
2 2 2
2 2 2
1 1 1
0 0 0
0 0 0
1 1 1
11 11 11
6 6 6
14 14 14
19 19 19
124 124 124
64 64 64
53 53 53
94 94 94
132 132 132
82 82 82
78 78 78
124 124 124
183 183 183
85 85 85
84 84 84
84 84 84
86 86 86
84 84 84
89 89 89
89 89 89
90 90 90
90 90 90
94 94 94
89 89 89
57 57 57
11 11 11
16 16 16
7 7 7
7 7 7
8 8 8
4 4 4
9 9 9
3 3 3
7 7 7
10 10 10
46 46 46
15 15 15
20 20 20
2 2 2
2 2 2
2 2 2
0 0 0
0 0 0
2 2 2
2 2 2
2 2 2
4 4 4
0 0 0
0 0 0
0 0 0
4 4 4
8 8 8
6 6 6
76 76 76
111 111 111
74 74 74
74 74 74
112 112 112
91 91 91
114 114 114
86 86 86
119 119 119
88 88 88
84 84 84
89 89 89
91 91 91
89 89 89
89 89 89
88 88 88
86 86 86
89 89 89
94 94 94
91 91 91
88 88 88
87 87 87
83 83 83
39 39 39
12 12 12
6 6 6
6 6 6
7 7 7
5 5 5
11 11 11
5 5 5
5 5 5
29 29 29
13 13 13
17 17 17
6 6 6
2 2 2
2 2 2
0 0 0
0 0 0
2 2 2
2 2 2
4 4 4
5 5 5
5 5 5
0 0 0
0 0 0
2 2 2
17 17 17
3 3 3
83 83 83
91 91 91
78 78 78
112 112 112
149 149 149
111 111 111
51 51 51
143 143 143
92 92 92
100 100 100
89 89 89
90 90 90
107 107 107
103 103 103
94 94 94
90 90 90
88 88 88
91 91 91
87 87 87
84 84 84
86 86 86
87 87 87
83 83 83
82 82 82
73 73 73
12 12 12
6 6 6
8 8 8
7 7 7
12 12 12
10 10 10
5 5 5
16 16 16
6 6 6
14 14 14
88 88 88
2 2 2
2 2 2
0 0 0
0 0 0
2 2 2
2 2 2
6 6 6
10 10 10
8 8 8
5 5 5
0 0 0
1 1 1
28 28 28
65 65 65
78 78 78
79 79 79
57 57 57
127 127 127
50 50 50
115 115 115
185 185 185
109 109 109
87 87 87
93 93 93
103 103 103
101 101 101
117 117 117
119 119 119
94 94 94
93 93 93
86 86 86
85 85 85
81 81 81
86 86 86
85 85 85
89 89 89
91 91 91
86 86 86
83 83 83
79 79 79
15 15 15
12 12 12
18 18 18
9 9 9
15 15 15
12 12 12
9 9 9
11 11 11
11 11 11
77 77 77
5 5 5
2 2 2
0 0 0
0 0 0
2 2 2
0 0 0
1 1 1
4 4 4
8 8 8
6 6 6
4 4 4
3 3 3
49 49 49
108 108 108
119 119 119
126 126 126
224 224 224
167 167 167
126 126 126
60 60 60
89 89 89
105 105 105
104 104 104
93 93 93
99 99 99
95 95 95
101 101 101
94 94 94
123 123 123
95 95 95
90 90 90
87 87 87
82 82 82
85 85 85
89 89 89
91 91 91
89 89 89
88 88 88
92 92 92
84 84 84
58 58 58
4 4 4
11 11 11
2 2 2
5 5 5
6 6 6
4 4 4
21 21 21
7 7 7
63 63 63
22 22 22
2 2 2
0 0 0
0 0 0
2 2 2
2 2 2
2 2 2
2 2 2
18 18 18
18 18 18
19 19 19
6 6 6
81 81 81
152 152 152
207 207 207
143 143 143
174 174 174
144 144 144
243 243 243
110 110 110
90 90 90
83 83 83
88 88 88
82 82 82
93 93 93
93 93 93
103 103 103
102 102 102
160 160 160
154 154 154
122 122 122
82 82 82
79 79 79
84 84 84
84 84 84
85 85 85
88 88 88
87 87 87
89 89 89
89 89 89
82 82 82
25 25 25
16 16 16
5 5 5
5 5 5
4 4 4
9 9 9
44 44 44
8 8 8
47 47 47
13 13 13
3 3 3
0 0 0
0 0 0
1 1 1
1 1 1
3 3 3
3 3 3
8 8 8
33 33 33
48 48 48
134 134 134
135 135 135
92 92 92
13 13 13
46 46 46
72 72 72
47 47 47
195 195 195
116 116 116
94 94 94
81 81 81
91 91 91
85 85 85
87 87 87
141 141 141
108 108 108
108 108 108
174 174 174
171 171 171
166 166 166
115 115 115
77 77 77
84 84 84
88 88 88
86 86 86
84 84 84
88 88 88
89 89 89
91 91 91
86 86 86
26 26 26
9 9 9
7 7 7
4 4 4
4 4 4
10 10 10
29 29 29
8 8 8
32 32 32
15 15 15
17 17 17
0 0 0
0 0 0
0 0 0
1 1 1
1 1 1
2 2 2
7 7 7
44 44 44
120 120 120
156 156 156
185 185 185
177 177 177
88 88 88
90 90 90
156 156 156
6 6 6
194 194 194
101 101 101
93 93 93
90 90 90
86 86 86
98 98 98
85 85 85
156 156 156
125 125 125
117 117 117
120 120 120
91 91 91
156 156 156
152 152 152
81 81 81
81 81 81
85 85 85
88 88 88
85 85 85
87 87 87
89 89 89
89 89 89
88 88 88
24 24 24
4 4 4
14 14 14
3 3 3
4 4 4
4 4 4
13 13 13
10 10 10
23 23 23
16 16 16
16 16 16
0 0 0
0 0 0
5 5 5
8 8 8
7 7 7
7 7 7
3 3 3
54 54 54
57 57 57
69 69 69
139 139 139
32 32 32
116 116 116
115 115 115
177 177 177
15 15 15
175 175 175
109 109 109
106 106 106
92 92 92
83 83 83
94 94 94
91 91 91
116 116 116
142 142 142
108 108 108
89 89 89
86 86 86
87 87 87
151 151 151
135 135 135
83 83 83
82 82 82
83 83 83
84 84 84
85 85 85
90 90 90
89 89 89
84 84 84
20 20 20
5 5 5
16 16 16
6 6 6
4 4 4
5 5 5
11 11 11
10 10 10
17 17 17
17 17 17
11 11 11
0 0 0
0 0 0
0 0 0
0 0 0
0 0 0
0 0 0
0 0 0
43 43 43
49 49 49
87 87 87
105 105 105
46 46 46
110 110 110
155 155 155
118 118 118
30 30 30
157 157 157
122 122 122
96 96 96
73 73 73
55 55 55
86 86 86
89 89 89
123 123 123
129 129 129
101 101 101
88 88 88
88 88 88
89 89 89
138 138 138
109 109 109
102 102 102
80 80 80
80 80 80
82 82 82
82 82 82
90 90 90
92 92 92
84 84 84
39 39 39
9 9 9
10 10 10
11 11 11
3 3 3
10 10 10
19 19 19
6 6 6
13 13 13
21 21 21
9 9 9
0 0 0
0 0 0
0 0 0
0 0 0
0 0 0
0 0 0
6 6 6
77 77 77
38 38 38
82 82 82
83 83 83
72 72 72
59 59 59
190 190 190
67 67 67
85 85 85
159 159 159
111 111 111
101 101 101
68 68 68
35 35 35
84 84 84
82 82 82
145 145 145
114 114 114
112 112 112
92 92 92
92 92 92
91 91 91
150 150 150
110 110 110
86 86 86
84 84 84
83 83 83
81 81 81
84 84 84
86 86 86
89 89 89
82 82 82
65 65 65
14 14 14
7 7 7
10 10 10
5 5 5
8 8 8
34 34 34
8 8 8
11 11 11
26 26 26
12 12 12
0 0 0
0 0 0
0 0 0
0 0 0
0 0 0
0 0 0
12 12 12
94 94 94
32 32 32
32 32 32
55 55 55
80 80 80
43 43 43
185 185 185
75 75 75
135 135 135
153 153 153
120 120 120
105 105 105
97 97 97
10 10 10
78 78 78
93 93 93
98 98 98
130 130 130
99 99 99
91 91 91
90 90 90
88 88 88
151 151 151
136 136 136
82 82 82
82 82 82
77 77 77
79 79 79
80 80 80
86 86 86
86 86 86
83 83 83
65 65 65
5 5 5
4 4 4
13 13 13
10 10 10
8 8 8
44 44 44
5 5 5
8 8 8
28 28 28
11 11 11
0 0 0
0 0 0
0 0 0
0 0 0
0 0 0
0 0 0
0 0 0
50 50 50
130 130 130
2 2 2
23 23 23
61 61 61
33 33 33
150 150 150
117 117 117
164 164 164
149 149 149
117 117 117
111 111 111
99 99 99
25 25 25
108 108 108
108 108 108
132 132 132
143 143 143
133 133 133
103 103 103
86 86 86
172 172 172
152 152 152
82 82 82
80 80 80
83 83 83
78 78 78
78 78 78
80 80 80
87 87 87
87 87 87
82 82 82
65 65 65
6 6 6
5 5 5
10 10 10
12 12 12
12 12 12
46 46 46
6 6 6
8 8 8
30 30 30
10 10 10
0 0 0
0 0 0
1 1 1
0 0 0
0 0 0
2 2 2
0 0 0
45 45 45
101 101 101
76 76 76
43 43 43
19 19 19
36 36 36
85 85 85
60 60 60
163 163 163
132 132 132
132 132 132
119 119 119
111 111 111
60 60 60
112 112 112
93 93 93
132 132 132
129 129 129
112 112 112
131 131 131
160 160 160
176 176 176
137 137 137
79 79 79
81 81 81
84 84 84
83 83 83
77 77 77
85 85 85
88 88 88
90 90 90
84 84 84
55 55 55
12 12 12
8 8 8
16 16 16
7 7 7
13 13 13
40 40 40
8 8 8
6 6 6
31 31 31
11 11 11
0 0 0
0 0 0
0 0 0
0 0 0
5 5 5
3 3 3
4 4 4
1 1 1
8 8 8
67 67 67
65 65 65
8 8 8
0 0 0
147 147 147
202 202 202
214 214 214
205 205 205
209 209 209
104 104 104
97 97 97
71 71 71
78 78 78
79 79 79
77 77 77
120 120 120
115 115 115
161 161 161
132 132 132
102 102 102
89 89 89
89 89 89
87 87 87
87 87 87
85 85 85
89 89 89
90 90 90
89 89 89
90 90 90
83 83 83
33 33 33
9 9 9
7 7 7
13 13 13
11 11 11
10 10 10
45 45 45
10 10 10
11 11 11
32 32 32
13 13 13
0 0 0
0 0 0
1 1 1
2 2 2
0 0 0
0 0 0
1 1 1
1 1 1
0 0 0
3 3 3
79 79 79
64 64 64
46 46 46
160 160 160
215 215 215
156 156 156
161 161 161
116 116 116
53 53 53
62 62 62
71 71 71
89 89 89
91 91 91
93 93 93
91 91 91
89 89 89
102 102 102
90 90 90
89 89 89
89 89 89
86 86 86
81 81 81
87 87 87
90 90 90
90 90 90
90 90 90
89 89 89
81 81 81
56 56 56
26 26 26
12 12 12
14 14 14
11 11 11
14 14 14
14 14 14
43 43 43
9 9 9
14 14 14
27 27 27
12 12 12
0 0 0
0 0 0
1 1 1
0 0 0
1 1 1
0 0 0
1 1 1
1 1 1
1 1 1
1 1 1
27 27 27
102 102 102
217 217 217
189 189 189
44 44 44
93 93 93
50 50 50
3 3 3
92 92 92
82 82 82
89 89 89
85 85 85
87 87 87
85 85 85
86 86 86
97 97 97
96 96 96
87 87 87
86 86 86
84 84 84
82 82 82
83 83 83
86 86 86
88 88 88
88 88 88
81 81 81
81 81 81
59 59 59
27 27 27
22 22 22
12 12 12
6 6 6
21 21 21
10 10 10
7 7 7
39 39 39
8 8 8
22 22 22
24 24 24
14 14 14
0 0 0
0 0 0
1 1 1
1 1 1
1 1 1
1 1 1
3 3 3
0 0 0
3 3 3
5 5 5
16 16 16
108 108 108
150 150 150
79 79 79
61 61 61
254 254 254
74 74 74
9 9 9
5 5 5
90 90 90
67 67 67
74 74 74
79 79 79
80 80 80
84 84 84
104 104 104
88 88 88
85 85 85
81 81 81
81 81 81
83 83 83
83 83 83
89 89 89
89 89 89
79 79 79
86 86 86
20 20 20
28 28 28
25 25 25
22 22 22
8 8 8
9 9 9
16 16 16
5 5 5
6 6 6
30 30 30
8 8 8
26 26 26
21 21 21
14 14 14
0 0 0
0 0 0
1 1 1
1 1 1
1 1 1
2 2 2
0 0 0
4 4 4
10 10 10
5 5 5
14 14 14
33 33 33
70 70 70
69 69 69
110 110 110
195 195 195
97 97 97
133 133 133
143 143 143
30 30 30
58 58 58
95 95 95
73 73 73
77 77 77
81 81 81
85 85 85
86 86 86
81 81 81
82 82 82
84 84 84
85 85 85
87 87 87
88 88 88
82 82 82
66 66 66
14 14 14
25 25 25
33 33 33
9 9 9
22 22 22
8 8 8
13 13 13
6 6 6
5 5 5
13 13 13
24 24 24
7 7 7
22 22 22
19 19 19
12 12 12
0 0 0
0 0 0
0 0 0
1 1 1
1 1 1
5 5 5
3 3 3
6 6 6
3 3 3
11 11 11
14 14 14
39 39 39
0 0 0
6 6 6
132 132 132
124 124 124
92 92 92
126 126 126
68 68 68
71 71 71
56 56 56
93 93 93
119 119 119
59 59 59
79 79 79
77 77 77
79 79 79
82 82 82
87 87 87
87 87 87
87 87 87
83 83 83
69 69 69
18 18 18
31 31 31
23 23 23
15 15 15
4 4 4
3 3 3
11 11 11
9 9 9
9 9 9
10 10 10
9 9 9
18 18 18
26 26 26
10 10 10
25 25 25
16 16 16
14 14 14
0 0 0
0 0 0
1 1 1
5 5 5
5 5 5
1 1 1
1 1 1
3 3 3
3 3 3
11 11 11
13 13 13
45 45 45
1 1 1
5 5 5
49 49 49
99 99 99
82 82 82
108 108 108
80 80 80
63 63 63
79 79 79
65 65 65
69 69 69
69 69 69
65 65 65
72 72 72
77 77 77
81 81 81
86 86 86
86 86 86
77 77 77
13 13 13
5 5 5
20 20 20
11 11 11
4 4 4
1 1 1
1 1 1
14 14 14
4 4 4
18 18 18
13 13 13
22 22 22
7 7 7
7 7 7
36 36 36
12 12 12
30 30 30
14 14 14
21 21 21
0 0 0
0 0 0
1 1 1
1 1 1
1 1 1
0 0 0
3 3 3
4 4 4
5 5 5
8 8 8
15 15 15
30 30 30
1 1 1
9 9 9
38 38 38
25 25 25
32 32 32
96 96 96
83 83 83
73 73 73
59 59 59
70 70 70
59 59 59
69 69 69
78 78 78
80 80 80
38 38 38
13 13 13
19 19 19
6 6 6
0 0 0
12 12 12
6 6 6
3 3 3
3 3 3
1 1 1
1 1 1
2 2 2
3 3 3
6 6 6
18 18 18
18 18 18
15 15 15
19 19 19
9 9 9
50 50 50
9 9 9
39 39 39
14 14 14
29 29 29
0 0 0
0 0 0
2 2 2
2 2 2
0 0 0
4 4 4
3 3 3
2 2 2
6 6 6
9 9 9
15 15 15
14 14 14
1 1 1
4 4 4
28 28 28
24 24 24
4 4 4
19 19 19
17 17 17
2 2 2
0 0 0
0 0 0
1 1 1
0 0 0
1 1 1
0 0 0
3 3 3
2 2 2
0 0 0
0 0 0
0 0 0
3 3 3
1 1 1
1 1 1
1 1 1
0 0 0
1 1 1
3 3 3
3 3 3
6 6 6
8 8 8
8 8 8
12 12 12
10 10 10
18 18 18
36 36 36
7 7 7
51 51 51
13 13 13
2 2 2
0 0 0
0 0 0
2 2 2
1 1 1
2 2 2
3 3 3
2 2 2
4 4 4
3 3 3
9 9 9
25 25 25
6 6 6
1 1 1
2 2 2
22 22 22
19 19 19
3 3 3
11 11 11
25 25 25
4 4 4
2 2 2
0 0 0
2 2 2
2 2 2
0 0 0
0 0 0
0 0 0
26 26 26
1 1 1
0 0 0
0 0 0
0 0 0
0 0 0
0 0 0
0 0 0
1 1 1
1 1 1
1 1 1
3 3 3
3 3 3
13 13 13
11 11 11
13 13 13
11 11 11
15 15 15
13 13 13
10 10 10
63 63 63
24 24 24
2 2 2
0 0 0
0 0 0
2 2 2
2 2 2
4 4 4
3 3 3
3 3 3
3 3 3
8 8 8
13 13 13
24 24 24
3 3 3
0 0 0
0 0 0
18 18 18
17 17 17
10 10 10
5 5 5
25 25 25
6 6 6
4 4 4
0 0 0
1 1 1
2 2 2
2 2 2
0 0 0
0 0 0
8 8 8
25 25 25
6 6 6
0 0 0
0 0 0
0 0 0
1 1 1
1 1 1
0 0 0
0 0 0
1 1 1
9 9 9
10 10 10
9 9 9
17 17 17
27 27 27
8 8 8
24 24 24
8 8 8
11 11 11
70 70 70
8 8 8
2 2 2
0 0 0
0 0 0
2 2 2
2 2 2
2 2 2
2 2 2
3 3 3
7 7 7
6 6 6
9 9 9
21 21 21
1 1 1
0 0 0
0 0 0
16 16 16
13 13 13
8 8 8
12 12 12
29 29 29
22 22 22
2 2 2
1 1 1
0 0 0
1 1 1
1 1 1
1 1 1
0 0 0
0 0 0
0 0 0
2 2 2
1 1 1
0 0 0
0 0 0
0 0 0
1 1 1
1 1 1
0 0 0
0 0 0
7 7 7
7 7 7
4 4 4
27 27 27
11 11 11
10 10 10
43 43 43
6 6 6
15 15 15
71 71 71
2 2 2
2 2 2
0 0 0
0 0 0
2 2 2
2 2 2
2 2 2
3 3 3
5 5 5
6 6 6
8 8 8
15 15 15
13 13 13
1 1 1
0 0 0
0 0 0
14 14 14
7 7 7
5 5 5
2 2 2
14 14 14
21 21 21
6 6 6
1 1 1
0 0 0
0 0 0
2 2 2
0 0 0
1 1 1
0 0 0
0 0 0
0 0 0
1 1 1
0 0 0
0 0 0
1 1 1
2 2 2
1 1 1
0 0 0
1 1 1
7 7 7
3 3 3
7 7 7
28 28 28
6 6 6
7 7 7
18 18 18
9 9 9
15 15 15
10 10 10
2 2 2
2 2 2
0 0 0
0 0 0
2 2 2
2 2 2
2 2 2
2 2 2
8 8 8
5 5 5
6 6 6
21 21 21
8 8 8
0 0 0
0 0 0
1 1 1
11 11 11
5 5 5
5 5 5
2 2 2
14 14 14
13 13 13
18 18 18
2 2 2
5 5 5
0 0 0
3 3 3
5 5 5
1 1 1
1 1 1
0 0 0
0 0 0
0 0 0
1 1 1
1 1 1
2 2 2
3 3 3
3 3 3
2 2 2
0 0 0
1 1 1
2 2 2
18 18 18
20 20 20
15 15 15
18 18 18
8 8 8
14 14 14
34 34 34
2 2 2
2 2 2
2 2 2
0 0 0
0 0 0
2 2 2
2 2 2
2 2 2
2 2 2
4 4 4
5 5 5
7 7 7
18 18 18
6 6 6
0 0 0
0 0 0
4 4 4
9 9 9
4 4 4
5 5 5
1 1 1
16 16 16
18 18 18
4 4 4
15 15 15
4 4 4
3 3 3
0 0 0
4 4 4
2 2 2
1 1 1
0 0 0
1 1 1
2 2 2
1 1 1
2 2 2
5 5 5
2 2 2
3 3 3
4 4 4
2 2 2
6 6 6
9 9 9
8 8 8
9 9 9
9 9 9
44 44 44
8 8 8
16 16 16
2 2 2
2 2 2
2 2 2
2 2 2
0 0 0
0 0 0
2 2 2
2 2 2
2 2 2
2 2 2
2 2 2
6 6 6
12 12 12
9 9 9
3 3 3
0 0 0
1 1 1
8 8 8
8 8 8
3 3 3
4 4 4
0 0 0
15 15 15
15 15 15
4 4 4
4 4 4
10 10 10
2 2 2
4 4 4
0 0 0
3 3 3
3 3 3
3 3 3
2 2 2
1 1 1
2 2 2
1 1 1
3 3 3
3 3 3
1 1 1
4 4 4
10 10 10
6 6 6
11 11 11
8 8 8
14 14 14
10 10 10
20 20 20
11 11 11
5 5 5
2 2 2
2 2 2
2 2 2
2 2 2
0 0 0
0 0 0
2 2 2
2 2 2
2 2 2
2 2 2
2 2 2
2 2 2
15 15 15
9 9 9
1 1 1
0 0 0
0 0 0
9 9 9
8 8 8
2 2 2
4 4 4
0 0 0
14 14 14
11 11 11
7 7 7
2 2 2
2 2 2
5 5 5
2 2 2
0 0 0
2 2 2
3 3 3
3 3 3
2 2 2
3 3 3
0 0 0
2 2 2
2 2 2
5 5 5
8 8 8
2 2 2
2 2 2
5 5 5
14 14 14
4 4 4
12 12 12
27 27 27
13 13 13
8 8 8
2 2 2
2 2 2
2 2 2
2 2 2
2 2 2
0 0 0
0 0 0
2 2 2
2 2 2
2 2 2
2 2 2
2 2 2
2 2 2
2 2 2
5 5 5
0 0 0
0 0 0
0 0 0
8 8 8
6 6 6
1 1 1
1 1 1
1 1 1
11 11 11
9 9 9
9 9 9
3 3 3
3 3 3
3 3 3
3 3 3
3 3 3
1 1 1
3 3 3
7 7 7
4 4 4
2 2 2
3 3 3
3 3 3
8 8 8
15 15 15
13 13 13
7 7 7
20 20 20
7 7 7
16 16 16
6 6 6
11 11 11
42 42 42
15 15 15
2 2 2
2 2 2
2 2 2
2 2 2
2 2 2
2 2 2
0 0 0
0 0 0
2 2 2
2 2 2
2 2 2
2 2 2
2 2 2
2 2 2
2 2 2
2 2 2
0 0 0
0 0 0
0 0 0
6 6 6
4 4 4
2 2 2
0 0 0
2 2 2
8 8 8
8 8 8
11 11 11
5 5 5
3 3 3
3 3 3
2 2 2
4 4 4
1 1 1
2 2 2
3 3 3
4 4 4
3 3 3
8 8 8
12 12 12
8 8 8
6 6 6
9 9 9
18 18 18
23 23 23
14 14 14
11 11 11
13 13 13
17 17 17
9 9 9
2 2 2
2 2 2
2 2 2
2 2 2
2 2 2
2 2 2
2 2 2
0 0 0
0 0 0
2 2 2
2 2 2
2 2 2
2 2 2
2 2 2
2 2 2
2 2 2
2 2 2
2 2 2
0 0 0
0 0 0
5 5 5
3 3 3
2 2 2
1 1 1
1 1 1
7 7 7
7 7 7
12 12 12
5 5 5
2 2 2
2 2 2
3 3 3
3 3 3
3 3 3
0 0 0
0 0 0
10 10 10
7 7 7
7 7 7
9 9 9
6 6 6
3 3 3
17 17 17
22 22 22
4 4 4
6 6 6
15 15 15
12 12 12
4 4 4
2 2 2
2 2 2
2 2 2
2 2 2
2 2 2
2 2 2
2 2 2
2 2 2
0 0 0
0 0 0
2 2 2
2 2 2
2 2 2
2 2 2
2 2 2
2 2 2
2 2 2
2 2 2
2 2 2
2 2 2
0 0 0
4 4 4
3 3 3
1 1 1
0 0 0
2 2 2
4 4 4
8 8 8
11 11 11
4 4 4
2 2 2
0 0 0
3 3 3
1 1 1
1 1 1
1 1 1
7 7 7
11 11 11
2 2 2
9 9 9
7 7 7
8 8 8
13 13 13
12 12 12
11 11 11
9 9 9
17 17 17
17 17 17
2 2 2
2 2 2
2 2 2
2 2 2
2 2 2
2 2 2
2 2 2
2 2 2
2 2 2
2 2 2
0 0 0
0 0 0
2 2 2
2 2 2
2 2 2
2 2 2
2 2 2
2 2 2
2 2 2
2 2 2
2 2 2
2 2 2
2 2 2
2 2 2
2 2 2
1 1 1
0 0 0
1 1 1
4 4 4
8 8 8
10 10 10
5 5 5
3 3 3
3 3 3
3 3 3
1 1 1
2 2 2
4 4 4
10 10 10
5 5 5
4 4 4
10 10 10
8 8 8
16 16 16
21 21 21
5 5 5
16 16 16
17 17 17
3 3 3
2 2 2
2 2 2
2 2 2
2 2 2
2 2 2
2 2 2
2 2 2
2 2 2
2 2 2
2 2 2
2 2 2
0 0 0
0 0 0
2 2 2
2 2 2
2 2 2
2 2 2
2 2 2
2 2 2
2 2 2
2 2 2
2 2 2
2 2 2
2 2 2
2 2 2
2 2 2
2 2 2
0 0 0
0 0 0
4 4 4
10 10 10
8 8 8
8 8 8
4 4 4
2 2 2
2 2 2
2 2 2
4 4 4
5 5 5
2 2 2
0 0 0
2 2 2
7 7 7
8 8 8
14 14 14
13 13 13
14 14 14
3 3 3
2 2 2
2 2 2
2 2 2
2 2 2
2 2 2
2 2 2
2 2 2
2 2 2
2 2 2
2 2 2
2 2 2
2 2 2
2 2 2
0 0 0
0 0 0
2 2 2
2 2 2
2 2 2
2 2 2
2 2 2
2 2 2
2 2 2
2 2 2
2 2 2
2 2 2
2 2 2
2 2 2
2 2 2
2 2 2
2 2 2
2 2 2
3 3 3
9 9 9
7 7 7
8 8 8
5 5 5
4 4 4
0 0 0
1 1 1
1 1 1
6 6 6
1 1 1
3 3 3
2 2 2
11 11 11
14 14 14
24 24 24
2 2 2
2 2 2
2 2 2
2 2 2
2 2 2
2 2 2
2 2 2
2 2 2
2 2 2
2 2 2
2 2 2
2 2 2
2 2 2
2 2 2
2 2 2
2 2 2
0 0 0
0 0 0
0 0 0
0 0 0
0 0 0
0 0 0
0 0 0
0 0 0
0 0 0
0 0 0
0 0 0
0 0 0
0 0 0
0 0 0
0 0 0
0 0 0
0 0 0
0 0 0
0 0 0
0 0 0
0 0 0
0 0 0
0 0 0
0 0 0
0 0 0
0 0 0
0 0 0
0 0 0
0 0 0
0 0 0
0 0 0
0 0 0
0 0 0
0 0 0
0 0 0
0 0 0
0 0 0
0 0 0
0 0 0
0 0 0
0 0 0
0 0 0
0 0 0
0 0 0
0 0 0
0 0 0
0 0 0
0 0 0
0 0 0
0 0 0
0 0 0
