P3 
50 50 
255
0 0 0
0 0 0
0 0 0
0 0 0
0 0 0
0 0 0
0 0 0
0 0 0
0 0 0
0 0 0
0 0 0
0 0 0
0 0 0
0 0 0
0 0 0
0 0 0
0 0 0
0 0 0
0 0 0
0 0 0
0 0 0
0 0 0
0 0 0
0 0 0
0 0 0
0 0 0
0 0 0
0 0 0
0 0 0
0 0 0
0 0 0
0 0 0
0 0 0
0 0 0
0 0 0
0 0 0
0 0 0
0 0 0
0 0 0
0 0 0
0 0 0
0 0 0
0 0 0
0 0 0
0 0 0
0 0 0
0 0 0
0 0 0
0 0 0
0 0 0
0 0 0
2 2 2
2 2 2
2 2 2
2 2 2
2 2 2
2 2 2
2 2 2
2 2 2
2 2 2
2 2 2
2 2 2
2 2 2
2 2 2
2 2 2
2 2 2
2 2 2
2 2 2
0 0 0
0 0 0
11 11 11
3 3 3
1 1 1
3 3 3
3 3 3
3 3 3
3 3 3
3 3 3
3 3 3
4 4 4
6 6 6
10 10 10
4 4 4
2 2 2
2 2 2
2 2 2
2 2 2
2 2 2
2 2 2
2 2 2
2 2 2
2 2 2
2 2 2
2 2 2
2 2 2
2 2 2
2 2 2
2 2 2
2 2 2
0 0 0
0 0 0
2 2 2
2 2 2
2 2 2
2 2 2
2 2 2
2 2 2
2 2 2
2 2 2
2 2 2
2 2 2
2 2 2
2 2 2
2 2 2
2 2 2
0 0 0
1 1 1
1 1 1
11 11 11
6 6 6
2 2 2
2 2 2
2 2 2
2 2 2
3 3 3
3 3 3
3 3 3
3 3 3
3 3 3
9 9 9
9 9 9
6 6 6
6 6 6
5 5 5
8 8 8
2 2 2
2 2 2
2 2 2
2 2 2
2 2 2
2 2 2
2 2 2
2 2 2
2 2 2
2 2 2
2 2 2
2 2 2
2 2 2
2 2 2
0 0 0
0 0 0
2 2 2
2 2 2
2 2 2
2 2 2
2 2 2
2 2 2
2 2 2
2 2 2
2 2 2
2 2 2
2 2 2
2 2 2
1 1 1
0 0 0
1 1 1
2 2 2
4 4 4
3 3 3
3 3 3
3 3 3
2 2 2
1 1 1
1 1 1
2 2 2
1 1 1
3 3 3
6 6 6
18 18 18
20 20 20
15 15 15
13 13 13
11 11 11
12 12 12
11 11 11
9 9 9
14 14 14
2 2 2
2 2 2
2 2 2
2 2 2
2 2 2
2 2 2
2 2 2
2 2 2
2 2 2
2 2 2
2 2 2
2 2 2
0 0 0
0 0 0
2 2 2
2 2 2
2 2 2
2 2 2
2 2 2
2 2 2
2 2 2
2 2 2
2 2 2
2 2 2
1 1 1
0 0 0
2 2 2
2 2 2
2 2 2
3 3 3
3 3 3
3 3 3
3 3 3
3 3 3
4 4 4
2 2 2
4 4 4
10 10 10
8 8 8
7 7 7
22 22 22
42 42 42
57 57 57
15 15 15
4 4 4
7 7 7
9 9 9
8 8 8
6 6 6
14 14 14
18 18 18
6 6 6
2 2 2
2 2 2
2 2 2
2 2 2
2 2 2
2 2 2
2 2 2
2 2 2
2 2 2
2 2 2
0 0 0
0 0 0
2 2 2
2 2 2
2 2 2
2 2 2
2 2 2
2 2 2
2 2 2
2 2 2
2 2 2
1 1 1
2 2 2
2 2 2
3 3 3
2 2 2
3 3 3
3 3 3
3 3 3
3 3 3
3 3 3
4 4 4
2 2 2
4 4 4
17 17 17
46 46 46
86 86 86
87 87 87
74 74 74
62 62 62
89 89 89
81 81 81
12 12 12
3 3 3
10 10 10
3 3 3
9 9 9
3 3 3
9 9 9
9 9 9
13 13 13
2 2 2
2 2 2
2 2 2
2 2 2
2 2 2
2 2 2
2 2 2
2 2 2
2 2 2
0 0 0
0 0 0
2 2 2
2 2 2
2 2 2
2 2 2
2 2 2
2 2 2
2 2 2
2 2 2
2 2 2
2 2 2
2 2 2
3 3 3
3 3 3
3 3 3
4 4 4
4 4 4
4 4 4
3 3 3
3 3 3
1 1 1
8 8 8
76 76 76
91 91 91
37 37 37
20 20 20
2 2 2
18 18 18
76 76 76
64 64 64
8 8 8
5 5 5
10 10 10
12 12 12
7 7 7
3 3 3
3 3 3
4 4 4
4 4 4
15 15 15
9 9 9
4 4 4
2 2 2
2 2 2
2 2 2
2 2 2
2 2 2
2 2 2
2 2 2
0 0 0
0 0 0
2 2 2
2 2 2
2 2 2
2 2 2
2 2 2
2 2 2
2 2 2
2 2 2
2 2 2
2 2 2
2 2 2
3 3 3
3 3 3
3 3 3
4 4 4
2 2 2
1 1 1
1 1 1
9 9 9
73 73 73
83 83 83
86 86 86
87 87 87
17 17 17
54 54 54
78 78 78
85 85 85
83 83 83
83 83 83
74 74 74
42 42 42
22 22 22
5 5 5
5 5 5
5 5 5
5 5 5
5 5 5
11 11 11
4 4 4
15 15 15
15 15 15
9 9 9
2 2 2
2 2 2
2 2 2
2 2 2
2 2 2
2 2 2
0 0 0
0 0 0
2 2 2
2 2 2
2 2 2
2 2 2
2 2 2
2 2 2
3 3 3
3 3 3
3 3 3
3 3 3
2 2 2
3 3 3
4 4 4
3 3 3
7 7 7
71 71 71
80 80 80
80 80 80
81 81 81
85 85 85
85 85 85
86 86 86
91 91 91
73 73 73
87 87 87
103 103 103
187 187 187
165 165 165
173 173 173
130 130 130
98 98 98
81 81 81
63 63 63
34 34 34
11 11 11
8 8 8
9 9 9
5 5 5
4 4 4
14 14 14
15 15 15
52 52 52
4 4 4
2 2 2
2 2 2
2 2 2
2 2 2
2 2 2
0 0 0
0 0 0
2 2 2
2 2 2
2 2 2
2 2 2
2 2 2
3 3 3
3 3 3
1 1 1
2 2 2
3 3 3
3 3 3
3 3 3
3 3 3
3 3 3
78 78 78
79 79 79
84 84 84
85 85 85
85 85 85
85 85 85
84 84 84
87 87 87
87 87 87
84 84 84
134 134 134
153 153 153
73 73 73
66 66 66
126 126 126
195 195 195
182 182 182
180 180 180
109 109 109
77 77 77
37 37 37
12 12 12
15 15 15
12 12 12
13 13 13
12 12 12
6 6 6
13 13 13
17 17 17
2 2 2
2 2 2
2 2 2
2 2 2
2 2 2
0 0 0
0 0 0
2 2 2
2 2 2
2 2 2
2 2 2
3 3 3
2 2 2
2 2 2
2 2 2
2 2 2
1 1 1
7 7 7
4 4 4
31 31 31
80 80 80
81 81 81
89 89 89
88 88 88
86 86 86
84 84 84
109 109 109
168 168 168
97 97 97
82 82 82
94 94 94
80 80 80
92 92 92
115 115 115
146 146 146
81 81 81
171 171 171
197 197 197
189 189 189
194 194 194
200 200 200
112 112 112
78 78 78
37 37 37
17 17 17
10 10 10
6 6 6
13 13 13
6 6 6
50 50 50
18 18 18
2 2 2
2 2 2
2 2 2
2 2 2
0 0 0
0 0 0
2 2 2
2 2 2
2 2 2
2 2 2
3 3 3
2 2 2
1 1 1
2 2 2
2 2 2
81 81 81
77 77 77
77 77 77
78 78 78
80 80 80
89 89 89
87 87 87
86 86 86
95 95 95
152 152 152
120 120 120
116 116 116
82 82 82
79 79 79
156 156 156
195 195 195
65 65 65
118 118 118
102 102 102
104 104 104
100 100 100
93 93 93
98 98 98
143 143 143
183 183 183
196 196 196
114 114 114
86 86 86
68 68 68
11 11 11
20 20 20
12 12 12
6 6 6
21 21 21
16 16 16
20 20 20
2 2 2
2 2 2
2 2 2
0 0 0
0 0 0
2 2 2
2 2 2
2 2 2
2 2 2
2 2 2
2 2 2
2 2 2
2 2 2
38 38 38
76 76 76
76 76 76
85 85 85
87 87 87
86 86 86
108 108 108
130 130 130
133 133 133
121 121 121
85 85 85
84 84 84
86 86 86
83 83 83
107 107 107
162 162 162
165 165 165
52 52 52
92 92 92
88 88 88
87 87 87
88 88 88
87 87 87
87 87 87
87 87 87
119 119 119
188 188 188
201 201 201
133 133 133
90 90 90
49 49 49
13 13 13
12 12 12
8 8 8
13 13 13
18 18 18
16 16 16
6 6 6
2 2 2
2 2 2
0 0 0
0 0 0
2 2 2
2 2 2
2 2 2
2 2 2
2 2 2
2 2 2
2 2 2
1 1 1
74 74 74
75 75 75
74 74 74
81 81 81
87 87 87
87 87 87
78 78 78
84 84 84
86 86 86
81 81 81
86 86 86
85 85 85
84 84 84
78 78 78
135 135 135
106 106 106
103 103 103
125 125 125
89 89 89
86 86 86
88 88 88
88 88 88
88 88 88
88 88 88
88 88 88
87 87 87
167 167 167
187 187 187
192 192 192
135 135 135
93 93 93
24 24 24
11 11 11
13 13 13
7 7 7
29 29 29
13 13 13
88 88 88
2 2 2
2 2 2
0 0 0
0 0 0
2 2 2
2 2 2
2 2 2
2 2 2
2 2 2
2 2 2
2 2 2
1 1 1
78 78 78
75 75 75
76 76 76
79 79 79
79 79 79
86 86 86
76 76 76
80 80 80
80 80 80
86 86 86
85 85 85
82 82 82
83 83 83
84 84 84
90 90 90
92 92 92
103 103 103
121 121 121
90 90 90
87 87 87
88 88 88
88 88 88
89 89 89
89 89 89
89 89 89
88 88 88
99 99 99
173 173 173
185 185 185
196 196 196
132 132 132
85 85 85
26 26 26
9 9 9
9 9 9
43 43 43
11 11 11
76 76 76
5 5 5
2 2 2
0 0 0
0 0 0
2 2 2
2 2 2
1 1 1
2 2 2
3 3 3
3 3 3
1 1 1
4 4 4
77 77 77
76 76 76
85 85 85
82 82 82
86 86 86
84 84 84
77 77 77
79 79 79
99 99 99
84 84 84
86 86 86
83 83 83
82 82 82
88 88 88
89 89 89
90 90 90
121 121 121
142 142 142
98 98 98
87 87 87
88 88 88
88 88 88
88 88 88
89 89 89
89 89 89
89 89 89
88 88 88
121 121 121
173 173 173
194 194 194
192 192 192
125 125 125
75 75 75
20 20 20
15 15 15
38 38 38
8 8 8
52 52 52
23 23 23
2 2 2
0 0 0
0 0 0
2 2 2
2 2 2
2 2 2
2 2 2
2 2 2
2 2 2
0 0 0
78 78 78
80 80 80
81 81 81
95 95 95
173 173 173
107 107 107
138 138 138
96 96 96
122 122 122
85 85 85
85 85 85
84 84 84
85 85 85
87 87 87
88 88 88
89 89 89
94 94 94
101 101 101
176 176 176
89 89 89
87 87 87
88 88 88
88 88 88
88 88 88
89 89 89
89 89 89
89 89 89
88 88 88
95 95 95
172 172 172
192 192 192
203 203 203
177 177 177
94 94 94
24 24 24
12 12 12
22 22 22
8 8 8
35 35 35
14 14 14
3 3 3
0 0 0
0 0 0
2 2 2
2 2 2
2 2 2
2 2 2
3 3 3
4 4 4
82 82 82
87 87 87
95 95 95
97 97 97
72 72 72
119 119 119
104 104 104
169 169 169
94 94 94
111 111 111
83 83 83
83 83 83
86 86 86
84 84 84
86 86 86
85 85 85
87 87 87
119 119 119
137 137 137
155 155 155
85 85 85
86 86 86
88 88 88
87 87 87
88 88 88
89 89 89
89 89 89
89 89 89
88 88 88
90 90 90
164 164 164
188 188 188
199 199 199
203 203 203
102 102 102
35 35 35
6 6 6
13 13 13
9 9 9
23 23 23
15 15 15
17 17 17
0 0 0
0 0 0
2 2 2
1 1 1
2 2 2
3 3 3
1 1 1
86 86 86
96 96 96
168 168 168
115 115 115
119 119 119
108 108 108
117 117 117
92 92 92
85 85 85
105 105 105
98 98 98
82 82 82
84 84 84
80 80 80
86 86 86
87 87 87
87 87 87
97 97 97
90 90 90
92 92 92
85 85 85
86 86 86
89 89 89
88 88 88
88 88 88
88 88 88
88 88 88
89 89 89
89 89 89
89 89 89
89 89 89
161 161 161
179 179 179
201 201 201
210 210 210
98 98 98
39 39 39
6 6 6
5 5 5
12 12 12
17 17 17
16 16 16
19 19 19
0 0 0
0 0 0
1 1 1
1 1 1
2 2 2
1 1 1
59 59 59
83 83 83
153 153 153
148 148 148
133 133 133
76 76 76
54 54 54
48 48 48
60 60 60
80 80 80
89 89 89
67 67 67
33 33 33
26 26 26
4 4 4
67 67 67
88 88 88
87 87 87
115 115 115
139 139 139
87 87 87
85 85 85
86 86 86
88 88 88
88 88 88
88 88 88
88 88 88
88 88 88
88 88 88
88 88 88
89 89 89
100 100 100
174 174 174
176 176 176
198 198 198
213 213 213
108 108 108
42 42 42
14 14 14
13 13 13
10 10 10
13 13 13
15 15 15
14 14 14
0 0 0
0 0 0
1 1 1
0 0 0
1 1 1
0 0 0
87 87 87
107 107 107
167 167 167
118 118 118
59 59 59
2 2 2
2 2 2
8 8 8
12 12 12
20 20 20
83 83 83
79 79 79
23 23 23
6 6 6
1 1 1
1 1 1
89 89 89
88 88 88
106 106 106
91 91 91
87 87 87
87 87 87
87 87 87
87 87 87
88 88 88
88 88 88
88 88 88
88 88 88
91 91 91
112 112 112
178 178 178
168 168 168
145 145 145
171 171 171
198 198 198
216 216 216
111 111 111
24 24 24
15 15 15
13 13 13
9 9 9
10 10 10
20 20 20
13 13 13
0 0 0
0 0 0
0 0 0
0 0 0
0 0 0
0 0 0
87 87 87
145 145 145
120 120 120
157 157 157
89 89 89
8 8 8
4 4 4
7 7 7
11 11 11
11 11 11
58 58 58
91 91 91
48 48 48
14 14 14
2 2 2
2 2 2
53 53 53
91 91 91
95 95 95
91 91 91
86 86 86
87 87 87
87 87 87
87 87 87
87 87 87
86 86 86
87 87 87
88 88 88
88 88 88
88 88 88
89 89 89
122 122 122
173 173 173
177 177 177
203 203 203
213 213 213
96 96 96
28 28 28
17 17 17
15 15 15
7 7 7
9 9 9
22 22 22
13 13 13
0 0 0
0 0 0
0 0 0
0 0 0
1 1 1
0 0 0
88 88 88
174 174 174
173 173 173
144 144 144
80 80 80
4 4 4
3 3 3
12 12 12
16 16 16
12 12 12
69 69 69
85 85 85
39 39 39
16 16 16
2 2 2
1 1 1
90 90 90
88 88 88
99 99 99
147 147 147
87 87 87
86 86 86
86 86 86
85 85 85
86 86 86
87 87 87
88 88 88
89 89 89
89 89 89
89 89 89
89 89 89
89 89 89
158 158 158
189 189 189
203 203 203
194 194 194
96 96 96
38 38 38
20 20 20
9 9 9
8 8 8
9 9 9
25 25 25
13 13 13
0 0 0
0 0 0
0 0 0
0 0 0
0 0 0
0 0 0
78 78 78
90 90 90
218 218 218
130 130 130
86 86 86
11 11 11
3 3 3
5 5 5
13 13 13
16 16 16
79 79 79
88 88 88
75 75 75
78 78 78
56 56 56
52 52 52
89 89 89
88 88 88
92 92 92
92 92 92
107 107 107
86 86 86
85 85 85
86 86 86
86 86 86
86 86 86
87 87 87
89 89 89
89 89 89
89 89 89
89 89 89
89 89 89
168 168 168
193 193 193
199 199 199
147 147 147
91 91 91
33 33 33
17 17 17
15 15 15
9 9 9
8 8 8
26 26 26
12 12 12
0 0 0
0 0 0
0 0 0
0 0 0
0 0 0
0 0 0
18 18 18
80 80 80
168 168 168
162 162 162
139 139 139
94 94 94
86 86 86
84 84 84
69 69 69
68 68 68
85 85 85
105 105 105
96 96 96
86 86 86
87 87 87
86 86 86
84 84 84
87 87 87
91 91 91
113 113 113
113 113 113
177 177 177
133 133 133
86 86 86
86 86 86
86 86 86
88 88 88
88 88 88
89 89 89
89 89 89
88 88 88
90 90 90
179 179 179
199 199 199
169 169 169
109 109 109
83 83 83
23 23 23
20 20 20
22 22 22
8 8 8
8 8 8
26 26 26
11 11 11
0 0 0
0 0 0
0 0 0
0 0 0
1 1 1
2 2 2
0 0 0
36 36 36
80 80 80
106 106 106
116 116 116
145 145 145
112 112 112
102 102 102
207 207 207
138 138 138
100 100 100
112 112 112
93 93 93
87 87 87
85 85 85
83 83 83
86 86 86
87 87 87
87 87 87
95 95 95
128 128 128
111 111 111
146 146 146
94 94 94
85 85 85
87 87 87
87 87 87
88 88 88
88 88 88
88 88 88
89 89 89
111 111 111
194 194 194
193 193 193
121 121 121
89 89 89
58 58 58
7 7 7
20 20 20
16 16 16
9 9 9
8 8 8
26 26 26
12 12 12
0 0 0
0 0 0
1 1 1
0 0 0
1 1 1
0 0 0
1 1 1
0 0 0
29 29 29
80 80 80
83 83 83
140 140 140
137 137 137
186 186 186
167 167 167
196 196 196
104 104 104
85 85 85
94 94 94
87 87 87
89 89 89
83 83 83
83 83 83
87 87 87
88 88 88
89 89 89
136 136 136
98 98 98
109 109 109
100 100 100
88 88 88
88 88 88
87 87 87
88 88 88
88 88 88
89 89 89
91 91 91
155 155 155
200 200 200
133 133 133
93 93 93
71 71 71
18 18 18
17 17 17
16 16 16
19 19 19
10 10 10
8 8 8
24 24 24
13 13 13
0 0 0
0 0 0
1 1 1
1 1 1
1 1 1
1 1 1
1 1 1
1 1 1
0 0 0
56 56 56
75 75 75
78 78 78
84 84 84
88 88 88
92 92 92
91 91 91
70 70 70
77 77 77
81 81 81
83 83 83
84 84 84
84 84 84
81 81 81
80 80 80
85 85 85
89 89 89
99 99 99
97 97 97
108 108 108
106 106 106
87 87 87
87 87 87
87 87 87
88 88 88
88 88 88
88 88 88
119 119 119
197 197 197
149 149 149
98 98 98
85 85 85
43 43 43
18 18 18
8 8 8
22 22 22
9 9 9
10 10 10
9 9 9
22 22 22
14 14 14
0 0 0
0 0 0
0 0 0
1 1 1
1 1 1
1 1 1
1 1 1
2 2 2
1 1 1
0 0 0
76 76 76
76 76 76
74 74 74
76 76 76
83 83 83
84 84 84
84 84 84
75 75 75
85 85 85
80 80 80
78 78 78
85 85 85
84 84 84
83 83 83
129 129 129
100 100 100
86 86 86
117 117 117
132 132 132
138 138 138
103 103 103
88 88 88
89 89 89
87 87 87
88 88 88
105 105 105
186 186 186
193 193 193
105 105 105
86 86 86
37 37 37
22 22 22
28 28 28
14 14 14
13 13 13
16 16 16
11 11 11
10 10 10
20 20 20
14 14 14
0 0 0
0 0 0
1 1 1
1 1 1
1 1 1
1 1 1
1 1 1
1 1 1
1 1 1
2 2 2
1 1 1
78 78 78
78 78 78
77 77 77
85 85 85
87 87 87
85 85 85
103 103 103
148 148 148
146 146 146
126 126 126
85 85 85
87 87 87
86 86 86
85 85 85
89 89 89
90 90 90
116 116 116
73 73 73
123 123 123
128 128 128
155 155 155
117 117 117
111 111 111
138 138 138
187 187 187
204 204 204
123 123 123
87 87 87
42 42 42
25 25 25
13 13 13
13 13 13
15 15 15
12 12 12
24 24 24
11 11 11
12 12 12
18 18 18
13 13 13
0 0 0
0 0 0
1 1 1
1 1 1
1 1 1
2 2 2
2 2 2
1 1 1
1 1 1
3 3 3
1 1 1
0 0 0
28 28 28
79 79 79
79 79 79
87 87 87
87 87 87
88 88 88
88 88 88
92 92 92
99 99 99
162 162 162
126 126 126
184 184 184
82 82 82
85 85 85
105 105 105
31 31 31
106 106 106
92 92 92
74 74 74
118 118 118
213 213 213
211 211 211
211 211 211
193 193 193
94 94 94
73 73 73
11 11 11
5 5 5
19 19 19
18 18 18
29 29 29
17 17 17
9 9 9
17 17 17
10 10 10
17 17 17
14 14 14
14 14 14
0 0 0
0 0 0
1 1 1
1 1 1
2 2 2
2 2 2
1 1 1
1 1 1
2 2 2
1 1 1
2 2 2
2 2 2
1 1 1
26 26 26
78 78 78
77 77 77
83 83 83
89 89 89
89 89 89
89 89 89
88 88 88
86 86 86
87 87 87
88 88 88
86 86 86
87 87 87
132 132 132
138 138 138
70 70 70
17 17 17
18 18 18
122 122 122
211 211 211
174 174 174
105 105 105
80 80 80
30 30 30
3 3 3
6 6 6
11 11 11
9 9 9
10 10 10
24 24 24
9 9 9
16 16 16
24 24 24
10 10 10
22 22 22
13 13 13
18 18 18
0 0 0
0 0 0
2 2 2
1 1 1
2 2 2
2 2 2
2 2 2
1 1 1
1 1 1
2 2 2
2 2 2
2 2 2
3 3 3
1 1 1
10 10 10
74 74 74
76 76 76
78 78 78
78 78 78
81 81 81
80 80 80
84 84 84
86 86 86
88 88 88
87 87 87
91 91 91
91 91 91
131 131 131
198 198 198
167 167 167
155 155 155
173 173 173
114 114 114
86 86 86
63 63 63
3 3 3
3 3 3
3 3 3
11 11 11
13 13 13
16 16 16
16 16 16
13 13 13
11 11 11
22 22 22
44 44 44
9 9 9
32 32 32
13 13 13
29 29 29
0 0 0
0 0 0
2 2 2
1 1 1
1 1 1
1 1 1
1 1 1
1 1 1
1 1 1
2 2 2
1 1 1
1 1 1
1 1 1
2 2 2
1 1 1
0 0 0
16 16 16
62 62 62
76 76 76
77 77 77
72 72 72
73 73 73
80 80 80
86 86 86
91 91 91
60 60 60
58 58 58
80 80 80
90 90 90
82 82 82
81 81 81
60 60 60
38 38 38
10 10 10
1 1 1
6 6 6
4 4 4
3 3 3
4 4 4
12 12 12
14 14 14
13 13 13
25 25 25
9 9 9
29 29 29
49 49 49
9 9 9
50 50 50
13 13 13
2 2 2
0 0 0
0 0 0
2 2 2
1 1 1
2 2 2
1 1 1
1 1 1
1 1 1
2 2 2
2 2 2
1 1 1
2 2 2
2 2 2
2 2 2
1 1 1
2 2 2
2 2 2
1 1 1
1 1 1
2 2 2
1 1 1
1 1 1
4 4 4
69 69 69
92 92 92
15 15 15
0 0 0
0 0 0
61 61 61
84 84 84
53 53 53
1 1 1
0 0 0
0 0 0
0 0 0
1 1 1
3 3 3
4 4 4
3 3 3
11 11 11
3 3 3
16 16 16
15 15 15
15 15 15
23 23 23
17 17 17
10 10 10
71 71 71
22 22 22
2 2 2
0 0 0
0 0 0
2 2 2
2 2 2
1 1 1
1 1 1
1 1 1
2 2 2
2 2 2
2 2 2
2 2 2
2 2 2
2 2 2
2 2 2
1 1 1
2 2 2
2 2 2
3 3 3
3 3 3
3 3 3
3 3 3
2 2 2
2 2 2
1 1 1
9 9 9
10 10 10
3 3 3
2 2 2
1 1 1
0 0 0
64 64 64
85 85 85
55 55 55
3 3 3
3 3 3
2 2 2
3 3 3
10 10 10
10 10 10
9 9 9
12 12 12
15 15 15
15 15 15
22 22 22
33 33 33
8 8 8
11 11 11
81 81 81
8 8 8
2 2 2
0 0 0
0 0 0
2 2 2
2 2 2
2 2 2
1 1 1
1 1 1
1 1 1
2 2 2
2 2 2
1 1 1
1 1 1
2 2 2
2 2 2
1 1 1
2 2 2
3 3 3
3 3 3
2 2 2
3 3 3
3 3 3
2 2 2
2 2 2
2 2 2
2 2 2
2 2 2
3 3 3
2 2 2
1 1 1
1 1 1
54 54 54
47 47 47
2 2 2
3 3 3
4 4 4
5 5 5
4 4 4
11 11 11
9 9 9
10 10 10
9 9 9
6 6 6
19 19 19
7 7 7
52 52 52
9 9 9
14 14 14
75 75 75
2 2 2
2 2 2
0 0 0
0 0 0
2 2 2
2 2 2
2 2 2
1 1 1
2 2 2
1 1 1
1 1 1
2 2 2
1 1 1
2 2 2
2 2 2
2 2 2
2 2 2
3 3 3
4 4 4
4 4 4
3 3 3
2 2 2
2 2 2
2 2 2
2 2 2
2 2 2
2 2 2
2 2 2
2 2 2
1 1 1
3 3 3
4 4 4
1 1 1
1 1 1
3 3 3
5 5 5
5 5 5
4 4 4
5 5 5
7 7 7
5 5 5
11 11 11
21 21 21
12 12 12
9 9 9
8 8 8
28 28 28
10 10 10
16 16 16
11 11 11
2 2 2
2 2 2
0 0 0
0 0 0
2 2 2
2 2 2
2 2 2
2 2 2
1 1 1
1 1 1
2 2 2
1 1 1
2 2 2
1 1 1
2 2 2
1 1 1
3 3 3
3 3 3
4 4 4
3 3 3
4 4 4
3 3 3
2 2 2
2 2 2
2 2 2
2 2 2
2 2 2
2 2 2
2 2 2
4 4 4
4 4 4
3 3 3
2 2 2
4 4 4
4 4 4
4 4 4
4 4 4
5 5 5
4 4 4
4 4 4
10 10 10
8 8 8
14 14 14
19 19 19
24 24 24
20 20 20
11 11 11
12 12 12
33 33 33
2 2 2
2 2 2
2 2 2
0 0 0
0 0 0
2 2 2
2 2 2
2 2 2
2 2 2
1 1 1
2 2 2
1 1 1
1 1 1
2 2 2
3 3 3
3 3 3
3 3 3
3 3 3
3 3 3
3 3 3
3 3 3
4 4 4
4 4 4
2 2 2
2 2 2
4 4 4
4 4 4
4 4 4
2 2 2
3 3 3
4 4 4
3 3 3
2 2 2
2 2 2
5 5 5
5 5 5
3 3 3
4 4 4
4 4 4
4 4 4
5 5 5
12 12 12
18 18 18
18 18 18
29 29 29
8 8 8
38 38 38
11 11 11
16 16 16
2 2 2
2 2 2
2 2 2
2 2 2
0 0 0
0 0 0
2 2 2
2 2 2
2 2 2
2 2 2
2 2 2
1 1 1
1 1 1
1 1 1
2 2 2
2 2 2
3 3 3
3 3 3
3 3 3
3 3 3
3 3 3
3 3 3
3 3 3
18 18 18
12 12 12
7 7 7
4 4 4
4 4 4
4 4 4
4 4 4
3 3 3
4 4 4
3 3 3
3 3 3
4 4 4
3 3 3
4 4 4
4 4 4
4 4 4
5 5 5
11 11 11
12 12 12
16 16 16
27 27 27
26 26 26
29 29 29
16 16 16
30 30 30
14 14 14
5 5 5
2 2 2
2 2 2
2 2 2
2 2 2
0 0 0
0 0 0
2 2 2
2 2 2
2 2 2
2 2 2
2 2 2
2 2 2
1 1 1
1 1 1
1 1 1
1 1 1
3 3 3
3 3 3
3 3 3
3 3 3
3 3 3
3 3 3
3 3 3
2 2 2
3 3 3
24 24 24
5 5 5
4 4 4
4 4 4
4 4 4
6 6 6
4 4 4
3 3 3
2 2 2
4 4 4
4 4 4
4 4 4
4 4 4
4 4 4
13 13 13
12 12 12
25 25 25
7 7 7
26 26 26
14 14 14
10 10 10
20 20 20
14 14 14
10 10 10
2 2 2
2 2 2
2 2 2
2 2 2
2 2 2
0 0 0
0 0 0
2 2 2
2 2 2
2 2 2
2 2 2
2 2 2
2 2 2
2 2 2
1 1 1
1 1 1
1 1 1
1 1 1
2 2 2
3 3 3
3 3 3
4 4 4
3 3 3
3 3 3
2 2 2
1 1 1
4 4 4
7 7 7
5 5 5
4 4 4
3 3 3
4 4 4
3 3 3
3 3 3
3 3 3
4 4 4
4 4 4
4 4 4
6 6 6
13 13 13
14 14 14
13 13 13
11 11 11
15 15 15
14 14 14
8 8 8
13 13 13
45 45 45
17 17 17
2 2 2
2 2 2
2 2 2
2 2 2
2 2 2
2 2 2
0 0 0
0 0 0
2 2 2
2 2 2
2 2 2
2 2 2
2 2 2
2 2 2
2 2 2
2 2 2
1 1 1
1 1 1
1 1 1
1 1 1
2 2 2
2 2 2
0 0 0
2 2 2
1 1 1
2 2 2
2 2 2
2 2 2
7 7 7
7 7 7
4 4 4
3 3 3
3 3 3
3 3 3
3 3 3
3 3 3
4 4 4
10 10 10
6 6 6
14 14 14
18 18 18
7 7 7
3 3 3
17 17 17
24 24 24
17 17 17
9 9 9
18 18 18
10 10 10
2 2 2
2 2 2
2 2 2
2 2 2
2 2 2
2 2 2
2 2 2
0 0 0
0 0 0
2 2 2
2 2 2
2 2 2
2 2 2
2 2 2
2 2 2
2 2 2
2 2 2
2 2 2
1 1 1
1 1 1
2 2 2
1 1 1
1 1 1
1 1 1
1 1 1
1 1 1
2 2 2
2 2 2
2 2 2
2 2 2
2 2 2
13 13 13
1 1 1
12 12 12
10 10 10
8 8 8
4 4 4
9 9 9
18 18 18
18 18 18
10 10 10
11 11 11
11 11 11
15 15 15
29 29 29
16 16 16
22 22 22
15 15 15
5 5 5
2 2 2
2 2 2
2 2 2
2 2 2
2 2 2
2 2 2
2 2 2
2 2 2
0 0 0
0 0 0
2 2 2
2 2 2
2 2 2
2 2 2
2 2 2
2 2 2
2 2 2
2 2 2
2 2 2
2 2 2
1 1 1
1 1 1
1 1 1
1 1 1
1 1 1
1 1 1
1 1 1
1 1 1
1 1 1
1 1 1
2 2 2
2 2 2
1 1 1
15 15 15
15 15 15
3 3 3
8 8 8
9 9 9
6 6 6
12 12 12
17 17 17
23 23 23
9 9 9
16 16 16
24 24 24
15 15 15
14 14 14
22 22 22
2 2 2
2 2 2
2 2 2
2 2 2
2 2 2
2 2 2
2 2 2
2 2 2
2 2 2
2 2 2
0 0 0
0 0 0
2 2 2
2 2 2
2 2 2
2 2 2
2 2 2
2 2 2
2 2 2
2 2 2
2 2 2
2 2 2
2 2 2
2 2 2
1 1 1
0 0 0
1 1 1
1 1 1
2 2 2
1 1 1
2 2 2
2 2 2
2 2 2
1 1 1
1 1 1
1 1 1
21 21 21
8 8 8
10 10 10
2 2 2
3 3 3
14 14 14
14 14 14
13 13 13
8 8 8
24 24 24
15 15 15
24 24 24
4 4 4
2 2 2
2 2 2
2 2 2
2 2 2
2 2 2
2 2 2
2 2 2
2 2 2
2 2 2
2 2 2
2 2 2
0 0 0
0 0 0
2 2 2
2 2 2
2 2 2
2 2 2
2 2 2
2 2 2
2 2 2
2 2 2
2 2 2
2 2 2
2 2 2
2 2 2
2 2 2
2 2 2
1 1 1
1 1 1
1 1 1
1 1 1
1 1 1
2 2 2
1 1 1
2 2 2
1 1 1
1 1 1
3 3 3
13 13 13
3 3 3
3 3 3
6 6 6
10 10 10
11 11 11
12 12 12
15 15 15
17 17 17
3 3 3
2 2 2
2 2 2
2 2 2
2 2 2
2 2 2
2 2 2
2 2 2
2 2 2
2 2 2
2 2 2
2 2 2
2 2 2
2 2 2
0 0 0
0 0 0
2 2 2
2 2 2
2 2 2
2 2 2
2 2 2
2 2 2
2 2 2
2 2 2
2 2 2
2 2 2
2 2 2
2 2 2
2 2 2
2 2 2
2 2 2
2 2 2
2 2 2
1 1 1
1 1 1
2 2 2
2 2 2
1 1 1
2 2 2
2 2 2
11 11 11
11 11 11
5 5 5
12 12 12
5 5 5
12 12 12
12 12 12
21 21 21
2 2 2
2 2 2
2 2 2
2 2 2
2 2 2
2 2 2
2 2 2
2 2 2
2 2 2
2 2 2
2 2 2
2 2 2
2 2 2
2 2 2
2 2 2
2 2 2
0 0 0
0 0 0
0 0 0
0 0 0
0 0 0
0 0 0
0 0 0
0 0 0
0 0 0
0 0 0
0 0 0
0 0 0
0 0 0
0 0 0
0 0 0
0 0 0
0 0 0
0 0 0
0 0 0
0 0 0
0 0 0
0 0 0
0 0 0
0 0 0
0 0 0
0 0 0
0 0 0
0 0 0
0 0 0
0 0 0
0 0 0
0 0 0
0 0 0
0 0 0
0 0 0
0 0 0
0 0 0
0 0 0
0 0 0
0 0 0
0 0 0
0 0 0
0 0 0
0 0 0
0 0 0
0 0 0
0 0 0
0 0 0
0 0 0
0 0 0
0 0 0
