P3 
50 50 
255
0 0 0
0 0 0
0 0 0
0 0 0
0 0 0
0 0 0
0 0 0
0 0 0
0 0 0
0 0 0
0 0 0
0 0 0
0 0 0
0 0 0
0 0 0
0 0 0
0 0 0
0 0 0
0 0 0
0 0 0
0 0 0
0 0 0
0 0 0
0 0 0
0 0 0
0 0 0
0 0 0
0 0 0
0 0 0
0 0 0
0 0 0
0 0 0
0 0 0
0 0 0
0 0 0
0 0 0
0 0 0
0 0 0
0 0 0
0 0 0
0 0 0
0 0 0
0 0 0
0 0 0
0 0 0
0 0 0
0 0 0
0 0 0
0 0 0
0 0 0
0 0 0
2 2 2
2 2 2
2 2 2
2 2 2
2 2 2
2 2 2
2 2 2
2 2 2
2 2 2
2 2 2
2 2 2
2 2 2
2 2 2
2 2 2
2 2 2
2 2 2
2 2 2
1 1 1
2 2 2
10 10 10
4 4 4
4 4 4
4 4 4
4 4 4
4 4 4
4 4 4
5 5 5
6 6 6
7 7 7
10 10 10
11 11 11
4 4 4
2 2 2
2 2 2
2 2 2
2 2 2
2 2 2
2 2 2
2 2 2
2 2 2
2 2 2
2 2 2
2 2 2
2 2 2
2 2 2
2 2 2
2 2 2
2 2 2
0 0 0
0 0 0
2 2 2
2 2 2
2 2 2
2 2 2
2 2 2
2 2 2
2 2 2
2 2 2
2 2 2
2 2 2
2 2 2
2 2 2
2 2 2
2 2 2
1 1 1
1 1 1
1 1 1
2 2 2
12 12 12
4 4 4
4 4 4
3 3 3
3 3 3
3 3 3
5 5 5
4 4 4
4 4 4
7 7 7
5 5 5
5 5 5
14 14 14
14 14 14
18 18 18
22 22 22
2 2 2
2 2 2
2 2 2
2 2 2
2 2 2
2 2 2
2 2 2
2 2 2
2 2 2
2 2 2
2 2 2
2 2 2
2 2 2
2 2 2
0 0 0
0 0 0
2 2 2
2 2 2
2 2 2
2 2 2
2 2 2
2 2 2
2 2 2
2 2 2
2 2 2
2 2 2
2 2 2
2 2 2
1 1 1
1 1 1
1 1 1
2 2 2
2 2 2
15 15 15
4 4 4
4 4 4
4 4 4
3 3 3
2 2 2
3 3 3
2 2 2
4 4 4
10 10 10
19 19 19
10 10 10
7 7 7
10 10 10
12 12 12
7 7 7
9 9 9
9 9 9
13 13 13
2 2 2
2 2 2
2 2 2
2 2 2
2 2 2
2 2 2
2 2 2
2 2 2
2 2 2
2 2 2
2 2 2
2 2 2
0 0 0
0 0 0
2 2 2
2 2 2
2 2 2
2 2 2
2 2 2
2 2 2
2 2 2
2 2 2
2 2 2
2 2 2
1 1 1
0 0 0
1 1 1
1 1 1
1 1 1
3 3 3
13 13 13
4 4 4
4 4 4
4 4 4
4 4 4
3 3 3
2 2 2
3 3 3
11 11 11
15 15 15
8 8 8
7 7 7
9 9 9
9 9 9
14 14 14
21 21 21
15 15 15
16 16 16
17 17 17
11 11 11
16 16 16
8 8 8
2 2 2
2 2 2
2 2 2
2 2 2
2 2 2
2 2 2
2 2 2
2 2 2
2 2 2
2 2 2
0 0 0
0 0 0
2 2 2
2 2 2
2 2 2
2 2 2
2 2 2
2 2 2
2 2 2
2 2 2
2 2 2
1 1 1
1 1 1
1 1 1
1 1 1
2 2 2
6 6 6
5 5 5
4 4 4
4 4 4
4 4 4
5 5 5
5 5 5
4 4 4
7 7 7
5 5 5
9 9 9
9 9 9
16 16 16
33 33 33
66 66 66
84 84 84
86 86 86
81 81 81
79 79 79
81 81 81
45 45 45
14 14 14
15 15 15
14 14 14
20 20 20
2 2 2
2 2 2
2 2 2
2 2 2
2 2 2
2 2 2
2 2 2
2 2 2
2 2 2
0 0 0
0 0 0
2 2 2
2 2 2
2 2 2
2 2 2
2 2 2
2 2 2
2 2 2
2 2 2
1 1 1
1 1 1
1 1 1
2 2 2
2 2 2
2 2 2
5 5 5
3 3 3
4 4 4
5 5 5
4 4 4
5 5 5
4 4 4
10 10 10
10 10 10
6 6 6
46 46 46
79 79 79
90 90 90
107 107 107
156 156 156
176 176 176
176 176 176
167 167 167
172 172 172
184 184 184
154 154 154
92 92 92
55 55 55
10 10 10
14 14 14
12 12 12
4 4 4
2 2 2
2 2 2
2 2 2
2 2 2
2 2 2
2 2 2
2 2 2
0 0 0
0 0 0
2 2 2
2 2 2
2 2 2
2 2 2
2 2 2
2 2 2
2 2 2
1 1 1
2 2 2
1 1 1
2 2 2
2 2 2
1 1 1
8 8 8
4 4 4
4 4 4
5 5 5
5 5 5
5 5 5
5 5 5
19 19 19
43 43 43
80 80 80
91 91 91
125 125 125
173 173 173
170 170 170
172 172 172
172 172 172
159 159 159
144 144 144
138 138 138
147 147 147
162 162 162
147 147 147
158 158 158
185 185 185
99 99 99
51 51 51
10 10 10
12 12 12
12 12 12
2 2 2
2 2 2
2 2 2
2 2 2
2 2 2
2 2 2
0 0 0
0 0 0
2 2 2
2 2 2
2 2 2
2 2 2
2 2 2
2 2 2
1 1 1
2 2 2
1 1 1
2 2 2
2 2 2
1 1 1
14 14 14
4 4 4
4 4 4
4 4 4
4 4 4
18 18 18
53 53 53
85 85 85
97 97 97
126 126 126
154 154 154
151 151 151
172 172 172
104 104 104
89 89 89
88 88 88
87 87 87
86 86 86
86 86 86
87 87 87
87 87 87
87 87 87
107 107 107
166 166 166
159 159 159
153 153 153
165 165 165
80 80 80
13 13 13
33 33 33
5 5 5
2 2 2
2 2 2
2 2 2
2 2 2
2 2 2
0 0 0
0 0 0
2 2 2
2 2 2
2 2 2
2 2 2
2 2 2
1 1 1
1 1 1
1 1 1
1 1 1
2 2 2
1 1 1
17 17 17
5 5 5
5 5 5
2 2 2
15 15 15
84 84 84
97 97 97
161 161 161
165 165 165
124 124 124
95 95 95
88 88 88
97 97 97
87 87 87
87 87 87
87 87 87
87 87 87
87 87 87
87 87 87
86 86 86
87 87 87
87 87 87
87 87 87
87 87 87
87 87 87
142 142 142
158 158 158
154 154 154
174 174 174
71 71 71
15 15 15
32 32 32
2 2 2
2 2 2
2 2 2
2 2 2
2 2 2
0 0 0
0 0 0
2 2 2
2 2 2
2 2 2
2 2 2
1 1 1
1 1 1
2 2 2
1 1 1
1 1 1
1 1 1
6 6 6
7 7 7
3 3 3
3 3 3
80 80 80
147 147 147
160 160 160
136 136 136
85 85 85
86 86 86
86 86 86
87 87 87
87 87 87
87 87 87
86 86 86
87 87 87
87 87 87
86 86 86
87 87 87
87 87 87
87 87 87
87 87 87
87 87 87
88 88 88
88 88 88
87 87 87
88 88 88
100 100 100
169 169 169
156 156 156
185 185 185
83 83 83
35 35 35
21 21 21
2 2 2
2 2 2
2 2 2
2 2 2
0 0 0
0 0 0
2 2 2
2 2 2
2 2 2
2 2 2
1 1 1
1 1 1
1 1 1
0 0 0
1 1 1
1 1 1
13 13 13
2 2 2
66 66 66
90 90 90
184 184 184
130 130 130
93 93 93
85 85 85
85 85 85
86 86 86
86 86 86
86 86 86
86 86 86
87 87 87
87 87 87
86 86 86
87 87 87
87 87 87
87 87 87
87 87 87
87 87 87
87 87 87
87 87 87
87 87 87
87 87 87
87 87 87
87 87 87
88 88 88
93 93 93
173 173 173
156 156 156
162 162 162
64 64 64
31 31 31
22 22 22
2 2 2
2 2 2
2 2 2
0 0 0
0 0 0
2 2 2
2 2 2
2 2 2
1 1 1
0 0 0
1 1 1
0 0 0
0 0 0
1 1 1
17 17 17
4 4 4
70 70 70
145 145 145
159 159 159
114 114 114
85 85 85
86 86 86
86 86 86
86 86 86
86 86 86
87 87 87
86 86 86
86 86 86
87 87 87
86 86 86
86 86 86
87 87 87
87 87 87
87 87 87
87 87 87
86 86 86
87 87 87
87 87 87
87 87 87
87 87 87
88 88 88
88 88 88
87 87 87
88 88 88
137 137 137
166 166 166
171 171 171
89 89 89
43 43 43
19 19 19
7 7 7
2 2 2
2 2 2
0 0 0
0 0 0
2 2 2
2 2 2
1 1 1
0 0 0
0 0 0
0 0 0
1 1 1
1 1 1
4 4 4
6 6 6
64 64 64
89 89 89
177 177 177
145 145 145
85 85 85
86 86 86
86 86 86
86 86 86
86 86 86
85 85 85
86 86 86
86 86 86
87 87 87
87 87 87
87 87 87
86 86 86
87 87 87
86 86 86
87 87 87
86 86 86
87 87 87
86 86 86
87 87 87
87 87 87
87 87 87
88 88 88
88 88 88
88 88 88
86 86 86
88 88 88
167 167 167
152 152 152
169 169 169
33 33 33
17 17 17
89 89 89
2 2 2
2 2 2
0 0 0
0 0 0
2 2 2
2 2 2
1 1 1
1 1 1
0 0 0
0 0 0
1 1 1
0 0 0
24 24 24
13 13 13
81 81 81
183 183 183
157 157 157
88 88 88
85 85 85
86 86 86
86 86 86
86 86 86
86 86 86
86 86 86
87 87 87
87 87 87
86 86 86
87 87 87
87 87 87
87 87 87
87 87 87
87 87 87
86 86 86
87 87 87
86 86 86
87 87 87
87 87 87
88 88 88
88 88 88
88 88 88
87 87 87
88 88 88
88 88 88
88 88 88
90 90 90
169 169 169
186 186 186
74 74 74
17 17 17
83 83 83
5 5 5
2 2 2
0 0 0
0 0 0
2 2 2
1 1 1
0 0 0
1 1 1
1 1 1
0 0 0
2 2 2
4 4 4
18 18 18
66 66 66
110 110 110
90 90 90
134 134 134
86 86 86
86 86 86
86 86 86
86 86 86
86 86 86
86 86 86
86 86 86
86 86 86
86 86 86
87 87 87
87 87 87
87 87 87
87 87 87
87 87 87
87 87 87
87 87 87
87 87 87
86 86 86
86 86 86
87 87 87
87 87 87
87 87 87
87 87 87
89 89 89
88 88 88
88 88 88
87 87 87
87 87 87
147 147 147
176 176 176
86 86 86
26 26 26
65 65 65
26 26 26
2 2 2
0 0 0
0 0 0
2 2 2
1 1 1
0 0 0
1 1 1
1 1 1
2 2 2
2 2 2
9 9 9
9 9 9
80 80 80
197 197 197
2 2 2
157 157 157
85 85 85
86 86 86
86 86 86
86 86 86
86 86 86
86 86 86
86 86 86
86 86 86
86 86 86
87 87 87
87 87 87
87 87 87
87 87 87
87 87 87
86 86 86
87 87 87
86 86 86
86 86 86
87 87 87
87 87 87
87 87 87
87 87 87
88 88 88
88 88 88
88 88 88
88 88 88
88 88 88
87 87 87
128 128 128
174 174 174
88 88 88
44 44 44
45 45 45
16 16 16
3 3 3
0 0 0
0 0 0
2 2 2
1 1 1
1 1 1
1 1 1
0 0 0
3 3 3
3 3 3
9 9 9
10 10 10
85 85 85
146 146 146
5 5 5
117 117 117
87 87 87
87 87 87
86 86 86
86 86 86
87 87 87
86 86 86
86 86 86
85 85 85
86 86 86
86 86 86
87 87 87
87 87 87
87 87 87
86 86 86
86 86 86
86 86 86
85 85 85
86 86 86
87 87 87
87 87 87
87 87 87
86 86 86
87 87 87
87 87 87
88 88 88
88 88 88
88 88 88
88 88 88
134 134 134
168 168 168
92 92 92
53 53 53
32 32 32
17 17 17
19 19 19
0 0 0
0 0 0
2 2 2
1 1 1
1 1 1
2 2 2
1 1 1
1 1 1
3 3 3
7 7 7
10 10 10
113 113 113
47 47 47
115 115 115
87 87 87
87 87 87
87 87 87
87 87 87
86 86 86
86 86 86
87 87 87
86 86 86
86 86 86
85 85 85
85 85 85
85 85 85
85 85 85
85 85 85
85 85 85
85 85 85
85 85 85
86 86 86
87 87 87
87 87 87
87 87 87
87 87 87
87 87 87
86 86 86
87 87 87
88 88 88
88 88 88
88 88 88
87 87 87
137 137 137
169 169 169
94 94 94
52 52 52
24 24 24
16 16 16
21 21 21
0 0 0
0 0 0
1 1 1
2 2 2
2 2 2
1 1 1
1 1 1
1 1 1
2 2 2
4 4 4
24 24 24
157 157 157
10 10 10
113 113 113
87 87 87
87 87 87
86 86 86
86 86 86
86 86 86
86 86 86
86 86 86
86 86 86
86 86 86
86 86 86
85 85 85
86 86 86
86 86 86
85 85 85
86 86 86
85 85 85
85 85 85
87 87 87
87 87 87
87 87 87
87 87 87
87 87 87
87 87 87
86 86 86
87 87 87
87 87 87
88 88 88
89 89 89
91 91 91
117 117 117
177 177 177
94 94 94
37 37 37
23 23 23
15 15 15
16 16 16
0 0 0
0 0 0
2 2 2
2 2 2
2 2 2
1 1 1
2 2 2
1 1 1
1 1 1
2 2 2
65 65 65
170 170 170
72 72 72
139 139 139
89 89 89
86 86 86
86 86 86
85 85 85
86 86 86
86 86 86
86 86 86
86 86 86
87 87 87
86 86 86
87 87 87
86 86 86
86 86 86
86 86 86
86 86 86
85 85 85
86 86 86
86 86 86
87 87 87
87 87 87
87 87 87
87 87 87
87 87 87
87 87 87
88 88 88
88 88 88
88 88 88
88 88 88
89 89 89
107 107 107
160 160 160
94 94 94
45 45 45
25 25 25
16 16 16
15 15 15
0 0 0
0 0 0
1 1 1
1 1 1
1 1 1
2 2 2
2 2 2
2 2 2
2 2 2
0 0 0
58 58 58
166 166 166
2 2 2
161 161 161
87 87 87
86 86 86
87 87 87
86 86 86
86 86 86
86 86 86
86 86 86
87 87 87
86 86 86
86 86 86
86 86 86
86 86 86
85 85 85
86 86 86
86 86 86
85 85 85
85 85 85
87 87 87
87 87 87
87 87 87
87 87 87
87 87 87
87 87 87
87 87 87
88 88 88
87 87 87
87 87 87
88 88 88
88 88 88
92 92 92
167 167 167
96 96 96
45 45 45
30 30 30
18 18 18
16 16 16
0 0 0
0 0 0
1 1 1
1 1 1
1 1 1
1 1 1
2 2 2
1 1 1
2 2 2
1 1 1
33 33 33
162 162 162
4 4 4
137 137 137
87 87 87
87 87 87
87 87 87
87 87 87
87 87 87
86 86 86
87 87 87
87 87 87
86 86 86
86 86 86
86 86 86
87 87 87
87 87 87
87 87 87
87 87 87
87 87 87
86 86 86
85 85 85
86 86 86
87 87 87
87 87 87
87 87 87
88 88 88
87 87 87
88 88 88
88 88 88
88 88 88
88 88 88
88 88 88
93 93 93
169 169 169
89 89 89
49 49 49
36 36 36
19 19 19
15 15 15
0 0 0
0 0 0
1 1 1
1 1 1
1 1 1
2 2 2
1 1 1
1 1 1
2 2 2
2 2 2
17 17 17
119 119 119
27 27 27
57 57 57
106 106 106
87 87 87
87 87 87
86 86 86
87 87 87
86 86 86
87 87 87
87 87 87
85 85 85
87 87 87
87 87 87
88 88 88
88 88 88
87 87 87
87 87 87
87 87 87
87 87 87
87 87 87
86 86 86
87 87 87
87 87 87
87 87 87
87 87 87
88 88 88
87 87 87
88 88 88
88 88 88
88 88 88
87 87 87
122 122 122
167 167 167
88 88 88
51 51 51
42 42 42
20 20 20
15 15 15
0 0 0
0 0 0
1 1 1
1 1 1
1 1 1
1 1 1
1 1 1
1 1 1
1 1 1
1 1 1
5 5 5
86 86 86
164 164 164
12 12 12
119 119 119
87 87 87
87 87 87
86 86 86
87 87 87
87 87 87
86 86 86
87 87 87
86 86 86
87 87 87
87 87 87
87 87 87
87 87 87
87 87 87
87 87 87
87 87 87
87 87 87
87 87 87
87 87 87
87 87 87
87 87 87
87 87 87
87 87 87
87 87 87
88 88 88
88 88 88
87 87 87
88 88 88
87 87 87
155 155 155
171 171 171
87 87 87
40 40 40
40 40 40
20 20 20
13 13 13
0 0 0
0 0 0
1 1 1
1 1 1
0 0 0
1 1 1
0 0 0
1 1 1
1 1 1
2 2 2
0 0 0
80 80 80
166 166 166
117 117 117
130 130 130
87 87 87
86 86 86
86 86 86
87 87 87
87 87 87
87 87 87
86 86 86
87 87 87
87 87 87
87 87 87
87 87 87
87 87 87
87 87 87
87 87 87
87 87 87
87 87 87
87 87 87
87 87 87
87 87 87
87 87 87
88 88 88
87 87 87
87 87 87
88 88 88
87 87 87
87 87 87
87 87 87
90 90 90
172 172 172
182 182 182
74 74 74
45 45 45
36 36 36
20 20 20
13 13 13
0 0 0
0 0 0
1 1 1
1 1 1
0 0 0
0 0 0
0 0 0
0 0 0
0 0 0
1 1 1
0 0 0
55 55 55
86 86 86
195 195 195
114 114 114
129 129 129
86 86 86
87 87 87
86 86 86
87 87 87
86 86 86
87 87 87
86 86 86
87 87 87
87 87 87
87 87 87
87 87 87
86 86 86
86 86 86
86 86 86
87 87 87
87 87 87
87 87 87
88 88 88
87 87 87
87 87 87
87 87 87
88 88 88
88 88 88
87 87 87
87 87 87
87 87 87
154 154 154
161 161 161
169 169 169
53 53 53
44 44 44
29 29 29
20 20 20
15 15 15
0 0 0
0 0 0
1 1 1
1 1 1
1 1 1
0 0 0
0 0 0
0 0 0
0 0 0
0 0 0
0 0 0
5 5 5
78 78 78
136 136 136
147 147 147
159 159 159
86 86 86
86 86 86
86 86 86
86 86 86
87 87 87
87 87 87
86 86 86
87 87 87
87 87 87
87 87 87
86 86 86
86 86 86
86 86 86
87 87 87
87 87 87
87 87 87
87 87 87
87 87 87
88 88 88
87 87 87
88 88 88
87 87 87
87 87 87
88 88 88
87 87 87
106 106 106
164 164 164
174 174 174
90 90 90
41 41 41
46 46 46
22 22 22
18 18 18
15 15 15
0 0 0
0 0 0
1 1 1
1 1 1
1 1 1
1 1 1
2 2 2
0 0 0
1 1 1
2 2 2
1 1 1
1 1 1
16 16 16
79 79 79
199 199 199
157 157 157
95 95 95
86 86 86
86 86 86
87 87 87
87 87 87
87 87 87
86 86 86
86 86 86
87 87 87
88 88 88
87 87 87
86 86 86
86 86 86
87 87 87
87 87 87
87 87 87
87 87 87
88 88 88
87 87 87
88 88 88
88 88 88
87 87 87
88 88 88
87 87 87
87 87 87
169 169 169
162 162 162
157 157 157
58 58 58
40 40 40
47 47 47
19 19 19
16 16 16
14 14 14
0 0 0
0 0 0
1 1 1
1 1 1
1 1 1
2 2 2
2 2 2
2 2 2
2 2 2
2 2 2
2 2 2
2 2 2
2 2 2
16 16 16
77 77 77
207 207 207
166 166 166
122 122 122
87 87 87
87 87 87
87 87 87
86 86 86
86 86 86
87 87 87
87 87 87
87 87 87
87 87 87
86 86 86
86 86 86
86 86 86
86 86 86
87 87 87
87 87 87
88 88 88
88 88 88
87 87 87
87 87 87
87 87 87
87 87 87
87 87 87
129 129 129
163 163 163
189 189 189
85 85 85
35 35 35
32 32 32
50 50 50
19 19 19
14 14 14
15 15 15
0 0 0
0 0 0
1 1 1
1 1 1
2 2 2
3 3 3
3 3 3
3 3 3
3 3 3
2 2 2
3 3 3
3 3 3
4 4 4
4 4 4
2 2 2
22 22 22
81 81 81
164 164 164
156 156 156
138 138 138
99 99 99
86 86 86
86 86 86
87 87 87
87 87 87
88 88 88
87 87 87
86 86 86
86 86 86
87 87 87
87 87 87
87 87 87
87 87 87
87 87 87
88 88 88
88 88 88
88 88 88
87 87 87
89 89 89
163 163 163
164 164 164
176 176 176
86 86 86
18 18 18
30 30 30
25 25 25
45 45 45
22 22 22
12 12 12
15 15 15
0 0 0
0 0 0
1 1 1
1 1 1
2 2 2
2 2 2
2 2 2
3 3 3
3 3 3
3 3 3
4 4 4
3 3 3
3 3 3
4 4 4
3 3 3
1 1 1
0 0 0
45 45 45
87 87 87
132 132 132
160 160 160
124 124 124
86 86 86
85 85 85
92 92 92
92 92 92
89 89 89
87 87 87
86 86 86
86 86 86
87 87 87
87 87 87
87 87 87
87 87 87
86 86 86
87 87 87
87 87 87
104 104 104
165 165 165
167 167 167
188 188 188
86 86 86
24 24 24
15 15 15
15 15 15
17 17 17
19 19 19
30 30 30
13 13 13
19 19 19
0 0 0
0 0 0
2 2 2
3 3 3
3 3 3
3 3 3
3 3 3
3 3 3
4 4 4
4 4 4
5 5 5
4 4 4
4 4 4
3 3 3
4 4 4
4 4 4
2 2 2
2 2 2
0 0 0
10 10 10
73 73 73
97 97 97
150 150 150
157 157 157
153 153 153
164 164 164
164 164 164
167 167 167
164 164 164
132 132 132
103 103 103
94 94 94
100 100 100
91 91 91
95 95 95
93 93 93
164 164 164
165 165 165
172 172 172
131 131 131
83 83 83
18 18 18
16 16 16
25 25 25
24 24 24
24 24 24
10 10 10
43 43 43
14 14 14
27 27 27
0 0 0
0 0 0
2 2 2
1 1 1
2 2 2
1 1 1
2 2 2
2 2 2
2 2 2
2 2 2
3 3 3
4 4 4
3 3 3
4 4 4
4 4 4
4 4 4
4 4 4
3 3 3
4 4 4
2 2 2
0 0 0
2 2 2
37 37 37
78 78 78
92 92 92
123 123 123
171 171 171
167 167 167
175 175 175
165 165 165
169 169 169
175 175 175
175 175 175
171 171 171
167 167 167
164 164 164
192 192 192
152 152 152
84 84 84
49 49 49
20 20 20
11 11 11
15 15 15
26 26 26
22 22 22
17 17 17
9 9 9
62 62 62
13 13 13
2 2 2
0 0 0
0 0 0
2 2 2
1 1 1
2 2 2
1 1 1
1 1 1
2 2 2
1 1 1
1 1 1
1 1 1
2 2 2
4 4 4
3 3 3
4 4 4
4 4 4
4 4 4
4 4 4
4 4 4
5 5 5
4 4 4
4 4 4
3 3 3
2 2 2
2 2 2
10 10 10
38 38 38
67 67 67
84 84 84
92 92 92
106 106 106
128 128 128
129 129 129
125 125 125
105 105 105
87 87 87
70 70 70
26 26 26
9 9 9
24 24 24
22 22 22
30 30 30
23 23 23
22 22 22
24 24 24
42 42 42
9 9 9
77 77 77
22 22 22
2 2 2
0 0 0
0 0 0
2 2 2
2 2 2
1 1 1
1 1 1
1 1 1
1 1 1
1 1 1
2 2 2
2 2 2
1 1 1
2 2 2
2 2 2
3 3 3
4 4 4
4 4 4
4 4 4
4 4 4
4 4 4
4 4 4
4 4 4
4 4 4
4 4 4
4 4 4
3 3 3
6 6 6
6 6 6
13 13 13
14 14 14
7 7 7
3 3 3
1 1 1
1 1 1
2 2 2
1 1 1
4 4 4
7 7 7
15 15 15
27 27 27
26 26 26
20 20 20
20 20 20
29 29 29
32 32 32
40 40 40
10 10 10
76 76 76
8 8 8
2 2 2
0 0 0
0 0 0
2 2 2
2 2 2
2 2 2
2 2 2
1 1 1
1 1 1
1 1 1
1 1 1
1 1 1
1 1 1
2 2 2
1 1 1
2 2 2
3 3 3
3 3 3
3 3 3
4 4 4
4 4 4
4 4 4
4 4 4
5 5 5
4 4 4
4 4 4
3 3 3
4 4 4
4 4 4
5 5 5
4 4 4
2 2 2
3 3 3
4 4 4
4 4 4
4 4 4
4 4 4
5 5 5
5 5 5
15 15 15
27 27 27
28 28 28
30 30 30
21 21 21
30 30 30
29 29 29
19 19 19
14 14 14
62 62 62
2 2 2
2 2 2
0 0 0
0 0 0
2 2 2
2 2 2
2 2 2
1 1 1
2 2 2
1 1 1
2 2 2
1 1 1
1 1 1
1 1 1
2 2 2
1 1 1
1 1 1
2 2 2
2 2 2
3 3 3
4 4 4
4 4 4
4 4 4
5 5 5
4 4 4
4 4 4
4 4 4
3 3 3
3 3 3
3 3 3
4 4 4
5 5 5
4 4 4
6 6 6
4 4 4
4 4 4
4 4 4
5 5 5
7 7 7
6 6 6
20 20 20
29 29 29
35 35 35
21 21 21
9 9 9
16 16 16
24 24 24
11 11 11
17 17 17
10 10 10
2 2 2
2 2 2
0 0 0
0 0 0
2 2 2
2 2 2
2 2 2
1 1 1
2 2 2
1 1 1
1 1 1
1 1 1
2 2 2
1 1 1
2 2 2
1 1 1
2 2 2
1 1 1
2 2 2
2 2 2
3 3 3
3 3 3
4 4 4
5 5 5
5 5 5
4 4 4
4 4 4
4 4 4
3 3 3
5 5 5
4 4 4
4 4 4
5 5 5
5 5 5
5 5 5
5 5 5
5 5 5
5 5 5
7 7 7
7 7 7
12 12 12
33 33 33
36 36 36
31 31 31
28 28 28
23 23 23
42 42 42
13 13 13
38 38 38
2 2 2
2 2 2
2 2 2
0 0 0
0 0 0
2 2 2
2 2 2
2 2 2
2 2 2
2 2 2
1 1 1
1 1 1
1 1 1
1 1 1
1 1 1
2 2 2
2 2 2
1 1 1
2 2 2
2 2 2
2 2 2
2 2 2
2 2 2
4 4 4
4 4 4
5 5 5
4 4 4
4 4 4
4 4 4
5 5 5
5 5 5
4 4 4
4 4 4
4 4 4
5 5 5
5 5 5
5 5 5
5 5 5
5 5 5
6 6 6
6 6 6
8 8 8
39 39 39
38 38 38
30 30 30
19 19 19
20 20 20
49 49 49
16 16 16
2 2 2
2 2 2
2 2 2
2 2 2
0 0 0
0 0 0
2 2 2
2 2 2
2 2 2
2 2 2
2 2 2
1 1 1
1 1 1
1 1 1
1 1 1
1 1 1
2 2 2
1 1 1
1 1 1
2 2 2
2 2 2
2 2 2
1 1 1
2 2 2
1 1 1
2 2 2
4 4 4
5 5 5
4 4 4
4 4 4
5 5 5
5 5 5
4 4 4
4 4 4
4 4 4
4 4 4
4 4 4
5 5 5
4 4 4
11 11 11
5 5 5
6 6 6
16 16 16
39 39 39
36 36 36
29 29 29
18 18 18
34 34 34
17 17 17
6 6 6
2 2 2
2 2 2
2 2 2
2 2 2
0 0 0
0 0 0
2 2 2
2 2 2
2 2 2
2 2 2
2 2 2
2 2 2
1 1 1
1 1 1
1 1 1
1 1 1
2 2 2
2 2 2
1 1 1
2 2 2
2 2 2
2 2 2
2 2 2
2 2 2
2 2 2
2 2 2
1 1 1
3 3 3
4 4 4
4 4 4
4 4 4
4 4 4
4 4 4
4 4 4
4 4 4
4 4 4
3 3 3
12 12 12
5 5 5
20 20 20
14 14 14
16 16 16
40 40 40
37 37 37
29 29 29
23 23 23
25 25 25
57 57 57
11 11 11
2 2 2
2 2 2
2 2 2
2 2 2
2 2 2
0 0 0
0 0 0
2 2 2
2 2 2
2 2 2
2 2 2
2 2 2
2 2 2
2 2 2
2 2 2
1 1 1
1 1 1
2 2 2
1 1 1
1 1 1
1 1 1
2 2 2
2 2 2
2 2 2
1 1 1
1 1 1
2 2 2
2 2 2
2 2 2
3 3 3
3 3 3
3 3 3
3 3 3
3 3 3
3 3 3
7 7 7
11 11 11
7 7 7
10 10 10
13 13 13
7 7 7
29 29 29
34 34 34
31 31 31
23 23 23
25 25 25
34 34 34
33 33 33
40 40 40
2 2 2
2 2 2
2 2 2
2 2 2
2 2 2
2 2 2
0 0 0
0 0 0
2 2 2
2 2 2
2 2 2
2 2 2
2 2 2
2 2 2
2 2 2
2 2 2
1 1 1
1 1 1
1 1 1
1 1 1
1 1 1
1 1 1
2 2 2
2 2 2
1 1 1
2 2 2
2 2 2
1 1 1
2 2 2
2 2 2
2 2 2
4 4 4
3 3 3
2 2 2
3 3 3
3 3 3
9 9 9
12 12 12
13 13 13
7 7 7
18 18 18
19 19 19
23 23 23
25 25 25
19 19 19
25 25 25
14 14 14
40 40 40
17 17 17
2 2 2
2 2 2
2 2 2
2 2 2
2 2 2
2 2 2
2 2 2
0 0 0
0 0 0
2 2 2
2 2 2
2 2 2
2 2 2
2 2 2
2 2 2
2 2 2
2 2 2
2 2 2
1 1 1
2 2 2
1 1 1
1 1 1
1 1 1
1 1 1
1 1 1
1 1 1
1 1 1
1 1 1
2 2 2
2 2 2
2 2 2
2 2 2
2 2 2
6 6 6
3 3 3
3 3 3
4 4 4
6 6 6
5 5 5
6 6 6
9 9 9
7 7 7
8 8 8
11 11 11
13 13 13
25 25 25
13 13 13
36 36 36
6 6 6
2 2 2
2 2 2
2 2 2
2 2 2
2 2 2
2 2 2
2 2 2
2 2 2
0 0 0
0 0 0
2 2 2
2 2 2
2 2 2
2 2 2
2 2 2
2 2 2
2 2 2
2 2 2
2 2 2
2 2 2
1 1 1
1 1 1
1 1 1
1 1 1
1 1 1
1 1 1
1 1 1
1 1 1
1 1 1
2 2 2
1 1 1
1 1 1
2 2 2
2 2 2
2 2 2
5 5 5
12 12 12
2 2 2
9 9 9
5 5 5
4 4 4
5 5 5
16 16 16
16 16 16
8 8 8
8 8 8
12 12 12
30 30 30
2 2 2
2 2 2
2 2 2
2 2 2
2 2 2
2 2 2
2 2 2
2 2 2
2 2 2
2 2 2
0 0 0
0 0 0
2 2 2
2 2 2
2 2 2
2 2 2
2 2 2
2 2 2
2 2 2
2 2 2
2 2 2
2 2 2
2 2 2
2 2 2
1 1 1
1 1 1
1 1 1
2 2 2
2 2 2
1 1 1
1 1 1
1 1 1
1 1 1
1 1 1
2 2 2
2 2 2
2 2 2
2 2 2
7 7 7
14 14 14
9 9 9
5 5 5
12 12 12
20 20 20
23 23 23
22 22 22
16 16 16
21 21 21
5 5 5
2 2 2
2 2 2
2 2 2
2 2 2
2 2 2
2 2 2
2 2 2
2 2 2
2 2 2
2 2 2
2 2 2
0 0 0
0 0 0
2 2 2
2 2 2
2 2 2
2 2 2
2 2 2
2 2 2
2 2 2
2 2 2
2 2 2
2 2 2
2 2 2
2 2 2
2 2 2
2 2 2
0 0 0
1 1 1
1 1 1
1 1 1
1 1 1
1 1 1
2 2 2
2 2 2
1 1 1
1 1 1
3 3 3
3 3 3
3 3 3
12 12 12
11 11 11
10 10 10
8 8 8
22 22 22
22 22 22
26 26 26
5 5 5
2 2 2
2 2 2
2 2 2
2 2 2
2 2 2
2 2 2
2 2 2
2 2 2
2 2 2
2 2 2
2 2 2
2 2 2
2 2 2
0 0 0
0 0 0
2 2 2
2 2 2
2 2 2
2 2 2
2 2 2
2 2 2
2 2 2
2 2 2
2 2 2
2 2 2
2 2 2
2 2 2
2 2 2
2 2 2
2 2 2
2 2 2
1 1 1
0 0 0
1 1 1
2 2 2
2 2 2
1 1 1
2 2 2
3 3 3
3 3 3
4 4 4
4 4 4
5 5 5
18 18 18
17 17 17
20 20 20
24 24 24
2 2 2
2 2 2
2 2 2
2 2 2
2 2 2
2 2 2
2 2 2
2 2 2
2 2 2
2 2 2
2 2 2
2 2 2
2 2 2
2 2 2
2 2 2
2 2 2
0 0 0
0 0 0
0 0 0
0 0 0
0 0 0
0 0 0
0 0 0
0 0 0
0 0 0
0 0 0
0 0 0
0 0 0
0 0 0
0 0 0
0 0 0
0 0 0
0 0 0
0 0 0
0 0 0
0 0 0
0 0 0
0 0 0
0 0 0
0 0 0
0 0 0
0 0 0
0 0 0
0 0 0
0 0 0
0 0 0
0 0 0
0 0 0
0 0 0
0 0 0
0 0 0
0 0 0
0 0 0
0 0 0
0 0 0
0 0 0
0 0 0
0 0 0
0 0 0
0 0 0
0 0 0
0 0 0
0 0 0
0 0 0
0 0 0
0 0 0
0 0 0
