P3 
50 50 
255
0 0 0
0 0 0
0 0 0
0 0 0
0 0 0
0 0 0
0 0 0
0 0 0
0 0 0
0 0 0
0 0 0
0 0 0
0 0 0
0 0 0
0 0 0
0 0 0
0 0 0
0 0 0
0 0 0
0 0 0
0 0 0
0 0 0
0 0 0
0 0 0
0 0 0
0 0 0
0 0 0
0 0 0
0 0 0
0 0 0
0 0 0
0 0 0
0 0 0
0 0 0
0 0 0
0 0 0
0 0 0
0 0 0
0 0 0
0 0 0
0 0 0
0 0 0
0 0 0
0 0 0
0 0 0
0 0 0
0 0 0
0 0 0
0 0 0
0 0 0
0 0 0
2 2 2
2 2 2
2 2 2
2 2 2
2 2 2
2 2 2
2 2 2
2 2 2
2 2 2
2 2 2
2 2 2
2 2 2
2 2 2
2 2 2
2 2 2
2 2 2
2 2 2
1 1 1
1 1 1
3 3 3
3 3 3
3 3 3
3 3 3
4 4 4
4 4 4
4 4 4
3 3 3
9 9 9
10 10 10
5 5 5
7 7 7
3 3 3
2 2 2
2 2 2
2 2 2
2 2 2
2 2 2
2 2 2
2 2 2
2 2 2
2 2 2
2 2 2
2 2 2
2 2 2
2 2 2
2 2 2
2 2 2
2 2 2
0 0 0
0 0 0
2 2 2
2 2 2
2 2 2
2 2 2
2 2 2
2 2 2
2 2 2
2 2 2
2 2 2
2 2 2
2 2 2
2 2 2
2 2 2
2 2 2
1 1 1
1 1 1
2 2 2
3 3 3
3 3 3
3 3 3
3 3 3
3 3 3
4 4 4
4 4 4
4 4 4
4 4 4
9 9 9
12 12 12
7 7 7
7 7 7
14 14 14
14 14 14
15 15 15
13 13 13
2 2 2
2 2 2
2 2 2
2 2 2
2 2 2
2 2 2
2 2 2
2 2 2
2 2 2
2 2 2
2 2 2
2 2 2
2 2 2
2 2 2
0 0 0
0 0 0
2 2 2
2 2 2
2 2 2
2 2 2
2 2 2
2 2 2
2 2 2
2 2 2
2 2 2
2 2 2
2 2 2
2 2 2
1 1 1
2 2 2
2 2 2
2 2 2
3 3 3
3 3 3
3 3 3
4 4 4
3 3 3
3 3 3
4 4 4
5 5 5
4 4 4
10 10 10
16 16 16
10 10 10
11 11 11
13 13 13
10 10 10
7 7 7
13 13 13
11 11 11
9 9 9
14 14 14
2 2 2
2 2 2
2 2 2
2 2 2
2 2 2
2 2 2
2 2 2
2 2 2
2 2 2
2 2 2
2 2 2
2 2 2
0 0 0
0 0 0
2 2 2
2 2 2
2 2 2
2 2 2
2 2 2
2 2 2
2 2 2
2 2 2
2 2 2
2 2 2
1 1 1
1 1 1
3 3 3
3 3 3
3 3 3
2 2 2
3 3 3
3 3 3
2 2 2
3 3 3
4 4 4
3 3 3
5 5 5
4 4 4
17 17 17
36 36 36
20 20 20
23 23 23
20 20 20
17 17 17
9 9 9
6 6 6
6 6 6
8 8 8
10 10 10
6 6 6
9 9 9
9 9 9
2 2 2
2 2 2
2 2 2
2 2 2
2 2 2
2 2 2
2 2 2
2 2 2
2 2 2
2 2 2
0 0 0
0 0 0
2 2 2
2 2 2
2 2 2
2 2 2
2 2 2
2 2 2
2 2 2
2 2 2
2 2 2
1 1 1
2 2 2
2 2 2
2 2 2
3 3 3
4 4 4
3 3 3
4 4 4
3 3 3
4 4 4
3 3 3
5 5 5
8 8 8
11 11 11
23 23 23
83 83 83
21 21 21
60 60 60
91 91 91
80 80 80
45 45 45
80 80 80
72 72 72
16 16 16
14 14 14
6 6 6
5 5 5
5 5 5
7 7 7
12 12 12
2 2 2
2 2 2
2 2 2
2 2 2
2 2 2
2 2 2
2 2 2
2 2 2
2 2 2
0 0 0
0 0 0
2 2 2
2 2 2
2 2 2
2 2 2
2 2 2
2 2 2
2 2 2
2 2 2
2 2 2
2 2 2
2 2 2
3 3 3
2 2 2
3 3 3
2 2 2
3 3 3
3 3 3
3 3 3
3 3 3
2 2 2
7 7 7
50 50 50
84 84 84
86 86 86
88 88 88
43 43 43
81 81 81
96 96 96
102 102 102
93 93 93
82 82 82
80 80 80
80 80 80
42 42 42
9 9 9
8 8 8
13 13 13
14 14 14
9 9 9
9 9 9
4 4 4
2 2 2
2 2 2
2 2 2
2 2 2
2 2 2
2 2 2
2 2 2
0 0 0
0 0 0
2 2 2
2 2 2
2 2 2
2 2 2
2 2 2
2 2 2
2 2 2
1 1 1
1 1 1
3 3 3
3 3 3
4 4 4
2 2 2
1 1 1
1 1 1
3 3 3
8 8 8
16 16 16
41 41 41
82 82 82
82 82 82
84 84 84
90 90 90
90 90 90
93 93 93
151 151 151
184 184 184
188 188 188
197 197 197
200 200 200
198 198 198
183 183 183
146 146 146
104 104 104
87 87 87
56 56 56
13 13 13
15 15 15
12 12 12
6 6 6
14 14 14
11 11 11
2 2 2
2 2 2
2 2 2
2 2 2
2 2 2
2 2 2
0 0 0
0 0 0
2 2 2
2 2 2
2 2 2
2 2 2
2 2 2
2 2 2
2 2 2
1 1 1
1 1 1
3 3 3
3 3 3
4 4 4
1 1 1
64 64 64
78 78 78
77 77 77
80 80 80
88 88 88
107 107 107
109 109 109
96 96 96
91 91 91
103 103 103
143 143 143
155 155 155
128 128 128
97 97 97
141 141 141
112 112 112
123 123 123
153 153 153
117 117 117
140 140 140
169 169 169
194 194 194
144 144 144
89 89 89
43 43 43
16 16 16
7 7 7
15 15 15
32 32 32
4 4 4
2 2 2
2 2 2
2 2 2
2 2 2
2 2 2
0 0 0
0 0 0
2 2 2
2 2 2
2 2 2
2 2 2
2 2 2
2 2 2
2 2 2
2 2 2
3 3 3
3 3 3
4 4 4
5 5 5
77 77 77
74 74 74
98 98 98
170 170 170
135 135 135
102 102 102
110 110 110
119 119 119
172 172 172
187 187 187
189 189 189
93 93 93
119 119 119
88 88 88
109 109 109
135 135 135
86 86 86
86 86 86
87 87 87
87 87 87
87 87 87
86 86 86
139 139 139
191 191 191
177 177 177
100 100 100
83 83 83
20 20 20
7 7 7
22 22 22
33 33 33
2 2 2
2 2 2
2 2 2
2 2 2
2 2 2
0 0 0
0 0 0
2 2 2
2 2 2
2 2 2
2 2 2
1 1 1
2 2 2
2 2 2
2 2 2
2 2 2
2 2 2
62 62 62
80 80 80
121 121 121
158 158 158
91 91 91
82 82 82
80 80 80
84 84 84
84 84 84
163 163 163
139 139 139
138 138 138
127 127 127
128 128 128
109 109 109
73 73 73
84 84 84
97 97 97
86 86 86
87 87 87
87 87 87
87 87 87
87 87 87
87 87 87
87 87 87
132 132 132
159 159 159
182 182 182
174 174 174
89 89 89
37 37 37
8 8 8
40 40 40
18 18 18
2 2 2
2 2 2
2 2 2
2 2 2
0 0 0
0 0 0
2 2 2
2 2 2
2 2 2
2 2 2
2 2 2
2 2 2
3 3 3
0 0 0
50 50 50
78 78 78
85 85 85
152 152 152
131 131 131
79 79 79
90 90 90
87 87 87
84 84 84
81 81 81
134 134 134
107 107 107
121 121 121
123 123 123
161 161 161
64 64 64
26 26 26
28 28 28
116 116 116
89 89 89
86 86 86
87 87 87
87 87 87
86 86 86
85 85 85
86 86 86
88 88 88
88 88 88
87 87 87
92 92 92
168 168 168
186 186 186
92 92 92
32 32 32
22 22 22
23 23 23
20 20 20
2 2 2
2 2 2
2 2 2
0 0 0
0 0 0
2 2 2
2 2 2
2 2 2
2 2 2
1 1 1
3 3 3
2 2 2
22 22 22
75 75 75
75 75 75
143 143 143
177 177 177
73 73 73
83 83 83
84 84 84
86 86 86
84 84 84
83 83 83
96 96 96
160 160 160
133 133 133
131 131 131
126 126 126
39 39 39
192 192 192
193 193 193
111 111 111
88 88 88
87 87 87
87 87 87
86 86 86
86 86 86
85 85 85
85 85 85
87 87 87
87 87 87
87 87 87
87 87 87
88 88 88
174 174 174
189 189 189
89 89 89
21 21 21
51 51 51
19 19 19
7 7 7
2 2 2
2 2 2
0 0 0
0 0 0
2 2 2
2 2 2
2 2 2
2 2 2
2 2 2
3 3 3
0 0 0
72 72 72
76 76 76
82 82 82
118 118 118
142 142 142
75 75 75
75 75 75
84 84 84
86 86 86
85 85 85
85 85 85
88 88 88
128 128 128
156 156 156
147 147 147
118 118 118
175 175 175
141 141 141
211 211 211
131 131 131
86 86 86
86 86 86
86 86 86
86 86 86
85 85 85
86 86 86
85 85 85
85 85 85
86 86 86
87 87 87
88 88 88
87 87 87
107 107 107
181 181 181
183 183 183
77 77 77
38 38 38
17 17 17
89 89 89
2 2 2
2 2 2
0 0 0
0 0 0
2 2 2
2 2 2
1 1 1
1 1 1
2 2 2
1 1 1
0 0 0
80 80 80
80 80 80
101 101 101
12 12 12
0 0 0
50 50 50
90 90 90
81 81 81
86 86 86
84 84 84
85 85 85
87 87 87
128 128 128
136 136 136
136 136 136
94 94 94
166 166 166
149 149 149
211 211 211
85 85 85
86 86 86
86 86 86
87 87 87
87 87 87
86 86 86
85 85 85
86 86 86
86 86 86
85 85 85
87 87 87
88 88 88
87 87 87
87 87 87
144 144 144
187 187 187
120 120 120
37 37 37
15 15 15
81 81 81
5 5 5
2 2 2
0 0 0
0 0 0
2 2 2
1 1 1
1 1 1
0 0 0
1 1 1
2 2 2
1 1 1
81 81 81
79 79 79
94 94 94
0 0 0
1 1 1
2 2 2
0 0 0
31 31 31
87 87 87
83 83 83
88 88 88
93 93 93
119 119 119
132 132 132
110 110 110
94 94 94
188 188 188
121 121 121
110 110 110
85 85 85
87 87 87
87 87 87
86 86 86
87 87 87
87 87 87
87 87 87
86 86 86
87 87 87
87 87 87
86 86 86
87 87 87
87 87 87
88 88 88
88 88 88
163 163 163
195 195 195
68 68 68
24 24 24
60 60 60
24 24 24
2 2 2
0 0 0
0 0 0
2 2 2
1 1 1
1 1 1
1 1 1
0 0 0
2 2 2
1 1 1
81 81 81
79 79 79
86 86 86
1 1 1
3 3 3
2 2 2
3 3 3
0 0 0
60 60 60
96 96 96
91 91 91
92 92 92
105 105 105
129 129 129
90 90 90
103 103 103
120 120 120
116 116 116
84 84 84
87 87 87
87 87 87
88 88 88
87 87 87
87 87 87
87 87 87
86 86 86
87 87 87
86 86 86
87 87 87
86 86 86
87 87 87
88 88 88
87 87 87
87 87 87
103 103 103
187 187 187
92 92 92
35 35 35
41 41 41
15 15 15
3 3 3
0 0 0
0 0 0
1 1 1
1 1 1
1 1 1
2 2 2
1 1 1
0 0 0
0 0 0
77 77 77
87 87 87
23 23 23
20 20 20
2 2 2
2 2 2
2 2 2
1 1 1
0 0 0
101 101 101
15 15 15
14 14 14
94 94 94
99 99 99
89 89 89
103 103 103
132 132 132
84 84 84
86 86 86
87 87 87
86 86 86
87 87 87
87 87 87
88 88 88
87 87 87
87 87 87
87 87 87
87 87 87
87 87 87
87 87 87
88 88 88
88 88 88
88 88 88
87 87 87
98 98 98
180 180 180
101 101 101
43 43 43
28 28 28
16 16 16
19 19 19
0 0 0
0 0 0
1 1 1
2 2 2
1 1 1
1 1 1
51 51 51
78 78 78
61 61 61
85 85 85
108 108 108
21 21 21
14 14 14
55 55 55
21 21 21
12 12 12
17 17 17
58 58 58
108 108 108
112 112 112
109 109 109
111 111 111
96 96 96
101 101 101
108 108 108
91 91 91
85 85 85
85 85 85
87 87 87
88 88 88
87 87 87
87 87 87
87 87 87
87 87 87
87 87 87
86 86 86
87 87 87
87 87 87
87 87 87
87 87 87
88 88 88
87 87 87
87 87 87
94 94 94
177 177 177
102 102 102
47 47 47
21 21 21
16 16 16
20 20 20
0 0 0
0 0 0
3 3 3
1 1 1
5 5 5
22 22 22
41 41 41
71 71 71
84 84 84
90 90 90
79 79 79
95 95 95
76 76 76
19 19 19
34 34 34
28 28 28
8 8 8
15 15 15
62 62 62
32 32 32
96 96 96
102 102 102
103 103 103
97 97 97
101 101 101
85 85 85
86 86 86
86 86 86
88 88 88
88 88 88
86 86 86
87 87 87
87 87 87
87 87 87
87 87 87
86 86 86
87 87 87
89 89 89
86 86 86
87 87 87
87 87 87
87 87 87
87 87 87
134 134 134
153 153 153
98 98 98
50 50 50
17 17 17
15 15 15
15 15 15
0 0 0
0 0 0
1 1 1
34 34 34
56 56 56
8 8 8
3 3 3
0 0 0
1 1 1
0 0 0
3 3 3
1 1 1
11 11 11
23 23 23
25 25 25
12 12 12
11 11 11
13 13 13
19 19 19
114 114 114
131 131 131
109 109 109
96 96 96
88 88 88
100 100 100
83 83 83
86 86 86
86 86 86
86 86 86
87 87 87
86 86 86
86 86 86
87 87 87
86 86 86
87 87 87
86 86 86
87 87 87
89 89 89
88 88 88
87 87 87
88 88 88
89 89 89
93 93 93
178 178 178
160 160 160
95 95 95
49 49 49
14 14 14
18 18 18
13 13 13
0 0 0
0 0 0
0 0 0
65 65 65
74 74 74
82 82 82
85 85 85
50 50 50
58 58 58
82 82 82
90 90 90
92 92 92
66 66 66
48 48 48
41 41 41
30 30 30
36 36 36
18 18 18
27 27 27
67 67 67
113 113 113
124 124 124
107 107 107
96 96 96
106 106 106
84 84 84
87 87 87
87 87 87
88 88 88
87 87 87
87 87 87
87 87 87
87 87 87
87 87 87
87 87 87
87 87 87
88 88 88
89 89 89
88 88 88
88 88 88
88 88 88
88 88 88
89 89 89
162 162 162
177 177 177
94 94 94
49 49 49
12 12 12
21 21 21
14 14 14
0 0 0
0 0 0
1 1 1
10 10 10
73 73 73
39 39 39
16 16 16
10 10 10
7 7 7
1 1 1
1 1 1
1 1 1
35 35 35
68 68 68
60 60 60
72 72 72
8 8 8
6 6 6
9 9 9
4 4 4
70 70 70
102 102 102
119 119 119
105 105 105
96 96 96
87 87 87
86 86 86
86 86 86
88 88 88
87 87 87
87 87 87
87 87 87
87 87 87
88 88 88
87 87 87
86 86 86
87 87 87
87 87 87
88 88 88
88 88 88
88 88 88
88 88 88
87 87 87
88 88 88
182 182 182
96 96 96
47 47 47
11 11 11
23 23 23
13 13 13
0 0 0
0 0 0
2 2 2
1 1 1
0 0 0
36 36 36
83 83 83
83 83 83
84 84 84
84 84 84
42 42 42
72 72 72
97 97 97
84 84 84
14 14 14
50 50 50
26 26 26
19 19 19
26 26 26
106 106 106
103 103 103
117 117 117
96 96 96
88 88 88
99 99 99
111 111 111
85 85 85
85 85 85
88 88 88
88 88 88
87 87 87
88 88 88
87 87 87
87 87 87
87 87 87
87 87 87
88 88 88
87 87 87
87 87 87
87 87 87
88 88 88
88 88 88
87 87 87
102 102 102
192 192 192
89 89 89
52 52 52
10 10 10
23 23 23
13 13 13
0 0 0
0 0 0
3 3 3
2 2 2
2 2 2
0 0 0
15 15 15
49 49 49
42 42 42
86 86 86
103 103 103
51 51 51
8 8 8
10 10 10
43 43 43
9 9 9
3 3 3
6 6 6
57 57 57
101 101 101
91 91 91
98 98 98
92 92 92
114 114 114
130 130 130
119 119 119
111 111 111
84 84 84
87 87 87
87 87 87
86 86 86
87 87 87
87 87 87
87 87 87
87 87 87
87 87 87
88 88 88
87 87 87
87 87 87
88 88 88
88 88 88
87 87 87
88 88 88
151 151 151
202 202 202
74 74 74
49 49 49
10 10 10
25 25 25
13 13 13
0 0 0
0 0 0
2 2 2
2 2 2
1 1 1
2 2 2
1 1 1
1 1 1
0 0 0
78 78 78
81 81 81
88 88 88
2 2 2
21 21 21
1 1 1
3 3 3
2 2 2
2 2 2
132 132 132
86 86 86
96 96 96
91 91 91
92 92 92
92 92 92
154 154 154
128 128 128
155 155 155
103 103 103
86 86 86
88 88 88
87 87 87
88 88 88
87 87 87
87 87 87
88 88 88
87 87 87
87 87 87
87 87 87
88 88 88
87 87 87
88 88 88
87 87 87
101 101 101
187 187 187
112 112 112
39 39 39
43 43 43
10 10 10
23 23 23
12 12 12
0 0 0
0 0 0
2 2 2
2 2 2
2 2 2
2 2 2
1 1 1
2 2 2
1 1 1
73 73 73
77 77 77
84 84 84
106 106 106
0 0 0
3 3 3
2 2 2
0 0 0
104 104 104
85 85 85
88 88 88
84 84 84
89 89 89
138 138 138
143 143 143
146 146 146
93 93 93
172 172 172
185 185 185
88 88 88
87 87 87
88 88 88
87 87 87
88 88 88
88 88 88
87 87 87
88 88 88
88 88 88
88 88 88
88 88 88
87 87 87
88 88 88
89 89 89
182 182 182
193 193 193
79 79 79
21 21 21
53 53 53
10 10 10
22 22 22
14 14 14
0 0 0
0 0 0
2 2 2
1 1 1
1 1 1
1 1 1
2 2 2
3 3 3
1 1 1
42 42 42
77 77 77
79 79 79
130 130 130
1 1 1
1 1 1
1 1 1
89 89 89
85 85 85
87 87 87
83 83 83
89 89 89
88 88 88
130 130 130
126 126 126
187 187 187
79 79 79
134 134 134
146 146 146
104 104 104
87 87 87
87 87 87
87 87 87
87 87 87
88 88 88
87 87 87
88 88 88
87 87 87
88 88 88
88 88 88
87 87 87
88 88 88
158 158 158
200 200 200
84 84 84
37 37 37
16 16 16
54 54 54
11 11 11
20 20 20
15 15 15
0 0 0
0 0 0
1 1 1
1 1 1
1 1 1
1 1 1
1 1 1
2 2 2
2 2 2
8 8 8
79 79 79
77 77 77
103 103 103
0 0 0
27 27 27
101 101 101
77 77 77
85 85 85
87 87 87
80 80 80
87 87 87
88 88 88
145 145 145
144 144 144
94 94 94
58 58 58
10 10 10
163 163 163
160 160 160
92 92 92
87 87 87
87 87 87
88 88 88
88 88 88
88 88 88
87 87 87
88 88 88
88 88 88
87 87 87
88 88 88
143 143 143
204 204 204
93 93 93
66 66 66
30 30 30
26 26 26
47 47 47
12 12 12
19 19 19
14 14 14
0 0 0
0 0 0
1 1 1
1 1 1
1 1 1
1 1 1
1 1 1
1 1 1
2 2 2
0 0 0
79 79 79
78 78 78
150 150 150
23 23 23
99 99 99
74 74 74
87 87 87
87 87 87
86 86 86
81 81 81
83 83 83
95 95 95
123 123 123
95 95 95
118 118 118
147 147 147
70 70 70
165 165 165
129 129 129
162 162 162
89 89 89
88 88 88
87 87 87
88 88 88
88 88 88
87 87 87
87 87 87
88 88 88
111 111 111
174 174 174
197 197 197
89 89 89
68 68 68
29 29 29
36 36 36
39 39 39
35 35 35
14 14 14
15 15 15
14 14 14
0 0 0
0 0 0
0 0 0
1 1 1
0 0 0
1 1 1
1 1 1
1 1 1
2 2 2
1 1 1
6 6 6
76 76 76
82 82 82
140 140 140
137 137 137
73 73 73
86 86 86
93 93 93
86 86 86
87 87 87
87 87 87
129 129 129
146 146 146
132 132 132
121 121 121
185 185 185
20 20 20
107 107 107
39 39 39
126 126 126
136 136 136
87 87 87
87 87 87
87 87 87
88 88 88
88 88 88
97 97 97
182 182 182
206 206 206
121 121 121
85 85 85
38 38 38
21 21 21
20 20 20
17 17 17
23 23 23
17 17 17
18 18 18
14 14 14
15 15 15
0 0 0
0 0 0
0 0 0
0 0 0
1 1 1
1 1 1
1 1 1
0 0 0
0 0 0
0 0 0
0 0 0
50 50 50
74 74 74
83 83 83
175 175 175
152 152 152
80 80 80
81 81 81
84 84 84
84 84 84
86 86 86
178 178 178
137 137 137
131 131 131
116 116 116
184 184 184
104 104 104
102 102 102
106 106 106
33 33 33
141 141 141
97 97 97
87 87 87
90 90 90
95 95 95
161 161 161
195 195 195
211 211 211
103 103 103
83 83 83
35 35 35
25 25 25
28 28 28
21 21 21
14 14 14
31 31 31
9 9 9
25 25 25
13 13 13
19 19 19
0 0 0
0 0 0
2 2 2
1 1 1
1 1 1
1 1 1
1 1 1
0 0 0
0 0 0
1 1 1
0 0 0
0 0 0
23 23 23
77 77 77
75 75 75
82 82 82
148 148 148
139 139 139
109 109 109
86 86 86
90 90 90
150 150 150
155 155 155
97 97 97
95 95 95
103 103 103
152 152 152
158 158 158
84 84 84
109 109 109
78 78 78
92 92 92
149 149 149
176 176 176
190 190 190
199 199 199
152 152 152
85 85 85
46 46 46
35 35 35
19 19 19
15 15 15
10 10 10
16 16 16
19 19 19
36 36 36
8 8 8
38 38 38
13 13 13
28 28 28
0 0 0
0 0 0
2 2 2
1 1 1
1 1 1
1 1 1
1 1 1
1 1 1
1 1 1
0 0 0
1 1 1
0 0 0
0 0 0
0 0 0
26 26 26
75 75 75
77 77 77
79 79 79
81 81 81
81 81 81
80 80 80
84 84 84
84 84 84
86 86 86
90 90 90
90 90 90
92 92 92
133 133 133
188 188 188
99 99 99
119 119 119
130 130 130
213 213 213
203 203 203
132 132 132
84 84 84
53 53 53
30 30 30
6 6 6
4 4 4
15 15 15
18 18 18
22 22 22
18 18 18
23 23 23
49 49 49
8 8 8
55 55 55
14 14 14
2 2 2
0 0 0
0 0 0
2 2 2
0 0 0
2 2 2
1 1 1
2 2 2
1 1 1
1 1 1
1 1 1
0 0 0
0 0 0
1 1 1
2 2 2
1 1 1
0 0 0
0 0 0
3 3 3
8 8 8
15 15 15
29 29 29
38 38 38
38 38 38
27 27 27
43 43 43
81 81 81
89 89 89
88 88 88
71 71 71
112 112 112
121 121 121
93 93 93
67 67 67
39 39 39
22 22 22
15 15 15
5 5 5
4 4 4
6 6 6
8 8 8
21 21 21
20 20 20
7 7 7
13 13 13
19 19 19
33 33 33
9 9 9
75 75 75
23 23 23
2 2 2
0 0 0
0 0 0
2 2 2
2 2 2
2 2 2
3 3 3
2 2 2
3 3 3
2 2 2
2 2 2
0 0 0
3 3 3
3 3 3
3 3 3
3 3 3
3 3 3
2 2 2
2 2 2
3 3 3
3 3 3
1 1 1
1 1 1
2 2 2
2 2 2
2 2 2
2 2 2
17 17 17
58 58 58
52 52 52
45 45 45
75 75 75
63 63 63
61 61 61
69 69 69
2 2 2
4 4 4
5 5 5
5 5 5
5 5 5
15 15 15
20 20 20
20 20 20
17 17 17
28 28 28
15 15 15
10 10 10
10 10 10
81 81 81
8 8 8
2 2 2
0 0 0
0 0 0
2 2 2
2 2 2
2 2 2
1 1 1
2 2 2
2 2 2
3 3 3
3 3 3
3 3 3
3 3 3
2 2 2
3 3 3
3 3 3
3 3 3
2 2 2
2 2 2
2 2 2
2 2 2
2 2 2
3 3 3
4 4 4
3 3 3
3 3 3
3 3 3
1 1 1
30 30 30
19 19 19
0 0 0
17 17 17
20 20 20
2 2 2
4 4 4
2 2 2
2 2 2
5 5 5
5 5 5
5 5 5
14 14 14
15 15 15
9 9 9
16 16 16
18 18 18
28 28 28
9 9 9
14 14 14
69 69 69
2 2 2
2 2 2
0 0 0
0 0 0
2 2 2
2 2 2
2 2 2
3 3 3
3 3 3
2 2 2
3 3 3
2 2 2
2 2 2
2 2 2
3 3 3
3 3 3
3 3 3
3 3 3
3 3 3
2 2 2
3 3 3
1 1 1
2 2 2
3 3 3
3 3 3
4 4 4
3 3 3
3 3 3
2 2 2
3 3 3
4 4 4
1 1 1
1 1 1
3 3 3
3 3 3
4 4 4
3 3 3
5 5 5
3 3 3
5 5 5
5 5 5
12 12 12
15 15 15
15 15 15
12 12 12
7 7 7
49 49 49
11 11 11
17 17 17
11 11 11
2 2 2
2 2 2
0 0 0
0 0 0
2 2 2
2 2 2
2 2 2
2 2 2
2 2 2
2 2 2
2 2 2
2 2 2
2 2 2
3 3 3
3 3 3
3 3 3
3 3 3
3 3 3
3 3 3
3 3 3
2 2 2
2 2 2
3 3 3
3 3 3
3 3 3
3 3 3
3 3 3
3 3 3
4 4 4
4 4 4
2 2 2
3 3 3
4 4 4
3 3 3
5 5 5
4 4 4
5 5 5
5 5 5
5 5 5
4 4 4
4 4 4
16 16 16
15 15 15
17 17 17
20 20 20
11 11 11
20 20 20
14 14 14
35 35 35
2 2 2
2 2 2
2 2 2
0 0 0
0 0 0
2 2 2
2 2 2
2 2 2
2 2 2
2 2 2
3 3 3
2 2 2
2 2 2
3 3 3
3 3 3
3 3 3
3 3 3
3 3 3
3 3 3
4 4 4
4 4 4
4 4 4
3 3 3
3 3 3
3 3 3
3 3 3
3 3 3
4 4 4
5 5 5
3 3 3
3 3 3
4 4 4
4 4 4
3 3 3
2 2 2
4 4 4
5 5 5
5 5 5
4 4 4
5 5 5
4 4 4
6 6 6
17 17 17
14 14 14
17 17 17
14 14 14
31 31 31
11 11 11
17 17 17
2 2 2
2 2 2
2 2 2
2 2 2
0 0 0
0 0 0
2 2 2
2 2 2
2 2 2
2 2 2
2 2 2
0 0 0
1 1 1
1 1 1
2 2 2
2 2 2
2 2 2
3 3 3
3 3 3
3 3 3
3 3 3
3 3 3
3 3 3
2 2 2
3 3 3
3 3 3
4 4 4
3 3 3
4 4 4
4 4 4
3 3 3
4 4 4
4 4 4
5 5 5
5 5 5
4 4 4
5 5 5
4 4 4
4 4 4
4 4 4
5 5 5
9 9 9
13 13 13
19 19 19
18 18 18
29 29 29
19 19 19
42 42 42
13 13 13
5 5 5
2 2 2
2 2 2
2 2 2
2 2 2
0 0 0
0 0 0
2 2 2
2 2 2
2 2 2
2 2 2
2 2 2
2 2 2
0 0 0
1 1 1
2 2 2
1 1 1
1 1 1
1 1 1
2 2 2
3 3 3
3 3 3
3 3 3
3 3 3
3 3 3
4 4 4
4 4 4
3 3 3
4 4 4
3 3 3
3 3 3
4 4 4
4 4 4
4 4 4
4 4 4
4 4 4
5 5 5
4 4 4
4 4 4
4 4 4
9 9 9
13 13 13
7 7 7
5 5 5
25 25 25
13 13 13
32 32 32
20 20 20
15 15 15
10 10 10
2 2 2
2 2 2
2 2 2
2 2 2
2 2 2
0 0 0
0 0 0
2 2 2
2 2 2
2 2 2
2 2 2
2 2 2
2 2 2
2 2 2
1 1 1
1 1 1
1 1 1
1 1 1
1 1 1
1 1 1
1 1 1
1 1 1
1 1 1
2 2 2
3 3 3
4 4 4
2 2 2
4 4 4
3 3 3
3 3 3
4 4 4
4 4 4
4 4 4
4 4 4
4 4 4
4 4 4
4 4 4
3 3 3
6 6 6
15 15 15
4 4 4
4 4 4
16 16 16
16 16 16
23 23 23
29 29 29
22 22 22
51 51 51
18 18 18
2 2 2
2 2 2
2 2 2
2 2 2
2 2 2
2 2 2
0 0 0
0 0 0
2 2 2
2 2 2
2 2 2
2 2 2
2 2 2
2 2 2
2 2 2
2 2 2
0 0 0
1 1 1
0 0 0
0 0 0
1 1 1
1 1 1
2 2 2
1 1 1
2 2 2
1 1 1
1 1 1
1 1 1
18 18 18
21 21 21
3 3 3
4 4 4
3 3 3
3 3 3
3 3 3
4 4 4
4 4 4
9 9 9
16 16 16
10 10 10
8 8 8
10 10 10
14 14 14
16 16 16
22 22 22
25 25 25
30 30 30
23 23 23
17 17 17
2 2 2
2 2 2
2 2 2
2 2 2
2 2 2
2 2 2
2 2 2
0 0 0
0 0 0
2 2 2
2 2 2
2 2 2
2 2 2
2 2 2
2 2 2
2 2 2
2 2 2
2 2 2
0 0 0
1 1 1
1 1 1
1 1 1
1 1 1
1 1 1
1 1 1
1 1 1
1 1 1
2 2 2
1 1 1
1 1 1
5 5 5
17 17 17
2 2 2
2 2 2
2 2 2
2 2 2
2 2 2
3 3 3
14 14 14
9 9 9
10 10 10
9 9 9
10 10 10
13 13 13
11 11 11
20 20 20
21 21 21
21 21 21
4 4 4
2 2 2
2 2 2
2 2 2
2 2 2
2 2 2
2 2 2
2 2 2
2 2 2
0 0 0
0 0 0
2 2 2
2 2 2
2 2 2
2 2 2
2 2 2
2 2 2
2 2 2
2 2 2
2 2 2
2 2 2
1 1 1
0 0 0
1 1 1
1 1 1
1 1 1
1 1 1
1 1 1
1 1 1
2 2 2
1 1 1
2 2 2
2 2 2
3 3 3
12 12 12
2 2 2
9 9 9
8 8 8
3 3 3
9 9 9
12 12 12
4 4 4
7 7 7
8 8 8
11 11 11
15 15 15
15 15 15
19 19 19
28 28 28
2 2 2
2 2 2
2 2 2
2 2 2
2 2 2
2 2 2
2 2 2
2 2 2
2 2 2
2 2 2
0 0 0
0 0 0
2 2 2
2 2 2
2 2 2
2 2 2
2 2 2
2 2 2
2 2 2
2 2 2
2 2 2
2 2 2
2 2 2
2 2 2
1 1 1
1 1 1
1 1 1
1 1 1
1 1 1
1 1 1
1 1 1
1 1 1
1 1 1
2 2 2
3 3 3
2 2 2
14 14 14
7 7 7
2 2 2
9 9 9
17 17 17
3 3 3
4 4 4
12 12 12
10 10 10
6 6 6
14 14 14
15 15 15
5 5 5
2 2 2
2 2 2
2 2 2
2 2 2
2 2 2
2 2 2
2 2 2
2 2 2
2 2 2
2 2 2
2 2 2
0 0 0
0 0 0
2 2 2
2 2 2
2 2 2
2 2 2
2 2 2
2 2 2
2 2 2
2 2 2
2 2 2
2 2 2
2 2 2
2 2 2
2 2 2
2 2 2
1 1 1
0 0 0
1 1 1
1 1 1
1 1 1
2 2 2
1 1 1
2 2 2
2 2 2
2 2 2
2 2 2
24 24 24
12 12 12
14 14 14
20 20 20
6 6 6
11 11 11
7 7 7
9 9 9
14 14 14
3 3 3
2 2 2
2 2 2
2 2 2
2 2 2
2 2 2
2 2 2
2 2 2
2 2 2
2 2 2
2 2 2
2 2 2
2 2 2
2 2 2
0 0 0
0 0 0
2 2 2
2 2 2
2 2 2
2 2 2
2 2 2
2 2 2
2 2 2
2 2 2
2 2 2
2 2 2
2 2 2
2 2 2
2 2 2
2 2 2
2 2 2
2 2 2
2 2 2
2 2 2
2 2 2
2 2 2
2 2 2
2 2 2
2 2 2
2 2 2
3 3 3
4 4 4
27 27 27
17 17 17
19 19 19
8 8 8
14 14 14
14 14 14
2 2 2
2 2 2
2 2 2
2 2 2
2 2 2
2 2 2
2 2 2
2 2 2
2 2 2
2 2 2
2 2 2
2 2 2
2 2 2
2 2 2
2 2 2
2 2 2
0 0 0
0 0 0
0 0 0
0 0 0
0 0 0
0 0 0
0 0 0
0 0 0
0 0 0
0 0 0
0 0 0
0 0 0
0 0 0
0 0 0
0 0 0
0 0 0
0 0 0
0 0 0
0 0 0
0 0 0
0 0 0
0 0 0
0 0 0
0 0 0
0 0 0
0 0 0
0 0 0
0 0 0
0 0 0
0 0 0
0 0 0
0 0 0
0 0 0
0 0 0
0 0 0
0 0 0
0 0 0
0 0 0
0 0 0
0 0 0
0 0 0
0 0 0
0 0 0
0 0 0
0 0 0
0 0 0
0 0 0
0 0 0
0 0 0
0 0 0
0 0 0
