P3 
50 50 
255
0 0 0
0 0 0
0 0 0
0 0 0
0 0 0
0 0 0
0 0 0
0 0 0
0 0 0
0 0 0
0 0 0
0 0 0
0 0 0
0 0 0
0 0 0
0 0 0
0 0 0
0 0 0
0 0 0
0 0 0
0 0 0
0 0 0
0 0 0
0 0 0
0 0 0
0 0 0
0 0 0
0 0 0
0 0 0
0 0 0
0 0 0
0 0 0
0 0 0
0 0 0
0 0 0
0 0 0
0 0 0
0 0 0
0 0 0
0 0 0
0 0 0
0 0 0
0 0 0
0 0 0
0 0 0
0 0 0
0 0 0
0 0 0
0 0 0
0 0 0
0 0 0
2 2 2
2 2 2
2 2 2
2 2 2
2 2 2
2 2 2
2 2 2
2 2 2
2 2 2
2 2 2
2 2 2
2 2 2
2 2 2
2 2 2
2 2 2
2 2 2
2 2 2
1 1 1
1 1 1
2 2 2
2 2 2
1 1 1
2 2 2
6 6 6
3 3 3
6 6 6
6 6 6
4 4 4
5 5 5
10 10 10
11 11 11
4 4 4
2 2 2
2 2 2
2 2 2
2 2 2
2 2 2
2 2 2
2 2 2
2 2 2
2 2 2
2 2 2
2 2 2
2 2 2
2 2 2
2 2 2
2 2 2
2 2 2
0 0 0
0 0 0
2 2 2
2 2 2
2 2 2
2 2 2
2 2 2
2 2 2
2 2 2
2 2 2
2 2 2
2 2 2
2 2 2
2 2 2
2 2 2
2 2 2
1 1 1
1 1 1
1 1 1
1 1 1
6 6 6
2 2 2
2 2 2
2 2 2
2 2 2
2 2 2
3 3 3
5 5 5
3 3 3
4 4 4
7 7 7
7 7 7
7 7 7
18 18 18
12 12 12
14 14 14
2 2 2
2 2 2
2 2 2
2 2 2
2 2 2
2 2 2
2 2 2
2 2 2
2 2 2
2 2 2
2 2 2
2 2 2
2 2 2
2 2 2
0 0 0
0 0 0
2 2 2
2 2 2
2 2 2
2 2 2
2 2 2
2 2 2
2 2 2
2 2 2
2 2 2
2 2 2
2 2 2
2 2 2
1 1 1
0 0 0
1 1 1
1 1 1
1 1 1
4 4 4
4 4 4
5 5 5
2 2 2
6 6 6
2 2 2
2 2 2
4 4 4
5 5 5
3 3 3
8 8 8
5 5 5
11 11 11
14 14 14
8 8 8
11 11 11
5 5 5
13 13 13
15 15 15
2 2 2
2 2 2
2 2 2
2 2 2
2 2 2
2 2 2
2 2 2
2 2 2
2 2 2
2 2 2
2 2 2
2 2 2
0 0 0
0 0 0
2 2 2
2 2 2
2 2 2
2 2 2
2 2 2
2 2 2
2 2 2
2 2 2
2 2 2
2 2 2
2 2 2
1 1 1
0 0 0
1 1 1
1 1 1
1 1 1
1 1 1
6 6 6
5 5 5
3 3 3
1 1 1
5 5 5
1 1 1
2 2 2
6 6 6
6 6 6
6 6 6
6 6 6
13 13 13
7 7 7
4 4 4
9 9 9
13 13 13
9 9 9
10 10 10
8 8 8
8 8 8
8 8 8
2 2 2
2 2 2
2 2 2
2 2 2
2 2 2
2 2 2
2 2 2
2 2 2
2 2 2
2 2 2
0 0 0
0 0 0
2 2 2
2 2 2
2 2 2
2 2 2
2 2 2
2 2 2
2 2 2
2 2 2
2 2 2
1 1 1
1 1 1
1 1 1
1 1 1
1 1 1
1 1 1
1 1 1
1 1 1
2 2 2
8 8 8
3 3 3
4 4 4
4 4 4
3 3 3
5 5 5
7 7 7
8 8 8
6 6 6
7 7 7
7 7 7
8 8 8
18 18 18
7 7 7
3 3 3
3 3 3
4 4 4
10 10 10
6 6 6
8 8 8
11 11 11
2 2 2
2 2 2
2 2 2
2 2 2
2 2 2
2 2 2
2 2 2
2 2 2
2 2 2
0 0 0
0 0 0
2 2 2
2 2 2
2 2 2
2 2 2
2 2 2
2 2 2
2 2 2
2 2 2
1 1 1
1 1 1
1 1 1
1 1 1
1 1 1
1 1 1
1 1 1
1 1 1
1 1 1
1 1 1
4 4 4
6 6 6
9 9 9
8 8 8
4 4 4
3 3 3
9 9 9
15 15 15
7 7 7
2 2 2
17 17 17
9 9 9
5 5 5
10 10 10
3 3 3
3 3 3
12 12 12
5 5 5
4 4 4
5 5 5
7 7 7
11 11 11
4 4 4
2 2 2
2 2 2
2 2 2
2 2 2
2 2 2
2 2 2
2 2 2
0 0 0
0 0 0
2 2 2
2 2 2
2 2 2
2 2 2
2 2 2
2 2 2
2 2 2
2 2 2
1 1 1
1 1 1
1 1 1
1 1 1
1 1 1
1 1 1
1 1 1
1 1 1
1 1 1
1 1 1
8 8 8
3 3 3
11 11 11
14 14 14
5 5 5
6 6 6
3 3 3
13 13 13
6 6 6
19 19 19
11 11 11
5 5 5
14 14 14
2 2 2
9 9 9
4 4 4
6 6 6
4 4 4
4 4 4
4 4 4
5 5 5
7 7 7
12 12 12
8 8 8
2 2 2
2 2 2
2 2 2
2 2 2
2 2 2
2 2 2
0 0 0
0 0 0
2 2 2
2 2 2
2 2 2
2 2 2
2 2 2
2 2 2
2 2 2
1 1 1
1 1 1
1 1 1
1 1 1
1 1 1
1 1 1
1 1 1
1 1 1
1 1 1
1 1 1
2 2 2
15 15 15
11 11 11
6 6 6
8 8 8
12 12 12
2 2 2
8 8 8
6 6 6
18 18 18
12 12 12
10 10 10
12 12 12
8 8 8
9 9 9
3 3 3
5 5 5
10 10 10
7 7 7
4 4 4
4 4 4
4 4 4
6 6 6
8 8 8
46 46 46
4 4 4
2 2 2
2 2 2
2 2 2
2 2 2
2 2 2
0 0 0
0 0 0
2 2 2
2 2 2
2 2 2
2 2 2
2 2 2
2 2 2
1 1 1
2 2 2
2 2 2
1 1 1
1 1 1
1 1 1
1 1 1
1 1 1
1 1 1
1 1 1
1 1 1
3 3 3
14 14 14
7 7 7
7 7 7
2 2 2
16 16 16
8 8 8
6 6 6
12 12 12
14 14 14
10 10 10
10 10 10
8 8 8
11 11 11
10 10 10
3 3 3
3 3 3
4 4 4
3 3 3
13 13 13
12 12 12
4 4 4
5 5 5
6 6 6
18 18 18
18 18 18
2 2 2
2 2 2
2 2 2
2 2 2
2 2 2
0 0 0
0 0 0
2 2 2
2 2 2
2 2 2
2 2 2
1 1 1
2 2 2
2 2 2
2 2 2
2 2 2
2 2 2
1 1 1
1 1 1
1 1 1
1 1 1
1 1 1
1 1 1
1 1 1
20 20 20
14 14 14
6 6 6
13 13 13
3 3 3
0 0 0
8 8 8
21 21 21
7 7 7
10 10 10
2 2 2
2 2 2
17 17 17
13 13 13
3 3 3
11 11 11
10 10 10
8 8 8
4 4 4
6 6 6
6 6 6
9 9 9
5 5 5
5 5 5
6 6 6
20 20 20
21 21 21
2 2 2
2 2 2
2 2 2
2 2 2
0 0 0
0 0 0
2 2 2
2 2 2
2 2 2
2 2 2
1 1 1
2 2 2
2 2 2
2 2 2
2 2 2
2 2 2
2 2 2
1 1 1
1 1 1
1 1 1
1 1 1
5 5 5
5 5 5
14 14 14
7 7 7
11 11 11
17 17 17
50 50 50
67 67 67
82 82 82
52 52 52
38 38 38
68 68 68
32 32 32
2 2 2
10 10 10
11 11 11
16 16 16
11 11 11
11 11 11
17 17 17
11 11 11
8 8 8
12 12 12
5 5 5
10 10 10
5 5 5
5 5 5
33 33 33
14 14 14
19 19 19
2 2 2
2 2 2
2 2 2
0 0 0
0 0 0
2 2 2
2 2 2
2 2 2
2 2 2
2 2 2
2 2 2
2 2 2
2 2 2
2 2 2
2 2 2
2 2 2
1 1 1
0 0 0
2 2 2
6 6 6
13 13 13
13 13 13
9 9 9
9 9 9
78 78 78
81 81 81
79 79 79
81 81 81
80 80 80
85 85 85
88 88 88
89 89 89
87 87 87
84 84 84
22 22 22
12 12 12
10 10 10
6 6 6
22 22 22
16 16 16
11 11 11
10 10 10
9 9 9
11 11 11
5 5 5
4 4 4
4 4 4
42 42 42
11 11 11
16 16 16
5 5 5
2 2 2
2 2 2
0 0 0
0 0 0
2 2 2
2 2 2
2 2 2
2 2 2
1 1 1
2 2 2
2 2 2
2 2 2
2 2 2
3 3 3
2 2 2
2 2 2
5 5 5
21 21 21
21 21 21
39 39 39
54 54 54
26 26 26
80 80 80
82 82 82
80 80 80
82 82 82
89 89 89
82 82 82
88 88 88
89 89 89
83 83 83
88 88 88
89 89 89
85 85 85
4 4 4
9 9 9
5 5 5
11 11 11
6 6 6
18 18 18
10 10 10
10 10 10
8 8 8
10 10 10
4 4 4
5 5 5
38 38 38
7 7 7
13 13 13
80 80 80
2 2 2
2 2 2
0 0 0
0 0 0
2 2 2
2 2 2
2 2 2
2 2 2
2 2 2
2 2 2
2 2 2
2 2 2
3 3 3
2 2 2
6 6 6
24 24 24
43 43 43
66 66 66
68 68 68
79 79 79
80 80 80
80 80 80
83 83 83
86 86 86
87 87 87
79 79 79
79 79 79
81 81 81
83 83 83
80 80 80
78 78 78
82 82 82
79 79 79
85 85 85
81 81 81
31 31 31
10 10 10
7 7 7
9 9 9
18 18 18
11 11 11
7 7 7
10 10 10
10 10 10
6 6 6
11 11 11
28 28 28
8 8 8
11 11 11
55 55 55
5 5 5
2 2 2
0 0 0
0 0 0
2 2 2
2 2 2
2 2 2
1 1 1
2 2 2
2 2 2
3 3 3
3 3 3
1 1 1
23 23 23
62 62 62
75 75 75
84 84 84
78 78 78
79 79 79
80 80 80
84 84 84
87 87 87
86 86 86
86 86 86
86 86 86
88 88 88
89 89 89
83 83 83
79 79 79
84 84 84
87 87 87
88 88 88
88 88 88
88 88 88
90 90 90
83 83 83
41 41 41
4 4 4
4 4 4
12 12 12
18 18 18
12 12 12
12 12 12
16 16 16
8 8 8
4 4 4
8 8 8
11 11 11
9 9 9
33 33 33
23 23 23
2 2 2
0 0 0
0 0 0
2 2 2
1 1 1
1 1 1
2 2 2
1 1 1
3 3 3
2 2 2
1 1 1
39 39 39
70 70 70
85 85 85
170 170 170
144 144 144
79 79 79
79 79 79
83 83 83
86 86 86
87 87 87
86 86 86
87 87 87
85 85 85
88 88 88
89 89 89
87 87 87
99 99 99
86 86 86
86 86 86
86 86 86
88 88 88
88 88 88
88 88 88
89 89 89
83 83 83
60 60 60
10 10 10
8 8 8
14 14 14
11 11 11
18 18 18
11 11 11
6 6 6
4 4 4
5 5 5
26 26 26
6 6 6
22 22 22
16 16 16
3 3 3
0 0 0
0 0 0
2 2 2
1 1 1
1 1 1
1 1 1
2 2 2
3 3 3
1 1 1
72 72 72
79 79 79
107 107 107
209 209 209
209 209 209
82 82 82
81 81 81
85 85 85
87 87 87
87 87 87
88 88 88
86 86 86
86 86 86
86 86 86
85 85 85
87 87 87
87 87 87
108 108 108
94 94 94
136 136 136
84 84 84
85 85 85
86 86 86
86 86 86
89 89 89
88 88 88
81 81 81
53 53 53
11 11 11
5 5 5
7 7 7
17 17 17
10 10 10
5 5 5
9 9 9
5 5 5
43 43 43
7 7 7
16 16 16
18 18 18
19 19 19
0 0 0
0 0 0
1 1 1
2 2 2
1 1 1
1 1 1
3 3 3
2 2 2
63 63 63
78 78 78
91 91 91
204 204 204
212 212 212
91 91 91
88 88 88
87 87 87
87 87 87
87 87 87
87 87 87
87 87 87
88 88 88
84 84 84
87 87 87
87 87 87
84 84 84
88 88 88
88 88 88
141 141 141
102 102 102
115 115 115
82 82 82
86 86 86
87 87 87
87 87 87
89 89 89
86 86 86
75 75 75
16 16 16
17 17 17
7 7 7
17 17 17
5 5 5
16 16 16
7 7 7
3 3 3
41 41 41
9 9 9
11 11 11
22 22 22
20 20 20
0 0 0
0 0 0
2 2 2
1 1 1
1 1 1
2 2 2
2 2 2
11 11 11
82 82 82
86 86 86
214 214 214
206 206 206
104 104 104
88 88 88
89 89 89
88 88 88
87 87 87
87 87 87
86 86 86
85 85 85
88 88 88
0 0 0
88 88 88
87 87 87
88 88 88
99 99 99
101 101 101
121 121 121
107 107 107
115 115 115
77 77 77
83 83 83
81 81 81
87 87 87
88 88 88
88 88 88
76 76 76
17 17 17
7 7 7
14 14 14
11 11 11
9 9 9
22 22 22
7 7 7
3 3 3
34 34 34
9 9 9
9 9 9
27 27 27
14 14 14
0 0 0
0 0 0
2 2 2
1 1 1
1 1 1
2 2 2
1 1 1
74 74 74
86 86 86
183 183 183
116 116 116
164 164 164
88 88 88
88 88 88
88 88 88
88 88 88
87 87 87
86 86 86
84 84 84
87 87 87
76 76 76
55 55 55
47 47 47
92 92 92
96 96 96
114 114 114
120 120 120
86 86 86
97 97 97
135 135 135
80 80 80
87 87 87
85 85 85
80 80 80
88 88 88
89 89 89
87 87 87
21 21 21
3 3 3
9 9 9
17 17 17
9 9 9
21 21 21
8 8 8
7 7 7
39 39 39
7 7 7
9 9 9
33 33 33
13 13 13
0 0 0
0 0 0
1 1 1
1 1 1
1 1 1
2 2 2
1 1 1
80 80 80
84 84 84
182 182 182
162 162 162
99 99 99
87 87 87
89 89 89
89 89 89
88 88 88
85 85 85
85 85 85
83 83 83
88 88 88
13 13 13
68 68 68
10 10 10
107 107 107
98 98 98
108 108 108
117 117 117
85 85 85
85 85 85
125 125 125
86 86 86
87 87 87
86 86 86
80 80 80
88 88 88
88 88 88
82 82 82
71 71 71
10 10 10
11 11 11
11 11 11
8 8 8
21 21 21
10 10 10
11 11 11
42 42 42
7 7 7
8 8 8
38 38 38
13 13 13
0 0 0
0 0 0
1 1 1
0 0 0
1 1 1
2 2 2
1 1 1
69 69 69
82 82 82
196 196 196
153 153 153
98 98 98
87 87 87
88 88 88
89 89 89
88 88 88
87 87 87
86 86 86
84 84 84
89 89 89
3 3 3
20 20 20
67 67 67
90 90 90
107 107 107
120 120 120
90 90 90
85 85 85
85 85 85
133 133 133
118 118 118
97 97 97
78 78 78
83 83 83
85 85 85
88 88 88
92 92 92
82 82 82
20 20 20
19 19 19
10 10 10
6 6 6
15 15 15
12 12 12
12 12 12
26 26 26
7 7 7
7 7 7
43 43 43
13 13 13
0 0 0
0 0 0
1 1 1
1 1 1
1 1 1
1 1 1
0 0 0
48 48 48
84 84 84
163 163 163
145 145 145
168 168 168
86 86 86
88 88 88
88 88 88
88 88 88
87 87 87
87 87 87
86 86 86
87 87 87
48 48 48
2 2 2
90 90 90
88 88 88
108 108 108
152 152 152
87 87 87
84 84 84
117 117 117
129 129 129
92 92 92
90 90 90
85 85 85
82 82 82
87 87 87
88 88 88
90 90 90
79 79 79
28 28 28
9 9 9
6 6 6
6 6 6
11 11 11
12 12 12
5 5 5
11 11 11
7 7 7
7 7 7
46 46 46
12 12 12
0 0 0
0 0 0
1 1 1
1 1 1
1 1 1
1 1 1
1 1 1
7 7 7
80 80 80
82 82 82
222 222 222
201 201 201
106 106 106
87 87 87
88 88 88
88 88 88
88 88 88
87 87 87
87 87 87
86 86 86
85 85 85
66 66 66
88 88 88
85 85 85
88 88 88
98 98 98
127 127 127
134 134 134
109 109 109
79 79 79
86 86 86
87 87 87
82 82 82
84 84 84
88 88 88
88 88 88
88 88 88
81 81 81
18 18 18
6 6 6
15 15 15
12 12 12
10 10 10
10 10 10
9 9 9
7 7 7
7 7 7
7 7 7
46 46 46
12 12 12
0 0 0
0 0 0
1 1 1
1 1 1
1 1 1
0 0 0
1 1 1
0 0 0
33 33 33
76 76 76
81 81 81
224 224 224
208 208 208
136 136 136
87 87 87
88 88 88
88 88 88
89 89 89
88 88 88
87 87 87
86 86 86
87 87 87
87 87 87
87 87 87
93 93 93
123 123 123
101 101 101
110 110 110
80 80 80
80 80 80
82 82 82
79 79 79
85 85 85
85 85 85
89 89 89
88 88 88
82 82 82
90 90 90
7 7 7
12 12 12
8 8 8
17 17 17
16 16 16
12 12 12
13 13 13
8 8 8
7 7 7
8 8 8
44 44 44
13 13 13
0 0 0
0 0 0
1 1 1
1 1 1
1 1 1
1 1 1
1 1 1
1 1 1
0 0 0
20 20 20
77 77 77
77 77 77
175 175 175
212 212 212
119 119 119
78 78 78
81 81 81
80 80 80
87 87 87
88 88 88
87 87 87
87 87 87
88 88 88
88 88 88
102 102 102
98 98 98
109 109 109
116 116 116
77 77 77
83 83 83
84 84 84
88 88 88
87 87 87
89 89 89
88 88 88
85 85 85
84 84 84
28 28 28
8 8 8
14 14 14
11 11 11
12 12 12
20 20 20
8 8 8
12 12 12
9 9 9
7 7 7
7 7 7
43 43 43
12 12 12
0 0 0
0 0 0
2 2 2
1 1 1
1 1 1
1 1 1
1 1 1
1 1 1
1 1 1
0 0 0
0 0 0
20 20 20
46 46 46
84 84 84
101 101 101
77 77 77
79 79 79
77 77 77
79 79 79
88 88 88
88 88 88
87 87 87
86 86 86
88 88 88
87 87 87
84 84 84
87 87 87
84 84 84
86 86 86
87 87 87
87 87 87
87 87 87
88 88 88
89 89 89
78 78 78
88 88 88
56 56 56
2 2 2
6 6 6
5 5 5
10 10 10
10 10 10
13 13 13
8 8 8
5 5 5
11 11 11
7 7 7
7 7 7
38 38 38
14 14 14
0 0 0
0 0 0
1 1 1
1 1 1
1 1 1
1 1 1
1 1 1
2 2 2
1 1 1
1 1 1
1 1 1
0 0 0
12 12 12
17 17 17
33 33 33
35 35 35
51 51 51
76 76 76
78 78 78
78 78 78
86 86 86
88 88 88
89 89 89
87 87 87
88 88 88
84 84 84
83 83 83
83 83 83
87 87 87
89 89 89
89 89 89
89 89 89
89 89 89
80 80 80
85 85 85
4 4 4
1 1 1
9 9 9
3 3 3
3 3 3
3 3 3
3 3 3
5 5 5
8 8 8
3 3 3
18 18 18
7 7 7
7 7 7
33 33 33
13 13 13
0 0 0
0 0 0
1 1 1
1 1 1
2 2 2
1 1 1
1 1 1
2 2 2
2 2 2
2 2 2
1 1 1
1 1 1
1 1 1
2 2 2
18 18 18
14 14 14
18 18 18
25 25 25
63 63 63
78 78 78
78 78 78
84 84 84
83 83 83
83 83 83
84 84 84
80 80 80
83 83 83
80 80 80
83 83 83
89 89 89
85 85 85
90 90 90
86 86 86
84 84 84
2 2 2
1 1 1
5 5 5
10 10 10
3 3 3
4 4 4
6 6 6
5 5 5
6 6 6
8 8 8
4 4 4
30 30 30
8 8 8
9 9 9
28 28 28
13 13 13
0 0 0
0 0 0
1 1 1
1 1 1
1 1 1
1 1 1
1 1 1
2 2 2
2 2 2
2 2 2
1 1 1
2 2 2
2 2 2
1 1 1
0 0 0
2 2 2
2 2 2
3 3 3
15 15 15
14 14 14
14 14 14
64 64 64
80 80 80
83 83 83
87 87 87
90 90 90
90 90 90
85 85 85
90 90 90
84 84 84
62 62 62
28 28 28
14 14 14
14 14 14
5 5 5
3 3 3
6 6 6
7 7 7
5 5 5
8 8 8
11 11 11
4 4 4
5 5 5
5 5 5
7 7 7
38 38 38
6 6 6
11 11 11
21 21 21
13 13 13
0 0 0
0 0 0
1 1 1
1 1 1
1 1 1
2 2 2
2 2 2
1 1 1
1 1 1
1 1 1
1 1 1
2 2 2
2 2 2
1 1 1
1 1 1
1 1 1
1 1 1
1 1 1
2 2 2
12 12 12
2 2 2
1 1 1
10 10 10
78 78 78
79 79 79
86 86 86
91 91 91
89 89 89
74 74 74
1 1 1
1 1 1
4 4 4
7 7 7
6 6 6
7 7 7
5 5 5
4 4 4
4 4 4
9 9 9
8 8 8
8 8 8
10 10 10
6 6 6
5 5 5
9 9 9
40 40 40
8 8 8
14 14 14
17 17 17
17 17 17
0 0 0
0 0 0
2 2 2
1 1 1
2 2 2
1 1 1
1 1 1
2 2 2
2 2 2
1 1 1
2 2 2
1 1 1
1 1 1
2 2 2
1 1 1
2 2 2
2 2 2
2 2 2
2 2 2
2 2 2
1 1 1
2 2 2
2 2 2
1 1 1
0 0 0
10 10 10
20 20 20
3 3 3
1 1 1
2 2 2
2 2 2
3 3 3
3 3 3
3 3 3
3 3 3
3 3 3
4 4 4
5 5 5
9 9 9
10 10 10
9 9 9
14 14 14
16 16 16
5 5 5
8 8 8
36 36 36
9 9 9
21 21 21
15 15 15
26 26 26
0 0 0
0 0 0
2 2 2
2 2 2
2 2 2
1 1 1
1 1 1
2 2 2
1 1 1
1 1 1
1 1 1
1 1 1
1 1 1
2 2 2
1 1 1
1 1 1
1 1 1
2 2 2
2 2 2
2 2 2
2 2 2
1 1 1
2 2 2
3 3 3
2 2 2
2 2 2
2 2 2
1 1 1
2 2 2
2 2 2
2 2 2
3 3 3
3 3 3
3 3 3
3 3 3
4 4 4
5 5 5
7 7 7
10 10 10
7 7 7
12 12 12
14 14 14
13 13 13
12 12 12
4 4 4
26 26 26
9 9 9
33 33 33
13 13 13
2 2 2
0 0 0
0 0 0
2 2 2
1 1 1
2 2 2
1 1 1
1 1 1
1 1 1
1 1 1
1 1 1
1 1 1
1 1 1
1 1 1
1 1 1
1 1 1
1 1 1
2 2 2
2 2 2
2 2 2
2 2 2
3 3 3
2 2 2
2 2 2
2 2 2
2 2 2
3 3 3
2 2 2
3 3 3
3 3 3
2 2 2
2 2 2
3 3 3
3 3 3
3 3 3
3 3 3
3 3 3
4 4 4
7 7 7
3 3 3
15 15 15
10 10 10
4 4 4
10 10 10
11 11 11
9 9 9
14 14 14
9 9 9
53 53 53
21 21 21
2 2 2
0 0 0
0 0 0
2 2 2
2 2 2
1 1 1
1 1 1
1 1 1
1 1 1
1 1 1
1 1 1
2 2 2
1 1 1
2 2 2
1 1 1
1 1 1
2 2 2
2 2 2
2 2 2
2 2 2
2 2 2
2 2 2
3 3 3
2 2 2
2 2 2
2 2 2
2 2 2
3 3 3
3 3 3
3 3 3
2 2 2
3 3 3
2 2 2
2 2 2
3 3 3
2 2 2
3 3 3
3 3 3
5 5 5
3 3 3
4 4 4
12 12 12
9 9 9
10 10 10
10 10 10
13 13 13
10 10 10
10 10 10
77 77 77
8 8 8
2 2 2
0 0 0
0 0 0
2 2 2
2 2 2
1 1 1
1 1 1
1 1 1
1 1 1
1 1 1
1 1 1
1 1 1
2 2 2
1 1 1
1 1 1
1 1 1
1 1 1
1 1 1
2 2 2
2 2 2
2 2 2
2 2 2
2 2 2
3 3 3
2 2 2
2 2 2
3 3 3
2 2 2
3 3 3
3 3 3
3 3 3
3 3 3
3 3 3
3 3 3
2 2 2
2 2 2
2 2 2
3 3 3
6 6 6
7 7 7
3 3 3
11 11 11
14 14 14
8 8 8
7 7 7
34 34 34
10 10 10
14 14 14
90 90 90
2 2 2
2 2 2
0 0 0
0 0 0
2 2 2
2 2 2
2 2 2
1 1 1
1 1 1
1 1 1
1 1 1
1 1 1
1 1 1
2 2 2
1 1 1
2 2 2
1 1 1
1 1 1
1 1 1
2 2 2
2 2 2
1 1 1
2 2 2
2 2 2
2 2 2
3 3 3
2 2 2
2 2 2
2 2 2
2 2 2
2 2 2
3 3 3
3 3 3
3 3 3
3 3 3
3 3 3
3 3 3
3 3 3
3 3 3
10 10 10
8 8 8
3 3 3
8 8 8
10 10 10
13 13 13
7 7 7
29 29 29
10 10 10
16 16 16
11 11 11
2 2 2
2 2 2
0 0 0
0 0 0
2 2 2
2 2 2
2 2 2
1 1 1
1 1 1
1 1 1
1 1 1
1 1 1
1 1 1
2 2 2
1 1 1
2 2 2
1 1 1
1 1 1
1 1 1
2 2 2
2 2 2
2 2 2
1 1 1
2 2 2
3 3 3
2 2 2
2 2 2
2 2 2
2 2 2
2 2 2
2 2 2
2 2 2
3 3 3
3 3 3
3 3 3
3 3 3
3 3 3
3 3 3
3 3 3
5 5 5
6 6 6
5 5 5
10 10 10
15 15 15
8 8 8
11 11 11
9 9 9
13 13 13
31 31 31
2 2 2
2 2 2
2 2 2
0 0 0
0 0 0
2 2 2
2 2 2
2 2 2
2 2 2
1 1 1
1 1 1
1 1 1
1 1 1
1 1 1
1 1 1
1 1 1
1 1 1
1 1 1
2 2 2
1 1 1
1 1 1
2 2 2
2 2 2
2 2 2
2 2 2
2 2 2
2 2 2
2 2 2
2 2 2
2 2 2
2 2 2
2 2 2
2 2 2
2 2 2
3 3 3
3 3 3
3 3 3
3 3 3
3 3 3
3 3 3
2 2 2
9 9 9
10 10 10
5 5 5
21 21 21
8 8 8
39 39 39
10 10 10
16 16 16
2 2 2
2 2 2
2 2 2
2 2 2
0 0 0
0 0 0
2 2 2
2 2 2
2 2 2
2 2 2
2 2 2
1 1 1
1 1 1
1 1 1
1 1 1
1 1 1
1 1 1
1 1 1
1 1 1
1 1 1
1 1 1
2 2 2
1 1 1
2 2 2
2 2 2
2 2 2
2 2 2
2 2 2
2 2 2
3 3 3
2 2 2
2 2 2
2 2 2
3 3 3
2 2 2
2 2 2
3 3 3
4 4 4
4 4 4
10 10 10
3 3 3
3 3 3
10 10 10
11 11 11
13 13 13
14 14 14
8 8 8
23 23 23
14 14 14
5 5 5
2 2 2
2 2 2
2 2 2
2 2 2
0 0 0
0 0 0
2 2 2
2 2 2
2 2 2
2 2 2
2 2 2
2 2 2
1 1 1
1 1 1
1 1 1
1 1 1
1 1 1
1 1 1
1 1 1
1 1 1
1 1 1
1 1 1
1 1 1
1 1 1
2 2 2
2 2 2
2 2 2
2 2 2
2 2 2
2 2 2
2 2 2
2 2 2
2 2 2
2 2 2
2 2 2
4 4 4
6 6 6
10 10 10
4 4 4
4 4 4
3 3 3
3 3 3
7 7 7
10 10 10
12 12 12
13 13 13
19 19 19
13 13 13
9 9 9
2 2 2
2 2 2
2 2 2
2 2 2
2 2 2
0 0 0
0 0 0
2 2 2
2 2 2
2 2 2
2 2 2
2 2 2
2 2 2
2 2 2
1 1 1
1 1 1
1 1 1
1 1 1
1 1 1
1 1 1
1 1 1
1 1 1
2 2 2
2 2 2
1 1 1
2 2 2
2 2 2
2 2 2
2 2 2
1 1 1
2 2 2
2 2 2
3 3 3
2 2 2
2 2 2
9 9 9
4 4 4
3 3 3
3 3 3
3 3 3
6 6 6
3 3 3
3 3 3
3 3 3
6 6 6
10 10 10
9 9 9
43 43 43
16 16 16
2 2 2
2 2 2
2 2 2
2 2 2
2 2 2
2 2 2
0 0 0
0 0 0
2 2 2
2 2 2
2 2 2
2 2 2
2 2 2
2 2 2
2 2 2
2 2 2
1 1 1
1 1 1
1 1 1
1 1 1
1 1 1
1 1 1
1 1 1
1 1 1
1 1 1
1 1 1
1 1 1
2 2 2
2 2 2
2 2 2
2 2 2
1 1 1
1 1 1
2 2 2
2 2 2
8 8 8
4 4 4
3 3 3
2 2 2
3 3 3
8 8 8
5 5 5
3 3 3
4 4 4
15 15 15
9 9 9
20 20 20
15 15 15
11 11 11
2 2 2
2 2 2
2 2 2
2 2 2
2 2 2
2 2 2
2 2 2
0 0 0
0 0 0
2 2 2
2 2 2
2 2 2
2 2 2
2 2 2
2 2 2
2 2 2
2 2 2
2 2 2
1 1 1
1 1 1
1 1 1
1 1 1
1 1 1
1 1 1
1 1 1
1 1 1
1 1 1
1 1 1
2 2 2
2 2 2
2 2 2
2 2 2
2 2 2
2 2 2
2 2 2
3 3 3
7 7 7
3 3 3
3 3 3
3 3 3
4 4 4
11 11 11
3 3 3
11 11 11
11 11 11
8 8 8
18 18 18
18 18 18
4 4 4
2 2 2
2 2 2
2 2 2
2 2 2
2 2 2
2 2 2
2 2 2
2 2 2
0 0 0
0 0 0
2 2 2
2 2 2
2 2 2
2 2 2
2 2 2
2 2 2
2 2 2
2 2 2
2 2 2
2 2 2
1 1 1
1 1 1
1 1 1
1 1 1
1 1 1
1 1 1
1 1 1
1 1 1
2 2 2
1 1 1
2 2 2
2 2 2
2 2 2
2 2 2
2 2 2
3 3 3
6 6 6
7 7 7
5 5 5
2 2 2
3 3 3
8 8 8
9 9 9
17 17 17
18 18 18
13 13 13
22 22 22
22 22 22
2 2 2
2 2 2
2 2 2
2 2 2
2 2 2
2 2 2
2 2 2
2 2 2
2 2 2
2 2 2
0 0 0
0 0 0
2 2 2
2 2 2
2 2 2
2 2 2
2 2 2
2 2 2
2 2 2
2 2 2
2 2 2
2 2 2
2 2 2
2 2 2
1 1 1
1 1 1
1 1 1
1 1 1
1 1 1
1 1 1
1 1 1
2 2 2
2 2 2
1 1 1
1 1 1
2 2 2
1 1 1
2 2 2
6 6 6
7 7 7
5 5 5
3 3 3
3 3 3
4 4 4
5 5 5
13 13 13
11 11 11
26 26 26
3 3 3
2 2 2
2 2 2
2 2 2
2 2 2
2 2 2
2 2 2
2 2 2
2 2 2
2 2 2
2 2 2
2 2 2
0 0 0
0 0 0
2 2 2
2 2 2
2 2 2
2 2 2
2 2 2
2 2 2
2 2 2
2 2 2
2 2 2
2 2 2
2 2 2
2 2 2
2 2 2
2 2 2
1 1 1
1 1 1
1 1 1
1 1 1
1 1 1
1 1 1
1 1 1
2 2 2
2 2 2
2 2 2
2 2 2
2 2 2
5 5 5
8 8 8
5 5 5
3 3 3
4 4 4
4 4 4
12 12 12
10 10 10
3 3 3
2 2 2
2 2 2
2 2 2
2 2 2
2 2 2
2 2 2
2 2 2
2 2 2
2 2 2
2 2 2
2 2 2
2 2 2
2 2 2
0 0 0
0 0 0
2 2 2
2 2 2
2 2 2
2 2 2
2 2 2
2 2 2
2 2 2
2 2 2
2 2 2
2 2 2
2 2 2
2 2 2
2 2 2
2 2 2
2 2 2
2 2 2
1 1 1
1 1 1
1 1 1
1 1 1
1 1 1
2 2 2
2 2 2
2 2 2
2 2 2
2 2 2
6 6 6
8 8 8
6 6 6
3 3 3
6 6 6
8 8 8
2 2 2
2 2 2
2 2 2
2 2 2
2 2 2
2 2 2
2 2 2
2 2 2
2 2 2
2 2 2
2 2 2
2 2 2
2 2 2
2 2 2
2 2 2
2 2 2
0 0 0
0 0 0
0 0 0
0 0 0
0 0 0
0 0 0
0 0 0
0 0 0
0 0 0
0 0 0
0 0 0
0 0 0
0 0 0
0 0 0
0 0 0
0 0 0
0 0 0
0 0 0
0 0 0
0 0 0
0 0 0
0 0 0
0 0 0
0 0 0
0 0 0
0 0 0
0 0 0
0 0 0
0 0 0
0 0 0
0 0 0
0 0 0
0 0 0
0 0 0
0 0 0
0 0 0
0 0 0
0 0 0
0 0 0
0 0 0
0 0 0
0 0 0
0 0 0
0 0 0
0 0 0
0 0 0
0 0 0
0 0 0
0 0 0
0 0 0
0 0 0
