P3 
50 50 
255
0 0 0
0 0 0
0 0 0
0 0 0
0 0 0
0 0 0
0 0 0
0 0 0
0 0 0
0 0 0
0 0 0
0 0 0
0 0 0
0 0 0
0 0 0
0 0 0
0 0 0
0 0 0
0 0 0
0 0 0
0 0 0
0 0 0
0 0 0
0 0 0
0 0 0
0 0 0
0 0 0
0 0 0
0 0 0
0 0 0
0 0 0
0 0 0
0 0 0
0 0 0
0 0 0
0 0 0
0 0 0
0 0 0
0 0 0
0 0 0
0 0 0
0 0 0
0 0 0
0 0 0
0 0 0
0 0 0
0 0 0
0 0 0
0 0 0
0 0 0
0 0 0
2 2 2
2 2 2
2 2 2
2 2 2
2 2 2
2 2 2
2 2 2
2 2 2
2 2 2
2 2 2
2 2 2
2 2 2
2 2 2
2 2 2
2 2 2
2 2 2
1 1 1
1 1 1
2 2 2
2 2 2
3 3 3
3 3 3
3 3 3
4 4 4
4 4 4
4 4 4
4 4 4
11 11 11
8 8 8
5 5 5
7 7 7
3 3 3
2 2 2
2 2 2
2 2 2
2 2 2
2 2 2
2 2 2
2 2 2
2 2 2
2 2 2
2 2 2
2 2 2
2 2 2
2 2 2
2 2 2
2 2 2
2 2 2
0 0 0
0 0 0
2 2 2
2 2 2
2 2 2
2 2 2
2 2 2
2 2 2
2 2 2
2 2 2
2 2 2
2 2 2
2 2 2
2 2 2
2 2 2
2 2 2
1 1 1
2 2 2
2 2 2
3 3 3
3 3 3
2 2 2
3 3 3
3 3 3
3 3 3
3 3 3
4 4 4
3 3 3
15 15 15
13 13 13
4 4 4
16 16 16
16 16 16
20 20 20
19 19 19
14 14 14
2 2 2
2 2 2
2 2 2
2 2 2
2 2 2
2 2 2
2 2 2
2 2 2
2 2 2
2 2 2
2 2 2
2 2 2
2 2 2
2 2 2
0 0 0
0 0 0
2 2 2
2 2 2
2 2 2
2 2 2
2 2 2
2 2 2
2 2 2
2 2 2
2 2 2
2 2 2
2 2 2
2 2 2
1 1 1
2 2 2
2 2 2
2 2 2
2 2 2
3 3 3
3 3 3
3 3 3
3 3 3
3 3 3
3 3 3
4 4 4
5 5 5
15 15 15
16 16 16
16 16 16
16 16 16
12 12 12
12 12 12
12 12 12
11 11 11
11 11 11
9 9 9
14 14 14
2 2 2
2 2 2
2 2 2
2 2 2
2 2 2
2 2 2
2 2 2
2 2 2
2 2 2
2 2 2
2 2 2
2 2 2
0 0 0
0 0 0
2 2 2
2 2 2
2 2 2
2 2 2
2 2 2
2 2 2
2 2 2
2 2 2
2 2 2
2 2 2
1 1 1
2 2 2
2 2 2
4 4 4
3 3 3
3 3 3
3 3 3
3 3 3
2 2 2
2 2 2
1 1 1
2 2 2
3 3 3
3 3 3
31 31 31
56 56 56
26 26 26
14 14 14
19 19 19
17 17 17
7 7 7
22 22 22
7 7 7
5 5 5
6 6 6
6 6 6
9 9 9
9 9 9
2 2 2
2 2 2
2 2 2
2 2 2
2 2 2
2 2 2
2 2 2
2 2 2
2 2 2
2 2 2
0 0 0
0 0 0
2 2 2
2 2 2
2 2 2
2 2 2
2 2 2
2 2 2
2 2 2
2 2 2
2 2 2
1 1 1
2 2 2
3 3 3
3 3 3
3 3 3
4 4 4
4 4 4
5 5 5
4 4 4
3 3 3
4 4 4
4 4 4
5 5 5
8 8 8
35 35 35
86 86 86
63 63 63
88 88 88
90 90 90
86 86 86
57 57 57
59 59 59
34 34 34
12 12 12
11 11 11
7 7 7
12 12 12
11 11 11
7 7 7
17 17 17
2 2 2
2 2 2
2 2 2
2 2 2
2 2 2
2 2 2
2 2 2
2 2 2
2 2 2
0 0 0
0 0 0
2 2 2
2 2 2
2 2 2
2 2 2
2 2 2
2 2 2
2 2 2
2 2 2
2 2 2
2 2 2
3 3 3
3 3 3
4 4 4
3 3 3
3 3 3
3 3 3
3 3 3
2 2 2
1 1 1
5 5 5
7 7 7
46 46 46
85 85 85
88 88 88
82 82 82
86 86 86
94 94 94
150 150 150
185 185 185
160 160 160
99 99 99
86 86 86
85 85 85
85 85 85
46 46 46
7 7 7
11 11 11
13 13 13
9 9 9
11 11 11
4 4 4
2 2 2
2 2 2
2 2 2
2 2 2
2 2 2
2 2 2
2 2 2
0 0 0
0 0 0
2 2 2
2 2 2
2 2 2
2 2 2
2 2 2
2 2 2
2 2 2
2 2 2
2 2 2
2 2 2
3 3 3
4 4 4
4 4 4
2 2 2
1 1 1
3 3 3
18 18 18
63 63 63
81 81 81
81 81 81
83 83 83
85 85 85
87 87 87
89 89 89
110 110 110
173 173 173
147 147 147
167 167 167
179 179 179
173 173 173
176 176 176
178 178 178
185 185 185
173 173 173
118 118 118
87 87 87
63 63 63
13 13 13
12 12 12
7 7 7
13 13 13
11 11 11
2 2 2
2 2 2
2 2 2
2 2 2
2 2 2
2 2 2
0 0 0
0 0 0
2 2 2
2 2 2
2 2 2
2 2 2
2 2 2
2 2 2
2 2 2
2 2 2
2 2 2
4 4 4
3 3 3
3 3 3
4 4 4
77 77 77
78 78 78
78 78 78
82 82 82
87 87 87
87 87 87
86 86 86
86 86 86
89 89 89
119 119 119
169 169 169
107 107 107
97 97 97
99 99 99
88 88 88
86 86 86
88 88 88
89 89 89
85 85 85
88 88 88
108 108 108
175 175 175
196 196 196
154 154 154
85 85 85
40 40 40
16 16 16
10 10 10
26 26 26
5 5 5
2 2 2
2 2 2
2 2 2
2 2 2
2 2 2
0 0 0
0 0 0
2 2 2
2 2 2
2 2 2
2 2 2
2 2 2
2 2 2
2 2 2
2 2 2
2 2 2
3 3 3
4 4 4
12 12 12
79 79 79
78 78 78
127 127 127
137 137 137
83 83 83
77 77 77
82 82 82
88 88 88
96 96 96
171 171 171
127 127 127
89 89 89
86 86 86
85 85 85
87 87 87
87 87 87
87 87 87
87 87 87
87 87 87
87 87 87
87 87 87
87 87 87
88 88 88
168 168 168
186 186 186
172 172 172
96 96 96
70 70 70
11 11 11
18 18 18
41 41 41
2 2 2
2 2 2
2 2 2
2 2 2
2 2 2
0 0 0
0 0 0
2 2 2
2 2 2
2 2 2
2 2 2
1 1 1
2 2 2
2 2 2
3 3 3
3 3 3
4 4 4
70 70 70
80 80 80
137 137 137
172 172 172
80 80 80
79 79 79
85 85 85
85 85 85
86 86 86
137 137 137
130 130 130
112 112 112
95 95 95
98 98 98
102 102 102
93 93 93
86 86 86
87 87 87
88 88 88
87 87 87
88 88 88
87 87 87
87 87 87
87 87 87
87 87 87
88 88 88
91 91 91
111 111 111
182 182 182
126 126 126
83 83 83
13 13 13
32 32 32
19 19 19
2 2 2
2 2 2
2 2 2
2 2 2
0 0 0
0 0 0
2 2 2
2 2 2
2 2 2
2 2 2
2 2 2
2 2 2
2 2 2
0 0 0
50 50 50
78 78 78
83 83 83
164 164 164
130 130 130
84 84 84
88 88 88
86 86 86
82 82 82
80 80 80
138 138 138
131 131 131
112 112 112
92 92 92
90 90 90
88 88 88
68 68 68
96 96 96
91 91 91
87 87 87
86 86 86
87 87 87
87 87 87
86 86 86
86 86 86
87 87 87
87 87 87
87 87 87
87 87 87
88 88 88
111 111 111
188 188 188
164 164 164
82 82 82
22 22 22
32 32 32
21 21 21
2 2 2
2 2 2
2 2 2
0 0 0
0 0 0
2 2 2
2 2 2
2 2 2
2 2 2
2 2 2
2 2 2
1 1 1
12 12 12
76 76 76
79 79 79
154 154 154
138 138 138
73 73 73
82 82 82
84 84 84
84 84 84
83 83 83
86 86 86
160 160 160
102 102 102
91 91 91
91 91 91
87 87 87
90 90 90
196 196 196
150 150 150
102 102 102
86 86 86
87 87 87
86 86 86
86 86 86
86 86 86
86 86 86
85 85 85
86 86 86
88 88 88
87 87 87
87 87 87
87 87 87
120 120 120
180 180 180
172 172 172
73 73 73
55 55 55
18 18 18
6 6 6
2 2 2
2 2 2
0 0 0
0 0 0
2 2 2
2 2 2
2 2 2
2 2 2
3 3 3
2 2 2
0 0 0
56 56 56
76 76 76
135 135 135
115 115 115
137 137 137
107 107 107
74 74 74
82 82 82
84 84 84
83 83 83
85 85 85
118 118 118
133 133 133
94 94 94
89 89 89
97 97 97
131 131 131
217 217 217
170 170 170
90 90 90
86 86 86
86 86 86
86 86 86
85 85 85
85 85 85
85 85 85
85 85 85
86 86 86
87 87 87
87 87 87
88 88 88
88 88 88
88 88 88
154 154 154
182 182 182
123 123 123
40 40 40
16 16 16
91 91 91
2 2 2
2 2 2
0 0 0
0 0 0
2 2 2
2 2 2
1 1 1
1 1 1
1 1 1
1 1 1
0 0 0
72 72 72
79 79 79
143 143 143
20 20 20
24 24 24
11 11 11
89 89 89
85 85 85
87 87 87
89 89 89
88 88 88
105 105 105
124 124 124
99 99 99
88 88 88
96 96 96
212 212 212
161 161 161
131 131 131
86 86 86
87 87 87
87 87 87
86 86 86
86 86 86
85 85 85
85 85 85
87 87 87
86 86 86
86 86 86
86 86 86
88 88 88
87 87 87
88 88 88
92 92 92
182 182 182
196 196 196
77 77 77
20 20 20
81 81 81
5 5 5
2 2 2
0 0 0
0 0 0
2 2 2
1 1 1
1 1 1
1 1 1
0 0 0
1 1 1
1 1 1
79 79 79
78 78 78
121 121 121
3 3 3
1 1 1
2 2 2
0 0 0
4 4 4
92 92 92
85 85 85
88 88 88
113 113 113
123 123 123
97 97 97
92 92 92
100 100 100
134 134 134
142 142 142
97 97 97
85 85 85
86 86 86
86 86 86
87 87 87
86 86 86
86 86 86
86 86 86
87 87 87
87 87 87
87 87 87
88 88 88
88 88 88
88 88 88
87 87 87
88 88 88
104 104 104
179 179 179
108 108 108
46 46 46
58 58 58
24 24 24
2 2 2
0 0 0
0 0 0
2 2 2
1 1 1
1 1 1
0 0 0
0 0 0
2 2 2
0 0 0
81 81 81
81 81 81
86 86 86
1 1 1
1 1 1
2 2 2
3 3 3
0 0 0
33 33 33
106 106 106
31 31 31
6 6 6
145 145 145
102 102 102
89 89 89
101 101 101
107 107 107
84 84 84
85 85 85
87 87 87
87 87 87
87 87 87
87 87 87
87 87 87
87 87 87
88 88 88
87 87 87
87 87 87
87 87 87
86 86 86
87 87 87
88 88 88
88 88 88
88 88 88
87 87 87
171 171 171
148 148 148
53 53 53
39 39 39
15 15 15
3 3 3
0 0 0
0 0 0
1 1 1
1 1 1
1 1 1
1 1 1
0 0 0
0 0 0
0 0 0
77 77 77
87 87 87
3 3 3
44 44 44
1 1 1
1 1 1
2 2 2
1 1 1
1 1 1
89 89 89
4 4 4
0 0 0
24 24 24
112 112 112
95 95 95
100 100 100
138 138 138
83 83 83
87 87 87
88 88 88
87 87 87
88 88 88
87 87 87
87 87 87
86 86 86
87 87 87
87 87 87
87 87 87
87 87 87
87 87 87
87 87 87
87 87 87
87 87 87
87 87 87
86 86 86
167 167 167
165 165 165
57 57 57
28 28 28
16 16 16
19 19 19
0 0 0
0 0 0
1 1 1
2 2 2
1 1 1
0 0 0
34 34 34
35 35 35
53 53 53
82 82 82
137 137 137
7 7 7
31 31 31
49 49 49
8 8 8
4 4 4
2 2 2
58 58 58
115 115 115
91 91 91
58 58 58
59 59 59
89 89 89
106 106 106
105 105 105
84 84 84
84 84 84
87 87 87
88 88 88
87 87 87
87 87 87
87 87 87
87 87 87
86 86 86
87 87 87
87 87 87
87 87 87
87 87 87
87 87 87
88 88 88
89 89 89
87 87 87
88 88 88
86 86 86
173 173 173
165 165 165
57 57 57
21 21 21
17 17 17
21 21 21
0 0 0
0 0 0
2 2 2
0 0 0
33 33 33
88 88 88
86 86 86
86 86 86
82 82 82
92 92 92
85 85 85
87 87 87
26 26 26
47 47 47
41 41 41
14 14 14
13 13 13
20 20 20
46 46 46
55 55 55
113 113 113
59 59 59
97 97 97
98 98 98
104 104 104
85 85 85
85 85 85
87 87 87
88 88 88
87 87 87
87 87 87
87 87 87
88 88 88
87 87 87
87 87 87
87 87 87
87 87 87
88 88 88
86 86 86
87 87 87
87 87 87
86 86 86
88 88 88
98 98 98
146 146 146
152 152 152
58 58 58
19 19 19
16 16 16
16 16 16
0 0 0
0 0 0
1 1 1
85 85 85
18 18 18
0 0 0
0 0 0
5 5 5
3 3 3
1 1 1
4 4 4
3 3 3
7 7 7
12 12 12
13 13 13
17 17 17
25 25 25
33 33 33
69 69 69
129 129 129
68 68 68
13 13 13
37 37 37
86 86 86
99 99 99
85 85 85
85 85 85
87 87 87
87 87 87
87 87 87
85 85 85
87 87 87
87 87 87
86 86 86
87 87 87
86 86 86
87 87 87
88 88 88
87 87 87
88 88 88
87 87 87
87 87 87
89 89 89
149 149 149
163 163 163
140 140 140
53 53 53
14 14 14
18 18 18
14 14 14
0 0 0
0 0 0
0 0 0
88 88 88
32 32 32
85 85 85
79 79 79
66 66 66
61 61 61
24 24 24
42 42 42
47 47 47
39 39 39
40 40 40
49 49 49
41 41 41
11 11 11
5 5 5
10 10 10
79 79 79
116 116 116
20 20 20
21 21 21
94 94 94
101 101 101
86 86 86
86 86 86
87 87 87
88 88 88
88 88 88
87 87 87
87 87 87
87 87 87
88 88 88
87 87 87
87 87 87
87 87 87
88 88 88
88 88 88
87 87 87
88 88 88
88 88 88
87 87 87
109 109 109
165 165 165
137 137 137
58 58 58
13 13 13
22 22 22
14 14 14
0 0 0
0 0 0
0 0 0
34 34 34
86 86 86
60 60 60
72 72 72
78 78 78
56 56 56
3 3 3
0 0 0
9 9 9
77 77 77
70 70 70
72 72 72
14 14 14
15 15 15
76 76 76
72 72 72
40 40 40
106 106 106
107 107 107
110 110 110
104 104 104
99 99 99
85 85 85
86 86 86
87 87 87
88 88 88
87 87 87
88 88 88
87 87 87
87 87 87
87 87 87
87 87 87
87 87 87
87 87 87
87 87 87
87 87 87
88 88 88
88 88 88
88 88 88
88 88 88
86 86 86
176 176 176
140 140 140
47 47 47
13 13 13
23 23 23
14 14 14
0 0 0
0 0 0
2 2 2
1 1 1
0 0 0
22 22 22
59 59 59
79 79 79
84 84 84
87 87 87
97 97 97
98 98 98
20 20 20
12 12 12
75 75 75
30 30 30
33 33 33
65 65 65
113 113 113
93 93 93
99 99 99
117 117 117
95 95 95
86 86 86
116 116 116
128 128 128
84 84 84
85 85 85
88 88 88
87 87 87
87 87 87
87 87 87
87 87 87
87 87 87
87 87 87
88 88 88
87 87 87
87 87 87
87 87 87
87 87 87
88 88 88
88 88 88
88 88 88
87 87 87
180 180 180
122 122 122
52 52 52
12 12 12
22 22 22
13 13 13
0 0 0
0 0 0
2 2 2
1 1 1
1 1 1
0 0 0
0 0 0
0 0 0
34 34 34
81 81 81
92 92 92
12 12 12
50 50 50
31 31 31
5 5 5
2 2 2
3 3 3
1 1 1
37 37 37
111 111 111
91 91 91
127 127 127
142 142 142
93 93 93
99 99 99
106 106 106
127 127 127
84 84 84
87 87 87
87 87 87
87 87 87
86 86 86
86 86 86
86 86 86
87 87 87
87 87 87
87 87 87
87 87 87
88 88 88
87 87 87
88 88 88
87 87 87
88 88 88
106 106 106
192 192 192
90 90 90
45 45 45
10 10 10
24 24 24
12 12 12
0 0 0
0 0 0
2 2 2
1 1 1
1 1 1
1 1 1
1 1 1
1 1 1
0 0 0
78 78 78
79 79 79
91 91 91
0 0 0
41 41 41
0 0 0
2 2 2
3 3 3
3 3 3
97 97 97
108 108 108
105 105 105
137 137 137
94 94 94
105 105 105
90 90 90
136 136 136
194 194 194
124 124 124
84 84 84
86 86 86
86 86 86
86 86 86
87 87 87
87 87 87
87 87 87
87 87 87
88 88 88
87 87 87
87 87 87
88 88 88
87 87 87
87 87 87
90 90 90
180 180 180
176 176 176
60 60 60
38 38 38
11 11 11
23 23 23
13 13 13
0 0 0
0 0 0
2 2 2
1 1 1
1 1 1
2 2 2
1 1 1
2 2 2
1 1 1
39 39 39
79 79 79
88 88 88
18 18 18
20 20 20
2 2 2
2 2 2
0 0 0
99 99 99
86 86 86
83 83 83
90 90 90
139 139 139
122 122 122
113 113 113
64 64 64
171 171 171
222 222 222
219 219 219
110 110 110
86 86 86
87 87 87
87 87 87
87 87 87
88 88 88
87 87 87
87 87 87
88 88 88
87 87 87
88 88 88
87 87 87
88 88 88
88 88 88
163 163 163
201 201 201
87 87 87
30 30 30
52 52 52
10 10 10
22 22 22
13 13 13
0 0 0
0 0 0
1 1 1
1 1 1
0 0 0
1 1 1
1 1 1
2 2 2
1 1 1
11 11 11
79 79 79
91 91 91
104 104 104
4 4 4
2 2 2
2 2 2
82 82 82
83 83 83
86 86 86
83 83 83
89 89 89
108 108 108
127 127 127
132 132 132
158 158 158
58 58 58
144 144 144
204 204 204
183 183 183
85 85 85
86 86 86
88 88 88
88 88 88
87 87 87
87 87 87
87 87 87
88 88 88
87 87 87
87 87 87
88 88 88
88 88 88
133 133 133
185 185 185
121 121 121
57 57 57
18 18 18
58 58 58
11 11 11
20 20 20
14 14 14
0 0 0
0 0 0
1 1 1
1 1 1
0 0 0
1 1 1
1 1 1
1 1 1
2 2 2
1 1 1
79 79 79
78 78 78
116 116 116
0 0 0
6 6 6
116 116 116
79 79 79
87 87 87
86 86 86
82 82 82
88 88 88
123 123 123
158 158 158
147 147 147
151 151 151
48 48 48
35 35 35
211 211 211
181 181 181
104 104 104
87 87 87
87 87 87
87 87 87
88 88 88
87 87 87
87 87 87
88 88 88
87 87 87
87 87 87
87 87 87
105 105 105
184 184 184
131 131 131
79 79 79
32 32 32
29 29 29
50 50 50
12 12 12
18 18 18
15 15 15
0 0 0
0 0 0
0 0 0
0 0 0
1 1 1
1 1 1
1 1 1
1 1 1
2 2 2
1 1 1
59 59 59
78 78 78
164 164 164
99 99 99
109 109 109
73 73 73
86 86 86
86 86 86
86 86 86
80 80 80
87 87 87
134 134 134
119 119 119
122 122 122
112 112 112
177 177 177
127 127 127
87 87 87
108 108 108
157 157 157
88 88 88
87 87 87
87 87 87
87 87 87
87 87 87
87 87 87
87 87 87
87 87 87
89 89 89
130 130 130
186 186 186
107 107 107
81 81 81
32 32 32
36 36 36
38 38 38
39 39 39
14 14 14
15 15 15
14 14 14
0 0 0
0 0 0
0 0 0
1 1 1
1 1 1
1 1 1
0 0 0
1 1 1
1 1 1
0 0 0
0 0 0
76 76 76
77 77 77
160 160 160
142 142 142
75 75 75
83 83 83
87 87 87
88 88 88
85 85 85
82 82 82
151 151 151
124 124 124
104 104 104
134 134 134
142 142 142
162 162 162
145 145 145
69 69 69
145 145 145
90 90 90
87 87 87
87 87 87
87 87 87
86 86 86
87 87 87
88 88 88
135 135 135
201 201 201
156 156 156
89 89 89
56 56 56
13 13 13
20 20 20
20 20 20
28 28 28
18 18 18
19 19 19
13 13 13
14 14 14
0 0 0
0 0 0
0 0 0
0 0 0
1 1 1
1 1 1
0 0 0
0 0 0
0 0 0
0 0 0
0 0 0
22 22 22
75 75 75
75 75 75
165 165 165
164 164 164
89 89 89
76 76 76
77 77 77
77 77 77
84 84 84
92 92 92
172 172 172
150 150 150
173 173 173
173 173 173
176 176 176
103 103 103
115 115 115
110 110 110
108 108 108
86 86 86
87 87 87
87 87 87
87 87 87
119 119 119
167 167 167
204 204 204
139 139 139
84 84 84
53 53 53
26 26 26
28 28 28
22 22 22
16 16 16
30 30 30
9 9 9
27 27 27
13 13 13
18 18 18
0 0 0
0 0 0
2 2 2
1 1 1
1 1 1
1 1 1
0 0 0
0 0 0
0 0 0
0 0 0
0 0 0
0 0 0
7 7 7
75 75 75
76 76 76
77 77 77
148 148 148
145 145 145
125 125 125
91 91 91
90 90 90
129 129 129
145 145 145
152 152 152
162 162 162
180 180 180
151 151 151
69 69 69
115 115 115
112 112 112
142 142 142
101 101 101
95 95 95
115 115 115
163 163 163
178 178 178
181 181 181
89 89 89
66 66 66
36 36 36
32 32 32
15 15 15
13 13 13
13 13 13
20 20 20
40 40 40
8 8 8
39 39 39
14 14 14
28 28 28
0 0 0
0 0 0
2 2 2
1 1 1
1 1 1
2 2 2
1 1 1
1 1 1
0 0 0
0 0 0
1 1 1
0 0 0
0 0 0
0 0 0
10 10 10
62 62 62
76 76 76
75 75 75
86 86 86
103 103 103
100 100 100
93 93 93
86 86 86
87 87 87
87 87 87
89 89 89
91 91 91
140 140 140
182 182 182
113 113 113
91 91 91
120 120 120
202 202 202
196 196 196
139 139 139
89 89 89
67 67 67
40 40 40
26 26 26
10 10 10
20 20 20
17 17 17
23 23 23
19 19 19
18 18 18
49 49 49
8 8 8
58 58 58
14 14 14
2 2 2
0 0 0
0 0 0
2 2 2
1 1 1
2 2 2
2 2 2
2 2 2
0 0 0
1 1 1
1 1 1
0 0 0
0 0 0
1 1 1
2 2 2
1 1 1
0 0 0
0 0 0
0 0 0
5 5 5
10 10 10
12 12 12
15 15 15
10 10 10
6 6 6
11 11 11
51 51 51
88 88 88
88 88 88
89 89 89
131 131 131
166 166 166
131 131 131
85 85 85
57 57 57
34 34 34
27 27 27
9 9 9
3 3 3
7 7 7
10 10 10
17 17 17
25 25 25
14 14 14
18 18 18
19 19 19
31 31 31
9 9 9
76 76 76
22 22 22
2 2 2
0 0 0
0 0 0
2 2 2
2 2 2
2 2 2
3 3 3
2 2 2
3 3 3
2 2 2
1 1 1
1 1 1
2 2 2
3 3 3
2 2 2
3 3 3
3 3 3
2 2 2
1 1 1
3 3 3
2 2 2
3 3 3
3 3 3
3 3 3
2 2 2
2 2 2
3 3 3
6 6 6
81 81 81
18 18 18
11 11 11
43 43 43
71 71 71
73 73 73
34 34 34
6 6 6
8 8 8
5 5 5
4 4 4
6 6 6
17 17 17
14 14 14
24 24 24
19 19 19
28 28 28
15 15 15
9 9 9
10 10 10
79 79 79
8 8 8
2 2 2
0 0 0
0 0 0
2 2 2
2 2 2
2 2 2
2 2 2
2 2 2
2 2 2
3 3 3
3 3 3
2 2 2
2 2 2
3 3 3
3 3 3
3 3 3
4 4 4
2 2 2
3 3 3
2 2 2
2 2 2
2 2 2
2 2 2
3 3 3
3 3 3
2 2 2
2 2 2
1 1 1
12 12 12
61 61 61
2 2 2
10 10 10
3 3 3
11 11 11
6 6 6
1 1 1
3 3 3
4 4 4
4 4 4
4 4 4
21 21 21
16 16 16
12 12 12
13 13 13
22 22 22
33 33 33
8 8 8
14 14 14
66 66 66
2 2 2
2 2 2
0 0 0
0 0 0
2 2 2
2 2 2
2 2 2
2 2 2
3 3 3
3 3 3
3 3 3
3 3 3
3 3 3
3 3 3
3 3 3
3 3 3
3 3 3
3 3 3
3 3 3
3 3 3
3 3 3
2 2 2
2 2 2
4 4 4
3 3 3
2 2 2
2 2 2
3 3 3
3 3 3
3 3 3
7 7 7
2 2 2
3 3 3
4 4 4
4 4 4
3 3 3
3 3 3
3 3 3
4 4 4
5 5 5
5 5 5
20 20 20
20 20 20
24 24 24
13 13 13
21 21 21
47 47 47
11 11 11
17 17 17
10 10 10
2 2 2
2 2 2
0 0 0
0 0 0
2 2 2
2 2 2
2 2 2
2 2 2
3 3 3
2 2 2
3 3 3
2 2 2
3 3 3
3 3 3
3 3 3
3 3 3
3 3 3
3 3 3
3 3 3
3 3 3
3 3 3
3 3 3
5 5 5
4 4 4
4 4 4
3 3 3
2 2 2
4 4 4
5 5 5
4 4 4
4 4 4
2 2 2
3 3 3
4 4 4
5 5 5
4 4 4
4 4 4
4 4 4
5 5 5
5 5 5
4 4 4
13 13 13
17 17 17
10 10 10
21 21 21
16 16 16
18 18 18
14 14 14
35 35 35
2 2 2
2 2 2
2 2 2
0 0 0
0 0 0
2 2 2
2 2 2
2 2 2
2 2 2
1 1 1
2 2 2
2 2 2
2 2 2
2 2 2
2 2 2
3 3 3
2 2 2
3 3 3
2 2 2
3 3 3
4 4 4
4 4 4
4 4 4
4 4 4
4 4 4
4 4 4
4 4 4
6 6 6
4 4 4
3 3 3
4 4 4
4 4 4
5 5 5
4 4 4
3 3 3
4 4 4
4 4 4
4 4 4
4 4 4
4 4 4
4 4 4
4 4 4
9 9 9
7 7 7
12 12 12
21 21 21
32 32 32
11 11 11
17 17 17
2 2 2
2 2 2
2 2 2
2 2 2
0 0 0
0 0 0
2 2 2
2 2 2
2 2 2
2 2 2
2 2 2
1 1 1
1 1 1
1 1 1
1 1 1
1 1 1
2 2 2
3 3 3
2 2 2
3 3 3
3 3 3
3 3 3
3 3 3
3 3 3
3 3 3
3 3 3
4 4 4
4 4 4
5 5 5
4 4 4
3 3 3
4 4 4
4 4 4
5 5 5
5 5 5
4 4 4
5 5 5
4 4 4
4 4 4
3 3 3
8 8 8
8 8 8
10 10 10
23 23 23
14 14 14
25 25 25
27 27 27
43 43 43
14 14 14
5 5 5
2 2 2
2 2 2
2 2 2
2 2 2
0 0 0
0 0 0
2 2 2
2 2 2
2 2 2
2 2 2
2 2 2
2 2 2
1 1 1
1 1 1
1 1 1
1 1 1
1 1 1
1 1 1
2 2 2
3 3 3
3 3 3
2 2 2
3 3 3
3 3 3
3 3 3
4 4 4
4 4 4
4 4 4
4 4 4
3 3 3
3 3 3
4 4 4
4 4 4
4 4 4
4 4 4
4 4 4
4 4 4
5 5 5
4 4 4
11 11 11
11 11 11
12 12 12
14 14 14
28 28 28
18 18 18
34 34 34
17 17 17
16 16 16
10 10 10
2 2 2
2 2 2
2 2 2
2 2 2
2 2 2
0 0 0
0 0 0
2 2 2
2 2 2
2 2 2
2 2 2
2 2 2
2 2 2
2 2 2
0 0 0
1 1 1
1 1 1
1 1 1
1 1 1
1 1 1
1 1 1
1 1 1
1 1 1
2 2 2
3 3 3
3 3 3
3 3 3
3 3 3
3 3 3
3 3 3
4 4 4
4 4 4
4 4 4
4 4 4
4 4 4
4 4 4
4 4 4
4 4 4
14 14 14
14 14 14
10 10 10
10 10 10
17 17 17
18 18 18
27 27 27
31 31 31
27 27 27
52 52 52
18 18 18
2 2 2
2 2 2
2 2 2
2 2 2
2 2 2
2 2 2
0 0 0
0 0 0
2 2 2
2 2 2
2 2 2
2 2 2
2 2 2
2 2 2
2 2 2
2 2 2
1 1 1
1 1 1
1 1 1
1 1 1
1 1 1
1 1 1
1 1 1
1 1 1
1 1 1
2 2 2
1 1 1
2 2 2
4 4 4
3 3 3
3 3 3
3 3 3
4 4 4
4 4 4
4 4 4
4 4 4
4 4 4
11 11 11
16 16 16
8 8 8
9 9 9
8 8 8
15 15 15
14 14 14
16 16 16
29 29 29
29 29 29
29 29 29
17 17 17
2 2 2
2 2 2
2 2 2
2 2 2
2 2 2
2 2 2
2 2 2
0 0 0
0 0 0
2 2 2
2 2 2
2 2 2
2 2 2
2 2 2
2 2 2
2 2 2
2 2 2
2 2 2
0 0 0
1 1 1
0 0 0
1 1 1
1 1 1
1 1 1
1 1 1
1 1 1
1 1 1
2 2 2
2 2 2
2 2 2
19 19 19
21 21 21
2 2 2
2 2 2
2 2 2
3 3 3
2 2 2
6 6 6
15 15 15
9 9 9
13 13 13
7 7 7
8 8 8
12 12 12
7 7 7
23 23 23
20 20 20
25 25 25
4 4 4
2 2 2
2 2 2
2 2 2
2 2 2
2 2 2
2 2 2
2 2 2
2 2 2
0 0 0
0 0 0
2 2 2
2 2 2
2 2 2
2 2 2
2 2 2
2 2 2
2 2 2
2 2 2
2 2 2
2 2 2
1 1 1
0 0 0
1 1 1
1 1 1
1 1 1
1 1 1
1 1 1
1 1 1
1 1 1
2 2 2
2 2 2
1 1 1
2 2 2
14 14 14
2 2 2
9 9 9
5 5 5
2 2 2
13 13 13
11 11 11
3 3 3
9 9 9
10 10 10
7 7 7
13 13 13
17 17 17
28 28 28
24 24 24
2 2 2
2 2 2
2 2 2
2 2 2
2 2 2
2 2 2
2 2 2
2 2 2
2 2 2
2 2 2
0 0 0
0 0 0
2 2 2
2 2 2
2 2 2
2 2 2
2 2 2
2 2 2
2 2 2
2 2 2
2 2 2
2 2 2
2 2 2
2 2 2
1 1 1
1 1 1
1 1 1
2 2 2
1 1 1
1 1 1
2 2 2
2 2 2
2 2 2
2 2 2
2 2 2
2 2 2
12 12 12
11 11 11
7 7 7
5 5 5
15 15 15
3 3 3
3 3 3
9 9 9
16 16 16
8 8 8
12 12 12
18 18 18
5 5 5
2 2 2
2 2 2
2 2 2
2 2 2
2 2 2
2 2 2
2 2 2
2 2 2
2 2 2
2 2 2
2 2 2
0 0 0
0 0 0
2 2 2
2 2 2
2 2 2
2 2 2
2 2 2
2 2 2
2 2 2
2 2 2
2 2 2
2 2 2
2 2 2
2 2 2
2 2 2
2 2 2
1 1 1
1 1 1
2 2 2
1 1 1
1 1 1
2 2 2
1 1 1
1 1 1
1 1 1
2 2 2
2 2 2
31 31 31
9 9 9
13 13 13
9 9 9
11 11 11
6 6 6
9 9 9
7 7 7
10 10 10
3 3 3
2 2 2
2 2 2
2 2 2
2 2 2
2 2 2
2 2 2
2 2 2
2 2 2
2 2 2
2 2 2
2 2 2
2 2 2
2 2 2
0 0 0
0 0 0
2 2 2
2 2 2
2 2 2
2 2 2
2 2 2
2 2 2
2 2 2
2 2 2
2 2 2
2 2 2
2 2 2
2 2 2
2 2 2
2 2 2
2 2 2
2 2 2
1 1 1
1 1 1
2 2 2
2 2 2
1 1 1
2 2 2
2 2 2
3 3 3
2 2 2
3 3 3
23 23 23
15 15 15
8 8 8
9 9 9
11 11 11
14 14 14
2 2 2
2 2 2
2 2 2
2 2 2
2 2 2
2 2 2
2 2 2
2 2 2
2 2 2
2 2 2
2 2 2
2 2 2
2 2 2
2 2 2
2 2 2
2 2 2
0 0 0
0 0 0
0 0 0
0 0 0
0 0 0
0 0 0
0 0 0
0 0 0
0 0 0
0 0 0
0 0 0
0 0 0
0 0 0
0 0 0
0 0 0
0 0 0
0 0 0
0 0 0
0 0 0
0 0 0
0 0 0
0 0 0
0 0 0
0 0 0
0 0 0
0 0 0
0 0 0
0 0 0
0 0 0
0 0 0
0 0 0
0 0 0
0 0 0
0 0 0
0 0 0
0 0 0
0 0 0
0 0 0
0 0 0
0 0 0
0 0 0
0 0 0
0 0 0
0 0 0
0 0 0
0 0 0
0 0 0
0 0 0
0 0 0
0 0 0
0 0 0
