P3 
50 50 
255
0 0 0
0 0 0
0 0 0
0 0 0
0 0 0
0 0 0
0 0 0
0 0 0
0 0 0
0 0 0
0 0 0
0 0 0
0 0 0
0 0 0
0 0 0
0 0 0
0 0 0
0 0 0
0 0 0
0 0 0
0 0 0
0 0 0
0 0 0
0 0 0
0 0 0
0 0 0
0 0 0
0 0 0
0 0 0
0 0 0
0 0 0
0 0 0
0 0 0
0 0 0
0 0 0
0 0 0
0 0 0
0 0 0
0 0 0
0 0 0
0 0 0
0 0 0
0 0 0
0 0 0
0 0 0
0 0 0
0 0 0
0 0 0
0 0 0
0 0 0
0 0 0
2 2 2
2 2 2
2 2 2
2 2 2
2 2 2
2 2 2
2 2 2
2 2 2
2 2 2
2 2 2
2 2 2
2 2 2
2 2 2
2 2 2
2 2 2
2 2 2
2 2 2
1 1 1
2 2 2
6 6 6
6 6 6
3 3 3
4 4 4
4 4 4
4 4 4
5 5 5
4 4 4
9 9 9
5 5 5
12 12 12
13 13 13
4 4 4
2 2 2
2 2 2
2 2 2
2 2 2
2 2 2
2 2 2
2 2 2
2 2 2
2 2 2
2 2 2
2 2 2
2 2 2
2 2 2
2 2 2
2 2 2
2 2 2
0 0 0
0 0 0
2 2 2
2 2 2
2 2 2
2 2 2
2 2 2
2 2 2
2 2 2
2 2 2
2 2 2
2 2 2
2 2 2
2 2 2
2 2 2
2 2 2
1 1 1
1 1 1
2 2 2
1 1 1
8 8 8
4 4 4
4 4 4
3 3 3
4 4 4
4 4 4
5 5 5
4 4 4
5 5 5
5 5 5
6 6 6
6 6 6
16 16 16
11 11 11
17 17 17
21 21 21
2 2 2
2 2 2
2 2 2
2 2 2
2 2 2
2 2 2
2 2 2
2 2 2
2 2 2
2 2 2
2 2 2
2 2 2
2 2 2
2 2 2
0 0 0
0 0 0
2 2 2
2 2 2
2 2 2
2 2 2
2 2 2
2 2 2
2 2 2
2 2 2
2 2 2
2 2 2
2 2 2
2 2 2
1 1 1
1 1 1
2 2 2
2 2 2
2 2 2
14 14 14
4 4 4
4 4 4
4 4 4
4 4 4
3 3 3
2 2 2
2 2 2
7 7 7
6 6 6
16 16 16
12 12 12
11 11 11
13 13 13
7 7 7
7 7 7
9 9 9
9 9 9
13 13 13
2 2 2
2 2 2
2 2 2
2 2 2
2 2 2
2 2 2
2 2 2
2 2 2
2 2 2
2 2 2
2 2 2
2 2 2
0 0 0
0 0 0
2 2 2
2 2 2
2 2 2
2 2 2
2 2 2
2 2 2
2 2 2
2 2 2
2 2 2
2 2 2
1 1 1
1 1 1
1 1 1
2 2 2
2 2 2
2 2 2
16 16 16
4 4 4
3 3 3
4 4 4
4 4 4
4 4 4
2 2 2
2 2 2
7 7 7
11 11 11
12 12 12
8 8 8
6 6 6
7 7 7
11 11 11
14 14 14
17 17 17
10 10 10
10 10 10
10 10 10
15 15 15
9 9 9
2 2 2
2 2 2
2 2 2
2 2 2
2 2 2
2 2 2
2 2 2
2 2 2
2 2 2
2 2 2
0 0 0
0 0 0
2 2 2
2 2 2
2 2 2
2 2 2
2 2 2
2 2 2
2 2 2
2 2 2
2 2 2
1 1 1
1 1 1
1 1 1
1 1 1
2 2 2
4 4 4
8 8 8
3 3 3
4 4 4
4 4 4
4 4 4
5 5 5
6 6 6
3 3 3
6 6 6
6 6 6
6 6 6
7 7 7
13 13 13
42 42 42
77 77 77
84 84 84
81 81 81
79 79 79
69 69 69
12 12 12
7 7 7
13 13 13
12 12 12
13 13 13
2 2 2
2 2 2
2 2 2
2 2 2
2 2 2
2 2 2
2 2 2
2 2 2
2 2 2
0 0 0
0 0 0
2 2 2
2 2 2
2 2 2
2 2 2
2 2 2
2 2 2
2 2 2
2 2 2
1 1 1
1 1 1
1 1 1
2 2 2
1 1 1
3 3 3
7 7 7
3 3 3
4 4 4
4 4 4
5 5 5
5 5 5
5 5 5
4 4 4
11 11 11
9 9 9
15 15 15
52 52 52
88 88 88
91 91 91
114 114 114
162 162 162
183 183 183
187 187 187
184 184 184
172 172 172
101 101 101
84 84 84
33 33 33
7 7 7
13 13 13
12 12 12
4 4 4
2 2 2
2 2 2
2 2 2
2 2 2
2 2 2
2 2 2
2 2 2
0 0 0
0 0 0
2 2 2
2 2 2
2 2 2
2 2 2
2 2 2
2 2 2
2 2 2
1 1 1
1 1 1
2 2 2
2 2 2
1 1 1
2 2 2
12 12 12
4 4 4
4 4 4
5 5 5
5 5 5
5 5 5
4 4 4
8 8 8
29 29 29
53 53 53
85 85 85
102 102 102
153 153 153
172 172 172
171 171 171
167 167 167
168 168 168
170 170 170
169 169 169
157 157 157
148 148 148
147 147 147
174 174 174
140 140 140
85 85 85
28 28 28
13 13 13
16 16 16
12 12 12
2 2 2
2 2 2
2 2 2
2 2 2
2 2 2
2 2 2
0 0 0
0 0 0
2 2 2
2 2 2
2 2 2
2 2 2
2 2 2
2 2 2
1 1 1
1 1 1
1 1 1
2 2 2
2 2 2
0 0 0
16 16 16
4 4 4
3 3 3
4 4 4
3 3 3
11 11 11
30 30 30
70 70 70
93 93 93
119 119 119
152 152 152
164 164 164
165 165 165
166 166 166
115 115 115
91 91 91
89 89 89
89 89 89
87 87 87
88 88 88
87 87 87
109 109 109
143 143 143
158 158 158
157 157 157
183 183 183
111 111 111
72 72 72
15 15 15
36 36 36
4 4 4
2 2 2
2 2 2
2 2 2
2 2 2
2 2 2
0 0 0
0 0 0
2 2 2
2 2 2
2 2 2
2 2 2
2 2 2
1 1 1
1 1 1
1 1 1
1 1 1
2 2 2
0 0 0
13 13 13
4 4 4
5 5 5
1 1 1
7 7 7
75 75 75
89 89 89
142 142 142
178 178 178
148 148 148
106 106 106
90 90 90
96 96 96
90 90 90
87 87 87
86 86 86
87 87 87
87 87 87
88 88 88
86 86 86
87 87 87
87 87 87
87 87 87
87 87 87
106 106 106
163 163 163
148 148 148
165 165 165
112 112 112
55 55 55
10 10 10
25 25 25
2 2 2
2 2 2
2 2 2
2 2 2
2 2 2
0 0 0
0 0 0
2 2 2
2 2 2
2 2 2
2 2 2
1 1 1
2 2 2
1 1 1
1 1 1
1 1 1
1 1 1
4 4 4
5 5 5
3 3 3
2 2 2
78 78 78
121 121 121
170 170 170
158 158 158
127 127 127
87 87 87
86 86 86
86 86 86
87 87 87
87 87 87
86 86 86
87 87 87
87 87 87
87 87 87
87 87 87
86 86 86
87 87 87
87 87 87
87 87 87
87 87 87
87 87 87
88 88 88
89 89 89
155 155 155
165 165 165
160 160 160
129 129 129
60 60 60
41 41 41
22 22 22
2 2 2
2 2 2
2 2 2
2 2 2
0 0 0
0 0 0
2 2 2
2 2 2
2 2 2
1 1 1
1 1 1
1 1 1
0 0 0
0 0 0
0 0 0
0 0 0
14 14 14
2 2 2
24 24 24
80 80 80
184 184 184
159 159 159
97 97 97
88 88 88
86 86 86
86 86 86
85 85 85
87 87 87
86 86 86
86 86 86
87 87 87
87 87 87
87 87 87
87 87 87
87 87 87
86 86 86
86 86 86
87 87 87
88 88 88
87 87 87
88 88 88
87 87 87
87 87 87
88 88 88
151 151 151
163 163 163
168 168 168
102 102 102
45 45 45
21 21 21
21 21 21
2 2 2
2 2 2
2 2 2
0 0 0
0 0 0
2 2 2
2 2 2
2 2 2
1 1 1
1 1 1
1 1 1
0 0 0
1 1 1
1 1 1
7 7 7
4 4 4
18 18 18
80 80 80
189 189 189
166 166 166
85 85 85
86 86 86
86 86 86
86 86 86
87 87 87
86 86 86
87 87 87
86 86 86
87 87 87
87 87 87
87 87 87
87 87 87
87 87 87
87 87 87
87 87 87
87 87 87
87 87 87
87 87 87
87 87 87
88 88 88
89 89 89
89 89 89
88 88 88
88 88 88
178 178 178
156 156 156
181 181 181
82 82 82
47 47 47
19 19 19
7 7 7
2 2 2
2 2 2
0 0 0
0 0 0
2 2 2
2 2 2
1 1 1
0 0 0
0 0 0
0 0 0
1 1 1
2 2 2
0 0 0
15 15 15
8 8 8
77 77 77
172 172 172
144 144 144
86 86 86
85 85 85
87 87 87
86 86 86
86 86 86
86 86 86
86 86 86
86 86 86
87 87 87
87 87 87
87 87 87
87 87 87
87 87 87
87 87 87
87 87 87
87 87 87
87 87 87
87 87 87
87 87 87
87 87 87
88 88 88
88 88 88
88 88 88
88 88 88
88 88 88
98 98 98
171 171 171
158 158 158
110 110 110
31 31 31
17 17 17
88 88 88
2 2 2
2 2 2
0 0 0
0 0 0
2 2 2
2 2 2
1 1 1
1 1 1
0 0 0
0 0 0
1 1 1
0 0 0
2 2 2
7 7 7
56 56 56
96 96 96
174 174 174
92 92 92
86 86 86
86 86 86
86 86 86
86 86 86
86 86 86
86 86 86
86 86 86
86 86 86
87 87 87
87 87 87
87 87 87
87 87 87
88 88 88
86 86 86
87 87 87
88 88 88
86 86 86
87 87 87
87 87 87
88 88 88
88 88 88
88 88 88
88 88 88
89 89 89
88 88 88
87 87 87
117 117 117
167 167 167
169 169 169
54 54 54
15 15 15
83 83 83
5 5 5
2 2 2
0 0 0
0 0 0
2 2 2
1 1 1
0 0 0
0 0 0
0 0 0
0 0 0
1 1 1
1 1 1
22 22 22
13 13 13
81 81 81
186 186 186
145 145 145
86 86 86
85 85 85
86 86 86
86 86 86
87 87 87
87 87 87
87 87 87
87 87 87
86 86 86
87 87 87
87 87 87
87 87 87
87 87 87
86 86 86
87 87 87
87 87 87
87 87 87
86 86 86
87 87 87
87 87 87
88 88 88
87 87 87
87 87 87
88 88 88
88 88 88
88 88 88
87 87 87
87 87 87
170 170 170
182 182 182
84 84 84
18 18 18
64 64 64
26 26 26
2 2 2
0 0 0
0 0 0
2 2 2
1 1 1
1 1 1
1 1 1
0 0 0
1 1 1
2 2 2
2 2 2
21 21 21
40 40 40
104 104 104
98 98 98
127 127 127
85 85 85
86 86 86
86 86 86
86 86 86
87 87 87
86 86 86
86 86 86
86 86 86
86 86 86
87 87 87
86 86 86
87 87 87
87 87 87
86 86 86
87 87 87
87 87 87
86 86 86
87 87 87
87 87 87
87 87 87
87 87 87
87 87 87
87 87 87
88 88 88
88 88 88
87 87 87
87 87 87
87 87 87
165 165 165
186 186 186
87 87 87
33 33 33
45 45 45
16 16 16
3 3 3
0 0 0
0 0 0
1 1 1
1 1 1
1 1 1
1 1 1
2 2 2
1 1 1
2 2 2
3 3 3
15 15 15
67 67 67
176 176 176
96 96 96
89 89 89
86 86 86
86 86 86
87 87 87
86 86 86
86 86 86
87 87 87
87 87 87
86 86 86
86 86 86
86 86 86
86 86 86
86 86 86
86 86 86
85 85 85
85 85 85
86 86 86
86 86 86
87 87 87
87 87 87
88 88 88
87 87 87
87 87 87
87 87 87
87 87 87
87 87 87
88 88 88
87 87 87
87 87 87
163 163 163
187 187 187
91 91 91
48 48 48
32 32 32
16 16 16
19 19 19
0 0 0
0 0 0
1 1 1
1 1 1
2 2 2
1 1 1
1 1 1
1 1 1
1 1 1
4 4 4
14 14 14
73 73 73
168 168 168
99 99 99
86 86 86
87 87 87
87 87 87
86 86 86
87 87 87
87 87 87
86 86 86
86 86 86
87 87 87
86 86 86
86 86 86
87 87 87
86 86 86
86 86 86
86 86 86
86 86 86
86 86 86
87 87 87
87 87 87
87 87 87
87 87 87
87 87 87
87 87 87
88 88 88
87 87 87
88 88 88
88 88 88
88 88 88
88 88 88
169 169 169
189 189 189
91 91 91
57 57 57
23 23 23
16 16 16
21 21 21
0 0 0
0 0 0
1 1 1
1 1 1
2 2 2
1 1 1
2 2 2
1 1 1
1 1 1
2 2 2
18 18 18
81 81 81
114 114 114
110 110 110
87 87 87
87 87 87
86 86 86
86 86 86
87 87 87
86 86 86
86 86 86
87 87 87
86 86 86
87 87 87
87 87 87
87 87 87
86 86 86
87 87 87
87 87 87
87 87 87
87 87 87
86 86 86
87 87 87
87 87 87
86 86 86
87 87 87
87 87 87
87 87 87
88 88 88
87 87 87
87 87 87
90 90 90
90 90 90
172 172 172
185 185 185
90 90 90
47 47 47
21 21 21
13 13 13
16 16 16
0 0 0
0 0 0
2 2 2
2 2 2
2 2 2
2 2 2
1 1 1
1 1 1
1 1 1
0 0 0
32 32 32
86 86 86
137 137 137
135 135 135
93 93 93
87 87 87
86 86 86
85 85 85
86 86 86
86 86 86
86 86 86
85 85 85
86 86 86
86 86 86
86 86 86
86 86 86
87 87 87
87 87 87
87 87 87
87 87 87
87 87 87
86 86 86
87 87 87
87 87 87
87 87 87
87 87 87
87 87 87
87 87 87
88 88 88
88 88 88
88 88 88
88 88 88
90 90 90
151 151 151
176 176 176
89 89 89
37 37 37
20 20 20
15 15 15
15 15 15
0 0 0
0 0 0
1 1 1
1 1 1
1 1 1
2 2 2
2 2 2
2 2 2
2 2 2
1 1 1
23 23 23
85 85 85
56 56 56
137 137 137
88 88 88
86 86 86
86 86 86
87 87 87
86 86 86
86 86 86
86 86 86
87 87 87
87 87 87
87 87 87
87 87 87
86 86 86
86 86 86
87 87 87
86 86 86
86 86 86
86 86 86
87 87 87
87 87 87
87 87 87
87 87 87
88 88 88
88 88 88
88 88 88
87 87 87
88 88 88
88 88 88
88 88 88
88 88 88
118 118 118
175 175 175
90 90 90
37 37 37
23 23 23
18 18 18
15 15 15
0 0 0
0 0 0
1 1 1
1 1 1
1 1 1
1 1 1
2 2 2
2 2 2
2 2 2
1 1 1
7 7 7
83 83 83
79 79 79
159 159 159
86 86 86
86 86 86
87 87 87
87 87 87
87 87 87
86 86 86
87 87 87
87 87 87
87 87 87
87 87 87
87 87 87
87 87 87
87 87 87
86 86 86
86 86 86
86 86 86
86 86 86
86 86 86
87 87 87
87 87 87
87 87 87
87 87 87
88 88 88
87 87 87
88 88 88
88 88 88
88 88 88
88 88 88
87 87 87
131 131 131
177 177 177
88 88 88
46 46 46
26 26 26
19 19 19
16 16 16
0 0 0
0 0 0
1 1 1
1 1 1
1 1 1
1 1 1
2 2 2
2 2 2
2 2 2
1 1 1
0 0 0
79 79 79
158 158 158
102 102 102
86 86 86
86 86 86
86 86 86
87 87 87
87 87 87
87 87 87
87 87 87
86 86 86
86 86 86
87 87 87
87 87 87
87 87 87
87 87 87
87 87 87
87 87 87
87 87 87
86 86 86
87 87 87
87 87 87
87 87 87
88 88 88
87 87 87
87 87 87
88 88 88
87 87 87
88 88 88
88 88 88
88 88 88
87 87 87
158 158 158
177 177 177
82 82 82
45 45 45
31 31 31
21 21 21
14 14 14
0 0 0
0 0 0
1 1 1
1 1 1
1 1 1
1 1 1
1 1 1
2 2 2
1 1 1
2 2 2
1 1 1
80 80 80
177 177 177
106 106 106
86 86 86
87 87 87
86 86 86
87 87 87
87 87 87
87 87 87
87 87 87
86 86 86
86 86 86
86 86 86
87 87 87
87 87 87
87 87 87
87 87 87
87 87 87
87 87 87
87 87 87
87 87 87
87 87 87
87 87 87
87 87 87
87 87 87
88 88 88
88 88 88
87 87 87
88 88 88
88 88 88
88 88 88
87 87 87
169 169 169
185 185 185
75 75 75
42 42 42
31 31 31
21 21 21
13 13 13
0 0 0
0 0 0
1 1 1
1 1 1
0 0 0
1 1 1
0 0 0
1 1 1
1 1 1
2 2 2
2 2 2
35 35 35
90 90 90
168 168 168
106 106 106
86 86 86
87 87 87
86 86 86
87 87 87
87 87 87
87 87 87
86 86 86
86 86 86
87 87 87
87 87 87
87 87 87
87 87 87
87 87 87
86 86 86
87 87 87
86 86 86
87 87 87
87 87 87
87 87 87
87 87 87
87 87 87
87 87 87
87 87 87
88 88 88
88 88 88
88 88 88
87 87 87
120 120 120
160 160 160
178 178 178
59 59 59
43 43 43
27 27 27
21 21 21
13 13 13
0 0 0
0 0 0
1 1 1
2 2 2
1 1 1
1 1 1
1 1 1
0 0 0
0 0 0
1 1 1
2 2 2
6 6 6
67 67 67
157 157 157
150 150 150
92 92 92
86 86 86
87 87 87
87 87 87
87 87 87
87 87 87
86 86 86
86 86 86
88 88 88
87 87 87
87 87 87
87 87 87
86 86 86
87 87 87
86 86 86
87 87 87
87 87 87
87 87 87
87 87 87
87 87 87
88 88 88
88 88 88
87 87 87
88 88 88
88 88 88
87 87 87
89 89 89
172 172 172
160 160 160
104 104 104
47 47 47
45 45 45
22 22 22
20 20 20
15 15 15
0 0 0
0 0 0
1 1 1
1 1 1
1 1 1
1 1 1
1 1 1
1 1 1
0 0 0
0 0 0
1 1 1
3 3 3
17 17 17
83 83 83
195 195 195
136 136 136
86 86 86
86 86 86
87 87 87
87 87 87
87 87 87
86 86 86
86 86 86
87 87 87
88 88 88
88 88 88
87 87 87
87 87 87
87 87 87
86 86 86
86 86 86
87 87 87
87 87 87
88 88 88
88 88 88
87 87 87
88 88 88
87 87 87
88 88 88
88 88 88
87 87 87
157 157 157
165 165 165
190 190 190
80 80 80
39 39 39
40 40 40
18 18 18
19 19 19
15 15 15
0 0 0
0 0 0
1 1 1
1 1 1
0 0 0
0 0 0
0 0 0
1 1 1
1 1 1
1 1 1
2 2 2
4 4 4
1 1 1
52 52 52
109 109 109
175 175 175
134 134 134
86 86 86
87 87 87
87 87 87
86 86 86
86 86 86
86 86 86
87 87 87
87 87 87
87 87 87
86 86 86
87 87 87
86 86 86
86 86 86
86 86 86
87 87 87
87 87 87
87 87 87
88 88 88
87 87 87
87 87 87
88 88 88
87 87 87
87 87 87
92 92 92
170 170 170
162 162 162
103 103 103
48 48 48
40 40 40
52 52 52
17 17 17
15 15 15
14 14 14
0 0 0
0 0 0
1 1 1
1 1 1
1 1 1
1 1 1
1 1 1
2 2 2
1 1 1
2 2 2
2 2 2
4 4 4
4 4 4
4 4 4
36 36 36
166 166 166
173 173 173
149 149 149
100 100 100
88 88 88
86 86 86
86 86 86
86 86 86
87 87 87
87 87 87
88 88 88
87 87 87
87 87 87
86 86 86
86 86 86
87 87 87
87 87 87
87 87 87
87 87 87
88 88 88
87 87 87
88 88 88
88 88 88
87 87 87
89 89 89
168 168 168
161 161 161
154 154 154
80 80 80
33 33 33
39 39 39
53 53 53
17 17 17
14 14 14
15 15 15
0 0 0
0 0 0
1 1 1
1 1 1
1 1 1
2 2 2
3 3 3
2 2 2
2 2 2
3 3 3
3 3 3
3 3 3
3 3 3
5 5 5
4 4 4
9 9 9
75 75 75
161 161 161
163 163 163
146 146 146
133 133 133
85 85 85
86 86 86
87 87 87
87 87 87
87 87 87
87 87 87
87 87 87
86 86 86
87 87 87
88 88 88
88 88 88
87 87 87
87 87 87
88 88 88
87 87 87
88 88 88
87 87 87
97 97 97
166 166 166
167 167 167
139 139 139
86 86 86
27 27 27
23 23 23
12 12 12
28 28 28
22 22 22
12 12 12
14 14 14
0 0 0
0 0 0
1 1 1
1 1 1
1 1 1
3 3 3
2 2 2
3 3 3
3 3 3
3 3 3
4 4 4
4 4 4
5 5 5
4 4 4
5 5 5
3 3 3
0 0 0
25 25 25
83 83 83
134 134 134
173 173 173
148 148 148
97 97 97
86 86 86
87 87 87
93 93 93
93 93 93
89 89 89
87 87 87
86 86 86
87 87 87
87 87 87
87 87 87
88 88 88
87 87 87
87 87 87
87 87 87
114 114 114
174 174 174
169 169 169
157 157 157
83 83 83
15 15 15
14 14 14
14 14 14
17 17 17
13 13 13
29 29 29
13 13 13
19 19 19
0 0 0
0 0 0
2 2 2
1 1 1
2 2 2
3 3 3
3 3 3
3 3 3
3 3 3
3 3 3
4 4 4
5 5 5
4 4 4
3 3 3
5 5 5
4 4 4
3 3 3
1 1 1
0 0 0
4 4 4
60 60 60
98 98 98
145 145 145
167 167 167
158 158 158
163 163 163
160 160 160
167 167 167
166 166 166
145 145 145
114 114 114
99 99 99
104 104 104
99 99 99
107 107 107
126 126 126
164 164 164
158 158 158
184 184 184
101 101 101
73 73 73
7 7 7
14 14 14
35 35 35
24 24 24
26 26 26
10 10 10
42 42 42
13 13 13
27 27 27
0 0 0
0 0 0
2 2 2
1 1 1
2 2 2
1 1 1
2 2 2
1 1 1
2 2 2
1 1 1
1 1 1
2 2 2
3 3 3
3 3 3
5 5 5
4 4 4
5 5 5
4 4 4
3 3 3
2 2 2
0 0 0
0 0 0
17 17 17
56 56 56
86 86 86
101 101 101
148 148 148
175 175 175
179 179 179
174 174 174
170 170 170
174 174 174
177 177 177
171 171 171
161 161 161
152 152 152
194 194 194
108 108 108
78 78 78
25 25 25
29 29 29
24 24 24
14 14 14
28 28 28
21 21 21
26 26 26
9 9 9
62 62 62
13 13 13
2 2 2
0 0 0
0 0 0
2 2 2
1 1 1
2 2 2
1 1 1
2 2 2
2 2 2
2 2 2
1 1 1
2 2 2
1 1 1
2 2 2
2 2 2
4 4 4
4 4 4
4 4 4
5 5 5
4 4 4
5 5 5
5 5 5
4 4 4
3 3 3
3 3 3
2 2 2
9 9 9
13 13 13
32 32 32
65 65 65
80 80 80
90 90 90
100 100 100
105 105 105
105 105 105
89 89 89
77 77 77
41 41 41
17 17 17
21 21 21
25 25 25
17 17 17
27 27 27
21 21 21
27 27 27
29 29 29
47 47 47
9 9 9
78 78 78
22 22 22
2 2 2
0 0 0
0 0 0
2 2 2
2 2 2
1 1 1
1 1 1
1 1 1
2 2 2
2 2 2
2 2 2
2 2 2
1 1 1
2 2 2
2 2 2
3 3 3
3 3 3
5 5 5
4 4 4
5 5 5
4 4 4
4 4 4
4 4 4
4 4 4
4 4 4
4 4 4
3 3 3
4 4 4
5 5 5
4 4 4
11 11 11
10 10 10
3 3 3
2 2 2
2 2 2
2 2 2
2 2 2
3 3 3
8 8 8
11 11 11
33 33 33
27 27 27
24 24 24
24 24 24
30 30 30
34 34 34
33 33 33
10 10 10
77 77 77
8 8 8
2 2 2
0 0 0
0 0 0
2 2 2
2 2 2
2 2 2
2 2 2
2 2 2
1 1 1
1 1 1
2 2 2
2 2 2
2 2 2
2 2 2
1 1 1
2 2 2
2 2 2
3 3 3
5 5 5
5 5 5
5 5 5
3 3 3
4 4 4
4 4 4
4 4 4
4 4 4
3 3 3
4 4 4
3 3 3
4 4 4
3 3 3
2 2 2
2 2 2
3 3 3
5 5 5
5 5 5
5 5 5
5 5 5
5 5 5
16 16 16
34 34 34
31 31 31
21 21 21
16 16 16
28 28 28
33 33 33
17 17 17
14 14 14
62 62 62
2 2 2
2 2 2
0 0 0
0 0 0
2 2 2
2 2 2
2 2 2
1 1 1
2 2 2
1 1 1
1 1 1
1 1 1
2 2 2
2 2 2
2 2 2
1 1 1
1 1 1
1 1 1
2 2 2
3 3 3
6 6 6
4 4 4
4 4 4
4 4 4
4 4 4
4 4 4
4 4 4
4 4 4
3 3 3
3 3 3
5 5 5
4 4 4
3 3 3
4 4 4
3 3 3
4 4 4
3 3 3
4 4 4
7 7 7
7 7 7
22 22 22
19 19 19
33 33 33
25 25 25
9 9 9
14 14 14
26 26 26
10 10 10
17 17 17
10 10 10
2 2 2
2 2 2
0 0 0
0 0 0
2 2 2
2 2 2
2 2 2
1 1 1
1 1 1
1 1 1
1 1 1
1 1 1
1 1 1
1 1 1
2 2 2
1 1 1
1 1 1
2 2 2
2 2 2
3 3 3
2 2 2
6 6 6
7 7 7
4 4 4
4 4 4
4 4 4
4 4 4
4 4 4
3 3 3
5 5 5
5 5 5
5 5 5
4 4 4
5 5 5
5 5 5
4 4 4
4 4 4
5 5 5
8 8 8
7 7 7
7 7 7
36 36 36
36 36 36
34 34 34
20 20 20
25 25 25
41 41 41
13 13 13
37 37 37
2 2 2
2 2 2
2 2 2
0 0 0
0 0 0
2 2 2
2 2 2
2 2 2
2 2 2
2 2 2
1 1 1
1 1 1
1 1 1
1 1 1
1 1 1
2 2 2
1 1 1
1 1 1
2 2 2
2 2 2
2 2 2
2 2 2
3 3 3
7 7 7
8 8 8
4 4 4
4 4 4
4 4 4
4 4 4
4 4 4
5 5 5
4 4 4
4 4 4
4 4 4
5 5 5
5 5 5
5 5 5
5 5 5
5 5 5
6 6 6
5 5 5
7 7 7
35 35 35
29 29 29
26 26 26
16 16 16
17 17 17
48 48 48
17 17 17
2 2 2
2 2 2
2 2 2
2 2 2
0 0 0
0 0 0
2 2 2
2 2 2
2 2 2
2 2 2
2 2 2
2 2 2
1 1 1
1 1 1
2 2 2
1 1 1
2 2 2
1 1 1
1 1 1
2 2 2
1 1 1
2 2 2
2 2 2
2 2 2
2 2 2
6 6 6
24 24 24
4 4 4
4 4 4
4 4 4
4 4 4
4 4 4
4 4 4
4 4 4
4 4 4
4 4 4
4 4 4
5 5 5
4 4 4
5 5 5
6 6 6
6 6 6
6 6 6
31 31 31
33 33 33
26 26 26
20 20 20
28 28 28
17 17 17
5 5 5
2 2 2
2 2 2
2 2 2
2 2 2
0 0 0
0 0 0
2 2 2
2 2 2
2 2 2
2 2 2
2 2 2
2 2 2
1 1 1
1 1 1
1 1 1
1 1 1
2 2 2
1 1 1
1 1 1
2 2 2
2 2 2
1 1 1
2 2 2
2 2 2
2 2 2
2 2 2
5 5 5
26 26 26
4 4 4
4 4 4
3 3 3
4 4 4
4 4 4
4 4 4
4 4 4
4 4 4
4 4 4
12 12 12
6 6 6
19 19 19
17 17 17
10 10 10
28 28 28
36 36 36
25 25 25
27 27 27
26 26 26
56 56 56
11 11 11
2 2 2
2 2 2
2 2 2
2 2 2
2 2 2
0 0 0
0 0 0
2 2 2
2 2 2
2 2 2
2 2 2
2 2 2
2 2 2
2 2 2
2 2 2
1 1 1
1 1 1
2 2 2
1 1 1
1 1 1
2 2 2
2 2 2
2 2 2
2 2 2
2 2 2
2 2 2
2 2 2
2 2 2
6 6 6
25 25 25
5 5 5
2 2 2
2 2 2
3 3 3
6 6 6
8 8 8
10 10 10
7 7 7
7 7 7
6 6 6
19 19 19
18 18 18
29 29 29
34 34 34
32 32 32
28 28 28
28 28 28
34 34 34
40 40 40
2 2 2
2 2 2
2 2 2
2 2 2
2 2 2
2 2 2
0 0 0
0 0 0
2 2 2
2 2 2
2 2 2
2 2 2
2 2 2
2 2 2
2 2 2
2 2 2
1 1 1
1 1 1
1 1 1
1 1 1
1 1 1
1 1 1
2 2 2
2 2 2
2 2 2
2 2 2
2 2 2
2 2 2
2 2 2
2 2 2
5 5 5
22 22 22
4 4 4
1 1 1
3 3 3
7 7 7
14 14 14
9 9 9
16 16 16
12 12 12
29 29 29
35 35 35
29 29 29
32 32 32
29 29 29
30 30 30
19 19 19
38 38 38
16 16 16
2 2 2
2 2 2
2 2 2
2 2 2
2 2 2
2 2 2
2 2 2
0 0 0
0 0 0
2 2 2
2 2 2
2 2 2
2 2 2
2 2 2
2 2 2
2 2 2
2 2 2
2 2 2
1 1 1
1 1 1
1 1 1
1 1 1
1 1 1
1 1 1
1 1 1
1 1 1
1 1 1
2 2 2
2 2 2
2 2 2
2 2 2
2 2 2
5 5 5
21 21 21
6 6 6
3 3 3
3 3 3
7 7 7
9 9 9
15 15 15
14 14 14
21 21 21
20 20 20
24 24 24
21 21 21
20 20 20
19 19 19
32 32 32
6 6 6
2 2 2
2 2 2
2 2 2
2 2 2
2 2 2
2 2 2
2 2 2
2 2 2
0 0 0
0 0 0
2 2 2
2 2 2
2 2 2
2 2 2
2 2 2
2 2 2
2 2 2
2 2 2
2 2 2
2 2 2
1 1 1
1 1 1
1 1 1
1 1 1
1 1 1
1 1 1
2 2 2
2 2 2
2 2 2
1 1 1
1 1 1
1 1 1
2 2 2
2 2 2
3 3 3
18 18 18
22 22 22
3 3 3
8 8 8
5 5 5
9 9 9
5 5 5
6 6 6
15 15 15
10 10 10
8 8 8
10 10 10
29 29 29
2 2 2
2 2 2
2 2 2
2 2 2
2 2 2
2 2 2
2 2 2
2 2 2
2 2 2
2 2 2
0 0 0
0 0 0
2 2 2
2 2 2
2 2 2
2 2 2
2 2 2
2 2 2
2 2 2
2 2 2
2 2 2
2 2 2
2 2 2
2 2 2
1 1 1
1 1 1
1 1 1
1 1 1
2 2 2
2 2 2
1 1 1
1 1 1
2 2 2
2 2 2
2 2 2
2 2 2
2 2 2
3 3 3
17 17 17
21 21 21
9 9 9
8 8 8
17 17 17
20 20 20
23 23 23
29 29 29
21 21 21
16 16 16
4 4 4
2 2 2
2 2 2
2 2 2
2 2 2
2 2 2
2 2 2
2 2 2
2 2 2
2 2 2
2 2 2
2 2 2
0 0 0
0 0 0
2 2 2
2 2 2
2 2 2
2 2 2
2 2 2
2 2 2
2 2 2
2 2 2
2 2 2
2 2 2
2 2 2
2 2 2
2 2 2
2 2 2
0 0 0
1 1 1
1 1 1
1 1 1
1 1 1
1 1 1
2 2 2
2 2 2
1 1 1
1 1 1
2 2 2
2 2 2
3 3 3
11 11 11
18 18 18
7 7 7
10 10 10
19 19 19
25 25 25
37 37 37
5 5 5
2 2 2
2 2 2
2 2 2
2 2 2
2 2 2
2 2 2
2 2 2
2 2 2
2 2 2
2 2 2
2 2 2
2 2 2
2 2 2
0 0 0
0 0 0
2 2 2
2 2 2
2 2 2
2 2 2
2 2 2
2 2 2
2 2 2
2 2 2
2 2 2
2 2 2
2 2 2
2 2 2
2 2 2
2 2 2
2 2 2
2 2 2
1 1 1
0 0 0
1 1 1
2 2 2
2 2 2
2 2 2
2 2 2
2 2 2
3 3 3
4 4 4
4 4 4
4 4 4
8 8 8
19 19 19
13 13 13
21 21 21
2 2 2
2 2 2
2 2 2
2 2 2
2 2 2
2 2 2
2 2 2
2 2 2
2 2 2
2 2 2
2 2 2
2 2 2
2 2 2
2 2 2
2 2 2
2 2 2
0 0 0
0 0 0
0 0 0
0 0 0
0 0 0
0 0 0
0 0 0
0 0 0
0 0 0
0 0 0
0 0 0
0 0 0
0 0 0
0 0 0
0 0 0
0 0 0
0 0 0
0 0 0
0 0 0
0 0 0
0 0 0
0 0 0
0 0 0
0 0 0
0 0 0
0 0 0
0 0 0
0 0 0
0 0 0
0 0 0
0 0 0
0 0 0
0 0 0
0 0 0
0 0 0
0 0 0
0 0 0
0 0 0
0 0 0
0 0 0
0 0 0
0 0 0
0 0 0
0 0 0
0 0 0
0 0 0
0 0 0
0 0 0
0 0 0
0 0 0
0 0 0
