P3 
50 50 
255
0 0 0
0 0 0
0 0 0
0 0 0
0 0 0
0 0 0
0 0 0
0 0 0
0 0 0
0 0 0
0 0 0
0 0 0
0 0 0
0 0 0
0 0 0
0 0 0
0 0 0
0 0 0
0 0 0
0 0 0
0 0 0
0 0 0
0 0 0
0 0 0
0 0 0
0 0 0
0 0 0
0 0 0
0 0 0
0 0 0
0 0 0
0 0 0
0 0 0
0 0 0
0 0 0
0 0 0
0 0 0
0 0 0
0 0 0
0 0 0
0 0 0
0 0 0
0 0 0
0 0 0
0 0 0
0 0 0
0 0 0
0 0 0
0 0 0
0 0 0
0 0 0
2 2 2
2 2 2
2 2 2
2 2 2
6 6 6
6 6 6
2 2 2
2 2 2
5 5 5
2 2 2
6 6 6
7 7 7
7 7 7
5 5 5
4 4 4
7 7 7
14 14 14
31 31 31
49 49 49
67 67 67
67 67 67
47 47 47
28 28 28
12 12 12
4 4 4
4 4 4
5 5 5
3 3 3
3 3 3
3 3 3
3 3 3
7 7 7
4 4 4
4 4 4
4 4 4
4 4 4
4 4 4
3 3 3
2 2 2
4 4 4
1 1 1
2 2 2
2 2 2
2 2 2
2 2 2
2 2 2
2 2 2
2 2 2
0 0 0
0 0 0
3 3 3
2 2 2
2 2 2
2 2 2
5 5 5
5 5 5
4 4 4
3 3 3
4 4 4
5 5 5
11 11 11
7 7 7
6 6 6
5 5 5
24 24 24
77 77 77
89 89 89
110 110 110
142 142 142
178 178 178
177 177 177
153 153 153
124 124 124
93 93 93
56 56 56
15 15 15
8 8 8
6 6 6
5 5 5
5 5 5
5 5 5
4 4 4
4 4 4
5 5 5
4 4 4
4 4 4
4 4 4
4 4 4
2 2 2
9 9 9
4 4 4
2 2 2
2 2 2
2 2 2
2 2 2
2 2 2
2 2 2
2 2 2
0 0 0
0 0 0
3 3 3
3 3 3
3 3 3
3 3 3
3 3 3
6 6 6
7 7 7
5 5 5
4 4 4
9 9 9
11 11 11
6 6 6
10 10 10
57 57 57
91 91 91
131 131 131
189 189 189
177 177 177
173 173 173
178 178 178
178 178 178
184 184 184
174 174 174
187 187 187
157 157 157
97 97 97
47 47 47
10 10 10
6 6 6
6 6 6
7 7 7
5 5 5
6 6 6
5 5 5
5 5 5
5 5 5
5 5 5
4 4 4
3 3 3
4 4 4
9 9 9
2 2 2
2 2 2
2 2 2
2 2 2
2 2 2
2 2 2
3 3 3
0 0 0
0 0 0
4 4 4
3 3 3
3 3 3
3 3 3
3 3 3
4 4 4
8 8 8
8 8 8
4 4 4
10 10 10
10 10 10
19 19 19
82 82 82
98 98 98
193 193 193
173 173 173
170 170 170
166 166 166
101 101 101
103 103 103
99 99 99
125 125 125
178 178 178
185 185 185
193 193 193
204 204 204
133 133 133
76 76 76
9 9 9
6 6 6
5 5 5
6 6 6
6 6 6
6 6 6
5 5 5
5 5 5
5 5 5
4 4 4
4 4 4
3 3 3
8 8 8
3 3 3
2 2 2
3 3 3
2 2 2
2 2 2
3 3 3
3 3 3
0 0 0
0 0 0
4 4 4
3 3 3
3 3 3
3 3 3
3 3 3
6 6 6
7 7 7
8 8 8
5 5 5
9 9 9
27 27 27
87 87 87
116 116 116
204 204 204
181 181 181
170 170 170
148 148 148
91 91 91
88 88 88
90 90 90
90 90 90
91 91 91
97 97 97
132 132 132
186 186 186
195 195 195
204 204 204
165 165 165
80 80 80
5 5 5
4 4 4
12 12 12
5 5 5
5 5 5
5 5 5
5 5 5
5 5 5
4 4 4
4 4 4
3 3 3
5 5 5
6 6 6
2 2 2
3 3 3
2 2 2
2 2 2
2 2 2
2 2 2
0 0 0
0 0 0
5 5 5
3 3 3
3 3 3
3 3 3
5 5 5
8 8 8
4 4 4
5 5 5
14 14 14
17 17 17
87 87 87
129 129 129
202 202 202
183 183 183
154 154 154
100 100 100
90 90 90
88 88 88
88 88 88
89 89 89
90 90 90
90 90 90
91 91 91
91 91 91
106 106 106
163 163 163
176 176 176
175 175 175
162 162 162
40 40 40
4 4 4
4 4 4
9 9 9
6 6 6
5 5 5
5 5 5
5 5 5
5 5 5
5 5 5
3 3 3
3 3 3
6 6 6
2 2 2
2 2 2
2 2 2
2 2 2
2 2 2
3 3 3
0 0 0
0 0 0
5 5 5
4 4 4
3 3 3
3 3 3
6 6 6
6 6 6
4 4 4
4 4 4
33 33 33
83 83 83
117 117 117
177 177 177
172 172 172
123 123 123
89 89 89
89 89 89
89 89 89
88 88 88
89 89 89
88 88 88
88 88 88
89 89 89
90 90 90
89 89 89
89 89 89
91 91 91
124 124 124
164 164 164
179 179 179
110 110 110
15 15 15
4 4 4
7 7 7
5 5 5
5 5 5
5 5 5
5 5 5
5 5 5
5 5 5
3 3 3
3 3 3
5 5 5
2 2 2
2 2 2
2 2 2
2 2 2
2 2 2
3 3 3
0 0 0
0 0 0
5 5 5
5 5 5
4 4 4
4 4 4
7 7 7
3 3 3
8 8 8
13 13 13
45 45 45
104 104 104
170 170 170
163 163 163
98 98 98
87 87 87
88 88 88
88 88 88
88 88 88
88 88 88
88 88 88
88 88 88
88 88 88
88 88 88
88 88 88
88 88 88
89 89 89
89 89 89
89 89 89
99 99 99
153 153 153
183 183 183
90 90 90
5 5 5
5 5 5
5 5 5
5 5 5
5 5 5
5 5 5
5 5 5
5 5 5
4 4 4
3 3 3
3 3 3
3 3 3
3 3 3
2 2 2
2 2 2
2 2 2
2 2 2
0 0 0
0 0 0
5 5 5
4 4 4
5 5 5
4 4 4
10 10 10
5 5 5
5 5 5
23 23 23
88 88 88
180 180 180
149 149 149
92 92 92
87 87 87
88 88 88
88 88 88
88 88 88
87 87 87
87 87 87
88 88 88
88 88 88
87 87 87
88 88 88
88 88 88
88 88 88
88 88 88
88 88 88
89 89 89
89 89 89
94 94 94
162 162 162
180 180 180
33 33 33
6 6 6
6 6 6
5 5 5
5 5 5
5 5 5
5 5 5
4 4 4
4 4 4
3 3 3
3 3 3
9 9 9
10 10 10
3 3 3
2 2 2
2 2 2
3 3 3
0 0 0
0 0 0
4 4 4
5 5 5
5 5 5
5 5 5
8 8 8
6 6 6
10 10 10
75 75 75
125 125 125
145 145 145
88 88 88
87 87 87
87 87 87
87 87 87
87 87 87
87 87 87
87 87 87
88 88 88
87 87 87
87 87 87
87 87 87
87 87 87
87 87 87
88 88 88
88 88 88
88 88 88
88 88 88
88 88 88
88 88 88
120 120 120
171 171 171
95 95 95
5 5 5
5 5 5
4 4 4
5 5 5
4 4 4
5 5 5
4 4 4
4 4 4
2 2 2
3 3 3
13 13 13
4 4 4
3 3 3
2 2 2
3 3 3
2 2 2
0 0 0
0 0 0
5 5 5
5 5 5
4 4 4
4 4 4
6 6 6
5 5 5
21 21 21
89 89 89
166 166 166
90 90 90
87 87 87
87 87 87
87 87 87
88 88 88
87 87 87
87 87 87
87 87 87
87 87 87
87 87 87
87 87 87
87 87 87
87 87 87
87 87 87
88 88 88
88 88 88
88 88 88
88 88 88
88 88 88
88 88 88
88 88 88
159 159 159
163 163 163
16 16 16
4 4 4
4 4 4
5 5 5
4 4 4
4 4 4
4 4 4
3 3 3
3 3 3
3 3 3
7 7 7
6 6 6
3 3 3
2 2 2
3 3 3
2 2 2
0 0 0
0 0 0
4 4 4
5 5 5
4 4 4
4 4 4
7 7 7
8 8 8
45 45 45
125 125 125
155 155 155
87 87 87
88 88 88
87 87 87
87 87 87
87 87 87
86 86 86
87 87 87
87 87 87
87 87 87
87 87 87
87 87 87
87 87 87
87 87 87
87 87 87
87 87 87
87 87 87
87 87 87
88 88 88
88 88 88
87 87 87
87 87 87
143 143 143
173 173 173
58 58 58
3 3 3
4 4 4
5 5 5
5 5 5
4 4 4
4 4 4
5 5 5
3 3 3
2 2 2
7 7 7
4 4 4
2 2 2
2 2 2
2 2 2
3 3 3
0 0 0
0 0 0
5 5 5
4 4 4
4 4 4
4 4 4
11 11 11
13 13 13
83 83 83
169 169 169
141 141 141
87 87 87
88 88 88
87 87 87
87 87 87
87 87 87
87 87 87
87 87 87
86 86 86
86 86 86
87 87 87
87 87 87
87 87 87
87 87 87
87 87 87
87 87 87
87 87 87
87 87 87
88 88 88
88 88 88
88 88 88
88 88 88
125 125 125
163 163 163
93 93 93
9 9 9
4 4 4
5 5 5
5 5 5
5 5 5
4 4 4
4 4 4
3 3 3
2 2 2
3 3 3
11 11 11
2 2 2
2 2 2
2 2 2
3 3 3
0 0 0
0 0 0
4 4 4
4 4 4
3 3 3
7 7 7
4 4 4
18 18 18
90 90 90
162 162 162
111 111 111
87 87 87
87 87 87
87 87 87
87 87 87
87 87 87
86 86 86
87 87 87
87 87 87
87 87 87
87 87 87
87 87 87
87 87 87
87 87 87
87 87 87
87 87 87
87 87 87
87 87 87
88 88 88
87 87 87
87 87 87
88 88 88
101 101 101
164 164 164
121 121 121
7 7 7
3 3 3
4 4 4
4 4 4
4 4 4
5 5 5
4 4 4
4 4 4
2 2 2
4 4 4
10 10 10
3 3 3
2 2 2
3 3 3
2 2 2
0 0 0
0 0 0
4 4 4
5 5 5
2 2 2
7 7 7
6 6 6
15 15 15
102 102 102
165 165 165
90 90 90
86 86 86
87 87 87
87 87 87
87 87 87
87 87 87
87 87 87
87 87 87
86 86 86
86 86 86
86 86 86
87 87 87
86 86 86
87 87 87
87 87 87
87 87 87
87 87 87
87 87 87
87 87 87
86 86 86
87 87 87
87 87 87
93 93 93
160 160 160
148 148 148
13 13 13
4 4 4
4 4 4
3 3 3
3 3 3
4 4 4
4 4 4
3 3 3
2 2 2
4 4 4
21 21 21
3 3 3
2 2 2
2 2 2
3 3 3
0 0 0
0 0 0
4 4 4
5 5 5
2 2 2
11 11 11
9 9 9
46 46 46
125 125 125
172 172 172
87 87 87
86 86 86
87 87 87
86 86 86
87 87 87
87 87 87
87 87 87
87 87 87
87 87 87
85 85 85
86 86 86
86 86 86
85 85 85
87 87 87
88 88 88
87 87 87
87 87 87
87 87 87
86 86 86
87 87 87
87 87 87
87 87 87
89 89 89
164 164 164
171 171 171
38 38 38
6 6 6
4 4 4
3 3 3
3 3 3
5 5 5
5 5 5
4 4 4
3 3 3
3 3 3
6 6 6
2 2 2
2 2 2
3 3 3
3 3 3
0 0 0
0 0 0
4 4 4
4 4 4
3 3 3
13 13 13
6 6 6
77 77 77
153 153 153
164 164 164
87 87 87
86 86 86
87 87 87
86 86 86
86 86 86
87 87 87
87 87 87
87 87 87
87 87 87
86 86 86
85 85 85
86 86 86
85 85 85
87 87 87
87 87 87
88 88 88
88 88 88
87 87 87
86 86 86
86 86 86
87 87 87
87 87 87
88 88 88
167 167 167
180 180 180
70 70 70
11 11 11
4 4 4
3 3 3
3 3 3
5 5 5
4 4 4
4 4 4
3 3 3
3 3 3
3 3 3
2 2 2
2 2 2
2 2 2
3 3 3
0 0 0
0 0 0
4 4 4
4 4 4
4 4 4
14 14 14
11 11 11
87 87 87
181 181 181
167 167 167
87 87 87
87 87 87
86 86 86
87 87 87
87 87 87
87 87 87
87 87 87
88 88 88
87 87 87
86 86 86
86 86 86
86 86 86
85 85 85
87 87 87
87 87 87
88 88 88
87 87 87
87 87 87
87 87 87
86 86 86
86 86 86
87 87 87
87 87 87
161 161 161
196 196 196
85 85 85
14 14 14
3 3 3
4 4 4
3 3 3
6 6 6
5 5 5
4 4 4
4 4 4
2 2 2
2 2 2
3 3 3
2 2 2
2 2 2
3 3 3
0 0 0
0 0 0
5 5 5
4 4 4
4 4 4
15 15 15
15 15 15
87 87 87
191 191 191
165 165 165
87 87 87
87 87 87
87 87 87
87 87 87
86 86 86
87 87 87
87 87 87
87 87 87
87 87 87
87 87 87
86 86 86
86 86 86
87 87 87
87 87 87
87 87 87
87 87 87
87 87 87
87 87 87
87 87 87
86 86 86
87 87 87
87 87 87
87 87 87
127 127 127
185 185 185
94 94 94
9 9 9
3 3 3
3 3 3
5 5 5
5 5 5
5 5 5
4 4 4
4 4 4
3 3 3
2 2 2
3 3 3
2 2 2
3 3 3
3 3 3
0 0 0
0 0 0
5 5 5
5 5 5
3 3 3
10 10 10
19 19 19
89 89 89
195 195 195
163 163 163
86 86 86
86 86 86
87 87 87
86 86 86
86 86 86
87 87 87
87 87 87
87 87 87
87 87 87
87 87 87
87 87 87
85 85 85
87 87 87
87 87 87
87 87 87
87 87 87
88 88 88
87 87 87
87 87 87
86 86 86
86 86 86
87 87 87
87 87 87
92 92 92
175 175 175
105 105 105
9 9 9
2 2 2
3 3 3
4 4 4
5 5 5
4 4 4
4 4 4
4 4 4
2 2 2
3 3 3
2 2 2
2 2 2
2 2 2
2 2 2
0 0 0
0 0 0
5 5 5
3 3 3
5 5 5
10 10 10
30 30 30
90 90 90
193 193 193
119 119 119
87 87 87
87 87 87
87 87 87
86 86 86
87 87 87
87 87 87
87 87 87
86 86 86
87 87 87
87 87 87
87 87 87
85 85 85
87 87 87
86 86 86
87 87 87
87 87 87
87 87 87
87 87 87
87 87 87
86 86 86
86 86 86
87 87 87
87 87 87
87 87 87
151 151 151
120 120 120
9 9 9
4 4 4
4 4 4
4 4 4
4 4 4
4 4 4
4 4 4
4 4 4
2 2 2
2 2 2
3 3 3
2 2 2
2 2 2
2 2 2
0 0 0
0 0 0
3 3 3
3 3 3
6 6 6
12 12 12
41 41 41
92 92 92
155 155 155
86 86 86
86 86 86
86 86 86
87 87 87
86 86 86
86 86 86
87 87 87
87 87 87
87 87 87
87 87 87
87 87 87
87 87 87
86 86 86
86 86 86
86 86 86
86 86 86
87 87 87
87 87 87
87 87 87
87 87 87
87 87 87
86 86 86
87 87 87
87 87 87
87 87 87
106 106 106
132 132 132
2 2 2
4 4 4
4 4 4
4 4 4
4 4 4
4 4 4
4 4 4
4 4 4
3 3 3
2 2 2
2 2 2
2 2 2
2 2 2
2 2 2
0 0 0
0 0 0
3 3 3
2 2 2
10 10 10
13 13 13
52 52 52
101 101 101
100 100 100
86 86 86
86 86 86
87 87 87
85 85 85
86 86 86
86 86 86
86 86 86
86 86 86
87 87 87
86 86 86
85 85 85
86 86 86
86 86 86
86 86 86
86 86 86
86 86 86
87 87 87
86 86 86
86 86 86
87 87 87
87 87 87
87 87 87
87 87 87
87 87 87
87 87 87
89 89 89
135 135 135
0 0 0
5 5 5
4 4 4
3 3 3
4 4 4
4 4 4
4 4 4
4 4 4
3 3 3
2 2 2
2 2 2
15 15 15
2 2 2
2 2 2
0 0 0
0 0 0
3 3 3
2 2 2
12 12 12
14 14 14
64 64 64
101 101 101
90 90 90
86 86 86
87 87 87
86 86 86
86 86 86
86 86 86
86 86 86
86 86 86
86 86 86
86 86 86
86 86 86
86 86 86
86 86 86
86 86 86
86 86 86
86 86 86
86 86 86
87 87 87
87 87 87
86 86 86
86 86 86
87 87 87
87 87 87
87 87 87
86 86 86
87 87 87
96 96 96
113 113 113
0 0 0
4 4 4
3 3 3
3 3 3
4 4 4
4 4 4
3 3 3
4 4 4
3 3 3
2 2 2
2 2 2
14 14 14
1 1 1
2 2 2
0 0 0
0 0 0
2 2 2
2 2 2
9 9 9
15 15 15
66 66 66
93 93 93
97 97 97
86 86 86
86 86 86
86 86 86
86 86 86
87 87 87
85 85 85
86 86 86
86 86 86
87 87 87
86 86 86
86 86 86
86 86 86
87 87 87
86 86 86
86 86 86
86 86 86
87 87 87
87 87 87
86 86 86
87 87 87
87 87 87
87 87 87
87 87 87
87 87 87
87 87 87
119 119 119
95 95 95
0 0 0
2 2 2
2 2 2
2 2 2
5 5 5
4 4 4
3 3 3
3 3 3
4 4 4
1 1 1
2 2 2
19 19 19
2 2 2
2 2 2
0 0 0
0 0 0
3 3 3
5 5 5
6 6 6
18 18 18
72 72 72
88 88 88
127 127 127
86 86 86
86 86 86
85 85 85
87 87 87
86 86 86
86 86 86
86 86 86
86 86 86
86 86 86
86 86 86
86 86 86
86 86 86
87 87 87
86 86 86
86 86 86
86 86 86
87 87 87
90 90 90
87 87 87
87 87 87
89 89 89
87 87 87
87 87 87
86 86 86
87 87 87
139 139 139
90 90 90
1 1 1
1 1 1
2 2 2
3 3 3
4 4 4
4 4 4
3 3 3
3 3 3
4 4 4
2 2 2
13 13 13
13 13 13
2 2 2
2 2 2
0 0 0
0 0 0
4 4 4
5 5 5
6 6 6
20 20 20
76 76 76
87 87 87
141 141 141
86 86 86
86 86 86
86 86 86
87 87 87
86 86 86
86 86 86
86 86 86
86 86 86
86 86 86
86 86 86
86 86 86
86 86 86
87 87 87
86 86 86
86 86 86
86 86 86
89 89 89
117 117 117
105 105 105
96 96 96
102 102 102
91 91 91
87 87 87
86 86 86
87 87 87
161 161 161
90 90 90
1 1 1
1 1 1
3 3 3
4 4 4
4 4 4
4 4 4
3 3 3
4 4 4
4 4 4
2 2 2
13 13 13
17 17 17
2 2 2
2 2 2
0 0 0
0 0 0
4 4 4
4 4 4
5 5 5
30 30 30
83 83 83
86 86 86
144 144 144
92 92 92
87 87 87
86 86 86
86 86 86
94 94 94
91 91 91
94 94 94
102 102 102
85 85 85
84 84 84
86 86 86
87 87 87
87 87 87
88 88 88
87 87 87
85 85 85
121 121 121
147 147 147
106 106 106
175 175 175
110 110 110
42 42 42
106 106 106
90 90 90
110 110 110
112 112 112
89 89 89
2 2 2
5 5 5
3 3 3
4 4 4
4 4 4
4 4 4
3 3 3
3 3 3
4 4 4
2 2 2
1 1 1
15 15 15
2 2 2
3 3 3
0 0 0
0 0 0
4 4 4
4 4 4
5 5 5
31 31 31
86 86 86
82 82 82
110 110 110
107 107 107
86 86 86
102 102 102
68 68 68
196 196 196
217 217 217
161 161 161
142 142 142
84 84 84
83 83 83
84 84 84
85 85 85
85 85 85
86 86 86
86 86 86
84 84 84
127 127 127
194 194 194
222 222 222
144 144 144
35 35 35
127 127 127
162 162 162
176 176 176
151 151 151
91 91 91
88 88 88
6 6 6
1 1 1
3 3 3
5 5 5
3 3 3
3 3 3
3 3 3
4 4 4
4 4 4
2 2 2
2 2 2
12 12 12
2 2 2
2 2 2
0 0 0
0 0 0
4 4 4
4 4 4
4 4 4
17 17 17
83 83 83
88 88 88
93 93 93
155 155 155
119 119 119
109 109 109
26 26 26
192 192 192
141 141 141
149 149 149
121 121 121
116 116 116
84 84 84
85 85 85
86 86 86
86 86 86
87 87 87
86 86 86
85 85 85
111 111 111
155 155 155
172 172 172
134 134 134
10 10 10
70 70 70
20 20 20
104 104 104
152 152 152
92 92 92
89 89 89
17 17 17
1 1 1
2 2 2
4 4 4
3 3 3
3 3 3
4 4 4
4 4 4
3 3 3
2 2 2
2 2 2
14 14 14
2 2 2
3 3 3
0 0 0
0 0 0
4 4 4
4 4 4
4 4 4
11 11 11
55 55 55
86 86 86
87 87 87
171 171 171
160 160 160
142 142 142
131 131 131
143 143 143
187 187 187
219 219 219
185 185 185
155 155 155
92 92 92
86 86 86
85 85 85
85 85 85
85 85 85
84 84 84
120 120 120
120 120 120
96 96 96
175 175 175
149 149 149
136 136 136
145 145 145
8 8 8
7 7 7
62 62 62
89 89 89
90 90 90
19 19 19
3 3 3
3 3 3
2 2 2
3 3 3
4 4 4
4 4 4
3 3 3
3 3 3
2 2 2
2 2 2
16 16 16
1 1 1
2 2 2
0 0 0
0 0 0
4 4 4
4 4 4
2 2 2
9 9 9
16 16 16
73 73 73
87 87 87
107 107 107
160 160 160
108 108 108
164 164 164
184 184 184
138 138 138
161 161 161
129 129 129
103 103 103
127 127 127
115 115 115
84 84 84
85 85 85
85 85 85
84 84 84
113 113 113
106 106 106
108 108 108
97 97 97
95 95 95
149 149 149
213 213 213
108 108 108
3 3 3
9 9 9
26 26 26
34 34 34
14 14 14
2 2 2
2 2 2
2 2 2
2 2 2
3 3 3
4 4 4
4 4 4
4 4 4
2 2 2
2 2 2
17 17 17
5 5 5
3 3 3
0 0 0
0 0 0
3 3 3
4 4 4
0 0 0
14 14 14
3 3 3
40 40 40
88 88 88
91 91 91
141 141 141
163 163 163
179 179 179
123 123 123
127 127 127
93 93 93
92 92 92
150 150 150
114 114 114
135 135 135
85 85 85
85 85 85
85 85 85
84 84 84
145 145 145
104 104 104
145 145 145
90 90 90
92 92 92
132 132 132
212 212 212
208 208 208
69 69 69
8 8 8
12 12 12
0 0 0
1 1 1
1 1 1
2 2 2
1 1 1
2 2 2
2 2 2
3 3 3
4 4 4
3 3 3
6 6 6
3 3 3
15 15 15
11 11 11
9 9 9
0 0 0
0 0 0
3 3 3
4 4 4
1 1 1
15 15 15
14 14 14
0 0 0
71 71 71
90 90 90
127 127 127
160 160 160
211 211 211
140 140 140
99 99 99
129 129 129
115 115 115
124 124 124
140 140 140
119 119 119
86 86 86
86 86 86
86 86 86
86 86 86
102 102 102
107 107 107
123 123 123
127 127 127
121 121 121
104 104 104
128 128 128
194 194 194
121 121 121
61 61 61
28 28 28
0 0 0
2 2 2
1 1 1
2 2 2
2 2 2
2 2 2
2 2 2
5 5 5
4 4 4
4 4 4
10 10 10
9 9 9
15 15 15
4 4 4
15 15 15
0 0 0
0 0 0
3 3 3
3 3 3
1 1 1
8 8 8
86 86 86
20 20 20
54 54 54
87 87 87
134 134 134
80 80 80
195 195 195
165 165 165
103 103 103
103 103 103
121 121 121
101 101 101
137 137 137
92 92 92
87 87 87
87 87 87
86 86 86
87 87 87
107 107 107
113 113 113
128 128 128
136 136 136
99 99 99
86 86 86
90 90 90
105 105 105
132 132 132
91 91 91
58 58 58
0 0 0
3 3 3
3 3 3
2 2 2
2 2 2
3 3 3
3 3 3
6 6 6
4 4 4
3 3 3
12 12 12
15 15 15
21 21 21
3 3 3
11 11 11
0 0 0
0 0 0
3 3 3
3 3 3
4 4 4
5 5 5
86 86 86
83 83 83
85 85 85
84 84 84
159 159 159
76 76 76
145 145 145
95 95 95
113 113 113
108 108 108
125 125 125
94 94 94
119 119 119
130 130 130
84 84 84
86 86 86
87 87 87
86 86 86
123 123 123
108 108 108
110 110 110
93 93 93
85 85 85
87 87 87
88 88 88
19 19 19
140 140 140
88 88 88
87 87 87
22 22 22
72 72 72
26 26 26
2 2 2
2 2 2
3 3 3
5 5 5
5 5 5
4 4 4
3 3 3
9 9 9
14 14 14
18 18 18
3 3 3
7 7 7
0 0 0
0 0 0
5 5 5
5 5 5
6 6 6
12 12 12
84 84 84
86 86 86
84 84 84
86 86 86
128 128 128
177 177 177
93 93 93
83 83 83
87 87 87
84 84 84
99 99 99
118 118 118
107 107 107
134 134 134
84 84 84
83 83 83
84 84 84
83 83 83
104 104 104
112 112 112
140 140 140
91 91 91
85 85 85
87 87 87
89 89 89
60 60 60
103 103 103
83 83 83
54 54 54
83 83 83
84 84 84
15 15 15
2 2 2
3 3 3
5 5 5
8 8 8
3 3 3
5 5 5
1 1 1
2 2 2
5 5 5
4 4 4
6 6 6
8 8 8
0 0 0
0 0 0
9 9 9
5 5 5
9 9 9
17 17 17
48 48 48
85 85 85
70 70 70
79 79 79
90 90 90
159 159 159
80 80 80
81 81 81
80 80 80
79 79 79
99 99 99
139 139 139
129 129 129
104 104 104
86 86 86
88 88 88
87 87 87
82 82 82
94 94 94
130 130 130
168 168 168
92 92 92
96 96 96
81 81 81
82 82 82
85 85 85
79 79 79
67 67 67
45 45 45
80 80 80
83 83 83
8 8 8
6 6 6
7 7 7
9 9 9
10 10 10
6 6 6
7 7 7
2 2 2
4 4 4
2 2 2
3 3 3
8 8 8
4 4 4
0 0 0
0 0 0
4 4 4
3 3 3
5 5 5
12 12 12
7 7 7
64 64 64
83 83 83
32 32 32
88 88 88
86 86 86
85 85 85
89 89 89
85 85 85
88 88 88
117 117 117
139 139 139
143 143 143
106 106 106
88 88 88
86 86 86
86 86 86
84 84 84
97 97 97
120 120 120
157 157 157
109 109 109
124 124 124
85 85 85
88 88 88
87 87 87
86 86 86
56 56 56
72 72 72
47 47 47
11 11 11
2 2 2
3 3 3
2 2 2
3 3 3
5 5 5
4 4 4
4 4 4
3 3 3
3 3 3
2 2 2
2 2 2
2 2 2
2 2 2
0 0 0
0 0 0
2 2 2
3 3 3
4 4 4
8 8 8
8 8 8
11 11 11
15 15 15
1 1 1
79 79 79
87 87 87
84 84 84
89 89 89
94 94 94
94 94 94
123 123 123
160 160 160
174 174 174
120 120 120
89 89 89
88 88 88
92 92 92
91 91 91
103 103 103
131 131 131
161 161 161
102 102 102
96 96 96
88 88 88
86 86 86
79 79 79
77 77 77
38 38 38
3 3 3
0 0 0
0 0 0
0 0 0
1 1 1
1 1 1
2 2 2
3 3 3
2 2 2
1 1 1
1 1 1
3 3 3
1 1 1
2 2 2
4 4 4
1 1 1
0 0 0
0 0 0
3 3 3
2 2 2
3 3 3
10 10 10
11 11 11
0 0 0
2 2 2
0 0 0
40 40 40
86 86 86
82 82 82
89 89 89
92 92 92
91 91 91
92 92 92
92 92 92
158 158 158
130 130 130
113 113 113
91 91 91
85 85 85
88 88 88
95 95 95
108 108 108
117 117 117
92 92 92
92 92 92
85 85 85
85 85 85
81 81 81
77 77 77
23 23 23
0 0 0
0 0 0
2 2 2
2 2 2
3 3 3
1 1 1
2 2 2
0 0 0
2 2 2
2 2 2
2 2 2
4 4 4
3 3 3
0 0 0
8 8 8
4 4 4
0 0 0
0 0 0
3 3 3
3 3 3
2 2 2
2 2 2
4 4 4
9 9 9
6 6 6
4 4 4
14 14 14
86 86 86
86 86 86
87 87 87
84 84 84
86 86 86
90 90 90
96 96 96
164 164 164
132 132 132
152 152 152
89 89 89
86 86 86
85 85 85
89 89 89
110 110 110
88 88 88
89 89 89
88 88 88
85 85 85
88 88 88
89 89 89
87 87 87
14 14 14
0 0 0
2 2 2
2 2 2
3 3 3
2 2 2
2 2 2
2 2 2
3 3 3
3 3 3
4 4 4
4 4 4
3 3 3
4 4 4
1 1 1
9 9 9
8 8 8
0 0 0
0 0 0
3 3 3
2 2 2
2 2 2
2 2 2
4 4 4
6 6 6
10 10 10
11 11 11
2 2 2
88 88 88
87 87 87
85 85 85
82 82 82
85 85 85
88 88 88
89 89 89
100 100 100
121 121 121
136 136 136
88 88 88
85 85 85
84 84 84
87 87 87
163 163 163
111 111 111
89 89 89
89 89 89
86 86 86
85 85 85
91 91 91
88 88 88
7 7 7
1 1 1
2 2 2
3 3 3
2 2 2
2 2 2
3 3 3
2 2 2
3 3 3
4 4 4
3 3 3
3 3 3
2 2 2
2 2 2
2 2 2
9 9 9
3 3 3
0 0 0
0 0 0
4 4 4
4 4 4
3 3 3
6 6 6
5 5 5
4 4 4
6 6 6
6 6 6
7 7 7
86 86 86
86 86 86
84 84 84
80 80 80
85 85 85
88 88 88
103 103 103
114 114 114
131 131 131
90 90 90
87 87 87
85 85 85
85 85 85
86 86 86
136 136 136
110 110 110
100 100 100
86 86 86
80 80 80
82 82 82
91 91 91
88 88 88
4 4 4
2 2 2
2 2 2
2 2 2
3 3 3
2 2 2
2 2 2
2 2 2
3 3 3
2 2 2
2 2 2
2 2 2
2 2 2
2 2 2
2 2 2
5 5 5
6 6 6
0 0 0
0 0 0
3 3 3
3 3 3
5 5 5
8 8 8
2 2 2
7 7 7
10 10 10
9 9 9
7 7 7
68 68 68
85 85 85
89 89 89
78 78 78
80 80 80
86 86 86
102 102 102
115 115 115
91 91 91
85 85 85
87 87 87
84 84 84
84 84 84
85 85 85
119 119 119
119 119 119
118 118 118
85 85 85
80 80 80
82 82 82
90 90 90
90 90 90
5 5 5
2 2 2
2 2 2
2 2 2
3 3 3
2 2 2
2 2 2
2 2 2
3 3 3
2 2 2
2 2 2
2 2 2
2 2 2
2 2 2
2 2 2
6 6 6
10 10 10
0 0 0
0 0 0
2 2 2
4 4 4
6 6 6
3 3 3
5 5 5
11 11 11
9 9 9
16 16 16
5 5 5
26 26 26
85 85 85
88 88 88
84 84 84
82 82 82
81 81 81
85 85 85
88 88 88
86 86 86
122 122 122
91 91 91
88 88 88
84 84 84
87 87 87
146 146 146
105 105 105
117 117 117
84 84 84
83 83 83
84 84 84
90 90 90
91 91 91
13 13 13
2 2 2
3 3 3
3 3 3
2 2 2
2 2 2
2 2 2
2 2 2
3 3 3
2 2 2
2 2 2
2 2 2
2 2 2
2 2 2
2 2 2
8 8 8
8 8 8
0 0 0
0 0 0
4 4 4
7 7 7
2 2 2
4 4 4
6 6 6
7 7 7
3 3 3
11 11 11
11 11 11
10 10 10
80 80 80
88 88 88
89 89 89
81 81 81
80 80 80
86 86 86
102 102 102
90 90 90
113 113 113
102 102 102
95 95 95
86 86 86
88 88 88
160 160 160
99 99 99
116 116 116
84 84 84
82 82 82
83 83 83
90 90 90
91 91 91
21 21 21
2 2 2
2 2 2
3 3 3
2 2 2
2 2 2
2 2 2
2 2 2
3 3 3
2 2 2
2 2 2
2 2 2
2 2 2
2 2 2
2 2 2
4 4 4
4 4 4
0 0 0
0 0 0
3 3 3
3 3 3
4 4 4
6 6 6
7 7 7
9 9 9
3 3 3
8 8 8
6 6 6
21 21 21
52 52 52
85 85 85
88 88 88
83 83 83
79 79 79
99 99 99
108 108 108
88 88 88
101 101 101
120 120 120
117 117 117
90 90 90
87 87 87
127 127 127
101 101 101
109 109 109
87 87 87
83 83 83
83 83 83
90 90 90
91 91 91
20 20 20
2 2 2
2 2 2
3 3 3
2 2 2
2 2 2
2 2 2
2 2 2
2 2 2
2 2 2
2 2 2
1 1 1
2 2 2
2 2 2
1 1 1
2 2 2
2 2 2
0 0 0
0 0 0
0 0 0
0 0 0
0 0 0
0 0 0
0 0 0
0 0 0
0 0 0
0 0 0
0 0 0
0 0 0
0 0 0
0 0 0
0 0 0
0 0 0
0 0 0
0 0 0
0 0 0
0 0 0
0 0 0
0 0 0
0 0 0
0 0 0
0 0 0
0 0 0
0 0 0
0 0 0
0 0 0
0 0 0
0 0 0
0 0 0
0 0 0
0 0 0
0 0 0
0 0 0
0 0 0
0 0 0
0 0 0
0 0 0
0 0 0
0 0 0
0 0 0
0 0 0
0 0 0
0 0 0
0 0 0
0 0 0
0 0 0
0 0 0
0 0 0
