P3 
50 50 
255
0 0 0
0 0 0
0 0 0
0 0 0
0 0 0
0 0 0
0 0 0
0 0 0
0 0 0
0 0 0
0 0 0
0 0 0
0 0 0
0 0 0
0 0 0
0 0 0
0 0 0
0 0 0
0 0 0
0 0 0
0 0 0
0 0 0
0 0 0
0 0 0
0 0 0
0 0 0
0 0 0
0 0 0
0 0 0
0 0 0
0 0 0
0 0 0
0 0 0
0 0 0
0 0 0
0 0 0
0 0 0
0 0 0
0 0 0
0 0 0
0 0 0
0 0 0
0 0 0
0 0 0
0 0 0
0 0 0
0 0 0
0 0 0
0 0 0
0 0 0
0 0 0
2 2 2
2 2 2
2 2 2
2 2 2
2 2 2
2 2 2
2 2 2
2 2 2
2 2 2
2 2 2
2 2 2
2 2 2
2 2 2
2 2 2
2 2 2
2 2 2
1 1 1
1 1 1
1 1 1
1 1 1
1 1 1
1 1 1
1 1 1
2 2 2
4 4 4
6 6 6
8 8 8
10 10 10
12 12 12
15 15 15
20 20 20
3 3 3
2 2 2
2 2 2
2 2 2
2 2 2
2 2 2
2 2 2
2 2 2
2 2 2
2 2 2
2 2 2
2 2 2
2 2 2
2 2 2
2 2 2
2 2 2
2 2 2
0 0 0
0 0 0
2 2 2
2 2 2
2 2 2
2 2 2
2 2 2
2 2 2
2 2 2
2 2 2
2 2 2
2 2 2
2 2 2
2 2 2
2 2 2
2 2 2
1 1 1
1 1 1
1 1 1
1 1 1
1 1 1
1 1 1
1 1 1
1 1 1
1 1 1
1 1 1
7 7 7
10 10 10
10 10 10
5 5 5
7 7 7
10 10 10
11 11 11
10 10 10
8 8 8
16 16 16
2 2 2
2 2 2
2 2 2
2 2 2
2 2 2
2 2 2
2 2 2
2 2 2
2 2 2
2 2 2
2 2 2
2 2 2
2 2 2
2 2 2
0 0 0
0 0 0
2 2 2
2 2 2
2 2 2
2 2 2
2 2 2
2 2 2
2 2 2
2 2 2
2 2 2
2 2 2
2 2 2
2 2 2
1 1 1
1 1 1
1 1 1
1 1 1
1 1 1
1 1 1
2 2 2
3 3 3
5 5 5
3 3 3
1 1 1
1 1 1
2 2 2
7 7 7
9 9 9
4 4 4
7 7 7
10 10 10
5 5 5
16 16 16
7 7 7
9 9 9
19 19 19
13 13 13
2 2 2
2 2 2
2 2 2
2 2 2
2 2 2
2 2 2
2 2 2
2 2 2
2 2 2
2 2 2
2 2 2
2 2 2
0 0 0
0 0 0
2 2 2
2 2 2
2 2 2
2 2 2
2 2 2
2 2 2
2 2 2
2 2 2
2 2 2
2 2 2
2 2 2
1 1 1
1 1 1
1 1 1
1 1 1
2 2 2
1 1 1
1 1 1
4 4 4
4 4 4
4 4 4
7 7 7
1 1 1
2 2 2
4 4 4
9 9 9
6 6 6
4 4 4
6 6 6
8 8 8
14 14 14
3 3 3
8 8 8
12 12 12
13 13 13
6 6 6
9 9 9
7 7 7
2 2 2
2 2 2
2 2 2
2 2 2
2 2 2
2 2 2
2 2 2
2 2 2
2 2 2
2 2 2
0 0 0
0 0 0
2 2 2
2 2 2
2 2 2
2 2 2
2 2 2
2 2 2
2 2 2
2 2 2
2 2 2
1 1 1
1 1 1
1 1 1
1 1 1
1 1 1
1 1 1
2 2 2
1 1 1
1 1 1
2 2 2
7 7 7
2 2 2
5 5 5
4 4 4
4 4 4
6 6 6
2 2 2
4 4 4
9 9 9
6 6 6
8 8 8
7 7 7
15 15 15
9 9 9
2 2 2
5 5 5
12 12 12
6 6 6
7 7 7
10 10 10
2 2 2
2 2 2
2 2 2
2 2 2
2 2 2
2 2 2
2 2 2
2 2 2
2 2 2
0 0 0
0 0 0
2 2 2
2 2 2
2 2 2
2 2 2
2 2 2
2 2 2
2 2 2
2 2 2
1 1 1
1 1 1
1 1 1
1 1 1
1 1 1
1 1 1
1 1 1
1 1 1
1 1 1
1 1 1
2 2 2
14 14 14
14 14 14
16 16 16
13 13 13
10 10 10
7 7 7
4 4 4
9 9 9
8 8 8
5 5 5
17 17 17
14 14 14
5 5 5
9 9 9
3 3 3
3 3 3
4 4 4
4 4 4
5 5 5
7 7 7
11 11 11
4 4 4
2 2 2
2 2 2
2 2 2
2 2 2
2 2 2
2 2 2
2 2 2
0 0 0
0 0 0
2 2 2
2 2 2
2 2 2
2 2 2
2 2 2
2 2 2
2 2 2
2 2 2
1 1 1
1 1 1
2 2 2
2 2 2
1 1 1
1 1 1
1 1 1
1 1 1
1 1 1
1 1 1
5 5 5
16 16 16
14 14 14
2 2 2
1 1 1
3 3 3
3 3 3
15 15 15
7 7 7
11 11 11
11 11 11
9 9 9
5 5 5
15 15 15
7 7 7
11 11 11
4 4 4
3 3 3
4 4 4
5 5 5
5 5 5
7 7 7
11 11 11
8 8 8
2 2 2
2 2 2
2 2 2
2 2 2
2 2 2
2 2 2
0 0 0
0 0 0
2 2 2
2 2 2
2 2 2
2 2 2
2 2 2
2 2 2
2 2 2
1 1 1
1 1 1
2 2 2
1 1 1
1 1 1
2 2 2
1 1 1
1 1 1
1 1 1
1 1 1
1 1 1
16 16 16
8 8 8
12 12 12
13 13 13
2 2 2
2 2 2
11 11 11
2 2 2
7 7 7
18 18 18
15 15 15
12 12 12
11 11 11
12 12 12
3 3 3
3 3 3
9 9 9
11 11 11
9 9 9
4 4 4
4 4 4
5 5 5
8 8 8
46 46 46
4 4 4
2 2 2
2 2 2
2 2 2
2 2 2
2 2 2
0 0 0
0 0 0
2 2 2
2 2 2
2 2 2
2 2 2
2 2 2
2 2 2
1 1 1
2 2 2
2 2 2
2 2 2
2 2 2
2 2 2
2 2 2
1 1 1
1 1 1
1 1 1
2 2 2
5 5 5
11 11 11
10 10 10
9 9 9
8 8 8
16 16 16
4 4 4
11 11 11
9 9 9
13 13 13
14 14 14
6 6 6
10 10 10
9 9 9
8 8 8
3 3 3
3 3 3
3 3 3
3 3 3
12 12 12
5 5 5
4 4 4
5 5 5
6 6 6
17 17 17
17 17 17
2 2 2
2 2 2
2 2 2
2 2 2
2 2 2
0 0 0
0 0 0
2 2 2
2 2 2
2 2 2
2 2 2
2 2 2
2 2 2
2 2 2
2 2 2
2 2 2
2 2 2
2 2 2
2 2 2
2 2 2
1 1 1
2 2 2
1 1 1
15 15 15
18 18 18
17 17 17
8 8 8
10 10 10
9 9 9
15 15 15
19 19 19
10 10 10
15 15 15
5 5 5
2 2 2
2 2 2
3 3 3
21 21 21
8 8 8
2 2 2
2 2 2
3 3 3
3 3 3
3 3 3
4 4 4
5 5 5
4 4 4
5 5 5
6 6 6
21 21 21
20 20 20
2 2 2
2 2 2
2 2 2
2 2 2
0 0 0
0 0 0
2 2 2
2 2 2
2 2 2
2 2 2
2 2 2
1 1 1
1 1 1
2 2 2
2 2 2
2 2 2
2 2 2
2 2 2
2 2 2
1 1 1
14 14 14
13 13 13
7 7 7
8 8 8
3 3 3
44 44 44
73 73 73
83 83 83
81 81 81
81 81 81
80 80 80
52 52 52
81 81 81
65 65 65
4 4 4
2 2 2
15 15 15
9 9 9
20 20 20
23 23 23
16 16 16
4 4 4
4 4 4
5 5 5
5 5 5
12 12 12
4 4 4
4 4 4
35 35 35
13 13 13
18 18 18
2 2 2
2 2 2
2 2 2
0 0 0
0 0 0
2 2 2
2 2 2
2 2 2
1 1 1
1 1 1
2 2 2
2 2 2
1 1 1
2 2 2
2 2 2
3 3 3
3 3 3
5 5 5
20 20 20
22 22 22
23 23 23
22 22 22
17 17 17
68 68 68
81 81 81
83 83 83
85 85 85
84 84 84
84 84 84
88 88 88
89 89 89
90 90 90
89 89 89
84 84 84
48 48 48
7 7 7
15 15 15
10 10 10
16 16 16
10 10 10
14 14 14
5 5 5
5 5 5
5 5 5
11 11 11
4 4 4
4 4 4
43 43 43
11 11 11
15 15 15
5 5 5
2 2 2
2 2 2
0 0 0
0 0 0
2 2 2
2 2 2
2 2 2
2 2 2
1 1 1
2 2 2
1 1 1
2 2 2
2 2 2
2 2 2
3 3 3
19 19 19
37 37 37
69 69 69
69 69 69
78 78 78
79 79 79
77 77 77
82 82 82
82 82 82
82 82 82
84 84 84
88 88 88
82 82 82
89 89 89
87 87 87
80 80 80
86 86 86
89 89 89
83 83 83
25 25 25
11 11 11
5 5 5
10 10 10
13 13 13
19 19 19
12 12 12
3 3 3
9 9 9
8 8 8
5 5 5
11 11 11
38 38 38
7 7 7
13 13 13
81 81 81
2 2 2
2 2 2
0 0 0
0 0 0
2 2 2
2 2 2
2 2 2
2 2 2
2 2 2
1 1 1
1 1 1
3 3 3
3 3 3
1 1 1
29 29 29
72 72 72
78 78 78
82 82 82
78 78 78
82 82 82
81 81 81
81 81 81
82 82 82
88 88 88
80 80 80
82 82 82
84 84 84
79 79 79
81 81 81
80 80 80
84 84 84
83 83 83
80 80 80
88 88 88
84 84 84
67 67 67
12 12 12
6 6 6
3 3 3
4 4 4
17 17 17
7 7 7
4 4 4
12 12 12
10 10 10
6 6 6
26 26 26
8 8 8
11 11 11
56 56 56
5 5 5
2 2 2
0 0 0
0 0 0
2 2 2
2 2 2
1 1 1
1 1 1
2 2 2
2 2 2
3 3 3
2 2 2
2 2 2
76 76 76
78 78 78
98 98 98
190 190 190
187 187 187
79 79 79
82 82 82
83 83 83
87 87 87
86 86 86
87 87 87
85 85 85
88 88 88
89 89 89
86 86 86
80 80 80
80 80 80
87 87 87
88 88 88
88 88 88
88 88 88
89 89 89
86 86 86
81 81 81
5 5 5
5 5 5
6 6 6
15 15 15
13 13 13
7 7 7
8 8 8
5 5 5
4 4 4
7 7 7
12 12 12
9 9 9
33 33 33
23 23 23
2 2 2
0 0 0
0 0 0
2 2 2
1 1 1
0 0 0
1 1 1
1 1 1
3 3 3
2 2 2
3 3 3
80 80 80
80 80 80
118 118 118
175 175 175
179 179 179
103 103 103
79 79 79
85 85 85
86 86 86
87 87 87
87 87 87
88 88 88
86 86 86
88 88 88
88 88 88
87 87 87
86 86 86
87 87 87
86 86 86
86 86 86
86 86 86
88 88 88
88 88 88
89 89 89
82 82 82
58 58 58
9 9 9
13 13 13
19 19 19
15 15 15
13 13 13
14 14 14
11 11 11
5 5 5
4 4 4
29 29 29
6 6 6
21 21 21
16 16 16
3 3 3
0 0 0
0 0 0
2 2 2
1 1 1
1 1 1
1 1 1
2 2 2
3 3 3
2 2 2
83 83 83
81 81 81
120 120 120
148 148 148
158 158 158
108 108 108
83 83 83
86 86 86
87 87 87
87 87 87
87 87 87
87 87 87
87 87 87
88 88 88
86 86 86
88 88 88
97 97 97
102 102 102
101 101 101
121 121 121
92 92 92
85 85 85
87 87 87
86 86 86
89 89 89
89 89 89
83 83 83
32 32 32
6 6 6
12 12 12
6 6 6
9 9 9
16 16 16
8 8 8
9 9 9
3 3 3
45 45 45
7 7 7
16 16 16
18 18 18
20 20 20
0 0 0
0 0 0
2 2 2
1 1 1
1 1 1
1 1 1
2 2 2
1 1 1
75 75 75
79 79 79
90 90 90
142 142 142
143 143 143
103 103 103
87 87 87
88 88 88
87 87 87
87 87 87
85 85 85
86 86 86
88 88 88
51 51 51
88 88 88
86 86 86
87 87 87
99 99 99
90 90 90
112 112 112
105 105 105
108 108 108
87 87 87
84 84 84
87 87 87
87 87 87
88 88 88
81 81 81
84 84 84
22 22 22
19 19 19
3 3 3
12 12 12
19 19 19
14 14 14
12 12 12
3 3 3
39 39 39
9 9 9
11 11 11
21 21 21
20 20 20
0 0 0
0 0 0
2 2 2
2 2 2
1 1 1
2 2 2
2 2 2
19 19 19
83 83 83
85 85 85
175 175 175
126 126 126
127 127 127
87 87 87
88 88 88
89 89 89
87 87 87
85 85 85
86 86 86
87 87 87
86 86 86
1 1 1
88 88 88
85 85 85
93 93 93
94 94 94
113 113 113
157 157 157
128 128 128
105 105 105
79 79 79
79 79 79
83 83 83
88 88 88
88 88 88
88 88 88
87 87 87
34 34 34
16 16 16
5 5 5
12 12 12
12 12 12
8 8 8
12 12 12
3 3 3
30 30 30
9 9 9
9 9 9
26 26 26
14 14 14
0 0 0
0 0 0
2 2 2
1 1 1
1 1 1
2 2 2
1 1 1
82 82 82
85 85 85
115 115 115
111 111 111
204 204 204
87 87 87
87 87 87
88 88 88
88 88 88
87 87 87
87 87 87
87 87 87
87 87 87
88 88 88
0 0 0
42 42 42
98 98 98
94 94 94
103 103 103
102 102 102
86 86 86
112 112 112
138 138 138
80 80 80
87 87 87
80 80 80
81 81 81
88 88 88
89 89 89
80 80 80
79 79 79
14 14 14
20 20 20
13 13 13
9 9 9
10 10 10
16 16 16
9 9 9
39 39 39
8 8 8
9 9 9
32 32 32
13 13 13
0 0 0
0 0 0
1 1 1
0 0 0
1 1 1
3 3 3
1 1 1
85 85 85
82 82 82
173 173 173
126 126 126
153 153 153
86 86 86
87 87 87
88 88 88
87 87 87
86 86 86
85 85 85
85 85 85
88 88 88
70 70 70
1 1 1
27 27 27
116 116 116
98 98 98
106 106 106
95 95 95
85 85 85
86 86 86
130 130 130
83 83 83
87 87 87
84 84 84
80 80 80
86 86 86
88 88 88
90 90 90
84 84 84
16 16 16
8 8 8
21 21 21
10 10 10
7 7 7
15 15 15
10 10 10
48 48 48
7 7 7
8 8 8
36 36 36
14 14 14
0 0 0
0 0 0
1 1 1
1 1 1
1 1 1
2 2 2
1 1 1
83 83 83
81 81 81
198 198 198
133 133 133
174 174 174
86 86 86
87 87 87
88 88 88
88 88 88
87 87 87
87 87 87
87 87 87
88 88 88
41 41 41
0 0 0
75 75 75
117 117 117
100 100 100
114 114 114
86 86 86
85 85 85
86 86 86
122 122 122
111 111 111
87 87 87
80 80 80
85 85 85
83 83 83
88 88 88
91 91 91
84 84 84
19 19 19
8 8 8
11 11 11
4 4 4
15 15 15
17 17 17
6 6 6
28 28 28
7 7 7
8 8 8
42 42 42
13 13 13
0 0 0
0 0 0
1 1 1
1 1 1
1 1 1
2 2 2
1 1 1
75 75 75
85 85 85
100 100 100
140 140 140
208 208 208
88 88 88
86 86 86
88 88 88
88 88 88
88 88 88
87 87 87
87 87 87
88 88 88
82 82 82
17 17 17
89 89 89
89 89 89
102 102 102
131 131 131
88 88 88
85 85 85
135 135 135
125 125 125
97 97 97
83 83 83
85 85 85
81 81 81
87 87 87
88 88 88
90 90 90
85 85 85
22 22 22
16 16 16
9 9 9
8 8 8
19 19 19
14 14 14
5 5 5
13 13 13
7 7 7
8 8 8
45 45 45
12 12 12
0 0 0
0 0 0
1 1 1
2 2 2
1 1 1
1 1 1
1 1 1
24 24 24
81 81 81
82 82 82
161 161 161
138 138 138
134 134 134
87 87 87
87 87 87
88 88 88
88 88 88
88 88 88
87 87 87
85 85 85
85 85 85
78 78 78
87 87 87
87 87 87
93 93 93
133 133 133
160 160 160
154 154 154
91 91 91
80 80 80
85 85 85
87 87 87
81 81 81
82 82 82
87 87 87
88 88 88
88 88 88
84 84 84
14 14 14
12 12 12
9 9 9
5 5 5
19 19 19
13 13 13
8 8 8
8 8 8
7 7 7
6 6 6
46 46 46
12 12 12
0 0 0
0 0 0
2 2 2
1 1 1
1 1 1
0 0 0
1 1 1
0 0 0
45 45 45
77 77 77
83 83 83
208 208 208
115 115 115
192 192 192
88 88 88
88 88 88
88 88 88
87 87 87
87 87 87
87 87 87
87 87 87
86 86 86
87 87 87
89 89 89
101 101 101
112 112 112
99 99 99
121 121 121
78 78 78
79 79 79
80 80 80
80 80 80
84 84 84
87 87 87
89 89 89
88 88 88
82 82 82
91 91 91
6 6 6
10 10 10
17 17 17
9 9 9
11 11 11
12 12 12
9 9 9
9 9 9
7 7 7
8 8 8
44 44 44
13 13 13
0 0 0
0 0 0
1 1 1
1 1 1
1 1 1
1 1 1
0 0 0
1 1 1
0 0 0
39 39 39
76 76 76
85 85 85
222 222 222
129 129 129
212 212 212
82 82 82
78 78 78
82 82 82
87 87 87
87 87 87
90 90 90
87 87 87
88 88 88
87 87 87
95 95 95
87 87 87
116 116 116
89 89 89
79 79 79
85 85 85
86 86 86
87 87 87
84 84 84
89 89 89
89 89 89
81 81 81
84 84 84
43 43 43
5 5 5
9 9 9
9 9 9
14 14 14
7 7 7
9 9 9
7 7 7
10 10 10
7 7 7
7 7 7
43 43 43
13 13 13
0 0 0
0 0 0
1 1 1
1 1 1
1 1 1
0 0 0
1 1 1
1 1 1
1 1 1
0 0 0
10 10 10
73 73 73
76 76 76
171 171 171
202 202 202
190 190 190
79 79 79
79 79 79
82 82 82
88 88 88
88 88 88
88 88 88
85 85 85
88 88 88
87 87 87
85 85 85
84 84 84
84 84 84
87 87 87
88 88 88
87 87 87
86 86 86
88 88 88
89 89 89
79 79 79
85 85 85
50 50 50
3 3 3
5 5 5
10 10 10
11 11 11
14 14 14
12 12 12
10 10 10
11 11 11
14 14 14
8 8 8
7 7 7
38 38 38
14 14 14
0 0 0
0 0 0
1 1 1
1 1 1
1 1 1
1 1 1
1 1 1
1 1 1
1 1 1
1 1 1
0 0 0
0 0 0
16 16 16
50 50 50
79 79 79
105 105 105
84 84 84
78 78 78
79 79 79
83 83 83
88 88 88
88 88 88
87 87 87
84 84 84
87 87 87
88 88 88
82 82 82
83 83 83
88 88 88
89 89 89
89 89 89
89 89 89
89 89 89
83 83 83
85 85 85
11 11 11
2 2 2
7 7 7
7 7 7
10 10 10
10 10 10
8 8 8
20 20 20
8 8 8
7 7 7
22 22 22
8 8 8
8 8 8
33 33 33
13 13 13
0 0 0
0 0 0
1 1 1
1 1 1
1 1 1
1 1 1
1 1 1
2 2 2
1 1 1
1 1 1
1 1 1
1 1 1
4 4 4
17 17 17
20 20 20
24 24 24
48 48 48
74 74 74
78 78 78
78 78 78
82 82 82
86 86 86
85 85 85
85 85 85
82 82 82
79 79 79
83 83 83
82 82 82
87 87 87
87 87 87
87 87 87
89 89 89
86 86 86
84 84 84
15 15 15
1 1 1
6 6 6
9 9 9
3 3 3
3 3 3
4 4 4
6 6 6
18 18 18
11 11 11
5 5 5
35 35 35
8 8 8
10 10 10
27 27 27
13 13 13
0 0 0
0 0 0
1 1 1
1 1 1
1 1 1
1 1 1
1 1 1
2 2 2
2 2 2
2 2 2
2 2 2
2 2 2
2 2 2
2 2 2
7 7 7
18 18 18
23 23 23
15 15 15
38 38 38
59 59 59
67 67 67
81 81 81
82 82 82
85 85 85
84 84 84
86 86 86
90 90 90
85 85 85
90 90 90
84 84 84
53 53 53
20 20 20
22 22 22
12 12 12
2 2 2
4 4 4
4 4 4
8 8 8
3 3 3
7 7 7
8 8 8
3 3 3
8 8 8
6 6 6
4 4 4
40 40 40
6 6 6
12 12 12
21 21 21
14 14 14
0 0 0
0 0 0
1 1 1
1 1 1
1 1 1
1 1 1
2 2 2
1 1 1
2 2 2
2 2 2
2 2 2
2 2 2
2 2 2
2 2 2
2 2 2
1 1 1
6 6 6
3 3 3
9 9 9
8 8 8
1 1 1
2 2 2
50 50 50
82 82 82
79 79 79
83 83 83
91 91 91
91 91 91
81 81 81
5 5 5
1 1 1
9 9 9
6 6 6
4 4 4
6 6 6
4 4 4
3 3 3
7 7 7
3 3 3
7 7 7
6 6 6
10 10 10
7 7 7
8 8 8
5 5 5
42 42 42
8 8 8
16 16 16
17 17 17
17 17 17
0 0 0
0 0 0
2 2 2
1 1 1
1 1 1
1 1 1
1 1 1
2 2 2
2 2 2
2 2 2
2 2 2
2 2 2
2 2 2
2 2 2
1 1 1
1 1 1
2 2 2
1 1 1
2 2 2
7 7 7
3 3 3
1 1 1
2 2 2
1 1 1
0 0 0
9 9 9
21 21 21
4 4 4
1 1 1
2 2 2
2 2 2
4 4 4
3 3 3
3 3 3
3 3 3
4 4 4
3 3 3
9 9 9
12 12 12
6 6 6
8 8 8
20 20 20
9 9 9
5 5 5
9 9 9
38 38 38
9 9 9
22 22 22
15 15 15
26 26 26
0 0 0
0 0 0
2 2 2
1 1 1
1 1 1
1 1 1
1 1 1
1 1 1
1 1 1
1 1 1
1 1 1
2 2 2
2 2 2
2 2 2
2 2 2
2 2 2
2 2 2
2 2 2
2 2 2
2 2 2
7 7 7
2 2 2
2 2 2
2 2 2
2 2 2
2 2 2
2 2 2
2 2 2
2 2 2
2 2 2
2 2 2
3 3 3
3 3 3
3 3 3
3 3 3
3 3 3
3 3 3
10 10 10
14 14 14
9 9 9
12 12 12
15 15 15
12 12 12
8 8 8
5 5 5
26 26 26
9 9 9
32 32 32
13 13 13
2 2 2
0 0 0
0 0 0
2 2 2
1 1 1
2 2 2
1 1 1
1 1 1
1 1 1
1 1 1
1 1 1
2 2 2
2 2 2
2 2 2
2 2 2
2 2 2
1 1 1
2 2 2
2 2 2
2 2 2
2 2 2
2 2 2
1 1 1
2 2 2
2 2 2
2 2 2
3 3 3
2 2 2
3 3 3
2 2 2
3 3 3
3 3 3
3 3 3
3 3 3
3 3 3
3 3 3
3 3 3
3 3 3
10 10 10
12 12 12
10 10 10
9 9 9
4 4 4
11 11 11
10 10 10
9 9 9
14 14 14
9 9 9
52 52 52
21 21 21
2 2 2
0 0 0
0 0 0
2 2 2
2 2 2
1 1 1
1 1 1
1 1 1
2 2 2
1 1 1
1 1 1
2 2 2
1 1 1
1 1 1
1 1 1
2 2 2
1 1 1
2 2 2
2 2 2
2 2 2
2 2 2
2 2 2
2 2 2
2 2 2
2 2 2
2 2 2
2 2 2
3 3 3
3 3 3
3 3 3
3 3 3
3 3 3
2 2 2
3 3 3
3 3 3
3 3 3
3 3 3
2 2 2
9 9 9
7 7 7
13 13 13
5 5 5
11 11 11
9 9 9
10 10 10
11 11 11
10 10 10
11 11 11
77 77 77
8 8 8
2 2 2
0 0 0
0 0 0
2 2 2
2 2 2
1 1 1
2 2 2
1 1 1
1 1 1
1 1 1
1 1 1
2 2 2
2 2 2
2 2 2
1 1 1
1 1 1
2 2 2
2 2 2
1 1 1
2 2 2
2 2 2
2 2 2
2 2 2
3 3 3
2 2 2
2 2 2
2 2 2
2 2 2
3 3 3
3 3 3
3 3 3
3 3 3
3 3 3
2 2 2
2 2 2
3 3 3
3 3 3
3 3 3
9 9 9
10 10 10
5 5 5
12 12 12
12 12 12
7 7 7
7 7 7
35 35 35
9 9 9
14 14 14
90 90 90
2 2 2
2 2 2
0 0 0
0 0 0
2 2 2
2 2 2
2 2 2
1 1 1
1 1 1
2 2 2
1 1 1
2 2 2
2 2 2
1 1 1
1 1 1
2 2 2
1 1 1
1 1 1
2 2 2
1 1 1
2 2 2
2 2 2
2 2 2
2 2 2
2 2 2
2 2 2
1 1 1
2 2 2
2 2 2
2 2 2
2 2 2
3 3 3
3 3 3
4 4 4
3 3 3
3 3 3
3 3 3
3 3 3
3 3 3
10 10 10
4 4 4
4 4 4
10 10 10
13 13 13
12 12 12
8 8 8
27 27 27
11 11 11
16 16 16
11 11 11
2 2 2
2 2 2
0 0 0
0 0 0
2 2 2
2 2 2
2 2 2
1 1 1
1 1 1
1 1 1
1 1 1
1 1 1
2 2 2
2 2 2
1 1 1
1 1 1
1 1 1
1 1 1
1 1 1
2 2 2
2 2 2
2 2 2
2 2 2
2 2 2
2 2 2
2 2 2
2 2 2
2 2 2
2 2 2
2 2 2
2 2 2
2 2 2
3 3 3
4 4 4
4 4 4
4 4 4
3 3 3
3 3 3
3 3 3
6 6 6
3 3 3
9 9 9
6 6 6
12 12 12
14 14 14
12 12 12
10 10 10
13 13 13
31 31 31
2 2 2
2 2 2
2 2 2
0 0 0
0 0 0
2 2 2
2 2 2
2 2 2
2 2 2
1 1 1
1 1 1
1 1 1
1 1 1
1 1 1
1 1 1
2 2 2
1 1 1
1 1 1
2 2 2
1 1 1
2 2 2
2 2 2
2 2 2
2 2 2
2 2 2
2 2 2
2 2 2
2 2 2
2 2 2
2 2 2
2 2 2
2 2 2
2 2 2
3 3 3
3 3 3
4 4 4
4 4 4
3 3 3
3 3 3
3 3 3
3 3 3
5 5 5
11 11 11
7 7 7
19 19 19
10 10 10
39 39 39
10 10 10
16 16 16
2 2 2
2 2 2
2 2 2
2 2 2
0 0 0
0 0 0
2 2 2
2 2 2
2 2 2
2 2 2
2 2 2
1 1 1
1 1 1
1 1 1
1 1 1
1 1 1
1 1 1
2 2 2
1 1 1
1 1 1
1 1 1
2 2 2
2 2 2
2 2 2
2 2 2
2 2 2
2 2 2
2 2 2
2 2 2
2 2 2
3 3 3
2 2 2
2 2 2
3 3 3
3 3 3
3 3 3
4 4 4
5 5 5
3 3 3
9 9 9
7 7 7
3 3 3
11 11 11
11 11 11
12 12 12
15 15 15
8 8 8
23 23 23
15 15 15
5 5 5
2 2 2
2 2 2
2 2 2
2 2 2
0 0 0
0 0 0
2 2 2
2 2 2
2 2 2
2 2 2
2 2 2
2 2 2
1 1 1
1 1 1
1 1 1
1 1 1
1 1 1
1 1 1
1 1 1
1 1 1
1 1 1
2 2 2
2 2 2
1 1 1
2 2 2
2 2 2
2 2 2
2 2 2
2 2 2
2 2 2
2 2 2
2 2 2
2 2 2
3 3 3
2 2 2
3 3 3
4 4 4
6 6 6
8 8 8
3 3 3
5 5 5
3 3 3
7 7 7
11 11 11
16 16 16
12 12 12
22 22 22
14 14 14
9 9 9
2 2 2
2 2 2
2 2 2
2 2 2
2 2 2
0 0 0
0 0 0
2 2 2
2 2 2
2 2 2
2 2 2
2 2 2
2 2 2
2 2 2
1 1 1
1 1 1
1 1 1
1 1 1
1 1 1
1 1 1
1 1 1
2 2 2
2 2 2
2 2 2
2 2 2
2 2 2
2 2 2
2 2 2
2 2 2
2 2 2
2 2 2
2 2 2
3 3 3
2 2 2
2 2 2
4 4 4
6 6 6
8 8 8
3 3 3
3 3 3
3 3 3
3 3 3
3 3 3
10 10 10
8 8 8
12 12 12
10 10 10
48 48 48
17 17 17
2 2 2
2 2 2
2 2 2
2 2 2
2 2 2
2 2 2
0 0 0
0 0 0
2 2 2
2 2 2
2 2 2
2 2 2
2 2 2
2 2 2
2 2 2
2 2 2
1 1 1
1 1 1
1 1 1
1 1 1
1 1 1
1 1 1
1 1 1
1 1 1
1 1 1
1 1 1
1 1 1
2 2 2
2 2 2
2 2 2
2 2 2
1 1 1
2 2 2
2 2 2
3 3 3
8 8 8
4 4 4
3 3 3
2 2 2
3 3 3
12 12 12
6 6 6
10 10 10
10 10 10
17 17 17
16 16 16
18 18 18
15 15 15
12 12 12
2 2 2
2 2 2
2 2 2
2 2 2
2 2 2
2 2 2
2 2 2
0 0 0
0 0 0
2 2 2
2 2 2
2 2 2
2 2 2
2 2 2
2 2 2
2 2 2
2 2 2
2 2 2
1 1 1
1 1 1
1 1 1
1 1 1
1 1 1
2 2 2
1 1 1
2 2 2
2 2 2
2 2 2
2 2 2
2 2 2
2 2 2
2 2 2
2 2 2
2 2 2
2 2 2
9 9 9
2 2 2
3 3 3
3 3 3
3 3 3
4 4 4
11 11 11
6 6 6
10 10 10
19 19 19
6 6 6
22 22 22
22 22 22
5 5 5
2 2 2
2 2 2
2 2 2
2 2 2
2 2 2
2 2 2
2 2 2
2 2 2
0 0 0
0 0 0
2 2 2
2 2 2
2 2 2
2 2 2
2 2 2
2 2 2
2 2 2
2 2 2
2 2 2
2 2 2
1 1 1
1 1 1
1 1 1
1 1 1
1 1 1
2 2 2
2 2 2
1 1 1
2 2 2
2 2 2
2 2 2
2 2 2
2 2 2
2 2 2
2 2 2
6 6 6
3 3 3
3 3 3
3 3 3
2 2 2
4 4 4
11 11 11
5 5 5
7 7 7
16 16 16
15 15 15
10 10 10
29 29 29
2 2 2
2 2 2
2 2 2
2 2 2
2 2 2
2 2 2
2 2 2
2 2 2
2 2 2
2 2 2
0 0 0
0 0 0
2 2 2
2 2 2
2 2 2
2 2 2
2 2 2
2 2 2
2 2 2
2 2 2
2 2 2
2 2 2
2 2 2
2 2 2
1 1 1
1 1 1
1 1 1
1 1 1
1 1 1
2 2 2
1 1 1
1 1 1
2 2 2
1 1 1
2 2 2
2 2 2
2 2 2
7 7 7
4 4 4
3 3 3
3 3 3
3 3 3
7 7 7
6 6 6
14 14 14
9 9 9
16 16 16
25 25 25
3 3 3
2 2 2
2 2 2
2 2 2
2 2 2
2 2 2
2 2 2
2 2 2
2 2 2
2 2 2
2 2 2
2 2 2
0 0 0
0 0 0
2 2 2
2 2 2
2 2 2
2 2 2
2 2 2
2 2 2
2 2 2
2 2 2
2 2 2
2 2 2
2 2 2
2 2 2
2 2 2
2 2 2
1 1 1
1 1 1
1 1 1
1 1 1
1 1 1
2 2 2
2 2 2
2 2 2
2 2 2
2 2 2
4 4 4
7 7 7
4 4 4
3 3 3
3 3 3
4 4 4
10 10 10
5 5 5
21 21 21
20 20 20
3 3 3
2 2 2
2 2 2
2 2 2
2 2 2
2 2 2
2 2 2
2 2 2
2 2 2
2 2 2
2 2 2
2 2 2
2 2 2
2 2 2
0 0 0
0 0 0
2 2 2
2 2 2
2 2 2
2 2 2
2 2 2
2 2 2
2 2 2
2 2 2
2 2 2
2 2 2
2 2 2
2 2 2
2 2 2
2 2 2
2 2 2
2 2 2
2 2 2
2 2 2
2 2 2
2 2 2
2 2 2
2 2 2
2 2 2
3 3 3
4 4 4
9 9 9
5 5 5
3 3 3
4 4 4
4 4 4
14 14 14
14 14 14
2 2 2
2 2 2
2 2 2
2 2 2
2 2 2
2 2 2
2 2 2
2 2 2
2 2 2
2 2 2
2 2 2
2 2 2
2 2 2
2 2 2
2 2 2
2 2 2
0 0 0
0 0 0
0 0 0
0 0 0
0 0 0
0 0 0
0 0 0
0 0 0
0 0 0
0 0 0
0 0 0
0 0 0
0 0 0
0 0 0
0 0 0
0 0 0
0 0 0
0 0 0
0 0 0
0 0 0
0 0 0
0 0 0
0 0 0
0 0 0
0 0 0
0 0 0
0 0 0
0 0 0
0 0 0
0 0 0
0 0 0
0 0 0
0 0 0
0 0 0
0 0 0
0 0 0
0 0 0
0 0 0
0 0 0
0 0 0
0 0 0
0 0 0
0 0 0
0 0 0
0 0 0
0 0 0
0 0 0
0 0 0
0 0 0
0 0 0
0 0 0
